0
SECTION
2
HEADER
9
$ACADVER
1
AC1008
9
$UCSORG
10
0.0
20
0.0
30
0.0
9
$UCSXDIR
10
1.0
20
0.0
30
0.0
9
$TILEMODE
70
1
9
$UCSYDIR
10
0.0
20
1.0
30
0.0
9
$EXTMIN
10
-398.000000
20
-241.032593
30
-118.001953
9
$EXTMAX
10
460.000000
20
231.999878
30
150.000000
0
ENDSEC
0
SECTION
2
TABLES
0
TABLE
2
LTYPE
70
1
0
LTYPE
2
CONTINUOUS
70
64
3
Solid line
72
65
73
0
40
0.0
0
ENDTAB
0
TABLE
2
LAYER
70
1
0
LAYER
2
0
70
0
62
7
6
CONTINUOUS
0
ENDTAB
0
TABLE
2
STYLE
70
1
0
STYLE
2
STANDARD
70
0
40
0.0
41
1.0
50
0.0
71
0
42
0.2
3
txt
4

0
ENDTAB
0
TABLE
2
UCS
70
0
0
ENDTAB
0
ENDSEC
0
SECTION
2
ENTITIES
0
POLYLINE
8
OBJECT000
66
1
70
64
71
8
72
12
62
50
0
VERTEX
8
OBJECT000
10
-6.000000
20
218.967285
30
-34.000000
70
192
0
VERTEX
8
OBJECT000
10
128.000000
20
218.967285
30
-34.000000
70
192
0
VERTEX
8
OBJECT000
10
128.000000
20
118.967285
30
-34.000000
70
192
0
VERTEX
8
OBJECT000
10
-6.000000
20
118.967285
30
-34.000000
70
192
0
VERTEX
8
OBJECT000
10
-6.000000
20
118.967285
30
-44.000000
70
192
0
VERTEX
8
OBJECT000
10
128.000000
20
118.967285
30
-44.000000
70
192
0
VERTEX
8
OBJECT000
10
128.000000
20
218.967285
30
-44.000000
70
192
0
VERTEX
8
OBJECT000
10
-6.000000
20
218.967285
30
-44.000000
70
192
0
VERTEX
8
OBJECT000
10
0
20
0
30
0
70
128
71
2
72
3
73
-4
0
VERTEX
8
OBJECT000
10
0
20
0
30
0
70
128
71
-2
72
4
73
1
0
VERTEX
8
OBJECT000
10
0
20
0
30
0
70
128
71
6
72
7
73
-8
0
VERTEX
8
OBJECT000
10
0
20
0
30
0
70
128
71
-6
72
8
73
5
0
VERTEX
8
OBJECT000
10
0
20
0
30
0
70
128
71
8
72
1
73
-4
0
VERTEX
8
OBJECT000
10
0
20
0
30
0
70
128
71
-8
72
4
73
5
0
VERTEX
8
OBJECT000
10
0
20
0
30
0
70
128
71
2
72
7
73
-6
0
VERTEX
8
OBJECT000
10
0
20
0
30
0
70
128
71
-2
72
6
73
3
0
VERTEX
8
OBJECT000
10
0
20
0
30
0
70
128
71
5
72
4
73
-3
0
VERTEX
8
OBJECT000
10
0
20
0
30
0
70
128
71
-5
72
3
73
6
0
VERTEX
8
OBJECT000
10
0
20
0
30
0
70
128
71
1
72
8
73
-7
0
VERTEX
8
OBJECT000
10
0
20
0
30
0
70
128
71
-1
72
7
73
2
0
SEQEND
8
OBJECT000
0
POLYLINE
8
OBJECT001
66
1
70
64
71
12
72
20
62
50
0
VERTEX
8
OBJECT001
10
226.000000
20
231.999878
30
-14.600159
70
192
0
VERTEX
8
OBJECT001
10
200.442383
20
231.999878
30
13.833374
70
192
0
VERTEX
8
OBJECT001
10
-105.392548
20
231.999878
30
13.833374
70
192
0
VERTEX
8
OBJECT001
10
-105.999023
20
231.999878
30
13.276917
70
192
0
VERTEX
8
OBJECT001
10
-78.711029
20
231.999878
30
-39.667419
70
192
0
VERTEX
8
OBJECT001
10
200.672852
20
231.999878
30
-39.667419
70
192
0
VERTEX
8
OBJECT001
10
-70.293518
20
218.967285
30
-55.999023
70
192
0
VERTEX
8
OBJECT001
10
184.171875
20
218.967285
30
-55.999023
70
192
0
VERTEX
8
OBJECT001
10
-105.998993
20
218.967285
30
13.276855
70
192
0
VERTEX
8
OBJECT001
10
-105.392548
20
218.967285
30
13.833374
70
192
0
VERTEX
8
OBJECT001
10
200.442383
20
218.967285
30
13.833374
70
192
0
VERTEX
8
OBJECT001
10
226.000000
20
218.967285
30
-14.600159
70
192
0
VERTEX
8
OBJECT001
10
0
20
0
30
0
70
128
71
2
72
3
73
-4
0
VERTEX
8
OBJECT001
10
0
20
0
30
0
70
128
71
-2
72
4
73
-5
0
VERTEX
8
OBJECT001
10
0
20
0
30
0
70
128
71
-2
72
5
73
-6
0
VERTEX
8
OBJECT001
10
0
20
0
30
0
70
128
71
-2
72
6
73
1
0
VERTEX
8
OBJECT001
10
0
20
0
30
0
70
128
71
5
72
7
73
-8
0
VERTEX
8
OBJECT001
10
0
20
0
30
0
70
128
71
-5
72
8
73
6
0
VERTEX
8
OBJECT001
10
0
20
0
30
0
70
128
71
10
72
11
73
-12
0
VERTEX
8
OBJECT001
10
0
20
0
30
0
70
128
71
-10
72
12
73
-8
0
VERTEX
8
OBJECT001
10
0
20
0
30
0
70
128
71
-10
72
8
73
-7
0
VERTEX
8
OBJECT001
10
0
20
0
30
0
70
128
71
-10
72
7
73
9
0
VERTEX
8
OBJECT001
10
0
20
0
30
0
70
128
71
10
72
3
73
-2
0
VERTEX
8
OBJECT001
10
0
20
0
30
0
70
128
71
-10
72
2
73
11
0
VERTEX
8
OBJECT001
10
0
20
0
30
0
70
128
71
9
72
4
73
-3
0
VERTEX
8
OBJECT001
10
0
20
0
30
0
70
128
71
-9
72
3
73
10
0
VERTEX
8
OBJECT001
10
0
20
0
30
0
70
128
71
7
72
5
73
-4
0
VERTEX
8
OBJECT001
10
0
20
0
30
0
70
128
71
-7
72
4
73
9
0
VERTEX
8
OBJECT001
10
0
20
0
30
0
70
128
71
1
72
12
73
-11
0
VERTEX
8
OBJECT001
10
0
20
0
30
0
70
128
71
-1
72
11
73
2
0
VERTEX
8
OBJECT001
10
0
20
0
30
0
70
128
71
6
72
8
73
-12
0
VERTEX
8
OBJECT001
10
0
20
0
30
0
70
128
71
-6
72
12
73
1
0
SEQEND
8
OBJECT001
0
POLYLINE
8
OBJECT002
66
1
70
64
71
8
72
12
62
50
0
VERTEX
8
OBJECT002
10
159.399597
20
231.999878
30
59.494568
70
192
0
VERTEX
8
OBJECT002
10
-55.707611
20
231.999878
30
59.494568
70
192
0
VERTEX
8
OBJECT002
10
-105.268829
20
231.999878
30
13.947510
70
192
0
VERTEX
8
OBJECT002
10
200.339844
20
231.999878
30
13.947510
70
192
0
VERTEX
8
OBJECT002
10
144.564087
20
218.967285
30
75.999390
70
192
0
VERTEX
8
OBJECT002
10
-37.750458
20
218.967285
30
75.999390
70
192
0
VERTEX
8
OBJECT002
10
200.339844
20
218.967285
30
13.947510
70
192
0
VERTEX
8
OBJECT002
10
-105.268829
20
218.967285
30
13.947510
70
192
0
VERTEX
8
OBJECT002
10
0
20
0
30
0
70
128
71
2
72
3
73
-4
0
VERTEX
8
OBJECT002
10
0
20
0
30
0
70
128
71
-2
72
4
73
1
0
VERTEX
8
OBJECT002
10
0
20
0
30
0
70
128
71
6
72
2
73
-1
0
VERTEX
8
OBJECT002
10
0
20
0
30
0
70
128
71
-6
72
1
73
5
0
VERTEX
8
OBJECT002
10
0
20
0
30
0
70
128
71
5
72
7
73
-8
0
VERTEX
8
OBJECT002
10
0
20
0
30
0
70
128
71
-5
72
8
73
6
0
VERTEX
8
OBJECT002
10
0
20
0
30
0
70
128
71
3
72
8
73
-7
0
VERTEX
8
OBJECT002
10
0
20
0
30
0
70
128
71
-3
72
7
73
4
0
VERTEX
8
OBJECT002
10
0
20
0
30
0
70
128
71
3
72
2
73
-6
0
VERTEX
8
OBJECT002
10
0
20
0
30
0
70
128
71
-3
72
6
73
8
0
VERTEX
8
OBJECT002
10
0
20
0
30
0
70
128
71
5
72
1
73
-4
0
VERTEX
8
OBJECT002
10
0
20
0
30
0
70
128
71
-5
72
4
73
7
0
SEQEND
8
OBJECT002
0
POLYLINE
8
OBJECT003
66
1
70
64
71
6
72
8
62
50
0
VERTEX
8
OBJECT003
10
-114.642853
20
134.967285
30
13.357178
70
192
0
VERTEX
8
OBJECT003
10
-175.704102
20
134.967285
30
-47.704163
70
192
0
VERTEX
8
OBJECT003
10
-85.719086
20
134.967285
30
-47.704163
70
192
0
VERTEX
8
OBJECT003
10
-194.539917
20
121.934692
30
-66.539917
70
192
0
VERTEX
8
OBJECT003
10
-76.796875
20
121.934692
30
-66.539917
70
192
0
VERTEX
8
OBJECT003
10
-114.642853
20
121.934692
30
13.357178
70
192
0
VERTEX
8
OBJECT003
10
0
20
0
30
0
70
128
71
2
72
3
73
1
0
VERTEX
8
OBJECT003
10
0
20
0
30
0
70
128
71
2
72
4
73
-5
0
VERTEX
8
OBJECT003
10
0
20
0
30
0
70
128
71
-2
72
5
73
3
0
VERTEX
8
OBJECT003
10
0
20
0
30
0
70
128
71
5
72
4
73
6
0
VERTEX
8
OBJECT003
10
0
20
0
30
0
70
128
71
4
72
2
73
-1
0
VERTEX
8
OBJECT003
10
0
20
0
30
0
70
128
71
-4
72
1
73
6
0
VERTEX
8
OBJECT003
10
0
20
0
30
0
70
128
71
3
72
5
73
-6
0
VERTEX
8
OBJECT003
10
0
20
0
30
0
70
128
71
-3
72
6
73
1
0
SEQEND
8
OBJECT003
0
POLYLINE
8
OBJECT004
66
1
70
64
71
8
72
12
62
50
0
VERTEX
8
OBJECT004
10
-61.340881
20
134.967285
30
66.659119
70
192
0
VERTEX
8
OBJECT004
10
-252.389114
20
134.967285
30
66.659119
70
192
0
VERTEX
8
OBJECT004
10
-292.000000
20
134.967285
30
14.131653
70
192
0
VERTEX
8
OBJECT004
10
-113.868347
20
134.967285
30
14.131653
70
192
0
VERTEX
8
OBJECT004
10
-42.301941
20
121.934692
30
85.698059
70
192
0
VERTEX
8
OBJECT004
10
-238.030426
20
121.934692
30
85.698059
70
192
0
VERTEX
8
OBJECT004
10
-292.000000
20
121.934692
30
14.131653
70
192
0
VERTEX
8
OBJECT004
10
-113.868347
20
121.934692
30
14.131653
70
192
0
VERTEX
8
OBJECT004
10
0
20
0
30
0
70
128
71
2
72
3
73
-4
0
VERTEX
8
OBJECT004
10
0
20
0
30
0
70
128
71
-2
72
4
73
1
0
VERTEX
8
OBJECT004
10
0
20
0
30
0
70
128
71
6
72
2
73
-1
0
VERTEX
8
OBJECT004
10
0
20
0
30
0
70
128
71
-6
72
1
73
5
0
VERTEX
8
OBJECT004
10
0
20
0
30
0
70
128
71
3
72
2
73
-6
0
VERTEX
8
OBJECT004
10
0
20
0
30
0
70
128
71
-3
72
6
73
7
0
VERTEX
8
OBJECT004
10
0
20
0
30
0
70
128
71
7
72
6
73
-5
0
VERTEX
8
OBJECT004
10
0
20
0
30
0
70
128
71
-7
72
5
73
8
0
VERTEX
8
OBJECT004
10
0
20
0
30
0
70
128
71
3
72
7
73
-8
0
VERTEX
8
OBJECT004
10
0
20
0
30
0
70
128
71
-3
72
8
73
4
0
VERTEX
8
OBJECT004
10
0
20
0
30
0
70
128
71
5
72
1
73
-4
0
VERTEX
8
OBJECT004
10
0
20
0
30
0
70
128
71
-5
72
4
73
8
0
SEQEND
8
OBJECT004
0
POLYLINE
8
OBJECT005
66
1
70
64
71
10
72
16
62
50
0
VERTEX
8
OBJECT005
10
-114.642853
20
134.967285
30
13.357117
70
192
0
VERTEX
8
OBJECT005
10
-114.947357
20
134.967285
30
14.000000
70
192
0
VERTEX
8
OBJECT005
10
-324.360596
20
134.967285
30
14.000000
70
192
0
VERTEX
8
OBJECT005
10
-370.891876
20
134.967285
30
-47.704163
70
192
0
VERTEX
8
OBJECT005
10
-175.704132
20
134.967285
30
-47.704163
70
192
0
VERTEX
8
OBJECT005
10
-385.094330
20
121.934692
30
-66.539917
70
192
0
VERTEX
8
OBJECT005
10
-194.539886
20
121.934692
30
-66.539917
70
192
0
VERTEX
8
OBJECT005
10
-324.359161
20
121.934692
30
14.000000
70
192
0
VERTEX
8
OBJECT005
10
-114.947357
20
121.934692
30
14.000000
70
192
0
VERTEX
8
OBJECT005
10
-114.642853
20
121.934692
30
13.357178
70
192
0
VERTEX
8
OBJECT005
10
0
20
0
30
0
70
128
71
2
72
3
73
-4
0
VERTEX
8
OBJECT005
10
0
20
0
30
0
70
128
71
-2
72
4
73
-5
0
VERTEX
8
OBJECT005
10
0
20
0
30
0
70
128
71
-2
72
5
73
1
0
VERTEX
8
OBJECT005
10
0
20
0
30
0
70
128
71
4
72
6
73
-7
0
VERTEX
8
OBJECT005
10
0
20
0
30
0
70
128
71
-4
72
7
73
5
0
VERTEX
8
OBJECT005
10
0
20
0
30
0
70
128
71
6
72
4
73
-3
0
VERTEX
8
OBJECT005
10
0
20
0
30
0
70
128
71
-6
72
3
73
8
0
VERTEX
8
OBJECT005
10
0
20
0
30
0
70
128
71
10
72
7
73
-6
0
VERTEX
8
OBJECT005
10
0
20
0
30
0
70
128
71
-10
72
6
73
-8
0
VERTEX
8
OBJECT005
10
0
20
0
30
0
70
128
71
-10
72
8
73
9
0
VERTEX
8
OBJECT005
10
0
20
0
30
0
70
128
71
8
72
3
73
-2
0
VERTEX
8
OBJECT005
10
0
20
0
30
0
70
128
71
-8
72
2
73
9
0
VERTEX
8
OBJECT005
10
0
20
0
30
0
70
128
71
5
72
7
73
-10
0
VERTEX
8
OBJECT005
10
0
20
0
30
0
70
128
71
-5
72
10
73
1
0
VERTEX
8
OBJECT005
10
0
20
0
30
0
70
128
71
9
72
2
73
-1
0
VERTEX
8
OBJECT005
10
0
20
0
30
0
70
128
71
-9
72
1
73
10
0
SEQEND
8
OBJECT005
0
POLYLINE
8
OBJECT006
66
1
70
64
71
8
72
12
62
50
0
VERTEX
8
OBJECT006
10
264.000000
20
134.967285
30
66.662537
70
192
0
VERTEX
8
OBJECT006
10
166.670105
20
134.967285
30
66.662537
70
192
0
VERTEX
8
OBJECT006
10
210.065186
20
134.967285
30
14.131653
70
192
0
VERTEX
8
OBJECT006
10
264.000000
20
134.967285
30
14.131653
70
192
0
VERTEX
8
OBJECT006
10
264.000000
20
121.934692
30
85.698059
70
192
0
VERTEX
8
OBJECT006
10
150.945068
20
121.934692
30
85.698059
70
192
0
VERTEX
8
OBJECT006
10
264.000000
20
121.934692
30
14.131653
70
192
0
VERTEX
8
OBJECT006
10
210.065186
20
121.934692
30
14.131653
70
192
0
VERTEX
8
OBJECT006
10
0
20
0
30
0
70
128
71
2
72
3
73
-4
0
VERTEX
8
OBJECT006
10
0
20
0
30
0
70
128
71
-2
72
4
73
1
0
VERTEX
8
OBJECT006
10
0
20
0
30
0
70
128
71
6
72
2
73
-1
0
VERTEX
8
OBJECT006
10
0
20
0
30
0
70
128
71
-6
72
1
73
5
0
VERTEX
8
OBJECT006
10
0
20
0
30
0
70
128
71
5
72
7
73
-8
0
VERTEX
8
OBJECT006
10
0
20
0
30
0
70
128
71
-5
72
8
73
6
0
VERTEX
8
OBJECT006
10
0
20
0
30
0
70
128
71
3
72
8
73
-7
0
VERTEX
8
OBJECT006
10
0
20
0
30
0
70
128
71
-3
72
7
73
4
0
VERTEX
8
OBJECT006
10
0
20
0
30
0
70
128
71
5
72
1
73
-4
0
VERTEX
8
OBJECT006
10
0
20
0
30
0
70
128
71
-5
72
4
73
7
0
VERTEX
8
OBJECT006
10
0
20
0
30
0
70
128
71
3
72
2
73
-6
0
VERTEX
8
OBJECT006
10
0
20
0
30
0
70
128
71
-3
72
6
73
8
0
SEQEND
8
OBJECT006
0
POLYLINE
8
OBJECT007
66
1
70
64
71
8
72
12
62
50
0
VERTEX
8
OBJECT007
10
237.263428
20
134.967285
30
-18.793274
70
192
0
VERTEX
8
OBJECT007
10
210.417603
20
134.967285
30
-47.704163
70
192
0
VERTEX
8
OBJECT007
10
261.146362
20
134.967285
30
-47.704163
70
192
0
VERTEX
8
OBJECT007
10
264.000000
20
132.577881
30
-51.158569
70
192
0
VERTEX
8
OBJECT007
10
192.927246
20
121.934692
30
-66.539917
70
192
0
VERTEX
8
OBJECT007
10
264.000000
20
121.934692
30
-66.539917
70
192
0
VERTEX
8
OBJECT007
10
237.263428
20
121.934692
30
-18.793274
70
192
0
VERTEX
8
OBJECT007
10
264.000000
20
121.934692
30
-51.158569
70
192
0
VERTEX
8
OBJECT007
10
0
20
0
30
0
70
128
71
2
72
3
73
1
0
VERTEX
8
OBJECT007
10
0
20
0
30
0
70
128
71
3
72
2
73
-5
0
VERTEX
8
OBJECT007
10
0
20
0
30
0
70
128
71
-3
72
5
73
-6
0
VERTEX
8
OBJECT007
10
0
20
0
30
0
70
128
71
-3
72
6
73
4
0
VERTEX
8
OBJECT007
10
0
20
0
30
0
70
128
71
8
72
6
73
-5
0
VERTEX
8
OBJECT007
10
0
20
0
30
0
70
128
71
-8
72
5
73
7
0
VERTEX
8
OBJECT007
10
0
20
0
30
0
70
128
71
6
72
8
73
4
0
VERTEX
8
OBJECT007
10
0
20
0
30
0
70
128
71
3
72
4
73
-8
0
VERTEX
8
OBJECT007
10
0
20
0
30
0
70
128
71
-3
72
8
73
-7
0
VERTEX
8
OBJECT007
10
0
20
0
30
0
70
128
71
-3
72
7
73
1
0
VERTEX
8
OBJECT007
10
0
20
0
30
0
70
128
71
5
72
2
73
-1
0
VERTEX
8
OBJECT007
10
0
20
0
30
0
70
128
71
-5
72
1
73
7
0
SEQEND
8
OBJECT007
0
POLYLINE
8
OBJECT008
66
1
70
64
71
8
72
12
62
50
0
VERTEX
8
OBJECT008
10
210.173889
20
134.967285
30
14.000000
70
192
0
VERTEX
8
OBJECT008
10
261.146912
20
134.967285
30
-47.704163
70
192
0
VERTEX
8
OBJECT008
10
264.000000
20
134.967285
30
-47.704163
70
192
0
VERTEX
8
OBJECT008
10
264.000000
20
134.967285
30
14.000000
70
192
0
VERTEX
8
OBJECT008
10
264.000000
20
132.578247
30
-51.157898
70
192
0
VERTEX
8
OBJECT008
10
210.173889
20
121.934692
30
14.000000
70
192
0
VERTEX
8
OBJECT008
10
264.000000
20
121.934692
30
14.000000
70
192
0
VERTEX
8
OBJECT008
10
264.000000
20
121.934692
30
-51.157898
70
192
0
VERTEX
8
OBJECT008
10
0
20
0
30
0
70
128
71
2
72
3
73
-4
0
VERTEX
8
OBJECT008
10
0
20
0
30
0
70
128
71
-2
72
4
73
1
0
VERTEX
8
OBJECT008
10
0
20
0
30
0
70
128
71
3
72
2
73
5
0
VERTEX
8
OBJECT008
10
0
20
0
30
0
70
128
71
7
72
8
73
6
0
VERTEX
8
OBJECT008
10
0
20
0
30
0
70
128
71
3
72
5
73
-8
0
VERTEX
8
OBJECT008
10
0
20
0
30
0
70
128
71
-3
72
8
73
-7
0
VERTEX
8
OBJECT008
10
0
20
0
30
0
70
128
71
-3
72
7
73
4
0
VERTEX
8
OBJECT008
10
0
20
0
30
0
70
128
71
6
72
1
73
-4
0
VERTEX
8
OBJECT008
10
0
20
0
30
0
70
128
71
-6
72
4
73
7
0
VERTEX
8
OBJECT008
10
0
20
0
30
0
70
128
71
8
72
5
73
-2
0
VERTEX
8
OBJECT008
10
0
20
0
30
0
70
128
71
-8
72
2
73
-1
0
VERTEX
8
OBJECT008
10
0
20
0
30
0
70
128
71
-8
72
1
73
6
0
SEQEND
8
OBJECT008
0
POLYLINE
8
OBJECT009
66
1
70
64
71
8
72
12
62
50
0
VERTEX
8
OBJECT009
10
264.000000
20
101.187134
30
116.000000
70
192
0
VERTEX
8
OBJECT009
10
-215.185547
20
101.187134
30
116.000000
70
192
0
VERTEX
8
OBJECT009
10
-238.037155
20
121.934692
30
85.697266
70
192
0
VERTEX
8
OBJECT009
10
264.000000
20
121.934692
30
85.697266
70
192
0
VERTEX
8
OBJECT009
10
-219.926056
20
88.793579
30
109.714233
70
192
0
VERTEX
8
OBJECT009
10
-256.436462
20
121.934692
30
61.298950
70
192
0
VERTEX
8
OBJECT009
10
264.000000
20
121.934692
30
61.298950
70
192
0
VERTEX
8
OBJECT009
10
264.000000
20
88.793823
30
109.714355
70
192
0
VERTEX
8
OBJECT009
10
0
20
0
30
0
70
128
71
2
72
3
73
-4
0
VERTEX
8
OBJECT009
10
0
20
0
30
0
70
128
71
-2
72
4
73
1
0
VERTEX
8
OBJECT009
10
0
20
0
30
0
70
128
71
6
72
3
73
-2
0
VERTEX
8
OBJECT009
10
0
20
0
30
0
70
128
71
-6
72
2
73
5
0
VERTEX
8
OBJECT009
10
0
20
0
30
0
70
128
71
3
72
6
73
-7
0
VERTEX
8
OBJECT009
10
0
20
0
30
0
70
128
71
-3
72
7
73
4
0
VERTEX
8
OBJECT009
10
0
20
0
30
0
70
128
71
7
72
6
73
-5
0
VERTEX
8
OBJECT009
10
0
20
0
30
0
70
128
71
-7
72
5
73
8
0
VERTEX
8
OBJECT009
10
0
20
0
30
0
70
128
71
5
72
2
73
-1
0
VERTEX
8
OBJECT009
10
0
20
0
30
0
70
128
71
-5
72
1
73
8
0
VERTEX
8
OBJECT009
10
0
20
0
30
0
70
128
71
1
72
4
73
-7
0
VERTEX
8
OBJECT009
10
0
20
0
30
0
70
128
71
-1
72
7
73
8
0
SEQEND
8
OBJECT009
0
POLYLINE
8
OBJECT010
66
1
70
64
71
12
72
20
62
50
0
VERTEX
8
OBJECT010
10
264.000000
20
98.852661
30
-99.884216
70
192
0
VERTEX
8
OBJECT010
10
-398.000000
20
98.852661
30
-99.884216
70
192
0
VERTEX
8
OBJECT010
10
-398.000000
20
86.814575
30
-108.000000
70
192
0
VERTEX
8
OBJECT010
10
-388.000000
20
71.981567
30
-118.000000
70
192
0
VERTEX
8
OBJECT010
10
264.000000
20
71.981567
30
-118.000000
70
192
0
VERTEX
8
OBJECT010
10
264.000000
20
120.594482
30
-68.481567
70
192
0
VERTEX
8
OBJECT010
10
-386.568787
20
120.594482
30
-68.481567
70
192
0
VERTEX
8
OBJECT010
10
-398.000000
20
110.098999
30
-83.640045
70
192
0
VERTEX
8
OBJECT010
10
-398.000000
20
98.098999
30
-83.640381
70
192
0
VERTEX
8
OBJECT010
10
-388.000000
20
47.109863
30
-118.000000
70
192
0
VERTEX
8
OBJECT010
10
264.000000
20
47.109863
30
-118.000000
70
192
0
VERTEX
8
OBJECT010
10
-398.000000
20
61.949829
30
-108.000000
70
192
0
VERTEX
8
OBJECT010
10
0
20
0
30
0
70
128
71
2
72
3
73
-4
0
VERTEX
8
OBJECT010
10
0
20
0
30
0
70
128
71
-2
72
4
73
-5
0
VERTEX
8
OBJECT010
10
0
20
0
30
0
70
128
71
-2
72
5
73
1
0
VERTEX
8
OBJECT010
10
0
20
0
30
0
70
128
71
7
72
8
73
-2
0
VERTEX
8
OBJECT010
10
0
20
0
30
0
70
128
71
-7
72
2
73
-1
0
VERTEX
8
OBJECT010
10
0
20
0
30
0
70
128
71
-7
72
1
73
6
0
VERTEX
8
OBJECT010
10
0
20
0
30
0
70
128
71
8
72
7
73
9
0
VERTEX
8
OBJECT010
10
0
20
0
30
0
70
128
71
4
72
10
73
-11
0
VERTEX
8
OBJECT010
10
0
20
0
30
0
70
128
71
-4
72
11
73
5
0
VERTEX
8
OBJECT010
10
0
20
0
30
0
70
128
71
12
72
3
73
-2
0
VERTEX
8
OBJECT010
10
0
20
0
30
0
70
128
71
-12
72
2
73
-8
0
VERTEX
8
OBJECT010
10
0
20
0
30
0
70
128
71
-12
72
8
73
9
0
VERTEX
8
OBJECT010
10
0
20
0
30
0
70
128
71
10
72
12
73
-9
0
VERTEX
8
OBJECT010
10
0
20
0
30
0
70
128
71
-10
72
9
73
-7
0
VERTEX
8
OBJECT010
10
0
20
0
30
0
70
128
71
-10
72
7
73
-6
0
VERTEX
8
OBJECT010
10
0
20
0
30
0
70
128
71
-10
72
6
73
11
0
VERTEX
8
OBJECT010
10
0
20
0
30
0
70
128
71
1
72
5
73
-11
0
VERTEX
8
OBJECT010
10
0
20
0
30
0
70
128
71
-1
72
11
73
6
0
VERTEX
8
OBJECT010
10
0
20
0
30
0
70
128
71
10
72
4
73
-3
0
VERTEX
8
OBJECT010
10
0
20
0
30
0
70
128
71
-10
72
3
73
12
0
SEQEND
8
OBJECT010
0
POLYLINE
8
OBJECT011
66
1
70
64
71
10
72
16
62
50
0
VERTEX
8
OBJECT011
10
264.000000
20
101.186646
30
115.868408
70
192
0
VERTEX
8
OBJECT011
10
264.000000
20
99.585205
30
118.207153
70
192
0
VERTEX
8
OBJECT011
10
-245.781693
20
99.585205
30
118.207153
70
192
0
VERTEX
8
OBJECT011
10
-247.545395
20
101.186646
30
115.868408
70
192
0
VERTEX
8
OBJECT011
10
264.000000
20
71.976563
30
136.818237
70
192
0
VERTEX
8
OBJECT011
10
-231.751251
20
71.976563
30
136.818237
70
192
0
VERTEX
8
OBJECT011
10
-231.750793
20
70.151123
30
136.818237
70
192
0
VERTEX
8
OBJECT011
10
-252.288666
20
88.793701
30
109.583496
70
192
0
VERTEX
8
OBJECT011
10
264.000000
20
70.151123
30
136.818237
70
192
0
VERTEX
8
OBJECT011
10
264.000000
20
88.793091
30
109.583130
70
192
0
VERTEX
8
OBJECT011
10
0
20
0
30
0
70
128
71
2
72
3
73
-4
0
VERTEX
8
OBJECT011
10
0
20
0
30
0
70
128
71
-2
72
4
73
1
0
VERTEX
8
OBJECT011
10
0
20
0
30
0
70
128
71
6
72
3
73
-2
0
VERTEX
8
OBJECT011
10
0
20
0
30
0
70
128
71
-6
72
2
73
5
0
VERTEX
8
OBJECT011
10
0
20
0
30
0
70
128
71
7
72
8
73
-4
0
VERTEX
8
OBJECT011
10
0
20
0
30
0
70
128
71
-7
72
4
73
-3
0
VERTEX
8
OBJECT011
10
0
20
0
30
0
70
128
71
-7
72
3
73
6
0
VERTEX
8
OBJECT011
10
0
20
0
30
0
70
128
71
7
72
6
73
-5
0
VERTEX
8
OBJECT011
10
0
20
0
30
0
70
128
71
-7
72
5
73
9
0
VERTEX
8
OBJECT011
10
0
20
0
30
0
70
128
71
7
72
9
73
-10
0
VERTEX
8
OBJECT011
10
0
20
0
30
0
70
128
71
-7
72
10
73
8
0
VERTEX
8
OBJECT011
10
0
20
0
30
0
70
128
71
9
72
5
73
-2
0
VERTEX
8
OBJECT011
10
0
20
0
30
0
70
128
71
-9
72
2
73
-1
0
VERTEX
8
OBJECT011
10
0
20
0
30
0
70
128
71
-9
72
1
73
10
0
VERTEX
8
OBJECT011
10
0
20
0
30
0
70
128
71
4
72
8
73
-10
0
VERTEX
8
OBJECT011
10
0
20
0
30
0
70
128
71
-4
72
10
73
1
0
SEQEND
8
OBJECT011
0
POLYLINE
8
OBJECT012
66
1
70
64
71
8
72
12
62
50
0
VERTEX
8
OBJECT012
10
264.000000
20
-5.032715
30
150.000000
70
192
0
VERTEX
8
OBJECT012
10
-221.804977
20
-5.032715
30
150.000000
70
192
0
VERTEX
8
OBJECT012
10
-221.804977
20
52.429688
30
150.000000
70
192
0
VERTEX
8
OBJECT012
10
264.000000
20
52.429688
30
150.000000
70
192
0
VERTEX
8
OBJECT012
10
-231.745636
20
71.979370
30
136.818237
70
192
0
VERTEX
8
OBJECT012
10
264.000000
20
71.979370
30
136.818237
70
192
0
VERTEX
8
OBJECT012
10
-231.747498
20
-5.032715
30
136.818237
70
192
0
VERTEX
8
OBJECT012
10
264.000000
20
-5.032715
30
136.818237
70
192
0
VERTEX
8
OBJECT012
10
0
20
0
30
0
70
128
71
2
72
3
73
-4
0
VERTEX
8
OBJECT012
10
0
20
0
30
0
70
128
71
-2
72
4
73
1
0
VERTEX
8
OBJECT012
10
0
20
0
30
0
70
128
71
3
72
5
73
-6
0
VERTEX
8
OBJECT012
10
0
20
0
30
0
70
128
71
-3
72
6
73
4
0
VERTEX
8
OBJECT012
10
0
20
0
30
0
70
128
71
5
72
3
73
-2
0
VERTEX
8
OBJECT012
10
0
20
0
30
0
70
128
71
-5
72
2
73
7
0
VERTEX
8
OBJECT012
10
0
20
0
30
0
70
128
71
6
72
5
73
-7
0
VERTEX
8
OBJECT012
10
0
20
0
30
0
70
128
71
-6
72
7
73
8
0
VERTEX
8
OBJECT012
10
0
20
0
30
0
70
128
71
4
72
6
73
-8
0
VERTEX
8
OBJECT012
10
0
20
0
30
0
70
128
71
-4
72
8
73
1
0
VERTEX
8
OBJECT012
10
0
20
0
30
0
70
128
71
7
72
2
73
-1
0
VERTEX
8
OBJECT012
10
0
20
0
30
0
70
128
71
-7
72
1
73
8
0
SEQEND
8
OBJECT012
0
POLYLINE
8
OBJECT013
66
1
70
64
71
6
72
8
62
50
0
VERTEX
8
OBJECT013
10
-253.476089
20
89.867065
30
108.000000
70
192
0
VERTEX
8
OBJECT013
10
-231.750381
20
70.148682
30
136.816406
70
192
0
VERTEX
8
OBJECT013
10
-231.750381
20
47.131714
30
136.816406
70
192
0
VERTEX
8
OBJECT013
10
264.000000
20
47.128906
30
136.818237
70
192
0
VERTEX
8
OBJECT013
10
264.000000
20
70.148682
30
136.818237
70
192
0
VERTEX
8
OBJECT013
10
264.000000
20
89.867554
30
108.000000
70
192
0
VERTEX
8
OBJECT013
10
0
20
0
30
0
70
128
71
2
72
3
73
1
0
VERTEX
8
OBJECT013
10
0
20
0
30
0
70
128
71
3
72
2
73
-5
0
VERTEX
8
OBJECT013
10
0
20
0
30
0
70
128
71
-3
72
5
73
4
0
VERTEX
8
OBJECT013
10
0
20
0
30
0
70
128
71
2
72
1
73
-6
0
VERTEX
8
OBJECT013
10
0
20
0
30
0
70
128
71
-2
72
6
73
5
0
VERTEX
8
OBJECT013
10
0
20
0
30
0
70
128
71
1
72
3
73
-4
0
VERTEX
8
OBJECT013
10
0
20
0
30
0
70
128
71
-1
72
4
73
6
0
VERTEX
8
OBJECT013
10
0
20
0
30
0
70
128
71
5
72
6
73
4
0
SEQEND
8
OBJECT013
0
POLYLINE
8
OBJECT014
66
1
70
64
71
10
72
16
62
50
0
VERTEX
8
OBJECT014
10
264.000000
20
121.934692
30
-66.554474
70
192
0
VERTEX
8
OBJECT014
10
-385.105011
20
121.934692
30
-66.540466
70
192
0
VERTEX
8
OBJECT014
10
-386.553467
20
120.603882
30
-68.460754
70
192
0
VERTEX
8
OBJECT014
10
264.000000
20
120.270142
30
-68.956299
70
192
0
VERTEX
8
OBJECT014
10
-398.000000
20
93.358765
30
-83.636719
70
192
0
VERTEX
8
OBJECT014
10
-398.000000
20
98.093994
30
-83.637756
70
192
0
VERTEX
8
OBJECT014
10
-366.859375
20
121.934692
30
-42.352051
70
192
0
VERTEX
8
OBJECT014
10
-398.000000
20
89.214355
30
-89.626556
70
192
0
VERTEX
8
OBJECT014
10
264.000000
20
121.934692
30
-42.659424
70
192
0
VERTEX
8
OBJECT014
10
264.000000
20
89.274170
30
-89.862610
70
192
0
VERTEX
8
OBJECT014
10
0
20
0
30
0
70
128
71
2
72
3
73
-4
0
VERTEX
8
OBJECT014
10
0
20
0
30
0
70
128
71
-2
72
4
73
1
0
VERTEX
8
OBJECT014
10
0
20
0
30
0
70
128
71
6
72
3
73
-2
0
VERTEX
8
OBJECT014
10
0
20
0
30
0
70
128
71
-6
72
2
73
-7
0
VERTEX
8
OBJECT014
10
0
20
0
30
0
70
128
71
-6
72
7
73
5
0
VERTEX
8
OBJECT014
10
0
20
0
30
0
70
128
71
6
72
5
73
8
0
VERTEX
8
OBJECT014
10
0
20
0
30
0
70
128
71
7
72
2
73
-1
0
VERTEX
8
OBJECT014
10
0
20
0
30
0
70
128
71
-7
72
1
73
9
0
VERTEX
8
OBJECT014
10
0
20
0
30
0
70
128
71
4
72
3
73
-6
0
VERTEX
8
OBJECT014
10
0
20
0
30
0
70
128
71
-4
72
6
73
-8
0
VERTEX
8
OBJECT014
10
0
20
0
30
0
70
128
71
-4
72
8
73
10
0
VERTEX
8
OBJECT014
10
0
20
0
30
0
70
128
71
10
72
8
73
-5
0
VERTEX
8
OBJECT014
10
0
20
0
30
0
70
128
71
-10
72
5
73
-7
0
VERTEX
8
OBJECT014
10
0
20
0
30
0
70
128
71
-10
72
7
73
9
0
VERTEX
8
OBJECT014
10
0
20
0
30
0
70
128
71
1
72
4
73
-10
0
VERTEX
8
OBJECT014
10
0
20
0
30
0
70
128
71
-1
72
10
73
9
0
SEQEND
8
OBJECT014
0
POLYLINE
8
OBJECT015
66
1
70
64
71
8
72
12
62
50
0
VERTEX
8
OBJECT015
10
-236.000000
20
122.000000
30
2.000000
70
192
0
VERTEX
8
OBJECT015
10
-236.000000
20
122.000000
30
-28.000000
70
192
0
VERTEX
8
OBJECT015
10
-236.000000
20
-130.000000
30
-28.000000
70
192
0
VERTEX
8
OBJECT015
10
-236.000000
20
-130.000000
30
2.000000
70
192
0
VERTEX
8
OBJECT015
10
-290.000000
20
122.000000
30
-28.000000
70
192
0
VERTEX
8
OBJECT015
10
-290.000000
20
122.000000
30
2.000000
70
192
0
VERTEX
8
OBJECT015
10
-290.000000
20
-130.000000
30
-28.000000
70
192
0
VERTEX
8
OBJECT015
10
-290.000000
20
-130.000000
30
2.000000
70
192
0
VERTEX
8
OBJECT015
10
0
20
0
30
0
70
128
71
2
72
3
73
-4
0
VERTEX
8
OBJECT015
10
0
20
0
30
0
70
128
71
-2
72
4
73
1
0
VERTEX
8
OBJECT015
10
0
20
0
30
0
70
128
71
2
72
1
73
-6
0
VERTEX
8
OBJECT015
10
0
20
0
30
0
70
128
71
-2
72
6
73
5
0
VERTEX
8
OBJECT015
10
0
20
0
30
0
70
128
71
3
72
7
73
-8
0
VERTEX
8
OBJECT015
10
0
20
0
30
0
70
128
71
-3
72
8
73
4
0
VERTEX
8
OBJECT015
10
0
20
0
30
0
70
128
71
1
72
4
73
-8
0
VERTEX
8
OBJECT015
10
0
20
0
30
0
70
128
71
-1
72
8
73
6
0
VERTEX
8
OBJECT015
10
0
20
0
30
0
70
128
71
3
72
2
73
-5
0
VERTEX
8
OBJECT015
10
0
20
0
30
0
70
128
71
-3
72
5
73
7
0
VERTEX
8
OBJECT015
10
0
20
0
30
0
70
128
71
7
72
5
73
-6
0
VERTEX
8
OBJECT015
10
0
20
0
30
0
70
128
71
-7
72
6
73
8
0
SEQEND
8
OBJECT015
0
POLYLINE
8
OBJECT016
66
1
70
64
71
16
72
28
62
50
0
VERTEX
8
OBJECT016
10
-287.262634
20
51.125000
30
-106.000000
70
192
0
VERTEX
8
OBJECT016
10
-290.000000
20
51.125000
30
-106.000000
70
192
0
VERTEX
8
OBJECT016
10
-290.000000
20
-55.187500
30
-106.000000
70
192
0
VERTEX
8
OBJECT016
10
-287.262634
20
-55.187500
30
-106.000000
70
192
0
VERTEX
8
OBJECT016
10
-290.000000
20
122.000000
30
-30.000000
70
192
0
VERTEX
8
OBJECT016
10
-239.262665
20
122.000000
30
-30.000000
70
192
0
VERTEX
8
OBJECT016
10
-238.000000
20
122.000000
30
-28.000000
70
192
0
VERTEX
8
OBJECT016
10
-290.000000
20
122.000000
30
-28.000000
70
192
0
VERTEX
8
OBJECT016
10
-239.262604
20
-130.000000
30
-30.000000
70
192
0
VERTEX
8
OBJECT016
10
-290.000000
20
-130.000000
30
-30.000000
70
192
0
VERTEX
8
OBJECT016
10
-290.000000
20
-130.000000
30
-28.000000
70
192
0
VERTEX
8
OBJECT016
10
-238.000000
20
-130.000000
30
-28.000000
70
192
0
VERTEX
8
OBJECT016
10
-290.000000
20
88.923218
30
-80.400787
70
192
0
VERTEX
8
OBJECT016
10
-271.094727
20
88.923218
30
-80.400787
70
192
0
VERTEX
8
OBJECT016
10
-290.000000
20
-97.277954
30
-77.495514
70
192
0
VERTEX
8
OBJECT016
10
-269.259827
20
-97.277954
30
-77.495514
70
192
0
VERTEX
8
OBJECT016
10
0
20
0
30
0
70
128
71
2
72
3
73
-4
0
VERTEX
8
OBJECT016
10
0
20
0
30
0
70
128
71
-2
72
4
73
1
0
VERTEX
8
OBJECT016
10
0
20
0
30
0
70
128
71
6
72
7
73
-8
0
VERTEX
8
OBJECT016
10
0
20
0
30
0
70
128
71
-6
72
8
73
5
0
VERTEX
8
OBJECT016
10
0
20
0
30
0
70
128
71
10
72
11
73
-12
0
VERTEX
8
OBJECT016
10
0
20
0
30
0
70
128
71
-10
72
12
73
9
0
VERTEX
8
OBJECT016
10
0
20
0
30
0
70
128
71
14
72
6
73
-5
0
VERTEX
8
OBJECT016
10
0
20
0
30
0
70
128
71
-14
72
5
73
13
0
VERTEX
8
OBJECT016
10
0
20
0
30
0
70
128
71
13
72
2
73
-1
0
VERTEX
8
OBJECT016
10
0
20
0
30
0
70
128
71
-13
72
1
73
14
0
VERTEX
8
OBJECT016
10
0
20
0
30
0
70
128
71
3
72
15
73
-16
0
VERTEX
8
OBJECT016
10
0
20
0
30
0
70
128
71
-3
72
16
73
4
0
VERTEX
8
OBJECT016
10
0
20
0
30
0
70
128
71
15
72
10
73
-9
0
VERTEX
8
OBJECT016
10
0
20
0
30
0
70
128
71
-15
72
9
73
16
0
VERTEX
8
OBJECT016
10
0
20
0
30
0
70
128
71
11
72
8
73
-7
0
VERTEX
8
OBJECT016
10
0
20
0
30
0
70
128
71
-11
72
7
73
12
0
VERTEX
8
OBJECT016
10
0
20
0
30
0
70
128
71
6
72
14
73
-1
0
VERTEX
8
OBJECT016
10
0
20
0
30
0
70
128
71
-6
72
1
73
-4
0
VERTEX
8
OBJECT016
10
0
20
0
30
0
70
128
71
-6
72
4
73
-16
0
VERTEX
8
OBJECT016
10
0
20
0
30
0
70
128
71
-6
72
16
73
-9
0
VERTEX
8
OBJECT016
10
0
20
0
30
0
70
128
71
-6
72
9
73
-12
0
VERTEX
8
OBJECT016
10
0
20
0
30
0
70
128
71
-6
72
12
73
7
0
VERTEX
8
OBJECT016
10
0
20
0
30
0
70
128
71
10
72
15
73
-3
0
VERTEX
8
OBJECT016
10
0
20
0
30
0
70
128
71
-10
72
3
73
-2
0
VERTEX
8
OBJECT016
10
0
20
0
30
0
70
128
71
-10
72
2
73
-13
0
VERTEX
8
OBJECT016
10
0
20
0
30
0
70
128
71
-10
72
13
73
-5
0
VERTEX
8
OBJECT016
10
0
20
0
30
0
70
128
71
-10
72
5
73
-8
0
VERTEX
8
OBJECT016
10
0
20
0
30
0
70
128
71
-10
72
8
73
11
0
SEQEND
8
OBJECT016
0
POLYLINE
8
OBJECT017
66
1
70
64
71
18
72
32
62
50
0
VERTEX
8
OBJECT017
10
-332.000000
20
124.000000
30
-42.000000
70
192
0
VERTEX
8
OBJECT017
10
-290.000000
20
124.000000
30
-42.000000
70
192
0
VERTEX
8
OBJECT017
10
-290.000000
20
124.000000
30
-40.000000
70
192
0
VERTEX
8
OBJECT017
10
-330.372620
20
124.000000
30
-40.000000
70
192
0
VERTEX
8
OBJECT017
10
-290.000000
20
-132.000000
30
-42.000000
70
192
0
VERTEX
8
OBJECT017
10
-332.031067
20
-132.000000
30
-42.000000
70
192
0
VERTEX
8
OBJECT017
10
-330.403809
20
-132.000000
30
-40.000000
70
192
0
VERTEX
8
OBJECT017
10
-290.000000
20
-132.000000
30
-40.000000
70
192
0
VERTEX
8
OBJECT017
10
-369.066864
20
90.397217
30
-92.399696
70
192
0
VERTEX
8
OBJECT017
10
-290.000000
20
90.397217
30
-92.399696
70
192
0
VERTEX
8
OBJECT017
10
-370.843231
20
92.173706
30
-89.735168
70
192
0
VERTEX
8
OBJECT017
10
-360.000000
20
70.000000
30
-106.000000
70
192
0
VERTEX
8
OBJECT017
10
-290.000000
20
70.000000
30
-106.000000
70
192
0
VERTEX
8
OBJECT017
10
-370.853699
20
-98.421509
30
-89.719482
70
192
0
VERTEX
8
OBJECT017
10
-370.668701
20
-98.762573
30
-89.492081
70
192
0
VERTEX
8
OBJECT017
10
-290.000000
20
-98.762573
30
-89.492081
70
192
0
VERTEX
8
OBJECT017
10
-290.000000
20
-74.000000
30
-106.000000
70
192
0
VERTEX
8
OBJECT017
10
-360.000000
20
-74.000000
30
-106.000000
70
192
0
VERTEX
8
OBJECT017
10
0
20
0
30
0
70
128
71
2
72
3
73
-4
0
VERTEX
8
OBJECT017
10
0
20
0
30
0
70
128
71
-2
72
4
73
1
0
VERTEX
8
OBJECT017
10
0
20
0
30
0
70
128
71
6
72
7
73
-8
0
VERTEX
8
OBJECT017
10
0
20
0
30
0
70
128
71
-6
72
8
73
5
0
VERTEX
8
OBJECT017
10
0
20
0
30
0
70
128
71
10
72
2
73
-1
0
VERTEX
8
OBJECT017
10
0
20
0
30
0
70
128
71
-10
72
1
73
-11
0
VERTEX
8
OBJECT017
10
0
20
0
30
0
70
128
71
-10
72
11
73
9
0
VERTEX
8
OBJECT017
10
0
20
0
30
0
70
128
71
9
72
12
73
-13
0
VERTEX
8
OBJECT017
10
0
20
0
30
0
70
128
71
-9
72
13
73
10
0
VERTEX
8
OBJECT017
10
0
20
0
30
0
70
128
71
15
72
16
73
-17
0
VERTEX
8
OBJECT017
10
0
20
0
30
0
70
128
71
-15
72
17
73
-18
0
VERTEX
8
OBJECT017
10
0
20
0
30
0
70
128
71
-15
72
18
73
14
0
VERTEX
8
OBJECT017
10
0
20
0
30
0
70
128
71
15
72
6
73
-5
0
VERTEX
8
OBJECT017
10
0
20
0
30
0
70
128
71
-15
72
5
73
16
0
VERTEX
8
OBJECT017
10
0
20
0
30
0
70
128
71
7
72
4
73
-3
0
VERTEX
8
OBJECT017
10
0
20
0
30
0
70
128
71
-7
72
3
73
8
0
VERTEX
8
OBJECT017
10
0
20
0
30
0
70
128
71
2
72
10
73
-13
0
VERTEX
8
OBJECT017
10
0
20
0
30
0
70
128
71
-2
72
13
73
-17
0
VERTEX
8
OBJECT017
10
0
20
0
30
0
70
128
71
-2
72
17
73
-16
0
VERTEX
8
OBJECT017
10
0
20
0
30
0
70
128
71
-2
72
16
73
-5
0
VERTEX
8
OBJECT017
10
0
20
0
30
0
70
128
71
-2
72
5
73
-8
0
VERTEX
8
OBJECT017
10
0
20
0
30
0
70
128
71
-2
72
8
73
3
0
VERTEX
8
OBJECT017
10
0
20
0
30
0
70
128
71
6
72
15
73
-14
0
VERTEX
8
OBJECT017
10
0
20
0
30
0
70
128
71
-6
72
14
73
-11
0
VERTEX
8
OBJECT017
10
0
20
0
30
0
70
128
71
-6
72
11
73
-1
0
VERTEX
8
OBJECT017
10
0
20
0
30
0
70
128
71
-6
72
1
73
-4
0
VERTEX
8
OBJECT017
10
0
20
0
30
0
70
128
71
-6
72
4
73
7
0
VERTEX
8
OBJECT017
10
0
20
0
30
0
70
128
71
12
72
18
73
-17
0
VERTEX
8
OBJECT017
10
0
20
0
30
0
70
128
71
-12
72
17
73
13
0
VERTEX
8
OBJECT017
10
0
20
0
30
0
70
128
71
18
72
12
73
-9
0
VERTEX
8
OBJECT017
10
0
20
0
30
0
70
128
71
-18
72
9
73
-11
0
VERTEX
8
OBJECT017
10
0
20
0
30
0
70
128
71
-18
72
11
73
14
0
SEQEND
8
OBJECT017
0
POLYLINE
8
OBJECT018
66
1
70
64
71
8
72
12
62
50
0
VERTEX
8
OBJECT018
10
-330.403473
20
124.000000
30
-40.000000
70
192
0
VERTEX
8
OBJECT018
10
-290.000000
20
124.000000
30
-40.000000
70
192
0
VERTEX
8
OBJECT018
10
-290.000000
20
124.000000
30
-10.000000
70
192
0
VERTEX
8
OBJECT018
10
-306.000000
20
124.000000
30
-10.000000
70
192
0
VERTEX
8
OBJECT018
10
-290.000000
20
-132.000000
30
-40.000000
70
192
0
VERTEX
8
OBJECT018
10
-330.403473
20
-132.000000
30
-40.000000
70
192
0
VERTEX
8
OBJECT018
10
-306.000000
20
-132.000000
30
-10.000000
70
192
0
VERTEX
8
OBJECT018
10
-290.000000
20
-132.000000
30
-10.000000
70
192
0
VERTEX
8
OBJECT018
10
0
20
0
30
0
70
128
71
2
72
3
73
-4
0
VERTEX
8
OBJECT018
10
0
20
0
30
0
70
128
71
-2
72
4
73
1
0
VERTEX
8
OBJECT018
10
0
20
0
30
0
70
128
71
6
72
7
73
-8
0
VERTEX
8
OBJECT018
10
0
20
0
30
0
70
128
71
-6
72
8
73
5
0
VERTEX
8
OBJECT018
10
0
20
0
30
0
70
128
71
7
72
4
73
-3
0
VERTEX
8
OBJECT018
10
0
20
0
30
0
70
128
71
-7
72
3
73
8
0
VERTEX
8
OBJECT018
10
0
20
0
30
0
70
128
71
1
72
6
73
-5
0
VERTEX
8
OBJECT018
10
0
20
0
30
0
70
128
71
-1
72
5
73
2
0
VERTEX
8
OBJECT018
10
0
20
0
30
0
70
128
71
2
72
5
73
-8
0
VERTEX
8
OBJECT018
10
0
20
0
30
0
70
128
71
-2
72
8
73
3
0
VERTEX
8
OBJECT018
10
0
20
0
30
0
70
128
71
6
72
1
73
-4
0
VERTEX
8
OBJECT018
10
0
20
0
30
0
70
128
71
-6
72
4
73
7
0
SEQEND
8
OBJECT018
0
POLYLINE
8
OBJECT019
66
1
70
64
71
14
72
24
62
50
0
VERTEX
8
OBJECT019
10
-287.752502
20
-120.000000
30
21.373260
70
192
0
VERTEX
8
OBJECT019
10
-335.328979
20
-120.000000
30
-39.174347
70
192
0
VERTEX
8
OBJECT019
10
-364.843750
20
-93.671753
30
-76.737343
70
192
0
VERTEX
8
OBJECT019
10
-364.843750
20
-15.060303
30
-76.741463
70
192
0
VERTEX
8
OBJECT019
10
-321.421661
20
12.569946
30
-21.482315
70
192
0
VERTEX
8
OBJECT019
10
-287.748230
20
-16.000000
30
21.373260
70
192
0
VERTEX
8
OBJECT019
10
-364.842010
20
-89.862427
30
-82.174454
70
192
0
VERTEX
8
OBJECT019
10
-364.842010
20
-89.187256
30
-82.628235
70
192
0
VERTEX
8
OBJECT019
10
-364.842010
20
-18.000000
30
-82.628235
70
192
0
VERTEX
8
OBJECT019
10
-276.380127
20
-120.000000
30
21.373260
70
192
0
VERTEX
8
OBJECT019
10
-327.884155
20
-120.000000
30
-39.178192
70
192
0
VERTEX
8
OBJECT019
10
-364.459015
20
-89.860107
30
-82.177979
70
192
0
VERTEX
8
OBJECT019
10
-276.381165
20
-16.000000
30
21.373260
70
192
0
VERTEX
8
OBJECT019
10
-312.840637
20
12.573242
30
-21.490845
70
192
0
VERTEX
8
OBJECT019
10
0
20
0
30
0
70
128
71
2
72
3
73
-4
0
VERTEX
8
OBJECT019
10
0
20
0
30
0
70
128
71
-2
72
4
73
-5
0
VERTEX
8
OBJECT019
10
0
20
0
30
0
70
128
71
-2
72
5
73
-6
0
VERTEX
8
OBJECT019
10
0
20
0
30
0
70
128
71
-2
72
6
73
1
0
VERTEX
8
OBJECT019
10
0
20
0
30
0
70
128
71
3
72
7
73
-8
0
VERTEX
8
OBJECT019
10
0
20
0
30
0
70
128
71
-3
72
8
73
-9
0
VERTEX
8
OBJECT019
10
0
20
0
30
0
70
128
71
-3
72
9
73
4
0
VERTEX
8
OBJECT019
10
0
20
0
30
0
70
128
71
11
72
2
73
-1
0
VERTEX
8
OBJECT019
10
0
20
0
30
0
70
128
71
-11
72
1
73
10
0
VERTEX
8
OBJECT019
10
0
20
0
30
0
70
128
71
7
72
12
73
8
0
VERTEX
8
OBJECT019
10
0
20
0
30
0
70
128
71
7
72
3
73
-2
0
VERTEX
8
OBJECT019
10
0
20
0
30
0
70
128
71
-7
72
2
73
-11
0
VERTEX
8
OBJECT019
10
0
20
0
30
0
70
128
71
-7
72
11
73
12
0
VERTEX
8
OBJECT019
10
0
20
0
30
0
70
128
71
8
72
12
73
-11
0
VERTEX
8
OBJECT019
10
0
20
0
30
0
70
128
71
-8
72
11
73
-10
0
VERTEX
8
OBJECT019
10
0
20
0
30
0
70
128
71
-8
72
10
73
-13
0
VERTEX
8
OBJECT019
10
0
20
0
30
0
70
128
71
-8
72
13
73
-14
0
VERTEX
8
OBJECT019
10
0
20
0
30
0
70
128
71
-8
72
14
73
9
0
VERTEX
8
OBJECT019
10
0
20
0
30
0
70
128
71
1
72
6
73
-13
0
VERTEX
8
OBJECT019
10
0
20
0
30
0
70
128
71
-1
72
13
73
10
0
VERTEX
8
OBJECT019
10
0
20
0
30
0
70
128
71
5
72
14
73
-13
0
VERTEX
8
OBJECT019
10
0
20
0
30
0
70
128
71
-5
72
13
73
6
0
VERTEX
8
OBJECT019
10
0
20
0
30
0
70
128
71
4
72
9
73
-14
0
VERTEX
8
OBJECT019
10
0
20
0
30
0
70
128
71
-4
72
14
73
5
0
SEQEND
8
OBJECT019
0
POLYLINE
8
OBJECT020
66
1
70
64
71
12
72
20
62
50
0
VERTEX
8
OBJECT020
10
-364.843750
20
49.409790
30
-76.738510
70
192
0
VERTEX
8
OBJECT020
10
-364.843750
20
86.921509
30
-76.738510
70
192
0
VERTEX
8
OBJECT020
10
-335.291321
20
112.000000
30
-39.127777
70
192
0
VERTEX
8
OBJECT020
10
-287.752960
20
112.000000
30
21.373260
70
192
0
VERTEX
8
OBJECT020
10
-287.752960
20
34.000000
30
21.373260
70
192
0
VERTEX
8
OBJECT020
10
-321.430725
20
12.569214
30
-21.487701
70
192
0
VERTEX
8
OBJECT020
10
-364.842010
20
53.337402
30
-82.624908
70
192
0
VERTEX
8
OBJECT020
10
-364.842010
20
83.000000
30
-82.625237
70
192
0
VERTEX
8
OBJECT020
10
-327.952576
20
112.000000
30
-39.142105
70
192
0
VERTEX
8
OBJECT020
10
-276.614014
20
112.000000
30
21.373260
70
192
0
VERTEX
8
OBJECT020
10
-312.972290
20
12.571289
30
-21.483627
70
192
0
VERTEX
8
OBJECT020
10
-276.614197
20
34.000000
30
21.373260
70
192
0
VERTEX
8
OBJECT020
10
0
20
0
30
0
70
128
71
2
72
3
73
-4
0
VERTEX
8
OBJECT020
10
0
20
0
30
0
70
128
71
-2
72
4
73
-5
0
VERTEX
8
OBJECT020
10
0
20
0
30
0
70
128
71
-2
72
5
73
-6
0
VERTEX
8
OBJECT020
10
0
20
0
30
0
70
128
71
-2
72
6
73
1
0
VERTEX
8
OBJECT020
10
0
20
0
30
0
70
128
71
8
72
2
73
-1
0
VERTEX
8
OBJECT020
10
0
20
0
30
0
70
128
71
-8
72
1
73
7
0
VERTEX
8
OBJECT020
10
0
20
0
30
0
70
128
71
3
72
9
73
-10
0
VERTEX
8
OBJECT020
10
0
20
0
30
0
70
128
71
-3
72
10
73
4
0
VERTEX
8
OBJECT020
10
0
20
0
30
0
70
128
71
2
72
8
73
-9
0
VERTEX
8
OBJECT020
10
0
20
0
30
0
70
128
71
-2
72
9
73
3
0
VERTEX
8
OBJECT020
10
0
20
0
30
0
70
128
71
9
72
8
73
-7
0
VERTEX
8
OBJECT020
10
0
20
0
30
0
70
128
71
-9
72
7
73
-11
0
VERTEX
8
OBJECT020
10
0
20
0
30
0
70
128
71
-9
72
11
73
-12
0
VERTEX
8
OBJECT020
10
0
20
0
30
0
70
128
71
-9
72
12
73
10
0
VERTEX
8
OBJECT020
10
0
20
0
30
0
70
128
71
4
72
10
73
-12
0
VERTEX
8
OBJECT020
10
0
20
0
30
0
70
128
71
-4
72
12
73
5
0
VERTEX
8
OBJECT020
10
0
20
0
30
0
70
128
71
7
72
1
73
-6
0
VERTEX
8
OBJECT020
10
0
20
0
30
0
70
128
71
-7
72
6
73
11
0
VERTEX
8
OBJECT020
10
0
20
0
30
0
70
128
71
5
72
12
73
-11
0
VERTEX
8
OBJECT020
10
0
20
0
30
0
70
128
71
-5
72
11
73
6
0
SEQEND
8
OBJECT020
0
POLYLINE
8
OBJECT021
66
1
70
64
71
6
72
8
62
50
0
VERTEX
8
OBJECT021
10
-300.323792
20
-5.332886
30
5.373260
70
192
0
VERTEX
8
OBJECT021
10
-321.426331
20
12.569214
30
-21.483032
70
192
0
VERTEX
8
OBJECT021
10
-300.323792
20
26.000000
30
5.373260
70
192
0
VERTEX
8
OBJECT021
10
-290.180054
20
26.000000
30
5.373260
70
192
0
VERTEX
8
OBJECT021
10
-312.959778
20
12.569824
30
-21.479553
70
192
0
VERTEX
8
OBJECT021
10
-290.178070
20
-5.329590
30
5.373260
70
192
0
VERTEX
8
OBJECT021
10
0
20
0
30
0
70
128
71
2
72
3
73
1
0
VERTEX
8
OBJECT021
10
0
20
0
30
0
70
128
71
5
72
6
73
4
0
VERTEX
8
OBJECT021
10
0
20
0
30
0
70
128
71
5
72
2
73
-1
0
VERTEX
8
OBJECT021
10
0
20
0
30
0
70
128
71
-5
72
1
73
6
0
VERTEX
8
OBJECT021
10
0
20
0
30
0
70
128
71
2
72
5
73
-4
0
VERTEX
8
OBJECT021
10
0
20
0
30
0
70
128
71
-2
72
4
73
3
0
VERTEX
8
OBJECT021
10
0
20
0
30
0
70
128
71
3
72
4
73
-6
0
VERTEX
8
OBJECT021
10
0
20
0
30
0
70
128
71
-3
72
6
73
1
0
SEQEND
8
OBJECT021
0
POLYLINE
8
OBJECT022
66
1
70
64
71
6
72
8
62
50
0
VERTEX
8
OBJECT022
10
-364.843750
20
-15.060425
30
-76.738449
70
192
0
VERTEX
8
OBJECT022
10
-364.843750
20
49.409180
30
-76.738449
70
192
0
VERTEX
8
OBJECT022
10
-321.415771
20
12.563843
30
-21.469589
70
192
0
VERTEX
8
OBJECT022
10
-364.842010
20
-18.000000
30
-82.629738
70
192
0
VERTEX
8
OBJECT022
10
-364.842010
20
53.342163
30
-82.629738
70
192
0
VERTEX
8
OBJECT022
10
-313.194214
20
12.571899
30
-21.468933
70
192
0
VERTEX
8
OBJECT022
10
0
20
0
30
0
70
128
71
2
72
3
73
1
0
VERTEX
8
OBJECT022
10
0
20
0
30
0
70
128
71
5
72
2
73
-1
0
VERTEX
8
OBJECT022
10
0
20
0
30
0
70
128
71
-5
72
1
73
4
0
VERTEX
8
OBJECT022
10
0
20
0
30
0
70
128
71
5
72
4
73
6
0
VERTEX
8
OBJECT022
10
0
20
0
30
0
70
128
71
2
72
5
73
-6
0
VERTEX
8
OBJECT022
10
0
20
0
30
0
70
128
71
-2
72
6
73
3
0
VERTEX
8
OBJECT022
10
0
20
0
30
0
70
128
71
4
72
1
73
-3
0
VERTEX
8
OBJECT022
10
0
20
0
30
0
70
128
71
-4
72
3
73
6
0
SEQEND
8
OBJECT022
0
POLYLINE
8
OBJECT023
66
1
70
64
71
6
72
8
62
50
0
VERTEX
8
OBJECT023
10
-287.745117
20
68.000000
30
21.373276
70
192
0
VERTEX
8
OBJECT023
10
-287.745117
20
88.000000
30
21.373276
70
192
0
VERTEX
8
OBJECT023
10
-272.030090
20
88.000000
30
41.373199
70
192
0
VERTEX
8
OBJECT023
10
-259.928040
20
88.000000
30
41.373199
70
192
0
VERTEX
8
OBJECT023
10
-276.852051
20
88.000000
30
21.373276
70
192
0
VERTEX
8
OBJECT023
10
-276.851074
20
68.000000
30
21.373276
70
192
0
VERTEX
8
OBJECT023
10
0
20
0
30
0
70
128
71
2
72
3
73
1
0
VERTEX
8
OBJECT023
10
0
20
0
30
0
70
128
71
5
72
6
73
4
0
VERTEX
8
OBJECT023
10
0
20
0
30
0
70
128
71
1
72
6
73
-5
0
VERTEX
8
OBJECT023
10
0
20
0
30
0
70
128
71
-1
72
5
73
2
0
VERTEX
8
OBJECT023
10
0
20
0
30
0
70
128
71
2
72
5
73
-4
0
VERTEX
8
OBJECT023
10
0
20
0
30
0
70
128
71
-2
72
4
73
3
0
VERTEX
8
OBJECT023
10
0
20
0
30
0
70
128
71
6
72
1
73
-3
0
VERTEX
8
OBJECT023
10
0
20
0
30
0
70
128
71
-6
72
3
73
4
0
SEQEND
8
OBJECT023
0
POLYLINE
8
OBJECT024
66
1
70
64
71
6
72
8
62
50
0
VERTEX
8
OBJECT024
10
-246.227692
20
88.000000
30
74.213867
70
192
0
VERTEX
8
OBJECT024
10
-272.033112
20
88.000000
30
41.373230
70
192
0
VERTEX
8
OBJECT024
10
-259.461121
20
104.000000
30
57.373352
70
192
0
VERTEX
8
OBJECT024
10
-246.381332
20
104.000000
30
57.373352
70
192
0
VERTEX
8
OBJECT024
10
-259.920349
20
88.000000
30
41.373245
70
192
0
VERTEX
8
OBJECT024
10
-232.130890
20
88.000000
30
74.213867
70
192
0
VERTEX
8
OBJECT024
10
0
20
0
30
0
70
128
71
2
72
3
73
1
0
VERTEX
8
OBJECT024
10
0
20
0
30
0
70
128
71
5
72
6
73
4
0
VERTEX
8
OBJECT024
10
0
20
0
30
0
70
128
71
5
72
2
73
-1
0
VERTEX
8
OBJECT024
10
0
20
0
30
0
70
128
71
-5
72
1
73
6
0
VERTEX
8
OBJECT024
10
0
20
0
30
0
70
128
71
2
72
5
73
-4
0
VERTEX
8
OBJECT024
10
0
20
0
30
0
70
128
71
-2
72
4
73
3
0
VERTEX
8
OBJECT024
10
0
20
0
30
0
70
128
71
3
72
4
73
-6
0
VERTEX
8
OBJECT024
10
0
20
0
30
0
70
128
71
-3
72
6
73
1
0
SEQEND
8
OBJECT024
0
POLYLINE
8
OBJECT025
66
1
70
64
71
10
72
16
62
50
0
VERTEX
8
OBJECT025
10
-272.037048
20
88.000000
30
41.373230
70
192
0
VERTEX
8
OBJECT025
10
-287.752075
20
88.000000
30
21.373260
70
192
0
VERTEX
8
OBJECT025
10
-287.752075
20
112.000000
30
21.373260
70
192
0
VERTEX
8
OBJECT025
10
-266.085083
20
112.000000
30
48.948074
70
192
0
VERTEX
8
OBJECT025
10
-259.465393
20
104.000000
30
57.372665
70
192
0
VERTEX
8
OBJECT025
10
-276.840973
20
112.000000
30
21.373260
70
192
0
VERTEX
8
OBJECT025
10
-253.505829
20
112.000000
30
48.948074
70
192
0
VERTEX
8
OBJECT025
10
-276.840240
20
88.000000
30
21.373260
70
192
0
VERTEX
8
OBJECT025
10
-259.915283
20
88.000000
30
41.373230
70
192
0
VERTEX
8
OBJECT025
10
-246.376450
20
104.000000
30
57.372665
70
192
0
VERTEX
8
OBJECT025
10
0
20
0
30
0
70
128
71
2
72
3
73
-4
0
VERTEX
8
OBJECT025
10
0
20
0
30
0
70
128
71
-2
72
4
73
-5
0
VERTEX
8
OBJECT025
10
0
20
0
30
0
70
128
71
-2
72
5
73
1
0
VERTEX
8
OBJECT025
10
0
20
0
30
0
70
128
71
3
72
6
73
-7
0
VERTEX
8
OBJECT025
10
0
20
0
30
0
70
128
71
-3
72
7
73
4
0
VERTEX
8
OBJECT025
10
0
20
0
30
0
70
128
71
6
72
8
73
-9
0
VERTEX
8
OBJECT025
10
0
20
0
30
0
70
128
71
-6
72
9
73
-10
0
VERTEX
8
OBJECT025
10
0
20
0
30
0
70
128
71
-6
72
10
73
7
0
VERTEX
8
OBJECT025
10
0
20
0
30
0
70
128
71
3
72
2
73
-8
0
VERTEX
8
OBJECT025
10
0
20
0
30
0
70
128
71
-3
72
8
73
6
0
VERTEX
8
OBJECT025
10
0
20
0
30
0
70
128
71
8
72
2
73
-1
0
VERTEX
8
OBJECT025
10
0
20
0
30
0
70
128
71
-8
72
1
73
9
0
VERTEX
8
OBJECT025
10
0
20
0
30
0
70
128
71
5
72
10
73
-9
0
VERTEX
8
OBJECT025
10
0
20
0
30
0
70
128
71
-5
72
9
73
1
0
VERTEX
8
OBJECT025
10
0
20
0
30
0
70
128
71
4
72
7
73
-10
0
VERTEX
8
OBJECT025
10
0
20
0
30
0
70
128
71
-4
72
10
73
5
0
SEQEND
8
OBJECT025
0
POLYLINE
8
OBJECT026
66
1
70
64
71
8
72
12
62
50
0
VERTEX
8
OBJECT026
10
-256.338745
20
107.980225
30
61.347153
70
192
0
VERTEX
8
OBJECT026
10
-232.082474
20
88.000000
30
92.226563
70
192
0
VERTEX
8
OBJECT026
10
-246.228683
20
88.000000
30
74.213867
70
192
0
VERTEX
8
OBJECT026
10
-259.461487
20
104.000000
30
57.372925
70
192
0
VERTEX
8
OBJECT026
10
-243.018707
20
107.980957
30
61.347931
70
192
0
VERTEX
8
OBJECT026
10
-216.893478
20
88.000000
30
92.226563
70
192
0
VERTEX
8
OBJECT026
10
-246.383194
20
104.000000
30
57.372925
70
192
0
VERTEX
8
OBJECT026
10
-232.130341
20
88.000000
30
74.213867
70
192
0
VERTEX
8
OBJECT026
10
0
20
0
30
0
70
128
71
2
72
3
73
-4
0
VERTEX
8
OBJECT026
10
0
20
0
30
0
70
128
71
-2
72
4
73
1
0
VERTEX
8
OBJECT026
10
0
20
0
30
0
70
128
71
1
72
5
73
-6
0
VERTEX
8
OBJECT026
10
0
20
0
30
0
70
128
71
-1
72
6
73
2
0
VERTEX
8
OBJECT026
10
0
20
0
30
0
70
128
71
5
72
7
73
-8
0
VERTEX
8
OBJECT026
10
0
20
0
30
0
70
128
71
-5
72
8
73
6
0
VERTEX
8
OBJECT026
10
0
20
0
30
0
70
128
71
2
72
6
73
-8
0
VERTEX
8
OBJECT026
10
0
20
0
30
0
70
128
71
-2
72
8
73
3
0
VERTEX
8
OBJECT026
10
0
20
0
30
0
70
128
71
1
72
4
73
-7
0
VERTEX
8
OBJECT026
10
0
20
0
30
0
70
128
71
-1
72
7
73
5
0
VERTEX
8
OBJECT026
10
0
20
0
30
0
70
128
71
7
72
4
73
-3
0
VERTEX
8
OBJECT026
10
0
20
0
30
0
70
128
71
-7
72
3
73
8
0
SEQEND
8
OBJECT026
0
POLYLINE
8
OBJECT027
66
1
70
64
71
10
72
16
62
50
0
VERTEX
8
OBJECT027
10
-246.229904
20
88.000000
30
74.212921
70
192
0
VERTEX
8
OBJECT027
10
-232.078812
20
88.000000
30
92.226563
70
192
0
VERTEX
8
OBJECT027
10
-231.072281
20
87.171509
30
93.503235
70
192
0
VERTEX
8
OBJECT027
10
-221.742935
20
70.021606
30
105.373566
70
192
0
VERTEX
8
OBJECT027
10
-221.741501
20
58.400146
30
105.373566
70
192
0
VERTEX
8
OBJECT027
10
-215.827499
20
87.169434
30
93.504822
70
192
0
VERTEX
8
OBJECT027
10
-205.781006
20
70.021851
30
105.373566
70
192
0
VERTEX
8
OBJECT027
10
-216.915283
20
88.000000
30
92.226563
70
192
0
VERTEX
8
OBJECT027
10
-205.783600
20
58.400146
30
105.373566
70
192
0
VERTEX
8
OBJECT027
10
-232.162704
20
88.000000
30
74.212921
70
192
0
VERTEX
8
OBJECT027
10
0
20
0
30
0
70
128
71
2
72
3
73
-4
0
VERTEX
8
OBJECT027
10
0
20
0
30
0
70
128
71
-2
72
4
73
-5
0
VERTEX
8
OBJECT027
10
0
20
0
30
0
70
128
71
-2
72
5
73
1
0
VERTEX
8
OBJECT027
10
0
20
0
30
0
70
128
71
3
72
6
73
-7
0
VERTEX
8
OBJECT027
10
0
20
0
30
0
70
128
71
-3
72
7
73
4
0
VERTEX
8
OBJECT027
10
0
20
0
30
0
70
128
71
2
72
8
73
-6
0
VERTEX
8
OBJECT027
10
0
20
0
30
0
70
128
71
-2
72
6
73
3
0
VERTEX
8
OBJECT027
10
0
20
0
30
0
70
128
71
7
72
6
73
-8
0
VERTEX
8
OBJECT027
10
0
20
0
30
0
70
128
71
-7
72
8
73
-10
0
VERTEX
8
OBJECT027
10
0
20
0
30
0
70
128
71
-7
72
10
73
9
0
VERTEX
8
OBJECT027
10
0
20
0
30
0
70
128
71
1
72
10
73
-8
0
VERTEX
8
OBJECT027
10
0
20
0
30
0
70
128
71
-1
72
8
73
2
0
VERTEX
8
OBJECT027
10
0
20
0
30
0
70
128
71
4
72
7
73
-9
0
VERTEX
8
OBJECT027
10
0
20
0
30
0
70
128
71
-4
72
9
73
5
0
VERTEX
8
OBJECT027
10
0
20
0
30
0
70
128
71
5
72
9
73
-10
0
VERTEX
8
OBJECT027
10
0
20
0
30
0
70
128
71
-5
72
10
73
1
0
SEQEND
8
OBJECT027
0
POLYLINE
8
OBJECT028
66
1
70
64
71
8
72
12
62
50
0
VERTEX
8
OBJECT028
10
-207.106735
20
40.698608
30
124.000000
70
192
0
VERTEX
8
OBJECT028
10
-207.104736
20
-49.369507
30
124.000000
70
192
0
VERTEX
8
OBJECT028
10
-221.739868
20
-68.000000
30
105.373566
70
192
0
VERTEX
8
OBJECT028
10
-221.742676
20
58.400146
30
105.373566
70
192
0
VERTEX
8
OBJECT028
10
-190.017090
20
40.700073
30
123.998566
70
192
0
VERTEX
8
OBJECT028
10
-190.000000
20
-49.371704
30
123.998566
70
192
0
VERTEX
8
OBJECT028
10
-205.780045
20
58.400146
30
105.373566
70
192
0
VERTEX
8
OBJECT028
10
-205.756042
20
-68.000000
30
105.373566
70
192
0
VERTEX
8
OBJECT028
10
0
20
0
30
0
70
128
71
2
72
3
73
-4
0
VERTEX
8
OBJECT028
10
0
20
0
30
0
70
128
71
-2
72
4
73
1
0
VERTEX
8
OBJECT028
10
0
20
0
30
0
70
128
71
1
72
5
73
-6
0
VERTEX
8
OBJECT028
10
0
20
0
30
0
70
128
71
-1
72
6
73
2
0
VERTEX
8
OBJECT028
10
0
20
0
30
0
70
128
71
8
72
6
73
-5
0
VERTEX
8
OBJECT028
10
0
20
0
30
0
70
128
71
-8
72
5
73
7
0
VERTEX
8
OBJECT028
10
0
20
0
30
0
70
128
71
2
72
6
73
-8
0
VERTEX
8
OBJECT028
10
0
20
0
30
0
70
128
71
-2
72
8
73
3
0
VERTEX
8
OBJECT028
10
0
20
0
30
0
70
128
71
3
72
8
73
-7
0
VERTEX
8
OBJECT028
10
0
20
0
30
0
70
128
71
-3
72
7
73
4
0
VERTEX
8
OBJECT028
10
0
20
0
30
0
70
128
71
4
72
7
73
-5
0
VERTEX
8
OBJECT028
10
0
20
0
30
0
70
128
71
-4
72
5
73
1
0
SEQEND
8
OBJECT028
0
POLYLINE
8
OBJECT029
66
1
70
64
71
8
72
12
62
50
0
VERTEX
8
OBJECT029
10
-221.744949
20
32.000000
30
105.373566
70
192
0
VERTEX
8
OBJECT029
10
-221.744949
20
-4.000000
30
105.373566
70
192
0
VERTEX
8
OBJECT029
10
-231.172958
20
4.000000
30
93.373260
70
192
0
VERTEX
8
OBJECT029
10
-231.172958
20
24.000000
30
93.373260
70
192
0
VERTEX
8
OBJECT029
10
-215.920288
20
4.000000
30
93.373260
70
192
0
VERTEX
8
OBJECT029
10
-205.763260
20
-4.000000
30
105.373566
70
192
0
VERTEX
8
OBJECT029
10
-205.770264
20
32.000000
30
105.373566
70
192
0
VERTEX
8
OBJECT029
10
-215.924179
20
24.000000
30
93.373260
70
192
0
VERTEX
8
OBJECT029
10
0
20
0
30
0
70
128
71
2
72
3
73
-4
0
VERTEX
8
OBJECT029
10
0
20
0
30
0
70
128
71
-2
72
4
73
1
0
VERTEX
8
OBJECT029
10
0
20
0
30
0
70
128
71
6
72
7
73
-8
0
VERTEX
8
OBJECT029
10
0
20
0
30
0
70
128
71
-6
72
8
73
5
0
VERTEX
8
OBJECT029
10
0
20
0
30
0
70
128
71
1
72
7
73
-6
0
VERTEX
8
OBJECT029
10
0
20
0
30
0
70
128
71
-1
72
6
73
2
0
VERTEX
8
OBJECT029
10
0
20
0
30
0
70
128
71
5
72
3
73
-2
0
VERTEX
8
OBJECT029
10
0
20
0
30
0
70
128
71
-5
72
2
73
6
0
VERTEX
8
OBJECT029
10
0
20
0
30
0
70
128
71
4
72
8
73
-7
0
VERTEX
8
OBJECT029
10
0
20
0
30
0
70
128
71
-4
72
7
73
1
0
VERTEX
8
OBJECT029
10
0
20
0
30
0
70
128
71
3
72
5
73
-8
0
VERTEX
8
OBJECT029
10
0
20
0
30
0
70
128
71
-3
72
8
73
4
0
SEQEND
8
OBJECT029
0
POLYLINE
8
OBJECT030
66
1
70
64
71
10
72
16
62
50
0
VERTEX
8
OBJECT030
10
-227.721207
20
-90.477661
30
97.764160
70
192
0
VERTEX
8
OBJECT030
10
-238.529785
20
-100.000000
30
84.009521
70
192
0
VERTEX
8
OBJECT030
10
-246.887955
20
-100.000000
30
73.373260
70
192
0
VERTEX
8
OBJECT030
10
-221.741821
20
-68.000000
30
105.373566
70
192
0
VERTEX
8
OBJECT030
10
-221.741714
20
-79.060547
30
105.373566
70
192
0
VERTEX
8
OBJECT030
10
-212.197357
20
-90.477173
30
97.765015
70
192
0
VERTEX
8
OBJECT030
10
-223.827347
20
-100.000000
30
84.009644
70
192
0
VERTEX
8
OBJECT030
10
-205.778381
20
-79.059204
30
105.373566
70
192
0
VERTEX
8
OBJECT030
10
-232.837601
20
-100.000000
30
73.373260
70
192
0
VERTEX
8
OBJECT030
10
-205.804077
20
-68.000000
30
105.373566
70
192
0
VERTEX
8
OBJECT030
10
0
20
0
30
0
70
128
71
2
72
3
73
-4
0
VERTEX
8
OBJECT030
10
0
20
0
30
0
70
128
71
-2
72
4
73
-5
0
VERTEX
8
OBJECT030
10
0
20
0
30
0
70
128
71
-2
72
5
73
1
0
VERTEX
8
OBJECT030
10
0
20
0
30
0
70
128
71
1
72
6
73
-7
0
VERTEX
8
OBJECT030
10
0
20
0
30
0
70
128
71
-1
72
7
73
2
0
VERTEX
8
OBJECT030
10
0
20
0
30
0
70
128
71
1
72
5
73
-8
0
VERTEX
8
OBJECT030
10
0
20
0
30
0
70
128
71
-1
72
8
73
6
0
VERTEX
8
OBJECT030
10
0
20
0
30
0
70
128
71
7
72
6
73
-8
0
VERTEX
8
OBJECT030
10
0
20
0
30
0
70
128
71
-7
72
8
73
-10
0
VERTEX
8
OBJECT030
10
0
20
0
30
0
70
128
71
-7
72
10
73
9
0
VERTEX
8
OBJECT030
10
0
20
0
30
0
70
128
71
2
72
7
73
-9
0
VERTEX
8
OBJECT030
10
0
20
0
30
0
70
128
71
-2
72
9
73
3
0
VERTEX
8
OBJECT030
10
0
20
0
30
0
70
128
71
3
72
9
73
-10
0
VERTEX
8
OBJECT030
10
0
20
0
30
0
70
128
71
-3
72
10
73
4
0
VERTEX
8
OBJECT030
10
0
20
0
30
0
70
128
71
5
72
4
73
-10
0
VERTEX
8
OBJECT030
10
0
20
0
30
0
70
128
71
-5
72
10
73
8
0
SEQEND
8
OBJECT030
0
POLYLINE
8
OBJECT031
66
1
70
64
71
8
72
12
62
50
0
VERTEX
8
OBJECT031
10
-207.109055
20
-49.368530
30
124.000000
70
192
0
VERTEX
8
OBJECT031
10
-207.109055
20
-51.128784
30
124.000000
70
192
0
VERTEX
8
OBJECT031
10
-221.744171
20
-79.070923
30
105.373566
70
192
0
VERTEX
8
OBJECT031
10
-221.744171
20
-68.000000
30
105.373566
70
192
0
VERTEX
8
OBJECT031
10
-190.000000
20
-51.128784
30
123.998566
70
192
0
VERTEX
8
OBJECT031
10
-190.000000
20
-49.369995
30
123.998566
70
192
0
VERTEX
8
OBJECT031
10
-205.757019
20
-79.068604
30
105.373566
70
192
0
VERTEX
8
OBJECT031
10
-205.759064
20
-68.000000
30
105.373566
70
192
0
VERTEX
8
OBJECT031
10
0
20
0
30
0
70
128
71
2
72
3
73
-4
0
VERTEX
8
OBJECT031
10
0
20
0
30
0
70
128
71
-2
72
4
73
1
0
VERTEX
8
OBJECT031
10
0
20
0
30
0
70
128
71
2
72
1
73
-6
0
VERTEX
8
OBJECT031
10
0
20
0
30
0
70
128
71
-2
72
6
73
5
0
VERTEX
8
OBJECT031
10
0
20
0
30
0
70
128
71
2
72
5
73
-7
0
VERTEX
8
OBJECT031
10
0
20
0
30
0
70
128
71
-2
72
7
73
3
0
VERTEX
8
OBJECT031
10
0
20
0
30
0
70
128
71
5
72
6
73
-8
0
VERTEX
8
OBJECT031
10
0
20
0
30
0
70
128
71
-5
72
8
73
7
0
VERTEX
8
OBJECT031
10
0
20
0
30
0
70
128
71
1
72
4
73
-8
0
VERTEX
8
OBJECT031
10
0
20
0
30
0
70
128
71
-1
72
8
73
6
0
VERTEX
8
OBJECT031
10
0
20
0
30
0
70
128
71
3
72
7
73
-8
0
VERTEX
8
OBJECT031
10
0
20
0
30
0
70
128
71
-3
72
8
73
4
0
SEQEND
8
OBJECT031
0
POLYLINE
8
OBJECT032
66
1
70
64
71
10
72
16
62
50
0
VERTEX
8
OBJECT032
10
-262.608459
20
-120.000000
30
53.373291
70
192
0
VERTEX
8
OBJECT032
10
-287.752441
20
-120.000000
30
21.373260
70
192
0
VERTEX
8
OBJECT032
10
-287.752441
20
-100.000000
30
21.373260
70
192
0
VERTEX
8
OBJECT032
10
-272.037445
20
-100.000000
30
41.373291
70
192
0
VERTEX
8
OBJECT032
10
-259.465454
20
-116.000000
30
57.373291
70
192
0
VERTEX
8
OBJECT032
10
-249.758026
20
-120.000000
30
53.373291
70
192
0
VERTEX
8
OBJECT032
10
-276.839050
20
-120.000000
30
21.373260
70
192
0
VERTEX
8
OBJECT032
10
-276.841614
20
-100.000000
30
21.373260
70
192
0
VERTEX
8
OBJECT032
10
-246.373047
20
-116.000000
30
57.373291
70
192
0
VERTEX
8
OBJECT032
10
-259.915955
20
-100.000000
30
41.373291
70
192
0
VERTEX
8
OBJECT032
10
0
20
0
30
0
70
128
71
2
72
3
73
-4
0
VERTEX
8
OBJECT032
10
0
20
0
30
0
70
128
71
-2
72
4
73
-5
0
VERTEX
8
OBJECT032
10
0
20
0
30
0
70
128
71
-2
72
5
73
1
0
VERTEX
8
OBJECT032
10
0
20
0
30
0
70
128
71
7
72
2
73
-1
0
VERTEX
8
OBJECT032
10
0
20
0
30
0
70
128
71
-7
72
1
73
6
0
VERTEX
8
OBJECT032
10
0
20
0
30
0
70
128
71
7
72
6
73
-9
0
VERTEX
8
OBJECT032
10
0
20
0
30
0
70
128
71
-7
72
9
73
-10
0
VERTEX
8
OBJECT032
10
0
20
0
30
0
70
128
71
-7
72
10
73
8
0
VERTEX
8
OBJECT032
10
0
20
0
30
0
70
128
71
2
72
7
73
-8
0
VERTEX
8
OBJECT032
10
0
20
0
30
0
70
128
71
-2
72
8
73
3
0
VERTEX
8
OBJECT032
10
0
20
0
30
0
70
128
71
4
72
10
73
-9
0
VERTEX
8
OBJECT032
10
0
20
0
30
0
70
128
71
-4
72
9
73
5
0
VERTEX
8
OBJECT032
10
0
20
0
30
0
70
128
71
3
72
8
73
-10
0
VERTEX
8
OBJECT032
10
0
20
0
30
0
70
128
71
-3
72
10
73
4
0
VERTEX
8
OBJECT032
10
0
20
0
30
0
70
128
71
6
72
1
73
-5
0
VERTEX
8
OBJECT032
10
0
20
0
30
0
70
128
71
-6
72
5
73
9
0
SEQEND
8
OBJECT032
0
POLYLINE
8
OBJECT033
66
1
70
64
71
6
72
8
62
50
0
VERTEX
8
OBJECT033
10
-259.461060
20
-116.000000
30
57.372742
70
192
0
VERTEX
8
OBJECT033
10
-272.033081
20
-100.000000
30
41.372223
70
192
0
VERTEX
8
OBJECT033
10
-246.887939
20
-100.000000
30
73.373260
70
192
0
VERTEX
8
OBJECT033
10
-232.841949
20
-100.000000
30
73.373260
70
192
0
VERTEX
8
OBJECT033
10
-259.919495
20
-100.000000
30
41.374619
70
192
0
VERTEX
8
OBJECT033
10
-246.378708
20
-116.000000
30
57.373932
70
192
0
VERTEX
8
OBJECT033
10
0
20
0
30
0
70
128
71
2
72
3
73
1
0
VERTEX
8
OBJECT033
10
0
20
0
30
0
70
128
71
5
72
6
73
4
0
VERTEX
8
OBJECT033
10
0
20
0
30
0
70
128
71
5
72
2
73
-1
0
VERTEX
8
OBJECT033
10
0
20
0
30
0
70
128
71
-5
72
1
73
6
0
VERTEX
8
OBJECT033
10
0
20
0
30
0
70
128
71
2
72
5
73
-4
0
VERTEX
8
OBJECT033
10
0
20
0
30
0
70
128
71
-2
72
4
73
3
0
VERTEX
8
OBJECT033
10
0
20
0
30
0
70
128
71
3
72
4
73
-6
0
VERTEX
8
OBJECT033
10
0
20
0
30
0
70
128
71
-3
72
6
73
1
0
SEQEND
8
OBJECT033
0
POLYLINE
8
OBJECT034
66
1
70
64
71
6
72
8
62
50
0
VERTEX
8
OBJECT034
10
-287.752686
20
-100.000000
30
21.373276
70
192
0
VERTEX
8
OBJECT034
10
-287.752686
20
-80.000000
30
21.373276
70
192
0
VERTEX
8
OBJECT034
10
-272.037262
20
-100.000000
30
41.373886
70
192
0
VERTEX
8
OBJECT034
10
-259.917145
20
-100.000000
30
41.370834
70
192
0
VERTEX
8
OBJECT034
10
-276.844177
20
-80.000000
30
21.373276
70
192
0
VERTEX
8
OBJECT034
10
-276.841187
20
-100.000000
30
21.373276
70
192
0
VERTEX
8
OBJECT034
10
0
20
0
30
0
70
128
71
2
72
3
73
1
0
VERTEX
8
OBJECT034
10
0
20
0
30
0
70
128
71
5
72
6
73
4
0
VERTEX
8
OBJECT034
10
0
20
0
30
0
70
128
71
1
72
6
73
-5
0
VERTEX
8
OBJECT034
10
0
20
0
30
0
70
128
71
-1
72
5
73
2
0
VERTEX
8
OBJECT034
10
0
20
0
30
0
70
128
71
2
72
5
73
-4
0
VERTEX
8
OBJECT034
10
0
20
0
30
0
70
128
71
-2
72
4
73
3
0
VERTEX
8
OBJECT034
10
0
20
0
30
0
70
128
71
6
72
1
73
-3
0
VERTEX
8
OBJECT034
10
0
20
0
30
0
70
128
71
-6
72
3
73
4
0
SEQEND
8
OBJECT034
0
POLYLINE
8
OBJECT035
66
1
70
64
71
8
72
12
62
50
0
VERTEX
8
OBJECT035
10
-221.740082
20
58.400024
30
105.373566
70
192
0
VERTEX
8
OBJECT035
10
-221.740082
20
70.019531
30
105.373566
70
192
0
VERTEX
8
OBJECT035
10
-207.104950
20
43.117432
30
124.000000
70
192
0
VERTEX
8
OBJECT035
10
-207.104950
20
40.698608
30
124.000000
70
192
0
VERTEX
8
OBJECT035
10
-190.015991
20
43.120728
30
123.998566
70
192
0
VERTEX
8
OBJECT035
10
-190.015991
20
40.699951
30
123.998566
70
192
0
VERTEX
8
OBJECT035
10
-205.783005
20
70.019897
30
105.373566
70
192
0
VERTEX
8
OBJECT035
10
-205.783951
20
58.400024
30
105.373566
70
192
0
VERTEX
8
OBJECT035
10
0
20
0
30
0
70
128
71
2
72
3
73
-4
0
VERTEX
8
OBJECT035
10
0
20
0
30
0
70
128
71
-2
72
4
73
1
0
VERTEX
8
OBJECT035
10
0
20
0
30
0
70
128
71
3
72
5
73
-6
0
VERTEX
8
OBJECT035
10
0
20
0
30
0
70
128
71
-3
72
6
73
4
0
VERTEX
8
OBJECT035
10
0
20
0
30
0
70
128
71
3
72
2
73
-7
0
VERTEX
8
OBJECT035
10
0
20
0
30
0
70
128
71
-3
72
7
73
5
0
VERTEX
8
OBJECT035
10
0
20
0
30
0
70
128
71
5
72
7
73
-8
0
VERTEX
8
OBJECT035
10
0
20
0
30
0
70
128
71
-5
72
8
73
6
0
VERTEX
8
OBJECT035
10
0
20
0
30
0
70
128
71
2
72
1
73
-8
0
VERTEX
8
OBJECT035
10
0
20
0
30
0
70
128
71
-2
72
8
73
7
0
VERTEX
8
OBJECT035
10
0
20
0
30
0
70
128
71
4
72
6
73
-8
0
VERTEX
8
OBJECT035
10
0
20
0
30
0
70
128
71
-4
72
8
73
1
0
SEQEND
8
OBJECT035
0
POLYLINE
8
OBJECT036
66
1
70
64
71
8
72
12
62
50
0
VERTEX
8
OBJECT036
10
-266.082275
20
112.000000
30
48.948135
70
192
0
VERTEX
8
OBJECT036
10
-261.223572
20
112.000000
30
55.130219
70
192
0
VERTEX
8
OBJECT036
10
-256.338623
20
107.980835
30
61.348190
70
192
0
VERTEX
8
OBJECT036
10
-259.465271
20
104.000000
30
57.372391
70
192
0
VERTEX
8
OBJECT036
10
-253.507797
20
112.000000
30
48.948135
70
192
0
VERTEX
8
OBJECT036
10
-248.278290
20
112.000000
30
55.129028
70
192
0
VERTEX
8
OBJECT036
10
-243.016052
20
107.979736
30
61.347122
70
192
0
VERTEX
8
OBJECT036
10
-246.379333
20
104.000000
30
57.372360
70
192
0
VERTEX
8
OBJECT036
10
0
20
0
30
0
70
128
71
2
72
3
73
-4
0
VERTEX
8
OBJECT036
10
0
20
0
30
0
70
128
71
-2
72
4
73
1
0
VERTEX
8
OBJECT036
10
0
20
0
30
0
70
128
71
1
72
5
73
-6
0
VERTEX
8
OBJECT036
10
0
20
0
30
0
70
128
71
-1
72
6
73
2
0
VERTEX
8
OBJECT036
10
0
20
0
30
0
70
128
71
2
72
6
73
-7
0
VERTEX
8
OBJECT036
10
0
20
0
30
0
70
128
71
-2
72
7
73
3
0
VERTEX
8
OBJECT036
10
0
20
0
30
0
70
128
71
6
72
5
73
-8
0
VERTEX
8
OBJECT036
10
0
20
0
30
0
70
128
71
-6
72
8
73
7
0
VERTEX
8
OBJECT036
10
0
20
0
30
0
70
128
71
3
72
7
73
-8
0
VERTEX
8
OBJECT036
10
0
20
0
30
0
70
128
71
-3
72
8
73
4
0
VERTEX
8
OBJECT036
10
0
20
0
30
0
70
128
71
5
72
1
73
-4
0
VERTEX
8
OBJECT036
10
0
20
0
30
0
70
128
71
-5
72
4
73
8
0
SEQEND
8
OBJECT036
0
POLYLINE
8
OBJECT037
66
1
70
64
71
8
72
12
62
50
0
VERTEX
8
OBJECT037
10
-238.531967
20
-100.000000
30
84.011475
70
192
0
VERTEX
8
OBJECT037
10
-258.328003
20
-117.438843
30
58.817368
70
192
0
VERTEX
8
OBJECT037
10
-259.462158
20
-116.000000
30
57.374054
70
192
0
VERTEX
8
OBJECT037
10
-246.891159
20
-100.000000
30
73.373260
70
192
0
VERTEX
8
OBJECT037
10
-223.837204
20
-100.000000
30
84.012939
70
192
0
VERTEX
8
OBJECT037
10
-245.156281
20
-117.439453
30
58.817932
70
192
0
VERTEX
8
OBJECT037
10
-246.377808
20
-116.000000
30
57.374023
70
192
0
VERTEX
8
OBJECT037
10
-232.840317
20
-100.000000
30
73.373260
70
192
0
VERTEX
8
OBJECT037
10
0
20
0
30
0
70
128
71
2
72
3
73
-4
0
VERTEX
8
OBJECT037
10
0
20
0
30
0
70
128
71
-2
72
4
73
1
0
VERTEX
8
OBJECT037
10
0
20
0
30
0
70
128
71
6
72
2
73
-1
0
VERTEX
8
OBJECT037
10
0
20
0
30
0
70
128
71
-6
72
1
73
5
0
VERTEX
8
OBJECT037
10
0
20
0
30
0
70
128
71
6
72
5
73
-8
0
VERTEX
8
OBJECT037
10
0
20
0
30
0
70
128
71
-6
72
8
73
7
0
VERTEX
8
OBJECT037
10
0
20
0
30
0
70
128
71
2
72
6
73
-7
0
VERTEX
8
OBJECT037
10
0
20
0
30
0
70
128
71
-2
72
7
73
3
0
VERTEX
8
OBJECT037
10
0
20
0
30
0
70
128
71
4
72
8
73
-5
0
VERTEX
8
OBJECT037
10
0
20
0
30
0
70
128
71
-4
72
5
73
1
0
VERTEX
8
OBJECT037
10
0
20
0
30
0
70
128
71
3
72
7
73
-8
0
VERTEX
8
OBJECT037
10
0
20
0
30
0
70
128
71
-3
72
8
73
4
0
SEQEND
8
OBJECT037
0
POLYLINE
8
OBJECT038
66
1
70
64
71
8
72
12
62
50
0
VERTEX
8
OBJECT038
10
-258.332275
20
-117.439819
30
58.817413
70
192
0
VERTEX
8
OBJECT038
10
-261.237244
20
-120.000000
30
55.121368
70
192
0
VERTEX
8
OBJECT038
10
-262.610107
20
-120.000000
30
53.373291
70
192
0
VERTEX
8
OBJECT038
10
-259.465179
20
-116.000000
30
57.373215
70
192
0
VERTEX
8
OBJECT038
10
-248.278946
20
-120.000000
30
55.121964
70
192
0
VERTEX
8
OBJECT038
10
-249.758987
20
-120.000000
30
53.373291
70
192
0
VERTEX
8
OBJECT038
10
-245.152588
20
-117.439331
30
58.816956
70
192
0
VERTEX
8
OBJECT038
10
-246.376434
20
-116.000000
30
57.373230
70
192
0
VERTEX
8
OBJECT038
10
0
20
0
30
0
70
128
71
2
72
3
73
-4
0
VERTEX
8
OBJECT038
10
0
20
0
30
0
70
128
71
-2
72
4
73
1
0
VERTEX
8
OBJECT038
10
0
20
0
30
0
70
128
71
2
72
5
73
-6
0
VERTEX
8
OBJECT038
10
0
20
0
30
0
70
128
71
-2
72
6
73
3
0
VERTEX
8
OBJECT038
10
0
20
0
30
0
70
128
71
5
72
2
73
-1
0
VERTEX
8
OBJECT038
10
0
20
0
30
0
70
128
71
-5
72
1
73
7
0
VERTEX
8
OBJECT038
10
0
20
0
30
0
70
128
71
5
72
7
73
-8
0
VERTEX
8
OBJECT038
10
0
20
0
30
0
70
128
71
-5
72
8
73
6
0
VERTEX
8
OBJECT038
10
0
20
0
30
0
70
128
71
4
72
8
73
-7
0
VERTEX
8
OBJECT038
10
0
20
0
30
0
70
128
71
-4
72
7
73
1
0
VERTEX
8
OBJECT038
10
0
20
0
30
0
70
128
71
3
72
6
73
-8
0
VERTEX
8
OBJECT038
10
0
20
0
30
0
70
128
71
-3
72
8
73
4
0
SEQEND
8
OBJECT038
0
POLYLINE
8
OBJECT039
66
1
70
64
71
12
72
20
62
50
0
VERTEX
8
OBJECT039
10
-205.530014
20
-81.606812
30
114.254822
70
192
0
VERTEX
8
OBJECT039
10
-205.530014
20
79.607788
30
114.254822
70
192
0
VERTEX
8
OBJECT039
10
-204.000000
20
80.899170
30
112.970490
70
192
0
VERTEX
8
OBJECT039
10
-204.000000
20
-82.897095
30
112.970490
70
192
0
VERTEX
8
OBJECT039
10
-304.518036
20
114.000000
30
-3.715454
70
192
0
VERTEX
8
OBJECT039
10
-304.518036
20
-116.000000
30
-3.715454
70
192
0
VERTEX
8
OBJECT039
10
-302.987854
20
-116.000000
30
-5.000397
70
192
0
VERTEX
8
OBJECT039
10
-302.987854
20
114.000000
30
-5.000397
70
192
0
VERTEX
8
OBJECT039
10
-234.391922
20
114.000000
30
79.860626
70
192
0
VERTEX
8
OBJECT039
10
-234.390625
20
-116.000000
30
79.862183
70
192
0
VERTEX
8
OBJECT039
10
-231.776077
20
-116.000000
30
79.868195
70
192
0
VERTEX
8
OBJECT039
10
-231.776443
20
114.000000
30
79.867737
70
192
0
VERTEX
8
OBJECT039
10
0
20
0
30
0
70
128
71
2
72
3
73
-4
0
VERTEX
8
OBJECT039
10
0
20
0
30
0
70
128
71
-2
72
4
73
1
0
VERTEX
8
OBJECT039
10
0
20
0
30
0
70
128
71
6
72
7
73
-8
0
VERTEX
8
OBJECT039
10
0
20
0
30
0
70
128
71
-6
72
8
73
5
0
VERTEX
8
OBJECT039
10
0
20
0
30
0
70
128
71
5
72
9
73
-2
0
VERTEX
8
OBJECT039
10
0
20
0
30
0
70
128
71
-5
72
2
73
-1
0
VERTEX
8
OBJECT039
10
0
20
0
30
0
70
128
71
-5
72
1
73
-10
0
VERTEX
8
OBJECT039
10
0
20
0
30
0
70
128
71
-5
72
10
73
6
0
VERTEX
8
OBJECT039
10
0
20
0
30
0
70
128
71
7
72
11
73
-4
0
VERTEX
8
OBJECT039
10
0
20
0
30
0
70
128
71
-7
72
4
73
-3
0
VERTEX
8
OBJECT039
10
0
20
0
30
0
70
128
71
-7
72
3
73
-12
0
VERTEX
8
OBJECT039
10
0
20
0
30
0
70
128
71
-7
72
12
73
8
0
VERTEX
8
OBJECT039
10
0
20
0
30
0
70
128
71
8
72
12
73
-9
0
VERTEX
8
OBJECT039
10
0
20
0
30
0
70
128
71
-8
72
9
73
5
0
VERTEX
8
OBJECT039
10
0
20
0
30
0
70
128
71
6
72
10
73
-11
0
VERTEX
8
OBJECT039
10
0
20
0
30
0
70
128
71
-6
72
11
73
7
0
VERTEX
8
OBJECT039
10
0
20
0
30
0
70
128
71
1
72
4
73
-11
0
VERTEX
8
OBJECT039
10
0
20
0
30
0
70
128
71
-1
72
11
73
10
0
VERTEX
8
OBJECT039
10
0
20
0
30
0
70
128
71
3
72
2
73
-9
0
VERTEX
8
OBJECT039
10
0
20
0
30
0
70
128
71
-3
72
9
73
12
0
SEQEND
8
OBJECT039
0
POLYLINE
8
OBJECT040
66
1
70
64
71
8
72
12
62
50
0
VERTEX
8
OBJECT040
10
264.000000
20
-56.000000
30
137.998566
70
192
0
VERTEX
8
OBJECT040
10
-196.856812
20
-56.000000
30
137.998566
70
192
0
VERTEX
8
OBJECT040
10
-196.856812
20
48.000000
30
137.998566
70
192
0
VERTEX
8
OBJECT040
10
264.000000
20
48.000000
30
137.998566
70
192
0
VERTEX
8
OBJECT040
10
264.000000
20
-74.000000
30
125.998566
70
192
0
VERTEX
8
OBJECT040
10
-206.285385
20
-74.000000
30
125.998566
70
192
0
VERTEX
8
OBJECT040
10
-206.283646
20
65.331543
30
125.998566
70
192
0
VERTEX
8
OBJECT040
10
264.000000
20
65.331543
30
125.998566
70
192
0
VERTEX
8
OBJECT040
10
0
20
0
30
0
70
128
71
2
72
3
73
-4
0
VERTEX
8
OBJECT040
10
0
20
0
30
0
70
128
71
-2
72
4
73
1
0
VERTEX
8
OBJECT040
10
0
20
0
30
0
70
128
71
6
72
2
73
-1
0
VERTEX
8
OBJECT040
10
0
20
0
30
0
70
128
71
-6
72
1
73
5
0
VERTEX
8
OBJECT040
10
0
20
0
30
0
70
128
71
3
72
7
73
-8
0
VERTEX
8
OBJECT040
10
0
20
0
30
0
70
128
71
-3
72
8
73
4
0
VERTEX
8
OBJECT040
10
0
20
0
30
0
70
128
71
3
72
2
73
-6
0
VERTEX
8
OBJECT040
10
0
20
0
30
0
70
128
71
-3
72
6
73
7
0
VERTEX
8
OBJECT040
10
0
20
0
30
0
70
128
71
7
72
6
73
-5
0
VERTEX
8
OBJECT040
10
0
20
0
30
0
70
128
71
-7
72
5
73
8
0
VERTEX
8
OBJECT040
10
0
20
0
30
0
70
128
71
1
72
4
73
-8
0
VERTEX
8
OBJECT040
10
0
20
0
30
0
70
128
71
-1
72
8
73
5
0
SEQEND
8
OBJECT040
0
POLYLINE
8
OBJECT041
66
1
70
64
71
8
72
12
62
50
0
VERTEX
8
OBJECT041
10
264.000000
20
52.000000
30
-118.001434
70
192
0
VERTEX
8
OBJECT041
10
-376.000000
20
52.000000
30
-118.001434
70
192
0
VERTEX
8
OBJECT041
10
-376.000000
20
-56.000000
30
-118.001434
70
192
0
VERTEX
8
OBJECT041
10
264.000000
20
-56.000000
30
-118.001434
70
192
0
VERTEX
8
OBJECT041
10
-376.000000
20
-74.000000
30
-106.001434
70
192
0
VERTEX
8
OBJECT041
10
-376.000000
20
70.000000
30
-106.001434
70
192
0
VERTEX
8
OBJECT041
10
264.000000
20
70.000000
30
-106.001434
70
192
0
VERTEX
8
OBJECT041
10
264.000000
20
-74.000000
30
-106.001434
70
192
0
VERTEX
8
OBJECT041
10
0
20
0
30
0
70
128
71
2
72
3
73
-4
0
VERTEX
8
OBJECT041
10
0
20
0
30
0
70
128
71
-2
72
4
73
1
0
VERTEX
8
OBJECT041
10
0
20
0
30
0
70
128
71
3
72
2
73
-6
0
VERTEX
8
OBJECT041
10
0
20
0
30
0
70
128
71
-3
72
6
73
5
0
VERTEX
8
OBJECT041
10
0
20
0
30
0
70
128
71
6
72
2
73
-1
0
VERTEX
8
OBJECT041
10
0
20
0
30
0
70
128
71
-6
72
1
73
7
0
VERTEX
8
OBJECT041
10
0
20
0
30
0
70
128
71
3
72
5
73
-8
0
VERTEX
8
OBJECT041
10
0
20
0
30
0
70
128
71
-3
72
8
73
4
0
VERTEX
8
OBJECT041
10
0
20
0
30
0
70
128
71
5
72
6
73
-7
0
VERTEX
8
OBJECT041
10
0
20
0
30
0
70
128
71
-5
72
7
73
8
0
VERTEX
8
OBJECT041
10
0
20
0
30
0
70
128
71
1
72
4
73
-8
0
VERTEX
8
OBJECT041
10
0
20
0
30
0
70
128
71
-1
72
8
73
7
0
SEQEND
8
OBJECT041
0
POLYLINE
8
OBJECT042
66
1
70
64
71
12
72
20
62
50
0
VERTEX
8
OBJECT042
10
-376.000000
20
-98.000000
30
-90.001740
70
192
0
VERTEX
8
OBJECT042
10
-376.000000
20
-74.000000
30
-106.001434
70
192
0
VERTEX
8
OBJECT042
10
-376.000000
20
70.000000
30
-106.001434
70
192
0
VERTEX
8
OBJECT042
10
-376.000000
20
90.401733
30
-92.396446
70
192
0
VERTEX
8
OBJECT042
10
-376.000000
20
91.474854
30
-90.789642
70
192
0
VERTEX
8
OBJECT042
10
-364.000000
20
101.615967
30
-75.601021
70
192
0
VERTEX
8
OBJECT042
10
-364.000000
20
90.398071
30
-92.398643
70
192
0
VERTEX
8
OBJECT042
10
-364.000000
20
70.000000
30
-106.001434
70
192
0
VERTEX
8
OBJECT042
10
-364.000000
20
-74.000000
30
-106.001434
70
192
0
VERTEX
8
OBJECT042
10
-375.601654
20
-98.761719
30
-89.492973
70
192
0
VERTEX
8
OBJECT042
10
-364.000000
20
-98.759766
30
-89.494286
70
192
0
VERTEX
8
OBJECT042
10
-364.000000
20
-109.089844
30
-74.724838
70
192
0
VERTEX
8
OBJECT042
10
0
20
0
30
0
70
128
71
2
72
3
73
-4
0
VERTEX
8
OBJECT042
10
0
20
0
30
0
70
128
71
-2
72
4
73
-5
0
VERTEX
8
OBJECT042
10
0
20
0
30
0
70
128
71
-2
72
5
73
1
0
VERTEX
8
OBJECT042
10
0
20
0
30
0
70
128
71
5
72
4
73
-7
0
VERTEX
8
OBJECT042
10
0
20
0
30
0
70
128
71
-5
72
7
73
6
0
VERTEX
8
OBJECT042
10
0
20
0
30
0
70
128
71
4
72
3
73
-8
0
VERTEX
8
OBJECT042
10
0
20
0
30
0
70
128
71
-4
72
8
73
7
0
VERTEX
8
OBJECT042
10
0
20
0
30
0
70
128
71
2
72
1
73
-10
0
VERTEX
8
OBJECT042
10
0
20
0
30
0
70
128
71
-2
72
10
73
-11
0
VERTEX
8
OBJECT042
10
0
20
0
30
0
70
128
71
-2
72
11
73
9
0
VERTEX
8
OBJECT042
10
0
20
0
30
0
70
128
71
10
72
12
73
11
0
VERTEX
8
OBJECT042
10
0
20
0
30
0
70
128
71
10
72
1
73
-5
0
VERTEX
8
OBJECT042
10
0
20
0
30
0
70
128
71
-10
72
5
73
-6
0
VERTEX
8
OBJECT042
10
0
20
0
30
0
70
128
71
-10
72
6
73
12
0
VERTEX
8
OBJECT042
10
0
20
0
30
0
70
128
71
3
72
2
73
-9
0
VERTEX
8
OBJECT042
10
0
20
0
30
0
70
128
71
-3
72
9
73
8
0
VERTEX
8
OBJECT042
10
0
20
0
30
0
70
128
71
7
72
8
73
-9
0
VERTEX
8
OBJECT042
10
0
20
0
30
0
70
128
71
-7
72
9
73
-11
0
VERTEX
8
OBJECT042
10
0
20
0
30
0
70
128
71
-7
72
11
73
-12
0
VERTEX
8
OBJECT042
10
0
20
0
30
0
70
128
71
-7
72
12
73
6
0
SEQEND
8
OBJECT042
0
POLYLINE
8
OBJECT043
66
1
70
64
71
8
72
12
62
50
0
VERTEX
8
OBJECT043
10
-338.285217
20
124.000000
30
-42.001770
70
192
0
VERTEX
8
OBJECT043
10
264.000000
20
124.000000
30
-42.001770
70
192
0
VERTEX
8
OBJECT043
10
264.000000
20
124.000000
30
61.998383
70
192
0
VERTEX
8
OBJECT043
10
-256.569702
20
124.000000
30
61.998383
70
192
0
VERTEX
8
OBJECT043
10
-242.000000
20
112.000000
30
80.541687
70
192
0
VERTEX
8
OBJECT043
10
264.000000
20
112.000000
30
80.541687
70
192
0
VERTEX
8
OBJECT043
10
-352.431702
20
112.000000
30
-60.004913
70
192
0
VERTEX
8
OBJECT043
10
264.000000
20
112.000000
30
-60.004913
70
192
0
VERTEX
8
OBJECT043
10
0
20
0
30
0
70
128
71
2
72
3
73
-4
0
VERTEX
8
OBJECT043
10
0
20
0
30
0
70
128
71
-2
72
4
73
1
0
VERTEX
8
OBJECT043
10
0
20
0
30
0
70
128
71
4
72
3
73
-6
0
VERTEX
8
OBJECT043
10
0
20
0
30
0
70
128
71
-4
72
6
73
5
0
VERTEX
8
OBJECT043
10
0
20
0
30
0
70
128
71
1
72
7
73
-8
0
VERTEX
8
OBJECT043
10
0
20
0
30
0
70
128
71
-1
72
8
73
2
0
VERTEX
8
OBJECT043
10
0
20
0
30
0
70
128
71
1
72
4
73
-5
0
VERTEX
8
OBJECT043
10
0
20
0
30
0
70
128
71
-1
72
5
73
7
0
VERTEX
8
OBJECT043
10
0
20
0
30
0
70
128
71
7
72
5
73
-6
0
VERTEX
8
OBJECT043
10
0
20
0
30
0
70
128
71
-7
72
6
73
8
0
VERTEX
8
OBJECT043
10
0
20
0
30
0
70
128
71
3
72
2
73
-8
0
VERTEX
8
OBJECT043
10
0
20
0
30
0
70
128
71
-3
72
8
73
6
0
SEQEND
8
OBJECT043
0
POLYLINE
8
OBJECT044
66
1
70
64
71
8
72
12
62
50
0
VERTEX
8
OBJECT044
10
264.000000
20
-132.000000
30
-42.001709
70
192
0
VERTEX
8
OBJECT044
10
-338.285217
20
-132.000000
30
-42.001709
70
192
0
VERTEX
8
OBJECT044
10
-256.567200
20
-132.000000
30
61.998352
70
192
0
VERTEX
8
OBJECT044
10
264.000000
20
-132.000000
30
61.998352
70
192
0
VERTEX
8
OBJECT044
10
-242.950775
20
-120.000000
30
79.330536
70
192
0
VERTEX
8
OBJECT044
10
264.000000
20
-120.000000
30
79.330536
70
192
0
VERTEX
8
OBJECT044
10
264.000000
20
-120.000000
30
-59.148285
70
192
0
VERTEX
8
OBJECT044
10
-351.757294
20
-120.000000
30
-59.148285
70
192
0
VERTEX
8
OBJECT044
10
0
20
0
30
0
70
128
71
2
72
3
73
-4
0
VERTEX
8
OBJECT044
10
0
20
0
30
0
70
128
71
-2
72
4
73
1
0
VERTEX
8
OBJECT044
10
0
20
0
30
0
70
128
71
3
72
5
73
-6
0
VERTEX
8
OBJECT044
10
0
20
0
30
0
70
128
71
-3
72
6
73
4
0
VERTEX
8
OBJECT044
10
0
20
0
30
0
70
128
71
8
72
2
73
-1
0
VERTEX
8
OBJECT044
10
0
20
0
30
0
70
128
71
-8
72
1
73
7
0
VERTEX
8
OBJECT044
10
0
20
0
30
0
70
128
71
3
72
2
73
-8
0
VERTEX
8
OBJECT044
10
0
20
0
30
0
70
128
71
-3
72
8
73
5
0
VERTEX
8
OBJECT044
10
0
20
0
30
0
70
128
71
7
72
6
73
-5
0
VERTEX
8
OBJECT044
10
0
20
0
30
0
70
128
71
-7
72
5
73
8
0
VERTEX
8
OBJECT044
10
0
20
0
30
0
70
128
71
1
72
4
73
-6
0
VERTEX
8
OBJECT044
10
0
20
0
30
0
70
128
71
-1
72
6
73
7
0
SEQEND
8
OBJECT044
0
POLYLINE
8
OBJECT045
66
1
70
64
71
10
72
16
62
50
0
VERTEX
8
OBJECT045
10
264.000000
20
-120.000000
30
79.332825
70
192
0
VERTEX
8
OBJECT045
10
-242.953140
20
-120.000000
30
79.332825
70
192
0
VERTEX
8
OBJECT045
10
-219.599670
20
-99.419800
30
109.054504
70
192
0
VERTEX
8
OBJECT045
10
264.000000
20
-99.419800
30
109.054504
70
192
0
VERTEX
8
OBJECT045
10
-206.285141
20
-74.000000
30
125.998566
70
192
0
VERTEX
8
OBJECT045
10
264.000000
20
-74.000000
30
125.998566
70
192
0
VERTEX
8
OBJECT045
10
-260.404785
20
-120.000000
30
57.123932
70
192
0
VERTEX
8
OBJECT045
10
-206.287308
20
-72.319946
30
125.998566
70
192
0
VERTEX
8
OBJECT045
10
264.000000
20
-72.319946
30
125.998566
70
192
0
VERTEX
8
OBJECT045
10
264.000000
20
-120.000000
30
57.123932
70
192
0
VERTEX
8
OBJECT045
10
0
20
0
30
0
70
128
71
2
72
3
73
-4
0
VERTEX
8
OBJECT045
10
0
20
0
30
0
70
128
71
-2
72
4
73
1
0
VERTEX
8
OBJECT045
10
0
20
0
30
0
70
128
71
3
72
5
73
-6
0
VERTEX
8
OBJECT045
10
0
20
0
30
0
70
128
71
-3
72
6
73
4
0
VERTEX
8
OBJECT045
10
0
20
0
30
0
70
128
71
2
72
7
73
-8
0
VERTEX
8
OBJECT045
10
0
20
0
30
0
70
128
71
-2
72
8
73
-5
0
VERTEX
8
OBJECT045
10
0
20
0
30
0
70
128
71
-2
72
5
73
3
0
VERTEX
8
OBJECT045
10
0
20
0
30
0
70
128
71
5
72
8
73
-9
0
VERTEX
8
OBJECT045
10
0
20
0
30
0
70
128
71
-5
72
9
73
6
0
VERTEX
8
OBJECT045
10
0
20
0
30
0
70
128
71
7
72
2
73
-1
0
VERTEX
8
OBJECT045
10
0
20
0
30
0
70
128
71
-7
72
1
73
10
0
VERTEX
8
OBJECT045
10
0
20
0
30
0
70
128
71
8
72
7
73
-10
0
VERTEX
8
OBJECT045
10
0
20
0
30
0
70
128
71
-8
72
10
73
9
0
VERTEX
8
OBJECT045
10
0
20
0
30
0
70
128
71
1
72
4
73
-6
0
VERTEX
8
OBJECT045
10
0
20
0
30
0
70
128
71
-1
72
6
73
-9
0
VERTEX
8
OBJECT045
10
0
20
0
30
0
70
128
71
-1
72
9
73
10
0
SEQEND
8
OBJECT045
0
POLYLINE
8
OBJECT046
66
1
70
64
71
6
72
8
62
50
0
VERTEX
8
OBJECT046
10
-206.284622
20
-51.117798
30
126.000000
70
192
0
VERTEX
8
OBJECT046
10
-206.284622
20
-72.318359
30
126.000000
70
192
0
VERTEX
8
OBJECT046
10
-226.897629
20
-90.480225
30
99.765930
70
192
0
VERTEX
8
OBJECT046
10
264.000000
20
-72.320801
30
125.998566
70
192
0
VERTEX
8
OBJECT046
10
264.000000
20
-51.119995
30
125.998566
70
192
0
VERTEX
8
OBJECT046
10
264.000000
20
-90.477905
30
99.767426
70
192
0
VERTEX
8
OBJECT046
10
0
20
0
30
0
70
128
71
2
72
3
73
1
0
VERTEX
8
OBJECT046
10
0
20
0
30
0
70
128
71
2
72
1
73
-5
0
VERTEX
8
OBJECT046
10
0
20
0
30
0
70
128
71
-2
72
5
73
4
0
VERTEX
8
OBJECT046
10
0
20
0
30
0
70
128
71
3
72
2
73
-4
0
VERTEX
8
OBJECT046
10
0
20
0
30
0
70
128
71
-3
72
4
73
6
0
VERTEX
8
OBJECT046
10
0
20
0
30
0
70
128
71
1
72
3
73
-6
0
VERTEX
8
OBJECT046
10
0
20
0
30
0
70
128
71
-1
72
6
73
5
0
VERTEX
8
OBJECT046
10
0
20
0
30
0
70
128
71
4
72
5
73
6
0
SEQEND
8
OBJECT046
0
POLYLINE
8
OBJECT047
66
1
70
64
71
10
72
16
62
50
0
VERTEX
8
OBJECT047
10
264.000000
20
65.329590
30
125.998566
70
192
0
VERTEX
8
OBJECT047
10
-206.305405
20
65.329590
30
125.998566
70
192
0
VERTEX
8
OBJECT047
10
-223.284317
20
96.588989
30
104.362976
70
192
0
VERTEX
8
OBJECT047
10
264.000000
20
96.588989
30
104.362976
70
192
0
VERTEX
8
OBJECT047
10
-242.000000
20
112.000000
30
80.544067
70
192
0
VERTEX
8
OBJECT047
10
264.000000
20
112.000000
30
80.544067
70
192
0
VERTEX
8
OBJECT047
10
-243.754028
20
112.000000
30
78.311737
70
192
0
VERTEX
8
OBJECT047
10
-206.330933
20
43.119995
30
125.998566
70
192
0
VERTEX
8
OBJECT047
10
264.000000
20
43.119995
30
125.998566
70
192
0
VERTEX
8
OBJECT047
10
264.000000
20
112.000000
30
78.311737
70
192
0
VERTEX
8
OBJECT047
10
0
20
0
30
0
70
128
71
2
72
3
73
-4
0
VERTEX
8
OBJECT047
10
0
20
0
30
0
70
128
71
-2
72
4
73
1
0
VERTEX
8
OBJECT047
10
0
20
0
30
0
70
128
71
3
72
5
73
-6
0
VERTEX
8
OBJECT047
10
0
20
0
30
0
70
128
71
-3
72
6
73
4
0
VERTEX
8
OBJECT047
10
0
20
0
30
0
70
128
71
5
72
3
73
-2
0
VERTEX
8
OBJECT047
10
0
20
0
30
0
70
128
71
-5
72
2
73
-8
0
VERTEX
8
OBJECT047
10
0
20
0
30
0
70
128
71
-5
72
8
73
7
0
VERTEX
8
OBJECT047
10
0
20
0
30
0
70
128
71
8
72
2
73
-1
0
VERTEX
8
OBJECT047
10
0
20
0
30
0
70
128
71
-8
72
1
73
9
0
VERTEX
8
OBJECT047
10
0
20
0
30
0
70
128
71
5
72
7
73
-10
0
VERTEX
8
OBJECT047
10
0
20
0
30
0
70
128
71
-5
72
10
73
6
0
VERTEX
8
OBJECT047
10
0
20
0
30
0
70
128
71
7
72
8
73
-9
0
VERTEX
8
OBJECT047
10
0
20
0
30
0
70
128
71
-7
72
9
73
10
0
VERTEX
8
OBJECT047
10
0
20
0
30
0
70
128
71
1
72
4
73
-6
0
VERTEX
8
OBJECT047
10
0
20
0
30
0
70
128
71
-1
72
6
73
-10
0
VERTEX
8
OBJECT047
10
0
20
0
30
0
70
128
71
-1
72
10
73
9
0
SEQEND
8
OBJECT047
0
POLYLINE
8
OBJECT048
66
1
70
64
71
6
72
8
62
50
0
VERTEX
8
OBJECT048
10
-260.396027
20
112.000000
30
57.127991
70
192
0
VERTEX
8
OBJECT048
10
-243.752792
20
112.000000
30
78.311371
70
192
0
VERTEX
8
OBJECT048
10
-230.241669
20
87.166138
30
95.505280
70
192
0
VERTEX
8
OBJECT048
10
264.000000
20
112.000000
30
57.127991
70
192
0
VERTEX
8
OBJECT048
10
264.000000
20
112.000000
30
78.311401
70
192
0
VERTEX
8
OBJECT048
10
264.000000
20
87.165039
30
95.507111
70
192
0
VERTEX
8
OBJECT048
10
0
20
0
30
0
70
128
71
2
72
3
73
1
0
VERTEX
8
OBJECT048
10
0
20
0
30
0
70
128
71
1
72
4
73
-5
0
VERTEX
8
OBJECT048
10
0
20
0
30
0
70
128
71
-1
72
5
73
2
0
VERTEX
8
OBJECT048
10
0
20
0
30
0
70
128
71
3
72
2
73
-5
0
VERTEX
8
OBJECT048
10
0
20
0
30
0
70
128
71
-3
72
5
73
6
0
VERTEX
8
OBJECT048
10
0
20
0
30
0
70
128
71
1
72
3
73
-6
0
VERTEX
8
OBJECT048
10
0
20
0
30
0
70
128
71
-1
72
6
73
4
0
VERTEX
8
OBJECT048
10
0
20
0
30
0
70
128
71
5
72
4
73
6
0
SEQEND
8
OBJECT048
0
POLYLINE
8
OBJECT049
66
1
70
64
71
12
72
20
62
50
0
VERTEX
8
OBJECT049
10
-352.433807
20
112.000000
30
-60.002930
70
192
0
VERTEX
8
OBJECT049
10
-364.000000
20
102.184204
30
-74.724213
70
192
0
VERTEX
8
OBJECT049
10
-364.000000
20
90.390259
30
-92.411743
70
192
0
VERTEX
8
OBJECT049
10
264.000000
20
90.373413
30
-92.415947
70
192
0
VERTEX
8
OBJECT049
10
264.000000
20
112.000000
30
-59.982285
70
192
0
VERTEX
8
OBJECT049
10
-364.000000
20
70.000000
30
-106.001434
70
192
0
VERTEX
8
OBJECT049
10
264.000000
20
69.989868
30
-106.001434
70
192
0
VERTEX
8
OBJECT049
10
-364.000000
20
86.941772
30
-74.724861
70
192
0
VERTEX
8
OBJECT049
10
-334.469299
20
112.000000
30
-37.138626
70
192
0
VERTEX
8
OBJECT049
10
-364.000000
20
66.090088
30
-106.001434
70
192
0
VERTEX
8
OBJECT049
10
264.000000
20
66.090088
30
-106.001434
70
192
0
VERTEX
8
OBJECT049
10
264.000000
20
112.000000
30
-37.138626
70
192
0
VERTEX
8
OBJECT049
10
0
20
0
30
0
70
128
71
2
72
3
73
-4
0
VERTEX
8
OBJECT049
10
0
20
0
30
0
70
128
71
-2
72
4
73
-5
0
VERTEX
8
OBJECT049
10
0
20
0
30
0
70
128
71
-2
72
5
73
1
0
VERTEX
8
OBJECT049
10
0
20
0
30
0
70
128
71
3
72
6
73
-7
0
VERTEX
8
OBJECT049
10
0
20
0
30
0
70
128
71
-3
72
7
73
4
0
VERTEX
8
OBJECT049
10
0
20
0
30
0
70
128
71
2
72
1
73
-9
0
VERTEX
8
OBJECT049
10
0
20
0
30
0
70
128
71
-2
72
9
73
8
0
VERTEX
8
OBJECT049
10
0
20
0
30
0
70
128
71
6
72
10
73
-11
0
VERTEX
8
OBJECT049
10
0
20
0
30
0
70
128
71
-6
72
11
73
7
0
VERTEX
8
OBJECT049
10
0
20
0
30
0
70
128
71
6
72
3
73
-2
0
VERTEX
8
OBJECT049
10
0
20
0
30
0
70
128
71
-6
72
2
73
-8
0
VERTEX
8
OBJECT049
10
0
20
0
30
0
70
128
71
-6
72
8
73
10
0
VERTEX
8
OBJECT049
10
0
20
0
30
0
70
128
71
1
72
5
73
-12
0
VERTEX
8
OBJECT049
10
0
20
0
30
0
70
128
71
-1
72
12
73
9
0
VERTEX
8
OBJECT049
10
0
20
0
30
0
70
128
71
10
72
8
73
-9
0
VERTEX
8
OBJECT049
10
0
20
0
30
0
70
128
71
-10
72
9
73
-12
0
VERTEX
8
OBJECT049
10
0
20
0
30
0
70
128
71
-10
72
12
73
11
0
VERTEX
8
OBJECT049
10
0
20
0
30
0
70
128
71
4
72
7
73
-11
0
VERTEX
8
OBJECT049
10
0
20
0
30
0
70
128
71
-4
72
11
73
-12
0
VERTEX
8
OBJECT049
10
0
20
0
30
0
70
128
71
-4
72
12
73
5
0
SEQEND
8
OBJECT049
0
POLYLINE
8
OBJECT050
66
1
70
64
71
6
72
8
62
50
0
VERTEX
8
OBJECT050
10
264.000000
20
66.090942
30
-106.001434
70
192
0
VERTEX
8
OBJECT050
10
-364.000000
20
66.090942
30
-106.001434
70
192
0
VERTEX
8
OBJECT050
10
-364.000000
20
46.750000
30
-106.001434
70
192
0
VERTEX
8
OBJECT050
10
264.000000
20
46.750000
30
-106.001434
70
192
0
VERTEX
8
OBJECT050
10
-364.000000
20
81.561768
30
-82.793289
70
192
0
VERTEX
8
OBJECT050
10
264.000000
20
81.563110
30
-82.792412
70
192
0
VERTEX
8
OBJECT050
10
0
20
0
30
0
70
128
71
2
72
3
73
-4
0
VERTEX
8
OBJECT050
10
0
20
0
30
0
70
128
71
-2
72
4
73
1
0
VERTEX
8
OBJECT050
10
0
20
0
30
0
70
128
71
2
72
5
73
3
0
VERTEX
8
OBJECT050
10
0
20
0
30
0
70
128
71
2
72
1
73
-6
0
VERTEX
8
OBJECT050
10
0
20
0
30
0
70
128
71
-2
72
6
73
5
0
VERTEX
8
OBJECT050
10
0
20
0
30
0
70
128
71
3
72
5
73
-6
0
VERTEX
8
OBJECT050
10
0
20
0
30
0
70
128
71
-3
72
6
73
4
0
VERTEX
8
OBJECT050
10
0
20
0
30
0
70
128
71
1
72
4
73
6
0
SEQEND
8
OBJECT050
0
POLYLINE
8
OBJECT051
66
1
70
64
71
10
72
16
62
50
0
VERTEX
8
OBJECT051
10
264.000000
20
-74.000000
30
-106.001434
70
192
0
VERTEX
8
OBJECT051
10
-364.000000
20
-74.000000
30
-106.001434
70
192
0
VERTEX
8
OBJECT051
10
-364.000000
20
-98.753296
30
-89.500900
70
192
0
VERTEX
8
OBJECT051
10
264.000000
20
-98.753296
30
-89.500900
70
192
0
VERTEX
8
OBJECT051
10
-364.000000
20
-109.104126
30
-74.720123
70
192
0
VERTEX
8
OBJECT051
10
-353.148834
20
-118.774292
30
-60.910004
70
192
0
VERTEX
8
OBJECT051
10
264.000000
20
-118.774292
30
-60.910004
70
192
0
VERTEX
8
OBJECT051
10
-364.000000
20
-98.042725
30
-74.723778
70
192
0
VERTEX
8
OBJECT051
10
264.000000
20
-51.101318
30
-106.001434
70
192
0
VERTEX
8
OBJECT051
10
-364.000000
20
-51.101318
30
-106.001434
70
192
0
VERTEX
8
OBJECT051
10
0
20
0
30
0
70
128
71
2
72
3
73
-4
0
VERTEX
8
OBJECT051
10
0
20
0
30
0
70
128
71
-2
72
4
73
1
0
VERTEX
8
OBJECT051
10
0
20
0
30
0
70
128
71
3
72
5
73
-6
0
VERTEX
8
OBJECT051
10
0
20
0
30
0
70
128
71
-3
72
6
73
-7
0
VERTEX
8
OBJECT051
10
0
20
0
30
0
70
128
71
-3
72
7
73
4
0
VERTEX
8
OBJECT051
10
0
20
0
30
0
70
128
71
5
72
8
73
6
0
VERTEX
8
OBJECT051
10
0
20
0
30
0
70
128
71
10
72
2
73
-1
0
VERTEX
8
OBJECT051
10
0
20
0
30
0
70
128
71
-10
72
1
73
9
0
VERTEX
8
OBJECT051
10
0
20
0
30
0
70
128
71
3
72
2
73
-10
0
VERTEX
8
OBJECT051
10
0
20
0
30
0
70
128
71
-3
72
10
73
-8
0
VERTEX
8
OBJECT051
10
0
20
0
30
0
70
128
71
-3
72
8
73
5
0
VERTEX
8
OBJECT051
10
0
20
0
30
0
70
128
71
6
72
8
73
-10
0
VERTEX
8
OBJECT051
10
0
20
0
30
0
70
128
71
-6
72
10
73
-9
0
VERTEX
8
OBJECT051
10
0
20
0
30
0
70
128
71
-6
72
9
73
7
0
VERTEX
8
OBJECT051
10
0
20
0
30
0
70
128
71
1
72
4
73
-7
0
VERTEX
8
OBJECT051
10
0
20
0
30
0
70
128
71
-1
72
7
73
9
0
SEQEND
8
OBJECT051
0
POLYLINE
8
OBJECT052
66
1
70
64
71
10
72
16
62
50
0
VERTEX
8
OBJECT052
10
264.000000
20
-118.453857
30
-61.367188
70
192
0
VERTEX
8
OBJECT052
10
-353.143311
20
-118.767944
30
-60.906281
70
192
0
VERTEX
8
OBJECT052
10
-351.761841
20
-120.000000
30
-59.148499
70
192
0
VERTEX
8
OBJECT052
10
264.000000
20
-120.000000
30
-59.161163
70
192
0
VERTEX
8
OBJECT052
10
-334.456573
20
-120.000000
30
-37.126373
70
192
0
VERTEX
8
OBJECT052
10
-364.000000
20
-98.051514
30
-74.717636
70
192
0
VERTEX
8
OBJECT052
10
-364.000000
20
-93.686401
30
-74.716660
70
192
0
VERTEX
8
OBJECT052
10
-364.000000
20
-89.865723
30
-80.176765
70
192
0
VERTEX
8
OBJECT052
10
264.000000
20
-120.000000
30
-37.415283
70
192
0
VERTEX
8
OBJECT052
10
264.000000
20
-89.929443
30
-80.389008
70
192
0
VERTEX
8
OBJECT052
10
0
20
0
30
0
70
128
71
2
72
3
73
-4
0
VERTEX
8
OBJECT052
10
0
20
0
30
0
70
128
71
-2
72
4
73
1
0
VERTEX
8
OBJECT052
10
0
20
0
30
0
70
128
71
3
72
2
73
-6
0
VERTEX
8
OBJECT052
10
0
20
0
30
0
70
128
71
-3
72
6
73
-7
0
VERTEX
8
OBJECT052
10
0
20
0
30
0
70
128
71
-3
72
7
73
5
0
VERTEX
8
OBJECT052
10
0
20
0
30
0
70
128
71
6
72
8
73
7
0
VERTEX
8
OBJECT052
10
0
20
0
30
0
70
128
71
3
72
5
73
-9
0
VERTEX
8
OBJECT052
10
0
20
0
30
0
70
128
71
-3
72
9
73
4
0
VERTEX
8
OBJECT052
10
0
20
0
30
0
70
128
71
6
72
2
73
-1
0
VERTEX
8
OBJECT052
10
0
20
0
30
0
70
128
71
-6
72
1
73
-10
0
VERTEX
8
OBJECT052
10
0
20
0
30
0
70
128
71
-6
72
10
73
8
0
VERTEX
8
OBJECT052
10
0
20
0
30
0
70
128
71
7
72
8
73
-10
0
VERTEX
8
OBJECT052
10
0
20
0
30
0
70
128
71
-7
72
10
73
-9
0
VERTEX
8
OBJECT052
10
0
20
0
30
0
70
128
71
-7
72
9
73
5
0
VERTEX
8
OBJECT052
10
0
20
0
30
0
70
128
71
1
72
4
73
-9
0
VERTEX
8
OBJECT052
10
0
20
0
30
0
70
128
71
-1
72
9
73
10
0
SEQEND
8
OBJECT052
0
POLYLINE
8
OBJECT053
66
1
70
64
71
6
72
8
62
50
0
VERTEX
8
OBJECT053
10
-85.719086
20
-144.000000
30
-47.704163
70
192
0
VERTEX
8
OBJECT053
10
-175.704102
20
-144.000000
30
-47.704163
70
192
0
VERTEX
8
OBJECT053
10
-114.642853
20
-144.000000
30
13.357178
70
192
0
VERTEX
8
OBJECT053
10
-76.796875
20
-130.967407
30
-66.539917
70
192
0
VERTEX
8
OBJECT053
10
-194.539917
20
-130.967407
30
-66.539917
70
192
0
VERTEX
8
OBJECT053
10
-114.642853
20
-130.967407
30
13.357178
70
192
0
VERTEX
8
OBJECT053
10
0
20
0
30
0
70
128
71
2
72
3
73
1
0
VERTEX
8
OBJECT053
10
0
20
0
30
0
70
128
71
5
72
2
73
-1
0
VERTEX
8
OBJECT053
10
0
20
0
30
0
70
128
71
-5
72
1
73
4
0
VERTEX
8
OBJECT053
10
0
20
0
30
0
70
128
71
4
72
6
73
5
0
VERTEX
8
OBJECT053
10
0
20
0
30
0
70
128
71
2
72
5
73
-6
0
VERTEX
8
OBJECT053
10
0
20
0
30
0
70
128
71
-2
72
6
73
3
0
VERTEX
8
OBJECT053
10
0
20
0
30
0
70
128
71
4
72
1
73
-3
0
VERTEX
8
OBJECT053
10
0
20
0
30
0
70
128
71
-4
72
3
73
6
0
SEQEND
8
OBJECT053
0
POLYLINE
8
OBJECT054
66
1
70
64
71
8
72
12
62
50
0
VERTEX
8
OBJECT054
10
-113.868347
20
-144.000000
30
14.131653
70
192
0
VERTEX
8
OBJECT054
10
-292.000000
20
-144.000000
30
14.131653
70
192
0
VERTEX
8
OBJECT054
10
-252.389114
20
-144.000000
30
66.659119
70
192
0
VERTEX
8
OBJECT054
10
-61.340881
20
-144.000000
30
66.659119
70
192
0
VERTEX
8
OBJECT054
10
-238.030426
20
-130.967407
30
85.698059
70
192
0
VERTEX
8
OBJECT054
10
-42.301941
20
-130.967407
30
85.698059
70
192
0
VERTEX
8
OBJECT054
10
-292.000000
20
-130.967407
30
14.131653
70
192
0
VERTEX
8
OBJECT054
10
-113.868347
20
-130.967407
30
14.131653
70
192
0
VERTEX
8
OBJECT054
10
0
20
0
30
0
70
128
71
2
72
3
73
-4
0
VERTEX
8
OBJECT054
10
0
20
0
30
0
70
128
71
-2
72
4
73
1
0
VERTEX
8
OBJECT054
10
0
20
0
30
0
70
128
71
3
72
5
73
-6
0
VERTEX
8
OBJECT054
10
0
20
0
30
0
70
128
71
-3
72
6
73
4
0
VERTEX
8
OBJECT054
10
0
20
0
30
0
70
128
71
3
72
2
73
-7
0
VERTEX
8
OBJECT054
10
0
20
0
30
0
70
128
71
-3
72
7
73
5
0
VERTEX
8
OBJECT054
10
0
20
0
30
0
70
128
71
5
72
7
73
-8
0
VERTEX
8
OBJECT054
10
0
20
0
30
0
70
128
71
-5
72
8
73
6
0
VERTEX
8
OBJECT054
10
0
20
0
30
0
70
128
71
7
72
2
73
-1
0
VERTEX
8
OBJECT054
10
0
20
0
30
0
70
128
71
-7
72
1
73
8
0
VERTEX
8
OBJECT054
10
0
20
0
30
0
70
128
71
4
72
6
73
-8
0
VERTEX
8
OBJECT054
10
0
20
0
30
0
70
128
71
-4
72
8
73
1
0
SEQEND
8
OBJECT054
0
POLYLINE
8
OBJECT055
66
1
70
64
71
10
72
16
62
50
0
VERTEX
8
OBJECT055
10
-175.704132
20
-144.000000
30
-47.704163
70
192
0
VERTEX
8
OBJECT055
10
-370.891876
20
-144.000000
30
-47.704163
70
192
0
VERTEX
8
OBJECT055
10
-324.360596
20
-144.000000
30
14.000000
70
192
0
VERTEX
8
OBJECT055
10
-114.947357
20
-144.000000
30
14.000000
70
192
0
VERTEX
8
OBJECT055
10
-114.642853
20
-144.000000
30
13.357117
70
192
0
VERTEX
8
OBJECT055
10
-194.539886
20
-130.967407
30
-66.539917
70
192
0
VERTEX
8
OBJECT055
10
-385.094330
20
-130.967407
30
-66.539917
70
192
0
VERTEX
8
OBJECT055
10
-324.359161
20
-130.967407
30
14.000000
70
192
0
VERTEX
8
OBJECT055
10
-114.642853
20
-130.967407
30
13.357178
70
192
0
VERTEX
8
OBJECT055
10
-114.947357
20
-130.967407
30
14.000000
70
192
0
VERTEX
8
OBJECT055
10
0
20
0
30
0
70
128
71
2
72
3
73
-4
0
VERTEX
8
OBJECT055
10
0
20
0
30
0
70
128
71
-2
72
4
73
-5
0
VERTEX
8
OBJECT055
10
0
20
0
30
0
70
128
71
-2
72
5
73
1
0
VERTEX
8
OBJECT055
10
0
20
0
30
0
70
128
71
7
72
2
73
-1
0
VERTEX
8
OBJECT055
10
0
20
0
30
0
70
128
71
-7
72
1
73
6
0
VERTEX
8
OBJECT055
10
0
20
0
30
0
70
128
71
2
72
7
73
-8
0
VERTEX
8
OBJECT055
10
0
20
0
30
0
70
128
71
-2
72
8
73
3
0
VERTEX
8
OBJECT055
10
0
20
0
30
0
70
128
71
7
72
6
73
-9
0
VERTEX
8
OBJECT055
10
0
20
0
30
0
70
128
71
-7
72
9
73
-10
0
VERTEX
8
OBJECT055
10
0
20
0
30
0
70
128
71
-7
72
10
73
8
0
VERTEX
8
OBJECT055
10
0
20
0
30
0
70
128
71
3
72
8
73
-10
0
VERTEX
8
OBJECT055
10
0
20
0
30
0
70
128
71
-3
72
10
73
4
0
VERTEX
8
OBJECT055
10
0
20
0
30
0
70
128
71
6
72
1
73
-5
0
VERTEX
8
OBJECT055
10
0
20
0
30
0
70
128
71
-6
72
5
73
9
0
VERTEX
8
OBJECT055
10
0
20
0
30
0
70
128
71
4
72
10
73
-9
0
VERTEX
8
OBJECT055
10
0
20
0
30
0
70
128
71
-4
72
9
73
5
0
SEQEND
8
OBJECT055
0
POLYLINE
8
OBJECT056
66
1
70
64
71
8
72
12
62
50
0
VERTEX
8
OBJECT056
10
264.000000
20
-144.000000
30
14.131653
70
192
0
VERTEX
8
OBJECT056
10
210.065186
20
-144.000000
30
14.131653
70
192
0
VERTEX
8
OBJECT056
10
166.670105
20
-144.000000
30
66.662537
70
192
0
VERTEX
8
OBJECT056
10
264.000000
20
-144.000000
30
66.662537
70
192
0
VERTEX
8
OBJECT056
10
150.945068
20
-130.967407
30
85.698059
70
192
0
VERTEX
8
OBJECT056
10
264.000000
20
-130.967407
30
85.698059
70
192
0
VERTEX
8
OBJECT056
10
210.065186
20
-130.967407
30
14.131653
70
192
0
VERTEX
8
OBJECT056
10
264.000000
20
-130.967407
30
14.131653
70
192
0
VERTEX
8
OBJECT056
10
0
20
0
30
0
70
128
71
2
72
3
73
-4
0
VERTEX
8
OBJECT056
10
0
20
0
30
0
70
128
71
-2
72
4
73
1
0
VERTEX
8
OBJECT056
10
0
20
0
30
0
70
128
71
3
72
5
73
-6
0
VERTEX
8
OBJECT056
10
0
20
0
30
0
70
128
71
-3
72
6
73
4
0
VERTEX
8
OBJECT056
10
0
20
0
30
0
70
128
71
8
72
6
73
-5
0
VERTEX
8
OBJECT056
10
0
20
0
30
0
70
128
71
-8
72
5
73
7
0
VERTEX
8
OBJECT056
10
0
20
0
30
0
70
128
71
7
72
2
73
-1
0
VERTEX
8
OBJECT056
10
0
20
0
30
0
70
128
71
-7
72
1
73
8
0
VERTEX
8
OBJECT056
10
0
20
0
30
0
70
128
71
4
72
6
73
-8
0
VERTEX
8
OBJECT056
10
0
20
0
30
0
70
128
71
-4
72
8
73
1
0
VERTEX
8
OBJECT056
10
0
20
0
30
0
70
128
71
3
72
2
73
-7
0
VERTEX
8
OBJECT056
10
0
20
0
30
0
70
128
71
-3
72
7
73
5
0
SEQEND
8
OBJECT056
0
POLYLINE
8
OBJECT057
66
1
70
64
71
8
72
12
62
50
0
VERTEX
8
OBJECT057
10
261.146362
20
-144.000000
30
-47.704163
70
192
0
VERTEX
8
OBJECT057
10
210.417603
20
-144.000000
30
-47.704163
70
192
0
VERTEX
8
OBJECT057
10
237.263428
20
-144.000000
30
-18.793274
70
192
0
VERTEX
8
OBJECT057
10
264.000000
20
-130.967407
30
-66.539917
70
192
0
VERTEX
8
OBJECT057
10
192.927246
20
-130.967407
30
-66.539917
70
192
0
VERTEX
8
OBJECT057
10
264.000000
20
-141.610596
30
-51.158569
70
192
0
VERTEX
8
OBJECT057
10
264.000000
20
-130.967407
30
-51.158569
70
192
0
VERTEX
8
OBJECT057
10
237.263428
20
-130.967407
30
-18.793274
70
192
0
VERTEX
8
OBJECT057
10
0
20
0
30
0
70
128
71
2
72
3
73
1
0
VERTEX
8
OBJECT057
10
0
20
0
30
0
70
128
71
5
72
2
73
-1
0
VERTEX
8
OBJECT057
10
0
20
0
30
0
70
128
71
-5
72
1
73
-6
0
VERTEX
8
OBJECT057
10
0
20
0
30
0
70
128
71
-5
72
6
73
4
0
VERTEX
8
OBJECT057
10
0
20
0
30
0
70
128
71
4
72
7
73
-8
0
VERTEX
8
OBJECT057
10
0
20
0
30
0
70
128
71
-4
72
8
73
5
0
VERTEX
8
OBJECT057
10
0
20
0
30
0
70
128
71
4
72
6
73
7
0
VERTEX
8
OBJECT057
10
0
20
0
30
0
70
128
71
7
72
6
73
-1
0
VERTEX
8
OBJECT057
10
0
20
0
30
0
70
128
71
-7
72
1
73
-3
0
VERTEX
8
OBJECT057
10
0
20
0
30
0
70
128
71
-7
72
3
73
8
0
VERTEX
8
OBJECT057
10
0
20
0
30
0
70
128
71
2
72
5
73
-8
0
VERTEX
8
OBJECT057
10
0
20
0
30
0
70
128
71
-2
72
8
73
3
0
SEQEND
8
OBJECT057
0
POLYLINE
8
OBJECT058
66
1
70
64
71
8
72
12
62
50
0
VERTEX
8
OBJECT058
10
264.000000
20
-144.000000
30
14.000000
70
192
0
VERTEX
8
OBJECT058
10
264.000000
20
-144.000000
30
-47.704163
70
192
0
VERTEX
8
OBJECT058
10
261.146912
20
-144.000000
30
-47.704163
70
192
0
VERTEX
8
OBJECT058
10
210.173889
20
-144.000000
30
14.000000
70
192
0
VERTEX
8
OBJECT058
10
264.000000
20
-141.610962
30
-51.157898
70
192
0
VERTEX
8
OBJECT058
10
264.000000
20
-130.967407
30
-51.157898
70
192
0
VERTEX
8
OBJECT058
10
264.000000
20
-130.967407
30
14.000000
70
192
0
VERTEX
8
OBJECT058
10
210.173889
20
-130.967407
30
14.000000
70
192
0
VERTEX
8
OBJECT058
10
0
20
0
30
0
70
128
71
2
72
3
73
-4
0
VERTEX
8
OBJECT058
10
0
20
0
30
0
70
128
71
-2
72
4
73
1
0
VERTEX
8
OBJECT058
10
0
20
0
30
0
70
128
71
2
72
5
73
3
0
VERTEX
8
OBJECT058
10
0
20
0
30
0
70
128
71
7
72
8
73
6
0
VERTEX
8
OBJECT058
10
0
20
0
30
0
70
128
71
6
72
5
73
-2
0
VERTEX
8
OBJECT058
10
0
20
0
30
0
70
128
71
-6
72
2
73
-1
0
VERTEX
8
OBJECT058
10
0
20
0
30
0
70
128
71
-6
72
1
73
7
0
VERTEX
8
OBJECT058
10
0
20
0
30
0
70
128
71
4
72
8
73
-7
0
VERTEX
8
OBJECT058
10
0
20
0
30
0
70
128
71
-4
72
7
73
1
0
VERTEX
8
OBJECT058
10
0
20
0
30
0
70
128
71
3
72
5
73
-6
0
VERTEX
8
OBJECT058
10
0
20
0
30
0
70
128
71
-3
72
6
73
-8
0
VERTEX
8
OBJECT058
10
0
20
0
30
0
70
128
71
-3
72
8
73
4
0
SEQEND
8
OBJECT058
0
POLYLINE
8
OBJECT059
66
1
70
64
71
8
72
12
62
50
0
VERTEX
8
OBJECT059
10
264.000000
20
-130.967407
30
85.697266
70
192
0
VERTEX
8
OBJECT059
10
-238.037155
20
-130.967407
30
85.697266
70
192
0
VERTEX
8
OBJECT059
10
-215.185547
20
-110.219849
30
116.000000
70
192
0
VERTEX
8
OBJECT059
10
264.000000
20
-110.219849
30
116.000000
70
192
0
VERTEX
8
OBJECT059
10
-256.436462
20
-130.967407
30
61.298950
70
192
0
VERTEX
8
OBJECT059
10
-219.926056
20
-97.826294
30
109.714233
70
192
0
VERTEX
8
OBJECT059
10
264.000000
20
-130.967407
30
61.298950
70
192
0
VERTEX
8
OBJECT059
10
264.000000
20
-97.826538
30
109.714355
70
192
0
VERTEX
8
OBJECT059
10
0
20
0
30
0
70
128
71
2
72
3
73
-4
0
VERTEX
8
OBJECT059
10
0
20
0
30
0
70
128
71
-2
72
4
73
1
0
VERTEX
8
OBJECT059
10
0
20
0
30
0
70
128
71
2
72
5
73
-6
0
VERTEX
8
OBJECT059
10
0
20
0
30
0
70
128
71
-2
72
6
73
3
0
VERTEX
8
OBJECT059
10
0
20
0
30
0
70
128
71
5
72
2
73
-1
0
VERTEX
8
OBJECT059
10
0
20
0
30
0
70
128
71
-5
72
1
73
7
0
VERTEX
8
OBJECT059
10
0
20
0
30
0
70
128
71
5
72
7
73
-8
0
VERTEX
8
OBJECT059
10
0
20
0
30
0
70
128
71
-5
72
8
73
6
0
VERTEX
8
OBJECT059
10
0
20
0
30
0
70
128
71
3
72
6
73
-8
0
VERTEX
8
OBJECT059
10
0
20
0
30
0
70
128
71
-3
72
8
73
4
0
VERTEX
8
OBJECT059
10
0
20
0
30
0
70
128
71
1
72
4
73
-8
0
VERTEX
8
OBJECT059
10
0
20
0
30
0
70
128
71
-1
72
8
73
7
0
SEQEND
8
OBJECT059
0
POLYLINE
8
OBJECT060
66
1
70
64
71
12
72
20
62
50
0
VERTEX
8
OBJECT060
10
264.000000
20
-81.014282
30
-118.000000
70
192
0
VERTEX
8
OBJECT060
10
-388.000000
20
-81.014282
30
-118.000000
70
192
0
VERTEX
8
OBJECT060
10
-398.000000
20
-95.847290
30
-108.000000
70
192
0
VERTEX
8
OBJECT060
10
-398.000000
20
-107.885376
30
-99.884216
70
192
0
VERTEX
8
OBJECT060
10
264.000000
20
-107.885376
30
-99.884216
70
192
0
VERTEX
8
OBJECT060
10
-398.000000
20
-119.131714
30
-83.640045
70
192
0
VERTEX
8
OBJECT060
10
-386.568787
20
-129.627197
30
-68.481567
70
192
0
VERTEX
8
OBJECT060
10
264.000000
20
-129.627197
30
-68.481567
70
192
0
VERTEX
8
OBJECT060
10
-398.000000
20
-107.131714
30
-83.640381
70
192
0
VERTEX
8
OBJECT060
10
264.000000
20
-56.142578
30
-118.000000
70
192
0
VERTEX
8
OBJECT060
10
-388.000000
20
-56.142578
30
-118.000000
70
192
0
VERTEX
8
OBJECT060
10
-398.000000
20
-70.982544
30
-108.000000
70
192
0
VERTEX
8
OBJECT060
10
0
20
0
30
0
70
128
71
2
72
3
73
-4
0
VERTEX
8
OBJECT060
10
0
20
0
30
0
70
128
71
-2
72
4
73
-5
0
VERTEX
8
OBJECT060
10
0
20
0
30
0
70
128
71
-2
72
5
73
1
0
VERTEX
8
OBJECT060
10
0
20
0
30
0
70
128
71
4
72
6
73
-7
0
VERTEX
8
OBJECT060
10
0
20
0
30
0
70
128
71
-4
72
7
73
-8
0
VERTEX
8
OBJECT060
10
0
20
0
30
0
70
128
71
-4
72
8
73
5
0
VERTEX
8
OBJECT060
10
0
20
0
30
0
70
128
71
6
72
9
73
7
0
VERTEX
8
OBJECT060
10
0
20
0
30
0
70
128
71
11
72
2
73
-1
0
VERTEX
8
OBJECT060
10
0
20
0
30
0
70
128
71
-11
72
1
73
10
0
VERTEX
8
OBJECT060
10
0
20
0
30
0
70
128
71
4
72
3
73
-12
0
VERTEX
8
OBJECT060
10
0
20
0
30
0
70
128
71
-4
72
12
73
-9
0
VERTEX
8
OBJECT060
10
0
20
0
30
0
70
128
71
-4
72
9
73
6
0
VERTEX
8
OBJECT060
10
0
20
0
30
0
70
128
71
7
72
9
73
-12
0
VERTEX
8
OBJECT060
10
0
20
0
30
0
70
128
71
-7
72
12
73
-11
0
VERTEX
8
OBJECT060
10
0
20
0
30
0
70
128
71
-7
72
11
73
-10
0
VERTEX
8
OBJECT060
10
0
20
0
30
0
70
128
71
-7
72
10
73
8
0
VERTEX
8
OBJECT060
10
0
20
0
30
0
70
128
71
1
72
5
73
-8
0
VERTEX
8
OBJECT060
10
0
20
0
30
0
70
128
71
-1
72
8
73
10
0
VERTEX
8
OBJECT060
10
0
20
0
30
0
70
128
71
2
72
11
73
-12
0
VERTEX
8
OBJECT060
10
0
20
0
30
0
70
128
71
-2
72
12
73
3
0
SEQEND
8
OBJECT060
0
POLYLINE
8
OBJECT061
66
1
70
64
71
10
72
16
62
50
0
VERTEX
8
OBJECT061
10
-247.545395
20
-110.219360
30
115.868408
70
192
0
VERTEX
8
OBJECT061
10
-245.781693
20
-108.617920
30
118.207153
70
192
0
VERTEX
8
OBJECT061
10
264.000000
20
-108.617920
30
118.207153
70
192
0
VERTEX
8
OBJECT061
10
264.000000
20
-110.219360
30
115.868408
70
192
0
VERTEX
8
OBJECT061
10
-231.751251
20
-81.009277
30
136.818237
70
192
0
VERTEX
8
OBJECT061
10
264.000000
20
-81.009277
30
136.818237
70
192
0
VERTEX
8
OBJECT061
10
-252.288666
20
-97.826416
30
109.583496
70
192
0
VERTEX
8
OBJECT061
10
-231.750793
20
-79.183838
30
136.818237
70
192
0
VERTEX
8
OBJECT061
10
264.000000
20
-79.183838
30
136.818237
70
192
0
VERTEX
8
OBJECT061
10
264.000000
20
-97.825806
30
109.583130
70
192
0
VERTEX
8
OBJECT061
10
0
20
0
30
0
70
128
71
2
72
3
73
-4
0
VERTEX
8
OBJECT061
10
0
20
0
30
0
70
128
71
-2
72
4
73
1
0
VERTEX
8
OBJECT061
10
0
20
0
30
0
70
128
71
2
72
5
73
-6
0
VERTEX
8
OBJECT061
10
0
20
0
30
0
70
128
71
-2
72
6
73
3
0
VERTEX
8
OBJECT061
10
0
20
0
30
0
70
128
71
1
72
7
73
-8
0
VERTEX
8
OBJECT061
10
0
20
0
30
0
70
128
71
-1
72
8
73
-5
0
VERTEX
8
OBJECT061
10
0
20
0
30
0
70
128
71
-1
72
5
73
2
0
VERTEX
8
OBJECT061
10
0
20
0
30
0
70
128
71
5
72
8
73
-9
0
VERTEX
8
OBJECT061
10
0
20
0
30
0
70
128
71
-5
72
9
73
6
0
VERTEX
8
OBJECT061
10
0
20
0
30
0
70
128
71
9
72
8
73
-7
0
VERTEX
8
OBJECT061
10
0
20
0
30
0
70
128
71
-9
72
7
73
10
0
VERTEX
8
OBJECT061
10
0
20
0
30
0
70
128
71
3
72
6
73
-9
0
VERTEX
8
OBJECT061
10
0
20
0
30
0
70
128
71
-3
72
9
73
-10
0
VERTEX
8
OBJECT061
10
0
20
0
30
0
70
128
71
-3
72
10
73
4
0
VERTEX
8
OBJECT061
10
0
20
0
30
0
70
128
71
7
72
1
73
-4
0
VERTEX
8
OBJECT061
10
0
20
0
30
0
70
128
71
-7
72
4
73
10
0
SEQEND
8
OBJECT061
0
POLYLINE
8
OBJECT062
66
1
70
64
71
8
72
12
62
50
0
VERTEX
8
OBJECT062
10
264.000000
20
-61.462402
30
150.000000
70
192
0
VERTEX
8
OBJECT062
10
-221.804977
20
-61.462402
30
150.000000
70
192
0
VERTEX
8
OBJECT062
10
-221.804977
20
-4.000000
30
150.000000
70
192
0
VERTEX
8
OBJECT062
10
264.000000
20
-4.000000
30
150.000000
70
192
0
VERTEX
8
OBJECT062
10
264.000000
20
-81.012085
30
136.818237
70
192
0
VERTEX
8
OBJECT062
10
-231.745636
20
-81.012085
30
136.818237
70
192
0
VERTEX
8
OBJECT062
10
-231.747498
20
-4.000000
30
136.818237
70
192
0
VERTEX
8
OBJECT062
10
264.000000
20
-4.000000
30
136.818237
70
192
0
VERTEX
8
OBJECT062
10
0
20
0
30
0
70
128
71
2
72
3
73
-4
0
VERTEX
8
OBJECT062
10
0
20
0
30
0
70
128
71
-2
72
4
73
1
0
VERTEX
8
OBJECT062
10
0
20
0
30
0
70
128
71
6
72
2
73
-1
0
VERTEX
8
OBJECT062
10
0
20
0
30
0
70
128
71
-6
72
1
73
5
0
VERTEX
8
OBJECT062
10
0
20
0
30
0
70
128
71
2
72
6
73
-7
0
VERTEX
8
OBJECT062
10
0
20
0
30
0
70
128
71
-2
72
7
73
3
0
VERTEX
8
OBJECT062
10
0
20
0
30
0
70
128
71
6
72
5
73
-8
0
VERTEX
8
OBJECT062
10
0
20
0
30
0
70
128
71
-6
72
8
73
7
0
VERTEX
8
OBJECT062
10
0
20
0
30
0
70
128
71
5
72
1
73
-4
0
VERTEX
8
OBJECT062
10
0
20
0
30
0
70
128
71
-5
72
4
73
8
0
VERTEX
8
OBJECT062
10
0
20
0
30
0
70
128
71
3
72
7
73
-8
0
VERTEX
8
OBJECT062
10
0
20
0
30
0
70
128
71
-3
72
8
73
4
0
SEQEND
8
OBJECT062
0
POLYLINE
8
OBJECT063
66
1
70
64
71
6
72
8
62
50
0
VERTEX
8
OBJECT063
10
-231.750381
20
-56.164429
30
136.816406
70
192
0
VERTEX
8
OBJECT063
10
-231.750381
20
-79.181396
30
136.816406
70
192
0
VERTEX
8
OBJECT063
10
-253.476089
20
-98.899780
30
108.000000
70
192
0
VERTEX
8
OBJECT063
10
264.000000
20
-79.181396
30
136.818237
70
192
0
VERTEX
8
OBJECT063
10
264.000000
20
-56.161621
30
136.818237
70
192
0
VERTEX
8
OBJECT063
10
264.000000
20
-98.900269
30
108.000000
70
192
0
VERTEX
8
OBJECT063
10
0
20
0
30
0
70
128
71
2
72
3
73
1
0
VERTEX
8
OBJECT063
10
0
20
0
30
0
70
128
71
2
72
1
73
-5
0
VERTEX
8
OBJECT063
10
0
20
0
30
0
70
128
71
-2
72
5
73
4
0
VERTEX
8
OBJECT063
10
0
20
0
30
0
70
128
71
3
72
2
73
-4
0
VERTEX
8
OBJECT063
10
0
20
0
30
0
70
128
71
-3
72
4
73
6
0
VERTEX
8
OBJECT063
10
0
20
0
30
0
70
128
71
1
72
3
73
-6
0
VERTEX
8
OBJECT063
10
0
20
0
30
0
70
128
71
-1
72
6
73
5
0
VERTEX
8
OBJECT063
10
0
20
0
30
0
70
128
71
4
72
5
73
6
0
SEQEND
8
OBJECT063
0
POLYLINE
8
OBJECT064
66
1
70
64
71
10
72
16
62
50
0
VERTEX
8
OBJECT064
10
264.000000
20
-129.302856
30
-68.956299
70
192
0
VERTEX
8
OBJECT064
10
-386.553467
20
-129.636597
30
-68.460754
70
192
0
VERTEX
8
OBJECT064
10
-385.105011
20
-130.967407
30
-66.540466
70
192
0
VERTEX
8
OBJECT064
10
264.000000
20
-130.967407
30
-66.554474
70
192
0
VERTEX
8
OBJECT064
10
-366.859375
20
-130.967407
30
-42.352051
70
192
0
VERTEX
8
OBJECT064
10
-398.000000
20
-107.126709
30
-83.637756
70
192
0
VERTEX
8
OBJECT064
10
-398.000000
20
-102.391479
30
-83.636719
70
192
0
VERTEX
8
OBJECT064
10
-398.000000
20
-98.247070
30
-89.626556
70
192
0
VERTEX
8
OBJECT064
10
264.000000
20
-130.967407
30
-42.659424
70
192
0
VERTEX
8
OBJECT064
10
264.000000
20
-98.306885
30
-89.862610
70
192
0
VERTEX
8
OBJECT064
10
0
20
0
30
0
70
128
71
2
72
3
73
-4
0
VERTEX
8
OBJECT064
10
0
20
0
30
0
70
128
71
-2
72
4
73
1
0
VERTEX
8
OBJECT064
10
0
20
0
30
0
70
128
71
3
72
2
73
-6
0
VERTEX
8
OBJECT064
10
0
20
0
30
0
70
128
71
-3
72
6
73
-7
0
VERTEX
8
OBJECT064
10
0
20
0
30
0
70
128
71
-3
72
7
73
5
0
VERTEX
8
OBJECT064
10
0
20
0
30
0
70
128
71
6
72
8
73
7
0
VERTEX
8
OBJECT064
10
0
20
0
30
0
70
128
71
3
72
5
73
-9
0
VERTEX
8
OBJECT064
10
0
20
0
30
0
70
128
71
-3
72
9
73
4
0
VERTEX
8
OBJECT064
10
0
20
0
30
0
70
128
71
6
72
2
73
-1
0
VERTEX
8
OBJECT064
10
0
20
0
30
0
70
128
71
-6
72
1
73
-10
0
VERTEX
8
OBJECT064
10
0
20
0
30
0
70
128
71
-6
72
10
73
8
0
VERTEX
8
OBJECT064
10
0
20
0
30
0
70
128
71
7
72
8
73
-10
0
VERTEX
8
OBJECT064
10
0
20
0
30
0
70
128
71
-7
72
10
73
-9
0
VERTEX
8
OBJECT064
10
0
20
0
30
0
70
128
71
-7
72
9
73
5
0
VERTEX
8
OBJECT064
10
0
20
0
30
0
70
128
71
1
72
4
73
-9
0
VERTEX
8
OBJECT064
10
0
20
0
30
0
70
128
71
-1
72
9
73
10
0
SEQEND
8
OBJECT064
0
POLYLINE
8
OBJECT065
66
1
70
64
71
8
72
12
62
50
0
VERTEX
8
OBJECT065
10
-6.000000
20
-128.000000
30
-34.000000
70
192
0
VERTEX
8
OBJECT065
10
128.000000
20
-128.000000
30
-34.000000
70
192
0
VERTEX
8
OBJECT065
10
128.000000
20
-228.000000
30
-34.000000
70
192
0
VERTEX
8
OBJECT065
10
-6.000000
20
-228.000000
30
-34.000000
70
192
0
VERTEX
8
OBJECT065
10
-6.000000
20
-228.000000
30
-44.000000
70
192
0
VERTEX
8
OBJECT065
10
128.000000
20
-228.000000
30
-44.000000
70
192
0
VERTEX
8
OBJECT065
10
128.000000
20
-128.000000
30
-44.000000
70
192
0
VERTEX
8
OBJECT065
10
-6.000000
20
-128.000000
30
-44.000000
70
192
0
VERTEX
8
OBJECT065
10
0
20
0
30
0
70
128
71
2
72
3
73
-4
0
VERTEX
8
OBJECT065
10
0
20
0
30
0
70
128
71
-2
72
4
73
1
0
VERTEX
8
OBJECT065
10
0
20
0
30
0
70
128
71
6
72
7
73
-8
0
VERTEX
8
OBJECT065
10
0
20
0
30
0
70
128
71
-6
72
8
73
5
0
VERTEX
8
OBJECT065
10
0
20
0
30
0
70
128
71
4
72
5
73
-8
0
VERTEX
8
OBJECT065
10
0
20
0
30
0
70
128
71
-4
72
8
73
1
0
VERTEX
8
OBJECT065
10
0
20
0
30
0
70
128
71
6
72
3
73
-2
0
VERTEX
8
OBJECT065
10
0
20
0
30
0
70
128
71
-6
72
2
73
7
0
VERTEX
8
OBJECT065
10
0
20
0
30
0
70
128
71
1
72
8
73
-7
0
VERTEX
8
OBJECT065
10
0
20
0
30
0
70
128
71
-1
72
7
73
2
0
VERTEX
8
OBJECT065
10
0
20
0
30
0
70
128
71
5
72
4
73
-3
0
VERTEX
8
OBJECT065
10
0
20
0
30
0
70
128
71
-5
72
3
73
6
0
SEQEND
8
OBJECT065
0
POLYLINE
8
OBJECT066
66
1
70
64
71
12
72
20
62
50
0
VERTEX
8
OBJECT066
10
200.672852
20
-241.032593
30
-39.667419
70
192
0
VERTEX
8
OBJECT066
10
-78.711029
20
-241.032593
30
-39.667419
70
192
0
VERTEX
8
OBJECT066
10
-105.999023
20
-241.032593
30
13.276917
70
192
0
VERTEX
8
OBJECT066
10
-105.392548
20
-241.032593
30
13.833374
70
192
0
VERTEX
8
OBJECT066
10
200.442383
20
-241.032593
30
13.833374
70
192
0
VERTEX
8
OBJECT066
10
226.000000
20
-241.032593
30
-14.600159
70
192
0
VERTEX
8
OBJECT066
10
184.171875
20
-228.000000
30
-55.999023
70
192
0
VERTEX
8
OBJECT066
10
-70.293518
20
-228.000000
30
-55.999023
70
192
0
VERTEX
8
OBJECT066
10
226.000000
20
-228.000000
30
-14.600159
70
192
0
VERTEX
8
OBJECT066
10
200.442383
20
-228.000000
30
13.833374
70
192
0
VERTEX
8
OBJECT066
10
-105.392548
20
-228.000000
30
13.833374
70
192
0
VERTEX
8
OBJECT066
10
-105.998993
20
-228.000000
30
13.276855
70
192
0
VERTEX
8
OBJECT066
10
0
20
0
30
0
70
128
71
2
72
3
73
-4
0
VERTEX
8
OBJECT066
10
0
20
0
30
0
70
128
71
-2
72
4
73
-5
0
VERTEX
8
OBJECT066
10
0
20
0
30
0
70
128
71
-2
72
5
73
-6
0
VERTEX
8
OBJECT066
10
0
20
0
30
0
70
128
71
-2
72
6
73
1
0
VERTEX
8
OBJECT066
10
0
20
0
30
0
70
128
71
8
72
2
73
-1
0
VERTEX
8
OBJECT066
10
0
20
0
30
0
70
128
71
-8
72
1
73
7
0
VERTEX
8
OBJECT066
10
0
20
0
30
0
70
128
71
7
72
9
73
-10
0
VERTEX
8
OBJECT066
10
0
20
0
30
0
70
128
71
-7
72
10
73
-11
0
VERTEX
8
OBJECT066
10
0
20
0
30
0
70
128
71
-7
72
11
73
-12
0
VERTEX
8
OBJECT066
10
0
20
0
30
0
70
128
71
-7
72
12
73
8
0
VERTEX
8
OBJECT066
10
0
20
0
30
0
70
128
71
4
72
11
73
-10
0
VERTEX
8
OBJECT066
10
0
20
0
30
0
70
128
71
-4
72
10
73
5
0
VERTEX
8
OBJECT066
10
0
20
0
30
0
70
128
71
3
72
12
73
-11
0
VERTEX
8
OBJECT066
10
0
20
0
30
0
70
128
71
-3
72
11
73
4
0
VERTEX
8
OBJECT066
10
0
20
0
30
0
70
128
71
2
72
8
73
-12
0
VERTEX
8
OBJECT066
10
0
20
0
30
0
70
128
71
-2
72
12
73
3
0
VERTEX
8
OBJECT066
10
0
20
0
30
0
70
128
71
9
72
6
73
-5
0
VERTEX
8
OBJECT066
10
0
20
0
30
0
70
128
71
-9
72
5
73
10
0
VERTEX
8
OBJECT066
10
0
20
0
30
0
70
128
71
7
72
1
73
-6
0
VERTEX
8
OBJECT066
10
0
20
0
30
0
70
128
71
-7
72
6
73
9
0
SEQEND
8
OBJECT066
0
POLYLINE
8
OBJECT067
66
1
70
64
71
8
72
12
62
50
0
VERTEX
8
OBJECT067
10
200.339844
20
-241.032593
30
13.947510
70
192
0
VERTEX
8
OBJECT067
10
-105.268829
20
-241.032593
30
13.947510
70
192
0
VERTEX
8
OBJECT067
10
-55.707611
20
-241.032593
30
59.494568
70
192
0
VERTEX
8
OBJECT067
10
159.399597
20
-241.032593
30
59.494568
70
192
0
VERTEX
8
OBJECT067
10
-37.750458
20
-228.000000
30
75.999390
70
192
0
VERTEX
8
OBJECT067
10
144.564087
20
-228.000000
30
75.999390
70
192
0
VERTEX
8
OBJECT067
10
-105.268829
20
-228.000000
30
13.947510
70
192
0
VERTEX
8
OBJECT067
10
200.339844
20
-228.000000
30
13.947510
70
192
0
VERTEX
8
OBJECT067
10
0
20
0
30
0
70
128
71
2
72
3
73
-4
0
VERTEX
8
OBJECT067
10
0
20
0
30
0
70
128
71
-2
72
4
73
1
0
VERTEX
8
OBJECT067
10
0
20
0
30
0
70
128
71
3
72
5
73
-6
0
VERTEX
8
OBJECT067
10
0
20
0
30
0
70
128
71
-3
72
6
73
4
0
VERTEX
8
OBJECT067
10
0
20
0
30
0
70
128
71
8
72
6
73
-5
0
VERTEX
8
OBJECT067
10
0
20
0
30
0
70
128
71
-8
72
5
73
7
0
VERTEX
8
OBJECT067
10
0
20
0
30
0
70
128
71
7
72
2
73
-1
0
VERTEX
8
OBJECT067
10
0
20
0
30
0
70
128
71
-7
72
1
73
8
0
VERTEX
8
OBJECT067
10
0
20
0
30
0
70
128
71
3
72
2
73
-7
0
VERTEX
8
OBJECT067
10
0
20
0
30
0
70
128
71
-3
72
7
73
5
0
VERTEX
8
OBJECT067
10
0
20
0
30
0
70
128
71
4
72
6
73
-8
0
VERTEX
8
OBJECT067
10
0
20
0
30
0
70
128
71
-4
72
8
73
1
0
SEQEND
8
OBJECT067
0
POLYLINE
8
OBJECT068
66
1
70
64
71
12
72
20
62
50
0
VERTEX
8
OBJECT068
10
436.000000
20
60.000000
30
-106.001434
70
192
0
VERTEX
8
OBJECT068
10
248.000000
20
60.000000
30
-106.001434
70
192
0
VERTEX
8
OBJECT068
10
248.000000
20
-68.000000
30
-106.001434
70
192
0
VERTEX
8
OBJECT068
10
436.000000
20
-68.000000
30
-106.001434
70
192
0
VERTEX
8
OBJECT068
10
460.000000
20
-44.000000
30
-106.001434
70
192
0
VERTEX
8
OBJECT068
10
460.000000
20
36.000000
30
-106.001434
70
192
0
VERTEX
8
OBJECT068
10
248.000000
20
60.000000
30
-90.001740
70
192
0
VERTEX
8
OBJECT068
10
248.000000
20
-68.000000
30
-90.001740
70
192
0
VERTEX
8
OBJECT068
10
436.000000
20
-68.000000
30
-90.001740
70
192
0
VERTEX
8
OBJECT068
10
436.000000
20
60.000000
30
-90.001740
70
192
0
VERTEX
8
OBJECT068
10
460.000000
20
-44.000000
30
-94.802040
70
192
0
VERTEX
8
OBJECT068
10
460.000000
20
36.000000
30
-94.802040
70
192
0
VERTEX
8
OBJECT068
10
0
20
0
30
0
70
128
71
2
72
3
73
-4
0
VERTEX
8
OBJECT068
10
0
20
0
30
0
70
128
71
-2
72
4
73
-5
0
VERTEX
8
OBJECT068
10
0
20
0
30
0
70
128
71
-2
72
5
73
-6
0
VERTEX
8
OBJECT068
10
0
20
0
30
0
70
128
71
-2
72
6
73
1
0
VERTEX
8
OBJECT068
10
0
20
0
30
0
70
128
71
2
72
7
73
-8
0
VERTEX
8
OBJECT068
10
0
20
0
30
0
70
128
71
-2
72
8
73
3
0
VERTEX
8
OBJECT068
10
0
20
0
30
0
70
128
71
8
72
7
73
-10
0
VERTEX
8
OBJECT068
10
0
20
0
30
0
70
128
71
-8
72
10
73
9
0
VERTEX
8
OBJECT068
10
0
20
0
30
0
70
128
71
3
72
8
73
-9
0
VERTEX
8
OBJECT068
10
0
20
0
30
0
70
128
71
-3
72
9
73
4
0
VERTEX
8
OBJECT068
10
0
20
0
30
0
70
128
71
2
72
1
73
-10
0
VERTEX
8
OBJECT068
10
0
20
0
30
0
70
128
71
-2
72
10
73
7
0
VERTEX
8
OBJECT068
10
0
20
0
30
0
70
128
71
5
72
11
73
-12
0
VERTEX
8
OBJECT068
10
0
20
0
30
0
70
128
71
-5
72
12
73
6
0
VERTEX
8
OBJECT068
10
0
20
0
30
0
70
128
71
4
72
9
73
-11
0
VERTEX
8
OBJECT068
10
0
20
0
30
0
70
128
71
-4
72
11
73
5
0
VERTEX
8
OBJECT068
10
0
20
0
30
0
70
128
71
6
72
12
73
-10
0
VERTEX
8
OBJECT068
10
0
20
0
30
0
70
128
71
-6
72
10
73
1
0
VERTEX
8
OBJECT068
10
0
20
0
30
0
70
128
71
10
72
12
73
-11
0
VERTEX
8
OBJECT068
10
0
20
0
30
0
70
128
71
-10
72
11
73
9
0
SEQEND
8
OBJECT068
0
POLYLINE
8
OBJECT069
66
1
70
64
71
16
72
28
62
50
0
VERTEX
8
OBJECT069
10
-40.000000
20
-68.000000
30
-106.001434
70
192
0
VERTEX
8
OBJECT069
10
-40.000000
20
-74.000000
30
-106.001434
70
192
0
VERTEX
8
OBJECT069
10
-40.000000
20
-98.757690
30
-89.494728
70
192
0
VERTEX
8
OBJECT069
10
-40.000000
20
-132.000000
30
-42.001633
70
192
0
VERTEX
8
OBJECT069
10
-40.000000
20
-132.000000
30
61.997696
70
192
0
VERTEX
8
OBJECT069
10
-40.000000
20
-99.416748
30
109.057831
70
192
0
VERTEX
8
OBJECT069
10
-40.000000
20
-74.000000
30
125.998566
70
192
0
VERTEX
8
OBJECT069
10
-40.000000
20
-68.000000
30
125.998566
70
192
0
VERTEX
8
OBJECT069
10
-56.000000
20
-132.000000
30
-42.001633
70
192
0
VERTEX
8
OBJECT069
10
-56.000000
20
-132.000000
30
61.997696
70
192
0
VERTEX
8
OBJECT069
10
-56.000000
20
-99.415527
30
109.058624
70
192
0
VERTEX
8
OBJECT069
10
-56.000000
20
-74.000000
30
125.998566
70
192
0
VERTEX
8
OBJECT069
10
-56.000000
20
-98.757080
30
-89.495468
70
192
0
VERTEX
8
OBJECT069
10
-56.000000
20
-74.000000
30
-106.001434
70
192
0
VERTEX
8
OBJECT069
10
-56.000000
20
-68.000000
30
125.998566
70
192
0
VERTEX
8
OBJECT069
10
-56.000000
20
-68.000000
30
-106.001434
70
192
0
VERTEX
8
OBJECT069
10
0
20
0
30
0
70
128
71
2
72
3
73
-4
0
VERTEX
8
OBJECT069
10
0
20
0
30
0
70
128
71
-2
72
4
73
-5
0
VERTEX
8
OBJECT069
10
0
20
0
30
0
70
128
71
-2
72
5
73
-6
0
VERTEX
8
OBJECT069
10
0
20
0
30
0
70
128
71
-2
72
6
73
-7
0
VERTEX
8
OBJECT069
10
0
20
0
30
0
70
128
71
-2
72
7
73
-8
0
VERTEX
8
OBJECT069
10
0
20
0
30
0
70
128
71
-2
72
8
73
1
0
VERTEX
8
OBJECT069
10
0
20
0
30
0
70
128
71
4
72
9
73
-10
0
VERTEX
8
OBJECT069
10
0
20
0
30
0
70
128
71
-4
72
10
73
5
0
VERTEX
8
OBJECT069
10
0
20
0
30
0
70
128
71
5
72
10
73
-11
0
VERTEX
8
OBJECT069
10
0
20
0
30
0
70
128
71
-5
72
11
73
6
0
VERTEX
8
OBJECT069
10
0
20
0
30
0
70
128
71
7
72
6
73
-11
0
VERTEX
8
OBJECT069
10
0
20
0
30
0
70
128
71
-7
72
11
73
12
0
VERTEX
8
OBJECT069
10
0
20
0
30
0
70
128
71
3
72
2
73
-14
0
VERTEX
8
OBJECT069
10
0
20
0
30
0
70
128
71
-3
72
14
73
13
0
VERTEX
8
OBJECT069
10
0
20
0
30
0
70
128
71
3
72
13
73
-9
0
VERTEX
8
OBJECT069
10
0
20
0
30
0
70
128
71
-3
72
9
73
4
0
VERTEX
8
OBJECT069
10
0
20
0
30
0
70
128
71
7
72
12
73
-15
0
VERTEX
8
OBJECT069
10
0
20
0
30
0
70
128
71
-7
72
15
73
8
0
VERTEX
8
OBJECT069
10
0
20
0
30
0
70
128
71
14
72
2
73
-1
0
VERTEX
8
OBJECT069
10
0
20
0
30
0
70
128
71
-14
72
1
73
16
0
VERTEX
8
OBJECT069
10
0
20
0
30
0
70
128
71
10
72
9
73
-13
0
VERTEX
8
OBJECT069
10
0
20
0
30
0
70
128
71
-10
72
13
73
-14
0
VERTEX
8
OBJECT069
10
0
20
0
30
0
70
128
71
-10
72
14
73
-16
0
VERTEX
8
OBJECT069
10
0
20
0
30
0
70
128
71
-10
72
16
73
-15
0
VERTEX
8
OBJECT069
10
0
20
0
30
0
70
128
71
-10
72
15
73
-12
0
VERTEX
8
OBJECT069
10
0
20
0
30
0
70
128
71
-10
72
12
73
11
0
VERTEX
8
OBJECT069
10
0
20
0
30
0
70
128
71
1
72
8
73
-15
0
VERTEX
8
OBJECT069
10
0
20
0
30
0
70
128
71
-1
72
15
73
16
0
SEQEND
8
OBJECT069
0
POLYLINE
8
OBJECT070
66
1
70
64
71
16
72
28
62
50
0
VERTEX
8
OBJECT070
10
-40.000000
20
124.000000
30
61.998230
70
192
0
VERTEX
8
OBJECT070
10
-40.000000
20
124.000000
30
-42.001678
70
192
0
VERTEX
8
OBJECT070
10
-40.000000
20
90.415527
30
-92.386513
70
192
0
VERTEX
8
OBJECT070
10
-40.000000
20
70.000000
30
-106.001434
70
192
0
VERTEX
8
OBJECT070
10
-40.000000
20
60.000000
30
-106.001434
70
192
0
VERTEX
8
OBJECT070
10
-40.000000
20
60.000000
30
125.998566
70
192
0
VERTEX
8
OBJECT070
10
-40.000000
20
65.341675
30
125.998566
70
192
0
VERTEX
8
OBJECT070
10
-40.000000
20
96.584961
30
104.369263
70
192
0
VERTEX
8
OBJECT070
10
-56.000000
20
124.000000
30
-42.001678
70
192
0
VERTEX
8
OBJECT070
10
-56.000000
20
124.000000
30
61.998230
70
192
0
VERTEX
8
OBJECT070
10
-56.000000
20
96.586548
30
104.366882
70
192
0
VERTEX
8
OBJECT070
10
-56.000000
20
65.339844
30
125.998566
70
192
0
VERTEX
8
OBJECT070
10
-56.000000
20
90.414063
30
-92.387482
70
192
0
VERTEX
8
OBJECT070
10
-56.000000
20
70.000000
30
-106.001434
70
192
0
VERTEX
8
OBJECT070
10
-56.000000
20
60.000000
30
125.998566
70
192
0
VERTEX
8
OBJECT070
10
-56.000000
20
60.000000
30
-106.001434
70
192
0
VERTEX
8
OBJECT070
10
0
20
0
30
0
70
128
71
2
72
3
73
-4
0
VERTEX
8
OBJECT070
10
0
20
0
30
0
70
128
71
-2
72
4
73
-5
0
VERTEX
8
OBJECT070
10
0
20
0
30
0
70
128
71
-2
72
5
73
-6
0
VERTEX
8
OBJECT070
10
0
20
0
30
0
70
128
71
-2
72
6
73
-7
0
VERTEX
8
OBJECT070
10
0
20
0
30
0
70
128
71
-2
72
7
73
-8
0
VERTEX
8
OBJECT070
10
0
20
0
30
0
70
128
71
-2
72
8
73
1
0
VERTEX
8
OBJECT070
10
0
20
0
30
0
70
128
71
2
72
1
73
-10
0
VERTEX
8
OBJECT070
10
0
20
0
30
0
70
128
71
-2
72
10
73
9
0
VERTEX
8
OBJECT070
10
0
20
0
30
0
70
128
71
8
72
7
73
-12
0
VERTEX
8
OBJECT070
10
0
20
0
30
0
70
128
71
-8
72
12
73
11
0
VERTEX
8
OBJECT070
10
0
20
0
30
0
70
128
71
1
72
8
73
-11
0
VERTEX
8
OBJECT070
10
0
20
0
30
0
70
128
71
-1
72
11
73
10
0
VERTEX
8
OBJECT070
10
0
20
0
30
0
70
128
71
3
72
2
73
-9
0
VERTEX
8
OBJECT070
10
0
20
0
30
0
70
128
71
-3
72
9
73
13
0
VERTEX
8
OBJECT070
10
0
20
0
30
0
70
128
71
4
72
3
73
-13
0
VERTEX
8
OBJECT070
10
0
20
0
30
0
70
128
71
-4
72
13
73
14
0
VERTEX
8
OBJECT070
10
0
20
0
30
0
70
128
71
12
72
7
73
-6
0
VERTEX
8
OBJECT070
10
0
20
0
30
0
70
128
71
-12
72
6
73
15
0
VERTEX
8
OBJECT070
10
0
20
0
30
0
70
128
71
4
72
14
73
-16
0
VERTEX
8
OBJECT070
10
0
20
0
30
0
70
128
71
-4
72
16
73
5
0
VERTEX
8
OBJECT070
10
0
20
0
30
0
70
128
71
14
72
13
73
-9
0
VERTEX
8
OBJECT070
10
0
20
0
30
0
70
128
71
-14
72
9
73
-10
0
VERTEX
8
OBJECT070
10
0
20
0
30
0
70
128
71
-14
72
10
73
-11
0
VERTEX
8
OBJECT070
10
0
20
0
30
0
70
128
71
-14
72
11
73
-12
0
VERTEX
8
OBJECT070
10
0
20
0
30
0
70
128
71
-14
72
12
73
-15
0
VERTEX
8
OBJECT070
10
0
20
0
30
0
70
128
71
-14
72
15
73
16
0
VERTEX
8
OBJECT070
10
0
20
0
30
0
70
128
71
5
72
16
73
-15
0
VERTEX
8
OBJECT070
10
0
20
0
30
0
70
128
71
-5
72
15
73
6
0
SEQEND
8
OBJECT070
0
POLYLINE
8
OBJECT071
66
1
70
64
71
6
72
8
62
50
0
VERTEX
8
OBJECT071
10
264.000000
20
-68.000000
30
81.998291
70
192
0
VERTEX
8
OBJECT071
10
264.000000
20
-68.000000
30
106.000000
70
192
0
VERTEX
8
OBJECT071
10
264.000000
20
-44.000000
30
106.000000
70
192
0
VERTEX
8
OBJECT071
10
248.000000
20
-68.000000
30
106.000000
70
192
0
VERTEX
8
OBJECT071
10
248.000000
20
-68.000000
30
81.998291
70
192
0
VERTEX
8
OBJECT071
10
248.000000
20
-44.000000
30
106.000000
70
192
0
VERTEX
8
OBJECT071
10
0
20
0
30
0
70
128
71
2
72
3
73
1
0
VERTEX
8
OBJECT071
10
0
20
0
30
0
70
128
71
5
72
6
73
4
0
VERTEX
8
OBJECT071
10
0
20
0
30
0
70
128
71
1
72
5
73
-4
0
VERTEX
8
OBJECT071
10
0
20
0
30
0
70
128
71
-1
72
4
73
2
0
VERTEX
8
OBJECT071
10
0
20
0
30
0
70
128
71
6
72
3
73
-2
0
VERTEX
8
OBJECT071
10
0
20
0
30
0
70
128
71
-6
72
2
73
4
0
VERTEX
8
OBJECT071
10
0
20
0
30
0
70
128
71
5
72
1
73
-3
0
VERTEX
8
OBJECT071
10
0
20
0
30
0
70
128
71
-5
72
3
73
6
0
SEQEND
8
OBJECT071
0
POLYLINE
8
OBJECT072
66
1
70
64
71
16
72
28
62
50
0
VERTEX
8
OBJECT072
10
264.000000
20
-68.000000
30
-106.001434
70
192
0
VERTEX
8
OBJECT072
10
264.000000
20
-74.000000
30
-106.001434
70
192
0
VERTEX
8
OBJECT072
10
264.000000
20
-98.757690
30
-89.494728
70
192
0
VERTEX
8
OBJECT072
10
264.000000
20
-132.000000
30
-42.001633
70
192
0
VERTEX
8
OBJECT072
10
264.000000
20
-132.000000
30
61.997696
70
192
0
VERTEX
8
OBJECT072
10
264.000000
20
-99.416748
30
109.057831
70
192
0
VERTEX
8
OBJECT072
10
264.000000
20
-74.000000
30
125.998566
70
192
0
VERTEX
8
OBJECT072
10
264.000000
20
-68.000000
30
125.998566
70
192
0
VERTEX
8
OBJECT072
10
248.000000
20
-132.000000
30
-42.001633
70
192
0
VERTEX
8
OBJECT072
10
248.000000
20
-132.000000
30
61.997696
70
192
0
VERTEX
8
OBJECT072
10
248.000000
20
-99.415527
30
109.058624
70
192
0
VERTEX
8
OBJECT072
10
248.000000
20
-74.000000
30
125.998566
70
192
0
VERTEX
8
OBJECT072
10
248.000000
20
-98.757080
30
-89.495468
70
192
0
VERTEX
8
OBJECT072
10
248.000000
20
-74.000000
30
-106.001434
70
192
0
VERTEX
8
OBJECT072
10
248.000000
20
-68.000000
30
125.998566
70
192
0
VERTEX
8
OBJECT072
10
248.000000
20
-68.000000
30
-106.001434
70
192
0
VERTEX
8
OBJECT072
10
0
20
0
30
0
70
128
71
2
72
3
73
-4
0
VERTEX
8
OBJECT072
10
0
20
0
30
0
70
128
71
-2
72
4
73
-5
0
VERTEX
8
OBJECT072
10
0
20
0
30
0
70
128
71
-2
72
5
73
-6
0
VERTEX
8
OBJECT072
10
0
20
0
30
0
70
128
71
-2
72
6
73
-7
0
VERTEX
8
OBJECT072
10
0
20
0
30
0
70
128
71
-2
72
7
73
-8
0
VERTEX
8
OBJECT072
10
0
20
0
30
0
70
128
71
-2
72
8
73
1
0
VERTEX
8
OBJECT072
10
0
20
0
30
0
70
128
71
4
72
9
73
-10
0
VERTEX
8
OBJECT072
10
0
20
0
30
0
70
128
71
-4
72
10
73
5
0
VERTEX
8
OBJECT072
10
0
20
0
30
0
70
128
71
5
72
10
73
-11
0
VERTEX
8
OBJECT072
10
0
20
0
30
0
70
128
71
-5
72
11
73
6
0
VERTEX
8
OBJECT072
10
0
20
0
30
0
70
128
71
7
72
6
73
-11
0
VERTEX
8
OBJECT072
10
0
20
0
30
0
70
128
71
-7
72
11
73
12
0
VERTEX
8
OBJECT072
10
0
20
0
30
0
70
128
71
3
72
2
73
-14
0
VERTEX
8
OBJECT072
10
0
20
0
30
0
70
128
71
-3
72
14
73
13
0
VERTEX
8
OBJECT072
10
0
20
0
30
0
70
128
71
3
72
13
73
-9
0
VERTEX
8
OBJECT072
10
0
20
0
30
0
70
128
71
-3
72
9
73
4
0
VERTEX
8
OBJECT072
10
0
20
0
30
0
70
128
71
7
72
12
73
-15
0
VERTEX
8
OBJECT072
10
0
20
0
30
0
70
128
71
-7
72
15
73
8
0
VERTEX
8
OBJECT072
10
0
20
0
30
0
70
128
71
14
72
2
73
-1
0
VERTEX
8
OBJECT072
10
0
20
0
30
0
70
128
71
-14
72
1
73
16
0
VERTEX
8
OBJECT072
10
0
20
0
30
0
70
128
71
10
72
9
73
-13
0
VERTEX
8
OBJECT072
10
0
20
0
30
0
70
128
71
-10
72
13
73
-14
0
VERTEX
8
OBJECT072
10
0
20
0
30
0
70
128
71
-10
72
14
73
-16
0
VERTEX
8
OBJECT072
10
0
20
0
30
0
70
128
71
-10
72
16
73
-15
0
VERTEX
8
OBJECT072
10
0
20
0
30
0
70
128
71
-10
72
15
73
-12
0
VERTEX
8
OBJECT072
10
0
20
0
30
0
70
128
71
-10
72
12
73
11
0
VERTEX
8
OBJECT072
10
0
20
0
30
0
70
128
71
1
72
8
73
-15
0
VERTEX
8
OBJECT072
10
0
20
0
30
0
70
128
71
-1
72
15
73
16
0
SEQEND
8
OBJECT072
0
POLYLINE
8
OBJECT073
66
1
70
64
71
8
72
12
62
50
0
VERTEX
8
OBJECT073
10
264.000000
20
-68.000000
30
105.998566
70
192
0
VERTEX
8
OBJECT073
10
264.000000
20
-68.000000
30
126.000000
70
192
0
VERTEX
8
OBJECT073
10
264.000000
20
60.000000
30
126.000000
70
192
0
VERTEX
8
OBJECT073
10
264.000000
20
60.000000
30
105.998566
70
192
0
VERTEX
8
OBJECT073
10
248.000000
20
-68.000000
30
125.998566
70
192
0
VERTEX
8
OBJECT073
10
248.000000
20
60.000000
30
125.998566
70
192
0
VERTEX
8
OBJECT073
10
248.000000
20
60.000000
30
105.998566
70
192
0
VERTEX
8
OBJECT073
10
248.000000
20
-68.000000
30
105.998566
70
192
0
VERTEX
8
OBJECT073
10
0
20
0
30
0
70
128
71
2
72
3
73
-4
0
VERTEX
8
OBJECT073
10
0
20
0
30
0
70
128
71
-2
72
4
73
1
0
VERTEX
8
OBJECT073
10
0
20
0
30
0
70
128
71
6
72
3
73
-2
0
VERTEX
8
OBJECT073
10
0
20
0
30
0
70
128
71
-6
72
2
73
5
0
VERTEX
8
OBJECT073
10
0
20
0
30
0
70
128
71
6
72
5
73
-8
0
VERTEX
8
OBJECT073
10
0
20
0
30
0
70
128
71
-6
72
8
73
7
0
VERTEX
8
OBJECT073
10
0
20
0
30
0
70
128
71
1
72
8
73
-5
0
VERTEX
8
OBJECT073
10
0
20
0
30
0
70
128
71
-1
72
5
73
2
0
VERTEX
8
OBJECT073
10
0
20
0
30
0
70
128
71
3
72
6
73
-7
0
VERTEX
8
OBJECT073
10
0
20
0
30
0
70
128
71
-3
72
7
73
4
0
VERTEX
8
OBJECT073
10
0
20
0
30
0
70
128
71
8
72
1
73
-4
0
VERTEX
8
OBJECT073
10
0
20
0
30
0
70
128
71
-8
72
4
73
7
0
SEQEND
8
OBJECT073
0
POLYLINE
8
OBJECT074
66
1
70
64
71
16
72
28
62
50
0
VERTEX
8
OBJECT074
10
264.000000
20
124.000000
30
61.998230
70
192
0
VERTEX
8
OBJECT074
10
264.000000
20
124.000000
30
-42.001678
70
192
0
VERTEX
8
OBJECT074
10
264.000000
20
90.415527
30
-92.386513
70
192
0
VERTEX
8
OBJECT074
10
264.000000
20
70.000000
30
-106.001434
70
192
0
VERTEX
8
OBJECT074
10
264.000000
20
60.000000
30
-106.001434
70
192
0
VERTEX
8
OBJECT074
10
264.000000
20
60.000000
30
125.998566
70
192
0
VERTEX
8
OBJECT074
10
264.000000
20
65.341675
30
125.998566
70
192
0
VERTEX
8
OBJECT074
10
264.000000
20
96.584961
30
104.369263
70
192
0
VERTEX
8
OBJECT074
10
248.000000
20
124.000000
30
-42.001678
70
192
0
VERTEX
8
OBJECT074
10
248.000000
20
124.000000
30
61.998230
70
192
0
VERTEX
8
OBJECT074
10
248.000000
20
96.586548
30
104.366882
70
192
0
VERTEX
8
OBJECT074
10
248.000000
20
65.339844
30
125.998566
70
192
0
VERTEX
8
OBJECT074
10
248.000000
20
90.414063
30
-92.387482
70
192
0
VERTEX
8
OBJECT074
10
248.000000
20
70.000000
30
-106.001434
70
192
0
VERTEX
8
OBJECT074
10
248.000000
20
60.000000
30
125.998566
70
192
0
VERTEX
8
OBJECT074
10
248.000000
20
60.000000
30
-106.001434
70
192
0
VERTEX
8
OBJECT074
10
0
20
0
30
0
70
128
71
2
72
3
73
-4
0
VERTEX
8
OBJECT074
10
0
20
0
30
0
70
128
71
-2
72
4
73
-5
0
VERTEX
8
OBJECT074
10
0
20
0
30
0
70
128
71
-2
72
5
73
-6
0
VERTEX
8
OBJECT074
10
0
20
0
30
0
70
128
71
-2
72
6
73
-7
0
VERTEX
8
OBJECT074
10
0
20
0
30
0
70
128
71
-2
72
7
73
-8
0
VERTEX
8
OBJECT074
10
0
20
0
30
0
70
128
71
-2
72
8
73
1
0
VERTEX
8
OBJECT074
10
0
20
0
30
0
70
128
71
2
72
1
73
-10
0
VERTEX
8
OBJECT074
10
0
20
0
30
0
70
128
71
-2
72
10
73
9
0
VERTEX
8
OBJECT074
10
0
20
0
30
0
70
128
71
8
72
7
73
-12
0
VERTEX
8
OBJECT074
10
0
20
0
30
0
70
128
71
-8
72
12
73
11
0
VERTEX
8
OBJECT074
10
0
20
0
30
0
70
128
71
1
72
8
73
-11
0
VERTEX
8
OBJECT074
10
0
20
0
30
0
70
128
71
-1
72
11
73
10
0
VERTEX
8
OBJECT074
10
0
20
0
30
0
70
128
71
3
72
2
73
-9
0
VERTEX
8
OBJECT074
10
0
20
0
30
0
70
128
71
-3
72
9
73
13
0
VERTEX
8
OBJECT074
10
0
20
0
30
0
70
128
71
4
72
3
73
-13
0
VERTEX
8
OBJECT074
10
0
20
0
30
0
70
128
71
-4
72
13
73
14
0
VERTEX
8
OBJECT074
10
0
20
0
30
0
70
128
71
12
72
7
73
-6
0
VERTEX
8
OBJECT074
10
0
20
0
30
0
70
128
71
-12
72
6
73
15
0
VERTEX
8
OBJECT074
10
0
20
0
30
0
70
128
71
4
72
14
73
-16
0
VERTEX
8
OBJECT074
10
0
20
0
30
0
70
128
71
-4
72
16
73
5
0
VERTEX
8
OBJECT074
10
0
20
0
30
0
70
128
71
14
72
13
73
-9
0
VERTEX
8
OBJECT074
10
0
20
0
30
0
70
128
71
-14
72
9
73
-10
0
VERTEX
8
OBJECT074
10
0
20
0
30
0
70
128
71
-14
72
10
73
-11
0
VERTEX
8
OBJECT074
10
0
20
0
30
0
70
128
71
-14
72
11
73
-12
0
VERTEX
8
OBJECT074
10
0
20
0
30
0
70
128
71
-14
72
12
73
-15
0
VERTEX
8
OBJECT074
10
0
20
0
30
0
70
128
71
-14
72
15
73
16
0
VERTEX
8
OBJECT074
10
0
20
0
30
0
70
128
71
5
72
16
73
-15
0
VERTEX
8
OBJECT074
10
0
20
0
30
0
70
128
71
-5
72
15
73
6
0
SEQEND
8
OBJECT074
0
POLYLINE
8
OBJECT075
66
1
70
64
71
6
72
8
62
50
0
VERTEX
8
OBJECT075
10
264.000000
20
60.000000
30
106.000000
70
192
0
VERTEX
8
OBJECT075
10
264.000000
20
60.000000
30
81.998322
70
192
0
VERTEX
8
OBJECT075
10
264.000000
20
36.000000
30
106.000000
70
192
0
VERTEX
8
OBJECT075
10
248.000000
20
60.000000
30
81.998322
70
192
0
VERTEX
8
OBJECT075
10
248.000000
20
60.000000
30
106.000000
70
192
0
VERTEX
8
OBJECT075
10
248.000000
20
36.000000
30
106.000000
70
192
0
VERTEX
8
OBJECT075
10
0
20
0
30
0
70
128
71
2
72
3
73
1
0
VERTEX
8
OBJECT075
10
0
20
0
30
0
70
128
71
5
72
6
73
4
0
VERTEX
8
OBJECT075
10
0
20
0
30
0
70
128
71
4
72
2
73
-1
0
VERTEX
8
OBJECT075
10
0
20
0
30
0
70
128
71
-4
72
1
73
5
0
VERTEX
8
OBJECT075
10
0
20
0
30
0
70
128
71
5
72
1
73
-3
0
VERTEX
8
OBJECT075
10
0
20
0
30
0
70
128
71
-5
72
3
73
6
0
VERTEX
8
OBJECT075
10
0
20
0
30
0
70
128
71
2
72
4
73
-6
0
VERTEX
8
OBJECT075
10
0
20
0
30
0
70
128
71
-2
72
6
73
3
0
SEQEND
8
OBJECT075
0
ENDSEC
0
EOF
