0
SECTION
2
HEADER
9
$ACADVER
1
AC1008
9
$UCSORG
10
0.0
20
0.0
30
0.0
9
$UCSXDIR
10
1.0
20
0.0
30
0.0
9
$TILEMODE
70
1
9
$UCSYDIR
10
0.0
20
1.0
30
0.0
9
$EXTMIN
10
-512.000000
20
-512.000000
30
-256.000000
9
$EXTMAX
10
256.000000
20
512.000000
30
224.000000
0
ENDSEC
0
SECTION
2
TABLES
0
TABLE
2
LTYPE
70
1
0
LTYPE
2
CONTINUOUS
70
64
3
Solid line
72
65
73
0
40
0.0
0
ENDTAB
0
TABLE
2
LAYER
70
1
0
LAYER
2
0
70
0
62
7
6
CONTINUOUS
0
ENDTAB
0
TABLE
2
STYLE
70
1
0
STYLE
2
STANDARD
70
0
40
0.0
41
1.0
50
0.0
71
0
42
0.2
3
txt
4

0
ENDTAB
0
TABLE
2
UCS
70
0
0
ENDTAB
0
ENDSEC
0
SECTION
2
ENTITIES
0
POLYLINE
8
OBJECT000
66
1
70
64
71
8
72
12
62
50
0
VERTEX
8
OBJECT000
10
-512.000000
20
-488.000000
30
-240.000000
70
192
0
VERTEX
8
OBJECT000
10
-512.000000
20
512.000000
30
-240.000000
70
192
0
VERTEX
8
OBJECT000
10
256.000000
20
512.000000
30
-240.000000
70
192
0
VERTEX
8
OBJECT000
10
256.000000
20
-488.000000
30
-240.000000
70
192
0
VERTEX
8
OBJECT000
10
-512.000000
20
512.000000
30
-256.000000
70
192
0
VERTEX
8
OBJECT000
10
-512.000000
20
-488.000000
30
-256.000000
70
192
0
VERTEX
8
OBJECT000
10
256.000000
20
-488.000000
30
-256.000000
70
192
0
VERTEX
8
OBJECT000
10
256.000000
20
512.000000
30
-256.000000
70
192
0
VERTEX
8
OBJECT000
10
0
20
0
30
0
70
128
71
2
72
3
73
-4
0
VERTEX
8
OBJECT000
10
0
20
0
30
0
70
128
71
-2
72
4
73
1
0
VERTEX
8
OBJECT000
10
0
20
0
30
0
70
128
71
6
72
7
73
-8
0
VERTEX
8
OBJECT000
10
0
20
0
30
0
70
128
71
-6
72
8
73
5
0
VERTEX
8
OBJECT000
10
0
20
0
30
0
70
128
71
5
72
2
73
-1
0
VERTEX
8
OBJECT000
10
0
20
0
30
0
70
128
71
-5
72
1
73
6
0
VERTEX
8
OBJECT000
10
0
20
0
30
0
70
128
71
7
72
4
73
-3
0
VERTEX
8
OBJECT000
10
0
20
0
30
0
70
128
71
-7
72
3
73
8
0
VERTEX
8
OBJECT000
10
0
20
0
30
0
70
128
71
8
72
3
73
-2
0
VERTEX
8
OBJECT000
10
0
20
0
30
0
70
128
71
-8
72
2
73
5
0
VERTEX
8
OBJECT000
10
0
20
0
30
0
70
128
71
6
72
1
73
-4
0
VERTEX
8
OBJECT000
10
0
20
0
30
0
70
128
71
-6
72
4
73
7
0
SEQEND
8
OBJECT000
0
POLYLINE
8
OBJECT001
66
1
70
64
71
8
72
12
62
50
0
VERTEX
8
OBJECT001
10
208.000000
20
-512.000000
30
-16.000000
70
192
0
VERTEX
8
OBJECT001
10
208.000000
20
-512.000000
30
-240.000000
70
192
0
VERTEX
8
OBJECT001
10
208.000000
20
512.000000
30
-240.000000
70
192
0
VERTEX
8
OBJECT001
10
208.000000
20
512.000000
30
-16.000000
70
192
0
VERTEX
8
OBJECT001
10
256.000000
20
512.000000
30
-240.000000
70
192
0
VERTEX
8
OBJECT001
10
256.000000
20
512.000000
30
-16.000000
70
192
0
VERTEX
8
OBJECT001
10
256.000000
20
-512.000000
30
-240.000000
70
192
0
VERTEX
8
OBJECT001
10
256.000000
20
-512.000000
30
-16.000000
70
192
0
VERTEX
8
OBJECT001
10
0
20
0
30
0
70
128
71
2
72
3
73
-4
0
VERTEX
8
OBJECT001
10
0
20
0
30
0
70
128
71
-2
72
4
73
1
0
VERTEX
8
OBJECT001
10
0
20
0
30
0
70
128
71
3
72
5
73
-6
0
VERTEX
8
OBJECT001
10
0
20
0
30
0
70
128
71
-3
72
6
73
4
0
VERTEX
8
OBJECT001
10
0
20
0
30
0
70
128
71
2
72
1
73
-8
0
VERTEX
8
OBJECT001
10
0
20
0
30
0
70
128
71
-2
72
8
73
7
0
VERTEX
8
OBJECT001
10
0
20
0
30
0
70
128
71
1
72
4
73
-6
0
VERTEX
8
OBJECT001
10
0
20
0
30
0
70
128
71
-1
72
6
73
8
0
VERTEX
8
OBJECT001
10
0
20
0
30
0
70
128
71
3
72
2
73
-7
0
VERTEX
8
OBJECT001
10
0
20
0
30
0
70
128
71
-3
72
7
73
5
0
VERTEX
8
OBJECT001
10
0
20
0
30
0
70
128
71
5
72
7
73
-8
0
VERTEX
8
OBJECT001
10
0
20
0
30
0
70
128
71
-5
72
8
73
6
0
SEQEND
8
OBJECT001
0
POLYLINE
8
OBJECT002
66
1
70
64
71
8
72
12
62
50
0
VERTEX
8
OBJECT002
10
208.000000
20
-512.000000
30
208.000000
70
192
0
VERTEX
8
OBJECT002
10
208.000000
20
-512.000000
30
-16.000000
70
192
0
VERTEX
8
OBJECT002
10
208.000000
20
512.000000
30
-16.000000
70
192
0
VERTEX
8
OBJECT002
10
208.000000
20
512.000000
30
208.000000
70
192
0
VERTEX
8
OBJECT002
10
256.000000
20
512.000000
30
-16.000000
70
192
0
VERTEX
8
OBJECT002
10
256.000000
20
512.000000
30
208.000000
70
192
0
VERTEX
8
OBJECT002
10
256.000000
20
-512.000000
30
-16.000000
70
192
0
VERTEX
8
OBJECT002
10
256.000000
20
-512.000000
30
208.000000
70
192
0
VERTEX
8
OBJECT002
10
0
20
0
30
0
70
128
71
2
72
3
73
-4
0
VERTEX
8
OBJECT002
10
0
20
0
30
0
70
128
71
-2
72
4
73
1
0
VERTEX
8
OBJECT002
10
0
20
0
30
0
70
128
71
3
72
5
73
-6
0
VERTEX
8
OBJECT002
10
0
20
0
30
0
70
128
71
-3
72
6
73
4
0
VERTEX
8
OBJECT002
10
0
20
0
30
0
70
128
71
2
72
1
73
-8
0
VERTEX
8
OBJECT002
10
0
20
0
30
0
70
128
71
-2
72
8
73
7
0
VERTEX
8
OBJECT002
10
0
20
0
30
0
70
128
71
1
72
4
73
-6
0
VERTEX
8
OBJECT002
10
0
20
0
30
0
70
128
71
-1
72
6
73
8
0
VERTEX
8
OBJECT002
10
0
20
0
30
0
70
128
71
3
72
2
73
-7
0
VERTEX
8
OBJECT002
10
0
20
0
30
0
70
128
71
-3
72
7
73
5
0
VERTEX
8
OBJECT002
10
0
20
0
30
0
70
128
71
5
72
7
73
-8
0
VERTEX
8
OBJECT002
10
0
20
0
30
0
70
128
71
-5
72
8
73
6
0
SEQEND
8
OBJECT002
0
POLYLINE
8
OBJECT003
66
1
70
64
71
8
72
12
62
50
0
VERTEX
8
OBJECT003
10
-512.000000
20
-488.000000
30
224.000000
70
192
0
VERTEX
8
OBJECT003
10
-512.000000
20
512.000000
30
224.000000
70
192
0
VERTEX
8
OBJECT003
10
256.000000
20
512.000000
30
224.000000
70
192
0
VERTEX
8
OBJECT003
10
256.000000
20
-488.000000
30
224.000000
70
192
0
VERTEX
8
OBJECT003
10
-512.000000
20
512.000000
30
208.000000
70
192
0
VERTEX
8
OBJECT003
10
-512.000000
20
-488.000000
30
208.000000
70
192
0
VERTEX
8
OBJECT003
10
256.000000
20
-488.000000
30
208.000000
70
192
0
VERTEX
8
OBJECT003
10
256.000000
20
512.000000
30
208.000000
70
192
0
VERTEX
8
OBJECT003
10
0
20
0
30
0
70
128
71
2
72
3
73
-4
0
VERTEX
8
OBJECT003
10
0
20
0
30
0
70
128
71
-2
72
4
73
1
0
VERTEX
8
OBJECT003
10
0
20
0
30
0
70
128
71
6
72
7
73
-8
0
VERTEX
8
OBJECT003
10
0
20
0
30
0
70
128
71
-6
72
8
73
5
0
VERTEX
8
OBJECT003
10
0
20
0
30
0
70
128
71
5
72
2
73
-1
0
VERTEX
8
OBJECT003
10
0
20
0
30
0
70
128
71
-5
72
1
73
6
0
VERTEX
8
OBJECT003
10
0
20
0
30
0
70
128
71
7
72
4
73
-3
0
VERTEX
8
OBJECT003
10
0
20
0
30
0
70
128
71
-7
72
3
73
8
0
VERTEX
8
OBJECT003
10
0
20
0
30
0
70
128
71
8
72
3
73
-2
0
VERTEX
8
OBJECT003
10
0
20
0
30
0
70
128
71
-8
72
2
73
5
0
VERTEX
8
OBJECT003
10
0
20
0
30
0
70
128
71
6
72
1
73
-4
0
VERTEX
8
OBJECT003
10
0
20
0
30
0
70
128
71
-6
72
4
73
7
0
SEQEND
8
OBJECT003
0
POLYLINE
8
OBJECT004
66
1
70
64
71
8
72
12
62
50
0
VERTEX
8
OBJECT004
10
-512.000000
20
-512.000000
30
208.000000
70
192
0
VERTEX
8
OBJECT004
10
-512.000000
20
-512.000000
30
-16.000000
70
192
0
VERTEX
8
OBJECT004
10
-512.000000
20
512.000000
30
-16.000000
70
192
0
VERTEX
8
OBJECT004
10
-512.000000
20
512.000000
30
208.000000
70
192
0
VERTEX
8
OBJECT004
10
-464.000000
20
512.000000
30
-16.000000
70
192
0
VERTEX
8
OBJECT004
10
-464.000000
20
512.000000
30
208.000000
70
192
0
VERTEX
8
OBJECT004
10
-464.000000
20
-512.000000
30
-16.000000
70
192
0
VERTEX
8
OBJECT004
10
-464.000000
20
-512.000000
30
208.000000
70
192
0
VERTEX
8
OBJECT004
10
0
20
0
30
0
70
128
71
2
72
3
73
-4
0
VERTEX
8
OBJECT004
10
0
20
0
30
0
70
128
71
-2
72
4
73
1
0
VERTEX
8
OBJECT004
10
0
20
0
30
0
70
128
71
3
72
5
73
-6
0
VERTEX
8
OBJECT004
10
0
20
0
30
0
70
128
71
-3
72
6
73
4
0
VERTEX
8
OBJECT004
10
0
20
0
30
0
70
128
71
2
72
1
73
-8
0
VERTEX
8
OBJECT004
10
0
20
0
30
0
70
128
71
-2
72
8
73
7
0
VERTEX
8
OBJECT004
10
0
20
0
30
0
70
128
71
1
72
4
73
-6
0
VERTEX
8
OBJECT004
10
0
20
0
30
0
70
128
71
-1
72
6
73
8
0
VERTEX
8
OBJECT004
10
0
20
0
30
0
70
128
71
3
72
2
73
-7
0
VERTEX
8
OBJECT004
10
0
20
0
30
0
70
128
71
-3
72
7
73
5
0
VERTEX
8
OBJECT004
10
0
20
0
30
0
70
128
71
5
72
7
73
-8
0
VERTEX
8
OBJECT004
10
0
20
0
30
0
70
128
71
-5
72
8
73
6
0
SEQEND
8
OBJECT004
0
POLYLINE
8
OBJECT005
66
1
70
64
71
8
72
12
62
50
0
VERTEX
8
OBJECT005
10
-512.000000
20
-512.000000
30
-16.000000
70
192
0
VERTEX
8
OBJECT005
10
-512.000000
20
-512.000000
30
-240.000000
70
192
0
VERTEX
8
OBJECT005
10
-512.000000
20
512.000000
30
-240.000000
70
192
0
VERTEX
8
OBJECT005
10
-512.000000
20
512.000000
30
-16.000000
70
192
0
VERTEX
8
OBJECT005
10
-464.000000
20
512.000000
30
-240.000000
70
192
0
VERTEX
8
OBJECT005
10
-464.000000
20
512.000000
30
-16.000000
70
192
0
VERTEX
8
OBJECT005
10
-464.000000
20
-512.000000
30
-240.000000
70
192
0
VERTEX
8
OBJECT005
10
-464.000000
20
-512.000000
30
-16.000000
70
192
0
VERTEX
8
OBJECT005
10
0
20
0
30
0
70
128
71
2
72
3
73
-4
0
VERTEX
8
OBJECT005
10
0
20
0
30
0
70
128
71
-2
72
4
73
1
0
VERTEX
8
OBJECT005
10
0
20
0
30
0
70
128
71
3
72
5
73
-6
0
VERTEX
8
OBJECT005
10
0
20
0
30
0
70
128
71
-3
72
6
73
4
0
VERTEX
8
OBJECT005
10
0
20
0
30
0
70
128
71
2
72
1
73
-8
0
VERTEX
8
OBJECT005
10
0
20
0
30
0
70
128
71
-2
72
8
73
7
0
VERTEX
8
OBJECT005
10
0
20
0
30
0
70
128
71
1
72
4
73
-6
0
VERTEX
8
OBJECT005
10
0
20
0
30
0
70
128
71
-1
72
6
73
8
0
VERTEX
8
OBJECT005
10
0
20
0
30
0
70
128
71
3
72
2
73
-7
0
VERTEX
8
OBJECT005
10
0
20
0
30
0
70
128
71
-3
72
7
73
5
0
VERTEX
8
OBJECT005
10
0
20
0
30
0
70
128
71
5
72
7
73
-8
0
VERTEX
8
OBJECT005
10
0
20
0
30
0
70
128
71
-5
72
8
73
6
0
SEQEND
8
OBJECT005
0
POLYLINE
8
OBJECT006
66
1
70
64
71
8
72
12
62
50
0
VERTEX
8
OBJECT006
10
-16.000000
20
0.000000
30
-48.000000
70
192
0
VERTEX
8
OBJECT006
10
-16.000000
20
16.000000
30
-48.000000
70
192
0
VERTEX
8
OBJECT006
10
80.000000
20
16.000000
30
-48.000000
70
192
0
VERTEX
8
OBJECT006
10
80.000000
20
0.000000
30
-48.000000
70
192
0
VERTEX
8
OBJECT006
10
-16.000000
20
16.000000
30
-240.000000
70
192
0
VERTEX
8
OBJECT006
10
-16.000000
20
0.000000
30
-240.000000
70
192
0
VERTEX
8
OBJECT006
10
80.000000
20
0.000000
30
-240.000000
70
192
0
VERTEX
8
OBJECT006
10
80.000000
20
16.000000
30
-240.000000
70
192
0
VERTEX
8
OBJECT006
10
0
20
0
30
0
70
128
71
2
72
3
73
-4
0
VERTEX
8
OBJECT006
10
0
20
0
30
0
70
128
71
-2
72
4
73
1
0
VERTEX
8
OBJECT006
10
0
20
0
30
0
70
128
71
6
72
7
73
-8
0
VERTEX
8
OBJECT006
10
0
20
0
30
0
70
128
71
-6
72
8
73
5
0
VERTEX
8
OBJECT006
10
0
20
0
30
0
70
128
71
5
72
2
73
-1
0
VERTEX
8
OBJECT006
10
0
20
0
30
0
70
128
71
-5
72
1
73
6
0
VERTEX
8
OBJECT006
10
0
20
0
30
0
70
128
71
7
72
4
73
-3
0
VERTEX
8
OBJECT006
10
0
20
0
30
0
70
128
71
-7
72
3
73
8
0
VERTEX
8
OBJECT006
10
0
20
0
30
0
70
128
71
8
72
3
73
-2
0
VERTEX
8
OBJECT006
10
0
20
0
30
0
70
128
71
-8
72
2
73
5
0
VERTEX
8
OBJECT006
10
0
20
0
30
0
70
128
71
6
72
1
73
-4
0
VERTEX
8
OBJECT006
10
0
20
0
30
0
70
128
71
-6
72
4
73
7
0
SEQEND
8
OBJECT006
0
POLYLINE
8
OBJECT007
66
1
70
64
71
8
72
12
62
50
0
VERTEX
8
OBJECT007
10
-48.000000
20
-288.000000
30
-48.000000
70
192
0
VERTEX
8
OBJECT007
10
-48.000000
20
0.000000
30
-48.000000
70
192
0
VERTEX
8
OBJECT007
10
-32.000000
20
0.000000
30
-48.000000
70
192
0
VERTEX
8
OBJECT007
10
-32.000000
20
-288.000000
30
-48.000000
70
192
0
VERTEX
8
OBJECT007
10
-48.000000
20
0.000000
30
-240.000000
70
192
0
VERTEX
8
OBJECT007
10
-48.000000
20
-288.000000
30
-240.000000
70
192
0
VERTEX
8
OBJECT007
10
-32.000000
20
-288.000000
30
-240.000000
70
192
0
VERTEX
8
OBJECT007
10
-32.000000
20
0.000000
30
-240.000000
70
192
0
VERTEX
8
OBJECT007
10
0
20
0
30
0
70
128
71
2
72
3
73
-4
0
VERTEX
8
OBJECT007
10
0
20
0
30
0
70
128
71
-2
72
4
73
1
0
VERTEX
8
OBJECT007
10
0
20
0
30
0
70
128
71
6
72
7
73
-8
0
VERTEX
8
OBJECT007
10
0
20
0
30
0
70
128
71
-6
72
8
73
5
0
VERTEX
8
OBJECT007
10
0
20
0
30
0
70
128
71
5
72
2
73
-1
0
VERTEX
8
OBJECT007
10
0
20
0
30
0
70
128
71
-5
72
1
73
6
0
VERTEX
8
OBJECT007
10
0
20
0
30
0
70
128
71
7
72
4
73
-3
0
VERTEX
8
OBJECT007
10
0
20
0
30
0
70
128
71
-7
72
3
73
8
0
VERTEX
8
OBJECT007
10
0
20
0
30
0
70
128
71
8
72
3
73
-2
0
VERTEX
8
OBJECT007
10
0
20
0
30
0
70
128
71
-8
72
2
73
5
0
VERTEX
8
OBJECT007
10
0
20
0
30
0
70
128
71
6
72
1
73
-4
0
VERTEX
8
OBJECT007
10
0
20
0
30
0
70
128
71
-6
72
4
73
7
0
SEQEND
8
OBJECT007
0
POLYLINE
8
OBJECT008
66
1
70
64
71
8
72
12
62
50
0
VERTEX
8
OBJECT008
10
-48.000000
20
-472.000000
30
-48.000000
70
192
0
VERTEX
8
OBJECT008
10
-48.000000
20
-304.000000
30
-48.000000
70
192
0
VERTEX
8
OBJECT008
10
-32.000000
20
-304.000000
30
-48.000000
70
192
0
VERTEX
8
OBJECT008
10
-32.000000
20
-472.000000
30
-48.000000
70
192
0
VERTEX
8
OBJECT008
10
-48.000000
20
-304.000000
30
-104.000000
70
192
0
VERTEX
8
OBJECT008
10
-48.000000
20
-472.000000
30
-104.000000
70
192
0
VERTEX
8
OBJECT008
10
-32.000000
20
-472.000000
30
-104.000000
70
192
0
VERTEX
8
OBJECT008
10
-32.000000
20
-304.000000
30
-104.000000
70
192
0
VERTEX
8
OBJECT008
10
0
20
0
30
0
70
128
71
2
72
3
73
-4
0
VERTEX
8
OBJECT008
10
0
20
0
30
0
70
128
71
-2
72
4
73
1
0
VERTEX
8
OBJECT008
10
0
20
0
30
0
70
128
71
6
72
7
73
-8
0
VERTEX
8
OBJECT008
10
0
20
0
30
0
70
128
71
-6
72
8
73
5
0
VERTEX
8
OBJECT008
10
0
20
0
30
0
70
128
71
5
72
2
73
-1
0
VERTEX
8
OBJECT008
10
0
20
0
30
0
70
128
71
-5
72
1
73
6
0
VERTEX
8
OBJECT008
10
0
20
0
30
0
70
128
71
7
72
4
73
-3
0
VERTEX
8
OBJECT008
10
0
20
0
30
0
70
128
71
-7
72
3
73
8
0
VERTEX
8
OBJECT008
10
0
20
0
30
0
70
128
71
8
72
3
73
-2
0
VERTEX
8
OBJECT008
10
0
20
0
30
0
70
128
71
-8
72
2
73
5
0
VERTEX
8
OBJECT008
10
0
20
0
30
0
70
128
71
6
72
1
73
-4
0
VERTEX
8
OBJECT008
10
0
20
0
30
0
70
128
71
-6
72
4
73
7
0
SEQEND
8
OBJECT008
0
POLYLINE
8
OBJECT009
66
1
70
64
71
8
72
12
62
50
0
VERTEX
8
OBJECT009
10
-32.000000
20
-488.000000
30
-48.000000
70
192
0
VERTEX
8
OBJECT009
10
-32.000000
20
-472.000000
30
-48.000000
70
192
0
VERTEX
8
OBJECT009
10
192.000000
20
-472.000000
30
-48.000000
70
192
0
VERTEX
8
OBJECT009
10
192.000000
20
-488.000000
30
-48.000000
70
192
0
VERTEX
8
OBJECT009
10
-32.000000
20
-472.000000
30
-240.000000
70
192
0
VERTEX
8
OBJECT009
10
-32.000000
20
-488.000000
30
-240.000000
70
192
0
VERTEX
8
OBJECT009
10
192.000000
20
-488.000000
30
-240.000000
70
192
0
VERTEX
8
OBJECT009
10
192.000000
20
-472.000000
30
-240.000000
70
192
0
VERTEX
8
OBJECT009
10
0
20
0
30
0
70
128
71
2
72
3
73
-4
0
VERTEX
8
OBJECT009
10
0
20
0
30
0
70
128
71
-2
72
4
73
1
0
VERTEX
8
OBJECT009
10
0
20
0
30
0
70
128
71
6
72
7
73
-8
0
VERTEX
8
OBJECT009
10
0
20
0
30
0
70
128
71
-6
72
8
73
5
0
VERTEX
8
OBJECT009
10
0
20
0
30
0
70
128
71
5
72
2
73
-1
0
VERTEX
8
OBJECT009
10
0
20
0
30
0
70
128
71
-5
72
1
73
6
0
VERTEX
8
OBJECT009
10
0
20
0
30
0
70
128
71
7
72
4
73
-3
0
VERTEX
8
OBJECT009
10
0
20
0
30
0
70
128
71
-7
72
3
73
8
0
VERTEX
8
OBJECT009
10
0
20
0
30
0
70
128
71
8
72
3
73
-2
0
VERTEX
8
OBJECT009
10
0
20
0
30
0
70
128
71
-8
72
2
73
5
0
VERTEX
8
OBJECT009
10
0
20
0
30
0
70
128
71
6
72
1
73
-4
0
VERTEX
8
OBJECT009
10
0
20
0
30
0
70
128
71
-6
72
4
73
7
0
SEQEND
8
OBJECT009
0
POLYLINE
8
OBJECT010
66
1
70
64
71
8
72
12
62
50
0
VERTEX
8
OBJECT010
10
-16.000000
20
-472.000000
30
152.000000
70
192
0
VERTEX
8
OBJECT010
10
-16.000000
20
-456.000000
30
152.000000
70
192
0
VERTEX
8
OBJECT010
10
208.000000
20
-456.000000
30
152.000000
70
192
0
VERTEX
8
OBJECT010
10
208.000000
20
-472.000000
30
152.000000
70
192
0
VERTEX
8
OBJECT010
10
-16.000000
20
-456.000000
30
56.000000
70
192
0
VERTEX
8
OBJECT010
10
-16.000000
20
-472.000000
30
56.000000
70
192
0
VERTEX
8
OBJECT010
10
208.000000
20
-472.000000
30
56.000000
70
192
0
VERTEX
8
OBJECT010
10
208.000000
20
-456.000000
30
56.000000
70
192
0
VERTEX
8
OBJECT010
10
0
20
0
30
0
70
128
71
2
72
3
73
-4
0
VERTEX
8
OBJECT010
10
0
20
0
30
0
70
128
71
-2
72
4
73
1
0
VERTEX
8
OBJECT010
10
0
20
0
30
0
70
128
71
6
72
7
73
-8
0
VERTEX
8
OBJECT010
10
0
20
0
30
0
70
128
71
-6
72
8
73
5
0
VERTEX
8
OBJECT010
10
0
20
0
30
0
70
128
71
5
72
2
73
-1
0
VERTEX
8
OBJECT010
10
0
20
0
30
0
70
128
71
-5
72
1
73
6
0
VERTEX
8
OBJECT010
10
0
20
0
30
0
70
128
71
7
72
4
73
-3
0
VERTEX
8
OBJECT010
10
0
20
0
30
0
70
128
71
-7
72
3
73
8
0
VERTEX
8
OBJECT010
10
0
20
0
30
0
70
128
71
8
72
3
73
-2
0
VERTEX
8
OBJECT010
10
0
20
0
30
0
70
128
71
-8
72
2
73
5
0
VERTEX
8
OBJECT010
10
0
20
0
30
0
70
128
71
6
72
1
73
-4
0
VERTEX
8
OBJECT010
10
0
20
0
30
0
70
128
71
-6
72
4
73
7
0
SEQEND
8
OBJECT010
0
POLYLINE
8
OBJECT011
66
1
70
64
71
8
72
12
62
50
0
VERTEX
8
OBJECT011
10
40.000000
20
-448.000000
30
16.000000
70
192
0
VERTEX
8
OBJECT011
10
40.000000
20
-328.000000
30
16.000000
70
192
0
VERTEX
8
OBJECT011
10
208.000000
20
-328.000000
30
16.000000
70
192
0
VERTEX
8
OBJECT011
10
208.000000
20
-448.000000
30
16.000000
70
192
0
VERTEX
8
OBJECT011
10
40.000000
20
-328.000000
30
-24.000000
70
192
0
VERTEX
8
OBJECT011
10
40.000000
20
-448.000000
30
-24.000000
70
192
0
VERTEX
8
OBJECT011
10
208.000000
20
-448.000000
30
-24.000000
70
192
0
VERTEX
8
OBJECT011
10
208.000000
20
-328.000000
30
-24.000000
70
192
0
VERTEX
8
OBJECT011
10
0
20
0
30
0
70
128
71
2
72
3
73
-4
0
VERTEX
8
OBJECT011
10
0
20
0
30
0
70
128
71
-2
72
4
73
1
0
VERTEX
8
OBJECT011
10
0
20
0
30
0
70
128
71
6
72
7
73
-8
0
VERTEX
8
OBJECT011
10
0
20
0
30
0
70
128
71
-6
72
8
73
5
0
VERTEX
8
OBJECT011
10
0
20
0
30
0
70
128
71
5
72
2
73
-1
0
VERTEX
8
OBJECT011
10
0
20
0
30
0
70
128
71
-5
72
1
73
6
0
VERTEX
8
OBJECT011
10
0
20
0
30
0
70
128
71
7
72
4
73
-3
0
VERTEX
8
OBJECT011
10
0
20
0
30
0
70
128
71
-7
72
3
73
8
0
VERTEX
8
OBJECT011
10
0
20
0
30
0
70
128
71
8
72
3
73
-2
0
VERTEX
8
OBJECT011
10
0
20
0
30
0
70
128
71
-8
72
2
73
5
0
VERTEX
8
OBJECT011
10
0
20
0
30
0
70
128
71
6
72
1
73
-4
0
VERTEX
8
OBJECT011
10
0
20
0
30
0
70
128
71
-6
72
4
73
7
0
SEQEND
8
OBJECT011
0
POLYLINE
8
OBJECT012
66
1
70
64
71
8
72
12
62
50
0
VERTEX
8
OBJECT012
10
-32.000000
20
-472.000000
30
56.000000
70
192
0
VERTEX
8
OBJECT012
10
-32.000000
20
-456.000000
30
56.000000
70
192
0
VERTEX
8
OBJECT012
10
208.000000
20
-456.000000
30
56.000000
70
192
0
VERTEX
8
OBJECT012
10
208.000000
20
-472.000000
30
56.000000
70
192
0
VERTEX
8
OBJECT012
10
-32.000000
20
-456.000000
30
40.000000
70
192
0
VERTEX
8
OBJECT012
10
-32.000000
20
-472.000000
30
40.000000
70
192
0
VERTEX
8
OBJECT012
10
208.000000
20
-472.000000
30
40.000000
70
192
0
VERTEX
8
OBJECT012
10
208.000000
20
-456.000000
30
40.000000
70
192
0
VERTEX
8
OBJECT012
10
0
20
0
30
0
70
128
71
2
72
3
73
-4
0
VERTEX
8
OBJECT012
10
0
20
0
30
0
70
128
71
-2
72
4
73
1
0
VERTEX
8
OBJECT012
10
0
20
0
30
0
70
128
71
6
72
7
73
-8
0
VERTEX
8
OBJECT012
10
0
20
0
30
0
70
128
71
-6
72
8
73
5
0
VERTEX
8
OBJECT012
10
0
20
0
30
0
70
128
71
5
72
2
73
-1
0
VERTEX
8
OBJECT012
10
0
20
0
30
0
70
128
71
-5
72
1
73
6
0
VERTEX
8
OBJECT012
10
0
20
0
30
0
70
128
71
7
72
4
73
-3
0
VERTEX
8
OBJECT012
10
0
20
0
30
0
70
128
71
-7
72
3
73
8
0
VERTEX
8
OBJECT012
10
0
20
0
30
0
70
128
71
8
72
3
73
-2
0
VERTEX
8
OBJECT012
10
0
20
0
30
0
70
128
71
-8
72
2
73
5
0
VERTEX
8
OBJECT012
10
0
20
0
30
0
70
128
71
6
72
1
73
-4
0
VERTEX
8
OBJECT012
10
0
20
0
30
0
70
128
71
-6
72
4
73
7
0
SEQEND
8
OBJECT012
0
POLYLINE
8
OBJECT013
66
1
70
64
71
8
72
12
62
50
0
VERTEX
8
OBJECT013
10
-32.000000
20
-472.000000
30
152.000000
70
192
0
VERTEX
8
OBJECT013
10
-32.000000
20
-456.000000
30
152.000000
70
192
0
VERTEX
8
OBJECT013
10
-16.000000
20
-456.000000
30
152.000000
70
192
0
VERTEX
8
OBJECT013
10
-16.000000
20
-472.000000
30
152.000000
70
192
0
VERTEX
8
OBJECT013
10
-32.000000
20
-456.000000
30
56.000000
70
192
0
VERTEX
8
OBJECT013
10
-32.000000
20
-472.000000
30
56.000000
70
192
0
VERTEX
8
OBJECT013
10
-16.000000
20
-472.000000
30
56.000000
70
192
0
VERTEX
8
OBJECT013
10
-16.000000
20
-456.000000
30
56.000000
70
192
0
VERTEX
8
OBJECT013
10
0
20
0
30
0
70
128
71
2
72
3
73
-4
0
VERTEX
8
OBJECT013
10
0
20
0
30
0
70
128
71
-2
72
4
73
1
0
VERTEX
8
OBJECT013
10
0
20
0
30
0
70
128
71
6
72
7
73
-8
0
VERTEX
8
OBJECT013
10
0
20
0
30
0
70
128
71
-6
72
8
73
5
0
VERTEX
8
OBJECT013
10
0
20
0
30
0
70
128
71
5
72
2
73
-1
0
VERTEX
8
OBJECT013
10
0
20
0
30
0
70
128
71
-5
72
1
73
6
0
VERTEX
8
OBJECT013
10
0
20
0
30
0
70
128
71
7
72
4
73
-3
0
VERTEX
8
OBJECT013
10
0
20
0
30
0
70
128
71
-7
72
3
73
8
0
VERTEX
8
OBJECT013
10
0
20
0
30
0
70
128
71
8
72
3
73
-2
0
VERTEX
8
OBJECT013
10
0
20
0
30
0
70
128
71
-8
72
2
73
5
0
VERTEX
8
OBJECT013
10
0
20
0
30
0
70
128
71
6
72
1
73
-4
0
VERTEX
8
OBJECT013
10
0
20
0
30
0
70
128
71
-6
72
4
73
7
0
SEQEND
8
OBJECT013
0
POLYLINE
8
OBJECT014
66
1
70
64
71
8
72
12
62
50
0
VERTEX
8
OBJECT014
10
-32.000000
20
-472.000000
30
168.000000
70
192
0
VERTEX
8
OBJECT014
10
-32.000000
20
-456.000000
30
168.000000
70
192
0
VERTEX
8
OBJECT014
10
208.000000
20
-456.000000
30
168.000000
70
192
0
VERTEX
8
OBJECT014
10
208.000000
20
-472.000000
30
168.000000
70
192
0
VERTEX
8
OBJECT014
10
-32.000000
20
-456.000000
30
152.000000
70
192
0
VERTEX
8
OBJECT014
10
-32.000000
20
-472.000000
30
152.000000
70
192
0
VERTEX
8
OBJECT014
10
208.000000
20
-472.000000
30
152.000000
70
192
0
VERTEX
8
OBJECT014
10
208.000000
20
-456.000000
30
152.000000
70
192
0
VERTEX
8
OBJECT014
10
0
20
0
30
0
70
128
71
2
72
3
73
-4
0
VERTEX
8
OBJECT014
10
0
20
0
30
0
70
128
71
-2
72
4
73
1
0
VERTEX
8
OBJECT014
10
0
20
0
30
0
70
128
71
6
72
7
73
-8
0
VERTEX
8
OBJECT014
10
0
20
0
30
0
70
128
71
-6
72
8
73
5
0
VERTEX
8
OBJECT014
10
0
20
0
30
0
70
128
71
5
72
2
73
-1
0
VERTEX
8
OBJECT014
10
0
20
0
30
0
70
128
71
-5
72
1
73
6
0
VERTEX
8
OBJECT014
10
0
20
0
30
0
70
128
71
7
72
4
73
-3
0
VERTEX
8
OBJECT014
10
0
20
0
30
0
70
128
71
-7
72
3
73
8
0
VERTEX
8
OBJECT014
10
0
20
0
30
0
70
128
71
8
72
3
73
-2
0
VERTEX
8
OBJECT014
10
0
20
0
30
0
70
128
71
-8
72
2
73
5
0
VERTEX
8
OBJECT014
10
0
20
0
30
0
70
128
71
6
72
1
73
-4
0
VERTEX
8
OBJECT014
10
0
20
0
30
0
70
128
71
-6
72
4
73
7
0
SEQEND
8
OBJECT014
0
POLYLINE
8
OBJECT015
66
1
70
64
71
8
72
12
62
50
0
VERTEX
8
OBJECT015
10
-48.000000
20
-480.000000
30
208.000000
70
192
0
VERTEX
8
OBJECT015
10
-48.000000
20
-128.000000
30
208.000000
70
192
0
VERTEX
8
OBJECT015
10
-32.000000
20
-128.000000
30
208.000000
70
192
0
VERTEX
8
OBJECT015
10
-32.000000
20
-480.000000
30
208.000000
70
192
0
VERTEX
8
OBJECT015
10
-48.000000
20
-128.000000
30
-16.000000
70
192
0
VERTEX
8
OBJECT015
10
-48.000000
20
-480.000000
30
-16.000000
70
192
0
VERTEX
8
OBJECT015
10
-32.000000
20
-480.000000
30
-16.000000
70
192
0
VERTEX
8
OBJECT015
10
-32.000000
20
-128.000000
30
-16.000000
70
192
0
VERTEX
8
OBJECT015
10
0
20
0
30
0
70
128
71
2
72
3
73
-4
0
VERTEX
8
OBJECT015
10
0
20
0
30
0
70
128
71
-2
72
4
73
1
0
VERTEX
8
OBJECT015
10
0
20
0
30
0
70
128
71
6
72
7
73
-8
0
VERTEX
8
OBJECT015
10
0
20
0
30
0
70
128
71
-6
72
8
73
5
0
VERTEX
8
OBJECT015
10
0
20
0
30
0
70
128
71
5
72
2
73
-1
0
VERTEX
8
OBJECT015
10
0
20
0
30
0
70
128
71
-5
72
1
73
6
0
VERTEX
8
OBJECT015
10
0
20
0
30
0
70
128
71
7
72
4
73
-3
0
VERTEX
8
OBJECT015
10
0
20
0
30
0
70
128
71
-7
72
3
73
8
0
VERTEX
8
OBJECT015
10
0
20
0
30
0
70
128
71
8
72
3
73
-2
0
VERTEX
8
OBJECT015
10
0
20
0
30
0
70
128
71
-8
72
2
73
5
0
VERTEX
8
OBJECT015
10
0
20
0
30
0
70
128
71
6
72
1
73
-4
0
VERTEX
8
OBJECT015
10
0
20
0
30
0
70
128
71
-6
72
4
73
7
0
SEQEND
8
OBJECT015
0
POLYLINE
8
OBJECT016
66
1
70
64
71
8
72
12
62
50
0
VERTEX
8
OBJECT016
10
-32.000000
20
-448.000000
30
24.000000
70
192
0
VERTEX
8
OBJECT016
10
-32.000000
20
-376.000000
30
24.000000
70
192
0
VERTEX
8
OBJECT016
10
32.000000
20
-376.000000
30
24.000000
70
192
0
VERTEX
8
OBJECT016
10
32.000000
20
-448.000000
30
24.000000
70
192
0
VERTEX
8
OBJECT016
10
-32.000000
20
-376.000000
30
-16.000000
70
192
0
VERTEX
8
OBJECT016
10
-32.000000
20
-448.000000
30
-16.000000
70
192
0
VERTEX
8
OBJECT016
10
32.000000
20
-448.000000
30
-16.000000
70
192
0
VERTEX
8
OBJECT016
10
32.000000
20
-376.000000
30
-16.000000
70
192
0
VERTEX
8
OBJECT016
10
0
20
0
30
0
70
128
71
2
72
3
73
-4
0
VERTEX
8
OBJECT016
10
0
20
0
30
0
70
128
71
-2
72
4
73
1
0
VERTEX
8
OBJECT016
10
0
20
0
30
0
70
128
71
6
72
7
73
-8
0
VERTEX
8
OBJECT016
10
0
20
0
30
0
70
128
71
-6
72
8
73
5
0
VERTEX
8
OBJECT016
10
0
20
0
30
0
70
128
71
5
72
2
73
-1
0
VERTEX
8
OBJECT016
10
0
20
0
30
0
70
128
71
-5
72
1
73
6
0
VERTEX
8
OBJECT016
10
0
20
0
30
0
70
128
71
7
72
4
73
-3
0
VERTEX
8
OBJECT016
10
0
20
0
30
0
70
128
71
-7
72
3
73
8
0
VERTEX
8
OBJECT016
10
0
20
0
30
0
70
128
71
8
72
3
73
-2
0
VERTEX
8
OBJECT016
10
0
20
0
30
0
70
128
71
-8
72
2
73
5
0
VERTEX
8
OBJECT016
10
0
20
0
30
0
70
128
71
6
72
1
73
-4
0
VERTEX
8
OBJECT016
10
0
20
0
30
0
70
128
71
-6
72
4
73
7
0
SEQEND
8
OBJECT016
0
POLYLINE
8
OBJECT017
66
1
70
64
71
8
72
12
62
50
0
VERTEX
8
OBJECT017
10
32.000000
20
-448.000000
30
24.000000
70
192
0
VERTEX
8
OBJECT017
10
32.000000
20
-320.000000
30
24.000000
70
192
0
VERTEX
8
OBJECT017
10
40.000000
20
-320.000000
30
24.000000
70
192
0
VERTEX
8
OBJECT017
10
40.000000
20
-448.000000
30
24.000000
70
192
0
VERTEX
8
OBJECT017
10
32.000000
20
-320.000000
30
-24.000000
70
192
0
VERTEX
8
OBJECT017
10
32.000000
20
-448.000000
30
-24.000000
70
192
0
VERTEX
8
OBJECT017
10
40.000000
20
-448.000000
30
-24.000000
70
192
0
VERTEX
8
OBJECT017
10
40.000000
20
-320.000000
30
-24.000000
70
192
0
VERTEX
8
OBJECT017
10
0
20
0
30
0
70
128
71
2
72
3
73
-4
0
VERTEX
8
OBJECT017
10
0
20
0
30
0
70
128
71
-2
72
4
73
1
0
VERTEX
8
OBJECT017
10
0
20
0
30
0
70
128
71
6
72
7
73
-8
0
VERTEX
8
OBJECT017
10
0
20
0
30
0
70
128
71
-6
72
8
73
5
0
VERTEX
8
OBJECT017
10
0
20
0
30
0
70
128
71
5
72
2
73
-1
0
VERTEX
8
OBJECT017
10
0
20
0
30
0
70
128
71
-5
72
1
73
6
0
VERTEX
8
OBJECT017
10
0
20
0
30
0
70
128
71
7
72
4
73
-3
0
VERTEX
8
OBJECT017
10
0
20
0
30
0
70
128
71
-7
72
3
73
8
0
VERTEX
8
OBJECT017
10
0
20
0
30
0
70
128
71
8
72
3
73
-2
0
VERTEX
8
OBJECT017
10
0
20
0
30
0
70
128
71
-8
72
2
73
5
0
VERTEX
8
OBJECT017
10
0
20
0
30
0
70
128
71
6
72
1
73
-4
0
VERTEX
8
OBJECT017
10
0
20
0
30
0
70
128
71
-6
72
4
73
7
0
SEQEND
8
OBJECT017
0
POLYLINE
8
OBJECT018
66
1
70
64
71
8
72
12
62
50
0
VERTEX
8
OBJECT018
10
40.000000
20
-328.000000
30
24.000000
70
192
0
VERTEX
8
OBJECT018
10
40.000000
20
-320.000000
30
24.000000
70
192
0
VERTEX
8
OBJECT018
10
208.000000
20
-320.000000
30
24.000000
70
192
0
VERTEX
8
OBJECT018
10
208.000000
20
-328.000000
30
24.000000
70
192
0
VERTEX
8
OBJECT018
10
40.000000
20
-320.000000
30
-24.000000
70
192
0
VERTEX
8
OBJECT018
10
40.000000
20
-328.000000
30
-24.000000
70
192
0
VERTEX
8
OBJECT018
10
208.000000
20
-328.000000
30
-24.000000
70
192
0
VERTEX
8
OBJECT018
10
208.000000
20
-320.000000
30
-24.000000
70
192
0
VERTEX
8
OBJECT018
10
0
20
0
30
0
70
128
71
2
72
3
73
-4
0
VERTEX
8
OBJECT018
10
0
20
0
30
0
70
128
71
-2
72
4
73
1
0
VERTEX
8
OBJECT018
10
0
20
0
30
0
70
128
71
6
72
7
73
-8
0
VERTEX
8
OBJECT018
10
0
20
0
30
0
70
128
71
-6
72
8
73
5
0
VERTEX
8
OBJECT018
10
0
20
0
30
0
70
128
71
5
72
2
73
-1
0
VERTEX
8
OBJECT018
10
0
20
0
30
0
70
128
71
-5
72
1
73
6
0
VERTEX
8
OBJECT018
10
0
20
0
30
0
70
128
71
7
72
4
73
-3
0
VERTEX
8
OBJECT018
10
0
20
0
30
0
70
128
71
-7
72
3
73
8
0
VERTEX
8
OBJECT018
10
0
20
0
30
0
70
128
71
8
72
3
73
-2
0
VERTEX
8
OBJECT018
10
0
20
0
30
0
70
128
71
-8
72
2
73
5
0
VERTEX
8
OBJECT018
10
0
20
0
30
0
70
128
71
6
72
1
73
-4
0
VERTEX
8
OBJECT018
10
0
20
0
30
0
70
128
71
-6
72
4
73
7
0
SEQEND
8
OBJECT018
0
POLYLINE
8
OBJECT019
66
1
70
64
71
8
72
12
62
50
0
VERTEX
8
OBJECT019
10
-32.000000
20
-352.000000
30
-8.000000
70
192
0
VERTEX
8
OBJECT019
10
-32.000000
20
-344.000000
30
-8.000000
70
192
0
VERTEX
8
OBJECT019
10
32.000000
20
-344.000000
30
-8.000000
70
192
0
VERTEX
8
OBJECT019
10
32.000000
20
-352.000000
30
-8.000000
70
192
0
VERTEX
8
OBJECT019
10
-32.000000
20
-344.000000
30
-16.000000
70
192
0
VERTEX
8
OBJECT019
10
-32.000000
20
-352.000000
30
-16.000000
70
192
0
VERTEX
8
OBJECT019
10
32.000000
20
-352.000000
30
-16.000000
70
192
0
VERTEX
8
OBJECT019
10
32.000000
20
-344.000000
30
-16.000000
70
192
0
VERTEX
8
OBJECT019
10
0
20
0
30
0
70
128
71
2
72
3
73
-4
0
VERTEX
8
OBJECT019
10
0
20
0
30
0
70
128
71
-2
72
4
73
1
0
VERTEX
8
OBJECT019
10
0
20
0
30
0
70
128
71
6
72
7
73
-8
0
VERTEX
8
OBJECT019
10
0
20
0
30
0
70
128
71
-6
72
8
73
5
0
VERTEX
8
OBJECT019
10
0
20
0
30
0
70
128
71
5
72
2
73
-1
0
VERTEX
8
OBJECT019
10
0
20
0
30
0
70
128
71
-5
72
1
73
6
0
VERTEX
8
OBJECT019
10
0
20
0
30
0
70
128
71
7
72
4
73
-3
0
VERTEX
8
OBJECT019
10
0
20
0
30
0
70
128
71
-7
72
3
73
8
0
VERTEX
8
OBJECT019
10
0
20
0
30
0
70
128
71
8
72
3
73
-2
0
VERTEX
8
OBJECT019
10
0
20
0
30
0
70
128
71
-8
72
2
73
5
0
VERTEX
8
OBJECT019
10
0
20
0
30
0
70
128
71
6
72
1
73
-4
0
VERTEX
8
OBJECT019
10
0
20
0
30
0
70
128
71
-6
72
4
73
7
0
SEQEND
8
OBJECT019
0
POLYLINE
8
OBJECT020
66
1
70
64
71
8
72
12
62
50
0
VERTEX
8
OBJECT020
10
-32.000000
20
-360.000000
30
0.000000
70
192
0
VERTEX
8
OBJECT020
10
-32.000000
20
-352.000000
30
0.000000
70
192
0
VERTEX
8
OBJECT020
10
32.000000
20
-352.000000
30
0.000000
70
192
0
VERTEX
8
OBJECT020
10
32.000000
20
-360.000000
30
0.000000
70
192
0
VERTEX
8
OBJECT020
10
-32.000000
20
-352.000000
30
-16.000000
70
192
0
VERTEX
8
OBJECT020
10
-32.000000
20
-360.000000
30
-16.000000
70
192
0
VERTEX
8
OBJECT020
10
32.000000
20
-360.000000
30
-16.000000
70
192
0
VERTEX
8
OBJECT020
10
32.000000
20
-352.000000
30
-16.000000
70
192
0
VERTEX
8
OBJECT020
10
0
20
0
30
0
70
128
71
2
72
3
73
-4
0
VERTEX
8
OBJECT020
10
0
20
0
30
0
70
128
71
-2
72
4
73
1
0
VERTEX
8
OBJECT020
10
0
20
0
30
0
70
128
71
6
72
7
73
-8
0
VERTEX
8
OBJECT020
10
0
20
0
30
0
70
128
71
-6
72
8
73
5
0
VERTEX
8
OBJECT020
10
0
20
0
30
0
70
128
71
5
72
2
73
-1
0
VERTEX
8
OBJECT020
10
0
20
0
30
0
70
128
71
-5
72
1
73
6
0
VERTEX
8
OBJECT020
10
0
20
0
30
0
70
128
71
7
72
4
73
-3
0
VERTEX
8
OBJECT020
10
0
20
0
30
0
70
128
71
-7
72
3
73
8
0
VERTEX
8
OBJECT020
10
0
20
0
30
0
70
128
71
8
72
3
73
-2
0
VERTEX
8
OBJECT020
10
0
20
0
30
0
70
128
71
-8
72
2
73
5
0
VERTEX
8
OBJECT020
10
0
20
0
30
0
70
128
71
6
72
1
73
-4
0
VERTEX
8
OBJECT020
10
0
20
0
30
0
70
128
71
-6
72
4
73
7
0
SEQEND
8
OBJECT020
0
POLYLINE
8
OBJECT021
66
1
70
64
71
8
72
12
62
50
0
VERTEX
8
OBJECT021
10
-32.000000
20
-368.000000
30
8.000000
70
192
0
VERTEX
8
OBJECT021
10
-32.000000
20
-360.000000
30
8.000000
70
192
0
VERTEX
8
OBJECT021
10
32.000000
20
-360.000000
30
8.000000
70
192
0
VERTEX
8
OBJECT021
10
32.000000
20
-368.000000
30
8.000000
70
192
0
VERTEX
8
OBJECT021
10
-32.000000
20
-360.000000
30
-16.000000
70
192
0
VERTEX
8
OBJECT021
10
-32.000000
20
-368.000000
30
-16.000000
70
192
0
VERTEX
8
OBJECT021
10
32.000000
20
-368.000000
30
-16.000000
70
192
0
VERTEX
8
OBJECT021
10
32.000000
20
-360.000000
30
-16.000000
70
192
0
VERTEX
8
OBJECT021
10
0
20
0
30
0
70
128
71
2
72
3
73
-4
0
VERTEX
8
OBJECT021
10
0
20
0
30
0
70
128
71
-2
72
4
73
1
0
VERTEX
8
OBJECT021
10
0
20
0
30
0
70
128
71
6
72
7
73
-8
0
VERTEX
8
OBJECT021
10
0
20
0
30
0
70
128
71
-6
72
8
73
5
0
VERTEX
8
OBJECT021
10
0
20
0
30
0
70
128
71
5
72
2
73
-1
0
VERTEX
8
OBJECT021
10
0
20
0
30
0
70
128
71
-5
72
1
73
6
0
VERTEX
8
OBJECT021
10
0
20
0
30
0
70
128
71
7
72
4
73
-3
0
VERTEX
8
OBJECT021
10
0
20
0
30
0
70
128
71
-7
72
3
73
8
0
VERTEX
8
OBJECT021
10
0
20
0
30
0
70
128
71
8
72
3
73
-2
0
VERTEX
8
OBJECT021
10
0
20
0
30
0
70
128
71
-8
72
2
73
5
0
VERTEX
8
OBJECT021
10
0
20
0
30
0
70
128
71
6
72
1
73
-4
0
VERTEX
8
OBJECT021
10
0
20
0
30
0
70
128
71
-6
72
4
73
7
0
SEQEND
8
OBJECT021
0
POLYLINE
8
OBJECT022
66
1
70
64
71
8
72
12
62
50
0
VERTEX
8
OBJECT022
10
-32.000000
20
-376.000000
30
16.000000
70
192
0
VERTEX
8
OBJECT022
10
-32.000000
20
-368.000000
30
16.000000
70
192
0
VERTEX
8
OBJECT022
10
32.000000
20
-368.000000
30
16.000000
70
192
0
VERTEX
8
OBJECT022
10
32.000000
20
-376.000000
30
16.000000
70
192
0
VERTEX
8
OBJECT022
10
-32.000000
20
-368.000000
30
-16.000000
70
192
0
VERTEX
8
OBJECT022
10
-32.000000
20
-376.000000
30
-16.000000
70
192
0
VERTEX
8
OBJECT022
10
32.000000
20
-376.000000
30
-16.000000
70
192
0
VERTEX
8
OBJECT022
10
32.000000
20
-368.000000
30
-16.000000
70
192
0
VERTEX
8
OBJECT022
10
0
20
0
30
0
70
128
71
2
72
3
73
-4
0
VERTEX
8
OBJECT022
10
0
20
0
30
0
70
128
71
-2
72
4
73
1
0
VERTEX
8
OBJECT022
10
0
20
0
30
0
70
128
71
6
72
7
73
-8
0
VERTEX
8
OBJECT022
10
0
20
0
30
0
70
128
71
-6
72
8
73
5
0
VERTEX
8
OBJECT022
10
0
20
0
30
0
70
128
71
5
72
2
73
-1
0
VERTEX
8
OBJECT022
10
0
20
0
30
0
70
128
71
-5
72
1
73
6
0
VERTEX
8
OBJECT022
10
0
20
0
30
0
70
128
71
7
72
4
73
-3
0
VERTEX
8
OBJECT022
10
0
20
0
30
0
70
128
71
-7
72
3
73
8
0
VERTEX
8
OBJECT022
10
0
20
0
30
0
70
128
71
8
72
3
73
-2
0
VERTEX
8
OBJECT022
10
0
20
0
30
0
70
128
71
-8
72
2
73
5
0
VERTEX
8
OBJECT022
10
0
20
0
30
0
70
128
71
6
72
1
73
-4
0
VERTEX
8
OBJECT022
10
0
20
0
30
0
70
128
71
-6
72
4
73
7
0
SEQEND
8
OBJECT022
0
POLYLINE
8
OBJECT023
66
1
70
64
71
8
72
12
62
50
0
VERTEX
8
OBJECT023
10
192.000000
20
-488.000000
30
-16.000000
70
192
0
VERTEX
8
OBJECT023
10
192.000000
20
0.000000
30
-16.000000
70
192
0
VERTEX
8
OBJECT023
10
208.000000
20
0.000000
30
-16.000000
70
192
0
VERTEX
8
OBJECT023
10
208.000000
20
-488.000000
30
-16.000000
70
192
0
VERTEX
8
OBJECT023
10
192.000000
20
0.000000
30
-48.000000
70
192
0
VERTEX
8
OBJECT023
10
192.000000
20
-488.000000
30
-48.000000
70
192
0
VERTEX
8
OBJECT023
10
208.000000
20
-488.000000
30
-48.000000
70
192
0
VERTEX
8
OBJECT023
10
208.000000
20
0.000000
30
-48.000000
70
192
0
VERTEX
8
OBJECT023
10
0
20
0
30
0
70
128
71
2
72
3
73
-4
0
VERTEX
8
OBJECT023
10
0
20
0
30
0
70
128
71
-2
72
4
73
1
0
VERTEX
8
OBJECT023
10
0
20
0
30
0
70
128
71
6
72
7
73
-8
0
VERTEX
8
OBJECT023
10
0
20
0
30
0
70
128
71
-6
72
8
73
5
0
VERTEX
8
OBJECT023
10
0
20
0
30
0
70
128
71
5
72
2
73
-1
0
VERTEX
8
OBJECT023
10
0
20
0
30
0
70
128
71
-5
72
1
73
6
0
VERTEX
8
OBJECT023
10
0
20
0
30
0
70
128
71
7
72
4
73
-3
0
VERTEX
8
OBJECT023
10
0
20
0
30
0
70
128
71
-7
72
3
73
8
0
VERTEX
8
OBJECT023
10
0
20
0
30
0
70
128
71
8
72
3
73
-2
0
VERTEX
8
OBJECT023
10
0
20
0
30
0
70
128
71
-8
72
2
73
5
0
VERTEX
8
OBJECT023
10
0
20
0
30
0
70
128
71
6
72
1
73
-4
0
VERTEX
8
OBJECT023
10
0
20
0
30
0
70
128
71
-6
72
4
73
7
0
SEQEND
8
OBJECT023
0
POLYLINE
8
OBJECT024
66
1
70
64
71
8
72
12
62
50
0
VERTEX
8
OBJECT024
10
80.000000
20
-160.000000
30
-16.000000
70
192
0
VERTEX
8
OBJECT024
10
80.000000
20
40.000000
30
-16.000000
70
192
0
VERTEX
8
OBJECT024
10
192.000000
20
40.000000
30
-16.000000
70
192
0
VERTEX
8
OBJECT024
10
192.000000
20
-160.000000
30
-16.000000
70
192
0
VERTEX
8
OBJECT024
10
80.000000
20
40.000000
30
-240.000000
70
192
0
VERTEX
8
OBJECT024
10
80.000000
20
-160.000000
30
-240.000000
70
192
0
VERTEX
8
OBJECT024
10
192.000000
20
-160.000000
30
-240.000000
70
192
0
VERTEX
8
OBJECT024
10
192.000000
20
40.000000
30
-240.000000
70
192
0
VERTEX
8
OBJECT024
10
0
20
0
30
0
70
128
71
2
72
3
73
-4
0
VERTEX
8
OBJECT024
10
0
20
0
30
0
70
128
71
-2
72
4
73
1
0
VERTEX
8
OBJECT024
10
0
20
0
30
0
70
128
71
6
72
7
73
-8
0
VERTEX
8
OBJECT024
10
0
20
0
30
0
70
128
71
-6
72
8
73
5
0
VERTEX
8
OBJECT024
10
0
20
0
30
0
70
128
71
5
72
2
73
-1
0
VERTEX
8
OBJECT024
10
0
20
0
30
0
70
128
71
-5
72
1
73
6
0
VERTEX
8
OBJECT024
10
0
20
0
30
0
70
128
71
7
72
4
73
-3
0
VERTEX
8
OBJECT024
10
0
20
0
30
0
70
128
71
-7
72
3
73
8
0
VERTEX
8
OBJECT024
10
0
20
0
30
0
70
128
71
8
72
3
73
-2
0
VERTEX
8
OBJECT024
10
0
20
0
30
0
70
128
71
-8
72
2
73
5
0
VERTEX
8
OBJECT024
10
0
20
0
30
0
70
128
71
6
72
1
73
-4
0
VERTEX
8
OBJECT024
10
0
20
0
30
0
70
128
71
-6
72
4
73
7
0
SEQEND
8
OBJECT024
0
POLYLINE
8
OBJECT025
66
1
70
64
71
8
72
12
62
50
0
VERTEX
8
OBJECT025
10
-32.000000
20
16.000000
30
208.000000
70
192
0
VERTEX
8
OBJECT025
10
-32.000000
20
32.000000
30
208.000000
70
192
0
VERTEX
8
OBJECT025
10
208.000000
20
32.000000
30
208.000000
70
192
0
VERTEX
8
OBJECT025
10
208.000000
20
16.000000
30
208.000000
70
192
0
VERTEX
8
OBJECT025
10
-32.000000
20
32.000000
30
-16.000000
70
192
0
VERTEX
8
OBJECT025
10
-32.000000
20
16.000000
30
-16.000000
70
192
0
VERTEX
8
OBJECT025
10
208.000000
20
16.000000
30
-16.000000
70
192
0
VERTEX
8
OBJECT025
10
208.000000
20
32.000000
30
-16.000000
70
192
0
VERTEX
8
OBJECT025
10
0
20
0
30
0
70
128
71
2
72
3
73
-4
0
VERTEX
8
OBJECT025
10
0
20
0
30
0
70
128
71
-2
72
4
73
1
0
VERTEX
8
OBJECT025
10
0
20
0
30
0
70
128
71
6
72
7
73
-8
0
VERTEX
8
OBJECT025
10
0
20
0
30
0
70
128
71
-6
72
8
73
5
0
VERTEX
8
OBJECT025
10
0
20
0
30
0
70
128
71
5
72
2
73
-1
0
VERTEX
8
OBJECT025
10
0
20
0
30
0
70
128
71
-5
72
1
73
6
0
VERTEX
8
OBJECT025
10
0
20
0
30
0
70
128
71
7
72
4
73
-3
0
VERTEX
8
OBJECT025
10
0
20
0
30
0
70
128
71
-7
72
3
73
8
0
VERTEX
8
OBJECT025
10
0
20
0
30
0
70
128
71
8
72
3
73
-2
0
VERTEX
8
OBJECT025
10
0
20
0
30
0
70
128
71
-8
72
2
73
5
0
VERTEX
8
OBJECT025
10
0
20
0
30
0
70
128
71
6
72
1
73
-4
0
VERTEX
8
OBJECT025
10
0
20
0
30
0
70
128
71
-6
72
4
73
7
0
SEQEND
8
OBJECT025
0
POLYLINE
8
OBJECT026
66
1
70
64
71
8
72
12
62
50
0
VERTEX
8
OBJECT026
10
-48.000000
20
-32.000000
30
208.000000
70
192
0
VERTEX
8
OBJECT026
10
-48.000000
20
32.000000
30
208.000000
70
192
0
VERTEX
8
OBJECT026
10
-32.000000
20
32.000000
30
208.000000
70
192
0
VERTEX
8
OBJECT026
10
-32.000000
20
-32.000000
30
208.000000
70
192
0
VERTEX
8
OBJECT026
10
-48.000000
20
32.000000
30
-16.000000
70
192
0
VERTEX
8
OBJECT026
10
-48.000000
20
-32.000000
30
-16.000000
70
192
0
VERTEX
8
OBJECT026
10
-32.000000
20
-32.000000
30
-16.000000
70
192
0
VERTEX
8
OBJECT026
10
-32.000000
20
32.000000
30
-16.000000
70
192
0
VERTEX
8
OBJECT026
10
0
20
0
30
0
70
128
71
2
72
3
73
-4
0
VERTEX
8
OBJECT026
10
0
20
0
30
0
70
128
71
-2
72
4
73
1
0
VERTEX
8
OBJECT026
10
0
20
0
30
0
70
128
71
6
72
7
73
-8
0
VERTEX
8
OBJECT026
10
0
20
0
30
0
70
128
71
-6
72
8
73
5
0
VERTEX
8
OBJECT026
10
0
20
0
30
0
70
128
71
5
72
2
73
-1
0
VERTEX
8
OBJECT026
10
0
20
0
30
0
70
128
71
-5
72
1
73
6
0
VERTEX
8
OBJECT026
10
0
20
0
30
0
70
128
71
7
72
4
73
-3
0
VERTEX
8
OBJECT026
10
0
20
0
30
0
70
128
71
-7
72
3
73
8
0
VERTEX
8
OBJECT026
10
0
20
0
30
0
70
128
71
8
72
3
73
-2
0
VERTEX
8
OBJECT026
10
0
20
0
30
0
70
128
71
-8
72
2
73
5
0
VERTEX
8
OBJECT026
10
0
20
0
30
0
70
128
71
6
72
1
73
-4
0
VERTEX
8
OBJECT026
10
0
20
0
30
0
70
128
71
-6
72
4
73
7
0
SEQEND
8
OBJECT026
0
POLYLINE
8
OBJECT027
66
1
70
64
71
8
72
12
62
50
0
VERTEX
8
OBJECT027
10
80.000000
20
-176.000000
30
-48.000000
70
192
0
VERTEX
8
OBJECT027
10
80.000000
20
-160.000000
30
-48.000000
70
192
0
VERTEX
8
OBJECT027
10
192.000000
20
-160.000000
30
-48.000000
70
192
0
VERTEX
8
OBJECT027
10
192.000000
20
-176.000000
30
-48.000000
70
192
0
VERTEX
8
OBJECT027
10
80.000000
20
-160.000000
30
-240.000000
70
192
0
VERTEX
8
OBJECT027
10
80.000000
20
-176.000000
30
-240.000000
70
192
0
VERTEX
8
OBJECT027
10
192.000000
20
-176.000000
30
-240.000000
70
192
0
VERTEX
8
OBJECT027
10
192.000000
20
-160.000000
30
-240.000000
70
192
0
VERTEX
8
OBJECT027
10
0
20
0
30
0
70
128
71
2
72
3
73
-4
0
VERTEX
8
OBJECT027
10
0
20
0
30
0
70
128
71
-2
72
4
73
1
0
VERTEX
8
OBJECT027
10
0
20
0
30
0
70
128
71
6
72
7
73
-8
0
VERTEX
8
OBJECT027
10
0
20
0
30
0
70
128
71
-6
72
8
73
5
0
VERTEX
8
OBJECT027
10
0
20
0
30
0
70
128
71
5
72
2
73
-1
0
VERTEX
8
OBJECT027
10
0
20
0
30
0
70
128
71
-5
72
1
73
6
0
VERTEX
8
OBJECT027
10
0
20
0
30
0
70
128
71
7
72
4
73
-3
0
VERTEX
8
OBJECT027
10
0
20
0
30
0
70
128
71
-7
72
3
73
8
0
VERTEX
8
OBJECT027
10
0
20
0
30
0
70
128
71
8
72
3
73
-2
0
VERTEX
8
OBJECT027
10
0
20
0
30
0
70
128
71
-8
72
2
73
5
0
VERTEX
8
OBJECT027
10
0
20
0
30
0
70
128
71
6
72
1
73
-4
0
VERTEX
8
OBJECT027
10
0
20
0
30
0
70
128
71
-6
72
4
73
7
0
SEQEND
8
OBJECT027
0
POLYLINE
8
OBJECT028
66
1
70
64
71
8
72
12
62
50
0
VERTEX
8
OBJECT028
10
80.000000
20
-192.000000
30
-64.000000
70
192
0
VERTEX
8
OBJECT028
10
80.000000
20
-176.000000
30
-64.000000
70
192
0
VERTEX
8
OBJECT028
10
192.000000
20
-176.000000
30
-64.000000
70
192
0
VERTEX
8
OBJECT028
10
192.000000
20
-192.000000
30
-64.000000
70
192
0
VERTEX
8
OBJECT028
10
80.000000
20
-176.000000
30
-240.000000
70
192
0
VERTEX
8
OBJECT028
10
80.000000
20
-192.000000
30
-240.000000
70
192
0
VERTEX
8
OBJECT028
10
192.000000
20
-192.000000
30
-240.000000
70
192
0
VERTEX
8
OBJECT028
10
192.000000
20
-176.000000
30
-240.000000
70
192
0
VERTEX
8
OBJECT028
10
0
20
0
30
0
70
128
71
2
72
3
73
-4
0
VERTEX
8
OBJECT028
10
0
20
0
30
0
70
128
71
-2
72
4
73
1
0
VERTEX
8
OBJECT028
10
0
20
0
30
0
70
128
71
6
72
7
73
-8
0
VERTEX
8
OBJECT028
10
0
20
0
30
0
70
128
71
-6
72
8
73
5
0
VERTEX
8
OBJECT028
10
0
20
0
30
0
70
128
71
5
72
2
73
-1
0
VERTEX
8
OBJECT028
10
0
20
0
30
0
70
128
71
-5
72
1
73
6
0
VERTEX
8
OBJECT028
10
0
20
0
30
0
70
128
71
7
72
4
73
-3
0
VERTEX
8
OBJECT028
10
0
20
0
30
0
70
128
71
-7
72
3
73
8
0
VERTEX
8
OBJECT028
10
0
20
0
30
0
70
128
71
8
72
3
73
-2
0
VERTEX
8
OBJECT028
10
0
20
0
30
0
70
128
71
-8
72
2
73
5
0
VERTEX
8
OBJECT028
10
0
20
0
30
0
70
128
71
6
72
1
73
-4
0
VERTEX
8
OBJECT028
10
0
20
0
30
0
70
128
71
-6
72
4
73
7
0
SEQEND
8
OBJECT028
0
POLYLINE
8
OBJECT029
66
1
70
64
71
8
72
12
62
50
0
VERTEX
8
OBJECT029
10
80.000000
20
-208.000000
30
-80.000000
70
192
0
VERTEX
8
OBJECT029
10
80.000000
20
-192.000000
30
-80.000000
70
192
0
VERTEX
8
OBJECT029
10
192.000000
20
-192.000000
30
-80.000000
70
192
0
VERTEX
8
OBJECT029
10
192.000000
20
-208.000000
30
-80.000000
70
192
0
VERTEX
8
OBJECT029
10
80.000000
20
-192.000000
30
-240.000000
70
192
0
VERTEX
8
OBJECT029
10
80.000000
20
-208.000000
30
-240.000000
70
192
0
VERTEX
8
OBJECT029
10
192.000000
20
-208.000000
30
-240.000000
70
192
0
VERTEX
8
OBJECT029
10
192.000000
20
-192.000000
30
-240.000000
70
192
0
VERTEX
8
OBJECT029
10
0
20
0
30
0
70
128
71
2
72
3
73
-4
0
VERTEX
8
OBJECT029
10
0
20
0
30
0
70
128
71
-2
72
4
73
1
0
VERTEX
8
OBJECT029
10
0
20
0
30
0
70
128
71
6
72
7
73
-8
0
VERTEX
8
OBJECT029
10
0
20
0
30
0
70
128
71
-6
72
8
73
5
0
VERTEX
8
OBJECT029
10
0
20
0
30
0
70
128
71
5
72
2
73
-1
0
VERTEX
8
OBJECT029
10
0
20
0
30
0
70
128
71
-5
72
1
73
6
0
VERTEX
8
OBJECT029
10
0
20
0
30
0
70
128
71
7
72
4
73
-3
0
VERTEX
8
OBJECT029
10
0
20
0
30
0
70
128
71
-7
72
3
73
8
0
VERTEX
8
OBJECT029
10
0
20
0
30
0
70
128
71
8
72
3
73
-2
0
VERTEX
8
OBJECT029
10
0
20
0
30
0
70
128
71
-8
72
2
73
5
0
VERTEX
8
OBJECT029
10
0
20
0
30
0
70
128
71
6
72
1
73
-4
0
VERTEX
8
OBJECT029
10
0
20
0
30
0
70
128
71
-6
72
4
73
7
0
SEQEND
8
OBJECT029
0
POLYLINE
8
OBJECT030
66
1
70
64
71
8
72
12
62
50
0
VERTEX
8
OBJECT030
10
80.000000
20
-224.000000
30
-96.000000
70
192
0
VERTEX
8
OBJECT030
10
80.000000
20
-208.000000
30
-96.000000
70
192
0
VERTEX
8
OBJECT030
10
192.000000
20
-208.000000
30
-96.000000
70
192
0
VERTEX
8
OBJECT030
10
192.000000
20
-224.000000
30
-96.000000
70
192
0
VERTEX
8
OBJECT030
10
80.000000
20
-208.000000
30
-240.000000
70
192
0
VERTEX
8
OBJECT030
10
80.000000
20
-224.000000
30
-240.000000
70
192
0
VERTEX
8
OBJECT030
10
192.000000
20
-224.000000
30
-240.000000
70
192
0
VERTEX
8
OBJECT030
10
192.000000
20
-208.000000
30
-240.000000
70
192
0
VERTEX
8
OBJECT030
10
0
20
0
30
0
70
128
71
2
72
3
73
-4
0
VERTEX
8
OBJECT030
10
0
20
0
30
0
70
128
71
-2
72
4
73
1
0
VERTEX
8
OBJECT030
10
0
20
0
30
0
70
128
71
6
72
7
73
-8
0
VERTEX
8
OBJECT030
10
0
20
0
30
0
70
128
71
-6
72
8
73
5
0
VERTEX
8
OBJECT030
10
0
20
0
30
0
70
128
71
5
72
2
73
-1
0
VERTEX
8
OBJECT030
10
0
20
0
30
0
70
128
71
-5
72
1
73
6
0
VERTEX
8
OBJECT030
10
0
20
0
30
0
70
128
71
7
72
4
73
-3
0
VERTEX
8
OBJECT030
10
0
20
0
30
0
70
128
71
-7
72
3
73
8
0
VERTEX
8
OBJECT030
10
0
20
0
30
0
70
128
71
8
72
3
73
-2
0
VERTEX
8
OBJECT030
10
0
20
0
30
0
70
128
71
-8
72
2
73
5
0
VERTEX
8
OBJECT030
10
0
20
0
30
0
70
128
71
6
72
1
73
-4
0
VERTEX
8
OBJECT030
10
0
20
0
30
0
70
128
71
-6
72
4
73
7
0
SEQEND
8
OBJECT030
0
POLYLINE
8
OBJECT031
66
1
70
64
71
8
72
12
62
50
0
VERTEX
8
OBJECT031
10
80.000000
20
-240.000000
30
-112.000000
70
192
0
VERTEX
8
OBJECT031
10
80.000000
20
-224.000000
30
-112.000000
70
192
0
VERTEX
8
OBJECT031
10
192.000000
20
-224.000000
30
-112.000000
70
192
0
VERTEX
8
OBJECT031
10
192.000000
20
-240.000000
30
-112.000000
70
192
0
VERTEX
8
OBJECT031
10
80.000000
20
-224.000000
30
-240.000000
70
192
0
VERTEX
8
OBJECT031
10
80.000000
20
-240.000000
30
-240.000000
70
192
0
VERTEX
8
OBJECT031
10
192.000000
20
-240.000000
30
-240.000000
70
192
0
VERTEX
8
OBJECT031
10
192.000000
20
-224.000000
30
-240.000000
70
192
0
VERTEX
8
OBJECT031
10
0
20
0
30
0
70
128
71
2
72
3
73
-4
0
VERTEX
8
OBJECT031
10
0
20
0
30
0
70
128
71
-2
72
4
73
1
0
VERTEX
8
OBJECT031
10
0
20
0
30
0
70
128
71
6
72
7
73
-8
0
VERTEX
8
OBJECT031
10
0
20
0
30
0
70
128
71
-6
72
8
73
5
0
VERTEX
8
OBJECT031
10
0
20
0
30
0
70
128
71
5
72
2
73
-1
0
VERTEX
8
OBJECT031
10
0
20
0
30
0
70
128
71
-5
72
1
73
6
0
VERTEX
8
OBJECT031
10
0
20
0
30
0
70
128
71
7
72
4
73
-3
0
VERTEX
8
OBJECT031
10
0
20
0
30
0
70
128
71
-7
72
3
73
8
0
VERTEX
8
OBJECT031
10
0
20
0
30
0
70
128
71
8
72
3
73
-2
0
VERTEX
8
OBJECT031
10
0
20
0
30
0
70
128
71
-8
72
2
73
5
0
VERTEX
8
OBJECT031
10
0
20
0
30
0
70
128
71
6
72
1
73
-4
0
VERTEX
8
OBJECT031
10
0
20
0
30
0
70
128
71
-6
72
4
73
7
0
SEQEND
8
OBJECT031
0
POLYLINE
8
OBJECT032
66
1
70
64
71
8
72
12
62
50
0
VERTEX
8
OBJECT032
10
80.000000
20
-256.000000
30
-128.000000
70
192
0
VERTEX
8
OBJECT032
10
80.000000
20
-240.000000
30
-128.000000
70
192
0
VERTEX
8
OBJECT032
10
192.000000
20
-240.000000
30
-128.000000
70
192
0
VERTEX
8
OBJECT032
10
192.000000
20
-256.000000
30
-128.000000
70
192
0
VERTEX
8
OBJECT032
10
80.000000
20
-240.000000
30
-240.000000
70
192
0
VERTEX
8
OBJECT032
10
80.000000
20
-256.000000
30
-240.000000
70
192
0
VERTEX
8
OBJECT032
10
192.000000
20
-256.000000
30
-240.000000
70
192
0
VERTEX
8
OBJECT032
10
192.000000
20
-240.000000
30
-240.000000
70
192
0
VERTEX
8
OBJECT032
10
0
20
0
30
0
70
128
71
2
72
3
73
-4
0
VERTEX
8
OBJECT032
10
0
20
0
30
0
70
128
71
-2
72
4
73
1
0
VERTEX
8
OBJECT032
10
0
20
0
30
0
70
128
71
6
72
7
73
-8
0
VERTEX
8
OBJECT032
10
0
20
0
30
0
70
128
71
-6
72
8
73
5
0
VERTEX
8
OBJECT032
10
0
20
0
30
0
70
128
71
5
72
2
73
-1
0
VERTEX
8
OBJECT032
10
0
20
0
30
0
70
128
71
-5
72
1
73
6
0
VERTEX
8
OBJECT032
10
0
20
0
30
0
70
128
71
7
72
4
73
-3
0
VERTEX
8
OBJECT032
10
0
20
0
30
0
70
128
71
-7
72
3
73
8
0
VERTEX
8
OBJECT032
10
0
20
0
30
0
70
128
71
8
72
3
73
-2
0
VERTEX
8
OBJECT032
10
0
20
0
30
0
70
128
71
-8
72
2
73
5
0
VERTEX
8
OBJECT032
10
0
20
0
30
0
70
128
71
6
72
1
73
-4
0
VERTEX
8
OBJECT032
10
0
20
0
30
0
70
128
71
-6
72
4
73
7
0
SEQEND
8
OBJECT032
0
POLYLINE
8
OBJECT033
66
1
70
64
71
8
72
12
62
50
0
VERTEX
8
OBJECT033
10
80.000000
20
-272.000000
30
-144.000000
70
192
0
VERTEX
8
OBJECT033
10
80.000000
20
-256.000000
30
-144.000000
70
192
0
VERTEX
8
OBJECT033
10
192.000000
20
-256.000000
30
-144.000000
70
192
0
VERTEX
8
OBJECT033
10
192.000000
20
-272.000000
30
-144.000000
70
192
0
VERTEX
8
OBJECT033
10
80.000000
20
-256.000000
30
-240.000000
70
192
0
VERTEX
8
OBJECT033
10
80.000000
20
-272.000000
30
-240.000000
70
192
0
VERTEX
8
OBJECT033
10
192.000000
20
-272.000000
30
-240.000000
70
192
0
VERTEX
8
OBJECT033
10
192.000000
20
-256.000000
30
-240.000000
70
192
0
VERTEX
8
OBJECT033
10
0
20
0
30
0
70
128
71
2
72
3
73
-4
0
VERTEX
8
OBJECT033
10
0
20
0
30
0
70
128
71
-2
72
4
73
1
0
VERTEX
8
OBJECT033
10
0
20
0
30
0
70
128
71
6
72
7
73
-8
0
VERTEX
8
OBJECT033
10
0
20
0
30
0
70
128
71
-6
72
8
73
5
0
VERTEX
8
OBJECT033
10
0
20
0
30
0
70
128
71
5
72
2
73
-1
0
VERTEX
8
OBJECT033
10
0
20
0
30
0
70
128
71
-5
72
1
73
6
0
VERTEX
8
OBJECT033
10
0
20
0
30
0
70
128
71
7
72
4
73
-3
0
VERTEX
8
OBJECT033
10
0
20
0
30
0
70
128
71
-7
72
3
73
8
0
VERTEX
8
OBJECT033
10
0
20
0
30
0
70
128
71
8
72
3
73
-2
0
VERTEX
8
OBJECT033
10
0
20
0
30
0
70
128
71
-8
72
2
73
5
0
VERTEX
8
OBJECT033
10
0
20
0
30
0
70
128
71
6
72
1
73
-4
0
VERTEX
8
OBJECT033
10
0
20
0
30
0
70
128
71
-6
72
4
73
7
0
SEQEND
8
OBJECT033
0
POLYLINE
8
OBJECT034
66
1
70
64
71
8
72
12
62
50
0
VERTEX
8
OBJECT034
10
80.000000
20
-288.000000
30
-160.000000
70
192
0
VERTEX
8
OBJECT034
10
80.000000
20
-272.000000
30
-160.000000
70
192
0
VERTEX
8
OBJECT034
10
192.000000
20
-272.000000
30
-160.000000
70
192
0
VERTEX
8
OBJECT034
10
192.000000
20
-288.000000
30
-160.000000
70
192
0
VERTEX
8
OBJECT034
10
80.000000
20
-272.000000
30
-240.000000
70
192
0
VERTEX
8
OBJECT034
10
80.000000
20
-288.000000
30
-240.000000
70
192
0
VERTEX
8
OBJECT034
10
192.000000
20
-288.000000
30
-240.000000
70
192
0
VERTEX
8
OBJECT034
10
192.000000
20
-272.000000
30
-240.000000
70
192
0
VERTEX
8
OBJECT034
10
0
20
0
30
0
70
128
71
2
72
3
73
-4
0
VERTEX
8
OBJECT034
10
0
20
0
30
0
70
128
71
-2
72
4
73
1
0
VERTEX
8
OBJECT034
10
0
20
0
30
0
70
128
71
6
72
7
73
-8
0
VERTEX
8
OBJECT034
10
0
20
0
30
0
70
128
71
-6
72
8
73
5
0
VERTEX
8
OBJECT034
10
0
20
0
30
0
70
128
71
5
72
2
73
-1
0
VERTEX
8
OBJECT034
10
0
20
0
30
0
70
128
71
-5
72
1
73
6
0
VERTEX
8
OBJECT034
10
0
20
0
30
0
70
128
71
7
72
4
73
-3
0
VERTEX
8
OBJECT034
10
0
20
0
30
0
70
128
71
-7
72
3
73
8
0
VERTEX
8
OBJECT034
10
0
20
0
30
0
70
128
71
8
72
3
73
-2
0
VERTEX
8
OBJECT034
10
0
20
0
30
0
70
128
71
-8
72
2
73
5
0
VERTEX
8
OBJECT034
10
0
20
0
30
0
70
128
71
6
72
1
73
-4
0
VERTEX
8
OBJECT034
10
0
20
0
30
0
70
128
71
-6
72
4
73
7
0
SEQEND
8
OBJECT034
0
POLYLINE
8
OBJECT035
66
1
70
64
71
8
72
12
62
50
0
VERTEX
8
OBJECT035
10
80.000000
20
-304.000000
30
-176.000000
70
192
0
VERTEX
8
OBJECT035
10
80.000000
20
-288.000000
30
-176.000000
70
192
0
VERTEX
8
OBJECT035
10
192.000000
20
-288.000000
30
-176.000000
70
192
0
VERTEX
8
OBJECT035
10
192.000000
20
-304.000000
30
-176.000000
70
192
0
VERTEX
8
OBJECT035
10
80.000000
20
-288.000000
30
-240.000000
70
192
0
VERTEX
8
OBJECT035
10
80.000000
20
-304.000000
30
-240.000000
70
192
0
VERTEX
8
OBJECT035
10
192.000000
20
-304.000000
30
-240.000000
70
192
0
VERTEX
8
OBJECT035
10
192.000000
20
-288.000000
30
-240.000000
70
192
0
VERTEX
8
OBJECT035
10
0
20
0
30
0
70
128
71
2
72
3
73
-4
0
VERTEX
8
OBJECT035
10
0
20
0
30
0
70
128
71
-2
72
4
73
1
0
VERTEX
8
OBJECT035
10
0
20
0
30
0
70
128
71
6
72
7
73
-8
0
VERTEX
8
OBJECT035
10
0
20
0
30
0
70
128
71
-6
72
8
73
5
0
VERTEX
8
OBJECT035
10
0
20
0
30
0
70
128
71
5
72
2
73
-1
0
VERTEX
8
OBJECT035
10
0
20
0
30
0
70
128
71
-5
72
1
73
6
0
VERTEX
8
OBJECT035
10
0
20
0
30
0
70
128
71
7
72
4
73
-3
0
VERTEX
8
OBJECT035
10
0
20
0
30
0
70
128
71
-7
72
3
73
8
0
VERTEX
8
OBJECT035
10
0
20
0
30
0
70
128
71
8
72
3
73
-2
0
VERTEX
8
OBJECT035
10
0
20
0
30
0
70
128
71
-8
72
2
73
5
0
VERTEX
8
OBJECT035
10
0
20
0
30
0
70
128
71
6
72
1
73
-4
0
VERTEX
8
OBJECT035
10
0
20
0
30
0
70
128
71
-6
72
4
73
7
0
SEQEND
8
OBJECT035
0
POLYLINE
8
OBJECT036
66
1
70
64
71
8
72
12
62
50
0
VERTEX
8
OBJECT036
10
80.000000
20
-320.000000
30
-192.000000
70
192
0
VERTEX
8
OBJECT036
10
80.000000
20
-304.000000
30
-192.000000
70
192
0
VERTEX
8
OBJECT036
10
192.000000
20
-304.000000
30
-192.000000
70
192
0
VERTEX
8
OBJECT036
10
192.000000
20
-320.000000
30
-192.000000
70
192
0
VERTEX
8
OBJECT036
10
80.000000
20
-304.000000
30
-240.000000
70
192
0
VERTEX
8
OBJECT036
10
80.000000
20
-320.000000
30
-240.000000
70
192
0
VERTEX
8
OBJECT036
10
192.000000
20
-320.000000
30
-240.000000
70
192
0
VERTEX
8
OBJECT036
10
192.000000
20
-304.000000
30
-240.000000
70
192
0
VERTEX
8
OBJECT036
10
0
20
0
30
0
70
128
71
2
72
3
73
-4
0
VERTEX
8
OBJECT036
10
0
20
0
30
0
70
128
71
-2
72
4
73
1
0
VERTEX
8
OBJECT036
10
0
20
0
30
0
70
128
71
6
72
7
73
-8
0
VERTEX
8
OBJECT036
10
0
20
0
30
0
70
128
71
-6
72
8
73
5
0
VERTEX
8
OBJECT036
10
0
20
0
30
0
70
128
71
5
72
2
73
-1
0
VERTEX
8
OBJECT036
10
0
20
0
30
0
70
128
71
-5
72
1
73
6
0
VERTEX
8
OBJECT036
10
0
20
0
30
0
70
128
71
7
72
4
73
-3
0
VERTEX
8
OBJECT036
10
0
20
0
30
0
70
128
71
-7
72
3
73
8
0
VERTEX
8
OBJECT036
10
0
20
0
30
0
70
128
71
8
72
3
73
-2
0
VERTEX
8
OBJECT036
10
0
20
0
30
0
70
128
71
-8
72
2
73
5
0
VERTEX
8
OBJECT036
10
0
20
0
30
0
70
128
71
6
72
1
73
-4
0
VERTEX
8
OBJECT036
10
0
20
0
30
0
70
128
71
-6
72
4
73
7
0
SEQEND
8
OBJECT036
0
POLYLINE
8
OBJECT037
66
1
70
64
71
8
72
12
62
50
0
VERTEX
8
OBJECT037
10
80.000000
20
-336.000000
30
-208.000000
70
192
0
VERTEX
8
OBJECT037
10
80.000000
20
-320.000000
30
-208.000000
70
192
0
VERTEX
8
OBJECT037
10
192.000000
20
-320.000000
30
-208.000000
70
192
0
VERTEX
8
OBJECT037
10
192.000000
20
-336.000000
30
-208.000000
70
192
0
VERTEX
8
OBJECT037
10
80.000000
20
-320.000000
30
-240.000000
70
192
0
VERTEX
8
OBJECT037
10
80.000000
20
-336.000000
30
-240.000000
70
192
0
VERTEX
8
OBJECT037
10
192.000000
20
-336.000000
30
-240.000000
70
192
0
VERTEX
8
OBJECT037
10
192.000000
20
-320.000000
30
-240.000000
70
192
0
VERTEX
8
OBJECT037
10
0
20
0
30
0
70
128
71
2
72
3
73
-4
0
VERTEX
8
OBJECT037
10
0
20
0
30
0
70
128
71
-2
72
4
73
1
0
VERTEX
8
OBJECT037
10
0
20
0
30
0
70
128
71
6
72
7
73
-8
0
VERTEX
8
OBJECT037
10
0
20
0
30
0
70
128
71
-6
72
8
73
5
0
VERTEX
8
OBJECT037
10
0
20
0
30
0
70
128
71
5
72
2
73
-1
0
VERTEX
8
OBJECT037
10
0
20
0
30
0
70
128
71
-5
72
1
73
6
0
VERTEX
8
OBJECT037
10
0
20
0
30
0
70
128
71
7
72
4
73
-3
0
VERTEX
8
OBJECT037
10
0
20
0
30
0
70
128
71
-7
72
3
73
8
0
VERTEX
8
OBJECT037
10
0
20
0
30
0
70
128
71
8
72
3
73
-2
0
VERTEX
8
OBJECT037
10
0
20
0
30
0
70
128
71
-8
72
2
73
5
0
VERTEX
8
OBJECT037
10
0
20
0
30
0
70
128
71
6
72
1
73
-4
0
VERTEX
8
OBJECT037
10
0
20
0
30
0
70
128
71
-6
72
4
73
7
0
SEQEND
8
OBJECT037
0
POLYLINE
8
OBJECT038
66
1
70
64
71
8
72
12
62
50
0
VERTEX
8
OBJECT038
10
80.000000
20
-352.000000
30
-224.000000
70
192
0
VERTEX
8
OBJECT038
10
80.000000
20
-336.000000
30
-224.000000
70
192
0
VERTEX
8
OBJECT038
10
192.000000
20
-336.000000
30
-224.000000
70
192
0
VERTEX
8
OBJECT038
10
192.000000
20
-352.000000
30
-224.000000
70
192
0
VERTEX
8
OBJECT038
10
80.000000
20
-336.000000
30
-240.000000
70
192
0
VERTEX
8
OBJECT038
10
80.000000
20
-352.000000
30
-240.000000
70
192
0
VERTEX
8
OBJECT038
10
192.000000
20
-352.000000
30
-240.000000
70
192
0
VERTEX
8
OBJECT038
10
192.000000
20
-336.000000
30
-240.000000
70
192
0
VERTEX
8
OBJECT038
10
0
20
0
30
0
70
128
71
2
72
3
73
-4
0
VERTEX
8
OBJECT038
10
0
20
0
30
0
70
128
71
-2
72
4
73
1
0
VERTEX
8
OBJECT038
10
0
20
0
30
0
70
128
71
6
72
7
73
-8
0
VERTEX
8
OBJECT038
10
0
20
0
30
0
70
128
71
-6
72
8
73
5
0
VERTEX
8
OBJECT038
10
0
20
0
30
0
70
128
71
5
72
2
73
-1
0
VERTEX
8
OBJECT038
10
0
20
0
30
0
70
128
71
-5
72
1
73
6
0
VERTEX
8
OBJECT038
10
0
20
0
30
0
70
128
71
7
72
4
73
-3
0
VERTEX
8
OBJECT038
10
0
20
0
30
0
70
128
71
-7
72
3
73
8
0
VERTEX
8
OBJECT038
10
0
20
0
30
0
70
128
71
8
72
3
73
-2
0
VERTEX
8
OBJECT038
10
0
20
0
30
0
70
128
71
-8
72
2
73
5
0
VERTEX
8
OBJECT038
10
0
20
0
30
0
70
128
71
6
72
1
73
-4
0
VERTEX
8
OBJECT038
10
0
20
0
30
0
70
128
71
-6
72
4
73
7
0
SEQEND
8
OBJECT038
0
POLYLINE
8
OBJECT039
66
1
70
64
71
8
72
12
62
50
0
VERTEX
8
OBJECT039
10
-48.000000
20
-472.000000
30
-104.000000
70
192
0
VERTEX
8
OBJECT039
10
-48.000000
20
-304.000000
30
-104.000000
70
192
0
VERTEX
8
OBJECT039
10
-32.000000
20
-304.000000
30
-104.000000
70
192
0
VERTEX
8
OBJECT039
10
-32.000000
20
-472.000000
30
-104.000000
70
192
0
VERTEX
8
OBJECT039
10
-48.000000
20
-304.000000
30
-120.000000
70
192
0
VERTEX
8
OBJECT039
10
-48.000000
20
-472.000000
30
-120.000000
70
192
0
VERTEX
8
OBJECT039
10
-32.000000
20
-472.000000
30
-120.000000
70
192
0
VERTEX
8
OBJECT039
10
-32.000000
20
-304.000000
30
-120.000000
70
192
0
VERTEX
8
OBJECT039
10
0
20
0
30
0
70
128
71
2
72
3
73
-4
0
VERTEX
8
OBJECT039
10
0
20
0
30
0
70
128
71
-2
72
4
73
1
0
VERTEX
8
OBJECT039
10
0
20
0
30
0
70
128
71
6
72
7
73
-8
0
VERTEX
8
OBJECT039
10
0
20
0
30
0
70
128
71
-6
72
8
73
5
0
VERTEX
8
OBJECT039
10
0
20
0
30
0
70
128
71
5
72
2
73
-1
0
VERTEX
8
OBJECT039
10
0
20
0
30
0
70
128
71
-5
72
1
73
6
0
VERTEX
8
OBJECT039
10
0
20
0
30
0
70
128
71
7
72
4
73
-3
0
VERTEX
8
OBJECT039
10
0
20
0
30
0
70
128
71
-7
72
3
73
8
0
VERTEX
8
OBJECT039
10
0
20
0
30
0
70
128
71
8
72
3
73
-2
0
VERTEX
8
OBJECT039
10
0
20
0
30
0
70
128
71
-8
72
2
73
5
0
VERTEX
8
OBJECT039
10
0
20
0
30
0
70
128
71
6
72
1
73
-4
0
VERTEX
8
OBJECT039
10
0
20
0
30
0
70
128
71
-6
72
4
73
7
0
SEQEND
8
OBJECT039
0
POLYLINE
8
OBJECT040
66
1
70
64
71
8
72
12
62
50
0
VERTEX
8
OBJECT040
10
-48.000000
20
-304.000000
30
-48.000000
70
192
0
VERTEX
8
OBJECT040
10
-48.000000
20
-288.000000
30
-48.000000
70
192
0
VERTEX
8
OBJECT040
10
-32.000000
20
-288.000000
30
-48.000000
70
192
0
VERTEX
8
OBJECT040
10
-32.000000
20
-304.000000
30
-48.000000
70
192
0
VERTEX
8
OBJECT040
10
-48.000000
20
-288.000000
30
-240.000000
70
192
0
VERTEX
8
OBJECT040
10
-48.000000
20
-304.000000
30
-240.000000
70
192
0
VERTEX
8
OBJECT040
10
-32.000000
20
-304.000000
30
-240.000000
70
192
0
VERTEX
8
OBJECT040
10
-32.000000
20
-288.000000
30
-240.000000
70
192
0
VERTEX
8
OBJECT040
10
0
20
0
30
0
70
128
71
2
72
3
73
-4
0
VERTEX
8
OBJECT040
10
0
20
0
30
0
70
128
71
-2
72
4
73
1
0
VERTEX
8
OBJECT040
10
0
20
0
30
0
70
128
71
6
72
7
73
-8
0
VERTEX
8
OBJECT040
10
0
20
0
30
0
70
128
71
-6
72
8
73
5
0
VERTEX
8
OBJECT040
10
0
20
0
30
0
70
128
71
5
72
2
73
-1
0
VERTEX
8
OBJECT040
10
0
20
0
30
0
70
128
71
-5
72
1
73
6
0
VERTEX
8
OBJECT040
10
0
20
0
30
0
70
128
71
7
72
4
73
-3
0
VERTEX
8
OBJECT040
10
0
20
0
30
0
70
128
71
-7
72
3
73
8
0
VERTEX
8
OBJECT040
10
0
20
0
30
0
70
128
71
8
72
3
73
-2
0
VERTEX
8
OBJECT040
10
0
20
0
30
0
70
128
71
-8
72
2
73
5
0
VERTEX
8
OBJECT040
10
0
20
0
30
0
70
128
71
6
72
1
73
-4
0
VERTEX
8
OBJECT040
10
0
20
0
30
0
70
128
71
-6
72
4
73
7
0
SEQEND
8
OBJECT040
0
POLYLINE
8
OBJECT041
66
1
70
64
71
8
72
12
62
50
0
VERTEX
8
OBJECT041
10
-48.000000
20
-488.000000
30
-48.000000
70
192
0
VERTEX
8
OBJECT041
10
-48.000000
20
-472.000000
30
-48.000000
70
192
0
VERTEX
8
OBJECT041
10
-32.000000
20
-472.000000
30
-48.000000
70
192
0
VERTEX
8
OBJECT041
10
-32.000000
20
-488.000000
30
-48.000000
70
192
0
VERTEX
8
OBJECT041
10
-48.000000
20
-472.000000
30
-240.000000
70
192
0
VERTEX
8
OBJECT041
10
-48.000000
20
-488.000000
30
-240.000000
70
192
0
VERTEX
8
OBJECT041
10
-32.000000
20
-488.000000
30
-240.000000
70
192
0
VERTEX
8
OBJECT041
10
-32.000000
20
-472.000000
30
-240.000000
70
192
0
VERTEX
8
OBJECT041
10
0
20
0
30
0
70
128
71
2
72
3
73
-4
0
VERTEX
8
OBJECT041
10
0
20
0
30
0
70
128
71
-2
72
4
73
1
0
VERTEX
8
OBJECT041
10
0
20
0
30
0
70
128
71
6
72
7
73
-8
0
VERTEX
8
OBJECT041
10
0
20
0
30
0
70
128
71
-6
72
8
73
5
0
VERTEX
8
OBJECT041
10
0
20
0
30
0
70
128
71
5
72
2
73
-1
0
VERTEX
8
OBJECT041
10
0
20
0
30
0
70
128
71
-5
72
1
73
6
0
VERTEX
8
OBJECT041
10
0
20
0
30
0
70
128
71
7
72
4
73
-3
0
VERTEX
8
OBJECT041
10
0
20
0
30
0
70
128
71
-7
72
3
73
8
0
VERTEX
8
OBJECT041
10
0
20
0
30
0
70
128
71
8
72
3
73
-2
0
VERTEX
8
OBJECT041
10
0
20
0
30
0
70
128
71
-8
72
2
73
5
0
VERTEX
8
OBJECT041
10
0
20
0
30
0
70
128
71
6
72
1
73
-4
0
VERTEX
8
OBJECT041
10
0
20
0
30
0
70
128
71
-6
72
4
73
7
0
SEQEND
8
OBJECT041
0
POLYLINE
8
OBJECT042
66
1
70
64
71
8
72
12
62
50
0
VERTEX
8
OBJECT042
10
-48.000000
20
0.000000
30
-48.000000
70
192
0
VERTEX
8
OBJECT042
10
-48.000000
20
32.000000
30
-48.000000
70
192
0
VERTEX
8
OBJECT042
10
-16.000000
20
32.000000
30
-48.000000
70
192
0
VERTEX
8
OBJECT042
10
-16.000000
20
0.000000
30
-48.000000
70
192
0
VERTEX
8
OBJECT042
10
-48.000000
20
32.000000
30
-240.000000
70
192
0
VERTEX
8
OBJECT042
10
-48.000000
20
0.000000
30
-240.000000
70
192
0
VERTEX
8
OBJECT042
10
-16.000000
20
0.000000
30
-240.000000
70
192
0
VERTEX
8
OBJECT042
10
-16.000000
20
32.000000
30
-240.000000
70
192
0
VERTEX
8
OBJECT042
10
0
20
0
30
0
70
128
71
2
72
3
73
-4
0
VERTEX
8
OBJECT042
10
0
20
0
30
0
70
128
71
-2
72
4
73
1
0
VERTEX
8
OBJECT042
10
0
20
0
30
0
70
128
71
6
72
7
73
-8
0
VERTEX
8
OBJECT042
10
0
20
0
30
0
70
128
71
-6
72
8
73
5
0
VERTEX
8
OBJECT042
10
0
20
0
30
0
70
128
71
5
72
2
73
-1
0
VERTEX
8
OBJECT042
10
0
20
0
30
0
70
128
71
-5
72
1
73
6
0
VERTEX
8
OBJECT042
10
0
20
0
30
0
70
128
71
7
72
4
73
-3
0
VERTEX
8
OBJECT042
10
0
20
0
30
0
70
128
71
-7
72
3
73
8
0
VERTEX
8
OBJECT042
10
0
20
0
30
0
70
128
71
8
72
3
73
-2
0
VERTEX
8
OBJECT042
10
0
20
0
30
0
70
128
71
-8
72
2
73
5
0
VERTEX
8
OBJECT042
10
0
20
0
30
0
70
128
71
6
72
1
73
-4
0
VERTEX
8
OBJECT042
10
0
20
0
30
0
70
128
71
-6
72
4
73
7
0
SEQEND
8
OBJECT042
0
POLYLINE
8
OBJECT043
66
1
70
64
71
8
72
12
62
50
0
VERTEX
8
OBJECT043
10
-512.000000
20
-512.000000
30
224.000000
70
192
0
VERTEX
8
OBJECT043
10
-512.000000
20
-488.000000
30
224.000000
70
192
0
VERTEX
8
OBJECT043
10
256.000000
20
-488.000000
30
224.000000
70
192
0
VERTEX
8
OBJECT043
10
256.000000
20
-512.000000
30
224.000000
70
192
0
VERTEX
8
OBJECT043
10
-512.000000
20
-488.000000
30
208.000000
70
192
0
VERTEX
8
OBJECT043
10
-512.000000
20
-512.000000
30
208.000000
70
192
0
VERTEX
8
OBJECT043
10
256.000000
20
-512.000000
30
208.000000
70
192
0
VERTEX
8
OBJECT043
10
256.000000
20
-488.000000
30
208.000000
70
192
0
VERTEX
8
OBJECT043
10
0
20
0
30
0
70
128
71
2
72
3
73
-4
0
VERTEX
8
OBJECT043
10
0
20
0
30
0
70
128
71
-2
72
4
73
1
0
VERTEX
8
OBJECT043
10
0
20
0
30
0
70
128
71
6
72
7
73
-8
0
VERTEX
8
OBJECT043
10
0
20
0
30
0
70
128
71
-6
72
8
73
5
0
VERTEX
8
OBJECT043
10
0
20
0
30
0
70
128
71
5
72
2
73
-1
0
VERTEX
8
OBJECT043
10
0
20
0
30
0
70
128
71
-5
72
1
73
6
0
VERTEX
8
OBJECT043
10
0
20
0
30
0
70
128
71
7
72
4
73
-3
0
VERTEX
8
OBJECT043
10
0
20
0
30
0
70
128
71
-7
72
3
73
8
0
VERTEX
8
OBJECT043
10
0
20
0
30
0
70
128
71
8
72
3
73
-2
0
VERTEX
8
OBJECT043
10
0
20
0
30
0
70
128
71
-8
72
2
73
5
0
VERTEX
8
OBJECT043
10
0
20
0
30
0
70
128
71
6
72
1
73
-4
0
VERTEX
8
OBJECT043
10
0
20
0
30
0
70
128
71
-6
72
4
73
7
0
SEQEND
8
OBJECT043
0
POLYLINE
8
OBJECT044
66
1
70
64
71
8
72
12
62
50
0
VERTEX
8
OBJECT044
10
-464.000000
20
-512.000000
30
-24.000000
70
192
0
VERTEX
8
OBJECT044
10
-464.000000
20
-488.000000
30
-24.000000
70
192
0
VERTEX
8
OBJECT044
10
208.000000
20
-488.000000
30
-24.000000
70
192
0
VERTEX
8
OBJECT044
10
208.000000
20
-512.000000
30
-24.000000
70
192
0
VERTEX
8
OBJECT044
10
-464.000000
20
-488.000000
30
-40.000000
70
192
0
VERTEX
8
OBJECT044
10
-464.000000
20
-512.000000
30
-40.000000
70
192
0
VERTEX
8
OBJECT044
10
208.000000
20
-512.000000
30
-40.000000
70
192
0
VERTEX
8
OBJECT044
10
208.000000
20
-488.000000
30
-40.000000
70
192
0
VERTEX
8
OBJECT044
10
0
20
0
30
0
70
128
71
2
72
3
73
-4
0
VERTEX
8
OBJECT044
10
0
20
0
30
0
70
128
71
-2
72
4
73
1
0
VERTEX
8
OBJECT044
10
0
20
0
30
0
70
128
71
6
72
7
73
-8
0
VERTEX
8
OBJECT044
10
0
20
0
30
0
70
128
71
-6
72
8
73
5
0
VERTEX
8
OBJECT044
10
0
20
0
30
0
70
128
71
5
72
2
73
-1
0
VERTEX
8
OBJECT044
10
0
20
0
30
0
70
128
71
-5
72
1
73
6
0
VERTEX
8
OBJECT044
10
0
20
0
30
0
70
128
71
7
72
4
73
-3
0
VERTEX
8
OBJECT044
10
0
20
0
30
0
70
128
71
-7
72
3
73
8
0
VERTEX
8
OBJECT044
10
0
20
0
30
0
70
128
71
8
72
3
73
-2
0
VERTEX
8
OBJECT044
10
0
20
0
30
0
70
128
71
-8
72
2
73
5
0
VERTEX
8
OBJECT044
10
0
20
0
30
0
70
128
71
6
72
1
73
-4
0
VERTEX
8
OBJECT044
10
0
20
0
30
0
70
128
71
-6
72
4
73
7
0
SEQEND
8
OBJECT044
0
POLYLINE
8
OBJECT045
66
1
70
64
71
8
72
12
62
50
0
VERTEX
8
OBJECT045
10
-512.000000
20
-512.000000
30
-240.000000
70
192
0
VERTEX
8
OBJECT045
10
-512.000000
20
-488.000000
30
-240.000000
70
192
0
VERTEX
8
OBJECT045
10
256.000000
20
-488.000000
30
-240.000000
70
192
0
VERTEX
8
OBJECT045
10
256.000000
20
-512.000000
30
-240.000000
70
192
0
VERTEX
8
OBJECT045
10
-512.000000
20
-488.000000
30
-256.000000
70
192
0
VERTEX
8
OBJECT045
10
-512.000000
20
-512.000000
30
-256.000000
70
192
0
VERTEX
8
OBJECT045
10
256.000000
20
-512.000000
30
-256.000000
70
192
0
VERTEX
8
OBJECT045
10
256.000000
20
-488.000000
30
-256.000000
70
192
0
VERTEX
8
OBJECT045
10
0
20
0
30
0
70
128
71
2
72
3
73
-4
0
VERTEX
8
OBJECT045
10
0
20
0
30
0
70
128
71
-2
72
4
73
1
0
VERTEX
8
OBJECT045
10
0
20
0
30
0
70
128
71
6
72
7
73
-8
0
VERTEX
8
OBJECT045
10
0
20
0
30
0
70
128
71
-6
72
8
73
5
0
VERTEX
8
OBJECT045
10
0
20
0
30
0
70
128
71
5
72
2
73
-1
0
VERTEX
8
OBJECT045
10
0
20
0
30
0
70
128
71
-5
72
1
73
6
0
VERTEX
8
OBJECT045
10
0
20
0
30
0
70
128
71
7
72
4
73
-3
0
VERTEX
8
OBJECT045
10
0
20
0
30
0
70
128
71
-7
72
3
73
8
0
VERTEX
8
OBJECT045
10
0
20
0
30
0
70
128
71
8
72
3
73
-2
0
VERTEX
8
OBJECT045
10
0
20
0
30
0
70
128
71
-8
72
2
73
5
0
VERTEX
8
OBJECT045
10
0
20
0
30
0
70
128
71
6
72
1
73
-4
0
VERTEX
8
OBJECT045
10
0
20
0
30
0
70
128
71
-6
72
4
73
7
0
SEQEND
8
OBJECT045
0
POLYLINE
8
OBJECT046
66
1
70
64
71
8
72
12
62
50
0
VERTEX
8
OBJECT046
10
-464.000000
20
-488.000000
30
-24.000000
70
192
0
VERTEX
8
OBJECT046
10
-464.000000
20
32.000000
30
-24.000000
70
192
0
VERTEX
8
OBJECT046
10
-48.000000
20
32.000000
30
-24.000000
70
192
0
VERTEX
8
OBJECT046
10
-48.000000
20
-488.000000
30
-24.000000
70
192
0
VERTEX
8
OBJECT046
10
-464.000000
20
32.000000
30
-40.000000
70
192
0
VERTEX
8
OBJECT046
10
-464.000000
20
-488.000000
30
-40.000000
70
192
0
VERTEX
8
OBJECT046
10
-48.000000
20
-488.000000
30
-40.000000
70
192
0
VERTEX
8
OBJECT046
10
-48.000000
20
32.000000
30
-40.000000
70
192
0
VERTEX
8
OBJECT046
10
0
20
0
30
0
70
128
71
2
72
3
73
-4
0
VERTEX
8
OBJECT046
10
0
20
0
30
0
70
128
71
-2
72
4
73
1
0
VERTEX
8
OBJECT046
10
0
20
0
30
0
70
128
71
6
72
7
73
-8
0
VERTEX
8
OBJECT046
10
0
20
0
30
0
70
128
71
-6
72
8
73
5
0
VERTEX
8
OBJECT046
10
0
20
0
30
0
70
128
71
5
72
2
73
-1
0
VERTEX
8
OBJECT046
10
0
20
0
30
0
70
128
71
-5
72
1
73
6
0
VERTEX
8
OBJECT046
10
0
20
0
30
0
70
128
71
7
72
4
73
-3
0
VERTEX
8
OBJECT046
10
0
20
0
30
0
70
128
71
-7
72
3
73
8
0
VERTEX
8
OBJECT046
10
0
20
0
30
0
70
128
71
8
72
3
73
-2
0
VERTEX
8
OBJECT046
10
0
20
0
30
0
70
128
71
-8
72
2
73
5
0
VERTEX
8
OBJECT046
10
0
20
0
30
0
70
128
71
6
72
1
73
-4
0
VERTEX
8
OBJECT046
10
0
20
0
30
0
70
128
71
-6
72
4
73
7
0
SEQEND
8
OBJECT046
0
POLYLINE
8
OBJECT047
66
1
70
64
71
8
72
12
62
50
0
VERTEX
8
OBJECT047
10
-48.000000
20
-488.000000
30
-16.000000
70
192
0
VERTEX
8
OBJECT047
10
-48.000000
20
32.000000
30
-16.000000
70
192
0
VERTEX
8
OBJECT047
10
80.000000
20
32.000000
30
-16.000000
70
192
0
VERTEX
8
OBJECT047
10
80.000000
20
-488.000000
30
-16.000000
70
192
0
VERTEX
8
OBJECT047
10
-48.000000
20
32.000000
30
-48.000000
70
192
0
VERTEX
8
OBJECT047
10
-48.000000
20
-488.000000
30
-48.000000
70
192
0
VERTEX
8
OBJECT047
10
80.000000
20
-488.000000
30
-48.000000
70
192
0
VERTEX
8
OBJECT047
10
80.000000
20
32.000000
30
-48.000000
70
192
0
VERTEX
8
OBJECT047
10
0
20
0
30
0
70
128
71
2
72
3
73
-4
0
VERTEX
8
OBJECT047
10
0
20
0
30
0
70
128
71
-2
72
4
73
1
0
VERTEX
8
OBJECT047
10
0
20
0
30
0
70
128
71
6
72
7
73
-8
0
VERTEX
8
OBJECT047
10
0
20
0
30
0
70
128
71
-6
72
8
73
5
0
VERTEX
8
OBJECT047
10
0
20
0
30
0
70
128
71
5
72
2
73
-1
0
VERTEX
8
OBJECT047
10
0
20
0
30
0
70
128
71
-5
72
1
73
6
0
VERTEX
8
OBJECT047
10
0
20
0
30
0
70
128
71
7
72
4
73
-3
0
VERTEX
8
OBJECT047
10
0
20
0
30
0
70
128
71
-7
72
3
73
8
0
VERTEX
8
OBJECT047
10
0
20
0
30
0
70
128
71
8
72
3
73
-2
0
VERTEX
8
OBJECT047
10
0
20
0
30
0
70
128
71
-8
72
2
73
5
0
VERTEX
8
OBJECT047
10
0
20
0
30
0
70
128
71
6
72
1
73
-4
0
VERTEX
8
OBJECT047
10
0
20
0
30
0
70
128
71
-6
72
4
73
7
0
SEQEND
8
OBJECT047
0
POLYLINE
8
OBJECT048
66
1
70
64
71
8
72
12
62
50
0
VERTEX
8
OBJECT048
10
64.000000
20
-488.000000
30
-24.000000
70
192
0
VERTEX
8
OBJECT048
10
64.000000
20
-320.000000
30
-24.000000
70
192
0
VERTEX
8
OBJECT048
10
192.000000
20
-320.000000
30
-24.000000
70
192
0
VERTEX
8
OBJECT048
10
192.000000
20
-488.000000
30
-24.000000
70
192
0
VERTEX
8
OBJECT048
10
64.000000
20
-320.000000
30
-48.000000
70
192
0
VERTEX
8
OBJECT048
10
64.000000
20
-488.000000
30
-48.000000
70
192
0
VERTEX
8
OBJECT048
10
192.000000
20
-488.000000
30
-48.000000
70
192
0
VERTEX
8
OBJECT048
10
192.000000
20
-320.000000
30
-48.000000
70
192
0
VERTEX
8
OBJECT048
10
0
20
0
30
0
70
128
71
2
72
3
73
-4
0
VERTEX
8
OBJECT048
10
0
20
0
30
0
70
128
71
-2
72
4
73
1
0
VERTEX
8
OBJECT048
10
0
20
0
30
0
70
128
71
6
72
7
73
-8
0
VERTEX
8
OBJECT048
10
0
20
0
30
0
70
128
71
-6
72
8
73
5
0
VERTEX
8
OBJECT048
10
0
20
0
30
0
70
128
71
5
72
2
73
-1
0
VERTEX
8
OBJECT048
10
0
20
0
30
0
70
128
71
-5
72
1
73
6
0
VERTEX
8
OBJECT048
10
0
20
0
30
0
70
128
71
7
72
4
73
-3
0
VERTEX
8
OBJECT048
10
0
20
0
30
0
70
128
71
-7
72
3
73
8
0
VERTEX
8
OBJECT048
10
0
20
0
30
0
70
128
71
8
72
3
73
-2
0
VERTEX
8
OBJECT048
10
0
20
0
30
0
70
128
71
-8
72
2
73
5
0
VERTEX
8
OBJECT048
10
0
20
0
30
0
70
128
71
6
72
1
73
-4
0
VERTEX
8
OBJECT048
10
0
20
0
30
0
70
128
71
-6
72
4
73
7
0
SEQEND
8
OBJECT048
0
POLYLINE
8
OBJECT049
66
1
70
64
71
8
72
12
62
50
0
VERTEX
8
OBJECT049
10
-48.000000
20
-128.000000
30
208.000000
70
192
0
VERTEX
8
OBJECT049
10
-48.000000
20
-32.000000
30
208.000000
70
192
0
VERTEX
8
OBJECT049
10
-32.000000
20
-32.000000
30
208.000000
70
192
0
VERTEX
8
OBJECT049
10
-32.000000
20
-128.000000
30
208.000000
70
192
0
VERTEX
8
OBJECT049
10
-48.000000
20
-32.000000
30
112.000000
70
192
0
VERTEX
8
OBJECT049
10
-48.000000
20
-128.000000
30
112.000000
70
192
0
VERTEX
8
OBJECT049
10
-32.000000
20
-128.000000
30
112.000000
70
192
0
VERTEX
8
OBJECT049
10
-32.000000
20
-32.000000
30
112.000000
70
192
0
VERTEX
8
OBJECT049
10
0
20
0
30
0
70
128
71
2
72
3
73
-4
0
VERTEX
8
OBJECT049
10
0
20
0
30
0
70
128
71
-2
72
4
73
1
0
VERTEX
8
OBJECT049
10
0
20
0
30
0
70
128
71
6
72
7
73
-8
0
VERTEX
8
OBJECT049
10
0
20
0
30
0
70
128
71
-6
72
8
73
5
0
VERTEX
8
OBJECT049
10
0
20
0
30
0
70
128
71
5
72
2
73
-1
0
VERTEX
8
OBJECT049
10
0
20
0
30
0
70
128
71
-5
72
1
73
6
0
VERTEX
8
OBJECT049
10
0
20
0
30
0
70
128
71
7
72
4
73
-3
0
VERTEX
8
OBJECT049
10
0
20
0
30
0
70
128
71
-7
72
3
73
8
0
VERTEX
8
OBJECT049
10
0
20
0
30
0
70
128
71
8
72
3
73
-2
0
VERTEX
8
OBJECT049
10
0
20
0
30
0
70
128
71
-8
72
2
73
5
0
VERTEX
8
OBJECT049
10
0
20
0
30
0
70
128
71
6
72
1
73
-4
0
VERTEX
8
OBJECT049
10
0
20
0
30
0
70
128
71
-6
72
4
73
7
0
SEQEND
8
OBJECT049
0
POLYLINE
8
OBJECT050
66
1
70
64
71
8
72
12
62
50
0
VERTEX
8
OBJECT050
10
-32.000000
20
-480.000000
30
208.000000
70
192
0
VERTEX
8
OBJECT050
10
-32.000000
20
-448.000000
30
208.000000
70
192
0
VERTEX
8
OBJECT050
10
208.000000
20
-448.000000
30
208.000000
70
192
0
VERTEX
8
OBJECT050
10
208.000000
20
-480.000000
30
208.000000
70
192
0
VERTEX
8
OBJECT050
10
-32.000000
20
-448.000000
30
168.000000
70
192
0
VERTEX
8
OBJECT050
10
-32.000000
20
-480.000000
30
168.000000
70
192
0
VERTEX
8
OBJECT050
10
208.000000
20
-480.000000
30
168.000000
70
192
0
VERTEX
8
OBJECT050
10
208.000000
20
-448.000000
30
168.000000
70
192
0
VERTEX
8
OBJECT050
10
0
20
0
30
0
70
128
71
2
72
3
73
-4
0
VERTEX
8
OBJECT050
10
0
20
0
30
0
70
128
71
-2
72
4
73
1
0
VERTEX
8
OBJECT050
10
0
20
0
30
0
70
128
71
2
72
1
73
-6
0
VERTEX
8
OBJECT050
10
0
20
0
30
0
70
128
71
-2
72
6
73
5
0
VERTEX
8
OBJECT050
10
0
20
0
30
0
70
128
71
4
72
3
73
-8
0
VERTEX
8
OBJECT050
10
0
20
0
30
0
70
128
71
-4
72
8
73
7
0
VERTEX
8
OBJECT050
10
0
20
0
30
0
70
128
71
3
72
2
73
-5
0
VERTEX
8
OBJECT050
10
0
20
0
30
0
70
128
71
-3
72
5
73
8
0
VERTEX
8
OBJECT050
10
0
20
0
30
0
70
128
71
1
72
4
73
-7
0
VERTEX
8
OBJECT050
10
0
20
0
30
0
70
128
71
-1
72
7
73
6
0
VERTEX
8
OBJECT050
10
0
20
0
30
0
70
128
71
6
72
7
73
-8
0
VERTEX
8
OBJECT050
10
0
20
0
30
0
70
128
71
-6
72
8
73
5
0
SEQEND
8
OBJECT050
0
POLYLINE
8
OBJECT051
66
1
70
64
71
8
72
12
62
50
0
VERTEX
8
OBJECT051
10
-32.000000
20
-448.000000
30
-16.000000
70
192
0
VERTEX
8
OBJECT051
10
-32.000000
20
-480.000000
30
-16.000000
70
192
0
VERTEX
8
OBJECT051
10
208.000000
20
-480.000000
30
-16.000000
70
192
0
VERTEX
8
OBJECT051
10
208.000000
20
-448.000000
30
-16.000000
70
192
0
VERTEX
8
OBJECT051
10
-32.000000
20
-480.000000
30
40.000000
70
192
0
VERTEX
8
OBJECT051
10
-32.000000
20
-448.000000
30
40.000000
70
192
0
VERTEX
8
OBJECT051
10
208.000000
20
-448.000000
30
40.000000
70
192
0
VERTEX
8
OBJECT051
10
208.000000
20
-480.000000
30
40.000000
70
192
0
VERTEX
8
OBJECT051
10
0
20
0
30
0
70
128
71
2
72
3
73
-4
0
VERTEX
8
OBJECT051
10
0
20
0
30
0
70
128
71
-2
72
4
73
1
0
VERTEX
8
OBJECT051
10
0
20
0
30
0
70
128
71
2
72
1
73
-6
0
VERTEX
8
OBJECT051
10
0
20
0
30
0
70
128
71
-2
72
6
73
5
0
VERTEX
8
OBJECT051
10
0
20
0
30
0
70
128
71
4
72
3
73
-8
0
VERTEX
8
OBJECT051
10
0
20
0
30
0
70
128
71
-4
72
8
73
7
0
VERTEX
8
OBJECT051
10
0
20
0
30
0
70
128
71
1
72
4
73
-7
0
VERTEX
8
OBJECT051
10
0
20
0
30
0
70
128
71
-1
72
7
73
6
0
VERTEX
8
OBJECT051
10
0
20
0
30
0
70
128
71
3
72
2
73
-5
0
VERTEX
8
OBJECT051
10
0
20
0
30
0
70
128
71
-3
72
5
73
8
0
VERTEX
8
OBJECT051
10
0
20
0
30
0
70
128
71
6
72
7
73
-8
0
VERTEX
8
OBJECT051
10
0
20
0
30
0
70
128
71
-6
72
8
73
5
0
SEQEND
8
OBJECT051
0
ENDSEC
0
EOF
