0
SECTION
2
HEADER
9
$ACADVER
1
AC1008
9
$UCSORG
10
0.0
20
0.0
30
0.0
9
$UCSXDIR
10
1.0
20
0.0
30
0.0
9
$TILEMODE
70
1
9
$UCSYDIR
10
0.0
20
1.0
30
0.0
9
$EXTMIN
10
-406.000000
20
-10.000000
30
-138.000000
9
$EXTMAX
10
534.000000
20
266.000000
30
138.000000
0
ENDSEC
0
SECTION
2
TABLES
0
TABLE
2
LTYPE
70
1
0
LTYPE
2
CONTINUOUS
70
64
3
Solid line
72
65
73
0
40
0.0
0
ENDTAB
0
TABLE
2
LAYER
70
1
0
LAYER
2
0
70
0
62
7
6
CONTINUOUS
0
ENDTAB
0
TABLE
2
STYLE
70
1
0
STYLE
2
STANDARD
70
0
40
0.0
41
1.0
50
0.0
71
0
42
0.2
3
txt
4

0
ENDTAB
0
TABLE
2
UCS
70
0
0
ENDTAB
0
ENDSEC
0
SECTION
2
ENTITIES
0
POLYLINE
8
OBJECT000
66
1
70
64
71
8
72
12
62
50
0
VERTEX
8
OBJECT000
10
534.000000
20
10.000000
30
-67.000000
70
192
0
VERTEX
8
OBJECT000
10
534.000000
20
33.592800
30
-102.389984
70
192
0
VERTEX
8
OBJECT000
10
144.000000
20
33.592800
30
-102.389984
70
192
0
VERTEX
8
OBJECT000
10
144.000000
20
10.000000
30
-67.000000
70
192
0
VERTEX
8
OBJECT000
10
534.000000
20
56.470486
30
-117.643921
70
192
0
VERTEX
8
OBJECT000
10
144.000000
20
56.470486
30
-117.643921
70
192
0
VERTEX
8
OBJECT000
10
534.000000
20
10.000000
30
-47.936306
70
192
0
VERTEX
8
OBJECT000
10
144.000000
20
10.000000
30
-47.936306
70
192
0
VERTEX
8
OBJECT000
10
0
20
0
30
0
70
128
71
2
72
3
73
-4
0
VERTEX
8
OBJECT000
10
0
20
0
30
0
70
128
71
-2
72
4
73
1
0
VERTEX
8
OBJECT000
10
0
20
0
30
0
70
128
71
2
72
5
73
-6
0
VERTEX
8
OBJECT000
10
0
20
0
30
0
70
128
71
-2
72
6
73
3
0
VERTEX
8
OBJECT000
10
0
20
0
30
0
70
128
71
2
72
1
73
-7
0
VERTEX
8
OBJECT000
10
0
20
0
30
0
70
128
71
-2
72
7
73
5
0
VERTEX
8
OBJECT000
10
0
20
0
30
0
70
128
71
1
72
4
73
-8
0
VERTEX
8
OBJECT000
10
0
20
0
30
0
70
128
71
-1
72
8
73
7
0
VERTEX
8
OBJECT000
10
0
20
0
30
0
70
128
71
5
72
7
73
-8
0
VERTEX
8
OBJECT000
10
0
20
0
30
0
70
128
71
-5
72
8
73
6
0
VERTEX
8
OBJECT000
10
0
20
0
30
0
70
128
71
4
72
3
73
-6
0
VERTEX
8
OBJECT000
10
0
20
0
30
0
70
128
71
-4
72
6
73
8
0
SEQEND
8
OBJECT000
0
POLYLINE
8
OBJECT001
66
1
70
64
71
8
72
12
62
50
0
VERTEX
8
OBJECT001
10
144.000000
20
128.000000
30
-128.000000
70
192
0
VERTEX
8
OBJECT001
10
144.000000
20
72.000000
30
-128.000000
70
192
0
VERTEX
8
OBJECT001
10
534.000000
20
72.000000
30
-128.000000
70
192
0
VERTEX
8
OBJECT001
10
534.000000
20
128.000000
30
-128.000000
70
192
0
VERTEX
8
OBJECT001
10
144.000000
20
57.000000
30
-118.000000
70
192
0
VERTEX
8
OBJECT001
10
534.000000
20
57.000000
30
-118.000000
70
192
0
VERTEX
8
OBJECT001
10
144.000000
20
128.000000
30
-118.000000
70
192
0
VERTEX
8
OBJECT001
10
534.000000
20
128.000000
30
-118.000000
70
192
0
VERTEX
8
OBJECT001
10
0
20
0
30
0
70
128
71
2
72
3
73
-4
0
VERTEX
8
OBJECT001
10
0
20
0
30
0
70
128
71
-2
72
4
73
1
0
VERTEX
8
OBJECT001
10
0
20
0
30
0
70
128
71
2
72
5
73
-6
0
VERTEX
8
OBJECT001
10
0
20
0
30
0
70
128
71
-2
72
6
73
3
0
VERTEX
8
OBJECT001
10
0
20
0
30
0
70
128
71
5
72
7
73
-8
0
VERTEX
8
OBJECT001
10
0
20
0
30
0
70
128
71
-5
72
8
73
6
0
VERTEX
8
OBJECT001
10
0
20
0
30
0
70
128
71
3
72
6
73
-8
0
VERTEX
8
OBJECT001
10
0
20
0
30
0
70
128
71
-3
72
8
73
4
0
VERTEX
8
OBJECT001
10
0
20
0
30
0
70
128
71
2
72
1
73
-7
0
VERTEX
8
OBJECT001
10
0
20
0
30
0
70
128
71
-2
72
7
73
5
0
VERTEX
8
OBJECT001
10
0
20
0
30
0
70
128
71
4
72
8
73
-7
0
VERTEX
8
OBJECT001
10
0
20
0
30
0
70
128
71
-4
72
7
73
1
0
SEQEND
8
OBJECT001
0
POLYLINE
8
OBJECT002
66
1
70
64
71
8
72
12
62
50
0
VERTEX
8
OBJECT002
10
534.000000
20
57.000000
30
-118.000000
70
192
0
VERTEX
8
OBJECT002
10
144.000000
20
57.000000
30
-118.000000
70
192
0
VERTEX
8
OBJECT002
10
144.000000
20
56.474369
30
-117.649750
70
192
0
VERTEX
8
OBJECT002
10
534.000000
20
56.474369
30
-117.649750
70
192
0
VERTEX
8
OBJECT002
10
534.000000
20
76.377060
30
-118.000000
70
192
0
VERTEX
8
OBJECT002
10
144.000000
20
76.377060
30
-118.000000
70
192
0
VERTEX
8
OBJECT002
10
534.000000
20
40.970806
30
-94.393784
70
192
0
VERTEX
8
OBJECT002
10
144.000000
20
40.971684
30
-94.394363
70
192
0
VERTEX
8
OBJECT002
10
0
20
0
30
0
70
128
71
2
72
3
73
-4
0
VERTEX
8
OBJECT002
10
0
20
0
30
0
70
128
71
-2
72
4
73
1
0
VERTEX
8
OBJECT002
10
0
20
0
30
0
70
128
71
1
72
5
73
-6
0
VERTEX
8
OBJECT002
10
0
20
0
30
0
70
128
71
-1
72
6
73
2
0
VERTEX
8
OBJECT002
10
0
20
0
30
0
70
128
71
1
72
4
73
-7
0
VERTEX
8
OBJECT002
10
0
20
0
30
0
70
128
71
-1
72
7
73
5
0
VERTEX
8
OBJECT002
10
0
20
0
30
0
70
128
71
4
72
3
73
-8
0
VERTEX
8
OBJECT002
10
0
20
0
30
0
70
128
71
-4
72
8
73
7
0
VERTEX
8
OBJECT002
10
0
20
0
30
0
70
128
71
5
72
7
73
-8
0
VERTEX
8
OBJECT002
10
0
20
0
30
0
70
128
71
-5
72
8
73
6
0
VERTEX
8
OBJECT002
10
0
20
0
30
0
70
128
71
3
72
2
73
-6
0
VERTEX
8
OBJECT002
10
0
20
0
30
0
70
128
71
-3
72
6
73
8
0
SEQEND
8
OBJECT002
0
POLYLINE
8
OBJECT003
66
1
70
64
71
10
72
16
62
50
0
VERTEX
8
OBJECT003
10
534.000000
20
27.403814
30
94.351494
70
192
0
VERTEX
8
OBJECT003
10
144.000000
20
27.403814
30
94.351494
70
192
0
VERTEX
8
OBJECT003
10
144.000000
20
61.558300
30
118.000000
70
192
0
VERTEX
8
OBJECT003
10
534.000000
20
61.558300
30
118.000000
70
192
0
VERTEX
8
OBJECT003
10
534.000000
20
23.294594
30
88.000000
70
192
0
VERTEX
8
OBJECT003
10
144.000000
20
23.294594
30
88.000000
70
192
0
VERTEX
8
OBJECT003
10
144.000000
20
80.061066
30
118.000000
70
192
0
VERTEX
8
OBJECT003
10
534.000000
20
80.061066
30
118.000000
70
192
0
VERTEX
8
OBJECT003
10
534.000000
20
36.733398
30
88.000000
70
192
0
VERTEX
8
OBJECT003
10
144.000000
20
36.734203
30
88.000000
70
192
0
VERTEX
8
OBJECT003
10
0
20
0
30
0
70
128
71
2
72
3
73
-4
0
VERTEX
8
OBJECT003
10
0
20
0
30
0
70
128
71
-2
72
4
73
1
0
VERTEX
8
OBJECT003
10
0
20
0
30
0
70
128
71
1
72
5
73
-6
0
VERTEX
8
OBJECT003
10
0
20
0
30
0
70
128
71
-1
72
6
73
2
0
VERTEX
8
OBJECT003
10
0
20
0
30
0
70
128
71
3
72
7
73
-8
0
VERTEX
8
OBJECT003
10
0
20
0
30
0
70
128
71
-3
72
8
73
4
0
VERTEX
8
OBJECT003
10
0
20
0
30
0
70
128
71
1
72
4
73
-8
0
VERTEX
8
OBJECT003
10
0
20
0
30
0
70
128
71
-1
72
8
73
-9
0
VERTEX
8
OBJECT003
10
0
20
0
30
0
70
128
71
-1
72
9
73
5
0
VERTEX
8
OBJECT003
10
0
20
0
30
0
70
128
71
7
72
10
73
-9
0
VERTEX
8
OBJECT003
10
0
20
0
30
0
70
128
71
-7
72
9
73
8
0
VERTEX
8
OBJECT003
10
0
20
0
30
0
70
128
71
5
72
9
73
-10
0
VERTEX
8
OBJECT003
10
0
20
0
30
0
70
128
71
-5
72
10
73
6
0
VERTEX
8
OBJECT003
10
0
20
0
30
0
70
128
71
3
72
2
73
-6
0
VERTEX
8
OBJECT003
10
0
20
0
30
0
70
128
71
-3
72
6
73
-10
0
VERTEX
8
OBJECT003
10
0
20
0
30
0
70
128
71
-3
72
10
73
7
0
SEQEND
8
OBJECT003
0
POLYLINE
8
OBJECT004
66
1
70
64
71
8
72
12
62
50
0
VERTEX
8
OBJECT004
10
534.000000
20
76.000000
30
128.000000
70
192
0
VERTEX
8
OBJECT004
10
144.000000
20
76.000000
30
128.000000
70
192
0
VERTEX
8
OBJECT004
10
144.000000
20
128.000000
30
128.000000
70
192
0
VERTEX
8
OBJECT004
10
534.000000
20
128.000000
30
128.000000
70
192
0
VERTEX
8
OBJECT004
10
534.000000
20
61.554901
30
118.000000
70
192
0
VERTEX
8
OBJECT004
10
144.000000
20
61.554901
30
118.000000
70
192
0
VERTEX
8
OBJECT004
10
144.000000
20
128.000000
30
118.000000
70
192
0
VERTEX
8
OBJECT004
10
534.000000
20
128.000000
30
118.000000
70
192
0
VERTEX
8
OBJECT004
10
0
20
0
30
0
70
128
71
2
72
3
73
-4
0
VERTEX
8
OBJECT004
10
0
20
0
30
0
70
128
71
-2
72
4
73
1
0
VERTEX
8
OBJECT004
10
0
20
0
30
0
70
128
71
6
72
2
73
-1
0
VERTEX
8
OBJECT004
10
0
20
0
30
0
70
128
71
-6
72
1
73
5
0
VERTEX
8
OBJECT004
10
0
20
0
30
0
70
128
71
6
72
5
73
-8
0
VERTEX
8
OBJECT004
10
0
20
0
30
0
70
128
71
-6
72
8
73
7
0
VERTEX
8
OBJECT004
10
0
20
0
30
0
70
128
71
5
72
1
73
-4
0
VERTEX
8
OBJECT004
10
0
20
0
30
0
70
128
71
-5
72
4
73
8
0
VERTEX
8
OBJECT004
10
0
20
0
30
0
70
128
71
2
72
6
73
-7
0
VERTEX
8
OBJECT004
10
0
20
0
30
0
70
128
71
-2
72
7
73
3
0
VERTEX
8
OBJECT004
10
0
20
0
30
0
70
128
71
8
72
4
73
-3
0
VERTEX
8
OBJECT004
10
0
20
0
30
0
70
128
71
-8
72
3
73
7
0
SEQEND
8
OBJECT004
0
POLYLINE
8
OBJECT005
66
1
70
64
71
16
72
28
62
50
0
VERTEX
8
OBJECT005
10
534.000000
20
128.000000
30
-118.000000
70
192
0
VERTEX
8
OBJECT005
10
534.000000
20
57.000000
30
-118.000000
70
192
0
VERTEX
8
OBJECT005
10
534.000000
20
33.593815
30
-102.391739
70
192
0
VERTEX
8
OBJECT005
10
534.000000
20
0.000000
30
-52.000000
70
192
0
VERTEX
8
OBJECT005
10
534.000000
20
0.000000
30
52.000000
70
192
0
VERTEX
8
OBJECT005
10
534.000000
20
27.402754
30
94.349373
70
192
0
VERTEX
8
OBJECT005
10
534.000000
20
61.560280
30
118.000000
70
192
0
VERTEX
8
OBJECT005
10
534.000000
20
128.000000
30
118.000000
70
192
0
VERTEX
8
OBJECT005
10
524.000000
20
0.000000
30
-52.000000
70
192
0
VERTEX
8
OBJECT005
10
524.000000
20
0.000000
30
52.000000
70
192
0
VERTEX
8
OBJECT005
10
524.000000
20
61.558228
30
118.000000
70
192
0
VERTEX
8
OBJECT005
10
524.000000
20
27.404415
30
94.351944
70
192
0
VERTEX
8
OBJECT005
10
524.000000
20
33.592941
30
-102.391151
70
192
0
VERTEX
8
OBJECT005
10
524.000000
20
57.000000
30
-118.000000
70
192
0
VERTEX
8
OBJECT005
10
524.000000
20
128.000000
30
118.000000
70
192
0
VERTEX
8
OBJECT005
10
524.000000
20
128.000000
30
-118.000000
70
192
0
VERTEX
8
OBJECT005
10
0
20
0
30
0
70
128
71
2
72
3
73
-4
0
VERTEX
8
OBJECT005
10
0
20
0
30
0
70
128
71
-2
72
4
73
-5
0
VERTEX
8
OBJECT005
10
0
20
0
30
0
70
128
71
-2
72
5
73
-6
0
VERTEX
8
OBJECT005
10
0
20
0
30
0
70
128
71
-2
72
6
73
-7
0
VERTEX
8
OBJECT005
10
0
20
0
30
0
70
128
71
-2
72
7
73
-8
0
VERTEX
8
OBJECT005
10
0
20
0
30
0
70
128
71
-2
72
8
73
1
0
VERTEX
8
OBJECT005
10
0
20
0
30
0
70
128
71
4
72
9
73
-10
0
VERTEX
8
OBJECT005
10
0
20
0
30
0
70
128
71
-4
72
10
73
5
0
VERTEX
8
OBJECT005
10
0
20
0
30
0
70
128
71
7
72
6
73
-12
0
VERTEX
8
OBJECT005
10
0
20
0
30
0
70
128
71
-7
72
12
73
11
0
VERTEX
8
OBJECT005
10
0
20
0
30
0
70
128
71
5
72
10
73
-12
0
VERTEX
8
OBJECT005
10
0
20
0
30
0
70
128
71
-5
72
12
73
6
0
VERTEX
8
OBJECT005
10
0
20
0
30
0
70
128
71
3
72
13
73
-9
0
VERTEX
8
OBJECT005
10
0
20
0
30
0
70
128
71
-3
72
9
73
4
0
VERTEX
8
OBJECT005
10
0
20
0
30
0
70
128
71
3
72
2
73
-14
0
VERTEX
8
OBJECT005
10
0
20
0
30
0
70
128
71
-3
72
14
73
13
0
VERTEX
8
OBJECT005
10
0
20
0
30
0
70
128
71
7
72
11
73
-15
0
VERTEX
8
OBJECT005
10
0
20
0
30
0
70
128
71
-7
72
15
73
8
0
VERTEX
8
OBJECT005
10
0
20
0
30
0
70
128
71
14
72
2
73
-1
0
VERTEX
8
OBJECT005
10
0
20
0
30
0
70
128
71
-14
72
1
73
16
0
VERTEX
8
OBJECT005
10
0
20
0
30
0
70
128
71
9
72
13
73
-14
0
VERTEX
8
OBJECT005
10
0
20
0
30
0
70
128
71
-9
72
14
73
-16
0
VERTEX
8
OBJECT005
10
0
20
0
30
0
70
128
71
-9
72
16
73
-15
0
VERTEX
8
OBJECT005
10
0
20
0
30
0
70
128
71
-9
72
15
73
-11
0
VERTEX
8
OBJECT005
10
0
20
0
30
0
70
128
71
-9
72
11
73
-12
0
VERTEX
8
OBJECT005
10
0
20
0
30
0
70
128
71
-9
72
12
73
10
0
VERTEX
8
OBJECT005
10
0
20
0
30
0
70
128
71
1
72
8
73
-15
0
VERTEX
8
OBJECT005
10
0
20
0
30
0
70
128
71
-1
72
15
73
16
0
SEQEND
8
OBJECT005
0
POLYLINE
8
OBJECT006
66
1
70
64
71
8
72
12
62
50
0
VERTEX
8
OBJECT006
10
144.000000
20
33.675995
30
-102.446365
70
192
0
VERTEX
8
OBJECT006
10
-64.000000
20
33.642853
30
-102.424263
70
192
0
VERTEX
8
OBJECT006
10
-64.000000
20
10.000000
30
-66.959053
70
192
0
VERTEX
8
OBJECT006
10
144.000000
20
10.000000
30
-66.931442
70
192
0
VERTEX
8
OBJECT006
10
144.000000
20
56.471291
30
-117.644417
70
192
0
VERTEX
8
OBJECT006
10
-64.000000
20
56.471291
30
-117.644417
70
192
0
VERTEX
8
OBJECT006
10
-64.000000
20
10.000000
30
-47.935600
70
192
0
VERTEX
8
OBJECT006
10
144.000000
20
10.000000
30
-47.935600
70
192
0
VERTEX
8
OBJECT006
10
0
20
0
30
0
70
128
71
2
72
3
73
-4
0
VERTEX
8
OBJECT006
10
0
20
0
30
0
70
128
71
-2
72
4
73
1
0
VERTEX
8
OBJECT006
10
0
20
0
30
0
70
128
71
6
72
2
73
-1
0
VERTEX
8
OBJECT006
10
0
20
0
30
0
70
128
71
-6
72
1
73
5
0
VERTEX
8
OBJECT006
10
0
20
0
30
0
70
128
71
3
72
7
73
-8
0
VERTEX
8
OBJECT006
10
0
20
0
30
0
70
128
71
-3
72
8
73
4
0
VERTEX
8
OBJECT006
10
0
20
0
30
0
70
128
71
5
72
8
73
-7
0
VERTEX
8
OBJECT006
10
0
20
0
30
0
70
128
71
-5
72
7
73
6
0
VERTEX
8
OBJECT006
10
0
20
0
30
0
70
128
71
1
72
4
73
-8
0
VERTEX
8
OBJECT006
10
0
20
0
30
0
70
128
71
-1
72
8
73
5
0
VERTEX
8
OBJECT006
10
0
20
0
30
0
70
128
71
3
72
2
73
-6
0
VERTEX
8
OBJECT006
10
0
20
0
30
0
70
128
71
-3
72
6
73
7
0
SEQEND
8
OBJECT006
0
POLYLINE
8
OBJECT007
66
1
70
64
71
8
72
12
62
50
0
VERTEX
8
OBJECT007
10
144.000000
20
57.000000
30
-118.000000
70
192
0
VERTEX
8
OBJECT007
10
-64.000000
20
57.000000
30
-118.000000
70
192
0
VERTEX
8
OBJECT007
10
-64.000000
20
56.471058
30
-117.644073
70
192
0
VERTEX
8
OBJECT007
10
144.000000
20
56.471058
30
-117.644073
70
192
0
VERTEX
8
OBJECT007
10
144.000000
20
76.376465
30
-118.000000
70
192
0
VERTEX
8
OBJECT007
10
-64.000000
20
76.376465
30
-118.000000
70
192
0
VERTEX
8
OBJECT007
10
-64.000000
20
40.972126
30
-94.395058
70
192
0
VERTEX
8
OBJECT007
10
144.000000
20
40.972126
30
-94.395058
70
192
0
VERTEX
8
OBJECT007
10
0
20
0
30
0
70
128
71
2
72
3
73
-4
0
VERTEX
8
OBJECT007
10
0
20
0
30
0
70
128
71
-2
72
4
73
1
0
VERTEX
8
OBJECT007
10
0
20
0
30
0
70
128
71
6
72
2
73
-1
0
VERTEX
8
OBJECT007
10
0
20
0
30
0
70
128
71
-6
72
1
73
5
0
VERTEX
8
OBJECT007
10
0
20
0
30
0
70
128
71
3
72
7
73
-8
0
VERTEX
8
OBJECT007
10
0
20
0
30
0
70
128
71
-3
72
8
73
4
0
VERTEX
8
OBJECT007
10
0
20
0
30
0
70
128
71
7
72
6
73
-5
0
VERTEX
8
OBJECT007
10
0
20
0
30
0
70
128
71
-7
72
5
73
8
0
VERTEX
8
OBJECT007
10
0
20
0
30
0
70
128
71
1
72
4
73
-8
0
VERTEX
8
OBJECT007
10
0
20
0
30
0
70
128
71
-1
72
8
73
5
0
VERTEX
8
OBJECT007
10
0
20
0
30
0
70
128
71
3
72
2
73
-6
0
VERTEX
8
OBJECT007
10
0
20
0
30
0
70
128
71
-3
72
6
73
7
0
SEQEND
8
OBJECT007
0
POLYLINE
8
OBJECT008
66
1
70
64
71
8
72
12
62
50
0
VERTEX
8
OBJECT008
10
-64.000000
20
72.000000
30
-128.000000
70
192
0
VERTEX
8
OBJECT008
10
144.000000
20
72.000000
30
-128.000000
70
192
0
VERTEX
8
OBJECT008
10
144.000000
20
128.000000
30
-128.000000
70
192
0
VERTEX
8
OBJECT008
10
-64.000000
20
128.000000
30
-128.000000
70
192
0
VERTEX
8
OBJECT008
10
-64.000000
20
57.000000
30
-118.000000
70
192
0
VERTEX
8
OBJECT008
10
144.000000
20
57.000000
30
-118.000000
70
192
0
VERTEX
8
OBJECT008
10
-64.000000
20
128.000000
30
-118.000000
70
192
0
VERTEX
8
OBJECT008
10
144.000000
20
128.000000
30
-118.000000
70
192
0
VERTEX
8
OBJECT008
10
0
20
0
30
0
70
128
71
2
72
3
73
-4
0
VERTEX
8
OBJECT008
10
0
20
0
30
0
70
128
71
-2
72
4
73
1
0
VERTEX
8
OBJECT008
10
0
20
0
30
0
70
128
71
1
72
5
73
-6
0
VERTEX
8
OBJECT008
10
0
20
0
30
0
70
128
71
-1
72
6
73
2
0
VERTEX
8
OBJECT008
10
0
20
0
30
0
70
128
71
5
72
7
73
-8
0
VERTEX
8
OBJECT008
10
0
20
0
30
0
70
128
71
-5
72
8
73
6
0
VERTEX
8
OBJECT008
10
0
20
0
30
0
70
128
71
2
72
6
73
-8
0
VERTEX
8
OBJECT008
10
0
20
0
30
0
70
128
71
-2
72
8
73
3
0
VERTEX
8
OBJECT008
10
0
20
0
30
0
70
128
71
3
72
8
73
-7
0
VERTEX
8
OBJECT008
10
0
20
0
30
0
70
128
71
-3
72
7
73
4
0
VERTEX
8
OBJECT008
10
0
20
0
30
0
70
128
71
1
72
4
73
-7
0
VERTEX
8
OBJECT008
10
0
20
0
30
0
70
128
71
-1
72
7
73
5
0
SEQEND
8
OBJECT008
0
POLYLINE
8
OBJECT009
66
1
70
64
71
10
72
16
62
50
0
VERTEX
8
OBJECT009
10
144.000000
20
27.403814
30
94.351494
70
192
0
VERTEX
8
OBJECT009
10
-64.000000
20
27.403814
30
94.351494
70
192
0
VERTEX
8
OBJECT009
10
-64.000000
20
61.558300
30
118.000000
70
192
0
VERTEX
8
OBJECT009
10
144.000000
20
61.558300
30
118.000000
70
192
0
VERTEX
8
OBJECT009
10
144.000000
20
23.294594
30
88.000000
70
192
0
VERTEX
8
OBJECT009
10
-64.000000
20
23.294594
30
88.000000
70
192
0
VERTEX
8
OBJECT009
10
-64.000000
20
80.061867
30
118.000000
70
192
0
VERTEX
8
OBJECT009
10
144.000000
20
80.061867
30
118.000000
70
192
0
VERTEX
8
OBJECT009
10
-64.000000
20
36.734196
30
88.000000
70
192
0
VERTEX
8
OBJECT009
10
144.000000
20
36.734196
30
88.000000
70
192
0
VERTEX
8
OBJECT009
10
0
20
0
30
0
70
128
71
2
72
3
73
-4
0
VERTEX
8
OBJECT009
10
0
20
0
30
0
70
128
71
-2
72
4
73
1
0
VERTEX
8
OBJECT009
10
0
20
0
30
0
70
128
71
6
72
2
73
-1
0
VERTEX
8
OBJECT009
10
0
20
0
30
0
70
128
71
-6
72
1
73
5
0
VERTEX
8
OBJECT009
10
0
20
0
30
0
70
128
71
3
72
7
73
-8
0
VERTEX
8
OBJECT009
10
0
20
0
30
0
70
128
71
-3
72
8
73
4
0
VERTEX
8
OBJECT009
10
0
20
0
30
0
70
128
71
7
72
9
73
-10
0
VERTEX
8
OBJECT009
10
0
20
0
30
0
70
128
71
-7
72
10
73
8
0
VERTEX
8
OBJECT009
10
0
20
0
30
0
70
128
71
9
72
6
73
-5
0
VERTEX
8
OBJECT009
10
0
20
0
30
0
70
128
71
-9
72
5
73
10
0
VERTEX
8
OBJECT009
10
0
20
0
30
0
70
128
71
1
72
4
73
-8
0
VERTEX
8
OBJECT009
10
0
20
0
30
0
70
128
71
-1
72
8
73
-10
0
VERTEX
8
OBJECT009
10
0
20
0
30
0
70
128
71
-1
72
10
73
5
0
VERTEX
8
OBJECT009
10
0
20
0
30
0
70
128
71
3
72
2
73
-6
0
VERTEX
8
OBJECT009
10
0
20
0
30
0
70
128
71
-3
72
6
73
-9
0
VERTEX
8
OBJECT009
10
0
20
0
30
0
70
128
71
-3
72
9
73
7
0
SEQEND
8
OBJECT009
0
POLYLINE
8
OBJECT010
66
1
70
64
71
8
72
12
62
50
0
VERTEX
8
OBJECT010
10
144.000000
20
76.000000
30
128.000000
70
192
0
VERTEX
8
OBJECT010
10
-64.000000
20
76.000000
30
128.000000
70
192
0
VERTEX
8
OBJECT010
10
-64.000000
20
128.000000
30
128.000000
70
192
0
VERTEX
8
OBJECT010
10
144.000000
20
128.000000
30
128.000000
70
192
0
VERTEX
8
OBJECT010
10
144.000000
20
61.559784
30
118.000000
70
192
0
VERTEX
8
OBJECT010
10
-64.000000
20
61.559784
30
118.000000
70
192
0
VERTEX
8
OBJECT010
10
144.000000
20
128.000000
30
118.000000
70
192
0
VERTEX
8
OBJECT010
10
-64.000000
20
128.000000
30
118.000000
70
192
0
VERTEX
8
OBJECT010
10
0
20
0
30
0
70
128
71
2
72
3
73
-4
0
VERTEX
8
OBJECT010
10
0
20
0
30
0
70
128
71
-2
72
4
73
1
0
VERTEX
8
OBJECT010
10
0
20
0
30
0
70
128
71
6
72
2
73
-1
0
VERTEX
8
OBJECT010
10
0
20
0
30
0
70
128
71
-6
72
1
73
5
0
VERTEX
8
OBJECT010
10
0
20
0
30
0
70
128
71
5
72
7
73
-8
0
VERTEX
8
OBJECT010
10
0
20
0
30
0
70
128
71
-5
72
8
73
6
0
VERTEX
8
OBJECT010
10
0
20
0
30
0
70
128
71
5
72
1
73
-4
0
VERTEX
8
OBJECT010
10
0
20
0
30
0
70
128
71
-5
72
4
73
7
0
VERTEX
8
OBJECT010
10
0
20
0
30
0
70
128
71
7
72
4
73
-3
0
VERTEX
8
OBJECT010
10
0
20
0
30
0
70
128
71
-7
72
3
73
8
0
VERTEX
8
OBJECT010
10
0
20
0
30
0
70
128
71
2
72
6
73
-8
0
VERTEX
8
OBJECT010
10
0
20
0
30
0
70
128
71
-2
72
8
73
3
0
SEQEND
8
OBJECT010
0
POLYLINE
8
OBJECT011
66
1
70
64
71
8
72
12
62
50
0
VERTEX
8
OBJECT011
10
144.000000
20
222.406952
30
-102.392685
70
192
0
VERTEX
8
OBJECT011
10
534.000000
20
222.406952
30
-102.392685
70
192
0
VERTEX
8
OBJECT011
10
534.000000
20
246.000000
30
-67.000000
70
192
0
VERTEX
8
OBJECT011
10
144.000000
20
246.000000
30
-67.000000
70
192
0
VERTEX
8
OBJECT011
10
144.000000
20
199.530090
30
-117.643074
70
192
0
VERTEX
8
OBJECT011
10
534.000000
20
199.530090
30
-117.643074
70
192
0
VERTEX
8
OBJECT011
10
534.000000
20
246.000000
30
-47.936333
70
192
0
VERTEX
8
OBJECT011
10
144.000000
20
246.000000
30
-47.936333
70
192
0
VERTEX
8
OBJECT011
10
0
20
0
30
0
70
128
71
2
72
3
73
-4
0
VERTEX
8
OBJECT011
10
0
20
0
30
0
70
128
71
-2
72
4
73
1
0
VERTEX
8
OBJECT011
10
0
20
0
30
0
70
128
71
1
72
5
73
-6
0
VERTEX
8
OBJECT011
10
0
20
0
30
0
70
128
71
-1
72
6
73
2
0
VERTEX
8
OBJECT011
10
0
20
0
30
0
70
128
71
3
72
2
73
-6
0
VERTEX
8
OBJECT011
10
0
20
0
30
0
70
128
71
-3
72
6
73
7
0
VERTEX
8
OBJECT011
10
0
20
0
30
0
70
128
71
3
72
7
73
-8
0
VERTEX
8
OBJECT011
10
0
20
0
30
0
70
128
71
-3
72
8
73
4
0
VERTEX
8
OBJECT011
10
0
20
0
30
0
70
128
71
6
72
5
73
-8
0
VERTEX
8
OBJECT011
10
0
20
0
30
0
70
128
71
-6
72
8
73
7
0
VERTEX
8
OBJECT011
10
0
20
0
30
0
70
128
71
1
72
4
73
-8
0
VERTEX
8
OBJECT011
10
0
20
0
30
0
70
128
71
-1
72
8
73
5
0
SEQEND
8
OBJECT011
0
POLYLINE
8
OBJECT012
66
1
70
64
71
8
72
12
62
50
0
VERTEX
8
OBJECT012
10
534.000000
20
184.000000
30
-128.000000
70
192
0
VERTEX
8
OBJECT012
10
144.000000
20
184.000000
30
-128.000000
70
192
0
VERTEX
8
OBJECT012
10
144.000000
20
128.000000
30
-128.000000
70
192
0
VERTEX
8
OBJECT012
10
534.000000
20
128.000000
30
-128.000000
70
192
0
VERTEX
8
OBJECT012
10
534.000000
20
199.000000
30
-118.000000
70
192
0
VERTEX
8
OBJECT012
10
144.000000
20
199.000000
30
-118.000000
70
192
0
VERTEX
8
OBJECT012
10
144.000000
20
128.000000
30
-118.000000
70
192
0
VERTEX
8
OBJECT012
10
534.000000
20
128.000000
30
-118.000000
70
192
0
VERTEX
8
OBJECT012
10
0
20
0
30
0
70
128
71
2
72
3
73
-4
0
VERTEX
8
OBJECT012
10
0
20
0
30
0
70
128
71
-2
72
4
73
1
0
VERTEX
8
OBJECT012
10
0
20
0
30
0
70
128
71
6
72
2
73
-1
0
VERTEX
8
OBJECT012
10
0
20
0
30
0
70
128
71
-6
72
1
73
5
0
VERTEX
8
OBJECT012
10
0
20
0
30
0
70
128
71
6
72
5
73
-8
0
VERTEX
8
OBJECT012
10
0
20
0
30
0
70
128
71
-6
72
8
73
7
0
VERTEX
8
OBJECT012
10
0
20
0
30
0
70
128
71
1
72
4
73
-8
0
VERTEX
8
OBJECT012
10
0
20
0
30
0
70
128
71
-1
72
8
73
5
0
VERTEX
8
OBJECT012
10
0
20
0
30
0
70
128
71
2
72
6
73
-7
0
VERTEX
8
OBJECT012
10
0
20
0
30
0
70
128
71
-2
72
7
73
3
0
VERTEX
8
OBJECT012
10
0
20
0
30
0
70
128
71
3
72
7
73
-8
0
VERTEX
8
OBJECT012
10
0
20
0
30
0
70
128
71
-3
72
8
73
4
0
SEQEND
8
OBJECT012
0
POLYLINE
8
OBJECT013
66
1
70
64
71
8
72
12
62
50
0
VERTEX
8
OBJECT013
10
144.000000
20
199.000000
30
-118.000000
70
192
0
VERTEX
8
OBJECT013
10
534.000000
20
199.000000
30
-118.000000
70
192
0
VERTEX
8
OBJECT013
10
534.000000
20
199.526138
30
-117.648994
70
192
0
VERTEX
8
OBJECT013
10
144.000000
20
199.526138
30
-117.648994
70
192
0
VERTEX
8
OBJECT013
10
144.000000
20
179.622864
30
-118.000000
70
192
0
VERTEX
8
OBJECT013
10
534.000000
20
179.622864
30
-118.000000
70
192
0
VERTEX
8
OBJECT013
10
534.000000
20
215.029266
30
-94.393692
70
192
0
VERTEX
8
OBJECT013
10
144.000000
20
215.029251
30
-94.393700
70
192
0
VERTEX
8
OBJECT013
10
0
20
0
30
0
70
128
71
2
72
3
73
-4
0
VERTEX
8
OBJECT013
10
0
20
0
30
0
70
128
71
-2
72
4
73
1
0
VERTEX
8
OBJECT013
10
0
20
0
30
0
70
128
71
1
72
5
73
-6
0
VERTEX
8
OBJECT013
10
0
20
0
30
0
70
128
71
-1
72
6
73
2
0
VERTEX
8
OBJECT013
10
0
20
0
30
0
70
128
71
3
72
2
73
-6
0
VERTEX
8
OBJECT013
10
0
20
0
30
0
70
128
71
-3
72
6
73
7
0
VERTEX
8
OBJECT013
10
0
20
0
30
0
70
128
71
3
72
7
73
-8
0
VERTEX
8
OBJECT013
10
0
20
0
30
0
70
128
71
-3
72
8
73
4
0
VERTEX
8
OBJECT013
10
0
20
0
30
0
70
128
71
5
72
8
73
-7
0
VERTEX
8
OBJECT013
10
0
20
0
30
0
70
128
71
-5
72
7
73
6
0
VERTEX
8
OBJECT013
10
0
20
0
30
0
70
128
71
1
72
4
73
-8
0
VERTEX
8
OBJECT013
10
0
20
0
30
0
70
128
71
-1
72
8
73
5
0
SEQEND
8
OBJECT013
0
POLYLINE
8
OBJECT014
66
1
70
64
71
10
72
16
62
50
0
VERTEX
8
OBJECT014
10
534.000000
20
194.442505
30
118.000000
70
192
0
VERTEX
8
OBJECT014
10
144.000000
20
194.442505
30
118.000000
70
192
0
VERTEX
8
OBJECT014
10
144.000000
20
228.593674
30
94.353790
70
192
0
VERTEX
8
OBJECT014
10
534.000000
20
228.593674
30
94.353790
70
192
0
VERTEX
8
OBJECT014
10
144.000000
20
232.705872
30
88.000000
70
192
0
VERTEX
8
OBJECT014
10
534.000000
20
232.705872
30
88.000000
70
192
0
VERTEX
8
OBJECT014
10
534.000000
20
175.938919
30
118.000000
70
192
0
VERTEX
8
OBJECT014
10
144.000000
20
175.938919
30
118.000000
70
192
0
VERTEX
8
OBJECT014
10
534.000000
20
219.266586
30
88.000000
70
192
0
VERTEX
8
OBJECT014
10
144.000000
20
219.266602
30
88.000000
70
192
0
VERTEX
8
OBJECT014
10
0
20
0
30
0
70
128
71
2
72
3
73
-4
0
VERTEX
8
OBJECT014
10
0
20
0
30
0
70
128
71
-2
72
4
73
1
0
VERTEX
8
OBJECT014
10
0
20
0
30
0
70
128
71
6
72
4
73
-3
0
VERTEX
8
OBJECT014
10
0
20
0
30
0
70
128
71
-6
72
3
73
5
0
VERTEX
8
OBJECT014
10
0
20
0
30
0
70
128
71
1
72
7
73
-8
0
VERTEX
8
OBJECT014
10
0
20
0
30
0
70
128
71
-1
72
8
73
2
0
VERTEX
8
OBJECT014
10
0
20
0
30
0
70
128
71
1
72
4
73
-6
0
VERTEX
8
OBJECT014
10
0
20
0
30
0
70
128
71
-1
72
6
73
-9
0
VERTEX
8
OBJECT014
10
0
20
0
30
0
70
128
71
-1
72
9
73
7
0
VERTEX
8
OBJECT014
10
0
20
0
30
0
70
128
71
7
72
9
73
-10
0
VERTEX
8
OBJECT014
10
0
20
0
30
0
70
128
71
-7
72
10
73
8
0
VERTEX
8
OBJECT014
10
0
20
0
30
0
70
128
71
5
72
10
73
-9
0
VERTEX
8
OBJECT014
10
0
20
0
30
0
70
128
71
-5
72
9
73
6
0
VERTEX
8
OBJECT014
10
0
20
0
30
0
70
128
71
3
72
2
73
-8
0
VERTEX
8
OBJECT014
10
0
20
0
30
0
70
128
71
-3
72
8
73
-10
0
VERTEX
8
OBJECT014
10
0
20
0
30
0
70
128
71
-3
72
10
73
5
0
SEQEND
8
OBJECT014
0
POLYLINE
8
OBJECT015
66
1
70
64
71
8
72
12
62
50
0
VERTEX
8
OBJECT015
10
144.000000
20
128.000000
30
128.000000
70
192
0
VERTEX
8
OBJECT015
10
144.000000
20
180.000000
30
128.000000
70
192
0
VERTEX
8
OBJECT015
10
534.000000
20
180.000000
30
128.000000
70
192
0
VERTEX
8
OBJECT015
10
534.000000
20
128.000000
30
128.000000
70
192
0
VERTEX
8
OBJECT015
10
144.000000
20
194.443497
30
118.000000
70
192
0
VERTEX
8
OBJECT015
10
534.000000
20
194.443497
30
118.000000
70
192
0
VERTEX
8
OBJECT015
10
144.000000
20
128.000000
30
118.000000
70
192
0
VERTEX
8
OBJECT015
10
534.000000
20
128.000000
30
118.000000
70
192
0
VERTEX
8
OBJECT015
10
0
20
0
30
0
70
128
71
2
72
3
73
-4
0
VERTEX
8
OBJECT015
10
0
20
0
30
0
70
128
71
-2
72
4
73
1
0
VERTEX
8
OBJECT015
10
0
20
0
30
0
70
128
71
2
72
5
73
-6
0
VERTEX
8
OBJECT015
10
0
20
0
30
0
70
128
71
-2
72
6
73
3
0
VERTEX
8
OBJECT015
10
0
20
0
30
0
70
128
71
5
72
7
73
-8
0
VERTEX
8
OBJECT015
10
0
20
0
30
0
70
128
71
-5
72
8
73
6
0
VERTEX
8
OBJECT015
10
0
20
0
30
0
70
128
71
3
72
6
73
-8
0
VERTEX
8
OBJECT015
10
0
20
0
30
0
70
128
71
-3
72
8
73
4
0
VERTEX
8
OBJECT015
10
0
20
0
30
0
70
128
71
5
72
2
73
-1
0
VERTEX
8
OBJECT015
10
0
20
0
30
0
70
128
71
-5
72
1
73
7
0
VERTEX
8
OBJECT015
10
0
20
0
30
0
70
128
71
7
72
1
73
-4
0
VERTEX
8
OBJECT015
10
0
20
0
30
0
70
128
71
-7
72
4
73
8
0
SEQEND
8
OBJECT015
0
POLYLINE
8
OBJECT016
66
1
70
64
71
16
72
28
62
50
0
VERTEX
8
OBJECT016
10
534.000000
20
256.000000
30
52.000000
70
192
0
VERTEX
8
OBJECT016
10
534.000000
20
256.000000
30
-52.000000
70
192
0
VERTEX
8
OBJECT016
10
534.000000
20
222.406189
30
-102.391731
70
192
0
VERTEX
8
OBJECT016
10
534.000000
20
199.000000
30
-118.000000
70
192
0
VERTEX
8
OBJECT016
10
534.000000
20
128.000000
30
-118.000000
70
192
0
VERTEX
8
OBJECT016
10
534.000000
20
128.000000
30
118.000000
70
192
0
VERTEX
8
OBJECT016
10
534.000000
20
194.439713
30
118.000000
70
192
0
VERTEX
8
OBJECT016
10
534.000000
20
228.597244
30
94.349373
70
192
0
VERTEX
8
OBJECT016
10
524.000000
20
256.000000
30
-52.000000
70
192
0
VERTEX
8
OBJECT016
10
524.000000
20
256.000000
30
52.000000
70
192
0
VERTEX
8
OBJECT016
10
524.000000
20
228.595032
30
94.352798
70
192
0
VERTEX
8
OBJECT016
10
524.000000
20
194.442459
30
118.000000
70
192
0
VERTEX
8
OBJECT016
10
524.000000
20
222.405380
30
-102.392273
70
192
0
VERTEX
8
OBJECT016
10
524.000000
20
199.000000
30
-118.000000
70
192
0
VERTEX
8
OBJECT016
10
524.000000
20
128.000000
30
118.000000
70
192
0
VERTEX
8
OBJECT016
10
524.000000
20
128.000000
30
-118.000000
70
192
0
VERTEX
8
OBJECT016
10
0
20
0
30
0
70
128
71
2
72
3
73
-4
0
VERTEX
8
OBJECT016
10
0
20
0
30
0
70
128
71
-2
72
4
73
-5
0
VERTEX
8
OBJECT016
10
0
20
0
30
0
70
128
71
-2
72
5
73
-6
0
VERTEX
8
OBJECT016
10
0
20
0
30
0
70
128
71
-2
72
6
73
-7
0
VERTEX
8
OBJECT016
10
0
20
0
30
0
70
128
71
-2
72
7
73
-8
0
VERTEX
8
OBJECT016
10
0
20
0
30
0
70
128
71
-2
72
8
73
1
0
VERTEX
8
OBJECT016
10
0
20
0
30
0
70
128
71
2
72
1
73
-10
0
VERTEX
8
OBJECT016
10
0
20
0
30
0
70
128
71
-2
72
10
73
9
0
VERTEX
8
OBJECT016
10
0
20
0
30
0
70
128
71
8
72
7
73
-12
0
VERTEX
8
OBJECT016
10
0
20
0
30
0
70
128
71
-8
72
12
73
11
0
VERTEX
8
OBJECT016
10
0
20
0
30
0
70
128
71
1
72
8
73
-11
0
VERTEX
8
OBJECT016
10
0
20
0
30
0
70
128
71
-1
72
11
73
10
0
VERTEX
8
OBJECT016
10
0
20
0
30
0
70
128
71
3
72
2
73
-9
0
VERTEX
8
OBJECT016
10
0
20
0
30
0
70
128
71
-3
72
9
73
13
0
VERTEX
8
OBJECT016
10
0
20
0
30
0
70
128
71
4
72
3
73
-13
0
VERTEX
8
OBJECT016
10
0
20
0
30
0
70
128
71
-4
72
13
73
14
0
VERTEX
8
OBJECT016
10
0
20
0
30
0
70
128
71
12
72
7
73
-6
0
VERTEX
8
OBJECT016
10
0
20
0
30
0
70
128
71
-12
72
6
73
15
0
VERTEX
8
OBJECT016
10
0
20
0
30
0
70
128
71
4
72
14
73
-16
0
VERTEX
8
OBJECT016
10
0
20
0
30
0
70
128
71
-4
72
16
73
5
0
VERTEX
8
OBJECT016
10
0
20
0
30
0
70
128
71
14
72
13
73
-9
0
VERTEX
8
OBJECT016
10
0
20
0
30
0
70
128
71
-14
72
9
73
-10
0
VERTEX
8
OBJECT016
10
0
20
0
30
0
70
128
71
-14
72
10
73
-11
0
VERTEX
8
OBJECT016
10
0
20
0
30
0
70
128
71
-14
72
11
73
-12
0
VERTEX
8
OBJECT016
10
0
20
0
30
0
70
128
71
-14
72
12
73
-15
0
VERTEX
8
OBJECT016
10
0
20
0
30
0
70
128
71
-14
72
15
73
16
0
VERTEX
8
OBJECT016
10
0
20
0
30
0
70
128
71
5
72
16
73
-15
0
VERTEX
8
OBJECT016
10
0
20
0
30
0
70
128
71
-5
72
15
73
6
0
SEQEND
8
OBJECT016
0
POLYLINE
8
OBJECT017
66
1
70
64
71
8
72
12
62
50
0
VERTEX
8
OBJECT017
10
-64.000000
20
222.357330
30
-102.423317
70
192
0
VERTEX
8
OBJECT017
10
144.000000
20
222.324188
30
-102.445404
70
192
0
VERTEX
8
OBJECT017
10
144.000000
20
246.000000
30
-66.930740
70
192
0
VERTEX
8
OBJECT017
10
-64.000000
20
246.000000
30
-66.958351
70
192
0
VERTEX
8
OBJECT017
10
-64.000000
20
199.530182
30
-117.642929
70
192
0
VERTEX
8
OBJECT017
10
144.000000
20
199.530167
30
-117.642937
70
192
0
VERTEX
8
OBJECT017
10
144.000000
20
246.000000
30
-47.936287
70
192
0
VERTEX
8
OBJECT017
10
-64.000000
20
246.000000
30
-47.936295
70
192
0
VERTEX
8
OBJECT017
10
0
20
0
30
0
70
128
71
2
72
3
73
-4
0
VERTEX
8
OBJECT017
10
0
20
0
30
0
70
128
71
-2
72
4
73
1
0
VERTEX
8
OBJECT017
10
0
20
0
30
0
70
128
71
1
72
5
73
-6
0
VERTEX
8
OBJECT017
10
0
20
0
30
0
70
128
71
-1
72
6
73
2
0
VERTEX
8
OBJECT017
10
0
20
0
30
0
70
128
71
3
72
7
73
-8
0
VERTEX
8
OBJECT017
10
0
20
0
30
0
70
128
71
-3
72
8
73
4
0
VERTEX
8
OBJECT017
10
0
20
0
30
0
70
128
71
5
72
8
73
-7
0
VERTEX
8
OBJECT017
10
0
20
0
30
0
70
128
71
-5
72
7
73
6
0
VERTEX
8
OBJECT017
10
0
20
0
30
0
70
128
71
3
72
2
73
-6
0
VERTEX
8
OBJECT017
10
0
20
0
30
0
70
128
71
-3
72
6
73
7
0
VERTEX
8
OBJECT017
10
0
20
0
30
0
70
128
71
1
72
4
73
-8
0
VERTEX
8
OBJECT017
10
0
20
0
30
0
70
128
71
-1
72
8
73
5
0
SEQEND
8
OBJECT017
0
POLYLINE
8
OBJECT018
66
1
70
64
71
8
72
12
62
50
0
VERTEX
8
OBJECT018
10
144.000000
20
199.529449
30
-117.644020
70
192
0
VERTEX
8
OBJECT018
10
-64.000000
20
199.529449
30
-117.644020
70
192
0
VERTEX
8
OBJECT018
10
-64.000000
20
199.000000
30
-118.000000
70
192
0
VERTEX
8
OBJECT018
10
144.000000
20
199.000000
30
-118.000000
70
192
0
VERTEX
8
OBJECT018
10
-64.000000
20
179.622650
30
-118.000000
70
192
0
VERTEX
8
OBJECT018
10
144.000000
20
179.622650
30
-118.000000
70
192
0
VERTEX
8
OBJECT018
10
144.000000
20
215.029404
30
-94.393440
70
192
0
VERTEX
8
OBJECT018
10
-64.000000
20
215.029404
30
-94.393440
70
192
0
VERTEX
8
OBJECT018
10
0
20
0
30
0
70
128
71
2
72
3
73
-4
0
VERTEX
8
OBJECT018
10
0
20
0
30
0
70
128
71
-2
72
4
73
1
0
VERTEX
8
OBJECT018
10
0
20
0
30
0
70
128
71
3
72
5
73
-6
0
VERTEX
8
OBJECT018
10
0
20
0
30
0
70
128
71
-3
72
6
73
4
0
VERTEX
8
OBJECT018
10
0
20
0
30
0
70
128
71
1
72
7
73
-8
0
VERTEX
8
OBJECT018
10
0
20
0
30
0
70
128
71
-1
72
8
73
2
0
VERTEX
8
OBJECT018
10
0
20
0
30
0
70
128
71
5
72
8
73
-7
0
VERTEX
8
OBJECT018
10
0
20
0
30
0
70
128
71
-5
72
7
73
6
0
VERTEX
8
OBJECT018
10
0
20
0
30
0
70
128
71
1
72
4
73
-6
0
VERTEX
8
OBJECT018
10
0
20
0
30
0
70
128
71
-1
72
6
73
7
0
VERTEX
8
OBJECT018
10
0
20
0
30
0
70
128
71
3
72
2
73
-8
0
VERTEX
8
OBJECT018
10
0
20
0
30
0
70
128
71
-3
72
8
73
5
0
SEQEND
8
OBJECT018
0
POLYLINE
8
OBJECT019
66
1
70
64
71
8
72
12
62
50
0
VERTEX
8
OBJECT019
10
144.000000
20
184.000000
30
-128.000000
70
192
0
VERTEX
8
OBJECT019
10
-64.000000
20
184.000000
30
-128.000000
70
192
0
VERTEX
8
OBJECT019
10
-64.000000
20
128.000000
30
-128.000000
70
192
0
VERTEX
8
OBJECT019
10
144.000000
20
128.000000
30
-128.000000
70
192
0
VERTEX
8
OBJECT019
10
144.000000
20
199.000000
30
-118.000000
70
192
0
VERTEX
8
OBJECT019
10
-64.000000
20
199.000000
30
-118.000000
70
192
0
VERTEX
8
OBJECT019
10
144.000000
20
128.000000
30
-118.000000
70
192
0
VERTEX
8
OBJECT019
10
-64.000000
20
128.000000
30
-118.000000
70
192
0
VERTEX
8
OBJECT019
10
0
20
0
30
0
70
128
71
2
72
3
73
-4
0
VERTEX
8
OBJECT019
10
0
20
0
30
0
70
128
71
-2
72
4
73
1
0
VERTEX
8
OBJECT019
10
0
20
0
30
0
70
128
71
6
72
2
73
-1
0
VERTEX
8
OBJECT019
10
0
20
0
30
0
70
128
71
-6
72
1
73
5
0
VERTEX
8
OBJECT019
10
0
20
0
30
0
70
128
71
5
72
7
73
-8
0
VERTEX
8
OBJECT019
10
0
20
0
30
0
70
128
71
-5
72
8
73
6
0
VERTEX
8
OBJECT019
10
0
20
0
30
0
70
128
71
1
72
4
73
-7
0
VERTEX
8
OBJECT019
10
0
20
0
30
0
70
128
71
-1
72
7
73
5
0
VERTEX
8
OBJECT019
10
0
20
0
30
0
70
128
71
3
72
8
73
-7
0
VERTEX
8
OBJECT019
10
0
20
0
30
0
70
128
71
-3
72
7
73
4
0
VERTEX
8
OBJECT019
10
0
20
0
30
0
70
128
71
2
72
6
73
-8
0
VERTEX
8
OBJECT019
10
0
20
0
30
0
70
128
71
-2
72
8
73
3
0
SEQEND
8
OBJECT019
0
POLYLINE
8
OBJECT020
66
1
70
64
71
10
72
16
62
50
0
VERTEX
8
OBJECT020
10
144.000000
20
194.442490
30
118.000000
70
192
0
VERTEX
8
OBJECT020
10
-64.000000
20
194.442490
30
118.000000
70
192
0
VERTEX
8
OBJECT020
10
-64.000000
20
228.593643
30
94.353798
70
192
0
VERTEX
8
OBJECT020
10
144.000000
20
228.593643
30
94.353798
70
192
0
VERTEX
8
OBJECT020
10
-64.000000
20
232.705856
30
88.000000
70
192
0
VERTEX
8
OBJECT020
10
144.000000
20
232.705856
30
88.000000
70
192
0
VERTEX
8
OBJECT020
10
144.000000
20
175.938934
30
118.000000
70
192
0
VERTEX
8
OBJECT020
10
-64.000000
20
175.938934
30
118.000000
70
192
0
VERTEX
8
OBJECT020
10
144.000000
20
219.266586
30
88.000000
70
192
0
VERTEX
8
OBJECT020
10
-64.000000
20
219.266586
30
88.000000
70
192
0
VERTEX
8
OBJECT020
10
0
20
0
30
0
70
128
71
2
72
3
73
-4
0
VERTEX
8
OBJECT020
10
0
20
0
30
0
70
128
71
-2
72
4
73
1
0
VERTEX
8
OBJECT020
10
0
20
0
30
0
70
128
71
6
72
4
73
-3
0
VERTEX
8
OBJECT020
10
0
20
0
30
0
70
128
71
-6
72
3
73
5
0
VERTEX
8
OBJECT020
10
0
20
0
30
0
70
128
71
8
72
2
73
-1
0
VERTEX
8
OBJECT020
10
0
20
0
30
0
70
128
71
-8
72
1
73
7
0
VERTEX
8
OBJECT020
10
0
20
0
30
0
70
128
71
10
72
8
73
-7
0
VERTEX
8
OBJECT020
10
0
20
0
30
0
70
128
71
-10
72
7
73
9
0
VERTEX
8
OBJECT020
10
0
20
0
30
0
70
128
71
5
72
10
73
-9
0
VERTEX
8
OBJECT020
10
0
20
0
30
0
70
128
71
-5
72
9
73
6
0
VERTEX
8
OBJECT020
10
0
20
0
30
0
70
128
71
1
72
4
73
-6
0
VERTEX
8
OBJECT020
10
0
20
0
30
0
70
128
71
-1
72
6
73
-9
0
VERTEX
8
OBJECT020
10
0
20
0
30
0
70
128
71
-1
72
9
73
7
0
VERTEX
8
OBJECT020
10
0
20
0
30
0
70
128
71
3
72
2
73
-8
0
VERTEX
8
OBJECT020
10
0
20
0
30
0
70
128
71
-3
72
8
73
-10
0
VERTEX
8
OBJECT020
10
0
20
0
30
0
70
128
71
-3
72
10
73
5
0
SEQEND
8
OBJECT020
0
POLYLINE
8
OBJECT021
66
1
70
64
71
8
72
12
62
50
0
VERTEX
8
OBJECT021
10
-64.000000
20
180.000000
30
128.000000
70
192
0
VERTEX
8
OBJECT021
10
144.000000
20
180.000000
30
128.000000
70
192
0
VERTEX
8
OBJECT021
10
144.000000
20
128.000000
30
128.000000
70
192
0
VERTEX
8
OBJECT021
10
-64.000000
20
128.000000
30
128.000000
70
192
0
VERTEX
8
OBJECT021
10
-64.000000
20
194.440384
30
118.000000
70
192
0
VERTEX
8
OBJECT021
10
144.000000
20
194.440384
30
118.000000
70
192
0
VERTEX
8
OBJECT021
10
-64.000000
20
128.000000
30
118.000000
70
192
0
VERTEX
8
OBJECT021
10
144.000000
20
128.000000
30
118.000000
70
192
0
VERTEX
8
OBJECT021
10
0
20
0
30
0
70
128
71
2
72
3
73
-4
0
VERTEX
8
OBJECT021
10
0
20
0
30
0
70
128
71
-2
72
4
73
1
0
VERTEX
8
OBJECT021
10
0
20
0
30
0
70
128
71
1
72
5
73
-6
0
VERTEX
8
OBJECT021
10
0
20
0
30
0
70
128
71
-1
72
6
73
2
0
VERTEX
8
OBJECT021
10
0
20
0
30
0
70
128
71
5
72
7
73
-8
0
VERTEX
8
OBJECT021
10
0
20
0
30
0
70
128
71
-5
72
8
73
6
0
VERTEX
8
OBJECT021
10
0
20
0
30
0
70
128
71
2
72
6
73
-8
0
VERTEX
8
OBJECT021
10
0
20
0
30
0
70
128
71
-2
72
8
73
3
0
VERTEX
8
OBJECT021
10
0
20
0
30
0
70
128
71
7
72
4
73
-3
0
VERTEX
8
OBJECT021
10
0
20
0
30
0
70
128
71
-7
72
3
73
8
0
VERTEX
8
OBJECT021
10
0
20
0
30
0
70
128
71
5
72
1
73
-4
0
VERTEX
8
OBJECT021
10
0
20
0
30
0
70
128
71
-5
72
4
73
7
0
SEQEND
8
OBJECT021
0
POLYLINE
8
OBJECT022
66
1
70
64
71
8
72
12
62
50
0
VERTEX
8
OBJECT022
10
-236.000000
20
256.000000
30
-52.000000
70
192
0
VERTEX
8
OBJECT022
10
144.000000
20
256.000000
30
-52.000000
70
192
0
VERTEX
8
OBJECT022
10
144.000000
20
256.000000
30
52.000000
70
192
0
VERTEX
8
OBJECT022
10
-236.000000
20
256.000000
30
52.000000
70
192
0
VERTEX
8
OBJECT022
10
144.000000
20
246.000000
30
67.455574
70
192
0
VERTEX
8
OBJECT022
10
-236.000000
20
246.000000
30
67.455574
70
192
0
VERTEX
8
OBJECT022
10
-236.000000
20
246.000000
30
-67.000000
70
192
0
VERTEX
8
OBJECT022
10
144.000000
20
246.000000
30
-67.000000
70
192
0
VERTEX
8
OBJECT022
10
0
20
0
30
0
70
128
71
2
72
3
73
-4
0
VERTEX
8
OBJECT022
10
0
20
0
30
0
70
128
71
-2
72
4
73
1
0
VERTEX
8
OBJECT022
10
0
20
0
30
0
70
128
71
3
72
5
73
-6
0
VERTEX
8
OBJECT022
10
0
20
0
30
0
70
128
71
-3
72
6
73
4
0
VERTEX
8
OBJECT022
10
0
20
0
30
0
70
128
71
1
72
7
73
-8
0
VERTEX
8
OBJECT022
10
0
20
0
30
0
70
128
71
-1
72
8
73
2
0
VERTEX
8
OBJECT022
10
0
20
0
30
0
70
128
71
7
72
6
73
-5
0
VERTEX
8
OBJECT022
10
0
20
0
30
0
70
128
71
-7
72
5
73
8
0
VERTEX
8
OBJECT022
10
0
20
0
30
0
70
128
71
3
72
2
73
-8
0
VERTEX
8
OBJECT022
10
0
20
0
30
0
70
128
71
-3
72
8
73
5
0
VERTEX
8
OBJECT022
10
0
20
0
30
0
70
128
71
1
72
4
73
-6
0
VERTEX
8
OBJECT022
10
0
20
0
30
0
70
128
71
-1
72
6
73
7
0
SEQEND
8
OBJECT022
0
POLYLINE
8
OBJECT023
66
1
70
64
71
8
72
12
62
50
0
VERTEX
8
OBJECT023
10
144.000000
20
10.000000
30
66.441254
70
192
0
VERTEX
8
OBJECT023
10
-236.000000
20
10.000000
30
66.441254
70
192
0
VERTEX
8
OBJECT023
10
-236.000000
20
24.926115
30
88.000000
70
192
0
VERTEX
8
OBJECT023
10
144.000000
20
24.926115
30
88.000000
70
192
0
VERTEX
8
OBJECT023
10
144.000000
20
10.000000
30
47.936783
70
192
0
VERTEX
8
OBJECT023
10
-236.000000
20
10.000000
30
47.936783
70
192
0
VERTEX
8
OBJECT023
10
144.000000
20
37.737644
30
88.000000
70
192
0
VERTEX
8
OBJECT023
10
-236.000000
20
37.737644
30
88.000000
70
192
0
VERTEX
8
OBJECT023
10
0
20
0
30
0
70
128
71
2
72
3
73
-4
0
VERTEX
8
OBJECT023
10
0
20
0
30
0
70
128
71
-2
72
4
73
1
0
VERTEX
8
OBJECT023
10
0
20
0
30
0
70
128
71
6
72
2
73
-1
0
VERTEX
8
OBJECT023
10
0
20
0
30
0
70
128
71
-6
72
1
73
5
0
VERTEX
8
OBJECT023
10
0
20
0
30
0
70
128
71
5
72
7
73
-8
0
VERTEX
8
OBJECT023
10
0
20
0
30
0
70
128
71
-5
72
8
73
6
0
VERTEX
8
OBJECT023
10
0
20
0
30
0
70
128
71
3
72
8
73
-7
0
VERTEX
8
OBJECT023
10
0
20
0
30
0
70
128
71
-3
72
7
73
4
0
VERTEX
8
OBJECT023
10
0
20
0
30
0
70
128
71
1
72
4
73
-7
0
VERTEX
8
OBJECT023
10
0
20
0
30
0
70
128
71
-1
72
7
73
5
0
VERTEX
8
OBJECT023
10
0
20
0
30
0
70
128
71
2
72
6
73
-8
0
VERTEX
8
OBJECT023
10
0
20
0
30
0
70
128
71
-2
72
8
73
3
0
SEQEND
8
OBJECT023
0
POLYLINE
8
OBJECT024
66
1
70
64
71
8
72
12
62
50
0
VERTEX
8
OBJECT024
10
144.000000
20
0.000000
30
-52.000000
70
192
0
VERTEX
8
OBJECT024
10
-236.000000
20
0.000000
30
-52.000000
70
192
0
VERTEX
8
OBJECT024
10
-236.000000
20
0.000000
30
52.000000
70
192
0
VERTEX
8
OBJECT024
10
144.000000
20
0.000000
30
52.000000
70
192
0
VERTEX
8
OBJECT024
10
-236.000000
20
10.000000
30
66.439804
70
192
0
VERTEX
8
OBJECT024
10
144.000000
20
10.000000
30
66.439804
70
192
0
VERTEX
8
OBJECT024
10
144.000000
20
10.000000
30
-66.284561
70
192
0
VERTEX
8
OBJECT024
10
-236.000000
20
10.000000
30
-66.284561
70
192
0
VERTEX
8
OBJECT024
10
0
20
0
30
0
70
128
71
2
72
3
73
-4
0
VERTEX
8
OBJECT024
10
0
20
0
30
0
70
128
71
-2
72
4
73
1
0
VERTEX
8
OBJECT024
10
0
20
0
30
0
70
128
71
3
72
5
73
-6
0
VERTEX
8
OBJECT024
10
0
20
0
30
0
70
128
71
-3
72
6
73
4
0
VERTEX
8
OBJECT024
10
0
20
0
30
0
70
128
71
8
72
2
73
-1
0
VERTEX
8
OBJECT024
10
0
20
0
30
0
70
128
71
-8
72
1
73
7
0
VERTEX
8
OBJECT024
10
0
20
0
30
0
70
128
71
7
72
6
73
-5
0
VERTEX
8
OBJECT024
10
0
20
0
30
0
70
128
71
-7
72
5
73
8
0
VERTEX
8
OBJECT024
10
0
20
0
30
0
70
128
71
1
72
4
73
-6
0
VERTEX
8
OBJECT024
10
0
20
0
30
0
70
128
71
-1
72
6
73
7
0
VERTEX
8
OBJECT024
10
0
20
0
30
0
70
128
71
3
72
2
73
-8
0
VERTEX
8
OBJECT024
10
0
20
0
30
0
70
128
71
-3
72
8
73
5
0
SEQEND
8
OBJECT024
0
POLYLINE
8
OBJECT025
66
1
70
64
71
8
72
12
62
50
0
VERTEX
8
OBJECT025
10
-236.000000
20
246.000000
30
67.456749
70
192
0
VERTEX
8
OBJECT025
10
144.000000
20
246.000000
30
67.456749
70
192
0
VERTEX
8
OBJECT025
10
144.000000
20
243.616394
30
71.140228
70
192
0
VERTEX
8
OBJECT025
10
-236.000000
20
243.616394
30
71.140228
70
192
0
VERTEX
8
OBJECT025
10
-236.000000
20
246.000000
30
47.936966
70
192
0
VERTEX
8
OBJECT025
10
144.000000
20
246.000000
30
47.936966
70
192
0
VERTEX
8
OBJECT025
10
144.000000
20
220.731522
30
86.985695
70
192
0
VERTEX
8
OBJECT025
10
-236.000000
20
220.731522
30
86.985695
70
192
0
VERTEX
8
OBJECT025
10
0
20
0
30
0
70
128
71
2
72
3
73
-4
0
VERTEX
8
OBJECT025
10
0
20
0
30
0
70
128
71
-2
72
4
73
1
0
VERTEX
8
OBJECT025
10
0
20
0
30
0
70
128
71
1
72
5
73
-6
0
VERTEX
8
OBJECT025
10
0
20
0
30
0
70
128
71
-1
72
6
73
2
0
VERTEX
8
OBJECT025
10
0
20
0
30
0
70
128
71
8
72
4
73
-3
0
VERTEX
8
OBJECT025
10
0
20
0
30
0
70
128
71
-8
72
3
73
7
0
VERTEX
8
OBJECT025
10
0
20
0
30
0
70
128
71
5
72
8
73
-7
0
VERTEX
8
OBJECT025
10
0
20
0
30
0
70
128
71
-5
72
7
73
6
0
VERTEX
8
OBJECT025
10
0
20
0
30
0
70
128
71
2
72
6
73
-7
0
VERTEX
8
OBJECT025
10
0
20
0
30
0
70
128
71
-2
72
7
73
3
0
VERTEX
8
OBJECT025
10
0
20
0
30
0
70
128
71
1
72
4
73
-8
0
VERTEX
8
OBJECT025
10
0
20
0
30
0
70
128
71
-1
72
8
73
5
0
SEQEND
8
OBJECT025
0
POLYLINE
8
OBJECT026
66
1
70
64
71
6
72
8
62
50
0
VERTEX
8
OBJECT026
10
-236.000000
20
243.614548
30
71.142220
70
192
0
VERTEX
8
OBJECT026
10
144.000000
20
243.614548
30
71.142220
70
192
0
VERTEX
8
OBJECT026
10
144.000000
20
232.705872
30
88.000000
70
192
0
VERTEX
8
OBJECT026
10
-236.000000
20
232.705872
30
88.000000
70
192
0
VERTEX
8
OBJECT026
10
-236.000000
20
219.266541
30
88.000000
70
192
0
VERTEX
8
OBJECT026
10
144.000000
20
219.266541
30
88.000000
70
192
0
VERTEX
8
OBJECT026
10
0
20
0
30
0
70
128
71
2
72
3
73
-4
0
VERTEX
8
OBJECT026
10
0
20
0
30
0
70
128
71
-2
72
4
73
1
0
VERTEX
8
OBJECT026
10
0
20
0
30
0
70
128
71
1
72
5
73
-6
0
VERTEX
8
OBJECT026
10
0
20
0
30
0
70
128
71
-1
72
6
73
2
0
VERTEX
8
OBJECT026
10
0
20
0
30
0
70
128
71
5
72
4
73
-3
0
VERTEX
8
OBJECT026
10
0
20
0
30
0
70
128
71
-5
72
3
73
6
0
VERTEX
8
OBJECT026
10
0
20
0
30
0
70
128
71
2
72
6
73
3
0
VERTEX
8
OBJECT026
10
0
20
0
30
0
70
128
71
4
72
5
73
1
0
SEQEND
8
OBJECT026
0
POLYLINE
8
OBJECT027
66
1
70
64
71
6
72
8
62
50
0
VERTEX
8
OBJECT027
10
-240.000000
20
55.765617
30
127.218750
70
192
0
VERTEX
8
OBJECT027
10
-244.730759
20
55.765617
30
127.218750
70
192
0
VERTEX
8
OBJECT027
10
-240.000000
20
65.503517
30
133.710678
70
192
0
VERTEX
8
OBJECT027
10
-240.000000
20
190.255814
30
133.710678
70
192
0
VERTEX
8
OBJECT027
10
-244.730759
20
199.632690
30
127.218750
70
192
0
VERTEX
8
OBJECT027
10
-240.000000
20
199.632690
30
127.218750
70
192
0
VERTEX
8
OBJECT027
10
0
20
0
30
0
70
128
71
2
72
3
73
1
0
VERTEX
8
OBJECT027
10
0
20
0
30
0
70
128
71
5
72
6
73
4
0
VERTEX
8
OBJECT027
10
0
20
0
30
0
70
128
71
4
72
3
73
-2
0
VERTEX
8
OBJECT027
10
0
20
0
30
0
70
128
71
-4
72
2
73
5
0
VERTEX
8
OBJECT027
10
0
20
0
30
0
70
128
71
5
72
2
73
-1
0
VERTEX
8
OBJECT027
10
0
20
0
30
0
70
128
71
-5
72
1
73
6
0
VERTEX
8
OBJECT027
10
0
20
0
30
0
70
128
71
3
72
4
73
-6
0
VERTEX
8
OBJECT027
10
0
20
0
30
0
70
128
71
-3
72
6
73
1
0
SEQEND
8
OBJECT027
0
POLYLINE
8
OBJECT028
66
1
70
64
71
8
72
12
62
50
0
VERTEX
8
OBJECT028
10
-240.000000
20
50.774609
30
123.890411
70
192
0
VERTEX
8
OBJECT028
10
-247.155746
20
50.774609
30
123.890411
70
192
0
VERTEX
8
OBJECT028
10
-244.730331
20
55.764984
30
127.218750
70
192
0
VERTEX
8
OBJECT028
10
-240.000000
20
55.764984
30
127.218750
70
192
0
VERTEX
8
OBJECT028
10
-244.730667
20
76.318436
30
127.218750
70
192
0
VERTEX
8
OBJECT028
10
-265.694916
20
33.160992
30
98.449928
70
192
0
VERTEX
8
OBJECT028
10
-240.000000
20
76.318436
30
127.218750
70
192
0
VERTEX
8
OBJECT028
10
-240.000000
20
33.161724
30
98.450417
70
192
0
VERTEX
8
OBJECT028
10
0
20
0
30
0
70
128
71
2
72
3
73
-4
0
VERTEX
8
OBJECT028
10
0
20
0
30
0
70
128
71
-2
72
4
73
1
0
VERTEX
8
OBJECT028
10
0
20
0
30
0
70
128
71
3
72
2
73
-6
0
VERTEX
8
OBJECT028
10
0
20
0
30
0
70
128
71
-3
72
6
73
5
0
VERTEX
8
OBJECT028
10
0
20
0
30
0
70
128
71
3
72
5
73
-7
0
VERTEX
8
OBJECT028
10
0
20
0
30
0
70
128
71
-3
72
7
73
4
0
VERTEX
8
OBJECT028
10
0
20
0
30
0
70
128
71
6
72
2
73
-1
0
VERTEX
8
OBJECT028
10
0
20
0
30
0
70
128
71
-6
72
1
73
8
0
VERTEX
8
OBJECT028
10
0
20
0
30
0
70
128
71
5
72
6
73
-8
0
VERTEX
8
OBJECT028
10
0
20
0
30
0
70
128
71
-5
72
8
73
7
0
VERTEX
8
OBJECT028
10
0
20
0
30
0
70
128
71
1
72
4
73
-7
0
VERTEX
8
OBJECT028
10
0
20
0
30
0
70
128
71
-1
72
7
73
8
0
SEQEND
8
OBJECT028
0
POLYLINE
8
OBJECT029
66
1
70
64
71
8
72
12
62
50
0
VERTEX
8
OBJECT029
10
-240.000000
20
0.781250
30
71.630547
70
192
0
VERTEX
8
OBJECT029
10
-285.241394
20
0.781250
30
71.630547
70
192
0
VERTEX
8
OBJECT029
10
-268.302856
20
16.874454
30
94.875000
70
192
0
VERTEX
8
OBJECT029
10
-240.000000
20
16.874454
30
94.875000
70
192
0
VERTEX
8
OBJECT029
10
-299.777374
20
0.781250
30
51.681805
70
192
0
VERTEX
8
OBJECT029
10
-268.301910
20
30.685896
30
94.875000
70
192
0
VERTEX
8
OBJECT029
10
-240.000000
20
0.781250
30
51.681801
70
192
0
VERTEX
8
OBJECT029
10
-240.000000
20
30.686314
30
94.875000
70
192
0
VERTEX
8
OBJECT029
10
0
20
0
30
0
70
128
71
2
72
3
73
-4
0
VERTEX
8
OBJECT029
10
0
20
0
30
0
70
128
71
-2
72
4
73
1
0
VERTEX
8
OBJECT029
10
0
20
0
30
0
70
128
71
2
72
5
73
-6
0
VERTEX
8
OBJECT029
10
0
20
0
30
0
70
128
71
-2
72
6
73
3
0
VERTEX
8
OBJECT029
10
0
20
0
30
0
70
128
71
5
72
2
73
-1
0
VERTEX
8
OBJECT029
10
0
20
0
30
0
70
128
71
-5
72
1
73
7
0
VERTEX
8
OBJECT029
10
0
20
0
30
0
70
128
71
5
72
7
73
-8
0
VERTEX
8
OBJECT029
10
0
20
0
30
0
70
128
71
-5
72
8
73
6
0
VERTEX
8
OBJECT029
10
0
20
0
30
0
70
128
71
3
72
6
73
-8
0
VERTEX
8
OBJECT029
10
0
20
0
30
0
70
128
71
-3
72
8
73
4
0
VERTEX
8
OBJECT029
10
0
20
0
30
0
70
128
71
1
72
4
73
-8
0
VERTEX
8
OBJECT029
10
0
20
0
30
0
70
128
71
-1
72
8
73
7
0
SEQEND
8
OBJECT029
0
POLYLINE
8
OBJECT030
66
1
70
64
71
8
72
12
62
50
0
VERTEX
8
OBJECT030
10
-240.000000
20
-10.000000
30
-56.062496
70
192
0
VERTEX
8
OBJECT030
10
-378.288879
20
-10.000000
30
-56.062496
70
192
0
VERTEX
8
OBJECT030
10
-296.585510
20
-10.000000
30
56.061974
70
192
0
VERTEX
8
OBJECT030
10
-240.000000
20
-10.000000
30
56.061974
70
192
0
VERTEX
8
OBJECT030
10
-285.240631
20
0.781250
30
71.628197
70
192
0
VERTEX
8
OBJECT030
10
-240.000000
20
0.781250
30
71.628197
70
192
0
VERTEX
8
OBJECT030
10
-240.000000
20
0.781250
30
-71.464279
70
192
0
VERTEX
8
OBJECT030
10
-389.515900
20
0.781250
30
-71.464279
70
192
0
VERTEX
8
OBJECT030
10
0
20
0
30
0
70
128
71
2
72
3
73
-4
0
VERTEX
8
OBJECT030
10
0
20
0
30
0
70
128
71
-2
72
4
73
1
0
VERTEX
8
OBJECT030
10
0
20
0
30
0
70
128
71
3
72
5
73
-6
0
VERTEX
8
OBJECT030
10
0
20
0
30
0
70
128
71
-3
72
6
73
4
0
VERTEX
8
OBJECT030
10
0
20
0
30
0
70
128
71
8
72
2
73
-1
0
VERTEX
8
OBJECT030
10
0
20
0
30
0
70
128
71
-8
72
1
73
7
0
VERTEX
8
OBJECT030
10
0
20
0
30
0
70
128
71
3
72
2
73
-8
0
VERTEX
8
OBJECT030
10
0
20
0
30
0
70
128
71
-3
72
8
73
5
0
VERTEX
8
OBJECT030
10
0
20
0
30
0
70
128
71
7
72
6
73
-5
0
VERTEX
8
OBJECT030
10
0
20
0
30
0
70
128
71
-7
72
5
73
8
0
VERTEX
8
OBJECT030
10
0
20
0
30
0
70
128
71
1
72
4
73
-6
0
VERTEX
8
OBJECT030
10
0
20
0
30
0
70
128
71
-1
72
6
73
7
0
SEQEND
8
OBJECT030
0
POLYLINE
8
OBJECT031
66
1
70
64
71
10
72
16
62
50
0
VERTEX
8
OBJECT031
10
-240.000000
20
7.861858
30
-81.582481
70
192
0
VERTEX
8
OBJECT031
10
-396.886139
20
7.861929
30
-81.582588
70
192
0
VERTEX
8
OBJECT031
10
-389.514282
20
0.781250
30
-71.466324
70
192
0
VERTEX
8
OBJECT031
10
-240.000000
20
0.781250
30
-71.466324
70
192
0
VERTEX
8
OBJECT031
10
-375.103149
20
0.781250
30
-51.686302
70
192
0
VERTEX
8
OBJECT031
10
-406.000000
20
26.616159
30
-94.085426
70
192
0
VERTEX
8
OBJECT031
10
-406.000000
20
30.457670
30
-94.085442
70
192
0
VERTEX
8
OBJECT031
10
-406.000000
20
33.818336
30
-98.886879
70
192
0
VERTEX
8
OBJECT031
10
-240.000000
20
0.781250
30
-51.686596
70
192
0
VERTEX
8
OBJECT031
10
-240.000000
20
33.817787
30
-98.886452
70
192
0
VERTEX
8
OBJECT031
10
0
20
0
30
0
70
128
71
2
72
3
73
-4
0
VERTEX
8
OBJECT031
10
0
20
0
30
0
70
128
71
-2
72
4
73
1
0
VERTEX
8
OBJECT031
10
0
20
0
30
0
70
128
71
3
72
2
73
-6
0
VERTEX
8
OBJECT031
10
0
20
0
30
0
70
128
71
-3
72
6
73
-7
0
VERTEX
8
OBJECT031
10
0
20
0
30
0
70
128
71
-3
72
7
73
5
0
VERTEX
8
OBJECT031
10
0
20
0
30
0
70
128
71
6
72
8
73
7
0
VERTEX
8
OBJECT031
10
0
20
0
30
0
70
128
71
3
72
5
73
-9
0
VERTEX
8
OBJECT031
10
0
20
0
30
0
70
128
71
-3
72
9
73
4
0
VERTEX
8
OBJECT031
10
0
20
0
30
0
70
128
71
8
72
6
73
-2
0
VERTEX
8
OBJECT031
10
0
20
0
30
0
70
128
71
-8
72
2
73
-1
0
VERTEX
8
OBJECT031
10
0
20
0
30
0
70
128
71
-8
72
1
73
10
0
VERTEX
8
OBJECT031
10
0
20
0
30
0
70
128
71
7
72
8
73
-10
0
VERTEX
8
OBJECT031
10
0
20
0
30
0
70
128
71
-7
72
10
73
-9
0
VERTEX
8
OBJECT031
10
0
20
0
30
0
70
128
71
-7
72
9
73
5
0
VERTEX
8
OBJECT031
10
0
20
0
30
0
70
128
71
1
72
4
73
-9
0
VERTEX
8
OBJECT031
10
0
20
0
30
0
70
128
71
-1
72
9
73
10
0
SEQEND
8
OBJECT031
0
POLYLINE
8
OBJECT032
66
1
70
64
71
10
72
16
62
50
0
VERTEX
8
OBJECT032
10
-240.000000
20
55.765690
30
-127.218742
70
192
0
VERTEX
8
OBJECT032
10
-406.000000
20
55.765690
30
-127.218742
70
192
0
VERTEX
8
OBJECT032
10
-406.000000
20
25.843451
30
-107.270599
70
192
0
VERTEX
8
OBJECT032
10
-240.000000
20
25.843451
30
-107.270599
70
192
0
VERTEX
8
OBJECT032
10
-406.000000
20
16.615040
30
-94.088310
70
192
0
VERTEX
8
OBJECT032
10
-396.886749
20
7.861738
30
-81.582336
70
192
0
VERTEX
8
OBJECT032
10
-240.000000
20
7.861738
30
-81.582336
70
192
0
VERTEX
8
OBJECT032
10
-406.000000
20
26.621393
30
-94.088783
70
192
0
VERTEX
8
OBJECT032
10
-240.000000
20
76.316299
30
-127.218742
70
192
0
VERTEX
8
OBJECT032
10
-406.000000
20
76.316299
30
-127.218742
70
192
0
VERTEX
8
OBJECT032
10
0
20
0
30
0
70
128
71
2
72
3
73
-4
0
VERTEX
8
OBJECT032
10
0
20
0
30
0
70
128
71
-2
72
4
73
1
0
VERTEX
8
OBJECT032
10
0
20
0
30
0
70
128
71
3
72
5
73
-6
0
VERTEX
8
OBJECT032
10
0
20
0
30
0
70
128
71
-3
72
6
73
-7
0
VERTEX
8
OBJECT032
10
0
20
0
30
0
70
128
71
-3
72
7
73
4
0
VERTEX
8
OBJECT032
10
0
20
0
30
0
70
128
71
5
72
8
73
6
0
VERTEX
8
OBJECT032
10
0
20
0
30
0
70
128
71
10
72
2
73
-1
0
VERTEX
8
OBJECT032
10
0
20
0
30
0
70
128
71
-10
72
1
73
9
0
VERTEX
8
OBJECT032
10
0
20
0
30
0
70
128
71
3
72
2
73
-10
0
VERTEX
8
OBJECT032
10
0
20
0
30
0
70
128
71
-3
72
10
73
-8
0
VERTEX
8
OBJECT032
10
0
20
0
30
0
70
128
71
-3
72
8
73
5
0
VERTEX
8
OBJECT032
10
0
20
0
30
0
70
128
71
6
72
8
73
-10
0
VERTEX
8
OBJECT032
10
0
20
0
30
0
70
128
71
-6
72
10
73
-9
0
VERTEX
8
OBJECT032
10
0
20
0
30
0
70
128
71
-6
72
9
73
7
0
VERTEX
8
OBJECT032
10
0
20
0
30
0
70
128
71
1
72
4
73
-7
0
VERTEX
8
OBJECT032
10
0
20
0
30
0
70
128
71
-1
72
7
73
9
0
SEQEND
8
OBJECT032
0
POLYLINE
8
OBJECT033
66
1
70
64
71
8
72
12
62
50
0
VERTEX
8
OBJECT033
10
-240.000000
20
188.375870
30
-138.000000
70
192
0
VERTEX
8
OBJECT033
10
-406.000000
20
188.375870
30
-138.000000
70
192
0
VERTEX
8
OBJECT033
10
-406.000000
20
71.937508
30
-138.000000
70
192
0
VERTEX
8
OBJECT033
10
-240.000000
20
71.937508
30
-138.000000
70
192
0
VERTEX
8
OBJECT033
10
-406.000000
20
55.765633
30
-127.218742
70
192
0
VERTEX
8
OBJECT033
10
-406.000000
20
204.547745
30
-127.218742
70
192
0
VERTEX
8
OBJECT033
10
-240.000000
20
204.544876
30
-127.218742
70
192
0
VERTEX
8
OBJECT033
10
-240.000000
20
55.765533
30
-127.218742
70
192
0
VERTEX
8
OBJECT033
10
0
20
0
30
0
70
128
71
2
72
3
73
-4
0
VERTEX
8
OBJECT033
10
0
20
0
30
0
70
128
71
-2
72
4
73
1
0
VERTEX
8
OBJECT033
10
0
20
0
30
0
70
128
71
3
72
2
73
-6
0
VERTEX
8
OBJECT033
10
0
20
0
30
0
70
128
71
-3
72
6
73
5
0
VERTEX
8
OBJECT033
10
0
20
0
30
0
70
128
71
6
72
2
73
-1
0
VERTEX
8
OBJECT033
10
0
20
0
30
0
70
128
71
-6
72
1
73
7
0
VERTEX
8
OBJECT033
10
0
20
0
30
0
70
128
71
3
72
5
73
-8
0
VERTEX
8
OBJECT033
10
0
20
0
30
0
70
128
71
-3
72
8
73
4
0
VERTEX
8
OBJECT033
10
0
20
0
30
0
70
128
71
5
72
6
73
-7
0
VERTEX
8
OBJECT033
10
0
20
0
30
0
70
128
71
-5
72
7
73
8
0
VERTEX
8
OBJECT033
10
0
20
0
30
0
70
128
71
1
72
4
73
-8
0
VERTEX
8
OBJECT033
10
0
20
0
30
0
70
128
71
-1
72
8
73
7
0
SEQEND
8
OBJECT033
0
POLYLINE
8
OBJECT034
66
1
70
64
71
10
72
16
62
50
0
VERTEX
8
OBJECT034
10
-390.077606
20
255.218750
30
-72.236870
70
192
0
VERTEX
8
OBJECT034
10
-406.000000
20
240.652893
30
-94.088715
70
192
0
VERTEX
8
OBJECT034
10
-406.000000
20
229.788254
30
-110.386101
70
192
0
VERTEX
8
OBJECT034
10
-240.000000
20
229.757141
30
-110.406837
70
192
0
VERTEX
8
OBJECT034
10
-240.000000
20
255.218750
30
-72.213432
70
192
0
VERTEX
8
OBJECT034
10
-406.000000
20
205.119537
30
-126.832138
70
192
0
VERTEX
8
OBJECT034
10
-240.000000
20
205.119537
30
-126.832138
70
192
0
VERTEX
8
OBJECT034
10
-406.000000
20
226.945724
30
-94.091988
70
192
0
VERTEX
8
OBJECT034
10
-375.097351
20
255.218750
30
-51.681297
70
192
0
VERTEX
8
OBJECT034
10
-240.000000
20
255.218750
30
-51.681297
70
192
0
VERTEX
8
OBJECT034
10
0
20
0
30
0
70
128
71
2
72
3
73
-4
0
VERTEX
8
OBJECT034
10
0
20
0
30
0
70
128
71
-2
72
4
73
-5
0
VERTEX
8
OBJECT034
10
0
20
0
30
0
70
128
71
-2
72
5
73
1
0
VERTEX
8
OBJECT034
10
0
20
0
30
0
70
128
71
3
72
6
73
-7
0
VERTEX
8
OBJECT034
10
0
20
0
30
0
70
128
71
-3
72
7
73
4
0
VERTEX
8
OBJECT034
10
0
20
0
30
0
70
128
71
2
72
1
73
-9
0
VERTEX
8
OBJECT034
10
0
20
0
30
0
70
128
71
-2
72
9
73
8
0
VERTEX
8
OBJECT034
10
0
20
0
30
0
70
128
71
3
72
2
73
-8
0
VERTEX
8
OBJECT034
10
0
20
0
30
0
70
128
71
-3
72
8
73
6
0
VERTEX
8
OBJECT034
10
0
20
0
30
0
70
128
71
1
72
5
73
-10
0
VERTEX
8
OBJECT034
10
0
20
0
30
0
70
128
71
-1
72
10
73
9
0
VERTEX
8
OBJECT034
10
0
20
0
30
0
70
128
71
6
72
8
73
-9
0
VERTEX
8
OBJECT034
10
0
20
0
30
0
70
128
71
-6
72
9
73
-10
0
VERTEX
8
OBJECT034
10
0
20
0
30
0
70
128
71
-6
72
10
73
7
0
VERTEX
8
OBJECT034
10
0
20
0
30
0
70
128
71
4
72
7
73
-10
0
VERTEX
8
OBJECT034
10
0
20
0
30
0
70
128
71
-4
72
10
73
5
0
SEQEND
8
OBJECT034
0
POLYLINE
8
OBJECT035
66
1
70
64
71
8
72
12
62
50
0
VERTEX
8
OBJECT035
10
-240.000000
20
205.113098
30
-126.841835
70
192
0
VERTEX
8
OBJECT035
10
-406.000000
20
205.113098
30
-126.841835
70
192
0
VERTEX
8
OBJECT035
10
-406.000000
20
204.548111
30
-127.218750
70
192
0
VERTEX
8
OBJECT035
10
-240.000000
20
204.548111
30
-127.218750
70
192
0
VERTEX
8
OBJECT035
10
-406.000000
20
183.655960
30
-127.218742
70
192
0
VERTEX
8
OBJECT035
10
-240.000000
20
183.655960
30
-127.218742
70
192
0
VERTEX
8
OBJECT035
10
-406.000000
20
221.828400
30
-101.768242
70
192
0
VERTEX
8
OBJECT035
10
-240.000000
20
221.829651
30
-101.767410
70
192
0
VERTEX
8
OBJECT035
10
0
20
0
30
0
70
128
71
2
72
3
73
-4
0
VERTEX
8
OBJECT035
10
0
20
0
30
0
70
128
71
-2
72
4
73
1
0
VERTEX
8
OBJECT035
10
0
20
0
30
0
70
128
71
3
72
5
73
-6
0
VERTEX
8
OBJECT035
10
0
20
0
30
0
70
128
71
-3
72
6
73
4
0
VERTEX
8
OBJECT035
10
0
20
0
30
0
70
128
71
3
72
2
73
-7
0
VERTEX
8
OBJECT035
10
0
20
0
30
0
70
128
71
-3
72
7
73
5
0
VERTEX
8
OBJECT035
10
0
20
0
30
0
70
128
71
2
72
1
73
-8
0
VERTEX
8
OBJECT035
10
0
20
0
30
0
70
128
71
-2
72
8
73
7
0
VERTEX
8
OBJECT035
10
0
20
0
30
0
70
128
71
5
72
7
73
-8
0
VERTEX
8
OBJECT035
10
0
20
0
30
0
70
128
71
-5
72
8
73
6
0
VERTEX
8
OBJECT035
10
0
20
0
30
0
70
128
71
1
72
4
73
-6
0
VERTEX
8
OBJECT035
10
0
20
0
30
0
70
128
71
-1
72
6
73
8
0
SEQEND
8
OBJECT035
0
POLYLINE
8
OBJECT036
66
1
70
64
71
6
72
8
62
50
0
VERTEX
8
OBJECT036
10
-268.298615
20
240.885269
30
94.875000
70
192
0
VERTEX
8
OBJECT036
10
-281.543060
20
252.646378
30
76.699898
70
192
0
VERTEX
8
OBJECT036
10
-240.000000
20
252.646378
30
76.699898
70
192
0
VERTEX
8
OBJECT036
10
-240.000000
20
240.885269
30
94.875000
70
192
0
VERTEX
8
OBJECT036
10
-268.299927
20
226.397003
30
94.875000
70
192
0
VERTEX
8
OBJECT036
10
-240.000000
20
226.396057
30
94.875000
70
192
0
VERTEX
8
OBJECT036
10
0
20
0
30
0
70
128
71
2
72
3
73
-4
0
VERTEX
8
OBJECT036
10
0
20
0
30
0
70
128
71
-2
72
4
73
1
0
VERTEX
8
OBJECT036
10
0
20
0
30
0
70
128
71
2
72
1
73
5
0
VERTEX
8
OBJECT036
10
0
20
0
30
0
70
128
71
2
72
5
73
-6
0
VERTEX
8
OBJECT036
10
0
20
0
30
0
70
128
71
-2
72
6
73
3
0
VERTEX
8
OBJECT036
10
0
20
0
30
0
70
128
71
5
72
1
73
-4
0
VERTEX
8
OBJECT036
10
0
20
0
30
0
70
128
71
-5
72
4
73
6
0
VERTEX
8
OBJECT036
10
0
20
0
30
0
70
128
71
3
72
6
73
4
0
SEQEND
8
OBJECT036
0
POLYLINE
8
OBJECT037
66
1
70
64
71
10
72
16
62
50
0
VERTEX
8
OBJECT037
10
-240.000000
20
199.634674
30
127.218750
70
192
0
VERTEX
8
OBJECT037
10
-244.725891
20
199.634674
30
127.218750
70
192
0
VERTEX
8
OBJECT037
10
-263.303009
20
236.453094
30
101.725739
70
192
0
VERTEX
8
OBJECT037
10
-240.000000
20
236.453094
30
101.725739
70
192
0
VERTEX
8
OBJECT037
10
-268.295197
20
240.885361
30
94.875000
70
192
0
VERTEX
8
OBJECT037
10
-240.000000
20
240.885361
30
94.875000
70
192
0
VERTEX
8
OBJECT037
10
-244.725204
20
179.684174
30
127.218750
70
192
0
VERTEX
8
OBJECT037
10
-268.294556
20
226.396820
30
94.875000
70
192
0
VERTEX
8
OBJECT037
10
-240.000000
20
179.684174
30
127.218750
70
192
0
VERTEX
8
OBJECT037
10
-240.000000
20
226.396179
30
94.875000
70
192
0
VERTEX
8
OBJECT037
10
0
20
0
30
0
70
128
71
2
72
3
73
-4
0
VERTEX
8
OBJECT037
10
0
20
0
30
0
70
128
71
-2
72
4
73
1
0
VERTEX
8
OBJECT037
10
0
20
0
30
0
70
128
71
3
72
5
73
-6
0
VERTEX
8
OBJECT037
10
0
20
0
30
0
70
128
71
-3
72
6
73
4
0
VERTEX
8
OBJECT037
10
0
20
0
30
0
70
128
71
3
72
2
73
-7
0
VERTEX
8
OBJECT037
10
0
20
0
30
0
70
128
71
-3
72
7
73
-8
0
VERTEX
8
OBJECT037
10
0
20
0
30
0
70
128
71
-3
72
8
73
5
0
VERTEX
8
OBJECT037
10
0
20
0
30
0
70
128
71
7
72
2
73
-1
0
VERTEX
8
OBJECT037
10
0
20
0
30
0
70
128
71
-7
72
1
73
9
0
VERTEX
8
OBJECT037
10
0
20
0
30
0
70
128
71
8
72
7
73
-9
0
VERTEX
8
OBJECT037
10
0
20
0
30
0
70
128
71
-8
72
9
73
10
0
VERTEX
8
OBJECT037
10
0
20
0
30
0
70
128
71
5
72
8
73
-10
0
VERTEX
8
OBJECT037
10
0
20
0
30
0
70
128
71
-5
72
10
73
6
0
VERTEX
8
OBJECT037
10
0
20
0
30
0
70
128
71
1
72
4
73
-6
0
VERTEX
8
OBJECT037
10
0
20
0
30
0
70
128
71
-1
72
6
73
-10
0
VERTEX
8
OBJECT037
10
0
20
0
30
0
70
128
71
-1
72
10
73
9
0
SEQEND
8
OBJECT037
0
POLYLINE
8
OBJECT038
66
1
70
64
71
8
72
12
62
50
0
VERTEX
8
OBJECT038
10
-378.288177
20
266.000000
30
-56.062485
70
192
0
VERTEX
8
OBJECT038
10
-240.000000
20
266.000000
30
-56.062485
70
192
0
VERTEX
8
OBJECT038
10
-240.000000
20
266.000000
30
56.063396
70
192
0
VERTEX
8
OBJECT038
10
-296.582550
20
266.000000
30
56.063396
70
192
0
VERTEX
8
OBJECT038
10
-284.440491
20
255.218750
30
72.726471
70
192
0
VERTEX
8
OBJECT038
10
-240.000000
20
255.218750
30
72.726471
70
192
0
VERTEX
8
OBJECT038
10
-390.075592
20
255.218750
30
-72.235374
70
192
0
VERTEX
8
OBJECT038
10
-240.000000
20
255.218750
30
-72.235374
70
192
0
VERTEX
8
OBJECT038
10
0
20
0
30
0
70
128
71
2
72
3
73
-4
0
VERTEX
8
OBJECT038
10
0
20
0
30
0
70
128
71
-2
72
4
73
1
0
VERTEX
8
OBJECT038
10
0
20
0
30
0
70
128
71
4
72
3
73
-6
0
VERTEX
8
OBJECT038
10
0
20
0
30
0
70
128
71
-4
72
6
73
5
0
VERTEX
8
OBJECT038
10
0
20
0
30
0
70
128
71
1
72
7
73
-8
0
VERTEX
8
OBJECT038
10
0
20
0
30
0
70
128
71
-1
72
8
73
2
0
VERTEX
8
OBJECT038
10
0
20
0
30
0
70
128
71
1
72
4
73
-5
0
VERTEX
8
OBJECT038
10
0
20
0
30
0
70
128
71
-1
72
5
73
7
0
VERTEX
8
OBJECT038
10
0
20
0
30
0
70
128
71
7
72
5
73
-6
0
VERTEX
8
OBJECT038
10
0
20
0
30
0
70
128
71
-7
72
6
73
8
0
VERTEX
8
OBJECT038
10
0
20
0
30
0
70
128
71
3
72
2
73
-8
0
VERTEX
8
OBJECT038
10
0
20
0
30
0
70
128
71
-3
72
8
73
6
0
SEQEND
8
OBJECT038
0
POLYLINE
8
OBJECT039
66
1
70
64
71
8
72
12
62
50
0
VERTEX
8
OBJECT039
10
-281.547028
20
252.651901
30
76.696045
70
192
0
VERTEX
8
OBJECT039
10
-284.437592
20
255.218750
30
72.729385
70
192
0
VERTEX
8
OBJECT039
10
-240.000000
20
255.218750
30
72.729385
70
192
0
VERTEX
8
OBJECT039
10
-240.000000
20
252.651901
30
76.696045
70
192
0
VERTEX
8
OBJECT039
10
-299.772827
20
255.218750
30
51.681999
70
192
0
VERTEX
8
OBJECT039
10
-269.094177
20
227.976120
30
93.781487
70
192
0
VERTEX
8
OBJECT039
10
-240.000000
20
255.218750
30
51.681999
70
192
0
VERTEX
8
OBJECT039
10
-240.000000
20
227.976593
30
93.780762
70
192
0
VERTEX
8
OBJECT039
10
0
20
0
30
0
70
128
71
2
72
3
73
-4
0
VERTEX
8
OBJECT039
10
0
20
0
30
0
70
128
71
-2
72
4
73
1
0
VERTEX
8
OBJECT039
10
0
20
0
30
0
70
128
71
2
72
1
73
-6
0
VERTEX
8
OBJECT039
10
0
20
0
30
0
70
128
71
-2
72
6
73
5
0
VERTEX
8
OBJECT039
10
0
20
0
30
0
70
128
71
2
72
5
73
-7
0
VERTEX
8
OBJECT039
10
0
20
0
30
0
70
128
71
-2
72
7
73
3
0
VERTEX
8
OBJECT039
10
0
20
0
30
0
70
128
71
6
72
1
73
-4
0
VERTEX
8
OBJECT039
10
0
20
0
30
0
70
128
71
-6
72
4
73
8
0
VERTEX
8
OBJECT039
10
0
20
0
30
0
70
128
71
5
72
6
73
-8
0
VERTEX
8
OBJECT039
10
0
20
0
30
0
70
128
71
-5
72
8
73
7
0
VERTEX
8
OBJECT039
10
0
20
0
30
0
70
128
71
3
72
7
73
-8
0
VERTEX
8
OBJECT039
10
0
20
0
30
0
70
128
71
-3
72
8
73
4
0
SEQEND
8
OBJECT039
0
POLYLINE
8
OBJECT040
66
1
70
64
71
8
72
12
62
50
0
VERTEX
8
OBJECT040
10
-240.000000
20
16.874435
30
94.875000
70
192
0
VERTEX
8
OBJECT040
10
-268.299683
20
16.874435
30
94.875000
70
192
0
VERTEX
8
OBJECT040
10
-259.612915
20
25.127676
30
106.795692
70
192
0
VERTEX
8
OBJECT040
10
-240.000000
20
25.127676
30
106.795692
70
192
0
VERTEX
8
OBJECT040
10
-247.155045
20
50.775688
30
123.891991
70
192
0
VERTEX
8
OBJECT040
10
-240.000000
20
50.775688
30
123.891991
70
192
0
VERTEX
8
OBJECT040
10
-268.299927
20
30.685890
30
94.875000
70
192
0
VERTEX
8
OBJECT040
10
-240.000000
20
30.686312
30
94.875000
70
192
0
VERTEX
8
OBJECT040
10
0
20
0
30
0
70
128
71
2
72
3
73
-4
0
VERTEX
8
OBJECT040
10
0
20
0
30
0
70
128
71
-2
72
4
73
1
0
VERTEX
8
OBJECT040
10
0
20
0
30
0
70
128
71
3
72
5
73
-6
0
VERTEX
8
OBJECT040
10
0
20
0
30
0
70
128
71
-3
72
6
73
4
0
VERTEX
8
OBJECT040
10
0
20
0
30
0
70
128
71
2
72
7
73
-5
0
VERTEX
8
OBJECT040
10
0
20
0
30
0
70
128
71
-2
72
5
73
3
0
VERTEX
8
OBJECT040
10
0
20
0
30
0
70
128
71
5
72
7
73
-8
0
VERTEX
8
OBJECT040
10
0
20
0
30
0
70
128
71
-5
72
8
73
6
0
VERTEX
8
OBJECT040
10
0
20
0
30
0
70
128
71
7
72
2
73
-1
0
VERTEX
8
OBJECT040
10
0
20
0
30
0
70
128
71
-7
72
1
73
8
0
VERTEX
8
OBJECT040
10
0
20
0
30
0
70
128
71
4
72
6
73
-8
0
VERTEX
8
OBJECT040
10
0
20
0
30
0
70
128
71
-4
72
8
73
1
0
SEQEND
8
OBJECT040
0
POLYLINE
8
OBJECT041
66
1
70
64
71
8
72
12
62
50
0
VERTEX
8
OBJECT041
10
-240.000000
20
266.000000
30
-56.062485
70
192
0
VERTEX
8
OBJECT041
10
-194.000000
20
266.000000
30
-56.062485
70
192
0
VERTEX
8
OBJECT041
10
-194.000000
20
266.000000
30
56.063396
70
192
0
VERTEX
8
OBJECT041
10
-240.000000
20
266.000000
30
56.063396
70
192
0
VERTEX
8
OBJECT041
10
-194.000000
20
255.218750
30
72.726471
70
192
0
VERTEX
8
OBJECT041
10
-240.000000
20
255.218750
30
72.726471
70
192
0
VERTEX
8
OBJECT041
10
-240.000000
20
255.218750
30
-72.235374
70
192
0
VERTEX
8
OBJECT041
10
-194.000000
20
255.218750
30
-72.235374
70
192
0
VERTEX
8
OBJECT041
10
0
20
0
30
0
70
128
71
2
72
3
73
-4
0
VERTEX
8
OBJECT041
10
0
20
0
30
0
70
128
71
-2
72
4
73
1
0
VERTEX
8
OBJECT041
10
0
20
0
30
0
70
128
71
3
72
5
73
-6
0
VERTEX
8
OBJECT041
10
0
20
0
30
0
70
128
71
-3
72
6
73
4
0
VERTEX
8
OBJECT041
10
0
20
0
30
0
70
128
71
1
72
7
73
-8
0
VERTEX
8
OBJECT041
10
0
20
0
30
0
70
128
71
-1
72
8
73
2
0
VERTEX
8
OBJECT041
10
0
20
0
30
0
70
128
71
7
72
6
73
-5
0
VERTEX
8
OBJECT041
10
0
20
0
30
0
70
128
71
-7
72
5
73
8
0
VERTEX
8
OBJECT041
10
0
20
0
30
0
70
128
71
3
72
2
73
-8
0
VERTEX
8
OBJECT041
10
0
20
0
30
0
70
128
71
-3
72
8
73
5
0
VERTEX
8
OBJECT041
10
0
20
0
30
0
70
128
71
1
72
4
73
-6
0
VERTEX
8
OBJECT041
10
0
20
0
30
0
70
128
71
-1
72
6
73
7
0
SEQEND
8
OBJECT041
0
POLYLINE
8
OBJECT042
66
1
70
64
71
6
72
8
62
50
0
VERTEX
8
OBJECT042
10
-240.000000
20
252.646378
30
76.699898
70
192
0
VERTEX
8
OBJECT042
10
-194.000000
20
252.646378
30
76.699898
70
192
0
VERTEX
8
OBJECT042
10
-194.000000
20
240.885269
30
94.875000
70
192
0
VERTEX
8
OBJECT042
10
-240.000000
20
240.885269
30
94.875000
70
192
0
VERTEX
8
OBJECT042
10
-240.000000
20
226.396057
30
94.875000
70
192
0
VERTEX
8
OBJECT042
10
-194.000000
20
226.396057
30
94.875000
70
192
0
VERTEX
8
OBJECT042
10
0
20
0
30
0
70
128
71
2
72
3
73
-4
0
VERTEX
8
OBJECT042
10
0
20
0
30
0
70
128
71
-2
72
4
73
1
0
VERTEX
8
OBJECT042
10
0
20
0
30
0
70
128
71
1
72
5
73
-6
0
VERTEX
8
OBJECT042
10
0
20
0
30
0
70
128
71
-1
72
6
73
2
0
VERTEX
8
OBJECT042
10
0
20
0
30
0
70
128
71
5
72
4
73
-3
0
VERTEX
8
OBJECT042
10
0
20
0
30
0
70
128
71
-5
72
3
73
6
0
VERTEX
8
OBJECT042
10
0
20
0
30
0
70
128
71
2
72
6
73
3
0
VERTEX
8
OBJECT042
10
0
20
0
30
0
70
128
71
4
72
5
73
1
0
SEQEND
8
OBJECT042
0
POLYLINE
8
OBJECT043
66
1
70
64
71
10
72
16
62
50
0
VERTEX
8
OBJECT043
10
-194.000000
20
199.634674
30
127.218750
70
192
0
VERTEX
8
OBJECT043
10
-240.000000
20
199.634674
30
127.218750
70
192
0
VERTEX
8
OBJECT043
10
-240.000000
20
236.453094
30
101.725739
70
192
0
VERTEX
8
OBJECT043
10
-194.000000
20
236.453094
30
101.725739
70
192
0
VERTEX
8
OBJECT043
10
-240.000000
20
240.885361
30
94.875000
70
192
0
VERTEX
8
OBJECT043
10
-194.000000
20
240.885361
30
94.875000
70
192
0
VERTEX
8
OBJECT043
10
-194.000000
20
179.684174
30
127.218750
70
192
0
VERTEX
8
OBJECT043
10
-240.000000
20
179.684174
30
127.218750
70
192
0
VERTEX
8
OBJECT043
10
-194.000000
20
226.396179
30
94.875000
70
192
0
VERTEX
8
OBJECT043
10
-240.000000
20
226.396179
30
94.875000
70
192
0
VERTEX
8
OBJECT043
10
0
20
0
30
0
70
128
71
2
72
3
73
-4
0
VERTEX
8
OBJECT043
10
0
20
0
30
0
70
128
71
-2
72
4
73
1
0
VERTEX
8
OBJECT043
10
0
20
0
30
0
70
128
71
3
72
5
73
-6
0
VERTEX
8
OBJECT043
10
0
20
0
30
0
70
128
71
-3
72
6
73
4
0
VERTEX
8
OBJECT043
10
0
20
0
30
0
70
128
71
8
72
2
73
-1
0
VERTEX
8
OBJECT043
10
0
20
0
30
0
70
128
71
-8
72
1
73
7
0
VERTEX
8
OBJECT043
10
0
20
0
30
0
70
128
71
10
72
8
73
-7
0
VERTEX
8
OBJECT043
10
0
20
0
30
0
70
128
71
-10
72
7
73
9
0
VERTEX
8
OBJECT043
10
0
20
0
30
0
70
128
71
5
72
10
73
-9
0
VERTEX
8
OBJECT043
10
0
20
0
30
0
70
128
71
-5
72
9
73
6
0
VERTEX
8
OBJECT043
10
0
20
0
30
0
70
128
71
1
72
4
73
-6
0
VERTEX
8
OBJECT043
10
0
20
0
30
0
70
128
71
-1
72
6
73
-9
0
VERTEX
8
OBJECT043
10
0
20
0
30
0
70
128
71
-1
72
9
73
7
0
VERTEX
8
OBJECT043
10
0
20
0
30
0
70
128
71
3
72
2
73
-8
0
VERTEX
8
OBJECT043
10
0
20
0
30
0
70
128
71
-3
72
8
73
-10
0
VERTEX
8
OBJECT043
10
0
20
0
30
0
70
128
71
-3
72
10
73
5
0
SEQEND
8
OBJECT043
0
POLYLINE
8
OBJECT044
66
1
70
64
71
8
72
12
62
50
0
VERTEX
8
OBJECT044
10
-194.000000
20
50.774609
30
123.890411
70
192
0
VERTEX
8
OBJECT044
10
-240.000000
20
50.774609
30
123.890411
70
192
0
VERTEX
8
OBJECT044
10
-240.000000
20
55.764984
30
127.218750
70
192
0
VERTEX
8
OBJECT044
10
-194.000000
20
55.764984
30
127.218750
70
192
0
VERTEX
8
OBJECT044
10
-240.000000
20
76.318436
30
127.218750
70
192
0
VERTEX
8
OBJECT044
10
-194.000000
20
76.318436
30
127.218750
70
192
0
VERTEX
8
OBJECT044
10
-194.000000
20
33.161724
30
98.450417
70
192
0
VERTEX
8
OBJECT044
10
-240.000000
20
33.161724
30
98.450417
70
192
0
VERTEX
8
OBJECT044
10
0
20
0
30
0
70
128
71
2
72
3
73
-4
0
VERTEX
8
OBJECT044
10
0
20
0
30
0
70
128
71
-2
72
4
73
1
0
VERTEX
8
OBJECT044
10
0
20
0
30
0
70
128
71
3
72
5
73
-6
0
VERTEX
8
OBJECT044
10
0
20
0
30
0
70
128
71
-3
72
6
73
4
0
VERTEX
8
OBJECT044
10
0
20
0
30
0
70
128
71
8
72
2
73
-1
0
VERTEX
8
OBJECT044
10
0
20
0
30
0
70
128
71
-8
72
1
73
7
0
VERTEX
8
OBJECT044
10
0
20
0
30
0
70
128
71
5
72
8
73
-7
0
VERTEX
8
OBJECT044
10
0
20
0
30
0
70
128
71
-5
72
7
73
6
0
VERTEX
8
OBJECT044
10
0
20
0
30
0
70
128
71
1
72
4
73
-6
0
VERTEX
8
OBJECT044
10
0
20
0
30
0
70
128
71
-1
72
6
73
7
0
VERTEX
8
OBJECT044
10
0
20
0
30
0
70
128
71
3
72
2
73
-8
0
VERTEX
8
OBJECT044
10
0
20
0
30
0
70
128
71
-3
72
8
73
5
0
SEQEND
8
OBJECT044
0
POLYLINE
8
OBJECT045
66
1
70
64
71
8
72
12
62
50
0
VERTEX
8
OBJECT045
10
-194.000000
20
0.781250
30
71.630547
70
192
0
VERTEX
8
OBJECT045
10
-240.000000
20
0.781250
30
71.630547
70
192
0
VERTEX
8
OBJECT045
10
-240.000000
20
16.874454
30
94.875000
70
192
0
VERTEX
8
OBJECT045
10
-194.000000
20
16.874454
30
94.875000
70
192
0
VERTEX
8
OBJECT045
10
-194.000000
20
0.781250
30
51.681801
70
192
0
VERTEX
8
OBJECT045
10
-240.000000
20
0.781250
30
51.681801
70
192
0
VERTEX
8
OBJECT045
10
-194.000000
20
30.686314
30
94.875000
70
192
0
VERTEX
8
OBJECT045
10
-240.000000
20
30.686314
30
94.875000
70
192
0
VERTEX
8
OBJECT045
10
0
20
0
30
0
70
128
71
2
72
3
73
-4
0
VERTEX
8
OBJECT045
10
0
20
0
30
0
70
128
71
-2
72
4
73
1
0
VERTEX
8
OBJECT045
10
0
20
0
30
0
70
128
71
6
72
2
73
-1
0
VERTEX
8
OBJECT045
10
0
20
0
30
0
70
128
71
-6
72
1
73
5
0
VERTEX
8
OBJECT045
10
0
20
0
30
0
70
128
71
5
72
7
73
-8
0
VERTEX
8
OBJECT045
10
0
20
0
30
0
70
128
71
-5
72
8
73
6
0
VERTEX
8
OBJECT045
10
0
20
0
30
0
70
128
71
3
72
8
73
-7
0
VERTEX
8
OBJECT045
10
0
20
0
30
0
70
128
71
-3
72
7
73
4
0
VERTEX
8
OBJECT045
10
0
20
0
30
0
70
128
71
1
72
4
73
-7
0
VERTEX
8
OBJECT045
10
0
20
0
30
0
70
128
71
-1
72
7
73
5
0
VERTEX
8
OBJECT045
10
0
20
0
30
0
70
128
71
2
72
6
73
-8
0
VERTEX
8
OBJECT045
10
0
20
0
30
0
70
128
71
-2
72
8
73
3
0
SEQEND
8
OBJECT045
0
POLYLINE
8
OBJECT046
66
1
70
64
71
8
72
12
62
50
0
VERTEX
8
OBJECT046
10
-194.000000
20
7.861856
30
-81.582481
70
192
0
VERTEX
8
OBJECT046
10
-240.000000
20
7.861858
30
-81.582481
70
192
0
VERTEX
8
OBJECT046
10
-240.000000
20
0.781250
30
-71.466324
70
192
0
VERTEX
8
OBJECT046
10
-194.000000
20
0.781250
30
-71.466324
70
192
0
VERTEX
8
OBJECT046
10
-240.000000
20
0.781250
30
-51.686596
70
192
0
VERTEX
8
OBJECT046
10
-194.000000
20
0.781250
30
-51.686604
70
192
0
VERTEX
8
OBJECT046
10
-194.000000
20
33.817776
30
-98.886444
70
192
0
VERTEX
8
OBJECT046
10
-240.000000
20
33.817787
30
-98.886452
70
192
0
VERTEX
8
OBJECT046
10
0
20
0
30
0
70
128
71
2
72
3
73
-4
0
VERTEX
8
OBJECT046
10
0
20
0
30
0
70
128
71
-2
72
4
73
1
0
VERTEX
8
OBJECT046
10
0
20
0
30
0
70
128
71
3
72
5
73
-6
0
VERTEX
8
OBJECT046
10
0
20
0
30
0
70
128
71
-3
72
6
73
4
0
VERTEX
8
OBJECT046
10
0
20
0
30
0
70
128
71
8
72
2
73
-1
0
VERTEX
8
OBJECT046
10
0
20
0
30
0
70
128
71
-8
72
1
73
7
0
VERTEX
8
OBJECT046
10
0
20
0
30
0
70
128
71
7
72
6
73
-5
0
VERTEX
8
OBJECT046
10
0
20
0
30
0
70
128
71
-7
72
5
73
8
0
VERTEX
8
OBJECT046
10
0
20
0
30
0
70
128
71
1
72
4
73
-6
0
VERTEX
8
OBJECT046
10
0
20
0
30
0
70
128
71
-1
72
6
73
7
0
VERTEX
8
OBJECT046
10
0
20
0
30
0
70
128
71
2
72
8
73
-5
0
VERTEX
8
OBJECT046
10
0
20
0
30
0
70
128
71
-2
72
5
73
3
0
SEQEND
8
OBJECT046
0
POLYLINE
8
OBJECT047
66
1
70
64
71
8
72
12
62
50
0
VERTEX
8
OBJECT047
10
-194.000000
20
188.375870
30
-138.000000
70
192
0
VERTEX
8
OBJECT047
10
-240.000000
20
188.375870
30
-138.000000
70
192
0
VERTEX
8
OBJECT047
10
-240.000000
20
71.937508
30
-138.000000
70
192
0
VERTEX
8
OBJECT047
10
-194.000000
20
71.937508
30
-138.000000
70
192
0
VERTEX
8
OBJECT047
10
-194.000000
20
204.544876
30
-127.218742
70
192
0
VERTEX
8
OBJECT047
10
-240.000000
20
204.544876
30
-127.218742
70
192
0
VERTEX
8
OBJECT047
10
-240.000000
20
55.765533
30
-127.218742
70
192
0
VERTEX
8
OBJECT047
10
-194.000000
20
55.765533
30
-127.218742
70
192
0
VERTEX
8
OBJECT047
10
0
20
0
30
0
70
128
71
2
72
3
73
-4
0
VERTEX
8
OBJECT047
10
0
20
0
30
0
70
128
71
-2
72
4
73
1
0
VERTEX
8
OBJECT047
10
0
20
0
30
0
70
128
71
6
72
2
73
-1
0
VERTEX
8
OBJECT047
10
0
20
0
30
0
70
128
71
-6
72
1
73
5
0
VERTEX
8
OBJECT047
10
0
20
0
30
0
70
128
71
3
72
7
73
-8
0
VERTEX
8
OBJECT047
10
0
20
0
30
0
70
128
71
-3
72
8
73
4
0
VERTEX
8
OBJECT047
10
0
20
0
30
0
70
128
71
7
72
6
73
-5
0
VERTEX
8
OBJECT047
10
0
20
0
30
0
70
128
71
-7
72
5
73
8
0
VERTEX
8
OBJECT047
10
0
20
0
30
0
70
128
71
1
72
4
73
-8
0
VERTEX
8
OBJECT047
10
0
20
0
30
0
70
128
71
-1
72
8
73
5
0
VERTEX
8
OBJECT047
10
0
20
0
30
0
70
128
71
3
72
2
73
-6
0
VERTEX
8
OBJECT047
10
0
20
0
30
0
70
128
71
-3
72
6
73
7
0
SEQEND
8
OBJECT047
0
POLYLINE
8
OBJECT048
66
1
70
64
71
8
72
12
62
50
0
VERTEX
8
OBJECT048
10
-240.000000
20
229.757141
30
-110.406837
70
192
0
VERTEX
8
OBJECT048
10
-194.000000
20
229.756393
30
-110.407341
70
192
0
VERTEX
8
OBJECT048
10
-194.000000
20
255.218750
30
-72.212807
70
192
0
VERTEX
8
OBJECT048
10
-240.000000
20
255.218750
30
-72.213432
70
192
0
VERTEX
8
OBJECT048
10
-240.000000
20
205.119537
30
-126.832138
70
192
0
VERTEX
8
OBJECT048
10
-194.000000
20
205.119537
30
-126.832138
70
192
0
VERTEX
8
OBJECT048
10
-194.000000
20
255.218750
30
-51.681297
70
192
0
VERTEX
8
OBJECT048
10
-240.000000
20
255.218750
30
-51.681297
70
192
0
VERTEX
8
OBJECT048
10
0
20
0
30
0
70
128
71
2
72
3
73
-4
0
VERTEX
8
OBJECT048
10
0
20
0
30
0
70
128
71
-2
72
4
73
1
0
VERTEX
8
OBJECT048
10
0
20
0
30
0
70
128
71
1
72
5
73
-6
0
VERTEX
8
OBJECT048
10
0
20
0
30
0
70
128
71
-1
72
6
73
2
0
VERTEX
8
OBJECT048
10
0
20
0
30
0
70
128
71
3
72
7
73
-8
0
VERTEX
8
OBJECT048
10
0
20
0
30
0
70
128
71
-3
72
8
73
4
0
VERTEX
8
OBJECT048
10
0
20
0
30
0
70
128
71
5
72
8
73
-7
0
VERTEX
8
OBJECT048
10
0
20
0
30
0
70
128
71
-5
72
7
73
6
0
VERTEX
8
OBJECT048
10
0
20
0
30
0
70
128
71
2
72
6
73
-7
0
VERTEX
8
OBJECT048
10
0
20
0
30
0
70
128
71
-2
72
7
73
3
0
VERTEX
8
OBJECT048
10
0
20
0
30
0
70
128
71
1
72
4
73
-8
0
VERTEX
8
OBJECT048
10
0
20
0
30
0
70
128
71
-1
72
8
73
5
0
SEQEND
8
OBJECT048
0
POLYLINE
8
OBJECT049
66
1
70
64
71
8
72
12
62
50
0
VERTEX
8
OBJECT049
10
-194.000000
20
55.765690
30
-127.218742
70
192
0
VERTEX
8
OBJECT049
10
-240.000000
20
55.765690
30
-127.218742
70
192
0
VERTEX
8
OBJECT049
10
-240.000000
20
25.843451
30
-107.270599
70
192
0
VERTEX
8
OBJECT049
10
-194.000000
20
25.843451
30
-107.270599
70
192
0
VERTEX
8
OBJECT049
10
-240.000000
20
7.861738
30
-81.582336
70
192
0
VERTEX
8
OBJECT049
10
-194.000000
20
7.861738
30
-81.582336
70
192
0
VERTEX
8
OBJECT049
10
-194.000000
20
76.316299
30
-127.218742
70
192
0
VERTEX
8
OBJECT049
10
-240.000000
20
76.316299
30
-127.218742
70
192
0
VERTEX
8
OBJECT049
10
0
20
0
30
0
70
128
71
2
72
3
73
-4
0
VERTEX
8
OBJECT049
10
0
20
0
30
0
70
128
71
-2
72
4
73
1
0
VERTEX
8
OBJECT049
10
0
20
0
30
0
70
128
71
3
72
5
73
-6
0
VERTEX
8
OBJECT049
10
0
20
0
30
0
70
128
71
-3
72
6
73
4
0
VERTEX
8
OBJECT049
10
0
20
0
30
0
70
128
71
8
72
2
73
-1
0
VERTEX
8
OBJECT049
10
0
20
0
30
0
70
128
71
-8
72
1
73
7
0
VERTEX
8
OBJECT049
10
0
20
0
30
0
70
128
71
5
72
8
73
-7
0
VERTEX
8
OBJECT049
10
0
20
0
30
0
70
128
71
-5
72
7
73
6
0
VERTEX
8
OBJECT049
10
0
20
0
30
0
70
128
71
1
72
4
73
-6
0
VERTEX
8
OBJECT049
10
0
20
0
30
0
70
128
71
-1
72
6
73
7
0
VERTEX
8
OBJECT049
10
0
20
0
30
0
70
128
71
3
72
2
73
-8
0
VERTEX
8
OBJECT049
10
0
20
0
30
0
70
128
71
-3
72
8
73
5
0
SEQEND
8
OBJECT049
0
POLYLINE
8
OBJECT050
66
1
70
64
71
8
72
12
62
50
0
VERTEX
8
OBJECT050
10
-194.000000
20
205.113098
30
-126.841835
70
192
0
VERTEX
8
OBJECT050
10
-240.000000
20
205.113098
30
-126.841835
70
192
0
VERTEX
8
OBJECT050
10
-240.000000
20
204.548111
30
-127.218750
70
192
0
VERTEX
8
OBJECT050
10
-194.000000
20
204.548111
30
-127.218750
70
192
0
VERTEX
8
OBJECT050
10
-240.000000
20
183.655960
30
-127.218742
70
192
0
VERTEX
8
OBJECT050
10
-194.000000
20
183.655960
30
-127.218742
70
192
0
VERTEX
8
OBJECT050
10
-194.000000
20
221.829651
30
-101.767410
70
192
0
VERTEX
8
OBJECT050
10
-240.000000
20
221.829651
30
-101.767410
70
192
0
VERTEX
8
OBJECT050
10
0
20
0
30
0
70
128
71
2
72
3
73
-4
0
VERTEX
8
OBJECT050
10
0
20
0
30
0
70
128
71
-2
72
4
73
1
0
VERTEX
8
OBJECT050
10
0
20
0
30
0
70
128
71
3
72
5
73
-6
0
VERTEX
8
OBJECT050
10
0
20
0
30
0
70
128
71
-3
72
6
73
4
0
VERTEX
8
OBJECT050
10
0
20
0
30
0
70
128
71
1
72
7
73
-8
0
VERTEX
8
OBJECT050
10
0
20
0
30
0
70
128
71
-1
72
8
73
2
0
VERTEX
8
OBJECT050
10
0
20
0
30
0
70
128
71
5
72
8
73
-7
0
VERTEX
8
OBJECT050
10
0
20
0
30
0
70
128
71
-5
72
7
73
6
0
VERTEX
8
OBJECT050
10
0
20
0
30
0
70
128
71
1
72
4
73
-6
0
VERTEX
8
OBJECT050
10
0
20
0
30
0
70
128
71
-1
72
6
73
7
0
VERTEX
8
OBJECT050
10
0
20
0
30
0
70
128
71
3
72
2
73
-8
0
VERTEX
8
OBJECT050
10
0
20
0
30
0
70
128
71
-3
72
8
73
5
0
SEQEND
8
OBJECT050
0
POLYLINE
8
OBJECT051
66
1
70
64
71
8
72
12
62
50
0
VERTEX
8
OBJECT051
10
-194.000000
20
-10.000000
30
-56.062496
70
192
0
VERTEX
8
OBJECT051
10
-240.000000
20
-10.000000
30
-56.062496
70
192
0
VERTEX
8
OBJECT051
10
-240.000000
20
-10.000000
30
56.061974
70
192
0
VERTEX
8
OBJECT051
10
-194.000000
20
-10.000000
30
56.061974
70
192
0
VERTEX
8
OBJECT051
10
-240.000000
20
0.781250
30
71.628197
70
192
0
VERTEX
8
OBJECT051
10
-194.000000
20
0.781250
30
71.628197
70
192
0
VERTEX
8
OBJECT051
10
-194.000000
20
0.781250
30
-71.464279
70
192
0
VERTEX
8
OBJECT051
10
-240.000000
20
0.781250
30
-71.464279
70
192
0
VERTEX
8
OBJECT051
10
0
20
0
30
0
70
128
71
2
72
3
73
-4
0
VERTEX
8
OBJECT051
10
0
20
0
30
0
70
128
71
-2
72
4
73
1
0
VERTEX
8
OBJECT051
10
0
20
0
30
0
70
128
71
3
72
5
73
-6
0
VERTEX
8
OBJECT051
10
0
20
0
30
0
70
128
71
-3
72
6
73
4
0
VERTEX
8
OBJECT051
10
0
20
0
30
0
70
128
71
8
72
2
73
-1
0
VERTEX
8
OBJECT051
10
0
20
0
30
0
70
128
71
-8
72
1
73
7
0
VERTEX
8
OBJECT051
10
0
20
0
30
0
70
128
71
7
72
6
73
-5
0
VERTEX
8
OBJECT051
10
0
20
0
30
0
70
128
71
-7
72
5
73
8
0
VERTEX
8
OBJECT051
10
0
20
0
30
0
70
128
71
1
72
4
73
-6
0
VERTEX
8
OBJECT051
10
0
20
0
30
0
70
128
71
-1
72
6
73
7
0
VERTEX
8
OBJECT051
10
0
20
0
30
0
70
128
71
3
72
2
73
-8
0
VERTEX
8
OBJECT051
10
0
20
0
30
0
70
128
71
-3
72
8
73
5
0
SEQEND
8
OBJECT051
0
POLYLINE
8
OBJECT052
66
1
70
64
71
8
72
12
62
50
0
VERTEX
8
OBJECT052
10
-240.000000
20
255.218750
30
72.729385
70
192
0
VERTEX
8
OBJECT052
10
-194.000000
20
255.218750
30
72.729385
70
192
0
VERTEX
8
OBJECT052
10
-194.000000
20
252.651901
30
76.696045
70
192
0
VERTEX
8
OBJECT052
10
-240.000000
20
252.651901
30
76.696045
70
192
0
VERTEX
8
OBJECT052
10
-240.000000
20
255.218750
30
51.681999
70
192
0
VERTEX
8
OBJECT052
10
-194.000000
20
255.218750
30
51.681999
70
192
0
VERTEX
8
OBJECT052
10
-194.000000
20
227.976593
30
93.780762
70
192
0
VERTEX
8
OBJECT052
10
-240.000000
20
227.976593
30
93.780762
70
192
0
VERTEX
8
OBJECT052
10
0
20
0
30
0
70
128
71
2
72
3
73
-4
0
VERTEX
8
OBJECT052
10
0
20
0
30
0
70
128
71
-2
72
4
73
1
0
VERTEX
8
OBJECT052
10
0
20
0
30
0
70
128
71
1
72
5
73
-6
0
VERTEX
8
OBJECT052
10
0
20
0
30
0
70
128
71
-1
72
6
73
2
0
VERTEX
8
OBJECT052
10
0
20
0
30
0
70
128
71
8
72
4
73
-3
0
VERTEX
8
OBJECT052
10
0
20
0
30
0
70
128
71
-8
72
3
73
7
0
VERTEX
8
OBJECT052
10
0
20
0
30
0
70
128
71
5
72
8
73
-7
0
VERTEX
8
OBJECT052
10
0
20
0
30
0
70
128
71
-5
72
7
73
6
0
VERTEX
8
OBJECT052
10
0
20
0
30
0
70
128
71
2
72
6
73
-7
0
VERTEX
8
OBJECT052
10
0
20
0
30
0
70
128
71
-2
72
7
73
3
0
VERTEX
8
OBJECT052
10
0
20
0
30
0
70
128
71
1
72
4
73
-8
0
VERTEX
8
OBJECT052
10
0
20
0
30
0
70
128
71
-1
72
8
73
5
0
SEQEND
8
OBJECT052
0
POLYLINE
8
OBJECT053
66
1
70
64
71
8
72
12
62
50
0
VERTEX
8
OBJECT053
10
-194.000000
20
16.874435
30
94.875000
70
192
0
VERTEX
8
OBJECT053
10
-240.000000
20
16.874435
30
94.875000
70
192
0
VERTEX
8
OBJECT053
10
-240.000000
20
25.127676
30
106.795692
70
192
0
VERTEX
8
OBJECT053
10
-194.000000
20
25.127676
30
106.795692
70
192
0
VERTEX
8
OBJECT053
10
-240.000000
20
50.775688
30
123.891991
70
192
0
VERTEX
8
OBJECT053
10
-194.000000
20
50.775688
30
123.891991
70
192
0
VERTEX
8
OBJECT053
10
-240.000000
20
30.686312
30
94.875000
70
192
0
VERTEX
8
OBJECT053
10
-194.000000
20
30.686312
30
94.875000
70
192
0
VERTEX
8
OBJECT053
10
0
20
0
30
0
70
128
71
2
72
3
73
-4
0
VERTEX
8
OBJECT053
10
0
20
0
30
0
70
128
71
-2
72
4
73
1
0
VERTEX
8
OBJECT053
10
0
20
0
30
0
70
128
71
3
72
5
73
-6
0
VERTEX
8
OBJECT053
10
0
20
0
30
0
70
128
71
-3
72
6
73
4
0
VERTEX
8
OBJECT053
10
0
20
0
30
0
70
128
71
5
72
7
73
-8
0
VERTEX
8
OBJECT053
10
0
20
0
30
0
70
128
71
-5
72
8
73
6
0
VERTEX
8
OBJECT053
10
0
20
0
30
0
70
128
71
7
72
2
73
-1
0
VERTEX
8
OBJECT053
10
0
20
0
30
0
70
128
71
-7
72
1
73
8
0
VERTEX
8
OBJECT053
10
0
20
0
30
0
70
128
71
4
72
6
73
-8
0
VERTEX
8
OBJECT053
10
0
20
0
30
0
70
128
71
-4
72
8
73
1
0
VERTEX
8
OBJECT053
10
0
20
0
30
0
70
128
71
2
72
7
73
-5
0
VERTEX
8
OBJECT053
10
0
20
0
30
0
70
128
71
-2
72
5
73
3
0
SEQEND
8
OBJECT053
0
POLYLINE
8
OBJECT054
66
1
70
64
71
10
72
16
62
50
0
VERTEX
8
OBJECT054
10
-194.000000
20
71.936729
30
138.000000
70
192
0
VERTEX
8
OBJECT054
10
-204.054596
20
71.936729
30
138.000000
70
192
0
VERTEX
8
OBJECT054
10
-204.054596
20
184.062500
30
138.000000
70
192
0
VERTEX
8
OBJECT054
10
-194.000000
20
184.062500
30
138.000000
70
192
0
VERTEX
8
OBJECT054
10
-194.000000
20
55.765617
30
127.218750
70
192
0
VERTEX
8
OBJECT054
10
-240.000000
20
55.765617
30
127.218750
70
192
0
VERTEX
8
OBJECT054
10
-240.000000
20
65.503517
30
133.710678
70
192
0
VERTEX
8
OBJECT054
10
-240.000000
20
190.255814
30
133.710678
70
192
0
VERTEX
8
OBJECT054
10
-240.000000
20
199.632690
30
127.218750
70
192
0
VERTEX
8
OBJECT054
10
-194.000000
20
199.632690
30
127.218750
70
192
0
VERTEX
8
OBJECT054
10
0
20
0
30
0
70
128
71
2
72
3
73
-4
0
VERTEX
8
OBJECT054
10
0
20
0
30
0
70
128
71
-2
72
4
73
1
0
VERTEX
8
OBJECT054
10
0
20
0
30
0
70
128
71
6
72
7
73
-2
0
VERTEX
8
OBJECT054
10
0
20
0
30
0
70
128
71
-6
72
2
73
-1
0
VERTEX
8
OBJECT054
10
0
20
0
30
0
70
128
71
-6
72
1
73
5
0
VERTEX
8
OBJECT054
10
0
20
0
30
0
70
128
71
3
72
8
73
-9
0
VERTEX
8
OBJECT054
10
0
20
0
30
0
70
128
71
-3
72
9
73
-10
0
VERTEX
8
OBJECT054
10
0
20
0
30
0
70
128
71
-3
72
10
73
4
0
VERTEX
8
OBJECT054
10
0
20
0
30
0
70
128
71
3
72
2
73
-7
0
VERTEX
8
OBJECT054
10
0
20
0
30
0
70
128
71
-3
72
7
73
8
0
VERTEX
8
OBJECT054
10
0
20
0
30
0
70
128
71
9
72
6
73
-5
0
VERTEX
8
OBJECT054
10
0
20
0
30
0
70
128
71
-9
72
5
73
10
0
VERTEX
8
OBJECT054
10
0
20
0
30
0
70
128
71
1
72
4
73
-10
0
VERTEX
8
OBJECT054
10
0
20
0
30
0
70
128
71
-1
72
10
73
5
0
VERTEX
8
OBJECT054
10
0
20
0
30
0
70
128
71
8
72
7
73
-6
0
VERTEX
8
OBJECT054
10
0
20
0
30
0
70
128
71
-8
72
6
73
9
0
SEQEND
8
OBJECT054
0
ENDSEC
0
EOF
