0
SECTION
2
HEADER
9
$ACADVER
1
AC1008
9
$UCSORG
10
0.0
20
0.0
30
0.0
9
$UCSXDIR
10
1.0
20
0.0
30
0.0
9
$TILEMODE
70
1
9
$UCSYDIR
10
0.0
20
1.0
30
0.0
9
$EXTMIN
10
-64.000000
20
0.000000
30
-128.000000
9
$EXTMAX
10
534.000000
20
256.000000
30
128.000000
0
ENDSEC
0
SECTION
2
TABLES
0
TABLE
2
LTYPE
70
1
0
LTYPE
2
CONTINUOUS
70
64
3
Solid line
72
65
73
0
40
0.0
0
ENDTAB
0
TABLE
2
LAYER
70
1
0
LAYER
2
0
70
0
62
7
6
CONTINUOUS
0
ENDTAB
0
TABLE
2
STYLE
70
1
0
STYLE
2
STANDARD
70
0
40
0.0
41
1.0
50
0.0
71
0
42
0.2
3
txt
4

0
ENDTAB
0
TABLE
2
UCS
70
0
0
ENDTAB
0
ENDSEC
0
SECTION
2
ENTITIES
0
POLYLINE
8
OBJECT000
66
1
70
64
71
8
72
12
62
50
0
VERTEX
8
OBJECT000
10
534.000000
20
10.000000
30
-67.000000
70
192
0
VERTEX
8
OBJECT000
10
534.000000
20
33.592800
30
-102.389984
70
192
0
VERTEX
8
OBJECT000
10
144.000000
20
33.592800
30
-102.389984
70
192
0
VERTEX
8
OBJECT000
10
144.000000
20
10.000000
30
-67.000000
70
192
0
VERTEX
8
OBJECT000
10
534.000000
20
56.470486
30
-117.643921
70
192
0
VERTEX
8
OBJECT000
10
144.000000
20
56.470486
30
-117.643921
70
192
0
VERTEX
8
OBJECT000
10
534.000000
20
10.000000
30
-47.936306
70
192
0
VERTEX
8
OBJECT000
10
144.000000
20
10.000000
30
-47.936306
70
192
0
VERTEX
8
OBJECT000
10
0
20
0
30
0
70
128
71
2
72
3
73
-4
0
VERTEX
8
OBJECT000
10
0
20
0
30
0
70
128
71
-2
72
4
73
1
0
VERTEX
8
OBJECT000
10
0
20
0
30
0
70
128
71
2
72
5
73
-6
0
VERTEX
8
OBJECT000
10
0
20
0
30
0
70
128
71
-2
72
6
73
3
0
VERTEX
8
OBJECT000
10
0
20
0
30
0
70
128
71
2
72
1
73
-7
0
VERTEX
8
OBJECT000
10
0
20
0
30
0
70
128
71
-2
72
7
73
5
0
VERTEX
8
OBJECT000
10
0
20
0
30
0
70
128
71
1
72
4
73
-8
0
VERTEX
8
OBJECT000
10
0
20
0
30
0
70
128
71
-1
72
8
73
7
0
VERTEX
8
OBJECT000
10
0
20
0
30
0
70
128
71
5
72
7
73
-8
0
VERTEX
8
OBJECT000
10
0
20
0
30
0
70
128
71
-5
72
8
73
6
0
VERTEX
8
OBJECT000
10
0
20
0
30
0
70
128
71
4
72
3
73
-6
0
VERTEX
8
OBJECT000
10
0
20
0
30
0
70
128
71
-4
72
6
73
8
0
SEQEND
8
OBJECT000
0
POLYLINE
8
OBJECT001
66
1
70
64
71
8
72
12
62
50
0
VERTEX
8
OBJECT001
10
144.000000
20
128.000000
30
-128.000000
70
192
0
VERTEX
8
OBJECT001
10
144.000000
20
72.000000
30
-128.000000
70
192
0
VERTEX
8
OBJECT001
10
534.000000
20
72.000000
30
-128.000000
70
192
0
VERTEX
8
OBJECT001
10
534.000000
20
128.000000
30
-128.000000
70
192
0
VERTEX
8
OBJECT001
10
144.000000
20
57.000000
30
-118.000000
70
192
0
VERTEX
8
OBJECT001
10
534.000000
20
57.000000
30
-118.000000
70
192
0
VERTEX
8
OBJECT001
10
144.000000
20
128.000000
30
-118.000000
70
192
0
VERTEX
8
OBJECT001
10
534.000000
20
128.000000
30
-118.000000
70
192
0
VERTEX
8
OBJECT001
10
0
20
0
30
0
70
128
71
2
72
3
73
-4
0
VERTEX
8
OBJECT001
10
0
20
0
30
0
70
128
71
-2
72
4
73
1
0
VERTEX
8
OBJECT001
10
0
20
0
30
0
70
128
71
2
72
5
73
-6
0
VERTEX
8
OBJECT001
10
0
20
0
30
0
70
128
71
-2
72
6
73
3
0
VERTEX
8
OBJECT001
10
0
20
0
30
0
70
128
71
5
72
7
73
-8
0
VERTEX
8
OBJECT001
10
0
20
0
30
0
70
128
71
-5
72
8
73
6
0
VERTEX
8
OBJECT001
10
0
20
0
30
0
70
128
71
3
72
6
73
-8
0
VERTEX
8
OBJECT001
10
0
20
0
30
0
70
128
71
-3
72
8
73
4
0
VERTEX
8
OBJECT001
10
0
20
0
30
0
70
128
71
2
72
1
73
-7
0
VERTEX
8
OBJECT001
10
0
20
0
30
0
70
128
71
-2
72
7
73
5
0
VERTEX
8
OBJECT001
10
0
20
0
30
0
70
128
71
4
72
8
73
-7
0
VERTEX
8
OBJECT001
10
0
20
0
30
0
70
128
71
-4
72
7
73
1
0
SEQEND
8
OBJECT001
0
POLYLINE
8
OBJECT002
66
1
70
64
71
8
72
12
62
50
0
VERTEX
8
OBJECT002
10
534.000000
20
57.000000
30
-118.000000
70
192
0
VERTEX
8
OBJECT002
10
144.000000
20
57.000000
30
-118.000000
70
192
0
VERTEX
8
OBJECT002
10
144.000000
20
56.474369
30
-117.649750
70
192
0
VERTEX
8
OBJECT002
10
534.000000
20
56.474369
30
-117.649750
70
192
0
VERTEX
8
OBJECT002
10
534.000000
20
76.377060
30
-118.000000
70
192
0
VERTEX
8
OBJECT002
10
144.000000
20
76.377060
30
-118.000000
70
192
0
VERTEX
8
OBJECT002
10
534.000000
20
40.970806
30
-94.393784
70
192
0
VERTEX
8
OBJECT002
10
144.000000
20
40.971684
30
-94.394363
70
192
0
VERTEX
8
OBJECT002
10
0
20
0
30
0
70
128
71
2
72
3
73
-4
0
VERTEX
8
OBJECT002
10
0
20
0
30
0
70
128
71
-2
72
4
73
1
0
VERTEX
8
OBJECT002
10
0
20
0
30
0
70
128
71
1
72
5
73
-6
0
VERTEX
8
OBJECT002
10
0
20
0
30
0
70
128
71
-1
72
6
73
2
0
VERTEX
8
OBJECT002
10
0
20
0
30
0
70
128
71
1
72
4
73
-7
0
VERTEX
8
OBJECT002
10
0
20
0
30
0
70
128
71
-1
72
7
73
5
0
VERTEX
8
OBJECT002
10
0
20
0
30
0
70
128
71
4
72
3
73
-8
0
VERTEX
8
OBJECT002
10
0
20
0
30
0
70
128
71
-4
72
8
73
7
0
VERTEX
8
OBJECT002
10
0
20
0
30
0
70
128
71
5
72
7
73
-8
0
VERTEX
8
OBJECT002
10
0
20
0
30
0
70
128
71
-5
72
8
73
6
0
VERTEX
8
OBJECT002
10
0
20
0
30
0
70
128
71
3
72
2
73
-6
0
VERTEX
8
OBJECT002
10
0
20
0
30
0
70
128
71
-3
72
6
73
8
0
SEQEND
8
OBJECT002
0
POLYLINE
8
OBJECT003
66
1
70
64
71
10
72
16
62
50
0
VERTEX
8
OBJECT003
10
534.000000
20
27.403814
30
94.351494
70
192
0
VERTEX
8
OBJECT003
10
144.000000
20
27.403814
30
94.351494
70
192
0
VERTEX
8
OBJECT003
10
144.000000
20
61.558300
30
118.000000
70
192
0
VERTEX
8
OBJECT003
10
534.000000
20
61.558300
30
118.000000
70
192
0
VERTEX
8
OBJECT003
10
534.000000
20
23.294594
30
88.000000
70
192
0
VERTEX
8
OBJECT003
10
144.000000
20
23.294594
30
88.000000
70
192
0
VERTEX
8
OBJECT003
10
144.000000
20
80.061066
30
118.000000
70
192
0
VERTEX
8
OBJECT003
10
534.000000
20
80.061066
30
118.000000
70
192
0
VERTEX
8
OBJECT003
10
534.000000
20
36.733398
30
88.000000
70
192
0
VERTEX
8
OBJECT003
10
144.000000
20
36.734203
30
88.000000
70
192
0
VERTEX
8
OBJECT003
10
0
20
0
30
0
70
128
71
2
72
3
73
-4
0
VERTEX
8
OBJECT003
10
0
20
0
30
0
70
128
71
-2
72
4
73
1
0
VERTEX
8
OBJECT003
10
0
20
0
30
0
70
128
71
1
72
5
73
-6
0
VERTEX
8
OBJECT003
10
0
20
0
30
0
70
128
71
-1
72
6
73
2
0
VERTEX
8
OBJECT003
10
0
20
0
30
0
70
128
71
3
72
7
73
-8
0
VERTEX
8
OBJECT003
10
0
20
0
30
0
70
128
71
-3
72
8
73
4
0
VERTEX
8
OBJECT003
10
0
20
0
30
0
70
128
71
1
72
4
73
-8
0
VERTEX
8
OBJECT003
10
0
20
0
30
0
70
128
71
-1
72
8
73
-9
0
VERTEX
8
OBJECT003
10
0
20
0
30
0
70
128
71
-1
72
9
73
5
0
VERTEX
8
OBJECT003
10
0
20
0
30
0
70
128
71
7
72
10
73
-9
0
VERTEX
8
OBJECT003
10
0
20
0
30
0
70
128
71
-7
72
9
73
8
0
VERTEX
8
OBJECT003
10
0
20
0
30
0
70
128
71
5
72
9
73
-10
0
VERTEX
8
OBJECT003
10
0
20
0
30
0
70
128
71
-5
72
10
73
6
0
VERTEX
8
OBJECT003
10
0
20
0
30
0
70
128
71
3
72
2
73
-6
0
VERTEX
8
OBJECT003
10
0
20
0
30
0
70
128
71
-3
72
6
73
-10
0
VERTEX
8
OBJECT003
10
0
20
0
30
0
70
128
71
-3
72
10
73
7
0
SEQEND
8
OBJECT003
0
POLYLINE
8
OBJECT004
66
1
70
64
71
8
72
12
62
50
0
VERTEX
8
OBJECT004
10
534.000000
20
76.000000
30
128.000000
70
192
0
VERTEX
8
OBJECT004
10
144.000000
20
76.000000
30
128.000000
70
192
0
VERTEX
8
OBJECT004
10
144.000000
20
128.000000
30
128.000000
70
192
0
VERTEX
8
OBJECT004
10
534.000000
20
128.000000
30
128.000000
70
192
0
VERTEX
8
OBJECT004
10
534.000000
20
61.554901
30
118.000000
70
192
0
VERTEX
8
OBJECT004
10
144.000000
20
61.554901
30
118.000000
70
192
0
VERTEX
8
OBJECT004
10
144.000000
20
128.000000
30
118.000000
70
192
0
VERTEX
8
OBJECT004
10
534.000000
20
128.000000
30
118.000000
70
192
0
VERTEX
8
OBJECT004
10
0
20
0
30
0
70
128
71
2
72
3
73
-4
0
VERTEX
8
OBJECT004
10
0
20
0
30
0
70
128
71
-2
72
4
73
1
0
VERTEX
8
OBJECT004
10
0
20
0
30
0
70
128
71
6
72
2
73
-1
0
VERTEX
8
OBJECT004
10
0
20
0
30
0
70
128
71
-6
72
1
73
5
0
VERTEX
8
OBJECT004
10
0
20
0
30
0
70
128
71
6
72
5
73
-8
0
VERTEX
8
OBJECT004
10
0
20
0
30
0
70
128
71
-6
72
8
73
7
0
VERTEX
8
OBJECT004
10
0
20
0
30
0
70
128
71
5
72
1
73
-4
0
VERTEX
8
OBJECT004
10
0
20
0
30
0
70
128
71
-5
72
4
73
8
0
VERTEX
8
OBJECT004
10
0
20
0
30
0
70
128
71
2
72
6
73
-7
0
VERTEX
8
OBJECT004
10
0
20
0
30
0
70
128
71
-2
72
7
73
3
0
VERTEX
8
OBJECT004
10
0
20
0
30
0
70
128
71
8
72
4
73
-3
0
VERTEX
8
OBJECT004
10
0
20
0
30
0
70
128
71
-8
72
3
73
7
0
SEQEND
8
OBJECT004
0
POLYLINE
8
OBJECT005
66
1
70
64
71
16
72
28
62
50
0
VERTEX
8
OBJECT005
10
534.000000
20
128.000000
30
-118.000000
70
192
0
VERTEX
8
OBJECT005
10
534.000000
20
57.000000
30
-118.000000
70
192
0
VERTEX
8
OBJECT005
10
534.000000
20
33.593815
30
-102.391739
70
192
0
VERTEX
8
OBJECT005
10
534.000000
20
0.000000
30
-52.000000
70
192
0
VERTEX
8
OBJECT005
10
534.000000
20
0.000000
30
52.000000
70
192
0
VERTEX
8
OBJECT005
10
534.000000
20
27.402754
30
94.349373
70
192
0
VERTEX
8
OBJECT005
10
534.000000
20
61.560280
30
118.000000
70
192
0
VERTEX
8
OBJECT005
10
534.000000
20
128.000000
30
118.000000
70
192
0
VERTEX
8
OBJECT005
10
524.000000
20
0.000000
30
-52.000000
70
192
0
VERTEX
8
OBJECT005
10
524.000000
20
0.000000
30
52.000000
70
192
0
VERTEX
8
OBJECT005
10
524.000000
20
61.558228
30
118.000000
70
192
0
VERTEX
8
OBJECT005
10
524.000000
20
27.404415
30
94.351944
70
192
0
VERTEX
8
OBJECT005
10
524.000000
20
33.592941
30
-102.391151
70
192
0
VERTEX
8
OBJECT005
10
524.000000
20
57.000000
30
-118.000000
70
192
0
VERTEX
8
OBJECT005
10
524.000000
20
128.000000
30
118.000000
70
192
0
VERTEX
8
OBJECT005
10
524.000000
20
128.000000
30
-118.000000
70
192
0
VERTEX
8
OBJECT005
10
0
20
0
30
0
70
128
71
2
72
3
73
-4
0
VERTEX
8
OBJECT005
10
0
20
0
30
0
70
128
71
-2
72
4
73
-5
0
VERTEX
8
OBJECT005
10
0
20
0
30
0
70
128
71
-2
72
5
73
-6
0
VERTEX
8
OBJECT005
10
0
20
0
30
0
70
128
71
-2
72
6
73
-7
0
VERTEX
8
OBJECT005
10
0
20
0
30
0
70
128
71
-2
72
7
73
-8
0
VERTEX
8
OBJECT005
10
0
20
0
30
0
70
128
71
-2
72
8
73
1
0
VERTEX
8
OBJECT005
10
0
20
0
30
0
70
128
71
4
72
9
73
-10
0
VERTEX
8
OBJECT005
10
0
20
0
30
0
70
128
71
-4
72
10
73
5
0
VERTEX
8
OBJECT005
10
0
20
0
30
0
70
128
71
7
72
6
73
-12
0
VERTEX
8
OBJECT005
10
0
20
0
30
0
70
128
71
-7
72
12
73
11
0
VERTEX
8
OBJECT005
10
0
20
0
30
0
70
128
71
5
72
10
73
-12
0
VERTEX
8
OBJECT005
10
0
20
0
30
0
70
128
71
-5
72
12
73
6
0
VERTEX
8
OBJECT005
10
0
20
0
30
0
70
128
71
3
72
13
73
-9
0
VERTEX
8
OBJECT005
10
0
20
0
30
0
70
128
71
-3
72
9
73
4
0
VERTEX
8
OBJECT005
10
0
20
0
30
0
70
128
71
3
72
2
73
-14
0
VERTEX
8
OBJECT005
10
0
20
0
30
0
70
128
71
-3
72
14
73
13
0
VERTEX
8
OBJECT005
10
0
20
0
30
0
70
128
71
7
72
11
73
-15
0
VERTEX
8
OBJECT005
10
0
20
0
30
0
70
128
71
-7
72
15
73
8
0
VERTEX
8
OBJECT005
10
0
20
0
30
0
70
128
71
14
72
2
73
-1
0
VERTEX
8
OBJECT005
10
0
20
0
30
0
70
128
71
-14
72
1
73
16
0
VERTEX
8
OBJECT005
10
0
20
0
30
0
70
128
71
9
72
13
73
-14
0
VERTEX
8
OBJECT005
10
0
20
0
30
0
70
128
71
-9
72
14
73
-16
0
VERTEX
8
OBJECT005
10
0
20
0
30
0
70
128
71
-9
72
16
73
-15
0
VERTEX
8
OBJECT005
10
0
20
0
30
0
70
128
71
-9
72
15
73
-11
0
VERTEX
8
OBJECT005
10
0
20
0
30
0
70
128
71
-9
72
11
73
-12
0
VERTEX
8
OBJECT005
10
0
20
0
30
0
70
128
71
-9
72
12
73
10
0
VERTEX
8
OBJECT005
10
0
20
0
30
0
70
128
71
1
72
8
73
-15
0
VERTEX
8
OBJECT005
10
0
20
0
30
0
70
128
71
-1
72
15
73
16
0
SEQEND
8
OBJECT005
0
POLYLINE
8
OBJECT006
66
1
70
64
71
8
72
12
62
50
0
VERTEX
8
OBJECT006
10
144.000000
20
33.675995
30
-102.446365
70
192
0
VERTEX
8
OBJECT006
10
-64.000000
20
33.642853
30
-102.424263
70
192
0
VERTEX
8
OBJECT006
10
-64.000000
20
10.000000
30
-66.959053
70
192
0
VERTEX
8
OBJECT006
10
144.000000
20
10.000000
30
-66.931442
70
192
0
VERTEX
8
OBJECT006
10
144.000000
20
56.471291
30
-117.644417
70
192
0
VERTEX
8
OBJECT006
10
-64.000000
20
56.471291
30
-117.644417
70
192
0
VERTEX
8
OBJECT006
10
-64.000000
20
10.000000
30
-47.935600
70
192
0
VERTEX
8
OBJECT006
10
144.000000
20
10.000000
30
-47.935600
70
192
0
VERTEX
8
OBJECT006
10
0
20
0
30
0
70
128
71
2
72
3
73
-4
0
VERTEX
8
OBJECT006
10
0
20
0
30
0
70
128
71
-2
72
4
73
1
0
VERTEX
8
OBJECT006
10
0
20
0
30
0
70
128
71
6
72
2
73
-1
0
VERTEX
8
OBJECT006
10
0
20
0
30
0
70
128
71
-6
72
1
73
5
0
VERTEX
8
OBJECT006
10
0
20
0
30
0
70
128
71
3
72
7
73
-8
0
VERTEX
8
OBJECT006
10
0
20
0
30
0
70
128
71
-3
72
8
73
4
0
VERTEX
8
OBJECT006
10
0
20
0
30
0
70
128
71
5
72
8
73
-7
0
VERTEX
8
OBJECT006
10
0
20
0
30
0
70
128
71
-5
72
7
73
6
0
VERTEX
8
OBJECT006
10
0
20
0
30
0
70
128
71
1
72
4
73
-8
0
VERTEX
8
OBJECT006
10
0
20
0
30
0
70
128
71
-1
72
8
73
5
0
VERTEX
8
OBJECT006
10
0
20
0
30
0
70
128
71
3
72
2
73
-6
0
VERTEX
8
OBJECT006
10
0
20
0
30
0
70
128
71
-3
72
6
73
7
0
SEQEND
8
OBJECT006
0
POLYLINE
8
OBJECT007
66
1
70
64
71
8
72
12
62
50
0
VERTEX
8
OBJECT007
10
144.000000
20
57.000000
30
-118.000000
70
192
0
VERTEX
8
OBJECT007
10
-64.000000
20
57.000000
30
-118.000000
70
192
0
VERTEX
8
OBJECT007
10
-64.000000
20
56.471058
30
-117.644073
70
192
0
VERTEX
8
OBJECT007
10
144.000000
20
56.471058
30
-117.644073
70
192
0
VERTEX
8
OBJECT007
10
144.000000
20
76.376465
30
-118.000000
70
192
0
VERTEX
8
OBJECT007
10
-64.000000
20
76.376465
30
-118.000000
70
192
0
VERTEX
8
OBJECT007
10
-64.000000
20
40.972126
30
-94.395058
70
192
0
VERTEX
8
OBJECT007
10
144.000000
20
40.972126
30
-94.395058
70
192
0
VERTEX
8
OBJECT007
10
0
20
0
30
0
70
128
71
2
72
3
73
-4
0
VERTEX
8
OBJECT007
10
0
20
0
30
0
70
128
71
-2
72
4
73
1
0
VERTEX
8
OBJECT007
10
0
20
0
30
0
70
128
71
6
72
2
73
-1
0
VERTEX
8
OBJECT007
10
0
20
0
30
0
70
128
71
-6
72
1
73
5
0
VERTEX
8
OBJECT007
10
0
20
0
30
0
70
128
71
3
72
7
73
-8
0
VERTEX
8
OBJECT007
10
0
20
0
30
0
70
128
71
-3
72
8
73
4
0
VERTEX
8
OBJECT007
10
0
20
0
30
0
70
128
71
7
72
6
73
-5
0
VERTEX
8
OBJECT007
10
0
20
0
30
0
70
128
71
-7
72
5
73
8
0
VERTEX
8
OBJECT007
10
0
20
0
30
0
70
128
71
1
72
4
73
-8
0
VERTEX
8
OBJECT007
10
0
20
0
30
0
70
128
71
-1
72
8
73
5
0
VERTEX
8
OBJECT007
10
0
20
0
30
0
70
128
71
3
72
2
73
-6
0
VERTEX
8
OBJECT007
10
0
20
0
30
0
70
128
71
-3
72
6
73
7
0
SEQEND
8
OBJECT007
0
POLYLINE
8
OBJECT008
66
1
70
64
71
8
72
12
62
50
0
VERTEX
8
OBJECT008
10
-64.000000
20
72.000000
30
-128.000000
70
192
0
VERTEX
8
OBJECT008
10
144.000000
20
72.000000
30
-128.000000
70
192
0
VERTEX
8
OBJECT008
10
144.000000
20
128.000000
30
-128.000000
70
192
0
VERTEX
8
OBJECT008
10
-64.000000
20
128.000000
30
-128.000000
70
192
0
VERTEX
8
OBJECT008
10
-64.000000
20
57.000000
30
-118.000000
70
192
0
VERTEX
8
OBJECT008
10
144.000000
20
57.000000
30
-118.000000
70
192
0
VERTEX
8
OBJECT008
10
-64.000000
20
128.000000
30
-118.000000
70
192
0
VERTEX
8
OBJECT008
10
144.000000
20
128.000000
30
-118.000000
70
192
0
VERTEX
8
OBJECT008
10
0
20
0
30
0
70
128
71
2
72
3
73
-4
0
VERTEX
8
OBJECT008
10
0
20
0
30
0
70
128
71
-2
72
4
73
1
0
VERTEX
8
OBJECT008
10
0
20
0
30
0
70
128
71
1
72
5
73
-6
0
VERTEX
8
OBJECT008
10
0
20
0
30
0
70
128
71
-1
72
6
73
2
0
VERTEX
8
OBJECT008
10
0
20
0
30
0
70
128
71
5
72
7
73
-8
0
VERTEX
8
OBJECT008
10
0
20
0
30
0
70
128
71
-5
72
8
73
6
0
VERTEX
8
OBJECT008
10
0
20
0
30
0
70
128
71
2
72
6
73
-8
0
VERTEX
8
OBJECT008
10
0
20
0
30
0
70
128
71
-2
72
8
73
3
0
VERTEX
8
OBJECT008
10
0
20
0
30
0
70
128
71
3
72
8
73
-7
0
VERTEX
8
OBJECT008
10
0
20
0
30
0
70
128
71
-3
72
7
73
4
0
VERTEX
8
OBJECT008
10
0
20
0
30
0
70
128
71
1
72
4
73
-7
0
VERTEX
8
OBJECT008
10
0
20
0
30
0
70
128
71
-1
72
7
73
5
0
SEQEND
8
OBJECT008
0
POLYLINE
8
OBJECT009
66
1
70
64
71
10
72
16
62
50
0
VERTEX
8
OBJECT009
10
144.000000
20
27.403814
30
94.351494
70
192
0
VERTEX
8
OBJECT009
10
-64.000000
20
27.403814
30
94.351494
70
192
0
VERTEX
8
OBJECT009
10
-64.000000
20
61.558300
30
118.000000
70
192
0
VERTEX
8
OBJECT009
10
144.000000
20
61.558300
30
118.000000
70
192
0
VERTEX
8
OBJECT009
10
144.000000
20
23.294594
30
88.000000
70
192
0
VERTEX
8
OBJECT009
10
-64.000000
20
23.294594
30
88.000000
70
192
0
VERTEX
8
OBJECT009
10
-64.000000
20
80.061867
30
118.000000
70
192
0
VERTEX
8
OBJECT009
10
144.000000
20
80.061867
30
118.000000
70
192
0
VERTEX
8
OBJECT009
10
-64.000000
20
36.734196
30
88.000000
70
192
0
VERTEX
8
OBJECT009
10
144.000000
20
36.734196
30
88.000000
70
192
0
VERTEX
8
OBJECT009
10
0
20
0
30
0
70
128
71
2
72
3
73
-4
0
VERTEX
8
OBJECT009
10
0
20
0
30
0
70
128
71
-2
72
4
73
1
0
VERTEX
8
OBJECT009
10
0
20
0
30
0
70
128
71
6
72
2
73
-1
0
VERTEX
8
OBJECT009
10
0
20
0
30
0
70
128
71
-6
72
1
73
5
0
VERTEX
8
OBJECT009
10
0
20
0
30
0
70
128
71
3
72
7
73
-8
0
VERTEX
8
OBJECT009
10
0
20
0
30
0
70
128
71
-3
72
8
73
4
0
VERTEX
8
OBJECT009
10
0
20
0
30
0
70
128
71
7
72
9
73
-10
0
VERTEX
8
OBJECT009
10
0
20
0
30
0
70
128
71
-7
72
10
73
8
0
VERTEX
8
OBJECT009
10
0
20
0
30
0
70
128
71
9
72
6
73
-5
0
VERTEX
8
OBJECT009
10
0
20
0
30
0
70
128
71
-9
72
5
73
10
0
VERTEX
8
OBJECT009
10
0
20
0
30
0
70
128
71
1
72
4
73
-8
0
VERTEX
8
OBJECT009
10
0
20
0
30
0
70
128
71
-1
72
8
73
-10
0
VERTEX
8
OBJECT009
10
0
20
0
30
0
70
128
71
-1
72
10
73
5
0
VERTEX
8
OBJECT009
10
0
20
0
30
0
70
128
71
3
72
2
73
-6
0
VERTEX
8
OBJECT009
10
0
20
0
30
0
70
128
71
-3
72
6
73
-9
0
VERTEX
8
OBJECT009
10
0
20
0
30
0
70
128
71
-3
72
9
73
7
0
SEQEND
8
OBJECT009
0
POLYLINE
8
OBJECT010
66
1
70
64
71
8
72
12
62
50
0
VERTEX
8
OBJECT010
10
144.000000
20
76.000000
30
128.000000
70
192
0
VERTEX
8
OBJECT010
10
-64.000000
20
76.000000
30
128.000000
70
192
0
VERTEX
8
OBJECT010
10
-64.000000
20
128.000000
30
128.000000
70
192
0
VERTEX
8
OBJECT010
10
144.000000
20
128.000000
30
128.000000
70
192
0
VERTEX
8
OBJECT010
10
144.000000
20
61.559784
30
118.000000
70
192
0
VERTEX
8
OBJECT010
10
-64.000000
20
61.559784
30
118.000000
70
192
0
VERTEX
8
OBJECT010
10
144.000000
20
128.000000
30
118.000000
70
192
0
VERTEX
8
OBJECT010
10
-64.000000
20
128.000000
30
118.000000
70
192
0
VERTEX
8
OBJECT010
10
0
20
0
30
0
70
128
71
2
72
3
73
-4
0
VERTEX
8
OBJECT010
10
0
20
0
30
0
70
128
71
-2
72
4
73
1
0
VERTEX
8
OBJECT010
10
0
20
0
30
0
70
128
71
6
72
2
73
-1
0
VERTEX
8
OBJECT010
10
0
20
0
30
0
70
128
71
-6
72
1
73
5
0
VERTEX
8
OBJECT010
10
0
20
0
30
0
70
128
71
5
72
7
73
-8
0
VERTEX
8
OBJECT010
10
0
20
0
30
0
70
128
71
-5
72
8
73
6
0
VERTEX
8
OBJECT010
10
0
20
0
30
0
70
128
71
5
72
1
73
-4
0
VERTEX
8
OBJECT010
10
0
20
0
30
0
70
128
71
-5
72
4
73
7
0
VERTEX
8
OBJECT010
10
0
20
0
30
0
70
128
71
7
72
4
73
-3
0
VERTEX
8
OBJECT010
10
0
20
0
30
0
70
128
71
-7
72
3
73
8
0
VERTEX
8
OBJECT010
10
0
20
0
30
0
70
128
71
2
72
6
73
-8
0
VERTEX
8
OBJECT010
10
0
20
0
30
0
70
128
71
-2
72
8
73
3
0
SEQEND
8
OBJECT010
0
POLYLINE
8
OBJECT011
66
1
70
64
71
8
72
12
62
50
0
VERTEX
8
OBJECT011
10
144.000000
20
222.406952
30
-102.392685
70
192
0
VERTEX
8
OBJECT011
10
534.000000
20
222.406952
30
-102.392685
70
192
0
VERTEX
8
OBJECT011
10
534.000000
20
246.000000
30
-67.000000
70
192
0
VERTEX
8
OBJECT011
10
144.000000
20
246.000000
30
-67.000000
70
192
0
VERTEX
8
OBJECT011
10
144.000000
20
199.530090
30
-117.643074
70
192
0
VERTEX
8
OBJECT011
10
534.000000
20
199.530090
30
-117.643074
70
192
0
VERTEX
8
OBJECT011
10
534.000000
20
246.000000
30
-47.936333
70
192
0
VERTEX
8
OBJECT011
10
144.000000
20
246.000000
30
-47.936333
70
192
0
VERTEX
8
OBJECT011
10
0
20
0
30
0
70
128
71
2
72
3
73
-4
0
VERTEX
8
OBJECT011
10
0
20
0
30
0
70
128
71
-2
72
4
73
1
0
VERTEX
8
OBJECT011
10
0
20
0
30
0
70
128
71
1
72
5
73
-6
0
VERTEX
8
OBJECT011
10
0
20
0
30
0
70
128
71
-1
72
6
73
2
0
VERTEX
8
OBJECT011
10
0
20
0
30
0
70
128
71
3
72
2
73
-6
0
VERTEX
8
OBJECT011
10
0
20
0
30
0
70
128
71
-3
72
6
73
7
0
VERTEX
8
OBJECT011
10
0
20
0
30
0
70
128
71
3
72
7
73
-8
0
VERTEX
8
OBJECT011
10
0
20
0
30
0
70
128
71
-3
72
8
73
4
0
VERTEX
8
OBJECT011
10
0
20
0
30
0
70
128
71
6
72
5
73
-8
0
VERTEX
8
OBJECT011
10
0
20
0
30
0
70
128
71
-6
72
8
73
7
0
VERTEX
8
OBJECT011
10
0
20
0
30
0
70
128
71
1
72
4
73
-8
0
VERTEX
8
OBJECT011
10
0
20
0
30
0
70
128
71
-1
72
8
73
5
0
SEQEND
8
OBJECT011
0
POLYLINE
8
OBJECT012
66
1
70
64
71
8
72
12
62
50
0
VERTEX
8
OBJECT012
10
534.000000
20
184.000000
30
-128.000000
70
192
0
VERTEX
8
OBJECT012
10
144.000000
20
184.000000
30
-128.000000
70
192
0
VERTEX
8
OBJECT012
10
144.000000
20
128.000000
30
-128.000000
70
192
0
VERTEX
8
OBJECT012
10
534.000000
20
128.000000
30
-128.000000
70
192
0
VERTEX
8
OBJECT012
10
534.000000
20
199.000000
30
-118.000000
70
192
0
VERTEX
8
OBJECT012
10
144.000000
20
199.000000
30
-118.000000
70
192
0
VERTEX
8
OBJECT012
10
144.000000
20
128.000000
30
-118.000000
70
192
0
VERTEX
8
OBJECT012
10
534.000000
20
128.000000
30
-118.000000
70
192
0
VERTEX
8
OBJECT012
10
0
20
0
30
0
70
128
71
2
72
3
73
-4
0
VERTEX
8
OBJECT012
10
0
20
0
30
0
70
128
71
-2
72
4
73
1
0
VERTEX
8
OBJECT012
10
0
20
0
30
0
70
128
71
6
72
2
73
-1
0
VERTEX
8
OBJECT012
10
0
20
0
30
0
70
128
71
-6
72
1
73
5
0
VERTEX
8
OBJECT012
10
0
20
0
30
0
70
128
71
6
72
5
73
-8
0
VERTEX
8
OBJECT012
10
0
20
0
30
0
70
128
71
-6
72
8
73
7
0
VERTEX
8
OBJECT012
10
0
20
0
30
0
70
128
71
1
72
4
73
-8
0
VERTEX
8
OBJECT012
10
0
20
0
30
0
70
128
71
-1
72
8
73
5
0
VERTEX
8
OBJECT012
10
0
20
0
30
0
70
128
71
2
72
6
73
-7
0
VERTEX
8
OBJECT012
10
0
20
0
30
0
70
128
71
-2
72
7
73
3
0
VERTEX
8
OBJECT012
10
0
20
0
30
0
70
128
71
3
72
7
73
-8
0
VERTEX
8
OBJECT012
10
0
20
0
30
0
70
128
71
-3
72
8
73
4
0
SEQEND
8
OBJECT012
0
POLYLINE
8
OBJECT013
66
1
70
64
71
8
72
12
62
50
0
VERTEX
8
OBJECT013
10
144.000000
20
199.000000
30
-118.000000
70
192
0
VERTEX
8
OBJECT013
10
534.000000
20
199.000000
30
-118.000000
70
192
0
VERTEX
8
OBJECT013
10
534.000000
20
199.526138
30
-117.648994
70
192
0
VERTEX
8
OBJECT013
10
144.000000
20
199.526138
30
-117.648994
70
192
0
VERTEX
8
OBJECT013
10
144.000000
20
179.622864
30
-118.000000
70
192
0
VERTEX
8
OBJECT013
10
534.000000
20
179.622864
30
-118.000000
70
192
0
VERTEX
8
OBJECT013
10
534.000000
20
215.029266
30
-94.393692
70
192
0
VERTEX
8
OBJECT013
10
144.000000
20
215.029251
30
-94.393700
70
192
0
VERTEX
8
OBJECT013
10
0
20
0
30
0
70
128
71
2
72
3
73
-4
0
VERTEX
8
OBJECT013
10
0
20
0
30
0
70
128
71
-2
72
4
73
1
0
VERTEX
8
OBJECT013
10
0
20
0
30
0
70
128
71
1
72
5
73
-6
0
VERTEX
8
OBJECT013
10
0
20
0
30
0
70
128
71
-1
72
6
73
2
0
VERTEX
8
OBJECT013
10
0
20
0
30
0
70
128
71
3
72
2
73
-6
0
VERTEX
8
OBJECT013
10
0
20
0
30
0
70
128
71
-3
72
6
73
7
0
VERTEX
8
OBJECT013
10
0
20
0
30
0
70
128
71
3
72
7
73
-8
0
VERTEX
8
OBJECT013
10
0
20
0
30
0
70
128
71
-3
72
8
73
4
0
VERTEX
8
OBJECT013
10
0
20
0
30
0
70
128
71
5
72
8
73
-7
0
VERTEX
8
OBJECT013
10
0
20
0
30
0
70
128
71
-5
72
7
73
6
0
VERTEX
8
OBJECT013
10
0
20
0
30
0
70
128
71
1
72
4
73
-8
0
VERTEX
8
OBJECT013
10
0
20
0
30
0
70
128
71
-1
72
8
73
5
0
SEQEND
8
OBJECT013
0
POLYLINE
8
OBJECT014
66
1
70
64
71
10
72
16
62
50
0
VERTEX
8
OBJECT014
10
534.000000
20
194.442505
30
118.000000
70
192
0
VERTEX
8
OBJECT014
10
144.000000
20
194.442505
30
118.000000
70
192
0
VERTEX
8
OBJECT014
10
144.000000
20
228.593674
30
94.353790
70
192
0
VERTEX
8
OBJECT014
10
534.000000
20
228.593674
30
94.353790
70
192
0
VERTEX
8
OBJECT014
10
144.000000
20
232.705872
30
88.000000
70
192
0
VERTEX
8
OBJECT014
10
534.000000
20
232.705872
30
88.000000
70
192
0
VERTEX
8
OBJECT014
10
534.000000
20
175.938919
30
118.000000
70
192
0
VERTEX
8
OBJECT014
10
144.000000
20
175.938919
30
118.000000
70
192
0
VERTEX
8
OBJECT014
10
534.000000
20
219.266586
30
88.000000
70
192
0
VERTEX
8
OBJECT014
10
144.000000
20
219.266602
30
88.000000
70
192
0
VERTEX
8
OBJECT014
10
0
20
0
30
0
70
128
71
2
72
3
73
-4
0
VERTEX
8
OBJECT014
10
0
20
0
30
0
70
128
71
-2
72
4
73
1
0
VERTEX
8
OBJECT014
10
0
20
0
30
0
70
128
71
6
72
4
73
-3
0
VERTEX
8
OBJECT014
10
0
20
0
30
0
70
128
71
-6
72
3
73
5
0
VERTEX
8
OBJECT014
10
0
20
0
30
0
70
128
71
1
72
7
73
-8
0
VERTEX
8
OBJECT014
10
0
20
0
30
0
70
128
71
-1
72
8
73
2
0
VERTEX
8
OBJECT014
10
0
20
0
30
0
70
128
71
1
72
4
73
-6
0
VERTEX
8
OBJECT014
10
0
20
0
30
0
70
128
71
-1
72
6
73
-9
0
VERTEX
8
OBJECT014
10
0
20
0
30
0
70
128
71
-1
72
9
73
7
0
VERTEX
8
OBJECT014
10
0
20
0
30
0
70
128
71
7
72
9
73
-10
0
VERTEX
8
OBJECT014
10
0
20
0
30
0
70
128
71
-7
72
10
73
8
0
VERTEX
8
OBJECT014
10
0
20
0
30
0
70
128
71
5
72
10
73
-9
0
VERTEX
8
OBJECT014
10
0
20
0
30
0
70
128
71
-5
72
9
73
6
0
VERTEX
8
OBJECT014
10
0
20
0
30
0
70
128
71
3
72
2
73
-8
0
VERTEX
8
OBJECT014
10
0
20
0
30
0
70
128
71
-3
72
8
73
-10
0
VERTEX
8
OBJECT014
10
0
20
0
30
0
70
128
71
-3
72
10
73
5
0
SEQEND
8
OBJECT014
0
POLYLINE
8
OBJECT015
66
1
70
64
71
8
72
12
62
50
0
VERTEX
8
OBJECT015
10
144.000000
20
128.000000
30
128.000000
70
192
0
VERTEX
8
OBJECT015
10
144.000000
20
180.000000
30
128.000000
70
192
0
VERTEX
8
OBJECT015
10
534.000000
20
180.000000
30
128.000000
70
192
0
VERTEX
8
OBJECT015
10
534.000000
20
128.000000
30
128.000000
70
192
0
VERTEX
8
OBJECT015
10
144.000000
20
194.443497
30
118.000000
70
192
0
VERTEX
8
OBJECT015
10
534.000000
20
194.443497
30
118.000000
70
192
0
VERTEX
8
OBJECT015
10
144.000000
20
128.000000
30
118.000000
70
192
0
VERTEX
8
OBJECT015
10
534.000000
20
128.000000
30
118.000000
70
192
0
VERTEX
8
OBJECT015
10
0
20
0
30
0
70
128
71
2
72
3
73
-4
0
VERTEX
8
OBJECT015
10
0
20
0
30
0
70
128
71
-2
72
4
73
1
0
VERTEX
8
OBJECT015
10
0
20
0
30
0
70
128
71
2
72
5
73
-6
0
VERTEX
8
OBJECT015
10
0
20
0
30
0
70
128
71
-2
72
6
73
3
0
VERTEX
8
OBJECT015
10
0
20
0
30
0
70
128
71
5
72
7
73
-8
0
VERTEX
8
OBJECT015
10
0
20
0
30
0
70
128
71
-5
72
8
73
6
0
VERTEX
8
OBJECT015
10
0
20
0
30
0
70
128
71
3
72
6
73
-8
0
VERTEX
8
OBJECT015
10
0
20
0
30
0
70
128
71
-3
72
8
73
4
0
VERTEX
8
OBJECT015
10
0
20
0
30
0
70
128
71
5
72
2
73
-1
0
VERTEX
8
OBJECT015
10
0
20
0
30
0
70
128
71
-5
72
1
73
7
0
VERTEX
8
OBJECT015
10
0
20
0
30
0
70
128
71
7
72
1
73
-4
0
VERTEX
8
OBJECT015
10
0
20
0
30
0
70
128
71
-7
72
4
73
8
0
SEQEND
8
OBJECT015
0
POLYLINE
8
OBJECT016
66
1
70
64
71
16
72
28
62
50
0
VERTEX
8
OBJECT016
10
534.000000
20
256.000000
30
52.000000
70
192
0
VERTEX
8
OBJECT016
10
534.000000
20
256.000000
30
-52.000000
70
192
0
VERTEX
8
OBJECT016
10
534.000000
20
222.406189
30
-102.391731
70
192
0
VERTEX
8
OBJECT016
10
534.000000
20
199.000000
30
-118.000000
70
192
0
VERTEX
8
OBJECT016
10
534.000000
20
128.000000
30
-118.000000
70
192
0
VERTEX
8
OBJECT016
10
534.000000
20
128.000000
30
118.000000
70
192
0
VERTEX
8
OBJECT016
10
534.000000
20
194.439713
30
118.000000
70
192
0
VERTEX
8
OBJECT016
10
534.000000
20
228.597244
30
94.349373
70
192
0
VERTEX
8
OBJECT016
10
524.000000
20
256.000000
30
-52.000000
70
192
0
VERTEX
8
OBJECT016
10
524.000000
20
256.000000
30
52.000000
70
192
0
VERTEX
8
OBJECT016
10
524.000000
20
228.595032
30
94.352798
70
192
0
VERTEX
8
OBJECT016
10
524.000000
20
194.442459
30
118.000000
70
192
0
VERTEX
8
OBJECT016
10
524.000000
20
222.405380
30
-102.392273
70
192
0
VERTEX
8
OBJECT016
10
524.000000
20
199.000000
30
-118.000000
70
192
0
VERTEX
8
OBJECT016
10
524.000000
20
128.000000
30
118.000000
70
192
0
VERTEX
8
OBJECT016
10
524.000000
20
128.000000
30
-118.000000
70
192
0
VERTEX
8
OBJECT016
10
0
20
0
30
0
70
128
71
2
72
3
73
-4
0
VERTEX
8
OBJECT016
10
0
20
0
30
0
70
128
71
-2
72
4
73
-5
0
VERTEX
8
OBJECT016
10
0
20
0
30
0
70
128
71
-2
72
5
73
-6
0
VERTEX
8
OBJECT016
10
0
20
0
30
0
70
128
71
-2
72
6
73
-7
0
VERTEX
8
OBJECT016
10
0
20
0
30
0
70
128
71
-2
72
7
73
-8
0
VERTEX
8
OBJECT016
10
0
20
0
30
0
70
128
71
-2
72
8
73
1
0
VERTEX
8
OBJECT016
10
0
20
0
30
0
70
128
71
2
72
1
73
-10
0
VERTEX
8
OBJECT016
10
0
20
0
30
0
70
128
71
-2
72
10
73
9
0
VERTEX
8
OBJECT016
10
0
20
0
30
0
70
128
71
8
72
7
73
-12
0
VERTEX
8
OBJECT016
10
0
20
0
30
0
70
128
71
-8
72
12
73
11
0
VERTEX
8
OBJECT016
10
0
20
0
30
0
70
128
71
1
72
8
73
-11
0
VERTEX
8
OBJECT016
10
0
20
0
30
0
70
128
71
-1
72
11
73
10
0
VERTEX
8
OBJECT016
10
0
20
0
30
0
70
128
71
3
72
2
73
-9
0
VERTEX
8
OBJECT016
10
0
20
0
30
0
70
128
71
-3
72
9
73
13
0
VERTEX
8
OBJECT016
10
0
20
0
30
0
70
128
71
4
72
3
73
-13
0
VERTEX
8
OBJECT016
10
0
20
0
30
0
70
128
71
-4
72
13
73
14
0
VERTEX
8
OBJECT016
10
0
20
0
30
0
70
128
71
12
72
7
73
-6
0
VERTEX
8
OBJECT016
10
0
20
0
30
0
70
128
71
-12
72
6
73
15
0
VERTEX
8
OBJECT016
10
0
20
0
30
0
70
128
71
4
72
14
73
-16
0
VERTEX
8
OBJECT016
10
0
20
0
30
0
70
128
71
-4
72
16
73
5
0
VERTEX
8
OBJECT016
10
0
20
0
30
0
70
128
71
14
72
13
73
-9
0
VERTEX
8
OBJECT016
10
0
20
0
30
0
70
128
71
-14
72
9
73
-10
0
VERTEX
8
OBJECT016
10
0
20
0
30
0
70
128
71
-14
72
10
73
-11
0
VERTEX
8
OBJECT016
10
0
20
0
30
0
70
128
71
-14
72
11
73
-12
0
VERTEX
8
OBJECT016
10
0
20
0
30
0
70
128
71
-14
72
12
73
-15
0
VERTEX
8
OBJECT016
10
0
20
0
30
0
70
128
71
-14
72
15
73
16
0
VERTEX
8
OBJECT016
10
0
20
0
30
0
70
128
71
5
72
16
73
-15
0
VERTEX
8
OBJECT016
10
0
20
0
30
0
70
128
71
-5
72
15
73
6
0
SEQEND
8
OBJECT016
0
POLYLINE
8
OBJECT017
66
1
70
64
71
8
72
12
62
50
0
VERTEX
8
OBJECT017
10
-64.000000
20
222.357330
30
-102.423317
70
192
0
VERTEX
8
OBJECT017
10
144.000000
20
222.324188
30
-102.445404
70
192
0
VERTEX
8
OBJECT017
10
144.000000
20
246.000000
30
-66.930740
70
192
0
VERTEX
8
OBJECT017
10
-64.000000
20
246.000000
30
-66.958351
70
192
0
VERTEX
8
OBJECT017
10
-64.000000
20
199.530182
30
-117.642929
70
192
0
VERTEX
8
OBJECT017
10
144.000000
20
199.530167
30
-117.642937
70
192
0
VERTEX
8
OBJECT017
10
144.000000
20
246.000000
30
-47.936287
70
192
0
VERTEX
8
OBJECT017
10
-64.000000
20
246.000000
30
-47.936295
70
192
0
VERTEX
8
OBJECT017
10
0
20
0
30
0
70
128
71
2
72
3
73
-4
0
VERTEX
8
OBJECT017
10
0
20
0
30
0
70
128
71
-2
72
4
73
1
0
VERTEX
8
OBJECT017
10
0
20
0
30
0
70
128
71
1
72
5
73
-6
0
VERTEX
8
OBJECT017
10
0
20
0
30
0
70
128
71
-1
72
6
73
2
0
VERTEX
8
OBJECT017
10
0
20
0
30
0
70
128
71
3
72
7
73
-8
0
VERTEX
8
OBJECT017
10
0
20
0
30
0
70
128
71
-3
72
8
73
4
0
VERTEX
8
OBJECT017
10
0
20
0
30
0
70
128
71
5
72
8
73
-7
0
VERTEX
8
OBJECT017
10
0
20
0
30
0
70
128
71
-5
72
7
73
6
0
VERTEX
8
OBJECT017
10
0
20
0
30
0
70
128
71
3
72
2
73
-6
0
VERTEX
8
OBJECT017
10
0
20
0
30
0
70
128
71
-3
72
6
73
7
0
VERTEX
8
OBJECT017
10
0
20
0
30
0
70
128
71
1
72
4
73
-8
0
VERTEX
8
OBJECT017
10
0
20
0
30
0
70
128
71
-1
72
8
73
5
0
SEQEND
8
OBJECT017
0
POLYLINE
8
OBJECT018
66
1
70
64
71
8
72
12
62
50
0
VERTEX
8
OBJECT018
10
144.000000
20
199.529449
30
-117.644020
70
192
0
VERTEX
8
OBJECT018
10
-64.000000
20
199.529449
30
-117.644020
70
192
0
VERTEX
8
OBJECT018
10
-64.000000
20
199.000000
30
-118.000000
70
192
0
VERTEX
8
OBJECT018
10
144.000000
20
199.000000
30
-118.000000
70
192
0
VERTEX
8
OBJECT018
10
-64.000000
20
179.622650
30
-118.000000
70
192
0
VERTEX
8
OBJECT018
10
144.000000
20
179.622650
30
-118.000000
70
192
0
VERTEX
8
OBJECT018
10
144.000000
20
215.029404
30
-94.393440
70
192
0
VERTEX
8
OBJECT018
10
-64.000000
20
215.029404
30
-94.393440
70
192
0
VERTEX
8
OBJECT018
10
0
20
0
30
0
70
128
71
2
72
3
73
-4
0
VERTEX
8
OBJECT018
10
0
20
0
30
0
70
128
71
-2
72
4
73
1
0
VERTEX
8
OBJECT018
10
0
20
0
30
0
70
128
71
3
72
5
73
-6
0
VERTEX
8
OBJECT018
10
0
20
0
30
0
70
128
71
-3
72
6
73
4
0
VERTEX
8
OBJECT018
10
0
20
0
30
0
70
128
71
1
72
7
73
-8
0
VERTEX
8
OBJECT018
10
0
20
0
30
0
70
128
71
-1
72
8
73
2
0
VERTEX
8
OBJECT018
10
0
20
0
30
0
70
128
71
5
72
8
73
-7
0
VERTEX
8
OBJECT018
10
0
20
0
30
0
70
128
71
-5
72
7
73
6
0
VERTEX
8
OBJECT018
10
0
20
0
30
0
70
128
71
1
72
4
73
-6
0
VERTEX
8
OBJECT018
10
0
20
0
30
0
70
128
71
-1
72
6
73
7
0
VERTEX
8
OBJECT018
10
0
20
0
30
0
70
128
71
3
72
2
73
-8
0
VERTEX
8
OBJECT018
10
0
20
0
30
0
70
128
71
-3
72
8
73
5
0
SEQEND
8
OBJECT018
0
POLYLINE
8
OBJECT019
66
1
70
64
71
8
72
12
62
50
0
VERTEX
8
OBJECT019
10
144.000000
20
184.000000
30
-128.000000
70
192
0
VERTEX
8
OBJECT019
10
-64.000000
20
184.000000
30
-128.000000
70
192
0
VERTEX
8
OBJECT019
10
-64.000000
20
128.000000
30
-128.000000
70
192
0
VERTEX
8
OBJECT019
10
144.000000
20
128.000000
30
-128.000000
70
192
0
VERTEX
8
OBJECT019
10
144.000000
20
199.000000
30
-118.000000
70
192
0
VERTEX
8
OBJECT019
10
-64.000000
20
199.000000
30
-118.000000
70
192
0
VERTEX
8
OBJECT019
10
144.000000
20
128.000000
30
-118.000000
70
192
0
VERTEX
8
OBJECT019
10
-64.000000
20
128.000000
30
-118.000000
70
192
0
VERTEX
8
OBJECT019
10
0
20
0
30
0
70
128
71
2
72
3
73
-4
0
VERTEX
8
OBJECT019
10
0
20
0
30
0
70
128
71
-2
72
4
73
1
0
VERTEX
8
OBJECT019
10
0
20
0
30
0
70
128
71
6
72
2
73
-1
0
VERTEX
8
OBJECT019
10
0
20
0
30
0
70
128
71
-6
72
1
73
5
0
VERTEX
8
OBJECT019
10
0
20
0
30
0
70
128
71
5
72
7
73
-8
0
VERTEX
8
OBJECT019
10
0
20
0
30
0
70
128
71
-5
72
8
73
6
0
VERTEX
8
OBJECT019
10
0
20
0
30
0
70
128
71
1
72
4
73
-7
0
VERTEX
8
OBJECT019
10
0
20
0
30
0
70
128
71
-1
72
7
73
5
0
VERTEX
8
OBJECT019
10
0
20
0
30
0
70
128
71
3
72
8
73
-7
0
VERTEX
8
OBJECT019
10
0
20
0
30
0
70
128
71
-3
72
7
73
4
0
VERTEX
8
OBJECT019
10
0
20
0
30
0
70
128
71
2
72
6
73
-8
0
VERTEX
8
OBJECT019
10
0
20
0
30
0
70
128
71
-2
72
8
73
3
0
SEQEND
8
OBJECT019
0
POLYLINE
8
OBJECT020
66
1
70
64
71
10
72
16
62
50
0
VERTEX
8
OBJECT020
10
144.000000
20
194.442490
30
118.000000
70
192
0
VERTEX
8
OBJECT020
10
-64.000000
20
194.442490
30
118.000000
70
192
0
VERTEX
8
OBJECT020
10
-64.000000
20
228.593643
30
94.353798
70
192
0
VERTEX
8
OBJECT020
10
144.000000
20
228.593643
30
94.353798
70
192
0
VERTEX
8
OBJECT020
10
-64.000000
20
232.705856
30
88.000000
70
192
0
VERTEX
8
OBJECT020
10
144.000000
20
232.705856
30
88.000000
70
192
0
VERTEX
8
OBJECT020
10
144.000000
20
175.938934
30
118.000000
70
192
0
VERTEX
8
OBJECT020
10
-64.000000
20
175.938934
30
118.000000
70
192
0
VERTEX
8
OBJECT020
10
144.000000
20
219.266586
30
88.000000
70
192
0
VERTEX
8
OBJECT020
10
-64.000000
20
219.266586
30
88.000000
70
192
0
VERTEX
8
OBJECT020
10
0
20
0
30
0
70
128
71
2
72
3
73
-4
0
VERTEX
8
OBJECT020
10
0
20
0
30
0
70
128
71
-2
72
4
73
1
0
VERTEX
8
OBJECT020
10
0
20
0
30
0
70
128
71
6
72
4
73
-3
0
VERTEX
8
OBJECT020
10
0
20
0
30
0
70
128
71
-6
72
3
73
5
0
VERTEX
8
OBJECT020
10
0
20
0
30
0
70
128
71
8
72
2
73
-1
0
VERTEX
8
OBJECT020
10
0
20
0
30
0
70
128
71
-8
72
1
73
7
0
VERTEX
8
OBJECT020
10
0
20
0
30
0
70
128
71
10
72
8
73
-7
0
VERTEX
8
OBJECT020
10
0
20
0
30
0
70
128
71
-10
72
7
73
9
0
VERTEX
8
OBJECT020
10
0
20
0
30
0
70
128
71
5
72
10
73
-9
0
VERTEX
8
OBJECT020
10
0
20
0
30
0
70
128
71
-5
72
9
73
6
0
VERTEX
8
OBJECT020
10
0
20
0
30
0
70
128
71
1
72
4
73
-6
0
VERTEX
8
OBJECT020
10
0
20
0
30
0
70
128
71
-1
72
6
73
-9
0
VERTEX
8
OBJECT020
10
0
20
0
30
0
70
128
71
-1
72
9
73
7
0
VERTEX
8
OBJECT020
10
0
20
0
30
0
70
128
71
3
72
2
73
-8
0
VERTEX
8
OBJECT020
10
0
20
0
30
0
70
128
71
-3
72
8
73
-10
0
VERTEX
8
OBJECT020
10
0
20
0
30
0
70
128
71
-3
72
10
73
5
0
SEQEND
8
OBJECT020
0
POLYLINE
8
OBJECT021
66
1
70
64
71
8
72
12
62
50
0
VERTEX
8
OBJECT021
10
-64.000000
20
180.000000
30
128.000000
70
192
0
VERTEX
8
OBJECT021
10
144.000000
20
180.000000
30
128.000000
70
192
0
VERTEX
8
OBJECT021
10
144.000000
20
128.000000
30
128.000000
70
192
0
VERTEX
8
OBJECT021
10
-64.000000
20
128.000000
30
128.000000
70
192
0
VERTEX
8
OBJECT021
10
-64.000000
20
194.440384
30
118.000000
70
192
0
VERTEX
8
OBJECT021
10
144.000000
20
194.440384
30
118.000000
70
192
0
VERTEX
8
OBJECT021
10
-64.000000
20
128.000000
30
118.000000
70
192
0
VERTEX
8
OBJECT021
10
144.000000
20
128.000000
30
118.000000
70
192
0
VERTEX
8
OBJECT021
10
0
20
0
30
0
70
128
71
2
72
3
73
-4
0
VERTEX
8
OBJECT021
10
0
20
0
30
0
70
128
71
-2
72
4
73
1
0
VERTEX
8
OBJECT021
10
0
20
0
30
0
70
128
71
1
72
5
73
-6
0
VERTEX
8
OBJECT021
10
0
20
0
30
0
70
128
71
-1
72
6
73
2
0
VERTEX
8
OBJECT021
10
0
20
0
30
0
70
128
71
5
72
7
73
-8
0
VERTEX
8
OBJECT021
10
0
20
0
30
0
70
128
71
-5
72
8
73
6
0
VERTEX
8
OBJECT021
10
0
20
0
30
0
70
128
71
2
72
6
73
-8
0
VERTEX
8
OBJECT021
10
0
20
0
30
0
70
128
71
-2
72
8
73
3
0
VERTEX
8
OBJECT021
10
0
20
0
30
0
70
128
71
7
72
4
73
-3
0
VERTEX
8
OBJECT021
10
0
20
0
30
0
70
128
71
-7
72
3
73
8
0
VERTEX
8
OBJECT021
10
0
20
0
30
0
70
128
71
5
72
1
73
-4
0
VERTEX
8
OBJECT021
10
0
20
0
30
0
70
128
71
-5
72
4
73
7
0
SEQEND
8
OBJECT021
0
ENDSEC
0
EOF
