0
SECTION
2
HEADER
9
$ACADVER
1
AC1008
9
$UCSORG
10
0.0
20
0.0
30
0.0
9
$UCSXDIR
10
1.0
20
0.0
30
0.0
9
$TILEMODE
70
1
9
$UCSYDIR
10
0.0
20
1.0
30
0.0
9
$EXTMIN
10
-800.000000
20
-133.780518
30
-48.012451
9
$EXTMAX
10
764.000000
20
170.219482
30
68.000000
0
ENDSEC
0
SECTION
2
TABLES
0
TABLE
2
LTYPE
70
1
0
LTYPE
2
CONTINUOUS
70
64
3
Solid line
72
65
73
0
40
0.0
0
ENDTAB
0
TABLE
2
LAYER
70
1
0
LAYER
2
0
70
0
62
7
6
CONTINUOUS
0
ENDTAB
0
TABLE
2
STYLE
70
1
0
STYLE
2
STANDARD
70
0
40
0.0
41
1.0
50
0.0
71
0
42
0.2
3
txt
4

0
ENDTAB
0
TABLE
2
UCS
70
0
0
ENDTAB
0
ENDSEC
0
SECTION
2
ENTITIES
0
POLYLINE
8
OBJECT000
66
1
70
64
71
24
72
44
62
50
0
VERTEX
8
OBJECT000
10
764.000000
20
18.462402
30
19.659180
70
192
0
VERTEX
8
OBJECT000
10
764.000000
20
18.208252
30
9.981934
70
192
0
VERTEX
8
OBJECT000
10
764.000000
20
-12.531250
30
10.072754
70
192
0
VERTEX
8
OBJECT000
10
764.000000
20
-12.531250
30
19.659180
70
192
0
VERTEX
8
OBJECT000
10
684.000000
20
19.731934
30
68.000000
70
192
0
VERTEX
8
OBJECT000
10
691.927246
20
19.731934
30
68.000000
70
192
0
VERTEX
8
OBJECT000
10
692.453125
20
17.528076
30
67.764648
70
192
0
VERTEX
8
OBJECT000
10
684.000000
20
17.528076
30
67.764648
70
192
0
VERTEX
8
OBJECT000
10
684.000000
20
18.208374
30
9.982666
70
192
0
VERTEX
8
OBJECT000
10
751.360596
20
18.958496
30
38.546875
70
192
0
VERTEX
8
OBJECT000
10
742.906250
20
19.133545
30
45.210693
70
192
0
VERTEX
8
OBJECT000
10
713.429443
20
-133.780518
30
10.432129
70
192
0
VERTEX
8
OBJECT000
10
747.237793
20
-84.457397
30
10.285889
70
192
0
VERTEX
8
OBJECT000
10
757.774902
20
-52.721680
30
10.191895
70
192
0
VERTEX
8
OBJECT000
10
684.000000
20
-133.780518
30
10.432373
70
192
0
VERTEX
8
OBJECT000
10
718.546631
20
-16.754272
30
56.093994
70
192
0
VERTEX
8
OBJECT000
10
742.916504
20
-0.720703
30
45.202637
70
192
0
VERTEX
8
OBJECT000
10
751.360596
20
-3.922607
30
38.547119
70
192
0
VERTEX
8
OBJECT000
10
761.405029
20
-29.285400
30
23.537109
70
192
0
VERTEX
8
OBJECT000
10
757.774902
20
-52.721802
30
18.232910
70
192
0
VERTEX
8
OBJECT000
10
747.237793
20
-84.457703
30
14.780029
70
192
0
VERTEX
8
OBJECT000
10
720.375244
20
-123.647766
30
19.704834
70
192
0
VERTEX
8
OBJECT000
10
713.428223
20
-133.780518
30
16.255371
70
192
0
VERTEX
8
OBJECT000
10
684.000000
20
-133.780518
30
16.255371
70
192
0
VERTEX
8
OBJECT000
10
0
20
0
30
0
70
128
71
2
72
3
73
-4
0
VERTEX
8
OBJECT000
10
0
20
0
30
0
70
128
71
-2
72
4
73
1
0
VERTEX
8
OBJECT000
10
0
20
0
30
0
70
128
71
6
72
7
73
-8
0
VERTEX
8
OBJECT000
10
0
20
0
30
0
70
128
71
-6
72
8
73
5
0
VERTEX
8
OBJECT000
10
0
20
0
30
0
70
128
71
2
72
1
73
-10
0
VERTEX
8
OBJECT000
10
0
20
0
30
0
70
128
71
-2
72
10
73
-11
0
VERTEX
8
OBJECT000
10
0
20
0
30
0
70
128
71
-2
72
11
73
-6
0
VERTEX
8
OBJECT000
10
0
20
0
30
0
70
128
71
-2
72
6
73
-5
0
VERTEX
8
OBJECT000
10
0
20
0
30
0
70
128
71
-2
72
5
73
9
0
VERTEX
8
OBJECT000
10
0
20
0
30
0
70
128
71
13
72
14
73
-3
0
VERTEX
8
OBJECT000
10
0
20
0
30
0
70
128
71
-13
72
3
73
-2
0
VERTEX
8
OBJECT000
10
0
20
0
30
0
70
128
71
-13
72
2
73
-9
0
VERTEX
8
OBJECT000
10
0
20
0
30
0
70
128
71
-13
72
9
73
-15
0
VERTEX
8
OBJECT000
10
0
20
0
30
0
70
128
71
-13
72
15
73
12
0
VERTEX
8
OBJECT000
10
0
20
0
30
0
70
128
71
17
72
18
73
-19
0
VERTEX
8
OBJECT000
10
0
20
0
30
0
70
128
71
-17
72
19
73
-20
0
VERTEX
8
OBJECT000
10
0
20
0
30
0
70
128
71
-17
72
20
73
-21
0
VERTEX
8
OBJECT000
10
0
20
0
30
0
70
128
71
-17
72
21
73
-22
0
VERTEX
8
OBJECT000
10
0
20
0
30
0
70
128
71
-17
72
22
73
16
0
VERTEX
8
OBJECT000
10
0
20
0
30
0
70
128
71
16
72
7
73
-6
0
VERTEX
8
OBJECT000
10
0
20
0
30
0
70
128
71
-16
72
6
73
-11
0
VERTEX
8
OBJECT000
10
0
20
0
30
0
70
128
71
-16
72
11
73
17
0
VERTEX
8
OBJECT000
10
0
20
0
30
0
70
128
71
12
72
23
73
-22
0
VERTEX
8
OBJECT000
10
0
20
0
30
0
70
128
71
-12
72
22
73
-21
0
VERTEX
8
OBJECT000
10
0
20
0
30
0
70
128
71
-12
72
21
73
13
0
VERTEX
8
OBJECT000
10
0
20
0
30
0
70
128
71
13
72
21
73
-20
0
VERTEX
8
OBJECT000
10
0
20
0
30
0
70
128
71
-13
72
20
73
14
0
VERTEX
8
OBJECT000
10
0
20
0
30
0
70
128
71
3
72
14
73
-20
0
VERTEX
8
OBJECT000
10
0
20
0
30
0
70
128
71
-3
72
20
73
-19
0
VERTEX
8
OBJECT000
10
0
20
0
30
0
70
128
71
-3
72
19
73
4
0
VERTEX
8
OBJECT000
10
0
20
0
30
0
70
128
71
17
72
11
73
-10
0
VERTEX
8
OBJECT000
10
0
20
0
30
0
70
128
71
-17
72
10
73
18
0
VERTEX
8
OBJECT000
10
0
20
0
30
0
70
128
71
4
72
19
73
-18
0
VERTEX
8
OBJECT000
10
0
20
0
30
0
70
128
71
-4
72
18
73
-10
0
VERTEX
8
OBJECT000
10
0
20
0
30
0
70
128
71
-4
72
10
73
1
0
VERTEX
8
OBJECT000
10
0
20
0
30
0
70
128
71
5
72
8
73
-24
0
VERTEX
8
OBJECT000
10
0
20
0
30
0
70
128
71
-5
72
24
73
-15
0
VERTEX
8
OBJECT000
10
0
20
0
30
0
70
128
71
-5
72
15
73
9
0
VERTEX
8
OBJECT000
10
0
20
0
30
0
70
128
71
15
72
24
73
-23
0
VERTEX
8
OBJECT000
10
0
20
0
30
0
70
128
71
-15
72
23
73
12
0
VERTEX
8
OBJECT000
10
0
20
0
30
0
70
128
71
7
72
16
73
-22
0
VERTEX
8
OBJECT000
10
0
20
0
30
0
70
128
71
-7
72
22
73
-23
0
VERTEX
8
OBJECT000
10
0
20
0
30
0
70
128
71
-7
72
23
73
-24
0
VERTEX
8
OBJECT000
10
0
20
0
30
0
70
128
71
-7
72
24
73
8
0
SEQEND
8
OBJECT000
0
POLYLINE
8
OBJECT001
66
1
70
64
71
26
72
48
62
50
0
VERTEX
8
OBJECT001
10
764.000000
20
18.207520
30
10.000000
70
192
0
VERTEX
8
OBJECT001
10
764.000000
20
17.950684
30
0.334961
70
192
0
VERTEX
8
OBJECT001
10
764.000000
20
-12.512939
30
0.334961
70
192
0
VERTEX
8
OBJECT001
10
764.000000
20
-12.512939
30
10.085205
70
192
0
VERTEX
8
OBJECT001
10
684.000000
20
-98.408142
30
-27.799561
70
192
0
VERTEX
8
OBJECT001
10
688.631836
20
-98.408142
30
-27.799561
70
192
0
VERTEX
8
OBJECT001
10
694.862305
20
-46.500488
30
-40.857178
70
192
0
VERTEX
8
OBJECT001
10
684.000000
20
-46.500488
30
-40.857178
70
192
0
VERTEX
8
OBJECT001
10
695.077881
20
-133.780518
30
-11.969482
70
192
0
VERTEX
8
OBJECT001
10
684.000000
20
-133.780518
30
-11.969482
70
192
0
VERTEX
8
OBJECT001
10
701.291260
20
-27.213623
30
-43.041504
70
192
0
VERTEX
8
OBJECT001
10
689.852051
20
16.665405
30
-48.011963
70
192
0
VERTEX
8
OBJECT001
10
684.000000
20
16.665405
30
-48.011963
70
192
0
VERTEX
8
OBJECT001
10
743.812256
20
17.288940
30
-24.557373
70
192
0
VERTEX
8
OBJECT001
10
749.784180
20
17.387451
30
-20.850830
70
192
0
VERTEX
8
OBJECT001
10
684.000000
20
18.207520
30
10.000000
70
192
0
VERTEX
8
OBJECT001
10
757.783447
20
-52.702637
30
10.196777
70
192
0
VERTEX
8
OBJECT001
10
747.246826
20
-84.443604
30
10.284912
70
192
0
VERTEX
8
OBJECT001
10
713.429199
20
-133.780518
30
10.421875
70
192
0
VERTEX
8
OBJECT001
10
684.000000
20
-133.780518
30
10.421875
70
192
0
VERTEX
8
OBJECT001
10
749.783691
20
0.872070
30
-20.851563
70
192
0
VERTEX
8
OBJECT001
10
743.810547
20
0.369873
30
-24.558838
70
192
0
VERTEX
8
OBJECT001
10
713.436523
20
-133.780518
30
-0.065674
70
192
0
VERTEX
8
OBJECT001
10
747.238281
20
-84.460754
30
5.604492
70
192
0
VERTEX
8
OBJECT001
10
757.787598
20
-52.674805
30
1.974609
70
192
0
VERTEX
8
OBJECT001
10
761.455322
20
-28.963623
30
-3.457275
70
192
0
VERTEX
8
OBJECT001
10
0
20
0
30
0
70
128
71
2
72
3
73
-4
0
VERTEX
8
OBJECT001
10
0
20
0
30
0
70
128
71
-2
72
4
73
1
0
VERTEX
8
OBJECT001
10
0
20
0
30
0
70
128
71
6
72
7
73
-8
0
VERTEX
8
OBJECT001
10
0
20
0
30
0
70
128
71
-6
72
8
73
5
0
VERTEX
8
OBJECT001
10
0
20
0
30
0
70
128
71
6
72
5
73
-10
0
VERTEX
8
OBJECT001
10
0
20
0
30
0
70
128
71
-6
72
10
73
9
0
VERTEX
8
OBJECT001
10
0
20
0
30
0
70
128
71
7
72
11
73
-12
0
VERTEX
8
OBJECT001
10
0
20
0
30
0
70
128
71
-7
72
12
73
-13
0
VERTEX
8
OBJECT001
10
0
20
0
30
0
70
128
71
-7
72
13
73
8
0
VERTEX
8
OBJECT001
10
0
20
0
30
0
70
128
71
12
72
14
73
-15
0
VERTEX
8
OBJECT001
10
0
20
0
30
0
70
128
71
-12
72
15
73
-2
0
VERTEX
8
OBJECT001
10
0
20
0
30
0
70
128
71
-12
72
2
73
-1
0
VERTEX
8
OBJECT001
10
0
20
0
30
0
70
128
71
-12
72
1
73
-16
0
VERTEX
8
OBJECT001
10
0
20
0
30
0
70
128
71
-12
72
16
73
13
0
VERTEX
8
OBJECT001
10
0
20
0
30
0
70
128
71
1
72
4
73
-17
0
VERTEX
8
OBJECT001
10
0
20
0
30
0
70
128
71
-1
72
17
73
-18
0
VERTEX
8
OBJECT001
10
0
20
0
30
0
70
128
71
-1
72
18
73
-19
0
VERTEX
8
OBJECT001
10
0
20
0
30
0
70
128
71
-1
72
19
73
-20
0
VERTEX
8
OBJECT001
10
0
20
0
30
0
70
128
71
-1
72
20
73
16
0
VERTEX
8
OBJECT001
10
0
20
0
30
0
70
128
71
22
72
11
73
-7
0
VERTEX
8
OBJECT001
10
0
20
0
30
0
70
128
71
-22
72
7
73
-6
0
VERTEX
8
OBJECT001
10
0
20
0
30
0
70
128
71
-22
72
6
73
-9
0
VERTEX
8
OBJECT001
10
0
20
0
30
0
70
128
71
-22
72
9
73
-23
0
VERTEX
8
OBJECT001
10
0
20
0
30
0
70
128
71
-22
72
23
73
-24
0
VERTEX
8
OBJECT001
10
0
20
0
30
0
70
128
71
-22
72
24
73
-25
0
VERTEX
8
OBJECT001
10
0
20
0
30
0
70
128
71
-22
72
25
73
-26
0
VERTEX
8
OBJECT001
10
0
20
0
30
0
70
128
71
-22
72
26
73
21
0
VERTEX
8
OBJECT001
10
0
20
0
30
0
70
128
71
11
72
22
73
-14
0
VERTEX
8
OBJECT001
10
0
20
0
30
0
70
128
71
-11
72
14
73
12
0
VERTEX
8
OBJECT001
10
0
20
0
30
0
70
128
71
23
72
19
73
-18
0
VERTEX
8
OBJECT001
10
0
20
0
30
0
70
128
71
-23
72
18
73
24
0
VERTEX
8
OBJECT001
10
0
20
0
30
0
70
128
71
24
72
18
73
-17
0
VERTEX
8
OBJECT001
10
0
20
0
30
0
70
128
71
-24
72
17
73
25
0
VERTEX
8
OBJECT001
10
0
20
0
30
0
70
128
71
3
72
26
73
-25
0
VERTEX
8
OBJECT001
10
0
20
0
30
0
70
128
71
-3
72
25
73
-17
0
VERTEX
8
OBJECT001
10
0
20
0
30
0
70
128
71
-3
72
17
73
4
0
VERTEX
8
OBJECT001
10
0
20
0
30
0
70
128
71
21
72
15
73
-14
0
VERTEX
8
OBJECT001
10
0
20
0
30
0
70
128
71
-21
72
14
73
22
0
VERTEX
8
OBJECT001
10
0
20
0
30
0
70
128
71
2
72
15
73
-21
0
VERTEX
8
OBJECT001
10
0
20
0
30
0
70
128
71
-2
72
21
73
-26
0
VERTEX
8
OBJECT001
10
0
20
0
30
0
70
128
71
-2
72
26
73
3
0
VERTEX
8
OBJECT001
10
0
20
0
30
0
70
128
71
5
72
8
73
-13
0
VERTEX
8
OBJECT001
10
0
20
0
30
0
70
128
71
-5
72
13
73
-16
0
VERTEX
8
OBJECT001
10
0
20
0
30
0
70
128
71
-5
72
16
73
-20
0
VERTEX
8
OBJECT001
10
0
20
0
30
0
70
128
71
-5
72
20
73
10
0
VERTEX
8
OBJECT001
10
0
20
0
30
0
70
128
71
10
72
20
73
-19
0
VERTEX
8
OBJECT001
10
0
20
0
30
0
70
128
71
-10
72
19
73
-23
0
VERTEX
8
OBJECT001
10
0
20
0
30
0
70
128
71
-10
72
23
73
9
0
SEQEND
8
OBJECT001
0
POLYLINE
8
OBJECT002
66
1
70
64
71
26
72
48
62
50
0
VERTEX
8
OBJECT002
10
764.000000
20
17.951416
30
0.328125
70
192
0
VERTEX
8
OBJECT002
10
764.000000
20
18.207886
30
10.000000
70
192
0
VERTEX
8
OBJECT002
10
764.000000
20
41.687256
30
9.927246
70
192
0
VERTEX
8
OBJECT002
10
764.000000
20
41.687256
30
0.328125
70
192
0
VERTEX
8
OBJECT002
10
684.000000
20
80.207520
30
-41.228027
70
192
0
VERTEX
8
OBJECT002
10
692.508545
20
80.206665
30
-41.228027
70
192
0
VERTEX
8
OBJECT002
10
685.157715
20
132.826416
30
-28.453857
70
192
0
VERTEX
8
OBJECT002
10
684.000000
20
132.826294
30
-28.453857
70
192
0
VERTEX
8
OBJECT002
10
691.361572
20
170.219482
30
-12.323486
70
192
0
VERTEX
8
OBJECT002
10
684.000000
20
170.219482
30
-12.323486
70
192
0
VERTEX
8
OBJECT002
10
684.000000
20
16.679688
30
-48.000000
70
192
0
VERTEX
8
OBJECT002
10
689.883057
20
16.678955
30
-48.000000
70
192
0
VERTEX
8
OBJECT002
10
700.217773
20
58.809570
30
-43.509277
70
192
0
VERTEX
8
OBJECT002
10
749.810547
20
17.392090
30
-20.824951
70
192
0
VERTEX
8
OBJECT002
10
743.798828
20
17.293823
30
-24.558350
70
192
0
VERTEX
8
OBJECT002
10
684.000000
20
18.219482
30
10.000000
70
192
0
VERTEX
8
OBJECT002
10
705.715820
20
170.219482
30
9.557129
70
192
0
VERTEX
8
OBJECT002
10
744.363281
20
121.282349
30
9.697754
70
192
0
VERTEX
8
OBJECT002
10
755.354248
20
96.416992
30
9.769287
70
192
0
VERTEX
8
OBJECT002
10
684.000000
20
170.219482
30
9.557617
70
192
0
VERTEX
8
OBJECT002
10
743.793213
20
34.664429
30
-24.561768
70
192
0
VERTEX
8
OBJECT002
10
749.810547
20
34.735107
30
-20.824951
70
192
0
VERTEX
8
OBJECT002
10
760.580322
20
63.334595
30
-4.769775
70
192
0
VERTEX
8
OBJECT002
10
755.354248
20
96.416748
30
2.888428
70
192
0
VERTEX
8
OBJECT002
10
744.361084
20
121.286987
30
4.285645
70
192
0
VERTEX
8
OBJECT002
10
705.719727
20
170.219482
30
-3.464355
70
192
0
VERTEX
8
OBJECT002
10
0
20
0
30
0
70
128
71
2
72
3
73
-4
0
VERTEX
8
OBJECT002
10
0
20
0
30
0
70
128
71
-2
72
4
73
1
0
VERTEX
8
OBJECT002
10
0
20
0
30
0
70
128
71
6
72
7
73
-8
0
VERTEX
8
OBJECT002
10
0
20
0
30
0
70
128
71
-6
72
8
73
5
0
VERTEX
8
OBJECT002
10
0
20
0
30
0
70
128
71
7
72
9
73
-10
0
VERTEX
8
OBJECT002
10
0
20
0
30
0
70
128
71
-7
72
10
73
8
0
VERTEX
8
OBJECT002
10
0
20
0
30
0
70
128
71
12
72
13
73
-6
0
VERTEX
8
OBJECT002
10
0
20
0
30
0
70
128
71
-12
72
6
73
-5
0
VERTEX
8
OBJECT002
10
0
20
0
30
0
70
128
71
-12
72
5
73
11
0
VERTEX
8
OBJECT002
10
0
20
0
30
0
70
128
71
1
72
14
73
-15
0
VERTEX
8
OBJECT002
10
0
20
0
30
0
70
128
71
-1
72
15
73
-12
0
VERTEX
8
OBJECT002
10
0
20
0
30
0
70
128
71
-1
72
12
73
-11
0
VERTEX
8
OBJECT002
10
0
20
0
30
0
70
128
71
-1
72
11
73
-16
0
VERTEX
8
OBJECT002
10
0
20
0
30
0
70
128
71
-1
72
16
73
2
0
VERTEX
8
OBJECT002
10
0
20
0
30
0
70
128
71
18
72
19
73
-3
0
VERTEX
8
OBJECT002
10
0
20
0
30
0
70
128
71
-18
72
3
73
-2
0
VERTEX
8
OBJECT002
10
0
20
0
30
0
70
128
71
-18
72
2
73
-16
0
VERTEX
8
OBJECT002
10
0
20
0
30
0
70
128
71
-18
72
16
73
-20
0
VERTEX
8
OBJECT002
10
0
20
0
30
0
70
128
71
-18
72
20
73
17
0
VERTEX
8
OBJECT002
10
0
20
0
30
0
70
128
71
6
72
13
73
-21
0
VERTEX
8
OBJECT002
10
0
20
0
30
0
70
128
71
-6
72
21
73
-22
0
VERTEX
8
OBJECT002
10
0
20
0
30
0
70
128
71
-6
72
22
73
-23
0
VERTEX
8
OBJECT002
10
0
20
0
30
0
70
128
71
-6
72
23
73
-24
0
VERTEX
8
OBJECT002
10
0
20
0
30
0
70
128
71
-6
72
24
73
-25
0
VERTEX
8
OBJECT002
10
0
20
0
30
0
70
128
71
-6
72
25
73
-26
0
VERTEX
8
OBJECT002
10
0
20
0
30
0
70
128
71
-6
72
26
73
-9
0
VERTEX
8
OBJECT002
10
0
20
0
30
0
70
128
71
-6
72
9
73
7
0
VERTEX
8
OBJECT002
10
0
20
0
30
0
70
128
71
13
72
12
73
-15
0
VERTEX
8
OBJECT002
10
0
20
0
30
0
70
128
71
-13
72
15
73
21
0
VERTEX
8
OBJECT002
10
0
20
0
30
0
70
128
71
25
72
18
73
-17
0
VERTEX
8
OBJECT002
10
0
20
0
30
0
70
128
71
-25
72
17
73
26
0
VERTEX
8
OBJECT002
10
0
20
0
30
0
70
128
71
18
72
25
73
-24
0
VERTEX
8
OBJECT002
10
0
20
0
30
0
70
128
71
-18
72
24
73
19
0
VERTEX
8
OBJECT002
10
0
20
0
30
0
70
128
71
3
72
19
73
-24
0
VERTEX
8
OBJECT002
10
0
20
0
30
0
70
128
71
-3
72
24
73
-23
0
VERTEX
8
OBJECT002
10
0
20
0
30
0
70
128
71
-3
72
23
73
4
0
VERTEX
8
OBJECT002
10
0
20
0
30
0
70
128
71
21
72
15
73
-14
0
VERTEX
8
OBJECT002
10
0
20
0
30
0
70
128
71
-21
72
14
73
22
0
VERTEX
8
OBJECT002
10
0
20
0
30
0
70
128
71
4
72
23
73
-22
0
VERTEX
8
OBJECT002
10
0
20
0
30
0
70
128
71
-4
72
22
73
-14
0
VERTEX
8
OBJECT002
10
0
20
0
30
0
70
128
71
-4
72
14
73
1
0
VERTEX
8
OBJECT002
10
0
20
0
30
0
70
128
71
11
72
5
73
-8
0
VERTEX
8
OBJECT002
10
0
20
0
30
0
70
128
71
-11
72
8
73
-10
0
VERTEX
8
OBJECT002
10
0
20
0
30
0
70
128
71
-11
72
10
73
-20
0
VERTEX
8
OBJECT002
10
0
20
0
30
0
70
128
71
-11
72
20
73
16
0
VERTEX
8
OBJECT002
10
0
20
0
30
0
70
128
71
9
72
26
73
-17
0
VERTEX
8
OBJECT002
10
0
20
0
30
0
70
128
71
-9
72
17
73
-20
0
VERTEX
8
OBJECT002
10
0
20
0
30
0
70
128
71
-9
72
20
73
10
0
SEQEND
8
OBJECT002
0
POLYLINE
8
OBJECT003
66
1
70
64
71
26
72
48
62
50
0
VERTEX
8
OBJECT003
10
764.000000
20
18.208130
30
10.000000
70
192
0
VERTEX
8
OBJECT003
10
764.000000
20
18.462402
30
19.660889
70
192
0
VERTEX
8
OBJECT003
10
764.000000
20
41.675537
30
19.660889
70
192
0
VERTEX
8
OBJECT003
10
764.000000
20
41.675537
30
9.931641
70
192
0
VERTEX
8
OBJECT003
10
684.000000
20
134.833008
30
47.786621
70
192
0
VERTEX
8
OBJECT003
10
690.533447
20
134.833008
30
47.786621
70
192
0
VERTEX
8
OBJECT003
10
696.651855
20
82.848389
30
60.863770
70
192
0
VERTEX
8
OBJECT003
10
684.000000
20
82.848389
30
60.863770
70
192
0
VERTEX
8
OBJECT003
10
696.785400
20
170.219482
30
31.949951
70
192
0
VERTEX
8
OBJECT003
10
684.000000
20
170.219482
30
31.949707
70
192
0
VERTEX
8
OBJECT003
10
702.979980
20
63.431396
30
63.056641
70
192
0
VERTEX
8
OBJECT003
10
691.965088
20
19.733887
30
68.000000
70
192
0
VERTEX
8
OBJECT003
10
684.000000
20
19.733887
30
68.000000
70
192
0
VERTEX
8
OBJECT003
10
684.000000
20
18.208130
30
10.000000
70
192
0
VERTEX
8
OBJECT003
10
742.892090
20
19.134766
30
45.218506
70
192
0
VERTEX
8
OBJECT003
10
751.300293
20
18.960449
30
38.591309
70
192
0
VERTEX
8
OBJECT003
10
755.336182
20
96.462402
30
9.772217
70
192
0
VERTEX
8
OBJECT003
10
744.334229
20
121.343262
30
9.699707
70
192
0
VERTEX
8
OBJECT003
10
705.739502
20
170.219482
30
9.557373
70
192
0
VERTEX
8
OBJECT003
10
684.000000
20
170.219482
30
9.557129
70
192
0
VERTEX
8
OBJECT003
10
742.902588
20
36.963379
30
45.210205
70
192
0
VERTEX
8
OBJECT003
10
705.723633
20
170.219482
30
26.000000
70
192
0
VERTEX
8
OBJECT003
10
744.341797
20
121.325439
30
16.419678
70
192
0
VERTEX
8
OBJECT003
10
755.336426
20
96.461182
30
17.303223
70
192
0
VERTEX
8
OBJECT003
10
760.582520
20
63.287354
30
24.755127
70
192
0
VERTEX
8
OBJECT003
10
751.300293
20
40.079956
30
38.591309
70
192
0
VERTEX
8
OBJECT003
10
0
20
0
30
0
70
128
71
2
72
3
73
-4
0
VERTEX
8
OBJECT003
10
0
20
0
30
0
70
128
71
-2
72
4
73
1
0
VERTEX
8
OBJECT003
10
0
20
0
30
0
70
128
71
6
72
7
73
-8
0
VERTEX
8
OBJECT003
10
0
20
0
30
0
70
128
71
-6
72
8
73
5
0
VERTEX
8
OBJECT003
10
0
20
0
30
0
70
128
71
6
72
5
73
-10
0
VERTEX
8
OBJECT003
10
0
20
0
30
0
70
128
71
-6
72
10
73
9
0
VERTEX
8
OBJECT003
10
0
20
0
30
0
70
128
71
7
72
11
73
-12
0
VERTEX
8
OBJECT003
10
0
20
0
30
0
70
128
71
-7
72
12
73
-13
0
VERTEX
8
OBJECT003
10
0
20
0
30
0
70
128
71
-7
72
13
73
8
0
VERTEX
8
OBJECT003
10
0
20
0
30
0
70
128
71
1
72
14
73
-13
0
VERTEX
8
OBJECT003
10
0
20
0
30
0
70
128
71
-1
72
13
73
-12
0
VERTEX
8
OBJECT003
10
0
20
0
30
0
70
128
71
-1
72
12
73
-15
0
VERTEX
8
OBJECT003
10
0
20
0
30
0
70
128
71
-1
72
15
73
-16
0
VERTEX
8
OBJECT003
10
0
20
0
30
0
70
128
71
-1
72
16
73
2
0
VERTEX
8
OBJECT003
10
0
20
0
30
0
70
128
71
1
72
4
73
-17
0
VERTEX
8
OBJECT003
10
0
20
0
30
0
70
128
71
-1
72
17
73
-18
0
VERTEX
8
OBJECT003
10
0
20
0
30
0
70
128
71
-1
72
18
73
-19
0
VERTEX
8
OBJECT003
10
0
20
0
30
0
70
128
71
-1
72
19
73
-20
0
VERTEX
8
OBJECT003
10
0
20
0
30
0
70
128
71
-1
72
20
73
14
0
VERTEX
8
OBJECT003
10
0
20
0
30
0
70
128
71
11
72
7
73
-6
0
VERTEX
8
OBJECT003
10
0
20
0
30
0
70
128
71
-11
72
6
73
-9
0
VERTEX
8
OBJECT003
10
0
20
0
30
0
70
128
71
-11
72
9
73
-22
0
VERTEX
8
OBJECT003
10
0
20
0
30
0
70
128
71
-11
72
22
73
-23
0
VERTEX
8
OBJECT003
10
0
20
0
30
0
70
128
71
-11
72
23
73
-24
0
VERTEX
8
OBJECT003
10
0
20
0
30
0
70
128
71
-11
72
24
73
-25
0
VERTEX
8
OBJECT003
10
0
20
0
30
0
70
128
71
-11
72
25
73
-26
0
VERTEX
8
OBJECT003
10
0
20
0
30
0
70
128
71
-11
72
26
73
21
0
VERTEX
8
OBJECT003
10
0
20
0
30
0
70
128
71
11
72
21
73
-15
0
VERTEX
8
OBJECT003
10
0
20
0
30
0
70
128
71
-11
72
15
73
12
0
VERTEX
8
OBJECT003
10
0
20
0
30
0
70
128
71
22
72
19
73
-18
0
VERTEX
8
OBJECT003
10
0
20
0
30
0
70
128
71
-22
72
18
73
23
0
VERTEX
8
OBJECT003
10
0
20
0
30
0
70
128
71
23
72
18
73
-17
0
VERTEX
8
OBJECT003
10
0
20
0
30
0
70
128
71
-23
72
17
73
24
0
VERTEX
8
OBJECT003
10
0
20
0
30
0
70
128
71
3
72
25
73
-24
0
VERTEX
8
OBJECT003
10
0
20
0
30
0
70
128
71
-3
72
24
73
-17
0
VERTEX
8
OBJECT003
10
0
20
0
30
0
70
128
71
-3
72
17
73
4
0
VERTEX
8
OBJECT003
10
0
20
0
30
0
70
128
71
26
72
16
73
-15
0
VERTEX
8
OBJECT003
10
0
20
0
30
0
70
128
71
-26
72
15
73
21
0
VERTEX
8
OBJECT003
10
0
20
0
30
0
70
128
71
2
72
16
73
-26
0
VERTEX
8
OBJECT003
10
0
20
0
30
0
70
128
71
-2
72
26
73
-25
0
VERTEX
8
OBJECT003
10
0
20
0
30
0
70
128
71
-2
72
25
73
3
0
VERTEX
8
OBJECT003
10
0
20
0
30
0
70
128
71
5
72
8
73
-13
0
VERTEX
8
OBJECT003
10
0
20
0
30
0
70
128
71
-5
72
13
73
-14
0
VERTEX
8
OBJECT003
10
0
20
0
30
0
70
128
71
-5
72
14
73
-20
0
VERTEX
8
OBJECT003
10
0
20
0
30
0
70
128
71
-5
72
20
73
10
0
VERTEX
8
OBJECT003
10
0
20
0
30
0
70
128
71
19
72
22
73
-9
0
VERTEX
8
OBJECT003
10
0
20
0
30
0
70
128
71
-19
72
9
73
-10
0
VERTEX
8
OBJECT003
10
0
20
0
30
0
70
128
71
-19
72
10
73
20
0
SEQEND
8
OBJECT003
0
POLYLINE
8
OBJECT004
66
1
70
64
71
12
72
20
62
50
0
VERTEX
8
OBJECT004
10
684.000000
20
82.848511
30
60.869385
70
192
0
VERTEX
8
OBJECT004
10
-800.000000
20
82.848511
30
60.869385
70
192
0
VERTEX
8
OBJECT004
10
-800.000000
20
134.819336
30
47.795898
70
192
0
VERTEX
8
OBJECT004
10
684.000000
20
134.819336
30
47.795898
70
192
0
VERTEX
8
OBJECT004
10
-800.000000
20
170.219482
30
31.954590
70
192
0
VERTEX
8
OBJECT004
10
684.000000
20
170.219482
30
31.954590
70
192
0
VERTEX
8
OBJECT004
10
684.000000
20
19.733398
30
68.000000
70
192
0
VERTEX
8
OBJECT004
10
-800.000000
20
19.733398
30
68.000000
70
192
0
VERTEX
8
OBJECT004
10
684.000000
20
18.208130
30
10.000000
70
192
0
VERTEX
8
OBJECT004
10
-800.000000
20
18.208130
30
10.000000
70
192
0
VERTEX
8
OBJECT004
10
-800.000000
20
170.219482
30
9.583252
70
192
0
VERTEX
8
OBJECT004
10
684.000000
20
170.219482
30
9.583252
70
192
0
VERTEX
8
OBJECT004
10
0
20
0
30
0
70
128
71
2
72
3
73
-4
0
VERTEX
8
OBJECT004
10
0
20
0
30
0
70
128
71
-2
72
4
73
1
0
VERTEX
8
OBJECT004
10
0
20
0
30
0
70
128
71
3
72
5
73
-6
0
VERTEX
8
OBJECT004
10
0
20
0
30
0
70
128
71
-3
72
6
73
4
0
VERTEX
8
OBJECT004
10
0
20
0
30
0
70
128
71
8
72
2
73
-1
0
VERTEX
8
OBJECT004
10
0
20
0
30
0
70
128
71
-8
72
1
73
7
0
VERTEX
8
OBJECT004
10
0
20
0
30
0
70
128
71
10
72
8
73
-7
0
VERTEX
8
OBJECT004
10
0
20
0
30
0
70
128
71
-10
72
7
73
9
0
VERTEX
8
OBJECT004
10
0
20
0
30
0
70
128
71
10
72
9
73
-12
0
VERTEX
8
OBJECT004
10
0
20
0
30
0
70
128
71
-10
72
12
73
11
0
VERTEX
8
OBJECT004
10
0
20
0
30
0
70
128
71
3
72
2
73
-8
0
VERTEX
8
OBJECT004
10
0
20
0
30
0
70
128
71
-3
72
8
73
-10
0
VERTEX
8
OBJECT004
10
0
20
0
30
0
70
128
71
-3
72
10
73
-11
0
VERTEX
8
OBJECT004
10
0
20
0
30
0
70
128
71
-3
72
11
73
5
0
VERTEX
8
OBJECT004
10
0
20
0
30
0
70
128
71
7
72
1
73
-4
0
VERTEX
8
OBJECT004
10
0
20
0
30
0
70
128
71
-7
72
4
73
-6
0
VERTEX
8
OBJECT004
10
0
20
0
30
0
70
128
71
-7
72
6
73
-12
0
VERTEX
8
OBJECT004
10
0
20
0
30
0
70
128
71
-7
72
12
73
9
0
VERTEX
8
OBJECT004
10
0
20
0
30
0
70
128
71
12
72
6
73
-5
0
VERTEX
8
OBJECT004
10
0
20
0
30
0
70
128
71
-12
72
5
73
11
0
SEQEND
8
OBJECT004
0
POLYLINE
8
OBJECT005
66
1
70
64
71
15
72
24
62
50
0
VERTEX
8
OBJECT005
10
-370.493408
20
132.830322
30
-28.446777
70
192
0
VERTEX
8
OBJECT005
10
-800.000000
20
132.830566
30
-28.446777
70
192
0
VERTEX
8
OBJECT005
10
-800.000000
20
80.219482
30
-41.219482
70
192
0
VERTEX
8
OBJECT005
10
684.000000
20
80.219482
30
-41.219238
70
192
0
VERTEX
8
OBJECT005
10
684.000000
20
112.485352
30
-33.385986
70
192
0
VERTEX
8
OBJECT005
10
-800.000000
20
170.219482
30
-12.317139
70
192
0
VERTEX
8
OBJECT005
10
684.000000
20
149.981934
30
-21.047119
70
192
0
VERTEX
8
OBJECT005
10
684.000000
20
170.219482
30
-12.316895
70
192
0
VERTEX
8
OBJECT005
10
-800.000000
20
16.680786
30
-48.000000
70
192
0
VERTEX
8
OBJECT005
10
684.000000
20
16.680176
30
-48.000000
70
192
0
VERTEX
8
OBJECT005
10
-800.000000
20
18.219482
30
9.987549
70
192
0
VERTEX
8
OBJECT005
10
684.000000
20
18.219482
30
9.987549
70
192
0
VERTEX
8
OBJECT005
10
-800.000000
20
170.219482
30
9.561279
70
192
0
VERTEX
8
OBJECT005
10
684.000000
20
170.219482
30
9.561279
70
192
0
VERTEX
8
OBJECT005
10
-370.851685
20
132.829224
30
-28.447266
70
192
0
VERTEX
8
OBJECT005
10
0
20
0
30
0
70
128
71
2
72
3
73
-4
0
VERTEX
8
OBJECT005
10
0
20
0
30
0
70
128
71
-2
72
4
73
-5
0
VERTEX
8
OBJECT005
10
0
20
0
30
0
70
128
71
-2
72
5
73
1
0
VERTEX
8
OBJECT005
10
0
20
0
30
0
70
128
71
2
72
1
73
-7
0
VERTEX
8
OBJECT005
10
0
20
0
30
0
70
128
71
-2
72
7
73
-8
0
VERTEX
8
OBJECT005
10
0
20
0
30
0
70
128
71
-2
72
8
73
6
0
VERTEX
8
OBJECT005
10
0
20
0
30
0
70
128
71
3
72
9
73
-10
0
VERTEX
8
OBJECT005
10
0
20
0
30
0
70
128
71
-3
72
10
73
4
0
VERTEX
8
OBJECT005
10
0
20
0
30
0
70
128
71
9
72
11
73
-12
0
VERTEX
8
OBJECT005
10
0
20
0
30
0
70
128
71
-9
72
12
73
10
0
VERTEX
8
OBJECT005
10
0
20
0
30
0
70
128
71
11
72
13
73
-14
0
VERTEX
8
OBJECT005
10
0
20
0
30
0
70
128
71
-11
72
14
73
12
0
VERTEX
8
OBJECT005
10
0
20
0
30
0
70
128
71
15
72
5
73
7
0
VERTEX
8
OBJECT005
10
0
20
0
30
0
70
128
71
9
72
3
73
-2
0
VERTEX
8
OBJECT005
10
0
20
0
30
0
70
128
71
-9
72
2
73
-6
0
VERTEX
8
OBJECT005
10
0
20
0
30
0
70
128
71
-9
72
6
73
-13
0
VERTEX
8
OBJECT005
10
0
20
0
30
0
70
128
71
-9
72
13
73
11
0
VERTEX
8
OBJECT005
10
0
20
0
30
0
70
128
71
7
72
5
73
-4
0
VERTEX
8
OBJECT005
10
0
20
0
30
0
70
128
71
-7
72
4
73
-10
0
VERTEX
8
OBJECT005
10
0
20
0
30
0
70
128
71
-7
72
10
73
-12
0
VERTEX
8
OBJECT005
10
0
20
0
30
0
70
128
71
-7
72
12
73
-14
0
VERTEX
8
OBJECT005
10
0
20
0
30
0
70
128
71
-7
72
14
73
8
0
VERTEX
8
OBJECT005
10
0
20
0
30
0
70
128
71
8
72
14
73
-13
0
VERTEX
8
OBJECT005
10
0
20
0
30
0
70
128
71
-8
72
13
73
6
0
SEQEND
8
OBJECT005
0
POLYLINE
8
OBJECT006
66
1
70
64
71
12
72
20
62
50
0
VERTEX
8
OBJECT006
10
684.000000
20
-46.503540
30
-40.852051
70
192
0
VERTEX
8
OBJECT006
10
-800.000000
20
-46.503540
30
-40.852051
70
192
0
VERTEX
8
OBJECT006
10
-800.000000
20
-98.396118
30
-27.798096
70
192
0
VERTEX
8
OBJECT006
10
684.000000
20
-98.396118
30
-27.798096
70
192
0
VERTEX
8
OBJECT006
10
-800.000000
20
-133.780518
30
-11.964355
70
192
0
VERTEX
8
OBJECT006
10
684.000000
20
-133.780518
30
-11.964355
70
192
0
VERTEX
8
OBJECT006
10
684.000000
20
16.665405
30
-48.000000
70
192
0
VERTEX
8
OBJECT006
10
-800.000000
20
16.665405
30
-48.000000
70
192
0
VERTEX
8
OBJECT006
10
684.000000
20
18.208252
30
10.000000
70
192
0
VERTEX
8
OBJECT006
10
-800.000000
20
18.208252
30
10.000000
70
192
0
VERTEX
8
OBJECT006
10
-800.000000
20
-133.780518
30
10.439941
70
192
0
VERTEX
8
OBJECT006
10
684.000000
20
-133.780518
30
10.439941
70
192
0
VERTEX
8
OBJECT006
10
0
20
0
30
0
70
128
71
2
72
3
73
-4
0
VERTEX
8
OBJECT006
10
0
20
0
30
0
70
128
71
-2
72
4
73
1
0
VERTEX
8
OBJECT006
10
0
20
0
30
0
70
128
71
3
72
5
73
-6
0
VERTEX
8
OBJECT006
10
0
20
0
30
0
70
128
71
-3
72
6
73
4
0
VERTEX
8
OBJECT006
10
0
20
0
30
0
70
128
71
8
72
2
73
-1
0
VERTEX
8
OBJECT006
10
0
20
0
30
0
70
128
71
-8
72
1
73
7
0
VERTEX
8
OBJECT006
10
0
20
0
30
0
70
128
71
7
72
9
73
-10
0
VERTEX
8
OBJECT006
10
0
20
0
30
0
70
128
71
-7
72
10
73
8
0
VERTEX
8
OBJECT006
10
0
20
0
30
0
70
128
71
10
72
9
73
-12
0
VERTEX
8
OBJECT006
10
0
20
0
30
0
70
128
71
-10
72
12
73
11
0
VERTEX
8
OBJECT006
10
0
20
0
30
0
70
128
71
3
72
2
73
-8
0
VERTEX
8
OBJECT006
10
0
20
0
30
0
70
128
71
-3
72
8
73
-10
0
VERTEX
8
OBJECT006
10
0
20
0
30
0
70
128
71
-3
72
10
73
-11
0
VERTEX
8
OBJECT006
10
0
20
0
30
0
70
128
71
-3
72
11
73
5
0
VERTEX
8
OBJECT006
10
0
20
0
30
0
70
128
71
7
72
1
73
-4
0
VERTEX
8
OBJECT006
10
0
20
0
30
0
70
128
71
-7
72
4
73
-6
0
VERTEX
8
OBJECT006
10
0
20
0
30
0
70
128
71
-7
72
6
73
-12
0
VERTEX
8
OBJECT006
10
0
20
0
30
0
70
128
71
-7
72
12
73
9
0
VERTEX
8
OBJECT006
10
0
20
0
30
0
70
128
71
5
72
11
73
-12
0
VERTEX
8
OBJECT006
10
0
20
0
30
0
70
128
71
-5
72
12
73
6
0
SEQEND
8
OBJECT006
0
POLYLINE
8
OBJECT007
66
1
70
64
71
10
72
16
62
50
0
VERTEX
8
OBJECT007
10
-800.000000
20
17.530273
30
67.765381
70
192
0
VERTEX
8
OBJECT007
10
-800.000000
20
19.731689
30
68.000000
70
192
0
VERTEX
8
OBJECT007
10
684.000000
20
19.731689
30
68.000000
70
192
0
VERTEX
8
OBJECT007
10
684.000000
20
17.530273
30
67.765381
70
192
0
VERTEX
8
OBJECT007
10
-800.000000
20
18.208252
30
9.987305
70
192
0
VERTEX
8
OBJECT007
10
684.000000
20
18.208252
30
9.987305
70
192
0
VERTEX
8
OBJECT007
10
-800.000000
20
-133.780518
30
10.437744
70
192
0
VERTEX
8
OBJECT007
10
684.000000
20
-133.780518
30
10.437744
70
192
0
VERTEX
8
OBJECT007
10
-800.000000
20
-133.780518
30
16.255371
70
192
0
VERTEX
8
OBJECT007
10
684.000000
20
-133.780518
30
16.255371
70
192
0
VERTEX
8
OBJECT007
10
0
20
0
30
0
70
128
71
2
72
3
73
-4
0
VERTEX
8
OBJECT007
10
0
20
0
30
0
70
128
71
-2
72
4
73
1
0
VERTEX
8
OBJECT007
10
0
20
0
30
0
70
128
71
6
72
3
73
-2
0
VERTEX
8
OBJECT007
10
0
20
0
30
0
70
128
71
-6
72
2
73
5
0
VERTEX
8
OBJECT007
10
0
20
0
30
0
70
128
71
5
72
7
73
-8
0
VERTEX
8
OBJECT007
10
0
20
0
30
0
70
128
71
-5
72
8
73
6
0
VERTEX
8
OBJECT007
10
0
20
0
30
0
70
128
71
2
72
1
73
-9
0
VERTEX
8
OBJECT007
10
0
20
0
30
0
70
128
71
-2
72
9
73
-7
0
VERTEX
8
OBJECT007
10
0
20
0
30
0
70
128
71
-2
72
7
73
5
0
VERTEX
8
OBJECT007
10
0
20
0
30
0
70
128
71
3
72
6
73
-8
0
VERTEX
8
OBJECT007
10
0
20
0
30
0
70
128
71
-3
72
8
73
-10
0
VERTEX
8
OBJECT007
10
0
20
0
30
0
70
128
71
-3
72
10
73
4
0
VERTEX
8
OBJECT007
10
0
20
0
30
0
70
128
71
7
72
9
73
-10
0
VERTEX
8
OBJECT007
10
0
20
0
30
0
70
128
71
-7
72
10
73
8
0
VERTEX
8
OBJECT007
10
0
20
0
30
0
70
128
71
1
72
4
73
-10
0
VERTEX
8
OBJECT007
10
0
20
0
30
0
70
128
71
-1
72
10
73
9
0
SEQEND
8
OBJECT007
0
ENDSEC
0
EOF
