0
SECTION
2
HEADER
9
$ACADVER
1
AC1008
9
$UCSORG
10
0.0
20
0.0
30
0.0
9
$UCSXDIR
10
1.0
20
0.0
30
0.0
9
$TILEMODE
70
1
9
$UCSYDIR
10
0.0
20
1.0
30
0.0
9
$EXTMIN
10
-768.000000
20
-182.219727
30
-48.000000
9
$EXTMAX
10
796.000000
20
168.000000
30
68.010986
0
ENDSEC
0
SECTION
2
TABLES
0
TABLE
2
LTYPE
70
1
0
LTYPE
2
CONTINUOUS
70
64
3
Solid line
72
65
73
0
40
0.0
0
ENDTAB
0
TABLE
2
LAYER
70
1
0
LAYER
2
0
70
0
62
7
6
CONTINUOUS
0
ENDTAB
0
TABLE
2
STYLE
70
1
0
STYLE
2
STANDARD
70
0
40
0.0
41
1.0
50
0.0
71
0
42
0.2
3
txt
4

0
ENDTAB
0
TABLE
2
UCS
70
0
0
ENDTAB
0
ENDSEC
0
SECTION
2
ENTITIES
0
POLYLINE
8
OBJECT000
66
1
70
64
71
16
72
24
62
50
0
VERTEX
8
OBJECT000
10
716.000000
20
-122.823608
30
47.808594
70
192
0
VERTEX
8
OBJECT000
10
-768.000000
20
-122.823608
30
47.808594
70
192
0
VERTEX
8
OBJECT000
10
-768.000000
20
-70.845520
30
60.880371
70
192
0
VERTEX
8
OBJECT000
10
716.000000
20
-70.845520
30
60.880371
70
192
0
VERTEX
8
OBJECT000
10
716.000000
20
-161.524536
30
30.485840
70
192
0
VERTEX
8
OBJECT000
10
-768.000000
20
-161.524536
30
30.485840
70
192
0
VERTEX
8
OBJECT000
10
-768.000000
20
-7.733765
30
68.010010
70
192
0
VERTEX
8
OBJECT000
10
716.000000
20
-7.733765
30
68.010010
70
192
0
VERTEX
8
OBJECT000
10
716.000000
20
-180.679688
30
11.078369
70
192
0
VERTEX
8
OBJECT000
10
269.942627
20
-182.208008
30
9.530029
70
192
0
VERTEX
8
OBJECT000
10
-768.000000
20
-182.208008
30
9.530029
70
192
0
VERTEX
8
OBJECT000
10
-768.000000
20
-6.208801
30
10.010010
70
192
0
VERTEX
8
OBJECT000
10
716.000000
20
-6.208801
30
10.010010
70
192
0
VERTEX
8
OBJECT000
10
716.000000
20
-180.679565
30
9.533691
70
192
0
VERTEX
8
OBJECT000
10
269.299194
20
-182.219727
30
9.529541
70
192
0
VERTEX
8
OBJECT000
10
269.432861
20
-182.209717
30
9.530029
70
192
0
VERTEX
8
OBJECT000
10
0
20
0
30
0
70
128
71
2
72
3
73
-4
0
VERTEX
8
OBJECT000
10
0
20
0
30
0
70
128
71
-2
72
4
73
1
0
VERTEX
8
OBJECT000
10
0
20
0
30
0
70
128
71
6
72
2
73
-1
0
VERTEX
8
OBJECT000
10
0
20
0
30
0
70
128
71
-6
72
1
73
5
0
VERTEX
8
OBJECT000
10
0
20
0
30
0
70
128
71
3
72
7
73
-8
0
VERTEX
8
OBJECT000
10
0
20
0
30
0
70
128
71
-3
72
8
73
4
0
VERTEX
8
OBJECT000
10
0
20
0
30
0
70
128
71
5
72
9
73
-10
0
VERTEX
8
OBJECT000
10
0
20
0
30
0
70
128
71
-5
72
10
73
-11
0
VERTEX
8
OBJECT000
10
0
20
0
30
0
70
128
71
-5
72
11
73
6
0
VERTEX
8
OBJECT000
10
0
20
0
30
0
70
128
71
7
72
12
73
-13
0
VERTEX
8
OBJECT000
10
0
20
0
30
0
70
128
71
-7
72
13
73
8
0
VERTEX
8
OBJECT000
10
0
20
0
30
0
70
128
71
13
72
12
73
-11
0
VERTEX
8
OBJECT000
10
0
20
0
30
0
70
128
71
-13
72
11
73
-15
0
VERTEX
8
OBJECT000
10
0
20
0
30
0
70
128
71
-13
72
15
73
14
0
VERTEX
8
OBJECT000
10
0
20
0
30
0
70
128
71
16
72
9
73
14
0
VERTEX
8
OBJECT000
10
0
20
0
30
0
70
128
71
7
72
3
73
-2
0
VERTEX
8
OBJECT000
10
0
20
0
30
0
70
128
71
-7
72
2
73
-6
0
VERTEX
8
OBJECT000
10
0
20
0
30
0
70
128
71
-7
72
6
73
-11
0
VERTEX
8
OBJECT000
10
0
20
0
30
0
70
128
71
-7
72
11
73
12
0
VERTEX
8
OBJECT000
10
0
20
0
30
0
70
128
71
9
72
5
73
-1
0
VERTEX
8
OBJECT000
10
0
20
0
30
0
70
128
71
-9
72
1
73
-4
0
VERTEX
8
OBJECT000
10
0
20
0
30
0
70
128
71
-9
72
4
73
-8
0
VERTEX
8
OBJECT000
10
0
20
0
30
0
70
128
71
-9
72
8
73
-13
0
VERTEX
8
OBJECT000
10
0
20
0
30
0
70
128
71
-9
72
13
73
14
0
SEQEND
8
OBJECT000
0
POLYLINE
8
OBJECT001
66
1
70
64
71
19
72
28
62
50
0
VERTEX
8
OBJECT001
10
716.000000
20
-100.519043
30
-33.363525
70
192
0
VERTEX
8
OBJECT001
10
716.000000
20
-68.219727
30
-41.209961
70
192
0
VERTEX
8
OBJECT001
10
-768.000000
20
-68.219727
30
-41.209961
70
192
0
VERTEX
8
OBJECT001
10
-768.000000
20
-120.854126
30
-28.423828
70
192
0
VERTEX
8
OBJECT001
10
-339.920776
20
-120.854126
30
-28.423828
70
192
0
VERTEX
8
OBJECT001
10
716.000000
20
-138.004150
30
-21.025146
70
192
0
VERTEX
8
OBJECT001
10
-340.334320
20
-120.855469
30
-28.424072
70
192
0
VERTEX
8
OBJECT001
10
-768.000000
20
-160.517700
30
-11.311768
70
192
0
VERTEX
8
OBJECT001
10
716.000000
20
-160.517700
30
-11.311768
70
192
0
VERTEX
8
OBJECT001
10
716.000000
20
-4.680786
30
-48.000000
70
192
0
VERTEX
8
OBJECT001
10
-768.000000
20
-4.680786
30
-48.000000
70
192
0
VERTEX
8
OBJECT001
10
716.000000
20
-180.649780
30
8.000000
70
192
0
VERTEX
8
OBJECT001
10
-768.000000
20
-182.219727
30
9.510010
70
192
0
VERTEX
8
OBJECT001
10
257.284790
20
-182.219727
30
9.510010
70
192
0
VERTEX
8
OBJECT001
10
716.000000
20
-6.219727
30
10.000000
70
192
0
VERTEX
8
OBJECT001
10
-768.000000
20
-6.219727
30
10.000000
70
192
0
VERTEX
8
OBJECT001
10
716.000000
20
-180.649780
30
9.514648
70
192
0
VERTEX
8
OBJECT001
10
257.427490
20
-182.219727
30
9.510254
70
192
0
VERTEX
8
OBJECT001
10
-339.524780
20
-120.853394
30
-28.424072
70
192
0
VERTEX
8
OBJECT001
10
0
20
0
30
0
70
128
71
2
72
3
73
-4
0
VERTEX
8
OBJECT001
10
0
20
0
30
0
70
128
71
-2
72
4
73
-5
0
VERTEX
8
OBJECT001
10
0
20
0
30
0
70
128
71
-2
72
5
73
1
0
VERTEX
8
OBJECT001
10
0
20
0
30
0
70
128
71
7
72
4
73
-8
0
VERTEX
8
OBJECT001
10
0
20
0
30
0
70
128
71
-7
72
8
73
-9
0
VERTEX
8
OBJECT001
10
0
20
0
30
0
70
128
71
-7
72
9
73
6
0
VERTEX
8
OBJECT001
10
0
20
0
30
0
70
128
71
11
72
3
73
-2
0
VERTEX
8
OBJECT001
10
0
20
0
30
0
70
128
71
-11
72
2
73
10
0
VERTEX
8
OBJECT001
10
0
20
0
30
0
70
128
71
9
72
8
73
-13
0
VERTEX
8
OBJECT001
10
0
20
0
30
0
70
128
71
-9
72
13
73
-14
0
VERTEX
8
OBJECT001
10
0
20
0
30
0
70
128
71
-9
72
14
73
12
0
VERTEX
8
OBJECT001
10
0
20
0
30
0
70
128
71
16
72
11
73
-10
0
VERTEX
8
OBJECT001
10
0
20
0
30
0
70
128
71
-16
72
10
73
15
0
VERTEX
8
OBJECT001
10
0
20
0
30
0
70
128
71
18
72
13
73
-16
0
VERTEX
8
OBJECT001
10
0
20
0
30
0
70
128
71
-18
72
16
73
-15
0
VERTEX
8
OBJECT001
10
0
20
0
30
0
70
128
71
-18
72
15
73
17
0
VERTEX
8
OBJECT001
10
0
20
0
30
0
70
128
71
19
72
6
73
1
0
VERTEX
8
OBJECT001
10
0
20
0
30
0
70
128
71
12
72
18
73
17
0
VERTEX
8
OBJECT001
10
0
20
0
30
0
70
128
71
8
72
4
73
-3
0
VERTEX
8
OBJECT001
10
0
20
0
30
0
70
128
71
-8
72
3
73
-11
0
VERTEX
8
OBJECT001
10
0
20
0
30
0
70
128
71
-8
72
11
73
-16
0
VERTEX
8
OBJECT001
10
0
20
0
30
0
70
128
71
-8
72
16
73
13
0
VERTEX
8
OBJECT001
10
0
20
0
30
0
70
128
71
15
72
10
73
-2
0
VERTEX
8
OBJECT001
10
0
20
0
30
0
70
128
71
-15
72
2
73
-1
0
VERTEX
8
OBJECT001
10
0
20
0
30
0
70
128
71
-15
72
1
73
-6
0
VERTEX
8
OBJECT001
10
0
20
0
30
0
70
128
71
-15
72
6
73
-9
0
VERTEX
8
OBJECT001
10
0
20
0
30
0
70
128
71
-15
72
9
73
-12
0
VERTEX
8
OBJECT001
10
0
20
0
30
0
70
128
71
-15
72
12
73
17
0
SEQEND
8
OBJECT001
0
POLYLINE
8
OBJECT002
66
1
70
64
71
14
72
24
62
50
0
VERTEX
8
OBJECT002
10
716.000000
20
110.348633
30
-27.802979
70
192
0
VERTEX
8
OBJECT002
10
-768.000000
20
110.348633
30
-27.802979
70
192
0
VERTEX
8
OBJECT002
10
-768.000000
20
58.515076
30
-40.838135
70
192
0
VERTEX
8
OBJECT002
10
716.000000
20
58.515076
30
-40.838135
70
192
0
VERTEX
8
OBJECT002
10
716.000000
20
149.226074
30
-10.408203
70
192
0
VERTEX
8
OBJECT002
10
-768.000000
20
149.226074
30
-10.408203
70
192
0
VERTEX
8
OBJECT002
10
-768.000000
20
-4.665771
30
-48.000000
70
192
0
VERTEX
8
OBJECT002
10
716.000000
20
-4.665771
30
-48.000000
70
192
0
VERTEX
8
OBJECT002
10
716.000000
20
167.996582
30
8.689209
70
192
0
VERTEX
8
OBJECT002
10
-768.000000
20
167.996582
30
8.689209
70
192
0
VERTEX
8
OBJECT002
10
-768.000000
20
-6.208801
30
10.010010
70
192
0
VERTEX
8
OBJECT002
10
716.000000
20
-6.208801
30
10.010010
70
192
0
VERTEX
8
OBJECT002
10
716.000000
20
162.681641
30
10.500244
70
192
0
VERTEX
8
OBJECT002
10
-768.000000
20
162.681641
30
10.500244
70
192
0
VERTEX
8
OBJECT002
10
0
20
0
30
0
70
128
71
2
72
3
73
-4
0
VERTEX
8
OBJECT002
10
0
20
0
30
0
70
128
71
-2
72
4
73
1
0
VERTEX
8
OBJECT002
10
0
20
0
30
0
70
128
71
6
72
2
73
-1
0
VERTEX
8
OBJECT002
10
0
20
0
30
0
70
128
71
-6
72
1
73
5
0
VERTEX
8
OBJECT002
10
0
20
0
30
0
70
128
71
3
72
7
73
-8
0
VERTEX
8
OBJECT002
10
0
20
0
30
0
70
128
71
-3
72
8
73
4
0
VERTEX
8
OBJECT002
10
0
20
0
30
0
70
128
71
10
72
6
73
-5
0
VERTEX
8
OBJECT002
10
0
20
0
30
0
70
128
71
-10
72
5
73
9
0
VERTEX
8
OBJECT002
10
0
20
0
30
0
70
128
71
12
72
8
73
-7
0
VERTEX
8
OBJECT002
10
0
20
0
30
0
70
128
71
-12
72
7
73
11
0
VERTEX
8
OBJECT002
10
0
20
0
30
0
70
128
71
12
72
11
73
-14
0
VERTEX
8
OBJECT002
10
0
20
0
30
0
70
128
71
-12
72
14
73
13
0
VERTEX
8
OBJECT002
10
0
20
0
30
0
70
128
71
11
72
7
73
-3
0
VERTEX
8
OBJECT002
10
0
20
0
30
0
70
128
71
-11
72
3
73
-2
0
VERTEX
8
OBJECT002
10
0
20
0
30
0
70
128
71
-11
72
2
73
-6
0
VERTEX
8
OBJECT002
10
0
20
0
30
0
70
128
71
-11
72
6
73
-10
0
VERTEX
8
OBJECT002
10
0
20
0
30
0
70
128
71
-11
72
10
73
14
0
VERTEX
8
OBJECT002
10
0
20
0
30
0
70
128
71
9
72
5
73
-1
0
VERTEX
8
OBJECT002
10
0
20
0
30
0
70
128
71
-9
72
1
73
-4
0
VERTEX
8
OBJECT002
10
0
20
0
30
0
70
128
71
-9
72
4
73
-8
0
VERTEX
8
OBJECT002
10
0
20
0
30
0
70
128
71
-9
72
8
73
-12
0
VERTEX
8
OBJECT002
10
0
20
0
30
0
70
128
71
-9
72
12
73
13
0
VERTEX
8
OBJECT002
10
0
20
0
30
0
70
128
71
14
72
10
73
-9
0
VERTEX
8
OBJECT002
10
0
20
0
30
0
70
128
71
-14
72
9
73
13
0
SEQEND
8
OBJECT002
0
POLYLINE
8
OBJECT003
66
1
70
64
71
8
72
12
62
50
0
VERTEX
8
OBJECT003
10
716.000000
20
-5.581726
30
67.780029
70
192
0
VERTEX
8
OBJECT003
10
716.000000
20
-7.731018
30
68.010010
70
192
0
VERTEX
8
OBJECT003
10
-768.000000
20
-7.731018
30
68.010010
70
192
0
VERTEX
8
OBJECT003
10
-768.000000
20
-5.581726
30
67.780029
70
192
0
VERTEX
8
OBJECT003
10
716.000000
20
-6.208740
30
10.000000
70
192
0
VERTEX
8
OBJECT003
10
-768.000000
20
-6.208740
30
10.000000
70
192
0
VERTEX
8
OBJECT003
10
716.000000
20
162.686523
30
10.500244
70
192
0
VERTEX
8
OBJECT003
10
-768.000000
20
162.686523
30
10.500244
70
192
0
VERTEX
8
OBJECT003
10
0
20
0
30
0
70
128
71
2
72
3
73
-4
0
VERTEX
8
OBJECT003
10
0
20
0
30
0
70
128
71
-2
72
4
73
1
0
VERTEX
8
OBJECT003
10
0
20
0
30
0
70
128
71
2
72
5
73
-6
0
VERTEX
8
OBJECT003
10
0
20
0
30
0
70
128
71
-2
72
6
73
3
0
VERTEX
8
OBJECT003
10
0
20
0
30
0
70
128
71
8
72
6
73
-5
0
VERTEX
8
OBJECT003
10
0
20
0
30
0
70
128
71
-8
72
5
73
7
0
VERTEX
8
OBJECT003
10
0
20
0
30
0
70
128
71
4
72
3
73
-6
0
VERTEX
8
OBJECT003
10
0
20
0
30
0
70
128
71
-4
72
6
73
8
0
VERTEX
8
OBJECT003
10
0
20
0
30
0
70
128
71
5
72
2
73
-1
0
VERTEX
8
OBJECT003
10
0
20
0
30
0
70
128
71
-5
72
1
73
7
0
VERTEX
8
OBJECT003
10
0
20
0
30
0
70
128
71
4
72
8
73
-7
0
VERTEX
8
OBJECT003
10
0
20
0
30
0
70
128
71
-4
72
7
73
1
0
SEQEND
8
OBJECT003
0
POLYLINE
8
OBJECT004
66
1
70
64
71
22
72
40
62
50
0
VERTEX
8
OBJECT004
10
796.000000
20
24.525879
30
19.669922
70
192
0
VERTEX
8
OBJECT004
10
796.000000
20
24.525879
30
10.067383
70
192
0
VERTEX
8
OBJECT004
10
796.000000
20
-6.207520
30
9.962158
70
192
0
VERTEX
8
OBJECT004
10
796.000000
20
-6.462463
30
19.669922
70
192
0
VERTEX
8
OBJECT004
10
716.000000
20
-5.559753
30
67.770264
70
192
0
VERTEX
8
OBJECT004
10
724.449463
20
-5.559753
30
67.770264
70
192
0
VERTEX
8
OBJECT004
10
723.935425
20
-7.731384
30
68.000000
70
192
0
VERTEX
8
OBJECT004
10
716.000000
20
-7.731384
30
68.000000
70
192
0
VERTEX
8
OBJECT004
10
774.924561
20
-7.133545
30
45.208496
70
192
0
VERTEX
8
OBJECT004
10
783.333496
20
-6.959290
30
38.572998
70
192
0
VERTEX
8
OBJECT004
10
716.000000
20
-6.206177
30
9.897217
70
192
0
VERTEX
8
OBJECT004
10
716.000000
20
162.814331
30
10.475830
70
192
0
VERTEX
8
OBJECT004
10
789.769409
20
64.732178
30
10.199951
70
192
0
VERTEX
8
OBJECT004
10
779.239258
20
96.458252
30
10.300049
70
192
0
VERTEX
8
OBJECT004
10
733.782593
20
162.780273
30
10.489990
70
192
0
VERTEX
8
OBJECT004
10
752.399780
20
135.610107
30
19.732910
70
192
0
VERTEX
8
OBJECT004
10
779.240234
20
96.455566
30
14.805420
70
192
0
VERTEX
8
OBJECT004
10
789.769287
20
64.732422
30
18.254883
70
192
0
VERTEX
8
OBJECT004
10
793.399170
20
41.309204
30
23.551270
70
192
0
VERTEX
8
OBJECT004
10
783.333618
20
15.942993
30
38.572998
70
192
0
VERTEX
8
OBJECT004
10
774.923218
20
12.730103
30
45.209473
70
192
0
VERTEX
8
OBJECT004
10
750.572144
20
28.752075
30
56.094482
70
192
0
VERTEX
8
OBJECT004
10
0
20
0
30
0
70
128
71
2
72
3
73
-4
0
VERTEX
8
OBJECT004
10
0
20
0
30
0
70
128
71
-2
72
4
73
1
0
VERTEX
8
OBJECT004
10
0
20
0
30
0
70
128
71
6
72
7
73
-8
0
VERTEX
8
OBJECT004
10
0
20
0
30
0
70
128
71
-6
72
8
73
5
0
VERTEX
8
OBJECT004
10
0
20
0
30
0
70
128
71
7
72
9
73
-10
0
VERTEX
8
OBJECT004
10
0
20
0
30
0
70
128
71
-7
72
10
73
-4
0
VERTEX
8
OBJECT004
10
0
20
0
30
0
70
128
71
-7
72
4
73
-3
0
VERTEX
8
OBJECT004
10
0
20
0
30
0
70
128
71
-7
72
3
73
-11
0
VERTEX
8
OBJECT004
10
0
20
0
30
0
70
128
71
-7
72
11
73
8
0
VERTEX
8
OBJECT004
10
0
20
0
30
0
70
128
71
11
72
3
73
-2
0
VERTEX
8
OBJECT004
10
0
20
0
30
0
70
128
71
-11
72
2
73
-13
0
VERTEX
8
OBJECT004
10
0
20
0
30
0
70
128
71
-11
72
13
73
-14
0
VERTEX
8
OBJECT004
10
0
20
0
30
0
70
128
71
-11
72
14
73
-15
0
VERTEX
8
OBJECT004
10
0
20
0
30
0
70
128
71
-11
72
15
73
12
0
VERTEX
8
OBJECT004
10
0
20
0
30
0
70
128
71
17
72
18
73
-19
0
VERTEX
8
OBJECT004
10
0
20
0
30
0
70
128
71
-17
72
19
73
-20
0
VERTEX
8
OBJECT004
10
0
20
0
30
0
70
128
71
-17
72
20
73
-21
0
VERTEX
8
OBJECT004
10
0
20
0
30
0
70
128
71
-17
72
21
73
-22
0
VERTEX
8
OBJECT004
10
0
20
0
30
0
70
128
71
-17
72
22
73
16
0
VERTEX
8
OBJECT004
10
0
20
0
30
0
70
128
71
7
72
6
73
-22
0
VERTEX
8
OBJECT004
10
0
20
0
30
0
70
128
71
-7
72
22
73
-21
0
VERTEX
8
OBJECT004
10
0
20
0
30
0
70
128
71
-7
72
21
73
9
0
VERTEX
8
OBJECT004
10
0
20
0
30
0
70
128
71
16
72
15
73
-14
0
VERTEX
8
OBJECT004
10
0
20
0
30
0
70
128
71
-16
72
14
73
17
0
VERTEX
8
OBJECT004
10
0
20
0
30
0
70
128
71
17
72
14
73
-13
0
VERTEX
8
OBJECT004
10
0
20
0
30
0
70
128
71
-17
72
13
73
18
0
VERTEX
8
OBJECT004
10
0
20
0
30
0
70
128
71
18
72
13
73
-2
0
VERTEX
8
OBJECT004
10
0
20
0
30
0
70
128
71
-18
72
2
73
-1
0
VERTEX
8
OBJECT004
10
0
20
0
30
0
70
128
71
-18
72
1
73
19
0
VERTEX
8
OBJECT004
10
0
20
0
30
0
70
128
71
9
72
21
73
-20
0
VERTEX
8
OBJECT004
10
0
20
0
30
0
70
128
71
-9
72
20
73
10
0
VERTEX
8
OBJECT004
10
0
20
0
30
0
70
128
71
20
72
19
73
-1
0
VERTEX
8
OBJECT004
10
0
20
0
30
0
70
128
71
-20
72
1
73
-4
0
VERTEX
8
OBJECT004
10
0
20
0
30
0
70
128
71
-20
72
4
73
10
0
VERTEX
8
OBJECT004
10
0
20
0
30
0
70
128
71
5
72
8
73
-11
0
VERTEX
8
OBJECT004
10
0
20
0
30
0
70
128
71
-5
72
11
73
12
0
VERTEX
8
OBJECT004
10
0
20
0
30
0
70
128
71
15
72
16
73
-22
0
VERTEX
8
OBJECT004
10
0
20
0
30
0
70
128
71
-15
72
22
73
-6
0
VERTEX
8
OBJECT004
10
0
20
0
30
0
70
128
71
-15
72
6
73
-5
0
VERTEX
8
OBJECT004
10
0
20
0
30
0
70
128
71
-15
72
5
73
12
0
SEQEND
8
OBJECT004
0
POLYLINE
8
OBJECT005
66
1
70
64
71
28
72
52
62
50
0
VERTEX
8
OBJECT005
10
796.000000
20
24.514526
30
10.100098
70
192
0
VERTEX
8
OBJECT005
10
796.000000
20
24.514526
30
0.339844
70
192
0
VERTEX
8
OBJECT005
10
796.000000
20
-5.951538
30
0.339844
70
192
0
VERTEX
8
OBJECT005
10
796.000000
20
-6.208496
30
10.000000
70
192
0
VERTEX
8
OBJECT005
10
716.000000
20
58.510498
30
-40.848877
70
192
0
VERTEX
8
OBJECT005
10
726.894287
20
58.510498
30
-40.848877
70
192
0
VERTEX
8
OBJECT005
10
720.799683
20
110.400391
30
-27.790039
70
192
0
VERTEX
8
OBJECT005
10
716.000000
20
110.400391
30
-27.790039
70
192
0
VERTEX
8
OBJECT005
10
728.000000
20
149.228882
30
-10.409424
70
192
0
VERTEX
8
OBJECT005
10
716.000000
20
149.228882
30
-10.409424
70
192
0
VERTEX
8
OBJECT005
10
716.000000
20
-4.665894
30
-48.000000
70
192
0
VERTEX
8
OBJECT005
10
721.868530
20
-4.665894
30
-48.000000
70
192
0
VERTEX
8
OBJECT005
10
733.290894
20
39.220093
30
-43.029785
70
192
0
VERTEX
8
OBJECT005
10
737.171631
20
157.838989
30
-1.646973
70
192
0
VERTEX
8
OBJECT005
10
730.200317
20
167.998779
30
8.690186
70
192
0
VERTEX
8
OBJECT005
10
716.000000
20
167.998779
30
8.690186
70
192
0
VERTEX
8
OBJECT005
10
716.000000
20
-6.208435
30
10.000000
70
192
0
VERTEX
8
OBJECT005
10
781.778687
20
-5.387878
30
-20.847168
70
192
0
VERTEX
8
OBJECT005
10
775.826782
20
-5.289734
30
-24.535889
70
192
0
VERTEX
8
OBJECT005
10
716.000000
20
162.551758
30
10.550049
70
192
0
VERTEX
8
OBJECT005
10
733.933105
20
162.551880
30
10.550049
70
192
0
VERTEX
8
OBJECT005
10
779.248291
20
96.448730
30
10.334473
70
192
0
VERTEX
8
OBJECT005
10
789.797119
20
64.676270
30
10.230957
70
192
0
VERTEX
8
OBJECT005
10
793.437012
20
41.109192
30
-3.478516
70
192
0
VERTEX
8
OBJECT005
10
789.803955
20
64.632324
30
1.878174
70
192
0
VERTEX
8
OBJECT005
10
779.236572
20
96.470337
30
5.470947
70
192
0
VERTEX
8
OBJECT005
10
775.820435
20
11.635803
30
-24.539795
70
192
0
VERTEX
8
OBJECT005
10
781.778687
20
11.134827
30
-20.847168
70
192
0
VERTEX
8
OBJECT005
10
0
20
0
30
0
70
128
71
2
72
3
73
-4
0
VERTEX
8
OBJECT005
10
0
20
0
30
0
70
128
71
-2
72
4
73
1
0
VERTEX
8
OBJECT005
10
0
20
0
30
0
70
128
71
6
72
7
73
-8
0
VERTEX
8
OBJECT005
10
0
20
0
30
0
70
128
71
-6
72
8
73
5
0
VERTEX
8
OBJECT005
10
0
20
0
30
0
70
128
71
7
72
9
73
-10
0
VERTEX
8
OBJECT005
10
0
20
0
30
0
70
128
71
-7
72
10
73
8
0
VERTEX
8
OBJECT005
10
0
20
0
30
0
70
128
71
12
72
13
73
-6
0
VERTEX
8
OBJECT005
10
0
20
0
30
0
70
128
71
-12
72
6
73
-5
0
VERTEX
8
OBJECT005
10
0
20
0
30
0
70
128
71
-12
72
5
73
11
0
VERTEX
8
OBJECT005
10
0
20
0
30
0
70
128
71
15
72
16
73
-10
0
VERTEX
8
OBJECT005
10
0
20
0
30
0
70
128
71
-15
72
10
73
-9
0
VERTEX
8
OBJECT005
10
0
20
0
30
0
70
128
71
-15
72
9
73
14
0
VERTEX
8
OBJECT005
10
0
20
0
30
0
70
128
71
4
72
3
73
-18
0
VERTEX
8
OBJECT005
10
0
20
0
30
0
70
128
71
-4
72
18
73
-19
0
VERTEX
8
OBJECT005
10
0
20
0
30
0
70
128
71
-4
72
19
73
-12
0
VERTEX
8
OBJECT005
10
0
20
0
30
0
70
128
71
-4
72
12
73
-11
0
VERTEX
8
OBJECT005
10
0
20
0
30
0
70
128
71
-4
72
11
73
17
0
VERTEX
8
OBJECT005
10
0
20
0
30
0
70
128
71
21
72
22
73
-23
0
VERTEX
8
OBJECT005
10
0
20
0
30
0
70
128
71
-21
72
23
73
-1
0
VERTEX
8
OBJECT005
10
0
20
0
30
0
70
128
71
-21
72
1
73
-4
0
VERTEX
8
OBJECT005
10
0
20
0
30
0
70
128
71
-21
72
4
73
-17
0
VERTEX
8
OBJECT005
10
0
20
0
30
0
70
128
71
-21
72
17
73
20
0
VERTEX
8
OBJECT005
10
0
20
0
30
0
70
128
71
25
72
26
73
-14
0
VERTEX
8
OBJECT005
10
0
20
0
30
0
70
128
71
-25
72
14
73
-9
0
VERTEX
8
OBJECT005
10
0
20
0
30
0
70
128
71
-25
72
9
73
-7
0
VERTEX
8
OBJECT005
10
0
20
0
30
0
70
128
71
-25
72
7
73
-6
0
VERTEX
8
OBJECT005
10
0
20
0
30
0
70
128
71
-25
72
6
73
-13
0
VERTEX
8
OBJECT005
10
0
20
0
30
0
70
128
71
-25
72
13
73
-27
0
VERTEX
8
OBJECT005
10
0
20
0
30
0
70
128
71
-25
72
27
73
-28
0
VERTEX
8
OBJECT005
10
0
20
0
30
0
70
128
71
-25
72
28
73
24
0
VERTEX
8
OBJECT005
10
0
20
0
30
0
70
128
71
27
72
13
73
-12
0
VERTEX
8
OBJECT005
10
0
20
0
30
0
70
128
71
-27
72
12
73
19
0
VERTEX
8
OBJECT005
10
0
20
0
30
0
70
128
71
21
72
15
73
-14
0
VERTEX
8
OBJECT005
10
0
20
0
30
0
70
128
71
-21
72
14
73
-26
0
VERTEX
8
OBJECT005
10
0
20
0
30
0
70
128
71
-21
72
26
73
22
0
VERTEX
8
OBJECT005
10
0
20
0
30
0
70
128
71
22
72
26
73
-25
0
VERTEX
8
OBJECT005
10
0
20
0
30
0
70
128
71
-22
72
25
73
23
0
VERTEX
8
OBJECT005
10
0
20
0
30
0
70
128
71
25
72
24
73
-2
0
VERTEX
8
OBJECT005
10
0
20
0
30
0
70
128
71
-25
72
2
73
-1
0
VERTEX
8
OBJECT005
10
0
20
0
30
0
70
128
71
-25
72
1
73
23
0
VERTEX
8
OBJECT005
10
0
20
0
30
0
70
128
71
18
72
28
73
-27
0
VERTEX
8
OBJECT005
10
0
20
0
30
0
70
128
71
-18
72
27
73
19
0
VERTEX
8
OBJECT005
10
0
20
0
30
0
70
128
71
28
72
18
73
-3
0
VERTEX
8
OBJECT005
10
0
20
0
30
0
70
128
71
-28
72
3
73
-2
0
VERTEX
8
OBJECT005
10
0
20
0
30
0
70
128
71
-28
72
2
73
24
0
VERTEX
8
OBJECT005
10
0
20
0
30
0
70
128
71
17
72
11
73
-5
0
VERTEX
8
OBJECT005
10
0
20
0
30
0
70
128
71
-17
72
5
73
-8
0
VERTEX
8
OBJECT005
10
0
20
0
30
0
70
128
71
-17
72
8
73
-10
0
VERTEX
8
OBJECT005
10
0
20
0
30
0
70
128
71
-17
72
10
73
-16
0
VERTEX
8
OBJECT005
10
0
20
0
30
0
70
128
71
-17
72
16
73
20
0
VERTEX
8
OBJECT005
10
0
20
0
30
0
70
128
71
15
72
21
73
-20
0
VERTEX
8
OBJECT005
10
0
20
0
30
0
70
128
71
-15
72
20
73
16
0
SEQEND
8
OBJECT005
0
POLYLINE
8
OBJECT006
66
1
70
64
71
26
72
48
62
50
0
VERTEX
8
OBJECT006
10
796.000000
20
-29.688843
30
0.340088
70
192
0
VERTEX
8
OBJECT006
10
796.000000
20
-29.688843
30
9.938965
70
192
0
VERTEX
8
OBJECT006
10
796.000000
20
-6.208923
30
10.000000
70
192
0
VERTEX
8
OBJECT006
10
796.000000
20
-5.951782
30
0.340088
70
192
0
VERTEX
8
OBJECT006
10
716.000000
20
-120.833130
30
-28.438721
70
192
0
VERTEX
8
OBJECT006
10
717.160156
20
-120.833130
30
-28.438721
70
192
0
VERTEX
8
OBJECT006
10
724.520752
20
-68.145935
30
-41.227539
70
192
0
VERTEX
8
OBJECT006
10
716.000000
20
-68.144836
30
-41.227783
70
192
0
VERTEX
8
OBJECT006
10
716.000000
20
-160.531494
30
-11.308594
70
192
0
VERTEX
8
OBJECT006
10
723.795044
20
-160.531494
30
-11.308594
70
192
0
VERTEX
8
OBJECT006
10
732.222046
20
-46.819763
30
-43.499023
70
192
0
VERTEX
8
OBJECT006
10
721.905762
20
-4.686768
30
-47.988770
70
192
0
VERTEX
8
OBJECT006
10
716.000000
20
-4.688416
30
-47.988770
70
192
0
VERTEX
8
OBJECT006
10
716.000000
20
-182.219727
30
9.500000
70
192
0
VERTEX
8
OBJECT006
10
718.765259
20
-182.219727
30
9.500000
70
192
0
VERTEX
8
OBJECT006
10
730.627075
20
-167.192871
30
-4.915771
70
192
0
VERTEX
8
OBJECT006
10
716.000000
20
-6.231262
30
10.000000
70
192
0
VERTEX
8
OBJECT006
10
775.805298
20
-5.295288
30
-24.542969
70
192
0
VERTEX
8
OBJECT006
10
781.786133
20
-5.392273
30
-20.834961
70
192
0
VERTEX
8
OBJECT006
10
787.349976
20
-84.419800
30
9.781738
70
192
0
VERTEX
8
OBJECT006
10
776.346436
20
-109.310547
30
9.710205
70
192
0
VERTEX
8
OBJECT006
10
776.347412
20
-109.308350
30
4.186523
70
192
0
VERTEX
8
OBJECT006
10
787.349976
20
-84.419800
30
2.775391
70
192
0
VERTEX
8
OBJECT006
10
792.536377
20
-51.603882
30
-4.819824
70
192
0
VERTEX
8
OBJECT006
10
781.786133
20
-23.001099
30
-20.834961
70
192
0
VERTEX
8
OBJECT006
10
775.810791
20
-22.914673
30
-24.539551
70
192
0
VERTEX
8
OBJECT006
10
0
20
0
30
0
70
128
71
2
72
3
73
-4
0
VERTEX
8
OBJECT006
10
0
20
0
30
0
70
128
71
-2
72
4
73
1
0
VERTEX
8
OBJECT006
10
0
20
0
30
0
70
128
71
6
72
7
73
-8
0
VERTEX
8
OBJECT006
10
0
20
0
30
0
70
128
71
-6
72
8
73
5
0
VERTEX
8
OBJECT006
10
0
20
0
30
0
70
128
71
10
72
6
73
-5
0
VERTEX
8
OBJECT006
10
0
20
0
30
0
70
128
71
-10
72
5
73
9
0
VERTEX
8
OBJECT006
10
0
20
0
30
0
70
128
71
7
72
11
73
-12
0
VERTEX
8
OBJECT006
10
0
20
0
30
0
70
128
71
-7
72
12
73
-13
0
VERTEX
8
OBJECT006
10
0
20
0
30
0
70
128
71
-7
72
13
73
8
0
VERTEX
8
OBJECT006
10
0
20
0
30
0
70
128
71
15
72
16
73
-10
0
VERTEX
8
OBJECT006
10
0
20
0
30
0
70
128
71
-15
72
10
73
-9
0
VERTEX
8
OBJECT006
10
0
20
0
30
0
70
128
71
-15
72
9
73
14
0
VERTEX
8
OBJECT006
10
0
20
0
30
0
70
128
71
13
72
12
73
-18
0
VERTEX
8
OBJECT006
10
0
20
0
30
0
70
128
71
-13
72
18
73
-19
0
VERTEX
8
OBJECT006
10
0
20
0
30
0
70
128
71
-13
72
19
73
-4
0
VERTEX
8
OBJECT006
10
0
20
0
30
0
70
128
71
-13
72
4
73
-3
0
VERTEX
8
OBJECT006
10
0
20
0
30
0
70
128
71
-13
72
3
73
17
0
VERTEX
8
OBJECT006
10
0
20
0
30
0
70
128
71
3
72
2
73
-20
0
VERTEX
8
OBJECT006
10
0
20
0
30
0
70
128
71
-3
72
20
73
-21
0
VERTEX
8
OBJECT006
10
0
20
0
30
0
70
128
71
-3
72
21
73
-15
0
VERTEX
8
OBJECT006
10
0
20
0
30
0
70
128
71
-3
72
15
73
-14
0
VERTEX
8
OBJECT006
10
0
20
0
30
0
70
128
71
-3
72
14
73
17
0
VERTEX
8
OBJECT006
10
0
20
0
30
0
70
128
71
16
72
22
73
-23
0
VERTEX
8
OBJECT006
10
0
20
0
30
0
70
128
71
-16
72
23
73
-24
0
VERTEX
8
OBJECT006
10
0
20
0
30
0
70
128
71
-16
72
24
73
-25
0
VERTEX
8
OBJECT006
10
0
20
0
30
0
70
128
71
-16
72
25
73
-26
0
VERTEX
8
OBJECT006
10
0
20
0
30
0
70
128
71
-16
72
26
73
-11
0
VERTEX
8
OBJECT006
10
0
20
0
30
0
70
128
71
-16
72
11
73
-7
0
VERTEX
8
OBJECT006
10
0
20
0
30
0
70
128
71
-16
72
7
73
-6
0
VERTEX
8
OBJECT006
10
0
20
0
30
0
70
128
71
-16
72
6
73
10
0
VERTEX
8
OBJECT006
10
0
20
0
30
0
70
128
71
12
72
11
73
-26
0
VERTEX
8
OBJECT006
10
0
20
0
30
0
70
128
71
-12
72
26
73
18
0
VERTEX
8
OBJECT006
10
0
20
0
30
0
70
128
71
22
72
16
73
-15
0
VERTEX
8
OBJECT006
10
0
20
0
30
0
70
128
71
-22
72
15
73
21
0
VERTEX
8
OBJECT006
10
0
20
0
30
0
70
128
71
20
72
23
73
-22
0
VERTEX
8
OBJECT006
10
0
20
0
30
0
70
128
71
-20
72
22
73
21
0
VERTEX
8
OBJECT006
10
0
20
0
30
0
70
128
71
23
72
20
73
-2
0
VERTEX
8
OBJECT006
10
0
20
0
30
0
70
128
71
-23
72
2
73
-1
0
VERTEX
8
OBJECT006
10
0
20
0
30
0
70
128
71
-23
72
1
73
24
0
VERTEX
8
OBJECT006
10
0
20
0
30
0
70
128
71
18
72
26
73
-25
0
VERTEX
8
OBJECT006
10
0
20
0
30
0
70
128
71
-18
72
25
73
19
0
VERTEX
8
OBJECT006
10
0
20
0
30
0
70
128
71
25
72
24
73
-1
0
VERTEX
8
OBJECT006
10
0
20
0
30
0
70
128
71
-25
72
1
73
-4
0
VERTEX
8
OBJECT006
10
0
20
0
30
0
70
128
71
-25
72
4
73
19
0
VERTEX
8
OBJECT006
10
0
20
0
30
0
70
128
71
9
72
5
73
-8
0
VERTEX
8
OBJECT006
10
0
20
0
30
0
70
128
71
-9
72
8
73
-13
0
VERTEX
8
OBJECT006
10
0
20
0
30
0
70
128
71
-9
72
13
73
-17
0
VERTEX
8
OBJECT006
10
0
20
0
30
0
70
128
71
-9
72
17
73
14
0
SEQEND
8
OBJECT006
0
POLYLINE
8
OBJECT007
66
1
70
64
71
26
72
48
62
50
0
VERTEX
8
OBJECT007
10
796.000000
20
-29.676819
30
9.939941
70
192
0
VERTEX
8
OBJECT007
10
796.000000
20
-29.676819
30
19.669922
70
192
0
VERTEX
8
OBJECT007
10
796.000000
20
-6.462646
30
19.669922
70
192
0
VERTEX
8
OBJECT007
10
796.000000
20
-6.208679
30
10.000000
70
192
0
VERTEX
8
OBJECT007
10
716.000000
20
-70.829834
30
60.882080
70
192
0
VERTEX
8
OBJECT007
10
728.656616
20
-70.829834
30
60.882080
70
192
0
VERTEX
8
OBJECT007
10
722.548462
20
-122.805542
30
47.805908
70
192
0
VERTEX
8
OBJECT007
10
716.000000
20
-122.805542
30
47.805908
70
192
0
VERTEX
8
OBJECT007
10
729.413818
20
-161.657593
30
30.421631
70
192
0
VERTEX
8
OBJECT007
10
716.000000
20
-161.657593
30
30.421631
70
192
0
VERTEX
8
OBJECT007
10
716.000000
20
-7.732056
30
68.000000
70
192
0
VERTEX
8
OBJECT007
10
723.948120
20
-7.732056
30
68.000000
70
192
0
VERTEX
8
OBJECT007
10
734.978882
20
-51.433838
30
63.070557
70
192
0
VERTEX
8
OBJECT007
10
732.580078
20
-164.729614
30
27.300781
70
192
0
VERTEX
8
OBJECT007
10
718.806885
20
-182.201050
30
9.549316
70
192
0
VERTEX
8
OBJECT007
10
716.000000
20
-182.201050
30
9.549316
70
192
0
VERTEX
8
OBJECT007
10
783.300049
20
-6.959961
30
38.600098
70
192
0
VERTEX
8
OBJECT007
10
774.911255
20
-7.133789
30
45.218994
70
192
0
VERTEX
8
OBJECT007
10
716.000000
20
-6.208801
30
10.000000
70
192
0
VERTEX
8
OBJECT007
10
776.326538
20
-109.357666
30
9.735596
70
192
0
VERTEX
8
OBJECT007
10
787.323242
20
-84.494873
30
9.799072
70
192
0
VERTEX
8
OBJECT007
10
783.300171
20
-28.096619
30
38.599854
70
192
0
VERTEX
8
OBJECT007
10
792.577515
20
-51.299438
30
24.771484
70
192
0
VERTEX
8
OBJECT007
10
787.322510
20
-84.499390
30
17.319824
70
192
0
VERTEX
8
OBJECT007
10
776.340088
20
-109.329590
30
16.441406
70
192
0
VERTEX
8
OBJECT007
10
774.910156
20
-24.959534
30
45.219727
70
192
0
VERTEX
8
OBJECT007
10
0
20
0
30
0
70
128
71
2
72
3
73
-4
0
VERTEX
8
OBJECT007
10
0
20
0
30
0
70
128
71
-2
72
4
73
1
0
VERTEX
8
OBJECT007
10
0
20
0
30
0
70
128
71
6
72
7
73
-8
0
VERTEX
8
OBJECT007
10
0
20
0
30
0
70
128
71
-6
72
8
73
5
0
VERTEX
8
OBJECT007
10
0
20
0
30
0
70
128
71
7
72
9
73
-10
0
VERTEX
8
OBJECT007
10
0
20
0
30
0
70
128
71
-7
72
10
73
8
0
VERTEX
8
OBJECT007
10
0
20
0
30
0
70
128
71
12
72
13
73
-6
0
VERTEX
8
OBJECT007
10
0
20
0
30
0
70
128
71
-12
72
6
73
-5
0
VERTEX
8
OBJECT007
10
0
20
0
30
0
70
128
71
-12
72
5
73
11
0
VERTEX
8
OBJECT007
10
0
20
0
30
0
70
128
71
9
72
14
73
-15
0
VERTEX
8
OBJECT007
10
0
20
0
30
0
70
128
71
-9
72
15
73
-16
0
VERTEX
8
OBJECT007
10
0
20
0
30
0
70
128
71
-9
72
16
73
10
0
VERTEX
8
OBJECT007
10
0
20
0
30
0
70
128
71
18
72
12
73
-11
0
VERTEX
8
OBJECT007
10
0
20
0
30
0
70
128
71
-18
72
11
73
-19
0
VERTEX
8
OBJECT007
10
0
20
0
30
0
70
128
71
-18
72
19
73
-4
0
VERTEX
8
OBJECT007
10
0
20
0
30
0
70
128
71
-18
72
4
73
-3
0
VERTEX
8
OBJECT007
10
0
20
0
30
0
70
128
71
-18
72
3
73
17
0
VERTEX
8
OBJECT007
10
0
20
0
30
0
70
128
71
15
72
20
73
-21
0
VERTEX
8
OBJECT007
10
0
20
0
30
0
70
128
71
-15
72
21
73
-1
0
VERTEX
8
OBJECT007
10
0
20
0
30
0
70
128
71
-15
72
1
73
-4
0
VERTEX
8
OBJECT007
10
0
20
0
30
0
70
128
71
-15
72
4
73
-19
0
VERTEX
8
OBJECT007
10
0
20
0
30
0
70
128
71
-15
72
19
73
16
0
VERTEX
8
OBJECT007
10
0
20
0
30
0
70
128
71
23
72
24
73
-25
0
VERTEX
8
OBJECT007
10
0
20
0
30
0
70
128
71
-23
72
25
73
-14
0
VERTEX
8
OBJECT007
10
0
20
0
30
0
70
128
71
-23
72
14
73
-9
0
VERTEX
8
OBJECT007
10
0
20
0
30
0
70
128
71
-23
72
9
73
-7
0
VERTEX
8
OBJECT007
10
0
20
0
30
0
70
128
71
-23
72
7
73
-6
0
VERTEX
8
OBJECT007
10
0
20
0
30
0
70
128
71
-23
72
6
73
-13
0
VERTEX
8
OBJECT007
10
0
20
0
30
0
70
128
71
-23
72
13
73
-26
0
VERTEX
8
OBJECT007
10
0
20
0
30
0
70
128
71
-23
72
26
73
22
0
VERTEX
8
OBJECT007
10
0
20
0
30
0
70
128
71
26
72
13
73
-12
0
VERTEX
8
OBJECT007
10
0
20
0
30
0
70
128
71
-26
72
12
73
18
0
VERTEX
8
OBJECT007
10
0
20
0
30
0
70
128
71
15
72
14
73
-25
0
VERTEX
8
OBJECT007
10
0
20
0
30
0
70
128
71
-15
72
25
73
20
0
VERTEX
8
OBJECT007
10
0
20
0
30
0
70
128
71
20
72
25
73
-24
0
VERTEX
8
OBJECT007
10
0
20
0
30
0
70
128
71
-20
72
24
73
21
0
VERTEX
8
OBJECT007
10
0
20
0
30
0
70
128
71
24
72
23
73
-2
0
VERTEX
8
OBJECT007
10
0
20
0
30
0
70
128
71
-24
72
2
73
-1
0
VERTEX
8
OBJECT007
10
0
20
0
30
0
70
128
71
-24
72
1
73
21
0
VERTEX
8
OBJECT007
10
0
20
0
30
0
70
128
71
17
72
22
73
-26
0
VERTEX
8
OBJECT007
10
0
20
0
30
0
70
128
71
-17
72
26
73
18
0
VERTEX
8
OBJECT007
10
0
20
0
30
0
70
128
71
22
72
17
73
-3
0
VERTEX
8
OBJECT007
10
0
20
0
30
0
70
128
71
-22
72
3
73
-2
0
VERTEX
8
OBJECT007
10
0
20
0
30
0
70
128
71
-22
72
2
73
23
0
VERTEX
8
OBJECT007
10
0
20
0
30
0
70
128
71
11
72
5
73
-8
0
VERTEX
8
OBJECT007
10
0
20
0
30
0
70
128
71
-11
72
8
73
-10
0
VERTEX
8
OBJECT007
10
0
20
0
30
0
70
128
71
-11
72
10
73
-16
0
VERTEX
8
OBJECT007
10
0
20
0
30
0
70
128
71
-11
72
16
73
19
0
SEQEND
8
OBJECT007
0
ENDSEC
0
EOF
