0
SECTION
2
HEADER
9
$ACADVER
1
AC1008
9
$UCSORG
10
0.0
20
0.0
30
0.0
9
$UCSXDIR
10
1.0
20
0.0
30
0.0
9
$TILEMODE
70
1
9
$UCSYDIR
10
0.0
20
1.0
30
0.0
9
$EXTMIN
10
-1184.000000
20
-2304.000000
30
-288.000000
9
$EXTMAX
10
2456.000000
20
784.000000
30
768.000000
0
ENDSEC
0
SECTION
2
TABLES
0
TABLE
2
LTYPE
70
1
0
LTYPE
2
CONTINUOUS
70
64
3
Solid line
72
65
73
0
40
0.0
0
ENDTAB
0
TABLE
2
LAYER
70
1
0
LAYER
2
0
70
0
62
7
6
CONTINUOUS
0
ENDTAB
0
TABLE
2
STYLE
70
1
0
STYLE
2
STANDARD
70
0
40
0.0
41
1.0
50
0.0
71
0
42
0.2
3
txt
4

0
ENDTAB
0
TABLE
2
UCS
70
0
0
ENDTAB
0
ENDSEC
0
SECTION
2
ENTITIES
0
POLYLINE
8
OBJECT000
66
1
70
64
71
8
72
12
62
50
0
VERTEX
8
OBJECT000
10
-512.000000
20
-256.000000
30
4.571415
70
192
0
VERTEX
8
OBJECT000
10
-512.000000
20
0.000000
30
4.571415
70
192
0
VERTEX
8
OBJECT000
10
-256.000000
20
0.000000
30
4.571415
70
192
0
VERTEX
8
OBJECT000
10
-256.000000
20
-256.000000
30
4.571415
70
192
0
VERTEX
8
OBJECT000
10
-512.000000
20
0.000000
30
-32.000015
70
192
0
VERTEX
8
OBJECT000
10
-512.000000
20
-256.000000
30
-32.000015
70
192
0
VERTEX
8
OBJECT000
10
-256.000000
20
-256.000000
30
-32.000015
70
192
0
VERTEX
8
OBJECT000
10
-256.000000
20
0.000000
30
-32.000015
70
192
0
VERTEX
8
OBJECT000
10
0
20
0
30
0
70
128
71
2
72
3
73
-4
0
VERTEX
8
OBJECT000
10
0
20
0
30
0
70
128
71
-2
72
4
73
1
0
VERTEX
8
OBJECT000
10
0
20
0
30
0
70
128
71
6
72
7
73
-8
0
VERTEX
8
OBJECT000
10
0
20
0
30
0
70
128
71
-6
72
8
73
5
0
VERTEX
8
OBJECT000
10
0
20
0
30
0
70
128
71
5
72
2
73
-1
0
VERTEX
8
OBJECT000
10
0
20
0
30
0
70
128
71
-5
72
1
73
6
0
VERTEX
8
OBJECT000
10
0
20
0
30
0
70
128
71
7
72
4
73
-3
0
VERTEX
8
OBJECT000
10
0
20
0
30
0
70
128
71
-7
72
3
73
8
0
VERTEX
8
OBJECT000
10
0
20
0
30
0
70
128
71
8
72
3
73
-2
0
VERTEX
8
OBJECT000
10
0
20
0
30
0
70
128
71
-8
72
2
73
5
0
VERTEX
8
OBJECT000
10
0
20
0
30
0
70
128
71
6
72
1
73
-4
0
VERTEX
8
OBJECT000
10
0
20
0
30
0
70
128
71
-6
72
4
73
7
0
SEQEND
8
OBJECT000
0
POLYLINE
8
OBJECT001
66
1
70
64
71
8
72
12
62
50
0
VERTEX
8
OBJECT001
10
256.000000
20
-256.000000
30
266.666656
70
192
0
VERTEX
8
OBJECT001
10
256.000000
20
256.000000
30
266.666656
70
192
0
VERTEX
8
OBJECT001
10
768.000000
20
256.000000
30
266.666656
70
192
0
VERTEX
8
OBJECT001
10
768.000000
20
-256.000000
30
266.666656
70
192
0
VERTEX
8
OBJECT001
10
256.000000
20
256.000000
30
223.999969
70
192
0
VERTEX
8
OBJECT001
10
256.000000
20
-256.000000
30
223.999969
70
192
0
VERTEX
8
OBJECT001
10
768.000000
20
-256.000000
30
223.999969
70
192
0
VERTEX
8
OBJECT001
10
768.000000
20
256.000000
30
223.999969
70
192
0
VERTEX
8
OBJECT001
10
0
20
0
30
0
70
128
71
2
72
3
73
-4
0
VERTEX
8
OBJECT001
10
0
20
0
30
0
70
128
71
-2
72
4
73
1
0
VERTEX
8
OBJECT001
10
0
20
0
30
0
70
128
71
6
72
7
73
-8
0
VERTEX
8
OBJECT001
10
0
20
0
30
0
70
128
71
-6
72
8
73
5
0
VERTEX
8
OBJECT001
10
0
20
0
30
0
70
128
71
5
72
2
73
-1
0
VERTEX
8
OBJECT001
10
0
20
0
30
0
70
128
71
-5
72
1
73
6
0
VERTEX
8
OBJECT001
10
0
20
0
30
0
70
128
71
7
72
4
73
-3
0
VERTEX
8
OBJECT001
10
0
20
0
30
0
70
128
71
-7
72
3
73
8
0
VERTEX
8
OBJECT001
10
0
20
0
30
0
70
128
71
8
72
3
73
-2
0
VERTEX
8
OBJECT001
10
0
20
0
30
0
70
128
71
-8
72
2
73
5
0
VERTEX
8
OBJECT001
10
0
20
0
30
0
70
128
71
6
72
1
73
-4
0
VERTEX
8
OBJECT001
10
0
20
0
30
0
70
128
71
-6
72
4
73
7
0
SEQEND
8
OBJECT001
0
POLYLINE
8
OBJECT002
66
1
70
64
71
8
72
12
62
50
0
VERTEX
8
OBJECT002
10
1280.000000
20
-256.000000
30
544.000000
70
192
0
VERTEX
8
OBJECT002
10
1280.000000
20
512.000000
30
544.000000
70
192
0
VERTEX
8
OBJECT002
10
2048.000000
20
512.000000
30
544.000000
70
192
0
VERTEX
8
OBJECT002
10
2048.000000
20
-256.000000
30
544.000000
70
192
0
VERTEX
8
OBJECT002
10
1280.000000
20
512.000000
30
512.000000
70
192
0
VERTEX
8
OBJECT002
10
1280.000000
20
-256.000000
30
512.000000
70
192
0
VERTEX
8
OBJECT002
10
2048.000000
20
-256.000000
30
512.000000
70
192
0
VERTEX
8
OBJECT002
10
2048.000000
20
512.000000
30
512.000000
70
192
0
VERTEX
8
OBJECT002
10
0
20
0
30
0
70
128
71
2
72
3
73
-4
0
VERTEX
8
OBJECT002
10
0
20
0
30
0
70
128
71
-2
72
4
73
1
0
VERTEX
8
OBJECT002
10
0
20
0
30
0
70
128
71
6
72
7
73
-8
0
VERTEX
8
OBJECT002
10
0
20
0
30
0
70
128
71
-6
72
8
73
5
0
VERTEX
8
OBJECT002
10
0
20
0
30
0
70
128
71
5
72
2
73
-1
0
VERTEX
8
OBJECT002
10
0
20
0
30
0
70
128
71
-5
72
1
73
6
0
VERTEX
8
OBJECT002
10
0
20
0
30
0
70
128
71
7
72
4
73
-3
0
VERTEX
8
OBJECT002
10
0
20
0
30
0
70
128
71
-7
72
3
73
8
0
VERTEX
8
OBJECT002
10
0
20
0
30
0
70
128
71
8
72
3
73
-2
0
VERTEX
8
OBJECT002
10
0
20
0
30
0
70
128
71
-8
72
2
73
5
0
VERTEX
8
OBJECT002
10
0
20
0
30
0
70
128
71
6
72
1
73
-4
0
VERTEX
8
OBJECT002
10
0
20
0
30
0
70
128
71
-6
72
4
73
7
0
SEQEND
8
OBJECT002
0
POLYLINE
8
OBJECT003
66
1
70
64
71
8
72
12
62
50
0
VERTEX
8
OBJECT003
10
-1184.000000
20
-256.000000
30
-251.428589
70
192
0
VERTEX
8
OBJECT003
10
-1184.000000
20
0.000000
30
-251.428589
70
192
0
VERTEX
8
OBJECT003
10
-1024.000000
20
0.000000
30
-251.428589
70
192
0
VERTEX
8
OBJECT003
10
-1024.000000
20
-256.000000
30
-251.428589
70
192
0
VERTEX
8
OBJECT003
10
-1184.000000
20
0.000000
30
-288.000000
70
192
0
VERTEX
8
OBJECT003
10
-1184.000000
20
-256.000000
30
-288.000000
70
192
0
VERTEX
8
OBJECT003
10
-1024.000000
20
-256.000000
30
-288.000000
70
192
0
VERTEX
8
OBJECT003
10
-1024.000000
20
0.000000
30
-288.000000
70
192
0
VERTEX
8
OBJECT003
10
0
20
0
30
0
70
128
71
2
72
3
73
-4
0
VERTEX
8
OBJECT003
10
0
20
0
30
0
70
128
71
-2
72
4
73
1
0
VERTEX
8
OBJECT003
10
0
20
0
30
0
70
128
71
6
72
7
73
-8
0
VERTEX
8
OBJECT003
10
0
20
0
30
0
70
128
71
-6
72
8
73
5
0
VERTEX
8
OBJECT003
10
0
20
0
30
0
70
128
71
5
72
2
73
-1
0
VERTEX
8
OBJECT003
10
0
20
0
30
0
70
128
71
-5
72
1
73
6
0
VERTEX
8
OBJECT003
10
0
20
0
30
0
70
128
71
7
72
4
73
-3
0
VERTEX
8
OBJECT003
10
0
20
0
30
0
70
128
71
-7
72
3
73
8
0
VERTEX
8
OBJECT003
10
0
20
0
30
0
70
128
71
8
72
3
73
-2
0
VERTEX
8
OBJECT003
10
0
20
0
30
0
70
128
71
-8
72
2
73
5
0
VERTEX
8
OBJECT003
10
0
20
0
30
0
70
128
71
6
72
1
73
-4
0
VERTEX
8
OBJECT003
10
0
20
0
30
0
70
128
71
-6
72
4
73
7
0
SEQEND
8
OBJECT003
0
POLYLINE
8
OBJECT004
66
1
70
64
71
8
72
12
62
50
0
VERTEX
8
OBJECT004
10
256.000000
20
-1280.000000
30
266.666656
70
192
0
VERTEX
8
OBJECT004
10
256.000000
20
-768.000000
30
266.666656
70
192
0
VERTEX
8
OBJECT004
10
768.000000
20
-768.000000
30
266.666656
70
192
0
VERTEX
8
OBJECT004
10
768.000000
20
-1280.000000
30
266.666656
70
192
0
VERTEX
8
OBJECT004
10
256.000000
20
-768.000000
30
223.999969
70
192
0
VERTEX
8
OBJECT004
10
256.000000
20
-1280.000000
30
223.999969
70
192
0
VERTEX
8
OBJECT004
10
768.000000
20
-1280.000000
30
223.999969
70
192
0
VERTEX
8
OBJECT004
10
768.000000
20
-768.000000
30
223.999969
70
192
0
VERTEX
8
OBJECT004
10
0
20
0
30
0
70
128
71
2
72
3
73
-4
0
VERTEX
8
OBJECT004
10
0
20
0
30
0
70
128
71
-2
72
4
73
1
0
VERTEX
8
OBJECT004
10
0
20
0
30
0
70
128
71
6
72
7
73
-8
0
VERTEX
8
OBJECT004
10
0
20
0
30
0
70
128
71
-6
72
8
73
5
0
VERTEX
8
OBJECT004
10
0
20
0
30
0
70
128
71
5
72
2
73
-1
0
VERTEX
8
OBJECT004
10
0
20
0
30
0
70
128
71
-5
72
1
73
6
0
VERTEX
8
OBJECT004
10
0
20
0
30
0
70
128
71
7
72
4
73
-3
0
VERTEX
8
OBJECT004
10
0
20
0
30
0
70
128
71
-7
72
3
73
8
0
VERTEX
8
OBJECT004
10
0
20
0
30
0
70
128
71
8
72
3
73
-2
0
VERTEX
8
OBJECT004
10
0
20
0
30
0
70
128
71
-8
72
2
73
5
0
VERTEX
8
OBJECT004
10
0
20
0
30
0
70
128
71
6
72
1
73
-4
0
VERTEX
8
OBJECT004
10
0
20
0
30
0
70
128
71
-6
72
4
73
7
0
SEQEND
8
OBJECT004
0
POLYLINE
8
OBJECT005
66
1
70
64
71
8
72
12
62
50
0
VERTEX
8
OBJECT005
10
256.000000
20
-2304.000000
30
266.666656
70
192
0
VERTEX
8
OBJECT005
10
256.000000
20
-1792.000000
30
266.666656
70
192
0
VERTEX
8
OBJECT005
10
768.000000
20
-1792.000000
30
266.666656
70
192
0
VERTEX
8
OBJECT005
10
768.000000
20
-2304.000000
30
266.666656
70
192
0
VERTEX
8
OBJECT005
10
256.000000
20
-1792.000000
30
223.999969
70
192
0
VERTEX
8
OBJECT005
10
256.000000
20
-2304.000000
30
223.999969
70
192
0
VERTEX
8
OBJECT005
10
768.000000
20
-2304.000000
30
223.999969
70
192
0
VERTEX
8
OBJECT005
10
768.000000
20
-1792.000000
30
223.999969
70
192
0
VERTEX
8
OBJECT005
10
0
20
0
30
0
70
128
71
2
72
3
73
-4
0
VERTEX
8
OBJECT005
10
0
20
0
30
0
70
128
71
-2
72
4
73
1
0
VERTEX
8
OBJECT005
10
0
20
0
30
0
70
128
71
6
72
7
73
-8
0
VERTEX
8
OBJECT005
10
0
20
0
30
0
70
128
71
-6
72
8
73
5
0
VERTEX
8
OBJECT005
10
0
20
0
30
0
70
128
71
5
72
2
73
-1
0
VERTEX
8
OBJECT005
10
0
20
0
30
0
70
128
71
-5
72
1
73
6
0
VERTEX
8
OBJECT005
10
0
20
0
30
0
70
128
71
7
72
4
73
-3
0
VERTEX
8
OBJECT005
10
0
20
0
30
0
70
128
71
-7
72
3
73
8
0
VERTEX
8
OBJECT005
10
0
20
0
30
0
70
128
71
8
72
3
73
-2
0
VERTEX
8
OBJECT005
10
0
20
0
30
0
70
128
71
-8
72
2
73
5
0
VERTEX
8
OBJECT005
10
0
20
0
30
0
70
128
71
6
72
1
73
-4
0
VERTEX
8
OBJECT005
10
0
20
0
30
0
70
128
71
-6
72
4
73
7
0
SEQEND
8
OBJECT005
0
POLYLINE
8
OBJECT006
66
1
70
64
71
8
72
12
62
50
0
VERTEX
8
OBJECT006
10
256.000000
20
-256.000000
30
479.999969
70
192
0
VERTEX
8
OBJECT006
10
256.000000
20
256.000000
30
479.999969
70
192
0
VERTEX
8
OBJECT006
10
768.000000
20
256.000000
30
479.999969
70
192
0
VERTEX
8
OBJECT006
10
768.000000
20
-256.000000
30
479.999969
70
192
0
VERTEX
8
OBJECT006
10
256.000000
20
256.000000
30
437.333313
70
192
0
VERTEX
8
OBJECT006
10
256.000000
20
-256.000000
30
437.333313
70
192
0
VERTEX
8
OBJECT006
10
768.000000
20
-256.000000
30
437.333313
70
192
0
VERTEX
8
OBJECT006
10
768.000000
20
256.000000
30
437.333313
70
192
0
VERTEX
8
OBJECT006
10
0
20
0
30
0
70
128
71
2
72
3
73
-4
0
VERTEX
8
OBJECT006
10
0
20
0
30
0
70
128
71
-2
72
4
73
1
0
VERTEX
8
OBJECT006
10
0
20
0
30
0
70
128
71
6
72
7
73
-8
0
VERTEX
8
OBJECT006
10
0
20
0
30
0
70
128
71
-6
72
8
73
5
0
VERTEX
8
OBJECT006
10
0
20
0
30
0
70
128
71
5
72
2
73
-1
0
VERTEX
8
OBJECT006
10
0
20
0
30
0
70
128
71
-5
72
1
73
6
0
VERTEX
8
OBJECT006
10
0
20
0
30
0
70
128
71
7
72
4
73
-3
0
VERTEX
8
OBJECT006
10
0
20
0
30
0
70
128
71
-7
72
3
73
8
0
VERTEX
8
OBJECT006
10
0
20
0
30
0
70
128
71
8
72
3
73
-2
0
VERTEX
8
OBJECT006
10
0
20
0
30
0
70
128
71
-8
72
2
73
5
0
VERTEX
8
OBJECT006
10
0
20
0
30
0
70
128
71
6
72
1
73
-4
0
VERTEX
8
OBJECT006
10
0
20
0
30
0
70
128
71
-6
72
4
73
7
0
SEQEND
8
OBJECT006
0
POLYLINE
8
OBJECT007
66
1
70
64
71
8
72
12
62
50
0
VERTEX
8
OBJECT007
10
256.000000
20
-1280.000000
30
479.999969
70
192
0
VERTEX
8
OBJECT007
10
256.000000
20
-768.000000
30
479.999969
70
192
0
VERTEX
8
OBJECT007
10
768.000000
20
-768.000000
30
479.999969
70
192
0
VERTEX
8
OBJECT007
10
768.000000
20
-1280.000000
30
479.999969
70
192
0
VERTEX
8
OBJECT007
10
256.000000
20
-768.000000
30
437.333313
70
192
0
VERTEX
8
OBJECT007
10
256.000000
20
-1280.000000
30
437.333313
70
192
0
VERTEX
8
OBJECT007
10
768.000000
20
-1280.000000
30
437.333313
70
192
0
VERTEX
8
OBJECT007
10
768.000000
20
-768.000000
30
437.333313
70
192
0
VERTEX
8
OBJECT007
10
0
20
0
30
0
70
128
71
2
72
3
73
-4
0
VERTEX
8
OBJECT007
10
0
20
0
30
0
70
128
71
-2
72
4
73
1
0
VERTEX
8
OBJECT007
10
0
20
0
30
0
70
128
71
6
72
7
73
-8
0
VERTEX
8
OBJECT007
10
0
20
0
30
0
70
128
71
-6
72
8
73
5
0
VERTEX
8
OBJECT007
10
0
20
0
30
0
70
128
71
5
72
2
73
-1
0
VERTEX
8
OBJECT007
10
0
20
0
30
0
70
128
71
-5
72
1
73
6
0
VERTEX
8
OBJECT007
10
0
20
0
30
0
70
128
71
7
72
4
73
-3
0
VERTEX
8
OBJECT007
10
0
20
0
30
0
70
128
71
-7
72
3
73
8
0
VERTEX
8
OBJECT007
10
0
20
0
30
0
70
128
71
8
72
3
73
-2
0
VERTEX
8
OBJECT007
10
0
20
0
30
0
70
128
71
-8
72
2
73
5
0
VERTEX
8
OBJECT007
10
0
20
0
30
0
70
128
71
6
72
1
73
-4
0
VERTEX
8
OBJECT007
10
0
20
0
30
0
70
128
71
-6
72
4
73
7
0
SEQEND
8
OBJECT007
0
POLYLINE
8
OBJECT008
66
1
70
64
71
8
72
12
62
50
0
VERTEX
8
OBJECT008
10
256.000000
20
-2304.000000
30
479.999969
70
192
0
VERTEX
8
OBJECT008
10
256.000000
20
-1792.000000
30
479.999969
70
192
0
VERTEX
8
OBJECT008
10
768.000000
20
-1792.000000
30
479.999969
70
192
0
VERTEX
8
OBJECT008
10
768.000000
20
-2304.000000
30
479.999969
70
192
0
VERTEX
8
OBJECT008
10
256.000000
20
-1792.000000
30
437.333313
70
192
0
VERTEX
8
OBJECT008
10
256.000000
20
-2304.000000
30
437.333313
70
192
0
VERTEX
8
OBJECT008
10
768.000000
20
-2304.000000
30
437.333313
70
192
0
VERTEX
8
OBJECT008
10
768.000000
20
-1792.000000
30
437.333313
70
192
0
VERTEX
8
OBJECT008
10
0
20
0
30
0
70
128
71
2
72
3
73
-4
0
VERTEX
8
OBJECT008
10
0
20
0
30
0
70
128
71
-2
72
4
73
1
0
VERTEX
8
OBJECT008
10
0
20
0
30
0
70
128
71
6
72
7
73
-8
0
VERTEX
8
OBJECT008
10
0
20
0
30
0
70
128
71
-6
72
8
73
5
0
VERTEX
8
OBJECT008
10
0
20
0
30
0
70
128
71
5
72
2
73
-1
0
VERTEX
8
OBJECT008
10
0
20
0
30
0
70
128
71
-5
72
1
73
6
0
VERTEX
8
OBJECT008
10
0
20
0
30
0
70
128
71
7
72
4
73
-3
0
VERTEX
8
OBJECT008
10
0
20
0
30
0
70
128
71
-7
72
3
73
8
0
VERTEX
8
OBJECT008
10
0
20
0
30
0
70
128
71
8
72
3
73
-2
0
VERTEX
8
OBJECT008
10
0
20
0
30
0
70
128
71
-8
72
2
73
5
0
VERTEX
8
OBJECT008
10
0
20
0
30
0
70
128
71
6
72
1
73
-4
0
VERTEX
8
OBJECT008
10
0
20
0
30
0
70
128
71
-6
72
4
73
7
0
SEQEND
8
OBJECT008
0
POLYLINE
8
OBJECT009
66
1
70
64
71
8
72
12
62
50
0
VERTEX
8
OBJECT009
10
256.000000
20
320.000000
30
479.999969
70
192
0
VERTEX
8
OBJECT009
10
256.000000
20
352.000000
30
479.999969
70
192
0
VERTEX
8
OBJECT009
10
768.000000
20
352.000000
30
479.999969
70
192
0
VERTEX
8
OBJECT009
10
768.000000
20
320.000000
30
479.999969
70
192
0
VERTEX
8
OBJECT009
10
256.000000
20
352.000000
30
223.999969
70
192
0
VERTEX
8
OBJECT009
10
256.000000
20
320.000000
30
223.999969
70
192
0
VERTEX
8
OBJECT009
10
768.000000
20
320.000000
30
223.999969
70
192
0
VERTEX
8
OBJECT009
10
768.000000
20
352.000000
30
223.999969
70
192
0
VERTEX
8
OBJECT009
10
0
20
0
30
0
70
128
71
2
72
3
73
-4
0
VERTEX
8
OBJECT009
10
0
20
0
30
0
70
128
71
-2
72
4
73
1
0
VERTEX
8
OBJECT009
10
0
20
0
30
0
70
128
71
6
72
7
73
-8
0
VERTEX
8
OBJECT009
10
0
20
0
30
0
70
128
71
-6
72
8
73
5
0
VERTEX
8
OBJECT009
10
0
20
0
30
0
70
128
71
5
72
2
73
-1
0
VERTEX
8
OBJECT009
10
0
20
0
30
0
70
128
71
-5
72
1
73
6
0
VERTEX
8
OBJECT009
10
0
20
0
30
0
70
128
71
7
72
4
73
-3
0
VERTEX
8
OBJECT009
10
0
20
0
30
0
70
128
71
-7
72
3
73
8
0
VERTEX
8
OBJECT009
10
0
20
0
30
0
70
128
71
8
72
3
73
-2
0
VERTEX
8
OBJECT009
10
0
20
0
30
0
70
128
71
-8
72
2
73
5
0
VERTEX
8
OBJECT009
10
0
20
0
30
0
70
128
71
6
72
1
73
-4
0
VERTEX
8
OBJECT009
10
0
20
0
30
0
70
128
71
-6
72
4
73
7
0
SEQEND
8
OBJECT009
0
POLYLINE
8
OBJECT010
66
1
70
64
71
8
72
12
62
50
0
VERTEX
8
OBJECT010
10
384.000000
20
512.000000
30
437.333313
70
192
0
VERTEX
8
OBJECT010
10
256.000000
20
512.000000
30
437.333313
70
192
0
VERTEX
8
OBJECT010
10
256.000000
20
544.000000
30
437.333313
70
192
0
VERTEX
8
OBJECT010
10
384.000000
20
544.000000
30
437.333313
70
192
0
VERTEX
8
OBJECT010
10
384.000000
20
544.000000
30
266.666656
70
192
0
VERTEX
8
OBJECT010
10
256.000000
20
544.000000
30
266.666656
70
192
0
VERTEX
8
OBJECT010
10
256.000000
20
512.000000
30
266.666656
70
192
0
VERTEX
8
OBJECT010
10
384.000000
20
512.000000
30
266.666656
70
192
0
VERTEX
8
OBJECT010
10
0
20
0
30
0
70
128
71
2
72
3
73
-4
0
VERTEX
8
OBJECT010
10
0
20
0
30
0
70
128
71
-2
72
4
73
1
0
VERTEX
8
OBJECT010
10
0
20
0
30
0
70
128
71
6
72
7
73
-8
0
VERTEX
8
OBJECT010
10
0
20
0
30
0
70
128
71
-6
72
8
73
5
0
VERTEX
8
OBJECT010
10
0
20
0
30
0
70
128
71
6
72
3
73
-2
0
VERTEX
8
OBJECT010
10
0
20
0
30
0
70
128
71
-6
72
2
73
7
0
VERTEX
8
OBJECT010
10
0
20
0
30
0
70
128
71
5
72
4
73
-3
0
VERTEX
8
OBJECT010
10
0
20
0
30
0
70
128
71
-5
72
3
73
6
0
VERTEX
8
OBJECT010
10
0
20
0
30
0
70
128
71
7
72
2
73
-1
0
VERTEX
8
OBJECT010
10
0
20
0
30
0
70
128
71
-7
72
1
73
8
0
VERTEX
8
OBJECT010
10
0
20
0
30
0
70
128
71
8
72
1
73
-4
0
VERTEX
8
OBJECT010
10
0
20
0
30
0
70
128
71
-8
72
4
73
5
0
SEQEND
8
OBJECT010
0
POLYLINE
8
OBJECT011
66
1
70
64
71
8
72
12
62
50
0
VERTEX
8
OBJECT011
10
640.000000
20
544.000000
30
437.333313
70
192
0
VERTEX
8
OBJECT011
10
768.000000
20
544.000000
30
437.333313
70
192
0
VERTEX
8
OBJECT011
10
768.000000
20
512.000000
30
437.333313
70
192
0
VERTEX
8
OBJECT011
10
640.000000
20
512.000000
30
437.333313
70
192
0
VERTEX
8
OBJECT011
10
640.000000
20
512.000000
30
266.666656
70
192
0
VERTEX
8
OBJECT011
10
768.000000
20
512.000000
30
266.666656
70
192
0
VERTEX
8
OBJECT011
10
768.000000
20
544.000000
30
266.666656
70
192
0
VERTEX
8
OBJECT011
10
640.000000
20
544.000000
30
266.666656
70
192
0
VERTEX
8
OBJECT011
10
0
20
0
30
0
70
128
71
2
72
3
73
-4
0
VERTEX
8
OBJECT011
10
0
20
0
30
0
70
128
71
-2
72
4
73
1
0
VERTEX
8
OBJECT011
10
0
20
0
30
0
70
128
71
6
72
7
73
-8
0
VERTEX
8
OBJECT011
10
0
20
0
30
0
70
128
71
-6
72
8
73
5
0
VERTEX
8
OBJECT011
10
0
20
0
30
0
70
128
71
6
72
3
73
-2
0
VERTEX
8
OBJECT011
10
0
20
0
30
0
70
128
71
-6
72
2
73
7
0
VERTEX
8
OBJECT011
10
0
20
0
30
0
70
128
71
7
72
2
73
-1
0
VERTEX
8
OBJECT011
10
0
20
0
30
0
70
128
71
-7
72
1
73
8
0
VERTEX
8
OBJECT011
10
0
20
0
30
0
70
128
71
5
72
4
73
-3
0
VERTEX
8
OBJECT011
10
0
20
0
30
0
70
128
71
-5
72
3
73
6
0
VERTEX
8
OBJECT011
10
0
20
0
30
0
70
128
71
8
72
1
73
-4
0
VERTEX
8
OBJECT011
10
0
20
0
30
0
70
128
71
-8
72
4
73
5
0
SEQEND
8
OBJECT011
0
POLYLINE
8
OBJECT012
66
1
70
64
71
8
72
12
62
50
0
VERTEX
8
OBJECT012
10
256.000000
20
416.000000
30
479.999969
70
192
0
VERTEX
8
OBJECT012
10
256.000000
20
416.000000
30
223.999969
70
192
0
VERTEX
8
OBJECT012
10
256.000000
20
448.000000
30
223.999969
70
192
0
VERTEX
8
OBJECT012
10
256.000000
20
448.000000
30
479.999969
70
192
0
VERTEX
8
OBJECT012
10
448.000000
20
448.000000
30
223.999969
70
192
0
VERTEX
8
OBJECT012
10
448.000000
20
448.000000
30
479.999969
70
192
0
VERTEX
8
OBJECT012
10
448.000000
20
416.000000
30
223.999969
70
192
0
VERTEX
8
OBJECT012
10
448.000000
20
416.000000
30
479.999969
70
192
0
VERTEX
8
OBJECT012
10
0
20
0
30
0
70
128
71
2
72
3
73
-4
0
VERTEX
8
OBJECT012
10
0
20
0
30
0
70
128
71
-2
72
4
73
1
0
VERTEX
8
OBJECT012
10
0
20
0
30
0
70
128
71
3
72
5
73
-6
0
VERTEX
8
OBJECT012
10
0
20
0
30
0
70
128
71
-3
72
6
73
4
0
VERTEX
8
OBJECT012
10
0
20
0
30
0
70
128
71
2
72
1
73
-8
0
VERTEX
8
OBJECT012
10
0
20
0
30
0
70
128
71
-2
72
8
73
7
0
VERTEX
8
OBJECT012
10
0
20
0
30
0
70
128
71
1
72
4
73
-6
0
VERTEX
8
OBJECT012
10
0
20
0
30
0
70
128
71
-1
72
6
73
8
0
VERTEX
8
OBJECT012
10
0
20
0
30
0
70
128
71
3
72
2
73
-7
0
VERTEX
8
OBJECT012
10
0
20
0
30
0
70
128
71
-3
72
7
73
5
0
VERTEX
8
OBJECT012
10
0
20
0
30
0
70
128
71
5
72
7
73
-8
0
VERTEX
8
OBJECT012
10
0
20
0
30
0
70
128
71
-5
72
8
73
6
0
SEQEND
8
OBJECT012
0
POLYLINE
8
OBJECT013
66
1
70
64
71
8
72
12
62
50
0
VERTEX
8
OBJECT013
10
768.000000
20
448.000000
30
479.999969
70
192
0
VERTEX
8
OBJECT013
10
768.000000
20
448.000000
30
223.999969
70
192
0
VERTEX
8
OBJECT013
10
768.000000
20
416.000000
30
223.999969
70
192
0
VERTEX
8
OBJECT013
10
768.000000
20
416.000000
30
479.999969
70
192
0
VERTEX
8
OBJECT013
10
576.000000
20
448.000000
30
223.999969
70
192
0
VERTEX
8
OBJECT013
10
576.000000
20
448.000000
30
479.999969
70
192
0
VERTEX
8
OBJECT013
10
576.000000
20
416.000000
30
223.999969
70
192
0
VERTEX
8
OBJECT013
10
576.000000
20
416.000000
30
479.999969
70
192
0
VERTEX
8
OBJECT013
10
0
20
0
30
0
70
128
71
2
72
3
73
-4
0
VERTEX
8
OBJECT013
10
0
20
0
30
0
70
128
71
-2
72
4
73
1
0
VERTEX
8
OBJECT013
10
0
20
0
30
0
70
128
71
2
72
1
73
-6
0
VERTEX
8
OBJECT013
10
0
20
0
30
0
70
128
71
-2
72
6
73
5
0
VERTEX
8
OBJECT013
10
0
20
0
30
0
70
128
71
3
72
7
73
-8
0
VERTEX
8
OBJECT013
10
0
20
0
30
0
70
128
71
-3
72
8
73
4
0
VERTEX
8
OBJECT013
10
0
20
0
30
0
70
128
71
1
72
4
73
-8
0
VERTEX
8
OBJECT013
10
0
20
0
30
0
70
128
71
-1
72
8
73
6
0
VERTEX
8
OBJECT013
10
0
20
0
30
0
70
128
71
3
72
2
73
-5
0
VERTEX
8
OBJECT013
10
0
20
0
30
0
70
128
71
-3
72
5
73
7
0
VERTEX
8
OBJECT013
10
0
20
0
30
0
70
128
71
7
72
5
73
-6
0
VERTEX
8
OBJECT013
10
0
20
0
30
0
70
128
71
-7
72
6
73
8
0
SEQEND
8
OBJECT013
0
POLYLINE
8
OBJECT014
66
1
70
64
71
8
72
12
62
50
0
VERTEX
8
OBJECT014
10
256.000000
20
-256.000000
30
479.999969
70
192
0
VERTEX
8
OBJECT014
10
256.000000
20
-224.000000
30
479.999969
70
192
0
VERTEX
8
OBJECT014
10
768.000000
20
-224.000000
30
479.999969
70
192
0
VERTEX
8
OBJECT014
10
768.000000
20
-256.000000
30
479.999969
70
192
0
VERTEX
8
OBJECT014
10
256.000000
20
-224.000000
30
223.999969
70
192
0
VERTEX
8
OBJECT014
10
256.000000
20
-256.000000
30
223.999969
70
192
0
VERTEX
8
OBJECT014
10
768.000000
20
-256.000000
30
223.999969
70
192
0
VERTEX
8
OBJECT014
10
768.000000
20
-224.000000
30
223.999969
70
192
0
VERTEX
8
OBJECT014
10
0
20
0
30
0
70
128
71
2
72
3
73
-4
0
VERTEX
8
OBJECT014
10
0
20
0
30
0
70
128
71
-2
72
4
73
1
0
VERTEX
8
OBJECT014
10
0
20
0
30
0
70
128
71
6
72
7
73
-8
0
VERTEX
8
OBJECT014
10
0
20
0
30
0
70
128
71
-6
72
8
73
5
0
VERTEX
8
OBJECT014
10
0
20
0
30
0
70
128
71
5
72
2
73
-1
0
VERTEX
8
OBJECT014
10
0
20
0
30
0
70
128
71
-5
72
1
73
6
0
VERTEX
8
OBJECT014
10
0
20
0
30
0
70
128
71
7
72
4
73
-3
0
VERTEX
8
OBJECT014
10
0
20
0
30
0
70
128
71
-7
72
3
73
8
0
VERTEX
8
OBJECT014
10
0
20
0
30
0
70
128
71
8
72
3
73
-2
0
VERTEX
8
OBJECT014
10
0
20
0
30
0
70
128
71
-8
72
2
73
5
0
VERTEX
8
OBJECT014
10
0
20
0
30
0
70
128
71
6
72
1
73
-4
0
VERTEX
8
OBJECT014
10
0
20
0
30
0
70
128
71
-6
72
4
73
7
0
SEQEND
8
OBJECT014
0
POLYLINE
8
OBJECT015
66
1
70
64
71
8
72
12
62
50
0
VERTEX
8
OBJECT015
10
384.000000
20
224.000000
30
437.333313
70
192
0
VERTEX
8
OBJECT015
10
256.000000
20
224.000000
30
437.333313
70
192
0
VERTEX
8
OBJECT015
10
256.000000
20
256.000000
30
437.333313
70
192
0
VERTEX
8
OBJECT015
10
384.000000
20
256.000000
30
437.333313
70
192
0
VERTEX
8
OBJECT015
10
384.000000
20
256.000000
30
266.666656
70
192
0
VERTEX
8
OBJECT015
10
256.000000
20
256.000000
30
266.666656
70
192
0
VERTEX
8
OBJECT015
10
256.000000
20
224.000000
30
266.666656
70
192
0
VERTEX
8
OBJECT015
10
384.000000
20
224.000000
30
266.666656
70
192
0
VERTEX
8
OBJECT015
10
0
20
0
30
0
70
128
71
2
72
3
73
-4
0
VERTEX
8
OBJECT015
10
0
20
0
30
0
70
128
71
-2
72
4
73
1
0
VERTEX
8
OBJECT015
10
0
20
0
30
0
70
128
71
6
72
7
73
-8
0
VERTEX
8
OBJECT015
10
0
20
0
30
0
70
128
71
-6
72
8
73
5
0
VERTEX
8
OBJECT015
10
0
20
0
30
0
70
128
71
6
72
3
73
-2
0
VERTEX
8
OBJECT015
10
0
20
0
30
0
70
128
71
-6
72
2
73
7
0
VERTEX
8
OBJECT015
10
0
20
0
30
0
70
128
71
5
72
4
73
-3
0
VERTEX
8
OBJECT015
10
0
20
0
30
0
70
128
71
-5
72
3
73
6
0
VERTEX
8
OBJECT015
10
0
20
0
30
0
70
128
71
7
72
2
73
-1
0
VERTEX
8
OBJECT015
10
0
20
0
30
0
70
128
71
-7
72
1
73
8
0
VERTEX
8
OBJECT015
10
0
20
0
30
0
70
128
71
8
72
1
73
-4
0
VERTEX
8
OBJECT015
10
0
20
0
30
0
70
128
71
-8
72
4
73
5
0
SEQEND
8
OBJECT015
0
POLYLINE
8
OBJECT016
66
1
70
64
71
8
72
12
62
50
0
VERTEX
8
OBJECT016
10
640.000000
20
256.000000
30
437.333313
70
192
0
VERTEX
8
OBJECT016
10
768.000000
20
256.000000
30
437.333313
70
192
0
VERTEX
8
OBJECT016
10
768.000000
20
224.000000
30
437.333313
70
192
0
VERTEX
8
OBJECT016
10
640.000000
20
224.000000
30
437.333313
70
192
0
VERTEX
8
OBJECT016
10
640.000000
20
224.000000
30
266.666656
70
192
0
VERTEX
8
OBJECT016
10
768.000000
20
224.000000
30
266.666656
70
192
0
VERTEX
8
OBJECT016
10
768.000000
20
256.000000
30
266.666656
70
192
0
VERTEX
8
OBJECT016
10
640.000000
20
256.000000
30
266.666656
70
192
0
VERTEX
8
OBJECT016
10
0
20
0
30
0
70
128
71
2
72
3
73
-4
0
VERTEX
8
OBJECT016
10
0
20
0
30
0
70
128
71
-2
72
4
73
1
0
VERTEX
8
OBJECT016
10
0
20
0
30
0
70
128
71
6
72
7
73
-8
0
VERTEX
8
OBJECT016
10
0
20
0
30
0
70
128
71
-6
72
8
73
5
0
VERTEX
8
OBJECT016
10
0
20
0
30
0
70
128
71
6
72
3
73
-2
0
VERTEX
8
OBJECT016
10
0
20
0
30
0
70
128
71
-6
72
2
73
7
0
VERTEX
8
OBJECT016
10
0
20
0
30
0
70
128
71
7
72
2
73
-1
0
VERTEX
8
OBJECT016
10
0
20
0
30
0
70
128
71
-7
72
1
73
8
0
VERTEX
8
OBJECT016
10
0
20
0
30
0
70
128
71
5
72
4
73
-3
0
VERTEX
8
OBJECT016
10
0
20
0
30
0
70
128
71
-5
72
3
73
6
0
VERTEX
8
OBJECT016
10
0
20
0
30
0
70
128
71
8
72
1
73
-4
0
VERTEX
8
OBJECT016
10
0
20
0
30
0
70
128
71
-8
72
4
73
5
0
SEQEND
8
OBJECT016
0
POLYLINE
8
OBJECT017
66
1
70
64
71
8
72
12
62
50
0
VERTEX
8
OBJECT017
10
256.000000
20
-1280.000000
30
479.999969
70
192
0
VERTEX
8
OBJECT017
10
256.000000
20
-1280.000000
30
223.999969
70
192
0
VERTEX
8
OBJECT017
10
256.000000
20
-1248.000000
30
223.999969
70
192
0
VERTEX
8
OBJECT017
10
256.000000
20
-1248.000000
30
479.999969
70
192
0
VERTEX
8
OBJECT017
10
448.000000
20
-1248.000000
30
223.999969
70
192
0
VERTEX
8
OBJECT017
10
448.000000
20
-1248.000000
30
479.999969
70
192
0
VERTEX
8
OBJECT017
10
448.000000
20
-1280.000000
30
223.999969
70
192
0
VERTEX
8
OBJECT017
10
448.000000
20
-1280.000000
30
479.999969
70
192
0
VERTEX
8
OBJECT017
10
0
20
0
30
0
70
128
71
2
72
3
73
-4
0
VERTEX
8
OBJECT017
10
0
20
0
30
0
70
128
71
-2
72
4
73
1
0
VERTEX
8
OBJECT017
10
0
20
0
30
0
70
128
71
3
72
5
73
-6
0
VERTEX
8
OBJECT017
10
0
20
0
30
0
70
128
71
-3
72
6
73
4
0
VERTEX
8
OBJECT017
10
0
20
0
30
0
70
128
71
2
72
1
73
-8
0
VERTEX
8
OBJECT017
10
0
20
0
30
0
70
128
71
-2
72
8
73
7
0
VERTEX
8
OBJECT017
10
0
20
0
30
0
70
128
71
1
72
4
73
-6
0
VERTEX
8
OBJECT017
10
0
20
0
30
0
70
128
71
-1
72
6
73
8
0
VERTEX
8
OBJECT017
10
0
20
0
30
0
70
128
71
3
72
2
73
-7
0
VERTEX
8
OBJECT017
10
0
20
0
30
0
70
128
71
-3
72
7
73
5
0
VERTEX
8
OBJECT017
10
0
20
0
30
0
70
128
71
5
72
7
73
-8
0
VERTEX
8
OBJECT017
10
0
20
0
30
0
70
128
71
-5
72
8
73
6
0
SEQEND
8
OBJECT017
0
POLYLINE
8
OBJECT018
66
1
70
64
71
8
72
12
62
50
0
VERTEX
8
OBJECT018
10
768.000000
20
-1248.000000
30
479.999969
70
192
0
VERTEX
8
OBJECT018
10
768.000000
20
-1248.000000
30
223.999969
70
192
0
VERTEX
8
OBJECT018
10
768.000000
20
-1280.000000
30
223.999969
70
192
0
VERTEX
8
OBJECT018
10
768.000000
20
-1280.000000
30
479.999969
70
192
0
VERTEX
8
OBJECT018
10
576.000000
20
-1248.000000
30
223.999969
70
192
0
VERTEX
8
OBJECT018
10
576.000000
20
-1248.000000
30
479.999969
70
192
0
VERTEX
8
OBJECT018
10
576.000000
20
-1280.000000
30
223.999969
70
192
0
VERTEX
8
OBJECT018
10
576.000000
20
-1280.000000
30
479.999969
70
192
0
VERTEX
8
OBJECT018
10
0
20
0
30
0
70
128
71
2
72
3
73
-4
0
VERTEX
8
OBJECT018
10
0
20
0
30
0
70
128
71
-2
72
4
73
1
0
VERTEX
8
OBJECT018
10
0
20
0
30
0
70
128
71
2
72
1
73
-6
0
VERTEX
8
OBJECT018
10
0
20
0
30
0
70
128
71
-2
72
6
73
5
0
VERTEX
8
OBJECT018
10
0
20
0
30
0
70
128
71
3
72
7
73
-8
0
VERTEX
8
OBJECT018
10
0
20
0
30
0
70
128
71
-3
72
8
73
4
0
VERTEX
8
OBJECT018
10
0
20
0
30
0
70
128
71
1
72
4
73
-8
0
VERTEX
8
OBJECT018
10
0
20
0
30
0
70
128
71
-1
72
8
73
6
0
VERTEX
8
OBJECT018
10
0
20
0
30
0
70
128
71
3
72
2
73
-5
0
VERTEX
8
OBJECT018
10
0
20
0
30
0
70
128
71
-3
72
5
73
7
0
VERTEX
8
OBJECT018
10
0
20
0
30
0
70
128
71
7
72
5
73
-6
0
VERTEX
8
OBJECT018
10
0
20
0
30
0
70
128
71
-7
72
6
73
8
0
SEQEND
8
OBJECT018
0
POLYLINE
8
OBJECT019
66
1
70
64
71
8
72
12
62
50
0
VERTEX
8
OBJECT019
10
256.000000
20
-1824.000000
30
479.999969
70
192
0
VERTEX
8
OBJECT019
10
256.000000
20
-1824.000000
30
223.999969
70
192
0
VERTEX
8
OBJECT019
10
256.000000
20
-1792.000000
30
223.999969
70
192
0
VERTEX
8
OBJECT019
10
256.000000
20
-1792.000000
30
479.999969
70
192
0
VERTEX
8
OBJECT019
10
448.000000
20
-1792.000000
30
223.999969
70
192
0
VERTEX
8
OBJECT019
10
448.000000
20
-1792.000000
30
479.999969
70
192
0
VERTEX
8
OBJECT019
10
448.000000
20
-1824.000000
30
223.999969
70
192
0
VERTEX
8
OBJECT019
10
448.000000
20
-1824.000000
30
479.999969
70
192
0
VERTEX
8
OBJECT019
10
0
20
0
30
0
70
128
71
2
72
3
73
-4
0
VERTEX
8
OBJECT019
10
0
20
0
30
0
70
128
71
-2
72
4
73
1
0
VERTEX
8
OBJECT019
10
0
20
0
30
0
70
128
71
3
72
5
73
-6
0
VERTEX
8
OBJECT019
10
0
20
0
30
0
70
128
71
-3
72
6
73
4
0
VERTEX
8
OBJECT019
10
0
20
0
30
0
70
128
71
2
72
1
73
-8
0
VERTEX
8
OBJECT019
10
0
20
0
30
0
70
128
71
-2
72
8
73
7
0
VERTEX
8
OBJECT019
10
0
20
0
30
0
70
128
71
1
72
4
73
-6
0
VERTEX
8
OBJECT019
10
0
20
0
30
0
70
128
71
-1
72
6
73
8
0
VERTEX
8
OBJECT019
10
0
20
0
30
0
70
128
71
3
72
2
73
-7
0
VERTEX
8
OBJECT019
10
0
20
0
30
0
70
128
71
-3
72
7
73
5
0
VERTEX
8
OBJECT019
10
0
20
0
30
0
70
128
71
5
72
7
73
-8
0
VERTEX
8
OBJECT019
10
0
20
0
30
0
70
128
71
-5
72
8
73
6
0
SEQEND
8
OBJECT019
0
POLYLINE
8
OBJECT020
66
1
70
64
71
8
72
12
62
50
0
VERTEX
8
OBJECT020
10
768.000000
20
-1792.000000
30
479.999969
70
192
0
VERTEX
8
OBJECT020
10
768.000000
20
-1792.000000
30
223.999969
70
192
0
VERTEX
8
OBJECT020
10
768.000000
20
-1824.000000
30
223.999969
70
192
0
VERTEX
8
OBJECT020
10
768.000000
20
-1824.000000
30
479.999969
70
192
0
VERTEX
8
OBJECT020
10
576.000000
20
-1792.000000
30
223.999969
70
192
0
VERTEX
8
OBJECT020
10
576.000000
20
-1792.000000
30
479.999969
70
192
0
VERTEX
8
OBJECT020
10
576.000000
20
-1824.000000
30
223.999969
70
192
0
VERTEX
8
OBJECT020
10
576.000000
20
-1824.000000
30
479.999969
70
192
0
VERTEX
8
OBJECT020
10
0
20
0
30
0
70
128
71
2
72
3
73
-4
0
VERTEX
8
OBJECT020
10
0
20
0
30
0
70
128
71
-2
72
4
73
1
0
VERTEX
8
OBJECT020
10
0
20
0
30
0
70
128
71
2
72
1
73
-6
0
VERTEX
8
OBJECT020
10
0
20
0
30
0
70
128
71
-2
72
6
73
5
0
VERTEX
8
OBJECT020
10
0
20
0
30
0
70
128
71
3
72
7
73
-8
0
VERTEX
8
OBJECT020
10
0
20
0
30
0
70
128
71
-3
72
8
73
4
0
VERTEX
8
OBJECT020
10
0
20
0
30
0
70
128
71
1
72
4
73
-8
0
VERTEX
8
OBJECT020
10
0
20
0
30
0
70
128
71
-1
72
8
73
6
0
VERTEX
8
OBJECT020
10
0
20
0
30
0
70
128
71
3
72
2
73
-5
0
VERTEX
8
OBJECT020
10
0
20
0
30
0
70
128
71
-3
72
5
73
7
0
VERTEX
8
OBJECT020
10
0
20
0
30
0
70
128
71
7
72
5
73
-6
0
VERTEX
8
OBJECT020
10
0
20
0
30
0
70
128
71
-7
72
6
73
8
0
SEQEND
8
OBJECT020
0
POLYLINE
8
OBJECT021
66
1
70
64
71
8
72
12
62
50
0
VERTEX
8
OBJECT021
10
256.000000
20
-2304.000000
30
479.999969
70
192
0
VERTEX
8
OBJECT021
10
256.000000
20
-2304.000000
30
223.999969
70
192
0
VERTEX
8
OBJECT021
10
256.000000
20
-2272.000000
30
223.999969
70
192
0
VERTEX
8
OBJECT021
10
256.000000
20
-2272.000000
30
479.999969
70
192
0
VERTEX
8
OBJECT021
10
448.000000
20
-2272.000000
30
223.999969
70
192
0
VERTEX
8
OBJECT021
10
448.000000
20
-2272.000000
30
479.999969
70
192
0
VERTEX
8
OBJECT021
10
448.000000
20
-2304.000000
30
223.999969
70
192
0
VERTEX
8
OBJECT021
10
448.000000
20
-2304.000000
30
479.999969
70
192
0
VERTEX
8
OBJECT021
10
0
20
0
30
0
70
128
71
2
72
3
73
-4
0
VERTEX
8
OBJECT021
10
0
20
0
30
0
70
128
71
-2
72
4
73
1
0
VERTEX
8
OBJECT021
10
0
20
0
30
0
70
128
71
3
72
5
73
-6
0
VERTEX
8
OBJECT021
10
0
20
0
30
0
70
128
71
-3
72
6
73
4
0
VERTEX
8
OBJECT021
10
0
20
0
30
0
70
128
71
2
72
1
73
-8
0
VERTEX
8
OBJECT021
10
0
20
0
30
0
70
128
71
-2
72
8
73
7
0
VERTEX
8
OBJECT021
10
0
20
0
30
0
70
128
71
1
72
4
73
-6
0
VERTEX
8
OBJECT021
10
0
20
0
30
0
70
128
71
-1
72
6
73
8
0
VERTEX
8
OBJECT021
10
0
20
0
30
0
70
128
71
3
72
2
73
-7
0
VERTEX
8
OBJECT021
10
0
20
0
30
0
70
128
71
-3
72
7
73
5
0
VERTEX
8
OBJECT021
10
0
20
0
30
0
70
128
71
5
72
7
73
-8
0
VERTEX
8
OBJECT021
10
0
20
0
30
0
70
128
71
-5
72
8
73
6
0
SEQEND
8
OBJECT021
0
POLYLINE
8
OBJECT022
66
1
70
64
71
8
72
12
62
50
0
VERTEX
8
OBJECT022
10
768.000000
20
-2272.000000
30
479.999969
70
192
0
VERTEX
8
OBJECT022
10
768.000000
20
-2272.000000
30
223.999969
70
192
0
VERTEX
8
OBJECT022
10
768.000000
20
-2304.000000
30
223.999969
70
192
0
VERTEX
8
OBJECT022
10
768.000000
20
-2304.000000
30
479.999969
70
192
0
VERTEX
8
OBJECT022
10
576.000000
20
-2272.000000
30
223.999969
70
192
0
VERTEX
8
OBJECT022
10
576.000000
20
-2272.000000
30
479.999969
70
192
0
VERTEX
8
OBJECT022
10
576.000000
20
-2304.000000
30
223.999969
70
192
0
VERTEX
8
OBJECT022
10
576.000000
20
-2304.000000
30
479.999969
70
192
0
VERTEX
8
OBJECT022
10
0
20
0
30
0
70
128
71
2
72
3
73
-4
0
VERTEX
8
OBJECT022
10
0
20
0
30
0
70
128
71
-2
72
4
73
1
0
VERTEX
8
OBJECT022
10
0
20
0
30
0
70
128
71
2
72
1
73
-6
0
VERTEX
8
OBJECT022
10
0
20
0
30
0
70
128
71
-2
72
6
73
5
0
VERTEX
8
OBJECT022
10
0
20
0
30
0
70
128
71
3
72
7
73
-8
0
VERTEX
8
OBJECT022
10
0
20
0
30
0
70
128
71
-3
72
8
73
4
0
VERTEX
8
OBJECT022
10
0
20
0
30
0
70
128
71
1
72
4
73
-8
0
VERTEX
8
OBJECT022
10
0
20
0
30
0
70
128
71
-1
72
8
73
6
0
VERTEX
8
OBJECT022
10
0
20
0
30
0
70
128
71
3
72
2
73
-5
0
VERTEX
8
OBJECT022
10
0
20
0
30
0
70
128
71
-3
72
5
73
7
0
VERTEX
8
OBJECT022
10
0
20
0
30
0
70
128
71
7
72
5
73
-6
0
VERTEX
8
OBJECT022
10
0
20
0
30
0
70
128
71
-7
72
6
73
8
0
SEQEND
8
OBJECT022
0
POLYLINE
8
OBJECT023
66
1
70
64
71
8
72
12
62
50
0
VERTEX
8
OBJECT023
10
256.000000
20
256.000000
30
479.999969
70
192
0
VERTEX
8
OBJECT023
10
256.000000
20
256.000000
30
223.999969
70
192
0
VERTEX
8
OBJECT023
10
288.000000
20
256.000000
30
223.999969
70
192
0
VERTEX
8
OBJECT023
10
288.000000
20
256.000000
30
479.999969
70
192
0
VERTEX
8
OBJECT023
10
288.000000
20
64.000000
30
223.999969
70
192
0
VERTEX
8
OBJECT023
10
288.000000
20
64.000000
30
479.999969
70
192
0
VERTEX
8
OBJECT023
10
255.999985
20
64.000000
30
223.999969
70
192
0
VERTEX
8
OBJECT023
10
255.999985
20
64.000000
30
479.999969
70
192
0
VERTEX
8
OBJECT023
10
0
20
0
30
0
70
128
71
2
72
3
73
-4
0
VERTEX
8
OBJECT023
10
0
20
0
30
0
70
128
71
-2
72
4
73
1
0
VERTEX
8
OBJECT023
10
0
20
0
30
0
70
128
71
3
72
5
73
-6
0
VERTEX
8
OBJECT023
10
0
20
0
30
0
70
128
71
-3
72
6
73
4
0
VERTEX
8
OBJECT023
10
0
20
0
30
0
70
128
71
2
72
1
73
-8
0
VERTEX
8
OBJECT023
10
0
20
0
30
0
70
128
71
-2
72
8
73
7
0
VERTEX
8
OBJECT023
10
0
20
0
30
0
70
128
71
1
72
4
73
-6
0
VERTEX
8
OBJECT023
10
0
20
0
30
0
70
128
71
-1
72
6
73
8
0
VERTEX
8
OBJECT023
10
0
20
0
30
0
70
128
71
3
72
2
73
-7
0
VERTEX
8
OBJECT023
10
0
20
0
30
0
70
128
71
-3
72
7
73
5
0
VERTEX
8
OBJECT023
10
0
20
0
30
0
70
128
71
5
72
7
73
-8
0
VERTEX
8
OBJECT023
10
0
20
0
30
0
70
128
71
-5
72
8
73
6
0
SEQEND
8
OBJECT023
0
POLYLINE
8
OBJECT024
66
1
70
64
71
8
72
12
62
50
0
VERTEX
8
OBJECT024
10
287.999969
20
-256.000000
30
479.999969
70
192
0
VERTEX
8
OBJECT024
10
287.999969
20
-256.000000
30
223.999969
70
192
0
VERTEX
8
OBJECT024
10
255.999985
20
-256.000000
30
223.999969
70
192
0
VERTEX
8
OBJECT024
10
255.999985
20
-256.000000
30
479.999969
70
192
0
VERTEX
8
OBJECT024
10
288.000000
20
-64.000000
30
223.999969
70
192
0
VERTEX
8
OBJECT024
10
288.000000
20
-64.000000
30
479.999969
70
192
0
VERTEX
8
OBJECT024
10
255.999985
20
-64.000000
30
223.999969
70
192
0
VERTEX
8
OBJECT024
10
255.999985
20
-64.000000
30
479.999969
70
192
0
VERTEX
8
OBJECT024
10
0
20
0
30
0
70
128
71
2
72
3
73
-4
0
VERTEX
8
OBJECT024
10
0
20
0
30
0
70
128
71
-2
72
4
73
1
0
VERTEX
8
OBJECT024
10
0
20
0
30
0
70
128
71
2
72
1
73
-6
0
VERTEX
8
OBJECT024
10
0
20
0
30
0
70
128
71
-2
72
6
73
5
0
VERTEX
8
OBJECT024
10
0
20
0
30
0
70
128
71
3
72
7
73
-8
0
VERTEX
8
OBJECT024
10
0
20
0
30
0
70
128
71
-3
72
8
73
4
0
VERTEX
8
OBJECT024
10
0
20
0
30
0
70
128
71
1
72
4
73
-8
0
VERTEX
8
OBJECT024
10
0
20
0
30
0
70
128
71
-1
72
8
73
6
0
VERTEX
8
OBJECT024
10
0
20
0
30
0
70
128
71
3
72
2
73
-5
0
VERTEX
8
OBJECT024
10
0
20
0
30
0
70
128
71
-3
72
5
73
7
0
VERTEX
8
OBJECT024
10
0
20
0
30
0
70
128
71
7
72
5
73
-6
0
VERTEX
8
OBJECT024
10
0
20
0
30
0
70
128
71
-7
72
6
73
8
0
SEQEND
8
OBJECT024
0
POLYLINE
8
OBJECT025
66
1
70
64
71
8
72
12
62
50
0
VERTEX
8
OBJECT025
10
736.000000
20
256.000000
30
479.999969
70
192
0
VERTEX
8
OBJECT025
10
736.000000
20
256.000000
30
223.999969
70
192
0
VERTEX
8
OBJECT025
10
768.000000
20
256.000000
30
223.999969
70
192
0
VERTEX
8
OBJECT025
10
768.000000
20
256.000000
30
479.999969
70
192
0
VERTEX
8
OBJECT025
10
768.000000
20
64.000000
30
223.999969
70
192
0
VERTEX
8
OBJECT025
10
768.000000
20
64.000000
30
479.999969
70
192
0
VERTEX
8
OBJECT025
10
736.000000
20
64.000000
30
223.999969
70
192
0
VERTEX
8
OBJECT025
10
736.000000
20
64.000000
30
479.999969
70
192
0
VERTEX
8
OBJECT025
10
0
20
0
30
0
70
128
71
2
72
3
73
-4
0
VERTEX
8
OBJECT025
10
0
20
0
30
0
70
128
71
-2
72
4
73
1
0
VERTEX
8
OBJECT025
10
0
20
0
30
0
70
128
71
3
72
5
73
-6
0
VERTEX
8
OBJECT025
10
0
20
0
30
0
70
128
71
-3
72
6
73
4
0
VERTEX
8
OBJECT025
10
0
20
0
30
0
70
128
71
2
72
1
73
-8
0
VERTEX
8
OBJECT025
10
0
20
0
30
0
70
128
71
-2
72
8
73
7
0
VERTEX
8
OBJECT025
10
0
20
0
30
0
70
128
71
1
72
4
73
-6
0
VERTEX
8
OBJECT025
10
0
20
0
30
0
70
128
71
-1
72
6
73
8
0
VERTEX
8
OBJECT025
10
0
20
0
30
0
70
128
71
3
72
2
73
-7
0
VERTEX
8
OBJECT025
10
0
20
0
30
0
70
128
71
-3
72
7
73
5
0
VERTEX
8
OBJECT025
10
0
20
0
30
0
70
128
71
5
72
7
73
-8
0
VERTEX
8
OBJECT025
10
0
20
0
30
0
70
128
71
-5
72
8
73
6
0
SEQEND
8
OBJECT025
0
POLYLINE
8
OBJECT026
66
1
70
64
71
8
72
12
62
50
0
VERTEX
8
OBJECT026
10
768.000000
20
-256.000000
30
479.999969
70
192
0
VERTEX
8
OBJECT026
10
768.000000
20
-256.000000
30
223.999969
70
192
0
VERTEX
8
OBJECT026
10
736.000000
20
-256.000000
30
223.999969
70
192
0
VERTEX
8
OBJECT026
10
736.000000
20
-256.000000
30
479.999969
70
192
0
VERTEX
8
OBJECT026
10
768.000000
20
-64.000000
30
223.999969
70
192
0
VERTEX
8
OBJECT026
10
768.000000
20
-64.000000
30
479.999969
70
192
0
VERTEX
8
OBJECT026
10
736.000000
20
-64.000000
30
223.999969
70
192
0
VERTEX
8
OBJECT026
10
736.000000
20
-64.000000
30
479.999969
70
192
0
VERTEX
8
OBJECT026
10
0
20
0
30
0
70
128
71
2
72
3
73
-4
0
VERTEX
8
OBJECT026
10
0
20
0
30
0
70
128
71
-2
72
4
73
1
0
VERTEX
8
OBJECT026
10
0
20
0
30
0
70
128
71
2
72
1
73
-6
0
VERTEX
8
OBJECT026
10
0
20
0
30
0
70
128
71
-2
72
6
73
5
0
VERTEX
8
OBJECT026
10
0
20
0
30
0
70
128
71
3
72
7
73
-8
0
VERTEX
8
OBJECT026
10
0
20
0
30
0
70
128
71
-3
72
8
73
4
0
VERTEX
8
OBJECT026
10
0
20
0
30
0
70
128
71
1
72
4
73
-8
0
VERTEX
8
OBJECT026
10
0
20
0
30
0
70
128
71
-1
72
8
73
6
0
VERTEX
8
OBJECT026
10
0
20
0
30
0
70
128
71
3
72
2
73
-5
0
VERTEX
8
OBJECT026
10
0
20
0
30
0
70
128
71
-3
72
5
73
7
0
VERTEX
8
OBJECT026
10
0
20
0
30
0
70
128
71
7
72
5
73
-6
0
VERTEX
8
OBJECT026
10
0
20
0
30
0
70
128
71
-7
72
6
73
8
0
SEQEND
8
OBJECT026
0
POLYLINE
8
OBJECT027
66
1
70
64
71
8
72
12
62
50
0
VERTEX
8
OBJECT027
10
896.000000
20
256.000000
30
479.999969
70
192
0
VERTEX
8
OBJECT027
10
896.000000
20
256.000000
30
223.999969
70
192
0
VERTEX
8
OBJECT027
10
928.000000
20
256.000000
30
223.999969
70
192
0
VERTEX
8
OBJECT027
10
928.000000
20
256.000000
30
479.999969
70
192
0
VERTEX
8
OBJECT027
10
928.000000
20
64.000000
30
223.999969
70
192
0
VERTEX
8
OBJECT027
10
928.000000
20
64.000000
30
479.999969
70
192
0
VERTEX
8
OBJECT027
10
896.000000
20
64.000000
30
223.999969
70
192
0
VERTEX
8
OBJECT027
10
896.000000
20
64.000000
30
479.999969
70
192
0
VERTEX
8
OBJECT027
10
0
20
0
30
0
70
128
71
2
72
3
73
-4
0
VERTEX
8
OBJECT027
10
0
20
0
30
0
70
128
71
-2
72
4
73
1
0
VERTEX
8
OBJECT027
10
0
20
0
30
0
70
128
71
3
72
5
73
-6
0
VERTEX
8
OBJECT027
10
0
20
0
30
0
70
128
71
-3
72
6
73
4
0
VERTEX
8
OBJECT027
10
0
20
0
30
0
70
128
71
2
72
1
73
-8
0
VERTEX
8
OBJECT027
10
0
20
0
30
0
70
128
71
-2
72
8
73
7
0
VERTEX
8
OBJECT027
10
0
20
0
30
0
70
128
71
1
72
4
73
-6
0
VERTEX
8
OBJECT027
10
0
20
0
30
0
70
128
71
-1
72
6
73
8
0
VERTEX
8
OBJECT027
10
0
20
0
30
0
70
128
71
3
72
2
73
-7
0
VERTEX
8
OBJECT027
10
0
20
0
30
0
70
128
71
-3
72
7
73
5
0
VERTEX
8
OBJECT027
10
0
20
0
30
0
70
128
71
5
72
7
73
-8
0
VERTEX
8
OBJECT027
10
0
20
0
30
0
70
128
71
-5
72
8
73
6
0
SEQEND
8
OBJECT027
0
POLYLINE
8
OBJECT028
66
1
70
64
71
8
72
12
62
50
0
VERTEX
8
OBJECT028
10
928.000000
20
-256.000000
30
479.999969
70
192
0
VERTEX
8
OBJECT028
10
928.000000
20
-256.000000
30
223.999969
70
192
0
VERTEX
8
OBJECT028
10
896.000000
20
-256.000000
30
223.999969
70
192
0
VERTEX
8
OBJECT028
10
896.000000
20
-256.000000
30
479.999969
70
192
0
VERTEX
8
OBJECT028
10
928.000000
20
-64.000000
30
223.999969
70
192
0
VERTEX
8
OBJECT028
10
928.000000
20
-64.000000
30
479.999969
70
192
0
VERTEX
8
OBJECT028
10
896.000000
20
-64.000000
30
223.999969
70
192
0
VERTEX
8
OBJECT028
10
896.000000
20
-64.000000
30
479.999969
70
192
0
VERTEX
8
OBJECT028
10
0
20
0
30
0
70
128
71
2
72
3
73
-4
0
VERTEX
8
OBJECT028
10
0
20
0
30
0
70
128
71
-2
72
4
73
1
0
VERTEX
8
OBJECT028
10
0
20
0
30
0
70
128
71
2
72
1
73
-6
0
VERTEX
8
OBJECT028
10
0
20
0
30
0
70
128
71
-2
72
6
73
5
0
VERTEX
8
OBJECT028
10
0
20
0
30
0
70
128
71
3
72
7
73
-8
0
VERTEX
8
OBJECT028
10
0
20
0
30
0
70
128
71
-3
72
8
73
4
0
VERTEX
8
OBJECT028
10
0
20
0
30
0
70
128
71
1
72
4
73
-8
0
VERTEX
8
OBJECT028
10
0
20
0
30
0
70
128
71
-1
72
8
73
6
0
VERTEX
8
OBJECT028
10
0
20
0
30
0
70
128
71
3
72
2
73
-5
0
VERTEX
8
OBJECT028
10
0
20
0
30
0
70
128
71
-3
72
5
73
7
0
VERTEX
8
OBJECT028
10
0
20
0
30
0
70
128
71
7
72
5
73
-6
0
VERTEX
8
OBJECT028
10
0
20
0
30
0
70
128
71
-7
72
6
73
8
0
SEQEND
8
OBJECT028
0
POLYLINE
8
OBJECT029
66
1
70
64
71
8
72
12
62
50
0
VERTEX
8
OBJECT029
10
960.000000
20
128.000015
30
437.333313
70
192
0
VERTEX
8
OBJECT029
10
960.000000
20
256.000000
30
437.333313
70
192
0
VERTEX
8
OBJECT029
10
992.000000
20
256.000000
30
437.333313
70
192
0
VERTEX
8
OBJECT029
10
992.000000
20
128.000015
30
437.333313
70
192
0
VERTEX
8
OBJECT029
10
992.000000
20
128.000015
30
266.666656
70
192
0
VERTEX
8
OBJECT029
10
992.000000
20
256.000000
30
266.666656
70
192
0
VERTEX
8
OBJECT029
10
960.000000
20
256.000000
30
266.666656
70
192
0
VERTEX
8
OBJECT029
10
960.000000
20
128.000015
30
266.666656
70
192
0
VERTEX
8
OBJECT029
10
0
20
0
30
0
70
128
71
2
72
3
73
-4
0
VERTEX
8
OBJECT029
10
0
20
0
30
0
70
128
71
-2
72
4
73
1
0
VERTEX
8
OBJECT029
10
0
20
0
30
0
70
128
71
6
72
7
73
-8
0
VERTEX
8
OBJECT029
10
0
20
0
30
0
70
128
71
-6
72
8
73
5
0
VERTEX
8
OBJECT029
10
0
20
0
30
0
70
128
71
6
72
3
73
-2
0
VERTEX
8
OBJECT029
10
0
20
0
30
0
70
128
71
-6
72
2
73
7
0
VERTEX
8
OBJECT029
10
0
20
0
30
0
70
128
71
5
72
4
73
-3
0
VERTEX
8
OBJECT029
10
0
20
0
30
0
70
128
71
-5
72
3
73
6
0
VERTEX
8
OBJECT029
10
0
20
0
30
0
70
128
71
7
72
2
73
-1
0
VERTEX
8
OBJECT029
10
0
20
0
30
0
70
128
71
-7
72
1
73
8
0
VERTEX
8
OBJECT029
10
0
20
0
30
0
70
128
71
8
72
1
73
-4
0
VERTEX
8
OBJECT029
10
0
20
0
30
0
70
128
71
-8
72
4
73
5
0
SEQEND
8
OBJECT029
0
POLYLINE
8
OBJECT030
66
1
70
64
71
8
72
12
62
50
0
VERTEX
8
OBJECT030
10
991.999939
20
-128.000000
30
437.333313
70
192
0
VERTEX
8
OBJECT030
10
991.999939
20
-256.000000
30
437.333313
70
192
0
VERTEX
8
OBJECT030
10
959.999939
20
-256.000000
30
437.333313
70
192
0
VERTEX
8
OBJECT030
10
959.999939
20
-128.000000
30
437.333313
70
192
0
VERTEX
8
OBJECT030
10
959.999939
20
-128.000000
30
266.666656
70
192
0
VERTEX
8
OBJECT030
10
959.999939
20
-256.000000
30
266.666656
70
192
0
VERTEX
8
OBJECT030
10
991.999939
20
-256.000000
30
266.666656
70
192
0
VERTEX
8
OBJECT030
10
991.999939
20
-128.000000
30
266.666656
70
192
0
VERTEX
8
OBJECT030
10
0
20
0
30
0
70
128
71
2
72
3
73
-4
0
VERTEX
8
OBJECT030
10
0
20
0
30
0
70
128
71
-2
72
4
73
1
0
VERTEX
8
OBJECT030
10
0
20
0
30
0
70
128
71
6
72
7
73
-8
0
VERTEX
8
OBJECT030
10
0
20
0
30
0
70
128
71
-6
72
8
73
5
0
VERTEX
8
OBJECT030
10
0
20
0
30
0
70
128
71
6
72
3
73
-2
0
VERTEX
8
OBJECT030
10
0
20
0
30
0
70
128
71
-6
72
2
73
7
0
VERTEX
8
OBJECT030
10
0
20
0
30
0
70
128
71
7
72
2
73
-1
0
VERTEX
8
OBJECT030
10
0
20
0
30
0
70
128
71
-7
72
1
73
8
0
VERTEX
8
OBJECT030
10
0
20
0
30
0
70
128
71
5
72
4
73
-3
0
VERTEX
8
OBJECT030
10
0
20
0
30
0
70
128
71
-5
72
3
73
6
0
VERTEX
8
OBJECT030
10
0
20
0
30
0
70
128
71
8
72
1
73
-4
0
VERTEX
8
OBJECT030
10
0
20
0
30
0
70
128
71
-8
72
4
73
5
0
SEQEND
8
OBJECT030
0
POLYLINE
8
OBJECT031
66
1
70
64
71
8
72
12
62
50
0
VERTEX
8
OBJECT031
10
736.000000
20
-896.000000
30
437.333313
70
192
0
VERTEX
8
OBJECT031
10
736.000000
20
-768.000000
30
437.333313
70
192
0
VERTEX
8
OBJECT031
10
768.000000
20
-768.000000
30
437.333313
70
192
0
VERTEX
8
OBJECT031
10
768.000000
20
-896.000000
30
437.333313
70
192
0
VERTEX
8
OBJECT031
10
768.000000
20
-896.000000
30
266.666656
70
192
0
VERTEX
8
OBJECT031
10
768.000000
20
-768.000000
30
266.666656
70
192
0
VERTEX
8
OBJECT031
10
736.000000
20
-768.000000
30
266.666656
70
192
0
VERTEX
8
OBJECT031
10
736.000000
20
-896.000000
30
266.666656
70
192
0
VERTEX
8
OBJECT031
10
0
20
0
30
0
70
128
71
2
72
3
73
-4
0
VERTEX
8
OBJECT031
10
0
20
0
30
0
70
128
71
-2
72
4
73
1
0
VERTEX
8
OBJECT031
10
0
20
0
30
0
70
128
71
6
72
7
73
-8
0
VERTEX
8
OBJECT031
10
0
20
0
30
0
70
128
71
-6
72
8
73
5
0
VERTEX
8
OBJECT031
10
0
20
0
30
0
70
128
71
6
72
3
73
-2
0
VERTEX
8
OBJECT031
10
0
20
0
30
0
70
128
71
-6
72
2
73
7
0
VERTEX
8
OBJECT031
10
0
20
0
30
0
70
128
71
5
72
4
73
-3
0
VERTEX
8
OBJECT031
10
0
20
0
30
0
70
128
71
-5
72
3
73
6
0
VERTEX
8
OBJECT031
10
0
20
0
30
0
70
128
71
7
72
2
73
-1
0
VERTEX
8
OBJECT031
10
0
20
0
30
0
70
128
71
-7
72
1
73
8
0
VERTEX
8
OBJECT031
10
0
20
0
30
0
70
128
71
8
72
1
73
-4
0
VERTEX
8
OBJECT031
10
0
20
0
30
0
70
128
71
-8
72
4
73
5
0
SEQEND
8
OBJECT031
0
POLYLINE
8
OBJECT032
66
1
70
64
71
8
72
12
62
50
0
VERTEX
8
OBJECT032
10
767.999939
20
-1152.000000
30
437.333313
70
192
0
VERTEX
8
OBJECT032
10
767.999939
20
-1280.000000
30
437.333313
70
192
0
VERTEX
8
OBJECT032
10
735.999939
20
-1280.000000
30
437.333313
70
192
0
VERTEX
8
OBJECT032
10
735.999939
20
-1152.000000
30
437.333313
70
192
0
VERTEX
8
OBJECT032
10
735.999939
20
-1152.000000
30
266.666656
70
192
0
VERTEX
8
OBJECT032
10
735.999939
20
-1280.000000
30
266.666656
70
192
0
VERTEX
8
OBJECT032
10
767.999939
20
-1280.000000
30
266.666656
70
192
0
VERTEX
8
OBJECT032
10
767.999939
20
-1152.000000
30
266.666656
70
192
0
VERTEX
8
OBJECT032
10
0
20
0
30
0
70
128
71
2
72
3
73
-4
0
VERTEX
8
OBJECT032
10
0
20
0
30
0
70
128
71
-2
72
4
73
1
0
VERTEX
8
OBJECT032
10
0
20
0
30
0
70
128
71
6
72
7
73
-8
0
VERTEX
8
OBJECT032
10
0
20
0
30
0
70
128
71
-6
72
8
73
5
0
VERTEX
8
OBJECT032
10
0
20
0
30
0
70
128
71
6
72
3
73
-2
0
VERTEX
8
OBJECT032
10
0
20
0
30
0
70
128
71
-6
72
2
73
7
0
VERTEX
8
OBJECT032
10
0
20
0
30
0
70
128
71
7
72
2
73
-1
0
VERTEX
8
OBJECT032
10
0
20
0
30
0
70
128
71
-7
72
1
73
8
0
VERTEX
8
OBJECT032
10
0
20
0
30
0
70
128
71
5
72
4
73
-3
0
VERTEX
8
OBJECT032
10
0
20
0
30
0
70
128
71
-5
72
3
73
6
0
VERTEX
8
OBJECT032
10
0
20
0
30
0
70
128
71
8
72
1
73
-4
0
VERTEX
8
OBJECT032
10
0
20
0
30
0
70
128
71
-8
72
4
73
5
0
SEQEND
8
OBJECT032
0
POLYLINE
8
OBJECT033
66
1
70
64
71
8
72
12
62
50
0
VERTEX
8
OBJECT033
10
256.000000
20
-896.000000
30
437.333313
70
192
0
VERTEX
8
OBJECT033
10
256.000000
20
-768.000000
30
437.333313
70
192
0
VERTEX
8
OBJECT033
10
288.000000
20
-768.000000
30
437.333313
70
192
0
VERTEX
8
OBJECT033
10
288.000000
20
-896.000000
30
437.333313
70
192
0
VERTEX
8
OBJECT033
10
288.000000
20
-896.000000
30
266.666656
70
192
0
VERTEX
8
OBJECT033
10
288.000000
20
-768.000000
30
266.666656
70
192
0
VERTEX
8
OBJECT033
10
256.000000
20
-768.000000
30
266.666656
70
192
0
VERTEX
8
OBJECT033
10
256.000000
20
-896.000000
30
266.666656
70
192
0
VERTEX
8
OBJECT033
10
0
20
0
30
0
70
128
71
2
72
3
73
-4
0
VERTEX
8
OBJECT033
10
0
20
0
30
0
70
128
71
-2
72
4
73
1
0
VERTEX
8
OBJECT033
10
0
20
0
30
0
70
128
71
6
72
7
73
-8
0
VERTEX
8
OBJECT033
10
0
20
0
30
0
70
128
71
-6
72
8
73
5
0
VERTEX
8
OBJECT033
10
0
20
0
30
0
70
128
71
6
72
3
73
-2
0
VERTEX
8
OBJECT033
10
0
20
0
30
0
70
128
71
-6
72
2
73
7
0
VERTEX
8
OBJECT033
10
0
20
0
30
0
70
128
71
5
72
4
73
-3
0
VERTEX
8
OBJECT033
10
0
20
0
30
0
70
128
71
-5
72
3
73
6
0
VERTEX
8
OBJECT033
10
0
20
0
30
0
70
128
71
7
72
2
73
-1
0
VERTEX
8
OBJECT033
10
0
20
0
30
0
70
128
71
-7
72
1
73
8
0
VERTEX
8
OBJECT033
10
0
20
0
30
0
70
128
71
8
72
1
73
-4
0
VERTEX
8
OBJECT033
10
0
20
0
30
0
70
128
71
-8
72
4
73
5
0
SEQEND
8
OBJECT033
0
POLYLINE
8
OBJECT034
66
1
70
64
71
8
72
12
62
50
0
VERTEX
8
OBJECT034
10
287.999939
20
-1152.000000
30
437.333313
70
192
0
VERTEX
8
OBJECT034
10
287.999939
20
-1280.000000
30
437.333313
70
192
0
VERTEX
8
OBJECT034
10
255.999939
20
-1280.000000
30
437.333313
70
192
0
VERTEX
8
OBJECT034
10
255.999939
20
-1152.000000
30
437.333313
70
192
0
VERTEX
8
OBJECT034
10
255.999939
20
-1152.000000
30
266.666656
70
192
0
VERTEX
8
OBJECT034
10
255.999939
20
-1280.000000
30
266.666656
70
192
0
VERTEX
8
OBJECT034
10
287.999939
20
-1280.000000
30
266.666656
70
192
0
VERTEX
8
OBJECT034
10
287.999939
20
-1152.000000
30
266.666656
70
192
0
VERTEX
8
OBJECT034
10
0
20
0
30
0
70
128
71
2
72
3
73
-4
0
VERTEX
8
OBJECT034
10
0
20
0
30
0
70
128
71
-2
72
4
73
1
0
VERTEX
8
OBJECT034
10
0
20
0
30
0
70
128
71
6
72
7
73
-8
0
VERTEX
8
OBJECT034
10
0
20
0
30
0
70
128
71
-6
72
8
73
5
0
VERTEX
8
OBJECT034
10
0
20
0
30
0
70
128
71
6
72
3
73
-2
0
VERTEX
8
OBJECT034
10
0
20
0
30
0
70
128
71
-6
72
2
73
7
0
VERTEX
8
OBJECT034
10
0
20
0
30
0
70
128
71
7
72
2
73
-1
0
VERTEX
8
OBJECT034
10
0
20
0
30
0
70
128
71
-7
72
1
73
8
0
VERTEX
8
OBJECT034
10
0
20
0
30
0
70
128
71
5
72
4
73
-3
0
VERTEX
8
OBJECT034
10
0
20
0
30
0
70
128
71
-5
72
3
73
6
0
VERTEX
8
OBJECT034
10
0
20
0
30
0
70
128
71
8
72
1
73
-4
0
VERTEX
8
OBJECT034
10
0
20
0
30
0
70
128
71
-8
72
4
73
5
0
SEQEND
8
OBJECT034
0
POLYLINE
8
OBJECT035
66
1
70
64
71
8
72
12
62
50
0
VERTEX
8
OBJECT035
10
256.000000
20
-800.000000
30
479.999969
70
192
0
VERTEX
8
OBJECT035
10
256.000000
20
-800.000000
30
223.999969
70
192
0
VERTEX
8
OBJECT035
10
256.000000
20
-768.000000
30
223.999969
70
192
0
VERTEX
8
OBJECT035
10
256.000000
20
-768.000000
30
479.999969
70
192
0
VERTEX
8
OBJECT035
10
448.000000
20
-768.000000
30
223.999969
70
192
0
VERTEX
8
OBJECT035
10
448.000000
20
-768.000000
30
479.999969
70
192
0
VERTEX
8
OBJECT035
10
448.000000
20
-800.000000
30
223.999969
70
192
0
VERTEX
8
OBJECT035
10
448.000000
20
-800.000000
30
479.999969
70
192
0
VERTEX
8
OBJECT035
10
0
20
0
30
0
70
128
71
2
72
3
73
-4
0
VERTEX
8
OBJECT035
10
0
20
0
30
0
70
128
71
-2
72
4
73
1
0
VERTEX
8
OBJECT035
10
0
20
0
30
0
70
128
71
3
72
5
73
-6
0
VERTEX
8
OBJECT035
10
0
20
0
30
0
70
128
71
-3
72
6
73
4
0
VERTEX
8
OBJECT035
10
0
20
0
30
0
70
128
71
2
72
1
73
-8
0
VERTEX
8
OBJECT035
10
0
20
0
30
0
70
128
71
-2
72
8
73
7
0
VERTEX
8
OBJECT035
10
0
20
0
30
0
70
128
71
1
72
4
73
-6
0
VERTEX
8
OBJECT035
10
0
20
0
30
0
70
128
71
-1
72
6
73
8
0
VERTEX
8
OBJECT035
10
0
20
0
30
0
70
128
71
3
72
2
73
-7
0
VERTEX
8
OBJECT035
10
0
20
0
30
0
70
128
71
-3
72
7
73
5
0
VERTEX
8
OBJECT035
10
0
20
0
30
0
70
128
71
5
72
7
73
-8
0
VERTEX
8
OBJECT035
10
0
20
0
30
0
70
128
71
-5
72
8
73
6
0
SEQEND
8
OBJECT035
0
POLYLINE
8
OBJECT036
66
1
70
64
71
8
72
12
62
50
0
VERTEX
8
OBJECT036
10
768.000000
20
-768.000000
30
479.999969
70
192
0
VERTEX
8
OBJECT036
10
768.000000
20
-768.000000
30
223.999969
70
192
0
VERTEX
8
OBJECT036
10
768.000000
20
-800.000000
30
223.999969
70
192
0
VERTEX
8
OBJECT036
10
768.000000
20
-800.000000
30
479.999969
70
192
0
VERTEX
8
OBJECT036
10
576.000000
20
-768.000000
30
223.999969
70
192
0
VERTEX
8
OBJECT036
10
576.000000
20
-768.000000
30
479.999969
70
192
0
VERTEX
8
OBJECT036
10
576.000000
20
-800.000000
30
223.999969
70
192
0
VERTEX
8
OBJECT036
10
576.000000
20
-800.000000
30
479.999969
70
192
0
VERTEX
8
OBJECT036
10
0
20
0
30
0
70
128
71
2
72
3
73
-4
0
VERTEX
8
OBJECT036
10
0
20
0
30
0
70
128
71
-2
72
4
73
1
0
VERTEX
8
OBJECT036
10
0
20
0
30
0
70
128
71
2
72
1
73
-6
0
VERTEX
8
OBJECT036
10
0
20
0
30
0
70
128
71
-2
72
6
73
5
0
VERTEX
8
OBJECT036
10
0
20
0
30
0
70
128
71
3
72
7
73
-8
0
VERTEX
8
OBJECT036
10
0
20
0
30
0
70
128
71
-3
72
8
73
4
0
VERTEX
8
OBJECT036
10
0
20
0
30
0
70
128
71
1
72
4
73
-8
0
VERTEX
8
OBJECT036
10
0
20
0
30
0
70
128
71
-1
72
8
73
6
0
VERTEX
8
OBJECT036
10
0
20
0
30
0
70
128
71
3
72
2
73
-5
0
VERTEX
8
OBJECT036
10
0
20
0
30
0
70
128
71
-3
72
5
73
7
0
VERTEX
8
OBJECT036
10
0
20
0
30
0
70
128
71
7
72
5
73
-6
0
VERTEX
8
OBJECT036
10
0
20
0
30
0
70
128
71
-7
72
6
73
8
0
SEQEND
8
OBJECT036
0
POLYLINE
8
OBJECT037
66
1
70
64
71
8
72
12
62
50
0
VERTEX
8
OBJECT037
10
256.000000
20
-1792.000000
30
479.999969
70
192
0
VERTEX
8
OBJECT037
10
256.000000
20
-1792.000000
30
223.999969
70
192
0
VERTEX
8
OBJECT037
10
288.000000
20
-1792.000000
30
223.999969
70
192
0
VERTEX
8
OBJECT037
10
288.000000
20
-1792.000000
30
479.999969
70
192
0
VERTEX
8
OBJECT037
10
288.000000
20
-1984.000000
30
223.999969
70
192
0
VERTEX
8
OBJECT037
10
288.000000
20
-1984.000000
30
479.999969
70
192
0
VERTEX
8
OBJECT037
10
256.000000
20
-1984.000000
30
223.999969
70
192
0
VERTEX
8
OBJECT037
10
256.000000
20
-1984.000000
30
479.999969
70
192
0
VERTEX
8
OBJECT037
10
0
20
0
30
0
70
128
71
2
72
3
73
-4
0
VERTEX
8
OBJECT037
10
0
20
0
30
0
70
128
71
-2
72
4
73
1
0
VERTEX
8
OBJECT037
10
0
20
0
30
0
70
128
71
3
72
5
73
-6
0
VERTEX
8
OBJECT037
10
0
20
0
30
0
70
128
71
-3
72
6
73
4
0
VERTEX
8
OBJECT037
10
0
20
0
30
0
70
128
71
2
72
1
73
-8
0
VERTEX
8
OBJECT037
10
0
20
0
30
0
70
128
71
-2
72
8
73
7
0
VERTEX
8
OBJECT037
10
0
20
0
30
0
70
128
71
1
72
4
73
-6
0
VERTEX
8
OBJECT037
10
0
20
0
30
0
70
128
71
-1
72
6
73
8
0
VERTEX
8
OBJECT037
10
0
20
0
30
0
70
128
71
3
72
2
73
-7
0
VERTEX
8
OBJECT037
10
0
20
0
30
0
70
128
71
-3
72
7
73
5
0
VERTEX
8
OBJECT037
10
0
20
0
30
0
70
128
71
5
72
7
73
-8
0
VERTEX
8
OBJECT037
10
0
20
0
30
0
70
128
71
-5
72
8
73
6
0
SEQEND
8
OBJECT037
0
POLYLINE
8
OBJECT038
66
1
70
64
71
8
72
12
62
50
0
VERTEX
8
OBJECT038
10
288.000000
20
-2304.000000
30
479.999969
70
192
0
VERTEX
8
OBJECT038
10
288.000000
20
-2304.000000
30
223.999969
70
192
0
VERTEX
8
OBJECT038
10
256.000000
20
-2304.000000
30
223.999969
70
192
0
VERTEX
8
OBJECT038
10
256.000000
20
-2304.000000
30
479.999969
70
192
0
VERTEX
8
OBJECT038
10
288.000000
20
-2112.000000
30
223.999969
70
192
0
VERTEX
8
OBJECT038
10
288.000000
20
-2112.000000
30
479.999969
70
192
0
VERTEX
8
OBJECT038
10
256.000000
20
-2112.000000
30
223.999969
70
192
0
VERTEX
8
OBJECT038
10
256.000000
20
-2112.000000
30
479.999969
70
192
0
VERTEX
8
OBJECT038
10
0
20
0
30
0
70
128
71
2
72
3
73
-4
0
VERTEX
8
OBJECT038
10
0
20
0
30
0
70
128
71
-2
72
4
73
1
0
VERTEX
8
OBJECT038
10
0
20
0
30
0
70
128
71
2
72
1
73
-6
0
VERTEX
8
OBJECT038
10
0
20
0
30
0
70
128
71
-2
72
6
73
5
0
VERTEX
8
OBJECT038
10
0
20
0
30
0
70
128
71
3
72
7
73
-8
0
VERTEX
8
OBJECT038
10
0
20
0
30
0
70
128
71
-3
72
8
73
4
0
VERTEX
8
OBJECT038
10
0
20
0
30
0
70
128
71
1
72
4
73
-8
0
VERTEX
8
OBJECT038
10
0
20
0
30
0
70
128
71
-1
72
8
73
6
0
VERTEX
8
OBJECT038
10
0
20
0
30
0
70
128
71
3
72
2
73
-5
0
VERTEX
8
OBJECT038
10
0
20
0
30
0
70
128
71
-3
72
5
73
7
0
VERTEX
8
OBJECT038
10
0
20
0
30
0
70
128
71
7
72
5
73
-6
0
VERTEX
8
OBJECT038
10
0
20
0
30
0
70
128
71
-7
72
6
73
8
0
SEQEND
8
OBJECT038
0
POLYLINE
8
OBJECT039
66
1
70
64
71
8
72
12
62
50
0
VERTEX
8
OBJECT039
10
736.000000
20
-1792.000000
30
479.999969
70
192
0
VERTEX
8
OBJECT039
10
736.000000
20
-1792.000000
30
223.999969
70
192
0
VERTEX
8
OBJECT039
10
768.000000
20
-1792.000000
30
223.999969
70
192
0
VERTEX
8
OBJECT039
10
768.000000
20
-1792.000000
30
479.999969
70
192
0
VERTEX
8
OBJECT039
10
768.000000
20
-1984.000000
30
223.999969
70
192
0
VERTEX
8
OBJECT039
10
768.000000
20
-1984.000000
30
479.999969
70
192
0
VERTEX
8
OBJECT039
10
736.000000
20
-1984.000000
30
223.999969
70
192
0
VERTEX
8
OBJECT039
10
736.000000
20
-1984.000000
30
479.999969
70
192
0
VERTEX
8
OBJECT039
10
0
20
0
30
0
70
128
71
2
72
3
73
-4
0
VERTEX
8
OBJECT039
10
0
20
0
30
0
70
128
71
-2
72
4
73
1
0
VERTEX
8
OBJECT039
10
0
20
0
30
0
70
128
71
3
72
5
73
-6
0
VERTEX
8
OBJECT039
10
0
20
0
30
0
70
128
71
-3
72
6
73
4
0
VERTEX
8
OBJECT039
10
0
20
0
30
0
70
128
71
2
72
1
73
-8
0
VERTEX
8
OBJECT039
10
0
20
0
30
0
70
128
71
-2
72
8
73
7
0
VERTEX
8
OBJECT039
10
0
20
0
30
0
70
128
71
1
72
4
73
-6
0
VERTEX
8
OBJECT039
10
0
20
0
30
0
70
128
71
-1
72
6
73
8
0
VERTEX
8
OBJECT039
10
0
20
0
30
0
70
128
71
3
72
2
73
-7
0
VERTEX
8
OBJECT039
10
0
20
0
30
0
70
128
71
-3
72
7
73
5
0
VERTEX
8
OBJECT039
10
0
20
0
30
0
70
128
71
5
72
7
73
-8
0
VERTEX
8
OBJECT039
10
0
20
0
30
0
70
128
71
-5
72
8
73
6
0
SEQEND
8
OBJECT039
0
POLYLINE
8
OBJECT040
66
1
70
64
71
8
72
12
62
50
0
VERTEX
8
OBJECT040
10
768.000000
20
-2304.000000
30
479.999969
70
192
0
VERTEX
8
OBJECT040
10
768.000000
20
-2304.000000
30
223.999969
70
192
0
VERTEX
8
OBJECT040
10
736.000000
20
-2304.000000
30
223.999969
70
192
0
VERTEX
8
OBJECT040
10
736.000000
20
-2304.000000
30
479.999969
70
192
0
VERTEX
8
OBJECT040
10
768.000000
20
-2112.000000
30
223.999969
70
192
0
VERTEX
8
OBJECT040
10
768.000000
20
-2112.000000
30
479.999969
70
192
0
VERTEX
8
OBJECT040
10
736.000000
20
-2112.000000
30
223.999969
70
192
0
VERTEX
8
OBJECT040
10
736.000000
20
-2112.000000
30
479.999969
70
192
0
VERTEX
8
OBJECT040
10
0
20
0
30
0
70
128
71
2
72
3
73
-4
0
VERTEX
8
OBJECT040
10
0
20
0
30
0
70
128
71
-2
72
4
73
1
0
VERTEX
8
OBJECT040
10
0
20
0
30
0
70
128
71
2
72
1
73
-6
0
VERTEX
8
OBJECT040
10
0
20
0
30
0
70
128
71
-2
72
6
73
5
0
VERTEX
8
OBJECT040
10
0
20
0
30
0
70
128
71
3
72
7
73
-8
0
VERTEX
8
OBJECT040
10
0
20
0
30
0
70
128
71
-3
72
8
73
4
0
VERTEX
8
OBJECT040
10
0
20
0
30
0
70
128
71
1
72
4
73
-8
0
VERTEX
8
OBJECT040
10
0
20
0
30
0
70
128
71
-1
72
8
73
6
0
VERTEX
8
OBJECT040
10
0
20
0
30
0
70
128
71
3
72
2
73
-5
0
VERTEX
8
OBJECT040
10
0
20
0
30
0
70
128
71
-3
72
5
73
7
0
VERTEX
8
OBJECT040
10
0
20
0
30
0
70
128
71
7
72
5
73
-6
0
VERTEX
8
OBJECT040
10
0
20
0
30
0
70
128
71
-7
72
6
73
8
0
SEQEND
8
OBJECT040
0
POLYLINE
8
OBJECT041
66
1
70
64
71
8
72
12
62
50
0
VERTEX
8
OBJECT041
10
-512.000000
20
96.000000
30
187.428558
70
192
0
VERTEX
8
OBJECT041
10
-256.000000
20
96.000000
30
187.428558
70
192
0
VERTEX
8
OBJECT041
10
-256.000000
20
64.000000
30
187.428558
70
192
0
VERTEX
8
OBJECT041
10
-512.000000
20
64.000000
30
187.428558
70
192
0
VERTEX
8
OBJECT041
10
-512.000000
20
64.000000
30
4.571415
70
192
0
VERTEX
8
OBJECT041
10
-256.000000
20
64.000000
30
4.571415
70
192
0
VERTEX
8
OBJECT041
10
-256.000000
20
96.000000
30
4.571415
70
192
0
VERTEX
8
OBJECT041
10
-512.000000
20
96.000000
30
4.571415
70
192
0
VERTEX
8
OBJECT041
10
0
20
0
30
0
70
128
71
2
72
3
73
-4
0
VERTEX
8
OBJECT041
10
0
20
0
30
0
70
128
71
-2
72
4
73
1
0
VERTEX
8
OBJECT041
10
0
20
0
30
0
70
128
71
6
72
7
73
-8
0
VERTEX
8
OBJECT041
10
0
20
0
30
0
70
128
71
-6
72
8
73
5
0
VERTEX
8
OBJECT041
10
0
20
0
30
0
70
128
71
4
72
5
73
-8
0
VERTEX
8
OBJECT041
10
0
20
0
30
0
70
128
71
-4
72
8
73
1
0
VERTEX
8
OBJECT041
10
0
20
0
30
0
70
128
71
6
72
3
73
-2
0
VERTEX
8
OBJECT041
10
0
20
0
30
0
70
128
71
-6
72
2
73
7
0
VERTEX
8
OBJECT041
10
0
20
0
30
0
70
128
71
1
72
8
73
-7
0
VERTEX
8
OBJECT041
10
0
20
0
30
0
70
128
71
-1
72
7
73
2
0
VERTEX
8
OBJECT041
10
0
20
0
30
0
70
128
71
5
72
4
73
-3
0
VERTEX
8
OBJECT041
10
0
20
0
30
0
70
128
71
-5
72
3
73
6
0
SEQEND
8
OBJECT041
0
POLYLINE
8
OBJECT042
66
1
70
64
71
8
72
12
62
50
0
VERTEX
8
OBJECT042
10
-512.000000
20
160.000000
30
187.428558
70
192
0
VERTEX
8
OBJECT042
10
-416.000000
20
160.000000
30
187.428558
70
192
0
VERTEX
8
OBJECT042
10
-416.000000
20
128.000000
30
187.428558
70
192
0
VERTEX
8
OBJECT042
10
-512.000000
20
128.000000
30
187.428558
70
192
0
VERTEX
8
OBJECT042
10
-512.000000
20
128.000000
30
4.571415
70
192
0
VERTEX
8
OBJECT042
10
-416.000000
20
128.000000
30
4.571415
70
192
0
VERTEX
8
OBJECT042
10
-416.000000
20
160.000000
30
4.571415
70
192
0
VERTEX
8
OBJECT042
10
-512.000000
20
160.000000
30
4.571415
70
192
0
VERTEX
8
OBJECT042
10
0
20
0
30
0
70
128
71
2
72
3
73
-4
0
VERTEX
8
OBJECT042
10
0
20
0
30
0
70
128
71
-2
72
4
73
1
0
VERTEX
8
OBJECT042
10
0
20
0
30
0
70
128
71
6
72
7
73
-8
0
VERTEX
8
OBJECT042
10
0
20
0
30
0
70
128
71
-6
72
8
73
5
0
VERTEX
8
OBJECT042
10
0
20
0
30
0
70
128
71
4
72
5
73
-8
0
VERTEX
8
OBJECT042
10
0
20
0
30
0
70
128
71
-4
72
8
73
1
0
VERTEX
8
OBJECT042
10
0
20
0
30
0
70
128
71
6
72
3
73
-2
0
VERTEX
8
OBJECT042
10
0
20
0
30
0
70
128
71
-6
72
2
73
7
0
VERTEX
8
OBJECT042
10
0
20
0
30
0
70
128
71
1
72
8
73
-7
0
VERTEX
8
OBJECT042
10
0
20
0
30
0
70
128
71
-1
72
7
73
2
0
VERTEX
8
OBJECT042
10
0
20
0
30
0
70
128
71
5
72
4
73
-3
0
VERTEX
8
OBJECT042
10
0
20
0
30
0
70
128
71
-5
72
3
73
6
0
SEQEND
8
OBJECT042
0
POLYLINE
8
OBJECT043
66
1
70
64
71
8
72
12
62
50
0
VERTEX
8
OBJECT043
10
-352.000000
20
160.000000
30
187.428558
70
192
0
VERTEX
8
OBJECT043
10
-256.000000
20
160.000000
30
187.428558
70
192
0
VERTEX
8
OBJECT043
10
-256.000000
20
128.000000
30
187.428558
70
192
0
VERTEX
8
OBJECT043
10
-352.000000
20
128.000000
30
187.428558
70
192
0
VERTEX
8
OBJECT043
10
-352.000000
20
128.000000
30
4.571415
70
192
0
VERTEX
8
OBJECT043
10
-256.000000
20
128.000000
30
4.571415
70
192
0
VERTEX
8
OBJECT043
10
-256.000000
20
160.000000
30
4.571415
70
192
0
VERTEX
8
OBJECT043
10
-352.000000
20
160.000000
30
4.571415
70
192
0
VERTEX
8
OBJECT043
10
0
20
0
30
0
70
128
71
2
72
3
73
-4
0
VERTEX
8
OBJECT043
10
0
20
0
30
0
70
128
71
-2
72
4
73
1
0
VERTEX
8
OBJECT043
10
0
20
0
30
0
70
128
71
6
72
7
73
-8
0
VERTEX
8
OBJECT043
10
0
20
0
30
0
70
128
71
-6
72
8
73
5
0
VERTEX
8
OBJECT043
10
0
20
0
30
0
70
128
71
4
72
5
73
-8
0
VERTEX
8
OBJECT043
10
0
20
0
30
0
70
128
71
-4
72
8
73
1
0
VERTEX
8
OBJECT043
10
0
20
0
30
0
70
128
71
6
72
3
73
-2
0
VERTEX
8
OBJECT043
10
0
20
0
30
0
70
128
71
-6
72
2
73
7
0
VERTEX
8
OBJECT043
10
0
20
0
30
0
70
128
71
1
72
8
73
-7
0
VERTEX
8
OBJECT043
10
0
20
0
30
0
70
128
71
-1
72
7
73
2
0
VERTEX
8
OBJECT043
10
0
20
0
30
0
70
128
71
5
72
4
73
-3
0
VERTEX
8
OBJECT043
10
0
20
0
30
0
70
128
71
-5
72
3
73
6
0
SEQEND
8
OBJECT043
0
POLYLINE
8
OBJECT044
66
1
70
64
71
8
72
12
62
50
0
VERTEX
8
OBJECT044
10
-320.000000
20
224.000000
30
187.428558
70
192
0
VERTEX
8
OBJECT044
10
-256.000000
20
224.000000
30
187.428558
70
192
0
VERTEX
8
OBJECT044
10
-256.000000
20
192.000000
30
187.428558
70
192
0
VERTEX
8
OBJECT044
10
-320.000000
20
192.000000
30
187.428558
70
192
0
VERTEX
8
OBJECT044
10
-320.000000
20
192.000000
30
4.571415
70
192
0
VERTEX
8
OBJECT044
10
-256.000000
20
192.000000
30
4.571415
70
192
0
VERTEX
8
OBJECT044
10
-256.000000
20
224.000000
30
4.571415
70
192
0
VERTEX
8
OBJECT044
10
-320.000000
20
224.000000
30
4.571415
70
192
0
VERTEX
8
OBJECT044
10
0
20
0
30
0
70
128
71
2
72
3
73
-4
0
VERTEX
8
OBJECT044
10
0
20
0
30
0
70
128
71
-2
72
4
73
1
0
VERTEX
8
OBJECT044
10
0
20
0
30
0
70
128
71
6
72
7
73
-8
0
VERTEX
8
OBJECT044
10
0
20
0
30
0
70
128
71
-6
72
8
73
5
0
VERTEX
8
OBJECT044
10
0
20
0
30
0
70
128
71
4
72
5
73
-8
0
VERTEX
8
OBJECT044
10
0
20
0
30
0
70
128
71
-4
72
8
73
1
0
VERTEX
8
OBJECT044
10
0
20
0
30
0
70
128
71
6
72
3
73
-2
0
VERTEX
8
OBJECT044
10
0
20
0
30
0
70
128
71
-6
72
2
73
7
0
VERTEX
8
OBJECT044
10
0
20
0
30
0
70
128
71
1
72
8
73
-7
0
VERTEX
8
OBJECT044
10
0
20
0
30
0
70
128
71
-1
72
7
73
2
0
VERTEX
8
OBJECT044
10
0
20
0
30
0
70
128
71
5
72
4
73
-3
0
VERTEX
8
OBJECT044
10
0
20
0
30
0
70
128
71
-5
72
3
73
6
0
SEQEND
8
OBJECT044
0
POLYLINE
8
OBJECT045
66
1
70
64
71
8
72
12
62
50
0
VERTEX
8
OBJECT045
10
-512.000000
20
224.000000
30
187.428558
70
192
0
VERTEX
8
OBJECT045
10
-448.000000
20
224.000000
30
187.428558
70
192
0
VERTEX
8
OBJECT045
10
-448.000000
20
192.000000
30
187.428558
70
192
0
VERTEX
8
OBJECT045
10
-512.000000
20
192.000000
30
187.428558
70
192
0
VERTEX
8
OBJECT045
10
-512.000000
20
192.000000
30
4.571415
70
192
0
VERTEX
8
OBJECT045
10
-448.000000
20
192.000000
30
4.571415
70
192
0
VERTEX
8
OBJECT045
10
-448.000000
20
224.000000
30
4.571415
70
192
0
VERTEX
8
OBJECT045
10
-512.000000
20
224.000000
30
4.571415
70
192
0
VERTEX
8
OBJECT045
10
0
20
0
30
0
70
128
71
2
72
3
73
-4
0
VERTEX
8
OBJECT045
10
0
20
0
30
0
70
128
71
-2
72
4
73
1
0
VERTEX
8
OBJECT045
10
0
20
0
30
0
70
128
71
6
72
7
73
-8
0
VERTEX
8
OBJECT045
10
0
20
0
30
0
70
128
71
-6
72
8
73
5
0
VERTEX
8
OBJECT045
10
0
20
0
30
0
70
128
71
4
72
5
73
-8
0
VERTEX
8
OBJECT045
10
0
20
0
30
0
70
128
71
-4
72
8
73
1
0
VERTEX
8
OBJECT045
10
0
20
0
30
0
70
128
71
6
72
3
73
-2
0
VERTEX
8
OBJECT045
10
0
20
0
30
0
70
128
71
-6
72
2
73
7
0
VERTEX
8
OBJECT045
10
0
20
0
30
0
70
128
71
1
72
8
73
-7
0
VERTEX
8
OBJECT045
10
0
20
0
30
0
70
128
71
-1
72
7
73
2
0
VERTEX
8
OBJECT045
10
0
20
0
30
0
70
128
71
5
72
4
73
-3
0
VERTEX
8
OBJECT045
10
0
20
0
30
0
70
128
71
-5
72
3
73
6
0
SEQEND
8
OBJECT045
0
POLYLINE
8
OBJECT046
66
1
70
64
71
8
72
12
62
50
0
VERTEX
8
OBJECT046
10
-160.000000
20
0.000000
30
187.428558
70
192
0
VERTEX
8
OBJECT046
10
-160.000000
20
-256.000000
30
187.428558
70
192
0
VERTEX
8
OBJECT046
10
-192.000000
20
-256.000000
30
187.428558
70
192
0
VERTEX
8
OBJECT046
10
-192.000000
20
0.000000
30
187.428558
70
192
0
VERTEX
8
OBJECT046
10
-192.000000
20
0.000000
30
4.571415
70
192
0
VERTEX
8
OBJECT046
10
-192.000000
20
-256.000000
30
4.571415
70
192
0
VERTEX
8
OBJECT046
10
-160.000000
20
-256.000000
30
4.571415
70
192
0
VERTEX
8
OBJECT046
10
-160.000000
20
0.000000
30
4.571415
70
192
0
VERTEX
8
OBJECT046
10
0
20
0
30
0
70
128
71
2
72
3
73
-4
0
VERTEX
8
OBJECT046
10
0
20
0
30
0
70
128
71
-2
72
4
73
1
0
VERTEX
8
OBJECT046
10
0
20
0
30
0
70
128
71
6
72
7
73
-8
0
VERTEX
8
OBJECT046
10
0
20
0
30
0
70
128
71
-6
72
8
73
5
0
VERTEX
8
OBJECT046
10
0
20
0
30
0
70
128
71
4
72
5
73
-8
0
VERTEX
8
OBJECT046
10
0
20
0
30
0
70
128
71
-4
72
8
73
1
0
VERTEX
8
OBJECT046
10
0
20
0
30
0
70
128
71
6
72
3
73
-2
0
VERTEX
8
OBJECT046
10
0
20
0
30
0
70
128
71
-6
72
2
73
7
0
VERTEX
8
OBJECT046
10
0
20
0
30
0
70
128
71
1
72
8
73
-7
0
VERTEX
8
OBJECT046
10
0
20
0
30
0
70
128
71
-1
72
7
73
2
0
VERTEX
8
OBJECT046
10
0
20
0
30
0
70
128
71
5
72
4
73
-3
0
VERTEX
8
OBJECT046
10
0
20
0
30
0
70
128
71
-5
72
3
73
6
0
SEQEND
8
OBJECT046
0
POLYLINE
8
OBJECT047
66
1
70
64
71
8
72
12
62
50
0
VERTEX
8
OBJECT047
10
-96.000000
20
-160.000000
30
187.428558
70
192
0
VERTEX
8
OBJECT047
10
-96.000000
20
-256.000000
30
187.428558
70
192
0
VERTEX
8
OBJECT047
10
-128.000000
20
-256.000000
30
187.428558
70
192
0
VERTEX
8
OBJECT047
10
-128.000000
20
-160.000000
30
187.428558
70
192
0
VERTEX
8
OBJECT047
10
-128.000000
20
-160.000000
30
4.571415
70
192
0
VERTEX
8
OBJECT047
10
-128.000000
20
-256.000000
30
4.571415
70
192
0
VERTEX
8
OBJECT047
10
-96.000000
20
-256.000000
30
4.571415
70
192
0
VERTEX
8
OBJECT047
10
-96.000000
20
-160.000000
30
4.571415
70
192
0
VERTEX
8
OBJECT047
10
0
20
0
30
0
70
128
71
2
72
3
73
-4
0
VERTEX
8
OBJECT047
10
0
20
0
30
0
70
128
71
-2
72
4
73
1
0
VERTEX
8
OBJECT047
10
0
20
0
30
0
70
128
71
6
72
7
73
-8
0
VERTEX
8
OBJECT047
10
0
20
0
30
0
70
128
71
-6
72
8
73
5
0
VERTEX
8
OBJECT047
10
0
20
0
30
0
70
128
71
4
72
5
73
-8
0
VERTEX
8
OBJECT047
10
0
20
0
30
0
70
128
71
-4
72
8
73
1
0
VERTEX
8
OBJECT047
10
0
20
0
30
0
70
128
71
6
72
3
73
-2
0
VERTEX
8
OBJECT047
10
0
20
0
30
0
70
128
71
-6
72
2
73
7
0
VERTEX
8
OBJECT047
10
0
20
0
30
0
70
128
71
1
72
8
73
-7
0
VERTEX
8
OBJECT047
10
0
20
0
30
0
70
128
71
-1
72
7
73
2
0
VERTEX
8
OBJECT047
10
0
20
0
30
0
70
128
71
5
72
4
73
-3
0
VERTEX
8
OBJECT047
10
0
20
0
30
0
70
128
71
-5
72
3
73
6
0
SEQEND
8
OBJECT047
0
POLYLINE
8
OBJECT048
66
1
70
64
71
8
72
12
62
50
0
VERTEX
8
OBJECT048
10
-32.000000
20
-192.000000
30
187.428558
70
192
0
VERTEX
8
OBJECT048
10
-32.000008
20
-256.000000
30
187.428558
70
192
0
VERTEX
8
OBJECT048
10
-64.000008
20
-256.000000
30
187.428558
70
192
0
VERTEX
8
OBJECT048
10
-64.000008
20
-192.000000
30
187.428558
70
192
0
VERTEX
8
OBJECT048
10
-64.000008
20
-192.000000
30
4.571415
70
192
0
VERTEX
8
OBJECT048
10
-64.000008
20
-256.000000
30
4.571415
70
192
0
VERTEX
8
OBJECT048
10
-32.000008
20
-256.000000
30
4.571415
70
192
0
VERTEX
8
OBJECT048
10
-32.000000
20
-192.000000
30
4.571415
70
192
0
VERTEX
8
OBJECT048
10
0
20
0
30
0
70
128
71
2
72
3
73
-4
0
VERTEX
8
OBJECT048
10
0
20
0
30
0
70
128
71
-2
72
4
73
1
0
VERTEX
8
OBJECT048
10
0
20
0
30
0
70
128
71
6
72
7
73
-8
0
VERTEX
8
OBJECT048
10
0
20
0
30
0
70
128
71
-6
72
8
73
5
0
VERTEX
8
OBJECT048
10
0
20
0
30
0
70
128
71
4
72
5
73
-8
0
VERTEX
8
OBJECT048
10
0
20
0
30
0
70
128
71
-4
72
8
73
1
0
VERTEX
8
OBJECT048
10
0
20
0
30
0
70
128
71
6
72
3
73
-2
0
VERTEX
8
OBJECT048
10
0
20
0
30
0
70
128
71
-6
72
2
73
7
0
VERTEX
8
OBJECT048
10
0
20
0
30
0
70
128
71
1
72
8
73
-7
0
VERTEX
8
OBJECT048
10
0
20
0
30
0
70
128
71
-1
72
7
73
2
0
VERTEX
8
OBJECT048
10
0
20
0
30
0
70
128
71
5
72
4
73
-3
0
VERTEX
8
OBJECT048
10
0
20
0
30
0
70
128
71
-5
72
3
73
6
0
SEQEND
8
OBJECT048
0
POLYLINE
8
OBJECT049
66
1
70
64
71
8
72
12
62
50
0
VERTEX
8
OBJECT049
10
-31.999996
20
0.000000
30
187.428558
70
192
0
VERTEX
8
OBJECT049
10
-32.000000
20
-64.000000
30
187.428558
70
192
0
VERTEX
8
OBJECT049
10
-64.000000
20
-64.000000
30
187.428558
70
192
0
VERTEX
8
OBJECT049
10
-64.000000
20
0.000000
30
187.428558
70
192
0
VERTEX
8
OBJECT049
10
-64.000000
20
0.000000
30
4.571415
70
192
0
VERTEX
8
OBJECT049
10
-64.000000
20
-64.000000
30
4.571415
70
192
0
VERTEX
8
OBJECT049
10
-32.000000
20
-64.000000
30
4.571415
70
192
0
VERTEX
8
OBJECT049
10
-31.999996
20
0.000000
30
4.571415
70
192
0
VERTEX
8
OBJECT049
10
0
20
0
30
0
70
128
71
2
72
3
73
-4
0
VERTEX
8
OBJECT049
10
0
20
0
30
0
70
128
71
-2
72
4
73
1
0
VERTEX
8
OBJECT049
10
0
20
0
30
0
70
128
71
6
72
7
73
-8
0
VERTEX
8
OBJECT049
10
0
20
0
30
0
70
128
71
-6
72
8
73
5
0
VERTEX
8
OBJECT049
10
0
20
0
30
0
70
128
71
4
72
5
73
-8
0
VERTEX
8
OBJECT049
10
0
20
0
30
0
70
128
71
-4
72
8
73
1
0
VERTEX
8
OBJECT049
10
0
20
0
30
0
70
128
71
6
72
3
73
-2
0
VERTEX
8
OBJECT049
10
0
20
0
30
0
70
128
71
-6
72
2
73
7
0
VERTEX
8
OBJECT049
10
0
20
0
30
0
70
128
71
1
72
8
73
-7
0
VERTEX
8
OBJECT049
10
0
20
0
30
0
70
128
71
-1
72
7
73
2
0
VERTEX
8
OBJECT049
10
0
20
0
30
0
70
128
71
5
72
4
73
-3
0
VERTEX
8
OBJECT049
10
0
20
0
30
0
70
128
71
-5
72
3
73
6
0
SEQEND
8
OBJECT049
0
POLYLINE
8
OBJECT050
66
1
70
64
71
8
72
12
62
50
0
VERTEX
8
OBJECT050
10
-96.000000
20
0.000000
30
187.428558
70
192
0
VERTEX
8
OBJECT050
10
-96.000000
20
-96.000000
30
187.428558
70
192
0
VERTEX
8
OBJECT050
10
-128.000000
20
-96.000000
30
187.428558
70
192
0
VERTEX
8
OBJECT050
10
-128.000000
20
0.000000
30
187.428558
70
192
0
VERTEX
8
OBJECT050
10
-128.000000
20
0.000000
30
4.571415
70
192
0
VERTEX
8
OBJECT050
10
-128.000000
20
-96.000000
30
4.571415
70
192
0
VERTEX
8
OBJECT050
10
-96.000000
20
-96.000000
30
4.571415
70
192
0
VERTEX
8
OBJECT050
10
-96.000000
20
0.000000
30
4.571415
70
192
0
VERTEX
8
OBJECT050
10
0
20
0
30
0
70
128
71
2
72
3
73
-4
0
VERTEX
8
OBJECT050
10
0
20
0
30
0
70
128
71
-2
72
4
73
1
0
VERTEX
8
OBJECT050
10
0
20
0
30
0
70
128
71
6
72
7
73
-8
0
VERTEX
8
OBJECT050
10
0
20
0
30
0
70
128
71
-6
72
8
73
5
0
VERTEX
8
OBJECT050
10
0
20
0
30
0
70
128
71
4
72
5
73
-8
0
VERTEX
8
OBJECT050
10
0
20
0
30
0
70
128
71
-4
72
8
73
1
0
VERTEX
8
OBJECT050
10
0
20
0
30
0
70
128
71
6
72
3
73
-2
0
VERTEX
8
OBJECT050
10
0
20
0
30
0
70
128
71
-6
72
2
73
7
0
VERTEX
8
OBJECT050
10
0
20
0
30
0
70
128
71
1
72
8
73
-7
0
VERTEX
8
OBJECT050
10
0
20
0
30
0
70
128
71
-1
72
7
73
2
0
VERTEX
8
OBJECT050
10
0
20
0
30
0
70
128
71
5
72
4
73
-3
0
VERTEX
8
OBJECT050
10
0
20
0
30
0
70
128
71
-5
72
3
73
6
0
SEQEND
8
OBJECT050
0
POLYLINE
8
OBJECT051
66
1
70
64
71
8
72
12
62
50
0
VERTEX
8
OBJECT051
10
-512.000000
20
-1280.000000
30
4.571415
70
192
0
VERTEX
8
OBJECT051
10
-512.000000
20
-1024.000000
30
4.571415
70
192
0
VERTEX
8
OBJECT051
10
-256.000000
20
-1024.000000
30
4.571415
70
192
0
VERTEX
8
OBJECT051
10
-256.000000
20
-1280.000000
30
4.571415
70
192
0
VERTEX
8
OBJECT051
10
-512.000000
20
-1024.000000
30
-32.000015
70
192
0
VERTEX
8
OBJECT051
10
-512.000000
20
-1280.000000
30
-32.000015
70
192
0
VERTEX
8
OBJECT051
10
-256.000000
20
-1280.000000
30
-32.000015
70
192
0
VERTEX
8
OBJECT051
10
-256.000000
20
-1024.000000
30
-32.000015
70
192
0
VERTEX
8
OBJECT051
10
0
20
0
30
0
70
128
71
2
72
3
73
-4
0
VERTEX
8
OBJECT051
10
0
20
0
30
0
70
128
71
-2
72
4
73
1
0
VERTEX
8
OBJECT051
10
0
20
0
30
0
70
128
71
6
72
7
73
-8
0
VERTEX
8
OBJECT051
10
0
20
0
30
0
70
128
71
-6
72
8
73
5
0
VERTEX
8
OBJECT051
10
0
20
0
30
0
70
128
71
5
72
2
73
-1
0
VERTEX
8
OBJECT051
10
0
20
0
30
0
70
128
71
-5
72
1
73
6
0
VERTEX
8
OBJECT051
10
0
20
0
30
0
70
128
71
7
72
4
73
-3
0
VERTEX
8
OBJECT051
10
0
20
0
30
0
70
128
71
-7
72
3
73
8
0
VERTEX
8
OBJECT051
10
0
20
0
30
0
70
128
71
8
72
3
73
-2
0
VERTEX
8
OBJECT051
10
0
20
0
30
0
70
128
71
-8
72
2
73
5
0
VERTEX
8
OBJECT051
10
0
20
0
30
0
70
128
71
6
72
1
73
-4
0
VERTEX
8
OBJECT051
10
0
20
0
30
0
70
128
71
-6
72
4
73
7
0
SEQEND
8
OBJECT051
0
POLYLINE
8
OBJECT052
66
1
70
64
71
8
72
12
62
50
0
VERTEX
8
OBJECT052
10
-512.000000
20
-2304.000000
30
4.571415
70
192
0
VERTEX
8
OBJECT052
10
-512.000000
20
-2048.000000
30
4.571415
70
192
0
VERTEX
8
OBJECT052
10
-256.000000
20
-2048.000000
30
4.571415
70
192
0
VERTEX
8
OBJECT052
10
-256.000000
20
-2304.000000
30
4.571415
70
192
0
VERTEX
8
OBJECT052
10
-512.000000
20
-2048.000000
30
-32.000015
70
192
0
VERTEX
8
OBJECT052
10
-512.000000
20
-2304.000000
30
-32.000015
70
192
0
VERTEX
8
OBJECT052
10
-256.000000
20
-2304.000000
30
-32.000015
70
192
0
VERTEX
8
OBJECT052
10
-256.000000
20
-2048.000000
30
-32.000015
70
192
0
VERTEX
8
OBJECT052
10
0
20
0
30
0
70
128
71
2
72
3
73
-4
0
VERTEX
8
OBJECT052
10
0
20
0
30
0
70
128
71
-2
72
4
73
1
0
VERTEX
8
OBJECT052
10
0
20
0
30
0
70
128
71
6
72
7
73
-8
0
VERTEX
8
OBJECT052
10
0
20
0
30
0
70
128
71
-6
72
8
73
5
0
VERTEX
8
OBJECT052
10
0
20
0
30
0
70
128
71
5
72
2
73
-1
0
VERTEX
8
OBJECT052
10
0
20
0
30
0
70
128
71
-5
72
1
73
6
0
VERTEX
8
OBJECT052
10
0
20
0
30
0
70
128
71
7
72
4
73
-3
0
VERTEX
8
OBJECT052
10
0
20
0
30
0
70
128
71
-7
72
3
73
8
0
VERTEX
8
OBJECT052
10
0
20
0
30
0
70
128
71
8
72
3
73
-2
0
VERTEX
8
OBJECT052
10
0
20
0
30
0
70
128
71
-8
72
2
73
5
0
VERTEX
8
OBJECT052
10
0
20
0
30
0
70
128
71
6
72
1
73
-4
0
VERTEX
8
OBJECT052
10
0
20
0
30
0
70
128
71
-6
72
4
73
7
0
SEQEND
8
OBJECT052
0
POLYLINE
8
OBJECT053
66
1
70
64
71
8
72
12
62
50
0
VERTEX
8
OBJECT053
10
-320.000000
20
0.000000
30
187.428558
70
192
0
VERTEX
8
OBJECT053
10
-256.000000
20
0.000000
30
187.428558
70
192
0
VERTEX
8
OBJECT053
10
-256.000000
20
-32.000000
30
187.428558
70
192
0
VERTEX
8
OBJECT053
10
-320.000000
20
-32.000000
30
187.428558
70
192
0
VERTEX
8
OBJECT053
10
-320.000000
20
-32.000000
30
4.571415
70
192
0
VERTEX
8
OBJECT053
10
-256.000000
20
-32.000000
30
4.571415
70
192
0
VERTEX
8
OBJECT053
10
-256.000000
20
0.000000
30
4.571415
70
192
0
VERTEX
8
OBJECT053
10
-320.000000
20
0.000000
30
4.571415
70
192
0
VERTEX
8
OBJECT053
10
0
20
0
30
0
70
128
71
2
72
3
73
-4
0
VERTEX
8
OBJECT053
10
0
20
0
30
0
70
128
71
-2
72
4
73
1
0
VERTEX
8
OBJECT053
10
0
20
0
30
0
70
128
71
6
72
7
73
-8
0
VERTEX
8
OBJECT053
10
0
20
0
30
0
70
128
71
-6
72
8
73
5
0
VERTEX
8
OBJECT053
10
0
20
0
30
0
70
128
71
4
72
5
73
-8
0
VERTEX
8
OBJECT053
10
0
20
0
30
0
70
128
71
-4
72
8
73
1
0
VERTEX
8
OBJECT053
10
0
20
0
30
0
70
128
71
6
72
3
73
-2
0
VERTEX
8
OBJECT053
10
0
20
0
30
0
70
128
71
-6
72
2
73
7
0
VERTEX
8
OBJECT053
10
0
20
0
30
0
70
128
71
1
72
8
73
-7
0
VERTEX
8
OBJECT053
10
0
20
0
30
0
70
128
71
-1
72
7
73
2
0
VERTEX
8
OBJECT053
10
0
20
0
30
0
70
128
71
5
72
4
73
-3
0
VERTEX
8
OBJECT053
10
0
20
0
30
0
70
128
71
-5
72
3
73
6
0
SEQEND
8
OBJECT053
0
POLYLINE
8
OBJECT054
66
1
70
64
71
8
72
12
62
50
0
VERTEX
8
OBJECT054
10
-512.000000
20
0.000000
30
187.428558
70
192
0
VERTEX
8
OBJECT054
10
-448.000000
20
0.000000
30
187.428558
70
192
0
VERTEX
8
OBJECT054
10
-448.000000
20
-32.000000
30
187.428558
70
192
0
VERTEX
8
OBJECT054
10
-512.000000
20
-32.000000
30
187.428558
70
192
0
VERTEX
8
OBJECT054
10
-512.000000
20
-32.000000
30
4.571415
70
192
0
VERTEX
8
OBJECT054
10
-448.000000
20
-32.000000
30
4.571415
70
192
0
VERTEX
8
OBJECT054
10
-448.000000
20
0.000000
30
4.571415
70
192
0
VERTEX
8
OBJECT054
10
-512.000000
20
0.000000
30
4.571415
70
192
0
VERTEX
8
OBJECT054
10
0
20
0
30
0
70
128
71
2
72
3
73
-4
0
VERTEX
8
OBJECT054
10
0
20
0
30
0
70
128
71
-2
72
4
73
1
0
VERTEX
8
OBJECT054
10
0
20
0
30
0
70
128
71
6
72
7
73
-8
0
VERTEX
8
OBJECT054
10
0
20
0
30
0
70
128
71
-6
72
8
73
5
0
VERTEX
8
OBJECT054
10
0
20
0
30
0
70
128
71
4
72
5
73
-8
0
VERTEX
8
OBJECT054
10
0
20
0
30
0
70
128
71
-4
72
8
73
1
0
VERTEX
8
OBJECT054
10
0
20
0
30
0
70
128
71
6
72
3
73
-2
0
VERTEX
8
OBJECT054
10
0
20
0
30
0
70
128
71
-6
72
2
73
7
0
VERTEX
8
OBJECT054
10
0
20
0
30
0
70
128
71
1
72
8
73
-7
0
VERTEX
8
OBJECT054
10
0
20
0
30
0
70
128
71
-1
72
7
73
2
0
VERTEX
8
OBJECT054
10
0
20
0
30
0
70
128
71
5
72
4
73
-3
0
VERTEX
8
OBJECT054
10
0
20
0
30
0
70
128
71
-5
72
3
73
6
0
SEQEND
8
OBJECT054
0
POLYLINE
8
OBJECT055
66
1
70
64
71
8
72
12
62
50
0
VERTEX
8
OBJECT055
10
-480.000000
20
-160.000000
30
187.428558
70
192
0
VERTEX
8
OBJECT055
10
-480.000000
20
-256.000000
30
187.428558
70
192
0
VERTEX
8
OBJECT055
10
-512.000000
20
-256.000000
30
187.428558
70
192
0
VERTEX
8
OBJECT055
10
-512.000000
20
-160.000000
30
187.428558
70
192
0
VERTEX
8
OBJECT055
10
-512.000000
20
-160.000000
30
4.571415
70
192
0
VERTEX
8
OBJECT055
10
-512.000000
20
-256.000000
30
4.571415
70
192
0
VERTEX
8
OBJECT055
10
-480.000000
20
-256.000000
30
4.571415
70
192
0
VERTEX
8
OBJECT055
10
-480.000000
20
-160.000000
30
4.571415
70
192
0
VERTEX
8
OBJECT055
10
0
20
0
30
0
70
128
71
2
72
3
73
-4
0
VERTEX
8
OBJECT055
10
0
20
0
30
0
70
128
71
-2
72
4
73
1
0
VERTEX
8
OBJECT055
10
0
20
0
30
0
70
128
71
6
72
7
73
-8
0
VERTEX
8
OBJECT055
10
0
20
0
30
0
70
128
71
-6
72
8
73
5
0
VERTEX
8
OBJECT055
10
0
20
0
30
0
70
128
71
4
72
5
73
-8
0
VERTEX
8
OBJECT055
10
0
20
0
30
0
70
128
71
-4
72
8
73
1
0
VERTEX
8
OBJECT055
10
0
20
0
30
0
70
128
71
6
72
3
73
-2
0
VERTEX
8
OBJECT055
10
0
20
0
30
0
70
128
71
-6
72
2
73
7
0
VERTEX
8
OBJECT055
10
0
20
0
30
0
70
128
71
1
72
8
73
-7
0
VERTEX
8
OBJECT055
10
0
20
0
30
0
70
128
71
-1
72
7
73
2
0
VERTEX
8
OBJECT055
10
0
20
0
30
0
70
128
71
5
72
4
73
-3
0
VERTEX
8
OBJECT055
10
0
20
0
30
0
70
128
71
-5
72
3
73
6
0
SEQEND
8
OBJECT055
0
POLYLINE
8
OBJECT056
66
1
70
64
71
8
72
12
62
50
0
VERTEX
8
OBJECT056
10
-480.000000
20
0.000000
30
187.428558
70
192
0
VERTEX
8
OBJECT056
10
-480.000000
20
-96.000000
30
187.428558
70
192
0
VERTEX
8
OBJECT056
10
-512.000000
20
-96.000000
30
187.428558
70
192
0
VERTEX
8
OBJECT056
10
-512.000000
20
0.000000
30
187.428558
70
192
0
VERTEX
8
OBJECT056
10
-512.000000
20
0.000000
30
4.571415
70
192
0
VERTEX
8
OBJECT056
10
-512.000000
20
-96.000000
30
4.571415
70
192
0
VERTEX
8
OBJECT056
10
-480.000000
20
-96.000000
30
4.571415
70
192
0
VERTEX
8
OBJECT056
10
-480.000000
20
0.000000
30
4.571415
70
192
0
VERTEX
8
OBJECT056
10
0
20
0
30
0
70
128
71
2
72
3
73
-4
0
VERTEX
8
OBJECT056
10
0
20
0
30
0
70
128
71
-2
72
4
73
1
0
VERTEX
8
OBJECT056
10
0
20
0
30
0
70
128
71
6
72
7
73
-8
0
VERTEX
8
OBJECT056
10
0
20
0
30
0
70
128
71
-6
72
8
73
5
0
VERTEX
8
OBJECT056
10
0
20
0
30
0
70
128
71
4
72
5
73
-8
0
VERTEX
8
OBJECT056
10
0
20
0
30
0
70
128
71
-4
72
8
73
1
0
VERTEX
8
OBJECT056
10
0
20
0
30
0
70
128
71
6
72
3
73
-2
0
VERTEX
8
OBJECT056
10
0
20
0
30
0
70
128
71
-6
72
2
73
7
0
VERTEX
8
OBJECT056
10
0
20
0
30
0
70
128
71
1
72
8
73
-7
0
VERTEX
8
OBJECT056
10
0
20
0
30
0
70
128
71
-1
72
7
73
2
0
VERTEX
8
OBJECT056
10
0
20
0
30
0
70
128
71
5
72
4
73
-3
0
VERTEX
8
OBJECT056
10
0
20
0
30
0
70
128
71
-5
72
3
73
6
0
SEQEND
8
OBJECT056
0
POLYLINE
8
OBJECT057
66
1
70
64
71
8
72
12
62
50
0
VERTEX
8
OBJECT057
10
-256.000000
20
-160.000000
30
187.428558
70
192
0
VERTEX
8
OBJECT057
10
-256.000000
20
-256.000000
30
187.428558
70
192
0
VERTEX
8
OBJECT057
10
-288.000000
20
-256.000000
30
187.428558
70
192
0
VERTEX
8
OBJECT057
10
-288.000000
20
-160.000000
30
187.428558
70
192
0
VERTEX
8
OBJECT057
10
-288.000000
20
-160.000000
30
4.571415
70
192
0
VERTEX
8
OBJECT057
10
-288.000000
20
-256.000000
30
4.571415
70
192
0
VERTEX
8
OBJECT057
10
-256.000000
20
-256.000000
30
4.571415
70
192
0
VERTEX
8
OBJECT057
10
-256.000000
20
-160.000000
30
4.571415
70
192
0
VERTEX
8
OBJECT057
10
0
20
0
30
0
70
128
71
2
72
3
73
-4
0
VERTEX
8
OBJECT057
10
0
20
0
30
0
70
128
71
-2
72
4
73
1
0
VERTEX
8
OBJECT057
10
0
20
0
30
0
70
128
71
6
72
7
73
-8
0
VERTEX
8
OBJECT057
10
0
20
0
30
0
70
128
71
-6
72
8
73
5
0
VERTEX
8
OBJECT057
10
0
20
0
30
0
70
128
71
4
72
5
73
-8
0
VERTEX
8
OBJECT057
10
0
20
0
30
0
70
128
71
-4
72
8
73
1
0
VERTEX
8
OBJECT057
10
0
20
0
30
0
70
128
71
6
72
3
73
-2
0
VERTEX
8
OBJECT057
10
0
20
0
30
0
70
128
71
-6
72
2
73
7
0
VERTEX
8
OBJECT057
10
0
20
0
30
0
70
128
71
1
72
8
73
-7
0
VERTEX
8
OBJECT057
10
0
20
0
30
0
70
128
71
-1
72
7
73
2
0
VERTEX
8
OBJECT057
10
0
20
0
30
0
70
128
71
5
72
4
73
-3
0
VERTEX
8
OBJECT057
10
0
20
0
30
0
70
128
71
-5
72
3
73
6
0
SEQEND
8
OBJECT057
0
POLYLINE
8
OBJECT058
66
1
70
64
71
8
72
12
62
50
0
VERTEX
8
OBJECT058
10
-256.000000
20
0.000000
30
187.428558
70
192
0
VERTEX
8
OBJECT058
10
-256.000000
20
-96.000000
30
187.428558
70
192
0
VERTEX
8
OBJECT058
10
-288.000000
20
-96.000000
30
187.428558
70
192
0
VERTEX
8
OBJECT058
10
-288.000000
20
0.000000
30
187.428558
70
192
0
VERTEX
8
OBJECT058
10
-288.000000
20
0.000000
30
4.571415
70
192
0
VERTEX
8
OBJECT058
10
-288.000000
20
-96.000000
30
4.571415
70
192
0
VERTEX
8
OBJECT058
10
-256.000000
20
-96.000000
30
4.571415
70
192
0
VERTEX
8
OBJECT058
10
-256.000000
20
0.000000
30
4.571415
70
192
0
VERTEX
8
OBJECT058
10
0
20
0
30
0
70
128
71
2
72
3
73
-4
0
VERTEX
8
OBJECT058
10
0
20
0
30
0
70
128
71
-2
72
4
73
1
0
VERTEX
8
OBJECT058
10
0
20
0
30
0
70
128
71
6
72
7
73
-8
0
VERTEX
8
OBJECT058
10
0
20
0
30
0
70
128
71
-6
72
8
73
5
0
VERTEX
8
OBJECT058
10
0
20
0
30
0
70
128
71
4
72
5
73
-8
0
VERTEX
8
OBJECT058
10
0
20
0
30
0
70
128
71
-4
72
8
73
1
0
VERTEX
8
OBJECT058
10
0
20
0
30
0
70
128
71
6
72
3
73
-2
0
VERTEX
8
OBJECT058
10
0
20
0
30
0
70
128
71
-6
72
2
73
7
0
VERTEX
8
OBJECT058
10
0
20
0
30
0
70
128
71
1
72
8
73
-7
0
VERTEX
8
OBJECT058
10
0
20
0
30
0
70
128
71
-1
72
7
73
2
0
VERTEX
8
OBJECT058
10
0
20
0
30
0
70
128
71
5
72
4
73
-3
0
VERTEX
8
OBJECT058
10
0
20
0
30
0
70
128
71
-5
72
3
73
6
0
SEQEND
8
OBJECT058
0
POLYLINE
8
OBJECT059
66
1
70
64
71
8
72
12
62
50
0
VERTEX
8
OBJECT059
10
-512.000000
20
-224.000000
30
187.428558
70
192
0
VERTEX
8
OBJECT059
10
-256.000000
20
-224.000000
30
187.428558
70
192
0
VERTEX
8
OBJECT059
10
-256.000000
20
-256.000000
30
187.428558
70
192
0
VERTEX
8
OBJECT059
10
-512.000000
20
-256.000000
30
187.428558
70
192
0
VERTEX
8
OBJECT059
10
-512.000000
20
-256.000000
30
4.571415
70
192
0
VERTEX
8
OBJECT059
10
-256.000000
20
-256.000000
30
4.571415
70
192
0
VERTEX
8
OBJECT059
10
-256.000000
20
-224.000000
30
4.571415
70
192
0
VERTEX
8
OBJECT059
10
-512.000000
20
-224.000000
30
4.571415
70
192
0
VERTEX
8
OBJECT059
10
0
20
0
30
0
70
128
71
2
72
3
73
-4
0
VERTEX
8
OBJECT059
10
0
20
0
30
0
70
128
71
-2
72
4
73
1
0
VERTEX
8
OBJECT059
10
0
20
0
30
0
70
128
71
6
72
7
73
-8
0
VERTEX
8
OBJECT059
10
0
20
0
30
0
70
128
71
-6
72
8
73
5
0
VERTEX
8
OBJECT059
10
0
20
0
30
0
70
128
71
4
72
5
73
-8
0
VERTEX
8
OBJECT059
10
0
20
0
30
0
70
128
71
-4
72
8
73
1
0
VERTEX
8
OBJECT059
10
0
20
0
30
0
70
128
71
6
72
3
73
-2
0
VERTEX
8
OBJECT059
10
0
20
0
30
0
70
128
71
-6
72
2
73
7
0
VERTEX
8
OBJECT059
10
0
20
0
30
0
70
128
71
1
72
8
73
-7
0
VERTEX
8
OBJECT059
10
0
20
0
30
0
70
128
71
-1
72
7
73
2
0
VERTEX
8
OBJECT059
10
0
20
0
30
0
70
128
71
5
72
4
73
-3
0
VERTEX
8
OBJECT059
10
0
20
0
30
0
70
128
71
-5
72
3
73
6
0
SEQEND
8
OBJECT059
0
POLYLINE
8
OBJECT060
66
1
70
64
71
8
72
12
62
50
0
VERTEX
8
OBJECT060
10
-352.000000
20
-1024.000000
30
187.428558
70
192
0
VERTEX
8
OBJECT060
10
-256.000000
20
-1024.000000
30
187.428558
70
192
0
VERTEX
8
OBJECT060
10
-256.000000
20
-1056.000000
30
187.428558
70
192
0
VERTEX
8
OBJECT060
10
-352.000000
20
-1056.000000
30
187.428558
70
192
0
VERTEX
8
OBJECT060
10
-352.000000
20
-1056.000000
30
4.571415
70
192
0
VERTEX
8
OBJECT060
10
-256.000000
20
-1056.000000
30
4.571415
70
192
0
VERTEX
8
OBJECT060
10
-256.000000
20
-1024.000000
30
4.571415
70
192
0
VERTEX
8
OBJECT060
10
-352.000000
20
-1024.000000
30
4.571415
70
192
0
VERTEX
8
OBJECT060
10
0
20
0
30
0
70
128
71
2
72
3
73
-4
0
VERTEX
8
OBJECT060
10
0
20
0
30
0
70
128
71
-2
72
4
73
1
0
VERTEX
8
OBJECT060
10
0
20
0
30
0
70
128
71
6
72
7
73
-8
0
VERTEX
8
OBJECT060
10
0
20
0
30
0
70
128
71
-6
72
8
73
5
0
VERTEX
8
OBJECT060
10
0
20
0
30
0
70
128
71
4
72
5
73
-8
0
VERTEX
8
OBJECT060
10
0
20
0
30
0
70
128
71
-4
72
8
73
1
0
VERTEX
8
OBJECT060
10
0
20
0
30
0
70
128
71
6
72
3
73
-2
0
VERTEX
8
OBJECT060
10
0
20
0
30
0
70
128
71
-6
72
2
73
7
0
VERTEX
8
OBJECT060
10
0
20
0
30
0
70
128
71
1
72
8
73
-7
0
VERTEX
8
OBJECT060
10
0
20
0
30
0
70
128
71
-1
72
7
73
2
0
VERTEX
8
OBJECT060
10
0
20
0
30
0
70
128
71
5
72
4
73
-3
0
VERTEX
8
OBJECT060
10
0
20
0
30
0
70
128
71
-5
72
3
73
6
0
SEQEND
8
OBJECT060
0
POLYLINE
8
OBJECT061
66
1
70
64
71
8
72
12
62
50
0
VERTEX
8
OBJECT061
10
-512.000000
20
-1024.000000
30
187.428558
70
192
0
VERTEX
8
OBJECT061
10
-416.000000
20
-1024.000000
30
187.428558
70
192
0
VERTEX
8
OBJECT061
10
-416.000000
20
-1056.000000
30
187.428558
70
192
0
VERTEX
8
OBJECT061
10
-512.000000
20
-1056.000000
30
187.428558
70
192
0
VERTEX
8
OBJECT061
10
-512.000000
20
-1056.000000
30
4.571415
70
192
0
VERTEX
8
OBJECT061
10
-416.000000
20
-1056.000000
30
4.571415
70
192
0
VERTEX
8
OBJECT061
10
-416.000000
20
-1024.000000
30
4.571415
70
192
0
VERTEX
8
OBJECT061
10
-512.000000
20
-1024.000000
30
4.571415
70
192
0
VERTEX
8
OBJECT061
10
0
20
0
30
0
70
128
71
2
72
3
73
-4
0
VERTEX
8
OBJECT061
10
0
20
0
30
0
70
128
71
-2
72
4
73
1
0
VERTEX
8
OBJECT061
10
0
20
0
30
0
70
128
71
6
72
7
73
-8
0
VERTEX
8
OBJECT061
10
0
20
0
30
0
70
128
71
-6
72
8
73
5
0
VERTEX
8
OBJECT061
10
0
20
0
30
0
70
128
71
4
72
5
73
-8
0
VERTEX
8
OBJECT061
10
0
20
0
30
0
70
128
71
-4
72
8
73
1
0
VERTEX
8
OBJECT061
10
0
20
0
30
0
70
128
71
6
72
3
73
-2
0
VERTEX
8
OBJECT061
10
0
20
0
30
0
70
128
71
-6
72
2
73
7
0
VERTEX
8
OBJECT061
10
0
20
0
30
0
70
128
71
1
72
8
73
-7
0
VERTEX
8
OBJECT061
10
0
20
0
30
0
70
128
71
-1
72
7
73
2
0
VERTEX
8
OBJECT061
10
0
20
0
30
0
70
128
71
5
72
4
73
-3
0
VERTEX
8
OBJECT061
10
0
20
0
30
0
70
128
71
-5
72
3
73
6
0
SEQEND
8
OBJECT061
0
POLYLINE
8
OBJECT062
66
1
70
64
71
8
72
12
62
50
0
VERTEX
8
OBJECT062
10
-352.000000
20
-1248.000000
30
187.428558
70
192
0
VERTEX
8
OBJECT062
10
-256.000000
20
-1248.000000
30
187.428558
70
192
0
VERTEX
8
OBJECT062
10
-256.000000
20
-1280.000000
30
187.428558
70
192
0
VERTEX
8
OBJECT062
10
-352.000000
20
-1280.000000
30
187.428558
70
192
0
VERTEX
8
OBJECT062
10
-352.000000
20
-1280.000000
30
4.571415
70
192
0
VERTEX
8
OBJECT062
10
-256.000000
20
-1280.000000
30
4.571415
70
192
0
VERTEX
8
OBJECT062
10
-256.000000
20
-1248.000000
30
4.571415
70
192
0
VERTEX
8
OBJECT062
10
-352.000000
20
-1248.000000
30
4.571415
70
192
0
VERTEX
8
OBJECT062
10
0
20
0
30
0
70
128
71
2
72
3
73
-4
0
VERTEX
8
OBJECT062
10
0
20
0
30
0
70
128
71
-2
72
4
73
1
0
VERTEX
8
OBJECT062
10
0
20
0
30
0
70
128
71
6
72
7
73
-8
0
VERTEX
8
OBJECT062
10
0
20
0
30
0
70
128
71
-6
72
8
73
5
0
VERTEX
8
OBJECT062
10
0
20
0
30
0
70
128
71
4
72
5
73
-8
0
VERTEX
8
OBJECT062
10
0
20
0
30
0
70
128
71
-4
72
8
73
1
0
VERTEX
8
OBJECT062
10
0
20
0
30
0
70
128
71
6
72
3
73
-2
0
VERTEX
8
OBJECT062
10
0
20
0
30
0
70
128
71
-6
72
2
73
7
0
VERTEX
8
OBJECT062
10
0
20
0
30
0
70
128
71
1
72
8
73
-7
0
VERTEX
8
OBJECT062
10
0
20
0
30
0
70
128
71
-1
72
7
73
2
0
VERTEX
8
OBJECT062
10
0
20
0
30
0
70
128
71
5
72
4
73
-3
0
VERTEX
8
OBJECT062
10
0
20
0
30
0
70
128
71
-5
72
3
73
6
0
SEQEND
8
OBJECT062
0
POLYLINE
8
OBJECT063
66
1
70
64
71
8
72
12
62
50
0
VERTEX
8
OBJECT063
10
-512.000000
20
-1248.000000
30
187.428558
70
192
0
VERTEX
8
OBJECT063
10
-416.000000
20
-1248.000000
30
187.428558
70
192
0
VERTEX
8
OBJECT063
10
-416.000000
20
-1280.000000
30
187.428558
70
192
0
VERTEX
8
OBJECT063
10
-512.000000
20
-1280.000000
30
187.428558
70
192
0
VERTEX
8
OBJECT063
10
-512.000000
20
-1280.000000
30
4.571415
70
192
0
VERTEX
8
OBJECT063
10
-416.000000
20
-1280.000000
30
4.571415
70
192
0
VERTEX
8
OBJECT063
10
-416.000000
20
-1248.000000
30
4.571415
70
192
0
VERTEX
8
OBJECT063
10
-512.000000
20
-1248.000000
30
4.571415
70
192
0
VERTEX
8
OBJECT063
10
0
20
0
30
0
70
128
71
2
72
3
73
-4
0
VERTEX
8
OBJECT063
10
0
20
0
30
0
70
128
71
-2
72
4
73
1
0
VERTEX
8
OBJECT063
10
0
20
0
30
0
70
128
71
6
72
7
73
-8
0
VERTEX
8
OBJECT063
10
0
20
0
30
0
70
128
71
-6
72
8
73
5
0
VERTEX
8
OBJECT063
10
0
20
0
30
0
70
128
71
4
72
5
73
-8
0
VERTEX
8
OBJECT063
10
0
20
0
30
0
70
128
71
-4
72
8
73
1
0
VERTEX
8
OBJECT063
10
0
20
0
30
0
70
128
71
6
72
3
73
-2
0
VERTEX
8
OBJECT063
10
0
20
0
30
0
70
128
71
-6
72
2
73
7
0
VERTEX
8
OBJECT063
10
0
20
0
30
0
70
128
71
1
72
8
73
-7
0
VERTEX
8
OBJECT063
10
0
20
0
30
0
70
128
71
-1
72
7
73
2
0
VERTEX
8
OBJECT063
10
0
20
0
30
0
70
128
71
5
72
4
73
-3
0
VERTEX
8
OBJECT063
10
0
20
0
30
0
70
128
71
-5
72
3
73
6
0
SEQEND
8
OBJECT063
0
POLYLINE
8
OBJECT064
66
1
70
64
71
8
72
12
62
50
0
VERTEX
8
OBJECT064
10
-256.000000
20
-1024.000000
30
187.428558
70
192
0
VERTEX
8
OBJECT064
10
-256.000000
20
-1088.000000
30
187.428558
70
192
0
VERTEX
8
OBJECT064
10
-288.000000
20
-1088.000000
30
187.428558
70
192
0
VERTEX
8
OBJECT064
10
-288.000000
20
-1024.000000
30
187.428558
70
192
0
VERTEX
8
OBJECT064
10
-288.000000
20
-1024.000000
30
4.571415
70
192
0
VERTEX
8
OBJECT064
10
-288.000000
20
-1088.000000
30
4.571415
70
192
0
VERTEX
8
OBJECT064
10
-256.000000
20
-1088.000000
30
4.571415
70
192
0
VERTEX
8
OBJECT064
10
-256.000000
20
-1024.000000
30
4.571415
70
192
0
VERTEX
8
OBJECT064
10
0
20
0
30
0
70
128
71
2
72
3
73
-4
0
VERTEX
8
OBJECT064
10
0
20
0
30
0
70
128
71
-2
72
4
73
1
0
VERTEX
8
OBJECT064
10
0
20
0
30
0
70
128
71
6
72
7
73
-8
0
VERTEX
8
OBJECT064
10
0
20
0
30
0
70
128
71
-6
72
8
73
5
0
VERTEX
8
OBJECT064
10
0
20
0
30
0
70
128
71
4
72
5
73
-8
0
VERTEX
8
OBJECT064
10
0
20
0
30
0
70
128
71
-4
72
8
73
1
0
VERTEX
8
OBJECT064
10
0
20
0
30
0
70
128
71
6
72
3
73
-2
0
VERTEX
8
OBJECT064
10
0
20
0
30
0
70
128
71
-6
72
2
73
7
0
VERTEX
8
OBJECT064
10
0
20
0
30
0
70
128
71
1
72
8
73
-7
0
VERTEX
8
OBJECT064
10
0
20
0
30
0
70
128
71
-1
72
7
73
2
0
VERTEX
8
OBJECT064
10
0
20
0
30
0
70
128
71
5
72
4
73
-3
0
VERTEX
8
OBJECT064
10
0
20
0
30
0
70
128
71
-5
72
3
73
6
0
SEQEND
8
OBJECT064
0
POLYLINE
8
OBJECT065
66
1
70
64
71
8
72
12
62
50
0
VERTEX
8
OBJECT065
10
-256.000000
20
-1216.000000
30
187.428558
70
192
0
VERTEX
8
OBJECT065
10
-256.000000
20
-1280.000000
30
187.428558
70
192
0
VERTEX
8
OBJECT065
10
-288.000000
20
-1280.000000
30
187.428558
70
192
0
VERTEX
8
OBJECT065
10
-288.000000
20
-1216.000000
30
187.428558
70
192
0
VERTEX
8
OBJECT065
10
-288.000000
20
-1216.000000
30
4.571415
70
192
0
VERTEX
8
OBJECT065
10
-288.000000
20
-1280.000000
30
4.571415
70
192
0
VERTEX
8
OBJECT065
10
-256.000000
20
-1280.000000
30
4.571415
70
192
0
VERTEX
8
OBJECT065
10
-256.000000
20
-1216.000000
30
4.571415
70
192
0
VERTEX
8
OBJECT065
10
0
20
0
30
0
70
128
71
2
72
3
73
-4
0
VERTEX
8
OBJECT065
10
0
20
0
30
0
70
128
71
-2
72
4
73
1
0
VERTEX
8
OBJECT065
10
0
20
0
30
0
70
128
71
6
72
7
73
-8
0
VERTEX
8
OBJECT065
10
0
20
0
30
0
70
128
71
-6
72
8
73
5
0
VERTEX
8
OBJECT065
10
0
20
0
30
0
70
128
71
4
72
5
73
-8
0
VERTEX
8
OBJECT065
10
0
20
0
30
0
70
128
71
-4
72
8
73
1
0
VERTEX
8
OBJECT065
10
0
20
0
30
0
70
128
71
6
72
3
73
-2
0
VERTEX
8
OBJECT065
10
0
20
0
30
0
70
128
71
-6
72
2
73
7
0
VERTEX
8
OBJECT065
10
0
20
0
30
0
70
128
71
1
72
8
73
-7
0
VERTEX
8
OBJECT065
10
0
20
0
30
0
70
128
71
-1
72
7
73
2
0
VERTEX
8
OBJECT065
10
0
20
0
30
0
70
128
71
5
72
4
73
-3
0
VERTEX
8
OBJECT065
10
0
20
0
30
0
70
128
71
-5
72
3
73
6
0
SEQEND
8
OBJECT065
0
POLYLINE
8
OBJECT066
66
1
70
64
71
8
72
12
62
50
0
VERTEX
8
OBJECT066
10
-480.000000
20
-1024.000000
30
187.428558
70
192
0
VERTEX
8
OBJECT066
10
-480.000000
20
-1088.000000
30
187.428558
70
192
0
VERTEX
8
OBJECT066
10
-512.000000
20
-1088.000000
30
187.428558
70
192
0
VERTEX
8
OBJECT066
10
-512.000000
20
-1024.000000
30
187.428558
70
192
0
VERTEX
8
OBJECT066
10
-512.000000
20
-1024.000000
30
4.571415
70
192
0
VERTEX
8
OBJECT066
10
-512.000000
20
-1088.000000
30
4.571415
70
192
0
VERTEX
8
OBJECT066
10
-480.000000
20
-1088.000000
30
4.571415
70
192
0
VERTEX
8
OBJECT066
10
-480.000000
20
-1024.000000
30
4.571415
70
192
0
VERTEX
8
OBJECT066
10
0
20
0
30
0
70
128
71
2
72
3
73
-4
0
VERTEX
8
OBJECT066
10
0
20
0
30
0
70
128
71
-2
72
4
73
1
0
VERTEX
8
OBJECT066
10
0
20
0
30
0
70
128
71
6
72
7
73
-8
0
VERTEX
8
OBJECT066
10
0
20
0
30
0
70
128
71
-6
72
8
73
5
0
VERTEX
8
OBJECT066
10
0
20
0
30
0
70
128
71
4
72
5
73
-8
0
VERTEX
8
OBJECT066
10
0
20
0
30
0
70
128
71
-4
72
8
73
1
0
VERTEX
8
OBJECT066
10
0
20
0
30
0
70
128
71
6
72
3
73
-2
0
VERTEX
8
OBJECT066
10
0
20
0
30
0
70
128
71
-6
72
2
73
7
0
VERTEX
8
OBJECT066
10
0
20
0
30
0
70
128
71
1
72
8
73
-7
0
VERTEX
8
OBJECT066
10
0
20
0
30
0
70
128
71
-1
72
7
73
2
0
VERTEX
8
OBJECT066
10
0
20
0
30
0
70
128
71
5
72
4
73
-3
0
VERTEX
8
OBJECT066
10
0
20
0
30
0
70
128
71
-5
72
3
73
6
0
SEQEND
8
OBJECT066
0
POLYLINE
8
OBJECT067
66
1
70
64
71
8
72
12
62
50
0
VERTEX
8
OBJECT067
10
-480.000000
20
-1216.000000
30
187.428558
70
192
0
VERTEX
8
OBJECT067
10
-480.000000
20
-1280.000000
30
187.428558
70
192
0
VERTEX
8
OBJECT067
10
-512.000000
20
-1280.000000
30
187.428558
70
192
0
VERTEX
8
OBJECT067
10
-512.000000
20
-1216.000000
30
187.428558
70
192
0
VERTEX
8
OBJECT067
10
-512.000000
20
-1216.000000
30
4.571415
70
192
0
VERTEX
8
OBJECT067
10
-512.000000
20
-1280.000000
30
4.571415
70
192
0
VERTEX
8
OBJECT067
10
-480.000000
20
-1280.000000
30
4.571415
70
192
0
VERTEX
8
OBJECT067
10
-480.000000
20
-1216.000000
30
4.571415
70
192
0
VERTEX
8
OBJECT067
10
0
20
0
30
0
70
128
71
2
72
3
73
-4
0
VERTEX
8
OBJECT067
10
0
20
0
30
0
70
128
71
-2
72
4
73
1
0
VERTEX
8
OBJECT067
10
0
20
0
30
0
70
128
71
6
72
7
73
-8
0
VERTEX
8
OBJECT067
10
0
20
0
30
0
70
128
71
-6
72
8
73
5
0
VERTEX
8
OBJECT067
10
0
20
0
30
0
70
128
71
4
72
5
73
-8
0
VERTEX
8
OBJECT067
10
0
20
0
30
0
70
128
71
-4
72
8
73
1
0
VERTEX
8
OBJECT067
10
0
20
0
30
0
70
128
71
6
72
3
73
-2
0
VERTEX
8
OBJECT067
10
0
20
0
30
0
70
128
71
-6
72
2
73
7
0
VERTEX
8
OBJECT067
10
0
20
0
30
0
70
128
71
1
72
8
73
-7
0
VERTEX
8
OBJECT067
10
0
20
0
30
0
70
128
71
-1
72
7
73
2
0
VERTEX
8
OBJECT067
10
0
20
0
30
0
70
128
71
5
72
4
73
-3
0
VERTEX
8
OBJECT067
10
0
20
0
30
0
70
128
71
-5
72
3
73
6
0
SEQEND
8
OBJECT067
0
POLYLINE
8
OBJECT068
66
1
70
64
71
8
72
12
62
50
0
VERTEX
8
OBJECT068
10
-256.000000
20
-2240.000000
30
187.428558
70
192
0
VERTEX
8
OBJECT068
10
-256.000000
20
-2304.000000
30
187.428558
70
192
0
VERTEX
8
OBJECT068
10
-288.000000
20
-2304.000000
30
187.428558
70
192
0
VERTEX
8
OBJECT068
10
-288.000000
20
-2240.000000
30
187.428558
70
192
0
VERTEX
8
OBJECT068
10
-288.000000
20
-2240.000000
30
4.571415
70
192
0
VERTEX
8
OBJECT068
10
-288.000000
20
-2304.000000
30
4.571415
70
192
0
VERTEX
8
OBJECT068
10
-256.000000
20
-2304.000000
30
4.571415
70
192
0
VERTEX
8
OBJECT068
10
-256.000000
20
-2240.000000
30
4.571415
70
192
0
VERTEX
8
OBJECT068
10
0
20
0
30
0
70
128
71
2
72
3
73
-4
0
VERTEX
8
OBJECT068
10
0
20
0
30
0
70
128
71
-2
72
4
73
1
0
VERTEX
8
OBJECT068
10
0
20
0
30
0
70
128
71
6
72
7
73
-8
0
VERTEX
8
OBJECT068
10
0
20
0
30
0
70
128
71
-6
72
8
73
5
0
VERTEX
8
OBJECT068
10
0
20
0
30
0
70
128
71
4
72
5
73
-8
0
VERTEX
8
OBJECT068
10
0
20
0
30
0
70
128
71
-4
72
8
73
1
0
VERTEX
8
OBJECT068
10
0
20
0
30
0
70
128
71
6
72
3
73
-2
0
VERTEX
8
OBJECT068
10
0
20
0
30
0
70
128
71
-6
72
2
73
7
0
VERTEX
8
OBJECT068
10
0
20
0
30
0
70
128
71
1
72
8
73
-7
0
VERTEX
8
OBJECT068
10
0
20
0
30
0
70
128
71
-1
72
7
73
2
0
VERTEX
8
OBJECT068
10
0
20
0
30
0
70
128
71
5
72
4
73
-3
0
VERTEX
8
OBJECT068
10
0
20
0
30
0
70
128
71
-5
72
3
73
6
0
SEQEND
8
OBJECT068
0
POLYLINE
8
OBJECT069
66
1
70
64
71
8
72
12
62
50
0
VERTEX
8
OBJECT069
10
-256.000000
20
-2048.000000
30
187.428558
70
192
0
VERTEX
8
OBJECT069
10
-256.000000
20
-2112.000000
30
187.428558
70
192
0
VERTEX
8
OBJECT069
10
-288.000000
20
-2112.000000
30
187.428558
70
192
0
VERTEX
8
OBJECT069
10
-288.000000
20
-2048.000000
30
187.428558
70
192
0
VERTEX
8
OBJECT069
10
-288.000000
20
-2048.000000
30
4.571415
70
192
0
VERTEX
8
OBJECT069
10
-288.000000
20
-2112.000000
30
4.571415
70
192
0
VERTEX
8
OBJECT069
10
-256.000000
20
-2112.000000
30
4.571415
70
192
0
VERTEX
8
OBJECT069
10
-256.000000
20
-2048.000000
30
4.571415
70
192
0
VERTEX
8
OBJECT069
10
0
20
0
30
0
70
128
71
2
72
3
73
-4
0
VERTEX
8
OBJECT069
10
0
20
0
30
0
70
128
71
-2
72
4
73
1
0
VERTEX
8
OBJECT069
10
0
20
0
30
0
70
128
71
6
72
7
73
-8
0
VERTEX
8
OBJECT069
10
0
20
0
30
0
70
128
71
-6
72
8
73
5
0
VERTEX
8
OBJECT069
10
0
20
0
30
0
70
128
71
4
72
5
73
-8
0
VERTEX
8
OBJECT069
10
0
20
0
30
0
70
128
71
-4
72
8
73
1
0
VERTEX
8
OBJECT069
10
0
20
0
30
0
70
128
71
6
72
3
73
-2
0
VERTEX
8
OBJECT069
10
0
20
0
30
0
70
128
71
-6
72
2
73
7
0
VERTEX
8
OBJECT069
10
0
20
0
30
0
70
128
71
1
72
8
73
-7
0
VERTEX
8
OBJECT069
10
0
20
0
30
0
70
128
71
-1
72
7
73
2
0
VERTEX
8
OBJECT069
10
0
20
0
30
0
70
128
71
5
72
4
73
-3
0
VERTEX
8
OBJECT069
10
0
20
0
30
0
70
128
71
-5
72
3
73
6
0
SEQEND
8
OBJECT069
0
POLYLINE
8
OBJECT070
66
1
70
64
71
8
72
12
62
50
0
VERTEX
8
OBJECT070
10
-480.000000
20
-2240.000000
30
187.428558
70
192
0
VERTEX
8
OBJECT070
10
-480.000000
20
-2304.000000
30
187.428558
70
192
0
VERTEX
8
OBJECT070
10
-512.000000
20
-2304.000000
30
187.428558
70
192
0
VERTEX
8
OBJECT070
10
-512.000000
20
-2240.000000
30
187.428558
70
192
0
VERTEX
8
OBJECT070
10
-512.000000
20
-2240.000000
30
4.571415
70
192
0
VERTEX
8
OBJECT070
10
-512.000000
20
-2304.000000
30
4.571415
70
192
0
VERTEX
8
OBJECT070
10
-480.000000
20
-2304.000000
30
4.571415
70
192
0
VERTEX
8
OBJECT070
10
-480.000000
20
-2240.000000
30
4.571415
70
192
0
VERTEX
8
OBJECT070
10
0
20
0
30
0
70
128
71
2
72
3
73
-4
0
VERTEX
8
OBJECT070
10
0
20
0
30
0
70
128
71
-2
72
4
73
1
0
VERTEX
8
OBJECT070
10
0
20
0
30
0
70
128
71
6
72
7
73
-8
0
VERTEX
8
OBJECT070
10
0
20
0
30
0
70
128
71
-6
72
8
73
5
0
VERTEX
8
OBJECT070
10
0
20
0
30
0
70
128
71
4
72
5
73
-8
0
VERTEX
8
OBJECT070
10
0
20
0
30
0
70
128
71
-4
72
8
73
1
0
VERTEX
8
OBJECT070
10
0
20
0
30
0
70
128
71
6
72
3
73
-2
0
VERTEX
8
OBJECT070
10
0
20
0
30
0
70
128
71
-6
72
2
73
7
0
VERTEX
8
OBJECT070
10
0
20
0
30
0
70
128
71
1
72
8
73
-7
0
VERTEX
8
OBJECT070
10
0
20
0
30
0
70
128
71
-1
72
7
73
2
0
VERTEX
8
OBJECT070
10
0
20
0
30
0
70
128
71
5
72
4
73
-3
0
VERTEX
8
OBJECT070
10
0
20
0
30
0
70
128
71
-5
72
3
73
6
0
SEQEND
8
OBJECT070
0
POLYLINE
8
OBJECT071
66
1
70
64
71
8
72
12
62
50
0
VERTEX
8
OBJECT071
10
-480.000000
20
-2048.000000
30
187.428558
70
192
0
VERTEX
8
OBJECT071
10
-480.000000
20
-2112.000000
30
187.428558
70
192
0
VERTEX
8
OBJECT071
10
-512.000000
20
-2112.000000
30
187.428558
70
192
0
VERTEX
8
OBJECT071
10
-512.000000
20
-2048.000000
30
187.428558
70
192
0
VERTEX
8
OBJECT071
10
-512.000000
20
-2048.000000
30
4.571415
70
192
0
VERTEX
8
OBJECT071
10
-512.000000
20
-2112.000000
30
4.571415
70
192
0
VERTEX
8
OBJECT071
10
-480.000000
20
-2112.000000
30
4.571415
70
192
0
VERTEX
8
OBJECT071
10
-480.000000
20
-2048.000000
30
4.571415
70
192
0
VERTEX
8
OBJECT071
10
0
20
0
30
0
70
128
71
2
72
3
73
-4
0
VERTEX
8
OBJECT071
10
0
20
0
30
0
70
128
71
-2
72
4
73
1
0
VERTEX
8
OBJECT071
10
0
20
0
30
0
70
128
71
6
72
7
73
-8
0
VERTEX
8
OBJECT071
10
0
20
0
30
0
70
128
71
-6
72
8
73
5
0
VERTEX
8
OBJECT071
10
0
20
0
30
0
70
128
71
4
72
5
73
-8
0
VERTEX
8
OBJECT071
10
0
20
0
30
0
70
128
71
-4
72
8
73
1
0
VERTEX
8
OBJECT071
10
0
20
0
30
0
70
128
71
6
72
3
73
-2
0
VERTEX
8
OBJECT071
10
0
20
0
30
0
70
128
71
-6
72
2
73
7
0
VERTEX
8
OBJECT071
10
0
20
0
30
0
70
128
71
1
72
8
73
-7
0
VERTEX
8
OBJECT071
10
0
20
0
30
0
70
128
71
-1
72
7
73
2
0
VERTEX
8
OBJECT071
10
0
20
0
30
0
70
128
71
5
72
4
73
-3
0
VERTEX
8
OBJECT071
10
0
20
0
30
0
70
128
71
-5
72
3
73
6
0
SEQEND
8
OBJECT071
0
POLYLINE
8
OBJECT072
66
1
70
64
71
8
72
12
62
50
0
VERTEX
8
OBJECT072
10
-352.000000
20
-2048.000000
30
187.428558
70
192
0
VERTEX
8
OBJECT072
10
-256.000000
20
-2048.000000
30
187.428558
70
192
0
VERTEX
8
OBJECT072
10
-256.000000
20
-2080.000000
30
187.428558
70
192
0
VERTEX
8
OBJECT072
10
-352.000000
20
-2080.000000
30
187.428558
70
192
0
VERTEX
8
OBJECT072
10
-352.000000
20
-2080.000000
30
4.571415
70
192
0
VERTEX
8
OBJECT072
10
-256.000000
20
-2080.000000
30
4.571415
70
192
0
VERTEX
8
OBJECT072
10
-256.000000
20
-2048.000000
30
4.571415
70
192
0
VERTEX
8
OBJECT072
10
-352.000000
20
-2048.000000
30
4.571415
70
192
0
VERTEX
8
OBJECT072
10
0
20
0
30
0
70
128
71
2
72
3
73
-4
0
VERTEX
8
OBJECT072
10
0
20
0
30
0
70
128
71
-2
72
4
73
1
0
VERTEX
8
OBJECT072
10
0
20
0
30
0
70
128
71
6
72
7
73
-8
0
VERTEX
8
OBJECT072
10
0
20
0
30
0
70
128
71
-6
72
8
73
5
0
VERTEX
8
OBJECT072
10
0
20
0
30
0
70
128
71
4
72
5
73
-8
0
VERTEX
8
OBJECT072
10
0
20
0
30
0
70
128
71
-4
72
8
73
1
0
VERTEX
8
OBJECT072
10
0
20
0
30
0
70
128
71
6
72
3
73
-2
0
VERTEX
8
OBJECT072
10
0
20
0
30
0
70
128
71
-6
72
2
73
7
0
VERTEX
8
OBJECT072
10
0
20
0
30
0
70
128
71
1
72
8
73
-7
0
VERTEX
8
OBJECT072
10
0
20
0
30
0
70
128
71
-1
72
7
73
2
0
VERTEX
8
OBJECT072
10
0
20
0
30
0
70
128
71
5
72
4
73
-3
0
VERTEX
8
OBJECT072
10
0
20
0
30
0
70
128
71
-5
72
3
73
6
0
SEQEND
8
OBJECT072
0
POLYLINE
8
OBJECT073
66
1
70
64
71
8
72
12
62
50
0
VERTEX
8
OBJECT073
10
-512.000000
20
-2048.000000
30
187.428558
70
192
0
VERTEX
8
OBJECT073
10
-416.000000
20
-2048.000000
30
187.428558
70
192
0
VERTEX
8
OBJECT073
10
-416.000000
20
-2080.000000
30
187.428558
70
192
0
VERTEX
8
OBJECT073
10
-512.000000
20
-2080.000000
30
187.428558
70
192
0
VERTEX
8
OBJECT073
10
-512.000000
20
-2080.000000
30
4.571415
70
192
0
VERTEX
8
OBJECT073
10
-416.000000
20
-2080.000000
30
4.571415
70
192
0
VERTEX
8
OBJECT073
10
-416.000000
20
-2048.000000
30
4.571415
70
192
0
VERTEX
8
OBJECT073
10
-512.000000
20
-2048.000000
30
4.571415
70
192
0
VERTEX
8
OBJECT073
10
0
20
0
30
0
70
128
71
2
72
3
73
-4
0
VERTEX
8
OBJECT073
10
0
20
0
30
0
70
128
71
-2
72
4
73
1
0
VERTEX
8
OBJECT073
10
0
20
0
30
0
70
128
71
6
72
7
73
-8
0
VERTEX
8
OBJECT073
10
0
20
0
30
0
70
128
71
-6
72
8
73
5
0
VERTEX
8
OBJECT073
10
0
20
0
30
0
70
128
71
4
72
5
73
-8
0
VERTEX
8
OBJECT073
10
0
20
0
30
0
70
128
71
-4
72
8
73
1
0
VERTEX
8
OBJECT073
10
0
20
0
30
0
70
128
71
6
72
3
73
-2
0
VERTEX
8
OBJECT073
10
0
20
0
30
0
70
128
71
-6
72
2
73
7
0
VERTEX
8
OBJECT073
10
0
20
0
30
0
70
128
71
1
72
8
73
-7
0
VERTEX
8
OBJECT073
10
0
20
0
30
0
70
128
71
-1
72
7
73
2
0
VERTEX
8
OBJECT073
10
0
20
0
30
0
70
128
71
5
72
4
73
-3
0
VERTEX
8
OBJECT073
10
0
20
0
30
0
70
128
71
-5
72
3
73
6
0
SEQEND
8
OBJECT073
0
POLYLINE
8
OBJECT074
66
1
70
64
71
8
72
12
62
50
0
VERTEX
8
OBJECT074
10
-512.000000
20
-2272.000000
30
187.428558
70
192
0
VERTEX
8
OBJECT074
10
-256.000000
20
-2272.000000
30
187.428558
70
192
0
VERTEX
8
OBJECT074
10
-256.000000
20
-2304.000000
30
187.428558
70
192
0
VERTEX
8
OBJECT074
10
-512.000000
20
-2304.000000
30
187.428558
70
192
0
VERTEX
8
OBJECT074
10
-512.000000
20
-2304.000000
30
4.571415
70
192
0
VERTEX
8
OBJECT074
10
-256.000000
20
-2304.000000
30
4.571415
70
192
0
VERTEX
8
OBJECT074
10
-256.000000
20
-2272.000000
30
4.571415
70
192
0
VERTEX
8
OBJECT074
10
-512.000000
20
-2272.000000
30
4.571415
70
192
0
VERTEX
8
OBJECT074
10
0
20
0
30
0
70
128
71
2
72
3
73
-4
0
VERTEX
8
OBJECT074
10
0
20
0
30
0
70
128
71
-2
72
4
73
1
0
VERTEX
8
OBJECT074
10
0
20
0
30
0
70
128
71
6
72
7
73
-8
0
VERTEX
8
OBJECT074
10
0
20
0
30
0
70
128
71
-6
72
8
73
5
0
VERTEX
8
OBJECT074
10
0
20
0
30
0
70
128
71
4
72
5
73
-8
0
VERTEX
8
OBJECT074
10
0
20
0
30
0
70
128
71
-4
72
8
73
1
0
VERTEX
8
OBJECT074
10
0
20
0
30
0
70
128
71
6
72
3
73
-2
0
VERTEX
8
OBJECT074
10
0
20
0
30
0
70
128
71
-6
72
2
73
7
0
VERTEX
8
OBJECT074
10
0
20
0
30
0
70
128
71
1
72
8
73
-7
0
VERTEX
8
OBJECT074
10
0
20
0
30
0
70
128
71
-1
72
7
73
2
0
VERTEX
8
OBJECT074
10
0
20
0
30
0
70
128
71
5
72
4
73
-3
0
VERTEX
8
OBJECT074
10
0
20
0
30
0
70
128
71
-5
72
3
73
6
0
SEQEND
8
OBJECT074
0
POLYLINE
8
OBJECT075
66
1
70
64
71
8
72
12
62
50
0
VERTEX
8
OBJECT075
10
832.000000
20
-256.000000
30
479.999969
70
192
0
VERTEX
8
OBJECT075
10
832.000000
20
256.000000
30
479.999969
70
192
0
VERTEX
8
OBJECT075
10
864.000000
20
256.000000
30
479.999969
70
192
0
VERTEX
8
OBJECT075
10
864.000000
20
-256.000000
30
479.999969
70
192
0
VERTEX
8
OBJECT075
10
832.000000
20
256.000000
30
223.999969
70
192
0
VERTEX
8
OBJECT075
10
832.000000
20
-256.000000
30
223.999969
70
192
0
VERTEX
8
OBJECT075
10
864.000000
20
-256.000000
30
223.999969
70
192
0
VERTEX
8
OBJECT075
10
864.000000
20
256.000000
30
223.999969
70
192
0
VERTEX
8
OBJECT075
10
0
20
0
30
0
70
128
71
2
72
3
73
-4
0
VERTEX
8
OBJECT075
10
0
20
0
30
0
70
128
71
-2
72
4
73
1
0
VERTEX
8
OBJECT075
10
0
20
0
30
0
70
128
71
6
72
7
73
-8
0
VERTEX
8
OBJECT075
10
0
20
0
30
0
70
128
71
-6
72
8
73
5
0
VERTEX
8
OBJECT075
10
0
20
0
30
0
70
128
71
5
72
2
73
-1
0
VERTEX
8
OBJECT075
10
0
20
0
30
0
70
128
71
-5
72
1
73
6
0
VERTEX
8
OBJECT075
10
0
20
0
30
0
70
128
71
7
72
4
73
-3
0
VERTEX
8
OBJECT075
10
0
20
0
30
0
70
128
71
-7
72
3
73
8
0
VERTEX
8
OBJECT075
10
0
20
0
30
0
70
128
71
8
72
3
73
-2
0
VERTEX
8
OBJECT075
10
0
20
0
30
0
70
128
71
-8
72
2
73
5
0
VERTEX
8
OBJECT075
10
0
20
0
30
0
70
128
71
6
72
1
73
-4
0
VERTEX
8
OBJECT075
10
0
20
0
30
0
70
128
71
-6
72
4
73
7
0
SEQEND
8
OBJECT075
0
POLYLINE
8
OBJECT076
66
1
70
64
71
8
72
12
62
50
0
VERTEX
8
OBJECT076
10
-1184.000000
20
-1280.000000
30
-251.428589
70
192
0
VERTEX
8
OBJECT076
10
-1184.000000
20
-1024.000000
30
-251.428589
70
192
0
VERTEX
8
OBJECT076
10
-1024.000000
20
-1024.000000
30
-251.428589
70
192
0
VERTEX
8
OBJECT076
10
-1024.000000
20
-1280.000000
30
-251.428589
70
192
0
VERTEX
8
OBJECT076
10
-1184.000000
20
-1024.000000
30
-288.000000
70
192
0
VERTEX
8
OBJECT076
10
-1184.000000
20
-1280.000000
30
-288.000000
70
192
0
VERTEX
8
OBJECT076
10
-1024.000000
20
-1280.000000
30
-288.000000
70
192
0
VERTEX
8
OBJECT076
10
-1024.000000
20
-1024.000000
30
-288.000000
70
192
0
VERTEX
8
OBJECT076
10
0
20
0
30
0
70
128
71
2
72
3
73
-4
0
VERTEX
8
OBJECT076
10
0
20
0
30
0
70
128
71
-2
72
4
73
1
0
VERTEX
8
OBJECT076
10
0
20
0
30
0
70
128
71
6
72
7
73
-8
0
VERTEX
8
OBJECT076
10
0
20
0
30
0
70
128
71
-6
72
8
73
5
0
VERTEX
8
OBJECT076
10
0
20
0
30
0
70
128
71
5
72
2
73
-1
0
VERTEX
8
OBJECT076
10
0
20
0
30
0
70
128
71
-5
72
1
73
6
0
VERTEX
8
OBJECT076
10
0
20
0
30
0
70
128
71
7
72
4
73
-3
0
VERTEX
8
OBJECT076
10
0
20
0
30
0
70
128
71
-7
72
3
73
8
0
VERTEX
8
OBJECT076
10
0
20
0
30
0
70
128
71
8
72
3
73
-2
0
VERTEX
8
OBJECT076
10
0
20
0
30
0
70
128
71
-8
72
2
73
5
0
VERTEX
8
OBJECT076
10
0
20
0
30
0
70
128
71
6
72
1
73
-4
0
VERTEX
8
OBJECT076
10
0
20
0
30
0
70
128
71
-6
72
4
73
7
0
SEQEND
8
OBJECT076
0
POLYLINE
8
OBJECT077
66
1
70
64
71
8
72
12
62
50
0
VERTEX
8
OBJECT077
10
-1184.000000
20
-2304.000000
30
-251.428589
70
192
0
VERTEX
8
OBJECT077
10
-1184.000000
20
-2048.000000
30
-251.428589
70
192
0
VERTEX
8
OBJECT077
10
-1024.000000
20
-2048.000000
30
-251.428589
70
192
0
VERTEX
8
OBJECT077
10
-1024.000000
20
-2304.000000
30
-251.428589
70
192
0
VERTEX
8
OBJECT077
10
-1184.000000
20
-2048.000000
30
-288.000000
70
192
0
VERTEX
8
OBJECT077
10
-1184.000000
20
-2304.000000
30
-288.000000
70
192
0
VERTEX
8
OBJECT077
10
-1024.000000
20
-2304.000000
30
-288.000000
70
192
0
VERTEX
8
OBJECT077
10
-1024.000000
20
-2048.000000
30
-288.000000
70
192
0
VERTEX
8
OBJECT077
10
0
20
0
30
0
70
128
71
2
72
3
73
-4
0
VERTEX
8
OBJECT077
10
0
20
0
30
0
70
128
71
-2
72
4
73
1
0
VERTEX
8
OBJECT077
10
0
20
0
30
0
70
128
71
6
72
7
73
-8
0
VERTEX
8
OBJECT077
10
0
20
0
30
0
70
128
71
-6
72
8
73
5
0
VERTEX
8
OBJECT077
10
0
20
0
30
0
70
128
71
5
72
2
73
-1
0
VERTEX
8
OBJECT077
10
0
20
0
30
0
70
128
71
-5
72
1
73
6
0
VERTEX
8
OBJECT077
10
0
20
0
30
0
70
128
71
7
72
4
73
-3
0
VERTEX
8
OBJECT077
10
0
20
0
30
0
70
128
71
-7
72
3
73
8
0
VERTEX
8
OBJECT077
10
0
20
0
30
0
70
128
71
8
72
3
73
-2
0
VERTEX
8
OBJECT077
10
0
20
0
30
0
70
128
71
-8
72
2
73
5
0
VERTEX
8
OBJECT077
10
0
20
0
30
0
70
128
71
6
72
1
73
-4
0
VERTEX
8
OBJECT077
10
0
20
0
30
0
70
128
71
-6
72
4
73
7
0
SEQEND
8
OBJECT077
0
POLYLINE
8
OBJECT078
66
1
70
64
71
8
72
12
62
50
0
VERTEX
8
OBJECT078
10
-512.000000
20
-2304.000000
30
224.000000
70
192
0
VERTEX
8
OBJECT078
10
-512.000000
20
-2048.000000
30
224.000000
70
192
0
VERTEX
8
OBJECT078
10
-256.000000
20
-2048.000000
30
224.000000
70
192
0
VERTEX
8
OBJECT078
10
-256.000000
20
-2304.000000
30
224.000000
70
192
0
VERTEX
8
OBJECT078
10
-512.000000
20
-2048.000000
30
187.428558
70
192
0
VERTEX
8
OBJECT078
10
-512.000000
20
-2304.000000
30
187.428558
70
192
0
VERTEX
8
OBJECT078
10
-256.000000
20
-2304.000000
30
187.428558
70
192
0
VERTEX
8
OBJECT078
10
-256.000000
20
-2048.000000
30
187.428558
70
192
0
VERTEX
8
OBJECT078
10
0
20
0
30
0
70
128
71
2
72
3
73
-4
0
VERTEX
8
OBJECT078
10
0
20
0
30
0
70
128
71
-2
72
4
73
1
0
VERTEX
8
OBJECT078
10
0
20
0
30
0
70
128
71
6
72
7
73
-8
0
VERTEX
8
OBJECT078
10
0
20
0
30
0
70
128
71
-6
72
8
73
5
0
VERTEX
8
OBJECT078
10
0
20
0
30
0
70
128
71
5
72
2
73
-1
0
VERTEX
8
OBJECT078
10
0
20
0
30
0
70
128
71
-5
72
1
73
6
0
VERTEX
8
OBJECT078
10
0
20
0
30
0
70
128
71
7
72
4
73
-3
0
VERTEX
8
OBJECT078
10
0
20
0
30
0
70
128
71
-7
72
3
73
8
0
VERTEX
8
OBJECT078
10
0
20
0
30
0
70
128
71
8
72
3
73
-2
0
VERTEX
8
OBJECT078
10
0
20
0
30
0
70
128
71
-8
72
2
73
5
0
VERTEX
8
OBJECT078
10
0
20
0
30
0
70
128
71
6
72
1
73
-4
0
VERTEX
8
OBJECT078
10
0
20
0
30
0
70
128
71
-6
72
4
73
7
0
SEQEND
8
OBJECT078
0
POLYLINE
8
OBJECT079
66
1
70
64
71
8
72
12
62
50
0
VERTEX
8
OBJECT079
10
-512.000000
20
-1280.000000
30
224.000000
70
192
0
VERTEX
8
OBJECT079
10
-512.000000
20
-1024.000000
30
224.000000
70
192
0
VERTEX
8
OBJECT079
10
-256.000000
20
-1024.000000
30
224.000000
70
192
0
VERTEX
8
OBJECT079
10
-256.000000
20
-1280.000000
30
224.000000
70
192
0
VERTEX
8
OBJECT079
10
-512.000000
20
-1024.000000
30
187.428558
70
192
0
VERTEX
8
OBJECT079
10
-512.000000
20
-1280.000000
30
187.428558
70
192
0
VERTEX
8
OBJECT079
10
-256.000000
20
-1280.000000
30
187.428558
70
192
0
VERTEX
8
OBJECT079
10
-256.000000
20
-1024.000000
30
187.428558
70
192
0
VERTEX
8
OBJECT079
10
0
20
0
30
0
70
128
71
2
72
3
73
-4
0
VERTEX
8
OBJECT079
10
0
20
0
30
0
70
128
71
-2
72
4
73
1
0
VERTEX
8
OBJECT079
10
0
20
0
30
0
70
128
71
6
72
7
73
-8
0
VERTEX
8
OBJECT079
10
0
20
0
30
0
70
128
71
-6
72
8
73
5
0
VERTEX
8
OBJECT079
10
0
20
0
30
0
70
128
71
5
72
2
73
-1
0
VERTEX
8
OBJECT079
10
0
20
0
30
0
70
128
71
-5
72
1
73
6
0
VERTEX
8
OBJECT079
10
0
20
0
30
0
70
128
71
7
72
4
73
-3
0
VERTEX
8
OBJECT079
10
0
20
0
30
0
70
128
71
-7
72
3
73
8
0
VERTEX
8
OBJECT079
10
0
20
0
30
0
70
128
71
8
72
3
73
-2
0
VERTEX
8
OBJECT079
10
0
20
0
30
0
70
128
71
-8
72
2
73
5
0
VERTEX
8
OBJECT079
10
0
20
0
30
0
70
128
71
6
72
1
73
-4
0
VERTEX
8
OBJECT079
10
0
20
0
30
0
70
128
71
-6
72
4
73
7
0
SEQEND
8
OBJECT079
0
POLYLINE
8
OBJECT080
66
1
70
64
71
8
72
12
62
50
0
VERTEX
8
OBJECT080
10
-512.000000
20
-256.000000
30
224.000000
70
192
0
VERTEX
8
OBJECT080
10
-512.000000
20
0.000000
30
224.000000
70
192
0
VERTEX
8
OBJECT080
10
-256.000000
20
0.000000
30
224.000000
70
192
0
VERTEX
8
OBJECT080
10
-256.000000
20
-256.000000
30
224.000000
70
192
0
VERTEX
8
OBJECT080
10
-512.000000
20
0.000000
30
187.428558
70
192
0
VERTEX
8
OBJECT080
10
-512.000000
20
-256.000000
30
187.428558
70
192
0
VERTEX
8
OBJECT080
10
-256.000000
20
-256.000000
30
187.428558
70
192
0
VERTEX
8
OBJECT080
10
-256.000000
20
0.000000
30
187.428558
70
192
0
VERTEX
8
OBJECT080
10
0
20
0
30
0
70
128
71
2
72
3
73
-4
0
VERTEX
8
OBJECT080
10
0
20
0
30
0
70
128
71
-2
72
4
73
1
0
VERTEX
8
OBJECT080
10
0
20
0
30
0
70
128
71
6
72
7
73
-8
0
VERTEX
8
OBJECT080
10
0
20
0
30
0
70
128
71
-6
72
8
73
5
0
VERTEX
8
OBJECT080
10
0
20
0
30
0
70
128
71
5
72
2
73
-1
0
VERTEX
8
OBJECT080
10
0
20
0
30
0
70
128
71
-5
72
1
73
6
0
VERTEX
8
OBJECT080
10
0
20
0
30
0
70
128
71
7
72
4
73
-3
0
VERTEX
8
OBJECT080
10
0
20
0
30
0
70
128
71
-7
72
3
73
8
0
VERTEX
8
OBJECT080
10
0
20
0
30
0
70
128
71
8
72
3
73
-2
0
VERTEX
8
OBJECT080
10
0
20
0
30
0
70
128
71
-8
72
2
73
5
0
VERTEX
8
OBJECT080
10
0
20
0
30
0
70
128
71
6
72
1
73
-4
0
VERTEX
8
OBJECT080
10
0
20
0
30
0
70
128
71
-6
72
4
73
7
0
SEQEND
8
OBJECT080
0
POLYLINE
8
OBJECT081
66
1
70
64
71
8
72
12
62
50
0
VERTEX
8
OBJECT081
10
-960.000000
20
0.000000
30
-68.571426
70
192
0
VERTEX
8
OBJECT081
10
-928.000000
20
0.000000
30
-68.571426
70
192
0
VERTEX
8
OBJECT081
10
-928.000000
20
-256.000000
30
-68.571426
70
192
0
VERTEX
8
OBJECT081
10
-960.000000
20
-256.000000
30
-68.571426
70
192
0
VERTEX
8
OBJECT081
10
-960.000000
20
-256.000000
30
-251.428589
70
192
0
VERTEX
8
OBJECT081
10
-928.000000
20
-256.000000
30
-251.428589
70
192
0
VERTEX
8
OBJECT081
10
-928.000000
20
0.000000
30
-251.428589
70
192
0
VERTEX
8
OBJECT081
10
-960.000000
20
0.000000
30
-251.428589
70
192
0
VERTEX
8
OBJECT081
10
0
20
0
30
0
70
128
71
2
72
3
73
-4
0
VERTEX
8
OBJECT081
10
0
20
0
30
0
70
128
71
-2
72
4
73
1
0
VERTEX
8
OBJECT081
10
0
20
0
30
0
70
128
71
6
72
7
73
-8
0
VERTEX
8
OBJECT081
10
0
20
0
30
0
70
128
71
-6
72
8
73
5
0
VERTEX
8
OBJECT081
10
0
20
0
30
0
70
128
71
4
72
5
73
-8
0
VERTEX
8
OBJECT081
10
0
20
0
30
0
70
128
71
-4
72
8
73
1
0
VERTEX
8
OBJECT081
10
0
20
0
30
0
70
128
71
6
72
3
73
-2
0
VERTEX
8
OBJECT081
10
0
20
0
30
0
70
128
71
-6
72
2
73
7
0
VERTEX
8
OBJECT081
10
0
20
0
30
0
70
128
71
1
72
8
73
-7
0
VERTEX
8
OBJECT081
10
0
20
0
30
0
70
128
71
-1
72
7
73
2
0
VERTEX
8
OBJECT081
10
0
20
0
30
0
70
128
71
5
72
4
73
-3
0
VERTEX
8
OBJECT081
10
0
20
0
30
0
70
128
71
-5
72
3
73
6
0
SEQEND
8
OBJECT081
0
POLYLINE
8
OBJECT082
66
1
70
64
71
8
72
12
62
50
0
VERTEX
8
OBJECT082
10
-1184.000000
20
96.000000
30
-68.571426
70
192
0
VERTEX
8
OBJECT082
10
-1024.000000
20
96.000000
30
-68.571426
70
192
0
VERTEX
8
OBJECT082
10
-1024.000000
20
64.000000
30
-68.571426
70
192
0
VERTEX
8
OBJECT082
10
-1184.000000
20
64.000000
30
-68.571426
70
192
0
VERTEX
8
OBJECT082
10
-1184.000000
20
64.000000
30
-251.428589
70
192
0
VERTEX
8
OBJECT082
10
-1024.000000
20
64.000000
30
-251.428589
70
192
0
VERTEX
8
OBJECT082
10
-1024.000000
20
96.000000
30
-251.428589
70
192
0
VERTEX
8
OBJECT082
10
-1184.000000
20
96.000000
30
-251.428589
70
192
0
VERTEX
8
OBJECT082
10
0
20
0
30
0
70
128
71
2
72
3
73
-4
0
VERTEX
8
OBJECT082
10
0
20
0
30
0
70
128
71
-2
72
4
73
1
0
VERTEX
8
OBJECT082
10
0
20
0
30
0
70
128
71
6
72
7
73
-8
0
VERTEX
8
OBJECT082
10
0
20
0
30
0
70
128
71
-6
72
8
73
5
0
VERTEX
8
OBJECT082
10
0
20
0
30
0
70
128
71
4
72
5
73
-8
0
VERTEX
8
OBJECT082
10
0
20
0
30
0
70
128
71
-4
72
8
73
1
0
VERTEX
8
OBJECT082
10
0
20
0
30
0
70
128
71
6
72
3
73
-2
0
VERTEX
8
OBJECT082
10
0
20
0
30
0
70
128
71
-6
72
2
73
7
0
VERTEX
8
OBJECT082
10
0
20
0
30
0
70
128
71
1
72
8
73
-7
0
VERTEX
8
OBJECT082
10
0
20
0
30
0
70
128
71
-1
72
7
73
2
0
VERTEX
8
OBJECT082
10
0
20
0
30
0
70
128
71
5
72
4
73
-3
0
VERTEX
8
OBJECT082
10
0
20
0
30
0
70
128
71
-5
72
3
73
6
0
SEQEND
8
OBJECT082
0
POLYLINE
8
OBJECT083
66
1
70
64
71
8
72
12
62
50
0
VERTEX
8
OBJECT083
10
-1184.000000
20
160.000000
30
-68.571426
70
192
0
VERTEX
8
OBJECT083
10
-1152.000000
20
160.000000
30
-68.571426
70
192
0
VERTEX
8
OBJECT083
10
-1152.000000
20
128.000000
30
-68.571426
70
192
0
VERTEX
8
OBJECT083
10
-1184.000000
20
128.000000
30
-68.571426
70
192
0
VERTEX
8
OBJECT083
10
-1184.000000
20
128.000000
30
-251.428589
70
192
0
VERTEX
8
OBJECT083
10
-1152.000000
20
128.000000
30
-251.428589
70
192
0
VERTEX
8
OBJECT083
10
-1152.000000
20
160.000000
30
-251.428589
70
192
0
VERTEX
8
OBJECT083
10
-1184.000000
20
160.000000
30
-251.428589
70
192
0
VERTEX
8
OBJECT083
10
0
20
0
30
0
70
128
71
2
72
3
73
-4
0
VERTEX
8
OBJECT083
10
0
20
0
30
0
70
128
71
-2
72
4
73
1
0
VERTEX
8
OBJECT083
10
0
20
0
30
0
70
128
71
6
72
7
73
-8
0
VERTEX
8
OBJECT083
10
0
20
0
30
0
70
128
71
-6
72
8
73
5
0
VERTEX
8
OBJECT083
10
0
20
0
30
0
70
128
71
4
72
5
73
-8
0
VERTEX
8
OBJECT083
10
0
20
0
30
0
70
128
71
-4
72
8
73
1
0
VERTEX
8
OBJECT083
10
0
20
0
30
0
70
128
71
6
72
3
73
-2
0
VERTEX
8
OBJECT083
10
0
20
0
30
0
70
128
71
-6
72
2
73
7
0
VERTEX
8
OBJECT083
10
0
20
0
30
0
70
128
71
1
72
8
73
-7
0
VERTEX
8
OBJECT083
10
0
20
0
30
0
70
128
71
-1
72
7
73
2
0
VERTEX
8
OBJECT083
10
0
20
0
30
0
70
128
71
5
72
4
73
-3
0
VERTEX
8
OBJECT083
10
0
20
0
30
0
70
128
71
-5
72
3
73
6
0
SEQEND
8
OBJECT083
0
POLYLINE
8
OBJECT084
66
1
70
64
71
8
72
12
62
50
0
VERTEX
8
OBJECT084
10
-1056.000000
20
160.000000
30
-68.571426
70
192
0
VERTEX
8
OBJECT084
10
-1024.000000
20
160.000000
30
-68.571426
70
192
0
VERTEX
8
OBJECT084
10
-1024.000000
20
128.000000
30
-68.571426
70
192
0
VERTEX
8
OBJECT084
10
-1056.000000
20
128.000000
30
-68.571426
70
192
0
VERTEX
8
OBJECT084
10
-1056.000000
20
128.000000
30
-251.428589
70
192
0
VERTEX
8
OBJECT084
10
-1024.000000
20
128.000000
30
-251.428589
70
192
0
VERTEX
8
OBJECT084
10
-1024.000000
20
160.000000
30
-251.428589
70
192
0
VERTEX
8
OBJECT084
10
-1056.000000
20
160.000000
30
-251.428589
70
192
0
VERTEX
8
OBJECT084
10
0
20
0
30
0
70
128
71
2
72
3
73
-4
0
VERTEX
8
OBJECT084
10
0
20
0
30
0
70
128
71
-2
72
4
73
1
0
VERTEX
8
OBJECT084
10
0
20
0
30
0
70
128
71
6
72
7
73
-8
0
VERTEX
8
OBJECT084
10
0
20
0
30
0
70
128
71
-6
72
8
73
5
0
VERTEX
8
OBJECT084
10
0
20
0
30
0
70
128
71
4
72
5
73
-8
0
VERTEX
8
OBJECT084
10
0
20
0
30
0
70
128
71
-4
72
8
73
1
0
VERTEX
8
OBJECT084
10
0
20
0
30
0
70
128
71
6
72
3
73
-2
0
VERTEX
8
OBJECT084
10
0
20
0
30
0
70
128
71
-6
72
2
73
7
0
VERTEX
8
OBJECT084
10
0
20
0
30
0
70
128
71
1
72
8
73
-7
0
VERTEX
8
OBJECT084
10
0
20
0
30
0
70
128
71
-1
72
7
73
2
0
VERTEX
8
OBJECT084
10
0
20
0
30
0
70
128
71
5
72
4
73
-3
0
VERTEX
8
OBJECT084
10
0
20
0
30
0
70
128
71
-5
72
3
73
6
0
SEQEND
8
OBJECT084
0
POLYLINE
8
OBJECT085
66
1
70
64
71
8
72
12
62
50
0
VERTEX
8
OBJECT085
10
-896.000000
20
0.000000
30
-68.571426
70
192
0
VERTEX
8
OBJECT085
10
-864.000000
20
0.000000
30
-68.571426
70
192
0
VERTEX
8
OBJECT085
10
-864.000000
20
-64.000000
30
-68.571426
70
192
0
VERTEX
8
OBJECT085
10
-896.000000
20
-64.000000
30
-68.571426
70
192
0
VERTEX
8
OBJECT085
10
-896.000000
20
-64.000000
30
-251.428589
70
192
0
VERTEX
8
OBJECT085
10
-864.000000
20
-64.000000
30
-251.428589
70
192
0
VERTEX
8
OBJECT085
10
-864.000000
20
0.000000
30
-251.428589
70
192
0
VERTEX
8
OBJECT085
10
-896.000000
20
0.000000
30
-251.428589
70
192
0
VERTEX
8
OBJECT085
10
0
20
0
30
0
70
128
71
2
72
3
73
-4
0
VERTEX
8
OBJECT085
10
0
20
0
30
0
70
128
71
-2
72
4
73
1
0
VERTEX
8
OBJECT085
10
0
20
0
30
0
70
128
71
6
72
7
73
-8
0
VERTEX
8
OBJECT085
10
0
20
0
30
0
70
128
71
-6
72
8
73
5
0
VERTEX
8
OBJECT085
10
0
20
0
30
0
70
128
71
4
72
5
73
-8
0
VERTEX
8
OBJECT085
10
0
20
0
30
0
70
128
71
-4
72
8
73
1
0
VERTEX
8
OBJECT085
10
0
20
0
30
0
70
128
71
6
72
3
73
-2
0
VERTEX
8
OBJECT085
10
0
20
0
30
0
70
128
71
-6
72
2
73
7
0
VERTEX
8
OBJECT085
10
0
20
0
30
0
70
128
71
1
72
8
73
-7
0
VERTEX
8
OBJECT085
10
0
20
0
30
0
70
128
71
-1
72
7
73
2
0
VERTEX
8
OBJECT085
10
0
20
0
30
0
70
128
71
5
72
4
73
-3
0
VERTEX
8
OBJECT085
10
0
20
0
30
0
70
128
71
-5
72
3
73
6
0
SEQEND
8
OBJECT085
0
POLYLINE
8
OBJECT086
66
1
70
64
71
8
72
12
62
50
0
VERTEX
8
OBJECT086
10
-896.000000
20
-192.000000
30
-68.571426
70
192
0
VERTEX
8
OBJECT086
10
-864.000000
20
-192.000000
30
-68.571426
70
192
0
VERTEX
8
OBJECT086
10
-864.000000
20
-256.000000
30
-68.571426
70
192
0
VERTEX
8
OBJECT086
10
-896.000000
20
-256.000000
30
-68.571426
70
192
0
VERTEX
8
OBJECT086
10
-896.000000
20
-256.000000
30
-251.428589
70
192
0
VERTEX
8
OBJECT086
10
-864.000000
20
-256.000000
30
-251.428589
70
192
0
VERTEX
8
OBJECT086
10
-864.000000
20
-192.000000
30
-251.428589
70
192
0
VERTEX
8
OBJECT086
10
-896.000000
20
-192.000000
30
-251.428589
70
192
0
VERTEX
8
OBJECT086
10
0
20
0
30
0
70
128
71
2
72
3
73
-4
0
VERTEX
8
OBJECT086
10
0
20
0
30
0
70
128
71
-2
72
4
73
1
0
VERTEX
8
OBJECT086
10
0
20
0
30
0
70
128
71
6
72
7
73
-8
0
VERTEX
8
OBJECT086
10
0
20
0
30
0
70
128
71
-6
72
8
73
5
0
VERTEX
8
OBJECT086
10
0
20
0
30
0
70
128
71
4
72
5
73
-8
0
VERTEX
8
OBJECT086
10
0
20
0
30
0
70
128
71
-4
72
8
73
1
0
VERTEX
8
OBJECT086
10
0
20
0
30
0
70
128
71
6
72
3
73
-2
0
VERTEX
8
OBJECT086
10
0
20
0
30
0
70
128
71
-6
72
2
73
7
0
VERTEX
8
OBJECT086
10
0
20
0
30
0
70
128
71
1
72
8
73
-7
0
VERTEX
8
OBJECT086
10
0
20
0
30
0
70
128
71
-1
72
7
73
2
0
VERTEX
8
OBJECT086
10
0
20
0
30
0
70
128
71
5
72
4
73
-3
0
VERTEX
8
OBJECT086
10
0
20
0
30
0
70
128
71
-5
72
3
73
6
0
SEQEND
8
OBJECT086
0
POLYLINE
8
OBJECT087
66
1
70
64
71
8
72
12
62
50
0
VERTEX
8
OBJECT087
10
-1056.000000
20
0.000000
30
-68.571426
70
192
0
VERTEX
8
OBJECT087
10
-1024.000000
20
0.000000
30
-68.571426
70
192
0
VERTEX
8
OBJECT087
10
-1024.000000
20
-256.000000
30
-68.571426
70
192
0
VERTEX
8
OBJECT087
10
-1056.000000
20
-256.000000
30
-68.571426
70
192
0
VERTEX
8
OBJECT087
10
-1056.000000
20
-256.000000
30
-251.428589
70
192
0
VERTEX
8
OBJECT087
10
-1024.000000
20
-256.000000
30
-251.428589
70
192
0
VERTEX
8
OBJECT087
10
-1024.000000
20
0.000000
30
-251.428589
70
192
0
VERTEX
8
OBJECT087
10
-1056.000000
20
0.000000
30
-251.428589
70
192
0
VERTEX
8
OBJECT087
10
0
20
0
30
0
70
128
71
2
72
3
73
-4
0
VERTEX
8
OBJECT087
10
0
20
0
30
0
70
128
71
-2
72
4
73
1
0
VERTEX
8
OBJECT087
10
0
20
0
30
0
70
128
71
6
72
7
73
-8
0
VERTEX
8
OBJECT087
10
0
20
0
30
0
70
128
71
-6
72
8
73
5
0
VERTEX
8
OBJECT087
10
0
20
0
30
0
70
128
71
4
72
5
73
-8
0
VERTEX
8
OBJECT087
10
0
20
0
30
0
70
128
71
-4
72
8
73
1
0
VERTEX
8
OBJECT087
10
0
20
0
30
0
70
128
71
6
72
3
73
-2
0
VERTEX
8
OBJECT087
10
0
20
0
30
0
70
128
71
-6
72
2
73
7
0
VERTEX
8
OBJECT087
10
0
20
0
30
0
70
128
71
1
72
8
73
-7
0
VERTEX
8
OBJECT087
10
0
20
0
30
0
70
128
71
-1
72
7
73
2
0
VERTEX
8
OBJECT087
10
0
20
0
30
0
70
128
71
5
72
4
73
-3
0
VERTEX
8
OBJECT087
10
0
20
0
30
0
70
128
71
-5
72
3
73
6
0
SEQEND
8
OBJECT087
0
POLYLINE
8
OBJECT088
66
1
70
64
71
8
72
12
62
50
0
VERTEX
8
OBJECT088
10
-1184.000000
20
0.000000
30
-68.571426
70
192
0
VERTEX
8
OBJECT088
10
-1152.000000
20
0.000000
30
-68.571426
70
192
0
VERTEX
8
OBJECT088
10
-1152.000000
20
-256.000000
30
-68.571426
70
192
0
VERTEX
8
OBJECT088
10
-1184.000000
20
-256.000000
30
-68.571426
70
192
0
VERTEX
8
OBJECT088
10
-1184.000000
20
-256.000000
30
-251.428589
70
192
0
VERTEX
8
OBJECT088
10
-1152.000000
20
-256.000000
30
-251.428589
70
192
0
VERTEX
8
OBJECT088
10
-1152.000000
20
0.000000
30
-251.428589
70
192
0
VERTEX
8
OBJECT088
10
-1184.000000
20
0.000000
30
-251.428589
70
192
0
VERTEX
8
OBJECT088
10
0
20
0
30
0
70
128
71
2
72
3
73
-4
0
VERTEX
8
OBJECT088
10
0
20
0
30
0
70
128
71
-2
72
4
73
1
0
VERTEX
8
OBJECT088
10
0
20
0
30
0
70
128
71
6
72
7
73
-8
0
VERTEX
8
OBJECT088
10
0
20
0
30
0
70
128
71
-6
72
8
73
5
0
VERTEX
8
OBJECT088
10
0
20
0
30
0
70
128
71
4
72
5
73
-8
0
VERTEX
8
OBJECT088
10
0
20
0
30
0
70
128
71
-4
72
8
73
1
0
VERTEX
8
OBJECT088
10
0
20
0
30
0
70
128
71
6
72
3
73
-2
0
VERTEX
8
OBJECT088
10
0
20
0
30
0
70
128
71
-6
72
2
73
7
0
VERTEX
8
OBJECT088
10
0
20
0
30
0
70
128
71
1
72
8
73
-7
0
VERTEX
8
OBJECT088
10
0
20
0
30
0
70
128
71
-1
72
7
73
2
0
VERTEX
8
OBJECT088
10
0
20
0
30
0
70
128
71
5
72
4
73
-3
0
VERTEX
8
OBJECT088
10
0
20
0
30
0
70
128
71
-5
72
3
73
6
0
SEQEND
8
OBJECT088
0
POLYLINE
8
OBJECT089
66
1
70
64
71
8
72
12
62
50
0
VERTEX
8
OBJECT089
10
-1184.000000
20
-224.000000
30
-68.571426
70
192
0
VERTEX
8
OBJECT089
10
-1024.000000
20
-224.000000
30
-68.571426
70
192
0
VERTEX
8
OBJECT089
10
-1024.000000
20
-256.000000
30
-68.571426
70
192
0
VERTEX
8
OBJECT089
10
-1184.000000
20
-256.000000
30
-68.571426
70
192
0
VERTEX
8
OBJECT089
10
-1184.000000
20
-256.000000
30
-251.428589
70
192
0
VERTEX
8
OBJECT089
10
-1024.000000
20
-256.000000
30
-251.428589
70
192
0
VERTEX
8
OBJECT089
10
-1024.000000
20
-224.000000
30
-251.428589
70
192
0
VERTEX
8
OBJECT089
10
-1184.000000
20
-224.000000
30
-251.428589
70
192
0
VERTEX
8
OBJECT089
10
0
20
0
30
0
70
128
71
2
72
3
73
-4
0
VERTEX
8
OBJECT089
10
0
20
0
30
0
70
128
71
-2
72
4
73
1
0
VERTEX
8
OBJECT089
10
0
20
0
30
0
70
128
71
6
72
7
73
-8
0
VERTEX
8
OBJECT089
10
0
20
0
30
0
70
128
71
-6
72
8
73
5
0
VERTEX
8
OBJECT089
10
0
20
0
30
0
70
128
71
4
72
5
73
-8
0
VERTEX
8
OBJECT089
10
0
20
0
30
0
70
128
71
-4
72
8
73
1
0
VERTEX
8
OBJECT089
10
0
20
0
30
0
70
128
71
6
72
3
73
-2
0
VERTEX
8
OBJECT089
10
0
20
0
30
0
70
128
71
-6
72
2
73
7
0
VERTEX
8
OBJECT089
10
0
20
0
30
0
70
128
71
1
72
8
73
-7
0
VERTEX
8
OBJECT089
10
0
20
0
30
0
70
128
71
-1
72
7
73
2
0
VERTEX
8
OBJECT089
10
0
20
0
30
0
70
128
71
5
72
4
73
-3
0
VERTEX
8
OBJECT089
10
0
20
0
30
0
70
128
71
-5
72
3
73
6
0
SEQEND
8
OBJECT089
0
POLYLINE
8
OBJECT090
66
1
70
64
71
8
72
12
62
50
0
VERTEX
8
OBJECT090
10
-1056.000000
20
-1216.000000
30
-68.571426
70
192
0
VERTEX
8
OBJECT090
10
-1024.000000
20
-1216.000000
30
-68.571426
70
192
0
VERTEX
8
OBJECT090
10
-1024.000000
20
-1280.000000
30
-68.571426
70
192
0
VERTEX
8
OBJECT090
10
-1056.000000
20
-1280.000000
30
-68.571426
70
192
0
VERTEX
8
OBJECT090
10
-1056.000000
20
-1280.000000
30
-251.428589
70
192
0
VERTEX
8
OBJECT090
10
-1024.000000
20
-1280.000000
30
-251.428589
70
192
0
VERTEX
8
OBJECT090
10
-1024.000000
20
-1216.000000
30
-251.428589
70
192
0
VERTEX
8
OBJECT090
10
-1056.000000
20
-1216.000000
30
-251.428589
70
192
0
VERTEX
8
OBJECT090
10
0
20
0
30
0
70
128
71
2
72
3
73
-4
0
VERTEX
8
OBJECT090
10
0
20
0
30
0
70
128
71
-2
72
4
73
1
0
VERTEX
8
OBJECT090
10
0
20
0
30
0
70
128
71
6
72
7
73
-8
0
VERTEX
8
OBJECT090
10
0
20
0
30
0
70
128
71
-6
72
8
73
5
0
VERTEX
8
OBJECT090
10
0
20
0
30
0
70
128
71
4
72
5
73
-8
0
VERTEX
8
OBJECT090
10
0
20
0
30
0
70
128
71
-4
72
8
73
1
0
VERTEX
8
OBJECT090
10
0
20
0
30
0
70
128
71
6
72
3
73
-2
0
VERTEX
8
OBJECT090
10
0
20
0
30
0
70
128
71
-6
72
2
73
7
0
VERTEX
8
OBJECT090
10
0
20
0
30
0
70
128
71
1
72
8
73
-7
0
VERTEX
8
OBJECT090
10
0
20
0
30
0
70
128
71
-1
72
7
73
2
0
VERTEX
8
OBJECT090
10
0
20
0
30
0
70
128
71
5
72
4
73
-3
0
VERTEX
8
OBJECT090
10
0
20
0
30
0
70
128
71
-5
72
3
73
6
0
SEQEND
8
OBJECT090
0
POLYLINE
8
OBJECT091
66
1
70
64
71
8
72
12
62
50
0
VERTEX
8
OBJECT091
10
-1056.000000
20
-1024.000000
30
-68.571426
70
192
0
VERTEX
8
OBJECT091
10
-1024.000000
20
-1024.000000
30
-68.571426
70
192
0
VERTEX
8
OBJECT091
10
-1024.000000
20
-1088.000000
30
-68.571426
70
192
0
VERTEX
8
OBJECT091
10
-1056.000000
20
-1088.000000
30
-68.571426
70
192
0
VERTEX
8
OBJECT091
10
-1056.000000
20
-1088.000000
30
-251.428589
70
192
0
VERTEX
8
OBJECT091
10
-1024.000000
20
-1088.000000
30
-251.428589
70
192
0
VERTEX
8
OBJECT091
10
-1024.000000
20
-1024.000000
30
-251.428589
70
192
0
VERTEX
8
OBJECT091
10
-1056.000000
20
-1024.000000
30
-251.428589
70
192
0
VERTEX
8
OBJECT091
10
0
20
0
30
0
70
128
71
2
72
3
73
-4
0
VERTEX
8
OBJECT091
10
0
20
0
30
0
70
128
71
-2
72
4
73
1
0
VERTEX
8
OBJECT091
10
0
20
0
30
0
70
128
71
6
72
7
73
-8
0
VERTEX
8
OBJECT091
10
0
20
0
30
0
70
128
71
-6
72
8
73
5
0
VERTEX
8
OBJECT091
10
0
20
0
30
0
70
128
71
4
72
5
73
-8
0
VERTEX
8
OBJECT091
10
0
20
0
30
0
70
128
71
-4
72
8
73
1
0
VERTEX
8
OBJECT091
10
0
20
0
30
0
70
128
71
6
72
3
73
-2
0
VERTEX
8
OBJECT091
10
0
20
0
30
0
70
128
71
-6
72
2
73
7
0
VERTEX
8
OBJECT091
10
0
20
0
30
0
70
128
71
1
72
8
73
-7
0
VERTEX
8
OBJECT091
10
0
20
0
30
0
70
128
71
-1
72
7
73
2
0
VERTEX
8
OBJECT091
10
0
20
0
30
0
70
128
71
5
72
4
73
-3
0
VERTEX
8
OBJECT091
10
0
20
0
30
0
70
128
71
-5
72
3
73
6
0
SEQEND
8
OBJECT091
0
POLYLINE
8
OBJECT092
66
1
70
64
71
8
72
12
62
50
0
VERTEX
8
OBJECT092
10
-1184.000000
20
-1024.000000
30
-68.571426
70
192
0
VERTEX
8
OBJECT092
10
-1152.000000
20
-1024.000000
30
-68.571426
70
192
0
VERTEX
8
OBJECT092
10
-1152.000000
20
-1280.000000
30
-68.571426
70
192
0
VERTEX
8
OBJECT092
10
-1184.000000
20
-1280.000000
30
-68.571426
70
192
0
VERTEX
8
OBJECT092
10
-1184.000000
20
-1280.000000
30
-251.428589
70
192
0
VERTEX
8
OBJECT092
10
-1152.000000
20
-1280.000000
30
-251.428589
70
192
0
VERTEX
8
OBJECT092
10
-1152.000000
20
-1024.000000
30
-251.428589
70
192
0
VERTEX
8
OBJECT092
10
-1184.000000
20
-1024.000000
30
-251.428589
70
192
0
VERTEX
8
OBJECT092
10
0
20
0
30
0
70
128
71
2
72
3
73
-4
0
VERTEX
8
OBJECT092
10
0
20
0
30
0
70
128
71
-2
72
4
73
1
0
VERTEX
8
OBJECT092
10
0
20
0
30
0
70
128
71
6
72
7
73
-8
0
VERTEX
8
OBJECT092
10
0
20
0
30
0
70
128
71
-6
72
8
73
5
0
VERTEX
8
OBJECT092
10
0
20
0
30
0
70
128
71
4
72
5
73
-8
0
VERTEX
8
OBJECT092
10
0
20
0
30
0
70
128
71
-4
72
8
73
1
0
VERTEX
8
OBJECT092
10
0
20
0
30
0
70
128
71
6
72
3
73
-2
0
VERTEX
8
OBJECT092
10
0
20
0
30
0
70
128
71
-6
72
2
73
7
0
VERTEX
8
OBJECT092
10
0
20
0
30
0
70
128
71
1
72
8
73
-7
0
VERTEX
8
OBJECT092
10
0
20
0
30
0
70
128
71
-1
72
7
73
2
0
VERTEX
8
OBJECT092
10
0
20
0
30
0
70
128
71
5
72
4
73
-3
0
VERTEX
8
OBJECT092
10
0
20
0
30
0
70
128
71
-5
72
3
73
6
0
SEQEND
8
OBJECT092
0
POLYLINE
8
OBJECT093
66
1
70
64
71
8
72
12
62
50
0
VERTEX
8
OBJECT093
10
-1184.000000
20
-1024.000000
30
-68.571426
70
192
0
VERTEX
8
OBJECT093
10
-1024.000000
20
-1024.000000
30
-68.571426
70
192
0
VERTEX
8
OBJECT093
10
-1024.000000
20
-1056.000000
30
-68.571426
70
192
0
VERTEX
8
OBJECT093
10
-1184.000000
20
-1056.000000
30
-68.571426
70
192
0
VERTEX
8
OBJECT093
10
-1184.000000
20
-1056.000000
30
-251.428589
70
192
0
VERTEX
8
OBJECT093
10
-1024.000000
20
-1056.000000
30
-251.428589
70
192
0
VERTEX
8
OBJECT093
10
-1024.000000
20
-1024.000000
30
-251.428589
70
192
0
VERTEX
8
OBJECT093
10
-1184.000000
20
-1024.000000
30
-251.428589
70
192
0
VERTEX
8
OBJECT093
10
0
20
0
30
0
70
128
71
2
72
3
73
-4
0
VERTEX
8
OBJECT093
10
0
20
0
30
0
70
128
71
-2
72
4
73
1
0
VERTEX
8
OBJECT093
10
0
20
0
30
0
70
128
71
6
72
7
73
-8
0
VERTEX
8
OBJECT093
10
0
20
0
30
0
70
128
71
-6
72
8
73
5
0
VERTEX
8
OBJECT093
10
0
20
0
30
0
70
128
71
4
72
5
73
-8
0
VERTEX
8
OBJECT093
10
0
20
0
30
0
70
128
71
-4
72
8
73
1
0
VERTEX
8
OBJECT093
10
0
20
0
30
0
70
128
71
6
72
3
73
-2
0
VERTEX
8
OBJECT093
10
0
20
0
30
0
70
128
71
-6
72
2
73
7
0
VERTEX
8
OBJECT093
10
0
20
0
30
0
70
128
71
1
72
8
73
-7
0
VERTEX
8
OBJECT093
10
0
20
0
30
0
70
128
71
-1
72
7
73
2
0
VERTEX
8
OBJECT093
10
0
20
0
30
0
70
128
71
5
72
4
73
-3
0
VERTEX
8
OBJECT093
10
0
20
0
30
0
70
128
71
-5
72
3
73
6
0
SEQEND
8
OBJECT093
0
POLYLINE
8
OBJECT094
66
1
70
64
71
8
72
12
62
50
0
VERTEX
8
OBJECT094
10
-1184.000000
20
-1248.000000
30
-68.571426
70
192
0
VERTEX
8
OBJECT094
10
-1024.000000
20
-1248.000000
30
-68.571426
70
192
0
VERTEX
8
OBJECT094
10
-1024.000000
20
-1280.000000
30
-68.571426
70
192
0
VERTEX
8
OBJECT094
10
-1184.000000
20
-1280.000000
30
-68.571426
70
192
0
VERTEX
8
OBJECT094
10
-1184.000000
20
-1280.000000
30
-251.428589
70
192
0
VERTEX
8
OBJECT094
10
-1024.000000
20
-1280.000000
30
-251.428589
70
192
0
VERTEX
8
OBJECT094
10
-1024.000000
20
-1248.000000
30
-251.428589
70
192
0
VERTEX
8
OBJECT094
10
-1184.000000
20
-1248.000000
30
-251.428589
70
192
0
VERTEX
8
OBJECT094
10
0
20
0
30
0
70
128
71
2
72
3
73
-4
0
VERTEX
8
OBJECT094
10
0
20
0
30
0
70
128
71
-2
72
4
73
1
0
VERTEX
8
OBJECT094
10
0
20
0
30
0
70
128
71
6
72
7
73
-8
0
VERTEX
8
OBJECT094
10
0
20
0
30
0
70
128
71
-6
72
8
73
5
0
VERTEX
8
OBJECT094
10
0
20
0
30
0
70
128
71
4
72
5
73
-8
0
VERTEX
8
OBJECT094
10
0
20
0
30
0
70
128
71
-4
72
8
73
1
0
VERTEX
8
OBJECT094
10
0
20
0
30
0
70
128
71
6
72
3
73
-2
0
VERTEX
8
OBJECT094
10
0
20
0
30
0
70
128
71
-6
72
2
73
7
0
VERTEX
8
OBJECT094
10
0
20
0
30
0
70
128
71
1
72
8
73
-7
0
VERTEX
8
OBJECT094
10
0
20
0
30
0
70
128
71
-1
72
7
73
2
0
VERTEX
8
OBJECT094
10
0
20
0
30
0
70
128
71
5
72
4
73
-3
0
VERTEX
8
OBJECT094
10
0
20
0
30
0
70
128
71
-5
72
3
73
6
0
SEQEND
8
OBJECT094
0
POLYLINE
8
OBJECT095
66
1
70
64
71
8
72
12
62
50
0
VERTEX
8
OBJECT095
10
-1056.000000
20
-2240.000000
30
-68.571426
70
192
0
VERTEX
8
OBJECT095
10
-1024.000000
20
-2240.000000
30
-68.571426
70
192
0
VERTEX
8
OBJECT095
10
-1024.000000
20
-2304.000000
30
-68.571426
70
192
0
VERTEX
8
OBJECT095
10
-1056.000000
20
-2304.000000
30
-68.571426
70
192
0
VERTEX
8
OBJECT095
10
-1056.000000
20
-2304.000000
30
-251.428589
70
192
0
VERTEX
8
OBJECT095
10
-1024.000000
20
-2304.000000
30
-251.428589
70
192
0
VERTEX
8
OBJECT095
10
-1024.000000
20
-2240.000000
30
-251.428589
70
192
0
VERTEX
8
OBJECT095
10
-1056.000000
20
-2240.000000
30
-251.428589
70
192
0
VERTEX
8
OBJECT095
10
0
20
0
30
0
70
128
71
2
72
3
73
-4
0
VERTEX
8
OBJECT095
10
0
20
0
30
0
70
128
71
-2
72
4
73
1
0
VERTEX
8
OBJECT095
10
0
20
0
30
0
70
128
71
6
72
7
73
-8
0
VERTEX
8
OBJECT095
10
0
20
0
30
0
70
128
71
-6
72
8
73
5
0
VERTEX
8
OBJECT095
10
0
20
0
30
0
70
128
71
4
72
5
73
-8
0
VERTEX
8
OBJECT095
10
0
20
0
30
0
70
128
71
-4
72
8
73
1
0
VERTEX
8
OBJECT095
10
0
20
0
30
0
70
128
71
6
72
3
73
-2
0
VERTEX
8
OBJECT095
10
0
20
0
30
0
70
128
71
-6
72
2
73
7
0
VERTEX
8
OBJECT095
10
0
20
0
30
0
70
128
71
1
72
8
73
-7
0
VERTEX
8
OBJECT095
10
0
20
0
30
0
70
128
71
-1
72
7
73
2
0
VERTEX
8
OBJECT095
10
0
20
0
30
0
70
128
71
5
72
4
73
-3
0
VERTEX
8
OBJECT095
10
0
20
0
30
0
70
128
71
-5
72
3
73
6
0
SEQEND
8
OBJECT095
0
POLYLINE
8
OBJECT096
66
1
70
64
71
8
72
12
62
50
0
VERTEX
8
OBJECT096
10
-1056.000000
20
-2048.000000
30
-68.571426
70
192
0
VERTEX
8
OBJECT096
10
-1024.000000
20
-2048.000000
30
-68.571426
70
192
0
VERTEX
8
OBJECT096
10
-1024.000000
20
-2112.000000
30
-68.571426
70
192
0
VERTEX
8
OBJECT096
10
-1056.000000
20
-2112.000000
30
-68.571426
70
192
0
VERTEX
8
OBJECT096
10
-1056.000000
20
-2112.000000
30
-251.428589
70
192
0
VERTEX
8
OBJECT096
10
-1024.000000
20
-2112.000000
30
-251.428589
70
192
0
VERTEX
8
OBJECT096
10
-1024.000000
20
-2048.000000
30
-251.428589
70
192
0
VERTEX
8
OBJECT096
10
-1056.000000
20
-2048.000000
30
-251.428589
70
192
0
VERTEX
8
OBJECT096
10
0
20
0
30
0
70
128
71
2
72
3
73
-4
0
VERTEX
8
OBJECT096
10
0
20
0
30
0
70
128
71
-2
72
4
73
1
0
VERTEX
8
OBJECT096
10
0
20
0
30
0
70
128
71
6
72
7
73
-8
0
VERTEX
8
OBJECT096
10
0
20
0
30
0
70
128
71
-6
72
8
73
5
0
VERTEX
8
OBJECT096
10
0
20
0
30
0
70
128
71
4
72
5
73
-8
0
VERTEX
8
OBJECT096
10
0
20
0
30
0
70
128
71
-4
72
8
73
1
0
VERTEX
8
OBJECT096
10
0
20
0
30
0
70
128
71
6
72
3
73
-2
0
VERTEX
8
OBJECT096
10
0
20
0
30
0
70
128
71
-6
72
2
73
7
0
VERTEX
8
OBJECT096
10
0
20
0
30
0
70
128
71
1
72
8
73
-7
0
VERTEX
8
OBJECT096
10
0
20
0
30
0
70
128
71
-1
72
7
73
2
0
VERTEX
8
OBJECT096
10
0
20
0
30
0
70
128
71
5
72
4
73
-3
0
VERTEX
8
OBJECT096
10
0
20
0
30
0
70
128
71
-5
72
3
73
6
0
SEQEND
8
OBJECT096
0
POLYLINE
8
OBJECT097
66
1
70
64
71
8
72
12
62
50
0
VERTEX
8
OBJECT097
10
-1184.000000
20
-2240.000000
30
-68.571426
70
192
0
VERTEX
8
OBJECT097
10
-1152.000000
20
-2240.000000
30
-68.571426
70
192
0
VERTEX
8
OBJECT097
10
-1152.000000
20
-2304.000000
30
-68.571426
70
192
0
VERTEX
8
OBJECT097
10
-1184.000000
20
-2304.000000
30
-68.571426
70
192
0
VERTEX
8
OBJECT097
10
-1184.000000
20
-2304.000000
30
-251.428589
70
192
0
VERTEX
8
OBJECT097
10
-1152.000000
20
-2304.000000
30
-251.428589
70
192
0
VERTEX
8
OBJECT097
10
-1152.000000
20
-2240.000000
30
-251.428589
70
192
0
VERTEX
8
OBJECT097
10
-1184.000000
20
-2240.000000
30
-251.428589
70
192
0
VERTEX
8
OBJECT097
10
0
20
0
30
0
70
128
71
2
72
3
73
-4
0
VERTEX
8
OBJECT097
10
0
20
0
30
0
70
128
71
-2
72
4
73
1
0
VERTEX
8
OBJECT097
10
0
20
0
30
0
70
128
71
6
72
7
73
-8
0
VERTEX
8
OBJECT097
10
0
20
0
30
0
70
128
71
-6
72
8
73
5
0
VERTEX
8
OBJECT097
10
0
20
0
30
0
70
128
71
4
72
5
73
-8
0
VERTEX
8
OBJECT097
10
0
20
0
30
0
70
128
71
-4
72
8
73
1
0
VERTEX
8
OBJECT097
10
0
20
0
30
0
70
128
71
6
72
3
73
-2
0
VERTEX
8
OBJECT097
10
0
20
0
30
0
70
128
71
-6
72
2
73
7
0
VERTEX
8
OBJECT097
10
0
20
0
30
0
70
128
71
1
72
8
73
-7
0
VERTEX
8
OBJECT097
10
0
20
0
30
0
70
128
71
-1
72
7
73
2
0
VERTEX
8
OBJECT097
10
0
20
0
30
0
70
128
71
5
72
4
73
-3
0
VERTEX
8
OBJECT097
10
0
20
0
30
0
70
128
71
-5
72
3
73
6
0
SEQEND
8
OBJECT097
0
POLYLINE
8
OBJECT098
66
1
70
64
71
8
72
12
62
50
0
VERTEX
8
OBJECT098
10
-1184.000000
20
-2048.000000
30
-68.571426
70
192
0
VERTEX
8
OBJECT098
10
-1152.000000
20
-2048.000000
30
-68.571426
70
192
0
VERTEX
8
OBJECT098
10
-1152.000000
20
-2112.000000
30
-68.571426
70
192
0
VERTEX
8
OBJECT098
10
-1184.000000
20
-2112.000000
30
-68.571426
70
192
0
VERTEX
8
OBJECT098
10
-1184.000000
20
-2112.000000
30
-251.428589
70
192
0
VERTEX
8
OBJECT098
10
-1152.000000
20
-2112.000000
30
-251.428589
70
192
0
VERTEX
8
OBJECT098
10
-1152.000000
20
-2048.000000
30
-251.428589
70
192
0
VERTEX
8
OBJECT098
10
-1184.000000
20
-2048.000000
30
-251.428589
70
192
0
VERTEX
8
OBJECT098
10
0
20
0
30
0
70
128
71
2
72
3
73
-4
0
VERTEX
8
OBJECT098
10
0
20
0
30
0
70
128
71
-2
72
4
73
1
0
VERTEX
8
OBJECT098
10
0
20
0
30
0
70
128
71
6
72
7
73
-8
0
VERTEX
8
OBJECT098
10
0
20
0
30
0
70
128
71
-6
72
8
73
5
0
VERTEX
8
OBJECT098
10
0
20
0
30
0
70
128
71
4
72
5
73
-8
0
VERTEX
8
OBJECT098
10
0
20
0
30
0
70
128
71
-4
72
8
73
1
0
VERTEX
8
OBJECT098
10
0
20
0
30
0
70
128
71
6
72
3
73
-2
0
VERTEX
8
OBJECT098
10
0
20
0
30
0
70
128
71
-6
72
2
73
7
0
VERTEX
8
OBJECT098
10
0
20
0
30
0
70
128
71
1
72
8
73
-7
0
VERTEX
8
OBJECT098
10
0
20
0
30
0
70
128
71
-1
72
7
73
2
0
VERTEX
8
OBJECT098
10
0
20
0
30
0
70
128
71
5
72
4
73
-3
0
VERTEX
8
OBJECT098
10
0
20
0
30
0
70
128
71
-5
72
3
73
6
0
SEQEND
8
OBJECT098
0
POLYLINE
8
OBJECT099
66
1
70
64
71
8
72
12
62
50
0
VERTEX
8
OBJECT099
10
-1184.000000
20
-256.000000
30
-32.000000
70
192
0
VERTEX
8
OBJECT099
10
-1184.000000
20
0.000000
30
-32.000000
70
192
0
VERTEX
8
OBJECT099
10
-1024.000000
20
0.000000
30
-32.000000
70
192
0
VERTEX
8
OBJECT099
10
-1024.000000
20
-256.000000
30
-32.000000
70
192
0
VERTEX
8
OBJECT099
10
-1184.000000
20
0.000000
30
-68.571426
70
192
0
VERTEX
8
OBJECT099
10
-1184.000000
20
-256.000000
30
-68.571426
70
192
0
VERTEX
8
OBJECT099
10
-1024.000000
20
-256.000000
30
-68.571426
70
192
0
VERTEX
8
OBJECT099
10
-1024.000000
20
0.000000
30
-68.571426
70
192
0
VERTEX
8
OBJECT099
10
0
20
0
30
0
70
128
71
2
72
3
73
-4
0
VERTEX
8
OBJECT099
10
0
20
0
30
0
70
128
71
-2
72
4
73
1
0
VERTEX
8
OBJECT099
10
0
20
0
30
0
70
128
71
6
72
7
73
-8
0
VERTEX
8
OBJECT099
10
0
20
0
30
0
70
128
71
-6
72
8
73
5
0
VERTEX
8
OBJECT099
10
0
20
0
30
0
70
128
71
5
72
2
73
-1
0
VERTEX
8
OBJECT099
10
0
20
0
30
0
70
128
71
-5
72
1
73
6
0
VERTEX
8
OBJECT099
10
0
20
0
30
0
70
128
71
7
72
4
73
-3
0
VERTEX
8
OBJECT099
10
0
20
0
30
0
70
128
71
-7
72
3
73
8
0
VERTEX
8
OBJECT099
10
0
20
0
30
0
70
128
71
8
72
3
73
-2
0
VERTEX
8
OBJECT099
10
0
20
0
30
0
70
128
71
-8
72
2
73
5
0
VERTEX
8
OBJECT099
10
0
20
0
30
0
70
128
71
6
72
1
73
-4
0
VERTEX
8
OBJECT099
10
0
20
0
30
0
70
128
71
-6
72
4
73
7
0
SEQEND
8
OBJECT099
0
POLYLINE
8
OBJECT100
66
1
70
64
71
8
72
12
62
50
0
VERTEX
8
OBJECT100
10
-1184.000000
20
-1280.000000
30
-32.000000
70
192
0
VERTEX
8
OBJECT100
10
-1184.000000
20
-1024.000000
30
-32.000000
70
192
0
VERTEX
8
OBJECT100
10
-1024.000000
20
-1024.000000
30
-32.000000
70
192
0
VERTEX
8
OBJECT100
10
-1024.000000
20
-1280.000000
30
-32.000000
70
192
0
VERTEX
8
OBJECT100
10
-1184.000000
20
-1024.000000
30
-68.571426
70
192
0
VERTEX
8
OBJECT100
10
-1184.000000
20
-1280.000000
30
-68.571426
70
192
0
VERTEX
8
OBJECT100
10
-1024.000000
20
-1280.000000
30
-68.571426
70
192
0
VERTEX
8
OBJECT100
10
-1024.000000
20
-1024.000000
30
-68.571426
70
192
0
VERTEX
8
OBJECT100
10
0
20
0
30
0
70
128
71
2
72
3
73
-4
0
VERTEX
8
OBJECT100
10
0
20
0
30
0
70
128
71
-2
72
4
73
1
0
VERTEX
8
OBJECT100
10
0
20
0
30
0
70
128
71
6
72
7
73
-8
0
VERTEX
8
OBJECT100
10
0
20
0
30
0
70
128
71
-6
72
8
73
5
0
VERTEX
8
OBJECT100
10
0
20
0
30
0
70
128
71
5
72
2
73
-1
0
VERTEX
8
OBJECT100
10
0
20
0
30
0
70
128
71
-5
72
1
73
6
0
VERTEX
8
OBJECT100
10
0
20
0
30
0
70
128
71
7
72
4
73
-3
0
VERTEX
8
OBJECT100
10
0
20
0
30
0
70
128
71
-7
72
3
73
8
0
VERTEX
8
OBJECT100
10
0
20
0
30
0
70
128
71
8
72
3
73
-2
0
VERTEX
8
OBJECT100
10
0
20
0
30
0
70
128
71
-8
72
2
73
5
0
VERTEX
8
OBJECT100
10
0
20
0
30
0
70
128
71
6
72
1
73
-4
0
VERTEX
8
OBJECT100
10
0
20
0
30
0
70
128
71
-6
72
4
73
7
0
SEQEND
8
OBJECT100
0
POLYLINE
8
OBJECT101
66
1
70
64
71
8
72
12
62
50
0
VERTEX
8
OBJECT101
10
-1184.000000
20
-2304.000000
30
-32.000000
70
192
0
VERTEX
8
OBJECT101
10
-1184.000000
20
-2048.000000
30
-32.000000
70
192
0
VERTEX
8
OBJECT101
10
-1024.000000
20
-2048.000000
30
-32.000000
70
192
0
VERTEX
8
OBJECT101
10
-1024.000000
20
-2304.000000
30
-32.000000
70
192
0
VERTEX
8
OBJECT101
10
-1184.000000
20
-2048.000000
30
-68.571426
70
192
0
VERTEX
8
OBJECT101
10
-1184.000000
20
-2304.000000
30
-68.571426
70
192
0
VERTEX
8
OBJECT101
10
-1024.000000
20
-2304.000000
30
-68.571426
70
192
0
VERTEX
8
OBJECT101
10
-1024.000000
20
-2048.000000
30
-68.571426
70
192
0
VERTEX
8
OBJECT101
10
0
20
0
30
0
70
128
71
2
72
3
73
-4
0
VERTEX
8
OBJECT101
10
0
20
0
30
0
70
128
71
-2
72
4
73
1
0
VERTEX
8
OBJECT101
10
0
20
0
30
0
70
128
71
6
72
7
73
-8
0
VERTEX
8
OBJECT101
10
0
20
0
30
0
70
128
71
-6
72
8
73
5
0
VERTEX
8
OBJECT101
10
0
20
0
30
0
70
128
71
5
72
2
73
-1
0
VERTEX
8
OBJECT101
10
0
20
0
30
0
70
128
71
-5
72
1
73
6
0
VERTEX
8
OBJECT101
10
0
20
0
30
0
70
128
71
7
72
4
73
-3
0
VERTEX
8
OBJECT101
10
0
20
0
30
0
70
128
71
-7
72
3
73
8
0
VERTEX
8
OBJECT101
10
0
20
0
30
0
70
128
71
8
72
3
73
-2
0
VERTEX
8
OBJECT101
10
0
20
0
30
0
70
128
71
-8
72
2
73
5
0
VERTEX
8
OBJECT101
10
0
20
0
30
0
70
128
71
6
72
1
73
-4
0
VERTEX
8
OBJECT101
10
0
20
0
30
0
70
128
71
-6
72
4
73
7
0
SEQEND
8
OBJECT101
0
POLYLINE
8
OBJECT102
66
1
70
64
71
8
72
12
62
50
0
VERTEX
8
OBJECT102
10
1280.000000
20
-1280.000000
30
544.000000
70
192
0
VERTEX
8
OBJECT102
10
1280.000000
20
-512.000000
30
544.000000
70
192
0
VERTEX
8
OBJECT102
10
2048.000000
20
-512.000000
30
544.000000
70
192
0
VERTEX
8
OBJECT102
10
2048.000000
20
-1280.000000
30
544.000000
70
192
0
VERTEX
8
OBJECT102
10
1280.000000
20
-512.000000
30
512.000000
70
192
0
VERTEX
8
OBJECT102
10
1280.000000
20
-1280.000000
30
512.000000
70
192
0
VERTEX
8
OBJECT102
10
2048.000000
20
-1280.000000
30
512.000000
70
192
0
VERTEX
8
OBJECT102
10
2048.000000
20
-512.000000
30
512.000000
70
192
0
VERTEX
8
OBJECT102
10
0
20
0
30
0
70
128
71
2
72
3
73
-4
0
VERTEX
8
OBJECT102
10
0
20
0
30
0
70
128
71
-2
72
4
73
1
0
VERTEX
8
OBJECT102
10
0
20
0
30
0
70
128
71
6
72
7
73
-8
0
VERTEX
8
OBJECT102
10
0
20
0
30
0
70
128
71
-6
72
8
73
5
0
VERTEX
8
OBJECT102
10
0
20
0
30
0
70
128
71
5
72
2
73
-1
0
VERTEX
8
OBJECT102
10
0
20
0
30
0
70
128
71
-5
72
1
73
6
0
VERTEX
8
OBJECT102
10
0
20
0
30
0
70
128
71
7
72
4
73
-3
0
VERTEX
8
OBJECT102
10
0
20
0
30
0
70
128
71
-7
72
3
73
8
0
VERTEX
8
OBJECT102
10
0
20
0
30
0
70
128
71
8
72
3
73
-2
0
VERTEX
8
OBJECT102
10
0
20
0
30
0
70
128
71
-8
72
2
73
5
0
VERTEX
8
OBJECT102
10
0
20
0
30
0
70
128
71
6
72
1
73
-4
0
VERTEX
8
OBJECT102
10
0
20
0
30
0
70
128
71
-6
72
4
73
7
0
SEQEND
8
OBJECT102
0
POLYLINE
8
OBJECT103
66
1
70
64
71
8
72
12
62
50
0
VERTEX
8
OBJECT103
10
1280.000000
20
-2304.000000
30
544.000000
70
192
0
VERTEX
8
OBJECT103
10
1280.000000
20
-1536.000000
30
544.000000
70
192
0
VERTEX
8
OBJECT103
10
2048.000000
20
-1536.000000
30
544.000000
70
192
0
VERTEX
8
OBJECT103
10
2048.000000
20
-2304.000000
30
544.000000
70
192
0
VERTEX
8
OBJECT103
10
1280.000000
20
-1536.000000
30
512.000000
70
192
0
VERTEX
8
OBJECT103
10
1280.000000
20
-2304.000000
30
512.000000
70
192
0
VERTEX
8
OBJECT103
10
2048.000000
20
-2304.000000
30
512.000000
70
192
0
VERTEX
8
OBJECT103
10
2048.000000
20
-1536.000000
30
512.000000
70
192
0
VERTEX
8
OBJECT103
10
0
20
0
30
0
70
128
71
2
72
3
73
-4
0
VERTEX
8
OBJECT103
10
0
20
0
30
0
70
128
71
-2
72
4
73
1
0
VERTEX
8
OBJECT103
10
0
20
0
30
0
70
128
71
6
72
7
73
-8
0
VERTEX
8
OBJECT103
10
0
20
0
30
0
70
128
71
-6
72
8
73
5
0
VERTEX
8
OBJECT103
10
0
20
0
30
0
70
128
71
5
72
2
73
-1
0
VERTEX
8
OBJECT103
10
0
20
0
30
0
70
128
71
-5
72
1
73
6
0
VERTEX
8
OBJECT103
10
0
20
0
30
0
70
128
71
7
72
4
73
-3
0
VERTEX
8
OBJECT103
10
0
20
0
30
0
70
128
71
-7
72
3
73
8
0
VERTEX
8
OBJECT103
10
0
20
0
30
0
70
128
71
8
72
3
73
-2
0
VERTEX
8
OBJECT103
10
0
20
0
30
0
70
128
71
-8
72
2
73
5
0
VERTEX
8
OBJECT103
10
0
20
0
30
0
70
128
71
6
72
1
73
-4
0
VERTEX
8
OBJECT103
10
0
20
0
30
0
70
128
71
-6
72
4
73
7
0
SEQEND
8
OBJECT103
0
POLYLINE
8
OBJECT104
66
1
70
64
71
8
72
12
62
50
0
VERTEX
8
OBJECT104
10
1280.000000
20
-256.000000
30
768.000000
70
192
0
VERTEX
8
OBJECT104
10
1280.000000
20
512.000000
30
768.000000
70
192
0
VERTEX
8
OBJECT104
10
2048.000000
20
512.000000
30
768.000000
70
192
0
VERTEX
8
OBJECT104
10
2048.000000
20
-256.000000
30
768.000000
70
192
0
VERTEX
8
OBJECT104
10
1280.000000
20
512.000000
30
736.000000
70
192
0
VERTEX
8
OBJECT104
10
1280.000000
20
-256.000000
30
736.000000
70
192
0
VERTEX
8
OBJECT104
10
2048.000000
20
-256.000000
30
736.000000
70
192
0
VERTEX
8
OBJECT104
10
2048.000000
20
512.000000
30
736.000000
70
192
0
VERTEX
8
OBJECT104
10
0
20
0
30
0
70
128
71
2
72
3
73
-4
0
VERTEX
8
OBJECT104
10
0
20
0
30
0
70
128
71
-2
72
4
73
1
0
VERTEX
8
OBJECT104
10
0
20
0
30
0
70
128
71
6
72
7
73
-8
0
VERTEX
8
OBJECT104
10
0
20
0
30
0
70
128
71
-6
72
8
73
5
0
VERTEX
8
OBJECT104
10
0
20
0
30
0
70
128
71
5
72
2
73
-1
0
VERTEX
8
OBJECT104
10
0
20
0
30
0
70
128
71
-5
72
1
73
6
0
VERTEX
8
OBJECT104
10
0
20
0
30
0
70
128
71
7
72
4
73
-3
0
VERTEX
8
OBJECT104
10
0
20
0
30
0
70
128
71
-7
72
3
73
8
0
VERTEX
8
OBJECT104
10
0
20
0
30
0
70
128
71
8
72
3
73
-2
0
VERTEX
8
OBJECT104
10
0
20
0
30
0
70
128
71
-8
72
2
73
5
0
VERTEX
8
OBJECT104
10
0
20
0
30
0
70
128
71
6
72
1
73
-4
0
VERTEX
8
OBJECT104
10
0
20
0
30
0
70
128
71
-6
72
4
73
7
0
SEQEND
8
OBJECT104
0
POLYLINE
8
OBJECT105
66
1
70
64
71
8
72
12
62
50
0
VERTEX
8
OBJECT105
10
1280.000000
20
-1280.000000
30
768.000000
70
192
0
VERTEX
8
OBJECT105
10
1280.000000
20
-512.000000
30
768.000000
70
192
0
VERTEX
8
OBJECT105
10
2048.000000
20
-512.000000
30
768.000000
70
192
0
VERTEX
8
OBJECT105
10
2048.000000
20
-1280.000000
30
768.000000
70
192
0
VERTEX
8
OBJECT105
10
1280.000000
20
-512.000000
30
736.000000
70
192
0
VERTEX
8
OBJECT105
10
1280.000000
20
-1280.000000
30
736.000000
70
192
0
VERTEX
8
OBJECT105
10
2048.000000
20
-1280.000000
30
736.000000
70
192
0
VERTEX
8
OBJECT105
10
2048.000000
20
-512.000000
30
736.000000
70
192
0
VERTEX
8
OBJECT105
10
0
20
0
30
0
70
128
71
2
72
3
73
-4
0
VERTEX
8
OBJECT105
10
0
20
0
30
0
70
128
71
-2
72
4
73
1
0
VERTEX
8
OBJECT105
10
0
20
0
30
0
70
128
71
6
72
7
73
-8
0
VERTEX
8
OBJECT105
10
0
20
0
30
0
70
128
71
-6
72
8
73
5
0
VERTEX
8
OBJECT105
10
0
20
0
30
0
70
128
71
5
72
2
73
-1
0
VERTEX
8
OBJECT105
10
0
20
0
30
0
70
128
71
-5
72
1
73
6
0
VERTEX
8
OBJECT105
10
0
20
0
30
0
70
128
71
7
72
4
73
-3
0
VERTEX
8
OBJECT105
10
0
20
0
30
0
70
128
71
-7
72
3
73
8
0
VERTEX
8
OBJECT105
10
0
20
0
30
0
70
128
71
8
72
3
73
-2
0
VERTEX
8
OBJECT105
10
0
20
0
30
0
70
128
71
-8
72
2
73
5
0
VERTEX
8
OBJECT105
10
0
20
0
30
0
70
128
71
6
72
1
73
-4
0
VERTEX
8
OBJECT105
10
0
20
0
30
0
70
128
71
-6
72
4
73
7
0
SEQEND
8
OBJECT105
0
POLYLINE
8
OBJECT106
66
1
70
64
71
8
72
12
62
50
0
VERTEX
8
OBJECT106
10
1280.000000
20
-2304.000000
30
768.000000
70
192
0
VERTEX
8
OBJECT106
10
1280.000000
20
-1536.000000
30
768.000000
70
192
0
VERTEX
8
OBJECT106
10
2048.000000
20
-1536.000000
30
768.000000
70
192
0
VERTEX
8
OBJECT106
10
2048.000000
20
-2304.000000
30
768.000000
70
192
0
VERTEX
8
OBJECT106
10
1280.000000
20
-1536.000000
30
736.000000
70
192
0
VERTEX
8
OBJECT106
10
1280.000000
20
-2304.000000
30
736.000000
70
192
0
VERTEX
8
OBJECT106
10
2048.000000
20
-2304.000000
30
736.000000
70
192
0
VERTEX
8
OBJECT106
10
2048.000000
20
-1536.000000
30
736.000000
70
192
0
VERTEX
8
OBJECT106
10
0
20
0
30
0
70
128
71
2
72
3
73
-4
0
VERTEX
8
OBJECT106
10
0
20
0
30
0
70
128
71
-2
72
4
73
1
0
VERTEX
8
OBJECT106
10
0
20
0
30
0
70
128
71
6
72
7
73
-8
0
VERTEX
8
OBJECT106
10
0
20
0
30
0
70
128
71
-6
72
8
73
5
0
VERTEX
8
OBJECT106
10
0
20
0
30
0
70
128
71
5
72
2
73
-1
0
VERTEX
8
OBJECT106
10
0
20
0
30
0
70
128
71
-5
72
1
73
6
0
VERTEX
8
OBJECT106
10
0
20
0
30
0
70
128
71
7
72
4
73
-3
0
VERTEX
8
OBJECT106
10
0
20
0
30
0
70
128
71
-7
72
3
73
8
0
VERTEX
8
OBJECT106
10
0
20
0
30
0
70
128
71
8
72
3
73
-2
0
VERTEX
8
OBJECT106
10
0
20
0
30
0
70
128
71
-8
72
2
73
5
0
VERTEX
8
OBJECT106
10
0
20
0
30
0
70
128
71
6
72
1
73
-4
0
VERTEX
8
OBJECT106
10
0
20
0
30
0
70
128
71
-6
72
4
73
7
0
SEQEND
8
OBJECT106
0
POLYLINE
8
OBJECT107
66
1
70
64
71
8
72
12
62
50
0
VERTEX
8
OBJECT107
10
2112.000000
20
-256.000000
30
736.000000
70
192
0
VERTEX
8
OBJECT107
10
2112.000000
20
512.000000
30
736.000000
70
192
0
VERTEX
8
OBJECT107
10
2144.000000
20
512.000000
30
736.000000
70
192
0
VERTEX
8
OBJECT107
10
2144.000000
20
-256.000000
30
736.000000
70
192
0
VERTEX
8
OBJECT107
10
2112.000000
20
512.000000
30
544.000000
70
192
0
VERTEX
8
OBJECT107
10
2112.000000
20
-256.000000
30
544.000000
70
192
0
VERTEX
8
OBJECT107
10
2144.000000
20
-256.000000
30
544.000000
70
192
0
VERTEX
8
OBJECT107
10
2144.000000
20
512.000000
30
544.000000
70
192
0
VERTEX
8
OBJECT107
10
0
20
0
30
0
70
128
71
2
72
3
73
-4
0
VERTEX
8
OBJECT107
10
0
20
0
30
0
70
128
71
-2
72
4
73
1
0
VERTEX
8
OBJECT107
10
0
20
0
30
0
70
128
71
6
72
7
73
-8
0
VERTEX
8
OBJECT107
10
0
20
0
30
0
70
128
71
-6
72
8
73
5
0
VERTEX
8
OBJECT107
10
0
20
0
30
0
70
128
71
5
72
2
73
-1
0
VERTEX
8
OBJECT107
10
0
20
0
30
0
70
128
71
-5
72
1
73
6
0
VERTEX
8
OBJECT107
10
0
20
0
30
0
70
128
71
7
72
4
73
-3
0
VERTEX
8
OBJECT107
10
0
20
0
30
0
70
128
71
-7
72
3
73
8
0
VERTEX
8
OBJECT107
10
0
20
0
30
0
70
128
71
8
72
3
73
-2
0
VERTEX
8
OBJECT107
10
0
20
0
30
0
70
128
71
-8
72
2
73
5
0
VERTEX
8
OBJECT107
10
0
20
0
30
0
70
128
71
6
72
1
73
-4
0
VERTEX
8
OBJECT107
10
0
20
0
30
0
70
128
71
-6
72
4
73
7
0
SEQEND
8
OBJECT107
0
POLYLINE
8
OBJECT108
66
1
70
64
71
8
72
12
62
50
0
VERTEX
8
OBJECT108
10
2176.000000
20
-256.000000
30
736.000000
70
192
0
VERTEX
8
OBJECT108
10
2176.000000
20
64.000015
30
736.000000
70
192
0
VERTEX
8
OBJECT108
10
2208.000000
20
64.000015
30
736.000000
70
192
0
VERTEX
8
OBJECT108
10
2208.000000
20
-256.000000
30
736.000000
70
192
0
VERTEX
8
OBJECT108
10
2176.000000
20
64.000015
30
544.000000
70
192
0
VERTEX
8
OBJECT108
10
2176.000000
20
-256.000000
30
544.000000
70
192
0
VERTEX
8
OBJECT108
10
2208.000000
20
-256.000000
30
544.000000
70
192
0
VERTEX
8
OBJECT108
10
2208.000000
20
64.000015
30
544.000000
70
192
0
VERTEX
8
OBJECT108
10
0
20
0
30
0
70
128
71
2
72
3
73
-4
0
VERTEX
8
OBJECT108
10
0
20
0
30
0
70
128
71
-2
72
4
73
1
0
VERTEX
8
OBJECT108
10
0
20
0
30
0
70
128
71
6
72
7
73
-8
0
VERTEX
8
OBJECT108
10
0
20
0
30
0
70
128
71
-6
72
8
73
5
0
VERTEX
8
OBJECT108
10
0
20
0
30
0
70
128
71
5
72
2
73
-1
0
VERTEX
8
OBJECT108
10
0
20
0
30
0
70
128
71
-5
72
1
73
6
0
VERTEX
8
OBJECT108
10
0
20
0
30
0
70
128
71
7
72
4
73
-3
0
VERTEX
8
OBJECT108
10
0
20
0
30
0
70
128
71
-7
72
3
73
8
0
VERTEX
8
OBJECT108
10
0
20
0
30
0
70
128
71
8
72
3
73
-2
0
VERTEX
8
OBJECT108
10
0
20
0
30
0
70
128
71
-8
72
2
73
5
0
VERTEX
8
OBJECT108
10
0
20
0
30
0
70
128
71
6
72
1
73
-4
0
VERTEX
8
OBJECT108
10
0
20
0
30
0
70
128
71
-6
72
4
73
7
0
SEQEND
8
OBJECT108
0
POLYLINE
8
OBJECT109
66
1
70
64
71
8
72
12
62
50
0
VERTEX
8
OBJECT109
10
2176.000000
20
192.000000
30
736.000000
70
192
0
VERTEX
8
OBJECT109
10
2176.000000
20
512.000000
30
736.000000
70
192
0
VERTEX
8
OBJECT109
10
2208.000000
20
512.000000
30
736.000000
70
192
0
VERTEX
8
OBJECT109
10
2208.000000
20
192.000000
30
736.000000
70
192
0
VERTEX
8
OBJECT109
10
2176.000000
20
512.000000
30
544.000000
70
192
0
VERTEX
8
OBJECT109
10
2176.000000
20
192.000000
30
544.000000
70
192
0
VERTEX
8
OBJECT109
10
2208.000000
20
192.000000
30
544.000000
70
192
0
VERTEX
8
OBJECT109
10
2208.000000
20
512.000000
30
544.000000
70
192
0
VERTEX
8
OBJECT109
10
0
20
0
30
0
70
128
71
2
72
3
73
-4
0
VERTEX
8
OBJECT109
10
0
20
0
30
0
70
128
71
-2
72
4
73
1
0
VERTEX
8
OBJECT109
10
0
20
0
30
0
70
128
71
6
72
7
73
-8
0
VERTEX
8
OBJECT109
10
0
20
0
30
0
70
128
71
-6
72
8
73
5
0
VERTEX
8
OBJECT109
10
0
20
0
30
0
70
128
71
5
72
2
73
-1
0
VERTEX
8
OBJECT109
10
0
20
0
30
0
70
128
71
-5
72
1
73
6
0
VERTEX
8
OBJECT109
10
0
20
0
30
0
70
128
71
7
72
4
73
-3
0
VERTEX
8
OBJECT109
10
0
20
0
30
0
70
128
71
-7
72
3
73
8
0
VERTEX
8
OBJECT109
10
0
20
0
30
0
70
128
71
8
72
3
73
-2
0
VERTEX
8
OBJECT109
10
0
20
0
30
0
70
128
71
-8
72
2
73
5
0
VERTEX
8
OBJECT109
10
0
20
0
30
0
70
128
71
6
72
1
73
-4
0
VERTEX
8
OBJECT109
10
0
20
0
30
0
70
128
71
-6
72
4
73
7
0
SEQEND
8
OBJECT109
0
POLYLINE
8
OBJECT110
66
1
70
64
71
8
72
12
62
50
0
VERTEX
8
OBJECT110
10
2240.000000
20
256.000000
30
736.000000
70
192
0
VERTEX
8
OBJECT110
10
2240.000000
20
512.000000
30
736.000000
70
192
0
VERTEX
8
OBJECT110
10
2272.000000
20
512.000000
30
736.000000
70
192
0
VERTEX
8
OBJECT110
10
2272.000000
20
256.000000
30
736.000000
70
192
0
VERTEX
8
OBJECT110
10
2240.000000
20
512.000000
30
544.000000
70
192
0
VERTEX
8
OBJECT110
10
2240.000000
20
256.000000
30
544.000000
70
192
0
VERTEX
8
OBJECT110
10
2272.000000
20
256.000000
30
544.000000
70
192
0
VERTEX
8
OBJECT110
10
2272.000000
20
512.000000
30
544.000000
70
192
0
VERTEX
8
OBJECT110
10
0
20
0
30
0
70
128
71
2
72
3
73
-4
0
VERTEX
8
OBJECT110
10
0
20
0
30
0
70
128
71
-2
72
4
73
1
0
VERTEX
8
OBJECT110
10
0
20
0
30
0
70
128
71
6
72
7
73
-8
0
VERTEX
8
OBJECT110
10
0
20
0
30
0
70
128
71
-6
72
8
73
5
0
VERTEX
8
OBJECT110
10
0
20
0
30
0
70
128
71
5
72
2
73
-1
0
VERTEX
8
OBJECT110
10
0
20
0
30
0
70
128
71
-5
72
1
73
6
0
VERTEX
8
OBJECT110
10
0
20
0
30
0
70
128
71
7
72
4
73
-3
0
VERTEX
8
OBJECT110
10
0
20
0
30
0
70
128
71
-7
72
3
73
8
0
VERTEX
8
OBJECT110
10
0
20
0
30
0
70
128
71
8
72
3
73
-2
0
VERTEX
8
OBJECT110
10
0
20
0
30
0
70
128
71
-8
72
2
73
5
0
VERTEX
8
OBJECT110
10
0
20
0
30
0
70
128
71
6
72
1
73
-4
0
VERTEX
8
OBJECT110
10
0
20
0
30
0
70
128
71
-6
72
4
73
7
0
SEQEND
8
OBJECT110
0
POLYLINE
8
OBJECT111
66
1
70
64
71
8
72
12
62
50
0
VERTEX
8
OBJECT111
10
2240.000000
20
-256.000000
30
736.000000
70
192
0
VERTEX
8
OBJECT111
10
2240.000000
20
0.000015
30
736.000000
70
192
0
VERTEX
8
OBJECT111
10
2272.000000
20
0.000015
30
736.000000
70
192
0
VERTEX
8
OBJECT111
10
2272.000000
20
-256.000000
30
736.000000
70
192
0
VERTEX
8
OBJECT111
10
2240.000000
20
0.000015
30
544.000000
70
192
0
VERTEX
8
OBJECT111
10
2240.000000
20
-256.000000
30
544.000000
70
192
0
VERTEX
8
OBJECT111
10
2272.000000
20
-256.000000
30
544.000000
70
192
0
VERTEX
8
OBJECT111
10
2272.000000
20
0.000015
30
544.000000
70
192
0
VERTEX
8
OBJECT111
10
0
20
0
30
0
70
128
71
2
72
3
73
-4
0
VERTEX
8
OBJECT111
10
0
20
0
30
0
70
128
71
-2
72
4
73
1
0
VERTEX
8
OBJECT111
10
0
20
0
30
0
70
128
71
6
72
7
73
-8
0
VERTEX
8
OBJECT111
10
0
20
0
30
0
70
128
71
-6
72
8
73
5
0
VERTEX
8
OBJECT111
10
0
20
0
30
0
70
128
71
5
72
2
73
-1
0
VERTEX
8
OBJECT111
10
0
20
0
30
0
70
128
71
-5
72
1
73
6
0
VERTEX
8
OBJECT111
10
0
20
0
30
0
70
128
71
7
72
4
73
-3
0
VERTEX
8
OBJECT111
10
0
20
0
30
0
70
128
71
-7
72
3
73
8
0
VERTEX
8
OBJECT111
10
0
20
0
30
0
70
128
71
8
72
3
73
-2
0
VERTEX
8
OBJECT111
10
0
20
0
30
0
70
128
71
-8
72
2
73
5
0
VERTEX
8
OBJECT111
10
0
20
0
30
0
70
128
71
6
72
1
73
-4
0
VERTEX
8
OBJECT111
10
0
20
0
30
0
70
128
71
-6
72
4
73
7
0
SEQEND
8
OBJECT111
0
POLYLINE
8
OBJECT112
66
1
70
64
71
8
72
12
62
50
0
VERTEX
8
OBJECT112
10
2304.000000
20
-256.000000
30
736.000000
70
192
0
VERTEX
8
OBJECT112
10
2304.000000
20
-128.000015
30
736.000000
70
192
0
VERTEX
8
OBJECT112
10
2336.000000
20
-128.000015
30
736.000000
70
192
0
VERTEX
8
OBJECT112
10
2336.000000
20
-256.000000
30
736.000000
70
192
0
VERTEX
8
OBJECT112
10
2304.000000
20
-128.000015
30
544.000000
70
192
0
VERTEX
8
OBJECT112
10
2304.000000
20
-256.000000
30
544.000000
70
192
0
VERTEX
8
OBJECT112
10
2336.000000
20
-256.000000
30
544.000000
70
192
0
VERTEX
8
OBJECT112
10
2336.000000
20
-128.000015
30
544.000000
70
192
0
VERTEX
8
OBJECT112
10
0
20
0
30
0
70
128
71
2
72
3
73
-4
0
VERTEX
8
OBJECT112
10
0
20
0
30
0
70
128
71
-2
72
4
73
1
0
VERTEX
8
OBJECT112
10
0
20
0
30
0
70
128
71
6
72
7
73
-8
0
VERTEX
8
OBJECT112
10
0
20
0
30
0
70
128
71
-6
72
8
73
5
0
VERTEX
8
OBJECT112
10
0
20
0
30
0
70
128
71
5
72
2
73
-1
0
VERTEX
8
OBJECT112
10
0
20
0
30
0
70
128
71
-5
72
1
73
6
0
VERTEX
8
OBJECT112
10
0
20
0
30
0
70
128
71
7
72
4
73
-3
0
VERTEX
8
OBJECT112
10
0
20
0
30
0
70
128
71
-7
72
3
73
8
0
VERTEX
8
OBJECT112
10
0
20
0
30
0
70
128
71
8
72
3
73
-2
0
VERTEX
8
OBJECT112
10
0
20
0
30
0
70
128
71
-8
72
2
73
5
0
VERTEX
8
OBJECT112
10
0
20
0
30
0
70
128
71
6
72
1
73
-4
0
VERTEX
8
OBJECT112
10
0
20
0
30
0
70
128
71
-6
72
4
73
7
0
SEQEND
8
OBJECT112
0
POLYLINE
8
OBJECT113
66
1
70
64
71
8
72
12
62
50
0
VERTEX
8
OBJECT113
10
2304.000000
20
384.000000
30
736.000000
70
192
0
VERTEX
8
OBJECT113
10
2304.000000
20
512.000000
30
736.000000
70
192
0
VERTEX
8
OBJECT113
10
2336.000000
20
512.000000
30
736.000000
70
192
0
VERTEX
8
OBJECT113
10
2336.000000
20
384.000000
30
736.000000
70
192
0
VERTEX
8
OBJECT113
10
2304.000000
20
512.000000
30
544.000000
70
192
0
VERTEX
8
OBJECT113
10
2304.000000
20
384.000000
30
544.000000
70
192
0
VERTEX
8
OBJECT113
10
2336.000000
20
384.000000
30
544.000000
70
192
0
VERTEX
8
OBJECT113
10
2336.000000
20
512.000000
30
544.000000
70
192
0
VERTEX
8
OBJECT113
10
0
20
0
30
0
70
128
71
2
72
3
73
-4
0
VERTEX
8
OBJECT113
10
0
20
0
30
0
70
128
71
-2
72
4
73
1
0
VERTEX
8
OBJECT113
10
0
20
0
30
0
70
128
71
6
72
7
73
-8
0
VERTEX
8
OBJECT113
10
0
20
0
30
0
70
128
71
-6
72
8
73
5
0
VERTEX
8
OBJECT113
10
0
20
0
30
0
70
128
71
5
72
2
73
-1
0
VERTEX
8
OBJECT113
10
0
20
0
30
0
70
128
71
-5
72
1
73
6
0
VERTEX
8
OBJECT113
10
0
20
0
30
0
70
128
71
7
72
4
73
-3
0
VERTEX
8
OBJECT113
10
0
20
0
30
0
70
128
71
-7
72
3
73
8
0
VERTEX
8
OBJECT113
10
0
20
0
30
0
70
128
71
8
72
3
73
-2
0
VERTEX
8
OBJECT113
10
0
20
0
30
0
70
128
71
-8
72
2
73
5
0
VERTEX
8
OBJECT113
10
0
20
0
30
0
70
128
71
6
72
1
73
-4
0
VERTEX
8
OBJECT113
10
0
20
0
30
0
70
128
71
-6
72
4
73
7
0
SEQEND
8
OBJECT113
0
POLYLINE
8
OBJECT114
66
1
70
64
71
8
72
12
62
50
0
VERTEX
8
OBJECT114
10
2368.000000
20
176.000000
30
638.000000
70
192
0
VERTEX
8
OBJECT114
10
2456.000000
20
176.000000
30
638.000000
70
192
0
VERTEX
8
OBJECT114
10
2456.000000
20
88.000000
30
638.000000
70
192
0
VERTEX
8
OBJECT114
10
2368.000000
20
88.000000
30
638.000000
70
192
0
VERTEX
8
OBJECT114
10
2368.000000
20
88.000000
30
544.000000
70
192
0
VERTEX
8
OBJECT114
10
2456.000000
20
88.000000
30
544.000000
70
192
0
VERTEX
8
OBJECT114
10
2456.000000
20
176.000000
30
544.000000
70
192
0
VERTEX
8
OBJECT114
10
2368.000000
20
176.000000
30
544.000000
70
192
0
VERTEX
8
OBJECT114
10
0
20
0
30
0
70
128
71
2
72
3
73
-4
0
VERTEX
8
OBJECT114
10
0
20
0
30
0
70
128
71
-2
72
4
73
1
0
VERTEX
8
OBJECT114
10
0
20
0
30
0
70
128
71
6
72
7
73
-8
0
VERTEX
8
OBJECT114
10
0
20
0
30
0
70
128
71
-6
72
8
73
5
0
VERTEX
8
OBJECT114
10
0
20
0
30
0
70
128
71
4
72
5
73
-8
0
VERTEX
8
OBJECT114
10
0
20
0
30
0
70
128
71
-4
72
8
73
1
0
VERTEX
8
OBJECT114
10
0
20
0
30
0
70
128
71
6
72
3
73
-2
0
VERTEX
8
OBJECT114
10
0
20
0
30
0
70
128
71
-6
72
2
73
7
0
VERTEX
8
OBJECT114
10
0
20
0
30
0
70
128
71
1
72
8
73
-7
0
VERTEX
8
OBJECT114
10
0
20
0
30
0
70
128
71
-1
72
7
73
2
0
VERTEX
8
OBJECT114
10
0
20
0
30
0
70
128
71
5
72
4
73
-3
0
VERTEX
8
OBJECT114
10
0
20
0
30
0
70
128
71
-5
72
3
73
6
0
SEQEND
8
OBJECT114
0
POLYLINE
8
OBJECT115
66
1
70
64
71
8
72
12
62
50
0
VERTEX
8
OBJECT115
10
2048.000000
20
560.000000
30
736.000000
70
192
0
VERTEX
8
OBJECT115
10
1279.999878
20
559.999939
30
736.000000
70
192
0
VERTEX
8
OBJECT115
10
1279.999878
20
591.999939
30
736.000000
70
192
0
VERTEX
8
OBJECT115
10
2048.000000
20
592.000000
30
736.000000
70
192
0
VERTEX
8
OBJECT115
10
1279.999878
20
559.999939
30
544.000000
70
192
0
VERTEX
8
OBJECT115
10
2048.000000
20
560.000000
30
544.000000
70
192
0
VERTEX
8
OBJECT115
10
2048.000000
20
592.000000
30
544.000000
70
192
0
VERTEX
8
OBJECT115
10
1279.999878
20
591.999939
30
544.000000
70
192
0
VERTEX
8
OBJECT115
10
0
20
0
30
0
70
128
71
2
72
3
73
-4
0
VERTEX
8
OBJECT115
10
0
20
0
30
0
70
128
71
-2
72
4
73
1
0
VERTEX
8
OBJECT115
10
0
20
0
30
0
70
128
71
6
72
7
73
-8
0
VERTEX
8
OBJECT115
10
0
20
0
30
0
70
128
71
-6
72
8
73
5
0
VERTEX
8
OBJECT115
10
0
20
0
30
0
70
128
71
5
72
2
73
-1
0
VERTEX
8
OBJECT115
10
0
20
0
30
0
70
128
71
-5
72
1
73
6
0
VERTEX
8
OBJECT115
10
0
20
0
30
0
70
128
71
7
72
4
73
-3
0
VERTEX
8
OBJECT115
10
0
20
0
30
0
70
128
71
-7
72
3
73
8
0
VERTEX
8
OBJECT115
10
0
20
0
30
0
70
128
71
8
72
3
73
-2
0
VERTEX
8
OBJECT115
10
0
20
0
30
0
70
128
71
-8
72
2
73
5
0
VERTEX
8
OBJECT115
10
0
20
0
30
0
70
128
71
6
72
1
73
-4
0
VERTEX
8
OBJECT115
10
0
20
0
30
0
70
128
71
-6
72
4
73
7
0
SEQEND
8
OBJECT115
0
POLYLINE
8
OBJECT116
66
1
70
64
71
8
72
12
62
50
0
VERTEX
8
OBJECT116
10
2048.000000
20
624.000000
30
736.000000
70
192
0
VERTEX
8
OBJECT116
10
1727.999878
20
623.999939
30
736.000000
70
192
0
VERTEX
8
OBJECT116
10
1727.999878
20
655.999939
30
736.000000
70
192
0
VERTEX
8
OBJECT116
10
2048.000000
20
656.000000
30
736.000000
70
192
0
VERTEX
8
OBJECT116
10
1727.999878
20
623.999939
30
544.000000
70
192
0
VERTEX
8
OBJECT116
10
2048.000000
20
624.000000
30
544.000000
70
192
0
VERTEX
8
OBJECT116
10
2048.000000
20
656.000000
30
544.000000
70
192
0
VERTEX
8
OBJECT116
10
1727.999878
20
655.999939
30
544.000000
70
192
0
VERTEX
8
OBJECT116
10
0
20
0
30
0
70
128
71
2
72
3
73
-4
0
VERTEX
8
OBJECT116
10
0
20
0
30
0
70
128
71
-2
72
4
73
1
0
VERTEX
8
OBJECT116
10
0
20
0
30
0
70
128
71
6
72
7
73
-8
0
VERTEX
8
OBJECT116
10
0
20
0
30
0
70
128
71
-6
72
8
73
5
0
VERTEX
8
OBJECT116
10
0
20
0
30
0
70
128
71
5
72
2
73
-1
0
VERTEX
8
OBJECT116
10
0
20
0
30
0
70
128
71
-5
72
1
73
6
0
VERTEX
8
OBJECT116
10
0
20
0
30
0
70
128
71
7
72
4
73
-3
0
VERTEX
8
OBJECT116
10
0
20
0
30
0
70
128
71
-7
72
3
73
8
0
VERTEX
8
OBJECT116
10
0
20
0
30
0
70
128
71
8
72
3
73
-2
0
VERTEX
8
OBJECT116
10
0
20
0
30
0
70
128
71
-8
72
2
73
5
0
VERTEX
8
OBJECT116
10
0
20
0
30
0
70
128
71
6
72
1
73
-4
0
VERTEX
8
OBJECT116
10
0
20
0
30
0
70
128
71
-6
72
4
73
7
0
SEQEND
8
OBJECT116
0
POLYLINE
8
OBJECT117
66
1
70
64
71
8
72
12
62
50
0
VERTEX
8
OBJECT117
10
1599.999878
20
623.999939
30
736.000000
70
192
0
VERTEX
8
OBJECT117
10
1279.999878
20
623.999939
30
736.000000
70
192
0
VERTEX
8
OBJECT117
10
1279.999878
20
655.999939
30
736.000000
70
192
0
VERTEX
8
OBJECT117
10
1599.999878
20
655.999939
30
736.000000
70
192
0
VERTEX
8
OBJECT117
10
1279.999878
20
623.999939
30
544.000000
70
192
0
VERTEX
8
OBJECT117
10
1599.999878
20
623.999939
30
544.000000
70
192
0
VERTEX
8
OBJECT117
10
1599.999878
20
655.999939
30
544.000000
70
192
0
VERTEX
8
OBJECT117
10
1279.999878
20
655.999939
30
544.000000
70
192
0
VERTEX
8
OBJECT117
10
0
20
0
30
0
70
128
71
2
72
3
73
-4
0
VERTEX
8
OBJECT117
10
0
20
0
30
0
70
128
71
-2
72
4
73
1
0
VERTEX
8
OBJECT117
10
0
20
0
30
0
70
128
71
6
72
7
73
-8
0
VERTEX
8
OBJECT117
10
0
20
0
30
0
70
128
71
-6
72
8
73
5
0
VERTEX
8
OBJECT117
10
0
20
0
30
0
70
128
71
5
72
2
73
-1
0
VERTEX
8
OBJECT117
10
0
20
0
30
0
70
128
71
-5
72
1
73
6
0
VERTEX
8
OBJECT117
10
0
20
0
30
0
70
128
71
7
72
4
73
-3
0
VERTEX
8
OBJECT117
10
0
20
0
30
0
70
128
71
-7
72
3
73
8
0
VERTEX
8
OBJECT117
10
0
20
0
30
0
70
128
71
8
72
3
73
-2
0
VERTEX
8
OBJECT117
10
0
20
0
30
0
70
128
71
-8
72
2
73
5
0
VERTEX
8
OBJECT117
10
0
20
0
30
0
70
128
71
6
72
1
73
-4
0
VERTEX
8
OBJECT117
10
0
20
0
30
0
70
128
71
-6
72
4
73
7
0
SEQEND
8
OBJECT117
0
POLYLINE
8
OBJECT118
66
1
70
64
71
8
72
12
62
50
0
VERTEX
8
OBJECT118
10
1535.999878
20
688.000000
30
736.000000
70
192
0
VERTEX
8
OBJECT118
10
1279.999878
20
687.999878
30
736.000000
70
192
0
VERTEX
8
OBJECT118
10
1279.999878
20
719.999878
30
736.000000
70
192
0
VERTEX
8
OBJECT118
10
1535.999878
20
720.000000
30
736.000000
70
192
0
VERTEX
8
OBJECT118
10
1279.999878
20
687.999878
30
544.000000
70
192
0
VERTEX
8
OBJECT118
10
1535.999878
20
688.000000
30
544.000000
70
192
0
VERTEX
8
OBJECT118
10
1535.999878
20
720.000000
30
544.000000
70
192
0
VERTEX
8
OBJECT118
10
1279.999878
20
719.999878
30
544.000000
70
192
0
VERTEX
8
OBJECT118
10
0
20
0
30
0
70
128
71
2
72
3
73
-4
0
VERTEX
8
OBJECT118
10
0
20
0
30
0
70
128
71
-2
72
4
73
1
0
VERTEX
8
OBJECT118
10
0
20
0
30
0
70
128
71
6
72
7
73
-8
0
VERTEX
8
OBJECT118
10
0
20
0
30
0
70
128
71
-6
72
8
73
5
0
VERTEX
8
OBJECT118
10
0
20
0
30
0
70
128
71
5
72
2
73
-1
0
VERTEX
8
OBJECT118
10
0
20
0
30
0
70
128
71
-5
72
1
73
6
0
VERTEX
8
OBJECT118
10
0
20
0
30
0
70
128
71
7
72
4
73
-3
0
VERTEX
8
OBJECT118
10
0
20
0
30
0
70
128
71
-7
72
3
73
8
0
VERTEX
8
OBJECT118
10
0
20
0
30
0
70
128
71
8
72
3
73
-2
0
VERTEX
8
OBJECT118
10
0
20
0
30
0
70
128
71
-8
72
2
73
5
0
VERTEX
8
OBJECT118
10
0
20
0
30
0
70
128
71
6
72
1
73
-4
0
VERTEX
8
OBJECT118
10
0
20
0
30
0
70
128
71
-6
72
4
73
7
0
SEQEND
8
OBJECT118
0
POLYLINE
8
OBJECT119
66
1
70
64
71
8
72
12
62
50
0
VERTEX
8
OBJECT119
10
2048.000000
20
688.000000
30
736.000000
70
192
0
VERTEX
8
OBJECT119
10
1791.999878
20
688.000000
30
736.000000
70
192
0
VERTEX
8
OBJECT119
10
1791.999878
20
720.000000
30
736.000000
70
192
0
VERTEX
8
OBJECT119
10
2048.000000
20
720.000000
30
736.000000
70
192
0
VERTEX
8
OBJECT119
10
1791.999878
20
688.000000
30
544.000000
70
192
0
VERTEX
8
OBJECT119
10
2048.000000
20
688.000000
30
544.000000
70
192
0
VERTEX
8
OBJECT119
10
2048.000000
20
720.000000
30
544.000000
70
192
0
VERTEX
8
OBJECT119
10
1791.999878
20
720.000000
30
544.000000
70
192
0
VERTEX
8
OBJECT119
10
0
20
0
30
0
70
128
71
2
72
3
73
-4
0
VERTEX
8
OBJECT119
10
0
20
0
30
0
70
128
71
-2
72
4
73
1
0
VERTEX
8
OBJECT119
10
0
20
0
30
0
70
128
71
6
72
7
73
-8
0
VERTEX
8
OBJECT119
10
0
20
0
30
0
70
128
71
-6
72
8
73
5
0
VERTEX
8
OBJECT119
10
0
20
0
30
0
70
128
71
5
72
2
73
-1
0
VERTEX
8
OBJECT119
10
0
20
0
30
0
70
128
71
-5
72
1
73
6
0
VERTEX
8
OBJECT119
10
0
20
0
30
0
70
128
71
7
72
4
73
-3
0
VERTEX
8
OBJECT119
10
0
20
0
30
0
70
128
71
-7
72
3
73
8
0
VERTEX
8
OBJECT119
10
0
20
0
30
0
70
128
71
8
72
3
73
-2
0
VERTEX
8
OBJECT119
10
0
20
0
30
0
70
128
71
-8
72
2
73
5
0
VERTEX
8
OBJECT119
10
0
20
0
30
0
70
128
71
6
72
1
73
-4
0
VERTEX
8
OBJECT119
10
0
20
0
30
0
70
128
71
-6
72
4
73
7
0
SEQEND
8
OBJECT119
0
POLYLINE
8
OBJECT120
66
1
70
64
71
8
72
12
62
50
0
VERTEX
8
OBJECT120
10
2048.000000
20
752.000000
30
736.000000
70
192
0
VERTEX
8
OBJECT120
10
1919.999878
20
752.000000
30
736.000000
70
192
0
VERTEX
8
OBJECT120
10
1919.999878
20
784.000000
30
736.000000
70
192
0
VERTEX
8
OBJECT120
10
2048.000000
20
784.000000
30
736.000000
70
192
0
VERTEX
8
OBJECT120
10
1919.999878
20
752.000000
30
544.000000
70
192
0
VERTEX
8
OBJECT120
10
2048.000000
20
752.000000
30
544.000000
70
192
0
VERTEX
8
OBJECT120
10
2048.000000
20
784.000000
30
544.000000
70
192
0
VERTEX
8
OBJECT120
10
1919.999878
20
784.000000
30
544.000000
70
192
0
VERTEX
8
OBJECT120
10
0
20
0
30
0
70
128
71
2
72
3
73
-4
0
VERTEX
8
OBJECT120
10
0
20
0
30
0
70
128
71
-2
72
4
73
1
0
VERTEX
8
OBJECT120
10
0
20
0
30
0
70
128
71
6
72
7
73
-8
0
VERTEX
8
OBJECT120
10
0
20
0
30
0
70
128
71
-6
72
8
73
5
0
VERTEX
8
OBJECT120
10
0
20
0
30
0
70
128
71
5
72
2
73
-1
0
VERTEX
8
OBJECT120
10
0
20
0
30
0
70
128
71
-5
72
1
73
6
0
VERTEX
8
OBJECT120
10
0
20
0
30
0
70
128
71
7
72
4
73
-3
0
VERTEX
8
OBJECT120
10
0
20
0
30
0
70
128
71
-7
72
3
73
8
0
VERTEX
8
OBJECT120
10
0
20
0
30
0
70
128
71
8
72
3
73
-2
0
VERTEX
8
OBJECT120
10
0
20
0
30
0
70
128
71
-8
72
2
73
5
0
VERTEX
8
OBJECT120
10
0
20
0
30
0
70
128
71
6
72
1
73
-4
0
VERTEX
8
OBJECT120
10
0
20
0
30
0
70
128
71
-6
72
4
73
7
0
SEQEND
8
OBJECT120
0
POLYLINE
8
OBJECT121
66
1
70
64
71
8
72
12
62
50
0
VERTEX
8
OBJECT121
10
1407.999878
20
752.000000
30
736.000000
70
192
0
VERTEX
8
OBJECT121
10
1279.999878
20
751.999878
30
736.000000
70
192
0
VERTEX
8
OBJECT121
10
1279.999878
20
783.999878
30
736.000000
70
192
0
VERTEX
8
OBJECT121
10
1407.999878
20
784.000000
30
736.000000
70
192
0
VERTEX
8
OBJECT121
10
1279.999878
20
751.999878
30
544.000000
70
192
0
VERTEX
8
OBJECT121
10
1407.999878
20
752.000000
30
544.000000
70
192
0
VERTEX
8
OBJECT121
10
1407.999878
20
784.000000
30
544.000000
70
192
0
VERTEX
8
OBJECT121
10
1279.999878
20
783.999878
30
544.000000
70
192
0
VERTEX
8
OBJECT121
10
0
20
0
30
0
70
128
71
2
72
3
73
-4
0
VERTEX
8
OBJECT121
10
0
20
0
30
0
70
128
71
-2
72
4
73
1
0
VERTEX
8
OBJECT121
10
0
20
0
30
0
70
128
71
6
72
7
73
-8
0
VERTEX
8
OBJECT121
10
0
20
0
30
0
70
128
71
-6
72
8
73
5
0
VERTEX
8
OBJECT121
10
0
20
0
30
0
70
128
71
5
72
2
73
-1
0
VERTEX
8
OBJECT121
10
0
20
0
30
0
70
128
71
-5
72
1
73
6
0
VERTEX
8
OBJECT121
10
0
20
0
30
0
70
128
71
7
72
4
73
-3
0
VERTEX
8
OBJECT121
10
0
20
0
30
0
70
128
71
-7
72
3
73
8
0
VERTEX
8
OBJECT121
10
0
20
0
30
0
70
128
71
8
72
3
73
-2
0
VERTEX
8
OBJECT121
10
0
20
0
30
0
70
128
71
-8
72
2
73
5
0
VERTEX
8
OBJECT121
10
0
20
0
30
0
70
128
71
6
72
1
73
-4
0
VERTEX
8
OBJECT121
10
0
20
0
30
0
70
128
71
-6
72
4
73
7
0
SEQEND
8
OBJECT121
0
POLYLINE
8
OBJECT122
66
1
70
64
71
8
72
12
62
50
0
VERTEX
8
OBJECT122
10
2048.000000
20
-256.000000
30
736.000000
70
192
0
VERTEX
8
OBJECT122
10
1279.999878
20
-256.000061
30
736.000000
70
192
0
VERTEX
8
OBJECT122
10
1279.999878
20
-224.000061
30
736.000000
70
192
0
VERTEX
8
OBJECT122
10
2048.000000
20
-224.000000
30
736.000000
70
192
0
VERTEX
8
OBJECT122
10
1279.999878
20
-256.000061
30
544.000000
70
192
0
VERTEX
8
OBJECT122
10
2048.000000
20
-256.000000
30
544.000000
70
192
0
VERTEX
8
OBJECT122
10
2048.000000
20
-224.000000
30
544.000000
70
192
0
VERTEX
8
OBJECT122
10
1279.999878
20
-224.000061
30
544.000000
70
192
0
VERTEX
8
OBJECT122
10
0
20
0
30
0
70
128
71
2
72
3
73
-4
0
VERTEX
8
OBJECT122
10
0
20
0
30
0
70
128
71
-2
72
4
73
1
0
VERTEX
8
OBJECT122
10
0
20
0
30
0
70
128
71
6
72
7
73
-8
0
VERTEX
8
OBJECT122
10
0
20
0
30
0
70
128
71
-6
72
8
73
5
0
VERTEX
8
OBJECT122
10
0
20
0
30
0
70
128
71
5
72
2
73
-1
0
VERTEX
8
OBJECT122
10
0
20
0
30
0
70
128
71
-5
72
1
73
6
0
VERTEX
8
OBJECT122
10
0
20
0
30
0
70
128
71
7
72
4
73
-3
0
VERTEX
8
OBJECT122
10
0
20
0
30
0
70
128
71
-7
72
3
73
8
0
VERTEX
8
OBJECT122
10
0
20
0
30
0
70
128
71
8
72
3
73
-2
0
VERTEX
8
OBJECT122
10
0
20
0
30
0
70
128
71
-8
72
2
73
5
0
VERTEX
8
OBJECT122
10
0
20
0
30
0
70
128
71
6
72
1
73
-4
0
VERTEX
8
OBJECT122
10
0
20
0
30
0
70
128
71
-6
72
4
73
7
0
SEQEND
8
OBJECT122
0
POLYLINE
8
OBJECT123
66
1
70
64
71
8
72
12
62
50
0
VERTEX
8
OBJECT123
10
2048.000000
20
-2304.000000
30
736.000000
70
192
0
VERTEX
8
OBJECT123
10
1279.999878
20
-2304.000000
30
736.000000
70
192
0
VERTEX
8
OBJECT123
10
1279.999878
20
-2272.000000
30
736.000000
70
192
0
VERTEX
8
OBJECT123
10
2048.000000
20
-2272.000000
30
736.000000
70
192
0
VERTEX
8
OBJECT123
10
1279.999878
20
-2304.000000
30
544.000000
70
192
0
VERTEX
8
OBJECT123
10
2048.000000
20
-2304.000000
30
544.000000
70
192
0
VERTEX
8
OBJECT123
10
2048.000000
20
-2272.000000
30
544.000000
70
192
0
VERTEX
8
OBJECT123
10
1279.999878
20
-2272.000000
30
544.000000
70
192
0
VERTEX
8
OBJECT123
10
0
20
0
30
0
70
128
71
2
72
3
73
-4
0
VERTEX
8
OBJECT123
10
0
20
0
30
0
70
128
71
-2
72
4
73
1
0
VERTEX
8
OBJECT123
10
0
20
0
30
0
70
128
71
6
72
7
73
-8
0
VERTEX
8
OBJECT123
10
0
20
0
30
0
70
128
71
-6
72
8
73
5
0
VERTEX
8
OBJECT123
10
0
20
0
30
0
70
128
71
5
72
2
73
-1
0
VERTEX
8
OBJECT123
10
0
20
0
30
0
70
128
71
-5
72
1
73
6
0
VERTEX
8
OBJECT123
10
0
20
0
30
0
70
128
71
7
72
4
73
-3
0
VERTEX
8
OBJECT123
10
0
20
0
30
0
70
128
71
-7
72
3
73
8
0
VERTEX
8
OBJECT123
10
0
20
0
30
0
70
128
71
8
72
3
73
-2
0
VERTEX
8
OBJECT123
10
0
20
0
30
0
70
128
71
-8
72
2
73
5
0
VERTEX
8
OBJECT123
10
0
20
0
30
0
70
128
71
6
72
1
73
-4
0
VERTEX
8
OBJECT123
10
0
20
0
30
0
70
128
71
-6
72
4
73
7
0
SEQEND
8
OBJECT123
0
POLYLINE
8
OBJECT124
66
1
70
64
71
8
72
12
62
50
0
VERTEX
8
OBJECT124
10
1535.999878
20
480.000000
30
736.000000
70
192
0
VERTEX
8
OBJECT124
10
1279.999878
20
479.999878
30
736.000000
70
192
0
VERTEX
8
OBJECT124
10
1279.999878
20
511.999878
30
736.000000
70
192
0
VERTEX
8
OBJECT124
10
1535.999878
20
512.000000
30
736.000000
70
192
0
VERTEX
8
OBJECT124
10
1279.999878
20
479.999878
30
544.000000
70
192
0
VERTEX
8
OBJECT124
10
1535.999878
20
480.000000
30
544.000000
70
192
0
VERTEX
8
OBJECT124
10
1535.999878
20
512.000000
30
544.000000
70
192
0
VERTEX
8
OBJECT124
10
1279.999878
20
511.999878
30
544.000000
70
192
0
VERTEX
8
OBJECT124
10
0
20
0
30
0
70
128
71
2
72
3
73
-4
0
VERTEX
8
OBJECT124
10
0
20
0
30
0
70
128
71
-2
72
4
73
1
0
VERTEX
8
OBJECT124
10
0
20
0
30
0
70
128
71
6
72
7
73
-8
0
VERTEX
8
OBJECT124
10
0
20
0
30
0
70
128
71
-6
72
8
73
5
0
VERTEX
8
OBJECT124
10
0
20
0
30
0
70
128
71
5
72
2
73
-1
0
VERTEX
8
OBJECT124
10
0
20
0
30
0
70
128
71
-5
72
1
73
6
0
VERTEX
8
OBJECT124
10
0
20
0
30
0
70
128
71
7
72
4
73
-3
0
VERTEX
8
OBJECT124
10
0
20
0
30
0
70
128
71
-7
72
3
73
8
0
VERTEX
8
OBJECT124
10
0
20
0
30
0
70
128
71
8
72
3
73
-2
0
VERTEX
8
OBJECT124
10
0
20
0
30
0
70
128
71
-8
72
2
73
5
0
VERTEX
8
OBJECT124
10
0
20
0
30
0
70
128
71
6
72
1
73
-4
0
VERTEX
8
OBJECT124
10
0
20
0
30
0
70
128
71
-6
72
4
73
7
0
SEQEND
8
OBJECT124
0
POLYLINE
8
OBJECT125
66
1
70
64
71
8
72
12
62
50
0
VERTEX
8
OBJECT125
10
2048.000000
20
480.000000
30
736.000000
70
192
0
VERTEX
8
OBJECT125
10
1791.999878
20
480.000000
30
736.000000
70
192
0
VERTEX
8
OBJECT125
10
1791.999878
20
512.000000
30
736.000000
70
192
0
VERTEX
8
OBJECT125
10
2048.000000
20
512.000000
30
736.000000
70
192
0
VERTEX
8
OBJECT125
10
1791.999878
20
480.000000
30
544.000000
70
192
0
VERTEX
8
OBJECT125
10
2048.000000
20
480.000000
30
544.000000
70
192
0
VERTEX
8
OBJECT125
10
2048.000000
20
512.000000
30
544.000000
70
192
0
VERTEX
8
OBJECT125
10
1791.999878
20
512.000000
30
544.000000
70
192
0
VERTEX
8
OBJECT125
10
0
20
0
30
0
70
128
71
2
72
3
73
-4
0
VERTEX
8
OBJECT125
10
0
20
0
30
0
70
128
71
-2
72
4
73
1
0
VERTEX
8
OBJECT125
10
0
20
0
30
0
70
128
71
6
72
7
73
-8
0
VERTEX
8
OBJECT125
10
0
20
0
30
0
70
128
71
-6
72
8
73
5
0
VERTEX
8
OBJECT125
10
0
20
0
30
0
70
128
71
5
72
2
73
-1
0
VERTEX
8
OBJECT125
10
0
20
0
30
0
70
128
71
-5
72
1
73
6
0
VERTEX
8
OBJECT125
10
0
20
0
30
0
70
128
71
7
72
4
73
-3
0
VERTEX
8
OBJECT125
10
0
20
0
30
0
70
128
71
-7
72
3
73
8
0
VERTEX
8
OBJECT125
10
0
20
0
30
0
70
128
71
8
72
3
73
-2
0
VERTEX
8
OBJECT125
10
0
20
0
30
0
70
128
71
-8
72
2
73
5
0
VERTEX
8
OBJECT125
10
0
20
0
30
0
70
128
71
6
72
1
73
-4
0
VERTEX
8
OBJECT125
10
0
20
0
30
0
70
128
71
-6
72
4
73
7
0
SEQEND
8
OBJECT125
0
POLYLINE
8
OBJECT126
66
1
70
64
71
8
72
12
62
50
0
VERTEX
8
OBJECT126
10
2016.000000
20
-768.000000
30
736.000000
70
192
0
VERTEX
8
OBJECT126
10
2016.000000
20
-512.000000
30
736.000000
70
192
0
VERTEX
8
OBJECT126
10
2048.000000
20
-512.000000
30
736.000000
70
192
0
VERTEX
8
OBJECT126
10
2048.000000
20
-768.000000
30
736.000000
70
192
0
VERTEX
8
OBJECT126
10
2016.000000
20
-512.000000
30
544.000000
70
192
0
VERTEX
8
OBJECT126
10
2016.000000
20
-768.000000
30
544.000000
70
192
0
VERTEX
8
OBJECT126
10
2048.000000
20
-768.000000
30
544.000000
70
192
0
VERTEX
8
OBJECT126
10
2048.000000
20
-512.000000
30
544.000000
70
192
0
VERTEX
8
OBJECT126
10
0
20
0
30
0
70
128
71
2
72
3
73
-4
0
VERTEX
8
OBJECT126
10
0
20
0
30
0
70
128
71
-2
72
4
73
1
0
VERTEX
8
OBJECT126
10
0
20
0
30
0
70
128
71
6
72
7
73
-8
0
VERTEX
8
OBJECT126
10
0
20
0
30
0
70
128
71
-6
72
8
73
5
0
VERTEX
8
OBJECT126
10
0
20
0
30
0
70
128
71
5
72
2
73
-1
0
VERTEX
8
OBJECT126
10
0
20
0
30
0
70
128
71
-5
72
1
73
6
0
VERTEX
8
OBJECT126
10
0
20
0
30
0
70
128
71
7
72
4
73
-3
0
VERTEX
8
OBJECT126
10
0
20
0
30
0
70
128
71
-7
72
3
73
8
0
VERTEX
8
OBJECT126
10
0
20
0
30
0
70
128
71
8
72
3
73
-2
0
VERTEX
8
OBJECT126
10
0
20
0
30
0
70
128
71
-8
72
2
73
5
0
VERTEX
8
OBJECT126
10
0
20
0
30
0
70
128
71
6
72
1
73
-4
0
VERTEX
8
OBJECT126
10
0
20
0
30
0
70
128
71
-6
72
4
73
7
0
SEQEND
8
OBJECT126
0
POLYLINE
8
OBJECT127
66
1
70
64
71
8
72
12
62
50
0
VERTEX
8
OBJECT127
10
2016.000000
20
-1280.000000
30
736.000000
70
192
0
VERTEX
8
OBJECT127
10
2016.000000
20
-1024.000000
30
736.000000
70
192
0
VERTEX
8
OBJECT127
10
2048.000000
20
-1024.000000
30
736.000000
70
192
0
VERTEX
8
OBJECT127
10
2048.000000
20
-1280.000000
30
736.000000
70
192
0
VERTEX
8
OBJECT127
10
2016.000000
20
-1024.000000
30
544.000000
70
192
0
VERTEX
8
OBJECT127
10
2016.000000
20
-1280.000000
30
544.000000
70
192
0
VERTEX
8
OBJECT127
10
2048.000000
20
-1280.000000
30
544.000000
70
192
0
VERTEX
8
OBJECT127
10
2048.000000
20
-1024.000000
30
544.000000
70
192
0
VERTEX
8
OBJECT127
10
0
20
0
30
0
70
128
71
2
72
3
73
-4
0
VERTEX
8
OBJECT127
10
0
20
0
30
0
70
128
71
-2
72
4
73
1
0
VERTEX
8
OBJECT127
10
0
20
0
30
0
70
128
71
6
72
7
73
-8
0
VERTEX
8
OBJECT127
10
0
20
0
30
0
70
128
71
-6
72
8
73
5
0
VERTEX
8
OBJECT127
10
0
20
0
30
0
70
128
71
5
72
2
73
-1
0
VERTEX
8
OBJECT127
10
0
20
0
30
0
70
128
71
-5
72
1
73
6
0
VERTEX
8
OBJECT127
10
0
20
0
30
0
70
128
71
7
72
4
73
-3
0
VERTEX
8
OBJECT127
10
0
20
0
30
0
70
128
71
-7
72
3
73
8
0
VERTEX
8
OBJECT127
10
0
20
0
30
0
70
128
71
8
72
3
73
-2
0
VERTEX
8
OBJECT127
10
0
20
0
30
0
70
128
71
-8
72
2
73
5
0
VERTEX
8
OBJECT127
10
0
20
0
30
0
70
128
71
6
72
1
73
-4
0
VERTEX
8
OBJECT127
10
0
20
0
30
0
70
128
71
-6
72
4
73
7
0
SEQEND
8
OBJECT127
0
POLYLINE
8
OBJECT128
66
1
70
64
71
8
72
12
62
50
0
VERTEX
8
OBJECT128
10
1280.000000
20
-768.000000
30
736.000000
70
192
0
VERTEX
8
OBJECT128
10
1280.000000
20
-512.000000
30
736.000000
70
192
0
VERTEX
8
OBJECT128
10
1312.000000
20
-512.000000
30
736.000000
70
192
0
VERTEX
8
OBJECT128
10
1312.000000
20
-768.000000
30
736.000000
70
192
0
VERTEX
8
OBJECT128
10
1280.000000
20
-512.000000
30
544.000000
70
192
0
VERTEX
8
OBJECT128
10
1280.000000
20
-768.000000
30
544.000000
70
192
0
VERTEX
8
OBJECT128
10
1312.000000
20
-768.000000
30
544.000000
70
192
0
VERTEX
8
OBJECT128
10
1312.000000
20
-512.000000
30
544.000000
70
192
0
VERTEX
8
OBJECT128
10
0
20
0
30
0
70
128
71
2
72
3
73
-4
0
VERTEX
8
OBJECT128
10
0
20
0
30
0
70
128
71
-2
72
4
73
1
0
VERTEX
8
OBJECT128
10
0
20
0
30
0
70
128
71
6
72
7
73
-8
0
VERTEX
8
OBJECT128
10
0
20
0
30
0
70
128
71
-6
72
8
73
5
0
VERTEX
8
OBJECT128
10
0
20
0
30
0
70
128
71
5
72
2
73
-1
0
VERTEX
8
OBJECT128
10
0
20
0
30
0
70
128
71
-5
72
1
73
6
0
VERTEX
8
OBJECT128
10
0
20
0
30
0
70
128
71
7
72
4
73
-3
0
VERTEX
8
OBJECT128
10
0
20
0
30
0
70
128
71
-7
72
3
73
8
0
VERTEX
8
OBJECT128
10
0
20
0
30
0
70
128
71
8
72
3
73
-2
0
VERTEX
8
OBJECT128
10
0
20
0
30
0
70
128
71
-8
72
2
73
5
0
VERTEX
8
OBJECT128
10
0
20
0
30
0
70
128
71
6
72
1
73
-4
0
VERTEX
8
OBJECT128
10
0
20
0
30
0
70
128
71
-6
72
4
73
7
0
SEQEND
8
OBJECT128
0
POLYLINE
8
OBJECT129
66
1
70
64
71
8
72
12
62
50
0
VERTEX
8
OBJECT129
10
1280.000000
20
-1280.000000
30
736.000000
70
192
0
VERTEX
8
OBJECT129
10
1280.000000
20
-1024.000000
30
736.000000
70
192
0
VERTEX
8
OBJECT129
10
1312.000000
20
-1024.000000
30
736.000000
70
192
0
VERTEX
8
OBJECT129
10
1312.000000
20
-1280.000000
30
736.000000
70
192
0
VERTEX
8
OBJECT129
10
1280.000000
20
-1024.000000
30
544.000000
70
192
0
VERTEX
8
OBJECT129
10
1280.000000
20
-1280.000000
30
544.000000
70
192
0
VERTEX
8
OBJECT129
10
1312.000000
20
-1280.000000
30
544.000000
70
192
0
VERTEX
8
OBJECT129
10
1312.000000
20
-1024.000000
30
544.000000
70
192
0
VERTEX
8
OBJECT129
10
0
20
0
30
0
70
128
71
2
72
3
73
-4
0
VERTEX
8
OBJECT129
10
0
20
0
30
0
70
128
71
-2
72
4
73
1
0
VERTEX
8
OBJECT129
10
0
20
0
30
0
70
128
71
6
72
7
73
-8
0
VERTEX
8
OBJECT129
10
0
20
0
30
0
70
128
71
-6
72
8
73
5
0
VERTEX
8
OBJECT129
10
0
20
0
30
0
70
128
71
5
72
2
73
-1
0
VERTEX
8
OBJECT129
10
0
20
0
30
0
70
128
71
-5
72
1
73
6
0
VERTEX
8
OBJECT129
10
0
20
0
30
0
70
128
71
7
72
4
73
-3
0
VERTEX
8
OBJECT129
10
0
20
0
30
0
70
128
71
-7
72
3
73
8
0
VERTEX
8
OBJECT129
10
0
20
0
30
0
70
128
71
8
72
3
73
-2
0
VERTEX
8
OBJECT129
10
0
20
0
30
0
70
128
71
-8
72
2
73
5
0
VERTEX
8
OBJECT129
10
0
20
0
30
0
70
128
71
6
72
1
73
-4
0
VERTEX
8
OBJECT129
10
0
20
0
30
0
70
128
71
-6
72
4
73
7
0
SEQEND
8
OBJECT129
0
POLYLINE
8
OBJECT130
66
1
70
64
71
8
72
12
62
50
0
VERTEX
8
OBJECT130
10
2048.000000
20
-544.000000
30
736.000000
70
192
0
VERTEX
8
OBJECT130
10
1727.999878
20
-544.000061
30
736.000000
70
192
0
VERTEX
8
OBJECT130
10
1727.999878
20
-512.000061
30
736.000000
70
192
0
VERTEX
8
OBJECT130
10
2048.000000
20
-512.000000
30
736.000000
70
192
0
VERTEX
8
OBJECT130
10
1727.999878
20
-544.000061
30
544.000000
70
192
0
VERTEX
8
OBJECT130
10
2048.000000
20
-544.000000
30
544.000000
70
192
0
VERTEX
8
OBJECT130
10
2048.000000
20
-512.000000
30
544.000000
70
192
0
VERTEX
8
OBJECT130
10
1727.999878
20
-512.000061
30
544.000000
70
192
0
VERTEX
8
OBJECT130
10
0
20
0
30
0
70
128
71
2
72
3
73
-4
0
VERTEX
8
OBJECT130
10
0
20
0
30
0
70
128
71
-2
72
4
73
1
0
VERTEX
8
OBJECT130
10
0
20
0
30
0
70
128
71
6
72
7
73
-8
0
VERTEX
8
OBJECT130
10
0
20
0
30
0
70
128
71
-6
72
8
73
5
0
VERTEX
8
OBJECT130
10
0
20
0
30
0
70
128
71
5
72
2
73
-1
0
VERTEX
8
OBJECT130
10
0
20
0
30
0
70
128
71
-5
72
1
73
6
0
VERTEX
8
OBJECT130
10
0
20
0
30
0
70
128
71
7
72
4
73
-3
0
VERTEX
8
OBJECT130
10
0
20
0
30
0
70
128
71
-7
72
3
73
8
0
VERTEX
8
OBJECT130
10
0
20
0
30
0
70
128
71
8
72
3
73
-2
0
VERTEX
8
OBJECT130
10
0
20
0
30
0
70
128
71
-8
72
2
73
5
0
VERTEX
8
OBJECT130
10
0
20
0
30
0
70
128
71
6
72
1
73
-4
0
VERTEX
8
OBJECT130
10
0
20
0
30
0
70
128
71
-6
72
4
73
7
0
SEQEND
8
OBJECT130
0
POLYLINE
8
OBJECT131
66
1
70
64
71
8
72
12
62
50
0
VERTEX
8
OBJECT131
10
1599.999878
20
-544.000061
30
736.000000
70
192
0
VERTEX
8
OBJECT131
10
1279.999878
20
-544.000061
30
736.000000
70
192
0
VERTEX
8
OBJECT131
10
1279.999878
20
-512.000061
30
736.000000
70
192
0
VERTEX
8
OBJECT131
10
1599.999878
20
-512.000061
30
736.000000
70
192
0
VERTEX
8
OBJECT131
10
1279.999878
20
-544.000061
30
544.000000
70
192
0
VERTEX
8
OBJECT131
10
1599.999878
20
-544.000061
30
544.000000
70
192
0
VERTEX
8
OBJECT131
10
1599.999878
20
-512.000061
30
544.000000
70
192
0
VERTEX
8
OBJECT131
10
1279.999878
20
-512.000061
30
544.000000
70
192
0
VERTEX
8
OBJECT131
10
0
20
0
30
0
70
128
71
2
72
3
73
-4
0
VERTEX
8
OBJECT131
10
0
20
0
30
0
70
128
71
-2
72
4
73
1
0
VERTEX
8
OBJECT131
10
0
20
0
30
0
70
128
71
6
72
7
73
-8
0
VERTEX
8
OBJECT131
10
0
20
0
30
0
70
128
71
-6
72
8
73
5
0
VERTEX
8
OBJECT131
10
0
20
0
30
0
70
128
71
5
72
2
73
-1
0
VERTEX
8
OBJECT131
10
0
20
0
30
0
70
128
71
-5
72
1
73
6
0
VERTEX
8
OBJECT131
10
0
20
0
30
0
70
128
71
7
72
4
73
-3
0
VERTEX
8
OBJECT131
10
0
20
0
30
0
70
128
71
-7
72
3
73
8
0
VERTEX
8
OBJECT131
10
0
20
0
30
0
70
128
71
8
72
3
73
-2
0
VERTEX
8
OBJECT131
10
0
20
0
30
0
70
128
71
-8
72
2
73
5
0
VERTEX
8
OBJECT131
10
0
20
0
30
0
70
128
71
6
72
1
73
-4
0
VERTEX
8
OBJECT131
10
0
20
0
30
0
70
128
71
-6
72
4
73
7
0
SEQEND
8
OBJECT131
0
POLYLINE
8
OBJECT132
66
1
70
64
71
8
72
12
62
50
0
VERTEX
8
OBJECT132
10
2048.000000
20
-1280.000000
30
736.000000
70
192
0
VERTEX
8
OBJECT132
10
1727.999878
20
-1280.000000
30
736.000000
70
192
0
VERTEX
8
OBJECT132
10
1727.999878
20
-1248.000000
30
736.000000
70
192
0
VERTEX
8
OBJECT132
10
2048.000000
20
-1248.000000
30
736.000000
70
192
0
VERTEX
8
OBJECT132
10
1727.999878
20
-1280.000000
30
544.000000
70
192
0
VERTEX
8
OBJECT132
10
2048.000000
20
-1280.000000
30
544.000000
70
192
0
VERTEX
8
OBJECT132
10
2048.000000
20
-1248.000000
30
544.000000
70
192
0
VERTEX
8
OBJECT132
10
1727.999878
20
-1248.000000
30
544.000000
70
192
0
VERTEX
8
OBJECT132
10
0
20
0
30
0
70
128
71
2
72
3
73
-4
0
VERTEX
8
OBJECT132
10
0
20
0
30
0
70
128
71
-2
72
4
73
1
0
VERTEX
8
OBJECT132
10
0
20
0
30
0
70
128
71
6
72
7
73
-8
0
VERTEX
8
OBJECT132
10
0
20
0
30
0
70
128
71
-6
72
8
73
5
0
VERTEX
8
OBJECT132
10
0
20
0
30
0
70
128
71
5
72
2
73
-1
0
VERTEX
8
OBJECT132
10
0
20
0
30
0
70
128
71
-5
72
1
73
6
0
VERTEX
8
OBJECT132
10
0
20
0
30
0
70
128
71
7
72
4
73
-3
0
VERTEX
8
OBJECT132
10
0
20
0
30
0
70
128
71
-7
72
3
73
8
0
VERTEX
8
OBJECT132
10
0
20
0
30
0
70
128
71
8
72
3
73
-2
0
VERTEX
8
OBJECT132
10
0
20
0
30
0
70
128
71
-8
72
2
73
5
0
VERTEX
8
OBJECT132
10
0
20
0
30
0
70
128
71
6
72
1
73
-4
0
VERTEX
8
OBJECT132
10
0
20
0
30
0
70
128
71
-6
72
4
73
7
0
SEQEND
8
OBJECT132
0
POLYLINE
8
OBJECT133
66
1
70
64
71
8
72
12
62
50
0
VERTEX
8
OBJECT133
10
1599.999878
20
-1280.000000
30
736.000000
70
192
0
VERTEX
8
OBJECT133
10
1279.999878
20
-1280.000000
30
736.000000
70
192
0
VERTEX
8
OBJECT133
10
1279.999878
20
-1248.000000
30
736.000000
70
192
0
VERTEX
8
OBJECT133
10
1599.999878
20
-1248.000000
30
736.000000
70
192
0
VERTEX
8
OBJECT133
10
1279.999878
20
-1280.000000
30
544.000000
70
192
0
VERTEX
8
OBJECT133
10
1599.999878
20
-1280.000000
30
544.000000
70
192
0
VERTEX
8
OBJECT133
10
1599.999878
20
-1248.000000
30
544.000000
70
192
0
VERTEX
8
OBJECT133
10
1279.999878
20
-1248.000000
30
544.000000
70
192
0
VERTEX
8
OBJECT133
10
0
20
0
30
0
70
128
71
2
72
3
73
-4
0
VERTEX
8
OBJECT133
10
0
20
0
30
0
70
128
71
-2
72
4
73
1
0
VERTEX
8
OBJECT133
10
0
20
0
30
0
70
128
71
6
72
7
73
-8
0
VERTEX
8
OBJECT133
10
0
20
0
30
0
70
128
71
-6
72
8
73
5
0
VERTEX
8
OBJECT133
10
0
20
0
30
0
70
128
71
5
72
2
73
-1
0
VERTEX
8
OBJECT133
10
0
20
0
30
0
70
128
71
-5
72
1
73
6
0
VERTEX
8
OBJECT133
10
0
20
0
30
0
70
128
71
7
72
4
73
-3
0
VERTEX
8
OBJECT133
10
0
20
0
30
0
70
128
71
-7
72
3
73
8
0
VERTEX
8
OBJECT133
10
0
20
0
30
0
70
128
71
8
72
3
73
-2
0
VERTEX
8
OBJECT133
10
0
20
0
30
0
70
128
71
-8
72
2
73
5
0
VERTEX
8
OBJECT133
10
0
20
0
30
0
70
128
71
6
72
1
73
-4
0
VERTEX
8
OBJECT133
10
0
20
0
30
0
70
128
71
-6
72
4
73
7
0
SEQEND
8
OBJECT133
0
POLYLINE
8
OBJECT134
66
1
70
64
71
8
72
12
62
50
0
VERTEX
8
OBJECT134
10
2016.000000
20
-1792.000000
30
736.000000
70
192
0
VERTEX
8
OBJECT134
10
2016.000000
20
-1536.000000
30
736.000000
70
192
0
VERTEX
8
OBJECT134
10
2048.000000
20
-1536.000000
30
736.000000
70
192
0
VERTEX
8
OBJECT134
10
2048.000000
20
-1792.000000
30
736.000000
70
192
0
VERTEX
8
OBJECT134
10
2016.000000
20
-1536.000000
30
544.000000
70
192
0
VERTEX
8
OBJECT134
10
2016.000000
20
-1792.000000
30
544.000000
70
192
0
VERTEX
8
OBJECT134
10
2048.000000
20
-1792.000000
30
544.000000
70
192
0
VERTEX
8
OBJECT134
10
2048.000000
20
-1536.000000
30
544.000000
70
192
0
VERTEX
8
OBJECT134
10
0
20
0
30
0
70
128
71
2
72
3
73
-4
0
VERTEX
8
OBJECT134
10
0
20
0
30
0
70
128
71
-2
72
4
73
1
0
VERTEX
8
OBJECT134
10
0
20
0
30
0
70
128
71
6
72
7
73
-8
0
VERTEX
8
OBJECT134
10
0
20
0
30
0
70
128
71
-6
72
8
73
5
0
VERTEX
8
OBJECT134
10
0
20
0
30
0
70
128
71
5
72
2
73
-1
0
VERTEX
8
OBJECT134
10
0
20
0
30
0
70
128
71
-5
72
1
73
6
0
VERTEX
8
OBJECT134
10
0
20
0
30
0
70
128
71
7
72
4
73
-3
0
VERTEX
8
OBJECT134
10
0
20
0
30
0
70
128
71
-7
72
3
73
8
0
VERTEX
8
OBJECT134
10
0
20
0
30
0
70
128
71
8
72
3
73
-2
0
VERTEX
8
OBJECT134
10
0
20
0
30
0
70
128
71
-8
72
2
73
5
0
VERTEX
8
OBJECT134
10
0
20
0
30
0
70
128
71
6
72
1
73
-4
0
VERTEX
8
OBJECT134
10
0
20
0
30
0
70
128
71
-6
72
4
73
7
0
SEQEND
8
OBJECT134
0
POLYLINE
8
OBJECT135
66
1
70
64
71
8
72
12
62
50
0
VERTEX
8
OBJECT135
10
2016.000000
20
-2304.000000
30
736.000000
70
192
0
VERTEX
8
OBJECT135
10
2016.000000
20
-2048.000000
30
736.000000
70
192
0
VERTEX
8
OBJECT135
10
2048.000000
20
-2048.000000
30
736.000000
70
192
0
VERTEX
8
OBJECT135
10
2048.000000
20
-2304.000000
30
736.000000
70
192
0
VERTEX
8
OBJECT135
10
2016.000000
20
-2048.000000
30
544.000000
70
192
0
VERTEX
8
OBJECT135
10
2016.000000
20
-2304.000000
30
544.000000
70
192
0
VERTEX
8
OBJECT135
10
2048.000000
20
-2304.000000
30
544.000000
70
192
0
VERTEX
8
OBJECT135
10
2048.000000
20
-2048.000000
30
544.000000
70
192
0
VERTEX
8
OBJECT135
10
0
20
0
30
0
70
128
71
2
72
3
73
-4
0
VERTEX
8
OBJECT135
10
0
20
0
30
0
70
128
71
-2
72
4
73
1
0
VERTEX
8
OBJECT135
10
0
20
0
30
0
70
128
71
6
72
7
73
-8
0
VERTEX
8
OBJECT135
10
0
20
0
30
0
70
128
71
-6
72
8
73
5
0
VERTEX
8
OBJECT135
10
0
20
0
30
0
70
128
71
5
72
2
73
-1
0
VERTEX
8
OBJECT135
10
0
20
0
30
0
70
128
71
-5
72
1
73
6
0
VERTEX
8
OBJECT135
10
0
20
0
30
0
70
128
71
7
72
4
73
-3
0
VERTEX
8
OBJECT135
10
0
20
0
30
0
70
128
71
-7
72
3
73
8
0
VERTEX
8
OBJECT135
10
0
20
0
30
0
70
128
71
8
72
3
73
-2
0
VERTEX
8
OBJECT135
10
0
20
0
30
0
70
128
71
-8
72
2
73
5
0
VERTEX
8
OBJECT135
10
0
20
0
30
0
70
128
71
6
72
1
73
-4
0
VERTEX
8
OBJECT135
10
0
20
0
30
0
70
128
71
-6
72
4
73
7
0
SEQEND
8
OBJECT135
0
POLYLINE
8
OBJECT136
66
1
70
64
71
8
72
12
62
50
0
VERTEX
8
OBJECT136
10
1280.000000
20
-1792.000000
30
736.000000
70
192
0
VERTEX
8
OBJECT136
10
1280.000000
20
-1536.000000
30
736.000000
70
192
0
VERTEX
8
OBJECT136
10
1312.000000
20
-1536.000000
30
736.000000
70
192
0
VERTEX
8
OBJECT136
10
1312.000000
20
-1792.000000
30
736.000000
70
192
0
VERTEX
8
OBJECT136
10
1280.000000
20
-1536.000000
30
544.000000
70
192
0
VERTEX
8
OBJECT136
10
1280.000000
20
-1792.000000
30
544.000000
70
192
0
VERTEX
8
OBJECT136
10
1312.000000
20
-1792.000000
30
544.000000
70
192
0
VERTEX
8
OBJECT136
10
1312.000000
20
-1536.000000
30
544.000000
70
192
0
VERTEX
8
OBJECT136
10
0
20
0
30
0
70
128
71
2
72
3
73
-4
0
VERTEX
8
OBJECT136
10
0
20
0
30
0
70
128
71
-2
72
4
73
1
0
VERTEX
8
OBJECT136
10
0
20
0
30
0
70
128
71
6
72
7
73
-8
0
VERTEX
8
OBJECT136
10
0
20
0
30
0
70
128
71
-6
72
8
73
5
0
VERTEX
8
OBJECT136
10
0
20
0
30
0
70
128
71
5
72
2
73
-1
0
VERTEX
8
OBJECT136
10
0
20
0
30
0
70
128
71
-5
72
1
73
6
0
VERTEX
8
OBJECT136
10
0
20
0
30
0
70
128
71
7
72
4
73
-3
0
VERTEX
8
OBJECT136
10
0
20
0
30
0
70
128
71
-7
72
3
73
8
0
VERTEX
8
OBJECT136
10
0
20
0
30
0
70
128
71
8
72
3
73
-2
0
VERTEX
8
OBJECT136
10
0
20
0
30
0
70
128
71
-8
72
2
73
5
0
VERTEX
8
OBJECT136
10
0
20
0
30
0
70
128
71
6
72
1
73
-4
0
VERTEX
8
OBJECT136
10
0
20
0
30
0
70
128
71
-6
72
4
73
7
0
SEQEND
8
OBJECT136
0
POLYLINE
8
OBJECT137
66
1
70
64
71
8
72
12
62
50
0
VERTEX
8
OBJECT137
10
1280.000000
20
-2304.000000
30
736.000000
70
192
0
VERTEX
8
OBJECT137
10
1280.000000
20
-2048.000000
30
736.000000
70
192
0
VERTEX
8
OBJECT137
10
1312.000000
20
-2048.000000
30
736.000000
70
192
0
VERTEX
8
OBJECT137
10
1312.000000
20
-2304.000000
30
736.000000
70
192
0
VERTEX
8
OBJECT137
10
1280.000000
20
-2048.000000
30
544.000000
70
192
0
VERTEX
8
OBJECT137
10
1280.000000
20
-2304.000000
30
544.000000
70
192
0
VERTEX
8
OBJECT137
10
1312.000000
20
-2304.000000
30
544.000000
70
192
0
VERTEX
8
OBJECT137
10
1312.000000
20
-2048.000000
30
544.000000
70
192
0
VERTEX
8
OBJECT137
10
0
20
0
30
0
70
128
71
2
72
3
73
-4
0
VERTEX
8
OBJECT137
10
0
20
0
30
0
70
128
71
-2
72
4
73
1
0
VERTEX
8
OBJECT137
10
0
20
0
30
0
70
128
71
6
72
7
73
-8
0
VERTEX
8
OBJECT137
10
0
20
0
30
0
70
128
71
-6
72
8
73
5
0
VERTEX
8
OBJECT137
10
0
20
0
30
0
70
128
71
5
72
2
73
-1
0
VERTEX
8
OBJECT137
10
0
20
0
30
0
70
128
71
-5
72
1
73
6
0
VERTEX
8
OBJECT137
10
0
20
0
30
0
70
128
71
7
72
4
73
-3
0
VERTEX
8
OBJECT137
10
0
20
0
30
0
70
128
71
-7
72
3
73
8
0
VERTEX
8
OBJECT137
10
0
20
0
30
0
70
128
71
8
72
3
73
-2
0
VERTEX
8
OBJECT137
10
0
20
0
30
0
70
128
71
-8
72
2
73
5
0
VERTEX
8
OBJECT137
10
0
20
0
30
0
70
128
71
6
72
1
73
-4
0
VERTEX
8
OBJECT137
10
0
20
0
30
0
70
128
71
-6
72
4
73
7
0
SEQEND
8
OBJECT137
0
POLYLINE
8
OBJECT138
66
1
70
64
71
8
72
12
62
50
0
VERTEX
8
OBJECT138
10
2048.000000
20
-1568.000000
30
736.000000
70
192
0
VERTEX
8
OBJECT138
10
1727.999878
20
-1568.000000
30
736.000000
70
192
0
VERTEX
8
OBJECT138
10
1727.999878
20
-1536.000000
30
736.000000
70
192
0
VERTEX
8
OBJECT138
10
2048.000000
20
-1536.000000
30
736.000000
70
192
0
VERTEX
8
OBJECT138
10
1727.999878
20
-1568.000000
30
544.000000
70
192
0
VERTEX
8
OBJECT138
10
2048.000000
20
-1568.000000
30
544.000000
70
192
0
VERTEX
8
OBJECT138
10
2048.000000
20
-1536.000000
30
544.000000
70
192
0
VERTEX
8
OBJECT138
10
1727.999878
20
-1536.000000
30
544.000000
70
192
0
VERTEX
8
OBJECT138
10
0
20
0
30
0
70
128
71
2
72
3
73
-4
0
VERTEX
8
OBJECT138
10
0
20
0
30
0
70
128
71
-2
72
4
73
1
0
VERTEX
8
OBJECT138
10
0
20
0
30
0
70
128
71
6
72
7
73
-8
0
VERTEX
8
OBJECT138
10
0
20
0
30
0
70
128
71
-6
72
8
73
5
0
VERTEX
8
OBJECT138
10
0
20
0
30
0
70
128
71
5
72
2
73
-1
0
VERTEX
8
OBJECT138
10
0
20
0
30
0
70
128
71
-5
72
1
73
6
0
VERTEX
8
OBJECT138
10
0
20
0
30
0
70
128
71
7
72
4
73
-3
0
VERTEX
8
OBJECT138
10
0
20
0
30
0
70
128
71
-7
72
3
73
8
0
VERTEX
8
OBJECT138
10
0
20
0
30
0
70
128
71
8
72
3
73
-2
0
VERTEX
8
OBJECT138
10
0
20
0
30
0
70
128
71
-8
72
2
73
5
0
VERTEX
8
OBJECT138
10
0
20
0
30
0
70
128
71
6
72
1
73
-4
0
VERTEX
8
OBJECT138
10
0
20
0
30
0
70
128
71
-6
72
4
73
7
0
SEQEND
8
OBJECT138
0
POLYLINE
8
OBJECT139
66
1
70
64
71
8
72
12
62
50
0
VERTEX
8
OBJECT139
10
1599.999878
20
-1568.000000
30
736.000000
70
192
0
VERTEX
8
OBJECT139
10
1279.999878
20
-1568.000000
30
736.000000
70
192
0
VERTEX
8
OBJECT139
10
1279.999878
20
-1536.000000
30
736.000000
70
192
0
VERTEX
8
OBJECT139
10
1599.999878
20
-1536.000000
30
736.000000
70
192
0
VERTEX
8
OBJECT139
10
1279.999878
20
-1568.000000
30
544.000000
70
192
0
VERTEX
8
OBJECT139
10
1599.999878
20
-1568.000000
30
544.000000
70
192
0
VERTEX
8
OBJECT139
10
1599.999878
20
-1536.000000
30
544.000000
70
192
0
VERTEX
8
OBJECT139
10
1279.999878
20
-1536.000000
30
544.000000
70
192
0
VERTEX
8
OBJECT139
10
0
20
0
30
0
70
128
71
2
72
3
73
-4
0
VERTEX
8
OBJECT139
10
0
20
0
30
0
70
128
71
-2
72
4
73
1
0
VERTEX
8
OBJECT139
10
0
20
0
30
0
70
128
71
6
72
7
73
-8
0
VERTEX
8
OBJECT139
10
0
20
0
30
0
70
128
71
-6
72
8
73
5
0
VERTEX
8
OBJECT139
10
0
20
0
30
0
70
128
71
5
72
2
73
-1
0
VERTEX
8
OBJECT139
10
0
20
0
30
0
70
128
71
-5
72
1
73
6
0
VERTEX
8
OBJECT139
10
0
20
0
30
0
70
128
71
7
72
4
73
-3
0
VERTEX
8
OBJECT139
10
0
20
0
30
0
70
128
71
-7
72
3
73
8
0
VERTEX
8
OBJECT139
10
0
20
0
30
0
70
128
71
8
72
3
73
-2
0
VERTEX
8
OBJECT139
10
0
20
0
30
0
70
128
71
-8
72
2
73
5
0
VERTEX
8
OBJECT139
10
0
20
0
30
0
70
128
71
6
72
1
73
-4
0
VERTEX
8
OBJECT139
10
0
20
0
30
0
70
128
71
-6
72
4
73
7
0
SEQEND
8
OBJECT139
0
POLYLINE
8
OBJECT140
66
1
70
64
71
8
72
12
62
50
0
VERTEX
8
OBJECT140
10
2016.000000
20
-256.000000
30
736.000000
70
192
0
VERTEX
8
OBJECT140
10
2016.000000
20
64.000015
30
736.000000
70
192
0
VERTEX
8
OBJECT140
10
2048.000000
20
64.000015
30
736.000000
70
192
0
VERTEX
8
OBJECT140
10
2048.000000
20
-256.000000
30
736.000000
70
192
0
VERTEX
8
OBJECT140
10
2016.000000
20
64.000015
30
544.000000
70
192
0
VERTEX
8
OBJECT140
10
2016.000000
20
-256.000000
30
544.000000
70
192
0
VERTEX
8
OBJECT140
10
2048.000000
20
-256.000000
30
544.000000
70
192
0
VERTEX
8
OBJECT140
10
2048.000000
20
64.000015
30
544.000000
70
192
0
VERTEX
8
OBJECT140
10
0
20
0
30
0
70
128
71
2
72
3
73
-4
0
VERTEX
8
OBJECT140
10
0
20
0
30
0
70
128
71
-2
72
4
73
1
0
VERTEX
8
OBJECT140
10
0
20
0
30
0
70
128
71
6
72
7
73
-8
0
VERTEX
8
OBJECT140
10
0
20
0
30
0
70
128
71
-6
72
8
73
5
0
VERTEX
8
OBJECT140
10
0
20
0
30
0
70
128
71
5
72
2
73
-1
0
VERTEX
8
OBJECT140
10
0
20
0
30
0
70
128
71
-5
72
1
73
6
0
VERTEX
8
OBJECT140
10
0
20
0
30
0
70
128
71
7
72
4
73
-3
0
VERTEX
8
OBJECT140
10
0
20
0
30
0
70
128
71
-7
72
3
73
8
0
VERTEX
8
OBJECT140
10
0
20
0
30
0
70
128
71
8
72
3
73
-2
0
VERTEX
8
OBJECT140
10
0
20
0
30
0
70
128
71
-8
72
2
73
5
0
VERTEX
8
OBJECT140
10
0
20
0
30
0
70
128
71
6
72
1
73
-4
0
VERTEX
8
OBJECT140
10
0
20
0
30
0
70
128
71
-6
72
4
73
7
0
SEQEND
8
OBJECT140
0
POLYLINE
8
OBJECT141
66
1
70
64
71
8
72
12
62
50
0
VERTEX
8
OBJECT141
10
2016.000000
20
192.000000
30
736.000000
70
192
0
VERTEX
8
OBJECT141
10
2016.000000
20
512.000000
30
736.000000
70
192
0
VERTEX
8
OBJECT141
10
2048.000000
20
512.000000
30
736.000000
70
192
0
VERTEX
8
OBJECT141
10
2048.000000
20
192.000000
30
736.000000
70
192
0
VERTEX
8
OBJECT141
10
2016.000000
20
512.000000
30
544.000000
70
192
0
VERTEX
8
OBJECT141
10
2016.000000
20
192.000000
30
544.000000
70
192
0
VERTEX
8
OBJECT141
10
2048.000000
20
192.000000
30
544.000000
70
192
0
VERTEX
8
OBJECT141
10
2048.000000
20
512.000000
30
544.000000
70
192
0
VERTEX
8
OBJECT141
10
0
20
0
30
0
70
128
71
2
72
3
73
-4
0
VERTEX
8
OBJECT141
10
0
20
0
30
0
70
128
71
-2
72
4
73
1
0
VERTEX
8
OBJECT141
10
0
20
0
30
0
70
128
71
6
72
7
73
-8
0
VERTEX
8
OBJECT141
10
0
20
0
30
0
70
128
71
-6
72
8
73
5
0
VERTEX
8
OBJECT141
10
0
20
0
30
0
70
128
71
5
72
2
73
-1
0
VERTEX
8
OBJECT141
10
0
20
0
30
0
70
128
71
-5
72
1
73
6
0
VERTEX
8
OBJECT141
10
0
20
0
30
0
70
128
71
7
72
4
73
-3
0
VERTEX
8
OBJECT141
10
0
20
0
30
0
70
128
71
-7
72
3
73
8
0
VERTEX
8
OBJECT141
10
0
20
0
30
0
70
128
71
8
72
3
73
-2
0
VERTEX
8
OBJECT141
10
0
20
0
30
0
70
128
71
-8
72
2
73
5
0
VERTEX
8
OBJECT141
10
0
20
0
30
0
70
128
71
6
72
1
73
-4
0
VERTEX
8
OBJECT141
10
0
20
0
30
0
70
128
71
-6
72
4
73
7
0
SEQEND
8
OBJECT141
0
POLYLINE
8
OBJECT142
66
1
70
64
71
8
72
12
62
50
0
VERTEX
8
OBJECT142
10
1280.000000
20
-240.000000
30
736.000000
70
192
0
VERTEX
8
OBJECT142
10
1280.000000
20
80.000015
30
736.000000
70
192
0
VERTEX
8
OBJECT142
10
1312.000000
20
80.000015
30
736.000000
70
192
0
VERTEX
8
OBJECT142
10
1312.000000
20
-240.000000
30
736.000000
70
192
0
VERTEX
8
OBJECT142
10
1280.000000
20
80.000015
30
544.000000
70
192
0
VERTEX
8
OBJECT142
10
1280.000000
20
-240.000000
30
544.000000
70
192
0
VERTEX
8
OBJECT142
10
1312.000000
20
-240.000000
30
544.000000
70
192
0
VERTEX
8
OBJECT142
10
1312.000000
20
80.000015
30
544.000000
70
192
0
VERTEX
8
OBJECT142
10
0
20
0
30
0
70
128
71
2
72
3
73
-4
0
VERTEX
8
OBJECT142
10
0
20
0
30
0
70
128
71
-2
72
4
73
1
0
VERTEX
8
OBJECT142
10
0
20
0
30
0
70
128
71
6
72
7
73
-8
0
VERTEX
8
OBJECT142
10
0
20
0
30
0
70
128
71
-6
72
8
73
5
0
VERTEX
8
OBJECT142
10
0
20
0
30
0
70
128
71
5
72
2
73
-1
0
VERTEX
8
OBJECT142
10
0
20
0
30
0
70
128
71
-5
72
1
73
6
0
VERTEX
8
OBJECT142
10
0
20
0
30
0
70
128
71
7
72
4
73
-3
0
VERTEX
8
OBJECT142
10
0
20
0
30
0
70
128
71
-7
72
3
73
8
0
VERTEX
8
OBJECT142
10
0
20
0
30
0
70
128
71
8
72
3
73
-2
0
VERTEX
8
OBJECT142
10
0
20
0
30
0
70
128
71
-8
72
2
73
5
0
VERTEX
8
OBJECT142
10
0
20
0
30
0
70
128
71
6
72
1
73
-4
0
VERTEX
8
OBJECT142
10
0
20
0
30
0
70
128
71
-6
72
4
73
7
0
SEQEND
8
OBJECT142
0
POLYLINE
8
OBJECT143
66
1
70
64
71
8
72
12
62
50
0
VERTEX
8
OBJECT143
10
1280.000000
20
208.000000
30
736.000000
70
192
0
VERTEX
8
OBJECT143
10
1280.000000
20
528.000000
30
736.000000
70
192
0
VERTEX
8
OBJECT143
10
1312.000000
20
528.000000
30
736.000000
70
192
0
VERTEX
8
OBJECT143
10
1312.000000
20
208.000000
30
736.000000
70
192
0
VERTEX
8
OBJECT143
10
1280.000000
20
528.000000
30
544.000000
70
192
0
VERTEX
8
OBJECT143
10
1280.000000
20
208.000000
30
544.000000
70
192
0
VERTEX
8
OBJECT143
10
1312.000000
20
208.000000
30
544.000000
70
192
0
VERTEX
8
OBJECT143
10
1312.000000
20
528.000000
30
544.000000
70
192
0
VERTEX
8
OBJECT143
10
0
20
0
30
0
70
128
71
2
72
3
73
-4
0
VERTEX
8
OBJECT143
10
0
20
0
30
0
70
128
71
-2
72
4
73
1
0
VERTEX
8
OBJECT143
10
0
20
0
30
0
70
128
71
6
72
7
73
-8
0
VERTEX
8
OBJECT143
10
0
20
0
30
0
70
128
71
-6
72
8
73
5
0
VERTEX
8
OBJECT143
10
0
20
0
30
0
70
128
71
5
72
2
73
-1
0
VERTEX
8
OBJECT143
10
0
20
0
30
0
70
128
71
-5
72
1
73
6
0
VERTEX
8
OBJECT143
10
0
20
0
30
0
70
128
71
7
72
4
73
-3
0
VERTEX
8
OBJECT143
10
0
20
0
30
0
70
128
71
-7
72
3
73
8
0
VERTEX
8
OBJECT143
10
0
20
0
30
0
70
128
71
8
72
3
73
-2
0
VERTEX
8
OBJECT143
10
0
20
0
30
0
70
128
71
-8
72
2
73
5
0
VERTEX
8
OBJECT143
10
0
20
0
30
0
70
128
71
6
72
1
73
-4
0
VERTEX
8
OBJECT143
10
0
20
0
30
0
70
128
71
-6
72
4
73
7
0
SEQEND
8
OBJECT143
0
ENDSEC
0
EOF
