0
SECTION
2
HEADER
9
$ACADVER
1
AC1008
9
$UCSORG
10
0.0
20
0.0
30
0.0
9
$UCSXDIR
10
1.0
20
0.0
30
0.0
9
$TILEMODE
70
1
9
$UCSYDIR
10
0.0
20
1.0
30
0.0
9
$EXTMIN
10
-63.999996
20
-60.906322
30
0.000002
9
$EXTMAX
10
64.000000
20
67.093689
30
64.000000
0
ENDSEC
0
SECTION
2
TABLES
0
TABLE
2
LTYPE
70
1
0
LTYPE
2
CONTINUOUS
70
64
3
Solid line
72
65
73
0
40
0.0
0
ENDTAB
0
TABLE
2
LAYER
70
1
0
LAYER
2
0
70
0
62
7
6
CONTINUOUS
0
ENDTAB
0
TABLE
2
STYLE
70
1
0
STYLE
2
STANDARD
70
0
40
0.0
41
1.0
50
0.0
71
0
42
0.2
3
txt
4

0
ENDTAB
0
TABLE
2
UCS
70
0
0
ENDTAB
0
ENDSEC
0
SECTION
2
ENTITIES
0
POLYLINE
8
OBJECT000
66
1
70
64
71
6
72
8
62
50
0
VERTEX
8
OBJECT000
10
30.608700
20
56.059200
30
2.327275
70
192
0
VERTEX
8
OBJECT000
10
64.000000
20
47.783337
30
2.327275
70
192
0
VERTEX
8
OBJECT000
10
64.000000
20
22.955750
30
2.327275
70
192
0
VERTEX
8
OBJECT000
10
64.000000
20
22.955750
30
0.000002
70
192
0
VERTEX
8
OBJECT000
10
64.000000
20
47.783337
30
0.000002
70
192
0
VERTEX
8
OBJECT000
10
30.608700
20
56.059200
30
0.000002
70
192
0
VERTEX
8
OBJECT000
10
0
20
0
30
0
70
128
71
2
72
3
73
1
0
VERTEX
8
OBJECT000
10
0
20
0
30
0
70
128
71
5
72
6
73
4
0
VERTEX
8
OBJECT000
10
0
20
0
30
0
70
128
71
4
72
3
73
-2
0
VERTEX
8
OBJECT000
10
0
20
0
30
0
70
128
71
-4
72
2
73
5
0
VERTEX
8
OBJECT000
10
0
20
0
30
0
70
128
71
5
72
2
73
-1
0
VERTEX
8
OBJECT000
10
0
20
0
30
0
70
128
71
-5
72
1
73
6
0
VERTEX
8
OBJECT000
10
0
20
0
30
0
70
128
71
6
72
1
73
-3
0
VERTEX
8
OBJECT000
10
0
20
0
30
0
70
128
71
-6
72
3
73
4
0
SEQEND
8
OBJECT000
0
POLYLINE
8
OBJECT001
66
1
70
64
71
6
72
8
62
50
0
VERTEX
8
OBJECT001
10
53.982613
20
32.886787
30
2.327275
70
192
0
VERTEX
8
OBJECT001
10
64.000000
20
22.955750
30
2.327275
70
192
0
VERTEX
8
OBJECT001
10
64.000000
20
-6.837355
30
2.327275
70
192
0
VERTEX
8
OBJECT001
10
64.000000
20
-6.837355
30
0.000002
70
192
0
VERTEX
8
OBJECT001
10
64.000000
20
22.955750
30
0.000002
70
192
0
VERTEX
8
OBJECT001
10
53.982613
20
32.886787
30
0.000002
70
192
0
VERTEX
8
OBJECT001
10
0
20
0
30
0
70
128
71
2
72
3
73
1
0
VERTEX
8
OBJECT001
10
0
20
0
30
0
70
128
71
5
72
6
73
4
0
VERTEX
8
OBJECT001
10
0
20
0
30
0
70
128
71
4
72
3
73
-2
0
VERTEX
8
OBJECT001
10
0
20
0
30
0
70
128
71
-4
72
2
73
5
0
VERTEX
8
OBJECT001
10
0
20
0
30
0
70
128
71
5
72
2
73
-1
0
VERTEX
8
OBJECT001
10
0
20
0
30
0
70
128
71
-5
72
1
73
6
0
VERTEX
8
OBJECT001
10
0
20
0
30
0
70
128
71
6
72
1
73
-3
0
VERTEX
8
OBJECT001
10
0
20
0
30
0
70
128
71
-6
72
3
73
4
0
SEQEND
8
OBJECT001
0
POLYLINE
8
OBJECT002
66
1
70
64
71
8
72
12
62
50
0
VERTEX
8
OBJECT002
10
61.773914
20
1.990232
30
2.327275
70
192
0
VERTEX
8
OBJECT002
10
64.000000
20
-6.837355
30
2.327275
70
192
0
VERTEX
8
OBJECT002
10
64.000000
20
-60.906322
30
2.327275
70
192
0
VERTEX
8
OBJECT002
10
45.325340
20
-60.906322
30
2.327275
70
192
0
VERTEX
8
OBJECT002
10
45.325340
20
-60.906322
30
0.000002
70
192
0
VERTEX
8
OBJECT002
10
64.000000
20
-60.906322
30
0.000002
70
192
0
VERTEX
8
OBJECT002
10
64.000000
20
-6.837355
30
0.000002
70
192
0
VERTEX
8
OBJECT002
10
61.773914
20
1.990232
30
0.000002
70
192
0
VERTEX
8
OBJECT002
10
0
20
0
30
0
70
128
71
2
72
3
73
-4
0
VERTEX
8
OBJECT002
10
0
20
0
30
0
70
128
71
-2
72
4
73
1
0
VERTEX
8
OBJECT002
10
0
20
0
30
0
70
128
71
6
72
7
73
-8
0
VERTEX
8
OBJECT002
10
0
20
0
30
0
70
128
71
-6
72
8
73
5
0
VERTEX
8
OBJECT002
10
0
20
0
30
0
70
128
71
6
72
3
73
-2
0
VERTEX
8
OBJECT002
10
0
20
0
30
0
70
128
71
-6
72
2
73
7
0
VERTEX
8
OBJECT002
10
0
20
0
30
0
70
128
71
5
72
4
73
-3
0
VERTEX
8
OBJECT002
10
0
20
0
30
0
70
128
71
-5
72
3
73
6
0
VERTEX
8
OBJECT002
10
0
20
0
30
0
70
128
71
7
72
2
73
-1
0
VERTEX
8
OBJECT002
10
0
20
0
30
0
70
128
71
-7
72
1
73
8
0
VERTEX
8
OBJECT002
10
0
20
0
30
0
70
128
71
8
72
1
73
-4
0
VERTEX
8
OBJECT002
10
0
20
0
30
0
70
128
71
-8
72
4
73
5
0
SEQEND
8
OBJECT002
0
POLYLINE
8
OBJECT003
66
1
70
64
71
6
72
8
62
50
0
VERTEX
8
OBJECT003
10
45.323307
20
-60.906322
30
2.327275
70
192
0
VERTEX
8
OBJECT003
10
20.591309
20
-60.906322
30
2.327275
70
192
0
VERTEX
8
OBJECT003
10
53.982613
20
-27.802874
30
2.327275
70
192
0
VERTEX
8
OBJECT003
10
20.591309
20
-60.906322
30
0.000002
70
192
0
VERTEX
8
OBJECT003
10
45.323307
20
-60.906322
30
0.000002
70
192
0
VERTEX
8
OBJECT003
10
53.982613
20
-27.802874
30
0.000002
70
192
0
VERTEX
8
OBJECT003
10
0
20
0
30
0
70
128
71
2
72
3
73
1
0
VERTEX
8
OBJECT003
10
0
20
0
30
0
70
128
71
5
72
6
73
4
0
VERTEX
8
OBJECT003
10
0
20
0
30
0
70
128
71
4
72
2
73
-1
0
VERTEX
8
OBJECT003
10
0
20
0
30
0
70
128
71
-4
72
1
73
5
0
VERTEX
8
OBJECT003
10
0
20
0
30
0
70
128
71
5
72
1
73
-3
0
VERTEX
8
OBJECT003
10
0
20
0
30
0
70
128
71
-5
72
3
73
6
0
VERTEX
8
OBJECT003
10
0
20
0
30
0
70
128
71
6
72
3
73
-2
0
VERTEX
8
OBJECT003
10
0
20
0
30
0
70
128
71
-6
72
2
73
4
0
SEQEND
8
OBJECT003
0
POLYLINE
8
OBJECT004
66
1
70
64
71
6
72
8
62
50
0
VERTEX
8
OBJECT004
10
20.591309
20
-60.906322
30
2.327275
70
192
0
VERTEX
8
OBJECT004
10
-8.032741
20
-60.906322
30
2.327275
70
192
0
VERTEX
8
OBJECT004
10
30.608700
20
-50.975288
30
2.327275
70
192
0
VERTEX
8
OBJECT004
10
-8.032741
20
-60.906322
30
0.000002
70
192
0
VERTEX
8
OBJECT004
10
20.591309
20
-60.906322
30
0.000002
70
192
0
VERTEX
8
OBJECT004
10
30.608700
20
-50.975288
30
0.000002
70
192
0
VERTEX
8
OBJECT004
10
0
20
0
30
0
70
128
71
2
72
3
73
1
0
VERTEX
8
OBJECT004
10
0
20
0
30
0
70
128
71
5
72
6
73
4
0
VERTEX
8
OBJECT004
10
0
20
0
30
0
70
128
71
4
72
2
73
-1
0
VERTEX
8
OBJECT004
10
0
20
0
30
0
70
128
71
-4
72
1
73
5
0
VERTEX
8
OBJECT004
10
0
20
0
30
0
70
128
71
5
72
1
73
-3
0
VERTEX
8
OBJECT004
10
0
20
0
30
0
70
128
71
-5
72
3
73
6
0
VERTEX
8
OBJECT004
10
0
20
0
30
0
70
128
71
6
72
3
73
-2
0
VERTEX
8
OBJECT004
10
0
20
0
30
0
70
128
71
-6
72
2
73
4
0
SEQEND
8
OBJECT004
0
POLYLINE
8
OBJECT005
66
1
70
64
71
6
72
8
62
50
0
VERTEX
8
OBJECT005
10
-30.608692
20
-50.975288
30
2.327275
70
192
0
VERTEX
8
OBJECT005
10
-63.999996
20
-42.700642
30
2.327275
70
192
0
VERTEX
8
OBJECT005
10
-63.999996
20
-17.871840
30
2.327275
70
192
0
VERTEX
8
OBJECT005
10
-63.999996
20
-17.871840
30
0.000002
70
192
0
VERTEX
8
OBJECT005
10
-63.999996
20
-42.700642
30
0.000002
70
192
0
VERTEX
8
OBJECT005
10
-30.608692
20
-50.975288
30
0.000002
70
192
0
VERTEX
8
OBJECT005
10
0
20
0
30
0
70
128
71
2
72
3
73
1
0
VERTEX
8
OBJECT005
10
0
20
0
30
0
70
128
71
5
72
6
73
4
0
VERTEX
8
OBJECT005
10
0
20
0
30
0
70
128
71
4
72
3
73
-2
0
VERTEX
8
OBJECT005
10
0
20
0
30
0
70
128
71
-4
72
2
73
5
0
VERTEX
8
OBJECT005
10
0
20
0
30
0
70
128
71
5
72
2
73
-1
0
VERTEX
8
OBJECT005
10
0
20
0
30
0
70
128
71
-5
72
1
73
6
0
VERTEX
8
OBJECT005
10
0
20
0
30
0
70
128
71
6
72
1
73
-3
0
VERTEX
8
OBJECT005
10
0
20
0
30
0
70
128
71
-6
72
3
73
4
0
SEQEND
8
OBJECT005
0
POLYLINE
8
OBJECT006
66
1
70
64
71
6
72
8
62
50
0
VERTEX
8
OBJECT006
10
-53.982601
20
-27.802874
30
2.327275
70
192
0
VERTEX
8
OBJECT006
10
-63.999996
20
-17.871840
30
2.327275
70
192
0
VERTEX
8
OBJECT006
10
-63.999996
20
11.921267
30
2.327275
70
192
0
VERTEX
8
OBJECT006
10
-63.999996
20
11.921267
30
0.000002
70
192
0
VERTEX
8
OBJECT006
10
-63.999996
20
-17.871840
30
0.000002
70
192
0
VERTEX
8
OBJECT006
10
-53.982601
20
-27.802874
30
0.000002
70
192
0
VERTEX
8
OBJECT006
10
0
20
0
30
0
70
128
71
2
72
3
73
1
0
VERTEX
8
OBJECT006
10
0
20
0
30
0
70
128
71
5
72
6
73
4
0
VERTEX
8
OBJECT006
10
0
20
0
30
0
70
128
71
4
72
3
73
-2
0
VERTEX
8
OBJECT006
10
0
20
0
30
0
70
128
71
-4
72
2
73
5
0
VERTEX
8
OBJECT006
10
0
20
0
30
0
70
128
71
5
72
2
73
-1
0
VERTEX
8
OBJECT006
10
0
20
0
30
0
70
128
71
-5
72
1
73
6
0
VERTEX
8
OBJECT006
10
0
20
0
30
0
70
128
71
6
72
1
73
-3
0
VERTEX
8
OBJECT006
10
0
20
0
30
0
70
128
71
-6
72
3
73
4
0
SEQEND
8
OBJECT006
0
POLYLINE
8
OBJECT007
66
1
70
64
71
8
72
12
62
50
0
VERTEX
8
OBJECT007
10
-61.773907
20
3.093680
30
2.327275
70
192
0
VERTEX
8
OBJECT007
10
-63.999996
20
11.921267
30
2.327275
70
192
0
VERTEX
8
OBJECT007
10
-63.999996
20
67.093689
30
2.327275
70
192
0
VERTEX
8
OBJECT007
10
-45.037086
20
67.093689
30
2.327275
70
192
0
VERTEX
8
OBJECT007
10
-45.037086
20
67.093689
30
0.000002
70
192
0
VERTEX
8
OBJECT007
10
-63.999996
20
67.093689
30
0.000002
70
192
0
VERTEX
8
OBJECT007
10
-63.999996
20
11.921267
30
0.000002
70
192
0
VERTEX
8
OBJECT007
10
-61.773907
20
3.093680
30
0.000002
70
192
0
VERTEX
8
OBJECT007
10
0
20
0
30
0
70
128
71
2
72
3
73
-4
0
VERTEX
8
OBJECT007
10
0
20
0
30
0
70
128
71
-2
72
4
73
1
0
VERTEX
8
OBJECT007
10
0
20
0
30
0
70
128
71
6
72
7
73
-8
0
VERTEX
8
OBJECT007
10
0
20
0
30
0
70
128
71
-6
72
8
73
5
0
VERTEX
8
OBJECT007
10
0
20
0
30
0
70
128
71
6
72
3
73
-2
0
VERTEX
8
OBJECT007
10
0
20
0
30
0
70
128
71
-6
72
2
73
7
0
VERTEX
8
OBJECT007
10
0
20
0
30
0
70
128
71
5
72
4
73
-3
0
VERTEX
8
OBJECT007
10
0
20
0
30
0
70
128
71
-5
72
3
73
6
0
VERTEX
8
OBJECT007
10
0
20
0
30
0
70
128
71
7
72
2
73
-1
0
VERTEX
8
OBJECT007
10
0
20
0
30
0
70
128
71
-7
72
1
73
8
0
VERTEX
8
OBJECT007
10
0
20
0
30
0
70
128
71
8
72
1
73
-4
0
VERTEX
8
OBJECT007
10
0
20
0
30
0
70
128
71
-8
72
4
73
5
0
SEQEND
8
OBJECT007
0
POLYLINE
8
OBJECT008
66
1
70
64
71
8
72
12
62
50
0
VERTEX
8
OBJECT008
10
-30.608692
20
56.059200
30
2.327275
70
192
0
VERTEX
8
OBJECT008
10
-19.478256
20
67.093689
30
2.327275
70
192
0
VERTEX
8
OBJECT008
10
-13.913039
20
67.093689
30
2.327275
70
192
0
VERTEX
8
OBJECT008
10
-0.556517
20
63.783337
30
2.327275
70
192
0
VERTEX
8
OBJECT008
10
-0.556517
20
63.783337
30
0.000002
70
192
0
VERTEX
8
OBJECT008
10
-13.913039
20
67.093689
30
0.000002
70
192
0
VERTEX
8
OBJECT008
10
-19.478256
20
67.093689
30
0.000002
70
192
0
VERTEX
8
OBJECT008
10
-30.608692
20
56.059200
30
0.000002
70
192
0
VERTEX
8
OBJECT008
10
0
20
0
30
0
70
128
71
2
72
3
73
-4
0
VERTEX
8
OBJECT008
10
0
20
0
30
0
70
128
71
-2
72
4
73
1
0
VERTEX
8
OBJECT008
10
0
20
0
30
0
70
128
71
6
72
7
73
-8
0
VERTEX
8
OBJECT008
10
0
20
0
30
0
70
128
71
-6
72
8
73
5
0
VERTEX
8
OBJECT008
10
0
20
0
30
0
70
128
71
6
72
3
73
-2
0
VERTEX
8
OBJECT008
10
0
20
0
30
0
70
128
71
-6
72
2
73
7
0
VERTEX
8
OBJECT008
10
0
20
0
30
0
70
128
71
5
72
4
73
-3
0
VERTEX
8
OBJECT008
10
0
20
0
30
0
70
128
71
-5
72
3
73
6
0
VERTEX
8
OBJECT008
10
0
20
0
30
0
70
128
71
7
72
2
73
-1
0
VERTEX
8
OBJECT008
10
0
20
0
30
0
70
128
71
-7
72
1
73
8
0
VERTEX
8
OBJECT008
10
0
20
0
30
0
70
128
71
8
72
1
73
-4
0
VERTEX
8
OBJECT008
10
0
20
0
30
0
70
128
71
-8
72
4
73
5
0
SEQEND
8
OBJECT008
0
POLYLINE
8
OBJECT009
66
1
70
64
71
6
72
8
62
50
0
VERTEX
8
OBJECT009
10
-53.982601
20
32.886787
30
2.327275
70
192
0
VERTEX
8
OBJECT009
10
-45.035492
20
67.093689
30
2.327275
70
192
0
VERTEX
8
OBJECT009
10
-19.478256
20
67.093689
30
2.327275
70
192
0
VERTEX
8
OBJECT009
10
-19.478256
20
67.093689
30
0.000002
70
192
0
VERTEX
8
OBJECT009
10
-45.035492
20
67.093689
30
0.000002
70
192
0
VERTEX
8
OBJECT009
10
-53.982601
20
32.886787
30
0.000002
70
192
0
VERTEX
8
OBJECT009
10
0
20
0
30
0
70
128
71
2
72
3
73
1
0
VERTEX
8
OBJECT009
10
0
20
0
30
0
70
128
71
5
72
6
73
4
0
VERTEX
8
OBJECT009
10
0
20
0
30
0
70
128
71
4
72
3
73
-2
0
VERTEX
8
OBJECT009
10
0
20
0
30
0
70
128
71
-4
72
2
73
5
0
VERTEX
8
OBJECT009
10
0
20
0
30
0
70
128
71
5
72
2
73
-1
0
VERTEX
8
OBJECT009
10
0
20
0
30
0
70
128
71
-5
72
1
73
6
0
VERTEX
8
OBJECT009
10
0
20
0
30
0
70
128
71
6
72
1
73
-3
0
VERTEX
8
OBJECT009
10
0
20
0
30
0
70
128
71
-6
72
3
73
4
0
SEQEND
8
OBJECT009
0
POLYLINE
8
OBJECT010
66
1
70
64
71
8
72
12
62
50
0
VERTEX
8
OBJECT010
10
0.556526
20
-58.699429
30
2.327275
70
192
0
VERTEX
8
OBJECT010
10
-8.032741
20
-60.906322
30
2.327275
70
192
0
VERTEX
8
OBJECT010
10
-63.999996
20
-60.906322
30
2.327275
70
192
0
VERTEX
8
OBJECT010
10
-63.999996
20
-42.699429
30
2.327275
70
192
0
VERTEX
8
OBJECT010
10
-63.999996
20
-42.699429
30
0.000002
70
192
0
VERTEX
8
OBJECT010
10
-63.999996
20
-60.906322
30
0.000002
70
192
0
VERTEX
8
OBJECT010
10
-8.032741
20
-60.906322
30
0.000002
70
192
0
VERTEX
8
OBJECT010
10
0.556526
20
-58.699429
30
0.000002
70
192
0
VERTEX
8
OBJECT010
10
0
20
0
30
0
70
128
71
2
72
3
73
-4
0
VERTEX
8
OBJECT010
10
0
20
0
30
0
70
128
71
-2
72
4
73
1
0
VERTEX
8
OBJECT010
10
0
20
0
30
0
70
128
71
6
72
7
73
-8
0
VERTEX
8
OBJECT010
10
0
20
0
30
0
70
128
71
-6
72
8
73
5
0
VERTEX
8
OBJECT010
10
0
20
0
30
0
70
128
71
5
72
4
73
-3
0
VERTEX
8
OBJECT010
10
0
20
0
30
0
70
128
71
-5
72
3
73
6
0
VERTEX
8
OBJECT010
10
0
20
0
30
0
70
128
71
6
72
3
73
-2
0
VERTEX
8
OBJECT010
10
0
20
0
30
0
70
128
71
-6
72
2
73
7
0
VERTEX
8
OBJECT010
10
0
20
0
30
0
70
128
71
7
72
2
73
-1
0
VERTEX
8
OBJECT010
10
0
20
0
30
0
70
128
71
-7
72
1
73
8
0
VERTEX
8
OBJECT010
10
0
20
0
30
0
70
128
71
8
72
1
73
-4
0
VERTEX
8
OBJECT010
10
0
20
0
30
0
70
128
71
-8
72
4
73
5
0
SEQEND
8
OBJECT010
0
POLYLINE
8
OBJECT011
66
1
70
64
71
6
72
8
62
50
0
VERTEX
8
OBJECT011
10
-13.913039
20
67.093689
30
2.327275
70
192
0
VERTEX
8
OBJECT011
10
64.000000
20
67.093689
30
2.327275
70
192
0
VERTEX
8
OBJECT011
10
64.000000
20
47.783337
30
2.327275
70
192
0
VERTEX
8
OBJECT011
10
64.000000
20
47.783337
30
0.000002
70
192
0
VERTEX
8
OBJECT011
10
64.000000
20
67.093689
30
0.000002
70
192
0
VERTEX
8
OBJECT011
10
-13.913039
20
67.093689
30
0.000002
70
192
0
VERTEX
8
OBJECT011
10
0
20
0
30
0
70
128
71
2
72
3
73
1
0
VERTEX
8
OBJECT011
10
0
20
0
30
0
70
128
71
5
72
6
73
4
0
VERTEX
8
OBJECT011
10
0
20
0
30
0
70
128
71
4
72
3
73
-2
0
VERTEX
8
OBJECT011
10
0
20
0
30
0
70
128
71
-4
72
2
73
5
0
VERTEX
8
OBJECT011
10
0
20
0
30
0
70
128
71
5
72
2
73
-1
0
VERTEX
8
OBJECT011
10
0
20
0
30
0
70
128
71
-5
72
1
73
6
0
VERTEX
8
OBJECT011
10
0
20
0
30
0
70
128
71
6
72
1
73
-3
0
VERTEX
8
OBJECT011
10
0
20
0
30
0
70
128
71
-6
72
3
73
4
0
SEQEND
8
OBJECT011
0
POLYLINE
8
OBJECT012
66
1
70
64
71
135
72
262
62
50
0
VERTEX
8
OBJECT012
10
8.347830
20
16.980467
30
61.800285
70
192
0
VERTEX
8
OBJECT012
10
-0.570988
20
2.633214
30
64.000000
70
192
0
VERTEX
8
OBJECT012
10
-0.570988
20
18.085936
30
61.800285
70
192
0
VERTEX
8
OBJECT012
10
13.913048
20
10.353379
30
61.800285
70
192
0
VERTEX
8
OBJECT012
10
16.100445
20
2.564652
30
61.808949
70
192
0
VERTEX
8
OBJECT012
10
-0.440009
20
2.564652
30
63.987785
70
192
0
VERTEX
8
OBJECT012
10
13.913048
20
-5.117460
30
61.800854
70
192
0
VERTEX
8
OBJECT012
10
8.336621
20
-11.726229
30
61.799999
70
192
0
VERTEX
8
OBJECT012
10
0.538659
20
-12.814591
30
61.801563
70
192
0
VERTEX
8
OBJECT012
10
-8.360763
20
-11.708516
30
61.800709
70
192
0
VERTEX
8
OBJECT012
10
-13.913039
20
-5.079610
30
61.801136
70
192
0
VERTEX
8
OBJECT012
10
-16.139126
20
2.642777
30
61.800995
70
192
0
VERTEX
8
OBJECT012
10
-13.913039
20
10.364626
30
61.799858
70
192
0
VERTEX
8
OBJECT012
10
-8.347821
20
16.989223
30
61.799431
70
192
0
VERTEX
8
OBJECT012
10
6.822117
20
30.060074
30
56.406818
70
192
0
VERTEX
8
OBJECT012
10
11.520520
20
27.855871
30
57.085369
70
192
0
VERTEX
8
OBJECT012
10
28.215017
20
12.580885
30
55.610794
70
192
0
VERTEX
8
OBJECT012
10
15.026092
20
29.128704
30
55.332386
70
192
0
VERTEX
8
OBJECT012
10
30.269840
20
20.446726
30
52.293751
70
192
0
VERTEX
8
OBJECT012
10
29.390120
20
4.360787
30
56.107101
70
192
0
VERTEX
8
OBJECT012
10
24.976362
20
-14.369951
30
55.668041
70
192
0
VERTEX
8
OBJECT012
10
30.608700
20
2.633281
30
55.339489
70
192
0
VERTEX
8
OBJECT012
10
28.777584
20
-13.322269
30
54.105541
70
192
0
VERTEX
8
OBJECT012
10
16.036486
20
-20.606483
30
56.869743
70
192
0
VERTEX
8
OBJECT012
10
-6.859778
20
-24.762531
30
56.418751
70
192
0
VERTEX
8
OBJECT012
10
15.026092
20
-23.857763
30
55.334518
70
192
0
VERTEX
8
OBJECT012
10
0.510195
20
-32.325031
30
52.168324
70
192
0
VERTEX
8
OBJECT012
10
-11.521871
20
-22.587357
30
57.085510
70
192
0
VERTEX
8
OBJECT012
10
-28.131720
20
-7.297282
30
55.647587
70
192
0
VERTEX
8
OBJECT012
10
-15.026082
20
-23.858503
30
55.333382
70
192
0
VERTEX
8
OBJECT012
10
-30.133247
20
-15.257010
30
52.320740
70
192
0
VERTEX
8
OBJECT012
10
-29.380836
20
0.919515
30
56.112076
70
192
0
VERTEX
8
OBJECT012
10
-25.032331
20
19.676250
30
55.638920
70
192
0
VERTEX
8
OBJECT012
10
-30.608692
20
2.635167
30
55.341335
70
192
0
VERTEX
8
OBJECT012
10
-28.766027
20
18.663185
30
54.102840
70
192
0
VERTEX
8
OBJECT012
10
-16.027884
20
25.889883
30
56.869602
70
192
0
VERTEX
8
OBJECT012
10
-15.026082
20
29.103649
30
55.354546
70
192
0
VERTEX
8
OBJECT012
10
-0.477645
20
37.559132
30
52.199574
70
192
0
VERTEX
8
OBJECT012
10
-0.258589
20
46.705349
30
45.074574
70
192
0
VERTEX
8
OBJECT012
10
20.865969
20
40.073341
30
45.588211
70
192
0
VERTEX
8
OBJECT012
10
21.704351
20
40.157055
30
45.079971
70
192
0
VERTEX
8
OBJECT012
10
35.157070
20
24.608700
30
47.141903
70
192
0
VERTEX
8
OBJECT012
10
42.129349
20
-1.435550
30
45.809517
70
192
0
VERTEX
8
OBJECT012
10
37.056694
20
24.538589
30
45.456535
70
192
0
VERTEX
8
OBJECT012
10
47.896301
20
2.926183
30
39.833664
70
192
0
VERTEX
8
OBJECT012
10
36.144093
20
-15.984919
30
48.001278
70
192
0
VERTEX
8
OBJECT012
10
19.397966
20
-35.667908
30
45.007954
70
192
0
VERTEX
8
OBJECT012
10
37.331184
20
-19.458788
30
45.021877
70
192
0
VERTEX
8
OBJECT012
10
22.433767
20
-36.643730
30
42.572018
70
192
0
VERTEX
8
OBJECT012
10
0.303877
20
-41.376823
30
45.107956
70
192
0
VERTEX
8
OBJECT012
10
0.692328
20
-41.742126
30
44.727840
70
192
0
VERTEX
8
OBJECT012
10
-20.895071
20
-34.809273
30
45.565483
70
192
0
VERTEX
8
OBJECT012
10
-35.047108
20
-19.506470
30
47.100002
70
192
0
VERTEX
8
OBJECT012
10
-21.894222
20
-34.910767
30
44.962925
70
192
0
VERTEX
8
OBJECT012
10
-42.195747
20
6.744340
30
45.752132
70
192
0
VERTEX
8
OBJECT012
10
-37.233215
20
-19.417973
30
45.155968
70
192
0
VERTEX
8
OBJECT012
10
-48.022243
20
2.420929
30
39.699574
70
192
0
VERTEX
8
OBJECT012
10
-36.115414
20
21.353516
30
48.005684
70
192
0
VERTEX
8
OBJECT012
10
-19.359098
20
40.914604
30
45.048153
70
192
0
VERTEX
8
OBJECT012
10
-37.236069
20
24.656315
30
45.178127
70
192
0
VERTEX
8
OBJECT012
10
-22.454071
20
41.892849
30
42.581963
70
192
0
VERTEX
8
OBJECT012
10
-0.618338
20
47.047550
30
44.718609
70
192
0
VERTEX
8
OBJECT012
10
29.641987
20
46.529499
30
31.847870
70
192
0
VERTEX
8
OBJECT012
10
-2.524452
20
53.540207
30
35.743324
70
192
0
VERTEX
8
OBJECT012
10
-0.556517
20
55.569908
30
31.783239
70
192
0
VERTEX
8
OBJECT012
10
28.148237
20
51.855606
30
24.454121
70
192
0
VERTEX
8
OBJECT012
10
44.553673
20
29.913927
30
33.550426
70
192
0
VERTEX
8
OBJECT012
10
53.559715
20
3.161366
30
32.345173
70
192
0
VERTEX
8
OBJECT012
10
46.178535
20
29.114357
30
31.741621
70
192
0
VERTEX
8
OBJECT012
10
45.879963
20
-24.196058
30
31.680683
70
192
0
VERTEX
8
OBJECT012
10
54.087673
20
2.663993
30
31.439205
70
192
0
VERTEX
8
OBJECT012
10
46.347286
20
-24.035229
30
31.119320
70
192
0
VERTEX
8
OBJECT012
10
25.570486
20
-44.090054
30
31.910797
70
192
0
VERTEX
8
OBJECT012
10
27.881321
20
-44.638409
30
29.044178
70
192
0
VERTEX
8
OBJECT012
10
2.643618
20
-48.253910
30
35.717758
70
192
0
VERTEX
8
OBJECT012
10
-29.472822
20
-41.080284
30
32.199150
70
192
0
VERTEX
8
OBJECT012
10
0.556526
20
-50.409626
30
31.509945
70
192
0
VERTEX
8
OBJECT012
10
-27.862970
20
-46.639149
30
24.482672
70
192
0
VERTEX
8
OBJECT012
10
-44.598839
20
-24.620020
30
33.486935
70
192
0
VERTEX
8
OBJECT012
10
-53.581718
20
2.194906
30
32.355400
70
192
0
VERTEX
8
OBJECT012
10
-46.191296
20
-23.846851
30
31.722729
70
192
0
VERTEX
8
OBJECT012
10
-45.922615
20
29.446321
30
31.633240
70
192
0
VERTEX
8
OBJECT012
10
-54.032536
20
2.620889
30
31.580542
70
192
0
VERTEX
8
OBJECT012
10
-46.349857
20
29.298491
30
31.121307
70
192
0
VERTEX
8
OBJECT012
10
-25.574724
20
49.293640
30
31.975143
70
192
0
VERTEX
8
OBJECT012
10
-27.928528
20
49.847321
30
29.056820
70
192
0
VERTEX
8
OBJECT012
10
28.786959
20
54.426319
30
18.051991
70
192
0
VERTEX
8
OBJECT012
10
0.590222
20
62.002964
30
16.007956
70
192
0
VERTEX
8
OBJECT012
10
52.215763
20
30.485788
30
16.453127
70
192
0
VERTEX
8
OBJECT012
10
29.495657
20
54.442013
30
16.542332
70
192
0
VERTEX
8
OBJECT012
10
52.309380
20
32.351089
30
12.578411
70
192
0
VERTEX
8
OBJECT012
10
58.677074
20
3.944165
30
19.648865
70
192
0
VERTEX
8
OBJECT012
10
50.283970
20
-28.569643
30
16.366194
70
192
0
VERTEX
8
OBJECT012
10
59.547829
20
2.634426
30
16.133951
70
192
0
VERTEX
8
OBJECT012
10
52.238590
20
-27.551594
30
11.734093
70
192
0
VERTEX
8
OBJECT012
10
30.258360
20
-47.830692
30
19.354120
70
192
0
VERTEX
8
OBJECT012
10
-0.556517
20
-56.654369
30
16.201422
70
192
0
VERTEX
8
OBJECT012
10
29.470181
20
-49.220776
30
16.290911
70
192
0
VERTEX
8
OBJECT012
10
0.386961
20
-57.146759
30
14.335797
70
192
0
VERTEX
8
OBJECT012
10
-28.480701
20
-49.237076
30
18.024576
70
192
0
VERTEX
8
OBJECT012
10
-52.221630
20
-25.242460
30
16.376564
70
192
0
VERTEX
8
OBJECT012
10
-29.495647
20
-49.263744
30
15.854263
70
192
0
VERTEX
8
OBJECT012
10
-52.322144
20
-27.076311
30
12.516194
70
192
0
VERTEX
8
OBJECT012
10
-58.688107
20
1.340515
30
19.598013
70
192
0
VERTEX
8
OBJECT012
10
-50.287121
20
33.836544
30
16.357956
70
192
0
VERTEX
8
OBJECT012
10
-59.547821
20
2.634426
30
16.122871
70
192
0
VERTEX
8
OBJECT012
10
-52.243778
20
32.819641
30
11.716337
70
192
0
VERTEX
8
OBJECT012
10
-30.319220
20
53.041824
30
19.338070
70
192
0
VERTEX
8
OBJECT012
10
-29.495647
20
54.496498
30
16.131962
70
192
0
VERTEX
8
OBJECT012
10
-0.271871
20
62.449825
30
14.315485
70
192
0
VERTEX
8
OBJECT012
10
29.495657
20
56.309944
30
2.397019
70
192
0
VERTEX
8
OBJECT012
10
1.040358
20
64.000000
30
0.000002
70
192
0
VERTEX
8
OBJECT012
10
3.223917
20
63.434200
30
0.000002
70
192
0
VERTEX
8
OBJECT012
10
54.272659
20
32.060680
30
0.000002
70
192
0
VERTEX
8
OBJECT012
10
30.382442
20
55.741852
30
0.000002
70
192
0
VERTEX
8
OBJECT012
10
58.987572
20
14.032057
30
0.000002
70
192
0
VERTEX
8
OBJECT012
10
61.773914
20
3.142306
30
0.374434
70
192
0
VERTEX
8
OBJECT012
10
53.526123
20
-28.605070
30
0.000002
70
192
0
VERTEX
8
OBJECT012
10
61.773914
20
2.944098
30
0.000002
70
192
0
VERTEX
8
OBJECT012
10
49.322353
20
-32.772770
30
0.000002
70
192
0
VERTEX
8
OBJECT012
10
31.721743
20
-49.809002
30
2.133667
70
192
0
VERTEX
8
OBJECT012
10
-0.945172
20
-58.699429
30
0.000002
70
192
0
VERTEX
8
OBJECT012
10
30.843956
20
-50.219093
30
0.000002
70
192
0
VERTEX
8
OBJECT012
10
-4.978800
20
-57.667839
30
0.000002
70
192
0
VERTEX
8
OBJECT012
10
-29.495647
20
-51.046612
30
2.424008
70
192
0
VERTEX
8
OBJECT012
10
-54.276829
20
-26.792368
30
0.000002
70
192
0
VERTEX
8
OBJECT012
10
-30.392319
20
-50.469364
30
0.000002
70
192
0
VERTEX
8
OBJECT012
10
-58.881924
20
-9.181643
30
0.000002
70
192
0
VERTEX
8
OBJECT012
10
-61.773907
20
2.117050
30
0.386650
70
192
0
VERTEX
8
OBJECT012
10
-53.526081
20
33.878235
30
0.000002
70
192
0
VERTEX
8
OBJECT012
10
-61.773907
20
2.321253
30
0.000002
70
192
0
VERTEX
8
OBJECT012
10
-49.471054
20
37.900795
30
0.000002
70
192
0
VERTEX
8
OBJECT012
10
-31.721733
20
55.075027
30
2.149150
70
192
0
VERTEX
8
OBJECT012
10
-30.843746
20
55.488621
30
0.000002
70
192
0
VERTEX
8
OBJECT012
10
-58.917961
20
-9.044252
30
0.000002
70
192
0
VERTEX
8
OBJECT012
10
0
20
0
30
0
70
128
71
2
72
3
73
1
0
VERTEX
8
OBJECT012
10
0
20
0
30
0
70
128
71
2
72
1
73
4
0
VERTEX
8
OBJECT012
10
0
20
0
30
0
70
128
71
6
72
4
73
5
0
VERTEX
8
OBJECT012
10
0
20
0
30
0
70
128
71
2
72
5
73
7
0
VERTEX
8
OBJECT012
10
0
20
0
30
0
70
128
71
2
72
7
73
8
0
VERTEX
8
OBJECT012
10
0
20
0
30
0
70
128
71
2
72
8
73
9
0
VERTEX
8
OBJECT012
10
0
20
0
30
0
70
128
71
2
72
9
73
10
0
VERTEX
8
OBJECT012
10
0
20
0
30
0
70
128
71
2
72
10
73
11
0
VERTEX
8
OBJECT012
10
0
20
0
30
0
70
128
71
2
72
11
73
12
0
VERTEX
8
OBJECT012
10
0
20
0
30
0
70
128
71
2
72
12
73
13
0
VERTEX
8
OBJECT012
10
0
20
0
30
0
70
128
71
2
72
13
73
14
0
VERTEX
8
OBJECT012
10
0
20
0
30
0
70
128
71
2
72
14
73
3
0
VERTEX
8
OBJECT012
10
0
20
0
30
0
70
128
71
3
72
15
73
-16
0
VERTEX
8
OBJECT012
10
0
20
0
30
0
70
128
71
-3
72
16
73
1
0
VERTEX
8
OBJECT012
10
0
20
0
30
0
70
128
71
4
72
1
73
-16
0
VERTEX
8
OBJECT012
10
0
20
0
30
0
70
128
71
-4
72
16
73
-18
0
VERTEX
8
OBJECT012
10
0
20
0
30
0
70
128
71
-4
72
18
73
-19
0
VERTEX
8
OBJECT012
10
0
20
0
30
0
70
128
71
-4
72
19
73
17
0
VERTEX
8
OBJECT012
10
0
20
0
30
0
70
128
71
5
72
4
73
-17
0
VERTEX
8
OBJECT012
10
0
20
0
30
0
70
128
71
-5
72
17
73
20
0
VERTEX
8
OBJECT012
10
0
20
0
30
0
70
128
71
7
72
5
73
-20
0
VERTEX
8
OBJECT012
10
0
20
0
30
0
70
128
71
-7
72
20
73
-22
0
VERTEX
8
OBJECT012
10
0
20
0
30
0
70
128
71
-7
72
22
73
-23
0
VERTEX
8
OBJECT012
10
0
20
0
30
0
70
128
71
-7
72
23
73
21
0
VERTEX
8
OBJECT012
10
0
20
0
30
0
70
128
71
8
72
7
73
-21
0
VERTEX
8
OBJECT012
10
0
20
0
30
0
70
128
71
-8
72
21
73
24
0
VERTEX
8
OBJECT012
10
0
20
0
30
0
70
128
71
9
72
8
73
-24
0
VERTEX
8
OBJECT012
10
0
20
0
30
0
70
128
71
-9
72
24
73
-26
0
VERTEX
8
OBJECT012
10
0
20
0
30
0
70
128
71
-9
72
26
73
-27
0
VERTEX
8
OBJECT012
10
0
20
0
30
0
70
128
71
-9
72
27
73
25
0
VERTEX
8
OBJECT012
10
0
20
0
30
0
70
128
71
9
72
25
73
-28
0
VERTEX
8
OBJECT012
10
0
20
0
30
0
70
128
71
-9
72
28
73
10
0
VERTEX
8
OBJECT012
10
0
20
0
30
0
70
128
71
11
72
10
73
-28
0
VERTEX
8
OBJECT012
10
0
20
0
30
0
70
128
71
-11
72
28
73
-30
0
VERTEX
8
OBJECT012
10
0
20
0
30
0
70
128
71
-11
72
30
73
-31
0
VERTEX
8
OBJECT012
10
0
20
0
30
0
70
128
71
-11
72
31
73
29
0
VERTEX
8
OBJECT012
10
0
20
0
30
0
70
128
71
12
72
11
73
-29
0
VERTEX
8
OBJECT012
10
0
20
0
30
0
70
128
71
-12
72
29
73
32
0
VERTEX
8
OBJECT012
10
0
20
0
30
0
70
128
71
13
72
12
73
-32
0
VERTEX
8
OBJECT012
10
0
20
0
30
0
70
128
71
-13
72
32
73
-34
0
VERTEX
8
OBJECT012
10
0
20
0
30
0
70
128
71
-13
72
34
73
-35
0
VERTEX
8
OBJECT012
10
0
20
0
30
0
70
128
71
-13
72
35
73
33
0
VERTEX
8
OBJECT012
10
0
20
0
30
0
70
128
71
14
72
13
73
-33
0
VERTEX
8
OBJECT012
10
0
20
0
30
0
70
128
71
-14
72
33
73
36
0
VERTEX
8
OBJECT012
10
0
20
0
30
0
70
128
71
14
72
36
73
-37
0
VERTEX
8
OBJECT012
10
0
20
0
30
0
70
128
71
-14
72
37
73
-38
0
VERTEX
8
OBJECT012
10
0
20
0
30
0
70
128
71
-14
72
38
73
-15
0
VERTEX
8
OBJECT012
10
0
20
0
30
0
70
128
71
-14
72
15
73
3
0
VERTEX
8
OBJECT012
10
0
20
0
30
0
70
128
71
16
72
15
73
-38
0
VERTEX
8
OBJECT012
10
0
20
0
30
0
70
128
71
-16
72
38
73
-39
0
VERTEX
8
OBJECT012
10
0
20
0
30
0
70
128
71
-16
72
39
73
-40
0
VERTEX
8
OBJECT012
10
0
20
0
30
0
70
128
71
-16
72
40
73
18
0
VERTEX
8
OBJECT012
10
0
20
0
30
0
70
128
71
18
72
40
73
-41
0
VERTEX
8
OBJECT012
10
0
20
0
30
0
70
128
71
-18
72
41
73
-42
0
VERTEX
8
OBJECT012
10
0
20
0
30
0
70
128
71
-18
72
42
73
19
0
VERTEX
8
OBJECT012
10
0
20
0
30
0
70
128
71
22
72
20
73
-17
0
VERTEX
8
OBJECT012
10
0
20
0
30
0
70
128
71
-22
72
17
73
-19
0
VERTEX
8
OBJECT012
10
0
20
0
30
0
70
128
71
-22
72
19
73
-42
0
VERTEX
8
OBJECT012
10
0
20
0
30
0
70
128
71
-22
72
42
73
-44
0
VERTEX
8
OBJECT012
10
0
20
0
30
0
70
128
71
-22
72
44
73
-45
0
VERTEX
8
OBJECT012
10
0
20
0
30
0
70
128
71
-22
72
45
73
43
0
VERTEX
8
OBJECT012
10
0
20
0
30
0
70
128
71
23
72
22
73
-43
0
VERTEX
8
OBJECT012
10
0
20
0
30
0
70
128
71
-23
72
43
73
46
0
VERTEX
8
OBJECT012
10
0
20
0
30
0
70
128
71
26
72
24
73
-21
0
VERTEX
8
OBJECT012
10
0
20
0
30
0
70
128
71
-26
72
21
73
-23
0
VERTEX
8
OBJECT012
10
0
20
0
30
0
70
128
71
-26
72
23
73
-46
0
VERTEX
8
OBJECT012
10
0
20
0
30
0
70
128
71
-26
72
46
73
-48
0
VERTEX
8
OBJECT012
10
0
20
0
30
0
70
128
71
-26
72
48
73
-49
0
VERTEX
8
OBJECT012
10
0
20
0
30
0
70
128
71
-26
72
49
73
47
0
VERTEX
8
OBJECT012
10
0
20
0
30
0
70
128
71
27
72
26
73
-47
0
VERTEX
8
OBJECT012
10
0
20
0
30
0
70
128
71
-27
72
47
73
-51
0
VERTEX
8
OBJECT012
10
0
20
0
30
0
70
128
71
-27
72
51
73
50
0
VERTEX
8
OBJECT012
10
0
20
0
30
0
70
128
71
30
72
28
73
-25
0
VERTEX
8
OBJECT012
10
0
20
0
30
0
70
128
71
-30
72
25
73
-27
0
VERTEX
8
OBJECT012
10
0
20
0
30
0
70
128
71
-30
72
27
73
-50
0
VERTEX
8
OBJECT012
10
0
20
0
30
0
70
128
71
-30
72
50
73
52
0
VERTEX
8
OBJECT012
10
0
20
0
30
0
70
128
71
31
72
30
73
-52
0
VERTEX
8
OBJECT012
10
0
20
0
30
0
70
128
71
-31
72
52
73
-54
0
VERTEX
8
OBJECT012
10
0
20
0
30
0
70
128
71
-31
72
54
73
53
0
VERTEX
8
OBJECT012
10
0
20
0
30
0
70
128
71
34
72
32
73
-29
0
VERTEX
8
OBJECT012
10
0
20
0
30
0
70
128
71
-34
72
29
73
-31
0
VERTEX
8
OBJECT012
10
0
20
0
30
0
70
128
71
-34
72
31
73
-53
0
VERTEX
8
OBJECT012
10
0
20
0
30
0
70
128
71
-34
72
53
73
-56
0
VERTEX
8
OBJECT012
10
0
20
0
30
0
70
128
71
-34
72
56
73
-57
0
VERTEX
8
OBJECT012
10
0
20
0
30
0
70
128
71
-34
72
57
73
55
0
VERTEX
8
OBJECT012
10
0
20
0
30
0
70
128
71
35
72
34
73
-55
0
VERTEX
8
OBJECT012
10
0
20
0
30
0
70
128
71
-35
72
55
73
58
0
VERTEX
8
OBJECT012
10
0
20
0
30
0
70
128
71
37
72
36
73
-33
0
VERTEX
8
OBJECT012
10
0
20
0
30
0
70
128
71
-37
72
33
73
-35
0
VERTEX
8
OBJECT012
10
0
20
0
30
0
70
128
71
-37
72
35
73
-58
0
VERTEX
8
OBJECT012
10
0
20
0
30
0
70
128
71
-37
72
58
73
-60
0
VERTEX
8
OBJECT012
10
0
20
0
30
0
70
128
71
-37
72
60
73
-61
0
VERTEX
8
OBJECT012
10
0
20
0
30
0
70
128
71
-37
72
61
73
59
0
VERTEX
8
OBJECT012
10
0
20
0
30
0
70
128
71
38
72
37
73
-59
0
VERTEX
8
OBJECT012
10
0
20
0
30
0
70
128
71
-38
72
59
73
-62
0
VERTEX
8
OBJECT012
10
0
20
0
30
0
70
128
71
-38
72
62
73
39
0
VERTEX
8
OBJECT012
10
0
20
0
30
0
70
128
71
41
72
40
73
-39
0
VERTEX
8
OBJECT012
10
0
20
0
30
0
70
128
71
-41
72
39
73
-62
0
VERTEX
8
OBJECT012
10
0
20
0
30
0
70
128
71
-41
72
62
73
-64
0
VERTEX
8
OBJECT012
10
0
20
0
30
0
70
128
71
-41
72
64
73
-65
0
VERTEX
8
OBJECT012
10
0
20
0
30
0
70
128
71
-41
72
65
73
-66
0
VERTEX
8
OBJECT012
10
0
20
0
30
0
70
128
71
-41
72
66
73
63
0
VERTEX
8
OBJECT012
10
0
20
0
30
0
70
128
71
42
72
41
73
-63
0
VERTEX
8
OBJECT012
10
0
20
0
30
0
70
128
71
-42
72
63
73
-67
0
VERTEX
8
OBJECT012
10
0
20
0
30
0
70
128
71
-42
72
67
73
44
0
VERTEX
8
OBJECT012
10
0
20
0
30
0
70
128
71
45
72
44
73
-67
0
VERTEX
8
OBJECT012
10
0
20
0
30
0
70
128
71
-45
72
67
73
-69
0
VERTEX
8
OBJECT012
10
0
20
0
30
0
70
128
71
-45
72
69
73
68
0
VERTEX
8
OBJECT012
10
0
20
0
30
0
70
128
71
48
72
46
73
-43
0
VERTEX
8
OBJECT012
10
0
20
0
30
0
70
128
71
-48
72
43
73
-45
0
VERTEX
8
OBJECT012
10
0
20
0
30
0
70
128
71
-48
72
45
73
-68
0
VERTEX
8
OBJECT012
10
0
20
0
30
0
70
128
71
-48
72
68
73
-71
0
VERTEX
8
OBJECT012
10
0
20
0
30
0
70
128
71
-48
72
71
73
-72
0
VERTEX
8
OBJECT012
10
0
20
0
30
0
70
128
71
-48
72
72
73
70
0
VERTEX
8
OBJECT012
10
0
20
0
30
0
70
128
71
49
72
48
73
-70
0
VERTEX
8
OBJECT012
10
0
20
0
30
0
70
128
71
-49
72
70
73
-74
0
VERTEX
8
OBJECT012
10
0
20
0
30
0
70
128
71
-49
72
74
73
73
0
VERTEX
8
OBJECT012
10
0
20
0
30
0
70
128
71
51
72
47
73
-49
0
VERTEX
8
OBJECT012
10
0
20
0
30
0
70
128
71
-51
72
49
73
-73
0
VERTEX
8
OBJECT012
10
0
20
0
30
0
70
128
71
-51
72
73
73
75
0
VERTEX
8
OBJECT012
10
0
20
0
30
0
70
128
71
54
72
52
73
-50
0
VERTEX
8
OBJECT012
10
0
20
0
30
0
70
128
71
-54
72
50
73
-51
0
VERTEX
8
OBJECT012
10
0
20
0
30
0
70
128
71
-54
72
51
73
-75
0
VERTEX
8
OBJECT012
10
0
20
0
30
0
70
128
71
-54
72
75
73
-77
0
VERTEX
8
OBJECT012
10
0
20
0
30
0
70
128
71
-54
72
77
73
-78
0
VERTEX
8
OBJECT012
10
0
20
0
30
0
70
128
71
-54
72
78
73
76
0
VERTEX
8
OBJECT012
10
0
20
0
30
0
70
128
71
56
72
53
73
-54
0
VERTEX
8
OBJECT012
10
0
20
0
30
0
70
128
71
-56
72
54
73
-76
0
VERTEX
8
OBJECT012
10
0
20
0
30
0
70
128
71
-56
72
76
73
79
0
VERTEX
8
OBJECT012
10
0
20
0
30
0
70
128
71
57
72
56
73
-79
0
VERTEX
8
OBJECT012
10
0
20
0
30
0
70
128
71
-57
72
79
73
-81
0
VERTEX
8
OBJECT012
10
0
20
0
30
0
70
128
71
-57
72
81
73
80
0
VERTEX
8
OBJECT012
10
0
20
0
30
0
70
128
71
60
72
58
73
-55
0
VERTEX
8
OBJECT012
10
0
20
0
30
0
70
128
71
-60
72
55
73
-57
0
VERTEX
8
OBJECT012
10
0
20
0
30
0
70
128
71
-60
72
57
73
-80
0
VERTEX
8
OBJECT012
10
0
20
0
30
0
70
128
71
-60
72
80
73
-83
0
VERTEX
8
OBJECT012
10
0
20
0
30
0
70
128
71
-60
72
83
73
-84
0
VERTEX
8
OBJECT012
10
0
20
0
30
0
70
128
71
-60
72
84
73
82
0
VERTEX
8
OBJECT012
10
0
20
0
30
0
70
128
71
61
72
60
73
-82
0
VERTEX
8
OBJECT012
10
0
20
0
30
0
70
128
71
-61
72
82
73
-86
0
VERTEX
8
OBJECT012
10
0
20
0
30
0
70
128
71
-61
72
86
73
85
0
VERTEX
8
OBJECT012
10
0
20
0
30
0
70
128
71
62
72
59
73
-61
0
VERTEX
8
OBJECT012
10
0
20
0
30
0
70
128
71
-62
72
61
73
-85
0
VERTEX
8
OBJECT012
10
0
20
0
30
0
70
128
71
-62
72
85
73
64
0
VERTEX
8
OBJECT012
10
0
20
0
30
0
70
128
71
66
72
65
73
-88
0
VERTEX
8
OBJECT012
10
0
20
0
30
0
70
128
71
-66
72
88
73
87
0
VERTEX
8
OBJECT012
10
0
20
0
30
0
70
128
71
69
72
67
73
-63
0
VERTEX
8
OBJECT012
10
0
20
0
30
0
70
128
71
-69
72
63
73
-66
0
VERTEX
8
OBJECT012
10
0
20
0
30
0
70
128
71
-69
72
66
73
-87
0
VERTEX
8
OBJECT012
10
0
20
0
30
0
70
128
71
-69
72
87
73
-90
0
VERTEX
8
OBJECT012
10
0
20
0
30
0
70
128
71
-69
72
90
73
-91
0
VERTEX
8
OBJECT012
10
0
20
0
30
0
70
128
71
-69
72
91
73
89
0
VERTEX
8
OBJECT012
10
0
20
0
30
0
70
128
71
68
72
69
73
-89
0
VERTEX
8
OBJECT012
10
0
20
0
30
0
70
128
71
-68
72
89
73
-92
0
VERTEX
8
OBJECT012
10
0
20
0
30
0
70
128
71
-68
72
92
73
71
0
VERTEX
8
OBJECT012
10
0
20
0
30
0
70
128
71
72
72
71
73
-92
0
VERTEX
8
OBJECT012
10
0
20
0
30
0
70
128
71
-72
72
92
73
-94
0
VERTEX
8
OBJECT012
10
0
20
0
30
0
70
128
71
-72
72
94
73
-95
0
VERTEX
8
OBJECT012
10
0
20
0
30
0
70
128
71
-72
72
95
73
93
0
VERTEX
8
OBJECT012
10
0
20
0
30
0
70
128
71
74
72
70
73
-72
0
VERTEX
8
OBJECT012
10
0
20
0
30
0
70
128
71
-74
72
72
73
-93
0
VERTEX
8
OBJECT012
10
0
20
0
30
0
70
128
71
-74
72
93
73
96
0
VERTEX
8
OBJECT012
10
0
20
0
30
0
70
128
71
77
72
75
73
-73
0
VERTEX
8
OBJECT012
10
0
20
0
30
0
70
128
71
-77
72
73
73
-74
0
VERTEX
8
OBJECT012
10
0
20
0
30
0
70
128
71
-77
72
74
73
-96
0
VERTEX
8
OBJECT012
10
0
20
0
30
0
70
128
71
-77
72
96
73
-98
0
VERTEX
8
OBJECT012
10
0
20
0
30
0
70
128
71
-77
72
98
73
-99
0
VERTEX
8
OBJECT012
10
0
20
0
30
0
70
128
71
-77
72
99
73
97
0
VERTEX
8
OBJECT012
10
0
20
0
30
0
70
128
71
78
72
77
73
-97
0
VERTEX
8
OBJECT012
10
0
20
0
30
0
70
128
71
-78
72
97
73
100
0
VERTEX
8
OBJECT012
10
0
20
0
30
0
70
128
71
81
72
79
73
-76
0
VERTEX
8
OBJECT012
10
0
20
0
30
0
70
128
71
-81
72
76
73
-78
0
VERTEX
8
OBJECT012
10
0
20
0
30
0
70
128
71
-81
72
78
73
-100
0
VERTEX
8
OBJECT012
10
0
20
0
30
0
70
128
71
-81
72
100
73
-102
0
VERTEX
8
OBJECT012
10
0
20
0
30
0
70
128
71
-81
72
102
73
-103
0
VERTEX
8
OBJECT012
10
0
20
0
30
0
70
128
71
-81
72
103
73
101
0
VERTEX
8
OBJECT012
10
0
20
0
30
0
70
128
71
80
72
81
73
-101
0
VERTEX
8
OBJECT012
10
0
20
0
30
0
70
128
71
-80
72
101
73
-104
0
VERTEX
8
OBJECT012
10
0
20
0
30
0
70
128
71
-80
72
104
73
83
0
VERTEX
8
OBJECT012
10
0
20
0
30
0
70
128
71
84
72
83
73
-104
0
VERTEX
8
OBJECT012
10
0
20
0
30
0
70
128
71
-84
72
104
73
-106
0
VERTEX
8
OBJECT012
10
0
20
0
30
0
70
128
71
-84
72
106
73
-107
0
VERTEX
8
OBJECT012
10
0
20
0
30
0
70
128
71
-84
72
107
73
105
0
VERTEX
8
OBJECT012
10
0
20
0
30
0
70
128
71
86
72
82
73
-84
0
VERTEX
8
OBJECT012
10
0
20
0
30
0
70
128
71
-86
72
84
73
-105
0
VERTEX
8
OBJECT012
10
0
20
0
30
0
70
128
71
-86
72
105
73
108
0
VERTEX
8
OBJECT012
10
0
20
0
30
0
70
128
71
65
72
64
73
-85
0
VERTEX
8
OBJECT012
10
0
20
0
30
0
70
128
71
-65
72
85
73
-86
0
VERTEX
8
OBJECT012
10
0
20
0
30
0
70
128
71
-65
72
86
73
-108
0
VERTEX
8
OBJECT012
10
0
20
0
30
0
70
128
71
-65
72
108
73
-109
0
VERTEX
8
OBJECT012
10
0
20
0
30
0
70
128
71
-65
72
109
73
-110
0
VERTEX
8
OBJECT012
10
0
20
0
30
0
70
128
71
-65
72
110
73
88
0
VERTEX
8
OBJECT012
10
0
20
0
30
0
70
128
71
90
72
87
73
-88
0
VERTEX
8
OBJECT012
10
0
20
0
30
0
70
128
71
-90
72
88
73
-110
0
VERTEX
8
OBJECT012
10
0
20
0
30
0
70
128
71
-90
72
110
73
-112
0
VERTEX
8
OBJECT012
10
0
20
0
30
0
70
128
71
-90
72
112
73
-113
0
VERTEX
8
OBJECT012
10
0
20
0
30
0
70
128
71
-90
72
113
73
111
0
VERTEX
8
OBJECT012
10
0
20
0
30
0
70
128
71
91
72
90
73
-111
0
VERTEX
8
OBJECT012
10
0
20
0
30
0
70
128
71
-91
72
111
73
-115
0
VERTEX
8
OBJECT012
10
0
20
0
30
0
70
128
71
-91
72
115
73
114
0
VERTEX
8
OBJECT012
10
0
20
0
30
0
70
128
71
92
72
89
73
-91
0
VERTEX
8
OBJECT012
10
0
20
0
30
0
70
128
71
-92
72
91
73
-114
0
VERTEX
8
OBJECT012
10
0
20
0
30
0
70
128
71
-92
72
114
73
-116
0
VERTEX
8
OBJECT012
10
0
20
0
30
0
70
128
71
-92
72
116
73
-117
0
VERTEX
8
OBJECT012
10
0
20
0
30
0
70
128
71
-92
72
117
73
94
0
VERTEX
8
OBJECT012
10
0
20
0
30
0
70
128
71
95
72
94
73
-117
0
VERTEX
8
OBJECT012
10
0
20
0
30
0
70
128
71
-95
72
117
73
-119
0
VERTEX
8
OBJECT012
10
0
20
0
30
0
70
128
71
-95
72
119
73
118
0
VERTEX
8
OBJECT012
10
0
20
0
30
0
70
128
71
96
72
93
73
-95
0
VERTEX
8
OBJECT012
10
0
20
0
30
0
70
128
71
-96
72
95
73
-118
0
VERTEX
8
OBJECT012
10
0
20
0
30
0
70
128
71
-96
72
118
73
-120
0
VERTEX
8
OBJECT012
10
0
20
0
30
0
70
128
71
-96
72
120
73
-121
0
VERTEX
8
OBJECT012
10
0
20
0
30
0
70
128
71
-96
72
121
73
98
0
VERTEX
8
OBJECT012
10
0
20
0
30
0
70
128
71
99
72
98
73
-121
0
VERTEX
8
OBJECT012
10
0
20
0
30
0
70
128
71
-99
72
121
73
-123
0
VERTEX
8
OBJECT012
10
0
20
0
30
0
70
128
71
-99
72
123
73
122
0
VERTEX
8
OBJECT012
10
0
20
0
30
0
70
128
71
100
72
97
73
-99
0
VERTEX
8
OBJECT012
10
0
20
0
30
0
70
128
71
-100
72
99
73
-122
0
VERTEX
8
OBJECT012
10
0
20
0
30
0
70
128
71
-100
72
122
73
-124
0
VERTEX
8
OBJECT012
10
0
20
0
30
0
70
128
71
-100
72
124
73
-125
0
VERTEX
8
OBJECT012
10
0
20
0
30
0
70
128
71
-100
72
125
73
102
0
VERTEX
8
OBJECT012
10
0
20
0
30
0
70
128
71
103
72
102
73
-125
0
VERTEX
8
OBJECT012
10
0
20
0
30
0
70
128
71
-103
72
125
73
-127
0
VERTEX
8
OBJECT012
10
0
20
0
30
0
70
128
71
-103
72
127
73
126
0
VERTEX
8
OBJECT012
10
0
20
0
30
0
70
128
71
104
72
101
73
-103
0
VERTEX
8
OBJECT012
10
0
20
0
30
0
70
128
71
-104
72
103
73
-126
0
VERTEX
8
OBJECT012
10
0
20
0
30
0
70
128
71
-104
72
126
73
-128
0
VERTEX
8
OBJECT012
10
0
20
0
30
0
70
128
71
-104
72
128
73
-129
0
VERTEX
8
OBJECT012
10
0
20
0
30
0
70
128
71
-104
72
129
73
106
0
VERTEX
8
OBJECT012
10
0
20
0
30
0
70
128
71
107
72
106
73
-129
0
VERTEX
8
OBJECT012
10
0
20
0
30
0
70
128
71
-107
72
129
73
-131
0
VERTEX
8
OBJECT012
10
0
20
0
30
0
70
128
71
-107
72
131
73
130
0
VERTEX
8
OBJECT012
10
0
20
0
30
0
70
128
71
108
72
105
73
-107
0
VERTEX
8
OBJECT012
10
0
20
0
30
0
70
128
71
-108
72
107
73
-130
0
VERTEX
8
OBJECT012
10
0
20
0
30
0
70
128
71
-108
72
130
73
-132
0
VERTEX
8
OBJECT012
10
0
20
0
30
0
70
128
71
-108
72
132
73
-133
0
VERTEX
8
OBJECT012
10
0
20
0
30
0
70
128
71
-108
72
133
73
109
0
VERTEX
8
OBJECT012
10
0
20
0
30
0
70
128
71
110
72
109
73
-133
0
VERTEX
8
OBJECT012
10
0
20
0
30
0
70
128
71
-110
72
133
73
-134
0
VERTEX
8
OBJECT012
10
0
20
0
30
0
70
128
71
-110
72
134
73
112
0
VERTEX
8
OBJECT012
10
0
20
0
30
0
70
128
71
111
72
113
73
115
0
VERTEX
8
OBJECT012
10
0
20
0
30
0
70
128
71
117
72
116
73
119
0
VERTEX
8
OBJECT012
10
0
20
0
30
0
70
128
71
121
72
120
73
123
0
VERTEX
8
OBJECT012
10
0
20
0
30
0
70
128
71
125
72
124
73
127
0
VERTEX
8
OBJECT012
10
0
20
0
30
0
70
128
71
129
72
135
73
131
0
VERTEX
8
OBJECT012
10
0
20
0
30
0
70
128
71
133
72
132
73
134
0
VERTEX
8
OBJECT012
10
0
20
0
30
0
70
128
71
115
72
113
73
-112
0
VERTEX
8
OBJECT012
10
0
20
0
30
0
70
128
71
-115
72
112
73
-134
0
VERTEX
8
OBJECT012
10
0
20
0
30
0
70
128
71
-115
72
134
73
-132
0
VERTEX
8
OBJECT012
10
0
20
0
30
0
70
128
71
-115
72
132
73
-130
0
VERTEX
8
OBJECT012
10
0
20
0
30
0
70
128
71
-115
72
130
73
-131
0
VERTEX
8
OBJECT012
10
0
20
0
30
0
70
128
71
-115
72
131
73
-128
0
VERTEX
8
OBJECT012
10
0
20
0
30
0
70
128
71
-115
72
128
73
-126
0
VERTEX
8
OBJECT012
10
0
20
0
30
0
70
128
71
-115
72
126
73
-127
0
VERTEX
8
OBJECT012
10
0
20
0
30
0
70
128
71
-115
72
127
73
-124
0
VERTEX
8
OBJECT012
10
0
20
0
30
0
70
128
71
-115
72
124
73
-122
0
VERTEX
8
OBJECT012
10
0
20
0
30
0
70
128
71
-115
72
122
73
-123
0
VERTEX
8
OBJECT012
10
0
20
0
30
0
70
128
71
-115
72
123
73
-120
0
VERTEX
8
OBJECT012
10
0
20
0
30
0
70
128
71
-115
72
120
73
-118
0
VERTEX
8
OBJECT012
10
0
20
0
30
0
70
128
71
-115
72
118
73
-119
0
VERTEX
8
OBJECT012
10
0
20
0
30
0
70
128
71
-115
72
119
73
-116
0
VERTEX
8
OBJECT012
10
0
20
0
30
0
70
128
71
-115
72
116
73
114
0
SEQEND
8
OBJECT012
0
ENDSEC
0
EOF
