0
SECTION
2
HEADER
9
$ACADVER
1
AC1008
9
$UCSORG
10
0.0
20
0.0
30
0.0
9
$UCSXDIR
10
1.0
20
0.0
30
0.0
9
$TILEMODE
70
1
9
$UCSYDIR
10
0.0
20
1.0
30
0.0
9
$EXTMIN
10
-48.000008
20
-47.999996
30
-48.000000
9
$EXTMAX
10
48.000004
20
47.999996
30
48.000000
0
ENDSEC
0
SECTION
2
TABLES
0
TABLE
2
LTYPE
70
1
0
LTYPE
2
CONTINUOUS
70
64
3
Solid line
72
65
73
0
40
0.0
0
ENDTAB
0
TABLE
2
LAYER
70
1
0
LAYER
2
0
70
0
62
7
6
CONTINUOUS
0
ENDTAB
0
TABLE
2
STYLE
70
1
0
STYLE
2
STANDARD
70
0
40
0.0
41
1.0
50
0.0
71
0
42
0.2
3
txt
4

0
ENDTAB
0
TABLE
2
UCS
70
0
0
ENDTAB
0
ENDSEC
0
SECTION
2
ENTITIES
0
POLYLINE
8
OBJECT000
66
1
70
64
71
64
72
124
62
50
0
VERTEX
8
OBJECT000
10
33.599998
20
33.599998
30
-48.000000
70
192
0
VERTEX
8
OBJECT000
10
26.400000
20
39.599998
30
-48.000000
70
192
0
VERTEX
8
OBJECT000
10
18.000000
20
44.399998
30
-48.000000
70
192
0
VERTEX
8
OBJECT000
10
9.599998
20
46.799999
30
-48.000000
70
192
0
VERTEX
8
OBJECT000
10
-0.000002
20
47.999996
30
-48.000000
70
192
0
VERTEX
8
OBJECT000
10
-9.600003
20
46.799999
30
-48.000000
70
192
0
VERTEX
8
OBJECT000
10
-18.000004
20
44.399998
30
-48.000000
70
192
0
VERTEX
8
OBJECT000
10
-26.400005
20
39.599998
30
-48.000000
70
192
0
VERTEX
8
OBJECT000
10
-33.600006
20
33.599998
30
-48.000000
70
192
0
VERTEX
8
OBJECT000
10
-39.600006
20
26.400000
30
-48.000000
70
192
0
VERTEX
8
OBJECT000
10
-44.400009
20
17.999998
30
-48.000000
70
192
0
VERTEX
8
OBJECT000
10
-46.800007
20
9.599999
30
-48.000000
70
192
0
VERTEX
8
OBJECT000
10
-48.000008
20
-0.000001
30
-48.000000
70
192
0
VERTEX
8
OBJECT000
10
-46.800007
20
-9.599999
30
-48.000000
70
192
0
VERTEX
8
OBJECT000
10
-44.400009
20
-18.000000
30
-48.000000
70
192
0
VERTEX
8
OBJECT000
10
-39.573860
20
-26.445776
30
-48.000000
70
192
0
VERTEX
8
OBJECT000
10
-33.643127
20
-33.564075
30
-48.000000
70
192
0
VERTEX
8
OBJECT000
10
-26.400005
20
-39.599998
30
-48.000000
70
192
0
VERTEX
8
OBJECT000
10
-18.000004
20
-44.400002
30
-48.000000
70
192
0
VERTEX
8
OBJECT000
10
-9.600003
20
-46.799999
30
-48.000000
70
192
0
VERTEX
8
OBJECT000
10
-0.000002
20
-47.999996
30
-48.000000
70
192
0
VERTEX
8
OBJECT000
10
9.599998
20
-46.799999
30
-48.000000
70
192
0
VERTEX
8
OBJECT000
10
18.000000
20
-44.400002
30
-48.000000
70
192
0
VERTEX
8
OBJECT000
10
26.400000
20
-39.599998
30
-48.000000
70
192
0
VERTEX
8
OBJECT000
10
33.599998
20
-33.599998
30
-48.000000
70
192
0
VERTEX
8
OBJECT000
10
39.599998
20
-26.400000
30
-48.000000
70
192
0
VERTEX
8
OBJECT000
10
44.400005
20
-18.000000
30
-48.000000
70
192
0
VERTEX
8
OBJECT000
10
46.800003
20
-9.599999
30
-48.000000
70
192
0
VERTEX
8
OBJECT000
10
48.000004
20
-0.000001
30
-48.000000
70
192
0
VERTEX
8
OBJECT000
10
46.800003
20
9.599999
30
-48.000000
70
192
0
VERTEX
8
OBJECT000
10
44.400005
20
17.999998
30
-48.000000
70
192
0
VERTEX
8
OBJECT000
10
39.599998
20
26.400000
30
-48.000000
70
192
0
VERTEX
8
OBJECT000
10
-0.000002
20
47.999996
30
-36.244896
70
192
0
VERTEX
8
OBJECT000
10
9.599998
20
46.799999
30
-36.244896
70
192
0
VERTEX
8
OBJECT000
10
18.000000
20
44.399998
30
-36.244896
70
192
0
VERTEX
8
OBJECT000
10
26.400000
20
39.599998
30
-36.244896
70
192
0
VERTEX
8
OBJECT000
10
33.599998
20
33.599998
30
-36.244896
70
192
0
VERTEX
8
OBJECT000
10
39.599998
20
26.400000
30
-36.244896
70
192
0
VERTEX
8
OBJECT000
10
44.400005
20
17.999998
30
-36.244896
70
192
0
VERTEX
8
OBJECT000
10
46.800003
20
9.599999
30
-36.244896
70
192
0
VERTEX
8
OBJECT000
10
48.000004
20
-0.000001
30
-36.244896
70
192
0
VERTEX
8
OBJECT000
10
46.800003
20
-9.599999
30
-36.244896
70
192
0
VERTEX
8
OBJECT000
10
44.400005
20
-18.000000
30
-36.244896
70
192
0
VERTEX
8
OBJECT000
10
39.599998
20
-26.400000
30
-36.244896
70
192
0
VERTEX
8
OBJECT000
10
33.599998
20
-33.599998
30
-36.244896
70
192
0
VERTEX
8
OBJECT000
10
26.400000
20
-39.599998
30
-36.244896
70
192
0
VERTEX
8
OBJECT000
10
18.000000
20
-44.400002
30
-36.244896
70
192
0
VERTEX
8
OBJECT000
10
9.599998
20
-46.799999
30
-36.244896
70
192
0
VERTEX
8
OBJECT000
10
-0.000002
20
-47.999996
30
-36.244896
70
192
0
VERTEX
8
OBJECT000
10
-9.600003
20
-46.799999
30
-36.244896
70
192
0
VERTEX
8
OBJECT000
10
-18.000004
20
-44.400002
30
-36.244896
70
192
0
VERTEX
8
OBJECT000
10
-26.400005
20
-39.599998
30
-36.244896
70
192
0
VERTEX
8
OBJECT000
10
-33.641113
20
-33.566494
30
-36.244896
70
192
0
VERTEX
8
OBJECT000
10
-39.574188
20
-26.445154
30
-36.244896
70
192
0
VERTEX
8
OBJECT000
10
-44.400009
20
-18.000000
30
-36.244896
70
192
0
VERTEX
8
OBJECT000
10
-46.800007
20
-9.599999
30
-36.244896
70
192
0
VERTEX
8
OBJECT000
10
-48.000008
20
-0.000001
30
-36.244896
70
192
0
VERTEX
8
OBJECT000
10
-46.800007
20
9.599999
30
-36.244896
70
192
0
VERTEX
8
OBJECT000
10
-44.400009
20
17.999998
30
-36.244896
70
192
0
VERTEX
8
OBJECT000
10
-39.600006
20
26.400000
30
-36.244896
70
192
0
VERTEX
8
OBJECT000
10
-33.600006
20
33.599998
30
-36.244896
70
192
0
VERTEX
8
OBJECT000
10
-26.400005
20
39.599998
30
-36.244896
70
192
0
VERTEX
8
OBJECT000
10
-18.000004
20
44.399998
30
-36.244896
70
192
0
VERTEX
8
OBJECT000
10
-9.600003
20
46.799999
30
-36.244896
70
192
0
VERTEX
8
OBJECT000
10
0
20
0
30
0
70
128
71
2
72
3
73
-4
0
VERTEX
8
OBJECT000
10
0
20
0
30
0
70
128
71
-2
72
4
73
-5
0
VERTEX
8
OBJECT000
10
0
20
0
30
0
70
128
71
-2
72
5
73
-6
0
VERTEX
8
OBJECT000
10
0
20
0
30
0
70
128
71
-2
72
6
73
-7
0
VERTEX
8
OBJECT000
10
0
20
0
30
0
70
128
71
-2
72
7
73
-8
0
VERTEX
8
OBJECT000
10
0
20
0
30
0
70
128
71
-2
72
8
73
-9
0
VERTEX
8
OBJECT000
10
0
20
0
30
0
70
128
71
-2
72
9
73
-10
0
VERTEX
8
OBJECT000
10
0
20
0
30
0
70
128
71
-2
72
10
73
-11
0
VERTEX
8
OBJECT000
10
0
20
0
30
0
70
128
71
-2
72
11
73
-12
0
VERTEX
8
OBJECT000
10
0
20
0
30
0
70
128
71
-2
72
12
73
-13
0
VERTEX
8
OBJECT000
10
0
20
0
30
0
70
128
71
-2
72
13
73
-14
0
VERTEX
8
OBJECT000
10
0
20
0
30
0
70
128
71
-2
72
14
73
-15
0
VERTEX
8
OBJECT000
10
0
20
0
30
0
70
128
71
-2
72
15
73
-16
0
VERTEX
8
OBJECT000
10
0
20
0
30
0
70
128
71
-2
72
16
73
-17
0
VERTEX
8
OBJECT000
10
0
20
0
30
0
70
128
71
-2
72
17
73
-18
0
VERTEX
8
OBJECT000
10
0
20
0
30
0
70
128
71
-2
72
18
73
-19
0
VERTEX
8
OBJECT000
10
0
20
0
30
0
70
128
71
-2
72
19
73
-20
0
VERTEX
8
OBJECT000
10
0
20
0
30
0
70
128
71
-2
72
20
73
-21
0
VERTEX
8
OBJECT000
10
0
20
0
30
0
70
128
71
-2
72
21
73
-22
0
VERTEX
8
OBJECT000
10
0
20
0
30
0
70
128
71
-2
72
22
73
-23
0
VERTEX
8
OBJECT000
10
0
20
0
30
0
70
128
71
-2
72
23
73
-24
0
VERTEX
8
OBJECT000
10
0
20
0
30
0
70
128
71
-2
72
24
73
-25
0
VERTEX
8
OBJECT000
10
0
20
0
30
0
70
128
71
-2
72
25
73
-26
0
VERTEX
8
OBJECT000
10
0
20
0
30
0
70
128
71
-2
72
26
73
-27
0
VERTEX
8
OBJECT000
10
0
20
0
30
0
70
128
71
-2
72
27
73
-28
0
VERTEX
8
OBJECT000
10
0
20
0
30
0
70
128
71
-2
72
28
73
-29
0
VERTEX
8
OBJECT000
10
0
20
0
30
0
70
128
71
-2
72
29
73
-30
0
VERTEX
8
OBJECT000
10
0
20
0
30
0
70
128
71
-2
72
30
73
-31
0
VERTEX
8
OBJECT000
10
0
20
0
30
0
70
128
71
-2
72
31
73
-32
0
VERTEX
8
OBJECT000
10
0
20
0
30
0
70
128
71
-2
72
32
73
1
0
VERTEX
8
OBJECT000
10
0
20
0
30
0
70
128
71
5
72
4
73
-34
0
VERTEX
8
OBJECT000
10
0
20
0
30
0
70
128
71
-5
72
34
73
33
0
VERTEX
8
OBJECT000
10
0
20
0
30
0
70
128
71
4
72
3
73
-35
0
VERTEX
8
OBJECT000
10
0
20
0
30
0
70
128
71
-4
72
35
73
34
0
VERTEX
8
OBJECT000
10
0
20
0
30
0
70
128
71
3
72
2
73
-36
0
VERTEX
8
OBJECT000
10
0
20
0
30
0
70
128
71
-3
72
36
73
35
0
VERTEX
8
OBJECT000
10
0
20
0
30
0
70
128
71
2
72
1
73
-37
0
VERTEX
8
OBJECT000
10
0
20
0
30
0
70
128
71
-2
72
37
73
36
0
VERTEX
8
OBJECT000
10
0
20
0
30
0
70
128
71
1
72
32
73
-38
0
VERTEX
8
OBJECT000
10
0
20
0
30
0
70
128
71
-1
72
38
73
37
0
VERTEX
8
OBJECT000
10
0
20
0
30
0
70
128
71
32
72
31
73
-39
0
VERTEX
8
OBJECT000
10
0
20
0
30
0
70
128
71
-32
72
39
73
38
0
VERTEX
8
OBJECT000
10
0
20
0
30
0
70
128
71
31
72
30
73
-40
0
VERTEX
8
OBJECT000
10
0
20
0
30
0
70
128
71
-31
72
40
73
39
0
VERTEX
8
OBJECT000
10
0
20
0
30
0
70
128
71
30
72
29
73
-41
0
VERTEX
8
OBJECT000
10
0
20
0
30
0
70
128
71
-30
72
41
73
40
0
VERTEX
8
OBJECT000
10
0
20
0
30
0
70
128
71
29
72
28
73
-42
0
VERTEX
8
OBJECT000
10
0
20
0
30
0
70
128
71
-29
72
42
73
41
0
VERTEX
8
OBJECT000
10
0
20
0
30
0
70
128
71
28
72
27
73
-43
0
VERTEX
8
OBJECT000
10
0
20
0
30
0
70
128
71
-28
72
43
73
42
0
VERTEX
8
OBJECT000
10
0
20
0
30
0
70
128
71
27
72
26
73
-44
0
VERTEX
8
OBJECT000
10
0
20
0
30
0
70
128
71
-27
72
44
73
43
0
VERTEX
8
OBJECT000
10
0
20
0
30
0
70
128
71
26
72
25
73
-45
0
VERTEX
8
OBJECT000
10
0
20
0
30
0
70
128
71
-26
72
45
73
44
0
VERTEX
8
OBJECT000
10
0
20
0
30
0
70
128
71
25
72
24
73
-46
0
VERTEX
8
OBJECT000
10
0
20
0
30
0
70
128
71
-25
72
46
73
45
0
VERTEX
8
OBJECT000
10
0
20
0
30
0
70
128
71
24
72
23
73
-47
0
VERTEX
8
OBJECT000
10
0
20
0
30
0
70
128
71
-24
72
47
73
46
0
VERTEX
8
OBJECT000
10
0
20
0
30
0
70
128
71
23
72
22
73
-48
0
VERTEX
8
OBJECT000
10
0
20
0
30
0
70
128
71
-23
72
48
73
47
0
VERTEX
8
OBJECT000
10
0
20
0
30
0
70
128
71
22
72
21
73
-49
0
VERTEX
8
OBJECT000
10
0
20
0
30
0
70
128
71
-22
72
49
73
48
0
VERTEX
8
OBJECT000
10
0
20
0
30
0
70
128
71
21
72
20
73
-50
0
VERTEX
8
OBJECT000
10
0
20
0
30
0
70
128
71
-21
72
50
73
49
0
VERTEX
8
OBJECT000
10
0
20
0
30
0
70
128
71
20
72
19
73
-51
0
VERTEX
8
OBJECT000
10
0
20
0
30
0
70
128
71
-20
72
51
73
50
0
VERTEX
8
OBJECT000
10
0
20
0
30
0
70
128
71
19
72
18
73
-52
0
VERTEX
8
OBJECT000
10
0
20
0
30
0
70
128
71
-19
72
52
73
51
0
VERTEX
8
OBJECT000
10
0
20
0
30
0
70
128
71
18
72
17
73
-53
0
VERTEX
8
OBJECT000
10
0
20
0
30
0
70
128
71
-18
72
53
73
52
0
VERTEX
8
OBJECT000
10
0
20
0
30
0
70
128
71
17
72
16
73
-54
0
VERTEX
8
OBJECT000
10
0
20
0
30
0
70
128
71
-17
72
54
73
53
0
VERTEX
8
OBJECT000
10
0
20
0
30
0
70
128
71
16
72
15
73
-55
0
VERTEX
8
OBJECT000
10
0
20
0
30
0
70
128
71
-16
72
55
73
54
0
VERTEX
8
OBJECT000
10
0
20
0
30
0
70
128
71
15
72
14
73
-56
0
VERTEX
8
OBJECT000
10
0
20
0
30
0
70
128
71
-15
72
56
73
55
0
VERTEX
8
OBJECT000
10
0
20
0
30
0
70
128
71
14
72
13
73
-57
0
VERTEX
8
OBJECT000
10
0
20
0
30
0
70
128
71
-14
72
57
73
56
0
VERTEX
8
OBJECT000
10
0
20
0
30
0
70
128
71
13
72
12
73
-58
0
VERTEX
8
OBJECT000
10
0
20
0
30
0
70
128
71
-13
72
58
73
57
0
VERTEX
8
OBJECT000
10
0
20
0
30
0
70
128
71
12
72
11
73
-59
0
VERTEX
8
OBJECT000
10
0
20
0
30
0
70
128
71
-12
72
59
73
58
0
VERTEX
8
OBJECT000
10
0
20
0
30
0
70
128
71
11
72
10
73
-60
0
VERTEX
8
OBJECT000
10
0
20
0
30
0
70
128
71
-11
72
60
73
59
0
VERTEX
8
OBJECT000
10
0
20
0
30
0
70
128
71
10
72
9
73
-61
0
VERTEX
8
OBJECT000
10
0
20
0
30
0
70
128
71
-10
72
61
73
60
0
VERTEX
8
OBJECT000
10
0
20
0
30
0
70
128
71
9
72
8
73
-62
0
VERTEX
8
OBJECT000
10
0
20
0
30
0
70
128
71
-9
72
62
73
61
0
VERTEX
8
OBJECT000
10
0
20
0
30
0
70
128
71
8
72
7
73
-63
0
VERTEX
8
OBJECT000
10
0
20
0
30
0
70
128
71
-8
72
63
73
62
0
VERTEX
8
OBJECT000
10
0
20
0
30
0
70
128
71
7
72
6
73
-64
0
VERTEX
8
OBJECT000
10
0
20
0
30
0
70
128
71
-7
72
64
73
63
0
VERTEX
8
OBJECT000
10
0
20
0
30
0
70
128
71
6
72
5
73
-33
0
VERTEX
8
OBJECT000
10
0
20
0
30
0
70
128
71
-6
72
33
73
64
0
VERTEX
8
OBJECT000
10
0
20
0
30
0
70
128
71
34
72
35
73
-36
0
VERTEX
8
OBJECT000
10
0
20
0
30
0
70
128
71
-34
72
36
73
-37
0
VERTEX
8
OBJECT000
10
0
20
0
30
0
70
128
71
-34
72
37
73
-38
0
VERTEX
8
OBJECT000
10
0
20
0
30
0
70
128
71
-34
72
38
73
-39
0
VERTEX
8
OBJECT000
10
0
20
0
30
0
70
128
71
-34
72
39
73
-40
0
VERTEX
8
OBJECT000
10
0
20
0
30
0
70
128
71
-34
72
40
73
-41
0
VERTEX
8
OBJECT000
10
0
20
0
30
0
70
128
71
-34
72
41
73
-42
0
VERTEX
8
OBJECT000
10
0
20
0
30
0
70
128
71
-34
72
42
73
-43
0
VERTEX
8
OBJECT000
10
0
20
0
30
0
70
128
71
-34
72
43
73
-44
0
VERTEX
8
OBJECT000
10
0
20
0
30
0
70
128
71
-34
72
44
73
-45
0
VERTEX
8
OBJECT000
10
0
20
0
30
0
70
128
71
-34
72
45
73
-46
0
VERTEX
8
OBJECT000
10
0
20
0
30
0
70
128
71
-34
72
46
73
-47
0
VERTEX
8
OBJECT000
10
0
20
0
30
0
70
128
71
-34
72
47
73
-48
0
VERTEX
8
OBJECT000
10
0
20
0
30
0
70
128
71
-34
72
48
73
-49
0
VERTEX
8
OBJECT000
10
0
20
0
30
0
70
128
71
-34
72
49
73
-50
0
VERTEX
8
OBJECT000
10
0
20
0
30
0
70
128
71
-34
72
50
73
-51
0
VERTEX
8
OBJECT000
10
0
20
0
30
0
70
128
71
-34
72
51
73
-52
0
VERTEX
8
OBJECT000
10
0
20
0
30
0
70
128
71
-34
72
52
73
-53
0
VERTEX
8
OBJECT000
10
0
20
0
30
0
70
128
71
-34
72
53
73
-54
0
VERTEX
8
OBJECT000
10
0
20
0
30
0
70
128
71
-34
72
54
73
-55
0
VERTEX
8
OBJECT000
10
0
20
0
30
0
70
128
71
-34
72
55
73
-56
0
VERTEX
8
OBJECT000
10
0
20
0
30
0
70
128
71
-34
72
56
73
-57
0
VERTEX
8
OBJECT000
10
0
20
0
30
0
70
128
71
-34
72
57
73
-58
0
VERTEX
8
OBJECT000
10
0
20
0
30
0
70
128
71
-34
72
58
73
-59
0
VERTEX
8
OBJECT000
10
0
20
0
30
0
70
128
71
-34
72
59
73
-60
0
VERTEX
8
OBJECT000
10
0
20
0
30
0
70
128
71
-34
72
60
73
-61
0
VERTEX
8
OBJECT000
10
0
20
0
30
0
70
128
71
-34
72
61
73
-62
0
VERTEX
8
OBJECT000
10
0
20
0
30
0
70
128
71
-34
72
62
73
-63
0
VERTEX
8
OBJECT000
10
0
20
0
30
0
70
128
71
-34
72
63
73
-64
0
VERTEX
8
OBJECT000
10
0
20
0
30
0
70
128
71
-34
72
64
73
33
0
SEQEND
8
OBJECT000
0
POLYLINE
8
OBJECT001
66
1
70
64
71
20
72
36
62
50
0
VERTEX
8
OBJECT001
10
-0.000002
20
47.999996
30
48.000000
70
192
0
VERTEX
8
OBJECT001
10
-0.000002
20
47.999996
30
-36.244896
70
192
0
VERTEX
8
OBJECT001
10
9.599998
20
46.799999
30
-36.244896
70
192
0
VERTEX
8
OBJECT001
10
9.599998
20
46.799999
30
48.000000
70
192
0
VERTEX
8
OBJECT001
10
18.000000
20
44.399998
30
-36.244896
70
192
0
VERTEX
8
OBJECT001
10
18.000000
20
44.399998
30
48.000000
70
192
0
VERTEX
8
OBJECT001
10
26.400000
20
39.599998
30
-36.244896
70
192
0
VERTEX
8
OBJECT001
10
26.400000
20
39.599998
30
48.000000
70
192
0
VERTEX
8
OBJECT001
10
33.599998
20
33.599998
30
-36.244896
70
192
0
VERTEX
8
OBJECT001
10
33.599998
20
33.599998
30
48.000000
70
192
0
VERTEX
8
OBJECT001
10
37.504124
20
28.912132
30
-36.244896
70
192
0
VERTEX
8
OBJECT001
10
37.504124
20
28.912132
30
48.000000
70
192
0
VERTEX
8
OBJECT001
10
-29.211809
20
37.251049
30
48.000000
70
192
0
VERTEX
8
OBJECT001
10
-29.211809
20
37.251049
30
-36.244896
70
192
0
VERTEX
8
OBJECT001
10
-26.353275
20
39.626698
30
-36.244896
70
192
0
VERTEX
8
OBJECT001
10
-26.353275
20
39.626698
30
48.000000
70
192
0
VERTEX
8
OBJECT001
10
-18.000004
20
44.399998
30
-36.244896
70
192
0
VERTEX
8
OBJECT001
10
-18.000004
20
44.399998
30
48.000000
70
192
0
VERTEX
8
OBJECT001
10
-9.600003
20
46.799999
30
-36.244896
70
192
0
VERTEX
8
OBJECT001
10
-9.600003
20
46.799999
30
48.000000
70
192
0
VERTEX
8
OBJECT001
10
0
20
0
30
0
70
128
71
2
72
3
73
-4
0
VERTEX
8
OBJECT001
10
0
20
0
30
0
70
128
71
-2
72
4
73
1
0
VERTEX
8
OBJECT001
10
0
20
0
30
0
70
128
71
3
72
5
73
-6
0
VERTEX
8
OBJECT001
10
0
20
0
30
0
70
128
71
-3
72
6
73
4
0
VERTEX
8
OBJECT001
10
0
20
0
30
0
70
128
71
5
72
7
73
-8
0
VERTEX
8
OBJECT001
10
0
20
0
30
0
70
128
71
-5
72
8
73
6
0
VERTEX
8
OBJECT001
10
0
20
0
30
0
70
128
71
7
72
9
73
-10
0
VERTEX
8
OBJECT001
10
0
20
0
30
0
70
128
71
-7
72
10
73
8
0
VERTEX
8
OBJECT001
10
0
20
0
30
0
70
128
71
9
72
11
73
-12
0
VERTEX
8
OBJECT001
10
0
20
0
30
0
70
128
71
-9
72
12
73
10
0
VERTEX
8
OBJECT001
10
0
20
0
30
0
70
128
71
14
72
15
73
-16
0
VERTEX
8
OBJECT001
10
0
20
0
30
0
70
128
71
-14
72
16
73
13
0
VERTEX
8
OBJECT001
10
0
20
0
30
0
70
128
71
15
72
17
73
-18
0
VERTEX
8
OBJECT001
10
0
20
0
30
0
70
128
71
-15
72
18
73
16
0
VERTEX
8
OBJECT001
10
0
20
0
30
0
70
128
71
17
72
19
73
-20
0
VERTEX
8
OBJECT001
10
0
20
0
30
0
70
128
71
-17
72
20
73
18
0
VERTEX
8
OBJECT001
10
0
20
0
30
0
70
128
71
19
72
2
73
-1
0
VERTEX
8
OBJECT001
10
0
20
0
30
0
70
128
71
-19
72
1
73
20
0
VERTEX
8
OBJECT001
10
0
20
0
30
0
70
128
71
7
72
5
73
-3
0
VERTEX
8
OBJECT001
10
0
20
0
30
0
70
128
71
-7
72
3
73
-2
0
VERTEX
8
OBJECT001
10
0
20
0
30
0
70
128
71
-7
72
2
73
-19
0
VERTEX
8
OBJECT001
10
0
20
0
30
0
70
128
71
-7
72
19
73
-17
0
VERTEX
8
OBJECT001
10
0
20
0
30
0
70
128
71
-7
72
17
73
-15
0
VERTEX
8
OBJECT001
10
0
20
0
30
0
70
128
71
-7
72
15
73
-14
0
VERTEX
8
OBJECT001
10
0
20
0
30
0
70
128
71
-7
72
14
73
-11
0
VERTEX
8
OBJECT001
10
0
20
0
30
0
70
128
71
-7
72
11
73
9
0
VERTEX
8
OBJECT001
10
0
20
0
30
0
70
128
71
11
72
14
73
-13
0
VERTEX
8
OBJECT001
10
0
20
0
30
0
70
128
71
-11
72
13
73
12
0
VERTEX
8
OBJECT001
10
0
20
0
30
0
70
128
71
16
72
18
73
-20
0
VERTEX
8
OBJECT001
10
0
20
0
30
0
70
128
71
-16
72
20
73
-1
0
VERTEX
8
OBJECT001
10
0
20
0
30
0
70
128
71
-16
72
1
73
-4
0
VERTEX
8
OBJECT001
10
0
20
0
30
0
70
128
71
-16
72
4
73
-6
0
VERTEX
8
OBJECT001
10
0
20
0
30
0
70
128
71
-16
72
6
73
-8
0
VERTEX
8
OBJECT001
10
0
20
0
30
0
70
128
71
-16
72
8
73
-10
0
VERTEX
8
OBJECT001
10
0
20
0
30
0
70
128
71
-16
72
10
73
-12
0
VERTEX
8
OBJECT001
10
0
20
0
30
0
70
128
71
-16
72
12
73
13
0
SEQEND
8
OBJECT001
0
POLYLINE
8
OBJECT002
66
1
70
64
71
8
72
12
62
50
0
VERTEX
8
OBJECT002
10
37.507763
20
28.910192
30
48.000000
70
192
0
VERTEX
8
OBJECT002
10
37.507763
20
28.910192
30
-36.244896
70
192
0
VERTEX
8
OBJECT002
10
39.599998
20
26.400000
30
-36.244896
70
192
0
VERTEX
8
OBJECT002
10
39.599998
20
26.400000
30
48.000000
70
192
0
VERTEX
8
OBJECT002
10
41.671947
20
22.772497
30
-36.244896
70
192
0
VERTEX
8
OBJECT002
10
41.671947
20
22.772497
30
48.000000
70
192
0
VERTEX
8
OBJECT002
10
6.729344
20
32.757496
30
-36.244896
70
192
0
VERTEX
8
OBJECT002
10
6.728703
20
32.757679
30
48.000000
70
192
0
VERTEX
8
OBJECT002
10
0
20
0
30
0
70
128
71
2
72
3
73
-4
0
VERTEX
8
OBJECT002
10
0
20
0
30
0
70
128
71
-2
72
4
73
1
0
VERTEX
8
OBJECT002
10
0
20
0
30
0
70
128
71
3
72
5
73
-6
0
VERTEX
8
OBJECT002
10
0
20
0
30
0
70
128
71
-3
72
6
73
4
0
VERTEX
8
OBJECT002
10
0
20
0
30
0
70
128
71
3
72
2
73
-7
0
VERTEX
8
OBJECT002
10
0
20
0
30
0
70
128
71
-3
72
7
73
5
0
VERTEX
8
OBJECT002
10
0
20
0
30
0
70
128
71
7
72
2
73
-1
0
VERTEX
8
OBJECT002
10
0
20
0
30
0
70
128
71
-7
72
1
73
8
0
VERTEX
8
OBJECT002
10
0
20
0
30
0
70
128
71
5
72
7
73
-8
0
VERTEX
8
OBJECT002
10
0
20
0
30
0
70
128
71
-5
72
8
73
6
0
VERTEX
8
OBJECT002
10
0
20
0
30
0
70
128
71
1
72
4
73
-6
0
VERTEX
8
OBJECT002
10
0
20
0
30
0
70
128
71
-1
72
6
73
8
0
SEQEND
8
OBJECT002
0
POLYLINE
8
OBJECT003
66
1
70
64
71
8
72
12
62
50
0
VERTEX
8
OBJECT003
10
41.669533
20
22.776817
30
48.000000
70
192
0
VERTEX
8
OBJECT003
10
41.669533
20
22.776817
30
-36.244896
70
192
0
VERTEX
8
OBJECT003
10
44.400005
20
17.999998
30
-36.244896
70
192
0
VERTEX
8
OBJECT003
10
44.400005
20
17.999998
30
48.000000
70
192
0
VERTEX
8
OBJECT003
10
46.138279
20
11.915587
30
-36.244896
70
192
0
VERTEX
8
OBJECT003
10
46.138279
20
11.915587
30
48.000000
70
192
0
VERTEX
8
OBJECT003
10
12.598772
20
31.080687
30
-36.244896
70
192
0
VERTEX
8
OBJECT003
10
12.599010
20
31.080542
30
48.000000
70
192
0
VERTEX
8
OBJECT003
10
0
20
0
30
0
70
128
71
2
72
3
73
-4
0
VERTEX
8
OBJECT003
10
0
20
0
30
0
70
128
71
-2
72
4
73
1
0
VERTEX
8
OBJECT003
10
0
20
0
30
0
70
128
71
3
72
5
73
-6
0
VERTEX
8
OBJECT003
10
0
20
0
30
0
70
128
71
-3
72
6
73
4
0
VERTEX
8
OBJECT003
10
0
20
0
30
0
70
128
71
3
72
2
73
-7
0
VERTEX
8
OBJECT003
10
0
20
0
30
0
70
128
71
-3
72
7
73
5
0
VERTEX
8
OBJECT003
10
0
20
0
30
0
70
128
71
7
72
2
73
-1
0
VERTEX
8
OBJECT003
10
0
20
0
30
0
70
128
71
-7
72
1
73
8
0
VERTEX
8
OBJECT003
10
0
20
0
30
0
70
128
71
5
72
7
73
-8
0
VERTEX
8
OBJECT003
10
0
20
0
30
0
70
128
71
-5
72
8
73
6
0
VERTEX
8
OBJECT003
10
0
20
0
30
0
70
128
71
1
72
4
73
-6
0
VERTEX
8
OBJECT003
10
0
20
0
30
0
70
128
71
-1
72
6
73
8
0
SEQEND
8
OBJECT003
0
POLYLINE
8
OBJECT004
66
1
70
64
71
8
72
12
62
50
0
VERTEX
8
OBJECT004
10
22.772644
20
-41.676929
30
48.000000
70
192
0
VERTEX
8
OBJECT004
10
22.772644
20
-41.676929
30
-36.244896
70
192
0
VERTEX
8
OBJECT004
10
18.000000
20
-44.400002
30
-36.244896
70
192
0
VERTEX
8
OBJECT004
10
18.000000
20
-44.400002
30
48.000000
70
192
0
VERTEX
8
OBJECT004
10
11.916851
20
-46.137306
30
-36.244896
70
192
0
VERTEX
8
OBJECT004
10
11.916851
20
-46.137306
30
48.000000
70
192
0
VERTEX
8
OBJECT004
10
31.078640
20
-12.602966
30
-36.244896
70
192
0
VERTEX
8
OBJECT004
10
31.079315
20
-12.601795
30
48.000000
70
192
0
VERTEX
8
OBJECT004
10
0
20
0
30
0
70
128
71
2
72
3
73
-4
0
VERTEX
8
OBJECT004
10
0
20
0
30
0
70
128
71
-2
72
4
73
1
0
VERTEX
8
OBJECT004
10
0
20
0
30
0
70
128
71
3
72
5
73
-6
0
VERTEX
8
OBJECT004
10
0
20
0
30
0
70
128
71
-3
72
6
73
4
0
VERTEX
8
OBJECT004
10
0
20
0
30
0
70
128
71
3
72
2
73
-7
0
VERTEX
8
OBJECT004
10
0
20
0
30
0
70
128
71
-3
72
7
73
5
0
VERTEX
8
OBJECT004
10
0
20
0
30
0
70
128
71
7
72
2
73
-1
0
VERTEX
8
OBJECT004
10
0
20
0
30
0
70
128
71
-7
72
1
73
8
0
VERTEX
8
OBJECT004
10
0
20
0
30
0
70
128
71
5
72
7
73
-8
0
VERTEX
8
OBJECT004
10
0
20
0
30
0
70
128
71
-5
72
8
73
6
0
VERTEX
8
OBJECT004
10
0
20
0
30
0
70
128
71
4
72
6
73
-8
0
VERTEX
8
OBJECT004
10
0
20
0
30
0
70
128
71
-4
72
8
73
1
0
SEQEND
8
OBJECT004
0
POLYLINE
8
OBJECT005
66
1
70
64
71
8
72
12
62
50
0
VERTEX
8
OBJECT005
10
11.914507
20
-46.138988
30
48.000000
70
192
0
VERTEX
8
OBJECT005
10
11.914507
20
-46.138988
30
-36.244896
70
192
0
VERTEX
8
OBJECT005
10
9.599998
20
-46.799999
30
-36.244896
70
192
0
VERTEX
8
OBJECT005
10
9.599998
20
-46.799999
30
48.000000
70
192
0
VERTEX
8
OBJECT005
10
3.483580
20
-47.564392
30
-36.244896
70
192
0
VERTEX
8
OBJECT005
10
3.483580
20
-47.564392
30
48.000000
70
192
0
VERTEX
8
OBJECT005
10
27.717152
20
-18.485596
30
-36.244896
70
192
0
VERTEX
8
OBJECT005
10
27.716200
20
-18.486769
30
48.000000
70
192
0
VERTEX
8
OBJECT005
10
0
20
0
30
0
70
128
71
2
72
3
73
-4
0
VERTEX
8
OBJECT005
10
0
20
0
30
0
70
128
71
-2
72
4
73
1
0
VERTEX
8
OBJECT005
10
0
20
0
30
0
70
128
71
3
72
5
73
-6
0
VERTEX
8
OBJECT005
10
0
20
0
30
0
70
128
71
-3
72
6
73
4
0
VERTEX
8
OBJECT005
10
0
20
0
30
0
70
128
71
3
72
2
73
-7
0
VERTEX
8
OBJECT005
10
0
20
0
30
0
70
128
71
-3
72
7
73
5
0
VERTEX
8
OBJECT005
10
0
20
0
30
0
70
128
71
7
72
2
73
-1
0
VERTEX
8
OBJECT005
10
0
20
0
30
0
70
128
71
-7
72
1
73
8
0
VERTEX
8
OBJECT005
10
0
20
0
30
0
70
128
71
5
72
7
73
-8
0
VERTEX
8
OBJECT005
10
0
20
0
30
0
70
128
71
-5
72
8
73
6
0
VERTEX
8
OBJECT005
10
0
20
0
30
0
70
128
71
4
72
6
73
-8
0
VERTEX
8
OBJECT005
10
0
20
0
30
0
70
128
71
-4
72
8
73
1
0
SEQEND
8
OBJECT005
0
POLYLINE
8
OBJECT006
66
1
70
64
71
8
72
12
62
50
0
VERTEX
8
OBJECT006
10
3.485978
20
-47.563217
30
48.000000
70
192
0
VERTEX
8
OBJECT006
10
3.485978
20
-47.563217
30
-36.244896
70
192
0
VERTEX
8
OBJECT006
10
-0.000002
20
-47.999996
30
-36.244896
70
192
0
VERTEX
8
OBJECT006
10
-0.000002
20
-47.999996
30
48.000000
70
192
0
VERTEX
8
OBJECT006
10
-5.093850
20
-47.363888
30
-36.244896
70
192
0
VERTEX
8
OBJECT006
10
-5.093850
20
-47.363888
30
48.000000
70
192
0
VERTEX
8
OBJECT006
10
23.527000
20
-23.513525
30
-36.244896
70
192
0
VERTEX
8
OBJECT006
10
23.527000
20
-23.513525
30
48.000000
70
192
0
VERTEX
8
OBJECT006
10
0
20
0
30
0
70
128
71
2
72
3
73
-4
0
VERTEX
8
OBJECT006
10
0
20
0
30
0
70
128
71
-2
72
4
73
1
0
VERTEX
8
OBJECT006
10
0
20
0
30
0
70
128
71
3
72
5
73
-6
0
VERTEX
8
OBJECT006
10
0
20
0
30
0
70
128
71
-3
72
6
73
4
0
VERTEX
8
OBJECT006
10
0
20
0
30
0
70
128
71
3
72
2
73
-7
0
VERTEX
8
OBJECT006
10
0
20
0
30
0
70
128
71
-3
72
7
73
5
0
VERTEX
8
OBJECT006
10
0
20
0
30
0
70
128
71
7
72
2
73
-1
0
VERTEX
8
OBJECT006
10
0
20
0
30
0
70
128
71
-7
72
1
73
8
0
VERTEX
8
OBJECT006
10
0
20
0
30
0
70
128
71
5
72
7
73
-8
0
VERTEX
8
OBJECT006
10
0
20
0
30
0
70
128
71
-5
72
8
73
6
0
VERTEX
8
OBJECT006
10
0
20
0
30
0
70
128
71
4
72
6
73
-8
0
VERTEX
8
OBJECT006
10
0
20
0
30
0
70
128
71
-4
72
8
73
1
0
SEQEND
8
OBJECT006
0
POLYLINE
8
OBJECT007
66
1
70
64
71
8
72
12
62
50
0
VERTEX
8
OBJECT007
10
-5.095993
20
-47.363857
30
48.000000
70
192
0
VERTEX
8
OBJECT007
10
-5.095993
20
-47.363857
30
-36.244896
70
192
0
VERTEX
8
OBJECT007
10
-9.600003
20
-46.799999
30
-36.244896
70
192
0
VERTEX
8
OBJECT007
10
-9.600003
20
-46.799999
30
48.000000
70
192
0
VERTEX
8
OBJECT007
10
-13.139707
20
-45.788269
30
-36.244896
70
192
0
VERTEX
8
OBJECT007
10
-13.139707
20
-45.788269
30
48.000000
70
192
0
VERTEX
8
OBJECT007
10
18.469519
20
-27.726158
30
-36.244896
70
192
0
VERTEX
8
OBJECT007
10
18.465876
20
-27.728247
30
48.000000
70
192
0
VERTEX
8
OBJECT007
10
0
20
0
30
0
70
128
71
2
72
3
73
-4
0
VERTEX
8
OBJECT007
10
0
20
0
30
0
70
128
71
-2
72
4
73
1
0
VERTEX
8
OBJECT007
10
0
20
0
30
0
70
128
71
3
72
5
73
-6
0
VERTEX
8
OBJECT007
10
0
20
0
30
0
70
128
71
-3
72
6
73
4
0
VERTEX
8
OBJECT007
10
0
20
0
30
0
70
128
71
3
72
2
73
-7
0
VERTEX
8
OBJECT007
10
0
20
0
30
0
70
128
71
-3
72
7
73
5
0
VERTEX
8
OBJECT007
10
0
20
0
30
0
70
128
71
7
72
2
73
-1
0
VERTEX
8
OBJECT007
10
0
20
0
30
0
70
128
71
-7
72
1
73
8
0
VERTEX
8
OBJECT007
10
0
20
0
30
0
70
128
71
5
72
7
73
-8
0
VERTEX
8
OBJECT007
10
0
20
0
30
0
70
128
71
-5
72
8
73
6
0
VERTEX
8
OBJECT007
10
0
20
0
30
0
70
128
71
1
72
4
73
-6
0
VERTEX
8
OBJECT007
10
0
20
0
30
0
70
128
71
-1
72
6
73
8
0
SEQEND
8
OBJECT007
0
POLYLINE
8
OBJECT008
66
1
70
64
71
8
72
12
62
50
0
VERTEX
8
OBJECT008
10
-13.139615
20
-45.788193
30
48.000000
70
192
0
VERTEX
8
OBJECT008
10
-13.139615
20
-45.788193
30
-36.244896
70
192
0
VERTEX
8
OBJECT008
10
-18.000004
20
-44.400002
30
-36.244896
70
192
0
VERTEX
8
OBJECT008
10
-18.000004
20
-44.400002
30
48.000000
70
192
0
VERTEX
8
OBJECT008
10
-23.344669
20
-41.348694
30
-36.244896
70
192
0
VERTEX
8
OBJECT008
10
-23.344669
20
-41.348694
30
48.000000
70
192
0
VERTEX
8
OBJECT008
10
12.600695
20
-31.080101
30
-36.244896
70
192
0
VERTEX
8
OBJECT008
10
12.596831
20
-31.081238
30
48.000000
70
192
0
VERTEX
8
OBJECT008
10
0
20
0
30
0
70
128
71
2
72
3
73
-4
0
VERTEX
8
OBJECT008
10
0
20
0
30
0
70
128
71
-2
72
4
73
1
0
VERTEX
8
OBJECT008
10
0
20
0
30
0
70
128
71
3
72
5
73
-6
0
VERTEX
8
OBJECT008
10
0
20
0
30
0
70
128
71
-3
72
6
73
4
0
VERTEX
8
OBJECT008
10
0
20
0
30
0
70
128
71
3
72
2
73
-7
0
VERTEX
8
OBJECT008
10
0
20
0
30
0
70
128
71
-3
72
7
73
5
0
VERTEX
8
OBJECT008
10
0
20
0
30
0
70
128
71
7
72
2
73
-1
0
VERTEX
8
OBJECT008
10
0
20
0
30
0
70
128
71
-7
72
1
73
8
0
VERTEX
8
OBJECT008
10
0
20
0
30
0
70
128
71
5
72
7
73
-8
0
VERTEX
8
OBJECT008
10
0
20
0
30
0
70
128
71
-5
72
8
73
6
0
VERTEX
8
OBJECT008
10
0
20
0
30
0
70
128
71
1
72
4
73
-6
0
VERTEX
8
OBJECT008
10
0
20
0
30
0
70
128
71
-1
72
6
73
8
0
SEQEND
8
OBJECT008
0
POLYLINE
8
OBJECT009
66
1
70
64
71
8
72
12
62
50
0
VERTEX
8
OBJECT009
10
-23.342949
20
-41.349426
30
48.000000
70
192
0
VERTEX
8
OBJECT009
10
-23.342949
20
-41.349426
30
-36.244896
70
192
0
VERTEX
8
OBJECT009
10
-26.400005
20
-39.599998
30
-36.244896
70
192
0
VERTEX
8
OBJECT009
10
-26.400005
20
-39.599998
30
48.000000
70
192
0
VERTEX
8
OBJECT009
10
-29.214811
20
-37.251564
30
-36.244896
70
192
0
VERTEX
8
OBJECT009
10
-29.214811
20
-37.251564
30
48.000000
70
192
0
VERTEX
8
OBJECT009
10
6.720482
20
-32.760387
30
-36.244896
70
192
0
VERTEX
8
OBJECT009
10
6.719640
20
-32.760494
30
48.000000
70
192
0
VERTEX
8
OBJECT009
10
0
20
0
30
0
70
128
71
2
72
3
73
-4
0
VERTEX
8
OBJECT009
10
0
20
0
30
0
70
128
71
-2
72
4
73
1
0
VERTEX
8
OBJECT009
10
0
20
0
30
0
70
128
71
3
72
5
73
-6
0
VERTEX
8
OBJECT009
10
0
20
0
30
0
70
128
71
-3
72
6
73
4
0
VERTEX
8
OBJECT009
10
0
20
0
30
0
70
128
71
3
72
2
73
-7
0
VERTEX
8
OBJECT009
10
0
20
0
30
0
70
128
71
-3
72
7
73
5
0
VERTEX
8
OBJECT009
10
0
20
0
30
0
70
128
71
7
72
2
73
-1
0
VERTEX
8
OBJECT009
10
0
20
0
30
0
70
128
71
-7
72
1
73
8
0
VERTEX
8
OBJECT009
10
0
20
0
30
0
70
128
71
5
72
7
73
-8
0
VERTEX
8
OBJECT009
10
0
20
0
30
0
70
128
71
-5
72
8
73
6
0
VERTEX
8
OBJECT009
10
0
20
0
30
0
70
128
71
1
72
4
73
-6
0
VERTEX
8
OBJECT009
10
0
20
0
30
0
70
128
71
-1
72
6
73
8
0
SEQEND
8
OBJECT009
0
POLYLINE
8
OBJECT010
66
1
70
64
71
8
72
12
62
50
0
VERTEX
8
OBJECT010
10
-29.217411
20
-37.251564
30
48.000000
70
192
0
VERTEX
8
OBJECT010
10
-29.217411
20
-37.251564
30
-36.244896
70
192
0
VERTEX
8
OBJECT010
10
-33.631664
20
-33.575649
30
-36.244896
70
192
0
VERTEX
8
OBJECT010
10
-33.631664
20
-33.575649
30
48.000000
70
192
0
VERTEX
8
OBJECT010
10
-37.507805
20
-28.912096
30
-36.244896
70
192
0
VERTEX
8
OBJECT010
10
-37.507805
20
-28.912096
30
48.000000
70
192
0
VERTEX
8
OBJECT010
10
-0.000002
20
-33.599998
30
-36.244896
70
192
0
VERTEX
8
OBJECT010
10
-0.000002
20
-33.599998
30
48.000000
70
192
0
VERTEX
8
OBJECT010
10
0
20
0
30
0
70
128
71
2
72
3
73
-4
0
VERTEX
8
OBJECT010
10
0
20
0
30
0
70
128
71
-2
72
4
73
1
0
VERTEX
8
OBJECT010
10
0
20
0
30
0
70
128
71
3
72
5
73
-6
0
VERTEX
8
OBJECT010
10
0
20
0
30
0
70
128
71
-3
72
6
73
4
0
VERTEX
8
OBJECT010
10
0
20
0
30
0
70
128
71
3
72
2
73
-7
0
VERTEX
8
OBJECT010
10
0
20
0
30
0
70
128
71
-3
72
7
73
5
0
VERTEX
8
OBJECT010
10
0
20
0
30
0
70
128
71
7
72
2
73
-1
0
VERTEX
8
OBJECT010
10
0
20
0
30
0
70
128
71
-7
72
1
73
8
0
VERTEX
8
OBJECT010
10
0
20
0
30
0
70
128
71
5
72
7
73
-8
0
VERTEX
8
OBJECT010
10
0
20
0
30
0
70
128
71
-5
72
8
73
6
0
VERTEX
8
OBJECT010
10
0
20
0
30
0
70
128
71
1
72
4
73
-6
0
VERTEX
8
OBJECT010
10
0
20
0
30
0
70
128
71
-1
72
6
73
8
0
SEQEND
8
OBJECT010
0
POLYLINE
8
OBJECT011
66
1
70
64
71
8
72
12
62
50
0
VERTEX
8
OBJECT011
10
-37.508503
20
-28.910706
30
48.000000
70
192
0
VERTEX
8
OBJECT011
10
-37.508503
20
-28.910706
30
-36.244896
70
192
0
VERTEX
8
OBJECT011
10
-39.582172
20
-26.431458
30
-36.244896
70
192
0
VERTEX
8
OBJECT011
10
-39.582172
20
-26.431458
30
48.000000
70
192
0
VERTEX
8
OBJECT011
10
-41.672321
20
-22.773302
30
-36.244896
70
192
0
VERTEX
8
OBJECT011
10
-41.672321
20
-22.773302
30
48.000000
70
192
0
VERTEX
8
OBJECT011
10
-6.720212
20
-32.760277
30
-36.244896
70
192
0
VERTEX
8
OBJECT011
10
-6.719900
20
-32.760353
30
48.000000
70
192
0
VERTEX
8
OBJECT011
10
0
20
0
30
0
70
128
71
2
72
3
73
-4
0
VERTEX
8
OBJECT011
10
0
20
0
30
0
70
128
71
-2
72
4
73
1
0
VERTEX
8
OBJECT011
10
0
20
0
30
0
70
128
71
3
72
5
73
-6
0
VERTEX
8
OBJECT011
10
0
20
0
30
0
70
128
71
-3
72
6
73
4
0
VERTEX
8
OBJECT011
10
0
20
0
30
0
70
128
71
3
72
2
73
-7
0
VERTEX
8
OBJECT011
10
0
20
0
30
0
70
128
71
-3
72
7
73
5
0
VERTEX
8
OBJECT011
10
0
20
0
30
0
70
128
71
7
72
2
73
-1
0
VERTEX
8
OBJECT011
10
0
20
0
30
0
70
128
71
-7
72
1
73
8
0
VERTEX
8
OBJECT011
10
0
20
0
30
0
70
128
71
5
72
7
73
-8
0
VERTEX
8
OBJECT011
10
0
20
0
30
0
70
128
71
-5
72
8
73
6
0
VERTEX
8
OBJECT011
10
0
20
0
30
0
70
128
71
1
72
4
73
-6
0
VERTEX
8
OBJECT011
10
0
20
0
30
0
70
128
71
-1
72
6
73
8
0
SEQEND
8
OBJECT011
0
POLYLINE
8
OBJECT012
66
1
70
64
71
8
72
12
62
50
0
VERTEX
8
OBJECT012
10
-41.667229
20
-22.775610
30
48.000000
70
192
0
VERTEX
8
OBJECT012
10
-41.667229
20
-22.775610
30
-36.244896
70
192
0
VERTEX
8
OBJECT012
10
-44.400009
20
-18.000000
30
-36.244896
70
192
0
VERTEX
8
OBJECT012
10
-44.400009
20
-18.000000
30
48.000000
70
192
0
VERTEX
8
OBJECT012
10
-46.141300
20
-11.910974
30
-36.244896
70
192
0
VERTEX
8
OBJECT012
10
-46.141300
20
-11.910974
30
48.000000
70
192
0
VERTEX
8
OBJECT012
10
-12.592257
20
-31.082190
30
-36.244896
70
192
0
VERTEX
8
OBJECT012
10
-12.590170
20
-31.083397
30
48.000000
70
192
0
VERTEX
8
OBJECT012
10
0
20
0
30
0
70
128
71
2
72
3
73
-4
0
VERTEX
8
OBJECT012
10
0
20
0
30
0
70
128
71
-2
72
4
73
1
0
VERTEX
8
OBJECT012
10
0
20
0
30
0
70
128
71
3
72
5
73
-6
0
VERTEX
8
OBJECT012
10
0
20
0
30
0
70
128
71
-3
72
6
73
4
0
VERTEX
8
OBJECT012
10
0
20
0
30
0
70
128
71
3
72
2
73
-7
0
VERTEX
8
OBJECT012
10
0
20
0
30
0
70
128
71
-3
72
7
73
5
0
VERTEX
8
OBJECT012
10
0
20
0
30
0
70
128
71
7
72
2
73
-1
0
VERTEX
8
OBJECT012
10
0
20
0
30
0
70
128
71
-7
72
1
73
8
0
VERTEX
8
OBJECT012
10
0
20
0
30
0
70
128
71
5
72
7
73
-8
0
VERTEX
8
OBJECT012
10
0
20
0
30
0
70
128
71
-5
72
8
73
6
0
VERTEX
8
OBJECT012
10
0
20
0
30
0
70
128
71
1
72
4
73
-6
0
VERTEX
8
OBJECT012
10
0
20
0
30
0
70
128
71
-1
72
6
73
8
0
SEQEND
8
OBJECT012
0
POLYLINE
8
OBJECT013
66
1
70
64
71
8
72
12
62
50
0
VERTEX
8
OBJECT013
10
-46.138630
20
-11.913208
30
48.000000
70
192
0
VERTEX
8
OBJECT013
10
-46.138630
20
-11.913208
30
-36.244896
70
192
0
VERTEX
8
OBJECT013
10
-46.800007
20
-9.599999
30
-36.244896
70
192
0
VERTEX
8
OBJECT013
10
-46.800007
20
-9.599999
30
48.000000
70
192
0
VERTEX
8
OBJECT013
10
-47.564949
20
-3.483179
30
-36.244896
70
192
0
VERTEX
8
OBJECT013
10
-47.564949
20
-3.483179
30
48.000000
70
192
0
VERTEX
8
OBJECT013
10
-18.483749
20
-27.717482
30
-36.244896
70
192
0
VERTEX
8
OBJECT013
10
-18.485819
20
-27.715759
30
48.000000
70
192
0
VERTEX
8
OBJECT013
10
0
20
0
30
0
70
128
71
2
72
3
73
-4
0
VERTEX
8
OBJECT013
10
0
20
0
30
0
70
128
71
-2
72
4
73
1
0
VERTEX
8
OBJECT013
10
0
20
0
30
0
70
128
71
3
72
5
73
-6
0
VERTEX
8
OBJECT013
10
0
20
0
30
0
70
128
71
-3
72
6
73
4
0
VERTEX
8
OBJECT013
10
0
20
0
30
0
70
128
71
3
72
2
73
-7
0
VERTEX
8
OBJECT013
10
0
20
0
30
0
70
128
71
-3
72
7
73
5
0
VERTEX
8
OBJECT013
10
0
20
0
30
0
70
128
71
7
72
2
73
-1
0
VERTEX
8
OBJECT013
10
0
20
0
30
0
70
128
71
-7
72
1
73
8
0
VERTEX
8
OBJECT013
10
0
20
0
30
0
70
128
71
5
72
7
73
-8
0
VERTEX
8
OBJECT013
10
0
20
0
30
0
70
128
71
-5
72
8
73
6
0
VERTEX
8
OBJECT013
10
0
20
0
30
0
70
128
71
1
72
4
73
-6
0
VERTEX
8
OBJECT013
10
0
20
0
30
0
70
128
71
-1
72
6
73
8
0
SEQEND
8
OBJECT013
0
POLYLINE
8
OBJECT014
66
1
70
64
71
8
72
12
62
50
0
VERTEX
8
OBJECT014
10
-47.564655
20
-3.482373
30
48.000000
70
192
0
VERTEX
8
OBJECT014
10
-47.564655
20
-3.482373
30
-36.244896
70
192
0
VERTEX
8
OBJECT014
10
-48.000008
20
-0.000001
30
-36.244896
70
192
0
VERTEX
8
OBJECT014
10
-48.000008
20
-0.000001
30
48.000000
70
192
0
VERTEX
8
OBJECT014
10
-47.364445
20
5.084912
30
-36.244896
70
192
0
VERTEX
8
OBJECT014
10
-47.364445
20
5.084912
30
48.000000
70
192
0
VERTEX
8
OBJECT014
10
-23.548044
20
-23.496241
30
-36.244896
70
192
0
VERTEX
8
OBJECT014
10
-23.550371
20
-23.493422
30
48.000000
70
192
0
VERTEX
8
OBJECT014
10
0
20
0
30
0
70
128
71
2
72
3
73
-4
0
VERTEX
8
OBJECT014
10
0
20
0
30
0
70
128
71
-2
72
4
73
1
0
VERTEX
8
OBJECT014
10
0
20
0
30
0
70
128
71
3
72
5
73
-6
0
VERTEX
8
OBJECT014
10
0
20
0
30
0
70
128
71
-3
72
6
73
4
0
VERTEX
8
OBJECT014
10
0
20
0
30
0
70
128
71
3
72
2
73
-7
0
VERTEX
8
OBJECT014
10
0
20
0
30
0
70
128
71
-3
72
7
73
5
0
VERTEX
8
OBJECT014
10
0
20
0
30
0
70
128
71
7
72
2
73
-1
0
VERTEX
8
OBJECT014
10
0
20
0
30
0
70
128
71
-7
72
1
73
8
0
VERTEX
8
OBJECT014
10
0
20
0
30
0
70
128
71
5
72
7
73
-8
0
VERTEX
8
OBJECT014
10
0
20
0
30
0
70
128
71
-5
72
8
73
6
0
VERTEX
8
OBJECT014
10
0
20
0
30
0
70
128
71
1
72
4
73
-6
0
VERTEX
8
OBJECT014
10
0
20
0
30
0
70
128
71
-1
72
6
73
8
0
SEQEND
8
OBJECT014
0
POLYLINE
8
OBJECT015
66
1
70
64
71
8
72
12
62
50
0
VERTEX
8
OBJECT015
10
-47.363827
20
5.085680
30
48.000000
70
192
0
VERTEX
8
OBJECT015
10
-47.363827
20
5.085680
30
-36.244896
70
192
0
VERTEX
8
OBJECT015
10
-46.800007
20
9.599999
30
-36.244896
70
192
0
VERTEX
8
OBJECT015
10
-46.800007
20
9.599999
30
48.000000
70
192
0
VERTEX
8
OBJECT015
10
-45.787949
20
13.140344
30
-36.244896
70
192
0
VERTEX
8
OBJECT015
10
-45.787949
20
13.140344
30
48.000000
70
192
0
VERTEX
8
OBJECT015
10
-27.701647
20
-18.510645
30
-36.244896
70
192
0
VERTEX
8
OBJECT015
10
-27.703405
20
-18.507568
30
48.000000
70
192
0
VERTEX
8
OBJECT015
10
0
20
0
30
0
70
128
71
2
72
3
73
-4
0
VERTEX
8
OBJECT015
10
0
20
0
30
0
70
128
71
-2
72
4
73
1
0
VERTEX
8
OBJECT015
10
0
20
0
30
0
70
128
71
3
72
5
73
-6
0
VERTEX
8
OBJECT015
10
0
20
0
30
0
70
128
71
-3
72
6
73
4
0
VERTEX
8
OBJECT015
10
0
20
0
30
0
70
128
71
3
72
2
73
-7
0
VERTEX
8
OBJECT015
10
0
20
0
30
0
70
128
71
-3
72
7
73
5
0
VERTEX
8
OBJECT015
10
0
20
0
30
0
70
128
71
7
72
2
73
-1
0
VERTEX
8
OBJECT015
10
0
20
0
30
0
70
128
71
-7
72
1
73
8
0
VERTEX
8
OBJECT015
10
0
20
0
30
0
70
128
71
5
72
7
73
-8
0
VERTEX
8
OBJECT015
10
0
20
0
30
0
70
128
71
-5
72
8
73
6
0
VERTEX
8
OBJECT015
10
0
20
0
30
0
70
128
71
1
72
4
73
-6
0
VERTEX
8
OBJECT015
10
0
20
0
30
0
70
128
71
-1
72
6
73
8
0
SEQEND
8
OBJECT015
0
POLYLINE
8
OBJECT016
66
1
70
64
71
8
72
12
62
50
0
VERTEX
8
OBJECT016
10
-45.788860
20
13.139941
30
48.000000
70
192
0
VERTEX
8
OBJECT016
10
-45.788860
20
13.139941
30
-36.244896
70
192
0
VERTEX
8
OBJECT016
10
-44.400009
20
17.999998
30
-36.244896
70
192
0
VERTEX
8
OBJECT016
10
-44.400009
20
17.999998
30
48.000000
70
192
0
VERTEX
8
OBJECT016
10
-41.348446
20
23.340050
30
-36.244896
70
192
0
VERTEX
8
OBJECT016
10
-41.348446
20
23.340050
30
48.000000
70
192
0
VERTEX
8
OBJECT016
10
-31.080767
20
-12.597985
30
-36.244896
70
192
0
VERTEX
8
OBJECT016
10
-31.082872
20
-12.590661
30
48.000000
70
192
0
VERTEX
8
OBJECT016
10
0
20
0
30
0
70
128
71
2
72
3
73
-4
0
VERTEX
8
OBJECT016
10
0
20
0
30
0
70
128
71
-2
72
4
73
1
0
VERTEX
8
OBJECT016
10
0
20
0
30
0
70
128
71
3
72
5
73
-6
0
VERTEX
8
OBJECT016
10
0
20
0
30
0
70
128
71
-3
72
6
73
4
0
VERTEX
8
OBJECT016
10
0
20
0
30
0
70
128
71
3
72
2
73
-7
0
VERTEX
8
OBJECT016
10
0
20
0
30
0
70
128
71
-3
72
7
73
5
0
VERTEX
8
OBJECT016
10
0
20
0
30
0
70
128
71
7
72
2
73
-1
0
VERTEX
8
OBJECT016
10
0
20
0
30
0
70
128
71
-7
72
1
73
8
0
VERTEX
8
OBJECT016
10
0
20
0
30
0
70
128
71
5
72
7
73
-8
0
VERTEX
8
OBJECT016
10
0
20
0
30
0
70
128
71
-5
72
8
73
6
0
VERTEX
8
OBJECT016
10
0
20
0
30
0
70
128
71
1
72
4
73
-6
0
VERTEX
8
OBJECT016
10
0
20
0
30
0
70
128
71
-1
72
6
73
8
0
SEQEND
8
OBJECT016
0
POLYLINE
8
OBJECT017
66
1
70
64
71
8
72
12
62
50
0
VERTEX
8
OBJECT017
10
-41.349506
20
23.337158
30
48.000000
70
192
0
VERTEX
8
OBJECT017
10
-41.349506
20
23.337158
30
-36.244896
70
192
0
VERTEX
8
OBJECT017
10
-39.600006
20
26.400000
30
-36.244896
70
192
0
VERTEX
8
OBJECT017
10
-39.600006
20
26.400000
30
48.000000
70
192
0
VERTEX
8
OBJECT017
10
-37.252743
20
29.219492
30
-36.244896
70
192
0
VERTEX
8
OBJECT017
10
-37.252743
20
29.219492
30
48.000000
70
192
0
VERTEX
8
OBJECT017
10
-32.758362
20
-6.730628
30
-36.244896
70
192
0
VERTEX
8
OBJECT017
10
-32.758469
20
-6.729858
30
48.000000
70
192
0
VERTEX
8
OBJECT017
10
0
20
0
30
0
70
128
71
2
72
3
73
-4
0
VERTEX
8
OBJECT017
10
0
20
0
30
0
70
128
71
-2
72
4
73
1
0
VERTEX
8
OBJECT017
10
0
20
0
30
0
70
128
71
3
72
5
73
-6
0
VERTEX
8
OBJECT017
10
0
20
0
30
0
70
128
71
-3
72
6
73
4
0
VERTEX
8
OBJECT017
10
0
20
0
30
0
70
128
71
3
72
2
73
-7
0
VERTEX
8
OBJECT017
10
0
20
0
30
0
70
128
71
-3
72
7
73
5
0
VERTEX
8
OBJECT017
10
0
20
0
30
0
70
128
71
7
72
2
73
-1
0
VERTEX
8
OBJECT017
10
0
20
0
30
0
70
128
71
-7
72
1
73
8
0
VERTEX
8
OBJECT017
10
0
20
0
30
0
70
128
71
5
72
7
73
-8
0
VERTEX
8
OBJECT017
10
0
20
0
30
0
70
128
71
-5
72
8
73
6
0
VERTEX
8
OBJECT017
10
0
20
0
30
0
70
128
71
1
72
4
73
-6
0
VERTEX
8
OBJECT017
10
0
20
0
30
0
70
128
71
-1
72
6
73
8
0
SEQEND
8
OBJECT017
0
POLYLINE
8
OBJECT018
66
1
70
64
71
10
72
16
62
50
0
VERTEX
8
OBJECT018
10
-37.252777
20
29.220886
30
48.000000
70
192
0
VERTEX
8
OBJECT018
10
-37.252777
20
29.220886
30
-36.244896
70
192
0
VERTEX
8
OBJECT018
10
-33.600006
20
33.599998
30
-36.244896
70
192
0
VERTEX
8
OBJECT018
10
-33.600006
20
33.599998
30
48.000000
70
192
0
VERTEX
8
OBJECT018
10
-29.219242
20
37.251965
30
-36.244896
70
192
0
VERTEX
8
OBJECT018
10
-29.219242
20
37.251965
30
48.000000
70
192
0
VERTEX
8
OBJECT018
10
-28.947607
20
37.218052
30
-36.244896
70
192
0
VERTEX
8
OBJECT018
10
-33.600006
20
-0.000001
30
-36.244896
70
192
0
VERTEX
8
OBJECT018
10
-28.947624
20
37.217869
30
48.000000
70
192
0
VERTEX
8
OBJECT018
10
-33.600006
20
-0.000001
30
48.000000
70
192
0
VERTEX
8
OBJECT018
10
0
20
0
30
0
70
128
71
2
72
3
73
-4
0
VERTEX
8
OBJECT018
10
0
20
0
30
0
70
128
71
-2
72
4
73
1
0
VERTEX
8
OBJECT018
10
0
20
0
30
0
70
128
71
3
72
5
73
-6
0
VERTEX
8
OBJECT018
10
0
20
0
30
0
70
128
71
-3
72
6
73
4
0
VERTEX
8
OBJECT018
10
0
20
0
30
0
70
128
71
5
72
3
73
-2
0
VERTEX
8
OBJECT018
10
0
20
0
30
0
70
128
71
-5
72
2
73
-8
0
VERTEX
8
OBJECT018
10
0
20
0
30
0
70
128
71
-5
72
8
73
7
0
VERTEX
8
OBJECT018
10
0
20
0
30
0
70
128
71
5
72
7
73
-9
0
VERTEX
8
OBJECT018
10
0
20
0
30
0
70
128
71
-5
72
9
73
6
0
VERTEX
8
OBJECT018
10
0
20
0
30
0
70
128
71
8
72
2
73
-1
0
VERTEX
8
OBJECT018
10
0
20
0
30
0
70
128
71
-8
72
1
73
10
0
VERTEX
8
OBJECT018
10
0
20
0
30
0
70
128
71
7
72
8
73
-10
0
VERTEX
8
OBJECT018
10
0
20
0
30
0
70
128
71
-7
72
10
73
9
0
VERTEX
8
OBJECT018
10
0
20
0
30
0
70
128
71
1
72
4
73
-6
0
VERTEX
8
OBJECT018
10
0
20
0
30
0
70
128
71
-1
72
6
73
-9
0
VERTEX
8
OBJECT018
10
0
20
0
30
0
70
128
71
-1
72
9
73
10
0
SEQEND
8
OBJECT018
0
POLYLINE
8
OBJECT019
66
1
70
64
71
6
72
8
62
50
0
VERTEX
8
OBJECT019
10
-24.214642
20
36.627026
30
-36.244896
70
192
0
VERTEX
8
OBJECT019
10
-28.947477
20
37.217579
30
-36.244896
70
192
0
VERTEX
8
OBJECT019
10
-32.760082
20
6.714331
30
-36.244896
70
192
0
VERTEX
8
OBJECT019
10
-28.948303
20
37.216881
30
48.000000
70
192
0
VERTEX
8
OBJECT019
10
-24.214861
20
36.626255
30
48.000000
70
192
0
VERTEX
8
OBJECT019
10
-32.760723
20
6.712133
30
48.000000
70
192
0
VERTEX
8
OBJECT019
10
0
20
0
30
0
70
128
71
2
72
3
73
1
0
VERTEX
8
OBJECT019
10
0
20
0
30
0
70
128
71
2
72
1
73
-5
0
VERTEX
8
OBJECT019
10
0
20
0
30
0
70
128
71
-2
72
5
73
4
0
VERTEX
8
OBJECT019
10
0
20
0
30
0
70
128
71
3
72
2
73
-4
0
VERTEX
8
OBJECT019
10
0
20
0
30
0
70
128
71
-3
72
4
73
6
0
VERTEX
8
OBJECT019
10
0
20
0
30
0
70
128
71
1
72
3
73
-6
0
VERTEX
8
OBJECT019
10
0
20
0
30
0
70
128
71
-1
72
6
73
5
0
VERTEX
8
OBJECT019
10
0
20
0
30
0
70
128
71
4
72
5
73
6
0
SEQEND
8
OBJECT019
0
POLYLINE
8
OBJECT020
66
1
70
64
71
6
72
8
62
50
0
VERTEX
8
OBJECT020
10
-17.810215
20
35.826344
30
-36.244896
70
192
0
VERTEX
8
OBJECT020
10
-24.215536
20
36.626698
30
-36.244896
70
192
0
VERTEX
8
OBJECT020
10
-31.077873
20
12.607909
30
-36.244896
70
192
0
VERTEX
8
OBJECT020
10
-24.214750
20
36.626183
30
48.000000
70
192
0
VERTEX
8
OBJECT020
10
-17.810434
20
35.825939
30
48.000000
70
192
0
VERTEX
8
OBJECT020
10
-31.075090
20
12.612781
30
48.000000
70
192
0
VERTEX
8
OBJECT020
10
0
20
0
30
0
70
128
71
2
72
3
73
1
0
VERTEX
8
OBJECT020
10
0
20
0
30
0
70
128
71
2
72
1
73
-5
0
VERTEX
8
OBJECT020
10
0
20
0
30
0
70
128
71
-2
72
5
73
4
0
VERTEX
8
OBJECT020
10
0
20
0
30
0
70
128
71
3
72
2
73
-4
0
VERTEX
8
OBJECT020
10
0
20
0
30
0
70
128
71
-3
72
4
73
6
0
VERTEX
8
OBJECT020
10
0
20
0
30
0
70
128
71
1
72
3
73
-6
0
VERTEX
8
OBJECT020
10
0
20
0
30
0
70
128
71
-1
72
6
73
5
0
VERTEX
8
OBJECT020
10
0
20
0
30
0
70
128
71
4
72
5
73
6
0
SEQEND
8
OBJECT020
0
POLYLINE
8
OBJECT021
66
1
70
64
71
6
72
8
62
50
0
VERTEX
8
OBJECT021
10
-13.696512
20
35.311558
30
-36.244896
70
192
0
VERTEX
8
OBJECT021
10
-17.810234
20
35.826378
30
-36.244896
70
192
0
VERTEX
8
OBJECT021
10
-27.726383
20
18.473070
30
-36.244896
70
192
0
VERTEX
8
OBJECT021
10
-17.812174
20
35.826672
30
48.000000
70
192
0
VERTEX
8
OBJECT021
10
-13.696475
20
35.311596
30
48.000000
70
192
0
VERTEX
8
OBJECT021
10
-27.730595
20
18.468016
30
48.000000
70
192
0
VERTEX
8
OBJECT021
10
0
20
0
30
0
70
128
71
2
72
3
73
1
0
VERTEX
8
OBJECT021
10
0
20
0
30
0
70
128
71
2
72
1
73
-5
0
VERTEX
8
OBJECT021
10
0
20
0
30
0
70
128
71
-2
72
5
73
4
0
VERTEX
8
OBJECT021
10
0
20
0
30
0
70
128
71
3
72
2
73
-4
0
VERTEX
8
OBJECT021
10
0
20
0
30
0
70
128
71
-3
72
4
73
6
0
VERTEX
8
OBJECT021
10
0
20
0
30
0
70
128
71
1
72
3
73
-6
0
VERTEX
8
OBJECT021
10
0
20
0
30
0
70
128
71
-1
72
6
73
5
0
VERTEX
8
OBJECT021
10
0
20
0
30
0
70
128
71
4
72
5
73
6
0
SEQEND
8
OBJECT021
0
POLYLINE
8
OBJECT022
66
1
70
64
71
6
72
8
62
50
0
VERTEX
8
OBJECT022
10
-9.929812
20
34.840755
30
-36.244896
70
192
0
VERTEX
8
OBJECT022
10
-13.695688
20
35.311485
30
-36.244896
70
192
0
VERTEX
8
OBJECT022
10
-23.534111
20
23.504662
30
-36.244896
70
192
0
VERTEX
8
OBJECT022
10
-13.695853
20
35.311268
30
48.000000
70
192
0
VERTEX
8
OBJECT022
10
-9.930051
20
34.840538
30
48.000000
70
192
0
VERTEX
8
OBJECT022
10
-23.539091
20
23.500525
30
48.000000
70
192
0
VERTEX
8
OBJECT022
10
0
20
0
30
0
70
128
71
2
72
3
73
1
0
VERTEX
8
OBJECT022
10
0
20
0
30
0
70
128
71
2
72
1
73
-5
0
VERTEX
8
OBJECT022
10
0
20
0
30
0
70
128
71
-2
72
5
73
4
0
VERTEX
8
OBJECT022
10
0
20
0
30
0
70
128
71
3
72
2
73
-4
0
VERTEX
8
OBJECT022
10
0
20
0
30
0
70
128
71
-3
72
4
73
6
0
VERTEX
8
OBJECT022
10
0
20
0
30
0
70
128
71
1
72
3
73
-6
0
VERTEX
8
OBJECT022
10
0
20
0
30
0
70
128
71
-1
72
6
73
5
0
VERTEX
8
OBJECT022
10
0
20
0
30
0
70
128
71
4
72
5
73
6
0
SEQEND
8
OBJECT022
0
POLYLINE
8
OBJECT023
66
1
70
64
71
6
72
8
62
50
0
VERTEX
8
OBJECT023
10
-6.719168
20
34.440670
30
-36.244896
70
192
0
VERTEX
8
OBJECT023
10
-9.929557
20
34.841637
30
-36.244896
70
192
0
VERTEX
8
OBJECT023
10
-18.469963
20
27.725206
30
-36.244896
70
192
0
VERTEX
8
OBJECT023
10
-9.930820
20
34.840794
30
48.000000
70
192
0
VERTEX
8
OBJECT023
10
-6.720614
20
34.439831
30
48.000000
70
192
0
VERTEX
8
OBJECT023
10
-18.463425
20
27.728943
30
48.000000
70
192
0
VERTEX
8
OBJECT023
10
0
20
0
30
0
70
128
71
2
72
3
73
1
0
VERTEX
8
OBJECT023
10
0
20
0
30
0
70
128
71
2
72
1
73
-5
0
VERTEX
8
OBJECT023
10
0
20
0
30
0
70
128
71
-2
72
5
73
4
0
VERTEX
8
OBJECT023
10
0
20
0
30
0
70
128
71
3
72
2
73
-4
0
VERTEX
8
OBJECT023
10
0
20
0
30
0
70
128
71
-3
72
4
73
6
0
VERTEX
8
OBJECT023
10
0
20
0
30
0
70
128
71
1
72
3
73
-6
0
VERTEX
8
OBJECT023
10
0
20
0
30
0
70
128
71
-1
72
6
73
5
0
VERTEX
8
OBJECT023
10
0
20
0
30
0
70
128
71
4
72
5
73
6
0
SEQEND
8
OBJECT023
0
POLYLINE
8
OBJECT024
66
1
70
64
71
6
72
8
62
50
0
VERTEX
8
OBJECT024
10
-2.628793
20
33.928890
30
-36.244896
70
192
0
VERTEX
8
OBJECT024
10
-6.718417
20
34.439831
30
-36.244896
70
192
0
VERTEX
8
OBJECT024
10
-12.595609
20
31.082445
30
-36.244896
70
192
0
VERTEX
8
OBJECT024
10
-6.721896
20
34.439903
30
48.000000
70
192
0
VERTEX
8
OBJECT024
10
-2.629672
20
33.928638
30
48.000000
70
192
0
VERTEX
8
OBJECT024
10
-12.592807
20
31.083250
30
48.000000
70
192
0
VERTEX
8
OBJECT024
10
0
20
0
30
0
70
128
71
2
72
3
73
1
0
VERTEX
8
OBJECT024
10
0
20
0
30
0
70
128
71
2
72
1
73
-5
0
VERTEX
8
OBJECT024
10
0
20
0
30
0
70
128
71
-2
72
5
73
4
0
VERTEX
8
OBJECT024
10
0
20
0
30
0
70
128
71
3
72
2
73
-4
0
VERTEX
8
OBJECT024
10
0
20
0
30
0
70
128
71
-3
72
4
73
6
0
VERTEX
8
OBJECT024
10
0
20
0
30
0
70
128
71
1
72
3
73
-6
0
VERTEX
8
OBJECT024
10
0
20
0
30
0
70
128
71
-1
72
6
73
5
0
VERTEX
8
OBJECT024
10
0
20
0
30
0
70
128
71
4
72
5
73
6
0
SEQEND
8
OBJECT024
0
POLYLINE
8
OBJECT025
66
1
70
64
71
6
72
8
62
50
0
VERTEX
8
OBJECT025
10
-0.000002
20
33.599998
30
-36.244896
70
192
0
VERTEX
8
OBJECT025
10
-2.631045
20
33.929516
30
-36.244896
70
192
0
VERTEX
8
OBJECT025
10
-6.733926
20
32.757969
30
-36.244896
70
192
0
VERTEX
8
OBJECT025
10
-2.631942
20
33.928707
30
48.000000
70
192
0
VERTEX
8
OBJECT025
10
-0.000002
20
33.599998
30
48.000000
70
192
0
VERTEX
8
OBJECT025
10
-6.738906
20
32.757347
30
48.000000
70
192
0
VERTEX
8
OBJECT025
10
0
20
0
30
0
70
128
71
2
72
3
73
1
0
VERTEX
8
OBJECT025
10
0
20
0
30
0
70
128
71
2
72
1
73
-5
0
VERTEX
8
OBJECT025
10
0
20
0
30
0
70
128
71
-2
72
5
73
4
0
VERTEX
8
OBJECT025
10
0
20
0
30
0
70
128
71
3
72
2
73
-4
0
VERTEX
8
OBJECT025
10
0
20
0
30
0
70
128
71
-3
72
4
73
6
0
VERTEX
8
OBJECT025
10
0
20
0
30
0
70
128
71
1
72
3
73
-6
0
VERTEX
8
OBJECT025
10
0
20
0
30
0
70
128
71
-1
72
6
73
5
0
VERTEX
8
OBJECT025
10
0
20
0
30
0
70
128
71
4
72
5
73
6
0
SEQEND
8
OBJECT025
0
POLYLINE
8
OBJECT026
66
1
70
64
71
8
72
12
62
50
0
VERTEX
8
OBJECT026
10
46.137894
20
11.916503
30
48.000000
70
192
0
VERTEX
8
OBJECT026
10
46.137894
20
11.916503
30
40.163269
70
192
0
VERTEX
8
OBJECT026
10
46.800003
20
9.599999
30
40.163269
70
192
0
VERTEX
8
OBJECT026
10
46.800003
20
9.599999
30
48.000000
70
192
0
VERTEX
8
OBJECT026
10
47.563900
20
3.484020
30
40.163269
70
192
0
VERTEX
8
OBJECT026
10
47.563900
20
3.484020
30
48.000000
70
192
0
VERTEX
8
OBJECT026
10
18.485155
20
27.716711
30
48.000000
70
192
0
VERTEX
8
OBJECT026
10
18.485155
20
27.716711
30
40.163269
70
192
0
VERTEX
8
OBJECT026
10
0
20
0
30
0
70
128
71
2
72
3
73
-4
0
VERTEX
8
OBJECT026
10
0
20
0
30
0
70
128
71
-2
72
4
73
1
0
VERTEX
8
OBJECT026
10
0
20
0
30
0
70
128
71
3
72
5
73
-6
0
VERTEX
8
OBJECT026
10
0
20
0
30
0
70
128
71
-3
72
6
73
4
0
VERTEX
8
OBJECT026
10
0
20
0
30
0
70
128
71
8
72
2
73
-1
0
VERTEX
8
OBJECT026
10
0
20
0
30
0
70
128
71
-8
72
1
73
7
0
VERTEX
8
OBJECT026
10
0
20
0
30
0
70
128
71
5
72
8
73
-7
0
VERTEX
8
OBJECT026
10
0
20
0
30
0
70
128
71
-5
72
7
73
6
0
VERTEX
8
OBJECT026
10
0
20
0
30
0
70
128
71
3
72
2
73
-8
0
VERTEX
8
OBJECT026
10
0
20
0
30
0
70
128
71
-3
72
8
73
5
0
VERTEX
8
OBJECT026
10
0
20
0
30
0
70
128
71
1
72
4
73
-6
0
VERTEX
8
OBJECT026
10
0
20
0
30
0
70
128
71
-1
72
6
73
7
0
SEQEND
8
OBJECT026
0
POLYLINE
8
OBJECT027
66
1
70
64
71
8
72
12
62
50
0
VERTEX
8
OBJECT027
10
46.136463
20
11.917821
30
8.816327
70
192
0
VERTEX
8
OBJECT027
10
46.136463
20
11.917821
30
-36.244896
70
192
0
VERTEX
8
OBJECT027
10
46.800003
20
9.599999
30
-36.244896
70
192
0
VERTEX
8
OBJECT027
10
46.800003
20
9.599999
30
8.816327
70
192
0
VERTEX
8
OBJECT027
10
47.564045
20
3.482702
30
-36.244896
70
192
0
VERTEX
8
OBJECT027
10
47.564045
20
3.482702
30
8.816327
70
192
0
VERTEX
8
OBJECT027
10
18.471882
20
27.726013
30
-36.244896
70
192
0
VERTEX
8
OBJECT027
10
18.469355
20
27.728098
30
8.816327
70
192
0
VERTEX
8
OBJECT027
10
0
20
0
30
0
70
128
71
2
72
3
73
-4
0
VERTEX
8
OBJECT027
10
0
20
0
30
0
70
128
71
-2
72
4
73
1
0
VERTEX
8
OBJECT027
10
0
20
0
30
0
70
128
71
3
72
5
73
-6
0
VERTEX
8
OBJECT027
10
0
20
0
30
0
70
128
71
-3
72
6
73
4
0
VERTEX
8
OBJECT027
10
0
20
0
30
0
70
128
71
3
72
2
73
-7
0
VERTEX
8
OBJECT027
10
0
20
0
30
0
70
128
71
-3
72
7
73
5
0
VERTEX
8
OBJECT027
10
0
20
0
30
0
70
128
71
7
72
2
73
-1
0
VERTEX
8
OBJECT027
10
0
20
0
30
0
70
128
71
-7
72
1
73
8
0
VERTEX
8
OBJECT027
10
0
20
0
30
0
70
128
71
5
72
7
73
-8
0
VERTEX
8
OBJECT027
10
0
20
0
30
0
70
128
71
-5
72
8
73
6
0
VERTEX
8
OBJECT027
10
0
20
0
30
0
70
128
71
1
72
4
73
-6
0
VERTEX
8
OBJECT027
10
0
20
0
30
0
70
128
71
-1
72
6
73
8
0
SEQEND
8
OBJECT027
0
POLYLINE
8
OBJECT028
66
1
70
64
71
6
72
8
62
50
0
VERTEX
8
OBJECT028
10
18.471497
20
27.727037
30
40.163269
70
192
0
VERTEX
8
OBJECT028
10
18.471497
20
27.727037
30
8.816327
70
192
0
VERTEX
8
OBJECT028
10
24.000000
20
24.567698
30
8.816327
70
192
0
VERTEX
8
OBJECT028
10
24.000000
20
24.567698
30
40.163269
70
192
0
VERTEX
8
OBJECT028
10
24.000000
20
23.117981
30
8.816327
70
192
0
VERTEX
8
OBJECT028
10
24.000000
20
23.117981
30
40.163269
70
192
0
VERTEX
8
OBJECT028
10
0
20
0
30
0
70
128
71
2
72
3
73
-4
0
VERTEX
8
OBJECT028
10
0
20
0
30
0
70
128
71
-2
72
4
73
1
0
VERTEX
8
OBJECT028
10
0
20
0
30
0
70
128
71
2
72
1
73
-6
0
VERTEX
8
OBJECT028
10
0
20
0
30
0
70
128
71
-2
72
6
73
5
0
VERTEX
8
OBJECT028
10
0
20
0
30
0
70
128
71
1
72
4
73
6
0
VERTEX
8
OBJECT028
10
0
20
0
30
0
70
128
71
2
72
5
73
3
0
VERTEX
8
OBJECT028
10
0
20
0
30
0
70
128
71
3
72
5
73
-6
0
VERTEX
8
OBJECT028
10
0
20
0
30
0
70
128
71
-3
72
6
73
4
0
SEQEND
8
OBJECT028
0
POLYLINE
8
OBJECT029
66
1
70
64
71
10
72
16
62
50
0
VERTEX
8
OBJECT029
10
46.136410
20
11.918004
30
40.163269
70
192
0
VERTEX
8
OBJECT029
10
46.136410
20
11.918004
30
8.816327
70
192
0
VERTEX
8
OBJECT029
10
46.800003
20
9.599999
30
8.816327
70
192
0
VERTEX
8
OBJECT029
10
46.800003
20
9.599999
30
40.163269
70
192
0
VERTEX
8
OBJECT029
10
24.000000
20
24.567736
30
8.816327
70
192
0
VERTEX
8
OBJECT029
10
24.000000
20
24.567736
30
40.163269
70
192
0
VERTEX
8
OBJECT029
10
40.225323
20
9.599999
30
8.816327
70
192
0
VERTEX
8
OBJECT029
10
24.000000
20
23.121277
30
8.816327
70
192
0
VERTEX
8
OBJECT029
10
24.000000
20
23.121277
30
40.163269
70
192
0
VERTEX
8
OBJECT029
10
40.225323
20
9.599999
30
40.163269
70
192
0
VERTEX
8
OBJECT029
10
0
20
0
30
0
70
128
71
2
72
3
73
-4
0
VERTEX
8
OBJECT029
10
0
20
0
30
0
70
128
71
-2
72
4
73
1
0
VERTEX
8
OBJECT029
10
0
20
0
30
0
70
128
71
2
72
1
73
-6
0
VERTEX
8
OBJECT029
10
0
20
0
30
0
70
128
71
-2
72
6
73
5
0
VERTEX
8
OBJECT029
10
0
20
0
30
0
70
128
71
8
72
9
73
-10
0
VERTEX
8
OBJECT029
10
0
20
0
30
0
70
128
71
-8
72
10
73
7
0
VERTEX
8
OBJECT029
10
0
20
0
30
0
70
128
71
1
72
4
73
-10
0
VERTEX
8
OBJECT029
10
0
20
0
30
0
70
128
71
-1
72
10
73
-9
0
VERTEX
8
OBJECT029
10
0
20
0
30
0
70
128
71
-1
72
9
73
6
0
VERTEX
8
OBJECT029
10
0
20
0
30
0
70
128
71
2
72
5
73
-8
0
VERTEX
8
OBJECT029
10
0
20
0
30
0
70
128
71
-2
72
8
73
-7
0
VERTEX
8
OBJECT029
10
0
20
0
30
0
70
128
71
-2
72
7
73
3
0
VERTEX
8
OBJECT029
10
0
20
0
30
0
70
128
71
8
72
5
73
-6
0
VERTEX
8
OBJECT029
10
0
20
0
30
0
70
128
71
-8
72
6
73
9
0
VERTEX
8
OBJECT029
10
0
20
0
30
0
70
128
71
3
72
7
73
-10
0
VERTEX
8
OBJECT029
10
0
20
0
30
0
70
128
71
-3
72
10
73
4
0
SEQEND
8
OBJECT029
0
POLYLINE
8
OBJECT030
66
1
70
64
71
8
72
12
62
50
0
VERTEX
8
OBJECT030
10
47.564705
20
3.482373
30
48.000000
70
192
0
VERTEX
8
OBJECT030
10
47.564705
20
3.482373
30
40.163269
70
192
0
VERTEX
8
OBJECT030
10
48.000004
20
-0.000001
30
40.163269
70
192
0
VERTEX
8
OBJECT030
10
48.000004
20
-0.000001
30
48.000000
70
192
0
VERTEX
8
OBJECT030
10
47.363895
20
-5.091504
30
40.163269
70
192
0
VERTEX
8
OBJECT030
10
47.363895
20
-5.091504
30
48.000000
70
192
0
VERTEX
8
OBJECT030
10
23.517059
20
23.524475
30
48.000000
70
192
0
VERTEX
8
OBJECT030
10
23.517059
20
23.524475
30
40.163269
70
192
0
VERTEX
8
OBJECT030
10
0
20
0
30
0
70
128
71
2
72
3
73
-4
0
VERTEX
8
OBJECT030
10
0
20
0
30
0
70
128
71
-2
72
4
73
1
0
VERTEX
8
OBJECT030
10
0
20
0
30
0
70
128
71
3
72
5
73
-6
0
VERTEX
8
OBJECT030
10
0
20
0
30
0
70
128
71
-3
72
6
73
4
0
VERTEX
8
OBJECT030
10
0
20
0
30
0
70
128
71
8
72
2
73
-1
0
VERTEX
8
OBJECT030
10
0
20
0
30
0
70
128
71
-8
72
1
73
7
0
VERTEX
8
OBJECT030
10
0
20
0
30
0
70
128
71
5
72
8
73
-7
0
VERTEX
8
OBJECT030
10
0
20
0
30
0
70
128
71
-5
72
7
73
6
0
VERTEX
8
OBJECT030
10
0
20
0
30
0
70
128
71
3
72
2
73
-8
0
VERTEX
8
OBJECT030
10
0
20
0
30
0
70
128
71
-3
72
8
73
5
0
VERTEX
8
OBJECT030
10
0
20
0
30
0
70
128
71
1
72
4
73
-6
0
VERTEX
8
OBJECT030
10
0
20
0
30
0
70
128
71
-1
72
6
73
7
0
SEQEND
8
OBJECT030
0
POLYLINE
8
OBJECT031
66
1
70
64
71
8
72
12
62
50
0
VERTEX
8
OBJECT031
10
47.564743
20
3.482080
30
8.816327
70
192
0
VERTEX
8
OBJECT031
10
47.564743
20
3.482080
30
-36.244896
70
192
0
VERTEX
8
OBJECT031
10
48.000004
20
-0.000001
30
-36.244896
70
192
0
VERTEX
8
OBJECT031
10
48.000004
20
-0.000001
30
8.816327
70
192
0
VERTEX
8
OBJECT031
10
47.364445
20
-5.090955
30
-36.244896
70
192
0
VERTEX
8
OBJECT031
10
47.364445
20
-5.090955
30
8.816327
70
192
0
VERTEX
8
OBJECT031
10
23.531029
20
23.509386
30
-36.244896
70
192
0
VERTEX
8
OBJECT031
10
23.521673
20
23.520630
30
8.816327
70
192
0
VERTEX
8
OBJECT031
10
0
20
0
30
0
70
128
71
2
72
3
73
-4
0
VERTEX
8
OBJECT031
10
0
20
0
30
0
70
128
71
-2
72
4
73
1
0
VERTEX
8
OBJECT031
10
0
20
0
30
0
70
128
71
3
72
5
73
-6
0
VERTEX
8
OBJECT031
10
0
20
0
30
0
70
128
71
-3
72
6
73
4
0
VERTEX
8
OBJECT031
10
0
20
0
30
0
70
128
71
3
72
2
73
-7
0
VERTEX
8
OBJECT031
10
0
20
0
30
0
70
128
71
-3
72
7
73
5
0
VERTEX
8
OBJECT031
10
0
20
0
30
0
70
128
71
7
72
2
73
-1
0
VERTEX
8
OBJECT031
10
0
20
0
30
0
70
128
71
-7
72
1
73
8
0
VERTEX
8
OBJECT031
10
0
20
0
30
0
70
128
71
5
72
7
73
-8
0
VERTEX
8
OBJECT031
10
0
20
0
30
0
70
128
71
-5
72
8
73
6
0
VERTEX
8
OBJECT031
10
0
20
0
30
0
70
128
71
1
72
4
73
-6
0
VERTEX
8
OBJECT031
10
0
20
0
30
0
70
128
71
-1
72
6
73
8
0
SEQEND
8
OBJECT031
0
POLYLINE
8
OBJECT032
66
1
70
64
71
6
72
8
62
50
0
VERTEX
8
OBJECT032
10
23.532221
20
23.507774
30
40.163269
70
192
0
VERTEX
8
OBJECT032
10
23.532221
20
23.507774
30
8.816327
70
192
0
VERTEX
8
OBJECT032
10
24.000000
20
23.118347
30
8.816327
70
192
0
VERTEX
8
OBJECT032
10
24.000000
20
23.118347
30
40.163269
70
192
0
VERTEX
8
OBJECT032
10
24.000000
20
22.949669
30
8.816327
70
192
0
VERTEX
8
OBJECT032
10
24.000000
20
22.949669
30
40.163269
70
192
0
VERTEX
8
OBJECT032
10
0
20
0
30
0
70
128
71
2
72
3
73
-4
0
VERTEX
8
OBJECT032
10
0
20
0
30
0
70
128
71
-2
72
4
73
1
0
VERTEX
8
OBJECT032
10
0
20
0
30
0
70
128
71
2
72
1
73
-6
0
VERTEX
8
OBJECT032
10
0
20
0
30
0
70
128
71
-2
72
6
73
5
0
VERTEX
8
OBJECT032
10
0
20
0
30
0
70
128
71
1
72
4
73
6
0
VERTEX
8
OBJECT032
10
0
20
0
30
0
70
128
71
2
72
5
73
3
0
VERTEX
8
OBJECT032
10
0
20
0
30
0
70
128
71
3
72
5
73
-6
0
VERTEX
8
OBJECT032
10
0
20
0
30
0
70
128
71
-3
72
6
73
4
0
SEQEND
8
OBJECT032
0
POLYLINE
8
OBJECT033
66
1
70
64
71
8
72
12
62
50
0
VERTEX
8
OBJECT033
10
24.000000
20
23.121277
30
8.816327
70
192
0
VERTEX
8
OBJECT033
10
40.225307
20
9.599999
30
8.816327
70
192
0
VERTEX
8
OBJECT033
10
40.225307
20
9.599999
30
40.163269
70
192
0
VERTEX
8
OBJECT033
10
24.000000
20
23.121277
30
40.163269
70
192
0
VERTEX
8
OBJECT033
10
35.122704
20
9.599999
30
8.816327
70
192
0
VERTEX
8
OBJECT033
10
24.000000
20
22.947729
30
8.816327
70
192
0
VERTEX
8
OBJECT033
10
24.000000
20
22.947729
30
40.163269
70
192
0
VERTEX
8
OBJECT033
10
35.122704
20
9.599999
30
40.163269
70
192
0
VERTEX
8
OBJECT033
10
0
20
0
30
0
70
128
71
2
72
3
73
-4
0
VERTEX
8
OBJECT033
10
0
20
0
30
0
70
128
71
-2
72
4
73
1
0
VERTEX
8
OBJECT033
10
0
20
0
30
0
70
128
71
6
72
7
73
-8
0
VERTEX
8
OBJECT033
10
0
20
0
30
0
70
128
71
-6
72
8
73
5
0
VERTEX
8
OBJECT033
10
0
20
0
30
0
70
128
71
7
72
4
73
-3
0
VERTEX
8
OBJECT033
10
0
20
0
30
0
70
128
71
-7
72
3
73
8
0
VERTEX
8
OBJECT033
10
0
20
0
30
0
70
128
71
1
72
6
73
-5
0
VERTEX
8
OBJECT033
10
0
20
0
30
0
70
128
71
-1
72
5
73
2
0
VERTEX
8
OBJECT033
10
0
20
0
30
0
70
128
71
6
72
1
73
-4
0
VERTEX
8
OBJECT033
10
0
20
0
30
0
70
128
71
-6
72
4
73
7
0
VERTEX
8
OBJECT033
10
0
20
0
30
0
70
128
71
2
72
5
73
-8
0
VERTEX
8
OBJECT033
10
0
20
0
30
0
70
128
71
-2
72
8
73
3
0
SEQEND
8
OBJECT033
0
POLYLINE
8
OBJECT034
66
1
70
64
71
8
72
12
62
50
0
VERTEX
8
OBJECT034
10
47.363876
20
-5.091724
30
48.000000
70
192
0
VERTEX
8
OBJECT034
10
47.363876
20
-5.091724
30
40.163269
70
192
0
VERTEX
8
OBJECT034
10
46.800003
20
-9.599999
30
40.163269
70
192
0
VERTEX
8
OBJECT034
10
46.800003
20
-9.599999
30
48.000000
70
192
0
VERTEX
8
OBJECT034
10
45.790306
20
-13.141223
30
40.163269
70
192
0
VERTEX
8
OBJECT034
10
45.790306
20
-13.141223
30
48.000000
70
192
0
VERTEX
8
OBJECT034
10
27.721951
20
18.478416
30
48.000000
70
192
0
VERTEX
8
OBJECT034
10
27.721951
20
18.478416
30
40.163269
70
192
0
VERTEX
8
OBJECT034
10
0
20
0
30
0
70
128
71
2
72
3
73
-4
0
VERTEX
8
OBJECT034
10
0
20
0
30
0
70
128
71
-2
72
4
73
1
0
VERTEX
8
OBJECT034
10
0
20
0
30
0
70
128
71
3
72
5
73
-6
0
VERTEX
8
OBJECT034
10
0
20
0
30
0
70
128
71
-3
72
6
73
4
0
VERTEX
8
OBJECT034
10
0
20
0
30
0
70
128
71
8
72
2
73
-1
0
VERTEX
8
OBJECT034
10
0
20
0
30
0
70
128
71
-8
72
1
73
7
0
VERTEX
8
OBJECT034
10
0
20
0
30
0
70
128
71
5
72
8
73
-7
0
VERTEX
8
OBJECT034
10
0
20
0
30
0
70
128
71
-5
72
7
73
6
0
VERTEX
8
OBJECT034
10
0
20
0
30
0
70
128
71
3
72
2
73
-8
0
VERTEX
8
OBJECT034
10
0
20
0
30
0
70
128
71
-3
72
8
73
5
0
VERTEX
8
OBJECT034
10
0
20
0
30
0
70
128
71
1
72
4
73
-6
0
VERTEX
8
OBJECT034
10
0
20
0
30
0
70
128
71
-1
72
6
73
7
0
SEQEND
8
OBJECT034
0
POLYLINE
8
OBJECT035
66
1
70
64
71
8
72
12
62
50
0
VERTEX
8
OBJECT035
10
47.364166
20
-5.090626
30
8.816327
70
192
0
VERTEX
8
OBJECT035
10
47.364166
20
-5.090626
30
-36.244896
70
192
0
VERTEX
8
OBJECT035
10
46.800003
20
-9.599999
30
-36.244896
70
192
0
VERTEX
8
OBJECT035
10
46.800003
20
-9.599999
30
8.816327
70
192
0
VERTEX
8
OBJECT035
10
45.789078
20
-13.142395
30
-36.244896
70
192
0
VERTEX
8
OBJECT035
10
45.789078
20
-13.142395
30
8.816327
70
192
0
VERTEX
8
OBJECT035
10
27.714094
20
18.489733
30
-36.244896
70
192
0
VERTEX
8
OBJECT035
10
27.715412
20
18.487425
30
8.816327
70
192
0
VERTEX
8
OBJECT035
10
0
20
0
30
0
70
128
71
2
72
3
73
-4
0
VERTEX
8
OBJECT035
10
0
20
0
30
0
70
128
71
-2
72
4
73
1
0
VERTEX
8
OBJECT035
10
0
20
0
30
0
70
128
71
3
72
5
73
-6
0
VERTEX
8
OBJECT035
10
0
20
0
30
0
70
128
71
-3
72
6
73
4
0
VERTEX
8
OBJECT035
10
0
20
0
30
0
70
128
71
3
72
2
73
-7
0
VERTEX
8
OBJECT035
10
0
20
0
30
0
70
128
71
-3
72
7
73
5
0
VERTEX
8
OBJECT035
10
0
20
0
30
0
70
128
71
7
72
2
73
-1
0
VERTEX
8
OBJECT035
10
0
20
0
30
0
70
128
71
-7
72
1
73
8
0
VERTEX
8
OBJECT035
10
0
20
0
30
0
70
128
71
5
72
7
73
-8
0
VERTEX
8
OBJECT035
10
0
20
0
30
0
70
128
71
-5
72
8
73
6
0
VERTEX
8
OBJECT035
10
0
20
0
30
0
70
128
71
1
72
4
73
-6
0
VERTEX
8
OBJECT035
10
0
20
0
30
0
70
128
71
-1
72
6
73
8
0
SEQEND
8
OBJECT035
0
POLYLINE
8
OBJECT036
66
1
70
64
71
6
72
8
62
50
0
VERTEX
8
OBJECT036
10
27.713654
20
18.489660
30
40.163269
70
192
0
VERTEX
8
OBJECT036
10
27.713654
20
18.489660
30
8.816327
70
192
0
VERTEX
8
OBJECT036
10
35.121113
20
9.599999
30
8.816327
70
192
0
VERTEX
8
OBJECT036
10
35.121113
20
9.599999
30
40.163269
70
192
0
VERTEX
8
OBJECT036
10
32.794666
20
9.599999
30
8.816327
70
192
0
VERTEX
8
OBJECT036
10
32.794666
20
9.599999
30
40.163269
70
192
0
VERTEX
8
OBJECT036
10
0
20
0
30
0
70
128
71
2
72
3
73
-4
0
VERTEX
8
OBJECT036
10
0
20
0
30
0
70
128
71
-2
72
4
73
1
0
VERTEX
8
OBJECT036
10
0
20
0
30
0
70
128
71
2
72
1
73
-6
0
VERTEX
8
OBJECT036
10
0
20
0
30
0
70
128
71
-2
72
6
73
5
0
VERTEX
8
OBJECT036
10
0
20
0
30
0
70
128
71
1
72
4
73
6
0
VERTEX
8
OBJECT036
10
0
20
0
30
0
70
128
71
2
72
5
73
3
0
VERTEX
8
OBJECT036
10
0
20
0
30
0
70
128
71
3
72
5
73
-6
0
VERTEX
8
OBJECT036
10
0
20
0
30
0
70
128
71
-3
72
6
73
4
0
SEQEND
8
OBJECT036
0
POLYLINE
8
OBJECT037
66
1
70
64
71
6
72
8
62
50
0
VERTEX
8
OBJECT037
10
46.800003
20
-9.599999
30
8.816327
70
192
0
VERTEX
8
OBJECT037
10
45.788895
20
-13.142285
30
8.816327
70
192
0
VERTEX
8
OBJECT037
10
45.788895
20
-13.142285
30
40.163269
70
192
0
VERTEX
8
OBJECT037
10
46.800003
20
-9.599999
30
40.163269
70
192
0
VERTEX
8
OBJECT037
10
43.765339
20
-9.599999
30
8.816327
70
192
0
VERTEX
8
OBJECT037
10
43.765339
20
-9.599999
30
40.163269
70
192
0
VERTEX
8
OBJECT037
10
0
20
0
30
0
70
128
71
2
72
3
73
-4
0
VERTEX
8
OBJECT037
10
0
20
0
30
0
70
128
71
-2
72
4
73
1
0
VERTEX
8
OBJECT037
10
0
20
0
30
0
70
128
71
2
72
5
73
-6
0
VERTEX
8
OBJECT037
10
0
20
0
30
0
70
128
71
-2
72
6
73
3
0
VERTEX
8
OBJECT037
10
0
20
0
30
0
70
128
71
3
72
6
73
4
0
VERTEX
8
OBJECT037
10
0
20
0
30
0
70
128
71
2
72
1
73
5
0
VERTEX
8
OBJECT037
10
0
20
0
30
0
70
128
71
5
72
1
73
-4
0
VERTEX
8
OBJECT037
10
0
20
0
30
0
70
128
71
-5
72
4
73
6
0
SEQEND
8
OBJECT037
0
POLYLINE
8
OBJECT038
66
1
70
64
71
8
72
12
62
50
0
VERTEX
8
OBJECT038
10
45.789387
20
-13.139612
30
48.000000
70
192
0
VERTEX
8
OBJECT038
10
45.789387
20
-13.139612
30
40.163269
70
192
0
VERTEX
8
OBJECT038
10
44.400005
20
-18.000000
30
40.163269
70
192
0
VERTEX
8
OBJECT038
10
44.400005
20
-18.000000
30
48.000000
70
192
0
VERTEX
8
OBJECT038
10
41.348312
20
-23.338549
30
40.163269
70
192
0
VERTEX
8
OBJECT038
10
41.348312
20
-23.338549
30
48.000000
70
192
0
VERTEX
8
OBJECT038
10
31.080488
20
12.599450
30
48.000000
70
192
0
VERTEX
8
OBJECT038
10
31.080488
20
12.599450
30
40.163269
70
192
0
VERTEX
8
OBJECT038
10
0
20
0
30
0
70
128
71
2
72
3
73
-4
0
VERTEX
8
OBJECT038
10
0
20
0
30
0
70
128
71
-2
72
4
73
1
0
VERTEX
8
OBJECT038
10
0
20
0
30
0
70
128
71
3
72
5
73
-6
0
VERTEX
8
OBJECT038
10
0
20
0
30
0
70
128
71
-3
72
6
73
4
0
VERTEX
8
OBJECT038
10
0
20
0
30
0
70
128
71
8
72
2
73
-1
0
VERTEX
8
OBJECT038
10
0
20
0
30
0
70
128
71
-8
72
1
73
7
0
VERTEX
8
OBJECT038
10
0
20
0
30
0
70
128
71
5
72
8
73
-7
0
VERTEX
8
OBJECT038
10
0
20
0
30
0
70
128
71
-5
72
7
73
6
0
VERTEX
8
OBJECT038
10
0
20
0
30
0
70
128
71
3
72
2
73
-8
0
VERTEX
8
OBJECT038
10
0
20
0
30
0
70
128
71
-3
72
8
73
5
0
VERTEX
8
OBJECT038
10
0
20
0
30
0
70
128
71
1
72
4
73
-6
0
VERTEX
8
OBJECT038
10
0
20
0
30
0
70
128
71
-1
72
6
73
7
0
SEQEND
8
OBJECT038
0
POLYLINE
8
OBJECT039
66
1
70
64
71
8
72
12
62
50
0
VERTEX
8
OBJECT039
10
45.789661
20
-13.142212
30
8.816327
70
192
0
VERTEX
8
OBJECT039
10
45.789661
20
-13.142212
30
-36.244896
70
192
0
VERTEX
8
OBJECT039
10
44.400005
20
-18.000000
30
-36.244896
70
192
0
VERTEX
8
OBJECT039
10
44.400005
20
-18.000000
30
8.816327
70
192
0
VERTEX
8
OBJECT039
10
41.348274
20
-23.339613
30
-36.244896
70
192
0
VERTEX
8
OBJECT039
10
41.348274
20
-23.339613
30
8.816327
70
192
0
VERTEX
8
OBJECT039
10
31.079462
20
12.600621
30
-36.244896
70
192
0
VERTEX
8
OBJECT039
10
31.077814
20
12.606408
30
8.816327
70
192
0
VERTEX
8
OBJECT039
10
0
20
0
30
0
70
128
71
2
72
3
73
-4
0
VERTEX
8
OBJECT039
10
0
20
0
30
0
70
128
71
-2
72
4
73
1
0
VERTEX
8
OBJECT039
10
0
20
0
30
0
70
128
71
3
72
5
73
-6
0
VERTEX
8
OBJECT039
10
0
20
0
30
0
70
128
71
-3
72
6
73
4
0
VERTEX
8
OBJECT039
10
0
20
0
30
0
70
128
71
3
72
2
73
-7
0
VERTEX
8
OBJECT039
10
0
20
0
30
0
70
128
71
-3
72
7
73
5
0
VERTEX
8
OBJECT039
10
0
20
0
30
0
70
128
71
7
72
2
73
-1
0
VERTEX
8
OBJECT039
10
0
20
0
30
0
70
128
71
-7
72
1
73
8
0
VERTEX
8
OBJECT039
10
0
20
0
30
0
70
128
71
5
72
7
73
-8
0
VERTEX
8
OBJECT039
10
0
20
0
30
0
70
128
71
-5
72
8
73
6
0
VERTEX
8
OBJECT039
10
0
20
0
30
0
70
128
71
1
72
4
73
-6
0
VERTEX
8
OBJECT039
10
0
20
0
30
0
70
128
71
-1
72
6
73
8
0
SEQEND
8
OBJECT039
0
POLYLINE
8
OBJECT040
66
1
70
64
71
6
72
8
62
50
0
VERTEX
8
OBJECT040
10
31.081329
20
12.596959
30
40.163269
70
192
0
VERTEX
8
OBJECT040
10
31.081329
20
12.596959
30
8.816327
70
192
0
VERTEX
8
OBJECT040
10
32.794044
20
9.599999
30
8.816327
70
192
0
VERTEX
8
OBJECT040
10
32.794044
20
9.599999
30
40.163269
70
192
0
VERTEX
8
OBJECT040
10
31.936819
20
9.599999
30
8.816327
70
192
0
VERTEX
8
OBJECT040
10
31.936819
20
9.599999
30
40.163269
70
192
0
VERTEX
8
OBJECT040
10
0
20
0
30
0
70
128
71
2
72
3
73
-4
0
VERTEX
8
OBJECT040
10
0
20
0
30
0
70
128
71
-2
72
4
73
1
0
VERTEX
8
OBJECT040
10
0
20
0
30
0
70
128
71
2
72
1
73
-6
0
VERTEX
8
OBJECT040
10
0
20
0
30
0
70
128
71
-2
72
6
73
5
0
VERTEX
8
OBJECT040
10
0
20
0
30
0
70
128
71
1
72
4
73
6
0
VERTEX
8
OBJECT040
10
0
20
0
30
0
70
128
71
2
72
5
73
3
0
VERTEX
8
OBJECT040
10
0
20
0
30
0
70
128
71
3
72
5
73
-6
0
VERTEX
8
OBJECT040
10
0
20
0
30
0
70
128
71
-3
72
6
73
4
0
SEQEND
8
OBJECT040
0
POLYLINE
8
OBJECT041
66
1
70
64
71
10
72
16
62
50
0
VERTEX
8
OBJECT041
10
45.789661
20
-13.142212
30
40.163269
70
192
0
VERTEX
8
OBJECT041
10
45.789661
20
-13.142212
30
8.816327
70
192
0
VERTEX
8
OBJECT041
10
44.400005
20
-18.000000
30
8.816327
70
192
0
VERTEX
8
OBJECT041
10
44.400005
20
-18.000000
30
40.163269
70
192
0
VERTEX
8
OBJECT041
10
41.348289
20
-23.339613
30
8.816327
70
192
0
VERTEX
8
OBJECT041
10
41.348289
20
-23.339613
30
40.163269
70
192
0
VERTEX
8
OBJECT041
10
43.765339
20
-9.599999
30
8.816327
70
192
0
VERTEX
8
OBJECT041
10
43.765339
20
-9.599999
30
40.163269
70
192
0
VERTEX
8
OBJECT041
10
37.423500
20
-9.599999
30
8.816327
70
192
0
VERTEX
8
OBJECT041
10
37.423500
20
-9.599999
30
40.163269
70
192
0
VERTEX
8
OBJECT041
10
0
20
0
30
0
70
128
71
2
72
3
73
-4
0
VERTEX
8
OBJECT041
10
0
20
0
30
0
70
128
71
-2
72
4
73
1
0
VERTEX
8
OBJECT041
10
0
20
0
30
0
70
128
71
3
72
5
73
-6
0
VERTEX
8
OBJECT041
10
0
20
0
30
0
70
128
71
-3
72
6
73
4
0
VERTEX
8
OBJECT041
10
0
20
0
30
0
70
128
71
2
72
1
73
-8
0
VERTEX
8
OBJECT041
10
0
20
0
30
0
70
128
71
-2
72
8
73
7
0
VERTEX
8
OBJECT041
10
0
20
0
30
0
70
128
71
5
72
9
73
-10
0
VERTEX
8
OBJECT041
10
0
20
0
30
0
70
128
71
-5
72
10
73
6
0
VERTEX
8
OBJECT041
10
0
20
0
30
0
70
128
71
1
72
4
73
-6
0
VERTEX
8
OBJECT041
10
0
20
0
30
0
70
128
71
-1
72
6
73
-10
0
VERTEX
8
OBJECT041
10
0
20
0
30
0
70
128
71
-1
72
10
73
8
0
VERTEX
8
OBJECT041
10
0
20
0
30
0
70
128
71
3
72
2
73
-7
0
VERTEX
8
OBJECT041
10
0
20
0
30
0
70
128
71
-3
72
7
73
-9
0
VERTEX
8
OBJECT041
10
0
20
0
30
0
70
128
71
-3
72
9
73
5
0
VERTEX
8
OBJECT041
10
0
20
0
30
0
70
128
71
9
72
7
73
-8
0
VERTEX
8
OBJECT041
10
0
20
0
30
0
70
128
71
-9
72
8
73
10
0
SEQEND
8
OBJECT041
0
POLYLINE
8
OBJECT042
66
1
70
64
71
8
72
12
62
50
0
VERTEX
8
OBJECT042
10
41.349388
20
-23.338074
30
48.000000
70
192
0
VERTEX
8
OBJECT042
10
41.349388
20
-23.338074
30
40.163269
70
192
0
VERTEX
8
OBJECT042
10
39.599998
20
-26.400000
30
40.163269
70
192
0
VERTEX
8
OBJECT042
10
39.599998
20
-26.400000
30
48.000000
70
192
0
VERTEX
8
OBJECT042
10
37.252335
20
-29.211365
30
40.163269
70
192
0
VERTEX
8
OBJECT042
10
37.252335
20
-29.211365
30
48.000000
70
192
0
VERTEX
8
OBJECT042
10
32.760975
20
6.720629
30
48.000000
70
192
0
VERTEX
8
OBJECT042
10
32.760975
20
6.720629
30
40.163269
70
192
0
VERTEX
8
OBJECT042
10
0
20
0
30
0
70
128
71
2
72
3
73
-4
0
VERTEX
8
OBJECT042
10
0
20
0
30
0
70
128
71
-2
72
4
73
1
0
VERTEX
8
OBJECT042
10
0
20
0
30
0
70
128
71
3
72
5
73
-6
0
VERTEX
8
OBJECT042
10
0
20
0
30
0
70
128
71
-3
72
6
73
4
0
VERTEX
8
OBJECT042
10
0
20
0
30
0
70
128
71
8
72
2
73
-1
0
VERTEX
8
OBJECT042
10
0
20
0
30
0
70
128
71
-8
72
1
73
7
0
VERTEX
8
OBJECT042
10
0
20
0
30
0
70
128
71
5
72
8
73
-7
0
VERTEX
8
OBJECT042
10
0
20
0
30
0
70
128
71
-5
72
7
73
6
0
VERTEX
8
OBJECT042
10
0
20
0
30
0
70
128
71
3
72
2
73
-8
0
VERTEX
8
OBJECT042
10
0
20
0
30
0
70
128
71
-3
72
8
73
5
0
VERTEX
8
OBJECT042
10
0
20
0
30
0
70
128
71
1
72
4
73
-6
0
VERTEX
8
OBJECT042
10
0
20
0
30
0
70
128
71
-1
72
6
73
7
0
SEQEND
8
OBJECT042
0
POLYLINE
8
OBJECT043
66
1
70
64
71
8
72
12
62
50
0
VERTEX
8
OBJECT043
10
41.348583
20
-23.339502
30
8.816327
70
192
0
VERTEX
8
OBJECT043
10
41.348583
20
-23.339502
30
-36.244896
70
192
0
VERTEX
8
OBJECT043
10
39.599998
20
-26.400000
30
-36.244896
70
192
0
VERTEX
8
OBJECT043
10
39.599998
20
-26.400000
30
8.816327
70
192
0
VERTEX
8
OBJECT043
10
37.252056
20
-29.211657
30
-36.244896
70
192
0
VERTEX
8
OBJECT043
10
37.252056
20
-29.211657
30
8.816327
70
192
0
VERTEX
8
OBJECT043
10
32.759472
20
6.723046
30
-36.244896
70
192
0
VERTEX
8
OBJECT043
10
32.759308
20
6.724365
30
8.816327
70
192
0
VERTEX
8
OBJECT043
10
0
20
0
30
0
70
128
71
2
72
3
73
-4
0
VERTEX
8
OBJECT043
10
0
20
0
30
0
70
128
71
-2
72
4
73
1
0
VERTEX
8
OBJECT043
10
0
20
0
30
0
70
128
71
3
72
5
73
-6
0
VERTEX
8
OBJECT043
10
0
20
0
30
0
70
128
71
-3
72
6
73
4
0
VERTEX
8
OBJECT043
10
0
20
0
30
0
70
128
71
3
72
2
73
-7
0
VERTEX
8
OBJECT043
10
0
20
0
30
0
70
128
71
-3
72
7
73
5
0
VERTEX
8
OBJECT043
10
0
20
0
30
0
70
128
71
7
72
2
73
-1
0
VERTEX
8
OBJECT043
10
0
20
0
30
0
70
128
71
-7
72
1
73
8
0
VERTEX
8
OBJECT043
10
0
20
0
30
0
70
128
71
5
72
7
73
-8
0
VERTEX
8
OBJECT043
10
0
20
0
30
0
70
128
71
-5
72
8
73
6
0
VERTEX
8
OBJECT043
10
0
20
0
30
0
70
128
71
1
72
4
73
-6
0
VERTEX
8
OBJECT043
10
0
20
0
30
0
70
128
71
-1
72
6
73
8
0
SEQEND
8
OBJECT043
0
POLYLINE
8
OBJECT044
66
1
70
64
71
10
72
16
62
50
0
VERTEX
8
OBJECT044
10
41.348606
20
-23.339464
30
40.163269
70
192
0
VERTEX
8
OBJECT044
10
41.348606
20
-23.339464
30
8.816327
70
192
0
VERTEX
8
OBJECT044
10
39.599998
20
-26.400000
30
8.816327
70
192
0
VERTEX
8
OBJECT044
10
39.599998
20
-26.400000
30
40.163269
70
192
0
VERTEX
8
OBJECT044
10
37.252075
20
-29.211657
30
8.816327
70
192
0
VERTEX
8
OBJECT044
10
37.252075
20
-29.211657
30
40.163269
70
192
0
VERTEX
8
OBJECT044
10
37.423462
20
-9.599999
30
8.816327
70
192
0
VERTEX
8
OBJECT044
10
37.423462
20
-9.599999
30
40.163269
70
192
0
VERTEX
8
OBJECT044
10
34.799999
20
-9.599999
30
8.816327
70
192
0
VERTEX
8
OBJECT044
10
34.799999
20
-9.599999
30
40.163269
70
192
0
VERTEX
8
OBJECT044
10
0
20
0
30
0
70
128
71
2
72
3
73
-4
0
VERTEX
8
OBJECT044
10
0
20
0
30
0
70
128
71
-2
72
4
73
1
0
VERTEX
8
OBJECT044
10
0
20
0
30
0
70
128
71
3
72
5
73
-6
0
VERTEX
8
OBJECT044
10
0
20
0
30
0
70
128
71
-3
72
6
73
4
0
VERTEX
8
OBJECT044
10
0
20
0
30
0
70
128
71
2
72
1
73
-8
0
VERTEX
8
OBJECT044
10
0
20
0
30
0
70
128
71
-2
72
8
73
7
0
VERTEX
8
OBJECT044
10
0
20
0
30
0
70
128
71
5
72
9
73
-10
0
VERTEX
8
OBJECT044
10
0
20
0
30
0
70
128
71
-5
72
10
73
6
0
VERTEX
8
OBJECT044
10
0
20
0
30
0
70
128
71
1
72
4
73
-6
0
VERTEX
8
OBJECT044
10
0
20
0
30
0
70
128
71
-1
72
6
73
-10
0
VERTEX
8
OBJECT044
10
0
20
0
30
0
70
128
71
-1
72
10
73
8
0
VERTEX
8
OBJECT044
10
0
20
0
30
0
70
128
71
3
72
2
73
-7
0
VERTEX
8
OBJECT044
10
0
20
0
30
0
70
128
71
-3
72
7
73
-9
0
VERTEX
8
OBJECT044
10
0
20
0
30
0
70
128
71
-3
72
9
73
5
0
VERTEX
8
OBJECT044
10
0
20
0
30
0
70
128
71
9
72
7
73
-8
0
VERTEX
8
OBJECT044
10
0
20
0
30
0
70
128
71
-9
72
8
73
10
0
SEQEND
8
OBJECT044
0
POLYLINE
8
OBJECT045
66
1
70
64
71
8
72
12
62
50
0
VERTEX
8
OBJECT045
10
37.251217
20
-29.212023
30
48.000000
70
192
0
VERTEX
8
OBJECT045
10
37.251217
20
-29.212023
30
40.163269
70
192
0
VERTEX
8
OBJECT045
10
33.599998
20
-33.599998
30
40.163269
70
192
0
VERTEX
8
OBJECT045
10
33.599998
20
-33.599998
30
48.000000
70
192
0
VERTEX
8
OBJECT045
10
28.910780
20
-37.506447
30
40.163269
70
192
0
VERTEX
8
OBJECT045
10
28.910780
20
-37.506447
30
48.000000
70
192
0
VERTEX
8
OBJECT045
10
33.599998
20
-0.000001
30
48.000000
70
192
0
VERTEX
8
OBJECT045
10
33.599998
20
-0.000001
30
40.163269
70
192
0
VERTEX
8
OBJECT045
10
0
20
0
30
0
70
128
71
2
72
3
73
-4
0
VERTEX
8
OBJECT045
10
0
20
0
30
0
70
128
71
-2
72
4
73
1
0
VERTEX
8
OBJECT045
10
0
20
0
30
0
70
128
71
3
72
5
73
-6
0
VERTEX
8
OBJECT045
10
0
20
0
30
0
70
128
71
-3
72
6
73
4
0
VERTEX
8
OBJECT045
10
0
20
0
30
0
70
128
71
8
72
2
73
-1
0
VERTEX
8
OBJECT045
10
0
20
0
30
0
70
128
71
-8
72
1
73
7
0
VERTEX
8
OBJECT045
10
0
20
0
30
0
70
128
71
5
72
8
73
-7
0
VERTEX
8
OBJECT045
10
0
20
0
30
0
70
128
71
-5
72
7
73
6
0
VERTEX
8
OBJECT045
10
0
20
0
30
0
70
128
71
3
72
2
73
-8
0
VERTEX
8
OBJECT045
10
0
20
0
30
0
70
128
71
-3
72
8
73
5
0
VERTEX
8
OBJECT045
10
0
20
0
30
0
70
128
71
1
72
4
73
-6
0
VERTEX
8
OBJECT045
10
0
20
0
30
0
70
128
71
-1
72
6
73
7
0
SEQEND
8
OBJECT045
0
POLYLINE
8
OBJECT046
66
1
70
64
71
8
72
12
62
50
0
VERTEX
8
OBJECT046
10
37.251160
20
-29.211584
30
8.816327
70
192
0
VERTEX
8
OBJECT046
10
37.251160
20
-29.211584
30
-36.244896
70
192
0
VERTEX
8
OBJECT046
10
33.599998
20
-33.599998
30
-36.244896
70
192
0
VERTEX
8
OBJECT046
10
33.599998
20
-33.599998
30
8.816327
70
192
0
VERTEX
8
OBJECT046
10
28.911806
20
-37.505566
30
-36.244896
70
192
0
VERTEX
8
OBJECT046
10
28.911806
20
-37.505566
30
8.816327
70
192
0
VERTEX
8
OBJECT046
10
33.599998
20
-0.000001
30
-36.244896
70
192
0
VERTEX
8
OBJECT046
10
33.599998
20
-0.000001
30
8.816327
70
192
0
VERTEX
8
OBJECT046
10
0
20
0
30
0
70
128
71
2
72
3
73
-4
0
VERTEX
8
OBJECT046
10
0
20
0
30
0
70
128
71
-2
72
4
73
1
0
VERTEX
8
OBJECT046
10
0
20
0
30
0
70
128
71
3
72
5
73
-6
0
VERTEX
8
OBJECT046
10
0
20
0
30
0
70
128
71
-3
72
6
73
4
0
VERTEX
8
OBJECT046
10
0
20
0
30
0
70
128
71
3
72
2
73
-7
0
VERTEX
8
OBJECT046
10
0
20
0
30
0
70
128
71
-3
72
7
73
5
0
VERTEX
8
OBJECT046
10
0
20
0
30
0
70
128
71
7
72
2
73
-1
0
VERTEX
8
OBJECT046
10
0
20
0
30
0
70
128
71
-7
72
1
73
8
0
VERTEX
8
OBJECT046
10
0
20
0
30
0
70
128
71
5
72
7
73
-8
0
VERTEX
8
OBJECT046
10
0
20
0
30
0
70
128
71
-5
72
8
73
6
0
VERTEX
8
OBJECT046
10
0
20
0
30
0
70
128
71
1
72
4
73
-6
0
VERTEX
8
OBJECT046
10
0
20
0
30
0
70
128
71
-1
72
6
73
8
0
SEQEND
8
OBJECT046
0
POLYLINE
8
OBJECT047
66
1
70
64
71
10
72
16
62
50
0
VERTEX
8
OBJECT047
10
37.251160
20
-29.211584
30
40.163269
70
192
0
VERTEX
8
OBJECT047
10
37.251160
20
-29.211584
30
8.816327
70
192
0
VERTEX
8
OBJECT047
10
33.599998
20
-33.599998
30
8.816327
70
192
0
VERTEX
8
OBJECT047
10
33.599998
20
-33.599998
30
40.163269
70
192
0
VERTEX
8
OBJECT047
10
28.911806
20
-37.505566
30
8.816327
70
192
0
VERTEX
8
OBJECT047
10
28.911806
20
-37.505566
30
40.163269
70
192
0
VERTEX
8
OBJECT047
10
34.799999
20
-9.599999
30
8.816327
70
192
0
VERTEX
8
OBJECT047
10
34.799999
20
-9.599999
30
40.163269
70
192
0
VERTEX
8
OBJECT047
10
32.399998
20
-9.599999
30
8.816327
70
192
0
VERTEX
8
OBJECT047
10
32.399998
20
-9.599999
30
40.163269
70
192
0
VERTEX
8
OBJECT047
10
0
20
0
30
0
70
128
71
2
72
3
73
-4
0
VERTEX
8
OBJECT047
10
0
20
0
30
0
70
128
71
-2
72
4
73
1
0
VERTEX
8
OBJECT047
10
0
20
0
30
0
70
128
71
3
72
5
73
-6
0
VERTEX
8
OBJECT047
10
0
20
0
30
0
70
128
71
-3
72
6
73
4
0
VERTEX
8
OBJECT047
10
0
20
0
30
0
70
128
71
2
72
1
73
-8
0
VERTEX
8
OBJECT047
10
0
20
0
30
0
70
128
71
-2
72
8
73
7
0
VERTEX
8
OBJECT047
10
0
20
0
30
0
70
128
71
5
72
9
73
-10
0
VERTEX
8
OBJECT047
10
0
20
0
30
0
70
128
71
-5
72
10
73
6
0
VERTEX
8
OBJECT047
10
0
20
0
30
0
70
128
71
1
72
4
73
-6
0
VERTEX
8
OBJECT047
10
0
20
0
30
0
70
128
71
-1
72
6
73
-10
0
VERTEX
8
OBJECT047
10
0
20
0
30
0
70
128
71
-1
72
10
73
8
0
VERTEX
8
OBJECT047
10
0
20
0
30
0
70
128
71
3
72
2
73
-7
0
VERTEX
8
OBJECT047
10
0
20
0
30
0
70
128
71
-3
72
7
73
-9
0
VERTEX
8
OBJECT047
10
0
20
0
30
0
70
128
71
-3
72
9
73
5
0
VERTEX
8
OBJECT047
10
0
20
0
30
0
70
128
71
9
72
7
73
-8
0
VERTEX
8
OBJECT047
10
0
20
0
30
0
70
128
71
-9
72
8
73
10
0
SEQEND
8
OBJECT047
0
POLYLINE
8
OBJECT048
66
1
70
64
71
8
72
12
62
50
0
VERTEX
8
OBJECT048
10
28.912079
20
-37.502163
30
48.000000
70
192
0
VERTEX
8
OBJECT048
10
28.912079
20
-37.502163
30
40.163269
70
192
0
VERTEX
8
OBJECT048
10
26.352484
20
-39.627247
30
40.163269
70
192
0
VERTEX
8
OBJECT048
10
26.352484
20
-39.627247
30
48.000000
70
192
0
VERTEX
8
OBJECT048
10
22.772406
20
-41.676563
30
40.163269
70
192
0
VERTEX
8
OBJECT048
10
22.772406
20
-41.676563
30
48.000000
70
192
0
VERTEX
8
OBJECT048
10
32.760277
20
-6.717847
30
48.000000
70
192
0
VERTEX
8
OBJECT048
10
32.760277
20
-6.717847
30
40.163269
70
192
0
VERTEX
8
OBJECT048
10
0
20
0
30
0
70
128
71
2
72
3
73
-4
0
VERTEX
8
OBJECT048
10
0
20
0
30
0
70
128
71
-2
72
4
73
1
0
VERTEX
8
OBJECT048
10
0
20
0
30
0
70
128
71
3
72
5
73
-6
0
VERTEX
8
OBJECT048
10
0
20
0
30
0
70
128
71
-3
72
6
73
4
0
VERTEX
8
OBJECT048
10
0
20
0
30
0
70
128
71
8
72
2
73
-1
0
VERTEX
8
OBJECT048
10
0
20
0
30
0
70
128
71
-8
72
1
73
7
0
VERTEX
8
OBJECT048
10
0
20
0
30
0
70
128
71
5
72
8
73
-7
0
VERTEX
8
OBJECT048
10
0
20
0
30
0
70
128
71
-5
72
7
73
6
0
VERTEX
8
OBJECT048
10
0
20
0
30
0
70
128
71
3
72
2
73
-8
0
VERTEX
8
OBJECT048
10
0
20
0
30
0
70
128
71
-3
72
8
73
5
0
VERTEX
8
OBJECT048
10
0
20
0
30
0
70
128
71
4
72
6
73
-7
0
VERTEX
8
OBJECT048
10
0
20
0
30
0
70
128
71
-4
72
7
73
1
0
SEQEND
8
OBJECT048
0
POLYLINE
8
OBJECT049
66
1
70
64
71
8
72
12
62
50
0
VERTEX
8
OBJECT049
10
28.911274
20
-37.511059
30
8.816327
70
192
0
VERTEX
8
OBJECT049
10
28.911274
20
-37.511059
30
-36.244896
70
192
0
VERTEX
8
OBJECT049
10
26.400000
20
-39.599998
30
-36.244896
70
192
0
VERTEX
8
OBJECT049
10
26.400000
20
-39.599998
30
8.816327
70
192
0
VERTEX
8
OBJECT049
10
22.773743
20
-41.671871
30
-36.244896
70
192
0
VERTEX
8
OBJECT049
10
22.773743
20
-41.671871
30
8.816327
70
192
0
VERTEX
8
OBJECT049
10
32.761086
20
-6.712574
30
-36.244896
70
192
0
VERTEX
8
OBJECT049
10
32.760681
20
-6.714039
30
8.816327
70
192
0
VERTEX
8
OBJECT049
10
0
20
0
30
0
70
128
71
2
72
3
73
-4
0
VERTEX
8
OBJECT049
10
0
20
0
30
0
70
128
71
-2
72
4
73
1
0
VERTEX
8
OBJECT049
10
0
20
0
30
0
70
128
71
3
72
5
73
-6
0
VERTEX
8
OBJECT049
10
0
20
0
30
0
70
128
71
-3
72
6
73
4
0
VERTEX
8
OBJECT049
10
0
20
0
30
0
70
128
71
3
72
2
73
-7
0
VERTEX
8
OBJECT049
10
0
20
0
30
0
70
128
71
-3
72
7
73
5
0
VERTEX
8
OBJECT049
10
0
20
0
30
0
70
128
71
7
72
2
73
-1
0
VERTEX
8
OBJECT049
10
0
20
0
30
0
70
128
71
-7
72
1
73
8
0
VERTEX
8
OBJECT049
10
0
20
0
30
0
70
128
71
5
72
7
73
-8
0
VERTEX
8
OBJECT049
10
0
20
0
30
0
70
128
71
-5
72
8
73
6
0
VERTEX
8
OBJECT049
10
0
20
0
30
0
70
128
71
4
72
6
73
-8
0
VERTEX
8
OBJECT049
10
0
20
0
30
0
70
128
71
-4
72
8
73
1
0
SEQEND
8
OBJECT049
0
POLYLINE
8
OBJECT050
66
1
70
64
71
6
72
8
62
50
0
VERTEX
8
OBJECT050
10
24.000000
20
-40.970688
30
8.816327
70
192
0
VERTEX
8
OBJECT050
10
22.774584
20
-41.670406
30
8.816327
70
192
0
VERTEX
8
OBJECT050
10
22.774584
20
-41.670406
30
40.163269
70
192
0
VERTEX
8
OBJECT050
10
24.000000
20
-40.970688
30
40.163269
70
192
0
VERTEX
8
OBJECT050
10
24.000000
20
-37.376148
30
8.816327
70
192
0
VERTEX
8
OBJECT050
10
24.000000
20
-37.376148
30
40.163269
70
192
0
VERTEX
8
OBJECT050
10
0
20
0
30
0
70
128
71
2
72
3
73
-4
0
VERTEX
8
OBJECT050
10
0
20
0
30
0
70
128
71
-2
72
4
73
1
0
VERTEX
8
OBJECT050
10
0
20
0
30
0
70
128
71
2
72
5
73
-6
0
VERTEX
8
OBJECT050
10
0
20
0
30
0
70
128
71
-2
72
6
73
3
0
VERTEX
8
OBJECT050
10
0
20
0
30
0
70
128
71
3
72
6
73
4
0
VERTEX
8
OBJECT050
10
0
20
0
30
0
70
128
71
2
72
1
73
5
0
VERTEX
8
OBJECT050
10
0
20
0
30
0
70
128
71
5
72
1
73
-4
0
VERTEX
8
OBJECT050
10
0
20
0
30
0
70
128
71
-5
72
4
73
6
0
SEQEND
8
OBJECT050
0
POLYLINE
8
OBJECT051
66
1
70
64
71
12
72
20
62
50
0
VERTEX
8
OBJECT051
10
28.911274
20
-37.511021
30
40.163269
70
192
0
VERTEX
8
OBJECT051
10
28.911274
20
-37.511021
30
8.816327
70
192
0
VERTEX
8
OBJECT051
10
26.400000
20
-39.599998
30
8.816327
70
192
0
VERTEX
8
OBJECT051
10
26.400000
20
-39.599998
30
40.163269
70
192
0
VERTEX
8
OBJECT051
10
24.000000
20
-40.971348
30
8.816327
70
192
0
VERTEX
8
OBJECT051
10
24.000000
20
-40.971348
30
40.163269
70
192
0
VERTEX
8
OBJECT051
10
32.399998
20
-9.599999
30
8.816327
70
192
0
VERTEX
8
OBJECT051
10
32.399998
20
-9.599999
30
40.163269
70
192
0
VERTEX
8
OBJECT051
10
24.000000
20
-37.376514
30
8.816327
70
192
0
VERTEX
8
OBJECT051
10
31.936489
20
-9.599999
30
8.816327
70
192
0
VERTEX
8
OBJECT051
10
31.936489
20
-9.599999
30
40.163269
70
192
0
VERTEX
8
OBJECT051
10
24.000000
20
-37.376514
30
40.163269
70
192
0
VERTEX
8
OBJECT051
10
0
20
0
30
0
70
128
71
2
72
3
73
-4
0
VERTEX
8
OBJECT051
10
0
20
0
30
0
70
128
71
-2
72
4
73
1
0
VERTEX
8
OBJECT051
10
0
20
0
30
0
70
128
71
3
72
5
73
-6
0
VERTEX
8
OBJECT051
10
0
20
0
30
0
70
128
71
-3
72
6
73
4
0
VERTEX
8
OBJECT051
10
0
20
0
30
0
70
128
71
2
72
1
73
-8
0
VERTEX
8
OBJECT051
10
0
20
0
30
0
70
128
71
-2
72
8
73
7
0
VERTEX
8
OBJECT051
10
0
20
0
30
0
70
128
71
10
72
11
73
-12
0
VERTEX
8
OBJECT051
10
0
20
0
30
0
70
128
71
-10
72
12
73
9
0
VERTEX
8
OBJECT051
10
0
20
0
30
0
70
128
71
4
72
6
73
-12
0
VERTEX
8
OBJECT051
10
0
20
0
30
0
70
128
71
-4
72
12
73
-11
0
VERTEX
8
OBJECT051
10
0
20
0
30
0
70
128
71
-4
72
11
73
-8
0
VERTEX
8
OBJECT051
10
0
20
0
30
0
70
128
71
-4
72
8
73
1
0
VERTEX
8
OBJECT051
10
0
20
0
30
0
70
128
71
3
72
2
73
-7
0
VERTEX
8
OBJECT051
10
0
20
0
30
0
70
128
71
-3
72
7
73
-10
0
VERTEX
8
OBJECT051
10
0
20
0
30
0
70
128
71
-3
72
10
73
-9
0
VERTEX
8
OBJECT051
10
0
20
0
30
0
70
128
71
-3
72
9
73
5
0
VERTEX
8
OBJECT051
10
0
20
0
30
0
70
128
71
5
72
9
73
-12
0
VERTEX
8
OBJECT051
10
0
20
0
30
0
70
128
71
-5
72
12
73
6
0
VERTEX
8
OBJECT051
10
0
20
0
30
0
70
128
71
10
72
7
73
-8
0
VERTEX
8
OBJECT051
10
0
20
0
30
0
70
128
71
-10
72
8
73
11
0
SEQEND
8
OBJECT051
0
ENDSEC
0
EOF
