0
SECTION
2
HEADER
9
$ACADVER
1
AC1008
9
$UCSORG
10
0.0
20
0.0
30
0.0
9
$UCSXDIR
10
1.0
20
0.0
30
0.0
9
$TILEMODE
70
1
9
$UCSYDIR
10
0.0
20
1.0
30
0.0
9
$EXTMIN
10
-168.000000
20
-67.813416
30
-32.000000
9
$EXTMAX
10
151.999985
20
60.186584
30
96.000000
0
ENDSEC
0
SECTION
2
TABLES
0
TABLE
2
LTYPE
70
1
0
LTYPE
2
CONTINUOUS
70
64
3
Solid line
72
65
73
0
40
0.0
0
ENDTAB
0
TABLE
2
LAYER
70
1
0
LAYER
2
0
70
0
62
7
6
CONTINUOUS
0
ENDTAB
0
TABLE
2
STYLE
70
1
0
STYLE
2
STANDARD
70
0
40
0.0
41
1.0
50
0.0
71
0
42
0.2
3
txt
4

0
ENDTAB
0
TABLE
2
UCS
70
0
0
ENDTAB
0
ENDSEC
0
SECTION
2
ENTITIES
0
POLYLINE
8
OBJECT000
66
1
70
64
71
8
72
12
62
50
0
VERTEX
8
OBJECT000
10
53.587418
20
-17.813416
30
24.655735
70
192
0
VERTEX
8
OBJECT000
10
45.635212
20
-17.813416
30
-2.622953
70
192
0
VERTEX
8
OBJECT000
10
41.659599
20
-17.813416
30
-0.524592
70
192
0
VERTEX
8
OBJECT000
10
49.611832
20
-17.813416
30
26.754095
70
192
0
VERTEX
8
OBJECT000
10
49.611832
20
10.186584
30
26.754095
70
192
0
VERTEX
8
OBJECT000
10
41.659599
20
10.186584
30
-0.524592
70
192
0
VERTEX
8
OBJECT000
10
45.635212
20
10.186584
30
-2.622953
70
192
0
VERTEX
8
OBJECT000
10
53.587418
20
10.186584
30
24.655735
70
192
0
VERTEX
8
OBJECT000
10
0
20
0
30
0
70
128
71
2
72
3
73
-4
0
VERTEX
8
OBJECT000
10
0
20
0
30
0
70
128
71
-2
72
4
73
1
0
VERTEX
8
OBJECT000
10
0
20
0
30
0
70
128
71
6
72
7
73
-8
0
VERTEX
8
OBJECT000
10
0
20
0
30
0
70
128
71
-6
72
8
73
5
0
VERTEX
8
OBJECT000
10
0
20
0
30
0
70
128
71
6
72
3
73
-2
0
VERTEX
8
OBJECT000
10
0
20
0
30
0
70
128
71
-6
72
2
73
7
0
VERTEX
8
OBJECT000
10
0
20
0
30
0
70
128
71
3
72
6
73
-5
0
VERTEX
8
OBJECT000
10
0
20
0
30
0
70
128
71
-3
72
5
73
4
0
VERTEX
8
OBJECT000
10
0
20
0
30
0
70
128
71
7
72
2
73
-1
0
VERTEX
8
OBJECT000
10
0
20
0
30
0
70
128
71
-7
72
1
73
8
0
VERTEX
8
OBJECT000
10
0
20
0
30
0
70
128
71
4
72
5
73
-8
0
VERTEX
8
OBJECT000
10
0
20
0
30
0
70
128
71
-4
72
8
73
1
0
SEQEND
8
OBJECT000
0
POLYLINE
8
OBJECT001
66
1
70
64
71
8
72
12
62
50
0
VERTEX
8
OBJECT001
10
45.634850
20
-7.813416
30
-2.622953
70
192
0
VERTEX
8
OBJECT001
10
44.640778
20
-7.813416
30
-6.819675
70
192
0
VERTEX
8
OBJECT001
10
42.652847
20
-7.813416
30
-6.819675
70
192
0
VERTEX
8
OBJECT001
10
43.646889
20
-7.813416
30
-1.573773
70
192
0
VERTEX
8
OBJECT001
10
43.646889
20
0.186584
30
-1.573773
70
192
0
VERTEX
8
OBJECT001
10
42.652847
20
0.186584
30
-6.819675
70
192
0
VERTEX
8
OBJECT001
10
44.640778
20
0.186584
30
-6.819675
70
192
0
VERTEX
8
OBJECT001
10
45.634850
20
0.186584
30
-2.622953
70
192
0
VERTEX
8
OBJECT001
10
0
20
0
30
0
70
128
71
2
72
3
73
-4
0
VERTEX
8
OBJECT001
10
0
20
0
30
0
70
128
71
-2
72
4
73
1
0
VERTEX
8
OBJECT001
10
0
20
0
30
0
70
128
71
6
72
7
73
-8
0
VERTEX
8
OBJECT001
10
0
20
0
30
0
70
128
71
-6
72
8
73
5
0
VERTEX
8
OBJECT001
10
0
20
0
30
0
70
128
71
6
72
3
73
-2
0
VERTEX
8
OBJECT001
10
0
20
0
30
0
70
128
71
-6
72
2
73
7
0
VERTEX
8
OBJECT001
10
0
20
0
30
0
70
128
71
3
72
6
73
-5
0
VERTEX
8
OBJECT001
10
0
20
0
30
0
70
128
71
-3
72
5
73
4
0
VERTEX
8
OBJECT001
10
0
20
0
30
0
70
128
71
7
72
2
73
-1
0
VERTEX
8
OBJECT001
10
0
20
0
30
0
70
128
71
-7
72
1
73
8
0
VERTEX
8
OBJECT001
10
0
20
0
30
0
70
128
71
4
72
5
73
-8
0
VERTEX
8
OBJECT001
10
0
20
0
30
0
70
128
71
-4
72
8
73
1
0
SEQEND
8
OBJECT001
0
POLYLINE
8
OBJECT002
66
1
70
64
71
8
72
12
62
50
0
VERTEX
8
OBJECT002
10
45.634850
20
10.186584
30
-6.819675
70
192
0
VERTEX
8
OBJECT002
10
45.634850
20
10.186584
30
-11.016397
70
192
0
VERTEX
8
OBJECT002
10
45.634850
20
-17.813416
30
-11.016397
70
192
0
VERTEX
8
OBJECT002
10
45.634850
20
-17.813416
30
-6.819675
70
192
0
VERTEX
8
OBJECT002
10
21.777145
20
-17.813416
30
-11.016397
70
192
0
VERTEX
8
OBJECT002
10
19.789005
20
-17.813416
30
-6.819675
70
192
0
VERTEX
8
OBJECT002
10
21.777145
20
10.186584
30
-11.016397
70
192
0
VERTEX
8
OBJECT002
10
19.789005
20
10.186584
30
-6.819675
70
192
0
VERTEX
8
OBJECT002
10
0
20
0
30
0
70
128
71
2
72
3
73
-4
0
VERTEX
8
OBJECT002
10
0
20
0
30
0
70
128
71
-2
72
4
73
1
0
VERTEX
8
OBJECT002
10
0
20
0
30
0
70
128
71
3
72
5
73
-6
0
VERTEX
8
OBJECT002
10
0
20
0
30
0
70
128
71
-3
72
6
73
4
0
VERTEX
8
OBJECT002
10
0
20
0
30
0
70
128
71
2
72
1
73
-8
0
VERTEX
8
OBJECT002
10
0
20
0
30
0
70
128
71
-2
72
8
73
7
0
VERTEX
8
OBJECT002
10
0
20
0
30
0
70
128
71
3
72
2
73
-7
0
VERTEX
8
OBJECT002
10
0
20
0
30
0
70
128
71
-3
72
7
73
5
0
VERTEX
8
OBJECT002
10
0
20
0
30
0
70
128
71
1
72
4
73
-6
0
VERTEX
8
OBJECT002
10
0
20
0
30
0
70
128
71
-1
72
6
73
8
0
VERTEX
8
OBJECT002
10
0
20
0
30
0
70
128
71
5
72
7
73
-8
0
VERTEX
8
OBJECT002
10
0
20
0
30
0
70
128
71
-5
72
8
73
6
0
SEQEND
8
OBJECT002
0
POLYLINE
8
OBJECT003
66
1
70
64
71
8
72
12
62
50
0
VERTEX
8
OBJECT003
10
33.705997
20
10.186584
30
1.573768
70
192
0
VERTEX
8
OBJECT003
10
33.705997
20
10.186584
30
-11.016397
70
192
0
VERTEX
8
OBJECT003
10
33.705997
20
12.186584
30
-8.918036
70
192
0
VERTEX
8
OBJECT003
10
33.705997
20
12.186584
30
1.573768
70
192
0
VERTEX
8
OBJECT003
10
35.694138
20
12.186584
30
1.573768
70
192
0
VERTEX
8
OBJECT003
10
35.694138
20
12.186584
30
-8.918036
70
192
0
VERTEX
8
OBJECT003
10
35.694138
20
10.186584
30
-11.016397
70
192
0
VERTEX
8
OBJECT003
10
35.694138
20
10.186584
30
1.573768
70
192
0
VERTEX
8
OBJECT003
10
0
20
0
30
0
70
128
71
2
72
3
73
-4
0
VERTEX
8
OBJECT003
10
0
20
0
30
0
70
128
71
-2
72
4
73
1
0
VERTEX
8
OBJECT003
10
0
20
0
30
0
70
128
71
6
72
7
73
-8
0
VERTEX
8
OBJECT003
10
0
20
0
30
0
70
128
71
-6
72
8
73
5
0
VERTEX
8
OBJECT003
10
0
20
0
30
0
70
128
71
7
72
2
73
-1
0
VERTEX
8
OBJECT003
10
0
20
0
30
0
70
128
71
-7
72
1
73
8
0
VERTEX
8
OBJECT003
10
0
20
0
30
0
70
128
71
3
72
6
73
-5
0
VERTEX
8
OBJECT003
10
0
20
0
30
0
70
128
71
-3
72
5
73
4
0
VERTEX
8
OBJECT003
10
0
20
0
30
0
70
128
71
4
72
5
73
-8
0
VERTEX
8
OBJECT003
10
0
20
0
30
0
70
128
71
-4
72
8
73
1
0
VERTEX
8
OBJECT003
10
0
20
0
30
0
70
128
71
2
72
7
73
-6
0
VERTEX
8
OBJECT003
10
0
20
0
30
0
70
128
71
-2
72
6
73
3
0
SEQEND
8
OBJECT003
0
POLYLINE
8
OBJECT004
66
1
70
64
71
8
72
12
62
50
0
VERTEX
8
OBJECT004
10
45.634850
20
14.186584
30
3.672129
70
192
0
VERTEX
8
OBJECT004
10
45.634850
20
14.186584
30
1.573768
70
192
0
VERTEX
8
OBJECT004
10
45.634850
20
10.186584
30
1.573768
70
192
0
VERTEX
8
OBJECT004
10
45.634850
20
10.186584
30
3.672129
70
192
0
VERTEX
8
OBJECT004
10
25.753431
20
10.186584
30
1.573768
70
192
0
VERTEX
8
OBJECT004
10
25.753431
20
10.186584
30
3.672129
70
192
0
VERTEX
8
OBJECT004
10
27.741573
20
14.186584
30
1.573768
70
192
0
VERTEX
8
OBJECT004
10
27.741573
20
14.186584
30
3.672129
70
192
0
VERTEX
8
OBJECT004
10
0
20
0
30
0
70
128
71
2
72
3
73
-4
0
VERTEX
8
OBJECT004
10
0
20
0
30
0
70
128
71
-2
72
4
73
1
0
VERTEX
8
OBJECT004
10
0
20
0
30
0
70
128
71
3
72
5
73
-6
0
VERTEX
8
OBJECT004
10
0
20
0
30
0
70
128
71
-3
72
6
73
4
0
VERTEX
8
OBJECT004
10
0
20
0
30
0
70
128
71
2
72
1
73
-8
0
VERTEX
8
OBJECT004
10
0
20
0
30
0
70
128
71
-2
72
8
73
7
0
VERTEX
8
OBJECT004
10
0
20
0
30
0
70
128
71
3
72
2
73
-7
0
VERTEX
8
OBJECT004
10
0
20
0
30
0
70
128
71
-3
72
7
73
5
0
VERTEX
8
OBJECT004
10
0
20
0
30
0
70
128
71
1
72
4
73
-6
0
VERTEX
8
OBJECT004
10
0
20
0
30
0
70
128
71
-1
72
6
73
8
0
VERTEX
8
OBJECT004
10
0
20
0
30
0
70
128
71
5
72
7
73
-8
0
VERTEX
8
OBJECT004
10
0
20
0
30
0
70
128
71
-5
72
8
73
6
0
SEQEND
8
OBJECT004
0
POLYLINE
8
OBJECT005
66
1
70
64
71
8
72
12
62
50
0
VERTEX
8
OBJECT005
10
45.634850
20
-17.813416
30
3.672129
70
192
0
VERTEX
8
OBJECT005
10
45.634850
20
-17.813416
30
1.573768
70
192
0
VERTEX
8
OBJECT005
10
45.634850
20
-21.813416
30
1.573768
70
192
0
VERTEX
8
OBJECT005
10
45.634850
20
-21.813416
30
3.672129
70
192
0
VERTEX
8
OBJECT005
10
27.741573
20
-21.813416
30
1.573768
70
192
0
VERTEX
8
OBJECT005
10
27.741573
20
-21.813416
30
3.672129
70
192
0
VERTEX
8
OBJECT005
10
25.753431
20
-17.813416
30
1.573768
70
192
0
VERTEX
8
OBJECT005
10
25.753431
20
-17.813416
30
3.672129
70
192
0
VERTEX
8
OBJECT005
10
0
20
0
30
0
70
128
71
2
72
3
73
-4
0
VERTEX
8
OBJECT005
10
0
20
0
30
0
70
128
71
-2
72
4
73
1
0
VERTEX
8
OBJECT005
10
0
20
0
30
0
70
128
71
3
72
5
73
-6
0
VERTEX
8
OBJECT005
10
0
20
0
30
0
70
128
71
-3
72
6
73
4
0
VERTEX
8
OBJECT005
10
0
20
0
30
0
70
128
71
2
72
1
73
-8
0
VERTEX
8
OBJECT005
10
0
20
0
30
0
70
128
71
-2
72
8
73
7
0
VERTEX
8
OBJECT005
10
0
20
0
30
0
70
128
71
3
72
2
73
-7
0
VERTEX
8
OBJECT005
10
0
20
0
30
0
70
128
71
-3
72
7
73
5
0
VERTEX
8
OBJECT005
10
0
20
0
30
0
70
128
71
1
72
4
73
-6
0
VERTEX
8
OBJECT005
10
0
20
0
30
0
70
128
71
-1
72
6
73
8
0
VERTEX
8
OBJECT005
10
0
20
0
30
0
70
128
71
5
72
7
73
-8
0
VERTEX
8
OBJECT005
10
0
20
0
30
0
70
128
71
-5
72
8
73
6
0
SEQEND
8
OBJECT005
0
POLYLINE
8
OBJECT006
66
1
70
64
71
8
72
12
62
50
0
VERTEX
8
OBJECT006
10
33.705997
20
-19.813416
30
1.573768
70
192
0
VERTEX
8
OBJECT006
10
33.705997
20
-19.813416
30
-6.840342
70
192
0
VERTEX
8
OBJECT006
10
33.705997
20
-17.813416
30
-11.037064
70
192
0
VERTEX
8
OBJECT006
10
33.705997
20
-17.813416
30
1.573768
70
192
0
VERTEX
8
OBJECT006
10
35.694138
20
-17.813416
30
1.573768
70
192
0
VERTEX
8
OBJECT006
10
35.694138
20
-17.813416
30
-11.037064
70
192
0
VERTEX
8
OBJECT006
10
35.694138
20
-19.813416
30
-6.840342
70
192
0
VERTEX
8
OBJECT006
10
35.694138
20
-19.813416
30
1.573768
70
192
0
VERTEX
8
OBJECT006
10
0
20
0
30
0
70
128
71
2
72
3
73
-4
0
VERTEX
8
OBJECT006
10
0
20
0
30
0
70
128
71
-2
72
4
73
1
0
VERTEX
8
OBJECT006
10
0
20
0
30
0
70
128
71
6
72
7
73
-8
0
VERTEX
8
OBJECT006
10
0
20
0
30
0
70
128
71
-6
72
8
73
5
0
VERTEX
8
OBJECT006
10
0
20
0
30
0
70
128
71
7
72
2
73
-1
0
VERTEX
8
OBJECT006
10
0
20
0
30
0
70
128
71
-7
72
1
73
8
0
VERTEX
8
OBJECT006
10
0
20
0
30
0
70
128
71
3
72
6
73
-5
0
VERTEX
8
OBJECT006
10
0
20
0
30
0
70
128
71
-3
72
5
73
4
0
VERTEX
8
OBJECT006
10
0
20
0
30
0
70
128
71
4
72
5
73
-8
0
VERTEX
8
OBJECT006
10
0
20
0
30
0
70
128
71
-4
72
8
73
1
0
VERTEX
8
OBJECT006
10
0
20
0
30
0
70
128
71
6
72
3
73
-2
0
VERTEX
8
OBJECT006
10
0
20
0
30
0
70
128
71
-6
72
2
73
7
0
SEQEND
8
OBJECT006
0
POLYLINE
8
OBJECT007
66
1
70
64
71
8
72
12
62
50
0
VERTEX
8
OBJECT007
10
31.717857
20
-5.813416
30
-11.016397
70
192
0
VERTEX
8
OBJECT007
10
31.717857
20
-5.813416
30
-29.901638
70
192
0
VERTEX
8
OBJECT007
10
31.717857
20
-1.813416
30
-29.901638
70
192
0
VERTEX
8
OBJECT007
10
31.717857
20
-1.813416
30
-11.016397
70
192
0
VERTEX
8
OBJECT007
10
35.694138
20
-1.813416
30
-11.016397
70
192
0
VERTEX
8
OBJECT007
10
35.694138
20
-1.813416
30
-29.901638
70
192
0
VERTEX
8
OBJECT007
10
35.694138
20
-5.813416
30
-29.901638
70
192
0
VERTEX
8
OBJECT007
10
35.694138
20
-5.813416
30
-11.016397
70
192
0
VERTEX
8
OBJECT007
10
0
20
0
30
0
70
128
71
2
72
3
73
-4
0
VERTEX
8
OBJECT007
10
0
20
0
30
0
70
128
71
-2
72
4
73
1
0
VERTEX
8
OBJECT007
10
0
20
0
30
0
70
128
71
6
72
7
73
-8
0
VERTEX
8
OBJECT007
10
0
20
0
30
0
70
128
71
-6
72
8
73
5
0
VERTEX
8
OBJECT007
10
0
20
0
30
0
70
128
71
7
72
2
73
-1
0
VERTEX
8
OBJECT007
10
0
20
0
30
0
70
128
71
-7
72
1
73
8
0
VERTEX
8
OBJECT007
10
0
20
0
30
0
70
128
71
3
72
6
73
-5
0
VERTEX
8
OBJECT007
10
0
20
0
30
0
70
128
71
-3
72
5
73
4
0
VERTEX
8
OBJECT007
10
0
20
0
30
0
70
128
71
2
72
7
73
-6
0
VERTEX
8
OBJECT007
10
0
20
0
30
0
70
128
71
-2
72
6
73
3
0
VERTEX
8
OBJECT007
10
0
20
0
30
0
70
128
71
4
72
5
73
-8
0
VERTEX
8
OBJECT007
10
0
20
0
30
0
70
128
71
-4
72
8
73
1
0
SEQEND
8
OBJECT007
0
POLYLINE
8
OBJECT008
66
1
70
64
71
8
72
12
62
50
0
VERTEX
8
OBJECT008
10
3.883870
20
10.186584
30
-32.000000
70
192
0
VERTEX
8
OBJECT008
10
-12.022539
20
10.186584
30
-32.000000
70
192
0
VERTEX
8
OBJECT008
10
-12.022539
20
-17.813416
30
-32.000000
70
192
0
VERTEX
8
OBJECT008
10
3.883870
20
-17.813416
30
-32.000000
70
192
0
VERTEX
8
OBJECT008
10
-12.021266
20
-17.813416
30
18.360653
70
192
0
VERTEX
8
OBJECT008
10
-12.021266
20
10.186584
30
18.360653
70
192
0
VERTEX
8
OBJECT008
10
9.697188
20
10.186584
30
4.816980
70
192
0
VERTEX
8
OBJECT008
10
9.697188
20
-17.813416
30
4.816980
70
192
0
VERTEX
8
OBJECT008
10
0
20
0
30
0
70
128
71
2
72
3
73
-4
0
VERTEX
8
OBJECT008
10
0
20
0
30
0
70
128
71
-2
72
4
73
1
0
VERTEX
8
OBJECT008
10
0
20
0
30
0
70
128
71
3
72
2
73
-6
0
VERTEX
8
OBJECT008
10
0
20
0
30
0
70
128
71
-3
72
6
73
5
0
VERTEX
8
OBJECT008
10
0
20
0
30
0
70
128
71
2
72
1
73
-7
0
VERTEX
8
OBJECT008
10
0
20
0
30
0
70
128
71
-2
72
7
73
6
0
VERTEX
8
OBJECT008
10
0
20
0
30
0
70
128
71
4
72
3
73
-5
0
VERTEX
8
OBJECT008
10
0
20
0
30
0
70
128
71
-4
72
5
73
8
0
VERTEX
8
OBJECT008
10
0
20
0
30
0
70
128
71
1
72
4
73
-8
0
VERTEX
8
OBJECT008
10
0
20
0
30
0
70
128
71
-1
72
8
73
7
0
VERTEX
8
OBJECT008
10
0
20
0
30
0
70
128
71
6
72
7
73
-8
0
VERTEX
8
OBJECT008
10
0
20
0
30
0
70
128
71
-6
72
8
73
5
0
SEQEND
8
OBJECT008
0
POLYLINE
8
OBJECT009
66
1
70
64
71
8
72
12
62
50
0
VERTEX
8
OBJECT009
10
2.891134
20
-26.813416
30
7.807375
70
192
0
VERTEX
8
OBJECT009
10
2.891134
20
-26.813416
30
1.573768
70
192
0
VERTEX
8
OBJECT009
10
5.872710
20
-29.813416
30
1.573768
70
192
0
VERTEX
8
OBJECT009
10
5.872710
20
-29.813416
30
7.807375
70
192
0
VERTEX
8
OBJECT009
10
4.878639
20
-30.813416
30
7.807375
70
192
0
VERTEX
8
OBJECT009
10
4.878639
20
-30.813416
30
1.573768
70
192
0
VERTEX
8
OBJECT009
10
1.897062
20
-27.813416
30
1.573768
70
192
0
VERTEX
8
OBJECT009
10
1.897062
20
-27.813416
30
7.807375
70
192
0
VERTEX
8
OBJECT009
10
0
20
0
30
0
70
128
71
2
72
3
73
-4
0
VERTEX
8
OBJECT009
10
0
20
0
30
0
70
128
71
-2
72
4
73
1
0
VERTEX
8
OBJECT009
10
0
20
0
30
0
70
128
71
6
72
7
73
-8
0
VERTEX
8
OBJECT009
10
0
20
0
30
0
70
128
71
-6
72
8
73
5
0
VERTEX
8
OBJECT009
10
0
20
0
30
0
70
128
71
3
72
6
73
-5
0
VERTEX
8
OBJECT009
10
0
20
0
30
0
70
128
71
-3
72
5
73
4
0
VERTEX
8
OBJECT009
10
0
20
0
30
0
70
128
71
7
72
2
73
-1
0
VERTEX
8
OBJECT009
10
0
20
0
30
0
70
128
71
-7
72
1
73
8
0
VERTEX
8
OBJECT009
10
0
20
0
30
0
70
128
71
8
72
1
73
-4
0
VERTEX
8
OBJECT009
10
0
20
0
30
0
70
128
71
-8
72
4
73
5
0
VERTEX
8
OBJECT009
10
0
20
0
30
0
70
128
71
6
72
3
73
-2
0
VERTEX
8
OBJECT009
10
0
20
0
30
0
70
128
71
-6
72
2
73
7
0
SEQEND
8
OBJECT009
0
POLYLINE
8
OBJECT010
66
1
70
64
71
8
72
12
62
50
0
VERTEX
8
OBJECT010
10
21.776510
20
-47.813416
30
21.508192
70
192
0
VERTEX
8
OBJECT010
10
4.878062
20
-30.813416
30
21.508192
70
192
0
VERTEX
8
OBJECT010
10
5.872133
20
-29.813416
30
21.508192
70
192
0
VERTEX
8
OBJECT010
10
22.770580
20
-46.813416
30
21.508192
70
192
0
VERTEX
8
OBJECT010
10
4.878062
20
-30.813416
30
-3.672133
70
192
0
VERTEX
8
OBJECT010
10
21.776510
20
-47.813416
30
-3.672133
70
192
0
VERTEX
8
OBJECT010
10
22.770580
20
-46.813416
30
-3.672133
70
192
0
VERTEX
8
OBJECT010
10
5.872133
20
-29.813416
30
-3.672133
70
192
0
VERTEX
8
OBJECT010
10
0
20
0
30
0
70
128
71
2
72
3
73
-4
0
VERTEX
8
OBJECT010
10
0
20
0
30
0
70
128
71
-2
72
4
73
1
0
VERTEX
8
OBJECT010
10
0
20
0
30
0
70
128
71
6
72
7
73
-8
0
VERTEX
8
OBJECT010
10
0
20
0
30
0
70
128
71
-6
72
8
73
5
0
VERTEX
8
OBJECT010
10
0
20
0
30
0
70
128
71
5
72
2
73
-1
0
VERTEX
8
OBJECT010
10
0
20
0
30
0
70
128
71
-5
72
1
73
6
0
VERTEX
8
OBJECT010
10
0
20
0
30
0
70
128
71
7
72
4
73
-3
0
VERTEX
8
OBJECT010
10
0
20
0
30
0
70
128
71
-7
72
3
73
8
0
VERTEX
8
OBJECT010
10
0
20
0
30
0
70
128
71
8
72
3
73
-2
0
VERTEX
8
OBJECT010
10
0
20
0
30
0
70
128
71
-8
72
2
73
5
0
VERTEX
8
OBJECT010
10
0
20
0
30
0
70
128
71
6
72
1
73
-4
0
VERTEX
8
OBJECT010
10
0
20
0
30
0
70
128
71
-6
72
4
73
7
0
SEQEND
8
OBJECT010
0
POLYLINE
8
OBJECT011
66
1
70
64
71
8
72
12
62
50
0
VERTEX
8
OBJECT011
10
-0.092474
20
-17.813416
30
-0.404396
70
192
0
VERTEX
8
OBJECT011
10
1.895698
20
-17.813416
30
1.460455
70
192
0
VERTEX
8
OBJECT011
10
1.895698
20
-17.813416
30
3.454347
70
192
0
VERTEX
8
OBJECT011
10
-0.092474
20
-17.813416
30
1.573768
70
192
0
VERTEX
8
OBJECT011
10
2.889769
20
-26.813416
30
2.390142
70
192
0
VERTEX
8
OBJECT011
10
5.872043
20
-29.813416
30
5.187370
70
192
0
VERTEX
8
OBJECT011
10
2.889769
20
-26.813416
30
4.403102
70
192
0
VERTEX
8
OBJECT011
10
5.871982
20
-29.813416
30
7.227200
70
192
0
VERTEX
8
OBJECT011
10
0
20
0
30
0
70
128
71
2
72
3
73
-4
0
VERTEX
8
OBJECT011
10
0
20
0
30
0
70
128
71
-2
72
4
73
1
0
VERTEX
8
OBJECT011
10
0
20
0
30
0
70
128
71
1
72
5
73
-6
0
VERTEX
8
OBJECT011
10
0
20
0
30
0
70
128
71
-1
72
6
73
2
0
VERTEX
8
OBJECT011
10
0
20
0
30
0
70
128
71
4
72
3
73
-8
0
VERTEX
8
OBJECT011
10
0
20
0
30
0
70
128
71
-4
72
8
73
7
0
VERTEX
8
OBJECT011
10
0
20
0
30
0
70
128
71
2
72
6
73
-8
0
VERTEX
8
OBJECT011
10
0
20
0
30
0
70
128
71
-2
72
8
73
3
0
VERTEX
8
OBJECT011
10
0
20
0
30
0
70
128
71
1
72
4
73
-7
0
VERTEX
8
OBJECT011
10
0
20
0
30
0
70
128
71
-1
72
7
73
5
0
VERTEX
8
OBJECT011
10
0
20
0
30
0
70
128
71
5
72
7
73
-8
0
VERTEX
8
OBJECT011
10
0
20
0
30
0
70
128
71
-5
72
8
73
6
0
SEQEND
8
OBJECT011
0
POLYLINE
8
OBJECT012
66
1
70
64
71
64
72
124
62
50
0
VERTEX
8
OBJECT012
10
121.561295
20
14.264648
30
-32.000000
70
192
0
VERTEX
8
OBJECT012
10
110.086372
20
22.516174
30
-32.000000
70
192
0
VERTEX
8
OBJECT012
10
94.806351
20
30.755646
30
-32.000000
70
192
0
VERTEX
8
OBJECT012
10
76.643898
20
36.941925
30
-32.000000
70
192
0
VERTEX
8
OBJECT012
10
54.670193
20
41.064087
30
-32.000000
70
192
0
VERTEX
8
OBJECT012
10
31.723436
20
44.156647
30
-32.000000
70
192
0
VERTEX
8
OBJECT012
10
7.847230
20
45.186584
30
-32.000000
70
192
0
VERTEX
8
OBJECT012
10
-16.042688
20
44.155518
30
-32.000000
70
192
0
VERTEX
8
OBJECT012
10
-38.978279
20
41.063660
30
-32.000000
70
192
0
VERTEX
8
OBJECT012
10
-60.949108
20
36.942017
30
-32.000000
70
192
0
VERTEX
8
OBJECT012
10
-79.101212
20
30.759613
30
-32.000000
70
192
0
VERTEX
8
OBJECT012
10
-94.397255
20
22.511505
30
-32.000000
70
192
0
VERTEX
8
OBJECT012
10
-105.867775
20
14.263153
30
-32.000000
70
192
0
VERTEX
8
OBJECT012
10
-113.505562
20
4.994843
30
-32.000000
70
192
0
VERTEX
8
OBJECT012
10
-115.417572
20
-5.313904
30
-32.000000
70
192
0
VERTEX
8
OBJECT012
10
-113.506966
20
-15.614197
30
-32.000000
70
192
0
VERTEX
8
OBJECT012
10
-105.854370
20
-24.900879
30
-32.000000
70
192
0
VERTEX
8
OBJECT012
10
-94.394279
20
-33.141052
30
-32.000000
70
192
0
VERTEX
8
OBJECT012
10
-79.106857
20
-41.385803
30
-32.000000
70
192
0
VERTEX
8
OBJECT012
10
-60.963303
20
-47.565430
30
-32.000000
70
192
0
VERTEX
8
OBJECT012
10
-38.977188
20
-51.691040
30
-32.000000
70
192
0
VERTEX
8
OBJECT012
10
-16.047573
20
-54.782104
30
-32.000000
70
192
0
VERTEX
8
OBJECT012
10
7.847230
20
-55.813416
30
-32.000000
70
192
0
VERTEX
8
OBJECT012
10
31.732025
20
-54.782410
30
-32.000000
70
192
0
VERTEX
8
OBJECT012
10
54.661060
20
-51.693115
30
-32.000000
70
192
0
VERTEX
8
OBJECT012
10
76.644714
20
-47.568848
30
-32.000000
70
192
0
VERTEX
8
OBJECT012
10
94.801559
20
-41.383789
30
-32.000000
70
192
0
VERTEX
8
OBJECT012
10
110.095596
20
-33.136414
30
-32.000000
70
192
0
VERTEX
8
OBJECT012
10
121.552521
20
-24.898621
30
-32.000000
70
192
0
VERTEX
8
OBJECT012
10
129.202103
20
-15.615845
30
-32.000000
70
192
0
VERTEX
8
OBJECT012
10
131.112030
20
-5.313416
30
-32.000000
70
192
0
VERTEX
8
OBJECT012
10
129.201416
20
4.992615
30
-32.000000
70
192
0
VERTEX
8
OBJECT012
10
7.847230
20
45.186584
30
-29.901638
70
192
0
VERTEX
8
OBJECT012
10
31.723436
20
44.156647
30
-29.901638
70
192
0
VERTEX
8
OBJECT012
10
54.670193
20
41.064087
30
-29.901638
70
192
0
VERTEX
8
OBJECT012
10
76.643898
20
36.941925
30
-29.901638
70
192
0
VERTEX
8
OBJECT012
10
94.806351
20
30.755646
30
-29.901638
70
192
0
VERTEX
8
OBJECT012
10
110.086372
20
22.516174
30
-29.901638
70
192
0
VERTEX
8
OBJECT012
10
121.561295
20
14.264648
30
-29.901638
70
192
0
VERTEX
8
OBJECT012
10
129.201416
20
4.992615
30
-29.901638
70
192
0
VERTEX
8
OBJECT012
10
131.112030
20
-5.313416
30
-29.901638
70
192
0
VERTEX
8
OBJECT012
10
129.202103
20
-15.615845
30
-29.901638
70
192
0
VERTEX
8
OBJECT012
10
121.552521
20
-24.898621
30
-29.901638
70
192
0
VERTEX
8
OBJECT012
10
110.095596
20
-33.136414
30
-29.901638
70
192
0
VERTEX
8
OBJECT012
10
94.801559
20
-41.383789
30
-29.901638
70
192
0
VERTEX
8
OBJECT012
10
76.644714
20
-47.568848
30
-29.901638
70
192
0
VERTEX
8
OBJECT012
10
54.661060
20
-51.693115
30
-29.901638
70
192
0
VERTEX
8
OBJECT012
10
31.732025
20
-54.782410
30
-29.901638
70
192
0
VERTEX
8
OBJECT012
10
7.847230
20
-55.813416
30
-29.901638
70
192
0
VERTEX
8
OBJECT012
10
-16.047573
20
-54.782104
30
-29.901638
70
192
0
VERTEX
8
OBJECT012
10
-38.977188
20
-51.691040
30
-29.901638
70
192
0
VERTEX
8
OBJECT012
10
-60.963303
20
-47.565430
30
-29.901638
70
192
0
VERTEX
8
OBJECT012
10
-79.106857
20
-41.385803
30
-29.901638
70
192
0
VERTEX
8
OBJECT012
10
-94.394279
20
-33.141052
30
-29.901638
70
192
0
VERTEX
8
OBJECT012
10
-105.854370
20
-24.900879
30
-29.901638
70
192
0
VERTEX
8
OBJECT012
10
-113.506966
20
-15.614197
30
-29.901638
70
192
0
VERTEX
8
OBJECT012
10
-115.417572
20
-5.313904
30
-29.901638
70
192
0
VERTEX
8
OBJECT012
10
-113.505562
20
4.994843
30
-29.901638
70
192
0
VERTEX
8
OBJECT012
10
-105.867775
20
14.263153
30
-29.901638
70
192
0
VERTEX
8
OBJECT012
10
-94.397255
20
22.511505
30
-29.901638
70
192
0
VERTEX
8
OBJECT012
10
-79.101212
20
30.759613
30
-29.901638
70
192
0
VERTEX
8
OBJECT012
10
-60.949108
20
36.942017
30
-29.901638
70
192
0
VERTEX
8
OBJECT012
10
-38.978279
20
41.063660
30
-29.901638
70
192
0
VERTEX
8
OBJECT012
10
-16.042688
20
44.155518
30
-29.901638
70
192
0
VERTEX
8
OBJECT012
10
0
20
0
30
0
70
128
71
2
72
3
73
-4
0
VERTEX
8
OBJECT012
10
0
20
0
30
0
70
128
71
-2
72
4
73
-5
0
VERTEX
8
OBJECT012
10
0
20
0
30
0
70
128
71
-2
72
5
73
-6
0
VERTEX
8
OBJECT012
10
0
20
0
30
0
70
128
71
-2
72
6
73
-7
0
VERTEX
8
OBJECT012
10
0
20
0
30
0
70
128
71
-2
72
7
73
-8
0
VERTEX
8
OBJECT012
10
0
20
0
30
0
70
128
71
-2
72
8
73
-9
0
VERTEX
8
OBJECT012
10
0
20
0
30
0
70
128
71
-2
72
9
73
-10
0
VERTEX
8
OBJECT012
10
0
20
0
30
0
70
128
71
-2
72
10
73
-11
0
VERTEX
8
OBJECT012
10
0
20
0
30
0
70
128
71
-2
72
11
73
-12
0
VERTEX
8
OBJECT012
10
0
20
0
30
0
70
128
71
-2
72
12
73
-13
0
VERTEX
8
OBJECT012
10
0
20
0
30
0
70
128
71
-2
72
13
73
-14
0
VERTEX
8
OBJECT012
10
0
20
0
30
0
70
128
71
-2
72
14
73
-15
0
VERTEX
8
OBJECT012
10
0
20
0
30
0
70
128
71
-2
72
15
73
-16
0
VERTEX
8
OBJECT012
10
0
20
0
30
0
70
128
71
-2
72
16
73
-17
0
VERTEX
8
OBJECT012
10
0
20
0
30
0
70
128
71
-2
72
17
73
-18
0
VERTEX
8
OBJECT012
10
0
20
0
30
0
70
128
71
-2
72
18
73
-19
0
VERTEX
8
OBJECT012
10
0
20
0
30
0
70
128
71
-2
72
19
73
-20
0
VERTEX
8
OBJECT012
10
0
20
0
30
0
70
128
71
-2
72
20
73
-21
0
VERTEX
8
OBJECT012
10
0
20
0
30
0
70
128
71
-2
72
21
73
-22
0
VERTEX
8
OBJECT012
10
0
20
0
30
0
70
128
71
-2
72
22
73
-23
0
VERTEX
8
OBJECT012
10
0
20
0
30
0
70
128
71
-2
72
23
73
-24
0
VERTEX
8
OBJECT012
10
0
20
0
30
0
70
128
71
-2
72
24
73
-25
0
VERTEX
8
OBJECT012
10
0
20
0
30
0
70
128
71
-2
72
25
73
-26
0
VERTEX
8
OBJECT012
10
0
20
0
30
0
70
128
71
-2
72
26
73
-27
0
VERTEX
8
OBJECT012
10
0
20
0
30
0
70
128
71
-2
72
27
73
-28
0
VERTEX
8
OBJECT012
10
0
20
0
30
0
70
128
71
-2
72
28
73
-29
0
VERTEX
8
OBJECT012
10
0
20
0
30
0
70
128
71
-2
72
29
73
-30
0
VERTEX
8
OBJECT012
10
0
20
0
30
0
70
128
71
-2
72
30
73
-31
0
VERTEX
8
OBJECT012
10
0
20
0
30
0
70
128
71
-2
72
31
73
-32
0
VERTEX
8
OBJECT012
10
0
20
0
30
0
70
128
71
-2
72
32
73
1
0
VERTEX
8
OBJECT012
10
0
20
0
30
0
70
128
71
34
72
35
73
-36
0
VERTEX
8
OBJECT012
10
0
20
0
30
0
70
128
71
-34
72
36
73
-37
0
VERTEX
8
OBJECT012
10
0
20
0
30
0
70
128
71
-34
72
37
73
-38
0
VERTEX
8
OBJECT012
10
0
20
0
30
0
70
128
71
-34
72
38
73
-39
0
VERTEX
8
OBJECT012
10
0
20
0
30
0
70
128
71
-34
72
39
73
-40
0
VERTEX
8
OBJECT012
10
0
20
0
30
0
70
128
71
-34
72
40
73
-41
0
VERTEX
8
OBJECT012
10
0
20
0
30
0
70
128
71
-34
72
41
73
-42
0
VERTEX
8
OBJECT012
10
0
20
0
30
0
70
128
71
-34
72
42
73
-43
0
VERTEX
8
OBJECT012
10
0
20
0
30
0
70
128
71
-34
72
43
73
-44
0
VERTEX
8
OBJECT012
10
0
20
0
30
0
70
128
71
-34
72
44
73
-45
0
VERTEX
8
OBJECT012
10
0
20
0
30
0
70
128
71
-34
72
45
73
-46
0
VERTEX
8
OBJECT012
10
0
20
0
30
0
70
128
71
-34
72
46
73
-47
0
VERTEX
8
OBJECT012
10
0
20
0
30
0
70
128
71
-34
72
47
73
-48
0
VERTEX
8
OBJECT012
10
0
20
0
30
0
70
128
71
-34
72
48
73
-49
0
VERTEX
8
OBJECT012
10
0
20
0
30
0
70
128
71
-34
72
49
73
-50
0
VERTEX
8
OBJECT012
10
0
20
0
30
0
70
128
71
-34
72
50
73
-51
0
VERTEX
8
OBJECT012
10
0
20
0
30
0
70
128
71
-34
72
51
73
-52
0
VERTEX
8
OBJECT012
10
0
20
0
30
0
70
128
71
-34
72
52
73
-53
0
VERTEX
8
OBJECT012
10
0
20
0
30
0
70
128
71
-34
72
53
73
-54
0
VERTEX
8
OBJECT012
10
0
20
0
30
0
70
128
71
-34
72
54
73
-55
0
VERTEX
8
OBJECT012
10
0
20
0
30
0
70
128
71
-34
72
55
73
-56
0
VERTEX
8
OBJECT012
10
0
20
0
30
0
70
128
71
-34
72
56
73
-57
0
VERTEX
8
OBJECT012
10
0
20
0
30
0
70
128
71
-34
72
57
73
-58
0
VERTEX
8
OBJECT012
10
0
20
0
30
0
70
128
71
-34
72
58
73
-59
0
VERTEX
8
OBJECT012
10
0
20
0
30
0
70
128
71
-34
72
59
73
-60
0
VERTEX
8
OBJECT012
10
0
20
0
30
0
70
128
71
-34
72
60
73
-61
0
VERTEX
8
OBJECT012
10
0
20
0
30
0
70
128
71
-34
72
61
73
-62
0
VERTEX
8
OBJECT012
10
0
20
0
30
0
70
128
71
-34
72
62
73
-63
0
VERTEX
8
OBJECT012
10
0
20
0
30
0
70
128
71
-34
72
63
73
-64
0
VERTEX
8
OBJECT012
10
0
20
0
30
0
70
128
71
-34
72
64
73
33
0
VERTEX
8
OBJECT012
10
0
20
0
30
0
70
128
71
6
72
34
73
-33
0
VERTEX
8
OBJECT012
10
0
20
0
30
0
70
128
71
-6
72
33
73
7
0
VERTEX
8
OBJECT012
10
0
20
0
30
0
70
128
71
5
72
35
73
-34
0
VERTEX
8
OBJECT012
10
0
20
0
30
0
70
128
71
-5
72
34
73
6
0
VERTEX
8
OBJECT012
10
0
20
0
30
0
70
128
71
4
72
36
73
-35
0
VERTEX
8
OBJECT012
10
0
20
0
30
0
70
128
71
-4
72
35
73
5
0
VERTEX
8
OBJECT012
10
0
20
0
30
0
70
128
71
3
72
37
73
-36
0
VERTEX
8
OBJECT012
10
0
20
0
30
0
70
128
71
-3
72
36
73
4
0
VERTEX
8
OBJECT012
10
0
20
0
30
0
70
128
71
2
72
38
73
-37
0
VERTEX
8
OBJECT012
10
0
20
0
30
0
70
128
71
-2
72
37
73
3
0
VERTEX
8
OBJECT012
10
0
20
0
30
0
70
128
71
1
72
39
73
-38
0
VERTEX
8
OBJECT012
10
0
20
0
30
0
70
128
71
-1
72
38
73
2
0
VERTEX
8
OBJECT012
10
0
20
0
30
0
70
128
71
32
72
40
73
-39
0
VERTEX
8
OBJECT012
10
0
20
0
30
0
70
128
71
-32
72
39
73
1
0
VERTEX
8
OBJECT012
10
0
20
0
30
0
70
128
71
31
72
41
73
-40
0
VERTEX
8
OBJECT012
10
0
20
0
30
0
70
128
71
-31
72
40
73
32
0
VERTEX
8
OBJECT012
10
0
20
0
30
0
70
128
71
30
72
42
73
-41
0
VERTEX
8
OBJECT012
10
0
20
0
30
0
70
128
71
-30
72
41
73
31
0
VERTEX
8
OBJECT012
10
0
20
0
30
0
70
128
71
29
72
43
73
-42
0
VERTEX
8
OBJECT012
10
0
20
0
30
0
70
128
71
-29
72
42
73
30
0
VERTEX
8
OBJECT012
10
0
20
0
30
0
70
128
71
28
72
44
73
-43
0
VERTEX
8
OBJECT012
10
0
20
0
30
0
70
128
71
-28
72
43
73
29
0
VERTEX
8
OBJECT012
10
0
20
0
30
0
70
128
71
27
72
45
73
-44
0
VERTEX
8
OBJECT012
10
0
20
0
30
0
70
128
71
-27
72
44
73
28
0
VERTEX
8
OBJECT012
10
0
20
0
30
0
70
128
71
26
72
46
73
-45
0
VERTEX
8
OBJECT012
10
0
20
0
30
0
70
128
71
-26
72
45
73
27
0
VERTEX
8
OBJECT012
10
0
20
0
30
0
70
128
71
25
72
47
73
-46
0
VERTEX
8
OBJECT012
10
0
20
0
30
0
70
128
71
-25
72
46
73
26
0
VERTEX
8
OBJECT012
10
0
20
0
30
0
70
128
71
24
72
48
73
-47
0
VERTEX
8
OBJECT012
10
0
20
0
30
0
70
128
71
-24
72
47
73
25
0
VERTEX
8
OBJECT012
10
0
20
0
30
0
70
128
71
23
72
49
73
-48
0
VERTEX
8
OBJECT012
10
0
20
0
30
0
70
128
71
-23
72
48
73
24
0
VERTEX
8
OBJECT012
10
0
20
0
30
0
70
128
71
22
72
50
73
-49
0
VERTEX
8
OBJECT012
10
0
20
0
30
0
70
128
71
-22
72
49
73
23
0
VERTEX
8
OBJECT012
10
0
20
0
30
0
70
128
71
21
72
51
73
-50
0
VERTEX
8
OBJECT012
10
0
20
0
30
0
70
128
71
-21
72
50
73
22
0
VERTEX
8
OBJECT012
10
0
20
0
30
0
70
128
71
20
72
52
73
-51
0
VERTEX
8
OBJECT012
10
0
20
0
30
0
70
128
71
-20
72
51
73
21
0
VERTEX
8
OBJECT012
10
0
20
0
30
0
70
128
71
19
72
53
73
-52
0
VERTEX
8
OBJECT012
10
0
20
0
30
0
70
128
71
-19
72
52
73
20
0
VERTEX
8
OBJECT012
10
0
20
0
30
0
70
128
71
18
72
54
73
-53
0
VERTEX
8
OBJECT012
10
0
20
0
30
0
70
128
71
-18
72
53
73
19
0
VERTEX
8
OBJECT012
10
0
20
0
30
0
70
128
71
17
72
55
73
-54
0
VERTEX
8
OBJECT012
10
0
20
0
30
0
70
128
71
-17
72
54
73
18
0
VERTEX
8
OBJECT012
10
0
20
0
30
0
70
128
71
16
72
56
73
-55
0
VERTEX
8
OBJECT012
10
0
20
0
30
0
70
128
71
-16
72
55
73
17
0
VERTEX
8
OBJECT012
10
0
20
0
30
0
70
128
71
15
72
57
73
-56
0
VERTEX
8
OBJECT012
10
0
20
0
30
0
70
128
71
-15
72
56
73
16
0
VERTEX
8
OBJECT012
10
0
20
0
30
0
70
128
71
14
72
58
73
-57
0
VERTEX
8
OBJECT012
10
0
20
0
30
0
70
128
71
-14
72
57
73
15
0
VERTEX
8
OBJECT012
10
0
20
0
30
0
70
128
71
13
72
59
73
-58
0
VERTEX
8
OBJECT012
10
0
20
0
30
0
70
128
71
-13
72
58
73
14
0
VERTEX
8
OBJECT012
10
0
20
0
30
0
70
128
71
12
72
60
73
-59
0
VERTEX
8
OBJECT012
10
0
20
0
30
0
70
128
71
-12
72
59
73
13
0
VERTEX
8
OBJECT012
10
0
20
0
30
0
70
128
71
11
72
61
73
-60
0
VERTEX
8
OBJECT012
10
0
20
0
30
0
70
128
71
-11
72
60
73
12
0
VERTEX
8
OBJECT012
10
0
20
0
30
0
70
128
71
10
72
62
73
-61
0
VERTEX
8
OBJECT012
10
0
20
0
30
0
70
128
71
-10
72
61
73
11
0
VERTEX
8
OBJECT012
10
0
20
0
30
0
70
128
71
9
72
63
73
-62
0
VERTEX
8
OBJECT012
10
0
20
0
30
0
70
128
71
-9
72
62
73
10
0
VERTEX
8
OBJECT012
10
0
20
0
30
0
70
128
71
8
72
64
73
-63
0
VERTEX
8
OBJECT012
10
0
20
0
30
0
70
128
71
-8
72
63
73
9
0
VERTEX
8
OBJECT012
10
0
20
0
30
0
70
128
71
7
72
33
73
-64
0
VERTEX
8
OBJECT012
10
0
20
0
30
0
70
128
71
-7
72
64
73
8
0
SEQEND
8
OBJECT012
0
POLYLINE
8
OBJECT013
66
1
70
64
71
8
72
12
62
50
0
VERTEX
8
OBJECT013
10
-115.417572
20
-55.813416
30
-29.901638
70
192
0
VERTEX
8
OBJECT013
10
-115.417572
20
49.186584
30
-29.901638
70
192
0
VERTEX
8
OBJECT013
10
7.847230
20
49.186584
30
-29.901638
70
192
0
VERTEX
8
OBJECT013
10
7.847230
20
-55.813416
30
-29.901638
70
192
0
VERTEX
8
OBJECT013
10
-115.417572
20
49.186584
30
-32.000000
70
192
0
VERTEX
8
OBJECT013
10
-115.417572
20
-55.813416
30
-32.000000
70
192
0
VERTEX
8
OBJECT013
10
7.847230
20
-55.813416
30
-32.000000
70
192
0
VERTEX
8
OBJECT013
10
7.847230
20
49.186584
30
-32.000000
70
192
0
VERTEX
8
OBJECT013
10
0
20
0
30
0
70
128
71
2
72
3
73
-4
0
VERTEX
8
OBJECT013
10
0
20
0
30
0
70
128
71
-2
72
4
73
1
0
VERTEX
8
OBJECT013
10
0
20
0
30
0
70
128
71
6
72
7
73
-8
0
VERTEX
8
OBJECT013
10
0
20
0
30
0
70
128
71
-6
72
8
73
5
0
VERTEX
8
OBJECT013
10
0
20
0
30
0
70
128
71
5
72
2
73
-1
0
VERTEX
8
OBJECT013
10
0
20
0
30
0
70
128
71
-5
72
1
73
6
0
VERTEX
8
OBJECT013
10
0
20
0
30
0
70
128
71
7
72
4
73
-3
0
VERTEX
8
OBJECT013
10
0
20
0
30
0
70
128
71
-7
72
3
73
8
0
VERTEX
8
OBJECT013
10
0
20
0
30
0
70
128
71
8
72
3
73
-2
0
VERTEX
8
OBJECT013
10
0
20
0
30
0
70
128
71
-8
72
2
73
5
0
VERTEX
8
OBJECT013
10
0
20
0
30
0
70
128
71
6
72
1
73
-4
0
VERTEX
8
OBJECT013
10
0
20
0
30
0
70
128
71
-6
72
4
73
7
0
SEQEND
8
OBJECT013
0
POLYLINE
8
OBJECT014
66
1
70
64
71
8
72
12
62
50
0
VERTEX
8
OBJECT014
10
-77.970451
20
-35.813416
30
26.282993
70
192
0
VERTEX
8
OBJECT014
10
-75.875702
20
-35.813416
30
19.678116
70
192
0
VERTEX
8
OBJECT014
10
-75.875702
20
27.186584
30
19.678116
70
192
0
VERTEX
8
OBJECT014
10
-77.970451
20
27.186584
30
26.282993
70
192
0
VERTEX
8
OBJECT014
10
63.489388
20
27.186584
30
76.050369
70
192
0
VERTEX
8
OBJECT014
10
65.583618
20
27.186584
30
69.446075
70
192
0
VERTEX
8
OBJECT014
10
65.583618
20
-35.813416
30
69.446075
70
192
0
VERTEX
8
OBJECT014
10
63.489388
20
-35.813416
30
76.050369
70
192
0
VERTEX
8
OBJECT014
10
0
20
0
30
0
70
128
71
2
72
3
73
-4
0
VERTEX
8
OBJECT014
10
0
20
0
30
0
70
128
71
-2
72
4
73
1
0
VERTEX
8
OBJECT014
10
0
20
0
30
0
70
128
71
6
72
7
73
-8
0
VERTEX
8
OBJECT014
10
0
20
0
30
0
70
128
71
-6
72
8
73
5
0
VERTEX
8
OBJECT014
10
0
20
0
30
0
70
128
71
3
72
6
73
-5
0
VERTEX
8
OBJECT014
10
0
20
0
30
0
70
128
71
-3
72
5
73
4
0
VERTEX
8
OBJECT014
10
0
20
0
30
0
70
128
71
7
72
2
73
-1
0
VERTEX
8
OBJECT014
10
0
20
0
30
0
70
128
71
-7
72
1
73
8
0
VERTEX
8
OBJECT014
10
0
20
0
30
0
70
128
71
2
72
7
73
-6
0
VERTEX
8
OBJECT014
10
0
20
0
30
0
70
128
71
-2
72
6
73
3
0
VERTEX
8
OBJECT014
10
0
20
0
30
0
70
128
71
4
72
5
73
-8
0
VERTEX
8
OBJECT014
10
0
20
0
30
0
70
128
71
-4
72
8
73
1
0
SEQEND
8
OBJECT014
0
POLYLINE
8
OBJECT015
66
1
70
64
71
58
72
112
62
50
0
VERTEX
8
OBJECT015
10
111.624954
20
60.186584
30
23.928679
70
192
0
VERTEX
8
OBJECT015
10
115.410759
20
59.186584
30
11.986734
70
192
0
VERTEX
8
OBJECT015
10
119.199463
20
55.186584
30
0.035698
70
192
0
VERTEX
8
OBJECT015
10
122.980232
20
49.186584
30
-11.890212
70
192
0
VERTEX
8
OBJECT015
10
125.825500
20
41.168121
30
-20.865122
70
192
0
VERTEX
8
OBJECT015
10
128.339844
20
32.186584
30
-28.796030
70
192
0
VERTEX
8
OBJECT015
10
129.355621
20
25.759155
30
-32.000000
70
192
0
VERTEX
8
OBJECT015
10
129.356323
20
-33.389465
30
-32.000000
70
192
0
VERTEX
8
OBJECT015
10
128.344986
20
-39.802246
30
-28.809637
70
192
0
VERTEX
8
OBJECT015
10
125.824928
20
-48.798828
30
-20.859921
70
192
0
VERTEX
8
OBJECT015
10
122.980049
20
-56.813416
30
-11.885633
70
192
0
VERTEX
8
OBJECT015
10
119.183174
20
-62.813416
30
0.070694
70
192
0
VERTEX
8
OBJECT015
10
115.412025
20
-66.813416
30
11.987509
70
192
0
VERTEX
8
OBJECT015
10
111.626045
20
-67.813416
30
23.930164
70
192
0
VERTEX
8
OBJECT015
10
107.842407
20
-66.813416
30
35.865311
70
192
0
VERTEX
8
OBJECT015
10
104.062546
20
-62.813416
30
47.788372
70
192
0
VERTEX
8
OBJECT015
10
100.274681
20
-56.813416
30
59.736694
70
192
0
VERTEX
8
OBJECT015
10
97.429138
20
-48.797791
30
68.721313
70
192
0
VERTEX
8
OBJECT015
10
94.908958
20
-39.813416
30
76.661888
70
192
0
VERTEX
8
OBJECT015
10
93.017487
20
-27.825195
30
82.627937
70
192
0
VERTEX
8
OBJECT015
10
91.754211
20
-15.813416
30
86.612381
70
192
0
VERTEX
8
OBJECT015
10
91.439011
20
-3.813416
30
87.606567
70
192
0
VERTEX
8
OBJECT015
10
91.754272
20
8.186584
30
86.611229
70
192
0
VERTEX
8
OBJECT015
10
93.018982
20
20.212708
30
82.621307
70
192
0
VERTEX
8
OBJECT015
10
94.904907
20
32.186584
30
76.671829
70
192
0
VERTEX
8
OBJECT015
10
97.452438
20
41.251190
30
68.635483
70
192
0
VERTEX
8
OBJECT015
10
100.272865
20
49.186584
30
59.738358
70
192
0
VERTEX
8
OBJECT015
10
104.053116
20
55.186584
30
47.813622
70
192
0
VERTEX
8
OBJECT015
10
107.838005
20
59.186584
30
35.874359
70
192
0
VERTEX
8
OBJECT015
10
87.487755
20
59.186584
30
2.123605
70
192
0
VERTEX
8
OBJECT015
10
83.700867
20
60.186584
30
14.067827
70
192
0
VERTEX
8
OBJECT015
10
91.275772
20
55.186584
30
-9.824100
70
192
0
VERTEX
8
OBJECT015
10
95.058388
20
49.186584
30
-21.754770
70
192
0
VERTEX
8
OBJECT015
10
97.898537
20
41.186584
30
-30.712862
70
192
0
VERTEX
8
OBJECT015
10
119.254852
20
32.202362
30
-32.000000
70
192
0
VERTEX
8
OBJECT015
10
98.307693
20
39.729584
30
-32.000000
70
192
0
VERTEX
8
OBJECT015
10
119.297516
20
-39.813416
30
-32.000000
70
192
0
VERTEX
8
OBJECT015
10
98.307693
20
-47.352722
30
-32.000000
70
192
0
VERTEX
8
OBJECT015
10
97.902512
20
-48.794617
30
-30.725893
70
192
0
VERTEX
8
OBJECT015
10
95.056206
20
-56.813416
30
-21.748499
70
192
0
VERTEX
8
OBJECT015
10
91.264854
20
-62.813416
30
-9.790328
70
192
0
VERTEX
8
OBJECT015
10
87.486580
20
-66.813416
30
2.126687
70
192
0
VERTEX
8
OBJECT015
10
83.700500
20
-67.813416
30
14.068277
70
192
0
VERTEX
8
OBJECT015
10
79.916611
20
-66.813416
30
26.002899
70
192
0
VERTEX
8
OBJECT015
10
76.136726
20
-62.813416
30
37.924973
70
192
0
VERTEX
8
OBJECT015
10
72.347115
20
-56.813416
30
49.877831
70
192
0
VERTEX
8
OBJECT015
10
69.502960
20
-48.799561
30
58.848526
70
192
0
VERTEX
8
OBJECT015
10
66.981133
20
-39.813416
30
66.802567
70
192
0
VERTEX
8
OBJECT015
10
65.090584
20
-27.826111
30
72.765556
70
192
0
VERTEX
8
OBJECT015
10
63.827278
20
-15.813416
30
76.750191
70
192
0
VERTEX
8
OBJECT015
10
63.515202
20
-3.813416
30
77.744125
70
192
0
VERTEX
8
OBJECT015
10
63.827335
20
8.186584
30
76.750229
70
192
0
VERTEX
8
OBJECT015
10
65.092590
20
20.211731
30
72.759552
70
192
0
VERTEX
8
OBJECT015
10
66.978218
20
32.175720
30
66.812134
70
192
0
VERTEX
8
OBJECT015
10
69.525406
20
41.247131
30
58.778194
70
192
0
VERTEX
8
OBJECT015
10
72.349113
20
49.186584
30
49.872036
70
192
0
VERTEX
8
OBJECT015
10
76.129265
20
55.186584
30
37.949154
70
192
0
VERTEX
8
OBJECT015
10
79.913429
20
59.186584
30
26.013702
70
192
0
VERTEX
8
OBJECT015
10
0
20
0
30
0
70
128
71
2
72
3
73
-4
0
VERTEX
8
OBJECT015
10
0
20
0
30
0
70
128
71
-2
72
4
73
-5
0
VERTEX
8
OBJECT015
10
0
20
0
30
0
70
128
71
-2
72
5
73
-6
0
VERTEX
8
OBJECT015
10
0
20
0
30
0
70
128
71
-2
72
6
73
-7
0
VERTEX
8
OBJECT015
10
0
20
0
30
0
70
128
71
-2
72
7
73
-8
0
VERTEX
8
OBJECT015
10
0
20
0
30
0
70
128
71
-2
72
8
73
-9
0
VERTEX
8
OBJECT015
10
0
20
0
30
0
70
128
71
-2
72
9
73
-10
0
VERTEX
8
OBJECT015
10
0
20
0
30
0
70
128
71
-2
72
10
73
-11
0
VERTEX
8
OBJECT015
10
0
20
0
30
0
70
128
71
-2
72
11
73
-12
0
VERTEX
8
OBJECT015
10
0
20
0
30
0
70
128
71
-2
72
12
73
-13
0
VERTEX
8
OBJECT015
10
0
20
0
30
0
70
128
71
-2
72
13
73
-14
0
VERTEX
8
OBJECT015
10
0
20
0
30
0
70
128
71
-2
72
14
73
-15
0
VERTEX
8
OBJECT015
10
0
20
0
30
0
70
128
71
-2
72
15
73
-16
0
VERTEX
8
OBJECT015
10
0
20
0
30
0
70
128
71
-2
72
16
73
-17
0
VERTEX
8
OBJECT015
10
0
20
0
30
0
70
128
71
-2
72
17
73
-18
0
VERTEX
8
OBJECT015
10
0
20
0
30
0
70
128
71
-2
72
18
73
-19
0
VERTEX
8
OBJECT015
10
0
20
0
30
0
70
128
71
-2
72
19
73
-20
0
VERTEX
8
OBJECT015
10
0
20
0
30
0
70
128
71
-2
72
20
73
-21
0
VERTEX
8
OBJECT015
10
0
20
0
30
0
70
128
71
-2
72
21
73
-22
0
VERTEX
8
OBJECT015
10
0
20
0
30
0
70
128
71
-2
72
22
73
-23
0
VERTEX
8
OBJECT015
10
0
20
0
30
0
70
128
71
-2
72
23
73
-24
0
VERTEX
8
OBJECT015
10
0
20
0
30
0
70
128
71
-2
72
24
73
-25
0
VERTEX
8
OBJECT015
10
0
20
0
30
0
70
128
71
-2
72
25
73
-26
0
VERTEX
8
OBJECT015
10
0
20
0
30
0
70
128
71
-2
72
26
73
-27
0
VERTEX
8
OBJECT015
10
0
20
0
30
0
70
128
71
-2
72
27
73
-28
0
VERTEX
8
OBJECT015
10
0
20
0
30
0
70
128
71
-2
72
28
73
-29
0
VERTEX
8
OBJECT015
10
0
20
0
30
0
70
128
71
-2
72
29
73
1
0
VERTEX
8
OBJECT015
10
0
20
0
30
0
70
128
71
2
72
1
73
-31
0
VERTEX
8
OBJECT015
10
0
20
0
30
0
70
128
71
-2
72
31
73
30
0
VERTEX
8
OBJECT015
10
0
20
0
30
0
70
128
71
3
72
2
73
-30
0
VERTEX
8
OBJECT015
10
0
20
0
30
0
70
128
71
-3
72
30
73
32
0
VERTEX
8
OBJECT015
10
0
20
0
30
0
70
128
71
4
72
3
73
-32
0
VERTEX
8
OBJECT015
10
0
20
0
30
0
70
128
71
-4
72
32
73
33
0
VERTEX
8
OBJECT015
10
0
20
0
30
0
70
128
71
5
72
4
73
-33
0
VERTEX
8
OBJECT015
10
0
20
0
30
0
70
128
71
-5
72
33
73
34
0
VERTEX
8
OBJECT015
10
0
20
0
30
0
70
128
71
6
72
5
73
-34
0
VERTEX
8
OBJECT015
10
0
20
0
30
0
70
128
71
-6
72
34
73
-36
0
VERTEX
8
OBJECT015
10
0
20
0
30
0
70
128
71
-6
72
36
73
35
0
VERTEX
8
OBJECT015
10
0
20
0
30
0
70
128
71
6
72
35
73
7
0
VERTEX
8
OBJECT015
10
0
20
0
30
0
70
128
71
9
72
8
73
37
0
VERTEX
8
OBJECT015
10
0
20
0
30
0
70
128
71
9
72
37
73
-38
0
VERTEX
8
OBJECT015
10
0
20
0
30
0
70
128
71
-9
72
38
73
-39
0
VERTEX
8
OBJECT015
10
0
20
0
30
0
70
128
71
-9
72
39
73
10
0
VERTEX
8
OBJECT015
10
0
20
0
30
0
70
128
71
10
72
39
73
-40
0
VERTEX
8
OBJECT015
10
0
20
0
30
0
70
128
71
-10
72
40
73
11
0
VERTEX
8
OBJECT015
10
0
20
0
30
0
70
128
71
11
72
40
73
-41
0
VERTEX
8
OBJECT015
10
0
20
0
30
0
70
128
71
-11
72
41
73
12
0
VERTEX
8
OBJECT015
10
0
20
0
30
0
70
128
71
12
72
41
73
-42
0
VERTEX
8
OBJECT015
10
0
20
0
30
0
70
128
71
-12
72
42
73
13
0
VERTEX
8
OBJECT015
10
0
20
0
30
0
70
128
71
13
72
42
73
-43
0
VERTEX
8
OBJECT015
10
0
20
0
30
0
70
128
71
-13
72
43
73
14
0
VERTEX
8
OBJECT015
10
0
20
0
30
0
70
128
71
14
72
43
73
-44
0
VERTEX
8
OBJECT015
10
0
20
0
30
0
70
128
71
-14
72
44
73
15
0
VERTEX
8
OBJECT015
10
0
20
0
30
0
70
128
71
15
72
44
73
-45
0
VERTEX
8
OBJECT015
10
0
20
0
30
0
70
128
71
-15
72
45
73
16
0
VERTEX
8
OBJECT015
10
0
20
0
30
0
70
128
71
16
72
45
73
-46
0
VERTEX
8
OBJECT015
10
0
20
0
30
0
70
128
71
-16
72
46
73
17
0
VERTEX
8
OBJECT015
10
0
20
0
30
0
70
128
71
17
72
46
73
-47
0
VERTEX
8
OBJECT015
10
0
20
0
30
0
70
128
71
-17
72
47
73
18
0
VERTEX
8
OBJECT015
10
0
20
0
30
0
70
128
71
19
72
18
73
-47
0
VERTEX
8
OBJECT015
10
0
20
0
30
0
70
128
71
-19
72
47
73
48
0
VERTEX
8
OBJECT015
10
0
20
0
30
0
70
128
71
20
72
19
73
-48
0
VERTEX
8
OBJECT015
10
0
20
0
30
0
70
128
71
-20
72
48
73
49
0
VERTEX
8
OBJECT015
10
0
20
0
30
0
70
128
71
21
72
20
73
-49
0
VERTEX
8
OBJECT015
10
0
20
0
30
0
70
128
71
-21
72
49
73
50
0
VERTEX
8
OBJECT015
10
0
20
0
30
0
70
128
71
22
72
21
73
-50
0
VERTEX
8
OBJECT015
10
0
20
0
30
0
70
128
71
-22
72
50
73
51
0
VERTEX
8
OBJECT015
10
0
20
0
30
0
70
128
71
23
72
22
73
-51
0
VERTEX
8
OBJECT015
10
0
20
0
30
0
70
128
71
-23
72
51
73
52
0
VERTEX
8
OBJECT015
10
0
20
0
30
0
70
128
71
24
72
23
73
-52
0
VERTEX
8
OBJECT015
10
0
20
0
30
0
70
128
71
-24
72
52
73
53
0
VERTEX
8
OBJECT015
10
0
20
0
30
0
70
128
71
25
72
24
73
-53
0
VERTEX
8
OBJECT015
10
0
20
0
30
0
70
128
71
-25
72
53
73
54
0
VERTEX
8
OBJECT015
10
0
20
0
30
0
70
128
71
26
72
25
73
-54
0
VERTEX
8
OBJECT015
10
0
20
0
30
0
70
128
71
-26
72
54
73
55
0
VERTEX
8
OBJECT015
10
0
20
0
30
0
70
128
71
27
72
26
73
-55
0
VERTEX
8
OBJECT015
10
0
20
0
30
0
70
128
71
-27
72
55
73
56
0
VERTEX
8
OBJECT015
10
0
20
0
30
0
70
128
71
28
72
27
73
-56
0
VERTEX
8
OBJECT015
10
0
20
0
30
0
70
128
71
-28
72
56
73
57
0
VERTEX
8
OBJECT015
10
0
20
0
30
0
70
128
71
29
72
28
73
-57
0
VERTEX
8
OBJECT015
10
0
20
0
30
0
70
128
71
-29
72
57
73
58
0
VERTEX
8
OBJECT015
10
0
20
0
30
0
70
128
71
1
72
29
73
-58
0
VERTEX
8
OBJECT015
10
0
20
0
30
0
70
128
71
-1
72
58
73
31
0
VERTEX
8
OBJECT015
10
0
20
0
30
0
70
128
71
43
72
42
73
-41
0
VERTEX
8
OBJECT015
10
0
20
0
30
0
70
128
71
-43
72
41
73
-40
0
VERTEX
8
OBJECT015
10
0
20
0
30
0
70
128
71
-43
72
40
73
-39
0
VERTEX
8
OBJECT015
10
0
20
0
30
0
70
128
71
-43
72
39
73
-38
0
VERTEX
8
OBJECT015
10
0
20
0
30
0
70
128
71
-43
72
38
73
-36
0
VERTEX
8
OBJECT015
10
0
20
0
30
0
70
128
71
-43
72
36
73
-34
0
VERTEX
8
OBJECT015
10
0
20
0
30
0
70
128
71
-43
72
34
73
-33
0
VERTEX
8
OBJECT015
10
0
20
0
30
0
70
128
71
-43
72
33
73
-32
0
VERTEX
8
OBJECT015
10
0
20
0
30
0
70
128
71
-43
72
32
73
-30
0
VERTEX
8
OBJECT015
10
0
20
0
30
0
70
128
71
-43
72
30
73
-31
0
VERTEX
8
OBJECT015
10
0
20
0
30
0
70
128
71
-43
72
31
73
-58
0
VERTEX
8
OBJECT015
10
0
20
0
30
0
70
128
71
-43
72
58
73
-57
0
VERTEX
8
OBJECT015
10
0
20
0
30
0
70
128
71
-43
72
57
73
-56
0
VERTEX
8
OBJECT015
10
0
20
0
30
0
70
128
71
-43
72
56
73
-55
0
VERTEX
8
OBJECT015
10
0
20
0
30
0
70
128
71
-43
72
55
73
-54
0
VERTEX
8
OBJECT015
10
0
20
0
30
0
70
128
71
-43
72
54
73
-53
0
VERTEX
8
OBJECT015
10
0
20
0
30
0
70
128
71
-43
72
53
73
-52
0
VERTEX
8
OBJECT015
10
0
20
0
30
0
70
128
71
-43
72
52
73
-51
0
VERTEX
8
OBJECT015
10
0
20
0
30
0
70
128
71
-43
72
51
73
-50
0
VERTEX
8
OBJECT015
10
0
20
0
30
0
70
128
71
-43
72
50
73
-49
0
VERTEX
8
OBJECT015
10
0
20
0
30
0
70
128
71
-43
72
49
73
-48
0
VERTEX
8
OBJECT015
10
0
20
0
30
0
70
128
71
-43
72
48
73
-47
0
VERTEX
8
OBJECT015
10
0
20
0
30
0
70
128
71
-43
72
47
73
-46
0
VERTEX
8
OBJECT015
10
0
20
0
30
0
70
128
71
-43
72
46
73
-45
0
VERTEX
8
OBJECT015
10
0
20
0
30
0
70
128
71
-43
72
45
73
44
0
VERTEX
8
OBJECT015
10
0
20
0
30
0
70
128
71
37
72
8
73
-7
0
VERTEX
8
OBJECT015
10
0
20
0
30
0
70
128
71
-37
72
7
73
-35
0
VERTEX
8
OBJECT015
10
0
20
0
30
0
70
128
71
-37
72
35
73
-36
0
VERTEX
8
OBJECT015
10
0
20
0
30
0
70
128
71
-37
72
36
73
38
0
SEQEND
8
OBJECT015
0
POLYLINE
8
OBJECT016
66
1
70
64
71
34
72
64
62
50
0
VERTEX
8
OBJECT016
10
-59.910984
20
-67.663879
30
-32.000000
70
192
0
VERTEX
8
OBJECT016
10
-63.133282
20
-66.813416
30
-21.836403
70
192
0
VERTEX
8
OBJECT016
10
-66.916206
20
-62.813416
30
-9.903027
70
192
0
VERTEX
8
OBJECT016
10
-70.699722
20
-56.813416
30
2.033305
70
192
0
VERTEX
8
OBJECT016
10
-73.535233
20
-48.829895
30
10.980531
70
192
0
VERTEX
8
OBJECT016
10
-76.064644
20
-39.813416
30
18.962719
70
192
0
VERTEX
8
OBJECT016
10
-77.953148
20
-27.828308
30
24.925106
70
192
0
VERTEX
8
OBJECT016
10
-79.215034
20
-15.813416
30
28.911131
70
192
0
VERTEX
8
OBJECT016
10
-79.528412
20
-3.813416
30
29.901636
70
192
0
VERTEX
8
OBJECT016
10
-79.211700
20
8.186584
30
28.912436
70
192
0
VERTEX
8
OBJECT016
10
-77.944290
20
20.215302
30
24.921040
70
192
0
VERTEX
8
OBJECT016
10
-76.057846
20
32.186584
30
18.977177
70
192
0
VERTEX
8
OBJECT016
10
-73.505142
20
41.261322
30
10.930511
70
192
0
VERTEX
8
OBJECT016
10
-70.684380
20
49.186584
30
2.059064
70
192
0
VERTEX
8
OBJECT016
10
-66.903214
20
55.186584
30
-9.884935
70
192
0
VERTEX
8
OBJECT016
10
-63.119446
20
59.186584
30
-21.816936
70
192
0
VERTEX
8
OBJECT016
10
-59.890717
20
60.038330
30
-32.000000
70
192
0
VERTEX
8
OBJECT016
10
-90.968422
20
-66.838684
30
-32.000000
70
192
0
VERTEX
8
OBJECT016
10
-91.063011
20
-66.813416
30
-31.703543
70
192
0
VERTEX
8
OBJECT016
10
-94.868500
20
-62.813416
30
-19.777105
70
192
0
VERTEX
8
OBJECT016
10
-98.676476
20
-56.813416
30
-7.842703
70
192
0
VERTEX
8
OBJECT016
10
-101.527702
20
-48.831482
30
1.093483
70
192
0
VERTEX
8
OBJECT016
10
-104.073723
20
-39.813416
30
9.073232
70
192
0
VERTEX
8
OBJECT016
10
-105.973953
20
-27.829895
30
15.029336
70
192
0
VERTEX
8
OBJECT016
10
-107.244873
20
-15.813416
30
19.013206
70
192
0
VERTEX
8
OBJECT016
10
-107.561287
20
-3.813416
30
20.005840
70
192
0
VERTEX
8
OBJECT016
10
-107.244392
20
8.186584
30
19.013447
70
192
0
VERTEX
8
OBJECT016
10
-105.971771
20
20.210297
30
15.026046
70
192
0
VERTEX
8
OBJECT016
10
-104.075615
20
32.186584
30
9.084655
70
192
0
VERTEX
8
OBJECT016
10
-101.500572
20
41.258484
30
1.044167
70
192
0
VERTEX
8
OBJECT016
10
-98.681511
20
49.175293
30
-7.818906
70
192
0
VERTEX
8
OBJECT016
10
-94.871048
20
55.186584
30
-19.760359
70
192
0
VERTEX
8
OBJECT016
10
-91.066399
20
59.186584
30
-31.683535
70
192
0
VERTEX
8
OBJECT016
10
-90.965378
20
59.212738
30
-32.000000
70
192
0
VERTEX
8
OBJECT016
10
0
20
0
30
0
70
128
71
2
72
3
73
-4
0
VERTEX
8
OBJECT016
10
0
20
0
30
0
70
128
71
-2
72
4
73
-5
0
VERTEX
8
OBJECT016
10
0
20
0
30
0
70
128
71
-2
72
5
73
-6
0
VERTEX
8
OBJECT016
10
0
20
0
30
0
70
128
71
-2
72
6
73
-7
0
VERTEX
8
OBJECT016
10
0
20
0
30
0
70
128
71
-2
72
7
73
-8
0
VERTEX
8
OBJECT016
10
0
20
0
30
0
70
128
71
-2
72
8
73
-9
0
VERTEX
8
OBJECT016
10
0
20
0
30
0
70
128
71
-2
72
9
73
-10
0
VERTEX
8
OBJECT016
10
0
20
0
30
0
70
128
71
-2
72
10
73
-11
0
VERTEX
8
OBJECT016
10
0
20
0
30
0
70
128
71
-2
72
11
73
-12
0
VERTEX
8
OBJECT016
10
0
20
0
30
0
70
128
71
-2
72
12
73
-13
0
VERTEX
8
OBJECT016
10
0
20
0
30
0
70
128
71
-2
72
13
73
-14
0
VERTEX
8
OBJECT016
10
0
20
0
30
0
70
128
71
-2
72
14
73
-15
0
VERTEX
8
OBJECT016
10
0
20
0
30
0
70
128
71
-2
72
15
73
-16
0
VERTEX
8
OBJECT016
10
0
20
0
30
0
70
128
71
-2
72
16
73
-17
0
VERTEX
8
OBJECT016
10
0
20
0
30
0
70
128
71
-2
72
17
73
1
0
VERTEX
8
OBJECT016
10
0
20
0
30
0
70
128
71
1
72
18
73
-19
0
VERTEX
8
OBJECT016
10
0
20
0
30
0
70
128
71
-1
72
19
73
2
0
VERTEX
8
OBJECT016
10
0
20
0
30
0
70
128
71
2
72
19
73
-20
0
VERTEX
8
OBJECT016
10
0
20
0
30
0
70
128
71
-2
72
20
73
3
0
VERTEX
8
OBJECT016
10
0
20
0
30
0
70
128
71
3
72
20
73
-21
0
VERTEX
8
OBJECT016
10
0
20
0
30
0
70
128
71
-3
72
21
73
4
0
VERTEX
8
OBJECT016
10
0
20
0
30
0
70
128
71
4
72
21
73
-22
0
VERTEX
8
OBJECT016
10
0
20
0
30
0
70
128
71
-4
72
22
73
5
0
VERTEX
8
OBJECT016
10
0
20
0
30
0
70
128
71
6
72
5
73
-22
0
VERTEX
8
OBJECT016
10
0
20
0
30
0
70
128
71
-6
72
22
73
23
0
VERTEX
8
OBJECT016
10
0
20
0
30
0
70
128
71
7
72
6
73
-23
0
VERTEX
8
OBJECT016
10
0
20
0
30
0
70
128
71
-7
72
23
73
24
0
VERTEX
8
OBJECT016
10
0
20
0
30
0
70
128
71
8
72
7
73
-24
0
VERTEX
8
OBJECT016
10
0
20
0
30
0
70
128
71
-8
72
24
73
25
0
VERTEX
8
OBJECT016
10
0
20
0
30
0
70
128
71
9
72
8
73
-25
0
VERTEX
8
OBJECT016
10
0
20
0
30
0
70
128
71
-9
72
25
73
26
0
VERTEX
8
OBJECT016
10
0
20
0
30
0
70
128
71
10
72
9
73
-26
0
VERTEX
8
OBJECT016
10
0
20
0
30
0
70
128
71
-10
72
26
73
27
0
VERTEX
8
OBJECT016
10
0
20
0
30
0
70
128
71
11
72
10
73
-27
0
VERTEX
8
OBJECT016
10
0
20
0
30
0
70
128
71
-11
72
27
73
28
0
VERTEX
8
OBJECT016
10
0
20
0
30
0
70
128
71
12
72
11
73
-28
0
VERTEX
8
OBJECT016
10
0
20
0
30
0
70
128
71
-12
72
28
73
29
0
VERTEX
8
OBJECT016
10
0
20
0
30
0
70
128
71
13
72
12
73
-29
0
VERTEX
8
OBJECT016
10
0
20
0
30
0
70
128
71
-13
72
29
73
30
0
VERTEX
8
OBJECT016
10
0
20
0
30
0
70
128
71
14
72
13
73
-30
0
VERTEX
8
OBJECT016
10
0
20
0
30
0
70
128
71
-14
72
30
73
31
0
VERTEX
8
OBJECT016
10
0
20
0
30
0
70
128
71
15
72
14
73
-31
0
VERTEX
8
OBJECT016
10
0
20
0
30
0
70
128
71
-15
72
31
73
32
0
VERTEX
8
OBJECT016
10
0
20
0
30
0
70
128
71
16
72
15
73
-32
0
VERTEX
8
OBJECT016
10
0
20
0
30
0
70
128
71
-16
72
32
73
33
0
VERTEX
8
OBJECT016
10
0
20
0
30
0
70
128
71
16
72
33
73
-34
0
VERTEX
8
OBJECT016
10
0
20
0
30
0
70
128
71
-16
72
34
73
17
0
VERTEX
8
OBJECT016
10
0
20
0
30
0
70
128
71
21
72
20
73
-19
0
VERTEX
8
OBJECT016
10
0
20
0
30
0
70
128
71
-21
72
19
73
-18
0
VERTEX
8
OBJECT016
10
0
20
0
30
0
70
128
71
-21
72
18
73
-34
0
VERTEX
8
OBJECT016
10
0
20
0
30
0
70
128
71
-21
72
34
73
-33
0
VERTEX
8
OBJECT016
10
0
20
0
30
0
70
128
71
-21
72
33
73
-32
0
VERTEX
8
OBJECT016
10
0
20
0
30
0
70
128
71
-21
72
32
73
-31
0
VERTEX
8
OBJECT016
10
0
20
0
30
0
70
128
71
-21
72
31
73
-30
0
VERTEX
8
OBJECT016
10
0
20
0
30
0
70
128
71
-21
72
30
73
-29
0
VERTEX
8
OBJECT016
10
0
20
0
30
0
70
128
71
-21
72
29
73
-28
0
VERTEX
8
OBJECT016
10
0
20
0
30
0
70
128
71
-21
72
28
73
-27
0
VERTEX
8
OBJECT016
10
0
20
0
30
0
70
128
71
-21
72
27
73
-26
0
VERTEX
8
OBJECT016
10
0
20
0
30
0
70
128
71
-21
72
26
73
-25
0
VERTEX
8
OBJECT016
10
0
20
0
30
0
70
128
71
-21
72
25
73
-24
0
VERTEX
8
OBJECT016
10
0
20
0
30
0
70
128
71
-21
72
24
73
-23
0
VERTEX
8
OBJECT016
10
0
20
0
30
0
70
128
71
-21
72
23
73
22
0
VERTEX
8
OBJECT016
10
0
20
0
30
0
70
128
71
1
72
17
73
-34
0
VERTEX
8
OBJECT016
10
0
20
0
30
0
70
128
71
-1
72
34
73
18
0
SEQEND
8
OBJECT016
0
POLYLINE
8
OBJECT017
66
1
70
64
71
8
72
12
62
50
0
VERTEX
8
OBJECT017
10
2.876876
20
10.186584
30
6.819671
70
192
0
VERTEX
8
OBJECT017
10
-1.099408
20
10.186584
30
6.819671
70
192
0
VERTEX
8
OBJECT017
10
7.847230
20
25.186584
30
6.819671
70
192
0
VERTEX
8
OBJECT017
10
6.057642
20
16.186584
30
6.819671
70
192
0
VERTEX
8
OBJECT017
10
-1.099408
20
10.186584
30
-0.524592
70
192
0
VERTEX
8
OBJECT017
10
2.876876
20
10.186584
30
-0.524592
70
192
0
VERTEX
8
OBJECT017
10
6.057642
20
16.186584
30
-0.524592
70
192
0
VERTEX
8
OBJECT017
10
7.847230
20
25.186584
30
-0.524592
70
192
0
VERTEX
8
OBJECT017
10
0
20
0
30
0
70
128
71
2
72
3
73
-4
0
VERTEX
8
OBJECT017
10
0
20
0
30
0
70
128
71
-2
72
4
73
1
0
VERTEX
8
OBJECT017
10
0
20
0
30
0
70
128
71
6
72
7
73
-8
0
VERTEX
8
OBJECT017
10
0
20
0
30
0
70
128
71
-6
72
8
73
5
0
VERTEX
8
OBJECT017
10
0
20
0
30
0
70
128
71
5
72
2
73
-1
0
VERTEX
8
OBJECT017
10
0
20
0
30
0
70
128
71
-5
72
1
73
6
0
VERTEX
8
OBJECT017
10
0
20
0
30
0
70
128
71
6
72
1
73
-4
0
VERTEX
8
OBJECT017
10
0
20
0
30
0
70
128
71
-6
72
4
73
7
0
VERTEX
8
OBJECT017
10
0
20
0
30
0
70
128
71
8
72
3
73
-2
0
VERTEX
8
OBJECT017
10
0
20
0
30
0
70
128
71
-8
72
2
73
5
0
VERTEX
8
OBJECT017
10
0
20
0
30
0
70
128
71
7
72
4
73
-3
0
VERTEX
8
OBJECT017
10
0
20
0
30
0
70
128
71
-7
72
3
73
8
0
SEQEND
8
OBJECT017
0
POLYLINE
8
OBJECT018
66
1
70
64
71
8
72
12
62
50
0
VERTEX
8
OBJECT018
10
6.057915
20
11.186584
30
27.803278
70
192
0
VERTEX
8
OBJECT018
10
5.062782
20
11.186584
30
27.803278
70
192
0
VERTEX
8
OBJECT018
10
8.642596
20
29.186584
30
27.803278
70
192
0
VERTEX
8
OBJECT018
10
9.636546
20
29.186584
30
27.803278
70
192
0
VERTEX
8
OBJECT018
10
9.636546
20
29.186584
30
-12.065577
70
192
0
VERTEX
8
OBJECT018
10
8.642596
20
29.186584
30
-12.065577
70
192
0
VERTEX
8
OBJECT018
10
5.062782
20
11.186584
30
-12.065577
70
192
0
VERTEX
8
OBJECT018
10
6.057915
20
11.186584
30
-12.065577
70
192
0
VERTEX
8
OBJECT018
10
0
20
0
30
0
70
128
71
2
72
3
73
-4
0
VERTEX
8
OBJECT018
10
0
20
0
30
0
70
128
71
-2
72
4
73
1
0
VERTEX
8
OBJECT018
10
0
20
0
30
0
70
128
71
6
72
7
73
-8
0
VERTEX
8
OBJECT018
10
0
20
0
30
0
70
128
71
-6
72
8
73
5
0
VERTEX
8
OBJECT018
10
0
20
0
30
0
70
128
71
5
72
4
73
-3
0
VERTEX
8
OBJECT018
10
0
20
0
30
0
70
128
71
-5
72
3
73
6
0
VERTEX
8
OBJECT018
10
0
20
0
30
0
70
128
71
7
72
2
73
-1
0
VERTEX
8
OBJECT018
10
0
20
0
30
0
70
128
71
-7
72
1
73
8
0
VERTEX
8
OBJECT018
10
0
20
0
30
0
70
128
71
6
72
3
73
-2
0
VERTEX
8
OBJECT018
10
0
20
0
30
0
70
128
71
-6
72
2
73
7
0
VERTEX
8
OBJECT018
10
0
20
0
30
0
70
128
71
8
72
1
73
-4
0
VERTEX
8
OBJECT018
10
0
20
0
30
0
70
128
71
-8
72
4
73
5
0
SEQEND
8
OBJECT018
0
POLYLINE
8
OBJECT019
66
1
70
64
71
30
72
56
62
50
0
VERTEX
8
OBJECT019
10
-123.468788
20
-48.781006
30
-5.912985
70
192
0
VERTEX
8
OBJECT019
10
-120.681152
20
-56.825195
30
-14.942914
70
192
0
VERTEX
8
OBJECT019
10
-116.981659
20
-62.828857
30
-26.939024
70
192
0
VERTEX
8
OBJECT019
10
-115.417572
20
-64.521118
30
-32.000000
70
192
0
VERTEX
8
OBJECT019
10
-115.521927
20
56.885498
30
-32.000000
70
192
0
VERTEX
8
OBJECT019
10
-117.086494
20
55.186584
30
-26.915316
70
192
0
VERTEX
8
OBJECT019
10
-120.769241
20
49.186584
30
-14.941201
70
192
0
VERTEX
8
OBJECT019
10
-123.528244
20
41.186584
30
-5.961141
70
192
0
VERTEX
8
OBJECT019
10
-125.981628
20
32.173920
30
2.029175
70
192
0
VERTEX
8
OBJECT019
10
-127.813904
20
20.186584
30
8.010748
70
192
0
VERTEX
8
OBJECT019
10
-129.034393
20
8.186584
30
12.005968
70
192
0
VERTEX
8
OBJECT019
10
-129.334564
20
-3.813416
30
13.004720
70
192
0
VERTEX
8
OBJECT019
10
-129.015961
20
-15.813416
30
12.010476
70
192
0
VERTEX
8
OBJECT019
10
-127.782722
20
-27.783630
30
8.038196
70
192
0
VERTEX
8
OBJECT019
10
-125.926247
20
-39.813416
30
2.042422
70
192
0
VERTEX
8
OBJECT019
10
-106.635773
20
-62.813416
30
-23.378157
70
192
0
VERTEX
8
OBJECT019
10
-103.876419
20
-65.716614
30
-32.000000
70
192
0
VERTEX
8
OBJECT019
10
-110.447220
20
-56.824341
30
-11.435727
70
192
0
VERTEX
8
OBJECT019
10
-113.333618
20
-48.777954
30
-2.434029
70
192
0
VERTEX
8
OBJECT019
10
-115.866188
20
-39.813416
30
5.493818
70
192
0
VERTEX
8
OBJECT019
10
-117.771568
20
-27.786316
30
11.470621
70
192
0
VERTEX
8
OBJECT019
10
-119.032295
20
-15.813416
30
15.434402
70
192
0
VERTEX
8
OBJECT019
10
-119.342529
20
-3.813416
30
16.430864
70
192
0
VERTEX
8
OBJECT019
10
-119.017014
20
8.186584
30
15.442358
70
192
0
VERTEX
8
OBJECT019
10
-117.736320
20
20.170685
30
11.471517
70
192
0
VERTEX
8
OBJECT019
10
-115.817757
20
32.186584
30
5.509315
70
192
0
VERTEX
8
OBJECT019
10
-113.263000
20
41.186584
30
-2.446035
70
192
0
VERTEX
8
OBJECT019
10
-110.398239
20
49.176056
30
-11.371753
70
192
0
VERTEX
8
OBJECT019
10
-106.563454
20
55.186584
30
-23.330658
70
192
0
VERTEX
8
OBJECT019
10
-103.784561
20
58.100494
30
-32.000000
70
192
0
VERTEX
8
OBJECT019
10
0
20
0
30
0
70
128
71
2
72
3
73
-4
0
VERTEX
8
OBJECT019
10
0
20
0
30
0
70
128
71
-2
72
4
73
-5
0
VERTEX
8
OBJECT019
10
0
20
0
30
0
70
128
71
-2
72
5
73
-6
0
VERTEX
8
OBJECT019
10
0
20
0
30
0
70
128
71
-2
72
6
73
-7
0
VERTEX
8
OBJECT019
10
0
20
0
30
0
70
128
71
-2
72
7
73
-8
0
VERTEX
8
OBJECT019
10
0
20
0
30
0
70
128
71
-2
72
8
73
-9
0
VERTEX
8
OBJECT019
10
0
20
0
30
0
70
128
71
-2
72
9
73
-10
0
VERTEX
8
OBJECT019
10
0
20
0
30
0
70
128
71
-2
72
10
73
-11
0
VERTEX
8
OBJECT019
10
0
20
0
30
0
70
128
71
-2
72
11
73
-12
0
VERTEX
8
OBJECT019
10
0
20
0
30
0
70
128
71
-2
72
12
73
-13
0
VERTEX
8
OBJECT019
10
0
20
0
30
0
70
128
71
-2
72
13
73
-14
0
VERTEX
8
OBJECT019
10
0
20
0
30
0
70
128
71
-2
72
14
73
-15
0
VERTEX
8
OBJECT019
10
0
20
0
30
0
70
128
71
-2
72
15
73
1
0
VERTEX
8
OBJECT019
10
0
20
0
30
0
70
128
71
3
72
16
73
-17
0
VERTEX
8
OBJECT019
10
0
20
0
30
0
70
128
71
-3
72
17
73
4
0
VERTEX
8
OBJECT019
10
0
20
0
30
0
70
128
71
3
72
2
73
-18
0
VERTEX
8
OBJECT019
10
0
20
0
30
0
70
128
71
-3
72
18
73
16
0
VERTEX
8
OBJECT019
10
0
20
0
30
0
70
128
71
2
72
1
73
-19
0
VERTEX
8
OBJECT019
10
0
20
0
30
0
70
128
71
-2
72
19
73
18
0
VERTEX
8
OBJECT019
10
0
20
0
30
0
70
128
71
1
72
15
73
-20
0
VERTEX
8
OBJECT019
10
0
20
0
30
0
70
128
71
-1
72
20
73
19
0
VERTEX
8
OBJECT019
10
0
20
0
30
0
70
128
71
15
72
14
73
-21
0
VERTEX
8
OBJECT019
10
0
20
0
30
0
70
128
71
-15
72
21
73
20
0
VERTEX
8
OBJECT019
10
0
20
0
30
0
70
128
71
14
72
13
73
-22
0
VERTEX
8
OBJECT019
10
0
20
0
30
0
70
128
71
-14
72
22
73
21
0
VERTEX
8
OBJECT019
10
0
20
0
30
0
70
128
71
13
72
12
73
-23
0
VERTEX
8
OBJECT019
10
0
20
0
30
0
70
128
71
-13
72
23
73
22
0
VERTEX
8
OBJECT019
10
0
20
0
30
0
70
128
71
12
72
11
73
-24
0
VERTEX
8
OBJECT019
10
0
20
0
30
0
70
128
71
-12
72
24
73
23
0
VERTEX
8
OBJECT019
10
0
20
0
30
0
70
128
71
11
72
10
73
-25
0
VERTEX
8
OBJECT019
10
0
20
0
30
0
70
128
71
-11
72
25
73
24
0
VERTEX
8
OBJECT019
10
0
20
0
30
0
70
128
71
10
72
9
73
-26
0
VERTEX
8
OBJECT019
10
0
20
0
30
0
70
128
71
-10
72
26
73
25
0
VERTEX
8
OBJECT019
10
0
20
0
30
0
70
128
71
9
72
8
73
-27
0
VERTEX
8
OBJECT019
10
0
20
0
30
0
70
128
71
-9
72
27
73
26
0
VERTEX
8
OBJECT019
10
0
20
0
30
0
70
128
71
7
72
28
73
-27
0
VERTEX
8
OBJECT019
10
0
20
0
30
0
70
128
71
-7
72
27
73
8
0
VERTEX
8
OBJECT019
10
0
20
0
30
0
70
128
71
6
72
29
73
-28
0
VERTEX
8
OBJECT019
10
0
20
0
30
0
70
128
71
-6
72
28
73
7
0
VERTEX
8
OBJECT019
10
0
20
0
30
0
70
128
71
5
72
30
73
-29
0
VERTEX
8
OBJECT019
10
0
20
0
30
0
70
128
71
-5
72
29
73
6
0
VERTEX
8
OBJECT019
10
0
20
0
30
0
70
128
71
16
72
18
73
-19
0
VERTEX
8
OBJECT019
10
0
20
0
30
0
70
128
71
-16
72
19
73
-20
0
VERTEX
8
OBJECT019
10
0
20
0
30
0
70
128
71
-16
72
20
73
-21
0
VERTEX
8
OBJECT019
10
0
20
0
30
0
70
128
71
-16
72
21
73
-22
0
VERTEX
8
OBJECT019
10
0
20
0
30
0
70
128
71
-16
72
22
73
-23
0
VERTEX
8
OBJECT019
10
0
20
0
30
0
70
128
71
-16
72
23
73
-24
0
VERTEX
8
OBJECT019
10
0
20
0
30
0
70
128
71
-16
72
24
73
-25
0
VERTEX
8
OBJECT019
10
0
20
0
30
0
70
128
71
-16
72
25
73
-26
0
VERTEX
8
OBJECT019
10
0
20
0
30
0
70
128
71
-16
72
26
73
-27
0
VERTEX
8
OBJECT019
10
0
20
0
30
0
70
128
71
-16
72
27
73
-28
0
VERTEX
8
OBJECT019
10
0
20
0
30
0
70
128
71
-16
72
28
73
-29
0
VERTEX
8
OBJECT019
10
0
20
0
30
0
70
128
71
-16
72
29
73
-30
0
VERTEX
8
OBJECT019
10
0
20
0
30
0
70
128
71
-16
72
30
73
17
0
VERTEX
8
OBJECT019
10
0
20
0
30
0
70
128
71
5
72
4
73
-17
0
VERTEX
8
OBJECT019
10
0
20
0
30
0
70
128
71
-5
72
17
73
30
0
SEQEND
8
OBJECT019
0
POLYLINE
8
OBJECT020
66
1
70
64
71
66
72
128
62
50
0
VERTEX
8
OBJECT020
10
132.341583
20
60.186584
30
32.141567
70
192
0
VERTEX
8
OBJECT020
10
136.030151
20
59.186584
30
20.158857
70
192
0
VERTEX
8
OBJECT020
10
139.704910
20
55.196716
30
8.220901
70
192
0
VERTEX
8
OBJECT020
10
143.402054
20
49.186584
30
-3.789833
70
192
0
VERTEX
8
OBJECT020
10
146.178360
20
41.147949
30
-12.809157
70
192
0
VERTEX
8
OBJECT020
10
148.620667
20
32.186584
30
-20.743486
70
192
0
VERTEX
8
OBJECT020
10
150.469696
20
20.149536
30
-26.754101
70
192
0
VERTEX
8
OBJECT020
10
151.692734
20
8.186584
30
-30.724180
70
192
0
VERTEX
8
OBJECT020
10
151.999924
20
-3.813416
30
-31.722532
70
192
0
VERTEX
8
OBJECT020
10
151.692642
20
-15.813416
30
-30.724676
70
192
0
VERTEX
8
OBJECT020
10
150.459076
20
-27.855774
30
-26.717663
70
192
0
VERTEX
8
OBJECT020
10
148.619156
20
-39.824280
30
-20.740957
70
192
0
VERTEX
8
OBJECT020
10
146.146790
20
-48.864258
30
-12.709675
70
192
0
VERTEX
8
OBJECT020
10
143.402191
20
-56.813416
30
-3.793867
70
192
0
VERTEX
8
OBJECT020
10
139.715057
20
-62.813416
30
8.183936
70
192
0
VERTEX
8
OBJECT020
10
136.026794
20
-66.813416
30
20.165325
70
192
0
VERTEX
8
OBJECT020
10
132.340256
20
-67.813416
30
32.141342
70
192
0
VERTEX
8
OBJECT020
10
128.656784
20
-66.813416
30
44.107418
70
192
0
VERTEX
8
OBJECT020
10
124.980759
20
-62.828186
30
56.049545
70
192
0
VERTEX
8
OBJECT020
10
121.284988
20
-56.813416
30
68.055801
70
192
0
VERTEX
8
OBJECT020
10
118.516617
20
-48.813416
30
77.049385
70
192
0
VERTEX
8
OBJECT020
10
116.059448
20
-39.813416
30
85.031990
70
192
0
VERTEX
8
OBJECT020
10
114.212822
20
-27.782776
30
91.025070
70
192
0
VERTEX
8
OBJECT020
10
112.990372
20
-15.813416
30
95.002937
70
192
0
VERTEX
8
OBJECT020
10
112.681671
20
-3.813416
30
96.000000
70
192
0
VERTEX
8
OBJECT020
10
112.990372
20
8.186584
30
95.003746
70
192
0
VERTEX
8
OBJECT020
10
114.226051
20
20.227966
30
90.989952
70
192
0
VERTEX
8
OBJECT020
10
116.061958
20
32.186584
30
85.026299
70
192
0
VERTEX
8
OBJECT020
10
118.535820
20
41.232605
30
76.990128
70
192
0
VERTEX
8
OBJECT020
10
121.285294
20
49.186584
30
68.058510
70
192
0
VERTEX
8
OBJECT020
10
124.975471
20
55.198059
30
56.070885
70
192
0
VERTEX
8
OBJECT020
10
128.655396
20
59.186584
30
44.116417
70
192
0
VERTEX
8
OBJECT020
10
125.483940
20
59.186584
30
16.549267
70
192
0
VERTEX
8
OBJECT020
10
121.667587
20
60.186584
30
28.476000
70
192
0
VERTEX
8
OBJECT020
10
129.293152
20
55.186584
30
4.644385
70
192
0
VERTEX
8
OBJECT020
10
133.121674
20
49.186584
30
-7.321059
70
192
0
VERTEX
8
OBJECT020
10
135.996246
20
41.143280
30
-16.305571
70
192
0
VERTEX
8
OBJECT020
10
138.522354
20
32.203979
30
-24.201160
70
192
0
VERTEX
8
OBJECT020
10
140.438919
20
20.143646
30
-30.192339
70
192
0
VERTEX
8
OBJECT020
10
147.973190
20
8.186584
30
-32.000000
70
192
0
VERTEX
8
OBJECT020
10
141.017090
20
14.681946
30
-32.000000
70
192
0
VERTEX
8
OBJECT020
10
151.190353
20
-3.813416
30
-32.000000
70
192
0
VERTEX
8
OBJECT020
10
147.975708
20
-15.813416
30
-32.000000
70
192
0
VERTEX
8
OBJECT020
10
140.425339
20
-27.861084
30
-30.156446
70
192
0
VERTEX
8
OBJECT020
10
141.015488
20
-22.299866
30
-32.000000
70
192
0
VERTEX
8
OBJECT020
10
138.520935
20
-39.813416
30
-24.206539
70
192
0
VERTEX
8
OBJECT020
10
135.956757
20
-48.875732
30
-16.194422
70
192
0
VERTEX
8
OBJECT020
10
133.115067
20
-56.813416
30
-7.314823
70
192
0
VERTEX
8
OBJECT020
10
129.308868
20
-62.813416
30
4.579163
70
192
0
VERTEX
8
OBJECT020
10
125.477028
20
-66.813416
30
16.553717
70
192
0
VERTEX
8
OBJECT020
10
121.660767
20
-67.813416
30
28.479818
70
192
0
VERTEX
8
OBJECT020
10
117.849762
20
-66.813416
30
40.393433
70
192
0
VERTEX
8
OBJECT020
10
114.034622
20
-62.813416
30
52.313293
70
192
0
VERTEX
8
OBJECT020
10
110.212448
20
-56.813416
30
64.258835
70
192
0
VERTEX
8
OBJECT020
10
107.346153
20
-48.813416
30
73.217514
70
192
0
VERTEX
8
OBJECT020
10
104.802307
20
-39.813416
30
81.168602
70
192
0
VERTEX
8
OBJECT020
10
102.891640
20
-27.784912
30
87.141296
70
192
0
VERTEX
8
OBJECT020
10
101.626083
20
-15.834290
30
91.098022
70
192
0
VERTEX
8
OBJECT020
10
101.305489
20
-3.788300
30
92.101532
70
192
0
VERTEX
8
OBJECT020
10
101.624756
20
8.186584
30
91.105400
70
192
0
VERTEX
8
OBJECT020
10
102.906410
20
20.239990
30
87.101746
70
192
0
VERTEX
8
OBJECT020
10
104.807014
20
32.186584
30
81.163719
70
192
0
VERTEX
8
OBJECT020
10
107.374092
20
41.248810
30
73.142464
70
192
0
VERTEX
8
OBJECT020
10
110.214333
20
49.186584
30
64.267471
70
192
0
VERTEX
8
OBJECT020
10
114.037567
20
55.197937
30
52.320152
70
192
0
VERTEX
8
OBJECT020
10
117.847336
20
59.186584
30
40.414703
70
192
0
VERTEX
8
OBJECT020
10
0
20
0
30
0
70
128
71
2
72
3
73
-4
0
VERTEX
8
OBJECT020
10
0
20
0
30
0
70
128
71
-2
72
4
73
-5
0
VERTEX
8
OBJECT020
10
0
20
0
30
0
70
128
71
-2
72
5
73
-6
0
VERTEX
8
OBJECT020
10
0
20
0
30
0
70
128
71
-2
72
6
73
-7
0
VERTEX
8
OBJECT020
10
0
20
0
30
0
70
128
71
-2
72
7
73
-8
0
VERTEX
8
OBJECT020
10
0
20
0
30
0
70
128
71
-2
72
8
73
-9
0
VERTEX
8
OBJECT020
10
0
20
0
30
0
70
128
71
-2
72
9
73
-10
0
VERTEX
8
OBJECT020
10
0
20
0
30
0
70
128
71
-2
72
10
73
-11
0
VERTEX
8
OBJECT020
10
0
20
0
30
0
70
128
71
-2
72
11
73
-12
0
VERTEX
8
OBJECT020
10
0
20
0
30
0
70
128
71
-2
72
12
73
-13
0
VERTEX
8
OBJECT020
10
0
20
0
30
0
70
128
71
-2
72
13
73
-14
0
VERTEX
8
OBJECT020
10
0
20
0
30
0
70
128
71
-2
72
14
73
-15
0
VERTEX
8
OBJECT020
10
0
20
0
30
0
70
128
71
-2
72
15
73
-16
0
VERTEX
8
OBJECT020
10
0
20
0
30
0
70
128
71
-2
72
16
73
-17
0
VERTEX
8
OBJECT020
10
0
20
0
30
0
70
128
71
-2
72
17
73
-18
0
VERTEX
8
OBJECT020
10
0
20
0
30
0
70
128
71
-2
72
18
73
-19
0
VERTEX
8
OBJECT020
10
0
20
0
30
0
70
128
71
-2
72
19
73
-20
0
VERTEX
8
OBJECT020
10
0
20
0
30
0
70
128
71
-2
72
20
73
-21
0
VERTEX
8
OBJECT020
10
0
20
0
30
0
70
128
71
-2
72
21
73
-22
0
VERTEX
8
OBJECT020
10
0
20
0
30
0
70
128
71
-2
72
22
73
-23
0
VERTEX
8
OBJECT020
10
0
20
0
30
0
70
128
71
-2
72
23
73
-24
0
VERTEX
8
OBJECT020
10
0
20
0
30
0
70
128
71
-2
72
24
73
-25
0
VERTEX
8
OBJECT020
10
0
20
0
30
0
70
128
71
-2
72
25
73
-26
0
VERTEX
8
OBJECT020
10
0
20
0
30
0
70
128
71
-2
72
26
73
-27
0
VERTEX
8
OBJECT020
10
0
20
0
30
0
70
128
71
-2
72
27
73
-28
0
VERTEX
8
OBJECT020
10
0
20
0
30
0
70
128
71
-2
72
28
73
-29
0
VERTEX
8
OBJECT020
10
0
20
0
30
0
70
128
71
-2
72
29
73
-30
0
VERTEX
8
OBJECT020
10
0
20
0
30
0
70
128
71
-2
72
30
73
-31
0
VERTEX
8
OBJECT020
10
0
20
0
30
0
70
128
71
-2
72
31
73
-32
0
VERTEX
8
OBJECT020
10
0
20
0
30
0
70
128
71
-2
72
32
73
1
0
VERTEX
8
OBJECT020
10
0
20
0
30
0
70
128
71
2
72
1
73
-34
0
VERTEX
8
OBJECT020
10
0
20
0
30
0
70
128
71
-2
72
34
73
33
0
VERTEX
8
OBJECT020
10
0
20
0
30
0
70
128
71
3
72
2
73
-33
0
VERTEX
8
OBJECT020
10
0
20
0
30
0
70
128
71
-3
72
33
73
35
0
VERTEX
8
OBJECT020
10
0
20
0
30
0
70
128
71
3
72
35
73
-36
0
VERTEX
8
OBJECT020
10
0
20
0
30
0
70
128
71
-3
72
36
73
4
0
VERTEX
8
OBJECT020
10
0
20
0
30
0
70
128
71
5
72
4
73
-36
0
VERTEX
8
OBJECT020
10
0
20
0
30
0
70
128
71
-5
72
36
73
37
0
VERTEX
8
OBJECT020
10
0
20
0
30
0
70
128
71
5
72
37
73
-38
0
VERTEX
8
OBJECT020
10
0
20
0
30
0
70
128
71
-5
72
38
73
6
0
VERTEX
8
OBJECT020
10
0
20
0
30
0
70
128
71
7
72
6
73
-38
0
VERTEX
8
OBJECT020
10
0
20
0
30
0
70
128
71
-7
72
38
73
39
0
VERTEX
8
OBJECT020
10
0
20
0
30
0
70
128
71
8
72
7
73
-39
0
VERTEX
8
OBJECT020
10
0
20
0
30
0
70
128
71
-8
72
39
73
-41
0
VERTEX
8
OBJECT020
10
0
20
0
30
0
70
128
71
-8
72
41
73
40
0
VERTEX
8
OBJECT020
10
0
20
0
30
0
70
128
71
8
72
40
73
-42
0
VERTEX
8
OBJECT020
10
0
20
0
30
0
70
128
71
-8
72
42
73
9
0
VERTEX
8
OBJECT020
10
0
20
0
30
0
70
128
71
10
72
9
73
-42
0
VERTEX
8
OBJECT020
10
0
20
0
30
0
70
128
71
-10
72
42
73
43
0
VERTEX
8
OBJECT020
10
0
20
0
30
0
70
128
71
11
72
10
73
-43
0
VERTEX
8
OBJECT020
10
0
20
0
30
0
70
128
71
-11
72
43
73
-45
0
VERTEX
8
OBJECT020
10
0
20
0
30
0
70
128
71
-11
72
45
73
44
0
VERTEX
8
OBJECT020
10
0
20
0
30
0
70
128
71
11
72
44
73
-46
0
VERTEX
8
OBJECT020
10
0
20
0
30
0
70
128
71
-11
72
46
73
12
0
VERTEX
8
OBJECT020
10
0
20
0
30
0
70
128
71
13
72
12
73
-46
0
VERTEX
8
OBJECT020
10
0
20
0
30
0
70
128
71
-13
72
46
73
47
0
VERTEX
8
OBJECT020
10
0
20
0
30
0
70
128
71
13
72
47
73
-48
0
VERTEX
8
OBJECT020
10
0
20
0
30
0
70
128
71
-13
72
48
73
14
0
VERTEX
8
OBJECT020
10
0
20
0
30
0
70
128
71
14
72
48
73
-49
0
VERTEX
8
OBJECT020
10
0
20
0
30
0
70
128
71
-14
72
49
73
15
0
VERTEX
8
OBJECT020
10
0
20
0
30
0
70
128
71
15
72
49
73
-50
0
VERTEX
8
OBJECT020
10
0
20
0
30
0
70
128
71
-15
72
50
73
16
0
VERTEX
8
OBJECT020
10
0
20
0
30
0
70
128
71
16
72
50
73
-51
0
VERTEX
8
OBJECT020
10
0
20
0
30
0
70
128
71
-16
72
51
73
17
0
VERTEX
8
OBJECT020
10
0
20
0
30
0
70
128
71
17
72
51
73
-52
0
VERTEX
8
OBJECT020
10
0
20
0
30
0
70
128
71
-17
72
52
73
18
0
VERTEX
8
OBJECT020
10
0
20
0
30
0
70
128
71
18
72
52
73
-53
0
VERTEX
8
OBJECT020
10
0
20
0
30
0
70
128
71
-18
72
53
73
19
0
VERTEX
8
OBJECT020
10
0
20
0
30
0
70
128
71
19
72
53
73
-54
0
VERTEX
8
OBJECT020
10
0
20
0
30
0
70
128
71
-19
72
54
73
20
0
VERTEX
8
OBJECT020
10
0
20
0
30
0
70
128
71
20
72
54
73
-55
0
VERTEX
8
OBJECT020
10
0
20
0
30
0
70
128
71
-20
72
55
73
21
0
VERTEX
8
OBJECT020
10
0
20
0
30
0
70
128
71
22
72
21
73
-55
0
VERTEX
8
OBJECT020
10
0
20
0
30
0
70
128
71
-22
72
55
73
56
0
VERTEX
8
OBJECT020
10
0
20
0
30
0
70
128
71
23
72
22
73
-56
0
VERTEX
8
OBJECT020
10
0
20
0
30
0
70
128
71
-23
72
56
73
57
0
VERTEX
8
OBJECT020
10
0
20
0
30
0
70
128
71
23
72
57
73
-58
0
VERTEX
8
OBJECT020
10
0
20
0
30
0
70
128
71
-23
72
58
73
24
0
VERTEX
8
OBJECT020
10
0
20
0
30
0
70
128
71
25
72
24
73
-58
0
VERTEX
8
OBJECT020
10
0
20
0
30
0
70
128
71
-25
72
58
73
59
0
VERTEX
8
OBJECT020
10
0
20
0
30
0
70
128
71
25
72
59
73
-60
0
VERTEX
8
OBJECT020
10
0
20
0
30
0
70
128
71
-25
72
60
73
26
0
VERTEX
8
OBJECT020
10
0
20
0
30
0
70
128
71
27
72
26
73
-60
0
VERTEX
8
OBJECT020
10
0
20
0
30
0
70
128
71
-27
72
60
73
61
0
VERTEX
8
OBJECT020
10
0
20
0
30
0
70
128
71
27
72
61
73
-62
0
VERTEX
8
OBJECT020
10
0
20
0
30
0
70
128
71
-27
72
62
73
28
0
VERTEX
8
OBJECT020
10
0
20
0
30
0
70
128
71
28
72
62
73
-63
0
VERTEX
8
OBJECT020
10
0
20
0
30
0
70
128
71
-28
72
63
73
29
0
VERTEX
8
OBJECT020
10
0
20
0
30
0
70
128
71
30
72
29
73
-63
0
VERTEX
8
OBJECT020
10
0
20
0
30
0
70
128
71
-30
72
63
73
64
0
VERTEX
8
OBJECT020
10
0
20
0
30
0
70
128
71
31
72
30
73
-64
0
VERTEX
8
OBJECT020
10
0
20
0
30
0
70
128
71
-31
72
64
73
65
0
VERTEX
8
OBJECT020
10
0
20
0
30
0
70
128
71
32
72
31
73
-65
0
VERTEX
8
OBJECT020
10
0
20
0
30
0
70
128
71
-32
72
65
73
66
0
VERTEX
8
OBJECT020
10
0
20
0
30
0
70
128
71
1
72
32
73
-66
0
VERTEX
8
OBJECT020
10
0
20
0
30
0
70
128
71
-1
72
66
73
34
0
VERTEX
8
OBJECT020
10
0
20
0
30
0
70
128
71
51
72
50
73
-49
0
VERTEX
8
OBJECT020
10
0
20
0
30
0
70
128
71
-51
72
49
73
-48
0
VERTEX
8
OBJECT020
10
0
20
0
30
0
70
128
71
-51
72
48
73
-47
0
VERTEX
8
OBJECT020
10
0
20
0
30
0
70
128
71
-51
72
47
73
-46
0
VERTEX
8
OBJECT020
10
0
20
0
30
0
70
128
71
-51
72
46
73
-44
0
VERTEX
8
OBJECT020
10
0
20
0
30
0
70
128
71
-51
72
44
73
-45
0
VERTEX
8
OBJECT020
10
0
20
0
30
0
70
128
71
-51
72
45
73
-41
0
VERTEX
8
OBJECT020
10
0
20
0
30
0
70
128
71
-51
72
41
73
-39
0
VERTEX
8
OBJECT020
10
0
20
0
30
0
70
128
71
-51
72
39
73
-38
0
VERTEX
8
OBJECT020
10
0
20
0
30
0
70
128
71
-51
72
38
73
-37
0
VERTEX
8
OBJECT020
10
0
20
0
30
0
70
128
71
-51
72
37
73
-36
0
VERTEX
8
OBJECT020
10
0
20
0
30
0
70
128
71
-51
72
36
73
-35
0
VERTEX
8
OBJECT020
10
0
20
0
30
0
70
128
71
-51
72
35
73
-33
0
VERTEX
8
OBJECT020
10
0
20
0
30
0
70
128
71
-51
72
33
73
-34
0
VERTEX
8
OBJECT020
10
0
20
0
30
0
70
128
71
-51
72
34
73
-66
0
VERTEX
8
OBJECT020
10
0
20
0
30
0
70
128
71
-51
72
66
73
-65
0
VERTEX
8
OBJECT020
10
0
20
0
30
0
70
128
71
-51
72
65
73
-64
0
VERTEX
8
OBJECT020
10
0
20
0
30
0
70
128
71
-51
72
64
73
-63
0
VERTEX
8
OBJECT020
10
0
20
0
30
0
70
128
71
-51
72
63
73
-62
0
VERTEX
8
OBJECT020
10
0
20
0
30
0
70
128
71
-51
72
62
73
-61
0
VERTEX
8
OBJECT020
10
0
20
0
30
0
70
128
71
-51
72
61
73
-60
0
VERTEX
8
OBJECT020
10
0
20
0
30
0
70
128
71
-51
72
60
73
-59
0
VERTEX
8
OBJECT020
10
0
20
0
30
0
70
128
71
-51
72
59
73
-58
0
VERTEX
8
OBJECT020
10
0
20
0
30
0
70
128
71
-51
72
58
73
-57
0
VERTEX
8
OBJECT020
10
0
20
0
30
0
70
128
71
-51
72
57
73
-56
0
VERTEX
8
OBJECT020
10
0
20
0
30
0
70
128
71
-51
72
56
73
-55
0
VERTEX
8
OBJECT020
10
0
20
0
30
0
70
128
71
-51
72
55
73
-54
0
VERTEX
8
OBJECT020
10
0
20
0
30
0
70
128
71
-51
72
54
73
-53
0
VERTEX
8
OBJECT020
10
0
20
0
30
0
70
128
71
-51
72
53
73
52
0
VERTEX
8
OBJECT020
10
0
20
0
30
0
70
128
71
43
72
42
73
-40
0
VERTEX
8
OBJECT020
10
0
20
0
30
0
70
128
71
-43
72
40
73
-41
0
VERTEX
8
OBJECT020
10
0
20
0
30
0
70
128
71
-43
72
41
73
45
0
SEQEND
8
OBJECT020
0
POLYLINE
8
OBJECT021
66
1
70
64
71
18
72
32
62
50
0
VERTEX
8
OBJECT021
10
-16.071419
20
59.186584
30
-32.000000
70
192
0
VERTEX
8
OBJECT021
10
125.488403
20
59.186584
30
16.549370
70
192
0
VERTEX
8
OBJECT021
10
121.665932
20
60.186584
30
28.480091
70
192
0
VERTEX
8
OBJECT021
10
-54.694965
20
60.186584
30
-32.000000
70
192
0
VERTEX
8
OBJECT021
10
22.459721
20
55.186584
30
-32.000000
70
192
0
VERTEX
8
OBJECT021
10
129.306870
20
55.186584
30
4.639606
70
192
0
VERTEX
8
OBJECT021
10
61.073467
20
49.186584
30
-32.000000
70
192
0
VERTEX
8
OBJECT021
10
133.132568
20
49.186584
30
-7.287214
70
192
0
VERTEX
8
OBJECT021
10
134.573624
20
45.186584
30
-11.775040
70
192
0
VERTEX
8
OBJECT021
10
75.820076
20
45.125763
30
-32.000000
70
192
0
VERTEX
8
OBJECT021
10
-109.544083
20
50.625397
30
-14.273536
70
192
0
VERTEX
8
OBJECT021
10
-106.640755
20
55.186584
30
-23.347240
70
192
0
VERTEX
8
OBJECT021
10
114.030960
20
55.186584
30
52.329563
70
192
0
VERTEX
8
OBJECT021
10
111.243622
20
50.806366
30
61.043491
70
192
0
VERTEX
8
OBJECT021
10
-93.302399
20
59.186584
30
-32.000000
70
192
0
VERTEX
8
OBJECT021
10
117.845604
20
59.186584
30
40.409565
70
192
0
VERTEX
8
OBJECT021
10
-103.874229
20
58.092896
30
-32.000000
70
192
0
VERTEX
8
OBJECT021
10
-103.876236
20
49.257629
30
-32.000000
70
192
0
VERTEX
8
OBJECT021
10
0
20
0
30
0
70
128
71
2
72
3
73
-4
0
VERTEX
8
OBJECT021
10
0
20
0
30
0
70
128
71
-2
72
4
73
1
0
VERTEX
8
OBJECT021
10
0
20
0
30
0
70
128
71
6
72
2
73
-1
0
VERTEX
8
OBJECT021
10
0
20
0
30
0
70
128
71
-6
72
1
73
5
0
VERTEX
8
OBJECT021
10
0
20
0
30
0
70
128
71
8
72
6
73
-5
0
VERTEX
8
OBJECT021
10
0
20
0
30
0
70
128
71
-8
72
5
73
7
0
VERTEX
8
OBJECT021
10
0
20
0
30
0
70
128
71
8
72
7
73
-10
0
VERTEX
8
OBJECT021
10
0
20
0
30
0
70
128
71
-8
72
10
73
9
0
VERTEX
8
OBJECT021
10
0
20
0
30
0
70
128
71
12
72
13
73
-14
0
VERTEX
8
OBJECT021
10
0
20
0
30
0
70
128
71
-12
72
14
73
11
0
VERTEX
8
OBJECT021
10
0
20
0
30
0
70
128
71
16
72
13
73
-12
0
VERTEX
8
OBJECT021
10
0
20
0
30
0
70
128
71
-16
72
12
73
-17
0
VERTEX
8
OBJECT021
10
0
20
0
30
0
70
128
71
-16
72
17
73
15
0
VERTEX
8
OBJECT021
10
0
20
0
30
0
70
128
71
3
72
16
73
-15
0
VERTEX
8
OBJECT021
10
0
20
0
30
0
70
128
71
-3
72
15
73
4
0
VERTEX
8
OBJECT021
10
0
20
0
30
0
70
128
71
12
72
11
73
-18
0
VERTEX
8
OBJECT021
10
0
20
0
30
0
70
128
71
-12
72
18
73
17
0
VERTEX
8
OBJECT021
10
0
20
0
30
0
70
128
71
13
72
16
73
-3
0
VERTEX
8
OBJECT021
10
0
20
0
30
0
70
128
71
-13
72
3
73
-2
0
VERTEX
8
OBJECT021
10
0
20
0
30
0
70
128
71
-13
72
2
73
-6
0
VERTEX
8
OBJECT021
10
0
20
0
30
0
70
128
71
-13
72
6
73
-8
0
VERTEX
8
OBJECT021
10
0
20
0
30
0
70
128
71
-13
72
8
73
-9
0
VERTEX
8
OBJECT021
10
0
20
0
30
0
70
128
71
-13
72
9
73
14
0
VERTEX
8
OBJECT021
10
0
20
0
30
0
70
128
71
10
72
18
73
-11
0
VERTEX
8
OBJECT021
10
0
20
0
30
0
70
128
71
-10
72
11
73
-14
0
VERTEX
8
OBJECT021
10
0
20
0
30
0
70
128
71
-10
72
14
73
9
0
VERTEX
8
OBJECT021
10
0
20
0
30
0
70
128
71
7
72
5
73
-1
0
VERTEX
8
OBJECT021
10
0
20
0
30
0
70
128
71
-7
72
1
73
-4
0
VERTEX
8
OBJECT021
10
0
20
0
30
0
70
128
71
-7
72
4
73
-15
0
VERTEX
8
OBJECT021
10
0
20
0
30
0
70
128
71
-7
72
15
73
-17
0
VERTEX
8
OBJECT021
10
0
20
0
30
0
70
128
71
-7
72
17
73
-18
0
VERTEX
8
OBJECT021
10
0
20
0
30
0
70
128
71
-7
72
18
73
10
0
SEQEND
8
OBJECT021
0
POLYLINE
8
OBJECT022
66
1
70
64
71
8
72
12
62
50
0
VERTEX
8
OBJECT022
10
90.150406
20
41.161041
30
-32.000000
70
192
0
VERTEX
8
OBJECT022
10
135.981628
20
41.186584
30
-16.262299
70
192
0
VERTEX
8
OBJECT022
10
134.548309
20
45.186584
30
-11.788905
70
192
0
VERTEX
8
OBJECT022
10
75.797203
20
45.125519
30
-32.000000
70
192
0
VERTEX
8
OBJECT022
10
106.059914
20
35.596741
30
-32.000000
70
192
0
VERTEX
8
OBJECT022
10
137.518127
20
35.752899
30
-21.061651
70
192
0
VERTEX
8
OBJECT022
10
125.454330
20
47.373566
30
16.632994
70
192
0
VERTEX
8
OBJECT022
10
-21.845119
20
47.363007
30
-32.000000
70
192
0
VERTEX
8
OBJECT022
10
0
20
0
30
0
70
128
71
2
72
3
73
-4
0
VERTEX
8
OBJECT022
10
0
20
0
30
0
70
128
71
-2
72
4
73
1
0
VERTEX
8
OBJECT022
10
0
20
0
30
0
70
128
71
1
72
5
73
-6
0
VERTEX
8
OBJECT022
10
0
20
0
30
0
70
128
71
-1
72
6
73
2
0
VERTEX
8
OBJECT022
10
0
20
0
30
0
70
128
71
3
72
2
73
-6
0
VERTEX
8
OBJECT022
10
0
20
0
30
0
70
128
71
-3
72
6
73
7
0
VERTEX
8
OBJECT022
10
0
20
0
30
0
70
128
71
3
72
7
73
-8
0
VERTEX
8
OBJECT022
10
0
20
0
30
0
70
128
71
-3
72
8
73
4
0
VERTEX
8
OBJECT022
10
0
20
0
30
0
70
128
71
6
72
5
73
-8
0
VERTEX
8
OBJECT022
10
0
20
0
30
0
70
128
71
-6
72
8
73
7
0
VERTEX
8
OBJECT022
10
0
20
0
30
0
70
128
71
1
72
4
73
-8
0
VERTEX
8
OBJECT022
10
0
20
0
30
0
70
128
71
-1
72
8
73
5
0
SEQEND
8
OBJECT022
0
POLYLINE
8
OBJECT023
66
1
70
64
71
8
72
12
62
50
0
VERTEX
8
OBJECT023
10
115.802284
20
32.186584
30
-32.000000
70
192
0
VERTEX
8
OBJECT023
10
138.522812
20
32.186584
30
-24.208506
70
192
0
VERTEX
8
OBJECT023
10
137.512390
20
35.757172
30
-21.049997
70
192
0
VERTEX
8
OBJECT023
10
106.033333
20
35.599884
30
-32.000000
70
192
0
VERTEX
8
OBJECT023
10
120.345955
20
29.363037
30
-32.000000
70
192
0
VERTEX
8
OBJECT023
10
138.951645
20
29.492798
30
-25.547951
70
192
0
VERTEX
8
OBJECT023
10
128.824829
20
44.126556
30
6.098022
70
192
0
VERTEX
8
OBJECT023
10
13.532498
20
44.109924
30
-32.000000
70
192
0
VERTEX
8
OBJECT023
10
0
20
0
30
0
70
128
71
2
72
3
73
-4
0
VERTEX
8
OBJECT023
10
0
20
0
30
0
70
128
71
-2
72
4
73
1
0
VERTEX
8
OBJECT023
10
0
20
0
30
0
70
128
71
1
72
5
73
-6
0
VERTEX
8
OBJECT023
10
0
20
0
30
0
70
128
71
-1
72
6
73
2
0
VERTEX
8
OBJECT023
10
0
20
0
30
0
70
128
71
3
72
2
73
-6
0
VERTEX
8
OBJECT023
10
0
20
0
30
0
70
128
71
-3
72
6
73
7
0
VERTEX
8
OBJECT023
10
0
20
0
30
0
70
128
71
3
72
7
73
-8
0
VERTEX
8
OBJECT023
10
0
20
0
30
0
70
128
71
-3
72
8
73
4
0
VERTEX
8
OBJECT023
10
0
20
0
30
0
70
128
71
6
72
5
73
-8
0
VERTEX
8
OBJECT023
10
0
20
0
30
0
70
128
71
-6
72
8
73
7
0
VERTEX
8
OBJECT023
10
0
20
0
30
0
70
128
71
1
72
4
73
-8
0
VERTEX
8
OBJECT023
10
0
20
0
30
0
70
128
71
-1
72
8
73
5
0
SEQEND
8
OBJECT023
0
POLYLINE
8
OBJECT024
66
1
70
64
71
8
72
12
62
50
0
VERTEX
8
OBJECT024
10
135.161575
20
20.149384
30
-32.000000
70
192
0
VERTEX
8
OBJECT024
10
140.438309
20
20.143524
30
-30.192801
70
192
0
VERTEX
8
OBJECT024
10
138.952438
20
29.494049
30
-25.548592
70
192
0
VERTEX
8
OBJECT024
10
120.364517
20
29.359863
30
-32.000000
70
192
0
VERTEX
8
OBJECT024
10
138.224396
20
17.286682
30
-32.000000
70
192
0
VERTEX
8
OBJECT024
10
140.736786
20
17.319733
30
-31.126394
70
192
0
VERTEX
8
OBJECT024
10
132.200684
20
39.251404
30
-4.445924
70
192
0
VERTEX
8
OBJECT024
10
48.781029
20
39.234039
30
-32.000000
70
192
0
VERTEX
8
OBJECT024
10
0
20
0
30
0
70
128
71
2
72
3
73
-4
0
VERTEX
8
OBJECT024
10
0
20
0
30
0
70
128
71
-2
72
4
73
1
0
VERTEX
8
OBJECT024
10
0
20
0
30
0
70
128
71
1
72
5
73
-6
0
VERTEX
8
OBJECT024
10
0
20
0
30
0
70
128
71
-1
72
6
73
2
0
VERTEX
8
OBJECT024
10
0
20
0
30
0
70
128
71
3
72
2
73
-6
0
VERTEX
8
OBJECT024
10
0
20
0
30
0
70
128
71
-3
72
6
73
7
0
VERTEX
8
OBJECT024
10
0
20
0
30
0
70
128
71
3
72
7
73
-8
0
VERTEX
8
OBJECT024
10
0
20
0
30
0
70
128
71
-3
72
8
73
4
0
VERTEX
8
OBJECT024
10
0
20
0
30
0
70
128
71
6
72
5
73
-8
0
VERTEX
8
OBJECT024
10
0
20
0
30
0
70
128
71
-6
72
8
73
7
0
VERTEX
8
OBJECT024
10
0
20
0
30
0
70
128
71
1
72
4
73
-8
0
VERTEX
8
OBJECT024
10
0
20
0
30
0
70
128
71
-1
72
8
73
5
0
SEQEND
8
OBJECT024
0
POLYLINE
8
OBJECT025
66
1
70
64
71
6
72
8
62
50
0
VERTEX
8
OBJECT025
10
141.014236
20
14.685425
30
-32.000000
70
192
0
VERTEX
8
OBJECT025
10
140.734406
20
17.321289
30
-31.126348
70
192
0
VERTEX
8
OBJECT025
10
138.223175
20
17.288452
30
-32.000000
70
192
0
VERTEX
8
OBJECT025
10
134.727158
20
32.755157
30
-12.350110
70
192
0
VERTEX
8
OBJECT025
10
141.014954
20
12.312286
30
-32.000000
70
192
0
VERTEX
8
OBJECT025
10
74.918533
20
32.833923
30
-32.000000
70
192
0
VERTEX
8
OBJECT025
10
0
20
0
30
0
70
128
71
2
72
3
73
1
0
VERTEX
8
OBJECT025
10
0
20
0
30
0
70
128
71
2
72
1
73
-5
0
VERTEX
8
OBJECT025
10
0
20
0
30
0
70
128
71
-2
72
5
73
4
0
VERTEX
8
OBJECT025
10
0
20
0
30
0
70
128
71
2
72
4
73
-6
0
VERTEX
8
OBJECT025
10
0
20
0
30
0
70
128
71
-2
72
6
73
3
0
VERTEX
8
OBJECT025
10
0
20
0
30
0
70
128
71
5
72
6
73
4
0
VERTEX
8
OBJECT025
10
0
20
0
30
0
70
128
71
3
72
6
73
-5
0
VERTEX
8
OBJECT025
10
0
20
0
30
0
70
128
71
-3
72
5
73
1
0
SEQEND
8
OBJECT025
0
POLYLINE
8
OBJECT026
66
1
70
64
71
4
72
4
62
50
0
VERTEX
8
OBJECT026
10
136.982224
20
25.423584
30
-19.396215
70
192
0
VERTEX
8
OBJECT026
10
141.014343
20
12.311005
30
-32.000000
70
192
0
VERTEX
8
OBJECT026
10
141.014343
20
2.113678
30
-32.000000
70
192
0
VERTEX
8
OBJECT026
10
98.776268
20
25.426392
30
-32.000000
70
192
0
VERTEX
8
OBJECT026
10
0
20
0
30
0
70
128
71
2
72
3
73
1
0
VERTEX
8
OBJECT026
10
0
20
0
30
0
70
128
71
1
72
4
73
2
0
VERTEX
8
OBJECT026
10
0
20
0
30
0
70
128
71
1
72
3
73
4
0
VERTEX
8
OBJECT026
10
0
20
0
30
0
70
128
71
2
72
4
73
3
0
SEQEND
8
OBJECT026
0
POLYLINE
8
OBJECT027
66
1
70
64
71
4
72
4
62
50
0
VERTEX
8
OBJECT027
10
138.665146
20
15.686554
30
-24.655741
70
192
0
VERTEX
8
OBJECT027
10
141.014755
20
2.105103
30
-32.000000
70
192
0
VERTEX
8
OBJECT027
10
141.014755
20
-4.678345
30
-32.000000
70
192
0
VERTEX
8
OBJECT027
10
116.416298
20
15.685577
30
-32.000000
70
192
0
VERTEX
8
OBJECT027
10
0
20
0
30
0
70
128
71
2
72
3
73
1
0
VERTEX
8
OBJECT027
10
0
20
0
30
0
70
128
71
1
72
4
73
2
0
VERTEX
8
OBJECT027
10
0
20
0
30
0
70
128
71
1
72
3
73
4
0
VERTEX
8
OBJECT027
10
0
20
0
30
0
70
128
71
2
72
4
73
3
0
SEQEND
8
OBJECT027
0
POLYLINE
8
OBJECT028
66
1
70
64
71
6
72
8
62
50
0
VERTEX
8
OBJECT028
10
137.657791
20
-25.432861
30
-32.000000
70
192
0
VERTEX
8
OBJECT028
10
140.691513
20
-25.348816
30
-30.990767
70
192
0
VERTEX
8
OBJECT028
10
141.014114
20
-22.303589
30
-32.000000
70
192
0
VERTEX
8
OBJECT028
10
139.791153
20
5.937500
30
-28.170996
70
192
0
VERTEX
8
OBJECT028
10
141.015121
20
-4.683472
30
-32.000000
70
192
0
VERTEX
8
OBJECT028
10
128.186417
20
5.933197
30
-32.000000
70
192
0
VERTEX
8
OBJECT028
10
0
20
0
30
0
70
128
71
2
72
3
73
1
0
VERTEX
8
OBJECT028
10
0
20
0
30
0
70
128
71
5
72
3
73
-2
0
VERTEX
8
OBJECT028
10
0
20
0
30
0
70
128
71
-5
72
2
73
4
0
VERTEX
8
OBJECT028
10
0
20
0
30
0
70
128
71
4
72
6
73
5
0
VERTEX
8
OBJECT028
10
0
20
0
30
0
70
128
71
1
72
6
73
-4
0
VERTEX
8
OBJECT028
10
0
20
0
30
0
70
128
71
-1
72
4
73
2
0
VERTEX
8
OBJECT028
10
0
20
0
30
0
70
128
71
3
72
5
73
-6
0
VERTEX
8
OBJECT028
10
0
20
0
30
0
70
128
71
-3
72
6
73
1
0
SEQEND
8
OBJECT028
0
POLYLINE
8
OBJECT029
66
1
70
64
71
8
72
12
62
50
0
VERTEX
8
OBJECT029
10
135.139618
20
-27.790894
30
-32.000000
70
192
0
VERTEX
8
OBJECT029
10
140.436020
20
-27.773804
30
-30.190334
70
192
0
VERTEX
8
OBJECT029
10
140.692398
20
-25.350098
30
-30.991854
70
192
0
VERTEX
8
OBJECT029
10
137.661865
20
-25.434326
30
-32.000000
70
192
0
VERTEX
8
OBJECT029
10
121.294426
20
-36.399475
30
-32.000000
70
192
0
VERTEX
8
OBJECT029
10
139.148666
20
-35.865784
30
-26.162514
70
192
0
VERTEX
8
OBJECT029
10
140.071259
20
-3.799591
30
-29.049746
70
192
0
VERTEX
8
OBJECT029
10
131.129166
20
-3.799408
30
-32.000000
70
192
0
VERTEX
8
OBJECT029
10
0
20
0
30
0
70
128
71
2
72
3
73
-4
0
VERTEX
8
OBJECT029
10
0
20
0
30
0
70
128
71
-2
72
4
73
1
0
VERTEX
8
OBJECT029
10
0
20
0
30
0
70
128
71
1
72
5
73
-6
0
VERTEX
8
OBJECT029
10
0
20
0
30
0
70
128
71
-1
72
6
73
2
0
VERTEX
8
OBJECT029
10
0
20
0
30
0
70
128
71
3
72
2
73
-6
0
VERTEX
8
OBJECT029
10
0
20
0
30
0
70
128
71
-3
72
6
73
7
0
VERTEX
8
OBJECT029
10
0
20
0
30
0
70
128
71
3
72
7
73
-8
0
VERTEX
8
OBJECT029
10
0
20
0
30
0
70
128
71
-3
72
8
73
4
0
VERTEX
8
OBJECT029
10
0
20
0
30
0
70
128
71
5
72
8
73
-7
0
VERTEX
8
OBJECT029
10
0
20
0
30
0
70
128
71
-5
72
7
73
6
0
VERTEX
8
OBJECT029
10
0
20
0
30
0
70
128
71
1
72
4
73
-8
0
VERTEX
8
OBJECT029
10
0
20
0
30
0
70
128
71
-1
72
8
73
5
0
SEQEND
8
OBJECT029
0
POLYLINE
8
OBJECT030
66
1
70
64
71
10
72
16
62
50
0
VERTEX
8
OBJECT030
10
115.786232
20
-39.825928
30
-32.000000
70
192
0
VERTEX
8
OBJECT030
10
138.520416
20
-39.825317
30
-24.204506
70
192
0
VERTEX
8
OBJECT030
10
139.145447
20
-35.886230
30
-26.161104
70
192
0
VERTEX
8
OBJECT030
10
121.292961
20
-36.399597
30
-32.000000
70
192
0
VERTEX
8
OBJECT030
10
89.973419
20
-48.836060
30
-32.000000
70
192
0
VERTEX
8
OBJECT030
10
135.965820
20
-48.860229
30
-16.204363
70
192
0
VERTEX
8
OBJECT030
10
135.610672
20
-49.852234
30
-15.091270
70
192
0
VERTEX
8
OBJECT030
10
83.414825
20
-50.642029
30
-32.000000
70
192
0
VERTEX
8
OBJECT030
10
139.789917
20
-13.565369
30
-28.172407
70
192
0
VERTEX
8
OBJECT030
10
128.190918
20
-13.564880
30
-32.000000
70
192
0
VERTEX
8
OBJECT030
10
0
20
0
30
0
70
128
71
2
72
3
73
-4
0
VERTEX
8
OBJECT030
10
0
20
0
30
0
70
128
71
-2
72
4
73
1
0
VERTEX
8
OBJECT030
10
0
20
0
30
0
70
128
71
1
72
5
73
-6
0
VERTEX
8
OBJECT030
10
0
20
0
30
0
70
128
71
-1
72
6
73
2
0
VERTEX
8
OBJECT030
10
0
20
0
30
0
70
128
71
6
72
5
73
-8
0
VERTEX
8
OBJECT030
10
0
20
0
30
0
70
128
71
-6
72
8
73
7
0
VERTEX
8
OBJECT030
10
0
20
0
30
0
70
128
71
3
72
2
73
-6
0
VERTEX
8
OBJECT030
10
0
20
0
30
0
70
128
71
-3
72
6
73
-7
0
VERTEX
8
OBJECT030
10
0
20
0
30
0
70
128
71
-3
72
7
73
9
0
VERTEX
8
OBJECT030
10
0
20
0
30
0
70
128
71
3
72
9
73
-10
0
VERTEX
8
OBJECT030
10
0
20
0
30
0
70
128
71
-3
72
10
73
4
0
VERTEX
8
OBJECT030
10
0
20
0
30
0
70
128
71
8
72
10
73
-9
0
VERTEX
8
OBJECT030
10
0
20
0
30
0
70
128
71
-8
72
9
73
7
0
VERTEX
8
OBJECT030
10
0
20
0
30
0
70
128
71
5
72
1
73
-4
0
VERTEX
8
OBJECT030
10
0
20
0
30
0
70
128
71
-5
72
4
73
-10
0
VERTEX
8
OBJECT030
10
0
20
0
30
0
70
128
71
-5
72
10
73
8
0
SEQEND
8
OBJECT030
0
POLYLINE
8
OBJECT031
66
1
70
64
71
8
72
12
62
50
0
VERTEX
8
OBJECT031
10
61.138569
20
-56.813416
30
-32.000000
70
192
0
VERTEX
8
OBJECT031
10
133.115479
20
-56.813416
30
-7.316432
70
192
0
VERTEX
8
OBJECT031
10
135.603210
20
-49.856018
30
-15.091143
70
192
0
VERTEX
8
OBJECT031
10
83.379242
20
-50.661987
30
-32.000000
70
192
0
VERTEX
8
OBJECT031
10
132.777634
20
-57.345154
30
-6.255837
70
192
0
VERTEX
8
OBJECT031
10
53.574493
20
-57.988403
30
-32.000000
70
192
0
VERTEX
8
OBJECT031
10
138.661087
20
-23.330383
30
-24.655741
70
192
0
VERTEX
8
OBJECT031
10
116.380470
20
-23.327942
30
-32.000000
70
192
0
VERTEX
8
OBJECT031
10
0
20
0
30
0
70
128
71
2
72
3
73
-4
0
VERTEX
8
OBJECT031
10
0
20
0
30
0
70
128
71
-2
72
4
73
1
0
VERTEX
8
OBJECT031
10
0
20
0
30
0
70
128
71
2
72
1
73
-6
0
VERTEX
8
OBJECT031
10
0
20
0
30
0
70
128
71
-2
72
6
73
5
0
VERTEX
8
OBJECT031
10
0
20
0
30
0
70
128
71
3
72
2
73
-5
0
VERTEX
8
OBJECT031
10
0
20
0
30
0
70
128
71
-3
72
5
73
7
0
VERTEX
8
OBJECT031
10
0
20
0
30
0
70
128
71
3
72
7
73
-8
0
VERTEX
8
OBJECT031
10
0
20
0
30
0
70
128
71
-3
72
8
73
4
0
VERTEX
8
OBJECT031
10
0
20
0
30
0
70
128
71
6
72
8
73
-7
0
VERTEX
8
OBJECT031
10
0
20
0
30
0
70
128
71
-6
72
7
73
5
0
VERTEX
8
OBJECT031
10
0
20
0
30
0
70
128
71
1
72
4
73
-8
0
VERTEX
8
OBJECT031
10
0
20
0
30
0
70
128
71
-1
72
8
73
6
0
SEQEND
8
OBJECT031
0
POLYLINE
8
OBJECT032
66
1
70
64
71
8
72
12
62
50
0
VERTEX
8
OBJECT032
10
22.598269
20
-62.813416
30
-32.000000
70
192
0
VERTEX
8
OBJECT032
10
129.305695
20
-62.813416
30
4.593515
70
192
0
VERTEX
8
OBJECT032
10
132.776962
20
-57.344299
30
-6.256855
70
192
0
VERTEX
8
OBJECT032
10
53.574493
20
-57.987305
30
-32.000000
70
192
0
VERTEX
8
OBJECT032
10
127.135742
20
-65.084656
30
11.391406
70
192
0
VERTEX
8
OBJECT032
10
-6.879841
20
-65.858032
30
-32.000000
70
192
0
VERTEX
8
OBJECT032
10
136.977707
20
-33.069641
30
-19.381439
70
192
0
VERTEX
8
OBJECT032
10
98.739708
20
-33.066833
30
-32.000000
70
192
0
VERTEX
8
OBJECT032
10
0
20
0
30
0
70
128
71
2
72
3
73
-4
0
VERTEX
8
OBJECT032
10
0
20
0
30
0
70
128
71
-2
72
4
73
1
0
VERTEX
8
OBJECT032
10
0
20
0
30
0
70
128
71
2
72
1
73
-6
0
VERTEX
8
OBJECT032
10
0
20
0
30
0
70
128
71
-2
72
6
73
5
0
VERTEX
8
OBJECT032
10
0
20
0
30
0
70
128
71
3
72
2
73
-5
0
VERTEX
8
OBJECT032
10
0
20
0
30
0
70
128
71
-3
72
5
73
7
0
VERTEX
8
OBJECT032
10
0
20
0
30
0
70
128
71
3
72
7
73
-8
0
VERTEX
8
OBJECT032
10
0
20
0
30
0
70
128
71
-3
72
8
73
4
0
VERTEX
8
OBJECT032
10
0
20
0
30
0
70
128
71
7
72
5
73
-6
0
VERTEX
8
OBJECT032
10
0
20
0
30
0
70
128
71
-7
72
6
73
8
0
VERTEX
8
OBJECT032
10
0
20
0
30
0
70
128
71
1
72
4
73
-8
0
VERTEX
8
OBJECT032
10
0
20
0
30
0
70
128
71
-1
72
8
73
6
0
SEQEND
8
OBJECT032
0
POLYLINE
8
OBJECT033
66
1
70
64
71
8
72
12
62
50
0
VERTEX
8
OBJECT033
10
-16.074360
20
-66.813416
30
-32.000000
70
192
0
VERTEX
8
OBJECT033
10
125.481819
20
-66.813416
30
16.544111
70
192
0
VERTEX
8
OBJECT033
10
127.135742
20
-65.084778
30
11.391167
70
192
0
VERTEX
8
OBJECT033
10
-6.889338
20
-65.861328
30
-32.000000
70
192
0
VERTEX
8
OBJECT033
10
124.318802
20
-67.117737
30
20.178116
70
192
0
VERTEX
8
OBJECT033
10
-34.538177
20
-67.291077
30
-32.000000
70
192
0
VERTEX
8
OBJECT033
10
134.732498
20
-40.365112
30
-12.368279
70
192
0
VERTEX
8
OBJECT033
10
75.205208
20
-40.371033
30
-32.000000
70
192
0
VERTEX
8
OBJECT033
10
0
20
0
30
0
70
128
71
2
72
3
73
-4
0
VERTEX
8
OBJECT033
10
0
20
0
30
0
70
128
71
-2
72
4
73
1
0
VERTEX
8
OBJECT033
10
0
20
0
30
0
70
128
71
2
72
1
73
-6
0
VERTEX
8
OBJECT033
10
0
20
0
30
0
70
128
71
-2
72
6
73
5
0
VERTEX
8
OBJECT033
10
0
20
0
30
0
70
128
71
3
72
2
73
-5
0
VERTEX
8
OBJECT033
10
0
20
0
30
0
70
128
71
-3
72
5
73
7
0
VERTEX
8
OBJECT033
10
0
20
0
30
0
70
128
71
3
72
7
73
-8
0
VERTEX
8
OBJECT033
10
0
20
0
30
0
70
128
71
-3
72
8
73
4
0
VERTEX
8
OBJECT033
10
0
20
0
30
0
70
128
71
7
72
5
73
-6
0
VERTEX
8
OBJECT033
10
0
20
0
30
0
70
128
71
-7
72
6
73
8
0
VERTEX
8
OBJECT033
10
0
20
0
30
0
70
128
71
1
72
4
73
-8
0
VERTEX
8
OBJECT033
10
0
20
0
30
0
70
128
71
-1
72
8
73
6
0
SEQEND
8
OBJECT033
0
POLYLINE
8
OBJECT034
66
1
70
64
71
11
72
16
62
50
0
VERTEX
8
OBJECT034
10
-54.690655
20
-67.813416
30
-32.000000
70
192
0
VERTEX
8
OBJECT034
10
121.662590
20
-67.813416
30
28.477545
70
192
0
VERTEX
8
OBJECT034
10
124.318344
20
-67.117859
30
20.179325
70
192
0
VERTEX
8
OBJECT034
10
-34.537872
20
-67.291382
30
-32.000000
70
192
0
VERTEX
8
OBJECT034
10
-93.299736
20
-66.813416
30
-32.000000
70
192
0
VERTEX
8
OBJECT034
10
-29.967022
20
-66.813416
30
-10.281284
70
192
0
VERTEX
8
OBJECT034
10
118.313911
20
-66.936584
30
38.937489
70
192
0
VERTEX
8
OBJECT034
10
-30.273241
20
-66.813416
30
-10.382751
70
192
0
VERTEX
8
OBJECT034
10
-94.724403
20
-66.665833
30
-32.000000
70
192
0
VERTEX
8
OBJECT034
10
132.198074
20
-46.877441
30
-4.443562
70
192
0
VERTEX
8
OBJECT034
10
48.679008
20
-46.877380
30
-32.000000
70
192
0
VERTEX
8
OBJECT034
10
0
20
0
30
0
70
128
71
2
72
3
73
-4
0
VERTEX
8
OBJECT034
10
0
20
0
30
0
70
128
71
-2
72
4
73
1
0
VERTEX
8
OBJECT034
10
0
20
0
30
0
70
128
71
1
72
5
73
-6
0
VERTEX
8
OBJECT034
10
0
20
0
30
0
70
128
71
-1
72
6
73
-7
0
VERTEX
8
OBJECT034
10
0
20
0
30
0
70
128
71
-1
72
7
73
2
0
VERTEX
8
OBJECT034
10
0
20
0
30
0
70
128
71
5
72
9
73
8
0
VERTEX
8
OBJECT034
10
0
20
0
30
0
70
128
71
3
72
2
73
-7
0
VERTEX
8
OBJECT034
10
0
20
0
30
0
70
128
71
-3
72
7
73
10
0
VERTEX
8
OBJECT034
10
0
20
0
30
0
70
128
71
3
72
10
73
-11
0
VERTEX
8
OBJECT034
10
0
20
0
30
0
70
128
71
-3
72
11
73
4
0
VERTEX
8
OBJECT034
10
0
20
0
30
0
70
128
71
7
72
6
73
-9
0
VERTEX
8
OBJECT034
10
0
20
0
30
0
70
128
71
-7
72
9
73
-11
0
VERTEX
8
OBJECT034
10
0
20
0
30
0
70
128
71
-7
72
11
73
10
0
VERTEX
8
OBJECT034
10
0
20
0
30
0
70
128
71
5
72
1
73
-4
0
VERTEX
8
OBJECT034
10
0
20
0
30
0
70
128
71
-5
72
4
73
-11
0
VERTEX
8
OBJECT034
10
0
20
0
30
0
70
128
71
-5
72
11
73
9
0
SEQEND
8
OBJECT034
0
POLYLINE
8
OBJECT035
66
1
70
64
71
10
72
16
62
50
0
VERTEX
8
OBJECT035
10
-29.999758
20
-66.813416
30
-10.293836
70
192
0
VERTEX
8
OBJECT035
10
117.845482
20
-66.813416
30
40.407272
70
192
0
VERTEX
8
OBJECT035
10
118.316216
20
-66.936401
30
38.935722
70
192
0
VERTEX
8
OBJECT035
10
115.616287
20
-64.476685
30
47.376614
70
192
0
VERTEX
8
OBJECT035
10
-94.724281
20
-66.665649
30
-32.000000
70
192
0
VERTEX
8
OBJECT035
10
-103.877808
20
-65.717041
30
-32.000000
70
192
0
VERTEX
8
OBJECT035
10
-105.464302
20
-64.059509
30
-27.058807
70
192
0
VERTEX
8
OBJECT035
10
-103.877266
20
-62.535950
30
-32.000000
70
192
0
VERTEX
8
OBJECT035
10
128.419983
20
-52.142761
30
7.361902
70
192
0
VERTEX
8
OBJECT035
10
9.167511
20
-52.137756
30
-32.000000
70
192
0
VERTEX
8
OBJECT035
10
0
20
0
30
0
70
128
71
2
72
3
73
1
0
VERTEX
8
OBJECT035
10
0
20
0
30
0
70
128
71
2
72
1
73
-5
0
VERTEX
8
OBJECT035
10
0
20
0
30
0
70
128
71
-2
72
5
73
-6
0
VERTEX
8
OBJECT035
10
0
20
0
30
0
70
128
71
-2
72
6
73
-7
0
VERTEX
8
OBJECT035
10
0
20
0
30
0
70
128
71
-2
72
7
73
4
0
VERTEX
8
OBJECT035
10
0
20
0
30
0
70
128
71
6
72
8
73
7
0
VERTEX
8
OBJECT035
10
0
20
0
30
0
70
128
71
3
72
2
73
-4
0
VERTEX
8
OBJECT035
10
0
20
0
30
0
70
128
71
-3
72
4
73
9
0
VERTEX
8
OBJECT035
10
0
20
0
30
0
70
128
71
1
72
3
73
-9
0
VERTEX
8
OBJECT035
10
0
20
0
30
0
70
128
71
-1
72
9
73
-10
0
VERTEX
8
OBJECT035
10
0
20
0
30
0
70
128
71
-1
72
10
73
5
0
VERTEX
8
OBJECT035
10
0
20
0
30
0
70
128
71
4
72
7
73
-8
0
VERTEX
8
OBJECT035
10
0
20
0
30
0
70
128
71
-4
72
8
73
-10
0
VERTEX
8
OBJECT035
10
0
20
0
30
0
70
128
71
-4
72
10
73
9
0
VERTEX
8
OBJECT035
10
0
20
0
30
0
70
128
71
6
72
5
73
-10
0
VERTEX
8
OBJECT035
10
0
20
0
30
0
70
128
71
-6
72
10
73
8
0
SEQEND
8
OBJECT035
0
POLYLINE
8
OBJECT036
66
1
70
64
71
10
72
16
62
50
0
VERTEX
8
OBJECT036
10
-105.465149
20
-64.059204
30
-27.058084
70
192
0
VERTEX
8
OBJECT036
10
-106.652824
20
-62.813416
30
-23.323597
70
192
0
VERTEX
8
OBJECT036
10
114.021545
20
-62.813416
30
52.353931
70
192
0
VERTEX
8
OBJECT036
10
115.613159
20
-64.476746
30
47.378246
70
192
0
VERTEX
8
OBJECT036
10
111.230614
20
-58.424561
30
61.057472
70
192
0
VERTEX
8
OBJECT036
10
-109.546028
20
-58.251343
30
-14.275153
70
192
0
VERTEX
8
OBJECT036
10
-103.930115
20
-62.540405
30
-32.000000
70
192
0
VERTEX
8
OBJECT036
10
-103.995346
20
-56.887878
30
-32.000000
70
192
0
VERTEX
8
OBJECT036
10
125.451668
20
-55.000000
30
16.627367
70
192
0
VERTEX
8
OBJECT036
10
-21.943714
20
-55.000427
30
-32.000000
70
192
0
VERTEX
8
OBJECT036
10
0
20
0
30
0
70
128
71
2
72
3
73
-4
0
VERTEX
8
OBJECT036
10
0
20
0
30
0
70
128
71
-2
72
4
73
1
0
VERTEX
8
OBJECT036
10
0
20
0
30
0
70
128
71
3
72
2
73
-6
0
VERTEX
8
OBJECT036
10
0
20
0
30
0
70
128
71
-3
72
6
73
5
0
VERTEX
8
OBJECT036
10
0
20
0
30
0
70
128
71
2
72
1
73
-7
0
VERTEX
8
OBJECT036
10
0
20
0
30
0
70
128
71
-2
72
7
73
-8
0
VERTEX
8
OBJECT036
10
0
20
0
30
0
70
128
71
-2
72
8
73
6
0
VERTEX
8
OBJECT036
10
0
20
0
30
0
70
128
71
4
72
3
73
-5
0
VERTEX
8
OBJECT036
10
0
20
0
30
0
70
128
71
-4
72
5
73
9
0
VERTEX
8
OBJECT036
10
0
20
0
30
0
70
128
71
1
72
4
73
-9
0
VERTEX
8
OBJECT036
10
0
20
0
30
0
70
128
71
-1
72
9
73
-10
0
VERTEX
8
OBJECT036
10
0
20
0
30
0
70
128
71
-1
72
10
73
7
0
VERTEX
8
OBJECT036
10
0
20
0
30
0
70
128
71
5
72
6
73
-8
0
VERTEX
8
OBJECT036
10
0
20
0
30
0
70
128
71
-5
72
8
73
-10
0
VERTEX
8
OBJECT036
10
0
20
0
30
0
70
128
71
-5
72
10
73
9
0
VERTEX
8
OBJECT036
10
0
20
0
30
0
70
128
71
7
72
10
73
8
0
SEQEND
8
OBJECT036
0
POLYLINE
8
OBJECT037
66
1
70
64
71
10
72
16
62
50
0
VERTEX
8
OBJECT037
10
-109.548218
20
-58.251343
30
-14.271743
70
192
0
VERTEX
8
OBJECT037
10
-110.460808
20
-56.813416
30
-11.422022
70
192
0
VERTEX
8
OBJECT037
10
110.214241
20
-56.813416
30
64.254257
70
192
0
VERTEX
8
OBJECT037
10
111.243591
20
-58.424438
30
61.063858
70
192
0
VERTEX
8
OBJECT037
10
108.681442
20
-52.591492
30
68.976601
70
192
0
VERTEX
8
OBJECT037
10
-111.893837
20
-52.813416
30
-6.941289
70
192
0
VERTEX
8
OBJECT037
10
-103.863731
20
-56.884033
30
-32.000000
70
192
0
VERTEX
8
OBJECT037
10
-103.862213
20
-54.745544
30
-32.000000
70
192
0
VERTEX
8
OBJECT037
10
122.073616
20
-55.813416
30
27.194237
70
192
0
VERTEX
8
OBJECT037
10
-57.381092
20
-55.813416
30
-32.000000
70
192
0
VERTEX
8
OBJECT037
10
0
20
0
30
0
70
128
71
2
72
3
73
-4
0
VERTEX
8
OBJECT037
10
0
20
0
30
0
70
128
71
-2
72
4
73
1
0
VERTEX
8
OBJECT037
10
0
20
0
30
0
70
128
71
3
72
2
73
-6
0
VERTEX
8
OBJECT037
10
0
20
0
30
0
70
128
71
-3
72
6
73
5
0
VERTEX
8
OBJECT037
10
0
20
0
30
0
70
128
71
2
72
1
73
-7
0
VERTEX
8
OBJECT037
10
0
20
0
30
0
70
128
71
-2
72
7
73
-8
0
VERTEX
8
OBJECT037
10
0
20
0
30
0
70
128
71
-2
72
8
73
6
0
VERTEX
8
OBJECT037
10
0
20
0
30
0
70
128
71
4
72
3
73
-5
0
VERTEX
8
OBJECT037
10
0
20
0
30
0
70
128
71
-4
72
5
73
9
0
VERTEX
8
OBJECT037
10
0
20
0
30
0
70
128
71
1
72
4
73
-9
0
VERTEX
8
OBJECT037
10
0
20
0
30
0
70
128
71
-1
72
9
73
-10
0
VERTEX
8
OBJECT037
10
0
20
0
30
0
70
128
71
-1
72
10
73
7
0
VERTEX
8
OBJECT037
10
0
20
0
30
0
70
128
71
5
72
6
73
-8
0
VERTEX
8
OBJECT037
10
0
20
0
30
0
70
128
71
-5
72
8
73
-10
0
VERTEX
8
OBJECT037
10
0
20
0
30
0
70
128
71
-5
72
10
73
9
0
VERTEX
8
OBJECT037
10
0
20
0
30
0
70
128
71
7
72
10
73
8
0
SEQEND
8
OBJECT037
0
POLYLINE
8
OBJECT038
66
1
70
64
71
10
72
16
62
50
0
VERTEX
8
OBJECT038
10
-111.894630
20
-52.813416
30
-6.941761
70
192
0
VERTEX
8
OBJECT038
10
-113.312263
20
-48.857239
30
-2.509104
70
192
0
VERTEX
8
OBJECT038
10
107.361107
20
-48.852356
30
73.172188
70
192
0
VERTEX
8
OBJECT038
10
108.701500
20
-52.591614
30
68.982857
70
192
0
VERTEX
8
OBJECT038
10
-114.860161
20
-43.383118
30
2.334230
70
192
0
VERTEX
8
OBJECT038
10
105.501602
20
-42.282593
30
78.984131
70
192
0
VERTEX
8
OBJECT038
10
-103.877632
20
-54.741394
30
-32.000000
70
192
0
VERTEX
8
OBJECT038
10
-103.877449
20
-53.966187
30
-32.000000
70
192
0
VERTEX
8
OBJECT038
10
118.698914
20
-54.995178
30
37.743080
70
192
0
VERTEX
8
OBJECT038
10
-92.647552
20
-54.999268
30
-32.000000
70
192
0
VERTEX
8
OBJECT038
10
0
20
0
30
0
70
128
71
2
72
3
73
-4
0
VERTEX
8
OBJECT038
10
0
20
0
30
0
70
128
71
-2
72
4
73
1
0
VERTEX
8
OBJECT038
10
0
20
0
30
0
70
128
71
2
72
5
73
-6
0
VERTEX
8
OBJECT038
10
0
20
0
30
0
70
128
71
-2
72
6
73
3
0
VERTEX
8
OBJECT038
10
0
20
0
30
0
70
128
71
1
72
7
73
-8
0
VERTEX
8
OBJECT038
10
0
20
0
30
0
70
128
71
-1
72
8
73
-5
0
VERTEX
8
OBJECT038
10
0
20
0
30
0
70
128
71
-1
72
5
73
2
0
VERTEX
8
OBJECT038
10
0
20
0
30
0
70
128
71
4
72
3
73
-6
0
VERTEX
8
OBJECT038
10
0
20
0
30
0
70
128
71
-4
72
6
73
9
0
VERTEX
8
OBJECT038
10
0
20
0
30
0
70
128
71
1
72
4
73
-9
0
VERTEX
8
OBJECT038
10
0
20
0
30
0
70
128
71
-1
72
9
73
-10
0
VERTEX
8
OBJECT038
10
0
20
0
30
0
70
128
71
-1
72
10
73
7
0
VERTEX
8
OBJECT038
10
0
20
0
30
0
70
128
71
6
72
5
73
-8
0
VERTEX
8
OBJECT038
10
0
20
0
30
0
70
128
71
-6
72
8
73
-10
0
VERTEX
8
OBJECT038
10
0
20
0
30
0
70
128
71
-6
72
10
73
9
0
VERTEX
8
OBJECT038
10
0
20
0
30
0
70
128
71
7
72
10
73
8
0
SEQEND
8
OBJECT038
0
POLYLINE
8
OBJECT039
66
1
70
64
71
8
72
12
62
50
0
VERTEX
8
OBJECT039
10
-114.862648
20
-43.381836
30
2.334526
70
192
0
VERTEX
8
OBJECT039
10
-115.874252
20
-39.813416
30
5.496923
70
192
0
VERTEX
8
OBJECT039
10
104.801971
20
-39.813416
30
81.173050
70
192
0
VERTEX
8
OBJECT039
10
105.501869
20
-42.282593
30
78.984077
70
192
0
VERTEX
8
OBJECT039
10
-116.297699
20
-37.120056
30
6.819671
70
192
0
VERTEX
8
OBJECT039
10
104.135139
20
-35.569397
30
83.260628
70
192
0
VERTEX
8
OBJECT039
10
-106.202148
20
-51.759094
30
-24.851789
70
192
0
VERTEX
8
OBJECT039
10
115.336914
20
-51.757019
30
48.250237
70
192
0
VERTEX
8
OBJECT039
10
0
20
0
30
0
70
128
71
2
72
3
73
-4
0
VERTEX
8
OBJECT039
10
0
20
0
30
0
70
128
71
-2
72
4
73
1
0
VERTEX
8
OBJECT039
10
0
20
0
30
0
70
128
71
2
72
5
73
-6
0
VERTEX
8
OBJECT039
10
0
20
0
30
0
70
128
71
-2
72
6
73
3
0
VERTEX
8
OBJECT039
10
0
20
0
30
0
70
128
71
2
72
1
73
-7
0
VERTEX
8
OBJECT039
10
0
20
0
30
0
70
128
71
-2
72
7
73
5
0
VERTEX
8
OBJECT039
10
0
20
0
30
0
70
128
71
4
72
3
73
-6
0
VERTEX
8
OBJECT039
10
0
20
0
30
0
70
128
71
-4
72
6
73
8
0
VERTEX
8
OBJECT039
10
0
20
0
30
0
70
128
71
1
72
4
73
-8
0
VERTEX
8
OBJECT039
10
0
20
0
30
0
70
128
71
-1
72
8
73
7
0
VERTEX
8
OBJECT039
10
0
20
0
30
0
70
128
71
6
72
5
73
-7
0
VERTEX
8
OBJECT039
10
0
20
0
30
0
70
128
71
-6
72
7
73
8
0
SEQEND
8
OBJECT039
0
POLYLINE
8
OBJECT040
66
1
70
64
71
6
72
8
62
50
0
VERTEX
8
OBJECT040
10
-105.496574
20
49.648499
30
-26.920469
70
192
0
VERTEX
8
OBJECT040
10
-106.781151
20
49.957458
30
-22.905706
70
192
0
VERTEX
8
OBJECT040
10
-112.070709
20
32.764771
30
-6.381110
70
192
0
VERTEX
8
OBJECT040
10
114.720078
20
49.959473
30
50.172386
70
192
0
VERTEX
8
OBJECT040
10
116.005386
20
49.650421
30
46.156330
70
192
0
VERTEX
8
OBJECT040
10
109.430458
20
32.760864
30
66.703247
70
192
0
VERTEX
8
OBJECT040
10
0
20
0
30
0
70
128
71
2
72
3
73
1
0
VERTEX
8
OBJECT040
10
0
20
0
30
0
70
128
71
5
72
6
73
4
0
VERTEX
8
OBJECT040
10
0
20
0
30
0
70
128
71
1
72
5
73
-4
0
VERTEX
8
OBJECT040
10
0
20
0
30
0
70
128
71
-1
72
4
73
2
0
VERTEX
8
OBJECT040
10
0
20
0
30
0
70
128
71
2
72
4
73
-6
0
VERTEX
8
OBJECT040
10
0
20
0
30
0
70
128
71
-2
72
6
73
3
0
VERTEX
8
OBJECT040
10
0
20
0
30
0
70
128
71
5
72
1
73
-3
0
VERTEX
8
OBJECT040
10
0
20
0
30
0
70
128
71
-5
72
3
73
6
0
SEQEND
8
OBJECT040
0
POLYLINE
8
OBJECT041
66
1
70
64
71
8
72
12
62
50
0
VERTEX
8
OBJECT041
10
-103.873077
20
49.258179
30
-32.000000
70
192
0
VERTEX
8
OBJECT041
10
-105.497841
20
49.649200
30
-26.921686
70
192
0
VERTEX
8
OBJECT041
10
-109.547417
20
39.243896
30
-14.264603
70
192
0
VERTEX
8
OBJECT041
10
-103.873077
20
47.444366
30
-32.000000
70
192
0
VERTEX
8
OBJECT041
10
111.956322
20
39.247406
30
58.809452
70
192
0
VERTEX
8
OBJECT041
10
116.010330
20
49.662048
30
46.141281
70
192
0
VERTEX
8
OBJECT041
10
118.713898
20
49.011505
30
37.692795
70
192
0
VERTEX
8
OBJECT041
10
-92.604469
20
48.999329
30
-32.000000
70
192
0
VERTEX
8
OBJECT041
10
0
20
0
30
0
70
128
71
2
72
3
73
-4
0
VERTEX
8
OBJECT041
10
0
20
0
30
0
70
128
71
-2
72
4
73
1
0
VERTEX
8
OBJECT041
10
0
20
0
30
0
70
128
71
6
72
7
73
5
0
VERTEX
8
OBJECT041
10
0
20
0
30
0
70
128
71
1
72
8
73
-7
0
VERTEX
8
OBJECT041
10
0
20
0
30
0
70
128
71
-1
72
7
73
-6
0
VERTEX
8
OBJECT041
10
0
20
0
30
0
70
128
71
-1
72
6
73
2
0
VERTEX
8
OBJECT041
10
0
20
0
30
0
70
128
71
2
72
6
73
-5
0
VERTEX
8
OBJECT041
10
0
20
0
30
0
70
128
71
-2
72
5
73
3
0
VERTEX
8
OBJECT041
10
0
20
0
30
0
70
128
71
7
72
8
73
-4
0
VERTEX
8
OBJECT041
10
0
20
0
30
0
70
128
71
-7
72
4
73
-3
0
VERTEX
8
OBJECT041
10
0
20
0
30
0
70
128
71
-7
72
3
73
5
0
VERTEX
8
OBJECT041
10
0
20
0
30
0
70
128
71
4
72
8
73
1
0
SEQEND
8
OBJECT041
0
POLYLINE
8
OBJECT042
66
1
70
64
71
8
72
12
62
50
0
VERTEX
8
OBJECT042
10
-103.872475
20
47.446838
30
-32.000000
70
192
0
VERTEX
8
OBJECT042
10
-106.172783
20
44.122528
30
-24.811447
70
192
0
VERTEX
8
OBJECT042
10
-103.872475
20
46.338654
30
-32.000000
70
192
0
VERTEX
8
OBJECT042
10
115.374596
20
44.164856
30
48.133663
70
192
0
VERTEX
8
OBJECT042
10
118.717438
20
48.995178
30
37.688587
70
192
0
VERTEX
8
OBJECT042
10
120.054932
20
48.673798
30
33.507706
70
192
0
VERTEX
8
OBJECT042
10
-78.483742
20
48.674408
30
-32.000000
70
192
0
VERTEX
8
OBJECT042
10
-92.622009
20
48.998779
30
-32.000000
70
192
0
VERTEX
8
OBJECT042
10
0
20
0
30
0
70
128
71
2
72
3
73
1
0
VERTEX
8
OBJECT042
10
0
20
0
30
0
70
128
71
5
72
6
73
4
0
VERTEX
8
OBJECT042
10
0
20
0
30
0
70
128
71
6
72
5
73
-8
0
VERTEX
8
OBJECT042
10
0
20
0
30
0
70
128
71
-6
72
8
73
7
0
VERTEX
8
OBJECT042
10
0
20
0
30
0
70
128
71
1
72
8
73
-5
0
VERTEX
8
OBJECT042
10
0
20
0
30
0
70
128
71
-1
72
5
73
-4
0
VERTEX
8
OBJECT042
10
0
20
0
30
0
70
128
71
-1
72
4
73
2
0
VERTEX
8
OBJECT042
10
0
20
0
30
0
70
128
71
6
72
7
73
-3
0
VERTEX
8
OBJECT042
10
0
20
0
30
0
70
128
71
-6
72
3
73
-2
0
VERTEX
8
OBJECT042
10
0
20
0
30
0
70
128
71
-6
72
2
73
4
0
VERTEX
8
OBJECT042
10
0
20
0
30
0
70
128
71
3
72
7
73
-8
0
VERTEX
8
OBJECT042
10
0
20
0
30
0
70
128
71
-3
72
8
73
1
0
SEQEND
8
OBJECT042
0
POLYLINE
8
OBJECT043
66
1
70
64
71
6
72
8
62
50
0
VERTEX
8
OBJECT043
10
118.703247
20
47.373230
30
37.728436
70
192
0
VERTEX
8
OBJECT043
10
120.054413
20
48.674805
30
33.507130
70
192
0
VERTEX
8
OBJECT043
10
122.080383
20
48.186584
30
27.179214
70
192
0
VERTEX
8
OBJECT043
10
-57.293232
20
48.186584
30
-32.000000
70
192
0
VERTEX
8
OBJECT043
10
-78.496605
20
48.674683
30
-32.000000
70
192
0
VERTEX
8
OBJECT043
10
-92.632080
20
47.373413
30
-32.000000
70
192
0
VERTEX
8
OBJECT043
10
0
20
0
30
0
70
128
71
2
72
3
73
1
0
VERTEX
8
OBJECT043
10
0
20
0
30
0
70
128
71
3
72
2
73
-5
0
VERTEX
8
OBJECT043
10
0
20
0
30
0
70
128
71
-3
72
5
73
4
0
VERTEX
8
OBJECT043
10
0
20
0
30
0
70
128
71
2
72
1
73
-6
0
VERTEX
8
OBJECT043
10
0
20
0
30
0
70
128
71
-2
72
6
73
5
0
VERTEX
8
OBJECT043
10
0
20
0
30
0
70
128
71
3
72
4
73
-6
0
VERTEX
8
OBJECT043
10
0
20
0
30
0
70
128
71
-3
72
6
73
1
0
VERTEX
8
OBJECT043
10
0
20
0
30
0
70
128
71
5
72
6
73
4
0
SEQEND
8
OBJECT043
0
POLYLINE
8
OBJECT044
66
1
70
64
71
6
72
8
62
50
0
VERTEX
8
OBJECT044
10
-110.641113
20
-45.323975
30
-10.927784
70
192
0
VERTEX
8
OBJECT044
10
-109.573212
20
-46.872009
30
-14.275568
70
192
0
VERTEX
8
OBJECT044
10
-110.641113
20
-44.121094
30
-10.927625
70
192
0
VERTEX
8
OBJECT044
10
110.700989
20
-43.653809
30
62.730446
70
192
0
VERTEX
8
OBJECT044
10
111.957718
20
-46.877747
30
58.808575
70
192
0
VERTEX
8
OBJECT044
10
110.701904
20
-45.063538
30
62.730579
70
192
0
VERTEX
8
OBJECT044
10
0
20
0
30
0
70
128
71
2
72
3
73
1
0
VERTEX
8
OBJECT044
10
0
20
0
30
0
70
128
71
5
72
6
73
4
0
VERTEX
8
OBJECT044
10
0
20
0
30
0
70
128
71
5
72
2
73
-1
0
VERTEX
8
OBJECT044
10
0
20
0
30
0
70
128
71
-5
72
1
73
6
0
VERTEX
8
OBJECT044
10
0
20
0
30
0
70
128
71
2
72
5
73
-4
0
VERTEX
8
OBJECT044
10
0
20
0
30
0
70
128
71
-2
72
4
73
3
0
VERTEX
8
OBJECT044
10
0
20
0
30
0
70
128
71
3
72
4
73
-6
0
VERTEX
8
OBJECT044
10
0
20
0
30
0
70
128
71
-3
72
6
73
1
0
SEQEND
8
OBJECT044
0
POLYLINE
8
OBJECT045
66
1
70
64
71
10
72
16
62
50
0
VERTEX
8
OBJECT045
10
-116.300659
20
-37.119019
30
6.819671
70
192
0
VERTEX
8
OBJECT045
10
-117.783813
20
-27.781006
30
11.464202
70
192
0
VERTEX
8
OBJECT045
10
-77.596390
20
-27.782471
30
25.245338
70
192
0
VERTEX
8
OBJECT045
10
-76.242470
20
-36.834778
30
20.714664
70
192
0
VERTEX
8
OBJECT045
10
-118.083481
20
-24.948059
30
12.400613
70
192
0
VERTEX
8
OBJECT045
10
-77.931313
20
-24.414917
30
26.365782
70
192
0
VERTEX
8
OBJECT045
10
-110.645119
20
-45.325134
30
-10.927641
70
192
0
VERTEX
8
OBJECT045
10
-110.645729
20
-44.116943
30
-10.927609
70
192
0
VERTEX
8
OBJECT045
10
-70.756149
20
-45.277588
30
2.346405
70
192
0
VERTEX
8
OBJECT045
10
-70.756332
20
-44.031067
30
2.346597
70
192
0
VERTEX
8
OBJECT045
10
0
20
0
30
0
70
128
71
2
72
3
73
-4
0
VERTEX
8
OBJECT045
10
0
20
0
30
0
70
128
71
-2
72
4
73
1
0
VERTEX
8
OBJECT045
10
0
20
0
30
0
70
128
71
2
72
5
73
-6
0
VERTEX
8
OBJECT045
10
0
20
0
30
0
70
128
71
-2
72
6
73
3
0
VERTEX
8
OBJECT045
10
0
20
0
30
0
70
128
71
2
72
1
73
-7
0
VERTEX
8
OBJECT045
10
0
20
0
30
0
70
128
71
-2
72
7
73
-8
0
VERTEX
8
OBJECT045
10
0
20
0
30
0
70
128
71
-2
72
8
73
5
0
VERTEX
8
OBJECT045
10
0
20
0
30
0
70
128
71
7
72
1
73
-4
0
VERTEX
8
OBJECT045
10
0
20
0
30
0
70
128
71
-7
72
4
73
9
0
VERTEX
8
OBJECT045
10
0
20
0
30
0
70
128
71
5
72
8
73
-10
0
VERTEX
8
OBJECT045
10
0
20
0
30
0
70
128
71
-5
72
10
73
6
0
VERTEX
8
OBJECT045
10
0
20
0
30
0
70
128
71
8
72
7
73
-9
0
VERTEX
8
OBJECT045
10
0
20
0
30
0
70
128
71
-8
72
9
73
10
0
VERTEX
8
OBJECT045
10
0
20
0
30
0
70
128
71
4
72
3
73
-6
0
VERTEX
8
OBJECT045
10
0
20
0
30
0
70
128
71
-4
72
6
73
-10
0
VERTEX
8
OBJECT045
10
0
20
0
30
0
70
128
71
-4
72
10
73
9
0
SEQEND
8
OBJECT045
0
POLYLINE
8
OBJECT046
66
1
70
64
71
10
72
16
62
50
0
VERTEX
8
OBJECT046
10
64.218529
20
-27.769531
30
73.884247
70
192
0
VERTEX
8
OBJECT046
10
102.889671
20
-27.764893
30
87.147903
70
192
0
VERTEX
8
OBJECT046
10
104.131134
20
-35.565796
30
83.268234
70
192
0
VERTEX
8
OBJECT046
10
65.424713
20
-35.838623
30
69.844437
70
192
0
VERTEX
8
OBJECT046
10
63.697590
20
-22.533081
30
75.627571
70
192
0
VERTEX
8
OBJECT046
10
102.283966
20
-22.020142
30
89.047821
70
192
0
VERTEX
8
OBJECT046
10
110.702293
20
-45.065063
30
62.729717
70
192
0
VERTEX
8
OBJECT046
10
110.702232
20
-43.653625
30
62.729790
70
192
0
VERTEX
8
OBJECT046
10
71.442108
20
-45.112671
30
49.664944
70
192
0
VERTEX
8
OBJECT046
10
71.441742
20
-43.734863
30
49.664928
70
192
0
VERTEX
8
OBJECT046
10
0
20
0
30
0
70
128
71
2
72
3
73
-4
0
VERTEX
8
OBJECT046
10
0
20
0
30
0
70
128
71
-2
72
4
73
1
0
VERTEX
8
OBJECT046
10
0
20
0
30
0
70
128
71
1
72
5
73
-6
0
VERTEX
8
OBJECT046
10
0
20
0
30
0
70
128
71
-1
72
6
73
2
0
VERTEX
8
OBJECT046
10
0
20
0
30
0
70
128
71
3
72
2
73
-6
0
VERTEX
8
OBJECT046
10
0
20
0
30
0
70
128
71
-3
72
6
73
-8
0
VERTEX
8
OBJECT046
10
0
20
0
30
0
70
128
71
-3
72
8
73
7
0
VERTEX
8
OBJECT046
10
0
20
0
30
0
70
128
71
3
72
7
73
-9
0
VERTEX
8
OBJECT046
10
0
20
0
30
0
70
128
71
-3
72
9
73
4
0
VERTEX
8
OBJECT046
10
0
20
0
30
0
70
128
71
6
72
5
73
-10
0
VERTEX
8
OBJECT046
10
0
20
0
30
0
70
128
71
-6
72
10
73
8
0
VERTEX
8
OBJECT046
10
0
20
0
30
0
70
128
71
7
72
8
73
-10
0
VERTEX
8
OBJECT046
10
0
20
0
30
0
70
128
71
-7
72
10
73
9
0
VERTEX
8
OBJECT046
10
0
20
0
30
0
70
128
71
1
72
4
73
-9
0
VERTEX
8
OBJECT046
10
0
20
0
30
0
70
128
71
-1
72
9
73
-10
0
VERTEX
8
OBJECT046
10
0
20
0
30
0
70
128
71
-1
72
10
73
5
0
SEQEND
8
OBJECT046
0
POLYLINE
8
OBJECT047
66
1
70
64
71
9
72
14
62
50
0
VERTEX
8
OBJECT047
10
65.426048
20
-35.838135
30
69.842850
70
192
0
VERTEX
8
OBJECT047
10
-76.241020
20
-36.837769
30
20.709476
70
192
0
VERTEX
8
OBJECT047
10
-76.394577
20
-35.813416
30
21.221989
70
192
0
VERTEX
8
OBJECT047
10
71.453972
20
-45.109192
30
49.669689
70
192
0
VERTEX
8
OBJECT047
10
-70.754753
20
-45.277283
30
2.345412
70
192
0
VERTEX
8
OBJECT047
10
-73.765671
20
-35.813416
30
12.414364
70
192
0
VERTEX
8
OBJECT047
10
-70.755363
20
-44.039001
30
2.344916
70
192
0
VERTEX
8
OBJECT047
10
71.453812
20
-43.737732
30
49.669308
70
192
0
VERTEX
8
OBJECT047
10
68.554512
20
-35.813416
30
59.370213
70
192
0
VERTEX
8
OBJECT047
10
0
20
0
30
0
70
128
71
2
72
3
73
1
0
VERTEX
8
OBJECT047
10
0
20
0
30
0
70
128
71
5
72
2
73
-1
0
VERTEX
8
OBJECT047
10
0
20
0
30
0
70
128
71
-5
72
1
73
4
0
VERTEX
8
OBJECT047
10
0
20
0
30
0
70
128
71
7
72
8
73
-9
0
VERTEX
8
OBJECT047
10
0
20
0
30
0
70
128
71
-7
72
9
73
6
0
VERTEX
8
OBJECT047
10
0
20
0
30
0
70
128
71
7
72
5
73
-4
0
VERTEX
8
OBJECT047
10
0
20
0
30
0
70
128
71
-7
72
4
73
8
0
VERTEX
8
OBJECT047
10
0
20
0
30
0
70
128
71
2
72
5
73
-7
0
VERTEX
8
OBJECT047
10
0
20
0
30
0
70
128
71
-2
72
7
73
-6
0
VERTEX
8
OBJECT047
10
0
20
0
30
0
70
128
71
-2
72
6
73
3
0
VERTEX
8
OBJECT047
10
0
20
0
30
0
70
128
71
1
72
9
73
-8
0
VERTEX
8
OBJECT047
10
0
20
0
30
0
70
128
71
-1
72
8
73
4
0
VERTEX
8
OBJECT047
10
0
20
0
30
0
70
128
71
3
72
6
73
-9
0
VERTEX
8
OBJECT047
10
0
20
0
30
0
70
128
71
-3
72
9
73
1
0
SEQEND
8
OBJECT047
0
POLYLINE
8
OBJECT048
66
1
70
64
71
6
72
8
62
50
0
VERTEX
8
OBJECT048
10
-77.930580
20
-24.418091
30
26.364880
70
192
0
VERTEX
8
OBJECT048
10
-118.082703
20
-24.950317
30
12.399700
70
192
0
VERTEX
8
OBJECT048
10
-118.746635
20
-18.687927
30
14.474895
70
192
0
VERTEX
8
OBJECT048
10
-78.576935
20
-17.938110
30
28.526110
70
192
0
VERTEX
8
OBJECT048
10
-112.071625
20
-40.396057
30
-6.392012
70
192
0
VERTEX
8
OBJECT048
10
-72.085930
20
-40.397888
30
6.799691
70
192
0
VERTEX
8
OBJECT048
10
0
20
0
30
0
70
128
71
2
72
3
73
-4
0
VERTEX
8
OBJECT048
10
0
20
0
30
0
70
128
71
-2
72
4
73
1
0
VERTEX
8
OBJECT048
10
0
20
0
30
0
70
128
71
2
72
5
73
3
0
VERTEX
8
OBJECT048
10
0
20
0
30
0
70
128
71
5
72
2
73
-1
0
VERTEX
8
OBJECT048
10
0
20
0
30
0
70
128
71
-5
72
1
73
6
0
VERTEX
8
OBJECT048
10
0
20
0
30
0
70
128
71
3
72
5
73
-6
0
VERTEX
8
OBJECT048
10
0
20
0
30
0
70
128
71
-3
72
6
73
4
0
VERTEX
8
OBJECT048
10
0
20
0
30
0
70
128
71
1
72
4
73
6
0
SEQEND
8
OBJECT048
0
POLYLINE
8
OBJECT049
66
1
70
64
71
8
72
12
62
50
0
VERTEX
8
OBJECT049
10
63.028389
20
-15.813416
30
77.870049
70
192
0
VERTEX
8
OBJECT049
10
101.624031
20
-15.813416
30
91.106270
70
192
0
VERTEX
8
OBJECT049
10
102.283966
20
-22.017029
30
89.049583
70
192
0
VERTEX
8
OBJECT049
10
63.698223
20
-22.530029
30
75.628944
70
192
0
VERTEX
8
OBJECT049
10
63.019684
20
-15.439880
30
77.901161
70
192
0
VERTEX
8
OBJECT049
10
101.601181
20
-14.924316
30
91.179871
70
192
0
VERTEX
8
OBJECT049
10
109.428612
20
-40.377258
30
66.713234
70
192
0
VERTEX
8
OBJECT049
10
70.321564
20
-40.381470
30
53.804497
70
192
0
VERTEX
8
OBJECT049
10
0
20
0
30
0
70
128
71
2
72
3
73
-4
0
VERTEX
8
OBJECT049
10
0
20
0
30
0
70
128
71
-2
72
4
73
1
0
VERTEX
8
OBJECT049
10
0
20
0
30
0
70
128
71
1
72
5
73
-6
0
VERTEX
8
OBJECT049
10
0
20
0
30
0
70
128
71
-1
72
6
73
2
0
VERTEX
8
OBJECT049
10
0
20
0
30
0
70
128
71
3
72
2
73
-6
0
VERTEX
8
OBJECT049
10
0
20
0
30
0
70
128
71
-3
72
6
73
7
0
VERTEX
8
OBJECT049
10
0
20
0
30
0
70
128
71
3
72
7
73
-8
0
VERTEX
8
OBJECT049
10
0
20
0
30
0
70
128
71
-3
72
8
73
4
0
VERTEX
8
OBJECT049
10
0
20
0
30
0
70
128
71
6
72
5
73
-8
0
VERTEX
8
OBJECT049
10
0
20
0
30
0
70
128
71
-6
72
8
73
7
0
VERTEX
8
OBJECT049
10
0
20
0
30
0
70
128
71
1
72
4
73
-8
0
VERTEX
8
OBJECT049
10
0
20
0
30
0
70
128
71
-1
72
8
73
5
0
SEQEND
8
OBJECT049
0
POLYLINE
8
OBJECT050
66
1
70
64
71
6
72
8
62
50
0
VERTEX
8
OBJECT050
10
68.560036
20
-35.813416
30
59.357170
70
192
0
VERTEX
8
OBJECT050
10
70.226181
20
-40.375610
30
53.779770
70
192
0
VERTEX
8
OBJECT050
10
-72.076523
20
-40.425415
30
6.772499
70
192
0
VERTEX
8
OBJECT050
10
-73.761108
20
-35.813416
30
12.410697
70
192
0
VERTEX
8
OBJECT050
10
-73.409149
20
-35.813416
30
11.232683
70
192
0
VERTEX
8
OBJECT050
10
68.908630
20
-35.813416
30
58.191994
70
192
0
VERTEX
8
OBJECT050
10
0
20
0
30
0
70
128
71
2
72
3
73
-4
0
VERTEX
8
OBJECT050
10
0
20
0
30
0
70
128
71
-2
72
4
73
1
0
VERTEX
8
OBJECT050
10
0
20
0
30
0
70
128
71
3
72
2
73
-6
0
VERTEX
8
OBJECT050
10
0
20
0
30
0
70
128
71
-3
72
6
73
5
0
VERTEX
8
OBJECT050
10
0
20
0
30
0
70
128
71
3
72
5
73
4
0
VERTEX
8
OBJECT050
10
0
20
0
30
0
70
128
71
2
72
1
73
6
0
VERTEX
8
OBJECT050
10
0
20
0
30
0
70
128
71
6
72
1
73
-4
0
VERTEX
8
OBJECT050
10
0
20
0
30
0
70
128
71
-6
72
4
73
5
0
SEQEND
8
OBJECT050
0
POLYLINE
8
OBJECT051
66
1
70
64
71
10
72
16
62
50
0
VERTEX
8
OBJECT051
10
-118.748459
20
-18.697205
30
14.472534
70
192
0
VERTEX
8
OBJECT051
10
-119.053719
20
-15.813416
30
15.428372
70
192
0
VERTEX
8
OBJECT051
10
-78.789780
20
-15.813416
30
29.236246
70
192
0
VERTEX
8
OBJECT051
10
-78.577606
20
-17.940613
30
28.526861
70
192
0
VERTEX
8
OBJECT051
10
-119.366356
20
-3.927979
30
16.414301
70
192
0
VERTEX
8
OBJECT051
10
-114.788269
20
-3.813416
30
17.994978
70
192
0
VERTEX
8
OBJECT051
10
-79.088470
20
-3.813416
30
30.237663
70
192
0
VERTEX
8
OBJECT051
10
-79.071548
20
-3.136627
30
30.181383
70
192
0
VERTEX
8
OBJECT051
10
-113.607491
20
-35.437134
30
-1.624274
70
192
0
VERTEX
8
OBJECT051
10
-73.496208
20
-35.491638
30
11.547210
70
192
0
VERTEX
8
OBJECT051
10
0
20
0
30
0
70
128
71
2
72
3
73
-4
0
VERTEX
8
OBJECT051
10
0
20
0
30
0
70
128
71
-2
72
4
73
1
0
VERTEX
8
OBJECT051
10
0
20
0
30
0
70
128
71
2
72
5
73
-6
0
VERTEX
8
OBJECT051
10
0
20
0
30
0
70
128
71
-2
72
6
73
-7
0
VERTEX
8
OBJECT051
10
0
20
0
30
0
70
128
71
-2
72
7
73
3
0
VERTEX
8
OBJECT051
10
0
20
0
30
0
70
128
71
6
72
8
73
7
0
VERTEX
8
OBJECT051
10
0
20
0
30
0
70
128
71
2
72
1
73
-9
0
VERTEX
8
OBJECT051
10
0
20
0
30
0
70
128
71
-2
72
9
73
5
0
VERTEX
8
OBJECT051
10
0
20
0
30
0
70
128
71
9
72
1
73
-4
0
VERTEX
8
OBJECT051
10
0
20
0
30
0
70
128
71
-9
72
4
73
10
0
VERTEX
8
OBJECT051
10
0
20
0
30
0
70
128
71
6
72
5
73
-9
0
VERTEX
8
OBJECT051
10
0
20
0
30
0
70
128
71
-6
72
9
73
-10
0
VERTEX
8
OBJECT051
10
0
20
0
30
0
70
128
71
-6
72
10
73
8
0
VERTEX
8
OBJECT051
10
0
20
0
30
0
70
128
71
3
72
7
73
-8
0
VERTEX
8
OBJECT051
10
0
20
0
30
0
70
128
71
-3
72
8
73
-10
0
VERTEX
8
OBJECT051
10
0
20
0
30
0
70
128
71
-3
72
10
73
4
0
SEQEND
8
OBJECT051
0
POLYLINE
8
OBJECT052
66
1
70
64
71
8
72
12
62
50
0
VERTEX
8
OBJECT052
10
62.730515
20
-3.826416
30
78.871605
70
192
0
VERTEX
8
OBJECT052
10
101.303795
20
-3.825134
30
92.100105
70
192
0
VERTEX
8
OBJECT052
10
101.601364
20
-14.920715
30
91.181198
70
192
0
VERTEX
8
OBJECT052
10
63.019321
20
-15.437805
30
77.902229
70
192
0
VERTEX
8
OBJECT052
10
62.813457
20
-0.462555
30
78.592049
70
192
0
VERTEX
8
OBJECT052
10
101.409096
20
0.265198
30
91.761642
70
192
0
VERTEX
8
OBJECT052
10
107.224953
20
-33.206543
30
73.603943
70
192
0
VERTEX
8
OBJECT052
10
68.132133
20
-33.204651
30
60.707954
70
192
0
VERTEX
8
OBJECT052
10
0
20
0
30
0
70
128
71
2
72
3
73
-4
0
VERTEX
8
OBJECT052
10
0
20
0
30
0
70
128
71
-2
72
4
73
1
0
VERTEX
8
OBJECT052
10
0
20
0
30
0
70
128
71
1
72
5
73
-6
0
VERTEX
8
OBJECT052
10
0
20
0
30
0
70
128
71
-1
72
6
73
2
0
VERTEX
8
OBJECT052
10
0
20
0
30
0
70
128
71
3
72
2
73
-6
0
VERTEX
8
OBJECT052
10
0
20
0
30
0
70
128
71
-3
72
6
73
7
0
VERTEX
8
OBJECT052
10
0
20
0
30
0
70
128
71
3
72
7
73
-8
0
VERTEX
8
OBJECT052
10
0
20
0
30
0
70
128
71
-3
72
8
73
4
0
VERTEX
8
OBJECT052
10
0
20
0
30
0
70
128
71
5
72
8
73
-7
0
VERTEX
8
OBJECT052
10
0
20
0
30
0
70
128
71
-5
72
7
73
6
0
VERTEX
8
OBJECT052
10
0
20
0
30
0
70
128
71
1
72
4
73
-8
0
VERTEX
8
OBJECT052
10
0
20
0
30
0
70
128
71
-1
72
8
73
5
0
SEQEND
8
OBJECT052
0
POLYLINE
8
OBJECT053
66
1
70
64
71
10
72
12
62
50
0
VERTEX
8
OBJECT053
10
-119.363762
20
-3.933350
30
16.413805
70
192
0
VERTEX
8
OBJECT053
10
-119.366615
20
-3.813416
30
16.424139
70
192
0
VERTEX
8
OBJECT053
10
-114.922287
20
-3.813416
30
17.947960
70
192
0
VERTEX
8
OBJECT053
10
-79.069664
20
-3.143005
30
30.179094
70
192
0
VERTEX
8
OBJECT053
10
-114.662476
20
-3.813416
30
18.036707
70
192
0
VERTEX
8
OBJECT053
10
-119.163597
20
4.023712
30
15.789116
70
192
0
VERTEX
8
OBJECT053
10
-78.868416
20
5.089478
30
29.508066
70
192
0
VERTEX
8
OBJECT053
10
-116.282333
20
-23.105774
30
5.969853
70
192
0
VERTEX
8
OBJECT053
10
-75.826256
20
-23.100830
30
19.320774
70
192
0
VERTEX
8
OBJECT053
10
-114.435272
20
-3.813416
30
18.114471
70
192
0
VERTEX
8
OBJECT053
10
0
20
0
30
0
70
128
71
2
72
3
73
1
0
VERTEX
8
OBJECT053
10
0
20
0
30
0
70
128
71
5
72
2
73
-6
0
VERTEX
8
OBJECT053
10
0
20
0
30
0
70
128
71
-5
72
6
73
-7
0
VERTEX
8
OBJECT053
10
0
20
0
30
0
70
128
71
-5
72
7
73
4
0
VERTEX
8
OBJECT053
10
0
20
0
30
0
70
128
71
2
72
1
73
-8
0
VERTEX
8
OBJECT053
10
0
20
0
30
0
70
128
71
-2
72
8
73
6
0
VERTEX
8
OBJECT053
10
0
20
0
30
0
70
128
71
8
72
1
73
-10
0
VERTEX
8
OBJECT053
10
0
20
0
30
0
70
128
71
-8
72
10
73
-4
0
VERTEX
8
OBJECT053
10
0
20
0
30
0
70
128
71
-8
72
4
73
9
0
VERTEX
8
OBJECT053
10
0
20
0
30
0
70
128
71
6
72
8
73
-9
0
VERTEX
8
OBJECT053
10
0
20
0
30
0
70
128
71
-6
72
9
73
7
0
VERTEX
8
OBJECT053
10
0
20
0
30
0
70
128
71
4
72
7
73
9
0
SEQEND
8
OBJECT053
0
POLYLINE
8
OBJECT054
66
1
70
64
71
8
72
12
62
50
0
VERTEX
8
OBJECT054
10
63.028542
20
8.186584
30
77.871674
70
192
0
VERTEX
8
OBJECT054
10
101.622055
20
8.186584
30
91.106796
70
192
0
VERTEX
8
OBJECT054
10
101.412735
20
0.271667
30
91.761269
70
192
0
VERTEX
8
OBJECT054
10
62.813091
20
-0.458679
30
78.591194
70
192
0
VERTEX
8
OBJECT054
10
63.068771
20
8.586182
30
77.733650
70
192
0
VERTEX
8
OBJECT054
10
101.735146
20
9.233582
30
90.754089
70
192
0
VERTEX
8
OBJECT054
10
105.437370
20
-22.999268
30
79.179581
70
192
0
VERTEX
8
OBJECT054
10
66.351433
20
-23.030762
30
66.266655
70
192
0
VERTEX
8
OBJECT054
10
0
20
0
30
0
70
128
71
2
72
3
73
-4
0
VERTEX
8
OBJECT054
10
0
20
0
30
0
70
128
71
-2
72
4
73
1
0
VERTEX
8
OBJECT054
10
0
20
0
30
0
70
128
71
1
72
5
73
-6
0
VERTEX
8
OBJECT054
10
0
20
0
30
0
70
128
71
-1
72
6
73
2
0
VERTEX
8
OBJECT054
10
0
20
0
30
0
70
128
71
3
72
2
73
-6
0
VERTEX
8
OBJECT054
10
0
20
0
30
0
70
128
71
-3
72
6
73
7
0
VERTEX
8
OBJECT054
10
0
20
0
30
0
70
128
71
3
72
7
73
-8
0
VERTEX
8
OBJECT054
10
0
20
0
30
0
70
128
71
-3
72
8
73
4
0
VERTEX
8
OBJECT054
10
0
20
0
30
0
70
128
71
5
72
8
73
-7
0
VERTEX
8
OBJECT054
10
0
20
0
30
0
70
128
71
-5
72
7
73
6
0
VERTEX
8
OBJECT054
10
0
20
0
30
0
70
128
71
1
72
4
73
-8
0
VERTEX
8
OBJECT054
10
0
20
0
30
0
70
128
71
-1
72
8
73
5
0
SEQEND
8
OBJECT054
0
POLYLINE
8
OBJECT055
66
1
70
64
71
8
72
12
62
50
0
VERTEX
8
OBJECT055
10
-119.163109
20
3.986877
30
15.777751
70
192
0
VERTEX
8
OBJECT055
10
-119.052124
20
8.186584
30
15.430335
70
192
0
VERTEX
8
OBJECT055
10
-78.788025
20
8.186584
30
29.238054
70
192
0
VERTEX
8
OBJECT055
10
-78.865196
20
5.054962
30
29.498878
70
192
0
VERTEX
8
OBJECT055
10
-118.039742
20
17.724091
30
12.269106
70
192
0
VERTEX
8
OBJECT055
10
-77.725510
20
18.846191
30
25.681734
70
192
0
VERTEX
8
OBJECT055
10
-117.133224
20
-13.573303
30
9.449249
70
192
0
VERTEX
8
OBJECT055
10
-76.834763
20
-13.571228
30
22.745066
70
192
0
VERTEX
8
OBJECT055
10
0
20
0
30
0
70
128
71
2
72
3
73
-4
0
VERTEX
8
OBJECT055
10
0
20
0
30
0
70
128
71
-2
72
4
73
1
0
VERTEX
8
OBJECT055
10
0
20
0
30
0
70
128
71
2
72
5
73
-6
0
VERTEX
8
OBJECT055
10
0
20
0
30
0
70
128
71
-2
72
6
73
3
0
VERTEX
8
OBJECT055
10
0
20
0
30
0
70
128
71
2
72
1
73
-7
0
VERTEX
8
OBJECT055
10
0
20
0
30
0
70
128
71
-2
72
7
73
5
0
VERTEX
8
OBJECT055
10
0
20
0
30
0
70
128
71
7
72
1
73
-4
0
VERTEX
8
OBJECT055
10
0
20
0
30
0
70
128
71
-7
72
4
73
8
0
VERTEX
8
OBJECT055
10
0
20
0
30
0
70
128
71
5
72
7
73
-8
0
VERTEX
8
OBJECT055
10
0
20
0
30
0
70
128
71
-5
72
8
73
6
0
VERTEX
8
OBJECT055
10
0
20
0
30
0
70
128
71
3
72
6
73
-8
0
VERTEX
8
OBJECT055
10
0
20
0
30
0
70
128
71
-3
72
8
73
4
0
SEQEND
8
OBJECT055
0
POLYLINE
8
OBJECT056
66
1
70
64
71
8
72
12
62
50
0
VERTEX
8
OBJECT056
10
64.228691
20
20.216278
30
73.855698
70
192
0
VERTEX
8
OBJECT056
10
102.899475
20
20.219818
30
87.115517
70
192
0
VERTEX
8
OBJECT056
10
101.735847
20
9.245758
30
90.754089
70
192
0
VERTEX
8
OBJECT056
10
63.068829
20
8.588074
30
77.736588
70
192
0
VERTEX
8
OBJECT056
10
64.496346
20
22.086029
30
72.918030
70
192
0
VERTEX
8
OBJECT056
10
103.318634
20
22.848541
30
85.811440
70
192
0
VERTEX
8
OBJECT056
10
104.364761
20
-13.550720
30
82.538773
70
192
0
VERTEX
8
OBJECT056
10
64.903015
20
-13.585449
30
69.506729
70
192
0
VERTEX
8
OBJECT056
10
0
20
0
30
0
70
128
71
2
72
3
73
-4
0
VERTEX
8
OBJECT056
10
0
20
0
30
0
70
128
71
-2
72
4
73
1
0
VERTEX
8
OBJECT056
10
0
20
0
30
0
70
128
71
1
72
5
73
-6
0
VERTEX
8
OBJECT056
10
0
20
0
30
0
70
128
71
-1
72
6
73
2
0
VERTEX
8
OBJECT056
10
0
20
0
30
0
70
128
71
3
72
2
73
-6
0
VERTEX
8
OBJECT056
10
0
20
0
30
0
70
128
71
-3
72
6
73
7
0
VERTEX
8
OBJECT056
10
0
20
0
30
0
70
128
71
3
72
7
73
-8
0
VERTEX
8
OBJECT056
10
0
20
0
30
0
70
128
71
-3
72
8
73
4
0
VERTEX
8
OBJECT056
10
0
20
0
30
0
70
128
71
5
72
8
73
-7
0
VERTEX
8
OBJECT056
10
0
20
0
30
0
70
128
71
-5
72
7
73
6
0
VERTEX
8
OBJECT056
10
0
20
0
30
0
70
128
71
1
72
4
73
-8
0
VERTEX
8
OBJECT056
10
0
20
0
30
0
70
128
71
-1
72
8
73
5
0
SEQEND
8
OBJECT056
0
POLYLINE
8
OBJECT057
66
1
70
64
71
8
72
12
62
50
0
VERTEX
8
OBJECT057
10
-118.037918
20
17.720551
30
12.269057
70
192
0
VERTEX
8
OBJECT057
10
-117.770348
20
20.235901
30
11.430935
70
192
0
VERTEX
8
OBJECT057
10
-77.584564
20
20.235382
30
25.212351
70
192
0
VERTEX
8
OBJECT057
10
-77.725266
20
18.838287
30
25.680574
70
192
0
VERTEX
8
OBJECT057
10
-116.492271
20
28.266449
30
7.438882
70
192
0
VERTEX
8
OBJECT057
10
-76.211281
20
29.425110
30
20.613342
70
192
0
VERTEX
8
OBJECT057
10
-117.405693
20
-3.813416
30
10.336128
70
192
0
VERTEX
8
OBJECT057
10
-77.160271
20
-3.813416
30
23.606554
70
192
0
VERTEX
8
OBJECT057
10
0
20
0
30
0
70
128
71
2
72
3
73
-4
0
VERTEX
8
OBJECT057
10
0
20
0
30
0
70
128
71
-2
72
4
73
1
0
VERTEX
8
OBJECT057
10
0
20
0
30
0
70
128
71
2
72
5
73
-6
0
VERTEX
8
OBJECT057
10
0
20
0
30
0
70
128
71
-2
72
6
73
3
0
VERTEX
8
OBJECT057
10
0
20
0
30
0
70
128
71
2
72
1
73
-7
0
VERTEX
8
OBJECT057
10
0
20
0
30
0
70
128
71
-2
72
7
73
5
0
VERTEX
8
OBJECT057
10
0
20
0
30
0
70
128
71
7
72
1
73
-4
0
VERTEX
8
OBJECT057
10
0
20
0
30
0
70
128
71
-7
72
4
73
8
0
VERTEX
8
OBJECT057
10
0
20
0
30
0
70
128
71
5
72
7
73
-8
0
VERTEX
8
OBJECT057
10
0
20
0
30
0
70
128
71
-5
72
8
73
6
0
VERTEX
8
OBJECT057
10
0
20
0
30
0
70
128
71
3
72
6
73
-8
0
VERTEX
8
OBJECT057
10
0
20
0
30
0
70
128
71
-3
72
8
73
4
0
SEQEND
8
OBJECT057
0
POLYLINE
8
OBJECT058
66
1
70
64
71
8
72
12
62
50
0
VERTEX
8
OBJECT058
10
66.016945
20
32.176453
30
67.868546
70
192
0
VERTEX
8
OBJECT058
10
104.802757
20
32.176178
30
81.169632
70
192
0
VERTEX
8
OBJECT058
10
103.317505
20
22.840820
30
85.810623
70
192
0
VERTEX
8
OBJECT058
10
64.496437
20
22.079468
30
72.918030
70
192
0
VERTEX
8
OBJECT058
10
66.199387
20
32.873077
30
67.256058
70
192
0
VERTEX
8
OBJECT058
10
105.161743
20
33.453552
30
80.053162
70
192
0
VERTEX
8
OBJECT058
10
104.085449
20
-3.813416
30
83.409843
70
192
0
VERTEX
8
OBJECT058
10
65.095467
20
-3.762268
30
70.541824
70
192
0
VERTEX
8
OBJECT058
10
0
20
0
30
0
70
128
71
2
72
3
73
-4
0
VERTEX
8
OBJECT058
10
0
20
0
30
0
70
128
71
-2
72
4
73
1
0
VERTEX
8
OBJECT058
10
0
20
0
30
0
70
128
71
1
72
5
73
-6
0
VERTEX
8
OBJECT058
10
0
20
0
30
0
70
128
71
-1
72
6
73
2
0
VERTEX
8
OBJECT058
10
0
20
0
30
0
70
128
71
3
72
2
73
-6
0
VERTEX
8
OBJECT058
10
0
20
0
30
0
70
128
71
-3
72
6
73
7
0
VERTEX
8
OBJECT058
10
0
20
0
30
0
70
128
71
3
72
7
73
-8
0
VERTEX
8
OBJECT058
10
0
20
0
30
0
70
128
71
-3
72
8
73
4
0
VERTEX
8
OBJECT058
10
0
20
0
30
0
70
128
71
5
72
8
73
-7
0
VERTEX
8
OBJECT058
10
0
20
0
30
0
70
128
71
-5
72
7
73
6
0
VERTEX
8
OBJECT058
10
0
20
0
30
0
70
128
71
1
72
4
73
-8
0
VERTEX
8
OBJECT058
10
0
20
0
30
0
70
128
71
-1
72
8
73
5
0
SEQEND
8
OBJECT058
0
POLYLINE
8
OBJECT059
66
1
70
64
71
9
72
12
62
50
0
VERTEX
8
OBJECT059
10
-76.546028
20
27.186584
30
21.732347
70
192
0
VERTEX
8
OBJECT059
10
-76.212624
20
29.422302
30
20.613728
70
192
0
VERTEX
8
OBJECT059
10
20.273420
20
32.186584
30
52.171276
70
192
0
VERTEX
8
OBJECT059
10
66.020096
20
32.186584
30
67.856995
70
192
0
VERTEX
8
OBJECT059
10
65.271576
20
27.186584
30
70.362434
70
192
0
VERTEX
8
OBJECT059
10
66.198997
20
32.862762
30
67.257187
70
192
0
VERTEX
8
OBJECT059
10
20.520542
20
32.199066
30
52.251156
70
192
0
VERTEX
8
OBJECT059
10
-76.272926
20
27.186584
30
20.816828
70
192
0
VERTEX
8
OBJECT059
10
66.042091
20
27.186584
30
67.773262
70
192
0
VERTEX
8
OBJECT059
10
0
20
0
30
0
70
128
71
2
72
3
73
-4
0
VERTEX
8
OBJECT059
10
0
20
0
30
0
70
128
71
-2
72
4
73
-5
0
VERTEX
8
OBJECT059
10
0
20
0
30
0
70
128
71
-2
72
5
73
1
0
VERTEX
8
OBJECT059
10
0
20
0
30
0
70
128
71
3
72
6
73
4
0
VERTEX
8
OBJECT059
10
0
20
0
30
0
70
128
71
7
72
2
73
-8
0
VERTEX
8
OBJECT059
10
0
20
0
30
0
70
128
71
-7
72
8
73
-9
0
VERTEX
8
OBJECT059
10
0
20
0
30
0
70
128
71
-7
72
9
73
6
0
VERTEX
8
OBJECT059
10
0
20
0
30
0
70
128
71
2
72
1
73
8
0
VERTEX
8
OBJECT059
10
0
20
0
30
0
70
128
71
4
72
6
73
-9
0
VERTEX
8
OBJECT059
10
0
20
0
30
0
70
128
71
-4
72
9
73
5
0
VERTEX
8
OBJECT059
10
0
20
0
30
0
70
128
71
8
72
1
73
-5
0
VERTEX
8
OBJECT059
10
0
20
0
30
0
70
128
71
-8
72
5
73
9
0
SEQEND
8
OBJECT059
0
POLYLINE
8
OBJECT060
66
1
70
64
71
10
72
16
62
50
0
VERTEX
8
OBJECT060
10
-116.492508
20
28.258606
30
7.439019
70
192
0
VERTEX
8
OBJECT060
10
-115.861397
20
32.201630
30
5.473911
70
192
0
VERTEX
8
OBJECT060
10
-75.795242
20
32.201355
30
19.213713
70
192
0
VERTEX
8
OBJECT060
10
-76.212433
20
29.412445
30
20.613630
70
192
0
VERTEX
8
OBJECT060
10
-113.324165
20
41.174072
30
-2.458091
70
192
0
VERTEX
8
OBJECT060
10
-73.415100
20
41.175415
30
11.226225
70
192
0
VERTEX
8
OBJECT060
10
-112.947380
20
42.238007
30
-3.636257
70
192
0
VERTEX
8
OBJECT060
10
-72.853683
20
42.864777
30
9.341906
70
192
0
VERTEX
8
OBJECT060
10
-117.161240
20
5.926849
30
9.443301
70
192
0
VERTEX
8
OBJECT060
10
-76.848663
20
5.927032
30
22.743370
70
192
0
VERTEX
8
OBJECT060
10
0
20
0
30
0
70
128
71
2
72
3
73
-4
0
VERTEX
8
OBJECT060
10
0
20
0
30
0
70
128
71
-2
72
4
73
1
0
VERTEX
8
OBJECT060
10
0
20
0
30
0
70
128
71
2
72
5
73
-6
0
VERTEX
8
OBJECT060
10
0
20
0
30
0
70
128
71
-2
72
6
73
3
0
VERTEX
8
OBJECT060
10
0
20
0
30
0
70
128
71
5
72
7
73
-8
0
VERTEX
8
OBJECT060
10
0
20
0
30
0
70
128
71
-5
72
8
73
6
0
VERTEX
8
OBJECT060
10
0
20
0
30
0
70
128
71
5
72
2
73
-1
0
VERTEX
8
OBJECT060
10
0
20
0
30
0
70
128
71
-5
72
1
73
-9
0
VERTEX
8
OBJECT060
10
0
20
0
30
0
70
128
71
-5
72
9
73
7
0
VERTEX
8
OBJECT060
10
0
20
0
30
0
70
128
71
9
72
1
73
-4
0
VERTEX
8
OBJECT060
10
0
20
0
30
0
70
128
71
-9
72
4
73
10
0
VERTEX
8
OBJECT060
10
0
20
0
30
0
70
128
71
7
72
9
73
-10
0
VERTEX
8
OBJECT060
10
0
20
0
30
0
70
128
71
-7
72
10
73
8
0
VERTEX
8
OBJECT060
10
0
20
0
30
0
70
128
71
4
72
3
73
-6
0
VERTEX
8
OBJECT060
10
0
20
0
30
0
70
128
71
-4
72
6
73
-8
0
VERTEX
8
OBJECT060
10
0
20
0
30
0
70
128
71
-4
72
8
73
10
0
SEQEND
8
OBJECT060
0
POLYLINE
8
OBJECT061
66
1
70
64
71
8
72
12
62
50
0
VERTEX
8
OBJECT061
10
68.415298
20
41.200897
30
59.836140
70
192
0
VERTEX
8
OBJECT061
10
107.357498
20
41.200500
30
73.192070
70
192
0
VERTEX
8
OBJECT061
10
105.161545
20
33.441956
30
80.053101
70
192
0
VERTEX
8
OBJECT061
10
66.199326
20
32.866150
30
67.255791
70
192
0
VERTEX
8
OBJECT061
10
108.950294
20
45.651459
30
68.215172
70
192
0
VERTEX
8
OBJECT061
10
69.708977
20
45.045074
30
55.509701
70
192
0
VERTEX
8
OBJECT061
10
104.365402
20
5.930511
30
82.531250
70
192
0
VERTEX
8
OBJECT061
10
65.503342
20
5.934235
30
69.708008
70
192
0
VERTEX
8
OBJECT061
10
0
20
0
30
0
70
128
71
2
72
3
73
-4
0
VERTEX
8
OBJECT061
10
0
20
0
30
0
70
128
71
-2
72
4
73
1
0
VERTEX
8
OBJECT061
10
0
20
0
30
0
70
128
71
2
72
1
73
-6
0
VERTEX
8
OBJECT061
10
0
20
0
30
0
70
128
71
-2
72
6
73
5
0
VERTEX
8
OBJECT061
10
0
20
0
30
0
70
128
71
3
72
2
73
-5
0
VERTEX
8
OBJECT061
10
0
20
0
30
0
70
128
71
-3
72
5
73
7
0
VERTEX
8
OBJECT061
10
0
20
0
30
0
70
128
71
3
72
7
73
-8
0
VERTEX
8
OBJECT061
10
0
20
0
30
0
70
128
71
-3
72
8
73
4
0
VERTEX
8
OBJECT061
10
0
20
0
30
0
70
128
71
6
72
8
73
-7
0
VERTEX
8
OBJECT061
10
0
20
0
30
0
70
128
71
-6
72
7
73
5
0
VERTEX
8
OBJECT061
10
0
20
0
30
0
70
128
71
1
72
4
73
-8
0
VERTEX
8
OBJECT061
10
0
20
0
30
0
70
128
71
-1
72
8
73
6
0
SEQEND
8
OBJECT061
0
POLYLINE
8
OBJECT062
66
1
70
64
71
14
72
20
62
50
0
VERTEX
8
OBJECT062
10
-75.794098
20
32.208588
30
19.211367
70
192
0
VERTEX
8
OBJECT062
10
21.178272
20
32.207794
30
52.467213
70
192
0
VERTEX
8
OBJECT062
10
-76.213898
20
29.413910
30
20.613342
70
192
0
VERTEX
8
OBJECT062
10
20.827730
20
32.204193
30
52.351929
70
192
0
VERTEX
8
OBJECT062
10
-73.419464
20
41.148651
30
11.265006
70
192
0
VERTEX
8
OBJECT062
10
68.398193
20
41.150208
30
59.897514
70
192
0
VERTEX
8
OBJECT062
10
66.199539
20
32.874359
30
67.254616
70
192
0
VERTEX
8
OBJECT062
10
-72.848587
20
42.845886
30
9.353618
70
192
0
VERTEX
8
OBJECT062
10
69.709274
20
45.048767
30
55.510227
70
192
0
VERTEX
8
OBJECT062
10
-76.275414
20
27.186584
30
20.814659
70
192
0
VERTEX
8
OBJECT062
10
20.684330
20
32.201111
30
52.304268
70
192
0
VERTEX
8
OBJECT062
10
66.045280
20
27.186584
30
67.770699
70
192
0
VERTEX
8
OBJECT062
10
-74.552116
20
27.186584
30
15.032737
70
192
0
VERTEX
8
OBJECT062
10
67.772682
20
27.186584
30
61.990337
70
192
0
VERTEX
8
OBJECT062
10
0
20
0
30
0
70
128
71
2
72
3
73
1
0
VERTEX
8
OBJECT062
10
0
20
0
30
0
70
128
71
1
72
5
73
-6
0
VERTEX
8
OBJECT062
10
0
20
0
30
0
70
128
71
-1
72
6
73
-7
0
VERTEX
8
OBJECT062
10
0
20
0
30
0
70
128
71
-1
72
7
73
4
0
VERTEX
8
OBJECT062
10
0
20
0
30
0
70
128
71
5
72
8
73
-9
0
VERTEX
8
OBJECT062
10
0
20
0
30
0
70
128
71
-5
72
9
73
6
0
VERTEX
8
OBJECT062
10
0
20
0
30
0
70
128
71
3
72
11
73
-7
0
VERTEX
8
OBJECT062
10
0
20
0
30
0
70
128
71
-3
72
7
73
-12
0
VERTEX
8
OBJECT062
10
0
20
0
30
0
70
128
71
-3
72
12
73
10
0
VERTEX
8
OBJECT062
10
0
20
0
30
0
70
128
71
8
72
13
73
-14
0
VERTEX
8
OBJECT062
10
0
20
0
30
0
70
128
71
-8
72
14
73
9
0
VERTEX
8
OBJECT062
10
0
20
0
30
0
70
128
71
5
72
1
73
-3
0
VERTEX
8
OBJECT062
10
0
20
0
30
0
70
128
71
-5
72
3
73
-10
0
VERTEX
8
OBJECT062
10
0
20
0
30
0
70
128
71
-5
72
10
73
-13
0
VERTEX
8
OBJECT062
10
0
20
0
30
0
70
128
71
-5
72
13
73
8
0
VERTEX
8
OBJECT062
10
0
20
0
30
0
70
128
71
7
72
6
73
-9
0
VERTEX
8
OBJECT062
10
0
20
0
30
0
70
128
71
-7
72
9
73
-14
0
VERTEX
8
OBJECT062
10
0
20
0
30
0
70
128
71
-7
72
14
73
12
0
VERTEX
8
OBJECT062
10
0
20
0
30
0
70
128
71
13
72
10
73
-12
0
VERTEX
8
OBJECT062
10
0
20
0
30
0
70
128
71
-13
72
12
73
14
0
SEQEND
8
OBJECT062
0
POLYLINE
8
OBJECT063
66
1
70
64
71
13
72
16
62
50
0
VERTEX
8
OBJECT063
10
-110.613579
20
48.743256
30
-10.916658
70
192
0
VERTEX
8
OBJECT063
10
-110.459587
20
49.174774
30
-11.404683
70
192
0
VERTEX
8
OBJECT063
10
-56.401817
20
49.186584
30
7.123877
70
192
0
VERTEX
8
OBJECT063
10
111.244164
20
50.797394
30
61.057594
70
192
0
VERTEX
8
OBJECT063
10
110.706146
20
49.954224
30
62.733925
70
192
0
VERTEX
8
OBJECT063
10
-56.767376
20
49.186584
30
7.001734
70
192
0
VERTEX
8
OBJECT063
10
-110.123520
20
49.702209
30
-12.455704
70
192
0
VERTEX
8
OBJECT063
10
15.338014
20
50.721619
30
28.328463
70
192
0
VERTEX
8
OBJECT063
10
-110.587860
20
46.855743
30
-10.908093
70
192
0
VERTEX
8
OBJECT063
10
111.564430
20
50.721619
30
60.076271
70
192
0
VERTEX
8
OBJECT063
10
110.741791
20
45.799652
30
62.745834
70
192
0
VERTEX
8
OBJECT063
10
15.084430
20
50.721527
30
28.244844
70
192
0
VERTEX
8
OBJECT063
10
-56.171021
20
49.186584
30
7.202386
70
192
0
VERTEX
8
OBJECT063
10
0
20
0
30
0
70
128
71
2
72
3
73
1
0
VERTEX
8
OBJECT063
10
0
20
0
30
0
70
128
71
5
72
6
73
-2
0
VERTEX
8
OBJECT063
10
0
20
0
30
0
70
128
71
-5
72
2
73
-7
0
VERTEX
8
OBJECT063
10
0
20
0
30
0
70
128
71
-5
72
7
73
-8
0
VERTEX
8
OBJECT063
10
0
20
0
30
0
70
128
71
-5
72
8
73
4
0
VERTEX
8
OBJECT063
10
0
20
0
30
0
70
128
71
7
72
2
73
-1
0
VERTEX
8
OBJECT063
10
0
20
0
30
0
70
128
71
-7
72
1
73
9
0
VERTEX
8
OBJECT063
10
0
20
0
30
0
70
128
71
4
72
10
73
-11
0
VERTEX
8
OBJECT063
10
0
20
0
30
0
70
128
71
-4
72
11
73
5
0
VERTEX
8
OBJECT063
10
0
20
0
30
0
70
128
71
12
72
10
73
4
0
VERTEX
8
OBJECT063
10
0
20
0
30
0
70
128
71
7
72
9
73
-11
0
VERTEX
8
OBJECT063
10
0
20
0
30
0
70
128
71
-7
72
11
73
-10
0
VERTEX
8
OBJECT063
10
0
20
0
30
0
70
128
71
-7
72
10
73
12
0
VERTEX
8
OBJECT063
10
0
20
0
30
0
70
128
71
1
72
13
73
-5
0
VERTEX
8
OBJECT063
10
0
20
0
30
0
70
128
71
-1
72
5
73
-11
0
VERTEX
8
OBJECT063
10
0
20
0
30
0
70
128
71
-1
72
11
73
9
0
SEQEND
8
OBJECT063
0
POLYLINE
8
OBJECT064
66
1
70
64
71
8
72
12
62
50
0
VERTEX
8
OBJECT064
10
-112.949196
20
42.229584
30
-3.631870
70
192
0
VERTEX
8
OBJECT064
10
-110.617950
20
48.743378
30
-10.919395
70
192
0
VERTEX
8
OBJECT064
10
-70.755905
20
49.069336
30
2.346037
70
192
0
VERTEX
8
OBJECT064
10
-72.848465
20
42.847839
30
9.352561
70
192
0
VERTEX
8
OBJECT064
10
-116.014236
20
15.673981
30
5.939675
70
192
0
VERTEX
8
OBJECT064
10
-110.618187
20
46.854767
30
-10.919571
70
192
0
VERTEX
8
OBJECT064
10
-75.791908
20
15.676971
30
19.208054
70
192
0
VERTEX
8
OBJECT064
10
-70.755905
20
46.663086
30
2.345933
70
192
0
VERTEX
8
OBJECT064
10
0
20
0
30
0
70
128
71
2
72
3
73
-4
0
VERTEX
8
OBJECT064
10
0
20
0
30
0
70
128
71
-2
72
4
73
1
0
VERTEX
8
OBJECT064
10
0
20
0
30
0
70
128
71
1
72
5
73
-6
0
VERTEX
8
OBJECT064
10
0
20
0
30
0
70
128
71
-1
72
6
73
2
0
VERTEX
8
OBJECT064
10
0
20
0
30
0
70
128
71
5
72
1
73
-4
0
VERTEX
8
OBJECT064
10
0
20
0
30
0
70
128
71
-5
72
4
73
7
0
VERTEX
8
OBJECT064
10
0
20
0
30
0
70
128
71
5
72
7
73
-8
0
VERTEX
8
OBJECT064
10
0
20
0
30
0
70
128
71
-5
72
8
73
6
0
VERTEX
8
OBJECT064
10
0
20
0
30
0
70
128
71
2
72
6
73
-8
0
VERTEX
8
OBJECT064
10
0
20
0
30
0
70
128
71
-2
72
8
73
3
0
VERTEX
8
OBJECT064
10
0
20
0
30
0
70
128
71
3
72
8
73
-7
0
VERTEX
8
OBJECT064
10
0
20
0
30
0
70
128
71
-3
72
7
73
4
0
SEQEND
8
OBJECT064
0
POLYLINE
8
OBJECT065
66
1
70
64
71
10
72
16
62
50
0
VERTEX
8
OBJECT065
10
71.105881
20
49.186584
30
50.830200
70
192
0
VERTEX
8
OBJECT065
10
110.226318
20
49.186584
30
64.242935
70
192
0
VERTEX
8
OBJECT065
10
108.946381
20
45.647156
30
68.217758
70
192
0
VERTEX
8
OBJECT065
10
69.707550
20
45.047729
30
55.510662
70
192
0
VERTEX
8
OBJECT065
10
110.706177
20
49.956482
30
62.732727
70
192
0
VERTEX
8
OBJECT065
10
71.453758
20
49.775482
30
49.670349
70
192
0
VERTEX
8
OBJECT065
10
110.652390
20
45.802734
30
62.715019
70
192
0
VERTEX
8
OBJECT065
10
105.211273
20
15.672455
30
78.930519
70
192
0
VERTEX
8
OBJECT065
10
66.579147
20
15.671143
30
66.185501
70
192
0
VERTEX
8
OBJECT065
10
71.467773
20
45.987854
30
49.674019
70
192
0
VERTEX
8
OBJECT065
10
0
20
0
30
0
70
128
71
2
72
3
73
-4
0
VERTEX
8
OBJECT065
10
0
20
0
30
0
70
128
71
-2
72
4
73
1
0
VERTEX
8
OBJECT065
10
0
20
0
30
0
70
128
71
2
72
1
73
-6
0
VERTEX
8
OBJECT065
10
0
20
0
30
0
70
128
71
-2
72
6
73
5
0
VERTEX
8
OBJECT065
10
0
20
0
30
0
70
128
71
2
72
5
73
-7
0
VERTEX
8
OBJECT065
10
0
20
0
30
0
70
128
71
-2
72
7
73
-8
0
VERTEX
8
OBJECT065
10
0
20
0
30
0
70
128
71
-2
72
8
73
3
0
VERTEX
8
OBJECT065
10
0
20
0
30
0
70
128
71
3
72
8
73
-9
0
VERTEX
8
OBJECT065
10
0
20
0
30
0
70
128
71
-3
72
9
73
4
0
VERTEX
8
OBJECT065
10
0
20
0
30
0
70
128
71
8
72
7
73
-10
0
VERTEX
8
OBJECT065
10
0
20
0
30
0
70
128
71
-8
72
10
73
9
0
VERTEX
8
OBJECT065
10
0
20
0
30
0
70
128
71
6
72
10
73
-7
0
VERTEX
8
OBJECT065
10
0
20
0
30
0
70
128
71
-6
72
7
73
5
0
VERTEX
8
OBJECT065
10
0
20
0
30
0
70
128
71
1
72
4
73
-9
0
VERTEX
8
OBJECT065
10
0
20
0
30
0
70
128
71
-1
72
9
73
-10
0
VERTEX
8
OBJECT065
10
0
20
0
30
0
70
128
71
-1
72
10
73
6
0
SEQEND
8
OBJECT065
0
POLYLINE
8
OBJECT066
66
1
70
64
71
13
72
20
62
50
0
VERTEX
8
OBJECT066
10
-54.425396
20
49.186584
30
7.781727
70
192
0
VERTEX
8
OBJECT066
10
71.106613
20
49.186584
30
50.830894
70
192
0
VERTEX
8
OBJECT066
10
69.707214
20
45.044128
30
55.510101
70
192
0
VERTEX
8
OBJECT066
10
-72.846771
20
42.852264
30
9.350471
70
192
0
VERTEX
8
OBJECT066
10
-70.755302
20
49.057495
30
2.347702
70
192
0
VERTEX
8
OBJECT066
10
71.453423
20
49.774994
30
49.671501
70
192
0
VERTEX
8
OBJECT066
10
-74.545013
20
27.186584
30
15.032673
70
192
0
VERTEX
8
OBJECT066
10
67.772766
20
27.186584
30
61.987782
70
192
0
VERTEX
8
OBJECT066
10
68.396851
20
27.186584
30
59.902386
70
192
0
VERTEX
8
OBJECT066
10
71.450081
20
45.963013
30
49.685715
70
192
0
VERTEX
8
OBJECT066
10
-70.758217
20
46.649658
30
2.356427
70
192
0
VERTEX
8
OBJECT066
10
-73.922264
20
27.186584
30
12.946968
70
192
0
VERTEX
8
OBJECT066
10
-53.986546
20
49.186584
30
7.927629
70
192
0
VERTEX
8
OBJECT066
10
0
20
0
30
0
70
128
71
2
72
3
73
-4
0
VERTEX
8
OBJECT066
10
0
20
0
30
0
70
128
71
-2
72
4
73
-5
0
VERTEX
8
OBJECT066
10
0
20
0
30
0
70
128
71
-2
72
5
73
1
0
VERTEX
8
OBJECT066
10
0
20
0
30
0
70
128
71
1
72
6
73
2
0
VERTEX
8
OBJECT066
10
0
20
0
30
0
70
128
71
4
72
3
73
-8
0
VERTEX
8
OBJECT066
10
0
20
0
30
0
70
128
71
-4
72
8
73
7
0
VERTEX
8
OBJECT066
10
0
20
0
30
0
70
128
71
10
72
11
73
-12
0
VERTEX
8
OBJECT066
10
0
20
0
30
0
70
128
71
-10
72
12
73
9
0
VERTEX
8
OBJECT066
10
0
20
0
30
0
70
128
71
13
72
5
73
-11
0
VERTEX
8
OBJECT066
10
0
20
0
30
0
70
128
71
-13
72
11
73
-10
0
VERTEX
8
OBJECT066
10
0
20
0
30
0
70
128
71
-13
72
10
73
6
0
VERTEX
8
OBJECT066
10
0
20
0
30
0
70
128
71
4
72
7
73
-12
0
VERTEX
8
OBJECT066
10
0
20
0
30
0
70
128
71
-4
72
12
73
-11
0
VERTEX
8
OBJECT066
10
0
20
0
30
0
70
128
71
-4
72
11
73
5
0
VERTEX
8
OBJECT066
10
0
20
0
30
0
70
128
71
2
72
6
73
-10
0
VERTEX
8
OBJECT066
10
0
20
0
30
0
70
128
71
-2
72
10
73
-9
0
VERTEX
8
OBJECT066
10
0
20
0
30
0
70
128
71
-2
72
9
73
-8
0
VERTEX
8
OBJECT066
10
0
20
0
30
0
70
128
71
-2
72
8
73
3
0
VERTEX
8
OBJECT066
10
0
20
0
30
0
70
128
71
12
72
7
73
-8
0
VERTEX
8
OBJECT066
10
0
20
0
30
0
70
128
71
-12
72
8
73
9
0
SEQEND
8
OBJECT066
0
POLYLINE
8
OBJECT067
66
1
70
64
71
11
72
16
62
50
0
VERTEX
8
OBJECT067
10
-110.123039
20
49.714325
30
-12.461788
70
192
0
VERTEX
8
OBJECT067
10
-109.544266
20
50.624451
30
-14.270159
70
192
0
VERTEX
8
OBJECT067
10
14.412928
20
50.721802
30
28.024694
70
192
0
VERTEX
8
OBJECT067
10
-106.779816
20
49.958527
30
-22.910717
70
192
0
VERTEX
8
OBJECT067
10
-110.617462
20
46.861633
30
-10.919459
70
192
0
VERTEX
8
OBJECT067
10
-110.617577
20
37.482941
30
-10.919652
70
192
0
VERTEX
8
OBJECT067
10
111.552910
20
50.722412
30
60.074192
70
192
0
VERTEX
8
OBJECT067
10
114.721779
20
49.959229
30
50.168926
70
192
0
VERTEX
8
OBJECT067
10
110.702393
20
36.890228
30
62.730663
70
192
0
VERTEX
8
OBJECT067
10
110.702713
20
45.809296
30
62.730911
70
192
0
VERTEX
8
OBJECT067
10
14.729885
20
50.721893
30
28.129202
70
192
0
VERTEX
8
OBJECT067
10
0
20
0
30
0
70
128
71
2
72
3
73
1
0
VERTEX
8
OBJECT067
10
0
20
0
30
0
70
128
71
2
72
1
73
-5
0
VERTEX
8
OBJECT067
10
0
20
0
30
0
70
128
71
-2
72
5
73
-6
0
VERTEX
8
OBJECT067
10
0
20
0
30
0
70
128
71
-2
72
6
73
4
0
VERTEX
8
OBJECT067
10
0
20
0
30
0
70
128
71
8
72
9
73
-10
0
VERTEX
8
OBJECT067
10
0
20
0
30
0
70
128
71
-8
72
10
73
7
0
VERTEX
8
OBJECT067
10
0
20
0
30
0
70
128
71
7
72
11
73
-2
0
VERTEX
8
OBJECT067
10
0
20
0
30
0
70
128
71
-7
72
2
73
-4
0
VERTEX
8
OBJECT067
10
0
20
0
30
0
70
128
71
-7
72
4
73
8
0
VERTEX
8
OBJECT067
10
0
20
0
30
0
70
128
71
1
72
3
73
-7
0
VERTEX
8
OBJECT067
10
0
20
0
30
0
70
128
71
-1
72
7
73
-10
0
VERTEX
8
OBJECT067
10
0
20
0
30
0
70
128
71
-1
72
10
73
5
0
VERTEX
8
OBJECT067
10
0
20
0
30
0
70
128
71
8
72
4
73
-6
0
VERTEX
8
OBJECT067
10
0
20
0
30
0
70
128
71
-8
72
6
73
9
0
VERTEX
8
OBJECT067
10
0
20
0
30
0
70
128
71
5
72
10
73
-9
0
VERTEX
8
OBJECT067
10
0
20
0
30
0
70
128
71
-5
72
9
73
6
0
SEQEND
8
OBJECT067
0
POLYLINE
8
OBJECT068
66
1
70
64
71
6
72
8
62
50
0
VERTEX
8
OBJECT068
10
-110.618378
20
46.861359
30
-10.919284
70
192
0
VERTEX
8
OBJECT068
10
-114.325935
20
25.431183
30
0.667390
70
192
0
VERTEX
8
OBJECT068
10
-110.618378
20
37.485748
30
-10.919315
70
192
0
VERTEX
8
OBJECT068
10
-74.208641
20
25.425842
30
13.907177
70
192
0
VERTEX
8
OBJECT068
10
-70.754021
20
46.672180
30
2.346918
70
192
0
VERTEX
8
OBJECT068
10
-70.754021
20
37.376892
30
2.346893
70
192
0
VERTEX
8
OBJECT068
10
0
20
0
30
0
70
128
71
2
72
3
73
1
0
VERTEX
8
OBJECT068
10
0
20
0
30
0
70
128
71
2
72
1
73
-5
0
VERTEX
8
OBJECT068
10
0
20
0
30
0
70
128
71
-2
72
5
73
4
0
VERTEX
8
OBJECT068
10
0
20
0
30
0
70
128
71
2
72
4
73
-6
0
VERTEX
8
OBJECT068
10
0
20
0
30
0
70
128
71
-2
72
6
73
3
0
VERTEX
8
OBJECT068
10
0
20
0
30
0
70
128
71
1
72
3
73
-6
0
VERTEX
8
OBJECT068
10
0
20
0
30
0
70
128
71
-1
72
6
73
5
0
VERTEX
8
OBJECT068
10
0
20
0
30
0
70
128
71
4
72
5
73
6
0
SEQEND
8
OBJECT068
0
POLYLINE
8
OBJECT069
66
1
70
64
71
6
72
8
62
50
0
VERTEX
8
OBJECT069
10
110.702263
20
36.892609
30
62.729919
70
192
0
VERTEX
8
OBJECT069
10
107.176476
20
25.427917
30
73.750488
70
192
0
VERTEX
8
OBJECT069
10
110.702263
20
45.810974
30
62.729919
70
192
0
VERTEX
8
OBJECT069
10
71.453300
20
45.997833
30
49.668510
70
192
0
VERTEX
8
OBJECT069
10
68.109474
20
25.428894
30
60.860233
70
192
0
VERTEX
8
OBJECT069
10
71.453300
20
36.997131
30
49.668510
70
192
0
VERTEX
8
OBJECT069
10
0
20
0
30
0
70
128
71
2
72
3
73
1
0
VERTEX
8
OBJECT069
10
0
20
0
30
0
70
128
71
3
72
2
73
-5
0
VERTEX
8
OBJECT069
10
0
20
0
30
0
70
128
71
-3
72
5
73
4
0
VERTEX
8
OBJECT069
10
0
20
0
30
0
70
128
71
1
72
6
73
-5
0
VERTEX
8
OBJECT069
10
0
20
0
30
0
70
128
71
-1
72
5
73
2
0
VERTEX
8
OBJECT069
10
0
20
0
30
0
70
128
71
1
72
3
73
-4
0
VERTEX
8
OBJECT069
10
0
20
0
30
0
70
128
71
-1
72
4
73
6
0
VERTEX
8
OBJECT069
10
0
20
0
30
0
70
128
71
5
72
6
73
4
0
SEQEND
8
OBJECT069
0
POLYLINE
8
OBJECT070
66
1
70
64
71
8
72
12
62
50
0
VERTEX
8
OBJECT070
10
-73.921898
20
27.186584
30
12.946840
70
192
0
VERTEX
8
OBJECT070
10
-70.753845
20
46.669891
30
2.346269
70
192
0
VERTEX
8
OBJECT070
10
71.467773
20
45.992188
30
49.671223
70
192
0
VERTEX
8
OBJECT070
10
68.397614
20
27.186584
30
59.902027
70
192
0
VERTEX
8
OBJECT070
10
68.618736
20
27.186584
30
59.160294
70
192
0
VERTEX
8
OBJECT070
10
71.453995
20
36.997955
30
49.669796
70
192
0
VERTEX
8
OBJECT070
10
-70.753845
20
37.378662
30
2.346389
70
192
0
VERTEX
8
OBJECT070
10
-73.700325
20
27.186584
30
12.204740
70
192
0
VERTEX
8
OBJECT070
10
0
20
0
30
0
70
128
71
2
72
3
73
-4
0
VERTEX
8
OBJECT070
10
0
20
0
30
0
70
128
71
-2
72
4
73
1
0
VERTEX
8
OBJECT070
10
0
20
0
30
0
70
128
71
6
72
7
73
-8
0
VERTEX
8
OBJECT070
10
0
20
0
30
0
70
128
71
-6
72
8
73
5
0
VERTEX
8
OBJECT070
10
0
20
0
30
0
70
128
71
2
72
7
73
-6
0
VERTEX
8
OBJECT070
10
0
20
0
30
0
70
128
71
-2
72
6
73
3
0
VERTEX
8
OBJECT070
10
0
20
0
30
0
70
128
71
1
72
8
73
-7
0
VERTEX
8
OBJECT070
10
0
20
0
30
0
70
128
71
-1
72
7
73
2
0
VERTEX
8
OBJECT070
10
0
20
0
30
0
70
128
71
5
72
4
73
-3
0
VERTEX
8
OBJECT070
10
0
20
0
30
0
70
128
71
-5
72
3
73
6
0
VERTEX
8
OBJECT070
10
0
20
0
30
0
70
128
71
8
72
1
73
-4
0
VERTEX
8
OBJECT070
10
0
20
0
30
0
70
128
71
-8
72
4
73
5
0
SEQEND
8
OBJECT070
0
POLYLINE
8
OBJECT071
66
1
70
64
71
82
72
159
62
50
0
VERTEX
8
OBJECT071
10
-167.192871
20
7.580475
30
-28.209677
70
192
0
VERTEX
8
OBJECT071
10
-167.089966
20
7.041840
30
-31.958250
70
192
0
VERTEX
8
OBJECT071
10
-164.127045
20
17.354675
30
-31.958250
70
192
0
VERTEX
8
OBJECT071
10
-166.160019
20
11.575836
30
-26.540634
70
192
0
VERTEX
8
OBJECT071
10
-168.000000
20
-1.709503
30
-27.683517
70
192
0
VERTEX
8
OBJECT071
10
-167.898071
20
-2.506012
30
-31.958250
70
192
0
VERTEX
8
OBJECT071
10
-166.338028
20
-19.985718
30
-30.191620
70
192
0
VERTEX
8
OBJECT071
10
-166.419769
20
-18.938110
30
-31.958250
70
192
0
VERTEX
8
OBJECT071
10
-167.821320
20
-3.784424
30
-26.573950
70
192
0
VERTEX
8
OBJECT071
10
-166.530869
20
-18.131958
30
-26.516012
70
192
0
VERTEX
8
OBJECT071
10
-165.541702
20
-22.191406
30
-31.958250
70
192
0
VERTEX
8
OBJECT071
10
-158.612701
20
26.642975
30
-27.394072
70
192
0
VERTEX
8
OBJECT071
10
-160.683960
20
24.100800
30
-31.958250
70
192
0
VERTEX
8
OBJECT071
10
-153.764664
20
32.921173
30
-31.958250
70
192
0
VERTEX
8
OBJECT071
10
-156.023407
20
29.896210
30
-25.190722
70
192
0
VERTEX
8
OBJECT071
10
-164.188629
20
13.852661
30
-21.767210
70
192
0
VERTEX
8
OBJECT071
10
-164.958878
20
-8.813416
30
-17.167730
70
192
0
VERTEX
8
OBJECT071
10
-162.622345
20
14.208984
30
-17.544796
70
192
0
VERTEX
8
OBJECT071
10
-160.685410
20
-2.622803
30
-7.195434
70
192
0
VERTEX
8
OBJECT071
10
-165.034912
20
-18.628845
30
-20.860514
70
192
0
VERTEX
8
OBJECT071
10
-157.339401
20
-36.603638
30
-29.719923
70
192
0
VERTEX
8
OBJECT071
10
-159.172882
20
-34.087524
30
-31.958250
70
192
0
VERTEX
8
OBJECT071
10
-162.611908
20
-21.846985
30
-17.647511
70
192
0
VERTEX
8
OBJECT071
10
-155.519989
20
-38.297913
30
-25.523827
70
192
0
VERTEX
8
OBJECT071
10
-156.534744
20
-37.639038
30
-31.958250
70
192
0
VERTEX
8
OBJECT071
10
-151.804062
20
33.723236
30
-18.956810
70
192
0
VERTEX
8
OBJECT071
10
-144.590424
20
42.551666
30
-31.958250
70
192
0
VERTEX
8
OBJECT071
10
-150.756302
20
34.832733
30
-19.057186
70
192
0
VERTEX
8
OBJECT071
10
-158.029816
20
17.725739
30
-9.592496
70
192
0
VERTEX
8
OBJECT071
10
-160.285156
20
-2.504730
30
-6.429170
70
192
0
VERTEX
8
OBJECT071
10
-157.687683
20
17.019257
30
-8.628891
70
192
0
VERTEX
8
OBJECT071
10
-157.194275
20
-25.850220
30
-9.307027
70
192
0
VERTEX
8
OBJECT071
10
-159.483963
20
-3.795258
30
-5.449678
70
192
0
VERTEX
8
OBJECT071
10
-156.067322
20
-24.384766
30
-6.738659
70
192
0
VERTEX
8
OBJECT071
10
-150.829468
20
-43.070068
30
-20.491756
70
192
0
VERTEX
8
OBJECT071
10
-150.565598
20
-42.813416
30
-19.325228
70
192
0
VERTEX
8
OBJECT071
10
-145.409760
20
-49.790344
30
-31.958250
70
192
0
VERTEX
8
OBJECT071
10
-133.093948
20
49.230927
30
-31.958250
70
192
0
VERTEX
8
OBJECT071
10
-144.636246
20
37.428162
30
-16.060789
70
192
0
VERTEX
8
OBJECT071
10
-145.173996
20
37.186584
30
-16.273169
70
192
0
VERTEX
8
OBJECT071
10
-148.613846
20
17.462708
30
-0.950358
70
192
0
VERTEX
8
OBJECT071
10
-138.422195
20
25.896729
30
0.271578
70
192
0
VERTEX
8
OBJECT071
10
-139.949890
20
21.546539
30
2.965346
70
192
0
VERTEX
8
OBJECT071
10
-151.849304
20
-7.885864
30
2.022651
70
192
0
VERTEX
8
OBJECT071
10
-144.463211
20
-3.234619
30
7.300314
70
192
0
VERTEX
8
OBJECT071
10
-152.655838
20
-23.879456
30
-2.824581
70
192
0
VERTEX
8
OBJECT071
10
-146.567169
20
-43.900330
30
-16.390038
70
192
0
VERTEX
8
OBJECT071
10
-147.547104
20
-27.211609
30
-0.980519
70
192
0
VERTEX
8
OBJECT071
10
-145.114334
20
-44.196167
30
-15.225092
70
192
0
VERTEX
8
OBJECT071
10
-126.891922
20
-55.109985
30
-19.187294
70
192
0
VERTEX
8
OBJECT071
10
-122.064995
20
-60.798645
30
-28.526258
70
192
0
VERTEX
8
OBJECT071
10
-126.526718
20
-59.636902
30
-31.958250
70
192
0
VERTEX
8
OBJECT071
10
-116.220993
20
54.693787
30
-31.958250
70
192
0
VERTEX
8
OBJECT071
10
-117.624687
20
54.100342
30
-28.716974
70
192
0
VERTEX
8
OBJECT071
10
-119.901123
20
53.458954
30
-28.458189
70
192
0
VERTEX
8
OBJECT071
10
-127.873611
20
51.495880
30
-31.958250
70
192
0
VERTEX
8
OBJECT071
10
-126.322311
20
42.145294
30
-8.507583
70
192
0
VERTEX
8
OBJECT071
10
-132.687057
20
39.003235
30
-7.617246
70
192
0
VERTEX
8
OBJECT071
10
-142.940903
20
-3.113617
30
8.157001
70
192
0
VERTEX
8
OBJECT071
10
-138.510361
20
20.186584
30
4.189267
70
192
0
VERTEX
8
OBJECT071
10
-139.224365
20
-29.092712
30
3.003087
70
192
0
VERTEX
8
OBJECT071
10
-141.122650
20
-3.797516
30
8.952779
70
192
0
VERTEX
8
OBJECT071
10
-136.151154
20
-27.813416
30
5.017112
70
192
0
VERTEX
8
OBJECT071
10
-130.441833
20
-49.886353
30
-10.428536
70
192
0
VERTEX
8
OBJECT071
10
-127.673386
20
-47.956055
30
-6.706977
70
192
0
VERTEX
8
OBJECT071
10
-129.888031
20
-49.582520
30
-9.761201
70
192
0
VERTEX
8
OBJECT071
10
-120.124710
20
-61.417175
30
-29.247728
70
192
0
VERTEX
8
OBJECT071
10
-118.896088
20
-61.923523
30
-31.958250
70
192
0
VERTEX
8
OBJECT071
10
-104.463852
20
56.469818
30
-31.958250
70
192
0
VERTEX
8
OBJECT071
10
-107.357971
20
55.412415
30
-26.687967
70
192
0
VERTEX
8
OBJECT071
10
-107.464996
20
55.286621
30
-26.481096
70
192
0
VERTEX
8
OBJECT071
10
-124.139832
20
42.566925
30
-8.360586
70
192
0
VERTEX
8
OBJECT071
10
-127.009552
20
16.428833
30
9.089153
70
192
0
VERTEX
8
OBJECT071
10
-118.537086
20
41.255005
30
-6.333299
70
192
0
VERTEX
8
OBJECT071
10
-129.233597
20
-3.950684
30
13.133570
70
192
0
VERTEX
8
OBJECT071
10
-126.640060
20
-27.766052
30
8.403606
70
192
0
VERTEX
8
OBJECT071
10
-126.610764
20
-27.854919
30
8.350143
70
192
0
VERTEX
8
OBJECT071
10
-125.619171
20
-47.604797
30
-5.725989
70
192
0
VERTEX
8
OBJECT071
10
-105.406181
20
-63.662598
30
-30.276564
70
192
0
VERTEX
8
OBJECT071
10
-117.849594
20
-49.773315
30
-7.611371
70
192
0
VERTEX
8
OBJECT071
10
-104.482788
20
-63.999939
30
-31.958250
70
192
0
VERTEX
8
OBJECT071
10
-118.758835
20
-48.622375
30
-5.955130
70
192
0
VERTEX
8
OBJECT071
10
0
20
0
30
0
70
128
71
2
72
3
73
-4
0
VERTEX
8
OBJECT071
10
0
20
0
30
0
70
128
71
-2
72
4
73
1
0
VERTEX
8
OBJECT071
10
0
20
0
30
0
70
128
71
1
72
5
73
-6
0
VERTEX
8
OBJECT071
10
0
20
0
30
0
70
128
71
-1
72
6
73
2
0
VERTEX
8
OBJECT071
10
0
20
0
30
0
70
128
71
8
72
6
73
-5
0
VERTEX
8
OBJECT071
10
0
20
0
30
0
70
128
71
-8
72
5
73
-9
0
VERTEX
8
OBJECT071
10
0
20
0
30
0
70
128
71
-8
72
9
73
-10
0
VERTEX
8
OBJECT071
10
0
20
0
30
0
70
128
71
-8
72
10
73
7
0
VERTEX
8
OBJECT071
10
0
20
0
30
0
70
128
71
7
72
11
73
8
0
VERTEX
8
OBJECT071
10
0
20
0
30
0
70
128
71
13
72
14
73
-15
0
VERTEX
8
OBJECT071
10
0
20
0
30
0
70
128
71
-13
72
15
73
12
0
VERTEX
8
OBJECT071
10
0
20
0
30
0
70
128
71
4
72
3
73
-13
0
VERTEX
8
OBJECT071
10
0
20
0
30
0
70
128
71
-4
72
13
73
-12
0
VERTEX
8
OBJECT071
10
0
20
0
30
0
70
128
71
-4
72
12
73
16
0
VERTEX
8
OBJECT071
10
0
20
0
30
0
70
128
71
9
72
5
73
-1
0
VERTEX
8
OBJECT071
10
0
20
0
30
0
70
128
71
-9
72
1
73
-4
0
VERTEX
8
OBJECT071
10
0
20
0
30
0
70
128
71
-9
72
4
73
-16
0
VERTEX
8
OBJECT071
10
0
20
0
30
0
70
128
71
-9
72
16
73
-18
0
VERTEX
8
OBJECT071
10
0
20
0
30
0
70
128
71
-9
72
18
73
-19
0
VERTEX
8
OBJECT071
10
0
20
0
30
0
70
128
71
-9
72
19
73
17
0
VERTEX
8
OBJECT071
10
0
20
0
30
0
70
128
71
9
72
17
73
-20
0
VERTEX
8
OBJECT071
10
0
20
0
30
0
70
128
71
-9
72
20
73
10
0
VERTEX
8
OBJECT071
10
0
20
0
30
0
70
128
71
22
72
11
73
-7
0
VERTEX
8
OBJECT071
10
0
20
0
30
0
70
128
71
-22
72
7
73
-10
0
VERTEX
8
OBJECT071
10
0
20
0
30
0
70
128
71
-22
72
10
73
-20
0
VERTEX
8
OBJECT071
10
0
20
0
30
0
70
128
71
-22
72
20
73
-23
0
VERTEX
8
OBJECT071
10
0
20
0
30
0
70
128
71
-22
72
23
73
-24
0
VERTEX
8
OBJECT071
10
0
20
0
30
0
70
128
71
-22
72
24
73
21
0
VERTEX
8
OBJECT071
10
0
20
0
30
0
70
128
71
21
72
25
73
22
0
VERTEX
8
OBJECT071
10
0
20
0
30
0
70
128
71
15
72
14
73
-27
0
VERTEX
8
OBJECT071
10
0
20
0
30
0
70
128
71
-15
72
27
73
-28
0
VERTEX
8
OBJECT071
10
0
20
0
30
0
70
128
71
-15
72
28
73
26
0
VERTEX
8
OBJECT071
10
0
20
0
30
0
70
128
71
18
72
16
73
-12
0
VERTEX
8
OBJECT071
10
0
20
0
30
0
70
128
71
-18
72
12
73
-15
0
VERTEX
8
OBJECT071
10
0
20
0
30
0
70
128
71
-18
72
15
73
-26
0
VERTEX
8
OBJECT071
10
0
20
0
30
0
70
128
71
-18
72
26
73
29
0
VERTEX
8
OBJECT071
10
0
20
0
30
0
70
128
71
19
72
18
73
-29
0
VERTEX
8
OBJECT071
10
0
20
0
30
0
70
128
71
-19
72
29
73
-31
0
VERTEX
8
OBJECT071
10
0
20
0
30
0
70
128
71
-19
72
31
73
30
0
VERTEX
8
OBJECT071
10
0
20
0
30
0
70
128
71
23
72
20
73
-17
0
VERTEX
8
OBJECT071
10
0
20
0
30
0
70
128
71
-23
72
17
73
-19
0
VERTEX
8
OBJECT071
10
0
20
0
30
0
70
128
71
-23
72
19
73
-30
0
VERTEX
8
OBJECT071
10
0
20
0
30
0
70
128
71
-23
72
30
73
-33
0
VERTEX
8
OBJECT071
10
0
20
0
30
0
70
128
71
-23
72
33
73
-34
0
VERTEX
8
OBJECT071
10
0
20
0
30
0
70
128
71
-23
72
34
73
32
0
VERTEX
8
OBJECT071
10
0
20
0
30
0
70
128
71
24
72
23
73
-32
0
VERTEX
8
OBJECT071
10
0
20
0
30
0
70
128
71
-24
72
32
73
-36
0
VERTEX
8
OBJECT071
10
0
20
0
30
0
70
128
71
-24
72
36
73
35
0
VERTEX
8
OBJECT071
10
0
20
0
30
0
70
128
71
21
72
24
73
-35
0
VERTEX
8
OBJECT071
10
0
20
0
30
0
70
128
71
-21
72
35
73
-37
0
VERTEX
8
OBJECT071
10
0
20
0
30
0
70
128
71
-21
72
37
73
25
0
VERTEX
8
OBJECT071
10
0
20
0
30
0
70
128
71
27
72
38
73
-39
0
VERTEX
8
OBJECT071
10
0
20
0
30
0
70
128
71
-27
72
39
73
-40
0
VERTEX
8
OBJECT071
10
0
20
0
30
0
70
128
71
-27
72
40
73
28
0
VERTEX
8
OBJECT071
10
0
20
0
30
0
70
128
71
31
72
29
73
-26
0
VERTEX
8
OBJECT071
10
0
20
0
30
0
70
128
71
-31
72
26
73
-28
0
VERTEX
8
OBJECT071
10
0
20
0
30
0
70
128
71
-31
72
28
73
-40
0
VERTEX
8
OBJECT071
10
0
20
0
30
0
70
128
71
-31
72
40
73
-42
0
VERTEX
8
OBJECT071
10
0
20
0
30
0
70
128
71
-31
72
42
73
-43
0
VERTEX
8
OBJECT071
10
0
20
0
30
0
70
128
71
-31
72
43
73
41
0
VERTEX
8
OBJECT071
10
0
20
0
30
0
70
128
71
33
72
30
73
-31
0
VERTEX
8
OBJECT071
10
0
20
0
30
0
70
128
71
-33
72
31
73
-41
0
VERTEX
8
OBJECT071
10
0
20
0
30
0
70
128
71
-33
72
41
73
-45
0
VERTEX
8
OBJECT071
10
0
20
0
30
0
70
128
71
-33
72
45
73
44
0
VERTEX
8
OBJECT071
10
0
20
0
30
0
70
128
71
33
72
44
73
-46
0
VERTEX
8
OBJECT071
10
0
20
0
30
0
70
128
71
-33
72
46
73
34
0
VERTEX
8
OBJECT071
10
0
20
0
30
0
70
128
71
36
72
32
73
-34
0
VERTEX
8
OBJECT071
10
0
20
0
30
0
70
128
71
-36
72
34
73
-46
0
VERTEX
8
OBJECT071
10
0
20
0
30
0
70
128
71
-36
72
46
73
-48
0
VERTEX
8
OBJECT071
10
0
20
0
30
0
70
128
71
-36
72
48
73
-49
0
VERTEX
8
OBJECT071
10
0
20
0
30
0
70
128
71
-36
72
49
73
47
0
VERTEX
8
OBJECT071
10
0
20
0
30
0
70
128
71
35
72
36
73
-47
0
VERTEX
8
OBJECT071
10
0
20
0
30
0
70
128
71
-35
72
47
73
-50
0
VERTEX
8
OBJECT071
10
0
20
0
30
0
70
128
71
-35
72
50
73
-51
0
VERTEX
8
OBJECT071
10
0
20
0
30
0
70
128
71
-35
72
51
73
-52
0
VERTEX
8
OBJECT071
10
0
20
0
30
0
70
128
71
-35
72
52
73
37
0
VERTEX
8
OBJECT071
10
0
20
0
30
0
70
128
71
54
72
55
73
-56
0
VERTEX
8
OBJECT071
10
0
20
0
30
0
70
128
71
-54
72
56
73
53
0
VERTEX
8
OBJECT071
10
0
20
0
30
0
70
128
71
38
72
56
73
-55
0
VERTEX
8
OBJECT071
10
0
20
0
30
0
70
128
71
-38
72
55
73
-57
0
VERTEX
8
OBJECT071
10
0
20
0
30
0
70
128
71
-38
72
57
73
-58
0
VERTEX
8
OBJECT071
10
0
20
0
30
0
70
128
71
-38
72
58
73
39
0
VERTEX
8
OBJECT071
10
0
20
0
30
0
70
128
71
40
72
39
73
-58
0
VERTEX
8
OBJECT071
10
0
20
0
30
0
70
128
71
-40
72
58
73
42
0
VERTEX
8
OBJECT071
10
0
20
0
30
0
70
128
71
45
72
41
73
-43
0
VERTEX
8
OBJECT071
10
0
20
0
30
0
70
128
71
-45
72
43
73
-60
0
VERTEX
8
OBJECT071
10
0
20
0
30
0
70
128
71
-45
72
60
73
59
0
VERTEX
8
OBJECT071
10
0
20
0
30
0
70
128
71
48
72
46
73
-44
0
VERTEX
8
OBJECT071
10
0
20
0
30
0
70
128
71
-48
72
44
73
-45
0
VERTEX
8
OBJECT071
10
0
20
0
30
0
70
128
71
-48
72
45
73
-59
0
VERTEX
8
OBJECT071
10
0
20
0
30
0
70
128
71
-48
72
59
73
-62
0
VERTEX
8
OBJECT071
10
0
20
0
30
0
70
128
71
-48
72
62
73
-63
0
VERTEX
8
OBJECT071
10
0
20
0
30
0
70
128
71
-48
72
63
73
61
0
VERTEX
8
OBJECT071
10
0
20
0
30
0
70
128
71
49
72
48
73
-61
0
VERTEX
8
OBJECT071
10
0
20
0
30
0
70
128
71
-49
72
61
73
-65
0
VERTEX
8
OBJECT071
10
0
20
0
30
0
70
128
71
-49
72
65
73
-66
0
VERTEX
8
OBJECT071
10
0
20
0
30
0
70
128
71
-49
72
66
73
64
0
VERTEX
8
OBJECT071
10
0
20
0
30
0
70
128
71
47
72
49
73
-64
0
VERTEX
8
OBJECT071
10
0
20
0
30
0
70
128
71
-47
72
64
73
50
0
VERTEX
8
OBJECT071
10
0
20
0
30
0
70
128
71
51
72
67
73
-68
0
VERTEX
8
OBJECT071
10
0
20
0
30
0
70
128
71
-51
72
68
73
52
0
VERTEX
8
OBJECT071
10
0
20
0
30
0
70
128
71
53
72
69
73
-70
0
VERTEX
8
OBJECT071
10
0
20
0
30
0
70
128
71
-53
72
70
73
54
0
VERTEX
8
OBJECT071
10
0
20
0
30
0
70
128
71
55
72
54
73
-70
0
VERTEX
8
OBJECT071
10
0
20
0
30
0
70
128
71
-55
72
70
73
-71
0
VERTEX
8
OBJECT071
10
0
20
0
30
0
70
128
71
-55
72
71
73
-72
0
VERTEX
8
OBJECT071
10
0
20
0
30
0
70
128
71
-55
72
72
73
57
0
VERTEX
8
OBJECT071
10
0
20
0
30
0
70
128
71
60
72
43
73
-42
0
VERTEX
8
OBJECT071
10
0
20
0
30
0
70
128
71
-60
72
42
73
-58
0
VERTEX
8
OBJECT071
10
0
20
0
30
0
70
128
71
-60
72
58
73
-57
0
VERTEX
8
OBJECT071
10
0
20
0
30
0
70
128
71
-60
72
57
73
-72
0
VERTEX
8
OBJECT071
10
0
20
0
30
0
70
128
71
-60
72
72
73
-74
0
VERTEX
8
OBJECT071
10
0
20
0
30
0
70
128
71
-60
72
74
73
73
0
VERTEX
8
OBJECT071
10
0
20
0
30
0
70
128
71
59
72
60
73
-73
0
VERTEX
8
OBJECT071
10
0
20
0
30
0
70
128
71
-59
72
73
73
-75
0
VERTEX
8
OBJECT071
10
0
20
0
30
0
70
128
71
-59
72
75
73
62
0
VERTEX
8
OBJECT071
10
0
20
0
30
0
70
128
71
62
72
75
73
-76
0
VERTEX
8
OBJECT071
10
0
20
0
30
0
70
128
71
-62
72
76
73
63
0
VERTEX
8
OBJECT071
10
0
20
0
30
0
70
128
71
61
72
63
73
-76
0
VERTEX
8
OBJECT071
10
0
20
0
30
0
70
128
71
-61
72
76
73
-77
0
VERTEX
8
OBJECT071
10
0
20
0
30
0
70
128
71
-61
72
77
73
-78
0
VERTEX
8
OBJECT071
10
0
20
0
30
0
70
128
71
-61
72
78
73
65
0
VERTEX
8
OBJECT071
10
0
20
0
30
0
70
128
71
67
72
51
73
-50
0
VERTEX
8
OBJECT071
10
0
20
0
30
0
70
128
71
-67
72
50
73
-64
0
VERTEX
8
OBJECT071
10
0
20
0
30
0
70
128
71
-67
72
64
73
-66
0
VERTEX
8
OBJECT071
10
0
20
0
30
0
70
128
71
-67
72
66
73
-80
0
VERTEX
8
OBJECT071
10
0
20
0
30
0
70
128
71
-67
72
80
73
79
0
VERTEX
8
OBJECT071
10
0
20
0
30
0
70
128
71
67
72
79
73
-81
0
VERTEX
8
OBJECT071
10
0
20
0
30
0
70
128
71
-67
72
81
73
68
0
VERTEX
8
OBJECT071
10
0
20
0
30
0
70
128
71
71
72
74
73
72
0
VERTEX
8
OBJECT071
10
0
20
0
30
0
70
128
71
78
72
77
73
82
0
VERTEX
8
OBJECT071
10
0
20
0
30
0
70
128
71
66
72
65
73
-78
0
VERTEX
8
OBJECT071
10
0
20
0
30
0
70
128
71
-66
72
78
73
-82
0
VERTEX
8
OBJECT071
10
0
20
0
30
0
70
128
71
-66
72
82
73
80
0
VERTEX
8
OBJECT071
10
0
20
0
30
0
70
128
71
79
72
80
73
-82
0
VERTEX
8
OBJECT071
10
0
20
0
30
0
70
128
71
-79
72
82
73
-76
0
VERTEX
8
OBJECT071
10
0
20
0
30
0
70
128
71
-79
72
76
73
-75
0
VERTEX
8
OBJECT071
10
0
20
0
30
0
70
128
71
-79
72
75
73
-73
0
VERTEX
8
OBJECT071
10
0
20
0
30
0
70
128
71
-79
72
73
73
-74
0
VERTEX
8
OBJECT071
10
0
20
0
30
0
70
128
71
-79
72
74
73
-71
0
VERTEX
8
OBJECT071
10
0
20
0
30
0
70
128
71
-79
72
71
73
-70
0
VERTEX
8
OBJECT071
10
0
20
0
30
0
70
128
71
-79
72
70
73
-69
0
VERTEX
8
OBJECT071
10
0
20
0
30
0
70
128
71
-79
72
69
73
81
0
VERTEX
8
OBJECT071
10
0
20
0
30
0
70
128
71
53
72
56
73
-38
0
VERTEX
8
OBJECT071
10
0
20
0
30
0
70
128
71
-53
72
38
73
-27
0
VERTEX
8
OBJECT071
10
0
20
0
30
0
70
128
71
-53
72
27
73
-14
0
VERTEX
8
OBJECT071
10
0
20
0
30
0
70
128
71
-53
72
14
73
-13
0
VERTEX
8
OBJECT071
10
0
20
0
30
0
70
128
71
-53
72
13
73
-3
0
VERTEX
8
OBJECT071
10
0
20
0
30
0
70
128
71
-53
72
3
73
-2
0
VERTEX
8
OBJECT071
10
0
20
0
30
0
70
128
71
-53
72
2
73
-6
0
VERTEX
8
OBJECT071
10
0
20
0
30
0
70
128
71
-53
72
6
73
-8
0
VERTEX
8
OBJECT071
10
0
20
0
30
0
70
128
71
-53
72
8
73
-11
0
VERTEX
8
OBJECT071
10
0
20
0
30
0
70
128
71
-53
72
11
73
-22
0
VERTEX
8
OBJECT071
10
0
20
0
30
0
70
128
71
-53
72
22
73
-25
0
VERTEX
8
OBJECT071
10
0
20
0
30
0
70
128
71
-53
72
25
73
-37
0
VERTEX
8
OBJECT071
10
0
20
0
30
0
70
128
71
-53
72
37
73
-52
0
VERTEX
8
OBJECT071
10
0
20
0
30
0
70
128
71
-53
72
52
73
-68
0
VERTEX
8
OBJECT071
10
0
20
0
30
0
70
128
71
-53
72
68
73
-81
0
VERTEX
8
OBJECT071
10
0
20
0
30
0
70
128
71
-53
72
81
73
69
0
SEQEND
8
OBJECT071
0
ENDSEC
0
EOF
