0
SECTION
2
HEADER
9
$ACADVER
1
AC1008
9
$UCSORG
10
0.0
20
0.0
30
0.0
9
$UCSXDIR
10
1.0
20
0.0
30
0.0
9
$TILEMODE
70
1
9
$UCSYDIR
10
0.0
20
1.0
30
0.0
9
$EXTMIN
10
-67.602036
20
-40.000122
30
-58.909088
9
$EXTMAX
10
28.397968
20
31.999878
30
37.090908
0
ENDSEC
0
SECTION
2
TABLES
0
TABLE
2
LTYPE
70
1
0
LTYPE
2
CONTINUOUS
70
64
3
Solid line
72
65
73
0
40
0.0
0
ENDTAB
0
TABLE
2
LAYER
70
1
0
LAYER
2
0
70
0
62
7
6
CONTINUOUS
0
ENDTAB
0
TABLE
2
STYLE
70
1
0
STYLE
2
STANDARD
70
0
40
0.0
41
1.0
50
0.0
71
0
42
0.2
3
txt
4

0
ENDTAB
0
TABLE
2
UCS
70
0
0
ENDTAB
0
ENDSEC
0
SECTION
2
ENTITIES
0
POLYLINE
8
OBJECT000
66
1
70
64
71
6
72
8
62
50
0
VERTEX
8
OBJECT000
10
18.779694
20
12.799878
30
2.181816
70
192
0
VERTEX
8
OBJECT000
10
13.970556
20
12.799878
30
2.181816
70
192
0
VERTEX
8
OBJECT000
10
13.970556
20
-20.800125
30
2.181816
70
192
0
VERTEX
8
OBJECT000
10
18.779694
20
-20.800125
30
2.181816
70
192
0
VERTEX
8
OBJECT000
10
13.970556
20
-20.800125
30
6.545452
70
192
0
VERTEX
8
OBJECT000
10
13.970556
20
12.799878
30
6.545452
70
192
0
VERTEX
8
OBJECT000
10
0
20
0
30
0
70
128
71
2
72
3
73
-4
0
VERTEX
8
OBJECT000
10
0
20
0
30
0
70
128
71
-2
72
4
73
1
0
VERTEX
8
OBJECT000
10
0
20
0
30
0
70
128
71
3
72
2
73
-6
0
VERTEX
8
OBJECT000
10
0
20
0
30
0
70
128
71
-3
72
6
73
5
0
VERTEX
8
OBJECT000
10
0
20
0
30
0
70
128
71
2
72
1
73
6
0
VERTEX
8
OBJECT000
10
0
20
0
30
0
70
128
71
3
72
5
73
4
0
VERTEX
8
OBJECT000
10
0
20
0
30
0
70
128
71
4
72
5
73
-6
0
VERTEX
8
OBJECT000
10
0
20
0
30
0
70
128
71
-4
72
6
73
1
0
SEQEND
8
OBJECT000
0
POLYLINE
8
OBJECT001
66
1
70
64
71
8
72
12
62
50
0
VERTEX
8
OBJECT001
10
11.565987
20
-20.800125
30
-0.000004
70
192
0
VERTEX
8
OBJECT001
10
1.947712
20
-20.800125
30
-28.363636
70
192
0
VERTEX
8
OBJECT001
10
-2.861425
20
-20.800125
30
-26.181820
70
192
0
VERTEX
8
OBJECT001
10
6.756850
20
-20.800125
30
2.181816
70
192
0
VERTEX
8
OBJECT001
10
6.756850
20
12.799878
30
2.181816
70
192
0
VERTEX
8
OBJECT001
10
-2.861425
20
12.799878
30
-26.181820
70
192
0
VERTEX
8
OBJECT001
10
1.947712
20
12.799878
30
-28.363636
70
192
0
VERTEX
8
OBJECT001
10
11.565987
20
12.799878
30
-0.000004
70
192
0
VERTEX
8
OBJECT001
10
0
20
0
30
0
70
128
71
2
72
3
73
-4
0
VERTEX
8
OBJECT001
10
0
20
0
30
0
70
128
71
-2
72
4
73
1
0
VERTEX
8
OBJECT001
10
0
20
0
30
0
70
128
71
6
72
7
73
-8
0
VERTEX
8
OBJECT001
10
0
20
0
30
0
70
128
71
-6
72
8
73
5
0
VERTEX
8
OBJECT001
10
0
20
0
30
0
70
128
71
6
72
3
73
-2
0
VERTEX
8
OBJECT001
10
0
20
0
30
0
70
128
71
-6
72
2
73
7
0
VERTEX
8
OBJECT001
10
0
20
0
30
0
70
128
71
3
72
6
73
-5
0
VERTEX
8
OBJECT001
10
0
20
0
30
0
70
128
71
-3
72
5
73
4
0
VERTEX
8
OBJECT001
10
0
20
0
30
0
70
128
71
7
72
2
73
-1
0
VERTEX
8
OBJECT001
10
0
20
0
30
0
70
128
71
-7
72
1
73
8
0
VERTEX
8
OBJECT001
10
0
20
0
30
0
70
128
71
4
72
5
73
-8
0
VERTEX
8
OBJECT001
10
0
20
0
30
0
70
128
71
-4
72
8
73
1
0
SEQEND
8
OBJECT001
0
POLYLINE
8
OBJECT002
66
1
70
64
71
8
72
12
62
50
0
VERTEX
8
OBJECT002
10
1.947712
20
-8.800125
30
-28.363636
70
192
0
VERTEX
8
OBJECT002
10
0.745428
20
-8.800125
30
-32.727276
70
192
0
VERTEX
8
OBJECT002
10
-1.659142
20
-8.800125
30
-32.727276
70
192
0
VERTEX
8
OBJECT002
10
-0.456856
20
-8.800125
30
-27.272732
70
192
0
VERTEX
8
OBJECT002
10
-0.456856
20
0.799877
30
-27.272732
70
192
0
VERTEX
8
OBJECT002
10
-1.659142
20
0.799877
30
-32.727276
70
192
0
VERTEX
8
OBJECT002
10
0.745428
20
0.799877
30
-32.727276
70
192
0
VERTEX
8
OBJECT002
10
1.947712
20
0.799877
30
-28.363636
70
192
0
VERTEX
8
OBJECT002
10
0
20
0
30
0
70
128
71
2
72
3
73
-4
0
VERTEX
8
OBJECT002
10
0
20
0
30
0
70
128
71
-2
72
4
73
1
0
VERTEX
8
OBJECT002
10
0
20
0
30
0
70
128
71
6
72
7
73
-8
0
VERTEX
8
OBJECT002
10
0
20
0
30
0
70
128
71
-6
72
8
73
5
0
VERTEX
8
OBJECT002
10
0
20
0
30
0
70
128
71
6
72
3
73
-2
0
VERTEX
8
OBJECT002
10
0
20
0
30
0
70
128
71
-6
72
2
73
7
0
VERTEX
8
OBJECT002
10
0
20
0
30
0
70
128
71
3
72
6
73
-5
0
VERTEX
8
OBJECT002
10
0
20
0
30
0
70
128
71
-3
72
5
73
4
0
VERTEX
8
OBJECT002
10
0
20
0
30
0
70
128
71
7
72
2
73
-1
0
VERTEX
8
OBJECT002
10
0
20
0
30
0
70
128
71
-7
72
1
73
8
0
VERTEX
8
OBJECT002
10
0
20
0
30
0
70
128
71
4
72
5
73
-8
0
VERTEX
8
OBJECT002
10
0
20
0
30
0
70
128
71
-4
72
8
73
1
0
SEQEND
8
OBJECT002
0
POLYLINE
8
OBJECT003
66
1
70
64
71
8
72
12
62
50
0
VERTEX
8
OBJECT003
10
1.947712
20
12.799878
30
-32.727276
70
192
0
VERTEX
8
OBJECT003
10
1.947712
20
12.799878
30
-37.090916
70
192
0
VERTEX
8
OBJECT003
10
1.947712
20
-20.800125
30
-37.090916
70
192
0
VERTEX
8
OBJECT003
10
1.947712
20
-20.800125
30
-32.727276
70
192
0
VERTEX
8
OBJECT003
10
-26.907112
20
-20.800125
30
-37.090916
70
192
0
VERTEX
8
OBJECT003
10
-29.311680
20
-20.800125
30
-32.727276
70
192
0
VERTEX
8
OBJECT003
10
-26.907112
20
12.799878
30
-37.090916
70
192
0
VERTEX
8
OBJECT003
10
-29.311680
20
12.799878
30
-32.727276
70
192
0
VERTEX
8
OBJECT003
10
0
20
0
30
0
70
128
71
2
72
3
73
-4
0
VERTEX
8
OBJECT003
10
0
20
0
30
0
70
128
71
-2
72
4
73
1
0
VERTEX
8
OBJECT003
10
0
20
0
30
0
70
128
71
3
72
5
73
-6
0
VERTEX
8
OBJECT003
10
0
20
0
30
0
70
128
71
-3
72
6
73
4
0
VERTEX
8
OBJECT003
10
0
20
0
30
0
70
128
71
2
72
1
73
-8
0
VERTEX
8
OBJECT003
10
0
20
0
30
0
70
128
71
-2
72
8
73
7
0
VERTEX
8
OBJECT003
10
0
20
0
30
0
70
128
71
3
72
2
73
-7
0
VERTEX
8
OBJECT003
10
0
20
0
30
0
70
128
71
-3
72
7
73
5
0
VERTEX
8
OBJECT003
10
0
20
0
30
0
70
128
71
1
72
4
73
-6
0
VERTEX
8
OBJECT003
10
0
20
0
30
0
70
128
71
-1
72
6
73
8
0
VERTEX
8
OBJECT003
10
0
20
0
30
0
70
128
71
5
72
7
73
-8
0
VERTEX
8
OBJECT003
10
0
20
0
30
0
70
128
71
-5
72
8
73
6
0
SEQEND
8
OBJECT003
0
POLYLINE
8
OBJECT004
66
1
70
64
71
8
72
12
62
50
0
VERTEX
8
OBJECT004
10
-12.479698
20
12.799878
30
-24.000000
70
192
0
VERTEX
8
OBJECT004
10
-12.479698
20
12.799878
30
-37.090916
70
192
0
VERTEX
8
OBJECT004
10
-12.479698
20
15.199879
30
-34.909092
70
192
0
VERTEX
8
OBJECT004
10
-12.479698
20
15.199879
30
-24.000000
70
192
0
VERTEX
8
OBJECT004
10
-10.075129
20
15.199879
30
-24.000000
70
192
0
VERTEX
8
OBJECT004
10
-10.075129
20
15.199879
30
-34.909092
70
192
0
VERTEX
8
OBJECT004
10
-10.075129
20
12.799878
30
-37.090916
70
192
0
VERTEX
8
OBJECT004
10
-10.075129
20
12.799878
30
-24.000000
70
192
0
VERTEX
8
OBJECT004
10
0
20
0
30
0
70
128
71
2
72
3
73
-4
0
VERTEX
8
OBJECT004
10
0
20
0
30
0
70
128
71
-2
72
4
73
1
0
VERTEX
8
OBJECT004
10
0
20
0
30
0
70
128
71
6
72
7
73
-8
0
VERTEX
8
OBJECT004
10
0
20
0
30
0
70
128
71
-6
72
8
73
5
0
VERTEX
8
OBJECT004
10
0
20
0
30
0
70
128
71
7
72
2
73
-1
0
VERTEX
8
OBJECT004
10
0
20
0
30
0
70
128
71
-7
72
1
73
8
0
VERTEX
8
OBJECT004
10
0
20
0
30
0
70
128
71
3
72
6
73
-5
0
VERTEX
8
OBJECT004
10
0
20
0
30
0
70
128
71
-3
72
5
73
4
0
VERTEX
8
OBJECT004
10
0
20
0
30
0
70
128
71
4
72
5
73
-8
0
VERTEX
8
OBJECT004
10
0
20
0
30
0
70
128
71
-4
72
8
73
1
0
VERTEX
8
OBJECT004
10
0
20
0
30
0
70
128
71
2
72
7
73
-6
0
VERTEX
8
OBJECT004
10
0
20
0
30
0
70
128
71
-2
72
6
73
3
0
SEQEND
8
OBJECT004
0
POLYLINE
8
OBJECT005
66
1
70
64
71
8
72
12
62
50
0
VERTEX
8
OBJECT005
10
1.947712
20
17.599878
30
-21.818184
70
192
0
VERTEX
8
OBJECT005
10
1.947712
20
17.599878
30
-24.000000
70
192
0
VERTEX
8
OBJECT005
10
1.947712
20
12.799878
30
-24.000000
70
192
0
VERTEX
8
OBJECT005
10
1.947712
20
12.799878
30
-21.818184
70
192
0
VERTEX
8
OBJECT005
10
-22.097973
20
12.799878
30
-24.000000
70
192
0
VERTEX
8
OBJECT005
10
-22.097973
20
12.799878
30
-21.818184
70
192
0
VERTEX
8
OBJECT005
10
-19.693405
20
17.599878
30
-24.000000
70
192
0
VERTEX
8
OBJECT005
10
-19.693405
20
17.599878
30
-21.818184
70
192
0
VERTEX
8
OBJECT005
10
0
20
0
30
0
70
128
71
2
72
3
73
-4
0
VERTEX
8
OBJECT005
10
0
20
0
30
0
70
128
71
-2
72
4
73
1
0
VERTEX
8
OBJECT005
10
0
20
0
30
0
70
128
71
3
72
5
73
-6
0
VERTEX
8
OBJECT005
10
0
20
0
30
0
70
128
71
-3
72
6
73
4
0
VERTEX
8
OBJECT005
10
0
20
0
30
0
70
128
71
2
72
1
73
-8
0
VERTEX
8
OBJECT005
10
0
20
0
30
0
70
128
71
-2
72
8
73
7
0
VERTEX
8
OBJECT005
10
0
20
0
30
0
70
128
71
3
72
2
73
-7
0
VERTEX
8
OBJECT005
10
0
20
0
30
0
70
128
71
-3
72
7
73
5
0
VERTEX
8
OBJECT005
10
0
20
0
30
0
70
128
71
1
72
4
73
-6
0
VERTEX
8
OBJECT005
10
0
20
0
30
0
70
128
71
-1
72
6
73
8
0
VERTEX
8
OBJECT005
10
0
20
0
30
0
70
128
71
5
72
7
73
-8
0
VERTEX
8
OBJECT005
10
0
20
0
30
0
70
128
71
-5
72
8
73
6
0
SEQEND
8
OBJECT005
0
POLYLINE
8
OBJECT006
66
1
70
64
71
8
72
12
62
50
0
VERTEX
8
OBJECT006
10
1.947712
20
-20.800125
30
-21.818184
70
192
0
VERTEX
8
OBJECT006
10
1.947712
20
-20.800125
30
-24.000000
70
192
0
VERTEX
8
OBJECT006
10
1.947712
20
-25.600124
30
-24.000000
70
192
0
VERTEX
8
OBJECT006
10
1.947712
20
-25.600124
30
-21.818184
70
192
0
VERTEX
8
OBJECT006
10
-19.693405
20
-25.600124
30
-24.000000
70
192
0
VERTEX
8
OBJECT006
10
-19.693405
20
-25.600124
30
-21.818184
70
192
0
VERTEX
8
OBJECT006
10
-22.097973
20
-20.800125
30
-24.000000
70
192
0
VERTEX
8
OBJECT006
10
-22.097973
20
-20.800125
30
-21.818184
70
192
0
VERTEX
8
OBJECT006
10
0
20
0
30
0
70
128
71
2
72
3
73
-4
0
VERTEX
8
OBJECT006
10
0
20
0
30
0
70
128
71
-2
72
4
73
1
0
VERTEX
8
OBJECT006
10
0
20
0
30
0
70
128
71
3
72
5
73
-6
0
VERTEX
8
OBJECT006
10
0
20
0
30
0
70
128
71
-3
72
6
73
4
0
VERTEX
8
OBJECT006
10
0
20
0
30
0
70
128
71
2
72
1
73
-8
0
VERTEX
8
OBJECT006
10
0
20
0
30
0
70
128
71
-2
72
8
73
7
0
VERTEX
8
OBJECT006
10
0
20
0
30
0
70
128
71
3
72
2
73
-7
0
VERTEX
8
OBJECT006
10
0
20
0
30
0
70
128
71
-3
72
7
73
5
0
VERTEX
8
OBJECT006
10
0
20
0
30
0
70
128
71
1
72
4
73
-6
0
VERTEX
8
OBJECT006
10
0
20
0
30
0
70
128
71
-1
72
6
73
8
0
VERTEX
8
OBJECT006
10
0
20
0
30
0
70
128
71
5
72
7
73
-8
0
VERTEX
8
OBJECT006
10
0
20
0
30
0
70
128
71
-5
72
8
73
6
0
SEQEND
8
OBJECT006
0
POLYLINE
8
OBJECT007
66
1
70
64
71
8
72
12
62
50
0
VERTEX
8
OBJECT007
10
-12.479698
20
-23.200123
30
-24.000000
70
192
0
VERTEX
8
OBJECT007
10
-12.479698
20
-23.200123
30
-32.748550
70
192
0
VERTEX
8
OBJECT007
10
-12.479698
20
-20.800125
30
-37.112202
70
192
0
VERTEX
8
OBJECT007
10
-12.479698
20
-20.800125
30
-24.000000
70
192
0
VERTEX
8
OBJECT007
10
-10.075129
20
-20.800125
30
-24.000000
70
192
0
VERTEX
8
OBJECT007
10
-10.075129
20
-20.800125
30
-37.112202
70
192
0
VERTEX
8
OBJECT007
10
-10.075129
20
-23.200123
30
-32.748550
70
192
0
VERTEX
8
OBJECT007
10
-10.075129
20
-23.200123
30
-24.000000
70
192
0
VERTEX
8
OBJECT007
10
0
20
0
30
0
70
128
71
2
72
3
73
-4
0
VERTEX
8
OBJECT007
10
0
20
0
30
0
70
128
71
-2
72
4
73
1
0
VERTEX
8
OBJECT007
10
0
20
0
30
0
70
128
71
6
72
7
73
-8
0
VERTEX
8
OBJECT007
10
0
20
0
30
0
70
128
71
-6
72
8
73
5
0
VERTEX
8
OBJECT007
10
0
20
0
30
0
70
128
71
7
72
2
73
-1
0
VERTEX
8
OBJECT007
10
0
20
0
30
0
70
128
71
-7
72
1
73
8
0
VERTEX
8
OBJECT007
10
0
20
0
30
0
70
128
71
3
72
6
73
-5
0
VERTEX
8
OBJECT007
10
0
20
0
30
0
70
128
71
-3
72
5
73
4
0
VERTEX
8
OBJECT007
10
0
20
0
30
0
70
128
71
4
72
5
73
-8
0
VERTEX
8
OBJECT007
10
0
20
0
30
0
70
128
71
-4
72
8
73
1
0
VERTEX
8
OBJECT007
10
0
20
0
30
0
70
128
71
6
72
3
73
-2
0
VERTEX
8
OBJECT007
10
0
20
0
30
0
70
128
71
-6
72
2
73
7
0
SEQEND
8
OBJECT007
0
POLYLINE
8
OBJECT008
66
1
70
64
71
8
72
12
62
50
0
VERTEX
8
OBJECT008
10
-14.884270
20
-6.400124
30
-37.090916
70
192
0
VERTEX
8
OBJECT008
10
-14.884270
20
-6.400124
30
-56.727280
70
192
0
VERTEX
8
OBJECT008
10
-14.884270
20
-1.600122
30
-56.727280
70
192
0
VERTEX
8
OBJECT008
10
-14.884270
20
-1.600122
30
-37.090916
70
192
0
VERTEX
8
OBJECT008
10
-10.075129
20
-1.600122
30
-37.090916
70
192
0
VERTEX
8
OBJECT008
10
-10.075129
20
-1.600122
30
-56.727280
70
192
0
VERTEX
8
OBJECT008
10
-10.075129
20
-6.400124
30
-56.727280
70
192
0
VERTEX
8
OBJECT008
10
-10.075129
20
-6.400124
30
-37.090916
70
192
0
VERTEX
8
OBJECT008
10
0
20
0
30
0
70
128
71
2
72
3
73
-4
0
VERTEX
8
OBJECT008
10
0
20
0
30
0
70
128
71
-2
72
4
73
1
0
VERTEX
8
OBJECT008
10
0
20
0
30
0
70
128
71
6
72
7
73
-8
0
VERTEX
8
OBJECT008
10
0
20
0
30
0
70
128
71
-6
72
8
73
5
0
VERTEX
8
OBJECT008
10
0
20
0
30
0
70
128
71
7
72
2
73
-1
0
VERTEX
8
OBJECT008
10
0
20
0
30
0
70
128
71
-7
72
1
73
8
0
VERTEX
8
OBJECT008
10
0
20
0
30
0
70
128
71
3
72
6
73
-5
0
VERTEX
8
OBJECT008
10
0
20
0
30
0
70
128
71
-3
72
5
73
4
0
VERTEX
8
OBJECT008
10
0
20
0
30
0
70
128
71
2
72
7
73
-6
0
VERTEX
8
OBJECT008
10
0
20
0
30
0
70
128
71
-2
72
6
73
3
0
VERTEX
8
OBJECT008
10
0
20
0
30
0
70
128
71
4
72
5
73
-8
0
VERTEX
8
OBJECT008
10
0
20
0
30
0
70
128
71
-4
72
8
73
1
0
SEQEND
8
OBJECT008
0
POLYLINE
8
OBJECT009
66
1
70
64
71
8
72
12
62
50
0
VERTEX
8
OBJECT009
10
-48.149071
20
12.799878
30
-56.727280
70
192
0
VERTEX
8
OBJECT009
10
11.565987
20
12.799878
30
-56.727280
70
192
0
VERTEX
8
OBJECT009
10
11.565987
20
-20.800125
30
-56.727280
70
192
0
VERTEX
8
OBJECT009
10
-48.149071
20
-20.800125
30
-56.727280
70
192
0
VERTEX
8
OBJECT009
10
-48.548225
20
-20.800125
30
-58.909088
70
192
0
VERTEX
8
OBJECT009
10
11.565987
20
-20.800125
30
-58.909088
70
192
0
VERTEX
8
OBJECT009
10
11.565987
20
12.799878
30
-58.909088
70
192
0
VERTEX
8
OBJECT009
10
-48.548225
20
12.799878
30
-58.909088
70
192
0
VERTEX
8
OBJECT009
10
0
20
0
30
0
70
128
71
2
72
3
73
-4
0
VERTEX
8
OBJECT009
10
0
20
0
30
0
70
128
71
-2
72
4
73
1
0
VERTEX
8
OBJECT009
10
0
20
0
30
0
70
128
71
6
72
7
73
-8
0
VERTEX
8
OBJECT009
10
0
20
0
30
0
70
128
71
-6
72
8
73
5
0
VERTEX
8
OBJECT009
10
0
20
0
30
0
70
128
71
6
72
3
73
-2
0
VERTEX
8
OBJECT009
10
0
20
0
30
0
70
128
71
-6
72
2
73
7
0
VERTEX
8
OBJECT009
10
0
20
0
30
0
70
128
71
7
72
2
73
-1
0
VERTEX
8
OBJECT009
10
0
20
0
30
0
70
128
71
-7
72
1
73
8
0
VERTEX
8
OBJECT009
10
0
20
0
30
0
70
128
71
5
72
4
73
-3
0
VERTEX
8
OBJECT009
10
0
20
0
30
0
70
128
71
-5
72
3
73
6
0
VERTEX
8
OBJECT009
10
0
20
0
30
0
70
128
71
8
72
1
73
-4
0
VERTEX
8
OBJECT009
10
0
20
0
30
0
70
128
71
-8
72
4
73
5
0
SEQEND
8
OBJECT009
0
POLYLINE
8
OBJECT010
66
1
70
64
71
8
72
12
62
50
0
VERTEX
8
OBJECT010
10
-67.602036
20
-20.800125
30
-7.541897
70
192
0
VERTEX
8
OBJECT010
10
-67.602036
20
-20.800125
30
-12.996437
70
192
0
VERTEX
8
OBJECT010
10
-67.602036
20
12.799878
30
-12.996437
70
192
0
VERTEX
8
OBJECT010
10
-67.602036
20
12.799878
30
-7.541897
70
192
0
VERTEX
8
OBJECT010
10
-42.171165
20
12.799878
30
-26.181820
70
192
0
VERTEX
8
OBJECT010
10
-41.334522
20
12.799878
30
-21.625542
70
192
0
VERTEX
8
OBJECT010
10
-41.334522
20
-20.800125
30
-21.625542
70
192
0
VERTEX
8
OBJECT010
10
-42.171165
20
-20.800125
30
-26.181820
70
192
0
VERTEX
8
OBJECT010
10
0
20
0
30
0
70
128
71
2
72
3
73
-4
0
VERTEX
8
OBJECT010
10
0
20
0
30
0
70
128
71
-2
72
4
73
1
0
VERTEX
8
OBJECT010
10
0
20
0
30
0
70
128
71
3
72
5
73
-6
0
VERTEX
8
OBJECT010
10
0
20
0
30
0
70
128
71
-3
72
6
73
4
0
VERTEX
8
OBJECT010
10
0
20
0
30
0
70
128
71
8
72
2
73
-1
0
VERTEX
8
OBJECT010
10
0
20
0
30
0
70
128
71
-8
72
1
73
7
0
VERTEX
8
OBJECT010
10
0
20
0
30
0
70
128
71
5
72
8
73
-7
0
VERTEX
8
OBJECT010
10
0
20
0
30
0
70
128
71
-5
72
7
73
6
0
VERTEX
8
OBJECT010
10
0
20
0
30
0
70
128
71
1
72
4
73
-6
0
VERTEX
8
OBJECT010
10
0
20
0
30
0
70
128
71
-1
72
6
73
7
0
VERTEX
8
OBJECT010
10
0
20
0
30
0
70
128
71
3
72
2
73
-8
0
VERTEX
8
OBJECT010
10
0
20
0
30
0
70
128
71
-3
72
8
73
5
0
SEQEND
8
OBJECT010
0
POLYLINE
8
OBJECT011
66
1
70
64
71
8
72
12
62
50
0
VERTEX
8
OBJECT011
10
-36.525383
20
-2.800123
30
-56.727280
70
192
0
VERTEX
8
OBJECT011
10
-38.929951
20
-2.800123
30
-56.727280
70
192
0
VERTEX
8
OBJECT011
10
-38.929951
20
-5.200123
30
-56.727280
70
192
0
VERTEX
8
OBJECT011
10
-36.525383
20
-5.200123
30
-56.727280
70
192
0
VERTEX
8
OBJECT011
10
-53.357368
20
-2.800123
30
-19.636368
70
192
0
VERTEX
8
OBJECT011
10
-55.761932
20
-2.800123
30
-18.545456
70
192
0
VERTEX
8
OBJECT011
10
-53.357368
20
-5.200123
30
-19.636368
70
192
0
VERTEX
8
OBJECT011
10
-55.761932
20
-5.200123
30
-18.545456
70
192
0
VERTEX
8
OBJECT011
10
0
20
0
30
0
70
128
71
2
72
3
73
-4
0
VERTEX
8
OBJECT011
10
0
20
0
30
0
70
128
71
-2
72
4
73
1
0
VERTEX
8
OBJECT011
10
0
20
0
30
0
70
128
71
1
72
5
73
-6
0
VERTEX
8
OBJECT011
10
0
20
0
30
0
70
128
71
-1
72
6
73
2
0
VERTEX
8
OBJECT011
10
0
20
0
30
0
70
128
71
4
72
3
73
-8
0
VERTEX
8
OBJECT011
10
0
20
0
30
0
70
128
71
-4
72
8
73
7
0
VERTEX
8
OBJECT011
10
0
20
0
30
0
70
128
71
1
72
4
73
-7
0
VERTEX
8
OBJECT011
10
0
20
0
30
0
70
128
71
-1
72
7
73
5
0
VERTEX
8
OBJECT011
10
0
20
0
30
0
70
128
71
3
72
2
73
-6
0
VERTEX
8
OBJECT011
10
0
20
0
30
0
70
128
71
-3
72
6
73
8
0
VERTEX
8
OBJECT011
10
0
20
0
30
0
70
128
71
5
72
7
73
-8
0
VERTEX
8
OBJECT011
10
0
20
0
30
0
70
128
71
-5
72
8
73
6
0
SEQEND
8
OBJECT011
0
POLYLINE
8
OBJECT012
66
1
70
64
71
12
72
20
62
50
0
VERTEX
8
OBJECT012
10
13.970556
20
12.799878
30
2.181816
70
192
0
VERTEX
8
OBJECT012
10
18.779694
20
12.799878
30
2.181816
70
192
0
VERTEX
8
OBJECT012
10
18.779694
20
-20.800125
30
2.181816
70
192
0
VERTEX
8
OBJECT012
10
13.970556
20
-20.800125
30
2.181816
70
192
0
VERTEX
8
OBJECT012
10
9.161419
20
-20.800125
30
-56.727280
70
192
0
VERTEX
8
OBJECT012
10
11.565987
20
-20.800125
30
-56.727280
70
192
0
VERTEX
8
OBJECT012
10
11.565987
20
12.799878
30
-56.727280
70
192
0
VERTEX
8
OBJECT012
10
9.161419
20
12.799878
30
-56.727280
70
192
0
VERTEX
8
OBJECT012
10
28.397968
20
-20.800125
30
-15.272732
70
192
0
VERTEX
8
OBJECT012
10
28.397968
20
-20.800125
30
-14.181820
70
192
0
VERTEX
8
OBJECT012
10
28.397968
20
12.799878
30
-14.181820
70
192
0
VERTEX
8
OBJECT012
10
28.397968
20
12.799878
30
-15.272732
70
192
0
VERTEX
8
OBJECT012
10
0
20
0
30
0
70
128
71
2
72
3
73
-4
0
VERTEX
8
OBJECT012
10
0
20
0
30
0
70
128
71
-2
72
4
73
1
0
VERTEX
8
OBJECT012
10
0
20
0
30
0
70
128
71
6
72
7
73
-8
0
VERTEX
8
OBJECT012
10
0
20
0
30
0
70
128
71
-6
72
8
73
5
0
VERTEX
8
OBJECT012
10
0
20
0
30
0
70
128
71
10
72
11
73
-12
0
VERTEX
8
OBJECT012
10
0
20
0
30
0
70
128
71
-10
72
12
73
9
0
VERTEX
8
OBJECT012
10
0
20
0
30
0
70
128
71
7
72
12
73
-11
0
VERTEX
8
OBJECT012
10
0
20
0
30
0
70
128
71
-7
72
11
73
-2
0
VERTEX
8
OBJECT012
10
0
20
0
30
0
70
128
71
-7
72
2
73
-1
0
VERTEX
8
OBJECT012
10
0
20
0
30
0
70
128
71
-7
72
1
73
8
0
VERTEX
8
OBJECT012
10
0
20
0
30
0
70
128
71
5
72
4
73
-3
0
VERTEX
8
OBJECT012
10
0
20
0
30
0
70
128
71
-5
72
3
73
-10
0
VERTEX
8
OBJECT012
10
0
20
0
30
0
70
128
71
-5
72
10
73
-9
0
VERTEX
8
OBJECT012
10
0
20
0
30
0
70
128
71
-5
72
9
73
6
0
VERTEX
8
OBJECT012
10
0
20
0
30
0
70
128
71
6
72
9
73
-12
0
VERTEX
8
OBJECT012
10
0
20
0
30
0
70
128
71
-6
72
12
73
7
0
VERTEX
8
OBJECT012
10
0
20
0
30
0
70
128
71
10
72
3
73
-2
0
VERTEX
8
OBJECT012
10
0
20
0
30
0
70
128
71
-10
72
2
73
11
0
VERTEX
8
OBJECT012
10
0
20
0
30
0
70
128
71
8
72
1
73
-4
0
VERTEX
8
OBJECT012
10
0
20
0
30
0
70
128
71
-8
72
4
73
5
0
SEQEND
8
OBJECT012
0
POLYLINE
8
OBJECT013
66
1
70
64
71
8
72
12
62
50
0
VERTEX
8
OBJECT013
10
-37.727669
20
-20.800125
30
37.090908
70
192
0
VERTEX
8
OBJECT013
10
-37.727669
20
-20.800125
30
28.363636
70
192
0
VERTEX
8
OBJECT013
10
-37.727669
20
12.799878
30
28.363636
70
192
0
VERTEX
8
OBJECT013
10
-37.727669
20
12.799878
30
37.090908
70
192
0
VERTEX
8
OBJECT013
10
-9.070978
20
12.799878
30
25.243368
70
192
0
VERTEX
8
OBJECT013
10
-2.954014
20
12.799878
30
31.719822
70
192
0
VERTEX
8
OBJECT013
10
-2.954014
20
-20.800125
30
31.719822
70
192
0
VERTEX
8
OBJECT013
10
-9.070978
20
-20.800125
30
25.243368
70
192
0
VERTEX
8
OBJECT013
10
0
20
0
30
0
70
128
71
2
72
3
73
-4
0
VERTEX
8
OBJECT013
10
0
20
0
30
0
70
128
71
-2
72
4
73
1
0
VERTEX
8
OBJECT013
10
0
20
0
30
0
70
128
71
3
72
5
73
-6
0
VERTEX
8
OBJECT013
10
0
20
0
30
0
70
128
71
-3
72
6
73
4
0
VERTEX
8
OBJECT013
10
0
20
0
30
0
70
128
71
8
72
2
73
-1
0
VERTEX
8
OBJECT013
10
0
20
0
30
0
70
128
71
-8
72
1
73
7
0
VERTEX
8
OBJECT013
10
0
20
0
30
0
70
128
71
5
72
8
73
-7
0
VERTEX
8
OBJECT013
10
0
20
0
30
0
70
128
71
-5
72
7
73
6
0
VERTEX
8
OBJECT013
10
0
20
0
30
0
70
128
71
3
72
2
73
-8
0
VERTEX
8
OBJECT013
10
0
20
0
30
0
70
128
71
-3
72
8
73
5
0
VERTEX
8
OBJECT013
10
0
20
0
30
0
70
128
71
1
72
4
73
-6
0
VERTEX
8
OBJECT013
10
0
20
0
30
0
70
128
71
-1
72
6
73
7
0
SEQEND
8
OBJECT013
0
POLYLINE
8
OBJECT014
66
1
70
64
71
10
72
16
62
50
0
VERTEX
8
OBJECT014
10
18.779694
20
12.799878
30
19.636362
70
192
0
VERTEX
8
OBJECT014
10
18.779694
20
12.799878
30
2.181816
70
192
0
VERTEX
8
OBJECT014
10
18.779694
20
-20.800125
30
2.181816
70
192
0
VERTEX
8
OBJECT014
10
18.779694
20
-20.800125
30
19.636362
70
192
0
VERTEX
8
OBJECT014
10
-10.336094
20
12.799878
30
24.831352
70
192
0
VERTEX
8
OBJECT014
10
0.185398
20
12.799878
30
31.234337
70
192
0
VERTEX
8
OBJECT014
10
-3.465446
20
12.799878
30
31.798220
70
192
0
VERTEX
8
OBJECT014
10
-10.336094
20
-20.800125
30
24.831352
70
192
0
VERTEX
8
OBJECT014
10
-3.465446
20
-20.800125
30
31.798220
70
192
0
VERTEX
8
OBJECT014
10
0.185398
20
-20.800125
30
31.234337
70
192
0
VERTEX
8
OBJECT014
10
0
20
0
30
0
70
128
71
2
72
3
73
-4
0
VERTEX
8
OBJECT014
10
0
20
0
30
0
70
128
71
-2
72
4
73
1
0
VERTEX
8
OBJECT014
10
0
20
0
30
0
70
128
71
2
72
1
73
-6
0
VERTEX
8
OBJECT014
10
0
20
0
30
0
70
128
71
-2
72
6
73
-7
0
VERTEX
8
OBJECT014
10
0
20
0
30
0
70
128
71
-2
72
7
73
5
0
VERTEX
8
OBJECT014
10
0
20
0
30
0
70
128
71
3
72
8
73
-9
0
VERTEX
8
OBJECT014
10
0
20
0
30
0
70
128
71
-3
72
9
73
-10
0
VERTEX
8
OBJECT014
10
0
20
0
30
0
70
128
71
-3
72
10
73
4
0
VERTEX
8
OBJECT014
10
0
20
0
30
0
70
128
71
3
72
2
73
-5
0
VERTEX
8
OBJECT014
10
0
20
0
30
0
70
128
71
-3
72
5
73
8
0
VERTEX
8
OBJECT014
10
0
20
0
30
0
70
128
71
7
72
9
73
-8
0
VERTEX
8
OBJECT014
10
0
20
0
30
0
70
128
71
-7
72
8
73
5
0
VERTEX
8
OBJECT014
10
0
20
0
30
0
70
128
71
6
72
10
73
-9
0
VERTEX
8
OBJECT014
10
0
20
0
30
0
70
128
71
-6
72
9
73
7
0
VERTEX
8
OBJECT014
10
0
20
0
30
0
70
128
71
1
72
4
73
-10
0
VERTEX
8
OBJECT014
10
0
20
0
30
0
70
128
71
-1
72
10
73
6
0
SEQEND
8
OBJECT014
0
POLYLINE
8
OBJECT015
66
1
70
64
71
10
72
16
62
50
0
VERTEX
8
OBJECT015
10
-19.693405
20
-40.000122
30
-13.090912
70
192
0
VERTEX
8
OBJECT015
10
-19.693405
20
-30.400124
30
-13.090912
70
192
0
VERTEX
8
OBJECT015
10
18.779694
20
-20.800125
30
-13.090912
70
192
0
VERTEX
8
OBJECT015
10
28.397968
20
-20.800125
30
-13.090912
70
192
0
VERTEX
8
OBJECT015
10
25.225296
20
-30.306007
30
-13.090912
70
192
0
VERTEX
8
OBJECT015
10
28.397968
20
-20.800125
30
-18.545456
70
192
0
VERTEX
8
OBJECT015
10
18.779694
20
-20.800125
30
-18.545456
70
192
0
VERTEX
8
OBJECT015
10
-19.693405
20
-30.400124
30
-18.545456
70
192
0
VERTEX
8
OBJECT015
10
-19.693405
20
-40.000122
30
-18.545456
70
192
0
VERTEX
8
OBJECT015
10
25.225296
20
-30.306007
30
-18.545456
70
192
0
VERTEX
8
OBJECT015
10
0
20
0
30
0
70
128
71
2
72
3
73
-4
0
VERTEX
8
OBJECT015
10
0
20
0
30
0
70
128
71
-2
72
4
73
-5
0
VERTEX
8
OBJECT015
10
0
20
0
30
0
70
128
71
-2
72
5
73
1
0
VERTEX
8
OBJECT015
10
0
20
0
30
0
70
128
71
7
72
8
73
-9
0
VERTEX
8
OBJECT015
10
0
20
0
30
0
70
128
71
-7
72
9
73
-10
0
VERTEX
8
OBJECT015
10
0
20
0
30
0
70
128
71
-7
72
10
73
6
0
VERTEX
8
OBJECT015
10
0
20
0
30
0
70
128
71
8
72
2
73
-1
0
VERTEX
8
OBJECT015
10
0
20
0
30
0
70
128
71
-8
72
1
73
9
0
VERTEX
8
OBJECT015
10
0
20
0
30
0
70
128
71
6
72
4
73
-3
0
VERTEX
8
OBJECT015
10
0
20
0
30
0
70
128
71
-6
72
3
73
7
0
VERTEX
8
OBJECT015
10
0
20
0
30
0
70
128
71
7
72
3
73
-2
0
VERTEX
8
OBJECT015
10
0
20
0
30
0
70
128
71
-7
72
2
73
8
0
VERTEX
8
OBJECT015
10
0
20
0
30
0
70
128
71
10
72
5
73
-4
0
VERTEX
8
OBJECT015
10
0
20
0
30
0
70
128
71
-10
72
4
73
6
0
VERTEX
8
OBJECT015
10
0
20
0
30
0
70
128
71
9
72
1
73
-5
0
VERTEX
8
OBJECT015
10
0
20
0
30
0
70
128
71
-9
72
5
73
10
0
SEQEND
8
OBJECT015
0
POLYLINE
8
OBJECT016
66
1
70
64
71
10
72
16
62
50
0
VERTEX
8
OBJECT016
10
28.397968
20
12.799878
30
-13.090912
70
192
0
VERTEX
8
OBJECT016
10
18.779694
20
12.799878
30
-13.090912
70
192
0
VERTEX
8
OBJECT016
10
-19.693405
20
22.399879
30
-13.090912
70
192
0
VERTEX
8
OBJECT016
10
-19.693405
20
31.999878
30
-13.090912
70
192
0
VERTEX
8
OBJECT016
10
25.225311
20
22.305689
30
-13.090912
70
192
0
VERTEX
8
OBJECT016
10
-19.693405
20
31.999878
30
-18.545456
70
192
0
VERTEX
8
OBJECT016
10
-19.693405
20
22.399879
30
-18.545456
70
192
0
VERTEX
8
OBJECT016
10
18.779694
20
12.799878
30
-18.545456
70
192
0
VERTEX
8
OBJECT016
10
28.397968
20
12.799878
30
-18.545456
70
192
0
VERTEX
8
OBJECT016
10
25.225311
20
22.305689
30
-18.545456
70
192
0
VERTEX
8
OBJECT016
10
0
20
0
30
0
70
128
71
2
72
3
73
-4
0
VERTEX
8
OBJECT016
10
0
20
0
30
0
70
128
71
-2
72
4
73
-5
0
VERTEX
8
OBJECT016
10
0
20
0
30
0
70
128
71
-2
72
5
73
1
0
VERTEX
8
OBJECT016
10
0
20
0
30
0
70
128
71
7
72
8
73
-9
0
VERTEX
8
OBJECT016
10
0
20
0
30
0
70
128
71
-7
72
9
73
-10
0
VERTEX
8
OBJECT016
10
0
20
0
30
0
70
128
71
-7
72
10
73
6
0
VERTEX
8
OBJECT016
10
0
20
0
30
0
70
128
71
6
72
4
73
-3
0
VERTEX
8
OBJECT016
10
0
20
0
30
0
70
128
71
-6
72
3
73
7
0
VERTEX
8
OBJECT016
10
0
20
0
30
0
70
128
71
8
72
2
73
-1
0
VERTEX
8
OBJECT016
10
0
20
0
30
0
70
128
71
-8
72
1
73
9
0
VERTEX
8
OBJECT016
10
0
20
0
30
0
70
128
71
7
72
3
73
-2
0
VERTEX
8
OBJECT016
10
0
20
0
30
0
70
128
71
-7
72
2
73
8
0
VERTEX
8
OBJECT016
10
0
20
0
30
0
70
128
71
9
72
1
73
-5
0
VERTEX
8
OBJECT016
10
0
20
0
30
0
70
128
71
-9
72
5
73
10
0
VERTEX
8
OBJECT016
10
0
20
0
30
0
70
128
71
10
72
5
73
-4
0
VERTEX
8
OBJECT016
10
0
20
0
30
0
70
128
71
-10
72
4
73
6
0
SEQEND
8
OBJECT016
0
POLYLINE
8
OBJECT017
66
1
70
64
71
8
72
12
62
50
0
VERTEX
8
OBJECT017
10
-29.311680
20
23.599878
30
-13.090912
70
192
0
VERTEX
8
OBJECT017
10
-29.311680
20
25.999878
30
-13.090912
70
192
0
VERTEX
8
OBJECT017
10
-19.693405
20
31.999878
30
-13.090912
70
192
0
VERTEX
8
OBJECT017
10
-19.693405
20
22.399879
30
-13.090912
70
192
0
VERTEX
8
OBJECT017
10
-29.311680
20
25.999878
30
-18.545456
70
192
0
VERTEX
8
OBJECT017
10
-29.311680
20
23.599878
30
-18.545456
70
192
0
VERTEX
8
OBJECT017
10
-19.693405
20
22.399879
30
-18.545456
70
192
0
VERTEX
8
OBJECT017
10
-19.693405
20
31.999878
30
-18.545456
70
192
0
VERTEX
8
OBJECT017
10
0
20
0
30
0
70
128
71
2
72
3
73
-4
0
VERTEX
8
OBJECT017
10
0
20
0
30
0
70
128
71
-2
72
4
73
1
0
VERTEX
8
OBJECT017
10
0
20
0
30
0
70
128
71
6
72
7
73
-8
0
VERTEX
8
OBJECT017
10
0
20
0
30
0
70
128
71
-6
72
8
73
5
0
VERTEX
8
OBJECT017
10
0
20
0
30
0
70
128
71
5
72
2
73
-1
0
VERTEX
8
OBJECT017
10
0
20
0
30
0
70
128
71
-5
72
1
73
6
0
VERTEX
8
OBJECT017
10
0
20
0
30
0
70
128
71
7
72
4
73
-3
0
VERTEX
8
OBJECT017
10
0
20
0
30
0
70
128
71
-7
72
3
73
8
0
VERTEX
8
OBJECT017
10
0
20
0
30
0
70
128
71
6
72
1
73
-4
0
VERTEX
8
OBJECT017
10
0
20
0
30
0
70
128
71
-6
72
4
73
7
0
VERTEX
8
OBJECT017
10
0
20
0
30
0
70
128
71
8
72
3
73
-2
0
VERTEX
8
OBJECT017
10
0
20
0
30
0
70
128
71
-8
72
2
73
5
0
SEQEND
8
OBJECT017
0
POLYLINE
8
OBJECT018
66
1
70
64
71
8
72
12
62
50
0
VERTEX
8
OBJECT018
10
-29.311680
20
-34.000126
30
-13.090912
70
192
0
VERTEX
8
OBJECT018
10
-29.311680
20
-31.600124
30
-13.090912
70
192
0
VERTEX
8
OBJECT018
10
-19.693405
20
-30.400124
30
-13.090912
70
192
0
VERTEX
8
OBJECT018
10
-19.693405
20
-40.000122
30
-13.090912
70
192
0
VERTEX
8
OBJECT018
10
-29.311680
20
-31.600124
30
-18.545456
70
192
0
VERTEX
8
OBJECT018
10
-29.311680
20
-34.000126
30
-18.545456
70
192
0
VERTEX
8
OBJECT018
10
-19.693405
20
-40.000122
30
-18.545456
70
192
0
VERTEX
8
OBJECT018
10
-19.693405
20
-30.400124
30
-18.545456
70
192
0
VERTEX
8
OBJECT018
10
0
20
0
30
0
70
128
71
2
72
3
73
-4
0
VERTEX
8
OBJECT018
10
0
20
0
30
0
70
128
71
-2
72
4
73
1
0
VERTEX
8
OBJECT018
10
0
20
0
30
0
70
128
71
6
72
7
73
-8
0
VERTEX
8
OBJECT018
10
0
20
0
30
0
70
128
71
-6
72
8
73
5
0
VERTEX
8
OBJECT018
10
0
20
0
30
0
70
128
71
5
72
2
73
-1
0
VERTEX
8
OBJECT018
10
0
20
0
30
0
70
128
71
-5
72
1
73
6
0
VERTEX
8
OBJECT018
10
0
20
0
30
0
70
128
71
7
72
4
73
-3
0
VERTEX
8
OBJECT018
10
0
20
0
30
0
70
128
71
-7
72
3
73
8
0
VERTEX
8
OBJECT018
10
0
20
0
30
0
70
128
71
8
72
3
73
-2
0
VERTEX
8
OBJECT018
10
0
20
0
30
0
70
128
71
-8
72
2
73
5
0
VERTEX
8
OBJECT018
10
0
20
0
30
0
70
128
71
6
72
1
73
-4
0
VERTEX
8
OBJECT018
10
0
20
0
30
0
70
128
71
-6
72
4
73
7
0
SEQEND
8
OBJECT018
0
POLYLINE
8
OBJECT019
66
1
70
64
71
8
72
12
62
50
0
VERTEX
8
OBJECT019
10
-38.929951
20
-32.800125
30
-6.545456
70
192
0
VERTEX
8
OBJECT019
10
-38.929951
20
-31.600124
30
-6.545456
70
192
0
VERTEX
8
OBJECT019
10
-19.693405
20
-29.200123
30
-6.545456
70
192
0
VERTEX
8
OBJECT019
10
-19.693405
20
-30.400124
30
-6.545456
70
192
0
VERTEX
8
OBJECT019
10
-38.929951
20
-31.600124
30
-24.000000
70
192
0
VERTEX
8
OBJECT019
10
-38.929951
20
-32.800125
30
-24.000000
70
192
0
VERTEX
8
OBJECT019
10
-19.693405
20
-30.400124
30
-24.000000
70
192
0
VERTEX
8
OBJECT019
10
-19.693405
20
-29.200123
30
-24.000000
70
192
0
VERTEX
8
OBJECT019
10
0
20
0
30
0
70
128
71
2
72
3
73
-4
0
VERTEX
8
OBJECT019
10
0
20
0
30
0
70
128
71
-2
72
4
73
1
0
VERTEX
8
OBJECT019
10
0
20
0
30
0
70
128
71
6
72
7
73
-8
0
VERTEX
8
OBJECT019
10
0
20
0
30
0
70
128
71
-6
72
8
73
5
0
VERTEX
8
OBJECT019
10
0
20
0
30
0
70
128
71
5
72
2
73
-1
0
VERTEX
8
OBJECT019
10
0
20
0
30
0
70
128
71
-5
72
1
73
6
0
VERTEX
8
OBJECT019
10
0
20
0
30
0
70
128
71
7
72
4
73
-3
0
VERTEX
8
OBJECT019
10
0
20
0
30
0
70
128
71
-7
72
3
73
8
0
VERTEX
8
OBJECT019
10
0
20
0
30
0
70
128
71
6
72
1
73
-4
0
VERTEX
8
OBJECT019
10
0
20
0
30
0
70
128
71
-6
72
4
73
7
0
VERTEX
8
OBJECT019
10
0
20
0
30
0
70
128
71
8
72
3
73
-2
0
VERTEX
8
OBJECT019
10
0
20
0
30
0
70
128
71
-8
72
2
73
5
0
SEQEND
8
OBJECT019
0
POLYLINE
8
OBJECT020
66
1
70
64
71
8
72
12
62
50
0
VERTEX
8
OBJECT020
10
-58.166496
20
25.999878
30
2.181816
70
192
0
VERTEX
8
OBJECT020
10
-58.166496
20
27.199879
30
2.181816
70
192
0
VERTEX
8
OBJECT020
10
-19.693405
20
22.399879
30
2.181816
70
192
0
VERTEX
8
OBJECT020
10
-19.693405
20
21.199879
30
2.181816
70
192
0
VERTEX
8
OBJECT020
10
-58.166496
20
27.199879
30
-32.727276
70
192
0
VERTEX
8
OBJECT020
10
-58.166496
20
25.999878
30
-32.727276
70
192
0
VERTEX
8
OBJECT020
10
-19.693405
20
21.199879
30
-32.727276
70
192
0
VERTEX
8
OBJECT020
10
-19.693405
20
22.399879
30
-32.727276
70
192
0
VERTEX
8
OBJECT020
10
0
20
0
30
0
70
128
71
2
72
3
73
-4
0
VERTEX
8
OBJECT020
10
0
20
0
30
0
70
128
71
-2
72
4
73
1
0
VERTEX
8
OBJECT020
10
0
20
0
30
0
70
128
71
6
72
7
73
-8
0
VERTEX
8
OBJECT020
10
0
20
0
30
0
70
128
71
-6
72
8
73
5
0
VERTEX
8
OBJECT020
10
0
20
0
30
0
70
128
71
5
72
2
73
-1
0
VERTEX
8
OBJECT020
10
0
20
0
30
0
70
128
71
-5
72
1
73
6
0
VERTEX
8
OBJECT020
10
0
20
0
30
0
70
128
71
7
72
4
73
-3
0
VERTEX
8
OBJECT020
10
0
20
0
30
0
70
128
71
-7
72
3
73
8
0
VERTEX
8
OBJECT020
10
0
20
0
30
0
70
128
71
8
72
3
73
-2
0
VERTEX
8
OBJECT020
10
0
20
0
30
0
70
128
71
-8
72
2
73
5
0
VERTEX
8
OBJECT020
10
0
20
0
30
0
70
128
71
6
72
1
73
-4
0
VERTEX
8
OBJECT020
10
0
20
0
30
0
70
128
71
-6
72
4
73
7
0
SEQEND
8
OBJECT020
0
POLYLINE
8
OBJECT021
66
1
70
64
71
10
72
16
62
50
0
VERTEX
8
OBJECT021
10
-29.311680
20
3.199877
30
27.447517
70
192
0
VERTEX
8
OBJECT021
10
-29.311680
20
3.199877
30
27.272726
70
192
0
VERTEX
8
OBJECT021
10
-29.311680
20
-11.200123
30
27.272726
70
192
0
VERTEX
8
OBJECT021
10
-29.311680
20
-11.200123
30
27.447517
70
192
0
VERTEX
8
OBJECT021
10
-35.585197
20
3.199877
30
10.909088
70
192
0
VERTEX
8
OBJECT021
10
-37.727669
20
3.199877
30
28.363636
70
192
0
VERTEX
8
OBJECT021
10
-40.132233
20
3.199877
30
10.909088
70
192
0
VERTEX
8
OBJECT021
10
-35.585197
20
-11.200123
30
10.909088
70
192
0
VERTEX
8
OBJECT021
10
-40.132233
20
-11.200123
30
10.909088
70
192
0
VERTEX
8
OBJECT021
10
-37.727669
20
-11.200123
30
28.363636
70
192
0
VERTEX
8
OBJECT021
10
0
20
0
30
0
70
128
71
2
72
3
73
-4
0
VERTEX
8
OBJECT021
10
0
20
0
30
0
70
128
71
-2
72
4
73
1
0
VERTEX
8
OBJECT021
10
0
20
0
30
0
70
128
71
2
72
1
73
-6
0
VERTEX
8
OBJECT021
10
0
20
0
30
0
70
128
71
-2
72
6
73
-7
0
VERTEX
8
OBJECT021
10
0
20
0
30
0
70
128
71
-2
72
7
73
5
0
VERTEX
8
OBJECT021
10
0
20
0
30
0
70
128
71
3
72
8
73
-9
0
VERTEX
8
OBJECT021
10
0
20
0
30
0
70
128
71
-3
72
9
73
-10
0
VERTEX
8
OBJECT021
10
0
20
0
30
0
70
128
71
-3
72
10
73
4
0
VERTEX
8
OBJECT021
10
0
20
0
30
0
70
128
71
1
72
4
73
-10
0
VERTEX
8
OBJECT021
10
0
20
0
30
0
70
128
71
-1
72
10
73
6
0
VERTEX
8
OBJECT021
10
0
20
0
30
0
70
128
71
3
72
2
73
-5
0
VERTEX
8
OBJECT021
10
0
20
0
30
0
70
128
71
-3
72
5
73
8
0
VERTEX
8
OBJECT021
10
0
20
0
30
0
70
128
71
6
72
10
73
-9
0
VERTEX
8
OBJECT021
10
0
20
0
30
0
70
128
71
-6
72
9
73
7
0
VERTEX
8
OBJECT021
10
0
20
0
30
0
70
128
71
8
72
5
73
-7
0
VERTEX
8
OBJECT021
10
0
20
0
30
0
70
128
71
-8
72
7
73
9
0
SEQEND
8
OBJECT021
0
POLYLINE
8
OBJECT022
66
1
70
64
71
8
72
12
62
50
0
VERTEX
8
OBJECT022
10
-30.513962
20
-20.800125
30
19.636362
70
192
0
VERTEX
8
OBJECT022
10
-32.280815
20
-20.800125
30
19.636362
70
192
0
VERTEX
8
OBJECT022
10
-32.280815
20
12.799878
30
19.636362
70
192
0
VERTEX
8
OBJECT022
10
-30.513962
20
12.799878
30
19.636362
70
192
0
VERTEX
8
OBJECT022
10
-34.521172
20
12.799878
30
8.727270
70
192
0
VERTEX
8
OBJECT022
10
-36.525383
20
12.799878
30
8.727270
70
192
0
VERTEX
8
OBJECT022
10
-36.525383
20
-20.800125
30
8.727270
70
192
0
VERTEX
8
OBJECT022
10
-34.521172
20
-20.800125
30
8.727270
70
192
0
VERTEX
8
OBJECT022
10
0
20
0
30
0
70
128
71
2
72
3
73
-4
0
VERTEX
8
OBJECT022
10
0
20
0
30
0
70
128
71
-2
72
4
73
1
0
VERTEX
8
OBJECT022
10
0
20
0
30
0
70
128
71
4
72
3
73
-6
0
VERTEX
8
OBJECT022
10
0
20
0
30
0
70
128
71
-4
72
6
73
5
0
VERTEX
8
OBJECT022
10
0
20
0
30
0
70
128
71
2
72
1
73
-8
0
VERTEX
8
OBJECT022
10
0
20
0
30
0
70
128
71
-2
72
8
73
7
0
VERTEX
8
OBJECT022
10
0
20
0
30
0
70
128
71
3
72
2
73
-7
0
VERTEX
8
OBJECT022
10
0
20
0
30
0
70
128
71
-3
72
7
73
6
0
VERTEX
8
OBJECT022
10
0
20
0
30
0
70
128
71
1
72
4
73
-5
0
VERTEX
8
OBJECT022
10
0
20
0
30
0
70
128
71
-1
72
5
73
8
0
VERTEX
8
OBJECT022
10
0
20
0
30
0
70
128
71
6
72
7
73
-8
0
VERTEX
8
OBJECT022
10
0
20
0
30
0
70
128
71
-6
72
8
73
5
0
SEQEND
8
OBJECT022
0
ENDSEC
0
EOF
