0
SECTION
2
HEADER
9
$ACADVER
1
AC1008
9
$UCSORG
10
0.0
20
0.0
30
0.0
9
$UCSXDIR
10
1.0
20
0.0
30
0.0
9
$TILEMODE
70
1
9
$UCSYDIR
10
0.0
20
1.0
30
0.0
9
$EXTMIN
10
-64.000000
20
-64.000000
30
-64.000000
9
$EXTMAX
10
64.000000
20
-32.000000
30
64.000000
0
ENDSEC
0
SECTION
2
TABLES
0
TABLE
2
LTYPE
70
1
0
LTYPE
2
CONTINUOUS
70
64
3
Solid line
72
65
73
0
40
0.0
0
ENDTAB
0
TABLE
2
LAYER
70
1
0
LAYER
2
0
70
0
62
7
6
CONTINUOUS
0
ENDTAB
0
TABLE
2
STYLE
70
1
0
STYLE
2
STANDARD
70
0
40
0.0
41
1.0
50
0.0
71
0
42
0.2
3
txt
4

0
ENDTAB
0
TABLE
2
UCS
70
0
0
ENDTAB
0
ENDSEC
0
SECTION
2
ENTITIES
0
POLYLINE
8
OBJECT000
66
1
70
64
71
16
72
28
62
50
0
VERTEX
8
OBJECT000
10
-45.000000
20
-64.000000
30
46.000000
70
192
0
VERTEX
8
OBJECT000
10
0.000000
20
-64.000000
30
64.000000
70
192
0
VERTEX
8
OBJECT000
10
45.000000
20
-64.000000
30
46.000000
70
192
0
VERTEX
8
OBJECT000
10
64.000000
20
-64.000000
30
0.000000
70
192
0
VERTEX
8
OBJECT000
10
45.000000
20
-64.000000
30
-46.000000
70
192
0
VERTEX
8
OBJECT000
10
0.000000
20
-64.000000
30
-64.000000
70
192
0
VERTEX
8
OBJECT000
10
-45.000000
20
-64.000000
30
-46.000000
70
192
0
VERTEX
8
OBJECT000
10
-64.000000
20
-64.000000
30
0.000000
70
192
0
VERTEX
8
OBJECT000
10
-64.000000
20
-32.000000
30
0.000000
70
192
0
VERTEX
8
OBJECT000
10
-45.000000
20
-32.000000
30
-46.000000
70
192
0
VERTEX
8
OBJECT000
10
0.000000
20
-32.000000
30
-64.000000
70
192
0
VERTEX
8
OBJECT000
10
45.000000
20
-32.000000
30
-46.001953
70
192
0
VERTEX
8
OBJECT000
10
64.000000
20
-32.000000
30
0.000000
70
192
0
VERTEX
8
OBJECT000
10
45.000000
20
-32.000000
30
46.000000
70
192
0
VERTEX
8
OBJECT000
10
0.000000
20
-32.000000
30
63.990234
70
192
0
VERTEX
8
OBJECT000
10
-45.000000
20
-32.019409
30
45.999390
70
192
0
VERTEX
8
OBJECT000
10
0
20
0
30
0
70
128
71
2
72
3
73
-4
0
VERTEX
8
OBJECT000
10
0
20
0
30
0
70
128
71
-2
72
4
73
-5
0
VERTEX
8
OBJECT000
10
0
20
0
30
0
70
128
71
-2
72
5
73
-6
0
VERTEX
8
OBJECT000
10
0
20
0
30
0
70
128
71
-2
72
6
73
-7
0
VERTEX
8
OBJECT000
10
0
20
0
30
0
70
128
71
-2
72
7
73
-8
0
VERTEX
8
OBJECT000
10
0
20
0
30
0
70
128
71
-2
72
8
73
1
0
VERTEX
8
OBJECT000
10
0
20
0
30
0
70
128
71
10
72
11
73
-12
0
VERTEX
8
OBJECT000
10
0
20
0
30
0
70
128
71
-10
72
12
73
-13
0
VERTEX
8
OBJECT000
10
0
20
0
30
0
70
128
71
-10
72
13
73
-14
0
VERTEX
8
OBJECT000
10
0
20
0
30
0
70
128
71
-10
72
14
73
-15
0
VERTEX
8
OBJECT000
10
0
20
0
30
0
70
128
71
-10
72
15
73
-16
0
VERTEX
8
OBJECT000
10
0
20
0
30
0
70
128
71
-10
72
16
73
9
0
VERTEX
8
OBJECT000
10
0
20
0
30
0
70
128
71
11
72
6
73
-5
0
VERTEX
8
OBJECT000
10
0
20
0
30
0
70
128
71
-11
72
5
73
12
0
VERTEX
8
OBJECT000
10
0
20
0
30
0
70
128
71
4
72
13
73
-12
0
VERTEX
8
OBJECT000
10
0
20
0
30
0
70
128
71
-4
72
12
73
5
0
VERTEX
8
OBJECT000
10
0
20
0
30
0
70
128
71
3
72
14
73
-13
0
VERTEX
8
OBJECT000
10
0
20
0
30
0
70
128
71
-3
72
13
73
4
0
VERTEX
8
OBJECT000
10
0
20
0
30
0
70
128
71
14
72
3
73
-2
0
VERTEX
8
OBJECT000
10
0
20
0
30
0
70
128
71
-14
72
2
73
15
0
VERTEX
8
OBJECT000
10
0
20
0
30
0
70
128
71
15
72
2
73
-1
0
VERTEX
8
OBJECT000
10
0
20
0
30
0
70
128
71
-15
72
1
73
16
0
VERTEX
8
OBJECT000
10
0
20
0
30
0
70
128
71
16
72
1
73
-8
0
VERTEX
8
OBJECT000
10
0
20
0
30
0
70
128
71
-16
72
8
73
9
0
VERTEX
8
OBJECT000
10
0
20
0
30
0
70
128
71
9
72
8
73
-7
0
VERTEX
8
OBJECT000
10
0
20
0
30
0
70
128
71
-9
72
7
73
10
0
VERTEX
8
OBJECT000
10
0
20
0
30
0
70
128
71
10
72
7
73
-6
0
VERTEX
8
OBJECT000
10
0
20
0
30
0
70
128
71
-10
72
6
73
11
0
SEQEND
8
OBJECT000
0
ENDSEC
0
EOF
