0
SECTION
2
HEADER
9
$ACADVER
1
AC1008
9
$UCSORG
10
0.0
20
0.0
30
0.0
9
$UCSXDIR
10
1.0
20
0.0
30
0.0
9
$TILEMODE
70
1
9
$UCSYDIR
10
0.0
20
1.0
30
0.0
9
$EXTMIN
10
-124.000000
20
-60.000000
30
-90.000000
9
$EXTMAX
10
132.000000
20
68.000000
30
66.000000
0
ENDSEC
0
SECTION
2
TABLES
0
TABLE
2
LTYPE
70
1
0
LTYPE
2
CONTINUOUS
70
64
3
Solid line
72
65
73
0
40
0.0
0
ENDTAB
0
TABLE
2
LAYER
70
1
0
LAYER
2
0
70
0
62
7
6
CONTINUOUS
0
ENDTAB
0
TABLE
2
STYLE
70
1
0
STYLE
2
STANDARD
70
0
40
0.0
41
1.0
50
0.0
71
0
42
0.2
3
txt
4

0
ENDTAB
0
TABLE
2
UCS
70
0
0
ENDTAB
0
ENDSEC
0
SECTION
2
ENTITIES
0
POLYLINE
8
OBJECT000
66
1
70
64
71
10
72
16
62
50
0
VERTEX
8
OBJECT000
10
-41.000000
20
32.569946
30
61.411987
70
192
0
VERTEX
8
OBJECT000
10
-41.000000
20
35.359985
30
61.411987
70
192
0
VERTEX
8
OBJECT000
10
31.000000
20
35.359985
30
61.411987
70
192
0
VERTEX
8
OBJECT000
10
31.000000
20
32.569946
30
61.411987
70
192
0
VERTEX
8
OBJECT000
10
-41.000000
20
61.140625
30
-6.263916
70
192
0
VERTEX
8
OBJECT000
10
-41.000000
20
61.140625
30
3.194611
70
192
0
VERTEX
8
OBJECT000
10
-41.000000
20
32.569946
30
-54.058929
70
192
0
VERTEX
8
OBJECT000
10
31.000000
20
32.569946
30
-54.058929
70
192
0
VERTEX
8
OBJECT000
10
31.000000
20
61.140625
30
3.194611
70
192
0
VERTEX
8
OBJECT000
10
31.000000
20
61.140625
30
-6.263916
70
192
0
VERTEX
8
OBJECT000
10
0
20
0
30
0
70
128
71
2
72
3
73
-4
0
VERTEX
8
OBJECT000
10
0
20
0
30
0
70
128
71
-2
72
4
73
1
0
VERTEX
8
OBJECT000
10
0
20
0
30
0
70
128
71
6
72
2
73
-1
0
VERTEX
8
OBJECT000
10
0
20
0
30
0
70
128
71
-6
72
1
73
-7
0
VERTEX
8
OBJECT000
10
0
20
0
30
0
70
128
71
-6
72
7
73
5
0
VERTEX
8
OBJECT000
10
0
20
0
30
0
70
128
71
4
72
3
73
-9
0
VERTEX
8
OBJECT000
10
0
20
0
30
0
70
128
71
-4
72
9
73
-10
0
VERTEX
8
OBJECT000
10
0
20
0
30
0
70
128
71
-4
72
10
73
8
0
VERTEX
8
OBJECT000
10
0
20
0
30
0
70
128
71
9
72
6
73
-5
0
VERTEX
8
OBJECT000
10
0
20
0
30
0
70
128
71
-9
72
5
73
10
0
VERTEX
8
OBJECT000
10
0
20
0
30
0
70
128
71
1
72
4
73
-8
0
VERTEX
8
OBJECT000
10
0
20
0
30
0
70
128
71
-1
72
8
73
7
0
VERTEX
8
OBJECT000
10
0
20
0
30
0
70
128
71
3
72
2
73
-6
0
VERTEX
8
OBJECT000
10
0
20
0
30
0
70
128
71
-3
72
6
73
9
0
VERTEX
8
OBJECT000
10
0
20
0
30
0
70
128
71
10
72
5
73
-7
0
VERTEX
8
OBJECT000
10
0
20
0
30
0
70
128
71
-10
72
7
73
8
0
SEQEND
8
OBJECT000
0
POLYLINE
8
OBJECT001
66
1
70
64
71
8
72
12
62
50
0
VERTEX
8
OBJECT001
10
-4.000000
20
-9.709961
30
-51.000000
70
192
0
VERTEX
8
OBJECT001
10
-4.000000
20
17.710938
30
-51.000000
70
192
0
VERTEX
8
OBJECT001
10
14.000000
20
17.710938
30
-51.000000
70
192
0
VERTEX
8
OBJECT001
10
14.000000
20
-9.709961
30
-51.000000
70
192
0
VERTEX
8
OBJECT001
10
-4.000000
20
17.710938
30
-62.471008
70
192
0
VERTEX
8
OBJECT001
10
-4.000000
20
-9.709961
30
-62.471008
70
192
0
VERTEX
8
OBJECT001
10
14.000000
20
-9.709961
30
-62.471008
70
192
0
VERTEX
8
OBJECT001
10
14.000000
20
17.710938
30
-62.471008
70
192
0
VERTEX
8
OBJECT001
10
0
20
0
30
0
70
128
71
2
72
3
73
-4
0
VERTEX
8
OBJECT001
10
0
20
0
30
0
70
128
71
-2
72
4
73
1
0
VERTEX
8
OBJECT001
10
0
20
0
30
0
70
128
71
6
72
7
73
-8
0
VERTEX
8
OBJECT001
10
0
20
0
30
0
70
128
71
-6
72
8
73
5
0
VERTEX
8
OBJECT001
10
0
20
0
30
0
70
128
71
5
72
2
73
-1
0
VERTEX
8
OBJECT001
10
0
20
0
30
0
70
128
71
-5
72
1
73
6
0
VERTEX
8
OBJECT001
10
0
20
0
30
0
70
128
71
7
72
4
73
-3
0
VERTEX
8
OBJECT001
10
0
20
0
30
0
70
128
71
-7
72
3
73
8
0
VERTEX
8
OBJECT001
10
0
20
0
30
0
70
128
71
8
72
3
73
-2
0
VERTEX
8
OBJECT001
10
0
20
0
30
0
70
128
71
-8
72
2
73
5
0
VERTEX
8
OBJECT001
10
0
20
0
30
0
70
128
71
6
72
1
73
-4
0
VERTEX
8
OBJECT001
10
0
20
0
30
0
70
128
71
-6
72
4
73
7
0
SEQEND
8
OBJECT001
0
POLYLINE
8
OBJECT002
66
1
70
64
71
8
72
12
62
50
0
VERTEX
8
OBJECT002
10
-124.000000
20
68.000000
30
1.764404
70
192
0
VERTEX
8
OBJECT002
10
132.000000
20
68.000000
30
1.764404
70
192
0
VERTEX
8
OBJECT002
10
132.000000
20
36.000000
30
66.000000
70
192
0
VERTEX
8
OBJECT002
10
-124.000000
20
36.000000
30
66.000000
70
192
0
VERTEX
8
OBJECT002
10
-124.000000
20
27.339966
30
66.000000
70
192
0
VERTEX
8
OBJECT002
10
132.000000
20
27.339966
30
66.000000
70
192
0
VERTEX
8
OBJECT002
10
132.000000
20
64.050903
30
-6.183716
70
192
0
VERTEX
8
OBJECT002
10
-124.000000
20
64.050903
30
-6.183716
70
192
0
VERTEX
8
OBJECT002
10
0
20
0
30
0
70
128
71
2
72
3
73
-4
0
VERTEX
8
OBJECT002
10
0
20
0
30
0
70
128
71
-2
72
4
73
1
0
VERTEX
8
OBJECT002
10
0
20
0
30
0
70
128
71
4
72
3
73
-6
0
VERTEX
8
OBJECT002
10
0
20
0
30
0
70
128
71
-4
72
6
73
5
0
VERTEX
8
OBJECT002
10
0
20
0
30
0
70
128
71
2
72
1
73
-8
0
VERTEX
8
OBJECT002
10
0
20
0
30
0
70
128
71
-2
72
8
73
7
0
VERTEX
8
OBJECT002
10
0
20
0
30
0
70
128
71
2
72
7
73
-6
0
VERTEX
8
OBJECT002
10
0
20
0
30
0
70
128
71
-2
72
6
73
3
0
VERTEX
8
OBJECT002
10
0
20
0
30
0
70
128
71
1
72
4
73
-5
0
VERTEX
8
OBJECT002
10
0
20
0
30
0
70
128
71
-1
72
5
73
8
0
VERTEX
8
OBJECT002
10
0
20
0
30
0
70
128
71
8
72
5
73
-6
0
VERTEX
8
OBJECT002
10
0
20
0
30
0
70
128
71
-8
72
6
73
7
0
SEQEND
8
OBJECT002
0
POLYLINE
8
OBJECT003
66
1
70
64
71
8
72
12
62
50
0
VERTEX
8
OBJECT003
10
132.000000
20
-28.000000
30
66.000000
70
192
0
VERTEX
8
OBJECT003
10
-124.000000
20
-28.000000
30
66.000000
70
192
0
VERTEX
8
OBJECT003
10
-124.000000
20
27.339966
30
66.000000
70
192
0
VERTEX
8
OBJECT003
10
132.000000
20
27.339966
30
66.000000
70
192
0
VERTEX
8
OBJECT003
10
-124.000000
20
-32.569092
30
56.824005
70
192
0
VERTEX
8
OBJECT003
10
132.000000
20
-32.569092
30
56.824005
70
192
0
VERTEX
8
OBJECT003
10
132.000000
20
32.000000
30
56.824005
70
192
0
VERTEX
8
OBJECT003
10
-124.000000
20
32.000000
30
56.824005
70
192
0
VERTEX
8
OBJECT003
10
0
20
0
30
0
70
128
71
2
72
3
73
-4
0
VERTEX
8
OBJECT003
10
0
20
0
30
0
70
128
71
-2
72
4
73
1
0
VERTEX
8
OBJECT003
10
0
20
0
30
0
70
128
71
2
72
1
73
-6
0
VERTEX
8
OBJECT003
10
0
20
0
30
0
70
128
71
-2
72
6
73
5
0
VERTEX
8
OBJECT003
10
0
20
0
30
0
70
128
71
1
72
4
73
-7
0
VERTEX
8
OBJECT003
10
0
20
0
30
0
70
128
71
-1
72
7
73
6
0
VERTEX
8
OBJECT003
10
0
20
0
30
0
70
128
71
3
72
2
73
-5
0
VERTEX
8
OBJECT003
10
0
20
0
30
0
70
128
71
-3
72
5
73
8
0
VERTEX
8
OBJECT003
10
0
20
0
30
0
70
128
71
4
72
3
73
-8
0
VERTEX
8
OBJECT003
10
0
20
0
30
0
70
128
71
-4
72
8
73
7
0
VERTEX
8
OBJECT003
10
0
20
0
30
0
70
128
71
5
72
6
73
-7
0
VERTEX
8
OBJECT003
10
0
20
0
30
0
70
128
71
-5
72
7
73
8
0
SEQEND
8
OBJECT003
0
POLYLINE
8
OBJECT004
66
1
70
64
71
8
72
12
62
50
0
VERTEX
8
OBJECT004
10
132.000000
20
-32.568848
30
56.824005
70
192
0
VERTEX
8
OBJECT004
10
132.000000
20
-60.000000
30
1.764587
70
192
0
VERTEX
8
OBJECT004
10
-124.000000
20
-60.000000
30
1.764587
70
192
0
VERTEX
8
OBJECT004
10
-124.000000
20
-32.568848
30
56.824005
70
192
0
VERTEX
8
OBJECT004
10
-124.000000
20
-56.049561
30
-6.181946
70
192
0
VERTEX
8
OBJECT004
10
132.000000
20
-56.049561
30
-6.181946
70
192
0
VERTEX
8
OBJECT004
10
132.000000
20
-24.000000
30
56.824005
70
192
0
VERTEX
8
OBJECT004
10
-124.000000
20
-24.000000
30
56.824005
70
192
0
VERTEX
8
OBJECT004
10
0
20
0
30
0
70
128
71
2
72
3
73
-4
0
VERTEX
8
OBJECT004
10
0
20
0
30
0
70
128
71
-2
72
4
73
1
0
VERTEX
8
OBJECT004
10
0
20
0
30
0
70
128
71
3
72
2
73
-6
0
VERTEX
8
OBJECT004
10
0
20
0
30
0
70
128
71
-3
72
6
73
5
0
VERTEX
8
OBJECT004
10
0
20
0
30
0
70
128
71
2
72
1
73
-7
0
VERTEX
8
OBJECT004
10
0
20
0
30
0
70
128
71
-2
72
7
73
6
0
VERTEX
8
OBJECT004
10
0
20
0
30
0
70
128
71
3
72
5
73
-8
0
VERTEX
8
OBJECT004
10
0
20
0
30
0
70
128
71
-3
72
8
73
4
0
VERTEX
8
OBJECT004
10
0
20
0
30
0
70
128
71
4
72
8
73
-7
0
VERTEX
8
OBJECT004
10
0
20
0
30
0
70
128
71
-4
72
7
73
1
0
VERTEX
8
OBJECT004
10
0
20
0
30
0
70
128
71
5
72
6
73
-7
0
VERTEX
8
OBJECT004
10
0
20
0
30
0
70
128
71
-5
72
7
73
8
0
SEQEND
8
OBJECT004
0
POLYLINE
8
OBJECT005
66
1
70
64
71
8
72
12
62
50
0
VERTEX
8
OBJECT005
10
132.000000
20
-56.050171
30
-6.183289
70
192
0
VERTEX
8
OBJECT005
10
132.000000
20
-28.000000
30
-62.472656
70
192
0
VERTEX
8
OBJECT005
10
-124.000000
20
-28.000000
30
-62.472656
70
192
0
VERTEX
8
OBJECT005
10
-124.000000
20
-56.050171
30
-6.183289
70
192
0
VERTEX
8
OBJECT005
10
-124.000000
20
-19.339966
30
-62.471008
70
192
0
VERTEX
8
OBJECT005
10
132.000000
20
-19.339966
30
-62.471008
70
192
0
VERTEX
8
OBJECT005
10
132.000000
20
-52.000000
30
1.764954
70
192
0
VERTEX
8
OBJECT005
10
-124.000000
20
-52.000000
30
1.764954
70
192
0
VERTEX
8
OBJECT005
10
0
20
0
30
0
70
128
71
2
72
3
73
-4
0
VERTEX
8
OBJECT005
10
0
20
0
30
0
70
128
71
-2
72
4
73
1
0
VERTEX
8
OBJECT005
10
0
20
0
30
0
70
128
71
3
72
2
73
-6
0
VERTEX
8
OBJECT005
10
0
20
0
30
0
70
128
71
-3
72
6
73
5
0
VERTEX
8
OBJECT005
10
0
20
0
30
0
70
128
71
2
72
1
73
-7
0
VERTEX
8
OBJECT005
10
0
20
0
30
0
70
128
71
-2
72
7
73
6
0
VERTEX
8
OBJECT005
10
0
20
0
30
0
70
128
71
4
72
3
73
-5
0
VERTEX
8
OBJECT005
10
0
20
0
30
0
70
128
71
-4
72
5
73
8
0
VERTEX
8
OBJECT005
10
0
20
0
30
0
70
128
71
1
72
4
73
-8
0
VERTEX
8
OBJECT005
10
0
20
0
30
0
70
128
71
-1
72
8
73
7
0
VERTEX
8
OBJECT005
10
0
20
0
30
0
70
128
71
6
72
7
73
-8
0
VERTEX
8
OBJECT005
10
0
20
0
30
0
70
128
71
-6
72
8
73
5
0
SEQEND
8
OBJECT005
0
POLYLINE
8
OBJECT006
66
1
70
64
71
8
72
12
62
50
0
VERTEX
8
OBJECT006
10
-124.000000
20
64.049805
30
-6.182434
70
192
0
VERTEX
8
OBJECT006
10
-124.000000
20
40.570923
30
-53.294006
70
192
0
VERTEX
8
OBJECT006
10
132.000000
20
40.570923
30
-53.294006
70
192
0
VERTEX
8
OBJECT006
10
132.000000
20
64.049805
30
-6.182434
70
192
0
VERTEX
8
OBJECT006
10
132.000000
20
60.000000
30
1.764099
70
192
0
VERTEX
8
OBJECT006
10
132.000000
20
32.000000
30
-53.294006
70
192
0
VERTEX
8
OBJECT006
10
-124.000000
20
32.000000
30
-53.294006
70
192
0
VERTEX
8
OBJECT006
10
-124.000000
20
60.000000
30
1.764099
70
192
0
VERTEX
8
OBJECT006
10
0
20
0
30
0
70
128
71
2
72
3
73
-4
0
VERTEX
8
OBJECT006
10
0
20
0
30
0
70
128
71
-2
72
4
73
1
0
VERTEX
8
OBJECT006
10
0
20
0
30
0
70
128
71
4
72
3
73
-6
0
VERTEX
8
OBJECT006
10
0
20
0
30
0
70
128
71
-4
72
6
73
5
0
VERTEX
8
OBJECT006
10
0
20
0
30
0
70
128
71
2
72
1
73
-8
0
VERTEX
8
OBJECT006
10
0
20
0
30
0
70
128
71
-2
72
8
73
7
0
VERTEX
8
OBJECT006
10
0
20
0
30
0
70
128
71
1
72
4
73
-5
0
VERTEX
8
OBJECT006
10
0
20
0
30
0
70
128
71
-1
72
5
73
8
0
VERTEX
8
OBJECT006
10
0
20
0
30
0
70
128
71
2
72
7
73
-6
0
VERTEX
8
OBJECT006
10
0
20
0
30
0
70
128
71
-2
72
6
73
3
0
VERTEX
8
OBJECT006
10
0
20
0
30
0
70
128
71
8
72
5
73
-6
0
VERTEX
8
OBJECT006
10
0
20
0
30
0
70
128
71
-8
72
6
73
7
0
SEQEND
8
OBJECT006
0
POLYLINE
8
OBJECT007
66
1
70
64
71
8
72
12
62
50
0
VERTEX
8
OBJECT007
10
-124.000000
20
40.570679
30
-53.294006
70
192
0
VERTEX
8
OBJECT007
10
-124.000000
20
36.000000
30
-62.471008
70
192
0
VERTEX
8
OBJECT007
10
-4.000000
20
36.000000
30
-62.471008
70
192
0
VERTEX
8
OBJECT007
10
-4.000000
20
40.570679
30
-53.294006
70
192
0
VERTEX
8
OBJECT007
10
-124.000000
20
-24.000000
30
-53.294006
70
192
0
VERTEX
8
OBJECT007
10
-124.000000
20
-19.340942
30
-62.471008
70
192
0
VERTEX
8
OBJECT007
10
-4.000000
20
-19.339966
30
-62.471008
70
192
0
VERTEX
8
OBJECT007
10
-4.000000
20
-24.000000
30
-53.294006
70
192
0
VERTEX
8
OBJECT007
10
0
20
0
30
0
70
128
71
2
72
3
73
-4
0
VERTEX
8
OBJECT007
10
0
20
0
30
0
70
128
71
-2
72
4
73
1
0
VERTEX
8
OBJECT007
10
0
20
0
30
0
70
128
71
6
72
2
73
-1
0
VERTEX
8
OBJECT007
10
0
20
0
30
0
70
128
71
-6
72
1
73
5
0
VERTEX
8
OBJECT007
10
0
20
0
30
0
70
128
71
6
72
5
73
-8
0
VERTEX
8
OBJECT007
10
0
20
0
30
0
70
128
71
-6
72
8
73
7
0
VERTEX
8
OBJECT007
10
0
20
0
30
0
70
128
71
5
72
1
73
-4
0
VERTEX
8
OBJECT007
10
0
20
0
30
0
70
128
71
-5
72
4
73
8
0
VERTEX
8
OBJECT007
10
0
20
0
30
0
70
128
71
2
72
6
73
-7
0
VERTEX
8
OBJECT007
10
0
20
0
30
0
70
128
71
-2
72
7
73
3
0
VERTEX
8
OBJECT007
10
0
20
0
30
0
70
128
71
3
72
7
73
-8
0
VERTEX
8
OBJECT007
10
0
20
0
30
0
70
128
71
-3
72
8
73
4
0
SEQEND
8
OBJECT007
0
POLYLINE
8
OBJECT008
66
1
70
64
71
8
72
12
62
50
0
VERTEX
8
OBJECT008
10
14.000000
20
36.000000
30
-62.471008
70
192
0
VERTEX
8
OBJECT008
10
132.000000
20
36.000000
30
-62.471008
70
192
0
VERTEX
8
OBJECT008
10
132.000000
20
40.570679
30
-53.294006
70
192
0
VERTEX
8
OBJECT008
10
14.000000
20
40.570679
30
-53.294006
70
192
0
VERTEX
8
OBJECT008
10
132.000000
20
-19.340942
30
-62.471008
70
192
0
VERTEX
8
OBJECT008
10
132.000000
20
-24.000000
30
-53.294006
70
192
0
VERTEX
8
OBJECT008
10
14.000000
20
-19.339966
30
-62.471008
70
192
0
VERTEX
8
OBJECT008
10
14.000000
20
-24.000000
30
-53.294006
70
192
0
VERTEX
8
OBJECT008
10
0
20
0
30
0
70
128
71
2
72
3
73
-4
0
VERTEX
8
OBJECT008
10
0
20
0
30
0
70
128
71
-2
72
4
73
1
0
VERTEX
8
OBJECT008
10
0
20
0
30
0
70
128
71
2
72
5
73
-6
0
VERTEX
8
OBJECT008
10
0
20
0
30
0
70
128
71
-2
72
6
73
3
0
VERTEX
8
OBJECT008
10
0
20
0
30
0
70
128
71
5
72
7
73
-8
0
VERTEX
8
OBJECT008
10
0
20
0
30
0
70
128
71
-5
72
8
73
6
0
VERTEX
8
OBJECT008
10
0
20
0
30
0
70
128
71
3
72
6
73
-8
0
VERTEX
8
OBJECT008
10
0
20
0
30
0
70
128
71
-3
72
8
73
4
0
VERTEX
8
OBJECT008
10
0
20
0
30
0
70
128
71
1
72
7
73
-5
0
VERTEX
8
OBJECT008
10
0
20
0
30
0
70
128
71
-1
72
5
73
2
0
VERTEX
8
OBJECT008
10
0
20
0
30
0
70
128
71
7
72
1
73
-4
0
VERTEX
8
OBJECT008
10
0
20
0
30
0
70
128
71
-7
72
4
73
8
0
SEQEND
8
OBJECT008
0
POLYLINE
8
OBJECT009
66
1
70
64
71
8
72
12
62
50
0
VERTEX
8
OBJECT009
10
-4.000000
20
36.000000
30
-62.471008
70
192
0
VERTEX
8
OBJECT009
10
14.000000
20
36.000000
30
-62.471008
70
192
0
VERTEX
8
OBJECT009
10
14.000000
20
40.571167
30
-53.292969
70
192
0
VERTEX
8
OBJECT009
10
-4.000000
20
40.571167
30
-53.292969
70
192
0
VERTEX
8
OBJECT009
10
-4.000000
20
17.709961
30
-53.294006
70
192
0
VERTEX
8
OBJECT009
10
14.000000
20
17.709961
30
-53.294006
70
192
0
VERTEX
8
OBJECT009
10
-4.000000
20
17.709961
30
-62.471008
70
192
0
VERTEX
8
OBJECT009
10
14.000000
20
17.709961
30
-62.471008
70
192
0
VERTEX
8
OBJECT009
10
0
20
0
30
0
70
128
71
2
72
3
73
-4
0
VERTEX
8
OBJECT009
10
0
20
0
30
0
70
128
71
-2
72
4
73
1
0
VERTEX
8
OBJECT009
10
0
20
0
30
0
70
128
71
4
72
3
73
-6
0
VERTEX
8
OBJECT009
10
0
20
0
30
0
70
128
71
-4
72
6
73
5
0
VERTEX
8
OBJECT009
10
0
20
0
30
0
70
128
71
1
72
7
73
-8
0
VERTEX
8
OBJECT009
10
0
20
0
30
0
70
128
71
-1
72
8
73
2
0
VERTEX
8
OBJECT009
10
0
20
0
30
0
70
128
71
1
72
4
73
-5
0
VERTEX
8
OBJECT009
10
0
20
0
30
0
70
128
71
-1
72
5
73
7
0
VERTEX
8
OBJECT009
10
0
20
0
30
0
70
128
71
2
72
8
73
-6
0
VERTEX
8
OBJECT009
10
0
20
0
30
0
70
128
71
-2
72
6
73
3
0
VERTEX
8
OBJECT009
10
0
20
0
30
0
70
128
71
7
72
5
73
-6
0
VERTEX
8
OBJECT009
10
0
20
0
30
0
70
128
71
-7
72
6
73
8
0
SEQEND
8
OBJECT009
0
POLYLINE
8
OBJECT010
66
1
70
64
71
8
72
12
62
50
0
VERTEX
8
OBJECT010
10
14.000000
20
-19.339966
30
-62.471008
70
192
0
VERTEX
8
OBJECT010
10
-4.000000
20
-19.339966
30
-62.471008
70
192
0
VERTEX
8
OBJECT010
10
-4.000000
20
-24.000000
30
-53.292969
70
192
0
VERTEX
8
OBJECT010
10
14.000000
20
-24.000000
30
-53.292969
70
192
0
VERTEX
8
OBJECT010
10
-4.000000
20
-9.709961
30
-53.294006
70
192
0
VERTEX
8
OBJECT010
10
14.000000
20
-9.709961
30
-53.294006
70
192
0
VERTEX
8
OBJECT010
10
-4.000000
20
-9.709961
30
-62.471008
70
192
0
VERTEX
8
OBJECT010
10
14.000000
20
-9.709961
30
-62.471008
70
192
0
VERTEX
8
OBJECT010
10
0
20
0
30
0
70
128
71
2
72
3
73
-4
0
VERTEX
8
OBJECT010
10
0
20
0
30
0
70
128
71
-2
72
4
73
1
0
VERTEX
8
OBJECT010
10
0
20
0
30
0
70
128
71
3
72
5
73
-6
0
VERTEX
8
OBJECT010
10
0
20
0
30
0
70
128
71
-3
72
6
73
4
0
VERTEX
8
OBJECT010
10
0
20
0
30
0
70
128
71
2
72
1
73
-8
0
VERTEX
8
OBJECT010
10
0
20
0
30
0
70
128
71
-2
72
8
73
7
0
VERTEX
8
OBJECT010
10
0
20
0
30
0
70
128
71
2
72
7
73
-5
0
VERTEX
8
OBJECT010
10
0
20
0
30
0
70
128
71
-2
72
5
73
3
0
VERTEX
8
OBJECT010
10
0
20
0
30
0
70
128
71
1
72
4
73
-6
0
VERTEX
8
OBJECT010
10
0
20
0
30
0
70
128
71
-1
72
6
73
8
0
VERTEX
8
OBJECT010
10
0
20
0
30
0
70
128
71
8
72
6
73
-5
0
VERTEX
8
OBJECT010
10
0
20
0
30
0
70
128
71
-8
72
5
73
7
0
SEQEND
8
OBJECT010
0
POLYLINE
8
OBJECT011
66
1
70
64
71
8
72
12
62
50
0
VERTEX
8
OBJECT011
10
-124.000000
20
36.000000
30
-90.000000
70
192
0
VERTEX
8
OBJECT011
10
-124.000000
20
-28.000000
30
-90.000000
70
192
0
VERTEX
8
OBJECT011
10
132.000000
20
-28.000000
30
-90.000000
70
192
0
VERTEX
8
OBJECT011
10
132.000000
20
36.000000
30
-90.000000
70
192
0
VERTEX
8
OBJECT011
10
-124.000000
20
-28.000000
30
-87.705994
70
192
0
VERTEX
8
OBJECT011
10
-124.000000
20
36.000000
30
-87.705994
70
192
0
VERTEX
8
OBJECT011
10
132.000000
20
36.000000
30
-87.705994
70
192
0
VERTEX
8
OBJECT011
10
132.000000
20
-28.000000
30
-87.705994
70
192
0
VERTEX
8
OBJECT011
10
0
20
0
30
0
70
128
71
2
72
3
73
-4
0
VERTEX
8
OBJECT011
10
0
20
0
30
0
70
128
71
-2
72
4
73
1
0
VERTEX
8
OBJECT011
10
0
20
0
30
0
70
128
71
2
72
1
73
-6
0
VERTEX
8
OBJECT011
10
0
20
0
30
0
70
128
71
-2
72
6
73
5
0
VERTEX
8
OBJECT011
10
0
20
0
30
0
70
128
71
4
72
3
73
-8
0
VERTEX
8
OBJECT011
10
0
20
0
30
0
70
128
71
-4
72
8
73
7
0
VERTEX
8
OBJECT011
10
0
20
0
30
0
70
128
71
1
72
4
73
-7
0
VERTEX
8
OBJECT011
10
0
20
0
30
0
70
128
71
-1
72
7
73
6
0
VERTEX
8
OBJECT011
10
0
20
0
30
0
70
128
71
3
72
2
73
-5
0
VERTEX
8
OBJECT011
10
0
20
0
30
0
70
128
71
-3
72
5
73
8
0
VERTEX
8
OBJECT011
10
0
20
0
30
0
70
128
71
6
72
7
73
-8
0
VERTEX
8
OBJECT011
10
0
20
0
30
0
70
128
71
-6
72
8
73
5
0
SEQEND
8
OBJECT011
0
POLYLINE
8
OBJECT012
66
1
70
64
71
8
72
12
62
50
0
VERTEX
8
OBJECT012
10
-124.000000
20
-28.000000
30
-64.765625
70
192
0
VERTEX
8
OBJECT012
10
-124.000000
20
-28.000000
30
-87.705994
70
192
0
VERTEX
8
OBJECT012
10
-124.000000
20
36.000000
30
-87.705994
70
192
0
VERTEX
8
OBJECT012
10
-124.000000
20
36.000000
30
-64.765625
70
192
0
VERTEX
8
OBJECT012
10
-122.000000
20
36.000000
30
-87.705994
70
192
0
VERTEX
8
OBJECT012
10
-122.000000
20
36.000000
30
-64.765625
70
192
0
VERTEX
8
OBJECT012
10
-122.000000
20
-28.000000
30
-87.705994
70
192
0
VERTEX
8
OBJECT012
10
-122.000000
20
-28.000000
30
-64.765625
70
192
0
VERTEX
8
OBJECT012
10
0
20
0
30
0
70
128
71
2
72
3
73
-4
0
VERTEX
8
OBJECT012
10
0
20
0
30
0
70
128
71
-2
72
4
73
1
0
VERTEX
8
OBJECT012
10
0
20
0
30
0
70
128
71
3
72
5
73
-6
0
VERTEX
8
OBJECT012
10
0
20
0
30
0
70
128
71
-3
72
6
73
4
0
VERTEX
8
OBJECT012
10
0
20
0
30
0
70
128
71
2
72
1
73
-8
0
VERTEX
8
OBJECT012
10
0
20
0
30
0
70
128
71
-2
72
8
73
7
0
VERTEX
8
OBJECT012
10
0
20
0
30
0
70
128
71
1
72
4
73
-6
0
VERTEX
8
OBJECT012
10
0
20
0
30
0
70
128
71
-1
72
6
73
8
0
VERTEX
8
OBJECT012
10
0
20
0
30
0
70
128
71
3
72
2
73
-7
0
VERTEX
8
OBJECT012
10
0
20
0
30
0
70
128
71
-3
72
7
73
5
0
VERTEX
8
OBJECT012
10
0
20
0
30
0
70
128
71
5
72
7
73
-8
0
VERTEX
8
OBJECT012
10
0
20
0
30
0
70
128
71
-5
72
8
73
6
0
SEQEND
8
OBJECT012
0
POLYLINE
8
OBJECT013
66
1
70
64
71
8
72
12
62
50
0
VERTEX
8
OBJECT013
10
132.000000
20
36.000000
30
-64.765625
70
192
0
VERTEX
8
OBJECT013
10
132.000000
20
36.000000
30
-87.705994
70
192
0
VERTEX
8
OBJECT013
10
132.000000
20
-28.000000
30
-87.705994
70
192
0
VERTEX
8
OBJECT013
10
132.000000
20
-28.000000
30
-64.765625
70
192
0
VERTEX
8
OBJECT013
10
130.000000
20
36.000000
30
-87.705994
70
192
0
VERTEX
8
OBJECT013
10
130.000000
20
36.000000
30
-64.765625
70
192
0
VERTEX
8
OBJECT013
10
130.000000
20
-28.000000
30
-87.705994
70
192
0
VERTEX
8
OBJECT013
10
130.000000
20
-28.000000
30
-64.765625
70
192
0
VERTEX
8
OBJECT013
10
0
20
0
30
0
70
128
71
2
72
3
73
-4
0
VERTEX
8
OBJECT013
10
0
20
0
30
0
70
128
71
-2
72
4
73
1
0
VERTEX
8
OBJECT013
10
0
20
0
30
0
70
128
71
2
72
1
73
-6
0
VERTEX
8
OBJECT013
10
0
20
0
30
0
70
128
71
-2
72
6
73
5
0
VERTEX
8
OBJECT013
10
0
20
0
30
0
70
128
71
3
72
7
73
-8
0
VERTEX
8
OBJECT013
10
0
20
0
30
0
70
128
71
-3
72
8
73
4
0
VERTEX
8
OBJECT013
10
0
20
0
30
0
70
128
71
1
72
4
73
-8
0
VERTEX
8
OBJECT013
10
0
20
0
30
0
70
128
71
-1
72
8
73
6
0
VERTEX
8
OBJECT013
10
0
20
0
30
0
70
128
71
3
72
2
73
-5
0
VERTEX
8
OBJECT013
10
0
20
0
30
0
70
128
71
-3
72
5
73
7
0
VERTEX
8
OBJECT013
10
0
20
0
30
0
70
128
71
7
72
5
73
-6
0
VERTEX
8
OBJECT013
10
0
20
0
30
0
70
128
71
-7
72
6
73
8
0
SEQEND
8
OBJECT013
0
POLYLINE
8
OBJECT014
66
1
70
64
71
8
72
12
62
50
0
VERTEX
8
OBJECT014
10
-122.000000
20
36.000000
30
-87.705994
70
192
0
VERTEX
8
OBJECT014
10
130.000000
20
36.000000
30
-87.705994
70
192
0
VERTEX
8
OBJECT014
10
130.000000
20
36.000000
30
-64.765625
70
192
0
VERTEX
8
OBJECT014
10
-122.000000
20
36.000000
30
-64.765625
70
192
0
VERTEX
8
OBJECT014
10
-122.000000
20
33.709961
30
-64.765015
70
192
0
VERTEX
8
OBJECT014
10
130.000000
20
33.709961
30
-64.765015
70
192
0
VERTEX
8
OBJECT014
10
-122.000000
20
33.709961
30
-87.705994
70
192
0
VERTEX
8
OBJECT014
10
130.000000
20
33.709961
30
-87.705994
70
192
0
VERTEX
8
OBJECT014
10
0
20
0
30
0
70
128
71
2
72
3
73
-4
0
VERTEX
8
OBJECT014
10
0
20
0
30
0
70
128
71
-2
72
4
73
1
0
VERTEX
8
OBJECT014
10
0
20
0
30
0
70
128
71
4
72
3
73
-6
0
VERTEX
8
OBJECT014
10
0
20
0
30
0
70
128
71
-4
72
6
73
5
0
VERTEX
8
OBJECT014
10
0
20
0
30
0
70
128
71
1
72
7
73
-8
0
VERTEX
8
OBJECT014
10
0
20
0
30
0
70
128
71
-1
72
8
73
2
0
VERTEX
8
OBJECT014
10
0
20
0
30
0
70
128
71
1
72
4
73
-5
0
VERTEX
8
OBJECT014
10
0
20
0
30
0
70
128
71
-1
72
5
73
7
0
VERTEX
8
OBJECT014
10
0
20
0
30
0
70
128
71
2
72
8
73
-6
0
VERTEX
8
OBJECT014
10
0
20
0
30
0
70
128
71
-2
72
6
73
3
0
VERTEX
8
OBJECT014
10
0
20
0
30
0
70
128
71
7
72
5
73
-6
0
VERTEX
8
OBJECT014
10
0
20
0
30
0
70
128
71
-7
72
6
73
8
0
SEQEND
8
OBJECT014
0
POLYLINE
8
OBJECT015
66
1
70
64
71
8
72
12
62
50
0
VERTEX
8
OBJECT015
10
130.000000
20
-28.000000
30
-87.705994
70
192
0
VERTEX
8
OBJECT015
10
-122.000000
20
-28.000000
30
-87.705994
70
192
0
VERTEX
8
OBJECT015
10
-122.000000
20
-28.000000
30
-64.765625
70
192
0
VERTEX
8
OBJECT015
10
130.000000
20
-28.000000
30
-64.765625
70
192
0
VERTEX
8
OBJECT015
10
-122.000000
20
-25.709961
30
-64.765015
70
192
0
VERTEX
8
OBJECT015
10
130.000000
20
-25.709961
30
-64.765015
70
192
0
VERTEX
8
OBJECT015
10
-122.000000
20
-25.709961
30
-87.705994
70
192
0
VERTEX
8
OBJECT015
10
130.000000
20
-25.709961
30
-87.705994
70
192
0
VERTEX
8
OBJECT015
10
0
20
0
30
0
70
128
71
2
72
3
73
-4
0
VERTEX
8
OBJECT015
10
0
20
0
30
0
70
128
71
-2
72
4
73
1
0
VERTEX
8
OBJECT015
10
0
20
0
30
0
70
128
71
3
72
5
73
-6
0
VERTEX
8
OBJECT015
10
0
20
0
30
0
70
128
71
-3
72
6
73
4
0
VERTEX
8
OBJECT015
10
0
20
0
30
0
70
128
71
2
72
1
73
-8
0
VERTEX
8
OBJECT015
10
0
20
0
30
0
70
128
71
-2
72
8
73
7
0
VERTEX
8
OBJECT015
10
0
20
0
30
0
70
128
71
2
72
7
73
-5
0
VERTEX
8
OBJECT015
10
0
20
0
30
0
70
128
71
-2
72
5
73
3
0
VERTEX
8
OBJECT015
10
0
20
0
30
0
70
128
71
1
72
4
73
-6
0
VERTEX
8
OBJECT015
10
0
20
0
30
0
70
128
71
-1
72
6
73
8
0
VERTEX
8
OBJECT015
10
0
20
0
30
0
70
128
71
8
72
6
73
-5
0
VERTEX
8
OBJECT015
10
0
20
0
30
0
70
128
71
-8
72
5
73
7
0
SEQEND
8
OBJECT015
0
POLYLINE
8
OBJECT016
66
1
70
64
71
8
72
12
62
50
0
VERTEX
8
OBJECT016
10
-2.000000
20
-28.000000
30
-62.471008
70
192
0
VERTEX
8
OBJECT016
10
-124.000000
20
-28.000000
30
-62.471008
70
192
0
VERTEX
8
OBJECT016
10
-124.000000
20
36.000000
30
-62.471008
70
192
0
VERTEX
8
OBJECT016
10
-2.000000
20
36.000000
30
-62.471008
70
192
0
VERTEX
8
OBJECT016
10
-124.000000
20
36.000000
30
-64.765015
70
192
0
VERTEX
8
OBJECT016
10
-124.000000
20
-28.000000
30
-64.765015
70
192
0
VERTEX
8
OBJECT016
10
-2.000000
20
36.000000
30
-64.765015
70
192
0
VERTEX
8
OBJECT016
10
-2.000000
20
-28.000000
30
-64.765015
70
192
0
VERTEX
8
OBJECT016
10
0
20
0
30
0
70
128
71
2
72
3
73
-4
0
VERTEX
8
OBJECT016
10
0
20
0
30
0
70
128
71
-2
72
4
73
1
0
VERTEX
8
OBJECT016
10
0
20
0
30
0
70
128
71
3
72
2
73
-6
0
VERTEX
8
OBJECT016
10
0
20
0
30
0
70
128
71
-3
72
6
73
5
0
VERTEX
8
OBJECT016
10
0
20
0
30
0
70
128
71
3
72
5
73
-7
0
VERTEX
8
OBJECT016
10
0
20
0
30
0
70
128
71
-3
72
7
73
4
0
VERTEX
8
OBJECT016
10
0
20
0
30
0
70
128
71
6
72
2
73
-1
0
VERTEX
8
OBJECT016
10
0
20
0
30
0
70
128
71
-6
72
1
73
8
0
VERTEX
8
OBJECT016
10
0
20
0
30
0
70
128
71
5
72
6
73
-8
0
VERTEX
8
OBJECT016
10
0
20
0
30
0
70
128
71
-5
72
8
73
7
0
VERTEX
8
OBJECT016
10
0
20
0
30
0
70
128
71
1
72
4
73
-7
0
VERTEX
8
OBJECT016
10
0
20
0
30
0
70
128
71
-1
72
7
73
8
0
SEQEND
8
OBJECT016
0
POLYLINE
8
OBJECT017
66
1
70
64
71
8
72
12
62
50
0
VERTEX
8
OBJECT017
10
12.000000
20
36.000000
30
-62.471008
70
192
0
VERTEX
8
OBJECT017
10
132.000000
20
36.000000
30
-62.471008
70
192
0
VERTEX
8
OBJECT017
10
132.000000
20
-28.000000
30
-62.471008
70
192
0
VERTEX
8
OBJECT017
10
12.000000
20
-28.000000
30
-62.471008
70
192
0
VERTEX
8
OBJECT017
10
132.000000
20
-28.000000
30
-64.765015
70
192
0
VERTEX
8
OBJECT017
10
132.000000
20
36.000000
30
-64.765015
70
192
0
VERTEX
8
OBJECT017
10
12.000000
20
36.000000
30
-64.765015
70
192
0
VERTEX
8
OBJECT017
10
12.000000
20
-28.000000
30
-64.765015
70
192
0
VERTEX
8
OBJECT017
10
0
20
0
30
0
70
128
71
2
72
3
73
-4
0
VERTEX
8
OBJECT017
10
0
20
0
30
0
70
128
71
-2
72
4
73
1
0
VERTEX
8
OBJECT017
10
0
20
0
30
0
70
128
71
3
72
2
73
-6
0
VERTEX
8
OBJECT017
10
0
20
0
30
0
70
128
71
-3
72
6
73
5
0
VERTEX
8
OBJECT017
10
0
20
0
30
0
70
128
71
6
72
2
73
-1
0
VERTEX
8
OBJECT017
10
0
20
0
30
0
70
128
71
-6
72
1
73
7
0
VERTEX
8
OBJECT017
10
0
20
0
30
0
70
128
71
3
72
5
73
-8
0
VERTEX
8
OBJECT017
10
0
20
0
30
0
70
128
71
-3
72
8
73
4
0
VERTEX
8
OBJECT017
10
0
20
0
30
0
70
128
71
5
72
6
73
-7
0
VERTEX
8
OBJECT017
10
0
20
0
30
0
70
128
71
-5
72
7
73
8
0
VERTEX
8
OBJECT017
10
0
20
0
30
0
70
128
71
1
72
4
73
-8
0
VERTEX
8
OBJECT017
10
0
20
0
30
0
70
128
71
-1
72
8
73
7
0
SEQEND
8
OBJECT017
0
POLYLINE
8
OBJECT018
66
1
70
64
71
8
72
12
62
50
0
VERTEX
8
OBJECT018
10
-2.000000
20
15.430054
30
-62.471008
70
192
0
VERTEX
8
OBJECT018
10
-2.000000
20
36.000000
30
-62.471008
70
192
0
VERTEX
8
OBJECT018
10
12.000000
20
36.000000
30
-62.471008
70
192
0
VERTEX
8
OBJECT018
10
12.000000
20
15.430054
30
-62.471008
70
192
0
VERTEX
8
OBJECT018
10
-2.000000
20
36.000000
30
-64.765015
70
192
0
VERTEX
8
OBJECT018
10
12.000000
20
36.000000
30
-64.765015
70
192
0
VERTEX
8
OBJECT018
10
-2.000000
20
15.430054
30
-64.765015
70
192
0
VERTEX
8
OBJECT018
10
12.000000
20
15.430054
30
-64.765015
70
192
0
VERTEX
8
OBJECT018
10
0
20
0
30
0
70
128
71
2
72
3
73
-4
0
VERTEX
8
OBJECT018
10
0
20
0
30
0
70
128
71
-2
72
4
73
1
0
VERTEX
8
OBJECT018
10
0
20
0
30
0
70
128
71
6
72
3
73
-2
0
VERTEX
8
OBJECT018
10
0
20
0
30
0
70
128
71
-6
72
2
73
5
0
VERTEX
8
OBJECT018
10
0
20
0
30
0
70
128
71
5
72
7
73
-8
0
VERTEX
8
OBJECT018
10
0
20
0
30
0
70
128
71
-5
72
8
73
6
0
VERTEX
8
OBJECT018
10
0
20
0
30
0
70
128
71
5
72
2
73
-1
0
VERTEX
8
OBJECT018
10
0
20
0
30
0
70
128
71
-5
72
1
73
7
0
VERTEX
8
OBJECT018
10
0
20
0
30
0
70
128
71
3
72
6
73
-8
0
VERTEX
8
OBJECT018
10
0
20
0
30
0
70
128
71
-3
72
8
73
4
0
VERTEX
8
OBJECT018
10
0
20
0
30
0
70
128
71
7
72
1
73
-4
0
VERTEX
8
OBJECT018
10
0
20
0
30
0
70
128
71
-7
72
4
73
8
0
SEQEND
8
OBJECT018
0
POLYLINE
8
OBJECT019
66
1
70
64
71
8
72
12
62
50
0
VERTEX
8
OBJECT019
10
12.000000
20
-28.000000
30
-62.471008
70
192
0
VERTEX
8
OBJECT019
10
-2.000000
20
-28.000000
30
-62.471008
70
192
0
VERTEX
8
OBJECT019
10
-2.000000
20
-7.430054
30
-62.471008
70
192
0
VERTEX
8
OBJECT019
10
12.000000
20
-7.430054
30
-62.471008
70
192
0
VERTEX
8
OBJECT019
10
12.000000
20
-28.000000
30
-64.765015
70
192
0
VERTEX
8
OBJECT019
10
-2.000000
20
-28.000000
30
-64.765015
70
192
0
VERTEX
8
OBJECT019
10
-2.000000
20
-7.430054
30
-64.765015
70
192
0
VERTEX
8
OBJECT019
10
12.000000
20
-7.430054
30
-64.765015
70
192
0
VERTEX
8
OBJECT019
10
0
20
0
30
0
70
128
71
2
72
3
73
-4
0
VERTEX
8
OBJECT019
10
0
20
0
30
0
70
128
71
-2
72
4
73
1
0
VERTEX
8
OBJECT019
10
0
20
0
30
0
70
128
71
6
72
2
73
-1
0
VERTEX
8
OBJECT019
10
0
20
0
30
0
70
128
71
-6
72
1
73
5
0
VERTEX
8
OBJECT019
10
0
20
0
30
0
70
128
71
6
72
5
73
-8
0
VERTEX
8
OBJECT019
10
0
20
0
30
0
70
128
71
-6
72
8
73
7
0
VERTEX
8
OBJECT019
10
0
20
0
30
0
70
128
71
2
72
6
73
-7
0
VERTEX
8
OBJECT019
10
0
20
0
30
0
70
128
71
-2
72
7
73
3
0
VERTEX
8
OBJECT019
10
0
20
0
30
0
70
128
71
5
72
1
73
-4
0
VERTEX
8
OBJECT019
10
0
20
0
30
0
70
128
71
-5
72
4
73
8
0
VERTEX
8
OBJECT019
10
0
20
0
30
0
70
128
71
8
72
4
73
-3
0
VERTEX
8
OBJECT019
10
0
20
0
30
0
70
128
71
-8
72
3
73
7
0
SEQEND
8
OBJECT019
0
ENDSEC
0
EOF
