0
SECTION
2
HEADER
9
$ACADVER
1
AC1008
9
$UCSORG
10
0.0
20
0.0
30
0.0
9
$UCSXDIR
10
1.0
20
0.0
30
0.0
9
$TILEMODE
70
1
9
$UCSYDIR
10
0.0
20
1.0
30
0.0
9
$EXTMIN
10
-64.000000
20
-68.000000
30
-60.000000
9
$EXTMAX
10
64.000000
20
60.000000
30
68.000000
0
ENDSEC
0
SECTION
2
TABLES
0
TABLE
2
LTYPE
70
1
0
LTYPE
2
CONTINUOUS
70
64
3
Solid line
72
65
73
0
40
0.0
0
ENDTAB
0
TABLE
2
LAYER
70
1
0
LAYER
2
0
70
0
62
7
6
CONTINUOUS
0
ENDTAB
0
TABLE
2
STYLE
70
1
0
STYLE
2
STANDARD
70
0
40
0.0
41
1.0
50
0.0
71
0
42
0.2
3
txt
4

0
ENDTAB
0
TABLE
2
UCS
70
0
0
ENDTAB
0
ENDSEC
0
SECTION
2
ENTITIES
0
POLYLINE
8
OBJECT000
66
1
70
64
71
8
72
12
62
50
0
VERTEX
8
OBJECT000
10
38.000000
20
-68.000000
30
52.000000
70
192
0
VERTEX
8
OBJECT000
10
-37.000000
20
-68.000000
30
52.000000
70
192
0
VERTEX
8
OBJECT000
10
-37.000000
20
60.000000
30
52.000000
70
192
0
VERTEX
8
OBJECT000
10
38.000000
20
60.000000
30
52.000000
70
192
0
VERTEX
8
OBJECT000
10
41.000000
20
60.000000
30
50.000000
70
192
0
VERTEX
8
OBJECT000
10
-42.000000
20
60.000000
30
50.000000
70
192
0
VERTEX
8
OBJECT000
10
-42.000000
20
-68.000000
30
50.000000
70
192
0
VERTEX
8
OBJECT000
10
41.000000
20
-68.000000
30
50.000000
70
192
0
VERTEX
8
OBJECT000
10
0
20
0
30
0
70
128
71
2
72
3
73
-4
0
VERTEX
8
OBJECT000
10
0
20
0
30
0
70
128
71
-2
72
4
73
1
0
VERTEX
8
OBJECT000
10
0
20
0
30
0
70
128
71
6
72
7
73
-8
0
VERTEX
8
OBJECT000
10
0
20
0
30
0
70
128
71
-6
72
8
73
5
0
VERTEX
8
OBJECT000
10
0
20
0
30
0
70
128
71
5
72
4
73
-3
0
VERTEX
8
OBJECT000
10
0
20
0
30
0
70
128
71
-5
72
3
73
6
0
VERTEX
8
OBJECT000
10
0
20
0
30
0
70
128
71
7
72
2
73
-1
0
VERTEX
8
OBJECT000
10
0
20
0
30
0
70
128
71
-7
72
1
73
8
0
VERTEX
8
OBJECT000
10
0
20
0
30
0
70
128
71
4
72
5
73
-8
0
VERTEX
8
OBJECT000
10
0
20
0
30
0
70
128
71
-4
72
8
73
1
0
VERTEX
8
OBJECT000
10
0
20
0
30
0
70
128
71
6
72
3
73
-2
0
VERTEX
8
OBJECT000
10
0
20
0
30
0
70
128
71
-6
72
2
73
7
0
SEQEND
8
OBJECT000
0
POLYLINE
8
OBJECT001
66
1
70
64
71
8
72
12
62
50
0
VERTEX
8
OBJECT001
10
45.000000
20
-68.000000
30
-40.000000
70
192
0
VERTEX
8
OBJECT001
10
-45.000000
20
-68.000000
30
-40.000000
70
192
0
VERTEX
8
OBJECT001
10
-45.000000
20
60.000000
30
-40.000000
70
192
0
VERTEX
8
OBJECT001
10
45.000000
20
60.000000
30
-40.000000
70
192
0
VERTEX
8
OBJECT001
10
40.609985
20
60.000000
30
-42.000000
70
192
0
VERTEX
8
OBJECT001
10
-40.609863
20
60.000000
30
-42.000000
70
192
0
VERTEX
8
OBJECT001
10
-40.609863
20
-68.000000
30
-42.000000
70
192
0
VERTEX
8
OBJECT001
10
40.609985
20
-68.000000
30
-42.000000
70
192
0
VERTEX
8
OBJECT001
10
0
20
0
30
0
70
128
71
2
72
3
73
-4
0
VERTEX
8
OBJECT001
10
0
20
0
30
0
70
128
71
-2
72
4
73
1
0
VERTEX
8
OBJECT001
10
0
20
0
30
0
70
128
71
6
72
7
73
-8
0
VERTEX
8
OBJECT001
10
0
20
0
30
0
70
128
71
-6
72
8
73
5
0
VERTEX
8
OBJECT001
10
0
20
0
30
0
70
128
71
5
72
4
73
-3
0
VERTEX
8
OBJECT001
10
0
20
0
30
0
70
128
71
-5
72
3
73
6
0
VERTEX
8
OBJECT001
10
0
20
0
30
0
70
128
71
7
72
2
73
-1
0
VERTEX
8
OBJECT001
10
0
20
0
30
0
70
128
71
-7
72
1
73
8
0
VERTEX
8
OBJECT001
10
0
20
0
30
0
70
128
71
8
72
1
73
-4
0
VERTEX
8
OBJECT001
10
0
20
0
30
0
70
128
71
-8
72
4
73
5
0
VERTEX
8
OBJECT001
10
0
20
0
30
0
70
128
71
2
72
7
73
-6
0
VERTEX
8
OBJECT001
10
0
20
0
30
0
70
128
71
-2
72
6
73
3
0
SEQEND
8
OBJECT001
0
POLYLINE
8
OBJECT002
66
1
70
64
71
8
72
12
62
50
0
VERTEX
8
OBJECT002
10
0.000000
20
60.000000
30
-60.000000
70
192
0
VERTEX
8
OBJECT002
10
0.000000
20
-68.000000
30
-60.000000
70
192
0
VERTEX
8
OBJECT002
10
45.499634
20
-68.000000
30
-41.499878
70
192
0
VERTEX
8
OBJECT002
10
45.499634
20
60.000000
30
-41.499878
70
192
0
VERTEX
8
OBJECT002
10
46.469116
20
60.000000
30
-39.100342
70
192
0
VERTEX
8
OBJECT002
10
46.469116
20
-68.000000
30
-39.100342
70
192
0
VERTEX
8
OBJECT002
10
-2.460083
20
-68.000000
30
-59.000000
70
192
0
VERTEX
8
OBJECT002
10
-2.460083
20
60.000000
30
-59.000000
70
192
0
VERTEX
8
OBJECT002
10
0
20
0
30
0
70
128
71
2
72
3
73
-4
0
VERTEX
8
OBJECT002
10
0
20
0
30
0
70
128
71
-2
72
4
73
1
0
VERTEX
8
OBJECT002
10
0
20
0
30
0
70
128
71
4
72
3
73
-6
0
VERTEX
8
OBJECT002
10
0
20
0
30
0
70
128
71
-4
72
6
73
5
0
VERTEX
8
OBJECT002
10
0
20
0
30
0
70
128
71
2
72
1
73
-8
0
VERTEX
8
OBJECT002
10
0
20
0
30
0
70
128
71
-2
72
8
73
7
0
VERTEX
8
OBJECT002
10
0
20
0
30
0
70
128
71
3
72
2
73
-7
0
VERTEX
8
OBJECT002
10
0
20
0
30
0
70
128
71
-3
72
7
73
6
0
VERTEX
8
OBJECT002
10
0
20
0
30
0
70
128
71
1
72
4
73
-5
0
VERTEX
8
OBJECT002
10
0
20
0
30
0
70
128
71
-1
72
5
73
8
0
VERTEX
8
OBJECT002
10
0
20
0
30
0
70
128
71
8
72
5
73
-6
0
VERTEX
8
OBJECT002
10
0
20
0
30
0
70
128
71
-8
72
6
73
7
0
SEQEND
8
OBJECT002
0
POLYLINE
8
OBJECT003
66
1
70
64
71
8
72
12
62
50
0
VERTEX
8
OBJECT003
10
46.470947
20
-68.000000
30
-39.099609
70
192
0
VERTEX
8
OBJECT003
10
64.000000
20
-68.000000
30
4.000000
70
192
0
VERTEX
8
OBJECT003
10
64.000000
20
60.000000
30
4.000000
70
192
0
VERTEX
8
OBJECT003
10
46.470947
20
60.000000
30
-39.099609
70
192
0
VERTEX
8
OBJECT003
10
63.000000
20
60.000000
30
6.460938
70
192
0
VERTEX
8
OBJECT003
10
63.000000
20
-68.000000
30
6.460938
70
192
0
VERTEX
8
OBJECT003
10
44.079956
20
-68.000000
30
-40.080078
70
192
0
VERTEX
8
OBJECT003
10
44.079956
20
60.000000
30
-40.080078
70
192
0
VERTEX
8
OBJECT003
10
0
20
0
30
0
70
128
71
2
72
3
73
-4
0
VERTEX
8
OBJECT003
10
0
20
0
30
0
70
128
71
-2
72
4
73
1
0
VERTEX
8
OBJECT003
10
0
20
0
30
0
70
128
71
3
72
2
73
-6
0
VERTEX
8
OBJECT003
10
0
20
0
30
0
70
128
71
-3
72
6
73
5
0
VERTEX
8
OBJECT003
10
0
20
0
30
0
70
128
71
2
72
1
73
-7
0
VERTEX
8
OBJECT003
10
0
20
0
30
0
70
128
71
-2
72
7
73
6
0
VERTEX
8
OBJECT003
10
0
20
0
30
0
70
128
71
4
72
3
73
-5
0
VERTEX
8
OBJECT003
10
0
20
0
30
0
70
128
71
-4
72
5
73
8
0
VERTEX
8
OBJECT003
10
0
20
0
30
0
70
128
71
1
72
4
73
-8
0
VERTEX
8
OBJECT003
10
0
20
0
30
0
70
128
71
-1
72
8
73
7
0
VERTEX
8
OBJECT003
10
0
20
0
30
0
70
128
71
5
72
6
73
-7
0
VERTEX
8
OBJECT003
10
0
20
0
30
0
70
128
71
-5
72
7
73
8
0
SEQEND
8
OBJECT003
0
POLYLINE
8
OBJECT004
66
1
70
64
71
8
72
12
62
50
0
VERTEX
8
OBJECT004
10
63.000000
20
-68.000000
30
6.459229
70
192
0
VERTEX
8
OBJECT004
10
45.499268
20
-68.000000
30
49.500244
70
192
0
VERTEX
8
OBJECT004
10
45.499268
20
60.000000
30
49.500244
70
192
0
VERTEX
8
OBJECT004
10
63.000000
20
60.000000
30
6.459229
70
192
0
VERTEX
8
OBJECT004
10
43.099854
20
60.000000
30
50.470215
70
192
0
VERTEX
8
OBJECT004
10
43.099854
20
-68.000000
30
50.470215
70
192
0
VERTEX
8
OBJECT004
10
62.000000
20
-68.000000
30
4.000000
70
192
0
VERTEX
8
OBJECT004
10
62.000000
20
60.000000
30
4.000000
70
192
0
VERTEX
8
OBJECT004
10
0
20
0
30
0
70
128
71
2
72
3
73
-4
0
VERTEX
8
OBJECT004
10
0
20
0
30
0
70
128
71
-2
72
4
73
1
0
VERTEX
8
OBJECT004
10
0
20
0
30
0
70
128
71
3
72
2
73
-6
0
VERTEX
8
OBJECT004
10
0
20
0
30
0
70
128
71
-3
72
6
73
5
0
VERTEX
8
OBJECT004
10
0
20
0
30
0
70
128
71
1
72
7
73
-6
0
VERTEX
8
OBJECT004
10
0
20
0
30
0
70
128
71
-1
72
6
73
2
0
VERTEX
8
OBJECT004
10
0
20
0
30
0
70
128
71
4
72
3
73
-5
0
VERTEX
8
OBJECT004
10
0
20
0
30
0
70
128
71
-4
72
5
73
8
0
VERTEX
8
OBJECT004
10
0
20
0
30
0
70
128
71
1
72
4
73
-8
0
VERTEX
8
OBJECT004
10
0
20
0
30
0
70
128
71
-1
72
8
73
7
0
VERTEX
8
OBJECT004
10
0
20
0
30
0
70
128
71
5
72
6
73
-7
0
VERTEX
8
OBJECT004
10
0
20
0
30
0
70
128
71
-5
72
7
73
8
0
SEQEND
8
OBJECT004
0
POLYLINE
8
OBJECT005
66
1
70
64
71
8
72
12
62
50
0
VERTEX
8
OBJECT005
10
43.100098
20
-68.000000
30
50.469604
70
192
0
VERTEX
8
OBJECT005
10
0.000000
20
-68.000000
30
68.000000
70
192
0
VERTEX
8
OBJECT005
10
0.000000
20
60.000000
30
68.000000
70
192
0
VERTEX
8
OBJECT005
10
43.100098
20
60.000000
30
50.469604
70
192
0
VERTEX
8
OBJECT005
10
-2.461670
20
60.000000
30
67.000000
70
192
0
VERTEX
8
OBJECT005
10
-2.461670
20
-68.000000
30
67.000000
70
192
0
VERTEX
8
OBJECT005
10
44.079834
20
-68.000000
30
48.079956
70
192
0
VERTEX
8
OBJECT005
10
44.079834
20
60.000000
30
48.079956
70
192
0
VERTEX
8
OBJECT005
10
0
20
0
30
0
70
128
71
2
72
3
73
-4
0
VERTEX
8
OBJECT005
10
0
20
0
30
0
70
128
71
-2
72
4
73
1
0
VERTEX
8
OBJECT005
10
0
20
0
30
0
70
128
71
3
72
2
73
-6
0
VERTEX
8
OBJECT005
10
0
20
0
30
0
70
128
71
-3
72
6
73
5
0
VERTEX
8
OBJECT005
10
0
20
0
30
0
70
128
71
2
72
1
73
-7
0
VERTEX
8
OBJECT005
10
0
20
0
30
0
70
128
71
-2
72
7
73
6
0
VERTEX
8
OBJECT005
10
0
20
0
30
0
70
128
71
4
72
3
73
-5
0
VERTEX
8
OBJECT005
10
0
20
0
30
0
70
128
71
-4
72
5
73
8
0
VERTEX
8
OBJECT005
10
0
20
0
30
0
70
128
71
1
72
4
73
-8
0
VERTEX
8
OBJECT005
10
0
20
0
30
0
70
128
71
-1
72
8
73
7
0
VERTEX
8
OBJECT005
10
0
20
0
30
0
70
128
71
6
72
7
73
-8
0
VERTEX
8
OBJECT005
10
0
20
0
30
0
70
128
71
-6
72
8
73
5
0
SEQEND
8
OBJECT005
0
POLYLINE
8
OBJECT006
66
1
70
64
71
8
72
12
62
50
0
VERTEX
8
OBJECT006
10
-2.460449
20
-68.000000
30
67.000000
70
192
0
VERTEX
8
OBJECT006
10
-45.500000
20
-68.000000
30
49.500366
70
192
0
VERTEX
8
OBJECT006
10
-45.500000
20
60.000000
30
49.500366
70
192
0
VERTEX
8
OBJECT006
10
-2.460449
20
60.000000
30
67.000000
70
192
0
VERTEX
8
OBJECT006
10
-46.469238
20
60.000000
30
47.100342
70
192
0
VERTEX
8
OBJECT006
10
-46.469238
20
-68.000000
30
47.100342
70
192
0
VERTEX
8
OBJECT006
10
0.000000
20
-68.000000
30
66.000000
70
192
0
VERTEX
8
OBJECT006
10
0.000000
20
60.000000
30
66.000000
70
192
0
VERTEX
8
OBJECT006
10
0
20
0
30
0
70
128
71
2
72
3
73
-4
0
VERTEX
8
OBJECT006
10
0
20
0
30
0
70
128
71
-2
72
4
73
1
0
VERTEX
8
OBJECT006
10
0
20
0
30
0
70
128
71
3
72
2
73
-6
0
VERTEX
8
OBJECT006
10
0
20
0
30
0
70
128
71
-3
72
6
73
5
0
VERTEX
8
OBJECT006
10
0
20
0
30
0
70
128
71
2
72
1
73
-7
0
VERTEX
8
OBJECT006
10
0
20
0
30
0
70
128
71
-2
72
7
73
6
0
VERTEX
8
OBJECT006
10
0
20
0
30
0
70
128
71
4
72
3
73
-5
0
VERTEX
8
OBJECT006
10
0
20
0
30
0
70
128
71
-4
72
5
73
8
0
VERTEX
8
OBJECT006
10
0
20
0
30
0
70
128
71
1
72
4
73
-8
0
VERTEX
8
OBJECT006
10
0
20
0
30
0
70
128
71
-1
72
8
73
7
0
VERTEX
8
OBJECT006
10
0
20
0
30
0
70
128
71
6
72
7
73
-8
0
VERTEX
8
OBJECT006
10
0
20
0
30
0
70
128
71
-6
72
8
73
5
0
SEQEND
8
OBJECT006
0
POLYLINE
8
OBJECT007
66
1
70
64
71
8
72
12
62
50
0
VERTEX
8
OBJECT007
10
-46.470703
20
-68.000000
30
47.099731
70
192
0
VERTEX
8
OBJECT007
10
-64.000000
20
-68.000000
30
4.000000
70
192
0
VERTEX
8
OBJECT007
10
-64.000000
20
60.000000
30
4.000000
70
192
0
VERTEX
8
OBJECT007
10
-46.470703
20
60.000000
30
47.099731
70
192
0
VERTEX
8
OBJECT007
10
-63.000000
20
60.000000
30
1.539917
70
192
0
VERTEX
8
OBJECT007
10
-63.000000
20
-68.000000
30
1.539917
70
192
0
VERTEX
8
OBJECT007
10
-44.079956
20
-68.000000
30
48.079956
70
192
0
VERTEX
8
OBJECT007
10
-44.079956
20
60.000000
30
48.079956
70
192
0
VERTEX
8
OBJECT007
10
0
20
0
30
0
70
128
71
2
72
3
73
-4
0
VERTEX
8
OBJECT007
10
0
20
0
30
0
70
128
71
-2
72
4
73
1
0
VERTEX
8
OBJECT007
10
0
20
0
30
0
70
128
71
3
72
2
73
-6
0
VERTEX
8
OBJECT007
10
0
20
0
30
0
70
128
71
-3
72
6
73
5
0
VERTEX
8
OBJECT007
10
0
20
0
30
0
70
128
71
2
72
1
73
-7
0
VERTEX
8
OBJECT007
10
0
20
0
30
0
70
128
71
-2
72
7
73
6
0
VERTEX
8
OBJECT007
10
0
20
0
30
0
70
128
71
3
72
5
73
-8
0
VERTEX
8
OBJECT007
10
0
20
0
30
0
70
128
71
-3
72
8
73
4
0
VERTEX
8
OBJECT007
10
0
20
0
30
0
70
128
71
1
72
4
73
-8
0
VERTEX
8
OBJECT007
10
0
20
0
30
0
70
128
71
-1
72
8
73
7
0
VERTEX
8
OBJECT007
10
0
20
0
30
0
70
128
71
6
72
7
73
-8
0
VERTEX
8
OBJECT007
10
0
20
0
30
0
70
128
71
-6
72
8
73
5
0
SEQEND
8
OBJECT007
0
POLYLINE
8
OBJECT008
66
1
70
64
71
8
72
12
62
50
0
VERTEX
8
OBJECT008
10
-63.000000
20
-68.000000
30
1.539063
70
192
0
VERTEX
8
OBJECT008
10
-45.500488
20
-68.000000
30
-41.500732
70
192
0
VERTEX
8
OBJECT008
10
-45.500488
20
60.000000
30
-41.500732
70
192
0
VERTEX
8
OBJECT008
10
-63.000000
20
60.000000
30
1.539063
70
192
0
VERTEX
8
OBJECT008
10
-43.099731
20
60.000000
30
-42.470581
70
192
0
VERTEX
8
OBJECT008
10
-43.099731
20
-68.000000
30
-42.470581
70
192
0
VERTEX
8
OBJECT008
10
-62.000000
20
-68.000000
30
4.000000
70
192
0
VERTEX
8
OBJECT008
10
-62.000000
20
60.000000
30
4.000000
70
192
0
VERTEX
8
OBJECT008
10
0
20
0
30
0
70
128
71
2
72
3
73
-4
0
VERTEX
8
OBJECT008
10
0
20
0
30
0
70
128
71
-2
72
4
73
1
0
VERTEX
8
OBJECT008
10
0
20
0
30
0
70
128
71
3
72
2
73
-6
0
VERTEX
8
OBJECT008
10
0
20
0
30
0
70
128
71
-3
72
6
73
5
0
VERTEX
8
OBJECT008
10
0
20
0
30
0
70
128
71
2
72
1
73
-7
0
VERTEX
8
OBJECT008
10
0
20
0
30
0
70
128
71
-2
72
7
73
6
0
VERTEX
8
OBJECT008
10
0
20
0
30
0
70
128
71
4
72
3
73
-5
0
VERTEX
8
OBJECT008
10
0
20
0
30
0
70
128
71
-4
72
5
73
8
0
VERTEX
8
OBJECT008
10
0
20
0
30
0
70
128
71
1
72
4
73
-8
0
VERTEX
8
OBJECT008
10
0
20
0
30
0
70
128
71
-1
72
8
73
7
0
VERTEX
8
OBJECT008
10
0
20
0
30
0
70
128
71
6
72
7
73
-8
0
VERTEX
8
OBJECT008
10
0
20
0
30
0
70
128
71
-6
72
8
73
5
0
SEQEND
8
OBJECT008
0
POLYLINE
8
OBJECT009
66
1
70
64
71
8
72
12
62
50
0
VERTEX
8
OBJECT009
10
-2.461182
20
60.000000
30
-59.000000
70
192
0
VERTEX
8
OBJECT009
10
-43.099487
20
60.000000
30
-42.471069
70
192
0
VERTEX
8
OBJECT009
10
-43.099487
20
-68.000000
30
-42.471069
70
192
0
VERTEX
8
OBJECT009
10
-2.461182
20
-68.000000
30
-59.000000
70
192
0
VERTEX
8
OBJECT009
10
0.000000
20
-68.000000
30
-58.000000
70
192
0
VERTEX
8
OBJECT009
10
-44.079834
20
-68.000000
30
-40.080078
70
192
0
VERTEX
8
OBJECT009
10
-44.079834
20
60.000000
30
-40.080078
70
192
0
VERTEX
8
OBJECT009
10
0.000000
20
60.000000
30
-58.000000
70
192
0
VERTEX
8
OBJECT009
10
0
20
0
30
0
70
128
71
2
72
3
73
-4
0
VERTEX
8
OBJECT009
10
0
20
0
30
0
70
128
71
-2
72
4
73
1
0
VERTEX
8
OBJECT009
10
0
20
0
30
0
70
128
71
4
72
3
73
-6
0
VERTEX
8
OBJECT009
10
0
20
0
30
0
70
128
71
-4
72
6
73
5
0
VERTEX
8
OBJECT009
10
0
20
0
30
0
70
128
71
2
72
1
73
-8
0
VERTEX
8
OBJECT009
10
0
20
0
30
0
70
128
71
-2
72
8
73
7
0
VERTEX
8
OBJECT009
10
0
20
0
30
0
70
128
71
1
72
4
73
-5
0
VERTEX
8
OBJECT009
10
0
20
0
30
0
70
128
71
-1
72
5
73
8
0
VERTEX
8
OBJECT009
10
0
20
0
30
0
70
128
71
3
72
2
73
-7
0
VERTEX
8
OBJECT009
10
0
20
0
30
0
70
128
71
-3
72
7
73
6
0
VERTEX
8
OBJECT009
10
0
20
0
30
0
70
128
71
6
72
7
73
-8
0
VERTEX
8
OBJECT009
10
0
20
0
30
0
70
128
71
-6
72
8
73
5
0
SEQEND
8
OBJECT009
0
ENDSEC
0
EOF
