0
SECTION
2
HEADER
9
$ACADVER
1
AC1008
9
$UCSORG
10
0.0
20
0.0
30
0.0
9
$UCSXDIR
10
1.0
20
0.0
30
0.0
9
$TILEMODE
70
1
9
$UCSYDIR
10
0.0
20
1.0
30
0.0
9
$EXTMIN
10
4.000000
20
-96.000000
30
-60.000000
9
$EXTMAX
10
132.000000
20
160.000000
30
68.000000
0
ENDSEC
0
SECTION
2
TABLES
0
TABLE
2
LTYPE
70
1
0
LTYPE
2
CONTINUOUS
70
64
3
Solid line
72
65
73
0
40
0.0
0
ENDTAB
0
TABLE
2
LAYER
70
1
0
LAYER
2
0
70
0
62
7
6
CONTINUOUS
0
ENDTAB
0
TABLE
2
STYLE
70
1
0
STYLE
2
STANDARD
70
0
40
0.0
41
1.0
50
0.0
71
0
42
0.2
3
txt
4

0
ENDTAB
0
TABLE
2
UCS
70
0
0
ENDTAB
0
ENDSEC
0
SECTION
2
ENTITIES
0
POLYLINE
8
OBJECT000
66
1
70
64
71
8
72
12
62
50
0
VERTEX
8
OBJECT000
10
106.000000
20
-96.000000
30
52.000000
70
192
0
VERTEX
8
OBJECT000
10
31.000000
20
-96.000000
30
52.000000
70
192
0
VERTEX
8
OBJECT000
10
31.000000
20
160.000000
30
52.000000
70
192
0
VERTEX
8
OBJECT000
10
106.000000
20
160.000000
30
52.000000
70
192
0
VERTEX
8
OBJECT000
10
109.000000
20
160.000000
30
50.000000
70
192
0
VERTEX
8
OBJECT000
10
26.000000
20
160.000000
30
50.000000
70
192
0
VERTEX
8
OBJECT000
10
26.000000
20
-96.000000
30
50.000000
70
192
0
VERTEX
8
OBJECT000
10
109.000000
20
-96.000000
30
50.000000
70
192
0
VERTEX
8
OBJECT000
10
0
20
0
30
0
70
128
71
2
72
3
73
-4
0
VERTEX
8
OBJECT000
10
0
20
0
30
0
70
128
71
-2
72
4
73
1
0
VERTEX
8
OBJECT000
10
0
20
0
30
0
70
128
71
6
72
7
73
-8
0
VERTEX
8
OBJECT000
10
0
20
0
30
0
70
128
71
-6
72
8
73
5
0
VERTEX
8
OBJECT000
10
0
20
0
30
0
70
128
71
5
72
4
73
-3
0
VERTEX
8
OBJECT000
10
0
20
0
30
0
70
128
71
-5
72
3
73
6
0
VERTEX
8
OBJECT000
10
0
20
0
30
0
70
128
71
7
72
2
73
-1
0
VERTEX
8
OBJECT000
10
0
20
0
30
0
70
128
71
-7
72
1
73
8
0
VERTEX
8
OBJECT000
10
0
20
0
30
0
70
128
71
4
72
5
73
-8
0
VERTEX
8
OBJECT000
10
0
20
0
30
0
70
128
71
-4
72
8
73
1
0
VERTEX
8
OBJECT000
10
0
20
0
30
0
70
128
71
6
72
3
73
-2
0
VERTEX
8
OBJECT000
10
0
20
0
30
0
70
128
71
-6
72
2
73
7
0
SEQEND
8
OBJECT000
0
POLYLINE
8
OBJECT001
66
1
70
64
71
8
72
12
62
50
0
VERTEX
8
OBJECT001
10
113.000000
20
-96.000000
30
-40.000000
70
192
0
VERTEX
8
OBJECT001
10
23.000000
20
-96.000000
30
-40.000000
70
192
0
VERTEX
8
OBJECT001
10
23.000000
20
160.000000
30
-40.000000
70
192
0
VERTEX
8
OBJECT001
10
113.000000
20
160.000000
30
-40.000000
70
192
0
VERTEX
8
OBJECT001
10
108.608398
20
160.000000
30
-42.000000
70
192
0
VERTEX
8
OBJECT001
10
27.390015
20
160.000000
30
-42.000000
70
192
0
VERTEX
8
OBJECT001
10
27.390015
20
-96.000000
30
-42.000000
70
192
0
VERTEX
8
OBJECT001
10
108.608398
20
-96.000000
30
-42.000000
70
192
0
VERTEX
8
OBJECT001
10
0
20
0
30
0
70
128
71
2
72
3
73
-4
0
VERTEX
8
OBJECT001
10
0
20
0
30
0
70
128
71
-2
72
4
73
1
0
VERTEX
8
OBJECT001
10
0
20
0
30
0
70
128
71
6
72
7
73
-8
0
VERTEX
8
OBJECT001
10
0
20
0
30
0
70
128
71
-6
72
8
73
5
0
VERTEX
8
OBJECT001
10
0
20
0
30
0
70
128
71
5
72
4
73
-3
0
VERTEX
8
OBJECT001
10
0
20
0
30
0
70
128
71
-5
72
3
73
6
0
VERTEX
8
OBJECT001
10
0
20
0
30
0
70
128
71
7
72
2
73
-1
0
VERTEX
8
OBJECT001
10
0
20
0
30
0
70
128
71
-7
72
1
73
8
0
VERTEX
8
OBJECT001
10
0
20
0
30
0
70
128
71
8
72
1
73
-4
0
VERTEX
8
OBJECT001
10
0
20
0
30
0
70
128
71
-8
72
4
73
5
0
VERTEX
8
OBJECT001
10
0
20
0
30
0
70
128
71
2
72
7
73
-6
0
VERTEX
8
OBJECT001
10
0
20
0
30
0
70
128
71
-2
72
6
73
3
0
SEQEND
8
OBJECT001
0
POLYLINE
8
OBJECT002
66
1
70
64
71
8
72
12
62
50
0
VERTEX
8
OBJECT002
10
68.000000
20
160.000000
30
-60.000000
70
192
0
VERTEX
8
OBJECT002
10
68.000000
20
-96.000000
30
-60.000000
70
192
0
VERTEX
8
OBJECT002
10
113.502075
20
-96.000000
30
-41.498535
70
192
0
VERTEX
8
OBJECT002
10
113.502075
20
160.000000
30
-41.498535
70
192
0
VERTEX
8
OBJECT002
10
114.470581
20
160.000000
30
-39.099731
70
192
0
VERTEX
8
OBJECT002
10
114.470581
20
-96.000000
30
-39.099731
70
192
0
VERTEX
8
OBJECT002
10
65.539795
20
-96.000000
30
-59.000000
70
192
0
VERTEX
8
OBJECT002
10
65.539795
20
160.000000
30
-59.000000
70
192
0
VERTEX
8
OBJECT002
10
0
20
0
30
0
70
128
71
2
72
3
73
-4
0
VERTEX
8
OBJECT002
10
0
20
0
30
0
70
128
71
-2
72
4
73
1
0
VERTEX
8
OBJECT002
10
0
20
0
30
0
70
128
71
4
72
3
73
-6
0
VERTEX
8
OBJECT002
10
0
20
0
30
0
70
128
71
-4
72
6
73
5
0
VERTEX
8
OBJECT002
10
0
20
0
30
0
70
128
71
2
72
1
73
-8
0
VERTEX
8
OBJECT002
10
0
20
0
30
0
70
128
71
-2
72
8
73
7
0
VERTEX
8
OBJECT002
10
0
20
0
30
0
70
128
71
3
72
2
73
-7
0
VERTEX
8
OBJECT002
10
0
20
0
30
0
70
128
71
-3
72
7
73
6
0
VERTEX
8
OBJECT002
10
0
20
0
30
0
70
128
71
1
72
4
73
-5
0
VERTEX
8
OBJECT002
10
0
20
0
30
0
70
128
71
-1
72
5
73
8
0
VERTEX
8
OBJECT002
10
0
20
0
30
0
70
128
71
8
72
5
73
-6
0
VERTEX
8
OBJECT002
10
0
20
0
30
0
70
128
71
-8
72
6
73
7
0
SEQEND
8
OBJECT002
0
POLYLINE
8
OBJECT003
66
1
70
64
71
8
72
12
62
50
0
VERTEX
8
OBJECT003
10
114.470093
20
-96.000000
30
-39.099976
70
192
0
VERTEX
8
OBJECT003
10
132.000000
20
-96.000000
30
4.000000
70
192
0
VERTEX
8
OBJECT003
10
132.000000
20
160.000000
30
4.000000
70
192
0
VERTEX
8
OBJECT003
10
114.470093
20
160.000000
30
-39.099976
70
192
0
VERTEX
8
OBJECT003
10
131.000000
20
160.000000
30
6.460693
70
192
0
VERTEX
8
OBJECT003
10
131.000000
20
-96.000000
30
6.460693
70
192
0
VERTEX
8
OBJECT003
10
112.079956
20
-96.000000
30
-40.079956
70
192
0
VERTEX
8
OBJECT003
10
112.079956
20
160.000000
30
-40.079956
70
192
0
VERTEX
8
OBJECT003
10
0
20
0
30
0
70
128
71
2
72
3
73
-4
0
VERTEX
8
OBJECT003
10
0
20
0
30
0
70
128
71
-2
72
4
73
1
0
VERTEX
8
OBJECT003
10
0
20
0
30
0
70
128
71
3
72
2
73
-6
0
VERTEX
8
OBJECT003
10
0
20
0
30
0
70
128
71
-3
72
6
73
5
0
VERTEX
8
OBJECT003
10
0
20
0
30
0
70
128
71
2
72
1
73
-7
0
VERTEX
8
OBJECT003
10
0
20
0
30
0
70
128
71
-2
72
7
73
6
0
VERTEX
8
OBJECT003
10
0
20
0
30
0
70
128
71
4
72
3
73
-5
0
VERTEX
8
OBJECT003
10
0
20
0
30
0
70
128
71
-4
72
5
73
8
0
VERTEX
8
OBJECT003
10
0
20
0
30
0
70
128
71
1
72
4
73
-8
0
VERTEX
8
OBJECT003
10
0
20
0
30
0
70
128
71
-1
72
8
73
7
0
VERTEX
8
OBJECT003
10
0
20
0
30
0
70
128
71
5
72
6
73
-7
0
VERTEX
8
OBJECT003
10
0
20
0
30
0
70
128
71
-5
72
7
73
8
0
SEQEND
8
OBJECT003
0
POLYLINE
8
OBJECT004
66
1
70
64
71
8
72
12
62
50
0
VERTEX
8
OBJECT004
10
131.000000
20
-96.000000
30
6.460205
70
192
0
VERTEX
8
OBJECT004
10
113.500854
20
-96.000000
30
49.498535
70
192
0
VERTEX
8
OBJECT004
10
113.500854
20
160.000000
30
49.498535
70
192
0
VERTEX
8
OBJECT004
10
131.000000
20
160.000000
30
6.460205
70
192
0
VERTEX
8
OBJECT004
10
111.100098
20
160.000000
30
50.469727
70
192
0
VERTEX
8
OBJECT004
10
111.100098
20
-96.000000
30
50.469727
70
192
0
VERTEX
8
OBJECT004
10
130.000000
20
-96.000000
30
4.000000
70
192
0
VERTEX
8
OBJECT004
10
130.000000
20
160.000000
30
4.000000
70
192
0
VERTEX
8
OBJECT004
10
0
20
0
30
0
70
128
71
2
72
3
73
-4
0
VERTEX
8
OBJECT004
10
0
20
0
30
0
70
128
71
-2
72
4
73
1
0
VERTEX
8
OBJECT004
10
0
20
0
30
0
70
128
71
3
72
2
73
-6
0
VERTEX
8
OBJECT004
10
0
20
0
30
0
70
128
71
-3
72
6
73
5
0
VERTEX
8
OBJECT004
10
0
20
0
30
0
70
128
71
1
72
7
73
-6
0
VERTEX
8
OBJECT004
10
0
20
0
30
0
70
128
71
-1
72
6
73
2
0
VERTEX
8
OBJECT004
10
0
20
0
30
0
70
128
71
4
72
3
73
-5
0
VERTEX
8
OBJECT004
10
0
20
0
30
0
70
128
71
-4
72
5
73
8
0
VERTEX
8
OBJECT004
10
0
20
0
30
0
70
128
71
1
72
4
73
-8
0
VERTEX
8
OBJECT004
10
0
20
0
30
0
70
128
71
-1
72
8
73
7
0
VERTEX
8
OBJECT004
10
0
20
0
30
0
70
128
71
5
72
6
73
-7
0
VERTEX
8
OBJECT004
10
0
20
0
30
0
70
128
71
-5
72
7
73
8
0
SEQEND
8
OBJECT004
0
POLYLINE
8
OBJECT005
66
1
70
64
71
8
72
12
62
50
0
VERTEX
8
OBJECT005
10
111.099976
20
-96.000000
30
50.469727
70
192
0
VERTEX
8
OBJECT005
10
68.000000
20
-96.000000
30
68.000000
70
192
0
VERTEX
8
OBJECT005
10
68.000000
20
160.000000
30
68.000000
70
192
0
VERTEX
8
OBJECT005
10
111.099976
20
160.000000
30
50.469727
70
192
0
VERTEX
8
OBJECT005
10
65.538086
20
160.000000
30
67.000000
70
192
0
VERTEX
8
OBJECT005
10
65.538086
20
-96.000000
30
67.000000
70
192
0
VERTEX
8
OBJECT005
10
112.079956
20
-96.000000
30
48.079956
70
192
0
VERTEX
8
OBJECT005
10
112.079956
20
160.000000
30
48.079956
70
192
0
VERTEX
8
OBJECT005
10
0
20
0
30
0
70
128
71
2
72
3
73
-4
0
VERTEX
8
OBJECT005
10
0
20
0
30
0
70
128
71
-2
72
4
73
1
0
VERTEX
8
OBJECT005
10
0
20
0
30
0
70
128
71
3
72
2
73
-6
0
VERTEX
8
OBJECT005
10
0
20
0
30
0
70
128
71
-3
72
6
73
5
0
VERTEX
8
OBJECT005
10
0
20
0
30
0
70
128
71
2
72
1
73
-7
0
VERTEX
8
OBJECT005
10
0
20
0
30
0
70
128
71
-2
72
7
73
6
0
VERTEX
8
OBJECT005
10
0
20
0
30
0
70
128
71
4
72
3
73
-5
0
VERTEX
8
OBJECT005
10
0
20
0
30
0
70
128
71
-4
72
5
73
8
0
VERTEX
8
OBJECT005
10
0
20
0
30
0
70
128
71
1
72
4
73
-8
0
VERTEX
8
OBJECT005
10
0
20
0
30
0
70
128
71
-1
72
8
73
7
0
VERTEX
8
OBJECT005
10
0
20
0
30
0
70
128
71
6
72
7
73
-8
0
VERTEX
8
OBJECT005
10
0
20
0
30
0
70
128
71
-6
72
8
73
5
0
SEQEND
8
OBJECT005
0
POLYLINE
8
OBJECT006
66
1
70
64
71
8
72
12
62
50
0
VERTEX
8
OBJECT006
10
65.540527
20
-96.000000
30
67.000000
70
192
0
VERTEX
8
OBJECT006
10
22.499390
20
-96.000000
30
49.499390
70
192
0
VERTEX
8
OBJECT006
10
22.499390
20
160.000000
30
49.499390
70
192
0
VERTEX
8
OBJECT006
10
65.540527
20
160.000000
30
67.000000
70
192
0
VERTEX
8
OBJECT006
10
21.529785
20
160.000000
30
47.099854
70
192
0
VERTEX
8
OBJECT006
10
21.529785
20
-96.000000
30
47.099854
70
192
0
VERTEX
8
OBJECT006
10
68.000000
20
-96.000000
30
66.000000
70
192
0
VERTEX
8
OBJECT006
10
68.000000
20
160.000000
30
66.000000
70
192
0
VERTEX
8
OBJECT006
10
0
20
0
30
0
70
128
71
2
72
3
73
-4
0
VERTEX
8
OBJECT006
10
0
20
0
30
0
70
128
71
-2
72
4
73
1
0
VERTEX
8
OBJECT006
10
0
20
0
30
0
70
128
71
3
72
2
73
-6
0
VERTEX
8
OBJECT006
10
0
20
0
30
0
70
128
71
-3
72
6
73
5
0
VERTEX
8
OBJECT006
10
0
20
0
30
0
70
128
71
2
72
1
73
-7
0
VERTEX
8
OBJECT006
10
0
20
0
30
0
70
128
71
-2
72
7
73
6
0
VERTEX
8
OBJECT006
10
0
20
0
30
0
70
128
71
4
72
3
73
-5
0
VERTEX
8
OBJECT006
10
0
20
0
30
0
70
128
71
-4
72
5
73
8
0
VERTEX
8
OBJECT006
10
0
20
0
30
0
70
128
71
1
72
4
73
-8
0
VERTEX
8
OBJECT006
10
0
20
0
30
0
70
128
71
-1
72
8
73
7
0
VERTEX
8
OBJECT006
10
0
20
0
30
0
70
128
71
6
72
7
73
-8
0
VERTEX
8
OBJECT006
10
0
20
0
30
0
70
128
71
-6
72
8
73
5
0
SEQEND
8
OBJECT006
0
POLYLINE
8
OBJECT007
66
1
70
64
71
8
72
12
62
50
0
VERTEX
8
OBJECT007
10
21.533203
20
-96.000000
30
47.111328
70
192
0
VERTEX
8
OBJECT007
10
4.000000
20
-96.000000
30
4.000000
70
192
0
VERTEX
8
OBJECT007
10
4.000000
20
160.000000
30
4.000000
70
192
0
VERTEX
8
OBJECT007
10
21.533203
20
160.000000
30
47.111328
70
192
0
VERTEX
8
OBJECT007
10
5.000000
20
160.000000
30
1.539673
70
192
0
VERTEX
8
OBJECT007
10
5.000000
20
-96.000000
30
1.539673
70
192
0
VERTEX
8
OBJECT007
10
23.920044
20
-96.000000
30
48.080078
70
192
0
VERTEX
8
OBJECT007
10
23.920044
20
160.000000
30
48.080078
70
192
0
VERTEX
8
OBJECT007
10
0
20
0
30
0
70
128
71
2
72
3
73
-4
0
VERTEX
8
OBJECT007
10
0
20
0
30
0
70
128
71
-2
72
4
73
1
0
VERTEX
8
OBJECT007
10
0
20
0
30
0
70
128
71
3
72
2
73
-6
0
VERTEX
8
OBJECT007
10
0
20
0
30
0
70
128
71
-3
72
6
73
5
0
VERTEX
8
OBJECT007
10
0
20
0
30
0
70
128
71
2
72
1
73
-7
0
VERTEX
8
OBJECT007
10
0
20
0
30
0
70
128
71
-2
72
7
73
6
0
VERTEX
8
OBJECT007
10
0
20
0
30
0
70
128
71
3
72
5
73
-8
0
VERTEX
8
OBJECT007
10
0
20
0
30
0
70
128
71
-3
72
8
73
4
0
VERTEX
8
OBJECT007
10
0
20
0
30
0
70
128
71
1
72
4
73
-8
0
VERTEX
8
OBJECT007
10
0
20
0
30
0
70
128
71
-1
72
8
73
7
0
VERTEX
8
OBJECT007
10
0
20
0
30
0
70
128
71
6
72
7
73
-8
0
VERTEX
8
OBJECT007
10
0
20
0
30
0
70
128
71
-6
72
8
73
5
0
SEQEND
8
OBJECT007
0
POLYLINE
8
OBJECT008
66
1
70
64
71
8
72
12
62
50
0
VERTEX
8
OBJECT008
10
5.000000
20
-96.000000
30
1.540283
70
192
0
VERTEX
8
OBJECT008
10
22.500122
20
-96.000000
30
-41.499756
70
192
0
VERTEX
8
OBJECT008
10
22.500122
20
160.000000
30
-41.499756
70
192
0
VERTEX
8
OBJECT008
10
5.000000
20
160.000000
30
1.540283
70
192
0
VERTEX
8
OBJECT008
10
24.900513
20
160.000000
30
-42.471069
70
192
0
VERTEX
8
OBJECT008
10
24.900513
20
-96.000000
30
-42.471069
70
192
0
VERTEX
8
OBJECT008
10
6.000000
20
-96.000000
30
4.000000
70
192
0
VERTEX
8
OBJECT008
10
6.000000
20
160.000000
30
4.000000
70
192
0
VERTEX
8
OBJECT008
10
0
20
0
30
0
70
128
71
2
72
3
73
-4
0
VERTEX
8
OBJECT008
10
0
20
0
30
0
70
128
71
-2
72
4
73
1
0
VERTEX
8
OBJECT008
10
0
20
0
30
0
70
128
71
3
72
2
73
-6
0
VERTEX
8
OBJECT008
10
0
20
0
30
0
70
128
71
-3
72
6
73
5
0
VERTEX
8
OBJECT008
10
0
20
0
30
0
70
128
71
2
72
1
73
-7
0
VERTEX
8
OBJECT008
10
0
20
0
30
0
70
128
71
-2
72
7
73
6
0
VERTEX
8
OBJECT008
10
0
20
0
30
0
70
128
71
4
72
3
73
-5
0
VERTEX
8
OBJECT008
10
0
20
0
30
0
70
128
71
-4
72
5
73
8
0
VERTEX
8
OBJECT008
10
0
20
0
30
0
70
128
71
1
72
4
73
-8
0
VERTEX
8
OBJECT008
10
0
20
0
30
0
70
128
71
-1
72
8
73
7
0
VERTEX
8
OBJECT008
10
0
20
0
30
0
70
128
71
6
72
7
73
-8
0
VERTEX
8
OBJECT008
10
0
20
0
30
0
70
128
71
-6
72
8
73
5
0
SEQEND
8
OBJECT008
0
POLYLINE
8
OBJECT009
66
1
70
64
71
8
72
12
62
50
0
VERTEX
8
OBJECT009
10
65.541504
20
160.000000
30
-59.000000
70
192
0
VERTEX
8
OBJECT009
10
24.899780
20
160.000000
30
-42.469360
70
192
0
VERTEX
8
OBJECT009
10
24.899780
20
-96.000000
30
-42.469360
70
192
0
VERTEX
8
OBJECT009
10
65.541504
20
-96.000000
30
-59.000000
70
192
0
VERTEX
8
OBJECT009
10
68.000000
20
-96.000000
30
-58.000000
70
192
0
VERTEX
8
OBJECT009
10
23.920044
20
-96.000000
30
-40.079956
70
192
0
VERTEX
8
OBJECT009
10
23.920044
20
160.000000
30
-40.079956
70
192
0
VERTEX
8
OBJECT009
10
68.000000
20
160.000000
30
-58.000000
70
192
0
VERTEX
8
OBJECT009
10
0
20
0
30
0
70
128
71
2
72
3
73
-4
0
VERTEX
8
OBJECT009
10
0
20
0
30
0
70
128
71
-2
72
4
73
1
0
VERTEX
8
OBJECT009
10
0
20
0
30
0
70
128
71
4
72
3
73
-6
0
VERTEX
8
OBJECT009
10
0
20
0
30
0
70
128
71
-4
72
6
73
5
0
VERTEX
8
OBJECT009
10
0
20
0
30
0
70
128
71
2
72
1
73
-8
0
VERTEX
8
OBJECT009
10
0
20
0
30
0
70
128
71
-2
72
8
73
7
0
VERTEX
8
OBJECT009
10
0
20
0
30
0
70
128
71
1
72
4
73
-5
0
VERTEX
8
OBJECT009
10
0
20
0
30
0
70
128
71
-1
72
5
73
8
0
VERTEX
8
OBJECT009
10
0
20
0
30
0
70
128
71
3
72
2
73
-7
0
VERTEX
8
OBJECT009
10
0
20
0
30
0
70
128
71
-3
72
7
73
6
0
VERTEX
8
OBJECT009
10
0
20
0
30
0
70
128
71
6
72
7
73
-8
0
VERTEX
8
OBJECT009
10
0
20
0
30
0
70
128
71
-6
72
8
73
5
0
SEQEND
8
OBJECT009
0
ENDSEC
0
EOF
