0
SECTION
2
HEADER
9
$ACADVER
1
AC1008
9
$UCSORG
10
0.0
20
0.0
30
0.0
9
$UCSXDIR
10
1.0
20
0.0
30
0.0
9
$TILEMODE
70
1
9
$UCSYDIR
10
0.0
20
1.0
30
0.0
9
$EXTMIN
10
-52.000000
20
-200.000000
30
-60.000000
9
$EXTMAX
10
76.000000
20
184.000000
30
68.000000
0
ENDSEC
0
SECTION
2
TABLES
0
TABLE
2
LTYPE
70
1
0
LTYPE
2
CONTINUOUS
70
64
3
Solid line
72
65
73
0
40
0.0
0
ENDTAB
0
TABLE
2
LAYER
70
1
0
LAYER
2
0
70
0
62
7
6
CONTINUOUS
0
ENDTAB
0
TABLE
2
STYLE
70
1
0
STYLE
2
STANDARD
70
0
40
0.0
41
1.0
50
0.0
71
0
42
0.2
3
txt
4

0
ENDTAB
0
TABLE
2
UCS
70
0
0
ENDTAB
0
ENDSEC
0
SECTION
2
ENTITIES
0
POLYLINE
8
OBJECT000
66
1
70
64
71
8
72
12
62
50
0
VERTEX
8
OBJECT000
10
50.000000
20
-200.000000
30
52.000000
70
192
0
VERTEX
8
OBJECT000
10
-25.000000
20
-200.000000
30
52.000000
70
192
0
VERTEX
8
OBJECT000
10
-25.000000
20
184.000000
30
52.000000
70
192
0
VERTEX
8
OBJECT000
10
50.000000
20
184.000000
30
52.000000
70
192
0
VERTEX
8
OBJECT000
10
53.000000
20
184.000000
30
50.000000
70
192
0
VERTEX
8
OBJECT000
10
-30.000000
20
184.000000
30
50.000000
70
192
0
VERTEX
8
OBJECT000
10
-30.000000
20
-200.000000
30
50.000000
70
192
0
VERTEX
8
OBJECT000
10
53.000000
20
-200.000000
30
50.000000
70
192
0
VERTEX
8
OBJECT000
10
0
20
0
30
0
70
128
71
2
72
3
73
-4
0
VERTEX
8
OBJECT000
10
0
20
0
30
0
70
128
71
-2
72
4
73
1
0
VERTEX
8
OBJECT000
10
0
20
0
30
0
70
128
71
6
72
7
73
-8
0
VERTEX
8
OBJECT000
10
0
20
0
30
0
70
128
71
-6
72
8
73
5
0
VERTEX
8
OBJECT000
10
0
20
0
30
0
70
128
71
5
72
4
73
-3
0
VERTEX
8
OBJECT000
10
0
20
0
30
0
70
128
71
-5
72
3
73
6
0
VERTEX
8
OBJECT000
10
0
20
0
30
0
70
128
71
7
72
2
73
-1
0
VERTEX
8
OBJECT000
10
0
20
0
30
0
70
128
71
-7
72
1
73
8
0
VERTEX
8
OBJECT000
10
0
20
0
30
0
70
128
71
4
72
5
73
-8
0
VERTEX
8
OBJECT000
10
0
20
0
30
0
70
128
71
-4
72
8
73
1
0
VERTEX
8
OBJECT000
10
0
20
0
30
0
70
128
71
6
72
3
73
-2
0
VERTEX
8
OBJECT000
10
0
20
0
30
0
70
128
71
-6
72
2
73
7
0
SEQEND
8
OBJECT000
0
POLYLINE
8
OBJECT001
66
1
70
64
71
8
72
12
62
50
0
VERTEX
8
OBJECT001
10
57.000000
20
-200.000000
30
-40.000000
70
192
0
VERTEX
8
OBJECT001
10
-33.000000
20
-200.000000
30
-40.000000
70
192
0
VERTEX
8
OBJECT001
10
-33.000000
20
184.000000
30
-40.000000
70
192
0
VERTEX
8
OBJECT001
10
57.000000
20
184.000000
30
-40.000000
70
192
0
VERTEX
8
OBJECT001
10
52.610352
20
184.000000
30
-42.000000
70
192
0
VERTEX
8
OBJECT001
10
-28.609863
20
184.000000
30
-42.000000
70
192
0
VERTEX
8
OBJECT001
10
-28.609863
20
-200.000000
30
-42.000000
70
192
0
VERTEX
8
OBJECT001
10
52.610352
20
-200.000000
30
-42.000000
70
192
0
VERTEX
8
OBJECT001
10
0
20
0
30
0
70
128
71
2
72
3
73
-4
0
VERTEX
8
OBJECT001
10
0
20
0
30
0
70
128
71
-2
72
4
73
1
0
VERTEX
8
OBJECT001
10
0
20
0
30
0
70
128
71
6
72
7
73
-8
0
VERTEX
8
OBJECT001
10
0
20
0
30
0
70
128
71
-6
72
8
73
5
0
VERTEX
8
OBJECT001
10
0
20
0
30
0
70
128
71
5
72
4
73
-3
0
VERTEX
8
OBJECT001
10
0
20
0
30
0
70
128
71
-5
72
3
73
6
0
VERTEX
8
OBJECT001
10
0
20
0
30
0
70
128
71
7
72
2
73
-1
0
VERTEX
8
OBJECT001
10
0
20
0
30
0
70
128
71
-7
72
1
73
8
0
VERTEX
8
OBJECT001
10
0
20
0
30
0
70
128
71
8
72
1
73
-4
0
VERTEX
8
OBJECT001
10
0
20
0
30
0
70
128
71
-8
72
4
73
5
0
VERTEX
8
OBJECT001
10
0
20
0
30
0
70
128
71
2
72
7
73
-6
0
VERTEX
8
OBJECT001
10
0
20
0
30
0
70
128
71
-2
72
6
73
3
0
SEQEND
8
OBJECT001
0
POLYLINE
8
OBJECT002
66
1
70
64
71
8
72
12
62
50
0
VERTEX
8
OBJECT002
10
12.000000
20
184.000000
30
-60.000000
70
192
0
VERTEX
8
OBJECT002
10
12.000000
20
-200.000000
30
-60.000000
70
192
0
VERTEX
8
OBJECT002
10
57.500061
20
-200.000000
30
-41.498657
70
192
0
VERTEX
8
OBJECT002
10
57.500061
20
184.000000
30
-41.498657
70
192
0
VERTEX
8
OBJECT002
10
58.473999
20
184.000000
30
-39.099609
70
192
0
VERTEX
8
OBJECT002
10
58.473999
20
-200.000000
30
-39.099609
70
192
0
VERTEX
8
OBJECT002
10
9.539917
20
-200.000000
30
-59.000000
70
192
0
VERTEX
8
OBJECT002
10
9.539917
20
184.000000
30
-59.000000
70
192
0
VERTEX
8
OBJECT002
10
0
20
0
30
0
70
128
71
2
72
3
73
-4
0
VERTEX
8
OBJECT002
10
0
20
0
30
0
70
128
71
-2
72
4
73
1
0
VERTEX
8
OBJECT002
10
0
20
0
30
0
70
128
71
4
72
3
73
-6
0
VERTEX
8
OBJECT002
10
0
20
0
30
0
70
128
71
-4
72
6
73
5
0
VERTEX
8
OBJECT002
10
0
20
0
30
0
70
128
71
2
72
1
73
-8
0
VERTEX
8
OBJECT002
10
0
20
0
30
0
70
128
71
-2
72
8
73
7
0
VERTEX
8
OBJECT002
10
0
20
0
30
0
70
128
71
3
72
2
73
-7
0
VERTEX
8
OBJECT002
10
0
20
0
30
0
70
128
71
-3
72
7
73
6
0
VERTEX
8
OBJECT002
10
0
20
0
30
0
70
128
71
1
72
4
73
-5
0
VERTEX
8
OBJECT002
10
0
20
0
30
0
70
128
71
-1
72
5
73
8
0
VERTEX
8
OBJECT002
10
0
20
0
30
0
70
128
71
8
72
5
73
-6
0
VERTEX
8
OBJECT002
10
0
20
0
30
0
70
128
71
-8
72
6
73
7
0
SEQEND
8
OBJECT002
0
POLYLINE
8
OBJECT003
66
1
70
64
71
8
72
12
62
50
0
VERTEX
8
OBJECT003
10
58.475037
20
-200.000000
30
-39.099609
70
192
0
VERTEX
8
OBJECT003
10
76.000000
20
-200.000000
30
4.000000
70
192
0
VERTEX
8
OBJECT003
10
76.000000
20
184.000000
30
4.000000
70
192
0
VERTEX
8
OBJECT003
10
58.475037
20
184.000000
30
-39.099609
70
192
0
VERTEX
8
OBJECT003
10
75.000000
20
184.000000
30
6.460449
70
192
0
VERTEX
8
OBJECT003
10
75.000000
20
-200.000000
30
6.460449
70
192
0
VERTEX
8
OBJECT003
10
56.079346
20
-200.000000
30
-40.078979
70
192
0
VERTEX
8
OBJECT003
10
56.079346
20
184.000000
30
-40.078979
70
192
0
VERTEX
8
OBJECT003
10
0
20
0
30
0
70
128
71
2
72
3
73
-4
0
VERTEX
8
OBJECT003
10
0
20
0
30
0
70
128
71
-2
72
4
73
1
0
VERTEX
8
OBJECT003
10
0
20
0
30
0
70
128
71
3
72
2
73
-6
0
VERTEX
8
OBJECT003
10
0
20
0
30
0
70
128
71
-3
72
6
73
5
0
VERTEX
8
OBJECT003
10
0
20
0
30
0
70
128
71
2
72
1
73
-7
0
VERTEX
8
OBJECT003
10
0
20
0
30
0
70
128
71
-2
72
7
73
6
0
VERTEX
8
OBJECT003
10
0
20
0
30
0
70
128
71
4
72
3
73
-5
0
VERTEX
8
OBJECT003
10
0
20
0
30
0
70
128
71
-4
72
5
73
8
0
VERTEX
8
OBJECT003
10
0
20
0
30
0
70
128
71
1
72
4
73
-8
0
VERTEX
8
OBJECT003
10
0
20
0
30
0
70
128
71
-1
72
8
73
7
0
VERTEX
8
OBJECT003
10
0
20
0
30
0
70
128
71
5
72
6
73
-7
0
VERTEX
8
OBJECT003
10
0
20
0
30
0
70
128
71
-5
72
7
73
8
0
SEQEND
8
OBJECT003
0
POLYLINE
8
OBJECT004
66
1
70
64
71
8
72
12
62
50
0
VERTEX
8
OBJECT004
10
75.000000
20
-200.000000
30
6.459595
70
192
0
VERTEX
8
OBJECT004
10
57.501404
20
-200.000000
30
49.498291
70
192
0
VERTEX
8
OBJECT004
10
57.501404
20
184.000000
30
49.498291
70
192
0
VERTEX
8
OBJECT004
10
75.000000
20
184.000000
30
6.459595
70
192
0
VERTEX
8
OBJECT004
10
55.102844
20
184.000000
30
50.470459
70
192
0
VERTEX
8
OBJECT004
10
55.102844
20
-200.000000
30
50.470459
70
192
0
VERTEX
8
OBJECT004
10
74.000000
20
-200.000000
30
4.000000
70
192
0
VERTEX
8
OBJECT004
10
74.000000
20
184.000000
30
4.000000
70
192
0
VERTEX
8
OBJECT004
10
0
20
0
30
0
70
128
71
2
72
3
73
-4
0
VERTEX
8
OBJECT004
10
0
20
0
30
0
70
128
71
-2
72
4
73
1
0
VERTEX
8
OBJECT004
10
0
20
0
30
0
70
128
71
3
72
2
73
-6
0
VERTEX
8
OBJECT004
10
0
20
0
30
0
70
128
71
-3
72
6
73
5
0
VERTEX
8
OBJECT004
10
0
20
0
30
0
70
128
71
1
72
7
73
-6
0
VERTEX
8
OBJECT004
10
0
20
0
30
0
70
128
71
-1
72
6
73
2
0
VERTEX
8
OBJECT004
10
0
20
0
30
0
70
128
71
4
72
3
73
-5
0
VERTEX
8
OBJECT004
10
0
20
0
30
0
70
128
71
-4
72
5
73
8
0
VERTEX
8
OBJECT004
10
0
20
0
30
0
70
128
71
1
72
4
73
-8
0
VERTEX
8
OBJECT004
10
0
20
0
30
0
70
128
71
-1
72
8
73
7
0
VERTEX
8
OBJECT004
10
0
20
0
30
0
70
128
71
5
72
6
73
-7
0
VERTEX
8
OBJECT004
10
0
20
0
30
0
70
128
71
-5
72
7
73
8
0
SEQEND
8
OBJECT004
0
POLYLINE
8
OBJECT005
66
1
70
64
71
8
72
12
62
50
0
VERTEX
8
OBJECT005
10
55.104065
20
-200.000000
30
50.469727
70
192
0
VERTEX
8
OBJECT005
10
12.000000
20
-200.000000
30
68.000000
70
192
0
VERTEX
8
OBJECT005
10
12.000000
20
184.000000
30
68.000000
70
192
0
VERTEX
8
OBJECT005
10
55.104065
20
184.000000
30
50.469727
70
192
0
VERTEX
8
OBJECT005
10
9.540344
20
184.000000
30
67.000000
70
192
0
VERTEX
8
OBJECT005
10
9.540344
20
-200.000000
30
67.000000
70
192
0
VERTEX
8
OBJECT005
10
56.078003
20
-200.000000
30
48.079956
70
192
0
VERTEX
8
OBJECT005
10
56.078003
20
184.000000
30
48.079956
70
192
0
VERTEX
8
OBJECT005
10
0
20
0
30
0
70
128
71
2
72
3
73
-4
0
VERTEX
8
OBJECT005
10
0
20
0
30
0
70
128
71
-2
72
4
73
1
0
VERTEX
8
OBJECT005
10
0
20
0
30
0
70
128
71
3
72
2
73
-6
0
VERTEX
8
OBJECT005
10
0
20
0
30
0
70
128
71
-3
72
6
73
5
0
VERTEX
8
OBJECT005
10
0
20
0
30
0
70
128
71
2
72
1
73
-7
0
VERTEX
8
OBJECT005
10
0
20
0
30
0
70
128
71
-2
72
7
73
6
0
VERTEX
8
OBJECT005
10
0
20
0
30
0
70
128
71
4
72
3
73
-5
0
VERTEX
8
OBJECT005
10
0
20
0
30
0
70
128
71
-4
72
5
73
8
0
VERTEX
8
OBJECT005
10
0
20
0
30
0
70
128
71
1
72
4
73
-8
0
VERTEX
8
OBJECT005
10
0
20
0
30
0
70
128
71
-1
72
8
73
7
0
VERTEX
8
OBJECT005
10
0
20
0
30
0
70
128
71
6
72
7
73
-8
0
VERTEX
8
OBJECT005
10
0
20
0
30
0
70
128
71
-6
72
8
73
5
0
SEQEND
8
OBJECT005
0
POLYLINE
8
OBJECT006
66
1
70
64
71
8
72
12
62
50
0
VERTEX
8
OBJECT006
10
9.541504
20
-200.000000
30
67.000000
70
192
0
VERTEX
8
OBJECT006
10
-33.499756
20
-200.000000
30
49.499634
70
192
0
VERTEX
8
OBJECT006
10
-33.499756
20
184.000000
30
49.499634
70
192
0
VERTEX
8
OBJECT006
10
9.541504
20
184.000000
30
67.000000
70
192
0
VERTEX
8
OBJECT006
10
-34.472107
20
184.000000
30
47.099609
70
192
0
VERTEX
8
OBJECT006
10
-34.472107
20
-200.000000
30
47.099609
70
192
0
VERTEX
8
OBJECT006
10
12.000000
20
-200.000000
30
66.000000
70
192
0
VERTEX
8
OBJECT006
10
12.000000
20
184.000000
30
66.000000
70
192
0
VERTEX
8
OBJECT006
10
0
20
0
30
0
70
128
71
2
72
3
73
-4
0
VERTEX
8
OBJECT006
10
0
20
0
30
0
70
128
71
-2
72
4
73
1
0
VERTEX
8
OBJECT006
10
0
20
0
30
0
70
128
71
3
72
2
73
-6
0
VERTEX
8
OBJECT006
10
0
20
0
30
0
70
128
71
-3
72
6
73
5
0
VERTEX
8
OBJECT006
10
0
20
0
30
0
70
128
71
2
72
1
73
-7
0
VERTEX
8
OBJECT006
10
0
20
0
30
0
70
128
71
-2
72
7
73
6
0
VERTEX
8
OBJECT006
10
0
20
0
30
0
70
128
71
4
72
3
73
-5
0
VERTEX
8
OBJECT006
10
0
20
0
30
0
70
128
71
-4
72
5
73
8
0
VERTEX
8
OBJECT006
10
0
20
0
30
0
70
128
71
1
72
4
73
-8
0
VERTEX
8
OBJECT006
10
0
20
0
30
0
70
128
71
-1
72
8
73
7
0
VERTEX
8
OBJECT006
10
0
20
0
30
0
70
128
71
6
72
7
73
-8
0
VERTEX
8
OBJECT006
10
0
20
0
30
0
70
128
71
-6
72
8
73
5
0
SEQEND
8
OBJECT006
0
POLYLINE
8
OBJECT007
66
1
70
64
71
8
72
12
62
50
0
VERTEX
8
OBJECT007
10
-34.477112
20
-200.000000
30
47.099121
70
192
0
VERTEX
8
OBJECT007
10
-52.000000
20
-200.000000
30
4.000000
70
192
0
VERTEX
8
OBJECT007
10
-52.000000
20
184.000000
30
4.000000
70
192
0
VERTEX
8
OBJECT007
10
-34.477112
20
184.000000
30
47.099121
70
192
0
VERTEX
8
OBJECT007
10
-51.000000
20
184.000000
30
1.541382
70
192
0
VERTEX
8
OBJECT007
10
-51.000000
20
-200.000000
30
1.541382
70
192
0
VERTEX
8
OBJECT007
10
-32.075928
20
-200.000000
30
48.080078
70
192
0
VERTEX
8
OBJECT007
10
-32.075928
20
184.000000
30
48.080078
70
192
0
VERTEX
8
OBJECT007
10
0
20
0
30
0
70
128
71
2
72
3
73
-4
0
VERTEX
8
OBJECT007
10
0
20
0
30
0
70
128
71
-2
72
4
73
1
0
VERTEX
8
OBJECT007
10
0
20
0
30
0
70
128
71
3
72
2
73
-6
0
VERTEX
8
OBJECT007
10
0
20
0
30
0
70
128
71
-3
72
6
73
5
0
VERTEX
8
OBJECT007
10
0
20
0
30
0
70
128
71
2
72
1
73
-7
0
VERTEX
8
OBJECT007
10
0
20
0
30
0
70
128
71
-2
72
7
73
6
0
VERTEX
8
OBJECT007
10
0
20
0
30
0
70
128
71
3
72
5
73
-8
0
VERTEX
8
OBJECT007
10
0
20
0
30
0
70
128
71
-3
72
8
73
4
0
VERTEX
8
OBJECT007
10
0
20
0
30
0
70
128
71
1
72
4
73
-8
0
VERTEX
8
OBJECT007
10
0
20
0
30
0
70
128
71
-1
72
8
73
7
0
VERTEX
8
OBJECT007
10
0
20
0
30
0
70
128
71
5
72
6
73
-7
0
VERTEX
8
OBJECT007
10
0
20
0
30
0
70
128
71
-5
72
7
73
8
0
SEQEND
8
OBJECT007
0
POLYLINE
8
OBJECT008
66
1
70
64
71
8
72
12
62
50
0
VERTEX
8
OBJECT008
10
-51.000000
20
-200.000000
30
1.540649
70
192
0
VERTEX
8
OBJECT008
10
-33.500732
20
-200.000000
30
-41.499268
70
192
0
VERTEX
8
OBJECT008
10
-33.500732
20
184.000000
30
-41.499268
70
192
0
VERTEX
8
OBJECT008
10
-51.000000
20
184.000000
30
1.540649
70
192
0
VERTEX
8
OBJECT008
10
-31.100952
20
184.000000
30
-42.472656
70
192
0
VERTEX
8
OBJECT008
10
-31.100952
20
-200.000000
30
-42.472656
70
192
0
VERTEX
8
OBJECT008
10
-50.000000
20
-200.000000
30
4.000000
70
192
0
VERTEX
8
OBJECT008
10
-50.000000
20
184.000000
30
4.000000
70
192
0
VERTEX
8
OBJECT008
10
0
20
0
30
0
70
128
71
2
72
3
73
-4
0
VERTEX
8
OBJECT008
10
0
20
0
30
0
70
128
71
-2
72
4
73
1
0
VERTEX
8
OBJECT008
10
0
20
0
30
0
70
128
71
3
72
2
73
-6
0
VERTEX
8
OBJECT008
10
0
20
0
30
0
70
128
71
-3
72
6
73
5
0
VERTEX
8
OBJECT008
10
0
20
0
30
0
70
128
71
2
72
1
73
-7
0
VERTEX
8
OBJECT008
10
0
20
0
30
0
70
128
71
-2
72
7
73
6
0
VERTEX
8
OBJECT008
10
0
20
0
30
0
70
128
71
4
72
3
73
-5
0
VERTEX
8
OBJECT008
10
0
20
0
30
0
70
128
71
-4
72
5
73
8
0
VERTEX
8
OBJECT008
10
0
20
0
30
0
70
128
71
1
72
4
73
-8
0
VERTEX
8
OBJECT008
10
0
20
0
30
0
70
128
71
-1
72
8
73
7
0
VERTEX
8
OBJECT008
10
0
20
0
30
0
70
128
71
6
72
7
73
-8
0
VERTEX
8
OBJECT008
10
0
20
0
30
0
70
128
71
-6
72
8
73
5
0
SEQEND
8
OBJECT008
0
POLYLINE
8
OBJECT009
66
1
70
64
71
8
72
12
62
50
0
VERTEX
8
OBJECT009
10
9.538574
20
184.000000
30
-59.000000
70
192
0
VERTEX
8
OBJECT009
10
-31.102783
20
184.000000
30
-42.470459
70
192
0
VERTEX
8
OBJECT009
10
-31.102783
20
-200.000000
30
-42.470459
70
192
0
VERTEX
8
OBJECT009
10
9.538574
20
-200.000000
30
-59.000000
70
192
0
VERTEX
8
OBJECT009
10
12.000000
20
-200.000000
30
-58.000000
70
192
0
VERTEX
8
OBJECT009
10
-32.076965
20
-200.000000
30
-40.079956
70
192
0
VERTEX
8
OBJECT009
10
-32.076965
20
184.000000
30
-40.079956
70
192
0
VERTEX
8
OBJECT009
10
12.000000
20
184.000000
30
-58.000000
70
192
0
VERTEX
8
OBJECT009
10
0
20
0
30
0
70
128
71
2
72
3
73
-4
0
VERTEX
8
OBJECT009
10
0
20
0
30
0
70
128
71
-2
72
4
73
1
0
VERTEX
8
OBJECT009
10
0
20
0
30
0
70
128
71
4
72
3
73
-6
0
VERTEX
8
OBJECT009
10
0
20
0
30
0
70
128
71
-4
72
6
73
5
0
VERTEX
8
OBJECT009
10
0
20
0
30
0
70
128
71
2
72
1
73
-8
0
VERTEX
8
OBJECT009
10
0
20
0
30
0
70
128
71
-2
72
8
73
7
0
VERTEX
8
OBJECT009
10
0
20
0
30
0
70
128
71
1
72
4
73
-5
0
VERTEX
8
OBJECT009
10
0
20
0
30
0
70
128
71
-1
72
5
73
8
0
VERTEX
8
OBJECT009
10
0
20
0
30
0
70
128
71
3
72
2
73
-7
0
VERTEX
8
OBJECT009
10
0
20
0
30
0
70
128
71
-3
72
7
73
6
0
VERTEX
8
OBJECT009
10
0
20
0
30
0
70
128
71
6
72
7
73
-8
0
VERTEX
8
OBJECT009
10
0
20
0
30
0
70
128
71
-6
72
8
73
5
0
SEQEND
8
OBJECT009
0
ENDSEC
0
EOF
