0
SECTION
2
HEADER
9
$ACADVER
1
AC1008
9
$UCSORG
10
0.0
20
0.0
30
0.0
9
$UCSXDIR
10
1.0
20
0.0
30
0.0
9
$TILEMODE
70
1
9
$UCSYDIR
10
0.0
20
1.0
30
0.0
9
$EXTMIN
10
-40.000000
20
-256.000000
30
-60.000000
9
$EXTMAX
10
88.000000
20
256.000000
30
68.000000
0
ENDSEC
0
SECTION
2
TABLES
0
TABLE
2
LTYPE
70
1
0
LTYPE
2
CONTINUOUS
70
64
3
Solid line
72
65
73
0
40
0.0
0
ENDTAB
0
TABLE
2
LAYER
70
1
0
LAYER
2
0
70
0
62
7
6
CONTINUOUS
0
ENDTAB
0
TABLE
2
STYLE
70
1
0
STYLE
2
STANDARD
70
0
40
0.0
41
1.0
50
0.0
71
0
42
0.2
3
txt
4

0
ENDTAB
0
TABLE
2
UCS
70
0
0
ENDTAB
0
ENDSEC
0
SECTION
2
ENTITIES
0
POLYLINE
8
OBJECT000
66
1
70
64
71
8
72
12
62
50
0
VERTEX
8
OBJECT000
10
62.000000
20
-256.000000
30
52.000000
70
192
0
VERTEX
8
OBJECT000
10
-13.000000
20
-256.000000
30
52.000000
70
192
0
VERTEX
8
OBJECT000
10
-13.000000
20
256.000000
30
52.000000
70
192
0
VERTEX
8
OBJECT000
10
62.000000
20
256.000000
30
52.000000
70
192
0
VERTEX
8
OBJECT000
10
65.000000
20
256.000000
30
50.000000
70
192
0
VERTEX
8
OBJECT000
10
-18.000000
20
256.000000
30
50.000000
70
192
0
VERTEX
8
OBJECT000
10
-18.000000
20
-256.000000
30
50.000000
70
192
0
VERTEX
8
OBJECT000
10
65.000000
20
-256.000000
30
50.000000
70
192
0
VERTEX
8
OBJECT000
10
0
20
0
30
0
70
128
71
2
72
3
73
-4
0
VERTEX
8
OBJECT000
10
0
20
0
30
0
70
128
71
-2
72
4
73
1
0
VERTEX
8
OBJECT000
10
0
20
0
30
0
70
128
71
6
72
7
73
-8
0
VERTEX
8
OBJECT000
10
0
20
0
30
0
70
128
71
-6
72
8
73
5
0
VERTEX
8
OBJECT000
10
0
20
0
30
0
70
128
71
5
72
4
73
-3
0
VERTEX
8
OBJECT000
10
0
20
0
30
0
70
128
71
-5
72
3
73
6
0
VERTEX
8
OBJECT000
10
0
20
0
30
0
70
128
71
7
72
2
73
-1
0
VERTEX
8
OBJECT000
10
0
20
0
30
0
70
128
71
-7
72
1
73
8
0
VERTEX
8
OBJECT000
10
0
20
0
30
0
70
128
71
4
72
5
73
-8
0
VERTEX
8
OBJECT000
10
0
20
0
30
0
70
128
71
-4
72
8
73
1
0
VERTEX
8
OBJECT000
10
0
20
0
30
0
70
128
71
6
72
3
73
-2
0
VERTEX
8
OBJECT000
10
0
20
0
30
0
70
128
71
-6
72
2
73
7
0
SEQEND
8
OBJECT000
0
POLYLINE
8
OBJECT001
66
1
70
64
71
8
72
12
62
50
0
VERTEX
8
OBJECT001
10
69.000000
20
-256.000000
30
-40.000000
70
192
0
VERTEX
8
OBJECT001
10
-21.000000
20
-256.000000
30
-40.000000
70
192
0
VERTEX
8
OBJECT001
10
-21.000000
20
256.000000
30
-40.000000
70
192
0
VERTEX
8
OBJECT001
10
69.000000
20
256.000000
30
-40.000000
70
192
0
VERTEX
8
OBJECT001
10
64.608154
20
256.000000
30
-42.000000
70
192
0
VERTEX
8
OBJECT001
10
-16.609131
20
256.000000
30
-42.000000
70
192
0
VERTEX
8
OBJECT001
10
-16.609131
20
-256.000000
30
-42.000000
70
192
0
VERTEX
8
OBJECT001
10
64.608154
20
-256.000000
30
-42.000000
70
192
0
VERTEX
8
OBJECT001
10
0
20
0
30
0
70
128
71
2
72
3
73
-4
0
VERTEX
8
OBJECT001
10
0
20
0
30
0
70
128
71
-2
72
4
73
1
0
VERTEX
8
OBJECT001
10
0
20
0
30
0
70
128
71
6
72
7
73
-8
0
VERTEX
8
OBJECT001
10
0
20
0
30
0
70
128
71
-6
72
8
73
5
0
VERTEX
8
OBJECT001
10
0
20
0
30
0
70
128
71
5
72
4
73
-3
0
VERTEX
8
OBJECT001
10
0
20
0
30
0
70
128
71
-5
72
3
73
6
0
VERTEX
8
OBJECT001
10
0
20
0
30
0
70
128
71
7
72
2
73
-1
0
VERTEX
8
OBJECT001
10
0
20
0
30
0
70
128
71
-7
72
1
73
8
0
VERTEX
8
OBJECT001
10
0
20
0
30
0
70
128
71
8
72
1
73
-4
0
VERTEX
8
OBJECT001
10
0
20
0
30
0
70
128
71
-8
72
4
73
5
0
VERTEX
8
OBJECT001
10
0
20
0
30
0
70
128
71
2
72
7
73
-6
0
VERTEX
8
OBJECT001
10
0
20
0
30
0
70
128
71
-2
72
6
73
3
0
SEQEND
8
OBJECT001
0
POLYLINE
8
OBJECT002
66
1
70
64
71
8
72
12
62
50
0
VERTEX
8
OBJECT002
10
24.000000
20
256.000000
30
-60.000000
70
192
0
VERTEX
8
OBJECT002
10
24.000000
20
-256.000000
30
-60.000000
70
192
0
VERTEX
8
OBJECT002
10
69.499939
20
-256.000000
30
-41.499023
70
192
0
VERTEX
8
OBJECT002
10
69.499939
20
256.000000
30
-41.499023
70
192
0
VERTEX
8
OBJECT002
10
70.473755
20
256.000000
30
-39.100098
70
192
0
VERTEX
8
OBJECT002
10
70.473755
20
-256.000000
30
-39.100098
70
192
0
VERTEX
8
OBJECT002
10
21.539429
20
-256.000000
30
-59.000000
70
192
0
VERTEX
8
OBJECT002
10
21.539429
20
256.000000
30
-59.000000
70
192
0
VERTEX
8
OBJECT002
10
0
20
0
30
0
70
128
71
2
72
3
73
-4
0
VERTEX
8
OBJECT002
10
0
20
0
30
0
70
128
71
-2
72
4
73
1
0
VERTEX
8
OBJECT002
10
0
20
0
30
0
70
128
71
4
72
3
73
-6
0
VERTEX
8
OBJECT002
10
0
20
0
30
0
70
128
71
-4
72
6
73
5
0
VERTEX
8
OBJECT002
10
0
20
0
30
0
70
128
71
2
72
1
73
-8
0
VERTEX
8
OBJECT002
10
0
20
0
30
0
70
128
71
-2
72
8
73
7
0
VERTEX
8
OBJECT002
10
0
20
0
30
0
70
128
71
3
72
2
73
-7
0
VERTEX
8
OBJECT002
10
0
20
0
30
0
70
128
71
-3
72
7
73
6
0
VERTEX
8
OBJECT002
10
0
20
0
30
0
70
128
71
1
72
4
73
-5
0
VERTEX
8
OBJECT002
10
0
20
0
30
0
70
128
71
-1
72
5
73
8
0
VERTEX
8
OBJECT002
10
0
20
0
30
0
70
128
71
8
72
5
73
-6
0
VERTEX
8
OBJECT002
10
0
20
0
30
0
70
128
71
-8
72
6
73
7
0
SEQEND
8
OBJECT002
0
POLYLINE
8
OBJECT003
66
1
70
64
71
8
72
12
62
50
0
VERTEX
8
OBJECT003
10
70.474731
20
-256.000000
30
-39.099365
70
192
0
VERTEX
8
OBJECT003
10
88.000000
20
-256.000000
30
4.000000
70
192
0
VERTEX
8
OBJECT003
10
88.000000
20
256.000000
30
4.000000
70
192
0
VERTEX
8
OBJECT003
10
70.474731
20
256.000000
30
-39.099365
70
192
0
VERTEX
8
OBJECT003
10
87.000000
20
256.000000
30
6.460205
70
192
0
VERTEX
8
OBJECT003
10
87.000000
20
-256.000000
30
6.460205
70
192
0
VERTEX
8
OBJECT003
10
68.077820
20
-256.000000
30
-40.080444
70
192
0
VERTEX
8
OBJECT003
10
68.077820
20
256.000000
30
-40.080444
70
192
0
VERTEX
8
OBJECT003
10
0
20
0
30
0
70
128
71
2
72
3
73
-4
0
VERTEX
8
OBJECT003
10
0
20
0
30
0
70
128
71
-2
72
4
73
1
0
VERTEX
8
OBJECT003
10
0
20
0
30
0
70
128
71
3
72
2
73
-6
0
VERTEX
8
OBJECT003
10
0
20
0
30
0
70
128
71
-3
72
6
73
5
0
VERTEX
8
OBJECT003
10
0
20
0
30
0
70
128
71
2
72
1
73
-7
0
VERTEX
8
OBJECT003
10
0
20
0
30
0
70
128
71
-2
72
7
73
6
0
VERTEX
8
OBJECT003
10
0
20
0
30
0
70
128
71
4
72
3
73
-5
0
VERTEX
8
OBJECT003
10
0
20
0
30
0
70
128
71
-4
72
5
73
8
0
VERTEX
8
OBJECT003
10
0
20
0
30
0
70
128
71
1
72
4
73
-8
0
VERTEX
8
OBJECT003
10
0
20
0
30
0
70
128
71
-1
72
8
73
7
0
VERTEX
8
OBJECT003
10
0
20
0
30
0
70
128
71
5
72
6
73
-7
0
VERTEX
8
OBJECT003
10
0
20
0
30
0
70
128
71
-5
72
7
73
8
0
SEQEND
8
OBJECT003
0
POLYLINE
8
OBJECT004
66
1
70
64
71
8
72
12
62
50
0
VERTEX
8
OBJECT004
10
87.000000
20
-256.000000
30
6.460815
70
192
0
VERTEX
8
OBJECT004
10
69.501953
20
-256.000000
30
49.499390
70
192
0
VERTEX
8
OBJECT004
10
69.501953
20
256.000000
30
49.499390
70
192
0
VERTEX
8
OBJECT004
10
87.000000
20
256.000000
30
6.460815
70
192
0
VERTEX
8
OBJECT004
10
67.103149
20
256.000000
30
50.469727
70
192
0
VERTEX
8
OBJECT004
10
67.103149
20
-256.000000
30
50.469727
70
192
0
VERTEX
8
OBJECT004
10
86.000000
20
-256.000000
30
4.000000
70
192
0
VERTEX
8
OBJECT004
10
86.000000
20
256.000000
30
4.000000
70
192
0
VERTEX
8
OBJECT004
10
0
20
0
30
0
70
128
71
2
72
3
73
-4
0
VERTEX
8
OBJECT004
10
0
20
0
30
0
70
128
71
-2
72
4
73
1
0
VERTEX
8
OBJECT004
10
0
20
0
30
0
70
128
71
3
72
2
73
-6
0
VERTEX
8
OBJECT004
10
0
20
0
30
0
70
128
71
-3
72
6
73
5
0
VERTEX
8
OBJECT004
10
0
20
0
30
0
70
128
71
1
72
7
73
-6
0
VERTEX
8
OBJECT004
10
0
20
0
30
0
70
128
71
-1
72
6
73
2
0
VERTEX
8
OBJECT004
10
0
20
0
30
0
70
128
71
4
72
3
73
-5
0
VERTEX
8
OBJECT004
10
0
20
0
30
0
70
128
71
-4
72
5
73
8
0
VERTEX
8
OBJECT004
10
0
20
0
30
0
70
128
71
1
72
4
73
-8
0
VERTEX
8
OBJECT004
10
0
20
0
30
0
70
128
71
-1
72
8
73
7
0
VERTEX
8
OBJECT004
10
0
20
0
30
0
70
128
71
5
72
6
73
-7
0
VERTEX
8
OBJECT004
10
0
20
0
30
0
70
128
71
-5
72
7
73
8
0
SEQEND
8
OBJECT004
0
POLYLINE
8
OBJECT005
66
1
70
64
71
8
72
12
62
50
0
VERTEX
8
OBJECT005
10
67.103577
20
-256.000000
30
50.471069
70
192
0
VERTEX
8
OBJECT005
10
24.000000
20
-256.000000
30
68.000000
70
192
0
VERTEX
8
OBJECT005
10
24.000000
20
256.000000
30
68.000000
70
192
0
VERTEX
8
OBJECT005
10
67.103577
20
256.000000
30
50.471069
70
192
0
VERTEX
8
OBJECT005
10
21.538940
20
256.000000
30
67.000000
70
192
0
VERTEX
8
OBJECT005
10
21.538940
20
-256.000000
30
67.000000
70
192
0
VERTEX
8
OBJECT005
10
68.078796
20
-256.000000
30
48.080444
70
192
0
VERTEX
8
OBJECT005
10
68.078796
20
256.000000
30
48.080444
70
192
0
VERTEX
8
OBJECT005
10
0
20
0
30
0
70
128
71
2
72
3
73
-4
0
VERTEX
8
OBJECT005
10
0
20
0
30
0
70
128
71
-2
72
4
73
1
0
VERTEX
8
OBJECT005
10
0
20
0
30
0
70
128
71
3
72
2
73
-6
0
VERTEX
8
OBJECT005
10
0
20
0
30
0
70
128
71
-3
72
6
73
5
0
VERTEX
8
OBJECT005
10
0
20
0
30
0
70
128
71
2
72
1
73
-7
0
VERTEX
8
OBJECT005
10
0
20
0
30
0
70
128
71
-2
72
7
73
6
0
VERTEX
8
OBJECT005
10
0
20
0
30
0
70
128
71
4
72
3
73
-5
0
VERTEX
8
OBJECT005
10
0
20
0
30
0
70
128
71
-4
72
5
73
8
0
VERTEX
8
OBJECT005
10
0
20
0
30
0
70
128
71
1
72
4
73
-8
0
VERTEX
8
OBJECT005
10
0
20
0
30
0
70
128
71
-1
72
8
73
7
0
VERTEX
8
OBJECT005
10
0
20
0
30
0
70
128
71
6
72
7
73
-8
0
VERTEX
8
OBJECT005
10
0
20
0
30
0
70
128
71
-6
72
8
73
5
0
SEQEND
8
OBJECT005
0
POLYLINE
8
OBJECT006
66
1
70
64
71
8
72
12
62
50
0
VERTEX
8
OBJECT006
10
21.539917
20
-256.000000
30
67.000000
70
192
0
VERTEX
8
OBJECT006
10
-21.498596
20
-256.000000
30
49.501465
70
192
0
VERTEX
8
OBJECT006
10
-21.498596
20
256.000000
30
49.501465
70
192
0
VERTEX
8
OBJECT006
10
21.539917
20
256.000000
30
67.000000
70
192
0
VERTEX
8
OBJECT006
10
-22.472778
20
256.000000
30
47.100830
70
192
0
VERTEX
8
OBJECT006
10
-22.472778
20
-256.000000
30
47.100830
70
192
0
VERTEX
8
OBJECT006
10
24.000000
20
-256.000000
30
66.000000
70
192
0
VERTEX
8
OBJECT006
10
24.000000
20
256.000000
30
66.000000
70
192
0
VERTEX
8
OBJECT006
10
0
20
0
30
0
70
128
71
2
72
3
73
-4
0
VERTEX
8
OBJECT006
10
0
20
0
30
0
70
128
71
-2
72
4
73
1
0
VERTEX
8
OBJECT006
10
0
20
0
30
0
70
128
71
3
72
2
73
-6
0
VERTEX
8
OBJECT006
10
0
20
0
30
0
70
128
71
-3
72
6
73
5
0
VERTEX
8
OBJECT006
10
0
20
0
30
0
70
128
71
2
72
1
73
-7
0
VERTEX
8
OBJECT006
10
0
20
0
30
0
70
128
71
-2
72
7
73
6
0
VERTEX
8
OBJECT006
10
0
20
0
30
0
70
128
71
4
72
3
73
-5
0
VERTEX
8
OBJECT006
10
0
20
0
30
0
70
128
71
-4
72
5
73
8
0
VERTEX
8
OBJECT006
10
0
20
0
30
0
70
128
71
1
72
4
73
-8
0
VERTEX
8
OBJECT006
10
0
20
0
30
0
70
128
71
-1
72
8
73
7
0
VERTEX
8
OBJECT006
10
0
20
0
30
0
70
128
71
6
72
7
73
-8
0
VERTEX
8
OBJECT006
10
0
20
0
30
0
70
128
71
-6
72
8
73
5
0
SEQEND
8
OBJECT006
0
POLYLINE
8
OBJECT007
66
1
70
64
71
8
72
12
62
50
0
VERTEX
8
OBJECT007
10
-22.476196
20
-256.000000
30
47.099487
70
192
0
VERTEX
8
OBJECT007
10
-40.000000
20
-256.000000
30
4.000000
70
192
0
VERTEX
8
OBJECT007
10
-40.000000
20
256.000000
30
4.000000
70
192
0
VERTEX
8
OBJECT007
10
-22.476196
20
256.000000
30
47.099487
70
192
0
VERTEX
8
OBJECT007
10
-39.000000
20
256.000000
30
1.541138
70
192
0
VERTEX
8
OBJECT007
10
-39.000000
20
-256.000000
30
1.541138
70
192
0
VERTEX
8
OBJECT007
10
-20.076843
20
-256.000000
30
48.080444
70
192
0
VERTEX
8
OBJECT007
10
-20.076843
20
256.000000
30
48.080444
70
192
0
VERTEX
8
OBJECT007
10
0
20
0
30
0
70
128
71
2
72
3
73
-4
0
VERTEX
8
OBJECT007
10
0
20
0
30
0
70
128
71
-2
72
4
73
1
0
VERTEX
8
OBJECT007
10
0
20
0
30
0
70
128
71
3
72
2
73
-6
0
VERTEX
8
OBJECT007
10
0
20
0
30
0
70
128
71
-3
72
6
73
5
0
VERTEX
8
OBJECT007
10
0
20
0
30
0
70
128
71
2
72
1
73
-7
0
VERTEX
8
OBJECT007
10
0
20
0
30
0
70
128
71
-2
72
7
73
6
0
VERTEX
8
OBJECT007
10
0
20
0
30
0
70
128
71
3
72
5
73
-8
0
VERTEX
8
OBJECT007
10
0
20
0
30
0
70
128
71
-3
72
8
73
4
0
VERTEX
8
OBJECT007
10
0
20
0
30
0
70
128
71
1
72
4
73
-8
0
VERTEX
8
OBJECT007
10
0
20
0
30
0
70
128
71
-1
72
8
73
7
0
VERTEX
8
OBJECT007
10
0
20
0
30
0
70
128
71
5
72
6
73
-7
0
VERTEX
8
OBJECT007
10
0
20
0
30
0
70
128
71
-5
72
7
73
8
0
SEQEND
8
OBJECT007
0
POLYLINE
8
OBJECT008
66
1
70
64
71
8
72
12
62
50
0
VERTEX
8
OBJECT008
10
-39.000000
20
-256.000000
30
1.540527
70
192
0
VERTEX
8
OBJECT008
10
-21.499451
20
-256.000000
30
-41.500488
70
192
0
VERTEX
8
OBJECT008
10
-21.499451
20
256.000000
30
-41.500488
70
192
0
VERTEX
8
OBJECT008
10
-39.000000
20
256.000000
30
1.540527
70
192
0
VERTEX
8
OBJECT008
10
-19.103638
20
256.000000
30
-42.470825
70
192
0
VERTEX
8
OBJECT008
10
-19.103638
20
-256.000000
30
-42.470825
70
192
0
VERTEX
8
OBJECT008
10
-38.000000
20
-256.000000
30
4.000000
70
192
0
VERTEX
8
OBJECT008
10
-38.000000
20
256.000000
30
4.000000
70
192
0
VERTEX
8
OBJECT008
10
0
20
0
30
0
70
128
71
2
72
3
73
-4
0
VERTEX
8
OBJECT008
10
0
20
0
30
0
70
128
71
-2
72
4
73
1
0
VERTEX
8
OBJECT008
10
0
20
0
30
0
70
128
71
3
72
2
73
-6
0
VERTEX
8
OBJECT008
10
0
20
0
30
0
70
128
71
-3
72
6
73
5
0
VERTEX
8
OBJECT008
10
0
20
0
30
0
70
128
71
2
72
1
73
-7
0
VERTEX
8
OBJECT008
10
0
20
0
30
0
70
128
71
-2
72
7
73
6
0
VERTEX
8
OBJECT008
10
0
20
0
30
0
70
128
71
4
72
3
73
-5
0
VERTEX
8
OBJECT008
10
0
20
0
30
0
70
128
71
-4
72
5
73
8
0
VERTEX
8
OBJECT008
10
0
20
0
30
0
70
128
71
1
72
4
73
-8
0
VERTEX
8
OBJECT008
10
0
20
0
30
0
70
128
71
-1
72
8
73
7
0
VERTEX
8
OBJECT008
10
0
20
0
30
0
70
128
71
5
72
6
73
-7
0
VERTEX
8
OBJECT008
10
0
20
0
30
0
70
128
71
-5
72
7
73
8
0
SEQEND
8
OBJECT008
0
POLYLINE
8
OBJECT009
66
1
70
64
71
8
72
12
62
50
0
VERTEX
8
OBJECT009
10
21.541016
20
256.000000
30
-59.000000
70
192
0
VERTEX
8
OBJECT009
10
-19.102844
20
256.000000
30
-42.470337
70
192
0
VERTEX
8
OBJECT009
10
-19.102844
20
-256.000000
30
-42.470337
70
192
0
VERTEX
8
OBJECT009
10
21.541016
20
-256.000000
30
-59.000000
70
192
0
VERTEX
8
OBJECT009
10
24.000000
20
-256.000000
30
-58.000000
70
192
0
VERTEX
8
OBJECT009
10
-20.076843
20
-256.000000
30
-40.080322
70
192
0
VERTEX
8
OBJECT009
10
-20.076843
20
256.000000
30
-40.080322
70
192
0
VERTEX
8
OBJECT009
10
24.000000
20
256.000000
30
-58.000000
70
192
0
VERTEX
8
OBJECT009
10
0
20
0
30
0
70
128
71
2
72
3
73
-4
0
VERTEX
8
OBJECT009
10
0
20
0
30
0
70
128
71
-2
72
4
73
1
0
VERTEX
8
OBJECT009
10
0
20
0
30
0
70
128
71
4
72
3
73
-6
0
VERTEX
8
OBJECT009
10
0
20
0
30
0
70
128
71
-4
72
6
73
5
0
VERTEX
8
OBJECT009
10
0
20
0
30
0
70
128
71
2
72
1
73
-8
0
VERTEX
8
OBJECT009
10
0
20
0
30
0
70
128
71
-2
72
8
73
7
0
VERTEX
8
OBJECT009
10
0
20
0
30
0
70
128
71
1
72
4
73
-5
0
VERTEX
8
OBJECT009
10
0
20
0
30
0
70
128
71
-1
72
5
73
8
0
VERTEX
8
OBJECT009
10
0
20
0
30
0
70
128
71
3
72
2
73
-7
0
VERTEX
8
OBJECT009
10
0
20
0
30
0
70
128
71
-3
72
7
73
6
0
VERTEX
8
OBJECT009
10
0
20
0
30
0
70
128
71
6
72
7
73
-8
0
VERTEX
8
OBJECT009
10
0
20
0
30
0
70
128
71
-6
72
8
73
5
0
SEQEND
8
OBJECT009
0
ENDSEC
0
EOF
