0
SECTION
2
HEADER
9
$ACADVER
1
AC1008
9
$UCSORG
10
0.0
20
0.0
30
0.0
9
$UCSXDIR
10
1.0
20
0.0
30
0.0
9
$TILEMODE
70
1
9
$UCSYDIR
10
0.0
20
1.0
30
0.0
9
$EXTMIN
10
-768.000000
20
-180.000000
30
-48.014404
9
$EXTMAX
10
796.000000
20
170.231812
30
68.010742
0
ENDSEC
0
SECTION
2
TABLES
0
TABLE
2
LTYPE
70
1
0
LTYPE
2
CONTINUOUS
70
64
3
Solid line
72
65
73
0
40
0.0
0
ENDTAB
0
TABLE
2
LAYER
70
1
0
LAYER
2
0
70
0
62
7
6
CONTINUOUS
0
ENDTAB
0
TABLE
2
STYLE
70
1
0
STYLE
2
STANDARD
70
0
40
0.0
41
1.0
50
0.0
71
0
42
0.2
3
txt
4

0
ENDTAB
0
TABLE
2
UCS
70
0
0
ENDTAB
0
ENDSEC
0
SECTION
2
ENTITIES
0
POLYLINE
8
OBJECT000
66
1
70
64
71
8
72
12
62
50
0
VERTEX
8
OBJECT000
10
716.000000
20
-3.768188
30
67.830078
70
192
0
VERTEX
8
OBJECT000
10
716.000000
20
-5.503174
30
68.000000
70
192
0
VERTEX
8
OBJECT000
10
-768.000000
20
-5.503174
30
68.000000
70
192
0
VERTEX
8
OBJECT000
10
-768.000000
20
-3.768188
30
67.830078
70
192
0
VERTEX
8
OBJECT000
10
-768.000000
20
-4.428162
30
27.070068
70
192
0
VERTEX
8
OBJECT000
10
716.000000
20
-4.428162
30
27.070068
70
192
0
VERTEX
8
OBJECT000
10
-768.000000
20
61.708252
30
19.920166
70
192
0
VERTEX
8
OBJECT000
10
716.000000
20
61.708252
30
19.920166
70
192
0
VERTEX
8
OBJECT000
10
0
20
0
30
0
70
128
71
2
72
3
73
-4
0
VERTEX
8
OBJECT000
10
0
20
0
30
0
70
128
71
-2
72
4
73
1
0
VERTEX
8
OBJECT000
10
0
20
0
30
0
70
128
71
3
72
2
73
-6
0
VERTEX
8
OBJECT000
10
0
20
0
30
0
70
128
71
-3
72
6
73
5
0
VERTEX
8
OBJECT000
10
0
20
0
30
0
70
128
71
4
72
3
73
-5
0
VERTEX
8
OBJECT000
10
0
20
0
30
0
70
128
71
-4
72
5
73
7
0
VERTEX
8
OBJECT000
10
0
20
0
30
0
70
128
71
2
72
1
73
-8
0
VERTEX
8
OBJECT000
10
0
20
0
30
0
70
128
71
-2
72
8
73
6
0
VERTEX
8
OBJECT000
10
0
20
0
30
0
70
128
71
1
72
4
73
-7
0
VERTEX
8
OBJECT000
10
0
20
0
30
0
70
128
71
-1
72
7
73
8
0
VERTEX
8
OBJECT000
10
0
20
0
30
0
70
128
71
7
72
5
73
-6
0
VERTEX
8
OBJECT000
10
0
20
0
30
0
70
128
71
-7
72
6
73
8
0
SEQEND
8
OBJECT000
0
POLYLINE
8
OBJECT001
66
1
70
64
71
10
72
16
62
50
0
VERTEX
8
OBJECT001
10
716.000000
20
-120.582092
30
47.812256
70
192
0
VERTEX
8
OBJECT001
10
-768.000000
20
-120.582092
30
47.812256
70
192
0
VERTEX
8
OBJECT001
10
-768.000000
20
-68.620911
30
60.879883
70
192
0
VERTEX
8
OBJECT001
10
716.000000
20
-68.620911
30
60.879883
70
192
0
VERTEX
8
OBJECT001
10
716.000000
20
-135.305298
30
41.219971
70
192
0
VERTEX
8
OBJECT001
10
-768.000000
20
-135.305298
30
41.219971
70
192
0
VERTEX
8
OBJECT001
10
-768.000000
20
-5.505188
30
68.010010
70
192
0
VERTEX
8
OBJECT001
10
716.000000
20
-5.505188
30
68.010010
70
192
0
VERTEX
8
OBJECT001
10
716.000000
20
-4.428162
30
27.070068
70
192
0
VERTEX
8
OBJECT001
10
-768.000000
20
-4.428162
30
27.070068
70
192
0
VERTEX
8
OBJECT001
10
0
20
0
30
0
70
128
71
2
72
3
73
-4
0
VERTEX
8
OBJECT001
10
0
20
0
30
0
70
128
71
-2
72
4
73
1
0
VERTEX
8
OBJECT001
10
0
20
0
30
0
70
128
71
6
72
2
73
-1
0
VERTEX
8
OBJECT001
10
0
20
0
30
0
70
128
71
-6
72
1
73
5
0
VERTEX
8
OBJECT001
10
0
20
0
30
0
70
128
71
3
72
7
73
-8
0
VERTEX
8
OBJECT001
10
0
20
0
30
0
70
128
71
-3
72
8
73
4
0
VERTEX
8
OBJECT001
10
0
20
0
30
0
70
128
71
8
72
7
73
-10
0
VERTEX
8
OBJECT001
10
0
20
0
30
0
70
128
71
-8
72
10
73
9
0
VERTEX
8
OBJECT001
10
0
20
0
30
0
70
128
71
7
72
3
73
-2
0
VERTEX
8
OBJECT001
10
0
20
0
30
0
70
128
71
-7
72
2
73
-6
0
VERTEX
8
OBJECT001
10
0
20
0
30
0
70
128
71
-7
72
6
73
10
0
VERTEX
8
OBJECT001
10
0
20
0
30
0
70
128
71
1
72
4
73
-8
0
VERTEX
8
OBJECT001
10
0
20
0
30
0
70
128
71
-1
72
8
73
-9
0
VERTEX
8
OBJECT001
10
0
20
0
30
0
70
128
71
-1
72
9
73
5
0
VERTEX
8
OBJECT001
10
0
20
0
30
0
70
128
71
10
72
6
73
-5
0
VERTEX
8
OBJECT001
10
0
20
0
30
0
70
128
71
-10
72
5
73
9
0
SEQEND
8
OBJECT001
0
POLYLINE
8
OBJECT002
66
1
70
64
71
16
72
28
62
50
0
VERTEX
8
OBJECT002
10
716.000000
20
-3.744141
30
67.820068
70
192
0
VERTEX
8
OBJECT002
10
724.350342
20
-3.744080
30
67.820068
70
192
0
VERTEX
8
OBJECT002
10
723.946533
20
-5.513550
30
68.000000
70
192
0
VERTEX
8
OBJECT002
10
716.000000
20
-5.515503
30
68.000000
70
192
0
VERTEX
8
OBJECT002
10
716.000000
20
-4.445557
30
27.036133
70
192
0
VERTEX
8
OBJECT002
10
774.880249
20
-4.906616
30
45.235596
70
192
0
VERTEX
8
OBJECT002
10
783.401978
20
-4.729065
30
38.517822
70
192
0
VERTEX
8
OBJECT002
10
791.064819
20
-4.428406
30
27.078857
70
192
0
VERTEX
8
OBJECT002
10
789.857178
20
61.703430
30
19.920654
70
192
0
VERTEX
8
OBJECT002
10
791.223877
20
57.596497
30
20.365967
70
192
0
VERTEX
8
OBJECT002
10
793.398315
20
43.534241
30
23.552490
70
192
0
VERTEX
8
OBJECT002
10
783.359863
20
18.170044
30
38.560303
70
192
0
VERTEX
8
OBJECT002
10
774.909790
20
14.964905
30
45.220215
70
192
0
VERTEX
8
OBJECT002
10
765.312500
20
21.275208
30
49.509033
70
192
0
VERTEX
8
OBJECT002
10
794.160034
20
38.637451
30
22.419678
70
192
0
VERTEX
8
OBJECT002
10
716.000000
20
61.773865
30
19.869141
70
192
0
VERTEX
8
OBJECT002
10
0
20
0
30
0
70
128
71
2
72
3
73
-4
0
VERTEX
8
OBJECT002
10
0
20
0
30
0
70
128
71
-2
72
4
73
1
0
VERTEX
8
OBJECT002
10
0
20
0
30
0
70
128
71
4
72
3
73
-6
0
VERTEX
8
OBJECT002
10
0
20
0
30
0
70
128
71
-4
72
6
73
-7
0
VERTEX
8
OBJECT002
10
0
20
0
30
0
70
128
71
-4
72
7
73
-8
0
VERTEX
8
OBJECT002
10
0
20
0
30
0
70
128
71
-4
72
8
73
5
0
VERTEX
8
OBJECT002
10
0
20
0
30
0
70
128
71
10
72
11
73
-12
0
VERTEX
8
OBJECT002
10
0
20
0
30
0
70
128
71
-10
72
12
73
-13
0
VERTEX
8
OBJECT002
10
0
20
0
30
0
70
128
71
-10
72
13
73
-14
0
VERTEX
8
OBJECT002
10
0
20
0
30
0
70
128
71
-10
72
14
73
9
0
VERTEX
8
OBJECT002
10
0
20
0
30
0
70
128
71
13
72
6
73
-3
0
VERTEX
8
OBJECT002
10
0
20
0
30
0
70
128
71
-13
72
3
73
-2
0
VERTEX
8
OBJECT002
10
0
20
0
30
0
70
128
71
-13
72
2
73
14
0
VERTEX
8
OBJECT002
10
0
20
0
30
0
70
128
71
11
72
10
73
15
0
VERTEX
8
OBJECT002
10
0
20
0
30
0
70
128
71
6
72
13
73
-12
0
VERTEX
8
OBJECT002
10
0
20
0
30
0
70
128
71
-6
72
12
73
7
0
VERTEX
8
OBJECT002
10
0
20
0
30
0
70
128
71
8
72
7
73
-12
0
VERTEX
8
OBJECT002
10
0
20
0
30
0
70
128
71
-8
72
12
73
-11
0
VERTEX
8
OBJECT002
10
0
20
0
30
0
70
128
71
-8
72
11
73
15
0
VERTEX
8
OBJECT002
10
0
20
0
30
0
70
128
71
1
72
4
73
-5
0
VERTEX
8
OBJECT002
10
0
20
0
30
0
70
128
71
-1
72
5
73
16
0
VERTEX
8
OBJECT002
10
0
20
0
30
0
70
128
71
9
72
14
73
-2
0
VERTEX
8
OBJECT002
10
0
20
0
30
0
70
128
71
-9
72
2
73
-1
0
VERTEX
8
OBJECT002
10
0
20
0
30
0
70
128
71
-9
72
1
73
16
0
VERTEX
8
OBJECT002
10
0
20
0
30
0
70
128
71
10
72
9
73
-16
0
VERTEX
8
OBJECT002
10
0
20
0
30
0
70
128
71
-10
72
16
73
-5
0
VERTEX
8
OBJECT002
10
0
20
0
30
0
70
128
71
-10
72
5
73
-8
0
VERTEX
8
OBJECT002
10
0
20
0
30
0
70
128
71
-10
72
8
73
15
0
SEQEND
8
OBJECT002
0
POLYLINE
8
OBJECT003
66
1
70
64
71
16
72
28
62
50
0
VERTEX
8
OBJECT003
10
722.541382
20
-120.579224
30
47.805420
70
192
0
VERTEX
8
OBJECT003
10
716.000000
20
-120.579224
30
47.805420
70
192
0
VERTEX
8
OBJECT003
10
716.000000
20
-68.609558
30
60.880859
70
192
0
VERTEX
8
OBJECT003
10
728.652344
20
-68.609558
30
60.880859
70
192
0
VERTEX
8
OBJECT003
10
725.141479
20
-135.301147
30
41.218018
70
192
0
VERTEX
8
OBJECT003
10
716.000000
20
-135.301147
30
41.218018
70
192
0
VERTEX
8
OBJECT003
10
734.978638
20
-49.204041
30
63.070557
70
192
0
VERTEX
8
OBJECT003
10
716.000000
20
-5.505249
30
68.000000
70
192
0
VERTEX
8
OBJECT003
10
723.947754
20
-5.505249
30
68.000000
70
192
0
VERTEX
8
OBJECT003
10
791.040161
20
-4.428101
30
27.070068
70
192
0
VERTEX
8
OBJECT003
10
783.300049
20
-4.731506
30
38.600098
70
192
0
VERTEX
8
OBJECT003
10
774.911255
20
-4.905701
30
45.218994
70
192
0
VERTEX
8
OBJECT003
10
716.000000
20
-4.428162
30
27.070068
70
192
0
VERTEX
8
OBJECT003
10
788.535645
20
-38.939758
30
30.800781
70
192
0
VERTEX
8
OBJECT003
10
774.910400
20
-22.727844
30
45.219727
70
192
0
VERTEX
8
OBJECT003
10
783.300049
20
-25.863098
30
38.600098
70
192
0
VERTEX
8
OBJECT003
10
0
20
0
30
0
70
128
71
2
72
3
73
-4
0
VERTEX
8
OBJECT003
10
0
20
0
30
0
70
128
71
-2
72
4
73
1
0
VERTEX
8
OBJECT003
10
0
20
0
30
0
70
128
71
6
72
2
73
-1
0
VERTEX
8
OBJECT003
10
0
20
0
30
0
70
128
71
-6
72
1
73
5
0
VERTEX
8
OBJECT003
10
0
20
0
30
0
70
128
71
4
72
3
73
-8
0
VERTEX
8
OBJECT003
10
0
20
0
30
0
70
128
71
-4
72
8
73
-9
0
VERTEX
8
OBJECT003
10
0
20
0
30
0
70
128
71
-4
72
9
73
7
0
VERTEX
8
OBJECT003
10
0
20
0
30
0
70
128
71
11
72
12
73
-9
0
VERTEX
8
OBJECT003
10
0
20
0
30
0
70
128
71
-11
72
9
73
-8
0
VERTEX
8
OBJECT003
10
0
20
0
30
0
70
128
71
-11
72
8
73
-13
0
VERTEX
8
OBJECT003
10
0
20
0
30
0
70
128
71
-11
72
13
73
10
0
VERTEX
8
OBJECT003
10
0
20
0
30
0
70
128
71
5
72
1
73
-4
0
VERTEX
8
OBJECT003
10
0
20
0
30
0
70
128
71
-5
72
4
73
-7
0
VERTEX
8
OBJECT003
10
0
20
0
30
0
70
128
71
-5
72
7
73
-15
0
VERTEX
8
OBJECT003
10
0
20
0
30
0
70
128
71
-5
72
15
73
-16
0
VERTEX
8
OBJECT003
10
0
20
0
30
0
70
128
71
-5
72
16
73
14
0
VERTEX
8
OBJECT003
10
0
20
0
30
0
70
128
71
7
72
9
73
-12
0
VERTEX
8
OBJECT003
10
0
20
0
30
0
70
128
71
-7
72
12
73
15
0
VERTEX
8
OBJECT003
10
0
20
0
30
0
70
128
71
15
72
12
73
-11
0
VERTEX
8
OBJECT003
10
0
20
0
30
0
70
128
71
-15
72
11
73
16
0
VERTEX
8
OBJECT003
10
0
20
0
30
0
70
128
71
16
72
11
73
-10
0
VERTEX
8
OBJECT003
10
0
20
0
30
0
70
128
71
-16
72
10
73
14
0
VERTEX
8
OBJECT003
10
0
20
0
30
0
70
128
71
8
72
3
73
-2
0
VERTEX
8
OBJECT003
10
0
20
0
30
0
70
128
71
-8
72
2
73
-6
0
VERTEX
8
OBJECT003
10
0
20
0
30
0
70
128
71
-8
72
6
73
13
0
VERTEX
8
OBJECT003
10
0
20
0
30
0
70
128
71
10
72
13
73
-6
0
VERTEX
8
OBJECT003
10
0
20
0
30
0
70
128
71
-10
72
6
73
-5
0
VERTEX
8
OBJECT003
10
0
20
0
30
0
70
128
71
-10
72
5
73
14
0
SEQEND
8
OBJECT003
0
POLYLINE
8
OBJECT004
66
1
70
64
71
20
72
36
62
50
0
VERTEX
8
OBJECT004
10
796.000000
20
-27.448120
30
9.939941
70
192
0
VERTEX
8
OBJECT004
10
796.000000
20
-27.448120
30
19.669922
70
192
0
VERTEX
8
OBJECT004
10
796.000000
20
-4.234192
30
19.669922
70
192
0
VERTEX
8
OBJECT004
10
796.000000
20
-3.980164
30
10.000000
70
192
0
VERTEX
8
OBJECT004
10
716.000000
20
-135.296997
30
41.219971
70
192
0
VERTEX
8
OBJECT004
10
725.130249
20
-135.296997
30
41.219971
70
192
0
VERTEX
8
OBJECT004
10
729.388672
20
-159.415771
30
30.429932
70
192
0
VERTEX
8
OBJECT004
10
716.000000
20
-159.415771
30
30.429932
70
192
0
VERTEX
8
OBJECT004
10
732.576904
20
-162.509033
30
27.291016
70
192
0
VERTEX
8
OBJECT004
10
718.804321
20
-179.974854
30
9.549561
70
192
0
VERTEX
8
OBJECT004
10
716.000000
20
-179.974854
30
9.549561
70
192
0
VERTEX
8
OBJECT004
10
791.040527
20
-4.428650
30
27.069336
70
192
0
VERTEX
8
OBJECT004
10
716.000000
20
-4.428650
30
27.069336
70
192
0
VERTEX
8
OBJECT004
10
716.000000
20
-3.980225
30
10.000000
70
192
0
VERTEX
8
OBJECT004
10
776.328857
20
-107.119873
30
9.736084
70
192
0
VERTEX
8
OBJECT004
10
787.322388
20
-82.270752
30
9.799561
70
192
0
VERTEX
8
OBJECT004
10
788.519897
20
-39.206848
30
30.829834
70
192
0
VERTEX
8
OBJECT004
10
792.542236
20
-49.293152
30
24.828613
70
192
0
VERTEX
8
OBJECT004
10
787.321167
20
-82.278931
30
17.408691
70
192
0
VERTEX
8
OBJECT004
10
776.342285
20
-107.094116
30
16.510498
70
192
0
VERTEX
8
OBJECT004
10
0
20
0
30
0
70
128
71
2
72
3
73
-4
0
VERTEX
8
OBJECT004
10
0
20
0
30
0
70
128
71
-2
72
4
73
1
0
VERTEX
8
OBJECT004
10
0
20
0
30
0
70
128
71
6
72
7
73
-8
0
VERTEX
8
OBJECT004
10
0
20
0
30
0
70
128
71
-6
72
8
73
5
0
VERTEX
8
OBJECT004
10
0
20
0
30
0
70
128
71
7
72
9
73
-10
0
VERTEX
8
OBJECT004
10
0
20
0
30
0
70
128
71
-7
72
10
73
-11
0
VERTEX
8
OBJECT004
10
0
20
0
30
0
70
128
71
-7
72
11
73
8
0
VERTEX
8
OBJECT004
10
0
20
0
30
0
70
128
71
13
72
14
73
-4
0
VERTEX
8
OBJECT004
10
0
20
0
30
0
70
128
71
-13
72
4
73
-3
0
VERTEX
8
OBJECT004
10
0
20
0
30
0
70
128
71
-13
72
3
73
12
0
VERTEX
8
OBJECT004
10
0
20
0
30
0
70
128
71
10
72
15
73
-16
0
VERTEX
8
OBJECT004
10
0
20
0
30
0
70
128
71
-10
72
16
73
-1
0
VERTEX
8
OBJECT004
10
0
20
0
30
0
70
128
71
-10
72
1
73
-4
0
VERTEX
8
OBJECT004
10
0
20
0
30
0
70
128
71
-10
72
4
73
-14
0
VERTEX
8
OBJECT004
10
0
20
0
30
0
70
128
71
-10
72
14
73
11
0
VERTEX
8
OBJECT004
10
0
20
0
30
0
70
128
71
18
72
19
73
-20
0
VERTEX
8
OBJECT004
10
0
20
0
30
0
70
128
71
-18
72
20
73
-9
0
VERTEX
8
OBJECT004
10
0
20
0
30
0
70
128
71
-18
72
9
73
-7
0
VERTEX
8
OBJECT004
10
0
20
0
30
0
70
128
71
-18
72
7
73
-6
0
VERTEX
8
OBJECT004
10
0
20
0
30
0
70
128
71
-18
72
6
73
17
0
VERTEX
8
OBJECT004
10
0
20
0
30
0
70
128
71
10
72
9
73
-20
0
VERTEX
8
OBJECT004
10
0
20
0
30
0
70
128
71
-10
72
20
73
15
0
VERTEX
8
OBJECT004
10
0
20
0
30
0
70
128
71
15
72
20
73
-19
0
VERTEX
8
OBJECT004
10
0
20
0
30
0
70
128
71
-15
72
19
73
16
0
VERTEX
8
OBJECT004
10
0
20
0
30
0
70
128
71
19
72
18
73
-2
0
VERTEX
8
OBJECT004
10
0
20
0
30
0
70
128
71
-19
72
2
73
-1
0
VERTEX
8
OBJECT004
10
0
20
0
30
0
70
128
71
-19
72
1
73
16
0
VERTEX
8
OBJECT004
10
0
20
0
30
0
70
128
71
17
72
12
73
-3
0
VERTEX
8
OBJECT004
10
0
20
0
30
0
70
128
71
-17
72
3
73
-2
0
VERTEX
8
OBJECT004
10
0
20
0
30
0
70
128
71
-17
72
2
73
18
0
VERTEX
8
OBJECT004
10
0
20
0
30
0
70
128
71
13
72
5
73
-8
0
VERTEX
8
OBJECT004
10
0
20
0
30
0
70
128
71
-13
72
8
73
-11
0
VERTEX
8
OBJECT004
10
0
20
0
30
0
70
128
71
-13
72
11
73
14
0
VERTEX
8
OBJECT004
10
0
20
0
30
0
70
128
71
12
72
17
73
-6
0
VERTEX
8
OBJECT004
10
0
20
0
30
0
70
128
71
-12
72
6
73
-5
0
VERTEX
8
OBJECT004
10
0
20
0
30
0
70
128
71
-12
72
5
73
13
0
SEQEND
8
OBJECT004
0
POLYLINE
8
OBJECT005
66
1
70
64
71
13
72
20
62
50
0
VERTEX
8
OBJECT005
10
716.000000
20
-135.306641
30
41.219971
70
192
0
VERTEX
8
OBJECT005
10
716.000000
20
-159.405640
30
30.441406
70
192
0
VERTEX
8
OBJECT005
10
-768.000000
20
-159.405640
30
30.441406
70
192
0
VERTEX
8
OBJECT005
10
-768.000000
20
-135.306641
30
41.219971
70
192
0
VERTEX
8
OBJECT005
10
716.000000
20
-178.454224
30
11.078857
70
192
0
VERTEX
8
OBJECT005
10
270.108154
20
-179.978027
30
9.530029
70
192
0
VERTEX
8
OBJECT005
10
-768.000000
20
-179.978027
30
9.530029
70
192
0
VERTEX
8
OBJECT005
10
716.000000
20
-4.428162
30
27.070068
70
192
0
VERTEX
8
OBJECT005
10
-768.000000
20
-4.428162
30
27.070068
70
192
0
VERTEX
8
OBJECT005
10
-768.000000
20
-3.980164
30
10.010010
70
192
0
VERTEX
8
OBJECT005
10
716.000000
20
-3.980164
30
10.010010
70
192
0
VERTEX
8
OBJECT005
10
716.000000
20
-178.456177
30
9.533936
70
192
0
VERTEX
8
OBJECT005
10
269.732544
20
-179.979248
30
9.529785
70
192
0
VERTEX
8
OBJECT005
10
0
20
0
30
0
70
128
71
2
72
3
73
-4
0
VERTEX
8
OBJECT005
10
0
20
0
30
0
70
128
71
-2
72
4
73
1
0
VERTEX
8
OBJECT005
10
0
20
0
30
0
70
128
71
2
72
5
73
-6
0
VERTEX
8
OBJECT005
10
0
20
0
30
0
70
128
71
-2
72
6
73
-7
0
VERTEX
8
OBJECT005
10
0
20
0
30
0
70
128
71
-2
72
7
73
3
0
VERTEX
8
OBJECT005
10
0
20
0
30
0
70
128
71
9
72
10
73
-11
0
VERTEX
8
OBJECT005
10
0
20
0
30
0
70
128
71
-9
72
11
73
8
0
VERTEX
8
OBJECT005
10
0
20
0
30
0
70
128
71
11
72
10
73
-7
0
VERTEX
8
OBJECT005
10
0
20
0
30
0
70
128
71
-11
72
7
73
-13
0
VERTEX
8
OBJECT005
10
0
20
0
30
0
70
128
71
-11
72
13
73
12
0
VERTEX
8
OBJECT005
10
0
20
0
30
0
70
128
71
13
72
5
73
12
0
VERTEX
8
OBJECT005
10
0
20
0
30
0
70
128
71
9
72
4
73
-3
0
VERTEX
8
OBJECT005
10
0
20
0
30
0
70
128
71
-9
72
3
73
-7
0
VERTEX
8
OBJECT005
10
0
20
0
30
0
70
128
71
-9
72
7
73
10
0
VERTEX
8
OBJECT005
10
0
20
0
30
0
70
128
71
5
72
2
73
-1
0
VERTEX
8
OBJECT005
10
0
20
0
30
0
70
128
71
-5
72
1
73
-8
0
VERTEX
8
OBJECT005
10
0
20
0
30
0
70
128
71
-5
72
8
73
-11
0
VERTEX
8
OBJECT005
10
0
20
0
30
0
70
128
71
-5
72
11
73
12
0
VERTEX
8
OBJECT005
10
0
20
0
30
0
70
128
71
4
72
9
73
-8
0
VERTEX
8
OBJECT005
10
0
20
0
30
0
70
128
71
-4
72
8
73
1
0
SEQEND
8
OBJECT005
0
POLYLINE
8
OBJECT006
66
1
70
64
71
6
72
8
62
50
0
VERTEX
8
OBJECT006
10
716.000000
20
74.952515
30
10.229736
70
192
0
VERTEX
8
OBJECT006
10
716.000000
20
149.317261
30
10.449707
70
192
0
VERTEX
8
OBJECT006
10
-768.000000
20
149.317261
30
10.449707
70
192
0
VERTEX
8
OBJECT006
10
-768.000000
20
74.952515
30
10.229736
70
192
0
VERTEX
8
OBJECT006
10
-768.000000
20
61.707397
30
19.920166
70
192
0
VERTEX
8
OBJECT006
10
716.000000
20
61.707397
30
19.920166
70
192
0
VERTEX
8
OBJECT006
10
0
20
0
30
0
70
128
71
2
72
3
73
-4
0
VERTEX
8
OBJECT006
10
0
20
0
30
0
70
128
71
-2
72
4
73
1
0
VERTEX
8
OBJECT006
10
0
20
0
30
0
70
128
71
4
72
3
73
5
0
VERTEX
8
OBJECT006
10
0
20
0
30
0
70
128
71
1
72
6
73
2
0
VERTEX
8
OBJECT006
10
0
20
0
30
0
70
128
71
1
72
4
73
-5
0
VERTEX
8
OBJECT006
10
0
20
0
30
0
70
128
71
-1
72
5
73
6
0
VERTEX
8
OBJECT006
10
0
20
0
30
0
70
128
71
5
72
3
73
-2
0
VERTEX
8
OBJECT006
10
0
20
0
30
0
70
128
71
-5
72
2
73
6
0
SEQEND
8
OBJECT006
0
POLYLINE
8
OBJECT007
66
1
70
64
71
12
72
20
62
50
0
VERTEX
8
OBJECT007
10
787.119629
20
74.963074
30
10.229736
70
192
0
VERTEX
8
OBJECT007
10
779.241943
20
98.674011
30
10.300049
70
192
0
VERTEX
8
OBJECT007
10
744.497681
20
149.365173
30
10.449951
70
192
0
VERTEX
8
OBJECT007
10
716.000000
20
149.366882
30
10.449707
70
192
0
VERTEX
8
OBJECT007
10
716.000000
20
74.963074
30
10.229736
70
192
0
VERTEX
8
OBJECT007
10
789.851563
20
61.711365
30
19.919434
70
192
0
VERTEX
8
OBJECT007
10
775.690430
20
103.865662
30
15.365479
70
192
0
VERTEX
8
OBJECT007
10
779.236328
20
98.691101
30
14.731934
70
192
0
VERTEX
8
OBJECT007
10
789.764282
20
67.003113
30
18.232666
70
192
0
VERTEX
8
OBJECT007
10
790.440552
20
62.679138
30
19.211914
70
192
0
VERTEX
8
OBJECT007
10
789.763672
20
67.005676
30
16.048340
70
192
0
VERTEX
8
OBJECT007
10
716.000000
20
61.710754
30
19.919922
70
192
0
VERTEX
8
OBJECT007
10
0
20
0
30
0
70
128
71
2
72
3
73
-4
0
VERTEX
8
OBJECT007
10
0
20
0
30
0
70
128
71
-2
72
4
73
-5
0
VERTEX
8
OBJECT007
10
0
20
0
30
0
70
128
71
-2
72
5
73
1
0
VERTEX
8
OBJECT007
10
0
20
0
30
0
70
128
71
7
72
8
73
-9
0
VERTEX
8
OBJECT007
10
0
20
0
30
0
70
128
71
-7
72
9
73
-10
0
VERTEX
8
OBJECT007
10
0
20
0
30
0
70
128
71
-7
72
10
73
6
0
VERTEX
8
OBJECT007
10
0
20
0
30
0
70
128
71
7
72
3
73
-2
0
VERTEX
8
OBJECT007
10
0
20
0
30
0
70
128
71
-7
72
2
73
8
0
VERTEX
8
OBJECT007
10
0
20
0
30
0
70
128
71
9
72
8
73
-2
0
VERTEX
8
OBJECT007
10
0
20
0
30
0
70
128
71
-9
72
2
73
-1
0
VERTEX
8
OBJECT007
10
0
20
0
30
0
70
128
71
-9
72
1
73
11
0
VERTEX
8
OBJECT007
10
0
20
0
30
0
70
128
71
9
72
11
73
10
0
VERTEX
8
OBJECT007
10
0
20
0
30
0
70
128
71
5
72
4
73
12
0
VERTEX
8
OBJECT007
10
0
20
0
30
0
70
128
71
6
72
10
73
-11
0
VERTEX
8
OBJECT007
10
0
20
0
30
0
70
128
71
-6
72
11
73
-1
0
VERTEX
8
OBJECT007
10
0
20
0
30
0
70
128
71
-6
72
1
73
-5
0
VERTEX
8
OBJECT007
10
0
20
0
30
0
70
128
71
-6
72
5
73
12
0
VERTEX
8
OBJECT007
10
0
20
0
30
0
70
128
71
6
72
12
73
-4
0
VERTEX
8
OBJECT007
10
0
20
0
30
0
70
128
71
-6
72
4
73
-3
0
VERTEX
8
OBJECT007
10
0
20
0
30
0
70
128
71
-6
72
3
73
7
0
SEQEND
8
OBJECT007
0
POLYLINE
8
OBJECT008
66
1
70
64
71
8
72
12
62
50
0
VERTEX
8
OBJECT008
10
730.493652
20
169.795654
30
8.243896
70
192
0
VERTEX
8
OBJECT008
10
730.196655
20
170.231812
30
8.689209
70
192
0
VERTEX
8
OBJECT008
10
716.000000
20
170.231812
30
8.689209
70
192
0
VERTEX
8
OBJECT008
10
716.000000
20
169.791443
30
8.239746
70
192
0
VERTEX
8
OBJECT008
10
733.908691
20
164.814636
30
10.530029
70
192
0
VERTEX
8
OBJECT008
10
744.636963
20
149.111389
30
10.480225
70
192
0
VERTEX
8
OBJECT008
10
716.000000
20
149.026489
30
10.479980
70
192
0
VERTEX
8
OBJECT008
10
716.000000
20
164.814636
30
10.530029
70
192
0
VERTEX
8
OBJECT008
10
0
20
0
30
0
70
128
71
2
72
3
73
-4
0
VERTEX
8
OBJECT008
10
0
20
0
30
0
70
128
71
-2
72
4
73
1
0
VERTEX
8
OBJECT008
10
0
20
0
30
0
70
128
71
6
72
7
73
-8
0
VERTEX
8
OBJECT008
10
0
20
0
30
0
70
128
71
-6
72
8
73
5
0
VERTEX
8
OBJECT008
10
0
20
0
30
0
70
128
71
5
72
2
73
-1
0
VERTEX
8
OBJECT008
10
0
20
0
30
0
70
128
71
-5
72
1
73
6
0
VERTEX
8
OBJECT008
10
0
20
0
30
0
70
128
71
7
72
4
73
-3
0
VERTEX
8
OBJECT008
10
0
20
0
30
0
70
128
71
-7
72
3
73
8
0
VERTEX
8
OBJECT008
10
0
20
0
30
0
70
128
71
8
72
3
73
-2
0
VERTEX
8
OBJECT008
10
0
20
0
30
0
70
128
71
-8
72
2
73
5
0
VERTEX
8
OBJECT008
10
0
20
0
30
0
70
128
71
6
72
1
73
-4
0
VERTEX
8
OBJECT008
10
0
20
0
30
0
70
128
71
-6
72
4
73
7
0
SEQEND
8
OBJECT008
0
POLYLINE
8
OBJECT009
66
1
70
64
71
8
72
12
62
50
0
VERTEX
8
OBJECT009
10
716.000000
20
169.776184
30
8.240479
70
192
0
VERTEX
8
OBJECT009
10
716.000000
20
170.219849
30
8.691162
70
192
0
VERTEX
8
OBJECT009
10
-768.000000
20
170.219849
30
8.691162
70
192
0
VERTEX
8
OBJECT009
10
-768.000000
20
169.776184
30
8.240479
70
192
0
VERTEX
8
OBJECT009
10
716.000000
20
164.906677
30
10.499756
70
192
0
VERTEX
8
OBJECT009
10
716.000000
20
149.294983
30
10.459717
70
192
0
VERTEX
8
OBJECT009
10
-768.000000
20
149.294983
30
10.459717
70
192
0
VERTEX
8
OBJECT009
10
-768.000000
20
164.906677
30
10.499756
70
192
0
VERTEX
8
OBJECT009
10
0
20
0
30
0
70
128
71
2
72
3
73
-4
0
VERTEX
8
OBJECT009
10
0
20
0
30
0
70
128
71
-2
72
4
73
1
0
VERTEX
8
OBJECT009
10
0
20
0
30
0
70
128
71
6
72
7
73
-8
0
VERTEX
8
OBJECT009
10
0
20
0
30
0
70
128
71
-6
72
8
73
5
0
VERTEX
8
OBJECT009
10
0
20
0
30
0
70
128
71
7
72
4
73
-3
0
VERTEX
8
OBJECT009
10
0
20
0
30
0
70
128
71
-7
72
3
73
8
0
VERTEX
8
OBJECT009
10
0
20
0
30
0
70
128
71
5
72
2
73
-1
0
VERTEX
8
OBJECT009
10
0
20
0
30
0
70
128
71
-5
72
1
73
6
0
VERTEX
8
OBJECT009
10
0
20
0
30
0
70
128
71
8
72
3
73
-2
0
VERTEX
8
OBJECT009
10
0
20
0
30
0
70
128
71
-8
72
2
73
5
0
VERTEX
8
OBJECT009
10
0
20
0
30
0
70
128
71
4
72
7
73
-6
0
VERTEX
8
OBJECT009
10
0
20
0
30
0
70
128
71
-4
72
6
73
1
0
SEQEND
8
OBJECT009
0
POLYLINE
8
OBJECT010
66
1
70
64
71
14
72
24
62
50
0
VERTEX
8
OBJECT010
10
716.000000
20
121.494080
30
-23.820313
70
192
0
VERTEX
8
OBJECT010
10
722.259766
20
121.494019
30
-23.820313
70
192
0
VERTEX
8
OBJECT010
10
727.721436
20
151.473633
30
-10.404541
70
192
0
VERTEX
8
OBJECT010
10
716.000000
20
151.473633
30
-10.404541
70
192
0
VERTEX
8
OBJECT010
10
737.048340
20
160.252441
30
-1.469727
70
192
0
VERTEX
8
OBJECT010
10
730.497803
20
169.791138
30
8.239746
70
192
0
VERTEX
8
OBJECT010
10
716.000000
20
169.791138
30
8.239746
70
192
0
VERTEX
8
OBJECT010
10
744.736938
20
149.025391
30
10.479980
70
192
0
VERTEX
8
OBJECT010
10
779.212891
20
98.754517
30
10.323975
70
192
0
VERTEX
8
OBJECT010
10
787.116943
20
74.931702
30
10.250000
70
192
0
VERTEX
8
OBJECT010
10
716.000000
20
74.933716
30
10.250000
70
192
0
VERTEX
8
OBJECT010
10
716.000000
20
149.025513
30
10.479980
70
192
0
VERTEX
8
OBJECT010
10
784.229614
20
83.657043
30
3.865479
70
192
0
VERTEX
8
OBJECT010
10
779.219727
20
98.750793
30
5.592285
70
192
0
VERTEX
8
OBJECT010
10
0
20
0
30
0
70
128
71
2
72
3
73
-4
0
VERTEX
8
OBJECT010
10
0
20
0
30
0
70
128
71
-2
72
4
73
1
0
VERTEX
8
OBJECT010
10
0
20
0
30
0
70
128
71
6
72
7
73
-4
0
VERTEX
8
OBJECT010
10
0
20
0
30
0
70
128
71
-6
72
4
73
-3
0
VERTEX
8
OBJECT010
10
0
20
0
30
0
70
128
71
-6
72
3
73
5
0
VERTEX
8
OBJECT010
10
0
20
0
30
0
70
128
71
9
72
10
73
-11
0
VERTEX
8
OBJECT010
10
0
20
0
30
0
70
128
71
-9
72
11
73
-12
0
VERTEX
8
OBJECT010
10
0
20
0
30
0
70
128
71
-9
72
12
73
8
0
VERTEX
8
OBJECT010
10
0
20
0
30
0
70
128
71
14
72
5
73
-3
0
VERTEX
8
OBJECT010
10
0
20
0
30
0
70
128
71
-14
72
3
73
-2
0
VERTEX
8
OBJECT010
10
0
20
0
30
0
70
128
71
-14
72
2
73
13
0
VERTEX
8
OBJECT010
10
0
20
0
30
0
70
128
71
9
72
8
73
-6
0
VERTEX
8
OBJECT010
10
0
20
0
30
0
70
128
71
-9
72
6
73
-5
0
VERTEX
8
OBJECT010
10
0
20
0
30
0
70
128
71
-9
72
5
73
14
0
VERTEX
8
OBJECT010
10
0
20
0
30
0
70
128
71
9
72
14
73
-13
0
VERTEX
8
OBJECT010
10
0
20
0
30
0
70
128
71
-9
72
13
73
10
0
VERTEX
8
OBJECT010
10
0
20
0
30
0
70
128
71
11
72
1
73
-4
0
VERTEX
8
OBJECT010
10
0
20
0
30
0
70
128
71
-11
72
4
73
-7
0
VERTEX
8
OBJECT010
10
0
20
0
30
0
70
128
71
-11
72
7
73
12
0
VERTEX
8
OBJECT010
10
0
20
0
30
0
70
128
71
2
72
1
73
-11
0
VERTEX
8
OBJECT010
10
0
20
0
30
0
70
128
71
-2
72
11
73
-10
0
VERTEX
8
OBJECT010
10
0
20
0
30
0
70
128
71
-2
72
10
73
13
0
VERTEX
8
OBJECT010
10
0
20
0
30
0
70
128
71
12
72
7
73
-6
0
VERTEX
8
OBJECT010
10
0
20
0
30
0
70
128
71
-12
72
6
73
8
0
SEQEND
8
OBJECT010
0
POLYLINE
8
OBJECT011
66
1
70
64
71
24
72
44
62
50
0
VERTEX
8
OBJECT011
10
796.000000
20
26.743164
30
10.100098
70
192
0
VERTEX
8
OBJECT011
10
796.000000
20
26.743164
30
0.340088
70
192
0
VERTEX
8
OBJECT011
10
796.000000
20
-3.720886
30
0.340088
70
192
0
VERTEX
8
OBJECT011
10
796.000000
20
-3.977417
30
10.000000
70
192
0
VERTEX
8
OBJECT011
10
716.000000
20
60.724121
30
-40.841064
70
192
0
VERTEX
8
OBJECT011
10
726.858765
20
60.724121
30
-40.841064
70
192
0
VERTEX
8
OBJECT011
10
720.571899
20
112.632080
30
-27.787109
70
192
0
VERTEX
8
OBJECT011
10
716.000000
20
112.632080
30
-27.787109
70
192
0
VERTEX
8
OBJECT011
10
716.000000
20
121.497498
30
-23.819580
70
192
0
VERTEX
8
OBJECT011
10
722.177368
20
121.497498
30
-23.819580
70
192
0
VERTEX
8
OBJECT011
10
716.000000
20
-2.436829
30
-48.013916
70
192
0
VERTEX
8
OBJECT011
10
721.817993
20
-2.436829
30
-48.013916
70
192
0
VERTEX
8
OBJECT011
10
733.291016
20
41.450928
30
-43.029541
70
192
0
VERTEX
8
OBJECT011
10
716.000000
20
-3.977356
30
10.000000
70
192
0
VERTEX
8
OBJECT011
10
781.800049
20
-3.158630
30
-20.830078
70
192
0
VERTEX
8
OBJECT011
10
775.813599
20
-3.059937
30
-24.547852
70
192
0
VERTEX
8
OBJECT011
10
716.000000
20
74.921387
30
10.256836
70
192
0
VERTEX
8
OBJECT011
10
787.133545
20
74.921143
30
10.257080
70
192
0
VERTEX
8
OBJECT011
10
789.793213
20
66.906128
30
10.230957
70
192
0
VERTEX
8
OBJECT011
10
793.466431
20
43.136963
30
-3.437012
70
192
0
VERTEX
8
OBJECT011
10
789.799194
20
66.867126
30
2.016113
70
192
0
VERTEX
8
OBJECT011
10
784.260254
20
83.563843
30
3.933838
70
192
0
VERTEX
8
OBJECT011
10
775.809814
20
13.869995
30
-24.550049
70
192
0
VERTEX
8
OBJECT011
10
781.800171
20
13.368042
30
-20.829834
70
192
0
VERTEX
8
OBJECT011
10
0
20
0
30
0
70
128
71
2
72
3
73
-4
0
VERTEX
8
OBJECT011
10
0
20
0
30
0
70
128
71
-2
72
4
73
1
0
VERTEX
8
OBJECT011
10
0
20
0
30
0
70
128
71
6
72
7
73
-8
0
VERTEX
8
OBJECT011
10
0
20
0
30
0
70
128
71
-6
72
8
73
5
0
VERTEX
8
OBJECT011
10
0
20
0
30
0
70
128
71
8
72
7
73
-10
0
VERTEX
8
OBJECT011
10
0
20
0
30
0
70
128
71
-8
72
10
73
9
0
VERTEX
8
OBJECT011
10
0
20
0
30
0
70
128
71
12
72
13
73
-6
0
VERTEX
8
OBJECT011
10
0
20
0
30
0
70
128
71
-12
72
6
73
-5
0
VERTEX
8
OBJECT011
10
0
20
0
30
0
70
128
71
-12
72
5
73
11
0
VERTEX
8
OBJECT011
10
0
20
0
30
0
70
128
71
4
72
3
73
-15
0
VERTEX
8
OBJECT011
10
0
20
0
30
0
70
128
71
-4
72
15
73
-16
0
VERTEX
8
OBJECT011
10
0
20
0
30
0
70
128
71
-4
72
16
73
-12
0
VERTEX
8
OBJECT011
10
0
20
0
30
0
70
128
71
-4
72
12
73
-11
0
VERTEX
8
OBJECT011
10
0
20
0
30
0
70
128
71
-4
72
11
73
14
0
VERTEX
8
OBJECT011
10
0
20
0
30
0
70
128
71
18
72
19
73
-1
0
VERTEX
8
OBJECT011
10
0
20
0
30
0
70
128
71
-18
72
1
73
-4
0
VERTEX
8
OBJECT011
10
0
20
0
30
0
70
128
71
-18
72
4
73
-14
0
VERTEX
8
OBJECT011
10
0
20
0
30
0
70
128
71
-18
72
14
73
17
0
VERTEX
8
OBJECT011
10
0
20
0
30
0
70
128
71
21
72
22
73
-10
0
VERTEX
8
OBJECT011
10
0
20
0
30
0
70
128
71
-21
72
10
73
-7
0
VERTEX
8
OBJECT011
10
0
20
0
30
0
70
128
71
-21
72
7
73
-6
0
VERTEX
8
OBJECT011
10
0
20
0
30
0
70
128
71
-21
72
6
73
-13
0
VERTEX
8
OBJECT011
10
0
20
0
30
0
70
128
71
-21
72
13
73
-23
0
VERTEX
8
OBJECT011
10
0
20
0
30
0
70
128
71
-21
72
23
73
-24
0
VERTEX
8
OBJECT011
10
0
20
0
30
0
70
128
71
-21
72
24
73
20
0
VERTEX
8
OBJECT011
10
0
20
0
30
0
70
128
71
23
72
13
73
-12
0
VERTEX
8
OBJECT011
10
0
20
0
30
0
70
128
71
-23
72
12
73
16
0
VERTEX
8
OBJECT011
10
0
20
0
30
0
70
128
71
18
72
22
73
-21
0
VERTEX
8
OBJECT011
10
0
20
0
30
0
70
128
71
-18
72
21
73
19
0
VERTEX
8
OBJECT011
10
0
20
0
30
0
70
128
71
21
72
20
73
-2
0
VERTEX
8
OBJECT011
10
0
20
0
30
0
70
128
71
-21
72
2
73
-1
0
VERTEX
8
OBJECT011
10
0
20
0
30
0
70
128
71
-21
72
1
73
19
0
VERTEX
8
OBJECT011
10
0
20
0
30
0
70
128
71
15
72
24
73
-23
0
VERTEX
8
OBJECT011
10
0
20
0
30
0
70
128
71
-15
72
23
73
16
0
VERTEX
8
OBJECT011
10
0
20
0
30
0
70
128
71
24
72
15
73
-3
0
VERTEX
8
OBJECT011
10
0
20
0
30
0
70
128
71
-24
72
3
73
-2
0
VERTEX
8
OBJECT011
10
0
20
0
30
0
70
128
71
-24
72
2
73
20
0
VERTEX
8
OBJECT011
10
0
20
0
30
0
70
128
71
14
72
11
73
-5
0
VERTEX
8
OBJECT011
10
0
20
0
30
0
70
128
71
-14
72
5
73
-8
0
VERTEX
8
OBJECT011
10
0
20
0
30
0
70
128
71
-14
72
8
73
-9
0
VERTEX
8
OBJECT011
10
0
20
0
30
0
70
128
71
-14
72
9
73
17
0
VERTEX
8
OBJECT011
10
0
20
0
30
0
70
128
71
10
72
22
73
-18
0
VERTEX
8
OBJECT011
10
0
20
0
30
0
70
128
71
-10
72
18
73
-17
0
VERTEX
8
OBJECT011
10
0
20
0
30
0
70
128
71
-10
72
17
73
9
0
SEQEND
8
OBJECT011
0
POLYLINE
8
OBJECT012
66
1
70
64
71
16
72
28
62
50
0
VERTEX
8
OBJECT012
10
796.000000
20
26.759705
30
19.669922
70
192
0
VERTEX
8
OBJECT012
10
796.000000
20
26.759705
30
10.080322
70
192
0
VERTEX
8
OBJECT012
10
796.000000
20
-3.979492
30
10.000000
70
192
0
VERTEX
8
OBJECT012
10
796.000000
20
-4.234253
30
19.669922
70
192
0
VERTEX
8
OBJECT012
10
716.000000
20
-4.429321
30
27.070068
70
192
0
VERTEX
8
OBJECT012
10
791.048706
20
-4.429321
30
27.070068
70
192
0
VERTEX
8
OBJECT012
10
716.000000
20
-3.988708
30
10.360840
70
192
0
VERTEX
8
OBJECT012
10
716.000000
20
74.720215
30
10.541260
70
192
0
VERTEX
8
OBJECT012
10
789.768555
20
66.972229
30
10.200195
70
192
0
VERTEX
8
OBJECT012
10
787.115967
20
74.975037
30
10.230225
70
192
0
VERTEX
8
OBJECT012
10
789.843384
20
61.697449
30
19.929688
70
192
0
VERTEX
8
OBJECT012
10
790.437866
20
62.653076
30
19.230225
70
192
0
VERTEX
8
OBJECT012
10
791.222534
20
57.589478
30
20.373291
70
192
0
VERTEX
8
OBJECT012
10
789.768555
20
66.972473
30
16.074463
70
192
0
VERTEX
8
OBJECT012
10
794.159912
20
38.634583
30
22.419922
70
192
0
VERTEX
8
OBJECT012
10
716.000000
20
61.905396
30
19.907227
70
192
0
VERTEX
8
OBJECT012
10
0
20
0
30
0
70
128
71
2
72
3
73
-4
0
VERTEX
8
OBJECT012
10
0
20
0
30
0
70
128
71
-2
72
4
73
1
0
VERTEX
8
OBJECT012
10
0
20
0
30
0
70
128
71
6
72
4
73
-3
0
VERTEX
8
OBJECT012
10
0
20
0
30
0
70
128
71
-6
72
3
73
-7
0
VERTEX
8
OBJECT012
10
0
20
0
30
0
70
128
71
-6
72
7
73
5
0
VERTEX
8
OBJECT012
10
0
20
0
30
0
70
128
71
7
72
3
73
-2
0
VERTEX
8
OBJECT012
10
0
20
0
30
0
70
128
71
-7
72
2
73
-9
0
VERTEX
8
OBJECT012
10
0
20
0
30
0
70
128
71
-7
72
9
73
-10
0
VERTEX
8
OBJECT012
10
0
20
0
30
0
70
128
71
-7
72
10
73
8
0
VERTEX
8
OBJECT012
10
0
20
0
30
0
70
128
71
12
72
13
73
11
0
VERTEX
8
OBJECT012
10
0
20
0
30
0
70
128
71
10
72
9
73
14
0
VERTEX
8
OBJECT012
10
0
20
0
30
0
70
128
71
13
72
12
73
-14
0
VERTEX
8
OBJECT012
10
0
20
0
30
0
70
128
71
-13
72
14
73
-9
0
VERTEX
8
OBJECT012
10
0
20
0
30
0
70
128
71
-13
72
9
73
-2
0
VERTEX
8
OBJECT012
10
0
20
0
30
0
70
128
71
-13
72
2
73
-1
0
VERTEX
8
OBJECT012
10
0
20
0
30
0
70
128
71
-13
72
1
73
15
0
VERTEX
8
OBJECT012
10
0
20
0
30
0
70
128
71
1
72
4
73
-6
0
VERTEX
8
OBJECT012
10
0
20
0
30
0
70
128
71
-1
72
6
73
15
0
VERTEX
8
OBJECT012
10
0
20
0
30
0
70
128
71
5
72
7
73
-8
0
VERTEX
8
OBJECT012
10
0
20
0
30
0
70
128
71
-5
72
8
73
16
0
VERTEX
8
OBJECT012
10
0
20
0
30
0
70
128
71
8
72
10
73
-14
0
VERTEX
8
OBJECT012
10
0
20
0
30
0
70
128
71
-8
72
14
73
-12
0
VERTEX
8
OBJECT012
10
0
20
0
30
0
70
128
71
-8
72
12
73
-11
0
VERTEX
8
OBJECT012
10
0
20
0
30
0
70
128
71
-8
72
11
73
16
0
VERTEX
8
OBJECT012
10
0
20
0
30
0
70
128
71
11
72
13
73
-15
0
VERTEX
8
OBJECT012
10
0
20
0
30
0
70
128
71
-11
72
15
73
-6
0
VERTEX
8
OBJECT012
10
0
20
0
30
0
70
128
71
-11
72
6
73
-5
0
VERTEX
8
OBJECT012
10
0
20
0
30
0
70
128
71
-11
72
5
73
16
0
SEQEND
8
OBJECT012
0
POLYLINE
8
OBJECT013
66
1
70
64
71
26
72
48
62
50
0
VERTEX
8
OBJECT013
10
796.000000
20
-27.460327
30
0.340088
70
192
0
VERTEX
8
OBJECT013
10
796.000000
20
-27.460327
30
9.938965
70
192
0
VERTEX
8
OBJECT013
10
796.000000
20
-3.980347
30
10.000000
70
192
0
VERTEX
8
OBJECT013
10
796.000000
20
-3.723206
30
0.340088
70
192
0
VERTEX
8
OBJECT013
10
716.000000
20
-118.596497
30
-28.440674
70
192
0
VERTEX
8
OBJECT013
10
717.160767
20
-118.596497
30
-28.440674
70
192
0
VERTEX
8
OBJECT013
10
724.519775
20
-65.921082
30
-41.227051
70
192
0
VERTEX
8
OBJECT013
10
716.000000
20
-65.919922
30
-41.227295
70
192
0
VERTEX
8
OBJECT013
10
716.000000
20
-158.303528
30
-11.307861
70
192
0
VERTEX
8
OBJECT013
10
723.794312
20
-158.303528
30
-11.307861
70
192
0
VERTEX
8
OBJECT013
10
732.222046
20
-44.590820
30
-43.499268
70
192
0
VERTEX
8
OBJECT013
10
721.906128
20
-2.457764
30
-47.988770
70
192
0
VERTEX
8
OBJECT013
10
716.000000
20
-2.459351
30
-47.988770
70
192
0
VERTEX
8
OBJECT013
10
716.000000
20
-179.999451
30
9.500000
70
192
0
VERTEX
8
OBJECT013
10
718.753540
20
-179.999451
30
9.500000
70
192
0
VERTEX
8
OBJECT013
10
730.624878
20
-164.969971
30
-4.914063
70
192
0
VERTEX
8
OBJECT013
10
716.000000
20
-4.002075
30
10.000000
70
192
0
VERTEX
8
OBJECT013
10
775.805176
20
-3.066833
30
-24.543213
70
192
0
VERTEX
8
OBJECT013
10
781.786011
20
-3.163818
30
-20.835205
70
192
0
VERTEX
8
OBJECT013
10
787.349243
20
-82.194641
30
9.781494
70
192
0
VERTEX
8
OBJECT013
10
776.352539
20
-107.072937
30
9.709961
70
192
0
VERTEX
8
OBJECT013
10
776.352173
20
-107.073792
30
4.190186
70
192
0
VERTEX
8
OBJECT013
10
787.349243
20
-82.194641
30
2.778809
70
192
0
VERTEX
8
OBJECT013
10
792.537231
20
-49.369995
30
-4.818604
70
192
0
VERTEX
8
OBJECT013
10
781.785889
20
-20.768188
30
-20.835205
70
192
0
VERTEX
8
OBJECT013
10
775.809937
20
-20.680908
30
-24.540283
70
192
0
VERTEX
8
OBJECT013
10
0
20
0
30
0
70
128
71
2
72
3
73
-4
0
VERTEX
8
OBJECT013
10
0
20
0
30
0
70
128
71
-2
72
4
73
1
0
VERTEX
8
OBJECT013
10
0
20
0
30
0
70
128
71
6
72
7
73
-8
0
VERTEX
8
OBJECT013
10
0
20
0
30
0
70
128
71
-6
72
8
73
5
0
VERTEX
8
OBJECT013
10
0
20
0
30
0
70
128
71
10
72
6
73
-5
0
VERTEX
8
OBJECT013
10
0
20
0
30
0
70
128
71
-10
72
5
73
9
0
VERTEX
8
OBJECT013
10
0
20
0
30
0
70
128
71
7
72
11
73
-12
0
VERTEX
8
OBJECT013
10
0
20
0
30
0
70
128
71
-7
72
12
73
-13
0
VERTEX
8
OBJECT013
10
0
20
0
30
0
70
128
71
-7
72
13
73
8
0
VERTEX
8
OBJECT013
10
0
20
0
30
0
70
128
71
15
72
16
73
-10
0
VERTEX
8
OBJECT013
10
0
20
0
30
0
70
128
71
-15
72
10
73
-9
0
VERTEX
8
OBJECT013
10
0
20
0
30
0
70
128
71
-15
72
9
73
14
0
VERTEX
8
OBJECT013
10
0
20
0
30
0
70
128
71
13
72
12
73
-18
0
VERTEX
8
OBJECT013
10
0
20
0
30
0
70
128
71
-13
72
18
73
-19
0
VERTEX
8
OBJECT013
10
0
20
0
30
0
70
128
71
-13
72
19
73
-4
0
VERTEX
8
OBJECT013
10
0
20
0
30
0
70
128
71
-13
72
4
73
-3
0
VERTEX
8
OBJECT013
10
0
20
0
30
0
70
128
71
-13
72
3
73
17
0
VERTEX
8
OBJECT013
10
0
20
0
30
0
70
128
71
3
72
2
73
-20
0
VERTEX
8
OBJECT013
10
0
20
0
30
0
70
128
71
-3
72
20
73
-21
0
VERTEX
8
OBJECT013
10
0
20
0
30
0
70
128
71
-3
72
21
73
-15
0
VERTEX
8
OBJECT013
10
0
20
0
30
0
70
128
71
-3
72
15
73
-14
0
VERTEX
8
OBJECT013
10
0
20
0
30
0
70
128
71
-3
72
14
73
17
0
VERTEX
8
OBJECT013
10
0
20
0
30
0
70
128
71
16
72
22
73
-23
0
VERTEX
8
OBJECT013
10
0
20
0
30
0
70
128
71
-16
72
23
73
-24
0
VERTEX
8
OBJECT013
10
0
20
0
30
0
70
128
71
-16
72
24
73
-25
0
VERTEX
8
OBJECT013
10
0
20
0
30
0
70
128
71
-16
72
25
73
-26
0
VERTEX
8
OBJECT013
10
0
20
0
30
0
70
128
71
-16
72
26
73
-11
0
VERTEX
8
OBJECT013
10
0
20
0
30
0
70
128
71
-16
72
11
73
-7
0
VERTEX
8
OBJECT013
10
0
20
0
30
0
70
128
71
-16
72
7
73
-6
0
VERTEX
8
OBJECT013
10
0
20
0
30
0
70
128
71
-16
72
6
73
10
0
VERTEX
8
OBJECT013
10
0
20
0
30
0
70
128
71
12
72
11
73
-26
0
VERTEX
8
OBJECT013
10
0
20
0
30
0
70
128
71
-12
72
26
73
18
0
VERTEX
8
OBJECT013
10
0
20
0
30
0
70
128
71
22
72
16
73
-15
0
VERTEX
8
OBJECT013
10
0
20
0
30
0
70
128
71
-22
72
15
73
21
0
VERTEX
8
OBJECT013
10
0
20
0
30
0
70
128
71
20
72
23
73
-22
0
VERTEX
8
OBJECT013
10
0
20
0
30
0
70
128
71
-20
72
22
73
21
0
VERTEX
8
OBJECT013
10
0
20
0
30
0
70
128
71
23
72
20
73
-2
0
VERTEX
8
OBJECT013
10
0
20
0
30
0
70
128
71
-23
72
2
73
-1
0
VERTEX
8
OBJECT013
10
0
20
0
30
0
70
128
71
-23
72
1
73
24
0
VERTEX
8
OBJECT013
10
0
20
0
30
0
70
128
71
18
72
26
73
-25
0
VERTEX
8
OBJECT013
10
0
20
0
30
0
70
128
71
-18
72
25
73
19
0
VERTEX
8
OBJECT013
10
0
20
0
30
0
70
128
71
25
72
24
73
-1
0
VERTEX
8
OBJECT013
10
0
20
0
30
0
70
128
71
-25
72
1
73
-4
0
VERTEX
8
OBJECT013
10
0
20
0
30
0
70
128
71
-25
72
4
73
19
0
VERTEX
8
OBJECT013
10
0
20
0
30
0
70
128
71
9
72
5
73
-8
0
VERTEX
8
OBJECT013
10
0
20
0
30
0
70
128
71
-9
72
8
73
-13
0
VERTEX
8
OBJECT013
10
0
20
0
30
0
70
128
71
-9
72
13
73
-17
0
VERTEX
8
OBJECT013
10
0
20
0
30
0
70
128
71
-9
72
17
73
14
0
SEQEND
8
OBJECT013
0
POLYLINE
8
OBJECT014
66
1
70
64
71
18
72
28
62
50
0
VERTEX
8
OBJECT014
10
716.000000
20
-98.299561
30
-33.362305
70
192
0
VERTEX
8
OBJECT014
10
716.000000
20
-65.991089
30
-41.209961
70
192
0
VERTEX
8
OBJECT014
10
-768.000000
20
-65.991089
30
-41.209961
70
192
0
VERTEX
8
OBJECT014
10
-768.000000
20
-118.619446
30
-28.426514
70
192
0
VERTEX
8
OBJECT014
10
-340.165771
20
-118.619446
30
-28.426514
70
192
0
VERTEX
8
OBJECT014
10
716.000000
20
-135.768188
30
-21.030029
70
192
0
VERTEX
8
OBJECT014
10
-340.354523
20
-118.622620
30
-28.425781
70
192
0
VERTEX
8
OBJECT014
10
-768.000000
20
-158.294312
30
-11.310059
70
192
0
VERTEX
8
OBJECT014
10
716.000000
20
-158.294312
30
-11.310059
70
192
0
VERTEX
8
OBJECT014
10
716.000000
20
-2.452209
30
-47.989990
70
192
0
VERTEX
8
OBJECT014
10
-768.000000
20
-2.452209
30
-47.989990
70
192
0
VERTEX
8
OBJECT014
10
716.000000
20
-178.425171
30
8.000000
70
192
0
VERTEX
8
OBJECT014
10
-768.000000
20
-179.991577
30
9.510010
70
192
0
VERTEX
8
OBJECT014
10
257.375610
20
-179.991577
30
9.510010
70
192
0
VERTEX
8
OBJECT014
10
716.000000
20
-3.991211
30
10.000000
70
192
0
VERTEX
8
OBJECT014
10
-768.000000
20
-3.991211
30
10.000000
70
192
0
VERTEX
8
OBJECT014
10
716.000000
20
-178.424194
30
9.514648
70
192
0
VERTEX
8
OBJECT014
10
-340.025269
20
-118.617126
30
-28.427002
70
192
0
VERTEX
8
OBJECT014
10
0
20
0
30
0
70
128
71
2
72
3
73
-4
0
VERTEX
8
OBJECT014
10
0
20
0
30
0
70
128
71
-2
72
4
73
-5
0
VERTEX
8
OBJECT014
10
0
20
0
30
0
70
128
71
-2
72
5
73
1
0
VERTEX
8
OBJECT014
10
0
20
0
30
0
70
128
71
7
72
4
73
-8
0
VERTEX
8
OBJECT014
10
0
20
0
30
0
70
128
71
-7
72
8
73
-9
0
VERTEX
8
OBJECT014
10
0
20
0
30
0
70
128
71
-7
72
9
73
6
0
VERTEX
8
OBJECT014
10
0
20
0
30
0
70
128
71
11
72
3
73
-2
0
VERTEX
8
OBJECT014
10
0
20
0
30
0
70
128
71
-11
72
2
73
10
0
VERTEX
8
OBJECT014
10
0
20
0
30
0
70
128
71
9
72
8
73
-13
0
VERTEX
8
OBJECT014
10
0
20
0
30
0
70
128
71
-9
72
13
73
-14
0
VERTEX
8
OBJECT014
10
0
20
0
30
0
70
128
71
-9
72
14
73
12
0
VERTEX
8
OBJECT014
10
0
20
0
30
0
70
128
71
16
72
11
73
-10
0
VERTEX
8
OBJECT014
10
0
20
0
30
0
70
128
71
-16
72
10
73
15
0
VERTEX
8
OBJECT014
10
0
20
0
30
0
70
128
71
14
72
13
73
-16
0
VERTEX
8
OBJECT014
10
0
20
0
30
0
70
128
71
-14
72
16
73
-15
0
VERTEX
8
OBJECT014
10
0
20
0
30
0
70
128
71
-14
72
15
73
17
0
VERTEX
8
OBJECT014
10
0
20
0
30
0
70
128
71
18
72
6
73
1
0
VERTEX
8
OBJECT014
10
0
20
0
30
0
70
128
71
12
72
14
73
17
0
VERTEX
8
OBJECT014
10
0
20
0
30
0
70
128
71
8
72
4
73
-3
0
VERTEX
8
OBJECT014
10
0
20
0
30
0
70
128
71
-8
72
3
73
-11
0
VERTEX
8
OBJECT014
10
0
20
0
30
0
70
128
71
-8
72
11
73
-16
0
VERTEX
8
OBJECT014
10
0
20
0
30
0
70
128
71
-8
72
16
73
13
0
VERTEX
8
OBJECT014
10
0
20
0
30
0
70
128
71
15
72
10
73
-2
0
VERTEX
8
OBJECT014
10
0
20
0
30
0
70
128
71
-15
72
2
73
-1
0
VERTEX
8
OBJECT014
10
0
20
0
30
0
70
128
71
-15
72
1
73
-6
0
VERTEX
8
OBJECT014
10
0
20
0
30
0
70
128
71
-15
72
6
73
-9
0
VERTEX
8
OBJECT014
10
0
20
0
30
0
70
128
71
-15
72
9
73
-12
0
VERTEX
8
OBJECT014
10
0
20
0
30
0
70
128
71
-15
72
12
73
17
0
SEQEND
8
OBJECT014
0
POLYLINE
8
OBJECT015
66
1
70
64
71
12
72
20
62
50
0
VERTEX
8
OBJECT015
10
716.000000
20
112.613342
30
-27.791992
70
192
0
VERTEX
8
OBJECT015
10
-768.000000
20
112.613342
30
-27.791992
70
192
0
VERTEX
8
OBJECT015
10
-768.000000
20
60.740662
30
-40.839600
70
192
0
VERTEX
8
OBJECT015
10
716.000000
20
60.740662
30
-40.839600
70
192
0
VERTEX
8
OBJECT015
10
716.000000
20
121.493164
30
-23.821045
70
192
0
VERTEX
8
OBJECT015
10
-768.000000
20
121.493164
30
-23.821045
70
192
0
VERTEX
8
OBJECT015
10
-768.000000
20
-2.437195
30
-48.000000
70
192
0
VERTEX
8
OBJECT015
10
716.000000
20
-2.437195
30
-48.000000
70
192
0
VERTEX
8
OBJECT015
10
-768.000000
20
-3.980225
30
10.010010
70
192
0
VERTEX
8
OBJECT015
10
716.000000
20
-3.980225
30
10.010010
70
192
0
VERTEX
8
OBJECT015
10
716.000000
20
74.944214
30
10.239746
70
192
0
VERTEX
8
OBJECT015
10
-768.000000
20
74.944214
30
10.239746
70
192
0
VERTEX
8
OBJECT015
10
0
20
0
30
0
70
128
71
2
72
3
73
-4
0
VERTEX
8
OBJECT015
10
0
20
0
30
0
70
128
71
-2
72
4
73
1
0
VERTEX
8
OBJECT015
10
0
20
0
30
0
70
128
71
6
72
2
73
-1
0
VERTEX
8
OBJECT015
10
0
20
0
30
0
70
128
71
-6
72
1
73
5
0
VERTEX
8
OBJECT015
10
0
20
0
30
0
70
128
71
3
72
7
73
-8
0
VERTEX
8
OBJECT015
10
0
20
0
30
0
70
128
71
-3
72
8
73
4
0
VERTEX
8
OBJECT015
10
0
20
0
30
0
70
128
71
10
72
8
73
-7
0
VERTEX
8
OBJECT015
10
0
20
0
30
0
70
128
71
-10
72
7
73
9
0
VERTEX
8
OBJECT015
10
0
20
0
30
0
70
128
71
10
72
9
73
-12
0
VERTEX
8
OBJECT015
10
0
20
0
30
0
70
128
71
-10
72
12
73
11
0
VERTEX
8
OBJECT015
10
0
20
0
30
0
70
128
71
9
72
7
73
-3
0
VERTEX
8
OBJECT015
10
0
20
0
30
0
70
128
71
-9
72
3
73
-2
0
VERTEX
8
OBJECT015
10
0
20
0
30
0
70
128
71
-9
72
2
73
-6
0
VERTEX
8
OBJECT015
10
0
20
0
30
0
70
128
71
-9
72
6
73
12
0
VERTEX
8
OBJECT015
10
0
20
0
30
0
70
128
71
5
72
1
73
-4
0
VERTEX
8
OBJECT015
10
0
20
0
30
0
70
128
71
-5
72
4
73
-8
0
VERTEX
8
OBJECT015
10
0
20
0
30
0
70
128
71
-5
72
8
73
-10
0
VERTEX
8
OBJECT015
10
0
20
0
30
0
70
128
71
-5
72
10
73
11
0
VERTEX
8
OBJECT015
10
0
20
0
30
0
70
128
71
12
72
6
73
-5
0
VERTEX
8
OBJECT015
10
0
20
0
30
0
70
128
71
-12
72
5
73
11
0
SEQEND
8
OBJECT015
0
POLYLINE
8
OBJECT016
66
1
70
64
71
10
72
16
62
50
0
VERTEX
8
OBJECT016
10
716.000000
20
121.491821
30
-23.820068
70
192
0
VERTEX
8
OBJECT016
10
716.000000
20
151.448547
30
-10.410889
70
192
0
VERTEX
8
OBJECT016
10
-768.000000
20
151.448547
30
-10.410889
70
192
0
VERTEX
8
OBJECT016
10
-768.000000
20
121.491821
30
-23.820068
70
192
0
VERTEX
8
OBJECT016
10
716.000000
20
169.778748
30
8.240234
70
192
0
VERTEX
8
OBJECT016
10
-768.000000
20
169.778748
30
8.240234
70
192
0
VERTEX
8
OBJECT016
10
716.000000
20
149.293701
30
10.459961
70
192
0
VERTEX
8
OBJECT016
10
716.000000
20
74.944031
30
10.239990
70
192
0
VERTEX
8
OBJECT016
10
-768.000000
20
74.944031
30
10.239990
70
192
0
VERTEX
8
OBJECT016
10
-768.000000
20
149.293701
30
10.459961
70
192
0
VERTEX
8
OBJECT016
10
0
20
0
30
0
70
128
71
2
72
3
73
-4
0
VERTEX
8
OBJECT016
10
0
20
0
30
0
70
128
71
-2
72
4
73
1
0
VERTEX
8
OBJECT016
10
0
20
0
30
0
70
128
71
6
72
3
73
-2
0
VERTEX
8
OBJECT016
10
0
20
0
30
0
70
128
71
-6
72
2
73
5
0
VERTEX
8
OBJECT016
10
0
20
0
30
0
70
128
71
8
72
9
73
-10
0
VERTEX
8
OBJECT016
10
0
20
0
30
0
70
128
71
-8
72
10
73
7
0
VERTEX
8
OBJECT016
10
0
20
0
30
0
70
128
71
9
72
4
73
-3
0
VERTEX
8
OBJECT016
10
0
20
0
30
0
70
128
71
-9
72
3
73
-6
0
VERTEX
8
OBJECT016
10
0
20
0
30
0
70
128
71
-9
72
6
73
10
0
VERTEX
8
OBJECT016
10
0
20
0
30
0
70
128
71
7
72
5
73
-2
0
VERTEX
8
OBJECT016
10
0
20
0
30
0
70
128
71
-7
72
2
73
-1
0
VERTEX
8
OBJECT016
10
0
20
0
30
0
70
128
71
-7
72
1
73
8
0
VERTEX
8
OBJECT016
10
0
20
0
30
0
70
128
71
4
72
9
73
-8
0
VERTEX
8
OBJECT016
10
0
20
0
30
0
70
128
71
-4
72
8
73
1
0
VERTEX
8
OBJECT016
10
0
20
0
30
0
70
128
71
10
72
6
73
-5
0
VERTEX
8
OBJECT016
10
0
20
0
30
0
70
128
71
-10
72
5
73
7
0
SEQEND
8
OBJECT016
0
POLYLINE
8
OBJECT017
66
1
70
64
71
8
72
12
62
50
0
VERTEX
8
OBJECT017
10
716.000000
20
-4.428223
30
27.070068
70
192
0
VERTEX
8
OBJECT017
10
716.000000
20
-3.980225
30
10.000000
70
192
0
VERTEX
8
OBJECT017
10
-768.000000
20
-3.980225
30
10.000000
70
192
0
VERTEX
8
OBJECT017
10
-768.000000
20
-4.428223
30
27.070068
70
192
0
VERTEX
8
OBJECT017
10
716.000000
20
74.953064
30
10.229736
70
192
0
VERTEX
8
OBJECT017
10
-768.000000
20
74.953064
30
10.229736
70
192
0
VERTEX
8
OBJECT017
10
-768.000000
20
61.708374
30
19.920166
70
192
0
VERTEX
8
OBJECT017
10
716.000000
20
61.708374
30
19.920166
70
192
0
VERTEX
8
OBJECT017
10
0
20
0
30
0
70
128
71
2
72
3
73
-4
0
VERTEX
8
OBJECT017
10
0
20
0
30
0
70
128
71
-2
72
4
73
1
0
VERTEX
8
OBJECT017
10
0
20
0
30
0
70
128
71
6
72
3
73
-2
0
VERTEX
8
OBJECT017
10
0
20
0
30
0
70
128
71
-6
72
2
73
5
0
VERTEX
8
OBJECT017
10
0
20
0
30
0
70
128
71
4
72
3
73
-6
0
VERTEX
8
OBJECT017
10
0
20
0
30
0
70
128
71
-4
72
6
73
7
0
VERTEX
8
OBJECT017
10
0
20
0
30
0
70
128
71
5
72
2
73
-1
0
VERTEX
8
OBJECT017
10
0
20
0
30
0
70
128
71
-5
72
1
73
8
0
VERTEX
8
OBJECT017
10
0
20
0
30
0
70
128
71
7
72
6
73
-5
0
VERTEX
8
OBJECT017
10
0
20
0
30
0
70
128
71
-7
72
5
73
8
0
VERTEX
8
OBJECT017
10
0
20
0
30
0
70
128
71
1
72
4
73
-7
0
VERTEX
8
OBJECT017
10
0
20
0
30
0
70
128
71
-1
72
7
73
8
0
SEQEND
8
OBJECT017
0
ENDSEC
0
EOF
