0
SECTION
2
HEADER
9
$ACADVER
1
AC1008
9
$UCSORG
10
0.0
20
0.0
30
0.0
9
$UCSXDIR
10
1.0
20
0.0
30
0.0
9
$TILEMODE
70
1
9
$UCSYDIR
10
0.0
20
1.0
30
0.0
9
$EXTMIN
10
-788.000000
20
-136.000000
30
-48.011963
9
$EXTMAX
10
776.000000
20
168.000000
30
68.000000
0
ENDSEC
0
SECTION
2
TABLES
0
TABLE
2
LTYPE
70
1
0
LTYPE
2
CONTINUOUS
70
64
3
Solid line
72
65
73
0
40
0.0
0
ENDTAB
0
TABLE
2
LAYER
70
1
0
LAYER
2
0
70
0
62
7
6
CONTINUOUS
0
ENDTAB
0
TABLE
2
STYLE
70
1
0
STYLE
2
STANDARD
70
0
40
0.0
41
1.0
50
0.0
71
0
42
0.2
3
txt
4

0
ENDTAB
0
TABLE
2
UCS
70
0
0
ENDTAB
0
ENDSEC
0
SECTION
2
ENTITIES
0
POLYLINE
8
OBJECT000
66
1
70
64
71
10
72
16
62
50
0
VERTEX
8
OBJECT000
10
-788.000000
20
147.294342
30
41.220947
70
192
0
VERTEX
8
OBJECT000
10
-788.000000
20
168.000000
30
31.954590
70
192
0
VERTEX
8
OBJECT000
10
696.000000
20
168.000000
30
31.954590
70
192
0
VERTEX
8
OBJECT000
10
696.000000
20
147.294342
30
41.220947
70
192
0
VERTEX
8
OBJECT000
10
696.000000
20
15.988609
30
10.000000
70
192
0
VERTEX
8
OBJECT000
10
-788.000000
20
15.988609
30
10.000000
70
192
0
VERTEX
8
OBJECT000
10
-788.000000
20
16.437637
30
27.074219
70
192
0
VERTEX
8
OBJECT000
10
696.000000
20
16.437637
30
27.074219
70
192
0
VERTEX
8
OBJECT000
10
-788.000000
20
168.000000
30
9.583252
70
192
0
VERTEX
8
OBJECT000
10
696.000000
20
168.000000
30
9.583252
70
192
0
VERTEX
8
OBJECT000
10
0
20
0
30
0
70
128
71
2
72
3
73
-4
0
VERTEX
8
OBJECT000
10
0
20
0
30
0
70
128
71
-2
72
4
73
1
0
VERTEX
8
OBJECT000
10
0
20
0
30
0
70
128
71
6
72
7
73
-8
0
VERTEX
8
OBJECT000
10
0
20
0
30
0
70
128
71
-6
72
8
73
5
0
VERTEX
8
OBJECT000
10
0
20
0
30
0
70
128
71
6
72
5
73
-10
0
VERTEX
8
OBJECT000
10
0
20
0
30
0
70
128
71
-6
72
10
73
9
0
VERTEX
8
OBJECT000
10
0
20
0
30
0
70
128
71
1
72
7
73
-6
0
VERTEX
8
OBJECT000
10
0
20
0
30
0
70
128
71
-1
72
6
73
-9
0
VERTEX
8
OBJECT000
10
0
20
0
30
0
70
128
71
-1
72
9
73
2
0
VERTEX
8
OBJECT000
10
0
20
0
30
0
70
128
71
8
72
4
73
-3
0
VERTEX
8
OBJECT000
10
0
20
0
30
0
70
128
71
-8
72
3
73
-10
0
VERTEX
8
OBJECT000
10
0
20
0
30
0
70
128
71
-8
72
10
73
5
0
VERTEX
8
OBJECT000
10
0
20
0
30
0
70
128
71
10
72
3
73
-2
0
VERTEX
8
OBJECT000
10
0
20
0
30
0
70
128
71
-10
72
2
73
9
0
VERTEX
8
OBJECT000
10
0
20
0
30
0
70
128
71
7
72
1
73
-4
0
VERTEX
8
OBJECT000
10
0
20
0
30
0
70
128
71
-7
72
4
73
8
0
SEQEND
8
OBJECT000
0
POLYLINE
8
OBJECT001
66
1
70
64
71
12
72
20
62
50
0
VERTEX
8
OBJECT001
10
696.000000
20
-48.725067
30
-40.851807
70
192
0
VERTEX
8
OBJECT001
10
-788.000000
20
-48.725067
30
-40.851807
70
192
0
VERTEX
8
OBJECT001
10
-788.000000
20
-100.619370
30
-27.797363
70
192
0
VERTEX
8
OBJECT001
10
696.000000
20
-100.619370
30
-27.797363
70
192
0
VERTEX
8
OBJECT001
10
-788.000000
20
-109.494232
30
-23.826416
70
192
0
VERTEX
8
OBJECT001
10
696.000000
20
-109.494232
30
-23.826416
70
192
0
VERTEX
8
OBJECT001
10
696.000000
20
14.446007
30
-48.000000
70
192
0
VERTEX
8
OBJECT001
10
-788.000000
20
14.446007
30
-48.000000
70
192
0
VERTEX
8
OBJECT001
10
696.000000
20
15.988739
30
10.000000
70
192
0
VERTEX
8
OBJECT001
10
-788.000000
20
15.988739
30
10.000000
70
192
0
VERTEX
8
OBJECT001
10
-788.000000
20
-62.952835
30
10.228271
70
192
0
VERTEX
8
OBJECT001
10
696.000000
20
-62.952835
30
10.228271
70
192
0
VERTEX
8
OBJECT001
10
0
20
0
30
0
70
128
71
2
72
3
73
-4
0
VERTEX
8
OBJECT001
10
0
20
0
30
0
70
128
71
-2
72
4
73
1
0
VERTEX
8
OBJECT001
10
0
20
0
30
0
70
128
71
3
72
5
73
-6
0
VERTEX
8
OBJECT001
10
0
20
0
30
0
70
128
71
-3
72
6
73
4
0
VERTEX
8
OBJECT001
10
0
20
0
30
0
70
128
71
8
72
2
73
-1
0
VERTEX
8
OBJECT001
10
0
20
0
30
0
70
128
71
-8
72
1
73
7
0
VERTEX
8
OBJECT001
10
0
20
0
30
0
70
128
71
7
72
9
73
-10
0
VERTEX
8
OBJECT001
10
0
20
0
30
0
70
128
71
-7
72
10
73
8
0
VERTEX
8
OBJECT001
10
0
20
0
30
0
70
128
71
10
72
9
73
-12
0
VERTEX
8
OBJECT001
10
0
20
0
30
0
70
128
71
-10
72
12
73
11
0
VERTEX
8
OBJECT001
10
0
20
0
30
0
70
128
71
3
72
2
73
-8
0
VERTEX
8
OBJECT001
10
0
20
0
30
0
70
128
71
-3
72
8
73
-10
0
VERTEX
8
OBJECT001
10
0
20
0
30
0
70
128
71
-3
72
10
73
-11
0
VERTEX
8
OBJECT001
10
0
20
0
30
0
70
128
71
-3
72
11
73
5
0
VERTEX
8
OBJECT001
10
0
20
0
30
0
70
128
71
7
72
1
73
-4
0
VERTEX
8
OBJECT001
10
0
20
0
30
0
70
128
71
-7
72
4
73
-6
0
VERTEX
8
OBJECT001
10
0
20
0
30
0
70
128
71
-7
72
6
73
-12
0
VERTEX
8
OBJECT001
10
0
20
0
30
0
70
128
71
-7
72
12
73
9
0
VERTEX
8
OBJECT001
10
0
20
0
30
0
70
128
71
5
72
11
73
-12
0
VERTEX
8
OBJECT001
10
0
20
0
30
0
70
128
71
-5
72
12
73
6
0
SEQEND
8
OBJECT001
0
POLYLINE
8
OBJECT002
66
1
70
64
71
8
72
12
62
50
0
VERTEX
8
OBJECT002
10
-788.000000
20
15.988823
30
9.987549
70
192
0
VERTEX
8
OBJECT002
10
696.000000
20
15.988823
30
9.987549
70
192
0
VERTEX
8
OBJECT002
10
696.000000
20
16.437531
30
27.074219
70
192
0
VERTEX
8
OBJECT002
10
-788.000000
20
16.437531
30
27.074219
70
192
0
VERTEX
8
OBJECT002
10
-788.000000
20
-62.962143
30
10.221436
70
192
0
VERTEX
8
OBJECT002
10
696.000000
20
-62.962143
30
10.221436
70
192
0
VERTEX
8
OBJECT002
10
-788.000000
20
-49.701904
30
19.924072
70
192
0
VERTEX
8
OBJECT002
10
696.000000
20
-49.701904
30
19.924072
70
192
0
VERTEX
8
OBJECT002
10
0
20
0
30
0
70
128
71
2
72
3
73
-4
0
VERTEX
8
OBJECT002
10
0
20
0
30
0
70
128
71
-2
72
4
73
1
0
VERTEX
8
OBJECT002
10
0
20
0
30
0
70
128
71
1
72
5
73
-6
0
VERTEX
8
OBJECT002
10
0
20
0
30
0
70
128
71
-1
72
6
73
2
0
VERTEX
8
OBJECT002
10
0
20
0
30
0
70
128
71
4
72
7
73
-5
0
VERTEX
8
OBJECT002
10
0
20
0
30
0
70
128
71
-4
72
5
73
1
0
VERTEX
8
OBJECT002
10
0
20
0
30
0
70
128
71
2
72
6
73
-8
0
VERTEX
8
OBJECT002
10
0
20
0
30
0
70
128
71
-2
72
8
73
3
0
VERTEX
8
OBJECT002
10
0
20
0
30
0
70
128
71
5
72
7
73
-8
0
VERTEX
8
OBJECT002
10
0
20
0
30
0
70
128
71
-5
72
8
73
6
0
VERTEX
8
OBJECT002
10
0
20
0
30
0
70
128
71
4
72
3
73
-8
0
VERTEX
8
OBJECT002
10
0
20
0
30
0
70
128
71
-4
72
8
73
7
0
SEQEND
8
OBJECT002
0
POLYLINE
8
OBJECT003
66
1
70
64
71
8
72
12
62
50
0
VERTEX
8
OBJECT003
10
-788.000000
20
15.744865
30
67.811768
70
192
0
VERTEX
8
OBJECT003
10
-788.000000
20
17.513077
30
68.000000
70
192
0
VERTEX
8
OBJECT003
10
696.000000
20
17.513077
30
68.000000
70
192
0
VERTEX
8
OBJECT003
10
696.000000
20
15.744865
30
67.811768
70
192
0
VERTEX
8
OBJECT003
10
696.000000
20
16.437531
30
27.074219
70
192
0
VERTEX
8
OBJECT003
10
-788.000000
20
16.437531
30
27.074219
70
192
0
VERTEX
8
OBJECT003
10
-788.000000
20
-49.701904
30
19.924072
70
192
0
VERTEX
8
OBJECT003
10
696.000000
20
-49.701904
30
19.924072
70
192
0
VERTEX
8
OBJECT003
10
0
20
0
30
0
70
128
71
2
72
3
73
-4
0
VERTEX
8
OBJECT003
10
0
20
0
30
0
70
128
71
-2
72
4
73
1
0
VERTEX
8
OBJECT003
10
0
20
0
30
0
70
128
71
3
72
2
73
-6
0
VERTEX
8
OBJECT003
10
0
20
0
30
0
70
128
71
-3
72
6
73
5
0
VERTEX
8
OBJECT003
10
0
20
0
30
0
70
128
71
2
72
1
73
-7
0
VERTEX
8
OBJECT003
10
0
20
0
30
0
70
128
71
-2
72
7
73
6
0
VERTEX
8
OBJECT003
10
0
20
0
30
0
70
128
71
3
72
5
73
-8
0
VERTEX
8
OBJECT003
10
0
20
0
30
0
70
128
71
-3
72
8
73
4
0
VERTEX
8
OBJECT003
10
0
20
0
30
0
70
128
71
1
72
4
73
-8
0
VERTEX
8
OBJECT003
10
0
20
0
30
0
70
128
71
-1
72
8
73
7
0
VERTEX
8
OBJECT003
10
0
20
0
30
0
70
128
71
6
72
7
73
-8
0
VERTEX
8
OBJECT003
10
0
20
0
30
0
70
128
71
-6
72
8
73
5
0
SEQEND
8
OBJECT003
0
POLYLINE
8
OBJECT004
66
1
70
64
71
10
72
16
62
50
0
VERTEX
8
OBJECT004
10
696.000000
20
80.629028
30
60.869385
70
192
0
VERTEX
8
OBJECT004
10
-788.000000
20
80.629028
30
60.869385
70
192
0
VERTEX
8
OBJECT004
10
-788.000000
20
132.599838
30
47.795898
70
192
0
VERTEX
8
OBJECT004
10
696.000000
20
132.599838
30
47.795898
70
192
0
VERTEX
8
OBJECT004
10
-788.000000
20
147.294342
30
41.220947
70
192
0
VERTEX
8
OBJECT004
10
696.000000
20
147.294342
30
41.220947
70
192
0
VERTEX
8
OBJECT004
10
696.000000
20
17.513977
30
68.000000
70
192
0
VERTEX
8
OBJECT004
10
-788.000000
20
17.513977
30
68.000000
70
192
0
VERTEX
8
OBJECT004
10
-788.000000
20
16.437637
30
27.074219
70
192
0
VERTEX
8
OBJECT004
10
696.000000
20
16.437637
30
27.074219
70
192
0
VERTEX
8
OBJECT004
10
0
20
0
30
0
70
128
71
2
72
3
73
-4
0
VERTEX
8
OBJECT004
10
0
20
0
30
0
70
128
71
-2
72
4
73
1
0
VERTEX
8
OBJECT004
10
0
20
0
30
0
70
128
71
3
72
5
73
-6
0
VERTEX
8
OBJECT004
10
0
20
0
30
0
70
128
71
-3
72
6
73
4
0
VERTEX
8
OBJECT004
10
0
20
0
30
0
70
128
71
8
72
2
73
-1
0
VERTEX
8
OBJECT004
10
0
20
0
30
0
70
128
71
-8
72
1
73
7
0
VERTEX
8
OBJECT004
10
0
20
0
30
0
70
128
71
8
72
7
73
-10
0
VERTEX
8
OBJECT004
10
0
20
0
30
0
70
128
71
-8
72
10
73
9
0
VERTEX
8
OBJECT004
10
0
20
0
30
0
70
128
71
3
72
2
73
-8
0
VERTEX
8
OBJECT004
10
0
20
0
30
0
70
128
71
-3
72
8
73
-9
0
VERTEX
8
OBJECT004
10
0
20
0
30
0
70
128
71
-3
72
9
73
5
0
VERTEX
8
OBJECT004
10
0
20
0
30
0
70
128
71
7
72
1
73
-4
0
VERTEX
8
OBJECT004
10
0
20
0
30
0
70
128
71
-7
72
4
73
-6
0
VERTEX
8
OBJECT004
10
0
20
0
30
0
70
128
71
-7
72
6
73
10
0
VERTEX
8
OBJECT004
10
0
20
0
30
0
70
128
71
5
72
9
73
-10
0
VERTEX
8
OBJECT004
10
0
20
0
30
0
70
128
71
-5
72
10
73
6
0
SEQEND
8
OBJECT004
0
POLYLINE
8
OBJECT005
66
1
70
64
71
15
72
24
62
50
0
VERTEX
8
OBJECT005
10
-358.493408
20
130.610855
30
-28.446777
70
192
0
VERTEX
8
OBJECT005
10
-788.000000
20
130.611069
30
-28.446777
70
192
0
VERTEX
8
OBJECT005
10
-788.000000
20
78.000000
30
-41.219482
70
192
0
VERTEX
8
OBJECT005
10
696.000000
20
78.000000
30
-41.219238
70
192
0
VERTEX
8
OBJECT005
10
696.000000
20
110.265907
30
-33.385986
70
192
0
VERTEX
8
OBJECT005
10
-788.000000
20
168.000000
30
-12.317139
70
192
0
VERTEX
8
OBJECT005
10
696.000000
20
147.762405
30
-21.047119
70
192
0
VERTEX
8
OBJECT005
10
696.000000
20
168.000000
30
-12.316895
70
192
0
VERTEX
8
OBJECT005
10
-788.000000
20
14.461304
30
-48.000000
70
192
0
VERTEX
8
OBJECT005
10
696.000000
20
14.460701
30
-48.000000
70
192
0
VERTEX
8
OBJECT005
10
-788.000000
20
16.000000
30
9.987549
70
192
0
VERTEX
8
OBJECT005
10
696.000000
20
16.000000
30
9.987549
70
192
0
VERTEX
8
OBJECT005
10
-788.000000
20
168.000000
30
9.561279
70
192
0
VERTEX
8
OBJECT005
10
696.000000
20
168.000000
30
9.561279
70
192
0
VERTEX
8
OBJECT005
10
-358.851685
20
130.609741
30
-28.447266
70
192
0
VERTEX
8
OBJECT005
10
0
20
0
30
0
70
128
71
2
72
3
73
-4
0
VERTEX
8
OBJECT005
10
0
20
0
30
0
70
128
71
-2
72
4
73
-5
0
VERTEX
8
OBJECT005
10
0
20
0
30
0
70
128
71
-2
72
5
73
1
0
VERTEX
8
OBJECT005
10
0
20
0
30
0
70
128
71
2
72
1
73
-7
0
VERTEX
8
OBJECT005
10
0
20
0
30
0
70
128
71
-2
72
7
73
-8
0
VERTEX
8
OBJECT005
10
0
20
0
30
0
70
128
71
-2
72
8
73
6
0
VERTEX
8
OBJECT005
10
0
20
0
30
0
70
128
71
3
72
9
73
-10
0
VERTEX
8
OBJECT005
10
0
20
0
30
0
70
128
71
-3
72
10
73
4
0
VERTEX
8
OBJECT005
10
0
20
0
30
0
70
128
71
9
72
11
73
-12
0
VERTEX
8
OBJECT005
10
0
20
0
30
0
70
128
71
-9
72
12
73
10
0
VERTEX
8
OBJECT005
10
0
20
0
30
0
70
128
71
11
72
13
73
-14
0
VERTEX
8
OBJECT005
10
0
20
0
30
0
70
128
71
-11
72
14
73
12
0
VERTEX
8
OBJECT005
10
0
20
0
30
0
70
128
71
15
72
5
73
7
0
VERTEX
8
OBJECT005
10
0
20
0
30
0
70
128
71
9
72
3
73
-2
0
VERTEX
8
OBJECT005
10
0
20
0
30
0
70
128
71
-9
72
2
73
-6
0
VERTEX
8
OBJECT005
10
0
20
0
30
0
70
128
71
-9
72
6
73
-13
0
VERTEX
8
OBJECT005
10
0
20
0
30
0
70
128
71
-9
72
13
73
11
0
VERTEX
8
OBJECT005
10
0
20
0
30
0
70
128
71
7
72
5
73
-4
0
VERTEX
8
OBJECT005
10
0
20
0
30
0
70
128
71
-7
72
4
73
-10
0
VERTEX
8
OBJECT005
10
0
20
0
30
0
70
128
71
-7
72
10
73
-12
0
VERTEX
8
OBJECT005
10
0
20
0
30
0
70
128
71
-7
72
12
73
-14
0
VERTEX
8
OBJECT005
10
0
20
0
30
0
70
128
71
-7
72
14
73
8
0
VERTEX
8
OBJECT005
10
0
20
0
30
0
70
128
71
8
72
14
73
-13
0
VERTEX
8
OBJECT005
10
0
20
0
30
0
70
128
71
-8
72
13
73
6
0
SEQEND
8
OBJECT005
0
POLYLINE
8
OBJECT006
66
1
70
64
71
8
72
12
62
50
0
VERTEX
8
OBJECT006
10
-788.000000
20
-109.493408
30
-23.825928
70
192
0
VERTEX
8
OBJECT006
10
-788.000000
20
-136.000000
30
-11.964111
70
192
0
VERTEX
8
OBJECT006
10
696.000000
20
-136.000000
30
-11.964111
70
192
0
VERTEX
8
OBJECT006
10
696.000000
20
-109.493408
30
-23.825928
70
192
0
VERTEX
8
OBJECT006
10
-788.000000
20
-136.000000
30
10.439697
70
192
0
VERTEX
8
OBJECT006
10
-788.000000
20
-62.953171
30
10.228027
70
192
0
VERTEX
8
OBJECT006
10
696.000000
20
-62.953171
30
10.228027
70
192
0
VERTEX
8
OBJECT006
10
696.000000
20
-136.000000
30
10.439697
70
192
0
VERTEX
8
OBJECT006
10
0
20
0
30
0
70
128
71
2
72
3
73
-4
0
VERTEX
8
OBJECT006
10
0
20
0
30
0
70
128
71
-2
72
4
73
1
0
VERTEX
8
OBJECT006
10
0
20
0
30
0
70
128
71
6
72
7
73
-8
0
VERTEX
8
OBJECT006
10
0
20
0
30
0
70
128
71
-6
72
8
73
5
0
VERTEX
8
OBJECT006
10
0
20
0
30
0
70
128
71
1
72
6
73
-5
0
VERTEX
8
OBJECT006
10
0
20
0
30
0
70
128
71
-1
72
5
73
2
0
VERTEX
8
OBJECT006
10
0
20
0
30
0
70
128
71
3
72
8
73
-7
0
VERTEX
8
OBJECT006
10
0
20
0
30
0
70
128
71
-3
72
7
73
4
0
VERTEX
8
OBJECT006
10
0
20
0
30
0
70
128
71
2
72
5
73
-8
0
VERTEX
8
OBJECT006
10
0
20
0
30
0
70
128
71
-2
72
8
73
3
0
VERTEX
8
OBJECT006
10
0
20
0
30
0
70
128
71
6
72
1
73
-4
0
VERTEX
8
OBJECT006
10
0
20
0
30
0
70
128
71
-6
72
4
73
7
0
SEQEND
8
OBJECT006
0
POLYLINE
8
OBJECT007
66
1
70
64
71
8
72
12
62
50
0
VERTEX
8
OBJECT007
10
-788.000000
20
-62.962128
30
10.221436
70
192
0
VERTEX
8
OBJECT007
10
-788.000000
20
-136.000000
30
10.437988
70
192
0
VERTEX
8
OBJECT007
10
696.000000
20
-136.000000
30
10.437988
70
192
0
VERTEX
8
OBJECT007
10
696.000000
20
-62.962128
30
10.221436
70
192
0
VERTEX
8
OBJECT007
10
-788.000000
20
-136.000000
30
10.594482
70
192
0
VERTEX
8
OBJECT007
10
-788.000000
20
-49.701920
30
19.924072
70
192
0
VERTEX
8
OBJECT007
10
696.000000
20
-136.000000
30
10.594482
70
192
0
VERTEX
8
OBJECT007
10
696.000000
20
-49.701920
30
19.924072
70
192
0
VERTEX
8
OBJECT007
10
0
20
0
30
0
70
128
71
2
72
3
73
-4
0
VERTEX
8
OBJECT007
10
0
20
0
30
0
70
128
71
-2
72
4
73
1
0
VERTEX
8
OBJECT007
10
0
20
0
30
0
70
128
71
2
72
1
73
-6
0
VERTEX
8
OBJECT007
10
0
20
0
30
0
70
128
71
-2
72
6
73
5
0
VERTEX
8
OBJECT007
10
0
20
0
30
0
70
128
71
3
72
7
73
-8
0
VERTEX
8
OBJECT007
10
0
20
0
30
0
70
128
71
-3
72
8
73
4
0
VERTEX
8
OBJECT007
10
0
20
0
30
0
70
128
71
2
72
5
73
-7
0
VERTEX
8
OBJECT007
10
0
20
0
30
0
70
128
71
-2
72
7
73
3
0
VERTEX
8
OBJECT007
10
0
20
0
30
0
70
128
71
1
72
4
73
-8
0
VERTEX
8
OBJECT007
10
0
20
0
30
0
70
128
71
-1
72
8
73
6
0
VERTEX
8
OBJECT007
10
0
20
0
30
0
70
128
71
6
72
8
73
-7
0
VERTEX
8
OBJECT007
10
0
20
0
30
0
70
128
71
-6
72
7
73
5
0
SEQEND
8
OBJECT007
0
POLYLINE
8
OBJECT008
66
1
70
64
71
16
72
28
62
50
0
VERTEX
8
OBJECT008
10
696.000000
20
17.511955
30
68.000000
70
192
0
VERTEX
8
OBJECT008
10
703.928223
20
17.511955
30
68.000000
70
192
0
VERTEX
8
OBJECT008
10
704.351074
20
15.743195
30
67.810791
70
192
0
VERTEX
8
OBJECT008
10
696.000000
20
15.743195
30
67.810791
70
192
0
VERTEX
8
OBJECT008
10
771.036865
20
16.437805
30
27.074219
70
192
0
VERTEX
8
OBJECT008
10
763.347168
20
16.739326
30
38.555908
70
192
0
VERTEX
8
OBJECT008
10
754.900635
20
16.914162
30
45.213379
70
192
0
VERTEX
8
OBJECT008
10
696.000000
20
16.437805
30
27.074219
70
192
0
VERTEX
8
OBJECT008
10
745.287842
20
-9.273209
30
49.506104
70
192
0
VERTEX
8
OBJECT008
10
754.910400
20
-2.942398
30
45.205566
70
192
0
VERTEX
8
OBJECT008
10
763.347412
20
-6.141678
30
38.555664
70
192
0
VERTEX
8
OBJECT008
10
773.405273
20
-31.502716
30
23.538086
70
192
0
VERTEX
8
OBJECT008
10
771.247559
20
-45.433960
30
20.385498
70
192
0
VERTEX
8
OBJECT008
10
769.825928
20
-49.702240
30
19.924072
70
192
0
VERTEX
8
OBJECT008
10
774.156494
20
-26.649551
30
22.416260
70
192
0
VERTEX
8
OBJECT008
10
696.000000
20
-49.702011
30
19.924072
70
192
0
VERTEX
8
OBJECT008
10
0
20
0
30
0
70
128
71
2
72
3
73
-4
0
VERTEX
8
OBJECT008
10
0
20
0
30
0
70
128
71
-2
72
4
73
1
0
VERTEX
8
OBJECT008
10
0
20
0
30
0
70
128
71
6
72
7
73
-2
0
VERTEX
8
OBJECT008
10
0
20
0
30
0
70
128
71
-6
72
2
73
-1
0
VERTEX
8
OBJECT008
10
0
20
0
30
0
70
128
71
-6
72
1
73
-8
0
VERTEX
8
OBJECT008
10
0
20
0
30
0
70
128
71
-6
72
8
73
5
0
VERTEX
8
OBJECT008
10
0
20
0
30
0
70
128
71
10
72
11
73
-12
0
VERTEX
8
OBJECT008
10
0
20
0
30
0
70
128
71
-10
72
12
73
-13
0
VERTEX
8
OBJECT008
10
0
20
0
30
0
70
128
71
-10
72
13
73
-14
0
VERTEX
8
OBJECT008
10
0
20
0
30
0
70
128
71
-10
72
14
73
9
0
VERTEX
8
OBJECT008
10
0
20
0
30
0
70
128
71
9
72
3
73
-2
0
VERTEX
8
OBJECT008
10
0
20
0
30
0
70
128
71
-9
72
2
73
-7
0
VERTEX
8
OBJECT008
10
0
20
0
30
0
70
128
71
-9
72
7
73
10
0
VERTEX
8
OBJECT008
10
0
20
0
30
0
70
128
71
12
72
15
73
13
0
VERTEX
8
OBJECT008
10
0
20
0
30
0
70
128
71
10
72
7
73
-6
0
VERTEX
8
OBJECT008
10
0
20
0
30
0
70
128
71
-10
72
6
73
11
0
VERTEX
8
OBJECT008
10
0
20
0
30
0
70
128
71
12
72
11
73
-6
0
VERTEX
8
OBJECT008
10
0
20
0
30
0
70
128
71
-12
72
6
73
-5
0
VERTEX
8
OBJECT008
10
0
20
0
30
0
70
128
71
-12
72
5
73
15
0
VERTEX
8
OBJECT008
10
0
20
0
30
0
70
128
71
1
72
4
73
-16
0
VERTEX
8
OBJECT008
10
0
20
0
30
0
70
128
71
-1
72
16
73
8
0
VERTEX
8
OBJECT008
10
0
20
0
30
0
70
128
71
3
72
9
73
-14
0
VERTEX
8
OBJECT008
10
0
20
0
30
0
70
128
71
-3
72
14
73
-16
0
VERTEX
8
OBJECT008
10
0
20
0
30
0
70
128
71
-3
72
16
73
4
0
VERTEX
8
OBJECT008
10
0
20
0
30
0
70
128
71
13
72
15
73
-5
0
VERTEX
8
OBJECT008
10
0
20
0
30
0
70
128
71
-13
72
5
73
-8
0
VERTEX
8
OBJECT008
10
0
20
0
30
0
70
128
71
-13
72
8
73
-16
0
VERTEX
8
OBJECT008
10
0
20
0
30
0
70
128
71
-13
72
16
73
14
0
SEQEND
8
OBJECT008
0
POLYLINE
8
OBJECT009
66
1
70
64
71
12
72
20
62
50
0
VERTEX
8
OBJECT009
10
707.076660
20
-136.000000
30
-11.968994
70
192
0
VERTEX
8
OBJECT009
10
702.247070
20
-109.497879
30
-23.829102
70
192
0
VERTEX
8
OBJECT009
10
696.000000
20
-109.497986
30
-23.829346
70
192
0
VERTEX
8
OBJECT009
10
696.000000
20
-136.000000
30
-11.969238
70
192
0
VERTEX
8
OBJECT009
10
767.114746
20
-62.965134
30
10.219238
70
192
0
VERTEX
8
OBJECT009
10
759.247803
20
-86.663483
30
10.284912
70
192
0
VERTEX
8
OBJECT009
10
725.430664
20
-136.000000
30
10.421875
70
192
0
VERTEX
8
OBJECT009
10
696.000000
20
-136.000000
30
10.422119
70
192
0
VERTEX
8
OBJECT009
10
696.000000
20
-62.964081
30
10.219971
70
192
0
VERTEX
8
OBJECT009
10
725.438232
20
-136.000000
30
-0.064453
70
192
0
VERTEX
8
OBJECT009
10
759.239258
20
-86.680893
30
5.606445
70
192
0
VERTEX
8
OBJECT009
10
764.238037
20
-71.619629
30
3.886719
70
192
0
VERTEX
8
OBJECT009
10
0
20
0
30
0
70
128
71
2
72
3
73
-4
0
VERTEX
8
OBJECT009
10
0
20
0
30
0
70
128
71
-2
72
4
73
1
0
VERTEX
8
OBJECT009
10
0
20
0
30
0
70
128
71
6
72
7
73
-8
0
VERTEX
8
OBJECT009
10
0
20
0
30
0
70
128
71
-6
72
8
73
-9
0
VERTEX
8
OBJECT009
10
0
20
0
30
0
70
128
71
-6
72
9
73
5
0
VERTEX
8
OBJECT009
10
0
20
0
30
0
70
128
71
1
72
10
73
-11
0
VERTEX
8
OBJECT009
10
0
20
0
30
0
70
128
71
-1
72
11
73
-12
0
VERTEX
8
OBJECT009
10
0
20
0
30
0
70
128
71
-1
72
12
73
2
0
VERTEX
8
OBJECT009
10
0
20
0
30
0
70
128
71
6
72
11
73
-10
0
VERTEX
8
OBJECT009
10
0
20
0
30
0
70
128
71
-6
72
10
73
7
0
VERTEX
8
OBJECT009
10
0
20
0
30
0
70
128
71
11
72
6
73
-5
0
VERTEX
8
OBJECT009
10
0
20
0
30
0
70
128
71
-11
72
5
73
12
0
VERTEX
8
OBJECT009
10
0
20
0
30
0
70
128
71
3
72
9
73
-8
0
VERTEX
8
OBJECT009
10
0
20
0
30
0
70
128
71
-3
72
8
73
4
0
VERTEX
8
OBJECT009
10
0
20
0
30
0
70
128
71
4
72
8
73
-7
0
VERTEX
8
OBJECT009
10
0
20
0
30
0
70
128
71
-4
72
7
73
-10
0
VERTEX
8
OBJECT009
10
0
20
0
30
0
70
128
71
-4
72
10
73
1
0
VERTEX
8
OBJECT009
10
0
20
0
30
0
70
128
71
9
72
3
73
-2
0
VERTEX
8
OBJECT009
10
0
20
0
30
0
70
128
71
-9
72
2
73
-12
0
VERTEX
8
OBJECT009
10
0
20
0
30
0
70
128
71
-9
72
12
73
5
0
SEQEND
8
OBJECT009
0
POLYLINE
8
OBJECT010
66
1
70
64
71
24
72
44
62
50
0
VERTEX
8
OBJECT010
10
776.000000
20
15.988068
30
10.000000
70
192
0
VERTEX
8
OBJECT010
10
776.000000
20
15.731209
30
0.337402
70
192
0
VERTEX
8
OBJECT010
10
776.000000
20
-14.731339
30
0.337402
70
192
0
VERTEX
8
OBJECT010
10
776.000000
20
-14.731339
30
10.085449
70
192
0
VERTEX
8
OBJECT010
10
696.000000
20
-100.627228
30
-27.799561
70
192
0
VERTEX
8
OBJECT010
10
700.627930
20
-100.627228
30
-27.799561
70
192
0
VERTEX
8
OBJECT010
10
706.859863
20
-48.722626
30
-40.856445
70
192
0
VERTEX
8
OBJECT010
10
696.000000
20
-48.722626
30
-40.856445
70
192
0
VERTEX
8
OBJECT010
10
702.243652
20
-109.498764
30
-23.829590
70
192
0
VERTEX
8
OBJECT010
10
696.000000
20
-109.498764
30
-23.829590
70
192
0
VERTEX
8
OBJECT010
10
713.289063
20
-29.435699
30
-43.041260
70
192
0
VERTEX
8
OBJECT010
10
701.848877
20
14.445961
30
-48.011963
70
192
0
VERTEX
8
OBJECT010
10
696.000000
20
14.445961
30
-48.011963
70
192
0
VERTEX
8
OBJECT010
10
755.819092
20
15.069603
30
-24.553223
70
192
0
VERTEX
8
OBJECT010
10
761.781494
20
15.167969
30
-20.853027
70
192
0
VERTEX
8
OBJECT010
10
696.000000
20
15.988113
30
10.000000
70
192
0
VERTEX
8
OBJECT010
10
769.781250
20
-54.932510
30
10.197510
70
192
0
VERTEX
8
OBJECT010
10
767.115234
20
-62.964249
30
10.219971
70
192
0
VERTEX
8
OBJECT010
10
696.000000
20
-62.964294
30
10.219727
70
192
0
VERTEX
8
OBJECT010
10
761.780762
20
-1.343170
30
-20.853760
70
192
0
VERTEX
8
OBJECT010
10
755.817627
20
-1.845078
30
-24.554688
70
192
0
VERTEX
8
OBJECT010
10
764.238770
20
-71.617538
30
3.888184
70
192
0
VERTEX
8
OBJECT010
10
769.785889
20
-54.903381
30
1.979004
70
192
0
VERTEX
8
OBJECT010
10
773.455078
20
-31.183258
30
-3.455322
70
192
0
VERTEX
8
OBJECT010
10
0
20
0
30
0
70
128
71
2
72
3
73
-4
0
VERTEX
8
OBJECT010
10
0
20
0
30
0
70
128
71
-2
72
4
73
1
0
VERTEX
8
OBJECT010
10
0
20
0
30
0
70
128
71
6
72
7
73
-8
0
VERTEX
8
OBJECT010
10
0
20
0
30
0
70
128
71
-6
72
8
73
5
0
VERTEX
8
OBJECT010
10
0
20
0
30
0
70
128
71
6
72
5
73
-10
0
VERTEX
8
OBJECT010
10
0
20
0
30
0
70
128
71
-6
72
10
73
9
0
VERTEX
8
OBJECT010
10
0
20
0
30
0
70
128
71
7
72
11
73
-12
0
VERTEX
8
OBJECT010
10
0
20
0
30
0
70
128
71
-7
72
12
73
-13
0
VERTEX
8
OBJECT010
10
0
20
0
30
0
70
128
71
-7
72
13
73
8
0
VERTEX
8
OBJECT010
10
0
20
0
30
0
70
128
71
12
72
14
73
-15
0
VERTEX
8
OBJECT010
10
0
20
0
30
0
70
128
71
-12
72
15
73
-2
0
VERTEX
8
OBJECT010
10
0
20
0
30
0
70
128
71
-12
72
2
73
-1
0
VERTEX
8
OBJECT010
10
0
20
0
30
0
70
128
71
-12
72
1
73
-16
0
VERTEX
8
OBJECT010
10
0
20
0
30
0
70
128
71
-12
72
16
73
13
0
VERTEX
8
OBJECT010
10
0
20
0
30
0
70
128
71
1
72
4
73
-17
0
VERTEX
8
OBJECT010
10
0
20
0
30
0
70
128
71
-1
72
17
73
-18
0
VERTEX
8
OBJECT010
10
0
20
0
30
0
70
128
71
-1
72
18
73
-19
0
VERTEX
8
OBJECT010
10
0
20
0
30
0
70
128
71
-1
72
19
73
16
0
VERTEX
8
OBJECT010
10
0
20
0
30
0
70
128
71
21
72
11
73
-7
0
VERTEX
8
OBJECT010
10
0
20
0
30
0
70
128
71
-21
72
7
73
-6
0
VERTEX
8
OBJECT010
10
0
20
0
30
0
70
128
71
-21
72
6
73
-9
0
VERTEX
8
OBJECT010
10
0
20
0
30
0
70
128
71
-21
72
9
73
-22
0
VERTEX
8
OBJECT010
10
0
20
0
30
0
70
128
71
-21
72
22
73
-23
0
VERTEX
8
OBJECT010
10
0
20
0
30
0
70
128
71
-21
72
23
73
-24
0
VERTEX
8
OBJECT010
10
0
20
0
30
0
70
128
71
-21
72
24
73
20
0
VERTEX
8
OBJECT010
10
0
20
0
30
0
70
128
71
11
72
21
73
-14
0
VERTEX
8
OBJECT010
10
0
20
0
30
0
70
128
71
-11
72
14
73
12
0
VERTEX
8
OBJECT010
10
0
20
0
30
0
70
128
71
22
72
18
73
-17
0
VERTEX
8
OBJECT010
10
0
20
0
30
0
70
128
71
-22
72
17
73
23
0
VERTEX
8
OBJECT010
10
0
20
0
30
0
70
128
71
3
72
24
73
-23
0
VERTEX
8
OBJECT010
10
0
20
0
30
0
70
128
71
-3
72
23
73
-17
0
VERTEX
8
OBJECT010
10
0
20
0
30
0
70
128
71
-3
72
17
73
4
0
VERTEX
8
OBJECT010
10
0
20
0
30
0
70
128
71
20
72
15
73
-14
0
VERTEX
8
OBJECT010
10
0
20
0
30
0
70
128
71
-20
72
14
73
21
0
VERTEX
8
OBJECT010
10
0
20
0
30
0
70
128
71
2
72
15
73
-20
0
VERTEX
8
OBJECT010
10
0
20
0
30
0
70
128
71
-2
72
20
73
-24
0
VERTEX
8
OBJECT010
10
0
20
0
30
0
70
128
71
-2
72
24
73
3
0
VERTEX
8
OBJECT010
10
0
20
0
30
0
70
128
71
5
72
8
73
-13
0
VERTEX
8
OBJECT010
10
0
20
0
30
0
70
128
71
-5
72
13
73
-16
0
VERTEX
8
OBJECT010
10
0
20
0
30
0
70
128
71
-5
72
16
73
-19
0
VERTEX
8
OBJECT010
10
0
20
0
30
0
70
128
71
-5
72
19
73
10
0
VERTEX
8
OBJECT010
10
0
20
0
30
0
70
128
71
18
72
22
73
-9
0
VERTEX
8
OBJECT010
10
0
20
0
30
0
70
128
71
-18
72
9
73
-10
0
VERTEX
8
OBJECT010
10
0
20
0
30
0
70
128
71
-18
72
10
73
19
0
SEQEND
8
OBJECT010
0
POLYLINE
8
OBJECT011
66
1
70
64
71
14
72
24
62
50
0
VERTEX
8
OBJECT011
10
696.000000
20
-62.971207
30
10.214844
70
192
0
VERTEX
8
OBJECT011
10
696.000000
20
-136.000000
30
10.431641
70
192
0
VERTEX
8
OBJECT011
10
725.428955
20
-136.000000
30
10.431885
70
192
0
VERTEX
8
OBJECT011
10
759.239014
20
-86.674576
30
10.285645
70
192
0
VERTEX
8
OBJECT011
10
767.109375
20
-62.970444
30
10.215332
70
192
0
VERTEX
8
OBJECT011
10
769.825928
20
-49.702225
30
19.924072
70
192
0
VERTEX
8
OBJECT011
10
770.431885
20
-50.700714
30
19.193359
70
192
0
VERTEX
8
OBJECT011
10
769.775146
20
-54.940506
30
18.233887
70
192
0
VERTEX
8
OBJECT011
10
759.238525
20
-86.675247
30
14.781738
70
192
0
VERTEX
8
OBJECT011
10
755.881104
20
-91.573517
30
15.397461
70
192
0
VERTEX
8
OBJECT011
10
725.427490
20
-136.000000
30
10.594482
70
192
0
VERTEX
8
OBJECT011
10
769.775391
20
-54.939438
30
16.091797
70
192
0
VERTEX
8
OBJECT011
10
696.000000
20
-136.000000
30
10.594482
70
192
0
VERTEX
8
OBJECT011
10
696.000000
20
-49.702347
30
19.924072
70
192
0
VERTEX
8
OBJECT011
10
0
20
0
30
0
70
128
71
2
72
3
73
-4
0
VERTEX
8
OBJECT011
10
0
20
0
30
0
70
128
71
-2
72
4
73
-5
0
VERTEX
8
OBJECT011
10
0
20
0
30
0
70
128
71
-2
72
5
73
1
0
VERTEX
8
OBJECT011
10
0
20
0
30
0
70
128
71
7
72
8
73
-9
0
VERTEX
8
OBJECT011
10
0
20
0
30
0
70
128
71
-7
72
9
73
-10
0
VERTEX
8
OBJECT011
10
0
20
0
30
0
70
128
71
-7
72
10
73
6
0
VERTEX
8
OBJECT011
10
0
20
0
30
0
70
128
71
3
72
11
73
-10
0
VERTEX
8
OBJECT011
10
0
20
0
30
0
70
128
71
-3
72
10
73
-9
0
VERTEX
8
OBJECT011
10
0
20
0
30
0
70
128
71
-3
72
9
73
4
0
VERTEX
8
OBJECT011
10
0
20
0
30
0
70
128
71
4
72
9
73
-8
0
VERTEX
8
OBJECT011
10
0
20
0
30
0
70
128
71
-4
72
8
73
-12
0
VERTEX
8
OBJECT011
10
0
20
0
30
0
70
128
71
-4
72
12
73
5
0
VERTEX
8
OBJECT011
10
0
20
0
30
0
70
128
71
8
72
7
73
12
0
VERTEX
8
OBJECT011
10
0
20
0
30
0
70
128
71
2
72
1
73
-14
0
VERTEX
8
OBJECT011
10
0
20
0
30
0
70
128
71
-2
72
14
73
13
0
VERTEX
8
OBJECT011
10
0
20
0
30
0
70
128
71
2
72
13
73
-11
0
VERTEX
8
OBJECT011
10
0
20
0
30
0
70
128
71
-2
72
11
73
3
0
VERTEX
8
OBJECT011
10
0
20
0
30
0
70
128
71
1
72
5
73
-12
0
VERTEX
8
OBJECT011
10
0
20
0
30
0
70
128
71
-1
72
12
73
-7
0
VERTEX
8
OBJECT011
10
0
20
0
30
0
70
128
71
-1
72
7
73
-6
0
VERTEX
8
OBJECT011
10
0
20
0
30
0
70
128
71
-1
72
6
73
14
0
VERTEX
8
OBJECT011
10
0
20
0
30
0
70
128
71
14
72
6
73
-10
0
VERTEX
8
OBJECT011
10
0
20
0
30
0
70
128
71
-14
72
10
73
-11
0
VERTEX
8
OBJECT011
10
0
20
0
30
0
70
128
71
-14
72
11
73
13
0
SEQEND
8
OBJECT011
0
POLYLINE
8
OBJECT012
66
1
70
64
71
20
72
36
62
50
0
VERTEX
8
OBJECT012
10
776.000000
20
15.988693
30
10.000000
70
192
0
VERTEX
8
OBJECT012
10
776.000000
20
16.242874
30
19.660889
70
192
0
VERTEX
8
OBJECT012
10
776.000000
20
39.456100
30
19.660889
70
192
0
VERTEX
8
OBJECT012
10
776.000000
20
39.456093
30
9.931641
70
192
0
VERTEX
8
OBJECT012
10
708.785400
20
168.000000
30
31.949951
70
192
0
VERTEX
8
OBJECT012
10
705.126221
20
147.285400
30
41.219971
70
192
0
VERTEX
8
OBJECT012
10
696.000000
20
147.285217
30
41.219971
70
192
0
VERTEX
8
OBJECT012
10
696.000000
20
168.000000
30
31.949707
70
192
0
VERTEX
8
OBJECT012
10
696.000000
20
15.988686
30
10.000000
70
192
0
VERTEX
8
OBJECT012
10
696.000000
20
16.437920
30
27.074219
70
192
0
VERTEX
8
OBJECT012
10
771.026611
20
16.437920
30
27.074219
70
192
0
VERTEX
8
OBJECT012
10
767.336182
20
94.242859
30
9.772217
70
192
0
VERTEX
8
OBJECT012
10
756.334229
20
119.123779
30
9.699707
70
192
0
VERTEX
8
OBJECT012
10
717.739502
20
168.000000
30
9.557373
70
192
0
VERTEX
8
OBJECT012
10
696.000000
20
168.000000
30
9.557129
70
192
0
VERTEX
8
OBJECT012
10
717.723633
20
168.000000
30
26.000000
70
192
0
VERTEX
8
OBJECT012
10
756.341797
20
119.106003
30
16.419678
70
192
0
VERTEX
8
OBJECT012
10
767.336426
20
94.241638
30
17.303223
70
192
0
VERTEX
8
OBJECT012
10
772.582520
20
61.067810
30
24.755127
70
192
0
VERTEX
8
OBJECT012
10
768.525391
20
50.924507
30
30.802490
70
192
0
VERTEX
8
OBJECT012
10
0
20
0
30
0
70
128
71
2
72
3
73
-4
0
VERTEX
8
OBJECT012
10
0
20
0
30
0
70
128
71
-2
72
4
73
1
0
VERTEX
8
OBJECT012
10
0
20
0
30
0
70
128
71
6
72
7
73
-8
0
VERTEX
8
OBJECT012
10
0
20
0
30
0
70
128
71
-6
72
8
73
5
0
VERTEX
8
OBJECT012
10
0
20
0
30
0
70
128
71
1
72
9
73
-10
0
VERTEX
8
OBJECT012
10
0
20
0
30
0
70
128
71
-1
72
10
73
-11
0
VERTEX
8
OBJECT012
10
0
20
0
30
0
70
128
71
-1
72
11
73
2
0
VERTEX
8
OBJECT012
10
0
20
0
30
0
70
128
71
1
72
4
73
-12
0
VERTEX
8
OBJECT012
10
0
20
0
30
0
70
128
71
-1
72
12
73
-13
0
VERTEX
8
OBJECT012
10
0
20
0
30
0
70
128
71
-1
72
13
73
-14
0
VERTEX
8
OBJECT012
10
0
20
0
30
0
70
128
71
-1
72
14
73
-15
0
VERTEX
8
OBJECT012
10
0
20
0
30
0
70
128
71
-1
72
15
73
9
0
VERTEX
8
OBJECT012
10
0
20
0
30
0
70
128
71
5
72
16
73
-17
0
VERTEX
8
OBJECT012
10
0
20
0
30
0
70
128
71
-5
72
17
73
-18
0
VERTEX
8
OBJECT012
10
0
20
0
30
0
70
128
71
-5
72
18
73
-19
0
VERTEX
8
OBJECT012
10
0
20
0
30
0
70
128
71
-5
72
19
73
-20
0
VERTEX
8
OBJECT012
10
0
20
0
30
0
70
128
71
-5
72
20
73
6
0
VERTEX
8
OBJECT012
10
0
20
0
30
0
70
128
71
16
72
14
73
-13
0
VERTEX
8
OBJECT012
10
0
20
0
30
0
70
128
71
-16
72
13
73
17
0
VERTEX
8
OBJECT012
10
0
20
0
30
0
70
128
71
17
72
13
73
-12
0
VERTEX
8
OBJECT012
10
0
20
0
30
0
70
128
71
-17
72
12
73
18
0
VERTEX
8
OBJECT012
10
0
20
0
30
0
70
128
71
3
72
19
73
-18
0
VERTEX
8
OBJECT012
10
0
20
0
30
0
70
128
71
-3
72
18
73
-12
0
VERTEX
8
OBJECT012
10
0
20
0
30
0
70
128
71
-3
72
12
73
4
0
VERTEX
8
OBJECT012
10
0
20
0
30
0
70
128
71
2
72
11
73
-20
0
VERTEX
8
OBJECT012
10
0
20
0
30
0
70
128
71
-2
72
20
73
-19
0
VERTEX
8
OBJECT012
10
0
20
0
30
0
70
128
71
-2
72
19
73
3
0
VERTEX
8
OBJECT012
10
0
20
0
30
0
70
128
71
7
72
10
73
-9
0
VERTEX
8
OBJECT012
10
0
20
0
30
0
70
128
71
-7
72
9
73
-15
0
VERTEX
8
OBJECT012
10
0
20
0
30
0
70
128
71
-7
72
15
73
8
0
VERTEX
8
OBJECT012
10
0
20
0
30
0
70
128
71
14
72
16
73
-5
0
VERTEX
8
OBJECT012
10
0
20
0
30
0
70
128
71
-14
72
5
73
-8
0
VERTEX
8
OBJECT012
10
0
20
0
30
0
70
128
71
-14
72
8
73
15
0
VERTEX
8
OBJECT012
10
0
20
0
30
0
70
128
71
6
72
20
73
-11
0
VERTEX
8
OBJECT012
10
0
20
0
30
0
70
128
71
-6
72
11
73
-10
0
VERTEX
8
OBJECT012
10
0
20
0
30
0
70
128
71
-6
72
10
73
7
0
SEQEND
8
OBJECT012
0
POLYLINE
8
OBJECT013
66
1
70
64
71
16
72
28
62
50
0
VERTEX
8
OBJECT013
10
776.000000
20
16.243393
30
19.663574
70
192
0
VERTEX
8
OBJECT013
10
776.000000
20
15.989136
30
9.981689
70
192
0
VERTEX
8
OBJECT013
10
776.000000
20
-14.749222
30
10.072754
70
192
0
VERTEX
8
OBJECT013
10
776.000000
20
-14.749222
30
19.663574
70
192
0
VERTEX
8
OBJECT013
10
696.000000
20
15.988853
30
9.978760
70
192
0
VERTEX
8
OBJECT013
10
771.036865
20
16.437805
30
27.074219
70
192
0
VERTEX
8
OBJECT013
10
696.000000
20
16.437805
30
27.074219
70
192
0
VERTEX
8
OBJECT013
10
767.109131
20
-62.970306
30
10.215576
70
192
0
VERTEX
8
OBJECT013
10
769.774658
20
-54.942581
30
10.191895
70
192
0
VERTEX
8
OBJECT013
10
696.000000
20
-62.973877
30
10.212891
70
192
0
VERTEX
8
OBJECT013
10
771.247559
20
-45.433960
30
20.385498
70
192
0
VERTEX
8
OBJECT013
10
770.431885
20
-50.700424
30
19.193604
70
192
0
VERTEX
8
OBJECT013
10
769.825928
20
-49.702240
30
19.924072
70
192
0
VERTEX
8
OBJECT013
10
769.774658
20
-54.942642
30
16.089355
70
192
0
VERTEX
8
OBJECT013
10
774.156494
20
-26.649551
30
22.416260
70
192
0
VERTEX
8
OBJECT013
10
696.000000
20
-49.702011
30
19.924072
70
192
0
VERTEX
8
OBJECT013
10
0
20
0
30
0
70
128
71
2
72
3
73
-4
0
VERTEX
8
OBJECT013
10
0
20
0
30
0
70
128
71
-2
72
4
73
1
0
VERTEX
8
OBJECT013
10
0
20
0
30
0
70
128
71
2
72
1
73
-6
0
VERTEX
8
OBJECT013
10
0
20
0
30
0
70
128
71
-2
72
6
73
-7
0
VERTEX
8
OBJECT013
10
0
20
0
30
0
70
128
71
-2
72
7
73
5
0
VERTEX
8
OBJECT013
10
0
20
0
30
0
70
128
71
9
72
3
73
-2
0
VERTEX
8
OBJECT013
10
0
20
0
30
0
70
128
71
-9
72
2
73
-5
0
VERTEX
8
OBJECT013
10
0
20
0
30
0
70
128
71
-9
72
5
73
-10
0
VERTEX
8
OBJECT013
10
0
20
0
30
0
70
128
71
-9
72
10
73
8
0
VERTEX
8
OBJECT013
10
0
20
0
30
0
70
128
71
12
72
13
73
11
0
VERTEX
8
OBJECT013
10
0
20
0
30
0
70
128
71
8
72
14
73
9
0
VERTEX
8
OBJECT013
10
0
20
0
30
0
70
128
71
3
72
9
73
-14
0
VERTEX
8
OBJECT013
10
0
20
0
30
0
70
128
71
-3
72
14
73
-12
0
VERTEX
8
OBJECT013
10
0
20
0
30
0
70
128
71
-3
72
12
73
-11
0
VERTEX
8
OBJECT013
10
0
20
0
30
0
70
128
71
-3
72
11
73
-15
0
VERTEX
8
OBJECT013
10
0
20
0
30
0
70
128
71
-3
72
15
73
4
0
VERTEX
8
OBJECT013
10
0
20
0
30
0
70
128
71
4
72
15
73
-6
0
VERTEX
8
OBJECT013
10
0
20
0
30
0
70
128
71
-4
72
6
73
1
0
VERTEX
8
OBJECT013
10
0
20
0
30
0
70
128
71
7
72
16
73
-10
0
VERTEX
8
OBJECT013
10
0
20
0
30
0
70
128
71
-7
72
10
73
5
0
VERTEX
8
OBJECT013
10
0
20
0
30
0
70
128
71
12
72
14
73
-8
0
VERTEX
8
OBJECT013
10
0
20
0
30
0
70
128
71
-12
72
8
73
-10
0
VERTEX
8
OBJECT013
10
0
20
0
30
0
70
128
71
-12
72
10
73
-16
0
VERTEX
8
OBJECT013
10
0
20
0
30
0
70
128
71
-12
72
16
73
13
0
VERTEX
8
OBJECT013
10
0
20
0
30
0
70
128
71
6
72
15
73
-11
0
VERTEX
8
OBJECT013
10
0
20
0
30
0
70
128
71
-6
72
11
73
-13
0
VERTEX
8
OBJECT013
10
0
20
0
30
0
70
128
71
-6
72
13
73
-16
0
VERTEX
8
OBJECT013
10
0
20
0
30
0
70
128
71
-6
72
16
73
7
0
SEQEND
8
OBJECT013
0
POLYLINE
8
OBJECT014
66
1
70
64
71
16
72
28
62
50
0
VERTEX
8
OBJECT014
10
696.000000
20
132.613541
30
47.786621
70
192
0
VERTEX
8
OBJECT014
10
702.533447
20
132.613541
30
47.786621
70
192
0
VERTEX
8
OBJECT014
10
708.651855
20
80.628845
30
60.863770
70
192
0
VERTEX
8
OBJECT014
10
696.000000
20
80.628845
30
60.863770
70
192
0
VERTEX
8
OBJECT014
10
705.126221
20
147.285400
30
41.219971
70
192
0
VERTEX
8
OBJECT014
10
696.000000
20
147.285217
30
41.219971
70
192
0
VERTEX
8
OBJECT014
10
714.979980
20
61.211922
30
63.056641
70
192
0
VERTEX
8
OBJECT014
10
703.965088
20
17.514465
30
68.000000
70
192
0
VERTEX
8
OBJECT014
10
696.000000
20
17.514465
30
68.000000
70
192
0
VERTEX
8
OBJECT014
10
696.000000
20
16.437920
30
27.074219
70
192
0
VERTEX
8
OBJECT014
10
754.892090
20
16.915298
30
45.218506
70
192
0
VERTEX
8
OBJECT014
10
763.300293
20
16.740936
30
38.591309
70
192
0
VERTEX
8
OBJECT014
10
771.026611
20
16.437920
30
27.074219
70
192
0
VERTEX
8
OBJECT014
10
754.902588
20
34.743858
30
45.210205
70
192
0
VERTEX
8
OBJECT014
10
768.525391
20
50.924507
30
30.802490
70
192
0
VERTEX
8
OBJECT014
10
763.300293
20
37.860474
30
38.591309
70
192
0
VERTEX
8
OBJECT014
10
0
20
0
30
0
70
128
71
2
72
3
73
-4
0
VERTEX
8
OBJECT014
10
0
20
0
30
0
70
128
71
-2
72
4
73
1
0
VERTEX
8
OBJECT014
10
0
20
0
30
0
70
128
71
2
72
1
73
-6
0
VERTEX
8
OBJECT014
10
0
20
0
30
0
70
128
71
-2
72
6
73
5
0
VERTEX
8
OBJECT014
10
0
20
0
30
0
70
128
71
3
72
7
73
-8
0
VERTEX
8
OBJECT014
10
0
20
0
30
0
70
128
71
-3
72
8
73
-9
0
VERTEX
8
OBJECT014
10
0
20
0
30
0
70
128
71
-3
72
9
73
4
0
VERTEX
8
OBJECT014
10
0
20
0
30
0
70
128
71
9
72
8
73
-11
0
VERTEX
8
OBJECT014
10
0
20
0
30
0
70
128
71
-9
72
11
73
-12
0
VERTEX
8
OBJECT014
10
0
20
0
30
0
70
128
71
-9
72
12
73
-13
0
VERTEX
8
OBJECT014
10
0
20
0
30
0
70
128
71
-9
72
13
73
10
0
VERTEX
8
OBJECT014
10
0
20
0
30
0
70
128
71
7
72
3
73
-2
0
VERTEX
8
OBJECT014
10
0
20
0
30
0
70
128
71
-7
72
2
73
-5
0
VERTEX
8
OBJECT014
10
0
20
0
30
0
70
128
71
-7
72
5
73
-15
0
VERTEX
8
OBJECT014
10
0
20
0
30
0
70
128
71
-7
72
15
73
-16
0
VERTEX
8
OBJECT014
10
0
20
0
30
0
70
128
71
-7
72
16
73
14
0
VERTEX
8
OBJECT014
10
0
20
0
30
0
70
128
71
7
72
14
73
-11
0
VERTEX
8
OBJECT014
10
0
20
0
30
0
70
128
71
-7
72
11
73
8
0
VERTEX
8
OBJECT014
10
0
20
0
30
0
70
128
71
16
72
12
73
-11
0
VERTEX
8
OBJECT014
10
0
20
0
30
0
70
128
71
-16
72
11
73
14
0
VERTEX
8
OBJECT014
10
0
20
0
30
0
70
128
71
12
72
16
73
-15
0
VERTEX
8
OBJECT014
10
0
20
0
30
0
70
128
71
-12
72
15
73
13
0
VERTEX
8
OBJECT014
10
0
20
0
30
0
70
128
71
1
72
4
73
-9
0
VERTEX
8
OBJECT014
10
0
20
0
30
0
70
128
71
-1
72
9
73
-10
0
VERTEX
8
OBJECT014
10
0
20
0
30
0
70
128
71
-1
72
10
73
6
0
VERTEX
8
OBJECT014
10
0
20
0
30
0
70
128
71
13
72
15
73
-5
0
VERTEX
8
OBJECT014
10
0
20
0
30
0
70
128
71
-13
72
5
73
-6
0
VERTEX
8
OBJECT014
10
0
20
0
30
0
70
128
71
-13
72
6
73
10
0
SEQEND
8
OBJECT014
0
POLYLINE
8
OBJECT015
66
1
70
64
71
26
72
48
62
50
0
VERTEX
8
OBJECT015
10
776.000000
20
15.731964
30
0.328125
70
192
0
VERTEX
8
OBJECT015
10
776.000000
20
15.988434
30
10.000000
70
192
0
VERTEX
8
OBJECT015
10
776.000000
20
39.467781
30
9.927246
70
192
0
VERTEX
8
OBJECT015
10
776.000000
20
39.467781
30
0.328125
70
192
0
VERTEX
8
OBJECT015
10
696.000000
20
77.987991
30
-41.228027
70
192
0
VERTEX
8
OBJECT015
10
704.508545
20
77.987213
30
-41.228027
70
192
0
VERTEX
8
OBJECT015
10
697.157715
20
130.606949
30
-28.453857
70
192
0
VERTEX
8
OBJECT015
10
696.000000
20
130.606781
30
-28.453857
70
192
0
VERTEX
8
OBJECT015
10
703.361572
20
168.000000
30
-12.323486
70
192
0
VERTEX
8
OBJECT015
10
696.000000
20
168.000000
30
-12.323486
70
192
0
VERTEX
8
OBJECT015
10
696.000000
20
14.460213
30
-48.000000
70
192
0
VERTEX
8
OBJECT015
10
701.883057
20
14.459442
30
-48.000000
70
192
0
VERTEX
8
OBJECT015
10
712.217773
20
56.590141
30
-43.509277
70
192
0
VERTEX
8
OBJECT015
10
761.810547
20
15.172615
30
-20.824951
70
192
0
VERTEX
8
OBJECT015
10
755.798828
20
15.074348
30
-24.558350
70
192
0
VERTEX
8
OBJECT015
10
696.000000
20
16.000000
30
10.000000
70
192
0
VERTEX
8
OBJECT015
10
717.715820
20
168.000000
30
9.557129
70
192
0
VERTEX
8
OBJECT015
10
756.363281
20
119.062843
30
9.697754
70
192
0
VERTEX
8
OBJECT015
10
767.354248
20
94.197495
30
9.769287
70
192
0
VERTEX
8
OBJECT015
10
696.000000
20
168.000000
30
9.557617
70
192
0
VERTEX
8
OBJECT015
10
755.793213
20
32.444923
30
-24.561768
70
192
0
VERTEX
8
OBJECT015
10
761.810547
20
32.515671
30
-20.824951
70
192
0
VERTEX
8
OBJECT015
10
772.580322
20
61.115059
30
-4.769775
70
192
0
VERTEX
8
OBJECT015
10
767.354248
20
94.197304
30
2.888428
70
192
0
VERTEX
8
OBJECT015
10
756.361084
20
119.067490
30
4.285645
70
192
0
VERTEX
8
OBJECT015
10
717.719727
20
168.000000
30
-3.464355
70
192
0
VERTEX
8
OBJECT015
10
0
20
0
30
0
70
128
71
2
72
3
73
-4
0
VERTEX
8
OBJECT015
10
0
20
0
30
0
70
128
71
-2
72
4
73
1
0
VERTEX
8
OBJECT015
10
0
20
0
30
0
70
128
71
6
72
7
73
-8
0
VERTEX
8
OBJECT015
10
0
20
0
30
0
70
128
71
-6
72
8
73
5
0
VERTEX
8
OBJECT015
10
0
20
0
30
0
70
128
71
7
72
9
73
-10
0
VERTEX
8
OBJECT015
10
0
20
0
30
0
70
128
71
-7
72
10
73
8
0
VERTEX
8
OBJECT015
10
0
20
0
30
0
70
128
71
12
72
13
73
-6
0
VERTEX
8
OBJECT015
10
0
20
0
30
0
70
128
71
-12
72
6
73
-5
0
VERTEX
8
OBJECT015
10
0
20
0
30
0
70
128
71
-12
72
5
73
11
0
VERTEX
8
OBJECT015
10
0
20
0
30
0
70
128
71
1
72
14
73
-15
0
VERTEX
8
OBJECT015
10
0
20
0
30
0
70
128
71
-1
72
15
73
-12
0
VERTEX
8
OBJECT015
10
0
20
0
30
0
70
128
71
-1
72
12
73
-11
0
VERTEX
8
OBJECT015
10
0
20
0
30
0
70
128
71
-1
72
11
73
-16
0
VERTEX
8
OBJECT015
10
0
20
0
30
0
70
128
71
-1
72
16
73
2
0
VERTEX
8
OBJECT015
10
0
20
0
30
0
70
128
71
18
72
19
73
-3
0
VERTEX
8
OBJECT015
10
0
20
0
30
0
70
128
71
-18
72
3
73
-2
0
VERTEX
8
OBJECT015
10
0
20
0
30
0
70
128
71
-18
72
2
73
-16
0
VERTEX
8
OBJECT015
10
0
20
0
30
0
70
128
71
-18
72
16
73
-20
0
VERTEX
8
OBJECT015
10
0
20
0
30
0
70
128
71
-18
72
20
73
17
0
VERTEX
8
OBJECT015
10
0
20
0
30
0
70
128
71
6
72
13
73
-21
0
VERTEX
8
OBJECT015
10
0
20
0
30
0
70
128
71
-6
72
21
73
-22
0
VERTEX
8
OBJECT015
10
0
20
0
30
0
70
128
71
-6
72
22
73
-23
0
VERTEX
8
OBJECT015
10
0
20
0
30
0
70
128
71
-6
72
23
73
-24
0
VERTEX
8
OBJECT015
10
0
20
0
30
0
70
128
71
-6
72
24
73
-25
0
VERTEX
8
OBJECT015
10
0
20
0
30
0
70
128
71
-6
72
25
73
-26
0
VERTEX
8
OBJECT015
10
0
20
0
30
0
70
128
71
-6
72
26
73
-9
0
VERTEX
8
OBJECT015
10
0
20
0
30
0
70
128
71
-6
72
9
73
7
0
VERTEX
8
OBJECT015
10
0
20
0
30
0
70
128
71
13
72
12
73
-15
0
VERTEX
8
OBJECT015
10
0
20
0
30
0
70
128
71
-13
72
15
73
21
0
VERTEX
8
OBJECT015
10
0
20
0
30
0
70
128
71
25
72
18
73
-17
0
VERTEX
8
OBJECT015
10
0
20
0
30
0
70
128
71
-25
72
17
73
26
0
VERTEX
8
OBJECT015
10
0
20
0
30
0
70
128
71
18
72
25
73
-24
0
VERTEX
8
OBJECT015
10
0
20
0
30
0
70
128
71
-18
72
24
73
19
0
VERTEX
8
OBJECT015
10
0
20
0
30
0
70
128
71
3
72
19
73
-24
0
VERTEX
8
OBJECT015
10
0
20
0
30
0
70
128
71
-3
72
24
73
-23
0
VERTEX
8
OBJECT015
10
0
20
0
30
0
70
128
71
-3
72
23
73
4
0
VERTEX
8
OBJECT015
10
0
20
0
30
0
70
128
71
21
72
15
73
-14
0
VERTEX
8
OBJECT015
10
0
20
0
30
0
70
128
71
-21
72
14
73
22
0
VERTEX
8
OBJECT015
10
0
20
0
30
0
70
128
71
4
72
23
73
-22
0
VERTEX
8
OBJECT015
10
0
20
0
30
0
70
128
71
-4
72
22
73
-14
0
VERTEX
8
OBJECT015
10
0
20
0
30
0
70
128
71
-4
72
14
73
1
0
VERTEX
8
OBJECT015
10
0
20
0
30
0
70
128
71
11
72
5
73
-8
0
VERTEX
8
OBJECT015
10
0
20
0
30
0
70
128
71
-11
72
8
73
-10
0
VERTEX
8
OBJECT015
10
0
20
0
30
0
70
128
71
-11
72
10
73
-20
0
VERTEX
8
OBJECT015
10
0
20
0
30
0
70
128
71
-11
72
20
73
16
0
VERTEX
8
OBJECT015
10
0
20
0
30
0
70
128
71
9
72
26
73
-17
0
VERTEX
8
OBJECT015
10
0
20
0
30
0
70
128
71
-9
72
17
73
-20
0
VERTEX
8
OBJECT015
10
0
20
0
30
0
70
128
71
-9
72
20
73
10
0
SEQEND
8
OBJECT015
0
ENDSEC
0
EOF
