0
SECTION
2
HEADER
9
$ACADVER
1
AC1008
9
$UCSORG
10
0.0
20
0.0
30
0.0
9
$UCSXDIR
10
1.0
20
0.0
30
0.0
9
$TILEMODE
70
1
9
$UCSYDIR
10
0.0
20
1.0
30
0.0
9
$EXTMIN
10
-512.000000
20
-800.000000
30
-64.000000
9
$EXTMAX
10
800.000000
20
32.000000
30
320.000000
0
ENDSEC
0
SECTION
2
TABLES
0
TABLE
2
LTYPE
70
1
0
LTYPE
2
CONTINUOUS
70
64
3
Solid line
72
65
73
0
40
0.0
0
ENDTAB
0
TABLE
2
LAYER
70
1
0
LAYER
2
0
70
0
62
7
6
CONTINUOUS
0
ENDTAB
0
TABLE
2
STYLE
70
1
0
STYLE
2
STANDARD
70
0
40
0.0
41
1.0
50
0.0
71
0
42
0.2
3
txt
4

0
ENDTAB
0
TABLE
2
UCS
70
0
0
ENDTAB
0
ENDSEC
0
SECTION
2
ENTITIES
0
POLYLINE
8
OBJECT000
66
1
70
64
71
8
72
12
62
50
0
VERTEX
8
OBJECT000
10
-448.000000
20
-128.000000
30
224.000000
70
192
0
VERTEX
8
OBJECT000
10
-430.000000
20
-82.000000
30
224.000000
70
192
0
VERTEX
8
OBJECT000
10
-384.000000
20
-64.000000
30
224.000000
70
192
0
VERTEX
8
OBJECT000
10
-384.000000
20
-128.000000
30
224.000000
70
192
0
VERTEX
8
OBJECT000
10
-430.000000
20
-82.000000
30
208.000000
70
192
0
VERTEX
8
OBJECT000
10
-448.000000
20
-128.000000
30
212.869614
70
192
0
VERTEX
8
OBJECT000
10
-384.000000
20
-128.000000
30
216.000000
70
192
0
VERTEX
8
OBJECT000
10
-384.000000
20
-64.000000
30
208.000000
70
192
0
VERTEX
8
OBJECT000
10
0
20
0
30
0
70
128
71
2
72
3
73
-4
0
VERTEX
8
OBJECT000
10
0
20
0
30
0
70
128
71
-2
72
4
73
1
0
VERTEX
8
OBJECT000
10
0
20
0
30
0
70
128
71
6
72
7
73
-8
0
VERTEX
8
OBJECT000
10
0
20
0
30
0
70
128
71
-6
72
8
73
5
0
VERTEX
8
OBJECT000
10
0
20
0
30
0
70
128
71
1
72
6
73
-5
0
VERTEX
8
OBJECT000
10
0
20
0
30
0
70
128
71
-1
72
5
73
2
0
VERTEX
8
OBJECT000
10
0
20
0
30
0
70
128
71
7
72
4
73
-3
0
VERTEX
8
OBJECT000
10
0
20
0
30
0
70
128
71
-7
72
3
73
8
0
VERTEX
8
OBJECT000
10
0
20
0
30
0
70
128
71
8
72
3
73
-2
0
VERTEX
8
OBJECT000
10
0
20
0
30
0
70
128
71
-8
72
2
73
5
0
VERTEX
8
OBJECT000
10
0
20
0
30
0
70
128
71
4
72
7
73
-6
0
VERTEX
8
OBJECT000
10
0
20
0
30
0
70
128
71
-4
72
6
73
1
0
SEQEND
8
OBJECT000
0
POLYLINE
8
OBJECT001
66
1
70
64
71
8
72
12
62
50
0
VERTEX
8
OBJECT001
10
-430.000000
20
-174.000000
30
224.000000
70
192
0
VERTEX
8
OBJECT001
10
-448.000000
20
-128.000000
30
224.000000
70
192
0
VERTEX
8
OBJECT001
10
-384.000000
20
-128.000000
30
224.000000
70
192
0
VERTEX
8
OBJECT001
10
-384.000000
20
-192.000000
30
224.000000
70
192
0
VERTEX
8
OBJECT001
10
-448.000000
20
-128.000000
30
208.000000
70
192
0
VERTEX
8
OBJECT001
10
-430.000000
20
-174.000000
30
208.000000
70
192
0
VERTEX
8
OBJECT001
10
-384.000000
20
-192.000000
30
208.000000
70
192
0
VERTEX
8
OBJECT001
10
-384.000000
20
-128.000000
30
208.000000
70
192
0
VERTEX
8
OBJECT001
10
0
20
0
30
0
70
128
71
2
72
3
73
-4
0
VERTEX
8
OBJECT001
10
0
20
0
30
0
70
128
71
-2
72
4
73
1
0
VERTEX
8
OBJECT001
10
0
20
0
30
0
70
128
71
6
72
7
73
-8
0
VERTEX
8
OBJECT001
10
0
20
0
30
0
70
128
71
-6
72
8
73
5
0
VERTEX
8
OBJECT001
10
0
20
0
30
0
70
128
71
5
72
2
73
-1
0
VERTEX
8
OBJECT001
10
0
20
0
30
0
70
128
71
-5
72
1
73
6
0
VERTEX
8
OBJECT001
10
0
20
0
30
0
70
128
71
7
72
4
73
-3
0
VERTEX
8
OBJECT001
10
0
20
0
30
0
70
128
71
-7
72
3
73
8
0
VERTEX
8
OBJECT001
10
0
20
0
30
0
70
128
71
6
72
1
73
-4
0
VERTEX
8
OBJECT001
10
0
20
0
30
0
70
128
71
-6
72
4
73
7
0
VERTEX
8
OBJECT001
10
0
20
0
30
0
70
128
71
8
72
3
73
-2
0
VERTEX
8
OBJECT001
10
0
20
0
30
0
70
128
71
-8
72
2
73
5
0
SEQEND
8
OBJECT001
0
POLYLINE
8
OBJECT002
66
1
70
64
71
8
72
12
62
50
0
VERTEX
8
OBJECT002
10
-320.000000
20
-128.000000
30
224.000000
70
192
0
VERTEX
8
OBJECT002
10
-338.000000
20
-174.000000
30
224.000000
70
192
0
VERTEX
8
OBJECT002
10
-384.000000
20
-192.000000
30
224.000000
70
192
0
VERTEX
8
OBJECT002
10
-384.000000
20
-128.000000
30
224.000000
70
192
0
VERTEX
8
OBJECT002
10
-384.000000
20
-128.000000
30
208.000000
70
192
0
VERTEX
8
OBJECT002
10
-384.000000
20
-192.000000
30
208.000000
70
192
0
VERTEX
8
OBJECT002
10
-338.000000
20
-174.000000
30
208.000000
70
192
0
VERTEX
8
OBJECT002
10
-320.000000
20
-128.000000
30
208.000000
70
192
0
VERTEX
8
OBJECT002
10
0
20
0
30
0
70
128
71
2
72
3
73
-4
0
VERTEX
8
OBJECT002
10
0
20
0
30
0
70
128
71
-2
72
4
73
1
0
VERTEX
8
OBJECT002
10
0
20
0
30
0
70
128
71
6
72
7
73
-8
0
VERTEX
8
OBJECT002
10
0
20
0
30
0
70
128
71
-6
72
8
73
5
0
VERTEX
8
OBJECT002
10
0
20
0
30
0
70
128
71
7
72
2
73
-1
0
VERTEX
8
OBJECT002
10
0
20
0
30
0
70
128
71
-7
72
1
73
8
0
VERTEX
8
OBJECT002
10
0
20
0
30
0
70
128
71
5
72
4
73
-3
0
VERTEX
8
OBJECT002
10
0
20
0
30
0
70
128
71
-5
72
3
73
6
0
VERTEX
8
OBJECT002
10
0
20
0
30
0
70
128
71
6
72
3
73
-2
0
VERTEX
8
OBJECT002
10
0
20
0
30
0
70
128
71
-6
72
2
73
7
0
VERTEX
8
OBJECT002
10
0
20
0
30
0
70
128
71
8
72
1
73
-4
0
VERTEX
8
OBJECT002
10
0
20
0
30
0
70
128
71
-8
72
4
73
5
0
SEQEND
8
OBJECT002
0
POLYLINE
8
OBJECT003
66
1
70
64
71
8
72
12
62
50
0
VERTEX
8
OBJECT003
10
-384.000000
20
-128.000000
30
224.000000
70
192
0
VERTEX
8
OBJECT003
10
-384.000000
20
-64.000000
30
224.000000
70
192
0
VERTEX
8
OBJECT003
10
-338.000000
20
-82.000000
30
224.000000
70
192
0
VERTEX
8
OBJECT003
10
-320.000000
20
-128.000000
30
224.000000
70
192
0
VERTEX
8
OBJECT003
10
-320.000000
20
-128.000000
30
208.000000
70
192
0
VERTEX
8
OBJECT003
10
-338.000000
20
-82.000000
30
208.000000
70
192
0
VERTEX
8
OBJECT003
10
-384.000000
20
-64.000000
30
208.000000
70
192
0
VERTEX
8
OBJECT003
10
-384.000000
20
-128.000000
30
208.000000
70
192
0
VERTEX
8
OBJECT003
10
0
20
0
30
0
70
128
71
2
72
3
73
-4
0
VERTEX
8
OBJECT003
10
0
20
0
30
0
70
128
71
-2
72
4
73
1
0
VERTEX
8
OBJECT003
10
0
20
0
30
0
70
128
71
6
72
7
73
-8
0
VERTEX
8
OBJECT003
10
0
20
0
30
0
70
128
71
-6
72
8
73
5
0
VERTEX
8
OBJECT003
10
0
20
0
30
0
70
128
71
5
72
4
73
-3
0
VERTEX
8
OBJECT003
10
0
20
0
30
0
70
128
71
-5
72
3
73
6
0
VERTEX
8
OBJECT003
10
0
20
0
30
0
70
128
71
7
72
2
73
-1
0
VERTEX
8
OBJECT003
10
0
20
0
30
0
70
128
71
-7
72
1
73
8
0
VERTEX
8
OBJECT003
10
0
20
0
30
0
70
128
71
6
72
3
73
-2
0
VERTEX
8
OBJECT003
10
0
20
0
30
0
70
128
71
-6
72
2
73
7
0
VERTEX
8
OBJECT003
10
0
20
0
30
0
70
128
71
8
72
1
73
-4
0
VERTEX
8
OBJECT003
10
0
20
0
30
0
70
128
71
-8
72
4
73
5
0
SEQEND
8
OBJECT003
0
POLYLINE
8
OBJECT004
66
1
70
64
71
8
72
12
62
50
0
VERTEX
8
OBJECT004
10
-430.000000
20
-82.000000
30
32.000000
70
192
0
VERTEX
8
OBJECT004
10
-448.000000
20
-128.000000
30
32.000000
70
192
0
VERTEX
8
OBJECT004
10
-384.000000
20
-128.000000
30
32.000000
70
192
0
VERTEX
8
OBJECT004
10
-384.000000
20
-64.000000
30
32.000000
70
192
0
VERTEX
8
OBJECT004
10
-448.000000
20
-128.000000
30
48.000000
70
192
0
VERTEX
8
OBJECT004
10
-430.000000
20
-82.000000
30
48.000000
70
192
0
VERTEX
8
OBJECT004
10
-384.000000
20
-64.000000
30
48.000000
70
192
0
VERTEX
8
OBJECT004
10
-384.000000
20
-128.000000
30
48.000000
70
192
0
VERTEX
8
OBJECT004
10
0
20
0
30
0
70
128
71
2
72
3
73
-4
0
VERTEX
8
OBJECT004
10
0
20
0
30
0
70
128
71
-2
72
4
73
1
0
VERTEX
8
OBJECT004
10
0
20
0
30
0
70
128
71
6
72
7
73
-8
0
VERTEX
8
OBJECT004
10
0
20
0
30
0
70
128
71
-6
72
8
73
5
0
VERTEX
8
OBJECT004
10
0
20
0
30
0
70
128
71
1
72
6
73
-5
0
VERTEX
8
OBJECT004
10
0
20
0
30
0
70
128
71
-1
72
5
73
2
0
VERTEX
8
OBJECT004
10
0
20
0
30
0
70
128
71
3
72
8
73
-7
0
VERTEX
8
OBJECT004
10
0
20
0
30
0
70
128
71
-3
72
7
73
4
0
VERTEX
8
OBJECT004
10
0
20
0
30
0
70
128
71
4
72
7
73
-6
0
VERTEX
8
OBJECT004
10
0
20
0
30
0
70
128
71
-4
72
6
73
1
0
VERTEX
8
OBJECT004
10
0
20
0
30
0
70
128
71
2
72
5
73
-8
0
VERTEX
8
OBJECT004
10
0
20
0
30
0
70
128
71
-2
72
8
73
3
0
SEQEND
8
OBJECT004
0
POLYLINE
8
OBJECT005
66
1
70
64
71
8
72
12
62
50
0
VERTEX
8
OBJECT005
10
-320.000000
20
-128.000000
30
32.000000
70
192
0
VERTEX
8
OBJECT005
10
-338.000000
20
-82.000000
30
32.000000
70
192
0
VERTEX
8
OBJECT005
10
-384.000000
20
-64.000000
30
32.000000
70
192
0
VERTEX
8
OBJECT005
10
-384.000000
20
-128.000000
30
32.000000
70
192
0
VERTEX
8
OBJECT005
10
-384.000000
20
-128.000000
30
40.000000
70
192
0
VERTEX
8
OBJECT005
10
-384.000000
20
-64.000000
30
48.000000
70
192
0
VERTEX
8
OBJECT005
10
-338.000000
20
-82.000000
30
48.000000
70
192
0
VERTEX
8
OBJECT005
10
-320.000000
20
-128.000000
30
43.130577
70
192
0
VERTEX
8
OBJECT005
10
0
20
0
30
0
70
128
71
2
72
3
73
-4
0
VERTEX
8
OBJECT005
10
0
20
0
30
0
70
128
71
-2
72
4
73
1
0
VERTEX
8
OBJECT005
10
0
20
0
30
0
70
128
71
6
72
7
73
-8
0
VERTEX
8
OBJECT005
10
0
20
0
30
0
70
128
71
-6
72
8
73
5
0
VERTEX
8
OBJECT005
10
0
20
0
30
0
70
128
71
1
72
8
73
-7
0
VERTEX
8
OBJECT005
10
0
20
0
30
0
70
128
71
-1
72
7
73
2
0
VERTEX
8
OBJECT005
10
0
20
0
30
0
70
128
71
3
72
6
73
-5
0
VERTEX
8
OBJECT005
10
0
20
0
30
0
70
128
71
-3
72
5
73
4
0
VERTEX
8
OBJECT005
10
0
20
0
30
0
70
128
71
2
72
7
73
-6
0
VERTEX
8
OBJECT005
10
0
20
0
30
0
70
128
71
-2
72
6
73
3
0
VERTEX
8
OBJECT005
10
0
20
0
30
0
70
128
71
4
72
5
73
-8
0
VERTEX
8
OBJECT005
10
0
20
0
30
0
70
128
71
-4
72
8
73
1
0
SEQEND
8
OBJECT005
0
POLYLINE
8
OBJECT006
66
1
70
64
71
8
72
12
62
50
0
VERTEX
8
OBJECT006
10
-384.000000
20
-128.000000
30
32.000000
70
192
0
VERTEX
8
OBJECT006
10
-384.000000
20
-192.000000
30
32.000000
70
192
0
VERTEX
8
OBJECT006
10
-338.000000
20
-174.000000
30
32.000000
70
192
0
VERTEX
8
OBJECT006
10
-320.000000
20
-128.000000
30
32.000000
70
192
0
VERTEX
8
OBJECT006
10
-320.000000
20
-128.000000
30
48.000000
70
192
0
VERTEX
8
OBJECT006
10
-338.000000
20
-174.000000
30
48.000000
70
192
0
VERTEX
8
OBJECT006
10
-384.000000
20
-192.000000
30
43.130013
70
192
0
VERTEX
8
OBJECT006
10
-384.000000
20
-128.000000
30
40.000000
70
192
0
VERTEX
8
OBJECT006
10
0
20
0
30
0
70
128
71
2
72
3
73
-4
0
VERTEX
8
OBJECT006
10
0
20
0
30
0
70
128
71
-2
72
4
73
1
0
VERTEX
8
OBJECT006
10
0
20
0
30
0
70
128
71
6
72
7
73
-8
0
VERTEX
8
OBJECT006
10
0
20
0
30
0
70
128
71
-6
72
8
73
5
0
VERTEX
8
OBJECT006
10
0
20
0
30
0
70
128
71
3
72
6
73
-5
0
VERTEX
8
OBJECT006
10
0
20
0
30
0
70
128
71
-3
72
5
73
4
0
VERTEX
8
OBJECT006
10
0
20
0
30
0
70
128
71
1
72
8
73
-7
0
VERTEX
8
OBJECT006
10
0
20
0
30
0
70
128
71
-1
72
7
73
2
0
VERTEX
8
OBJECT006
10
0
20
0
30
0
70
128
71
2
72
7
73
-6
0
VERTEX
8
OBJECT006
10
0
20
0
30
0
70
128
71
-2
72
6
73
3
0
VERTEX
8
OBJECT006
10
0
20
0
30
0
70
128
71
4
72
5
73
-8
0
VERTEX
8
OBJECT006
10
0
20
0
30
0
70
128
71
-4
72
8
73
1
0
SEQEND
8
OBJECT006
0
POLYLINE
8
OBJECT007
66
1
70
64
71
8
72
12
62
50
0
VERTEX
8
OBJECT007
10
-448.000000
20
-128.000000
30
32.000000
70
192
0
VERTEX
8
OBJECT007
10
-430.000000
20
-174.000000
30
32.000000
70
192
0
VERTEX
8
OBJECT007
10
-384.000000
20
-192.000000
30
32.000000
70
192
0
VERTEX
8
OBJECT007
10
-384.000000
20
-128.000000
30
32.000000
70
192
0
VERTEX
8
OBJECT007
10
-430.000000
20
-174.000000
30
48.000000
70
192
0
VERTEX
8
OBJECT007
10
-448.000000
20
-128.000000
30
43.130383
70
192
0
VERTEX
8
OBJECT007
10
-384.000000
20
-128.000000
30
40.000000
70
192
0
VERTEX
8
OBJECT007
10
-384.000000
20
-192.000000
30
48.000000
70
192
0
VERTEX
8
OBJECT007
10
0
20
0
30
0
70
128
71
2
72
3
73
-4
0
VERTEX
8
OBJECT007
10
0
20
0
30
0
70
128
71
-2
72
4
73
1
0
VERTEX
8
OBJECT007
10
0
20
0
30
0
70
128
71
6
72
7
73
-8
0
VERTEX
8
OBJECT007
10
0
20
0
30
0
70
128
71
-6
72
8
73
5
0
VERTEX
8
OBJECT007
10
0
20
0
30
0
70
128
71
1
72
6
73
-5
0
VERTEX
8
OBJECT007
10
0
20
0
30
0
70
128
71
-1
72
5
73
2
0
VERTEX
8
OBJECT007
10
0
20
0
30
0
70
128
71
3
72
8
73
-7
0
VERTEX
8
OBJECT007
10
0
20
0
30
0
70
128
71
-3
72
7
73
4
0
VERTEX
8
OBJECT007
10
0
20
0
30
0
70
128
71
2
72
5
73
-8
0
VERTEX
8
OBJECT007
10
0
20
0
30
0
70
128
71
-2
72
8
73
3
0
VERTEX
8
OBJECT007
10
0
20
0
30
0
70
128
71
4
72
7
73
-6
0
VERTEX
8
OBJECT007
10
0
20
0
30
0
70
128
71
-4
72
6
73
1
0
SEQEND
8
OBJECT007
0
POLYLINE
8
OBJECT008
66
1
70
64
71
16
72
28
62
50
0
VERTEX
8
OBJECT008
10
-361.000000
20
-105.000000
30
48.000000
70
192
0
VERTEX
8
OBJECT008
10
-384.000000
20
-96.000000
30
48.000000
70
192
0
VERTEX
8
OBJECT008
10
-407.000000
20
-105.000000
30
48.000000
70
192
0
VERTEX
8
OBJECT008
10
-416.000000
20
-128.000000
30
48.000000
70
192
0
VERTEX
8
OBJECT008
10
-407.000000
20
-151.000000
30
48.000000
70
192
0
VERTEX
8
OBJECT008
10
-384.000000
20
-160.000000
30
48.000000
70
192
0
VERTEX
8
OBJECT008
10
-361.000000
20
-151.000000
30
48.000000
70
192
0
VERTEX
8
OBJECT008
10
-352.000000
20
-128.000000
30
48.000000
70
192
0
VERTEX
8
OBJECT008
10
-384.000000
20
-96.000000
30
208.000000
70
192
0
VERTEX
8
OBJECT008
10
-361.000000
20
-105.000000
30
208.000000
70
192
0
VERTEX
8
OBJECT008
10
-352.000000
20
-128.000000
30
208.000000
70
192
0
VERTEX
8
OBJECT008
10
-361.000000
20
-151.000000
30
208.000000
70
192
0
VERTEX
8
OBJECT008
10
-384.000000
20
-160.000000
30
208.000000
70
192
0
VERTEX
8
OBJECT008
10
-407.000000
20
-151.000000
30
208.000000
70
192
0
VERTEX
8
OBJECT008
10
-416.000000
20
-128.000000
30
208.000000
70
192
0
VERTEX
8
OBJECT008
10
-407.000000
20
-105.000000
30
208.000000
70
192
0
VERTEX
8
OBJECT008
10
0
20
0
30
0
70
128
71
2
72
3
73
-4
0
VERTEX
8
OBJECT008
10
0
20
0
30
0
70
128
71
-2
72
4
73
-5
0
VERTEX
8
OBJECT008
10
0
20
0
30
0
70
128
71
-2
72
5
73
-6
0
VERTEX
8
OBJECT008
10
0
20
0
30
0
70
128
71
-2
72
6
73
-7
0
VERTEX
8
OBJECT008
10
0
20
0
30
0
70
128
71
-2
72
7
73
-8
0
VERTEX
8
OBJECT008
10
0
20
0
30
0
70
128
71
-2
72
8
73
1
0
VERTEX
8
OBJECT008
10
0
20
0
30
0
70
128
71
10
72
11
73
-12
0
VERTEX
8
OBJECT008
10
0
20
0
30
0
70
128
71
-10
72
12
73
-13
0
VERTEX
8
OBJECT008
10
0
20
0
30
0
70
128
71
-10
72
13
73
-14
0
VERTEX
8
OBJECT008
10
0
20
0
30
0
70
128
71
-10
72
14
73
-15
0
VERTEX
8
OBJECT008
10
0
20
0
30
0
70
128
71
-10
72
15
73
-16
0
VERTEX
8
OBJECT008
10
0
20
0
30
0
70
128
71
-10
72
16
73
9
0
VERTEX
8
OBJECT008
10
0
20
0
30
0
70
128
71
1
72
10
73
-9
0
VERTEX
8
OBJECT008
10
0
20
0
30
0
70
128
71
-1
72
9
73
2
0
VERTEX
8
OBJECT008
10
0
20
0
30
0
70
128
71
8
72
11
73
-10
0
VERTEX
8
OBJECT008
10
0
20
0
30
0
70
128
71
-8
72
10
73
1
0
VERTEX
8
OBJECT008
10
0
20
0
30
0
70
128
71
7
72
12
73
-11
0
VERTEX
8
OBJECT008
10
0
20
0
30
0
70
128
71
-7
72
11
73
8
0
VERTEX
8
OBJECT008
10
0
20
0
30
0
70
128
71
6
72
13
73
-12
0
VERTEX
8
OBJECT008
10
0
20
0
30
0
70
128
71
-6
72
12
73
7
0
VERTEX
8
OBJECT008
10
0
20
0
30
0
70
128
71
5
72
14
73
-13
0
VERTEX
8
OBJECT008
10
0
20
0
30
0
70
128
71
-5
72
13
73
6
0
VERTEX
8
OBJECT008
10
0
20
0
30
0
70
128
71
4
72
15
73
-14
0
VERTEX
8
OBJECT008
10
0
20
0
30
0
70
128
71
-4
72
14
73
5
0
VERTEX
8
OBJECT008
10
0
20
0
30
0
70
128
71
3
72
16
73
-15
0
VERTEX
8
OBJECT008
10
0
20
0
30
0
70
128
71
-3
72
15
73
4
0
VERTEX
8
OBJECT008
10
0
20
0
30
0
70
128
71
2
72
9
73
-16
0
VERTEX
8
OBJECT008
10
0
20
0
30
0
70
128
71
-2
72
16
73
3
0
SEQEND
8
OBJECT008
0
POLYLINE
8
OBJECT009
66
1
70
64
71
16
72
28
62
50
0
VERTEX
8
OBJECT009
10
-356.000000
20
-100.000000
30
192.000000
70
192
0
VERTEX
8
OBJECT009
10
-384.000000
20
-88.000000
30
192.000000
70
192
0
VERTEX
8
OBJECT009
10
-412.000000
20
-100.000000
30
192.000000
70
192
0
VERTEX
8
OBJECT009
10
-424.000000
20
-128.000000
30
192.000000
70
192
0
VERTEX
8
OBJECT009
10
-412.000000
20
-156.000000
30
192.000000
70
192
0
VERTEX
8
OBJECT009
10
-384.000000
20
-168.000000
30
192.000000
70
192
0
VERTEX
8
OBJECT009
10
-356.000000
20
-156.000000
30
192.000000
70
192
0
VERTEX
8
OBJECT009
10
-344.000000
20
-128.000000
30
192.000000
70
192
0
VERTEX
8
OBJECT009
10
-384.000000
20
-88.000000
30
216.000000
70
192
0
VERTEX
8
OBJECT009
10
-356.000000
20
-100.000000
30
216.000000
70
192
0
VERTEX
8
OBJECT009
10
-344.000000
20
-128.000000
30
216.000000
70
192
0
VERTEX
8
OBJECT009
10
-356.000000
20
-156.000000
30
216.000000
70
192
0
VERTEX
8
OBJECT009
10
-384.000000
20
-168.000000
30
216.000000
70
192
0
VERTEX
8
OBJECT009
10
-412.000000
20
-156.000000
30
216.000000
70
192
0
VERTEX
8
OBJECT009
10
-424.000000
20
-128.000000
30
216.000000
70
192
0
VERTEX
8
OBJECT009
10
-412.000000
20
-100.000000
30
216.000000
70
192
0
VERTEX
8
OBJECT009
10
0
20
0
30
0
70
128
71
2
72
3
73
-4
0
VERTEX
8
OBJECT009
10
0
20
0
30
0
70
128
71
-2
72
4
73
-5
0
VERTEX
8
OBJECT009
10
0
20
0
30
0
70
128
71
-2
72
5
73
-6
0
VERTEX
8
OBJECT009
10
0
20
0
30
0
70
128
71
-2
72
6
73
-7
0
VERTEX
8
OBJECT009
10
0
20
0
30
0
70
128
71
-2
72
7
73
-8
0
VERTEX
8
OBJECT009
10
0
20
0
30
0
70
128
71
-2
72
8
73
1
0
VERTEX
8
OBJECT009
10
0
20
0
30
0
70
128
71
10
72
11
73
-12
0
VERTEX
8
OBJECT009
10
0
20
0
30
0
70
128
71
-10
72
12
73
-13
0
VERTEX
8
OBJECT009
10
0
20
0
30
0
70
128
71
-10
72
13
73
-14
0
VERTEX
8
OBJECT009
10
0
20
0
30
0
70
128
71
-10
72
14
73
-15
0
VERTEX
8
OBJECT009
10
0
20
0
30
0
70
128
71
-10
72
15
73
-16
0
VERTEX
8
OBJECT009
10
0
20
0
30
0
70
128
71
-10
72
16
73
9
0
VERTEX
8
OBJECT009
10
0
20
0
30
0
70
128
71
1
72
10
73
-9
0
VERTEX
8
OBJECT009
10
0
20
0
30
0
70
128
71
-1
72
9
73
2
0
VERTEX
8
OBJECT009
10
0
20
0
30
0
70
128
71
8
72
11
73
-10
0
VERTEX
8
OBJECT009
10
0
20
0
30
0
70
128
71
-8
72
10
73
1
0
VERTEX
8
OBJECT009
10
0
20
0
30
0
70
128
71
7
72
12
73
-11
0
VERTEX
8
OBJECT009
10
0
20
0
30
0
70
128
71
-7
72
11
73
8
0
VERTEX
8
OBJECT009
10
0
20
0
30
0
70
128
71
6
72
13
73
-12
0
VERTEX
8
OBJECT009
10
0
20
0
30
0
70
128
71
-6
72
12
73
7
0
VERTEX
8
OBJECT009
10
0
20
0
30
0
70
128
71
5
72
14
73
-13
0
VERTEX
8
OBJECT009
10
0
20
0
30
0
70
128
71
-5
72
13
73
6
0
VERTEX
8
OBJECT009
10
0
20
0
30
0
70
128
71
4
72
15
73
-14
0
VERTEX
8
OBJECT009
10
0
20
0
30
0
70
128
71
-4
72
14
73
5
0
VERTEX
8
OBJECT009
10
0
20
0
30
0
70
128
71
3
72
16
73
-15
0
VERTEX
8
OBJECT009
10
0
20
0
30
0
70
128
71
-3
72
15
73
4
0
VERTEX
8
OBJECT009
10
0
20
0
30
0
70
128
71
2
72
9
73
-16
0
VERTEX
8
OBJECT009
10
0
20
0
30
0
70
128
71
-2
72
16
73
3
0
SEQEND
8
OBJECT009
0
POLYLINE
8
OBJECT010
66
1
70
64
71
16
72
28
62
50
0
VERTEX
8
OBJECT010
10
-356.000000
20
-100.000000
30
40.000000
70
192
0
VERTEX
8
OBJECT010
10
-384.000000
20
-88.000000
30
40.000000
70
192
0
VERTEX
8
OBJECT010
10
-412.000000
20
-100.000000
30
40.000000
70
192
0
VERTEX
8
OBJECT010
10
-424.000000
20
-128.000000
30
40.000000
70
192
0
VERTEX
8
OBJECT010
10
-412.000000
20
-156.000000
30
40.000000
70
192
0
VERTEX
8
OBJECT010
10
-384.000000
20
-168.000000
30
40.000000
70
192
0
VERTEX
8
OBJECT010
10
-356.000000
20
-156.000000
30
40.000000
70
192
0
VERTEX
8
OBJECT010
10
-344.000000
20
-128.000000
30
40.000000
70
192
0
VERTEX
8
OBJECT010
10
-384.000000
20
-88.000000
30
64.000000
70
192
0
VERTEX
8
OBJECT010
10
-356.000000
20
-100.000000
30
64.000000
70
192
0
VERTEX
8
OBJECT010
10
-344.000000
20
-128.000000
30
64.000000
70
192
0
VERTEX
8
OBJECT010
10
-356.000000
20
-156.000000
30
64.000000
70
192
0
VERTEX
8
OBJECT010
10
-384.000000
20
-168.000000
30
64.000000
70
192
0
VERTEX
8
OBJECT010
10
-412.000000
20
-156.000000
30
64.000000
70
192
0
VERTEX
8
OBJECT010
10
-424.000000
20
-128.000000
30
64.000000
70
192
0
VERTEX
8
OBJECT010
10
-412.000000
20
-100.000000
30
64.000000
70
192
0
VERTEX
8
OBJECT010
10
0
20
0
30
0
70
128
71
2
72
3
73
-4
0
VERTEX
8
OBJECT010
10
0
20
0
30
0
70
128
71
-2
72
4
73
-5
0
VERTEX
8
OBJECT010
10
0
20
0
30
0
70
128
71
-2
72
5
73
-6
0
VERTEX
8
OBJECT010
10
0
20
0
30
0
70
128
71
-2
72
6
73
-7
0
VERTEX
8
OBJECT010
10
0
20
0
30
0
70
128
71
-2
72
7
73
-8
0
VERTEX
8
OBJECT010
10
0
20
0
30
0
70
128
71
-2
72
8
73
1
0
VERTEX
8
OBJECT010
10
0
20
0
30
0
70
128
71
10
72
11
73
-12
0
VERTEX
8
OBJECT010
10
0
20
0
30
0
70
128
71
-10
72
12
73
-13
0
VERTEX
8
OBJECT010
10
0
20
0
30
0
70
128
71
-10
72
13
73
-14
0
VERTEX
8
OBJECT010
10
0
20
0
30
0
70
128
71
-10
72
14
73
-15
0
VERTEX
8
OBJECT010
10
0
20
0
30
0
70
128
71
-10
72
15
73
-16
0
VERTEX
8
OBJECT010
10
0
20
0
30
0
70
128
71
-10
72
16
73
9
0
VERTEX
8
OBJECT010
10
0
20
0
30
0
70
128
71
1
72
10
73
-9
0
VERTEX
8
OBJECT010
10
0
20
0
30
0
70
128
71
-1
72
9
73
2
0
VERTEX
8
OBJECT010
10
0
20
0
30
0
70
128
71
8
72
11
73
-10
0
VERTEX
8
OBJECT010
10
0
20
0
30
0
70
128
71
-8
72
10
73
1
0
VERTEX
8
OBJECT010
10
0
20
0
30
0
70
128
71
7
72
12
73
-11
0
VERTEX
8
OBJECT010
10
0
20
0
30
0
70
128
71
-7
72
11
73
8
0
VERTEX
8
OBJECT010
10
0
20
0
30
0
70
128
71
6
72
13
73
-12
0
VERTEX
8
OBJECT010
10
0
20
0
30
0
70
128
71
-6
72
12
73
7
0
VERTEX
8
OBJECT010
10
0
20
0
30
0
70
128
71
5
72
14
73
-13
0
VERTEX
8
OBJECT010
10
0
20
0
30
0
70
128
71
-5
72
13
73
6
0
VERTEX
8
OBJECT010
10
0
20
0
30
0
70
128
71
4
72
15
73
-14
0
VERTEX
8
OBJECT010
10
0
20
0
30
0
70
128
71
-4
72
14
73
5
0
VERTEX
8
OBJECT010
10
0
20
0
30
0
70
128
71
3
72
16
73
-15
0
VERTEX
8
OBJECT010
10
0
20
0
30
0
70
128
71
-3
72
15
73
4
0
VERTEX
8
OBJECT010
10
0
20
0
30
0
70
128
71
2
72
9
73
-16
0
VERTEX
8
OBJECT010
10
0
20
0
30
0
70
128
71
-2
72
16
73
3
0
SEQEND
8
OBJECT010
0
POLYLINE
8
OBJECT011
66
1
70
64
71
16
72
28
62
50
0
VERTEX
8
OBJECT011
10
463.000000
20
-305.000000
30
-32.000000
70
192
0
VERTEX
8
OBJECT011
10
384.000000
20
-272.000000
30
-32.000000
70
192
0
VERTEX
8
OBJECT011
10
305.000000
20
-305.000000
30
-32.000000
70
192
0
VERTEX
8
OBJECT011
10
272.000000
20
-384.000000
30
-32.000000
70
192
0
VERTEX
8
OBJECT011
10
305.000000
20
-463.000000
30
-32.000000
70
192
0
VERTEX
8
OBJECT011
10
384.000000
20
-496.000000
30
-32.000000
70
192
0
VERTEX
8
OBJECT011
10
463.000000
20
-463.000000
30
-32.000000
70
192
0
VERTEX
8
OBJECT011
10
496.000000
20
-384.000000
30
-32.000000
70
192
0
VERTEX
8
OBJECT011
10
384.000000
20
-272.000000
30
0.000000
70
192
0
VERTEX
8
OBJECT011
10
463.000000
20
-305.000000
30
0.000000
70
192
0
VERTEX
8
OBJECT011
10
496.000000
20
-384.000000
30
0.000000
70
192
0
VERTEX
8
OBJECT011
10
463.000000
20
-463.000000
30
0.000000
70
192
0
VERTEX
8
OBJECT011
10
384.000000
20
-496.000000
30
0.000000
70
192
0
VERTEX
8
OBJECT011
10
305.000000
20
-463.000000
30
0.000000
70
192
0
VERTEX
8
OBJECT011
10
272.000000
20
-384.000000
30
0.000000
70
192
0
VERTEX
8
OBJECT011
10
305.000000
20
-305.000000
30
0.000000
70
192
0
VERTEX
8
OBJECT011
10
0
20
0
30
0
70
128
71
2
72
3
73
-4
0
VERTEX
8
OBJECT011
10
0
20
0
30
0
70
128
71
-2
72
4
73
-5
0
VERTEX
8
OBJECT011
10
0
20
0
30
0
70
128
71
-2
72
5
73
-6
0
VERTEX
8
OBJECT011
10
0
20
0
30
0
70
128
71
-2
72
6
73
-7
0
VERTEX
8
OBJECT011
10
0
20
0
30
0
70
128
71
-2
72
7
73
-8
0
VERTEX
8
OBJECT011
10
0
20
0
30
0
70
128
71
-2
72
8
73
1
0
VERTEX
8
OBJECT011
10
0
20
0
30
0
70
128
71
10
72
11
73
-12
0
VERTEX
8
OBJECT011
10
0
20
0
30
0
70
128
71
-10
72
12
73
-13
0
VERTEX
8
OBJECT011
10
0
20
0
30
0
70
128
71
-10
72
13
73
-14
0
VERTEX
8
OBJECT011
10
0
20
0
30
0
70
128
71
-10
72
14
73
-15
0
VERTEX
8
OBJECT011
10
0
20
0
30
0
70
128
71
-10
72
15
73
-16
0
VERTEX
8
OBJECT011
10
0
20
0
30
0
70
128
71
-10
72
16
73
9
0
VERTEX
8
OBJECT011
10
0
20
0
30
0
70
128
71
1
72
10
73
-9
0
VERTEX
8
OBJECT011
10
0
20
0
30
0
70
128
71
-1
72
9
73
2
0
VERTEX
8
OBJECT011
10
0
20
0
30
0
70
128
71
8
72
11
73
-10
0
VERTEX
8
OBJECT011
10
0
20
0
30
0
70
128
71
-8
72
10
73
1
0
VERTEX
8
OBJECT011
10
0
20
0
30
0
70
128
71
7
72
12
73
-11
0
VERTEX
8
OBJECT011
10
0
20
0
30
0
70
128
71
-7
72
11
73
8
0
VERTEX
8
OBJECT011
10
0
20
0
30
0
70
128
71
6
72
13
73
-12
0
VERTEX
8
OBJECT011
10
0
20
0
30
0
70
128
71
-6
72
12
73
7
0
VERTEX
8
OBJECT011
10
0
20
0
30
0
70
128
71
5
72
14
73
-13
0
VERTEX
8
OBJECT011
10
0
20
0
30
0
70
128
71
-5
72
13
73
6
0
VERTEX
8
OBJECT011
10
0
20
0
30
0
70
128
71
4
72
15
73
-14
0
VERTEX
8
OBJECT011
10
0
20
0
30
0
70
128
71
-4
72
14
73
5
0
VERTEX
8
OBJECT011
10
0
20
0
30
0
70
128
71
3
72
16
73
-15
0
VERTEX
8
OBJECT011
10
0
20
0
30
0
70
128
71
-3
72
15
73
4
0
VERTEX
8
OBJECT011
10
0
20
0
30
0
70
128
71
2
72
9
73
-16
0
VERTEX
8
OBJECT011
10
0
20
0
30
0
70
128
71
-2
72
16
73
3
0
SEQEND
8
OBJECT011
0
POLYLINE
8
OBJECT012
66
1
70
64
71
16
72
28
62
50
0
VERTEX
8
OBJECT012
10
463.000000
20
-305.000000
30
256.000000
70
192
0
VERTEX
8
OBJECT012
10
384.000000
20
-272.000000
30
256.000000
70
192
0
VERTEX
8
OBJECT012
10
305.000000
20
-305.000000
30
256.000000
70
192
0
VERTEX
8
OBJECT012
10
272.000000
20
-384.000000
30
256.000000
70
192
0
VERTEX
8
OBJECT012
10
305.000000
20
-463.000000
30
256.000000
70
192
0
VERTEX
8
OBJECT012
10
384.000000
20
-496.000000
30
256.000000
70
192
0
VERTEX
8
OBJECT012
10
463.000000
20
-463.000000
30
256.000000
70
192
0
VERTEX
8
OBJECT012
10
496.000000
20
-384.000000
30
256.000000
70
192
0
VERTEX
8
OBJECT012
10
384.000000
20
-272.000000
30
288.000000
70
192
0
VERTEX
8
OBJECT012
10
463.000000
20
-305.000000
30
288.000000
70
192
0
VERTEX
8
OBJECT012
10
496.000000
20
-384.000000
30
288.000000
70
192
0
VERTEX
8
OBJECT012
10
463.000000
20
-463.000000
30
288.000000
70
192
0
VERTEX
8
OBJECT012
10
384.000000
20
-496.000000
30
288.000000
70
192
0
VERTEX
8
OBJECT012
10
305.000000
20
-463.000000
30
288.000000
70
192
0
VERTEX
8
OBJECT012
10
272.000000
20
-384.000000
30
288.000000
70
192
0
VERTEX
8
OBJECT012
10
305.000000
20
-305.000000
30
288.000000
70
192
0
VERTEX
8
OBJECT012
10
0
20
0
30
0
70
128
71
2
72
3
73
-4
0
VERTEX
8
OBJECT012
10
0
20
0
30
0
70
128
71
-2
72
4
73
-5
0
VERTEX
8
OBJECT012
10
0
20
0
30
0
70
128
71
-2
72
5
73
-6
0
VERTEX
8
OBJECT012
10
0
20
0
30
0
70
128
71
-2
72
6
73
-7
0
VERTEX
8
OBJECT012
10
0
20
0
30
0
70
128
71
-2
72
7
73
-8
0
VERTEX
8
OBJECT012
10
0
20
0
30
0
70
128
71
-2
72
8
73
1
0
VERTEX
8
OBJECT012
10
0
20
0
30
0
70
128
71
10
72
11
73
-12
0
VERTEX
8
OBJECT012
10
0
20
0
30
0
70
128
71
-10
72
12
73
-13
0
VERTEX
8
OBJECT012
10
0
20
0
30
0
70
128
71
-10
72
13
73
-14
0
VERTEX
8
OBJECT012
10
0
20
0
30
0
70
128
71
-10
72
14
73
-15
0
VERTEX
8
OBJECT012
10
0
20
0
30
0
70
128
71
-10
72
15
73
-16
0
VERTEX
8
OBJECT012
10
0
20
0
30
0
70
128
71
-10
72
16
73
9
0
VERTEX
8
OBJECT012
10
0
20
0
30
0
70
128
71
1
72
10
73
-9
0
VERTEX
8
OBJECT012
10
0
20
0
30
0
70
128
71
-1
72
9
73
2
0
VERTEX
8
OBJECT012
10
0
20
0
30
0
70
128
71
8
72
11
73
-10
0
VERTEX
8
OBJECT012
10
0
20
0
30
0
70
128
71
-8
72
10
73
1
0
VERTEX
8
OBJECT012
10
0
20
0
30
0
70
128
71
7
72
12
73
-11
0
VERTEX
8
OBJECT012
10
0
20
0
30
0
70
128
71
-7
72
11
73
8
0
VERTEX
8
OBJECT012
10
0
20
0
30
0
70
128
71
6
72
13
73
-12
0
VERTEX
8
OBJECT012
10
0
20
0
30
0
70
128
71
-6
72
12
73
7
0
VERTEX
8
OBJECT012
10
0
20
0
30
0
70
128
71
5
72
14
73
-13
0
VERTEX
8
OBJECT012
10
0
20
0
30
0
70
128
71
-5
72
13
73
6
0
VERTEX
8
OBJECT012
10
0
20
0
30
0
70
128
71
4
72
15
73
-14
0
VERTEX
8
OBJECT012
10
0
20
0
30
0
70
128
71
-4
72
14
73
5
0
VERTEX
8
OBJECT012
10
0
20
0
30
0
70
128
71
3
72
16
73
-15
0
VERTEX
8
OBJECT012
10
0
20
0
30
0
70
128
71
-3
72
15
73
4
0
VERTEX
8
OBJECT012
10
0
20
0
30
0
70
128
71
2
72
9
73
-16
0
VERTEX
8
OBJECT012
10
0
20
0
30
0
70
128
71
-2
72
16
73
3
0
SEQEND
8
OBJECT012
0
POLYLINE
8
OBJECT013
66
1
70
64
71
8
72
12
62
50
0
VERTEX
8
OBJECT013
10
0.000000
20
-768.000000
30
320.000000
70
192
0
VERTEX
8
OBJECT013
10
0.000000
20
0.000000
30
320.000000
70
192
0
VERTEX
8
OBJECT013
10
768.000000
20
0.000000
30
320.000000
70
192
0
VERTEX
8
OBJECT013
10
768.000000
20
-768.000000
30
320.000000
70
192
0
VERTEX
8
OBJECT013
10
0.000000
20
0.000000
30
288.000000
70
192
0
VERTEX
8
OBJECT013
10
0.000000
20
-768.000000
30
288.000000
70
192
0
VERTEX
8
OBJECT013
10
768.000000
20
-768.000000
30
288.000000
70
192
0
VERTEX
8
OBJECT013
10
768.000000
20
0.000000
30
288.000000
70
192
0
VERTEX
8
OBJECT013
10
0
20
0
30
0
70
128
71
2
72
3
73
-4
0
VERTEX
8
OBJECT013
10
0
20
0
30
0
70
128
71
-2
72
4
73
1
0
VERTEX
8
OBJECT013
10
0
20
0
30
0
70
128
71
6
72
7
73
-8
0
VERTEX
8
OBJECT013
10
0
20
0
30
0
70
128
71
-6
72
8
73
5
0
VERTEX
8
OBJECT013
10
0
20
0
30
0
70
128
71
5
72
2
73
-1
0
VERTEX
8
OBJECT013
10
0
20
0
30
0
70
128
71
-5
72
1
73
6
0
VERTEX
8
OBJECT013
10
0
20
0
30
0
70
128
71
7
72
4
73
-3
0
VERTEX
8
OBJECT013
10
0
20
0
30
0
70
128
71
-7
72
3
73
8
0
VERTEX
8
OBJECT013
10
0
20
0
30
0
70
128
71
8
72
3
73
-2
0
VERTEX
8
OBJECT013
10
0
20
0
30
0
70
128
71
-8
72
2
73
5
0
VERTEX
8
OBJECT013
10
0
20
0
30
0
70
128
71
6
72
1
73
-4
0
VERTEX
8
OBJECT013
10
0
20
0
30
0
70
128
71
-6
72
4
73
7
0
SEQEND
8
OBJECT013
0
POLYLINE
8
OBJECT014
66
1
70
64
71
8
72
12
62
50
0
VERTEX
8
OBJECT014
10
0.000000
20
-768.000000
30
-32.000000
70
192
0
VERTEX
8
OBJECT014
10
0.000000
20
0.000000
30
-32.000000
70
192
0
VERTEX
8
OBJECT014
10
768.000000
20
0.000000
30
-32.000000
70
192
0
VERTEX
8
OBJECT014
10
768.000000
20
-768.000000
30
-32.000000
70
192
0
VERTEX
8
OBJECT014
10
0.000000
20
0.000000
30
-64.000000
70
192
0
VERTEX
8
OBJECT014
10
0.000000
20
-768.000000
30
-64.000000
70
192
0
VERTEX
8
OBJECT014
10
768.000000
20
-768.000000
30
-64.000000
70
192
0
VERTEX
8
OBJECT014
10
768.000000
20
0.000000
30
-64.000000
70
192
0
VERTEX
8
OBJECT014
10
0
20
0
30
0
70
128
71
2
72
3
73
-4
0
VERTEX
8
OBJECT014
10
0
20
0
30
0
70
128
71
-2
72
4
73
1
0
VERTEX
8
OBJECT014
10
0
20
0
30
0
70
128
71
6
72
7
73
-8
0
VERTEX
8
OBJECT014
10
0
20
0
30
0
70
128
71
-6
72
8
73
5
0
VERTEX
8
OBJECT014
10
0
20
0
30
0
70
128
71
5
72
2
73
-1
0
VERTEX
8
OBJECT014
10
0
20
0
30
0
70
128
71
-5
72
1
73
6
0
VERTEX
8
OBJECT014
10
0
20
0
30
0
70
128
71
7
72
4
73
-3
0
VERTEX
8
OBJECT014
10
0
20
0
30
0
70
128
71
-7
72
3
73
8
0
VERTEX
8
OBJECT014
10
0
20
0
30
0
70
128
71
8
72
3
73
-2
0
VERTEX
8
OBJECT014
10
0
20
0
30
0
70
128
71
-8
72
2
73
5
0
VERTEX
8
OBJECT014
10
0
20
0
30
0
70
128
71
6
72
1
73
-4
0
VERTEX
8
OBJECT014
10
0
20
0
30
0
70
128
71
-6
72
4
73
7
0
SEQEND
8
OBJECT014
0
POLYLINE
8
OBJECT015
66
1
70
64
71
8
72
12
62
50
0
VERTEX
8
OBJECT015
10
768.000000
20
-768.000000
30
320.000000
70
192
0
VERTEX
8
OBJECT015
10
768.000000
20
0.000000
30
320.000000
70
192
0
VERTEX
8
OBJECT015
10
800.000000
20
0.000000
30
320.000000
70
192
0
VERTEX
8
OBJECT015
10
800.000000
20
-768.000000
30
320.000000
70
192
0
VERTEX
8
OBJECT015
10
768.000000
20
0.000000
30
-64.000000
70
192
0
VERTEX
8
OBJECT015
10
768.000000
20
-768.000000
30
-64.000000
70
192
0
VERTEX
8
OBJECT015
10
800.000000
20
-768.000000
30
-64.000000
70
192
0
VERTEX
8
OBJECT015
10
800.000000
20
0.000000
30
-64.000000
70
192
0
VERTEX
8
OBJECT015
10
0
20
0
30
0
70
128
71
2
72
3
73
-4
0
VERTEX
8
OBJECT015
10
0
20
0
30
0
70
128
71
-2
72
4
73
1
0
VERTEX
8
OBJECT015
10
0
20
0
30
0
70
128
71
6
72
7
73
-8
0
VERTEX
8
OBJECT015
10
0
20
0
30
0
70
128
71
-6
72
8
73
5
0
VERTEX
8
OBJECT015
10
0
20
0
30
0
70
128
71
5
72
2
73
-1
0
VERTEX
8
OBJECT015
10
0
20
0
30
0
70
128
71
-5
72
1
73
6
0
VERTEX
8
OBJECT015
10
0
20
0
30
0
70
128
71
7
72
4
73
-3
0
VERTEX
8
OBJECT015
10
0
20
0
30
0
70
128
71
-7
72
3
73
8
0
VERTEX
8
OBJECT015
10
0
20
0
30
0
70
128
71
8
72
3
73
-2
0
VERTEX
8
OBJECT015
10
0
20
0
30
0
70
128
71
-8
72
2
73
5
0
VERTEX
8
OBJECT015
10
0
20
0
30
0
70
128
71
6
72
1
73
-4
0
VERTEX
8
OBJECT015
10
0
20
0
30
0
70
128
71
-6
72
4
73
7
0
SEQEND
8
OBJECT015
0
POLYLINE
8
OBJECT016
66
1
70
64
71
8
72
12
62
50
0
VERTEX
8
OBJECT016
10
-32.000000
20
-768.000000
30
320.000000
70
192
0
VERTEX
8
OBJECT016
10
-32.000000
20
0.000000
30
320.000000
70
192
0
VERTEX
8
OBJECT016
10
0.000000
20
0.000000
30
320.000000
70
192
0
VERTEX
8
OBJECT016
10
0.000000
20
-768.000000
30
320.000000
70
192
0
VERTEX
8
OBJECT016
10
-32.000000
20
0.000000
30
-64.000000
70
192
0
VERTEX
8
OBJECT016
10
-32.000000
20
-768.000000
30
-64.000000
70
192
0
VERTEX
8
OBJECT016
10
0.000000
20
-768.000000
30
-64.000000
70
192
0
VERTEX
8
OBJECT016
10
0.000000
20
0.000000
30
-64.000000
70
192
0
VERTEX
8
OBJECT016
10
0
20
0
30
0
70
128
71
2
72
3
73
-4
0
VERTEX
8
OBJECT016
10
0
20
0
30
0
70
128
71
-2
72
4
73
1
0
VERTEX
8
OBJECT016
10
0
20
0
30
0
70
128
71
6
72
7
73
-8
0
VERTEX
8
OBJECT016
10
0
20
0
30
0
70
128
71
-6
72
8
73
5
0
VERTEX
8
OBJECT016
10
0
20
0
30
0
70
128
71
5
72
2
73
-1
0
VERTEX
8
OBJECT016
10
0
20
0
30
0
70
128
71
-5
72
1
73
6
0
VERTEX
8
OBJECT016
10
0
20
0
30
0
70
128
71
7
72
4
73
-3
0
VERTEX
8
OBJECT016
10
0
20
0
30
0
70
128
71
-7
72
3
73
8
0
VERTEX
8
OBJECT016
10
0
20
0
30
0
70
128
71
8
72
3
73
-2
0
VERTEX
8
OBJECT016
10
0
20
0
30
0
70
128
71
-8
72
2
73
5
0
VERTEX
8
OBJECT016
10
0
20
0
30
0
70
128
71
6
72
1
73
-4
0
VERTEX
8
OBJECT016
10
0
20
0
30
0
70
128
71
-6
72
4
73
7
0
SEQEND
8
OBJECT016
0
POLYLINE
8
OBJECT017
66
1
70
64
71
8
72
12
62
50
0
VERTEX
8
OBJECT017
10
-32.000000
20
-800.000000
30
320.000000
70
192
0
VERTEX
8
OBJECT017
10
-32.000000
20
-768.000000
30
320.000000
70
192
0
VERTEX
8
OBJECT017
10
800.000000
20
-768.000000
30
320.000000
70
192
0
VERTEX
8
OBJECT017
10
800.000000
20
-800.000000
30
320.000000
70
192
0
VERTEX
8
OBJECT017
10
-32.000000
20
-768.000000
30
-64.000000
70
192
0
VERTEX
8
OBJECT017
10
-32.000000
20
-800.000000
30
-64.000000
70
192
0
VERTEX
8
OBJECT017
10
800.000000
20
-800.000000
30
-64.000000
70
192
0
VERTEX
8
OBJECT017
10
800.000000
20
-768.000000
30
-64.000000
70
192
0
VERTEX
8
OBJECT017
10
0
20
0
30
0
70
128
71
2
72
3
73
-4
0
VERTEX
8
OBJECT017
10
0
20
0
30
0
70
128
71
-2
72
4
73
1
0
VERTEX
8
OBJECT017
10
0
20
0
30
0
70
128
71
6
72
7
73
-8
0
VERTEX
8
OBJECT017
10
0
20
0
30
0
70
128
71
-6
72
8
73
5
0
VERTEX
8
OBJECT017
10
0
20
0
30
0
70
128
71
5
72
2
73
-1
0
VERTEX
8
OBJECT017
10
0
20
0
30
0
70
128
71
-5
72
1
73
6
0
VERTEX
8
OBJECT017
10
0
20
0
30
0
70
128
71
7
72
4
73
-3
0
VERTEX
8
OBJECT017
10
0
20
0
30
0
70
128
71
-7
72
3
73
8
0
VERTEX
8
OBJECT017
10
0
20
0
30
0
70
128
71
8
72
3
73
-2
0
VERTEX
8
OBJECT017
10
0
20
0
30
0
70
128
71
-8
72
2
73
5
0
VERTEX
8
OBJECT017
10
0
20
0
30
0
70
128
71
6
72
1
73
-4
0
VERTEX
8
OBJECT017
10
0
20
0
30
0
70
128
71
-6
72
4
73
7
0
SEQEND
8
OBJECT017
0
POLYLINE
8
OBJECT018
66
1
70
64
71
8
72
12
62
50
0
VERTEX
8
OBJECT018
10
-32.000000
20
0.000000
30
320.000000
70
192
0
VERTEX
8
OBJECT018
10
-32.000000
20
32.000000
30
320.000000
70
192
0
VERTEX
8
OBJECT018
10
800.000000
20
32.000000
30
320.000000
70
192
0
VERTEX
8
OBJECT018
10
800.000000
20
0.000000
30
320.000000
70
192
0
VERTEX
8
OBJECT018
10
-32.000000
20
32.000000
30
-64.000000
70
192
0
VERTEX
8
OBJECT018
10
-32.000000
20
0.000000
30
-64.000000
70
192
0
VERTEX
8
OBJECT018
10
800.000000
20
0.000000
30
-64.000000
70
192
0
VERTEX
8
OBJECT018
10
800.000000
20
32.000000
30
-64.000000
70
192
0
VERTEX
8
OBJECT018
10
0
20
0
30
0
70
128
71
2
72
3
73
-4
0
VERTEX
8
OBJECT018
10
0
20
0
30
0
70
128
71
-2
72
4
73
1
0
VERTEX
8
OBJECT018
10
0
20
0
30
0
70
128
71
6
72
7
73
-8
0
VERTEX
8
OBJECT018
10
0
20
0
30
0
70
128
71
-6
72
8
73
5
0
VERTEX
8
OBJECT018
10
0
20
0
30
0
70
128
71
5
72
2
73
-1
0
VERTEX
8
OBJECT018
10
0
20
0
30
0
70
128
71
-5
72
1
73
6
0
VERTEX
8
OBJECT018
10
0
20
0
30
0
70
128
71
7
72
4
73
-3
0
VERTEX
8
OBJECT018
10
0
20
0
30
0
70
128
71
-7
72
3
73
8
0
VERTEX
8
OBJECT018
10
0
20
0
30
0
70
128
71
8
72
3
73
-2
0
VERTEX
8
OBJECT018
10
0
20
0
30
0
70
128
71
-8
72
2
73
5
0
VERTEX
8
OBJECT018
10
0
20
0
30
0
70
128
71
6
72
1
73
-4
0
VERTEX
8
OBJECT018
10
0
20
0
30
0
70
128
71
-6
72
4
73
7
0
SEQEND
8
OBJECT018
0
POLYLINE
8
OBJECT019
66
1
70
64
71
8
72
12
62
50
0
VERTEX
8
OBJECT019
10
-512.000000
20
-128.000000
30
256.000000
70
192
0
VERTEX
8
OBJECT019
10
-476.000000
20
-36.000000
30
256.000000
70
192
0
VERTEX
8
OBJECT019
10
-384.000000
20
0.000000
30
256.000000
70
192
0
VERTEX
8
OBJECT019
10
-384.000000
20
-128.000000
30
256.000000
70
192
0
VERTEX
8
OBJECT019
10
-476.000000
20
-36.000000
30
224.000000
70
192
0
VERTEX
8
OBJECT019
10
-512.000000
20
-128.000000
30
224.000000
70
192
0
VERTEX
8
OBJECT019
10
-384.000000
20
-128.000000
30
224.000000
70
192
0
VERTEX
8
OBJECT019
10
-384.000000
20
0.000000
30
224.000000
70
192
0
VERTEX
8
OBJECT019
10
0
20
0
30
0
70
128
71
2
72
3
73
-4
0
VERTEX
8
OBJECT019
10
0
20
0
30
0
70
128
71
-2
72
4
73
1
0
VERTEX
8
OBJECT019
10
0
20
0
30
0
70
128
71
6
72
7
73
-8
0
VERTEX
8
OBJECT019
10
0
20
0
30
0
70
128
71
-6
72
8
73
5
0
VERTEX
8
OBJECT019
10
0
20
0
30
0
70
128
71
5
72
2
73
-1
0
VERTEX
8
OBJECT019
10
0
20
0
30
0
70
128
71
-5
72
1
73
6
0
VERTEX
8
OBJECT019
10
0
20
0
30
0
70
128
71
7
72
4
73
-3
0
VERTEX
8
OBJECT019
10
0
20
0
30
0
70
128
71
-7
72
3
73
8
0
VERTEX
8
OBJECT019
10
0
20
0
30
0
70
128
71
8
72
3
73
-2
0
VERTEX
8
OBJECT019
10
0
20
0
30
0
70
128
71
-8
72
2
73
5
0
VERTEX
8
OBJECT019
10
0
20
0
30
0
70
128
71
6
72
1
73
-4
0
VERTEX
8
OBJECT019
10
0
20
0
30
0
70
128
71
-6
72
4
73
7
0
SEQEND
8
OBJECT019
0
POLYLINE
8
OBJECT020
66
1
70
64
71
8
72
12
62
50
0
VERTEX
8
OBJECT020
10
-476.000000
20
-220.000000
30
256.000000
70
192
0
VERTEX
8
OBJECT020
10
-512.000000
20
-128.000000
30
256.000000
70
192
0
VERTEX
8
OBJECT020
10
-384.000000
20
-128.000000
30
256.000000
70
192
0
VERTEX
8
OBJECT020
10
-384.000000
20
-256.000000
30
256.000000
70
192
0
VERTEX
8
OBJECT020
10
-512.000000
20
-128.000000
30
224.000000
70
192
0
VERTEX
8
OBJECT020
10
-476.000000
20
-220.000000
30
224.000000
70
192
0
VERTEX
8
OBJECT020
10
-384.000000
20
-256.000000
30
224.000000
70
192
0
VERTEX
8
OBJECT020
10
-384.000000
20
-128.000000
30
224.000000
70
192
0
VERTEX
8
OBJECT020
10
0
20
0
30
0
70
128
71
2
72
3
73
-4
0
VERTEX
8
OBJECT020
10
0
20
0
30
0
70
128
71
-2
72
4
73
1
0
VERTEX
8
OBJECT020
10
0
20
0
30
0
70
128
71
6
72
7
73
-8
0
VERTEX
8
OBJECT020
10
0
20
0
30
0
70
128
71
-6
72
8
73
5
0
VERTEX
8
OBJECT020
10
0
20
0
30
0
70
128
71
5
72
2
73
-1
0
VERTEX
8
OBJECT020
10
0
20
0
30
0
70
128
71
-5
72
1
73
6
0
VERTEX
8
OBJECT020
10
0
20
0
30
0
70
128
71
7
72
4
73
-3
0
VERTEX
8
OBJECT020
10
0
20
0
30
0
70
128
71
-7
72
3
73
8
0
VERTEX
8
OBJECT020
10
0
20
0
30
0
70
128
71
6
72
1
73
-4
0
VERTEX
8
OBJECT020
10
0
20
0
30
0
70
128
71
-6
72
4
73
7
0
VERTEX
8
OBJECT020
10
0
20
0
30
0
70
128
71
8
72
3
73
-2
0
VERTEX
8
OBJECT020
10
0
20
0
30
0
70
128
71
-8
72
2
73
5
0
SEQEND
8
OBJECT020
0
POLYLINE
8
OBJECT021
66
1
70
64
71
8
72
12
62
50
0
VERTEX
8
OBJECT021
10
-256.000000
20
-128.000000
30
256.000000
70
192
0
VERTEX
8
OBJECT021
10
-292.000000
20
-220.000000
30
256.000000
70
192
0
VERTEX
8
OBJECT021
10
-384.000000
20
-256.000000
30
256.000000
70
192
0
VERTEX
8
OBJECT021
10
-384.000000
20
-128.000000
30
256.000000
70
192
0
VERTEX
8
OBJECT021
10
-384.000000
20
-128.000000
30
224.000000
70
192
0
VERTEX
8
OBJECT021
10
-384.000000
20
-256.000000
30
224.000000
70
192
0
VERTEX
8
OBJECT021
10
-292.000000
20
-220.000000
30
224.000000
70
192
0
VERTEX
8
OBJECT021
10
-256.000000
20
-128.000000
30
224.000000
70
192
0
VERTEX
8
OBJECT021
10
0
20
0
30
0
70
128
71
2
72
3
73
-4
0
VERTEX
8
OBJECT021
10
0
20
0
30
0
70
128
71
-2
72
4
73
1
0
VERTEX
8
OBJECT021
10
0
20
0
30
0
70
128
71
6
72
7
73
-8
0
VERTEX
8
OBJECT021
10
0
20
0
30
0
70
128
71
-6
72
8
73
5
0
VERTEX
8
OBJECT021
10
0
20
0
30
0
70
128
71
7
72
2
73
-1
0
VERTEX
8
OBJECT021
10
0
20
0
30
0
70
128
71
-7
72
1
73
8
0
VERTEX
8
OBJECT021
10
0
20
0
30
0
70
128
71
5
72
4
73
-3
0
VERTEX
8
OBJECT021
10
0
20
0
30
0
70
128
71
-5
72
3
73
6
0
VERTEX
8
OBJECT021
10
0
20
0
30
0
70
128
71
6
72
3
73
-2
0
VERTEX
8
OBJECT021
10
0
20
0
30
0
70
128
71
-6
72
2
73
7
0
VERTEX
8
OBJECT021
10
0
20
0
30
0
70
128
71
8
72
1
73
-4
0
VERTEX
8
OBJECT021
10
0
20
0
30
0
70
128
71
-8
72
4
73
5
0
SEQEND
8
OBJECT021
0
POLYLINE
8
OBJECT022
66
1
70
64
71
8
72
12
62
50
0
VERTEX
8
OBJECT022
10
-384.000000
20
-128.000000
30
256.000000
70
192
0
VERTEX
8
OBJECT022
10
-384.000000
20
0.000000
30
256.000000
70
192
0
VERTEX
8
OBJECT022
10
-292.000000
20
-36.000000
30
256.000000
70
192
0
VERTEX
8
OBJECT022
10
-256.000000
20
-128.000000
30
256.000000
70
192
0
VERTEX
8
OBJECT022
10
-256.000000
20
-128.000000
30
224.000000
70
192
0
VERTEX
8
OBJECT022
10
-292.000000
20
-36.000000
30
224.000000
70
192
0
VERTEX
8
OBJECT022
10
-384.000000
20
0.000000
30
224.000000
70
192
0
VERTEX
8
OBJECT022
10
-384.000000
20
-128.000000
30
224.000000
70
192
0
VERTEX
8
OBJECT022
10
0
20
0
30
0
70
128
71
2
72
3
73
-4
0
VERTEX
8
OBJECT022
10
0
20
0
30
0
70
128
71
-2
72
4
73
1
0
VERTEX
8
OBJECT022
10
0
20
0
30
0
70
128
71
6
72
7
73
-8
0
VERTEX
8
OBJECT022
10
0
20
0
30
0
70
128
71
-6
72
8
73
5
0
VERTEX
8
OBJECT022
10
0
20
0
30
0
70
128
71
5
72
4
73
-3
0
VERTEX
8
OBJECT022
10
0
20
0
30
0
70
128
71
-5
72
3
73
6
0
VERTEX
8
OBJECT022
10
0
20
0
30
0
70
128
71
7
72
2
73
-1
0
VERTEX
8
OBJECT022
10
0
20
0
30
0
70
128
71
-7
72
1
73
8
0
VERTEX
8
OBJECT022
10
0
20
0
30
0
70
128
71
6
72
3
73
-2
0
VERTEX
8
OBJECT022
10
0
20
0
30
0
70
128
71
-6
72
2
73
7
0
VERTEX
8
OBJECT022
10
0
20
0
30
0
70
128
71
8
72
1
73
-4
0
VERTEX
8
OBJECT022
10
0
20
0
30
0
70
128
71
-8
72
4
73
5
0
SEQEND
8
OBJECT022
0
POLYLINE
8
OBJECT023
66
1
70
64
71
8
72
12
62
50
0
VERTEX
8
OBJECT023
10
-464.000000
20
-48.000000
30
224.000000
70
192
0
VERTEX
8
OBJECT023
10
-496.000000
20
-128.000000
30
224.000000
70
192
0
VERTEX
8
OBJECT023
10
-512.000000
20
-128.000000
30
224.000000
70
192
0
VERTEX
8
OBJECT023
10
-476.000000
20
-36.000000
30
224.000000
70
192
0
VERTEX
8
OBJECT023
10
-476.000000
20
-36.000000
30
32.000000
70
192
0
VERTEX
8
OBJECT023
10
-512.000000
20
-128.000000
30
32.000000
70
192
0
VERTEX
8
OBJECT023
10
-496.000000
20
-128.000000
30
32.000000
70
192
0
VERTEX
8
OBJECT023
10
-464.000000
20
-48.000000
30
32.000000
70
192
0
VERTEX
8
OBJECT023
10
0
20
0
30
0
70
128
71
2
72
3
73
-4
0
VERTEX
8
OBJECT023
10
0
20
0
30
0
70
128
71
-2
72
4
73
1
0
VERTEX
8
OBJECT023
10
0
20
0
30
0
70
128
71
6
72
7
73
-8
0
VERTEX
8
OBJECT023
10
0
20
0
30
0
70
128
71
-6
72
8
73
5
0
VERTEX
8
OBJECT023
10
0
20
0
30
0
70
128
71
7
72
2
73
-1
0
VERTEX
8
OBJECT023
10
0
20
0
30
0
70
128
71
-7
72
1
73
8
0
VERTEX
8
OBJECT023
10
0
20
0
30
0
70
128
71
5
72
4
73
-3
0
VERTEX
8
OBJECT023
10
0
20
0
30
0
70
128
71
-5
72
3
73
6
0
VERTEX
8
OBJECT023
10
0
20
0
30
0
70
128
71
8
72
1
73
-4
0
VERTEX
8
OBJECT023
10
0
20
0
30
0
70
128
71
-8
72
4
73
5
0
VERTEX
8
OBJECT023
10
0
20
0
30
0
70
128
71
6
72
3
73
-2
0
VERTEX
8
OBJECT023
10
0
20
0
30
0
70
128
71
-6
72
2
73
7
0
SEQEND
8
OBJECT023
0
POLYLINE
8
OBJECT024
66
1
70
64
71
8
72
12
62
50
0
VERTEX
8
OBJECT024
10
-476.000000
20
-220.000000
30
224.000000
70
192
0
VERTEX
8
OBJECT024
10
-512.000000
20
-128.000000
30
224.000000
70
192
0
VERTEX
8
OBJECT024
10
-496.000000
20
-128.000000
30
224.000000
70
192
0
VERTEX
8
OBJECT024
10
-464.000000
20
-208.000000
30
224.000000
70
192
0
VERTEX
8
OBJECT024
10
-512.000000
20
-128.000000
30
32.000000
70
192
0
VERTEX
8
OBJECT024
10
-476.000000
20
-220.000000
30
32.000000
70
192
0
VERTEX
8
OBJECT024
10
-464.000000
20
-208.000000
30
32.000000
70
192
0
VERTEX
8
OBJECT024
10
-496.000000
20
-128.000000
30
32.000000
70
192
0
VERTEX
8
OBJECT024
10
0
20
0
30
0
70
128
71
2
72
3
73
-4
0
VERTEX
8
OBJECT024
10
0
20
0
30
0
70
128
71
-2
72
4
73
1
0
VERTEX
8
OBJECT024
10
0
20
0
30
0
70
128
71
6
72
7
73
-8
0
VERTEX
8
OBJECT024
10
0
20
0
30
0
70
128
71
-6
72
8
73
5
0
VERTEX
8
OBJECT024
10
0
20
0
30
0
70
128
71
5
72
2
73
-1
0
VERTEX
8
OBJECT024
10
0
20
0
30
0
70
128
71
-5
72
1
73
6
0
VERTEX
8
OBJECT024
10
0
20
0
30
0
70
128
71
7
72
4
73
-3
0
VERTEX
8
OBJECT024
10
0
20
0
30
0
70
128
71
-7
72
3
73
8
0
VERTEX
8
OBJECT024
10
0
20
0
30
0
70
128
71
8
72
3
73
-2
0
VERTEX
8
OBJECT024
10
0
20
0
30
0
70
128
71
-8
72
2
73
5
0
VERTEX
8
OBJECT024
10
0
20
0
30
0
70
128
71
6
72
1
73
-4
0
VERTEX
8
OBJECT024
10
0
20
0
30
0
70
128
71
-6
72
4
73
7
0
SEQEND
8
OBJECT024
0
POLYLINE
8
OBJECT025
66
1
70
64
71
8
72
12
62
50
0
VERTEX
8
OBJECT025
10
-384.000000
20
-256.000000
30
224.000000
70
192
0
VERTEX
8
OBJECT025
10
-476.000000
20
-220.000000
30
224.000000
70
192
0
VERTEX
8
OBJECT025
10
-464.000000
20
-208.000000
30
224.000000
70
192
0
VERTEX
8
OBJECT025
10
-384.000000
20
-240.000000
30
224.000000
70
192
0
VERTEX
8
OBJECT025
10
-476.000000
20
-220.000000
30
32.000000
70
192
0
VERTEX
8
OBJECT025
10
-384.000000
20
-256.000000
30
32.000000
70
192
0
VERTEX
8
OBJECT025
10
-384.000000
20
-240.000000
30
32.000000
70
192
0
VERTEX
8
OBJECT025
10
-464.000000
20
-208.000000
30
32.000000
70
192
0
VERTEX
8
OBJECT025
10
0
20
0
30
0
70
128
71
2
72
3
73
-4
0
VERTEX
8
OBJECT025
10
0
20
0
30
0
70
128
71
-2
72
4
73
1
0
VERTEX
8
OBJECT025
10
0
20
0
30
0
70
128
71
6
72
7
73
-8
0
VERTEX
8
OBJECT025
10
0
20
0
30
0
70
128
71
-6
72
8
73
5
0
VERTEX
8
OBJECT025
10
0
20
0
30
0
70
128
71
5
72
2
73
-1
0
VERTEX
8
OBJECT025
10
0
20
0
30
0
70
128
71
-5
72
1
73
6
0
VERTEX
8
OBJECT025
10
0
20
0
30
0
70
128
71
7
72
4
73
-3
0
VERTEX
8
OBJECT025
10
0
20
0
30
0
70
128
71
-7
72
3
73
8
0
VERTEX
8
OBJECT025
10
0
20
0
30
0
70
128
71
6
72
1
73
-4
0
VERTEX
8
OBJECT025
10
0
20
0
30
0
70
128
71
-6
72
4
73
7
0
VERTEX
8
OBJECT025
10
0
20
0
30
0
70
128
71
8
72
3
73
-2
0
VERTEX
8
OBJECT025
10
0
20
0
30
0
70
128
71
-8
72
2
73
5
0
SEQEND
8
OBJECT025
0
POLYLINE
8
OBJECT026
66
1
70
64
71
8
72
12
62
50
0
VERTEX
8
OBJECT026
10
-292.000000
20
-220.000000
30
224.000000
70
192
0
VERTEX
8
OBJECT026
10
-384.000000
20
-256.000000
30
224.000000
70
192
0
VERTEX
8
OBJECT026
10
-384.000000
20
-240.000000
30
224.000000
70
192
0
VERTEX
8
OBJECT026
10
-304.000000
20
-208.000000
30
224.000000
70
192
0
VERTEX
8
OBJECT026
10
-304.000000
20
-208.000000
30
32.000000
70
192
0
VERTEX
8
OBJECT026
10
-384.000000
20
-240.000000
30
32.000000
70
192
0
VERTEX
8
OBJECT026
10
-384.000000
20
-256.000000
30
32.000000
70
192
0
VERTEX
8
OBJECT026
10
-292.000000
20
-220.000000
30
32.000000
70
192
0
VERTEX
8
OBJECT026
10
0
20
0
30
0
70
128
71
2
72
3
73
-4
0
VERTEX
8
OBJECT026
10
0
20
0
30
0
70
128
71
-2
72
4
73
1
0
VERTEX
8
OBJECT026
10
0
20
0
30
0
70
128
71
6
72
7
73
-8
0
VERTEX
8
OBJECT026
10
0
20
0
30
0
70
128
71
-6
72
8
73
5
0
VERTEX
8
OBJECT026
10
0
20
0
30
0
70
128
71
5
72
4
73
-3
0
VERTEX
8
OBJECT026
10
0
20
0
30
0
70
128
71
-5
72
3
73
6
0
VERTEX
8
OBJECT026
10
0
20
0
30
0
70
128
71
7
72
2
73
-1
0
VERTEX
8
OBJECT026
10
0
20
0
30
0
70
128
71
-7
72
1
73
8
0
VERTEX
8
OBJECT026
10
0
20
0
30
0
70
128
71
8
72
1
73
-4
0
VERTEX
8
OBJECT026
10
0
20
0
30
0
70
128
71
-8
72
4
73
5
0
VERTEX
8
OBJECT026
10
0
20
0
30
0
70
128
71
6
72
3
73
-2
0
VERTEX
8
OBJECT026
10
0
20
0
30
0
70
128
71
-6
72
2
73
7
0
SEQEND
8
OBJECT026
0
POLYLINE
8
OBJECT027
66
1
70
64
71
8
72
12
62
50
0
VERTEX
8
OBJECT027
10
-304.000000
20
-208.000000
30
224.000000
70
192
0
VERTEX
8
OBJECT027
10
-272.000000
20
-128.000000
30
224.000000
70
192
0
VERTEX
8
OBJECT027
10
-256.000000
20
-128.000000
30
224.000000
70
192
0
VERTEX
8
OBJECT027
10
-292.000000
20
-220.000000
30
224.000000
70
192
0
VERTEX
8
OBJECT027
10
-292.000000
20
-220.000000
30
32.000000
70
192
0
VERTEX
8
OBJECT027
10
-256.000000
20
-128.000000
30
32.000000
70
192
0
VERTEX
8
OBJECT027
10
-272.000000
20
-128.000000
30
32.000000
70
192
0
VERTEX
8
OBJECT027
10
-304.000000
20
-208.000000
30
32.000000
70
192
0
VERTEX
8
OBJECT027
10
0
20
0
30
0
70
128
71
2
72
3
73
-4
0
VERTEX
8
OBJECT027
10
0
20
0
30
0
70
128
71
-2
72
4
73
1
0
VERTEX
8
OBJECT027
10
0
20
0
30
0
70
128
71
6
72
7
73
-8
0
VERTEX
8
OBJECT027
10
0
20
0
30
0
70
128
71
-6
72
8
73
5
0
VERTEX
8
OBJECT027
10
0
20
0
30
0
70
128
71
5
72
4
73
-3
0
VERTEX
8
OBJECT027
10
0
20
0
30
0
70
128
71
-5
72
3
73
6
0
VERTEX
8
OBJECT027
10
0
20
0
30
0
70
128
71
7
72
2
73
-1
0
VERTEX
8
OBJECT027
10
0
20
0
30
0
70
128
71
-7
72
1
73
8
0
VERTEX
8
OBJECT027
10
0
20
0
30
0
70
128
71
6
72
3
73
-2
0
VERTEX
8
OBJECT027
10
0
20
0
30
0
70
128
71
-6
72
2
73
7
0
VERTEX
8
OBJECT027
10
0
20
0
30
0
70
128
71
8
72
1
73
-4
0
VERTEX
8
OBJECT027
10
0
20
0
30
0
70
128
71
-8
72
4
73
5
0
SEQEND
8
OBJECT027
0
POLYLINE
8
OBJECT028
66
1
70
64
71
8
72
12
62
50
0
VERTEX
8
OBJECT028
10
-272.000000
20
-128.000000
30
224.000000
70
192
0
VERTEX
8
OBJECT028
10
-304.000000
20
-48.000000
30
224.000000
70
192
0
VERTEX
8
OBJECT028
10
-292.000000
20
-36.000000
30
224.000000
70
192
0
VERTEX
8
OBJECT028
10
-256.000000
20
-128.000000
30
224.000000
70
192
0
VERTEX
8
OBJECT028
10
-304.000000
20
-48.000000
30
32.000000
70
192
0
VERTEX
8
OBJECT028
10
-272.000000
20
-128.000000
30
32.000000
70
192
0
VERTEX
8
OBJECT028
10
-256.000000
20
-128.000000
30
32.000000
70
192
0
VERTEX
8
OBJECT028
10
-292.000000
20
-36.000000
30
32.000000
70
192
0
VERTEX
8
OBJECT028
10
0
20
0
30
0
70
128
71
2
72
3
73
-4
0
VERTEX
8
OBJECT028
10
0
20
0
30
0
70
128
71
-2
72
4
73
1
0
VERTEX
8
OBJECT028
10
0
20
0
30
0
70
128
71
6
72
7
73
-8
0
VERTEX
8
OBJECT028
10
0
20
0
30
0
70
128
71
-6
72
8
73
5
0
VERTEX
8
OBJECT028
10
0
20
0
30
0
70
128
71
5
72
2
73
-1
0
VERTEX
8
OBJECT028
10
0
20
0
30
0
70
128
71
-5
72
1
73
6
0
VERTEX
8
OBJECT028
10
0
20
0
30
0
70
128
71
7
72
4
73
-3
0
VERTEX
8
OBJECT028
10
0
20
0
30
0
70
128
71
-7
72
3
73
8
0
VERTEX
8
OBJECT028
10
0
20
0
30
0
70
128
71
8
72
3
73
-2
0
VERTEX
8
OBJECT028
10
0
20
0
30
0
70
128
71
-8
72
2
73
5
0
VERTEX
8
OBJECT028
10
0
20
0
30
0
70
128
71
6
72
1
73
-4
0
VERTEX
8
OBJECT028
10
0
20
0
30
0
70
128
71
-6
72
4
73
7
0
SEQEND
8
OBJECT028
0
POLYLINE
8
OBJECT029
66
1
70
64
71
8
72
12
62
50
0
VERTEX
8
OBJECT029
10
-304.000000
20
-48.000000
30
224.000000
70
192
0
VERTEX
8
OBJECT029
10
-384.000000
20
-16.000000
30
224.000000
70
192
0
VERTEX
8
OBJECT029
10
-384.000000
20
0.000000
30
224.000000
70
192
0
VERTEX
8
OBJECT029
10
-292.000000
20
-36.000000
30
224.000000
70
192
0
VERTEX
8
OBJECT029
10
-292.000000
20
-36.000000
30
32.000000
70
192
0
VERTEX
8
OBJECT029
10
-384.000000
20
0.000000
30
32.000000
70
192
0
VERTEX
8
OBJECT029
10
-384.000000
20
-16.000000
30
32.000000
70
192
0
VERTEX
8
OBJECT029
10
-304.000000
20
-48.000000
30
32.000000
70
192
0
VERTEX
8
OBJECT029
10
0
20
0
30
0
70
128
71
2
72
3
73
-4
0
VERTEX
8
OBJECT029
10
0
20
0
30
0
70
128
71
-2
72
4
73
1
0
VERTEX
8
OBJECT029
10
0
20
0
30
0
70
128
71
6
72
7
73
-8
0
VERTEX
8
OBJECT029
10
0
20
0
30
0
70
128
71
-6
72
8
73
5
0
VERTEX
8
OBJECT029
10
0
20
0
30
0
70
128
71
7
72
2
73
-1
0
VERTEX
8
OBJECT029
10
0
20
0
30
0
70
128
71
-7
72
1
73
8
0
VERTEX
8
OBJECT029
10
0
20
0
30
0
70
128
71
5
72
4
73
-3
0
VERTEX
8
OBJECT029
10
0
20
0
30
0
70
128
71
-5
72
3
73
6
0
VERTEX
8
OBJECT029
10
0
20
0
30
0
70
128
71
8
72
1
73
-4
0
VERTEX
8
OBJECT029
10
0
20
0
30
0
70
128
71
-8
72
4
73
5
0
VERTEX
8
OBJECT029
10
0
20
0
30
0
70
128
71
6
72
3
73
-2
0
VERTEX
8
OBJECT029
10
0
20
0
30
0
70
128
71
-6
72
2
73
7
0
SEQEND
8
OBJECT029
0
POLYLINE
8
OBJECT030
66
1
70
64
71
8
72
12
62
50
0
VERTEX
8
OBJECT030
10
-476.000000
20
-36.000000
30
224.000000
70
192
0
VERTEX
8
OBJECT030
10
-384.000000
20
0.000000
30
224.000000
70
192
0
VERTEX
8
OBJECT030
10
-384.000000
20
-16.000000
30
224.000000
70
192
0
VERTEX
8
OBJECT030
10
-464.000000
20
-48.000000
30
224.000000
70
192
0
VERTEX
8
OBJECT030
10
-384.000000
20
0.000000
30
32.000000
70
192
0
VERTEX
8
OBJECT030
10
-476.000000
20
-36.000000
30
32.000000
70
192
0
VERTEX
8
OBJECT030
10
-464.000000
20
-48.000000
30
32.000000
70
192
0
VERTEX
8
OBJECT030
10
-384.000000
20
-16.000000
30
32.000000
70
192
0
VERTEX
8
OBJECT030
10
0
20
0
30
0
70
128
71
2
72
3
73
-4
0
VERTEX
8
OBJECT030
10
0
20
0
30
0
70
128
71
-2
72
4
73
1
0
VERTEX
8
OBJECT030
10
0
20
0
30
0
70
128
71
6
72
7
73
-8
0
VERTEX
8
OBJECT030
10
0
20
0
30
0
70
128
71
-6
72
8
73
5
0
VERTEX
8
OBJECT030
10
0
20
0
30
0
70
128
71
5
72
2
73
-1
0
VERTEX
8
OBJECT030
10
0
20
0
30
0
70
128
71
-5
72
1
73
6
0
VERTEX
8
OBJECT030
10
0
20
0
30
0
70
128
71
7
72
4
73
-3
0
VERTEX
8
OBJECT030
10
0
20
0
30
0
70
128
71
-7
72
3
73
8
0
VERTEX
8
OBJECT030
10
0
20
0
30
0
70
128
71
8
72
3
73
-2
0
VERTEX
8
OBJECT030
10
0
20
0
30
0
70
128
71
-8
72
2
73
5
0
VERTEX
8
OBJECT030
10
0
20
0
30
0
70
128
71
6
72
1
73
-4
0
VERTEX
8
OBJECT030
10
0
20
0
30
0
70
128
71
-6
72
4
73
7
0
SEQEND
8
OBJECT030
0
POLYLINE
8
OBJECT031
66
1
70
64
71
8
72
12
62
50
0
VERTEX
8
OBJECT031
10
-496.000000
20
-128.000000
30
224.000000
70
192
0
VERTEX
8
OBJECT031
10
-464.000000
20
-48.000000
30
224.000000
70
192
0
VERTEX
8
OBJECT031
10
-384.000000
20
-16.000000
30
224.000000
70
192
0
VERTEX
8
OBJECT031
10
-384.000000
20
-128.000000
30
224.000000
70
192
0
VERTEX
8
OBJECT031
10
-464.000000
20
-48.000000
30
223.000000
70
192
0
VERTEX
8
OBJECT031
10
-496.000000
20
-128.000000
30
223.000000
70
192
0
VERTEX
8
OBJECT031
10
-384.000000
20
-128.000000
30
223.000000
70
192
0
VERTEX
8
OBJECT031
10
-384.000000
20
-16.000000
30
223.000000
70
192
0
VERTEX
8
OBJECT031
10
0
20
0
30
0
70
128
71
2
72
3
73
-4
0
VERTEX
8
OBJECT031
10
0
20
0
30
0
70
128
71
-2
72
4
73
1
0
VERTEX
8
OBJECT031
10
0
20
0
30
0
70
128
71
6
72
7
73
-8
0
VERTEX
8
OBJECT031
10
0
20
0
30
0
70
128
71
-6
72
8
73
5
0
VERTEX
8
OBJECT031
10
0
20
0
30
0
70
128
71
5
72
2
73
-1
0
VERTEX
8
OBJECT031
10
0
20
0
30
0
70
128
71
-5
72
1
73
6
0
VERTEX
8
OBJECT031
10
0
20
0
30
0
70
128
71
7
72
4
73
-3
0
VERTEX
8
OBJECT031
10
0
20
0
30
0
70
128
71
-7
72
3
73
8
0
VERTEX
8
OBJECT031
10
0
20
0
30
0
70
128
71
8
72
3
73
-2
0
VERTEX
8
OBJECT031
10
0
20
0
30
0
70
128
71
-8
72
2
73
5
0
VERTEX
8
OBJECT031
10
0
20
0
30
0
70
128
71
6
72
1
73
-4
0
VERTEX
8
OBJECT031
10
0
20
0
30
0
70
128
71
-6
72
4
73
7
0
SEQEND
8
OBJECT031
0
POLYLINE
8
OBJECT032
66
1
70
64
71
8
72
12
62
50
0
VERTEX
8
OBJECT032
10
-384.000000
20
-128.000000
30
224.000000
70
192
0
VERTEX
8
OBJECT032
10
-384.000000
20
-16.000000
30
224.000000
70
192
0
VERTEX
8
OBJECT032
10
-304.000000
20
-48.000000
30
224.000000
70
192
0
VERTEX
8
OBJECT032
10
-272.000000
20
-128.000000
30
224.000000
70
192
0
VERTEX
8
OBJECT032
10
-272.000000
20
-128.000000
30
223.000000
70
192
0
VERTEX
8
OBJECT032
10
-304.000000
20
-48.000000
30
223.000000
70
192
0
VERTEX
8
OBJECT032
10
-384.000000
20
-16.000000
30
223.000000
70
192
0
VERTEX
8
OBJECT032
10
-384.000000
20
-128.000000
30
223.000000
70
192
0
VERTEX
8
OBJECT032
10
0
20
0
30
0
70
128
71
2
72
3
73
-4
0
VERTEX
8
OBJECT032
10
0
20
0
30
0
70
128
71
-2
72
4
73
1
0
VERTEX
8
OBJECT032
10
0
20
0
30
0
70
128
71
6
72
7
73
-8
0
VERTEX
8
OBJECT032
10
0
20
0
30
0
70
128
71
-6
72
8
73
5
0
VERTEX
8
OBJECT032
10
0
20
0
30
0
70
128
71
5
72
4
73
-3
0
VERTEX
8
OBJECT032
10
0
20
0
30
0
70
128
71
-5
72
3
73
6
0
VERTEX
8
OBJECT032
10
0
20
0
30
0
70
128
71
7
72
2
73
-1
0
VERTEX
8
OBJECT032
10
0
20
0
30
0
70
128
71
-7
72
1
73
8
0
VERTEX
8
OBJECT032
10
0
20
0
30
0
70
128
71
6
72
3
73
-2
0
VERTEX
8
OBJECT032
10
0
20
0
30
0
70
128
71
-6
72
2
73
7
0
VERTEX
8
OBJECT032
10
0
20
0
30
0
70
128
71
8
72
1
73
-4
0
VERTEX
8
OBJECT032
10
0
20
0
30
0
70
128
71
-8
72
4
73
5
0
SEQEND
8
OBJECT032
0
POLYLINE
8
OBJECT033
66
1
70
64
71
8
72
12
62
50
0
VERTEX
8
OBJECT033
10
-272.000000
20
-128.000000
30
224.000000
70
192
0
VERTEX
8
OBJECT033
10
-304.000000
20
-208.000000
30
224.000000
70
192
0
VERTEX
8
OBJECT033
10
-384.000000
20
-240.000000
30
224.000000
70
192
0
VERTEX
8
OBJECT033
10
-384.000000
20
-128.000000
30
224.000000
70
192
0
VERTEX
8
OBJECT033
10
-384.000000
20
-128.000000
30
223.000000
70
192
0
VERTEX
8
OBJECT033
10
-384.000000
20
-240.000000
30
223.000000
70
192
0
VERTEX
8
OBJECT033
10
-304.000000
20
-208.000000
30
223.000000
70
192
0
VERTEX
8
OBJECT033
10
-272.000000
20
-128.000000
30
223.000000
70
192
0
VERTEX
8
OBJECT033
10
0
20
0
30
0
70
128
71
2
72
3
73
-4
0
VERTEX
8
OBJECT033
10
0
20
0
30
0
70
128
71
-2
72
4
73
1
0
VERTEX
8
OBJECT033
10
0
20
0
30
0
70
128
71
6
72
7
73
-8
0
VERTEX
8
OBJECT033
10
0
20
0
30
0
70
128
71
-6
72
8
73
5
0
VERTEX
8
OBJECT033
10
0
20
0
30
0
70
128
71
7
72
2
73
-1
0
VERTEX
8
OBJECT033
10
0
20
0
30
0
70
128
71
-7
72
1
73
8
0
VERTEX
8
OBJECT033
10
0
20
0
30
0
70
128
71
5
72
4
73
-3
0
VERTEX
8
OBJECT033
10
0
20
0
30
0
70
128
71
-5
72
3
73
6
0
VERTEX
8
OBJECT033
10
0
20
0
30
0
70
128
71
6
72
3
73
-2
0
VERTEX
8
OBJECT033
10
0
20
0
30
0
70
128
71
-6
72
2
73
7
0
VERTEX
8
OBJECT033
10
0
20
0
30
0
70
128
71
8
72
1
73
-4
0
VERTEX
8
OBJECT033
10
0
20
0
30
0
70
128
71
-8
72
4
73
5
0
SEQEND
8
OBJECT033
0
POLYLINE
8
OBJECT034
66
1
70
64
71
8
72
12
62
50
0
VERTEX
8
OBJECT034
10
-464.000000
20
-208.000000
30
224.000000
70
192
0
VERTEX
8
OBJECT034
10
-496.000000
20
-128.000000
30
224.000000
70
192
0
VERTEX
8
OBJECT034
10
-384.000000
20
-128.000000
30
224.000000
70
192
0
VERTEX
8
OBJECT034
10
-384.000000
20
-240.000000
30
224.000000
70
192
0
VERTEX
8
OBJECT034
10
-496.000000
20
-128.000000
30
223.000000
70
192
0
VERTEX
8
OBJECT034
10
-464.000000
20
-208.000000
30
223.000000
70
192
0
VERTEX
8
OBJECT034
10
-384.000000
20
-240.000000
30
223.000000
70
192
0
VERTEX
8
OBJECT034
10
-384.000000
20
-128.000000
30
223.000000
70
192
0
VERTEX
8
OBJECT034
10
0
20
0
30
0
70
128
71
2
72
3
73
-4
0
VERTEX
8
OBJECT034
10
0
20
0
30
0
70
128
71
-2
72
4
73
1
0
VERTEX
8
OBJECT034
10
0
20
0
30
0
70
128
71
6
72
7
73
-8
0
VERTEX
8
OBJECT034
10
0
20
0
30
0
70
128
71
-6
72
8
73
5
0
VERTEX
8
OBJECT034
10
0
20
0
30
0
70
128
71
5
72
2
73
-1
0
VERTEX
8
OBJECT034
10
0
20
0
30
0
70
128
71
-5
72
1
73
6
0
VERTEX
8
OBJECT034
10
0
20
0
30
0
70
128
71
7
72
4
73
-3
0
VERTEX
8
OBJECT034
10
0
20
0
30
0
70
128
71
-7
72
3
73
8
0
VERTEX
8
OBJECT034
10
0
20
0
30
0
70
128
71
6
72
1
73
-4
0
VERTEX
8
OBJECT034
10
0
20
0
30
0
70
128
71
-6
72
4
73
7
0
VERTEX
8
OBJECT034
10
0
20
0
30
0
70
128
71
8
72
3
73
-2
0
VERTEX
8
OBJECT034
10
0
20
0
30
0
70
128
71
-8
72
2
73
5
0
SEQEND
8
OBJECT034
0
POLYLINE
8
OBJECT035
66
1
70
64
71
8
72
12
62
50
0
VERTEX
8
OBJECT035
10
-464.000000
20
-48.000000
30
32.000000
70
192
0
VERTEX
8
OBJECT035
10
-496.000000
20
-128.000000
30
32.000000
70
192
0
VERTEX
8
OBJECT035
10
-384.000000
20
-128.000000
30
32.000000
70
192
0
VERTEX
8
OBJECT035
10
-384.000000
20
-16.000000
30
32.000000
70
192
0
VERTEX
8
OBJECT035
10
-496.000000
20
-128.000000
30
33.000000
70
192
0
VERTEX
8
OBJECT035
10
-464.000000
20
-48.000000
30
33.000000
70
192
0
VERTEX
8
OBJECT035
10
-384.000000
20
-16.000000
30
33.000000
70
192
0
VERTEX
8
OBJECT035
10
-384.000000
20
-128.000000
30
33.000000
70
192
0
VERTEX
8
OBJECT035
10
0
20
0
30
0
70
128
71
2
72
3
73
-4
0
VERTEX
8
OBJECT035
10
0
20
0
30
0
70
128
71
-2
72
4
73
1
0
VERTEX
8
OBJECT035
10
0
20
0
30
0
70
128
71
6
72
7
73
-8
0
VERTEX
8
OBJECT035
10
0
20
0
30
0
70
128
71
-6
72
8
73
5
0
VERTEX
8
OBJECT035
10
0
20
0
30
0
70
128
71
1
72
6
73
-5
0
VERTEX
8
OBJECT035
10
0
20
0
30
0
70
128
71
-1
72
5
73
2
0
VERTEX
8
OBJECT035
10
0
20
0
30
0
70
128
71
3
72
8
73
-7
0
VERTEX
8
OBJECT035
10
0
20
0
30
0
70
128
71
-3
72
7
73
4
0
VERTEX
8
OBJECT035
10
0
20
0
30
0
70
128
71
4
72
7
73
-6
0
VERTEX
8
OBJECT035
10
0
20
0
30
0
70
128
71
-4
72
6
73
1
0
VERTEX
8
OBJECT035
10
0
20
0
30
0
70
128
71
2
72
5
73
-8
0
VERTEX
8
OBJECT035
10
0
20
0
30
0
70
128
71
-2
72
8
73
3
0
SEQEND
8
OBJECT035
0
POLYLINE
8
OBJECT036
66
1
70
64
71
8
72
12
62
50
0
VERTEX
8
OBJECT036
10
-272.000000
20
-128.000000
30
32.000000
70
192
0
VERTEX
8
OBJECT036
10
-304.000000
20
-48.000000
30
32.000000
70
192
0
VERTEX
8
OBJECT036
10
-384.000000
20
-16.000000
30
32.000000
70
192
0
VERTEX
8
OBJECT036
10
-384.000000
20
-128.000000
30
32.000000
70
192
0
VERTEX
8
OBJECT036
10
-384.000000
20
-128.000000
30
33.000000
70
192
0
VERTEX
8
OBJECT036
10
-384.000000
20
-16.000000
30
33.000000
70
192
0
VERTEX
8
OBJECT036
10
-304.000000
20
-48.000000
30
33.000000
70
192
0
VERTEX
8
OBJECT036
10
-272.000000
20
-128.000000
30
33.000000
70
192
0
VERTEX
8
OBJECT036
10
0
20
0
30
0
70
128
71
2
72
3
73
-4
0
VERTEX
8
OBJECT036
10
0
20
0
30
0
70
128
71
-2
72
4
73
1
0
VERTEX
8
OBJECT036
10
0
20
0
30
0
70
128
71
6
72
7
73
-8
0
VERTEX
8
OBJECT036
10
0
20
0
30
0
70
128
71
-6
72
8
73
5
0
VERTEX
8
OBJECT036
10
0
20
0
30
0
70
128
71
1
72
8
73
-7
0
VERTEX
8
OBJECT036
10
0
20
0
30
0
70
128
71
-1
72
7
73
2
0
VERTEX
8
OBJECT036
10
0
20
0
30
0
70
128
71
3
72
6
73
-5
0
VERTEX
8
OBJECT036
10
0
20
0
30
0
70
128
71
-3
72
5
73
4
0
VERTEX
8
OBJECT036
10
0
20
0
30
0
70
128
71
2
72
7
73
-6
0
VERTEX
8
OBJECT036
10
0
20
0
30
0
70
128
71
-2
72
6
73
3
0
VERTEX
8
OBJECT036
10
0
20
0
30
0
70
128
71
4
72
5
73
-8
0
VERTEX
8
OBJECT036
10
0
20
0
30
0
70
128
71
-4
72
8
73
1
0
SEQEND
8
OBJECT036
0
POLYLINE
8
OBJECT037
66
1
70
64
71
8
72
12
62
50
0
VERTEX
8
OBJECT037
10
-384.000000
20
-128.000000
30
32.000000
70
192
0
VERTEX
8
OBJECT037
10
-384.000000
20
-240.000000
30
32.000000
70
192
0
VERTEX
8
OBJECT037
10
-304.000000
20
-208.000000
30
32.000000
70
192
0
VERTEX
8
OBJECT037
10
-272.000000
20
-128.000000
30
32.000000
70
192
0
VERTEX
8
OBJECT037
10
-272.000000
20
-128.000000
30
33.000000
70
192
0
VERTEX
8
OBJECT037
10
-304.000000
20
-208.000000
30
33.000000
70
192
0
VERTEX
8
OBJECT037
10
-384.000000
20
-240.000000
30
33.000000
70
192
0
VERTEX
8
OBJECT037
10
-384.000000
20
-128.000000
30
33.000000
70
192
0
VERTEX
8
OBJECT037
10
0
20
0
30
0
70
128
71
2
72
3
73
-4
0
VERTEX
8
OBJECT037
10
0
20
0
30
0
70
128
71
-2
72
4
73
1
0
VERTEX
8
OBJECT037
10
0
20
0
30
0
70
128
71
6
72
7
73
-8
0
VERTEX
8
OBJECT037
10
0
20
0
30
0
70
128
71
-6
72
8
73
5
0
VERTEX
8
OBJECT037
10
0
20
0
30
0
70
128
71
3
72
6
73
-5
0
VERTEX
8
OBJECT037
10
0
20
0
30
0
70
128
71
-3
72
5
73
4
0
VERTEX
8
OBJECT037
10
0
20
0
30
0
70
128
71
1
72
8
73
-7
0
VERTEX
8
OBJECT037
10
0
20
0
30
0
70
128
71
-1
72
7
73
2
0
VERTEX
8
OBJECT037
10
0
20
0
30
0
70
128
71
2
72
7
73
-6
0
VERTEX
8
OBJECT037
10
0
20
0
30
0
70
128
71
-2
72
6
73
3
0
VERTEX
8
OBJECT037
10
0
20
0
30
0
70
128
71
4
72
5
73
-8
0
VERTEX
8
OBJECT037
10
0
20
0
30
0
70
128
71
-4
72
8
73
1
0
SEQEND
8
OBJECT037
0
POLYLINE
8
OBJECT038
66
1
70
64
71
8
72
12
62
50
0
VERTEX
8
OBJECT038
10
-496.000000
20
-128.000000
30
32.000000
70
192
0
VERTEX
8
OBJECT038
10
-464.000000
20
-208.000000
30
32.000000
70
192
0
VERTEX
8
OBJECT038
10
-384.000000
20
-240.000000
30
32.000000
70
192
0
VERTEX
8
OBJECT038
10
-384.000000
20
-128.000000
30
32.000000
70
192
0
VERTEX
8
OBJECT038
10
-464.000000
20
-208.000000
30
33.000000
70
192
0
VERTEX
8
OBJECT038
10
-496.000000
20
-128.000000
30
33.000000
70
192
0
VERTEX
8
OBJECT038
10
-384.000000
20
-128.000000
30
33.000000
70
192
0
VERTEX
8
OBJECT038
10
-384.000000
20
-240.000000
30
33.000000
70
192
0
VERTEX
8
OBJECT038
10
0
20
0
30
0
70
128
71
2
72
3
73
-4
0
VERTEX
8
OBJECT038
10
0
20
0
30
0
70
128
71
-2
72
4
73
1
0
VERTEX
8
OBJECT038
10
0
20
0
30
0
70
128
71
6
72
7
73
-8
0
VERTEX
8
OBJECT038
10
0
20
0
30
0
70
128
71
-6
72
8
73
5
0
VERTEX
8
OBJECT038
10
0
20
0
30
0
70
128
71
1
72
6
73
-5
0
VERTEX
8
OBJECT038
10
0
20
0
30
0
70
128
71
-1
72
5
73
2
0
VERTEX
8
OBJECT038
10
0
20
0
30
0
70
128
71
3
72
8
73
-7
0
VERTEX
8
OBJECT038
10
0
20
0
30
0
70
128
71
-3
72
7
73
4
0
VERTEX
8
OBJECT038
10
0
20
0
30
0
70
128
71
2
72
5
73
-8
0
VERTEX
8
OBJECT038
10
0
20
0
30
0
70
128
71
-2
72
8
73
3
0
VERTEX
8
OBJECT038
10
0
20
0
30
0
70
128
71
4
72
7
73
-6
0
VERTEX
8
OBJECT038
10
0
20
0
30
0
70
128
71
-4
72
6
73
1
0
SEQEND
8
OBJECT038
0
POLYLINE
8
OBJECT039
66
1
70
64
71
8
72
12
62
50
0
VERTEX
8
OBJECT039
10
-476.000000
20
-36.000000
30
0.000000
70
192
0
VERTEX
8
OBJECT039
10
-512.000000
20
-128.000000
30
0.000000
70
192
0
VERTEX
8
OBJECT039
10
-384.000000
20
-128.000000
30
0.000000
70
192
0
VERTEX
8
OBJECT039
10
-384.000000
20
0.000000
30
0.000000
70
192
0
VERTEX
8
OBJECT039
10
-512.000000
20
-128.000000
30
32.000000
70
192
0
VERTEX
8
OBJECT039
10
-476.000000
20
-36.000000
30
32.000000
70
192
0
VERTEX
8
OBJECT039
10
-384.000000
20
0.000000
30
32.000000
70
192
0
VERTEX
8
OBJECT039
10
-384.000000
20
-128.000000
30
32.000000
70
192
0
VERTEX
8
OBJECT039
10
0
20
0
30
0
70
128
71
2
72
3
73
-4
0
VERTEX
8
OBJECT039
10
0
20
0
30
0
70
128
71
-2
72
4
73
1
0
VERTEX
8
OBJECT039
10
0
20
0
30
0
70
128
71
6
72
7
73
-8
0
VERTEX
8
OBJECT039
10
0
20
0
30
0
70
128
71
-6
72
8
73
5
0
VERTEX
8
OBJECT039
10
0
20
0
30
0
70
128
71
1
72
6
73
-5
0
VERTEX
8
OBJECT039
10
0
20
0
30
0
70
128
71
-1
72
5
73
2
0
VERTEX
8
OBJECT039
10
0
20
0
30
0
70
128
71
3
72
8
73
-7
0
VERTEX
8
OBJECT039
10
0
20
0
30
0
70
128
71
-3
72
7
73
4
0
VERTEX
8
OBJECT039
10
0
20
0
30
0
70
128
71
4
72
7
73
-6
0
VERTEX
8
OBJECT039
10
0
20
0
30
0
70
128
71
-4
72
6
73
1
0
VERTEX
8
OBJECT039
10
0
20
0
30
0
70
128
71
2
72
5
73
-8
0
VERTEX
8
OBJECT039
10
0
20
0
30
0
70
128
71
-2
72
8
73
3
0
SEQEND
8
OBJECT039
0
POLYLINE
8
OBJECT040
66
1
70
64
71
8
72
12
62
50
0
VERTEX
8
OBJECT040
10
-512.000000
20
-128.000000
30
0.000000
70
192
0
VERTEX
8
OBJECT040
10
-476.000000
20
-220.000000
30
0.000000
70
192
0
VERTEX
8
OBJECT040
10
-384.000000
20
-256.000000
30
0.000000
70
192
0
VERTEX
8
OBJECT040
10
-384.000000
20
-128.000000
30
0.000000
70
192
0
VERTEX
8
OBJECT040
10
-476.000000
20
-220.000000
30
32.000000
70
192
0
VERTEX
8
OBJECT040
10
-512.000000
20
-128.000000
30
32.000000
70
192
0
VERTEX
8
OBJECT040
10
-384.000000
20
-128.000000
30
32.000000
70
192
0
VERTEX
8
OBJECT040
10
-384.000000
20
-256.000000
30
32.000000
70
192
0
VERTEX
8
OBJECT040
10
0
20
0
30
0
70
128
71
2
72
3
73
-4
0
VERTEX
8
OBJECT040
10
0
20
0
30
0
70
128
71
-2
72
4
73
1
0
VERTEX
8
OBJECT040
10
0
20
0
30
0
70
128
71
6
72
7
73
-8
0
VERTEX
8
OBJECT040
10
0
20
0
30
0
70
128
71
-6
72
8
73
5
0
VERTEX
8
OBJECT040
10
0
20
0
30
0
70
128
71
1
72
6
73
-5
0
VERTEX
8
OBJECT040
10
0
20
0
30
0
70
128
71
-1
72
5
73
2
0
VERTEX
8
OBJECT040
10
0
20
0
30
0
70
128
71
3
72
8
73
-7
0
VERTEX
8
OBJECT040
10
0
20
0
30
0
70
128
71
-3
72
7
73
4
0
VERTEX
8
OBJECT040
10
0
20
0
30
0
70
128
71
2
72
5
73
-8
0
VERTEX
8
OBJECT040
10
0
20
0
30
0
70
128
71
-2
72
8
73
3
0
VERTEX
8
OBJECT040
10
0
20
0
30
0
70
128
71
4
72
7
73
-6
0
VERTEX
8
OBJECT040
10
0
20
0
30
0
70
128
71
-4
72
6
73
1
0
SEQEND
8
OBJECT040
0
POLYLINE
8
OBJECT041
66
1
70
64
71
8
72
12
62
50
0
VERTEX
8
OBJECT041
10
-384.000000
20
-128.000000
30
0.000000
70
192
0
VERTEX
8
OBJECT041
10
-384.000000
20
-256.000000
30
0.000000
70
192
0
VERTEX
8
OBJECT041
10
-292.000000
20
-220.000000
30
0.000000
70
192
0
VERTEX
8
OBJECT041
10
-256.000000
20
-128.000000
30
0.000000
70
192
0
VERTEX
8
OBJECT041
10
-256.000000
20
-128.000000
30
32.000000
70
192
0
VERTEX
8
OBJECT041
10
-292.000000
20
-220.000000
30
32.000000
70
192
0
VERTEX
8
OBJECT041
10
-384.000000
20
-256.000000
30
32.000000
70
192
0
VERTEX
8
OBJECT041
10
-384.000000
20
-128.000000
30
32.000000
70
192
0
VERTEX
8
OBJECT041
10
0
20
0
30
0
70
128
71
2
72
3
73
-4
0
VERTEX
8
OBJECT041
10
0
20
0
30
0
70
128
71
-2
72
4
73
1
0
VERTEX
8
OBJECT041
10
0
20
0
30
0
70
128
71
6
72
7
73
-8
0
VERTEX
8
OBJECT041
10
0
20
0
30
0
70
128
71
-6
72
8
73
5
0
VERTEX
8
OBJECT041
10
0
20
0
30
0
70
128
71
3
72
6
73
-5
0
VERTEX
8
OBJECT041
10
0
20
0
30
0
70
128
71
-3
72
5
73
4
0
VERTEX
8
OBJECT041
10
0
20
0
30
0
70
128
71
1
72
8
73
-7
0
VERTEX
8
OBJECT041
10
0
20
0
30
0
70
128
71
-1
72
7
73
2
0
VERTEX
8
OBJECT041
10
0
20
0
30
0
70
128
71
2
72
7
73
-6
0
VERTEX
8
OBJECT041
10
0
20
0
30
0
70
128
71
-2
72
6
73
3
0
VERTEX
8
OBJECT041
10
0
20
0
30
0
70
128
71
4
72
5
73
-8
0
VERTEX
8
OBJECT041
10
0
20
0
30
0
70
128
71
-4
72
8
73
1
0
SEQEND
8
OBJECT041
0
POLYLINE
8
OBJECT042
66
1
70
64
71
8
72
12
62
50
0
VERTEX
8
OBJECT042
10
-256.000000
20
-128.000000
30
0.000000
70
192
0
VERTEX
8
OBJECT042
10
-292.000000
20
-36.000000
30
0.000000
70
192
0
VERTEX
8
OBJECT042
10
-384.000000
20
0.000000
30
0.000000
70
192
0
VERTEX
8
OBJECT042
10
-384.000000
20
-128.000000
30
0.000000
70
192
0
VERTEX
8
OBJECT042
10
-384.000000
20
-128.000000
30
32.000000
70
192
0
VERTEX
8
OBJECT042
10
-384.000000
20
0.000000
30
32.000000
70
192
0
VERTEX
8
OBJECT042
10
-292.000000
20
-36.000000
30
32.000000
70
192
0
VERTEX
8
OBJECT042
10
-256.000000
20
-128.000000
30
32.000000
70
192
0
VERTEX
8
OBJECT042
10
0
20
0
30
0
70
128
71
2
72
3
73
-4
0
VERTEX
8
OBJECT042
10
0
20
0
30
0
70
128
71
-2
72
4
73
1
0
VERTEX
8
OBJECT042
10
0
20
0
30
0
70
128
71
6
72
7
73
-8
0
VERTEX
8
OBJECT042
10
0
20
0
30
0
70
128
71
-6
72
8
73
5
0
VERTEX
8
OBJECT042
10
0
20
0
30
0
70
128
71
1
72
8
73
-7
0
VERTEX
8
OBJECT042
10
0
20
0
30
0
70
128
71
-1
72
7
73
2
0
VERTEX
8
OBJECT042
10
0
20
0
30
0
70
128
71
3
72
6
73
-5
0
VERTEX
8
OBJECT042
10
0
20
0
30
0
70
128
71
-3
72
5
73
4
0
VERTEX
8
OBJECT042
10
0
20
0
30
0
70
128
71
2
72
7
73
-6
0
VERTEX
8
OBJECT042
10
0
20
0
30
0
70
128
71
-2
72
6
73
3
0
VERTEX
8
OBJECT042
10
0
20
0
30
0
70
128
71
4
72
5
73
-8
0
VERTEX
8
OBJECT042
10
0
20
0
30
0
70
128
71
-4
72
8
73
1
0
SEQEND
8
OBJECT042
0
POLYLINE
8
OBJECT043
66
1
70
64
71
8
72
12
62
50
0
VERTEX
8
OBJECT043
10
324.000000
20
-324.000000
30
224.000000
70
192
0
VERTEX
8
OBJECT043
10
300.000000
20
-384.000000
30
224.000000
70
192
0
VERTEX
8
OBJECT043
10
288.000000
20
-384.000000
30
224.000000
70
192
0
VERTEX
8
OBJECT043
10
315.000000
20
-315.000000
30
224.000000
70
192
0
VERTEX
8
OBJECT043
10
315.000000
20
-315.000000
30
32.000000
70
192
0
VERTEX
8
OBJECT043
10
288.000000
20
-384.000000
30
32.000000
70
192
0
VERTEX
8
OBJECT043
10
300.000000
20
-384.000000
30
32.000000
70
192
0
VERTEX
8
OBJECT043
10
324.000000
20
-324.000000
30
32.000000
70
192
0
VERTEX
8
OBJECT043
10
0
20
0
30
0
70
128
71
2
72
3
73
-4
0
VERTEX
8
OBJECT043
10
0
20
0
30
0
70
128
71
-2
72
4
73
1
0
VERTEX
8
OBJECT043
10
0
20
0
30
0
70
128
71
6
72
7
73
-8
0
VERTEX
8
OBJECT043
10
0
20
0
30
0
70
128
71
-6
72
8
73
5
0
VERTEX
8
OBJECT043
10
0
20
0
30
0
70
128
71
7
72
2
73
-1
0
VERTEX
8
OBJECT043
10
0
20
0
30
0
70
128
71
-7
72
1
73
8
0
VERTEX
8
OBJECT043
10
0
20
0
30
0
70
128
71
5
72
4
73
-3
0
VERTEX
8
OBJECT043
10
0
20
0
30
0
70
128
71
-5
72
3
73
6
0
VERTEX
8
OBJECT043
10
0
20
0
30
0
70
128
71
8
72
1
73
-4
0
VERTEX
8
OBJECT043
10
0
20
0
30
0
70
128
71
-8
72
4
73
5
0
VERTEX
8
OBJECT043
10
0
20
0
30
0
70
128
71
6
72
3
73
-2
0
VERTEX
8
OBJECT043
10
0
20
0
30
0
70
128
71
-6
72
2
73
7
0
SEQEND
8
OBJECT043
0
POLYLINE
8
OBJECT044
66
1
70
64
71
8
72
12
62
50
0
VERTEX
8
OBJECT044
10
315.000000
20
-453.000000
30
224.000000
70
192
0
VERTEX
8
OBJECT044
10
288.000000
20
-384.000000
30
224.000000
70
192
0
VERTEX
8
OBJECT044
10
300.000000
20
-384.000000
30
224.000000
70
192
0
VERTEX
8
OBJECT044
10
324.000000
20
-444.000000
30
224.000000
70
192
0
VERTEX
8
OBJECT044
10
288.000000
20
-384.000000
30
32.000000
70
192
0
VERTEX
8
OBJECT044
10
315.000000
20
-453.000000
30
32.000000
70
192
0
VERTEX
8
OBJECT044
10
324.000000
20
-444.000000
30
32.000000
70
192
0
VERTEX
8
OBJECT044
10
300.000000
20
-384.000000
30
32.000000
70
192
0
VERTEX
8
OBJECT044
10
0
20
0
30
0
70
128
71
2
72
3
73
-4
0
VERTEX
8
OBJECT044
10
0
20
0
30
0
70
128
71
-2
72
4
73
1
0
VERTEX
8
OBJECT044
10
0
20
0
30
0
70
128
71
6
72
7
73
-8
0
VERTEX
8
OBJECT044
10
0
20
0
30
0
70
128
71
-6
72
8
73
5
0
VERTEX
8
OBJECT044
10
0
20
0
30
0
70
128
71
5
72
2
73
-1
0
VERTEX
8
OBJECT044
10
0
20
0
30
0
70
128
71
-5
72
1
73
6
0
VERTEX
8
OBJECT044
10
0
20
0
30
0
70
128
71
7
72
4
73
-3
0
VERTEX
8
OBJECT044
10
0
20
0
30
0
70
128
71
-7
72
3
73
8
0
VERTEX
8
OBJECT044
10
0
20
0
30
0
70
128
71
8
72
3
73
-2
0
VERTEX
8
OBJECT044
10
0
20
0
30
0
70
128
71
-8
72
2
73
5
0
VERTEX
8
OBJECT044
10
0
20
0
30
0
70
128
71
6
72
1
73
-4
0
VERTEX
8
OBJECT044
10
0
20
0
30
0
70
128
71
-6
72
4
73
7
0
SEQEND
8
OBJECT044
0
POLYLINE
8
OBJECT045
66
1
70
64
71
8
72
12
62
50
0
VERTEX
8
OBJECT045
10
384.000000
20
-480.000000
30
224.000000
70
192
0
VERTEX
8
OBJECT045
10
315.000000
20
-453.000000
30
224.000000
70
192
0
VERTEX
8
OBJECT045
10
324.000000
20
-444.000000
30
224.000000
70
192
0
VERTEX
8
OBJECT045
10
384.000000
20
-468.000000
30
224.000000
70
192
0
VERTEX
8
OBJECT045
10
315.000000
20
-453.000000
30
32.000000
70
192
0
VERTEX
8
OBJECT045
10
384.000000
20
-480.000000
30
32.000000
70
192
0
VERTEX
8
OBJECT045
10
384.000000
20
-468.000000
30
32.000000
70
192
0
VERTEX
8
OBJECT045
10
324.000000
20
-444.000000
30
32.000000
70
192
0
VERTEX
8
OBJECT045
10
0
20
0
30
0
70
128
71
2
72
3
73
-4
0
VERTEX
8
OBJECT045
10
0
20
0
30
0
70
128
71
-2
72
4
73
1
0
VERTEX
8
OBJECT045
10
0
20
0
30
0
70
128
71
6
72
7
73
-8
0
VERTEX
8
OBJECT045
10
0
20
0
30
0
70
128
71
-6
72
8
73
5
0
VERTEX
8
OBJECT045
10
0
20
0
30
0
70
128
71
5
72
2
73
-1
0
VERTEX
8
OBJECT045
10
0
20
0
30
0
70
128
71
-5
72
1
73
6
0
VERTEX
8
OBJECT045
10
0
20
0
30
0
70
128
71
7
72
4
73
-3
0
VERTEX
8
OBJECT045
10
0
20
0
30
0
70
128
71
-7
72
3
73
8
0
VERTEX
8
OBJECT045
10
0
20
0
30
0
70
128
71
6
72
1
73
-4
0
VERTEX
8
OBJECT045
10
0
20
0
30
0
70
128
71
-6
72
4
73
7
0
VERTEX
8
OBJECT045
10
0
20
0
30
0
70
128
71
8
72
3
73
-2
0
VERTEX
8
OBJECT045
10
0
20
0
30
0
70
128
71
-8
72
2
73
5
0
SEQEND
8
OBJECT045
0
POLYLINE
8
OBJECT046
66
1
70
64
71
8
72
12
62
50
0
VERTEX
8
OBJECT046
10
453.000000
20
-453.000000
30
224.000000
70
192
0
VERTEX
8
OBJECT046
10
384.000000
20
-480.000000
30
224.000000
70
192
0
VERTEX
8
OBJECT046
10
384.000000
20
-468.000000
30
224.000000
70
192
0
VERTEX
8
OBJECT046
10
444.000000
20
-444.000000
30
224.000000
70
192
0
VERTEX
8
OBJECT046
10
444.000000
20
-444.000000
30
32.000000
70
192
0
VERTEX
8
OBJECT046
10
384.000000
20
-468.000000
30
32.000000
70
192
0
VERTEX
8
OBJECT046
10
384.000000
20
-480.000000
30
32.000000
70
192
0
VERTEX
8
OBJECT046
10
453.000000
20
-453.000000
30
32.000000
70
192
0
VERTEX
8
OBJECT046
10
0
20
0
30
0
70
128
71
2
72
3
73
-4
0
VERTEX
8
OBJECT046
10
0
20
0
30
0
70
128
71
-2
72
4
73
1
0
VERTEX
8
OBJECT046
10
0
20
0
30
0
70
128
71
6
72
7
73
-8
0
VERTEX
8
OBJECT046
10
0
20
0
30
0
70
128
71
-6
72
8
73
5
0
VERTEX
8
OBJECT046
10
0
20
0
30
0
70
128
71
5
72
4
73
-3
0
VERTEX
8
OBJECT046
10
0
20
0
30
0
70
128
71
-5
72
3
73
6
0
VERTEX
8
OBJECT046
10
0
20
0
30
0
70
128
71
7
72
2
73
-1
0
VERTEX
8
OBJECT046
10
0
20
0
30
0
70
128
71
-7
72
1
73
8
0
VERTEX
8
OBJECT046
10
0
20
0
30
0
70
128
71
8
72
1
73
-4
0
VERTEX
8
OBJECT046
10
0
20
0
30
0
70
128
71
-8
72
4
73
5
0
VERTEX
8
OBJECT046
10
0
20
0
30
0
70
128
71
6
72
3
73
-2
0
VERTEX
8
OBJECT046
10
0
20
0
30
0
70
128
71
-6
72
2
73
7
0
SEQEND
8
OBJECT046
0
POLYLINE
8
OBJECT047
66
1
70
64
71
8
72
12
62
50
0
VERTEX
8
OBJECT047
10
444.000000
20
-444.000000
30
224.000000
70
192
0
VERTEX
8
OBJECT047
10
468.000000
20
-384.000000
30
224.000000
70
192
0
VERTEX
8
OBJECT047
10
480.000000
20
-384.000000
30
224.000000
70
192
0
VERTEX
8
OBJECT047
10
453.000000
20
-453.000000
30
224.000000
70
192
0
VERTEX
8
OBJECT047
10
453.000000
20
-453.000000
30
32.000000
70
192
0
VERTEX
8
OBJECT047
10
480.000000
20
-384.000000
30
32.000000
70
192
0
VERTEX
8
OBJECT047
10
468.000000
20
-384.000000
30
32.000000
70
192
0
VERTEX
8
OBJECT047
10
444.000000
20
-444.000000
30
32.000000
70
192
0
VERTEX
8
OBJECT047
10
0
20
0
30
0
70
128
71
2
72
3
73
-4
0
VERTEX
8
OBJECT047
10
0
20
0
30
0
70
128
71
-2
72
4
73
1
0
VERTEX
8
OBJECT047
10
0
20
0
30
0
70
128
71
6
72
7
73
-8
0
VERTEX
8
OBJECT047
10
0
20
0
30
0
70
128
71
-6
72
8
73
5
0
VERTEX
8
OBJECT047
10
0
20
0
30
0
70
128
71
5
72
4
73
-3
0
VERTEX
8
OBJECT047
10
0
20
0
30
0
70
128
71
-5
72
3
73
6
0
VERTEX
8
OBJECT047
10
0
20
0
30
0
70
128
71
7
72
2
73
-1
0
VERTEX
8
OBJECT047
10
0
20
0
30
0
70
128
71
-7
72
1
73
8
0
VERTEX
8
OBJECT047
10
0
20
0
30
0
70
128
71
6
72
3
73
-2
0
VERTEX
8
OBJECT047
10
0
20
0
30
0
70
128
71
-6
72
2
73
7
0
VERTEX
8
OBJECT047
10
0
20
0
30
0
70
128
71
8
72
1
73
-4
0
VERTEX
8
OBJECT047
10
0
20
0
30
0
70
128
71
-8
72
4
73
5
0
SEQEND
8
OBJECT047
0
POLYLINE
8
OBJECT048
66
1
70
64
71
8
72
12
62
50
0
VERTEX
8
OBJECT048
10
468.000000
20
-384.000000
30
224.000000
70
192
0
VERTEX
8
OBJECT048
10
444.000000
20
-324.000000
30
224.000000
70
192
0
VERTEX
8
OBJECT048
10
453.000000
20
-315.000000
30
224.000000
70
192
0
VERTEX
8
OBJECT048
10
480.000000
20
-384.000000
30
224.000000
70
192
0
VERTEX
8
OBJECT048
10
444.000000
20
-324.000000
30
32.000000
70
192
0
VERTEX
8
OBJECT048
10
468.000000
20
-384.000000
30
32.000000
70
192
0
VERTEX
8
OBJECT048
10
480.000000
20
-384.000000
30
32.000000
70
192
0
VERTEX
8
OBJECT048
10
453.000000
20
-315.000000
30
32.000000
70
192
0
VERTEX
8
OBJECT048
10
0
20
0
30
0
70
128
71
2
72
3
73
-4
0
VERTEX
8
OBJECT048
10
0
20
0
30
0
70
128
71
-2
72
4
73
1
0
VERTEX
8
OBJECT048
10
0
20
0
30
0
70
128
71
6
72
7
73
-8
0
VERTEX
8
OBJECT048
10
0
20
0
30
0
70
128
71
-6
72
8
73
5
0
VERTEX
8
OBJECT048
10
0
20
0
30
0
70
128
71
5
72
2
73
-1
0
VERTEX
8
OBJECT048
10
0
20
0
30
0
70
128
71
-5
72
1
73
6
0
VERTEX
8
OBJECT048
10
0
20
0
30
0
70
128
71
7
72
4
73
-3
0
VERTEX
8
OBJECT048
10
0
20
0
30
0
70
128
71
-7
72
3
73
8
0
VERTEX
8
OBJECT048
10
0
20
0
30
0
70
128
71
8
72
3
73
-2
0
VERTEX
8
OBJECT048
10
0
20
0
30
0
70
128
71
-8
72
2
73
5
0
VERTEX
8
OBJECT048
10
0
20
0
30
0
70
128
71
6
72
1
73
-4
0
VERTEX
8
OBJECT048
10
0
20
0
30
0
70
128
71
-6
72
4
73
7
0
SEQEND
8
OBJECT048
0
POLYLINE
8
OBJECT049
66
1
70
64
71
8
72
12
62
50
0
VERTEX
8
OBJECT049
10
444.000000
20
-324.000000
30
224.000000
70
192
0
VERTEX
8
OBJECT049
10
384.000000
20
-300.000000
30
224.000000
70
192
0
VERTEX
8
OBJECT049
10
384.000000
20
-288.000000
30
224.000000
70
192
0
VERTEX
8
OBJECT049
10
453.000000
20
-315.000000
30
224.000000
70
192
0
VERTEX
8
OBJECT049
10
453.000000
20
-315.000000
30
32.000000
70
192
0
VERTEX
8
OBJECT049
10
384.000000
20
-288.000000
30
32.000000
70
192
0
VERTEX
8
OBJECT049
10
384.000000
20
-300.000000
30
32.000000
70
192
0
VERTEX
8
OBJECT049
10
444.000000
20
-324.000000
30
32.000000
70
192
0
VERTEX
8
OBJECT049
10
0
20
0
30
0
70
128
71
2
72
3
73
-4
0
VERTEX
8
OBJECT049
10
0
20
0
30
0
70
128
71
-2
72
4
73
1
0
VERTEX
8
OBJECT049
10
0
20
0
30
0
70
128
71
6
72
7
73
-8
0
VERTEX
8
OBJECT049
10
0
20
0
30
0
70
128
71
-6
72
8
73
5
0
VERTEX
8
OBJECT049
10
0
20
0
30
0
70
128
71
7
72
2
73
-1
0
VERTEX
8
OBJECT049
10
0
20
0
30
0
70
128
71
-7
72
1
73
8
0
VERTEX
8
OBJECT049
10
0
20
0
30
0
70
128
71
5
72
4
73
-3
0
VERTEX
8
OBJECT049
10
0
20
0
30
0
70
128
71
-5
72
3
73
6
0
VERTEX
8
OBJECT049
10
0
20
0
30
0
70
128
71
8
72
1
73
-4
0
VERTEX
8
OBJECT049
10
0
20
0
30
0
70
128
71
-8
72
4
73
5
0
VERTEX
8
OBJECT049
10
0
20
0
30
0
70
128
71
6
72
3
73
-2
0
VERTEX
8
OBJECT049
10
0
20
0
30
0
70
128
71
-6
72
2
73
7
0
SEQEND
8
OBJECT049
0
POLYLINE
8
OBJECT050
66
1
70
64
71
8
72
12
62
50
0
VERTEX
8
OBJECT050
10
315.000000
20
-315.000000
30
224.000000
70
192
0
VERTEX
8
OBJECT050
10
384.000000
20
-288.000000
30
224.000000
70
192
0
VERTEX
8
OBJECT050
10
384.000000
20
-300.000000
30
224.000000
70
192
0
VERTEX
8
OBJECT050
10
324.000000
20
-324.000000
30
224.000000
70
192
0
VERTEX
8
OBJECT050
10
384.000000
20
-288.000000
30
32.000000
70
192
0
VERTEX
8
OBJECT050
10
315.000000
20
-315.000000
30
32.000000
70
192
0
VERTEX
8
OBJECT050
10
324.000000
20
-324.000000
30
32.000000
70
192
0
VERTEX
8
OBJECT050
10
384.000000
20
-300.000000
30
32.000000
70
192
0
VERTEX
8
OBJECT050
10
0
20
0
30
0
70
128
71
2
72
3
73
-4
0
VERTEX
8
OBJECT050
10
0
20
0
30
0
70
128
71
-2
72
4
73
1
0
VERTEX
8
OBJECT050
10
0
20
0
30
0
70
128
71
6
72
7
73
-8
0
VERTEX
8
OBJECT050
10
0
20
0
30
0
70
128
71
-6
72
8
73
5
0
VERTEX
8
OBJECT050
10
0
20
0
30
0
70
128
71
5
72
2
73
-1
0
VERTEX
8
OBJECT050
10
0
20
0
30
0
70
128
71
-5
72
1
73
6
0
VERTEX
8
OBJECT050
10
0
20
0
30
0
70
128
71
7
72
4
73
-3
0
VERTEX
8
OBJECT050
10
0
20
0
30
0
70
128
71
-7
72
3
73
8
0
VERTEX
8
OBJECT050
10
0
20
0
30
0
70
128
71
8
72
3
73
-2
0
VERTEX
8
OBJECT050
10
0
20
0
30
0
70
128
71
-8
72
2
73
5
0
VERTEX
8
OBJECT050
10
0
20
0
30
0
70
128
71
6
72
1
73
-4
0
VERTEX
8
OBJECT050
10
0
20
0
30
0
70
128
71
-6
72
4
73
7
0
SEQEND
8
OBJECT050
0
POLYLINE
8
OBJECT051
66
1
70
64
71
8
72
12
62
50
0
VERTEX
8
OBJECT051
10
300.000000
20
-384.000000
30
224.000000
70
192
0
VERTEX
8
OBJECT051
10
324.000000
20
-324.000000
30
224.000000
70
192
0
VERTEX
8
OBJECT051
10
384.000000
20
-300.000000
30
224.000000
70
192
0
VERTEX
8
OBJECT051
10
384.000000
20
-384.000000
30
224.000000
70
192
0
VERTEX
8
OBJECT051
10
324.000000
20
-324.000000
30
223.000000
70
192
0
VERTEX
8
OBJECT051
10
300.000000
20
-384.000000
30
223.000000
70
192
0
VERTEX
8
OBJECT051
10
384.000000
20
-384.000000
30
223.000000
70
192
0
VERTEX
8
OBJECT051
10
384.000000
20
-300.000000
30
223.000000
70
192
0
VERTEX
8
OBJECT051
10
0
20
0
30
0
70
128
71
2
72
3
73
-4
0
VERTEX
8
OBJECT051
10
0
20
0
30
0
70
128
71
-2
72
4
73
1
0
VERTEX
8
OBJECT051
10
0
20
0
30
0
70
128
71
6
72
7
73
-8
0
VERTEX
8
OBJECT051
10
0
20
0
30
0
70
128
71
-6
72
8
73
5
0
VERTEX
8
OBJECT051
10
0
20
0
30
0
70
128
71
5
72
2
73
-1
0
VERTEX
8
OBJECT051
10
0
20
0
30
0
70
128
71
-5
72
1
73
6
0
VERTEX
8
OBJECT051
10
0
20
0
30
0
70
128
71
7
72
4
73
-3
0
VERTEX
8
OBJECT051
10
0
20
0
30
0
70
128
71
-7
72
3
73
8
0
VERTEX
8
OBJECT051
10
0
20
0
30
0
70
128
71
8
72
3
73
-2
0
VERTEX
8
OBJECT051
10
0
20
0
30
0
70
128
71
-8
72
2
73
5
0
VERTEX
8
OBJECT051
10
0
20
0
30
0
70
128
71
6
72
1
73
-4
0
VERTEX
8
OBJECT051
10
0
20
0
30
0
70
128
71
-6
72
4
73
7
0
SEQEND
8
OBJECT051
0
POLYLINE
8
OBJECT052
66
1
70
64
71
8
72
12
62
50
0
VERTEX
8
OBJECT052
10
384.000000
20
-384.000000
30
224.000000
70
192
0
VERTEX
8
OBJECT052
10
384.000000
20
-300.000000
30
224.000000
70
192
0
VERTEX
8
OBJECT052
10
444.000000
20
-324.000000
30
224.000000
70
192
0
VERTEX
8
OBJECT052
10
468.000000
20
-384.000000
30
224.000000
70
192
0
VERTEX
8
OBJECT052
10
468.000000
20
-384.000000
30
223.000000
70
192
0
VERTEX
8
OBJECT052
10
444.000000
20
-324.000000
30
223.000000
70
192
0
VERTEX
8
OBJECT052
10
384.000000
20
-300.000000
30
223.000000
70
192
0
VERTEX
8
OBJECT052
10
384.000000
20
-384.000000
30
223.000000
70
192
0
VERTEX
8
OBJECT052
10
0
20
0
30
0
70
128
71
2
72
3
73
-4
0
VERTEX
8
OBJECT052
10
0
20
0
30
0
70
128
71
-2
72
4
73
1
0
VERTEX
8
OBJECT052
10
0
20
0
30
0
70
128
71
6
72
7
73
-8
0
VERTEX
8
OBJECT052
10
0
20
0
30
0
70
128
71
-6
72
8
73
5
0
VERTEX
8
OBJECT052
10
0
20
0
30
0
70
128
71
5
72
4
73
-3
0
VERTEX
8
OBJECT052
10
0
20
0
30
0
70
128
71
-5
72
3
73
6
0
VERTEX
8
OBJECT052
10
0
20
0
30
0
70
128
71
7
72
2
73
-1
0
VERTEX
8
OBJECT052
10
0
20
0
30
0
70
128
71
-7
72
1
73
8
0
VERTEX
8
OBJECT052
10
0
20
0
30
0
70
128
71
6
72
3
73
-2
0
VERTEX
8
OBJECT052
10
0
20
0
30
0
70
128
71
-6
72
2
73
7
0
VERTEX
8
OBJECT052
10
0
20
0
30
0
70
128
71
8
72
1
73
-4
0
VERTEX
8
OBJECT052
10
0
20
0
30
0
70
128
71
-8
72
4
73
5
0
SEQEND
8
OBJECT052
0
POLYLINE
8
OBJECT053
66
1
70
64
71
8
72
12
62
50
0
VERTEX
8
OBJECT053
10
468.000000
20
-384.000000
30
224.000000
70
192
0
VERTEX
8
OBJECT053
10
444.000000
20
-444.000000
30
224.000000
70
192
0
VERTEX
8
OBJECT053
10
384.000000
20
-468.000000
30
224.000000
70
192
0
VERTEX
8
OBJECT053
10
384.000000
20
-384.000000
30
224.000000
70
192
0
VERTEX
8
OBJECT053
10
384.000000
20
-384.000000
30
223.000000
70
192
0
VERTEX
8
OBJECT053
10
384.000000
20
-468.000000
30
223.000000
70
192
0
VERTEX
8
OBJECT053
10
444.000000
20
-444.000000
30
223.000000
70
192
0
VERTEX
8
OBJECT053
10
468.000000
20
-384.000000
30
223.000000
70
192
0
VERTEX
8
OBJECT053
10
0
20
0
30
0
70
128
71
2
72
3
73
-4
0
VERTEX
8
OBJECT053
10
0
20
0
30
0
70
128
71
-2
72
4
73
1
0
VERTEX
8
OBJECT053
10
0
20
0
30
0
70
128
71
6
72
7
73
-8
0
VERTEX
8
OBJECT053
10
0
20
0
30
0
70
128
71
-6
72
8
73
5
0
VERTEX
8
OBJECT053
10
0
20
0
30
0
70
128
71
7
72
2
73
-1
0
VERTEX
8
OBJECT053
10
0
20
0
30
0
70
128
71
-7
72
1
73
8
0
VERTEX
8
OBJECT053
10
0
20
0
30
0
70
128
71
5
72
4
73
-3
0
VERTEX
8
OBJECT053
10
0
20
0
30
0
70
128
71
-5
72
3
73
6
0
VERTEX
8
OBJECT053
10
0
20
0
30
0
70
128
71
6
72
3
73
-2
0
VERTEX
8
OBJECT053
10
0
20
0
30
0
70
128
71
-6
72
2
73
7
0
VERTEX
8
OBJECT053
10
0
20
0
30
0
70
128
71
8
72
1
73
-4
0
VERTEX
8
OBJECT053
10
0
20
0
30
0
70
128
71
-8
72
4
73
5
0
SEQEND
8
OBJECT053
0
POLYLINE
8
OBJECT054
66
1
70
64
71
8
72
12
62
50
0
VERTEX
8
OBJECT054
10
324.000000
20
-444.000000
30
224.000000
70
192
0
VERTEX
8
OBJECT054
10
300.000000
20
-384.000000
30
224.000000
70
192
0
VERTEX
8
OBJECT054
10
384.000000
20
-384.000000
30
224.000000
70
192
0
VERTEX
8
OBJECT054
10
384.000000
20
-468.000000
30
224.000000
70
192
0
VERTEX
8
OBJECT054
10
300.000000
20
-384.000000
30
223.000000
70
192
0
VERTEX
8
OBJECT054
10
324.000000
20
-444.000000
30
223.000000
70
192
0
VERTEX
8
OBJECT054
10
384.000000
20
-468.000000
30
223.000000
70
192
0
VERTEX
8
OBJECT054
10
384.000000
20
-384.000000
30
223.000000
70
192
0
VERTEX
8
OBJECT054
10
0
20
0
30
0
70
128
71
2
72
3
73
-4
0
VERTEX
8
OBJECT054
10
0
20
0
30
0
70
128
71
-2
72
4
73
1
0
VERTEX
8
OBJECT054
10
0
20
0
30
0
70
128
71
6
72
7
73
-8
0
VERTEX
8
OBJECT054
10
0
20
0
30
0
70
128
71
-6
72
8
73
5
0
VERTEX
8
OBJECT054
10
0
20
0
30
0
70
128
71
5
72
2
73
-1
0
VERTEX
8
OBJECT054
10
0
20
0
30
0
70
128
71
-5
72
1
73
6
0
VERTEX
8
OBJECT054
10
0
20
0
30
0
70
128
71
7
72
4
73
-3
0
VERTEX
8
OBJECT054
10
0
20
0
30
0
70
128
71
-7
72
3
73
8
0
VERTEX
8
OBJECT054
10
0
20
0
30
0
70
128
71
6
72
1
73
-4
0
VERTEX
8
OBJECT054
10
0
20
0
30
0
70
128
71
-6
72
4
73
7
0
VERTEX
8
OBJECT054
10
0
20
0
30
0
70
128
71
8
72
3
73
-2
0
VERTEX
8
OBJECT054
10
0
20
0
30
0
70
128
71
-8
72
2
73
5
0
SEQEND
8
OBJECT054
0
POLYLINE
8
OBJECT055
66
1
70
64
71
8
72
12
62
50
0
VERTEX
8
OBJECT055
10
324.000000
20
-324.000000
30
32.000000
70
192
0
VERTEX
8
OBJECT055
10
300.000000
20
-384.000000
30
32.000000
70
192
0
VERTEX
8
OBJECT055
10
384.000000
20
-384.000000
30
32.000000
70
192
0
VERTEX
8
OBJECT055
10
384.000000
20
-300.000000
30
32.000000
70
192
0
VERTEX
8
OBJECT055
10
300.000000
20
-384.000000
30
33.000000
70
192
0
VERTEX
8
OBJECT055
10
324.000000
20
-324.000000
30
33.000000
70
192
0
VERTEX
8
OBJECT055
10
384.000000
20
-300.000000
30
33.000000
70
192
0
VERTEX
8
OBJECT055
10
384.000000
20
-384.000000
30
33.000000
70
192
0
VERTEX
8
OBJECT055
10
0
20
0
30
0
70
128
71
2
72
3
73
-4
0
VERTEX
8
OBJECT055
10
0
20
0
30
0
70
128
71
-2
72
4
73
1
0
VERTEX
8
OBJECT055
10
0
20
0
30
0
70
128
71
6
72
7
73
-8
0
VERTEX
8
OBJECT055
10
0
20
0
30
0
70
128
71
-6
72
8
73
5
0
VERTEX
8
OBJECT055
10
0
20
0
30
0
70
128
71
1
72
6
73
-5
0
VERTEX
8
OBJECT055
10
0
20
0
30
0
70
128
71
-1
72
5
73
2
0
VERTEX
8
OBJECT055
10
0
20
0
30
0
70
128
71
3
72
8
73
-7
0
VERTEX
8
OBJECT055
10
0
20
0
30
0
70
128
71
-3
72
7
73
4
0
VERTEX
8
OBJECT055
10
0
20
0
30
0
70
128
71
4
72
7
73
-6
0
VERTEX
8
OBJECT055
10
0
20
0
30
0
70
128
71
-4
72
6
73
1
0
VERTEX
8
OBJECT055
10
0
20
0
30
0
70
128
71
2
72
5
73
-8
0
VERTEX
8
OBJECT055
10
0
20
0
30
0
70
128
71
-2
72
8
73
3
0
SEQEND
8
OBJECT055
0
POLYLINE
8
OBJECT056
66
1
70
64
71
8
72
12
62
50
0
VERTEX
8
OBJECT056
10
468.000000
20
-384.000000
30
32.000000
70
192
0
VERTEX
8
OBJECT056
10
444.000000
20
-324.000000
30
32.000000
70
192
0
VERTEX
8
OBJECT056
10
384.000000
20
-300.000000
30
32.000000
70
192
0
VERTEX
8
OBJECT056
10
384.000000
20
-384.000000
30
32.000000
70
192
0
VERTEX
8
OBJECT056
10
384.000000
20
-384.000000
30
33.000000
70
192
0
VERTEX
8
OBJECT056
10
384.000000
20
-300.000000
30
33.000000
70
192
0
VERTEX
8
OBJECT056
10
444.000000
20
-324.000000
30
33.000000
70
192
0
VERTEX
8
OBJECT056
10
468.000000
20
-384.000000
30
33.000000
70
192
0
VERTEX
8
OBJECT056
10
0
20
0
30
0
70
128
71
2
72
3
73
-4
0
VERTEX
8
OBJECT056
10
0
20
0
30
0
70
128
71
-2
72
4
73
1
0
VERTEX
8
OBJECT056
10
0
20
0
30
0
70
128
71
6
72
7
73
-8
0
VERTEX
8
OBJECT056
10
0
20
0
30
0
70
128
71
-6
72
8
73
5
0
VERTEX
8
OBJECT056
10
0
20
0
30
0
70
128
71
1
72
8
73
-7
0
VERTEX
8
OBJECT056
10
0
20
0
30
0
70
128
71
-1
72
7
73
2
0
VERTEX
8
OBJECT056
10
0
20
0
30
0
70
128
71
3
72
6
73
-5
0
VERTEX
8
OBJECT056
10
0
20
0
30
0
70
128
71
-3
72
5
73
4
0
VERTEX
8
OBJECT056
10
0
20
0
30
0
70
128
71
2
72
7
73
-6
0
VERTEX
8
OBJECT056
10
0
20
0
30
0
70
128
71
-2
72
6
73
3
0
VERTEX
8
OBJECT056
10
0
20
0
30
0
70
128
71
4
72
5
73
-8
0
VERTEX
8
OBJECT056
10
0
20
0
30
0
70
128
71
-4
72
8
73
1
0
SEQEND
8
OBJECT056
0
POLYLINE
8
OBJECT057
66
1
70
64
71
8
72
12
62
50
0
VERTEX
8
OBJECT057
10
384.000000
20
-384.000000
30
32.000000
70
192
0
VERTEX
8
OBJECT057
10
384.000000
20
-468.000000
30
32.000000
70
192
0
VERTEX
8
OBJECT057
10
444.000000
20
-444.000000
30
32.000000
70
192
0
VERTEX
8
OBJECT057
10
468.000000
20
-384.000000
30
32.000000
70
192
0
VERTEX
8
OBJECT057
10
468.000000
20
-384.000000
30
33.000000
70
192
0
VERTEX
8
OBJECT057
10
444.000000
20
-444.000000
30
33.000000
70
192
0
VERTEX
8
OBJECT057
10
384.000000
20
-468.000000
30
33.000000
70
192
0
VERTEX
8
OBJECT057
10
384.000000
20
-384.000000
30
33.000000
70
192
0
VERTEX
8
OBJECT057
10
0
20
0
30
0
70
128
71
2
72
3
73
-4
0
VERTEX
8
OBJECT057
10
0
20
0
30
0
70
128
71
-2
72
4
73
1
0
VERTEX
8
OBJECT057
10
0
20
0
30
0
70
128
71
6
72
7
73
-8
0
VERTEX
8
OBJECT057
10
0
20
0
30
0
70
128
71
-6
72
8
73
5
0
VERTEX
8
OBJECT057
10
0
20
0
30
0
70
128
71
3
72
6
73
-5
0
VERTEX
8
OBJECT057
10
0
20
0
30
0
70
128
71
-3
72
5
73
4
0
VERTEX
8
OBJECT057
10
0
20
0
30
0
70
128
71
1
72
8
73
-7
0
VERTEX
8
OBJECT057
10
0
20
0
30
0
70
128
71
-1
72
7
73
2
0
VERTEX
8
OBJECT057
10
0
20
0
30
0
70
128
71
2
72
7
73
-6
0
VERTEX
8
OBJECT057
10
0
20
0
30
0
70
128
71
-2
72
6
73
3
0
VERTEX
8
OBJECT057
10
0
20
0
30
0
70
128
71
4
72
5
73
-8
0
VERTEX
8
OBJECT057
10
0
20
0
30
0
70
128
71
-4
72
8
73
1
0
SEQEND
8
OBJECT057
0
POLYLINE
8
OBJECT058
66
1
70
64
71
8
72
12
62
50
0
VERTEX
8
OBJECT058
10
300.000000
20
-384.000000
30
32.000000
70
192
0
VERTEX
8
OBJECT058
10
324.000000
20
-444.000000
30
32.000000
70
192
0
VERTEX
8
OBJECT058
10
384.000000
20
-468.000000
30
32.000000
70
192
0
VERTEX
8
OBJECT058
10
384.000000
20
-384.000000
30
32.000000
70
192
0
VERTEX
8
OBJECT058
10
324.000000
20
-444.000000
30
33.000000
70
192
0
VERTEX
8
OBJECT058
10
300.000000
20
-384.000000
30
33.000000
70
192
0
VERTEX
8
OBJECT058
10
384.000000
20
-384.000000
30
33.000000
70
192
0
VERTEX
8
OBJECT058
10
384.000000
20
-468.000000
30
33.000000
70
192
0
VERTEX
8
OBJECT058
10
0
20
0
30
0
70
128
71
2
72
3
73
-4
0
VERTEX
8
OBJECT058
10
0
20
0
30
0
70
128
71
-2
72
4
73
1
0
VERTEX
8
OBJECT058
10
0
20
0
30
0
70
128
71
6
72
7
73
-8
0
VERTEX
8
OBJECT058
10
0
20
0
30
0
70
128
71
-6
72
8
73
5
0
VERTEX
8
OBJECT058
10
0
20
0
30
0
70
128
71
1
72
6
73
-5
0
VERTEX
8
OBJECT058
10
0
20
0
30
0
70
128
71
-1
72
5
73
2
0
VERTEX
8
OBJECT058
10
0
20
0
30
0
70
128
71
3
72
8
73
-7
0
VERTEX
8
OBJECT058
10
0
20
0
30
0
70
128
71
-3
72
7
73
4
0
VERTEX
8
OBJECT058
10
0
20
0
30
0
70
128
71
2
72
5
73
-8
0
VERTEX
8
OBJECT058
10
0
20
0
30
0
70
128
71
-2
72
8
73
3
0
VERTEX
8
OBJECT058
10
0
20
0
30
0
70
128
71
4
72
7
73
-6
0
VERTEX
8
OBJECT058
10
0
20
0
30
0
70
128
71
-4
72
6
73
1
0
SEQEND
8
OBJECT058
0
POLYLINE
8
OBJECT059
66
1
70
64
71
8
72
12
62
50
0
VERTEX
8
OBJECT059
10
315.000000
20
-315.000000
30
0.000000
70
192
0
VERTEX
8
OBJECT059
10
288.000000
20
-384.000000
30
0.000000
70
192
0
VERTEX
8
OBJECT059
10
384.000000
20
-384.000000
30
0.000000
70
192
0
VERTEX
8
OBJECT059
10
384.000000
20
-288.000000
30
0.000000
70
192
0
VERTEX
8
OBJECT059
10
288.000000
20
-384.000000
30
32.000000
70
192
0
VERTEX
8
OBJECT059
10
315.000000
20
-315.000000
30
32.000000
70
192
0
VERTEX
8
OBJECT059
10
384.000000
20
-288.000000
30
32.000000
70
192
0
VERTEX
8
OBJECT059
10
384.000000
20
-384.000000
30
32.000000
70
192
0
VERTEX
8
OBJECT059
10
0
20
0
30
0
70
128
71
2
72
3
73
-4
0
VERTEX
8
OBJECT059
10
0
20
0
30
0
70
128
71
-2
72
4
73
1
0
VERTEX
8
OBJECT059
10
0
20
0
30
0
70
128
71
6
72
7
73
-8
0
VERTEX
8
OBJECT059
10
0
20
0
30
0
70
128
71
-6
72
8
73
5
0
VERTEX
8
OBJECT059
10
0
20
0
30
0
70
128
71
1
72
6
73
-5
0
VERTEX
8
OBJECT059
10
0
20
0
30
0
70
128
71
-1
72
5
73
2
0
VERTEX
8
OBJECT059
10
0
20
0
30
0
70
128
71
3
72
8
73
-7
0
VERTEX
8
OBJECT059
10
0
20
0
30
0
70
128
71
-3
72
7
73
4
0
VERTEX
8
OBJECT059
10
0
20
0
30
0
70
128
71
4
72
7
73
-6
0
VERTEX
8
OBJECT059
10
0
20
0
30
0
70
128
71
-4
72
6
73
1
0
VERTEX
8
OBJECT059
10
0
20
0
30
0
70
128
71
2
72
5
73
-8
0
VERTEX
8
OBJECT059
10
0
20
0
30
0
70
128
71
-2
72
8
73
3
0
SEQEND
8
OBJECT059
0
POLYLINE
8
OBJECT060
66
1
70
64
71
8
72
12
62
50
0
VERTEX
8
OBJECT060
10
288.000000
20
-384.000000
30
0.000000
70
192
0
VERTEX
8
OBJECT060
10
315.000000
20
-453.000000
30
0.000000
70
192
0
VERTEX
8
OBJECT060
10
384.000000
20
-480.000000
30
0.000000
70
192
0
VERTEX
8
OBJECT060
10
384.000000
20
-384.000000
30
0.000000
70
192
0
VERTEX
8
OBJECT060
10
315.000000
20
-453.000000
30
32.000000
70
192
0
VERTEX
8
OBJECT060
10
288.000000
20
-384.000000
30
32.000000
70
192
0
VERTEX
8
OBJECT060
10
384.000000
20
-384.000000
30
32.000000
70
192
0
VERTEX
8
OBJECT060
10
384.000000
20
-480.000000
30
32.000000
70
192
0
VERTEX
8
OBJECT060
10
0
20
0
30
0
70
128
71
2
72
3
73
-4
0
VERTEX
8
OBJECT060
10
0
20
0
30
0
70
128
71
-2
72
4
73
1
0
VERTEX
8
OBJECT060
10
0
20
0
30
0
70
128
71
6
72
7
73
-8
0
VERTEX
8
OBJECT060
10
0
20
0
30
0
70
128
71
-6
72
8
73
5
0
VERTEX
8
OBJECT060
10
0
20
0
30
0
70
128
71
1
72
6
73
-5
0
VERTEX
8
OBJECT060
10
0
20
0
30
0
70
128
71
-1
72
5
73
2
0
VERTEX
8
OBJECT060
10
0
20
0
30
0
70
128
71
3
72
8
73
-7
0
VERTEX
8
OBJECT060
10
0
20
0
30
0
70
128
71
-3
72
7
73
4
0
VERTEX
8
OBJECT060
10
0
20
0
30
0
70
128
71
2
72
5
73
-8
0
VERTEX
8
OBJECT060
10
0
20
0
30
0
70
128
71
-2
72
8
73
3
0
VERTEX
8
OBJECT060
10
0
20
0
30
0
70
128
71
4
72
7
73
-6
0
VERTEX
8
OBJECT060
10
0
20
0
30
0
70
128
71
-4
72
6
73
1
0
SEQEND
8
OBJECT060
0
POLYLINE
8
OBJECT061
66
1
70
64
71
8
72
12
62
50
0
VERTEX
8
OBJECT061
10
384.000000
20
-384.000000
30
0.000000
70
192
0
VERTEX
8
OBJECT061
10
384.000000
20
-480.000000
30
0.000000
70
192
0
VERTEX
8
OBJECT061
10
453.000000
20
-453.000000
30
0.000000
70
192
0
VERTEX
8
OBJECT061
10
480.000000
20
-384.000000
30
0.000000
70
192
0
VERTEX
8
OBJECT061
10
480.000000
20
-384.000000
30
32.000000
70
192
0
VERTEX
8
OBJECT061
10
453.000000
20
-453.000000
30
32.000000
70
192
0
VERTEX
8
OBJECT061
10
384.000000
20
-480.000000
30
32.000000
70
192
0
VERTEX
8
OBJECT061
10
384.000000
20
-384.000000
30
32.000000
70
192
0
VERTEX
8
OBJECT061
10
0
20
0
30
0
70
128
71
2
72
3
73
-4
0
VERTEX
8
OBJECT061
10
0
20
0
30
0
70
128
71
-2
72
4
73
1
0
VERTEX
8
OBJECT061
10
0
20
0
30
0
70
128
71
6
72
7
73
-8
0
VERTEX
8
OBJECT061
10
0
20
0
30
0
70
128
71
-6
72
8
73
5
0
VERTEX
8
OBJECT061
10
0
20
0
30
0
70
128
71
3
72
6
73
-5
0
VERTEX
8
OBJECT061
10
0
20
0
30
0
70
128
71
-3
72
5
73
4
0
VERTEX
8
OBJECT061
10
0
20
0
30
0
70
128
71
1
72
8
73
-7
0
VERTEX
8
OBJECT061
10
0
20
0
30
0
70
128
71
-1
72
7
73
2
0
VERTEX
8
OBJECT061
10
0
20
0
30
0
70
128
71
2
72
7
73
-6
0
VERTEX
8
OBJECT061
10
0
20
0
30
0
70
128
71
-2
72
6
73
3
0
VERTEX
8
OBJECT061
10
0
20
0
30
0
70
128
71
4
72
5
73
-8
0
VERTEX
8
OBJECT061
10
0
20
0
30
0
70
128
71
-4
72
8
73
1
0
SEQEND
8
OBJECT061
0
POLYLINE
8
OBJECT062
66
1
70
64
71
8
72
12
62
50
0
VERTEX
8
OBJECT062
10
480.000000
20
-384.000000
30
0.000000
70
192
0
VERTEX
8
OBJECT062
10
453.000000
20
-315.000000
30
0.000000
70
192
0
VERTEX
8
OBJECT062
10
384.000000
20
-288.000000
30
0.000000
70
192
0
VERTEX
8
OBJECT062
10
384.000000
20
-384.000000
30
0.000000
70
192
0
VERTEX
8
OBJECT062
10
384.000000
20
-384.000000
30
32.000000
70
192
0
VERTEX
8
OBJECT062
10
384.000000
20
-288.000000
30
32.000000
70
192
0
VERTEX
8
OBJECT062
10
453.000000
20
-315.000000
30
32.000000
70
192
0
VERTEX
8
OBJECT062
10
480.000000
20
-384.000000
30
32.000000
70
192
0
VERTEX
8
OBJECT062
10
0
20
0
30
0
70
128
71
2
72
3
73
-4
0
VERTEX
8
OBJECT062
10
0
20
0
30
0
70
128
71
-2
72
4
73
1
0
VERTEX
8
OBJECT062
10
0
20
0
30
0
70
128
71
6
72
7
73
-8
0
VERTEX
8
OBJECT062
10
0
20
0
30
0
70
128
71
-6
72
8
73
5
0
VERTEX
8
OBJECT062
10
0
20
0
30
0
70
128
71
1
72
8
73
-7
0
VERTEX
8
OBJECT062
10
0
20
0
30
0
70
128
71
-1
72
7
73
2
0
VERTEX
8
OBJECT062
10
0
20
0
30
0
70
128
71
3
72
6
73
-5
0
VERTEX
8
OBJECT062
10
0
20
0
30
0
70
128
71
-3
72
5
73
4
0
VERTEX
8
OBJECT062
10
0
20
0
30
0
70
128
71
2
72
7
73
-6
0
VERTEX
8
OBJECT062
10
0
20
0
30
0
70
128
71
-2
72
6
73
3
0
VERTEX
8
OBJECT062
10
0
20
0
30
0
70
128
71
4
72
5
73
-8
0
VERTEX
8
OBJECT062
10
0
20
0
30
0
70
128
71
-4
72
8
73
1
0
SEQEND
8
OBJECT062
0
POLYLINE
8
OBJECT063
66
1
70
64
71
106
72
208
62
50
0
VERTEX
8
OBJECT063
10
392.926392
20
-375.000000
30
157.562881
70
192
0
VERTEX
8
OBJECT063
10
383.926392
20
-384.000000
30
160.000000
70
192
0
VERTEX
8
OBJECT063
10
383.926392
20
-372.000000
30
157.562881
70
192
0
VERTEX
8
OBJECT063
10
395.926392
20
-384.000000
30
157.563644
70
192
0
VERTEX
8
OBJECT063
10
392.926392
20
-393.000000
30
157.564011
70
192
0
VERTEX
8
OBJECT063
10
383.926392
20
-396.000000
30
157.563873
70
192
0
VERTEX
8
OBJECT063
10
374.926392
20
-393.000000
30
157.563599
70
192
0
VERTEX
8
OBJECT063
10
371.926392
20
-384.000000
30
157.563431
70
192
0
VERTEX
8
OBJECT063
10
374.926392
20
-375.000000
30
157.564407
70
192
0
VERTEX
8
OBJECT063
10
386.329163
20
-362.236664
30
150.902039
70
192
0
VERTEX
8
OBJECT063
10
397.837982
20
-368.158752
30
152.217422
70
192
0
VERTEX
8
OBJECT063
10
405.690063
20
-386.402069
30
150.901962
70
192
0
VERTEX
8
OBJECT063
10
399.926392
20
-368.000000
30
150.626373
70
192
0
VERTEX
8
OBJECT063
10
408.665039
20
-383.947418
30
148.082687
70
192
0
VERTEX
8
OBJECT063
10
399.768921
20
-397.914093
30
152.213867
70
192
0
VERTEX
8
OBJECT063
10
381.525665
20
-405.764130
30
150.902206
70
192
0
VERTEX
8
OBJECT063
10
399.926392
20
-400.000000
30
150.628128
70
192
0
VERTEX
8
OBJECT063
10
383.978882
20
-408.737396
30
148.084549
70
192
0
VERTEX
8
OBJECT063
10
370.012390
20
-399.841919
30
152.214874
70
192
0
VERTEX
8
OBJECT063
10
362.162201
20
-381.599213
30
150.902100
70
192
0
VERTEX
8
OBJECT063
10
367.926392
20
-400.000000
30
150.627975
70
192
0
VERTEX
8
OBJECT063
10
359.188934
20
-384.052460
30
148.084412
70
192
0
VERTEX
8
OBJECT063
10
368.085266
20
-370.086212
30
152.216217
70
192
0
VERTEX
8
OBJECT063
10
367.926392
20
-368.000000
30
150.626907
70
192
0
VERTEX
8
OBJECT063
10
383.873871
20
-359.261749
30
148.083237
70
192
0
VERTEX
8
OBJECT063
10
405.025421
20
-363.233551
30
140.250519
70
192
0
VERTEX
8
OBJECT063
10
383.720856
20
-354.182434
30
140.650452
70
192
0
VERTEX
8
OBJECT063
10
383.926392
20
-354.000000
30
140.246689
70
192
0
VERTEX
8
OBJECT063
10
404.999939
20
-362.971466
30
139.878433
70
192
0
VERTEX
8
OBJECT063
10
413.743713
20
-383.793976
30
140.650497
70
192
0
VERTEX
8
OBJECT063
10
404.691986
20
-405.099335
30
140.250687
70
192
0
VERTEX
8
OBJECT063
10
413.926392
20
-384.000000
30
140.245392
70
192
0
VERTEX
8
OBJECT063
10
404.955048
20
-405.073730
30
139.877197
70
192
0
VERTEX
8
OBJECT063
10
384.133972
20
-413.815857
30
140.653793
70
192
0
VERTEX
8
OBJECT063
10
362.827057
20
-404.765778
30
140.250504
70
192
0
VERTEX
8
OBJECT063
10
383.926392
20
-414.000000
30
140.245529
70
192
0
VERTEX
8
OBJECT063
10
362.852631
20
-405.028595
30
139.877350
70
192
0
VERTEX
8
OBJECT063
10
354.108826
20
-384.205719
30
140.650040
70
192
0
VERTEX
8
OBJECT063
10
363.158325
20
-362.901642
30
140.250504
70
192
0
VERTEX
8
OBJECT063
10
353.926392
20
-384.000000
30
140.249283
70
192
0
VERTEX
8
OBJECT063
10
362.898102
20
-362.926941
30
139.881012
70
192
0
VERTEX
8
OBJECT063
10
407.359619
20
-362.057434
30
128.085602
70
192
0
VERTEX
8
OBJECT063
10
383.071930
20
-351.927155
30
129.792053
70
192
0
VERTEX
8
OBJECT063
10
383.926392
20
-352.000000
30
128.000000
70
192
0
VERTEX
8
OBJECT063
10
406.430847
20
-361.225739
30
125.430420
70
192
0
VERTEX
8
OBJECT063
10
415.999695
20
-383.144989
30
129.795013
70
192
0
VERTEX
8
OBJECT063
10
405.868164
20
-407.433563
30
128.085602
70
192
0
VERTEX
8
OBJECT063
10
415.926392
20
-384.000000
30
128.000000
70
192
0
VERTEX
8
OBJECT063
10
406.700470
20
-406.504059
30
125.428406
70
192
0
VERTEX
8
OBJECT063
10
384.778839
20
-416.073059
30
129.789566
70
192
0
VERTEX
8
OBJECT063
10
360.492767
20
-405.941589
30
128.085632
70
192
0
VERTEX
8
OBJECT063
10
383.926392
20
-416.000000
30
128.000000
70
192
0
VERTEX
8
OBJECT063
10
361.422363
20
-406.774017
30
125.428055
70
192
0
VERTEX
8
OBJECT063
10
351.853241
20
-384.853516
30
129.791748
70
192
0
VERTEX
8
OBJECT063
10
361.985382
20
-360.566101
30
128.085724
70
192
0
VERTEX
8
OBJECT063
10
351.926392
20
-384.000000
30
128.000000
70
192
0
VERTEX
8
OBJECT063
10
361.152496
20
-361.496246
30
125.426636
70
192
0
VERTEX
8
OBJECT063
10
384.926392
20
-354.376770
30
115.827377
70
192
0
VERTEX
8
OBJECT063
10
404.859161
20
-361.941193
30
117.281494
70
192
0
VERTEX
8
OBJECT063
10
404.926392
20
-363.000000
30
115.756165
70
192
0
VERTEX
8
OBJECT063
10
412.769501
20
-384.027252
30
114.055679
70
192
0
VERTEX
8
OBJECT063
10
413.549683
20
-385.000000
30
115.826370
70
192
0
VERTEX
8
OBJECT063
10
405.983978
20
-404.932831
30
117.279724
70
192
0
VERTEX
8
OBJECT063
10
404.926392
20
-405.000000
30
115.753281
70
192
0
VERTEX
8
OBJECT063
10
383.899078
20
-412.841217
30
114.052856
70
192
0
VERTEX
8
OBJECT063
10
382.926392
20
-413.622681
30
115.826508
70
192
0
VERTEX
8
OBJECT063
10
362.993622
20
-406.058868
30
117.281525
70
192
0
VERTEX
8
OBJECT063
10
362.926392
20
-405.000000
30
115.750931
70
192
0
VERTEX
8
OBJECT063
10
355.086731
20
-383.972687
30
114.050598
70
192
0
VERTEX
8
OBJECT063
10
354.304169
20
-383.000000
30
115.826660
70
192
0
VERTEX
8
OBJECT063
10
361.868011
20
-363.067200
30
117.280884
70
192
0
VERTEX
8
OBJECT063
10
362.926392
20
-363.000000
30
115.752014
70
192
0
VERTEX
8
OBJECT063
10
383.953735
20
-355.159637
30
114.051651
70
192
0
VERTEX
8
OBJECT063
10
384.092651
20
-361.070770
30
105.374237
70
192
0
VERTEX
8
OBJECT063
10
399.926392
20
-367.752747
30
105.529388
70
192
0
VERTEX
8
OBJECT063
10
399.926392
20
-368.000000
30
105.373474
70
192
0
VERTEX
8
OBJECT063
10
406.643127
20
-383.971161
30
105.186401
70
192
0
VERTEX
8
OBJECT063
10
406.856232
20
-384.166260
30
105.374634
70
192
0
VERTEX
8
OBJECT063
10
400.172821
20
-400.000000
30
105.528870
70
192
0
VERTEX
8
OBJECT063
10
399.926392
20
-400.000000
30
105.372375
70
192
0
VERTEX
8
OBJECT063
10
383.955383
20
-406.715118
30
105.185333
70
192
0
VERTEX
8
OBJECT063
10
383.759155
20
-406.929474
30
105.374664
70
192
0
VERTEX
8
OBJECT063
10
367.926392
20
-400.249084
30
105.530548
70
192
0
VERTEX
8
OBJECT063
10
360.996735
20
-383.833405
30
105.374573
70
192
0
VERTEX
8
OBJECT063
10
367.926392
20
-400.000000
30
105.373047
70
192
0
VERTEX
8
OBJECT063
10
361.210236
20
-384.028839
30
105.186035
70
192
0
VERTEX
8
OBJECT063
10
367.676605
20
-368.000000
30
105.530945
70
192
0
VERTEX
8
OBJECT063
10
367.926392
20
-368.000000
30
105.371704
70
192
0
VERTEX
8
OBJECT063
10
383.897278
20
-361.285858
30
105.184692
70
192
0
VERTEX
8
OBJECT063
10
382.893982
20
-371.167755
30
98.674698
70
192
0
VERTEX
8
OBJECT063
10
383.926392
20
-372.000000
30
98.436462
70
192
0
VERTEX
8
OBJECT063
10
391.998566
20
-375.927887
30
98.184769
70
192
0
VERTEX
8
OBJECT063
10
393.463959
20
-376.117676
30
98.469391
70
192
0
VERTEX
8
OBJECT063
10
396.760162
20
-382.962219
30
98.675369
70
192
0
VERTEX
8
OBJECT063
10
395.926392
20
-384.000000
30
98.435684
70
192
0
VERTEX
8
OBJECT063
10
391.995911
20
-392.069550
30
98.184067
70
192
0
VERTEX
8
OBJECT063
10
391.805603
20
-393.539063
30
98.469482
70
192
0
VERTEX
8
OBJECT063
10
384.961945
20
-396.831970
30
98.674850
70
192
0
VERTEX
8
OBJECT063
10
374.388367
20
-391.881409
30
98.469421
70
192
0
VERTEX
8
OBJECT063
10
383.926392
20
-396.000000
30
98.436249
70
192
0
VERTEX
8
OBJECT063
10
375.855011
20
-392.071381
30
98.184570
70
192
0
VERTEX
8
OBJECT063
10
371.093140
20
-385.037079
30
98.675232
70
192
0
VERTEX
8
OBJECT063
10
376.050201
20
-374.459473
30
98.469574
70
192
0
VERTEX
8
OBJECT063
10
371.926392
20
-384.000000
30
98.434937
70
192
0
VERTEX
8
OBJECT063
10
375.859344
20
-375.932953
30
98.183380
70
192
0
VERTEX
8
OBJECT063
10
383.926392
20
-384.000000
30
96.000000
70
192
0
VERTEX
8
OBJECT063
10
0
20
0
30
0
70
128
71
2
72
3
73
1
0
VERTEX
8
OBJECT063
10
0
20
0
30
0
70
128
71
2
72
1
73
4
0
VERTEX
8
OBJECT063
10
0
20
0
30
0
70
128
71
2
72
4
73
5
0
VERTEX
8
OBJECT063
10
0
20
0
30
0
70
128
71
2
72
5
73
6
0
VERTEX
8
OBJECT063
10
0
20
0
30
0
70
128
71
2
72
6
73
7
0
VERTEX
8
OBJECT063
10
0
20
0
30
0
70
128
71
2
72
7
73
8
0
VERTEX
8
OBJECT063
10
0
20
0
30
0
70
128
71
2
72
8
73
9
0
VERTEX
8
OBJECT063
10
0
20
0
30
0
70
128
71
2
72
9
73
3
0
VERTEX
8
OBJECT063
10
0
20
0
30
0
70
128
71
3
72
10
73
-11
0
VERTEX
8
OBJECT063
10
0
20
0
30
0
70
128
71
-3
72
11
73
1
0
VERTEX
8
OBJECT063
10
0
20
0
30
0
70
128
71
4
72
1
73
-11
0
VERTEX
8
OBJECT063
10
0
20
0
30
0
70
128
71
-4
72
11
73
-13
0
VERTEX
8
OBJECT063
10
0
20
0
30
0
70
128
71
-4
72
13
73
-14
0
VERTEX
8
OBJECT063
10
0
20
0
30
0
70
128
71
-4
72
14
73
12
0
VERTEX
8
OBJECT063
10
0
20
0
30
0
70
128
71
5
72
4
73
-12
0
VERTEX
8
OBJECT063
10
0
20
0
30
0
70
128
71
-5
72
12
73
15
0
VERTEX
8
OBJECT063
10
0
20
0
30
0
70
128
71
6
72
5
73
-15
0
VERTEX
8
OBJECT063
10
0
20
0
30
0
70
128
71
-6
72
15
73
-17
0
VERTEX
8
OBJECT063
10
0
20
0
30
0
70
128
71
-6
72
17
73
-18
0
VERTEX
8
OBJECT063
10
0
20
0
30
0
70
128
71
-6
72
18
73
16
0
VERTEX
8
OBJECT063
10
0
20
0
30
0
70
128
71
7
72
6
73
-16
0
VERTEX
8
OBJECT063
10
0
20
0
30
0
70
128
71
-7
72
16
73
19
0
VERTEX
8
OBJECT063
10
0
20
0
30
0
70
128
71
8
72
7
73
-19
0
VERTEX
8
OBJECT063
10
0
20
0
30
0
70
128
71
-8
72
19
73
-21
0
VERTEX
8
OBJECT063
10
0
20
0
30
0
70
128
71
-8
72
21
73
-22
0
VERTEX
8
OBJECT063
10
0
20
0
30
0
70
128
71
-8
72
22
73
20
0
VERTEX
8
OBJECT063
10
0
20
0
30
0
70
128
71
9
72
8
73
-20
0
VERTEX
8
OBJECT063
10
0
20
0
30
0
70
128
71
-9
72
20
73
23
0
VERTEX
8
OBJECT063
10
0
20
0
30
0
70
128
71
9
72
23
73
-24
0
VERTEX
8
OBJECT063
10
0
20
0
30
0
70
128
71
-9
72
24
73
-25
0
VERTEX
8
OBJECT063
10
0
20
0
30
0
70
128
71
-9
72
25
73
-10
0
VERTEX
8
OBJECT063
10
0
20
0
30
0
70
128
71
-9
72
10
73
3
0
VERTEX
8
OBJECT063
10
0
20
0
30
0
70
128
71
13
72
11
73
-10
0
VERTEX
8
OBJECT063
10
0
20
0
30
0
70
128
71
-13
72
10
73
-25
0
VERTEX
8
OBJECT063
10
0
20
0
30
0
70
128
71
-13
72
25
73
-27
0
VERTEX
8
OBJECT063
10
0
20
0
30
0
70
128
71
-13
72
27
73
-28
0
VERTEX
8
OBJECT063
10
0
20
0
30
0
70
128
71
-13
72
28
73
-29
0
VERTEX
8
OBJECT063
10
0
20
0
30
0
70
128
71
-13
72
29
73
26
0
VERTEX
8
OBJECT063
10
0
20
0
30
0
70
128
71
14
72
13
73
-26
0
VERTEX
8
OBJECT063
10
0
20
0
30
0
70
128
71
-14
72
26
73
30
0
VERTEX
8
OBJECT063
10
0
20
0
30
0
70
128
71
17
72
15
73
-12
0
VERTEX
8
OBJECT063
10
0
20
0
30
0
70
128
71
-17
72
12
73
-14
0
VERTEX
8
OBJECT063
10
0
20
0
30
0
70
128
71
-17
72
14
73
-30
0
VERTEX
8
OBJECT063
10
0
20
0
30
0
70
128
71
-17
72
30
73
-32
0
VERTEX
8
OBJECT063
10
0
20
0
30
0
70
128
71
-17
72
32
73
-33
0
VERTEX
8
OBJECT063
10
0
20
0
30
0
70
128
71
-17
72
33
73
31
0
VERTEX
8
OBJECT063
10
0
20
0
30
0
70
128
71
18
72
17
73
-31
0
VERTEX
8
OBJECT063
10
0
20
0
30
0
70
128
71
-18
72
31
73
34
0
VERTEX
8
OBJECT063
10
0
20
0
30
0
70
128
71
21
72
19
73
-16
0
VERTEX
8
OBJECT063
10
0
20
0
30
0
70
128
71
-21
72
16
73
-18
0
VERTEX
8
OBJECT063
10
0
20
0
30
0
70
128
71
-21
72
18
73
-34
0
VERTEX
8
OBJECT063
10
0
20
0
30
0
70
128
71
-21
72
34
73
-36
0
VERTEX
8
OBJECT063
10
0
20
0
30
0
70
128
71
-21
72
36
73
-37
0
VERTEX
8
OBJECT063
10
0
20
0
30
0
70
128
71
-21
72
37
73
35
0
VERTEX
8
OBJECT063
10
0
20
0
30
0
70
128
71
22
72
21
73
-35
0
VERTEX
8
OBJECT063
10
0
20
0
30
0
70
128
71
-22
72
35
73
38
0
VERTEX
8
OBJECT063
10
0
20
0
30
0
70
128
71
24
72
23
73
-20
0
VERTEX
8
OBJECT063
10
0
20
0
30
0
70
128
71
-24
72
20
73
-22
0
VERTEX
8
OBJECT063
10
0
20
0
30
0
70
128
71
-24
72
22
73
-38
0
VERTEX
8
OBJECT063
10
0
20
0
30
0
70
128
71
-24
72
38
73
-40
0
VERTEX
8
OBJECT063
10
0
20
0
30
0
70
128
71
-24
72
40
73
-41
0
VERTEX
8
OBJECT063
10
0
20
0
30
0
70
128
71
-24
72
41
73
39
0
VERTEX
8
OBJECT063
10
0
20
0
30
0
70
128
71
25
72
24
73
-39
0
VERTEX
8
OBJECT063
10
0
20
0
30
0
70
128
71
-25
72
39
73
27
0
VERTEX
8
OBJECT063
10
0
20
0
30
0
70
128
71
29
72
28
73
-43
0
VERTEX
8
OBJECT063
10
0
20
0
30
0
70
128
71
-29
72
43
73
-44
0
VERTEX
8
OBJECT063
10
0
20
0
30
0
70
128
71
-29
72
44
73
-45
0
VERTEX
8
OBJECT063
10
0
20
0
30
0
70
128
71
-29
72
45
73
42
0
VERTEX
8
OBJECT063
10
0
20
0
30
0
70
128
71
30
72
26
73
-29
0
VERTEX
8
OBJECT063
10
0
20
0
30
0
70
128
71
-30
72
29
73
-42
0
VERTEX
8
OBJECT063
10
0
20
0
30
0
70
128
71
-30
72
42
73
-46
0
VERTEX
8
OBJECT063
10
0
20
0
30
0
70
128
71
-30
72
46
73
32
0
VERTEX
8
OBJECT063
10
0
20
0
30
0
70
128
71
33
72
32
73
-46
0
VERTEX
8
OBJECT063
10
0
20
0
30
0
70
128
71
-33
72
46
73
-48
0
VERTEX
8
OBJECT063
10
0
20
0
30
0
70
128
71
-33
72
48
73
-49
0
VERTEX
8
OBJECT063
10
0
20
0
30
0
70
128
71
-33
72
49
73
47
0
VERTEX
8
OBJECT063
10
0
20
0
30
0
70
128
71
34
72
31
73
-33
0
VERTEX
8
OBJECT063
10
0
20
0
30
0
70
128
71
-34
72
33
73
-47
0
VERTEX
8
OBJECT063
10
0
20
0
30
0
70
128
71
-34
72
47
73
-50
0
VERTEX
8
OBJECT063
10
0
20
0
30
0
70
128
71
-34
72
50
73
36
0
VERTEX
8
OBJECT063
10
0
20
0
30
0
70
128
71
37
72
36
73
-50
0
VERTEX
8
OBJECT063
10
0
20
0
30
0
70
128
71
-37
72
50
73
-52
0
VERTEX
8
OBJECT063
10
0
20
0
30
0
70
128
71
-37
72
52
73
-53
0
VERTEX
8
OBJECT063
10
0
20
0
30
0
70
128
71
-37
72
53
73
51
0
VERTEX
8
OBJECT063
10
0
20
0
30
0
70
128
71
38
72
35
73
-37
0
VERTEX
8
OBJECT063
10
0
20
0
30
0
70
128
71
-38
72
37
73
-51
0
VERTEX
8
OBJECT063
10
0
20
0
30
0
70
128
71
-38
72
51
73
-54
0
VERTEX
8
OBJECT063
10
0
20
0
30
0
70
128
71
-38
72
54
73
40
0
VERTEX
8
OBJECT063
10
0
20
0
30
0
70
128
71
41
72
40
73
-54
0
VERTEX
8
OBJECT063
10
0
20
0
30
0
70
128
71
-41
72
54
73
-56
0
VERTEX
8
OBJECT063
10
0
20
0
30
0
70
128
71
-41
72
56
73
-57
0
VERTEX
8
OBJECT063
10
0
20
0
30
0
70
128
71
-41
72
57
73
55
0
VERTEX
8
OBJECT063
10
0
20
0
30
0
70
128
71
28
72
27
73
-39
0
VERTEX
8
OBJECT063
10
0
20
0
30
0
70
128
71
-28
72
39
73
-41
0
VERTEX
8
OBJECT063
10
0
20
0
30
0
70
128
71
-28
72
41
73
-55
0
VERTEX
8
OBJECT063
10
0
20
0
30
0
70
128
71
-28
72
55
73
43
0
VERTEX
8
OBJECT063
10
0
20
0
30
0
70
128
71
44
72
58
73
-59
0
VERTEX
8
OBJECT063
10
0
20
0
30
0
70
128
71
-44
72
59
73
45
0
VERTEX
8
OBJECT063
10
0
20
0
30
0
70
128
71
46
72
42
73
-45
0
VERTEX
8
OBJECT063
10
0
20
0
30
0
70
128
71
-46
72
45
73
-59
0
VERTEX
8
OBJECT063
10
0
20
0
30
0
70
128
71
-46
72
59
73
-60
0
VERTEX
8
OBJECT063
10
0
20
0
30
0
70
128
71
-46
72
60
73
-61
0
VERTEX
8
OBJECT063
10
0
20
0
30
0
70
128
71
-46
72
61
73
-62
0
VERTEX
8
OBJECT063
10
0
20
0
30
0
70
128
71
-46
72
62
73
48
0
VERTEX
8
OBJECT063
10
0
20
0
30
0
70
128
71
48
72
62
73
-63
0
VERTEX
8
OBJECT063
10
0
20
0
30
0
70
128
71
-48
72
63
73
49
0
VERTEX
8
OBJECT063
10
0
20
0
30
0
70
128
71
50
72
47
73
-49
0
VERTEX
8
OBJECT063
10
0
20
0
30
0
70
128
71
-50
72
49
73
-63
0
VERTEX
8
OBJECT063
10
0
20
0
30
0
70
128
71
-50
72
63
73
-64
0
VERTEX
8
OBJECT063
10
0
20
0
30
0
70
128
71
-50
72
64
73
-65
0
VERTEX
8
OBJECT063
10
0
20
0
30
0
70
128
71
-50
72
65
73
-66
0
VERTEX
8
OBJECT063
10
0
20
0
30
0
70
128
71
-50
72
66
73
52
0
VERTEX
8
OBJECT063
10
0
20
0
30
0
70
128
71
52
72
66
73
-67
0
VERTEX
8
OBJECT063
10
0
20
0
30
0
70
128
71
-52
72
67
73
53
0
VERTEX
8
OBJECT063
10
0
20
0
30
0
70
128
71
54
72
51
73
-53
0
VERTEX
8
OBJECT063
10
0
20
0
30
0
70
128
71
-54
72
53
73
-67
0
VERTEX
8
OBJECT063
10
0
20
0
30
0
70
128
71
-54
72
67
73
-68
0
VERTEX
8
OBJECT063
10
0
20
0
30
0
70
128
71
-54
72
68
73
-69
0
VERTEX
8
OBJECT063
10
0
20
0
30
0
70
128
71
-54
72
69
73
-70
0
VERTEX
8
OBJECT063
10
0
20
0
30
0
70
128
71
-54
72
70
73
56
0
VERTEX
8
OBJECT063
10
0
20
0
30
0
70
128
71
56
72
70
73
-71
0
VERTEX
8
OBJECT063
10
0
20
0
30
0
70
128
71
-56
72
71
73
57
0
VERTEX
8
OBJECT063
10
0
20
0
30
0
70
128
71
44
72
43
73
-55
0
VERTEX
8
OBJECT063
10
0
20
0
30
0
70
128
71
-44
72
55
73
-57
0
VERTEX
8
OBJECT063
10
0
20
0
30
0
70
128
71
-44
72
57
73
-71
0
VERTEX
8
OBJECT063
10
0
20
0
30
0
70
128
71
-44
72
71
73
-72
0
VERTEX
8
OBJECT063
10
0
20
0
30
0
70
128
71
-44
72
72
73
-73
0
VERTEX
8
OBJECT063
10
0
20
0
30
0
70
128
71
-44
72
73
73
58
0
VERTEX
8
OBJECT063
10
0
20
0
30
0
70
128
71
58
72
73
73
-74
0
VERTEX
8
OBJECT063
10
0
20
0
30
0
70
128
71
-58
72
74
73
-75
0
VERTEX
8
OBJECT063
10
0
20
0
30
0
70
128
71
-58
72
75
73
-60
0
VERTEX
8
OBJECT063
10
0
20
0
30
0
70
128
71
-58
72
60
73
59
0
VERTEX
8
OBJECT063
10
0
20
0
30
0
70
128
71
60
72
75
73
-76
0
VERTEX
8
OBJECT063
10
0
20
0
30
0
70
128
71
-60
72
76
73
-77
0
VERTEX
8
OBJECT063
10
0
20
0
30
0
70
128
71
-60
72
77
73
-78
0
VERTEX
8
OBJECT063
10
0
20
0
30
0
70
128
71
-60
72
78
73
61
0
VERTEX
8
OBJECT063
10
0
20
0
30
0
70
128
71
62
72
61
73
-78
0
VERTEX
8
OBJECT063
10
0
20
0
30
0
70
128
71
-62
72
78
73
-79
0
VERTEX
8
OBJECT063
10
0
20
0
30
0
70
128
71
-62
72
79
73
-64
0
VERTEX
8
OBJECT063
10
0
20
0
30
0
70
128
71
-62
72
64
73
63
0
VERTEX
8
OBJECT063
10
0
20
0
30
0
70
128
71
64
72
79
73
-80
0
VERTEX
8
OBJECT063
10
0
20
0
30
0
70
128
71
-64
72
80
73
-81
0
VERTEX
8
OBJECT063
10
0
20
0
30
0
70
128
71
-64
72
81
73
-82
0
VERTEX
8
OBJECT063
10
0
20
0
30
0
70
128
71
-64
72
82
73
65
0
VERTEX
8
OBJECT063
10
0
20
0
30
0
70
128
71
66
72
65
73
-82
0
VERTEX
8
OBJECT063
10
0
20
0
30
0
70
128
71
-66
72
82
73
-83
0
VERTEX
8
OBJECT063
10
0
20
0
30
0
70
128
71
-66
72
83
73
-68
0
VERTEX
8
OBJECT063
10
0
20
0
30
0
70
128
71
-66
72
68
73
67
0
VERTEX
8
OBJECT063
10
0
20
0
30
0
70
128
71
69
72
68
73
-83
0
VERTEX
8
OBJECT063
10
0
20
0
30
0
70
128
71
-69
72
83
73
-85
0
VERTEX
8
OBJECT063
10
0
20
0
30
0
70
128
71
-69
72
85
73
-86
0
VERTEX
8
OBJECT063
10
0
20
0
30
0
70
128
71
-69
72
86
73
84
0
VERTEX
8
OBJECT063
10
0
20
0
30
0
70
128
71
70
72
69
73
-84
0
VERTEX
8
OBJECT063
10
0
20
0
30
0
70
128
71
-70
72
84
73
-87
0
VERTEX
8
OBJECT063
10
0
20
0
30
0
70
128
71
-70
72
87
73
-72
0
VERTEX
8
OBJECT063
10
0
20
0
30
0
70
128
71
-70
72
72
73
71
0
VERTEX
8
OBJECT063
10
0
20
0
30
0
70
128
71
73
72
72
73
-87
0
VERTEX
8
OBJECT063
10
0
20
0
30
0
70
128
71
-73
72
87
73
-88
0
VERTEX
8
OBJECT063
10
0
20
0
30
0
70
128
71
-73
72
88
73
-89
0
VERTEX
8
OBJECT063
10
0
20
0
30
0
70
128
71
-73
72
89
73
74
0
VERTEX
8
OBJECT063
10
0
20
0
30
0
70
128
71
75
72
74
73
-89
0
VERTEX
8
OBJECT063
10
0
20
0
30
0
70
128
71
-75
72
89
73
-90
0
VERTEX
8
OBJECT063
10
0
20
0
30
0
70
128
71
-75
72
90
73
-91
0
VERTEX
8
OBJECT063
10
0
20
0
30
0
70
128
71
-75
72
91
73
-92
0
VERTEX
8
OBJECT063
10
0
20
0
30
0
70
128
71
-75
72
92
73
-93
0
VERTEX
8
OBJECT063
10
0
20
0
30
0
70
128
71
-75
72
93
73
76
0
VERTEX
8
OBJECT063
10
0
20
0
30
0
70
128
71
76
72
93
73
-94
0
VERTEX
8
OBJECT063
10
0
20
0
30
0
70
128
71
-76
72
94
73
77
0
VERTEX
8
OBJECT063
10
0
20
0
30
0
70
128
71
77
72
94
73
-95
0
VERTEX
8
OBJECT063
10
0
20
0
30
0
70
128
71
-77
72
95
73
-96
0
VERTEX
8
OBJECT063
10
0
20
0
30
0
70
128
71
-77
72
96
73
-97
0
VERTEX
8
OBJECT063
10
0
20
0
30
0
70
128
71
-77
72
97
73
-80
0
VERTEX
8
OBJECT063
10
0
20
0
30
0
70
128
71
-77
72
80
73
-79
0
VERTEX
8
OBJECT063
10
0
20
0
30
0
70
128
71
-77
72
79
73
78
0
VERTEX
8
OBJECT063
10
0
20
0
30
0
70
128
71
80
72
97
73
-98
0
VERTEX
8
OBJECT063
10
0
20
0
30
0
70
128
71
-80
72
98
73
81
0
VERTEX
8
OBJECT063
10
0
20
0
30
0
70
128
71
85
72
83
73
-82
0
VERTEX
8
OBJECT063
10
0
20
0
30
0
70
128
71
-85
72
82
73
-81
0
VERTEX
8
OBJECT063
10
0
20
0
30
0
70
128
71
-85
72
81
73
-98
0
VERTEX
8
OBJECT063
10
0
20
0
30
0
70
128
71
-85
72
98
73
-100
0
VERTEX
8
OBJECT063
10
0
20
0
30
0
70
128
71
-85
72
100
73
-101
0
VERTEX
8
OBJECT063
10
0
20
0
30
0
70
128
71
-85
72
101
73
99
0
VERTEX
8
OBJECT063
10
0
20
0
30
0
70
128
71
85
72
99
73
-102
0
VERTEX
8
OBJECT063
10
0
20
0
30
0
70
128
71
-85
72
102
73
86
0
VERTEX
8
OBJECT063
10
0
20
0
30
0
70
128
71
88
72
87
73
-84
0
VERTEX
8
OBJECT063
10
0
20
0
30
0
70
128
71
-88
72
84
73
-86
0
VERTEX
8
OBJECT063
10
0
20
0
30
0
70
128
71
-88
72
86
73
-102
0
VERTEX
8
OBJECT063
10
0
20
0
30
0
70
128
71
-88
72
102
73
-104
0
VERTEX
8
OBJECT063
10
0
20
0
30
0
70
128
71
-88
72
104
73
-105
0
VERTEX
8
OBJECT063
10
0
20
0
30
0
70
128
71
-88
72
105
73
103
0
VERTEX
8
OBJECT063
10
0
20
0
30
0
70
128
71
89
72
88
73
-103
0
VERTEX
8
OBJECT063
10
0
20
0
30
0
70
128
71
-89
72
103
73
90
0
VERTEX
8
OBJECT063
10
0
20
0
30
0
70
128
71
91
72
106
73
92
0
VERTEX
8
OBJECT063
10
0
20
0
30
0
70
128
71
94
72
93
73
-92
0
VERTEX
8
OBJECT063
10
0
20
0
30
0
70
128
71
-94
72
92
73
-106
0
VERTEX
8
OBJECT063
10
0
20
0
30
0
70
128
71
-94
72
106
73
95
0
VERTEX
8
OBJECT063
10
0
20
0
30
0
70
128
71
95
72
106
73
96
0
VERTEX
8
OBJECT063
10
0
20
0
30
0
70
128
71
98
72
97
73
-96
0
VERTEX
8
OBJECT063
10
0
20
0
30
0
70
128
71
-98
72
96
73
-106
0
VERTEX
8
OBJECT063
10
0
20
0
30
0
70
128
71
-98
72
106
73
100
0
VERTEX
8
OBJECT063
10
0
20
0
30
0
70
128
71
100
72
106
73
101
0
VERTEX
8
OBJECT063
10
0
20
0
30
0
70
128
71
99
72
101
73
-106
0
VERTEX
8
OBJECT063
10
0
20
0
30
0
70
128
71
-99
72
106
73
-104
0
VERTEX
8
OBJECT063
10
0
20
0
30
0
70
128
71
-99
72
104
73
102
0
VERTEX
8
OBJECT063
10
0
20
0
30
0
70
128
71
104
72
106
73
105
0
VERTEX
8
OBJECT063
10
0
20
0
30
0
70
128
71
90
72
103
73
-105
0
VERTEX
8
OBJECT063
10
0
20
0
30
0
70
128
71
-90
72
105
73
-106
0
VERTEX
8
OBJECT063
10
0
20
0
30
0
70
128
71
-90
72
106
73
91
0
SEQEND
8
OBJECT063
0
POLYLINE
8
OBJECT064
66
1
70
64
71
58
72
112
62
50
0
VERTEX
8
OBJECT064
10
384.000000
20
-384.000000
30
168.000000
70
192
0
VERTEX
8
OBJECT064
10
384.000000
20
-369.000000
30
164.955185
70
192
0
VERTEX
8
OBJECT064
10
394.625000
20
-373.375000
30
164.955185
70
192
0
VERTEX
8
OBJECT064
10
399.000000
20
-384.000000
30
164.955185
70
192
0
VERTEX
8
OBJECT064
10
394.625000
20
-394.625000
30
164.955185
70
192
0
VERTEX
8
OBJECT064
10
384.000000
20
-399.000000
30
164.955185
70
192
0
VERTEX
8
OBJECT064
10
373.375000
20
-394.625000
30
164.955185
70
192
0
VERTEX
8
OBJECT064
10
369.000000
20
-384.000000
30
164.955185
70
192
0
VERTEX
8
OBJECT064
10
373.375000
20
-373.375000
30
164.955185
70
192
0
VERTEX
8
OBJECT064
10
384.000000
20
-355.875000
30
156.284271
70
192
0
VERTEX
8
OBJECT064
10
404.000000
20
-364.000000
30
156.284271
70
192
0
VERTEX
8
OBJECT064
10
412.125000
20
-384.000000
30
156.284271
70
192
0
VERTEX
8
OBJECT064
10
404.000000
20
-404.000000
30
156.284271
70
192
0
VERTEX
8
OBJECT064
10
384.000000
20
-412.125000
30
156.284271
70
192
0
VERTEX
8
OBJECT064
10
364.000000
20
-404.000000
30
156.284271
70
192
0
VERTEX
8
OBJECT064
10
355.875000
20
-384.000000
30
156.284271
70
192
0
VERTEX
8
OBJECT064
10
364.000000
20
-364.000000
30
156.284271
70
192
0
VERTEX
8
OBJECT064
10
384.000000
20
-347.125000
30
143.307343
70
192
0
VERTEX
8
OBJECT064
10
410.250000
20
-357.750000
30
143.307343
70
192
0
VERTEX
8
OBJECT064
10
420.875000
20
-384.000000
30
143.307343
70
192
0
VERTEX
8
OBJECT064
10
410.250000
20
-410.250000
30
143.307343
70
192
0
VERTEX
8
OBJECT064
10
384.000000
20
-420.875000
30
143.307343
70
192
0
VERTEX
8
OBJECT064
10
357.750000
20
-410.250000
30
143.307343
70
192
0
VERTEX
8
OBJECT064
10
347.125000
20
-384.000000
30
143.307343
70
192
0
VERTEX
8
OBJECT064
10
357.750000
20
-357.750000
30
143.307343
70
192
0
VERTEX
8
OBJECT064
10
384.000000
20
-344.000000
30
128.000000
70
192
0
VERTEX
8
OBJECT064
10
412.125000
20
-355.875000
30
128.000000
70
192
0
VERTEX
8
OBJECT064
10
424.000000
20
-384.000000
30
128.000000
70
192
0
VERTEX
8
OBJECT064
10
412.125000
20
-412.125000
30
128.000000
70
192
0
VERTEX
8
OBJECT064
10
384.000000
20
-424.000000
30
128.000000
70
192
0
VERTEX
8
OBJECT064
10
355.875000
20
-412.125000
30
128.000000
70
192
0
VERTEX
8
OBJECT064
10
344.000000
20
-384.000000
30
128.000000
70
192
0
VERTEX
8
OBJECT064
10
355.875000
20
-355.875000
30
128.000000
70
192
0
VERTEX
8
OBJECT064
10
384.000000
20
-347.125000
30
112.692657
70
192
0
VERTEX
8
OBJECT064
10
410.250000
20
-357.750000
30
112.692657
70
192
0
VERTEX
8
OBJECT064
10
420.875000
20
-384.000000
30
112.692657
70
192
0
VERTEX
8
OBJECT064
10
410.250000
20
-410.250000
30
112.692657
70
192
0
VERTEX
8
OBJECT064
10
384.000000
20
-420.875000
30
112.692657
70
192
0
VERTEX
8
OBJECT064
10
357.750000
20
-410.250000
30
112.692657
70
192
0
VERTEX
8
OBJECT064
10
347.125000
20
-384.000000
30
112.692657
70
192
0
VERTEX
8
OBJECT064
10
357.750000
20
-357.750000
30
112.692657
70
192
0
VERTEX
8
OBJECT064
10
384.000000
20
-355.875000
30
99.715721
70
192
0
VERTEX
8
OBJECT064
10
404.000000
20
-364.000000
30
99.715721
70
192
0
VERTEX
8
OBJECT064
10
412.125000
20
-384.000000
30
99.715721
70
192
0
VERTEX
8
OBJECT064
10
404.000000
20
-404.000000
30
99.715721
70
192
0
VERTEX
8
OBJECT064
10
384.000000
20
-412.125000
30
99.715721
70
192
0
VERTEX
8
OBJECT064
10
364.000000
20
-404.000000
30
99.715721
70
192
0
VERTEX
8
OBJECT064
10
355.875000
20
-384.000000
30
99.715721
70
192
0
VERTEX
8
OBJECT064
10
364.000000
20
-364.000000
30
99.715721
70
192
0
VERTEX
8
OBJECT064
10
384.000000
20
-369.000000
30
91.044815
70
192
0
VERTEX
8
OBJECT064
10
394.625000
20
-373.375000
30
91.044815
70
192
0
VERTEX
8
OBJECT064
10
399.000000
20
-384.000000
30
91.044815
70
192
0
VERTEX
8
OBJECT064
10
394.625000
20
-394.625000
30
91.044815
70
192
0
VERTEX
8
OBJECT064
10
384.000000
20
-399.000000
30
91.044815
70
192
0
VERTEX
8
OBJECT064
10
373.375000
20
-394.625000
30
91.044815
70
192
0
VERTEX
8
OBJECT064
10
369.000000
20
-384.000000
30
91.044815
70
192
0
VERTEX
8
OBJECT064
10
373.375000
20
-373.375000
30
91.044815
70
192
0
VERTEX
8
OBJECT064
10
384.000000
20
-384.000000
30
87.999992
70
192
0
VERTEX
8
OBJECT064
10
0
20
0
30
0
70
128
71
2
72
3
73
1
0
VERTEX
8
OBJECT064
10
0
20
0
30
0
70
128
71
3
72
4
73
1
0
VERTEX
8
OBJECT064
10
0
20
0
30
0
70
128
71
4
72
5
73
1
0
VERTEX
8
OBJECT064
10
0
20
0
30
0
70
128
71
5
72
6
73
1
0
VERTEX
8
OBJECT064
10
0
20
0
30
0
70
128
71
6
72
7
73
1
0
VERTEX
8
OBJECT064
10
0
20
0
30
0
70
128
71
7
72
8
73
1
0
VERTEX
8
OBJECT064
10
0
20
0
30
0
70
128
71
8
72
9
73
1
0
VERTEX
8
OBJECT064
10
0
20
0
30
0
70
128
71
9
72
2
73
1
0
VERTEX
8
OBJECT064
10
0
20
0
30
0
70
128
71
2
72
10
73
-11
0
VERTEX
8
OBJECT064
10
0
20
0
30
0
70
128
71
-2
72
11
73
3
0
VERTEX
8
OBJECT064
10
0
20
0
30
0
70
128
71
3
72
11
73
-12
0
VERTEX
8
OBJECT064
10
0
20
0
30
0
70
128
71
-3
72
12
73
4
0
VERTEX
8
OBJECT064
10
0
20
0
30
0
70
128
71
4
72
12
73
-13
0
VERTEX
8
OBJECT064
10
0
20
0
30
0
70
128
71
-4
72
13
73
5
0
VERTEX
8
OBJECT064
10
0
20
0
30
0
70
128
71
5
72
13
73
-14
0
VERTEX
8
OBJECT064
10
0
20
0
30
0
70
128
71
-5
72
14
73
6
0
VERTEX
8
OBJECT064
10
0
20
0
30
0
70
128
71
6
72
14
73
-15
0
VERTEX
8
OBJECT064
10
0
20
0
30
0
70
128
71
-6
72
15
73
7
0
VERTEX
8
OBJECT064
10
0
20
0
30
0
70
128
71
7
72
15
73
-16
0
VERTEX
8
OBJECT064
10
0
20
0
30
0
70
128
71
-7
72
16
73
8
0
VERTEX
8
OBJECT064
10
0
20
0
30
0
70
128
71
8
72
16
73
-17
0
VERTEX
8
OBJECT064
10
0
20
0
30
0
70
128
71
-8
72
17
73
9
0
VERTEX
8
OBJECT064
10
0
20
0
30
0
70
128
71
9
72
17
73
-10
0
VERTEX
8
OBJECT064
10
0
20
0
30
0
70
128
71
-9
72
10
73
2
0
VERTEX
8
OBJECT064
10
0
20
0
30
0
70
128
71
10
72
18
73
-19
0
VERTEX
8
OBJECT064
10
0
20
0
30
0
70
128
71
-10
72
19
73
11
0
VERTEX
8
OBJECT064
10
0
20
0
30
0
70
128
71
11
72
19
73
-20
0
VERTEX
8
OBJECT064
10
0
20
0
30
0
70
128
71
-11
72
20
73
12
0
VERTEX
8
OBJECT064
10
0
20
0
30
0
70
128
71
12
72
20
73
-21
0
VERTEX
8
OBJECT064
10
0
20
0
30
0
70
128
71
-12
72
21
73
13
0
VERTEX
8
OBJECT064
10
0
20
0
30
0
70
128
71
13
72
21
73
-22
0
VERTEX
8
OBJECT064
10
0
20
0
30
0
70
128
71
-13
72
22
73
14
0
VERTEX
8
OBJECT064
10
0
20
0
30
0
70
128
71
14
72
22
73
-23
0
VERTEX
8
OBJECT064
10
0
20
0
30
0
70
128
71
-14
72
23
73
15
0
VERTEX
8
OBJECT064
10
0
20
0
30
0
70
128
71
15
72
23
73
-24
0
VERTEX
8
OBJECT064
10
0
20
0
30
0
70
128
71
-15
72
24
73
16
0
VERTEX
8
OBJECT064
10
0
20
0
30
0
70
128
71
16
72
24
73
-25
0
VERTEX
8
OBJECT064
10
0
20
0
30
0
70
128
71
-16
72
25
73
17
0
VERTEX
8
OBJECT064
10
0
20
0
30
0
70
128
71
17
72
25
73
-18
0
VERTEX
8
OBJECT064
10
0
20
0
30
0
70
128
71
-17
72
18
73
10
0
VERTEX
8
OBJECT064
10
0
20
0
30
0
70
128
71
18
72
26
73
-27
0
VERTEX
8
OBJECT064
10
0
20
0
30
0
70
128
71
-18
72
27
73
19
0
VERTEX
8
OBJECT064
10
0
20
0
30
0
70
128
71
19
72
27
73
-28
0
VERTEX
8
OBJECT064
10
0
20
0
30
0
70
128
71
-19
72
28
73
20
0
VERTEX
8
OBJECT064
10
0
20
0
30
0
70
128
71
20
72
28
73
-29
0
VERTEX
8
OBJECT064
10
0
20
0
30
0
70
128
71
-20
72
29
73
21
0
VERTEX
8
OBJECT064
10
0
20
0
30
0
70
128
71
21
72
29
73
-30
0
VERTEX
8
OBJECT064
10
0
20
0
30
0
70
128
71
-21
72
30
73
22
0
VERTEX
8
OBJECT064
10
0
20
0
30
0
70
128
71
22
72
30
73
-31
0
VERTEX
8
OBJECT064
10
0
20
0
30
0
70
128
71
-22
72
31
73
23
0
VERTEX
8
OBJECT064
10
0
20
0
30
0
70
128
71
23
72
31
73
-32
0
VERTEX
8
OBJECT064
10
0
20
0
30
0
70
128
71
-23
72
32
73
24
0
VERTEX
8
OBJECT064
10
0
20
0
30
0
70
128
71
24
72
32
73
-33
0
VERTEX
8
OBJECT064
10
0
20
0
30
0
70
128
71
-24
72
33
73
25
0
VERTEX
8
OBJECT064
10
0
20
0
30
0
70
128
71
25
72
33
73
-26
0
VERTEX
8
OBJECT064
10
0
20
0
30
0
70
128
71
-25
72
26
73
18
0
VERTEX
8
OBJECT064
10
0
20
0
30
0
70
128
71
26
72
34
73
-35
0
VERTEX
8
OBJECT064
10
0
20
0
30
0
70
128
71
-26
72
35
73
27
0
VERTEX
8
OBJECT064
10
0
20
0
30
0
70
128
71
27
72
35
73
-36
0
VERTEX
8
OBJECT064
10
0
20
0
30
0
70
128
71
-27
72
36
73
28
0
VERTEX
8
OBJECT064
10
0
20
0
30
0
70
128
71
28
72
36
73
-37
0
VERTEX
8
OBJECT064
10
0
20
0
30
0
70
128
71
-28
72
37
73
29
0
VERTEX
8
OBJECT064
10
0
20
0
30
0
70
128
71
29
72
37
73
-38
0
VERTEX
8
OBJECT064
10
0
20
0
30
0
70
128
71
-29
72
38
73
30
0
VERTEX
8
OBJECT064
10
0
20
0
30
0
70
128
71
30
72
38
73
-39
0
VERTEX
8
OBJECT064
10
0
20
0
30
0
70
128
71
-30
72
39
73
31
0
VERTEX
8
OBJECT064
10
0
20
0
30
0
70
128
71
31
72
39
73
-40
0
VERTEX
8
OBJECT064
10
0
20
0
30
0
70
128
71
-31
72
40
73
32
0
VERTEX
8
OBJECT064
10
0
20
0
30
0
70
128
71
32
72
40
73
-41
0
VERTEX
8
OBJECT064
10
0
20
0
30
0
70
128
71
-32
72
41
73
33
0
VERTEX
8
OBJECT064
10
0
20
0
30
0
70
128
71
33
72
41
73
-34
0
VERTEX
8
OBJECT064
10
0
20
0
30
0
70
128
71
-33
72
34
73
26
0
VERTEX
8
OBJECT064
10
0
20
0
30
0
70
128
71
34
72
42
73
-43
0
VERTEX
8
OBJECT064
10
0
20
0
30
0
70
128
71
-34
72
43
73
35
0
VERTEX
8
OBJECT064
10
0
20
0
30
0
70
128
71
35
72
43
73
-44
0
VERTEX
8
OBJECT064
10
0
20
0
30
0
70
128
71
-35
72
44
73
36
0
VERTEX
8
OBJECT064
10
0
20
0
30
0
70
128
71
36
72
44
73
-45
0
VERTEX
8
OBJECT064
10
0
20
0
30
0
70
128
71
-36
72
45
73
37
0
VERTEX
8
OBJECT064
10
0
20
0
30
0
70
128
71
37
72
45
73
-46
0
VERTEX
8
OBJECT064
10
0
20
0
30
0
70
128
71
-37
72
46
73
38
0
VERTEX
8
OBJECT064
10
0
20
0
30
0
70
128
71
38
72
46
73
-47
0
VERTEX
8
OBJECT064
10
0
20
0
30
0
70
128
71
-38
72
47
73
39
0
VERTEX
8
OBJECT064
10
0
20
0
30
0
70
128
71
39
72
47
73
-48
0
VERTEX
8
OBJECT064
10
0
20
0
30
0
70
128
71
-39
72
48
73
40
0
VERTEX
8
OBJECT064
10
0
20
0
30
0
70
128
71
40
72
48
73
-49
0
VERTEX
8
OBJECT064
10
0
20
0
30
0
70
128
71
-40
72
49
73
41
0
VERTEX
8
OBJECT064
10
0
20
0
30
0
70
128
71
41
72
49
73
-42
0
VERTEX
8
OBJECT064
10
0
20
0
30
0
70
128
71
-41
72
42
73
34
0
VERTEX
8
OBJECT064
10
0
20
0
30
0
70
128
71
42
72
50
73
-51
0
VERTEX
8
OBJECT064
10
0
20
0
30
0
70
128
71
-42
72
51
73
43
0
VERTEX
8
OBJECT064
10
0
20
0
30
0
70
128
71
43
72
51
73
-52
0
VERTEX
8
OBJECT064
10
0
20
0
30
0
70
128
71
-43
72
52
73
44
0
VERTEX
8
OBJECT064
10
0
20
0
30
0
70
128
71
44
72
52
73
-53
0
VERTEX
8
OBJECT064
10
0
20
0
30
0
70
128
71
-44
72
53
73
45
0
VERTEX
8
OBJECT064
10
0
20
0
30
0
70
128
71
45
72
53
73
-54
0
VERTEX
8
OBJECT064
10
0
20
0
30
0
70
128
71
-45
72
54
73
46
0
VERTEX
8
OBJECT064
10
0
20
0
30
0
70
128
71
46
72
54
73
-55
0
VERTEX
8
OBJECT064
10
0
20
0
30
0
70
128
71
-46
72
55
73
47
0
VERTEX
8
OBJECT064
10
0
20
0
30
0
70
128
71
47
72
55
73
-56
0
VERTEX
8
OBJECT064
10
0
20
0
30
0
70
128
71
-47
72
56
73
48
0
VERTEX
8
OBJECT064
10
0
20
0
30
0
70
128
71
48
72
56
73
-57
0
VERTEX
8
OBJECT064
10
0
20
0
30
0
70
128
71
-48
72
57
73
49
0
VERTEX
8
OBJECT064
10
0
20
0
30
0
70
128
71
49
72
57
73
-50
0
VERTEX
8
OBJECT064
10
0
20
0
30
0
70
128
71
-49
72
50
73
42
0
VERTEX
8
OBJECT064
10
0
20
0
30
0
70
128
71
50
72
58
73
51
0
VERTEX
8
OBJECT064
10
0
20
0
30
0
70
128
71
51
72
58
73
52
0
VERTEX
8
OBJECT064
10
0
20
0
30
0
70
128
71
52
72
58
73
53
0
VERTEX
8
OBJECT064
10
0
20
0
30
0
70
128
71
53
72
58
73
54
0
VERTEX
8
OBJECT064
10
0
20
0
30
0
70
128
71
54
72
58
73
55
0
VERTEX
8
OBJECT064
10
0
20
0
30
0
70
128
71
55
72
58
73
56
0
VERTEX
8
OBJECT064
10
0
20
0
30
0
70
128
71
56
72
58
73
57
0
VERTEX
8
OBJECT064
10
0
20
0
30
0
70
128
71
57
72
58
73
50
0
SEQEND
8
OBJECT064
0
POLYLINE
8
OBJECT065
66
1
70
64
71
8
72
12
62
50
0
VERTEX
8
OBJECT065
10
288.000000
20
-384.000000
30
256.000000
70
192
0
VERTEX
8
OBJECT065
10
315.000000
20
-315.000000
30
256.000000
70
192
0
VERTEX
8
OBJECT065
10
384.000000
20
-288.000000
30
256.000000
70
192
0
VERTEX
8
OBJECT065
10
384.000000
20
-384.000000
30
256.000000
70
192
0
VERTEX
8
OBJECT065
10
315.000000
20
-315.000000
30
224.000000
70
192
0
VERTEX
8
OBJECT065
10
288.000000
20
-384.000000
30
224.000000
70
192
0
VERTEX
8
OBJECT065
10
384.000000
20
-384.000000
30
224.000000
70
192
0
VERTEX
8
OBJECT065
10
384.000000
20
-288.000000
30
224.000000
70
192
0
VERTEX
8
OBJECT065
10
0
20
0
30
0
70
128
71
2
72
3
73
-4
0
VERTEX
8
OBJECT065
10
0
20
0
30
0
70
128
71
-2
72
4
73
1
0
VERTEX
8
OBJECT065
10
0
20
0
30
0
70
128
71
6
72
7
73
-8
0
VERTEX
8
OBJECT065
10
0
20
0
30
0
70
128
71
-6
72
8
73
5
0
VERTEX
8
OBJECT065
10
0
20
0
30
0
70
128
71
5
72
2
73
-1
0
VERTEX
8
OBJECT065
10
0
20
0
30
0
70
128
71
-5
72
1
73
6
0
VERTEX
8
OBJECT065
10
0
20
0
30
0
70
128
71
7
72
4
73
-3
0
VERTEX
8
OBJECT065
10
0
20
0
30
0
70
128
71
-7
72
3
73
8
0
VERTEX
8
OBJECT065
10
0
20
0
30
0
70
128
71
8
72
3
73
-2
0
VERTEX
8
OBJECT065
10
0
20
0
30
0
70
128
71
-8
72
2
73
5
0
VERTEX
8
OBJECT065
10
0
20
0
30
0
70
128
71
6
72
1
73
-4
0
VERTEX
8
OBJECT065
10
0
20
0
30
0
70
128
71
-6
72
4
73
7
0
SEQEND
8
OBJECT065
0
POLYLINE
8
OBJECT066
66
1
70
64
71
8
72
12
62
50
0
VERTEX
8
OBJECT066
10
315.000000
20
-453.000000
30
256.000000
70
192
0
VERTEX
8
OBJECT066
10
288.000000
20
-384.000000
30
256.000000
70
192
0
VERTEX
8
OBJECT066
10
384.000000
20
-384.000000
30
256.000000
70
192
0
VERTEX
8
OBJECT066
10
384.000000
20
-480.000000
30
256.000000
70
192
0
VERTEX
8
OBJECT066
10
288.000000
20
-384.000000
30
224.000000
70
192
0
VERTEX
8
OBJECT066
10
315.000000
20
-453.000000
30
224.000000
70
192
0
VERTEX
8
OBJECT066
10
384.000000
20
-480.000000
30
224.000000
70
192
0
VERTEX
8
OBJECT066
10
384.000000
20
-384.000000
30
224.000000
70
192
0
VERTEX
8
OBJECT066
10
0
20
0
30
0
70
128
71
2
72
3
73
-4
0
VERTEX
8
OBJECT066
10
0
20
0
30
0
70
128
71
-2
72
4
73
1
0
VERTEX
8
OBJECT066
10
0
20
0
30
0
70
128
71
6
72
7
73
-8
0
VERTEX
8
OBJECT066
10
0
20
0
30
0
70
128
71
-6
72
8
73
5
0
VERTEX
8
OBJECT066
10
0
20
0
30
0
70
128
71
5
72
2
73
-1
0
VERTEX
8
OBJECT066
10
0
20
0
30
0
70
128
71
-5
72
1
73
6
0
VERTEX
8
OBJECT066
10
0
20
0
30
0
70
128
71
7
72
4
73
-3
0
VERTEX
8
OBJECT066
10
0
20
0
30
0
70
128
71
-7
72
3
73
8
0
VERTEX
8
OBJECT066
10
0
20
0
30
0
70
128
71
6
72
1
73
-4
0
VERTEX
8
OBJECT066
10
0
20
0
30
0
70
128
71
-6
72
4
73
7
0
VERTEX
8
OBJECT066
10
0
20
0
30
0
70
128
71
8
72
3
73
-2
0
VERTEX
8
OBJECT066
10
0
20
0
30
0
70
128
71
-8
72
2
73
5
0
SEQEND
8
OBJECT066
0
POLYLINE
8
OBJECT067
66
1
70
64
71
8
72
12
62
50
0
VERTEX
8
OBJECT067
10
480.000000
20
-384.000000
30
256.000000
70
192
0
VERTEX
8
OBJECT067
10
453.000000
20
-453.000000
30
256.000000
70
192
0
VERTEX
8
OBJECT067
10
384.000000
20
-480.000000
30
256.000000
70
192
0
VERTEX
8
OBJECT067
10
384.000000
20
-384.000000
30
256.000000
70
192
0
VERTEX
8
OBJECT067
10
384.000000
20
-384.000000
30
224.000000
70
192
0
VERTEX
8
OBJECT067
10
384.000000
20
-480.000000
30
224.000000
70
192
0
VERTEX
8
OBJECT067
10
453.000000
20
-453.000000
30
224.000000
70
192
0
VERTEX
8
OBJECT067
10
480.000000
20
-384.000000
30
224.000000
70
192
0
VERTEX
8
OBJECT067
10
0
20
0
30
0
70
128
71
2
72
3
73
-4
0
VERTEX
8
OBJECT067
10
0
20
0
30
0
70
128
71
-2
72
4
73
1
0
VERTEX
8
OBJECT067
10
0
20
0
30
0
70
128
71
6
72
7
73
-8
0
VERTEX
8
OBJECT067
10
0
20
0
30
0
70
128
71
-6
72
8
73
5
0
VERTEX
8
OBJECT067
10
0
20
0
30
0
70
128
71
7
72
2
73
-1
0
VERTEX
8
OBJECT067
10
0
20
0
30
0
70
128
71
-7
72
1
73
8
0
VERTEX
8
OBJECT067
10
0
20
0
30
0
70
128
71
5
72
4
73
-3
0
VERTEX
8
OBJECT067
10
0
20
0
30
0
70
128
71
-5
72
3
73
6
0
VERTEX
8
OBJECT067
10
0
20
0
30
0
70
128
71
6
72
3
73
-2
0
VERTEX
8
OBJECT067
10
0
20
0
30
0
70
128
71
-6
72
2
73
7
0
VERTEX
8
OBJECT067
10
0
20
0
30
0
70
128
71
8
72
1
73
-4
0
VERTEX
8
OBJECT067
10
0
20
0
30
0
70
128
71
-8
72
4
73
5
0
SEQEND
8
OBJECT067
0
POLYLINE
8
OBJECT068
66
1
70
64
71
8
72
12
62
50
0
VERTEX
8
OBJECT068
10
384.000000
20
-384.000000
30
256.000000
70
192
0
VERTEX
8
OBJECT068
10
384.000000
20
-288.000000
30
256.000000
70
192
0
VERTEX
8
OBJECT068
10
453.000000
20
-315.000000
30
256.000000
70
192
0
VERTEX
8
OBJECT068
10
480.000000
20
-384.000000
30
256.000000
70
192
0
VERTEX
8
OBJECT068
10
480.000000
20
-384.000000
30
224.000000
70
192
0
VERTEX
8
OBJECT068
10
453.000000
20
-315.000000
30
224.000000
70
192
0
VERTEX
8
OBJECT068
10
384.000000
20
-288.000000
30
224.000000
70
192
0
VERTEX
8
OBJECT068
10
384.000000
20
-384.000000
30
224.000000
70
192
0
VERTEX
8
OBJECT068
10
0
20
0
30
0
70
128
71
2
72
3
73
-4
0
VERTEX
8
OBJECT068
10
0
20
0
30
0
70
128
71
-2
72
4
73
1
0
VERTEX
8
OBJECT068
10
0
20
0
30
0
70
128
71
6
72
7
73
-8
0
VERTEX
8
OBJECT068
10
0
20
0
30
0
70
128
71
-6
72
8
73
5
0
VERTEX
8
OBJECT068
10
0
20
0
30
0
70
128
71
5
72
4
73
-3
0
VERTEX
8
OBJECT068
10
0
20
0
30
0
70
128
71
-5
72
3
73
6
0
VERTEX
8
OBJECT068
10
0
20
0
30
0
70
128
71
7
72
2
73
-1
0
VERTEX
8
OBJECT068
10
0
20
0
30
0
70
128
71
-7
72
1
73
8
0
VERTEX
8
OBJECT068
10
0
20
0
30
0
70
128
71
6
72
3
73
-2
0
VERTEX
8
OBJECT068
10
0
20
0
30
0
70
128
71
-6
72
2
73
7
0
VERTEX
8
OBJECT068
10
0
20
0
30
0
70
128
71
8
72
1
73
-4
0
VERTEX
8
OBJECT068
10
0
20
0
30
0
70
128
71
-8
72
4
73
5
0
SEQEND
8
OBJECT068
0
POLYLINE
8
OBJECT069
66
1
70
64
71
8
72
12
62
50
0
VERTEX
8
OBJECT069
10
338.000000
20
-430.000000
30
32.000000
70
192
0
VERTEX
8
OBJECT069
10
384.000000
20
-448.000000
30
32.000000
70
192
0
VERTEX
8
OBJECT069
10
384.000000
20
-384.000000
30
32.000000
70
192
0
VERTEX
8
OBJECT069
10
320.000000
20
-384.000000
30
32.000000
70
192
0
VERTEX
8
OBJECT069
10
384.000000
20
-448.000000
30
48.000000
70
192
0
VERTEX
8
OBJECT069
10
338.000000
20
-430.000000
30
48.000000
70
192
0
VERTEX
8
OBJECT069
10
320.000000
20
-384.000000
30
48.000000
70
192
0
VERTEX
8
OBJECT069
10
384.000000
20
-384.000000
30
48.000000
70
192
0
VERTEX
8
OBJECT069
10
0
20
0
30
0
70
128
71
2
72
3
73
-4
0
VERTEX
8
OBJECT069
10
0
20
0
30
0
70
128
71
-2
72
4
73
1
0
VERTEX
8
OBJECT069
10
0
20
0
30
0
70
128
71
6
72
7
73
-8
0
VERTEX
8
OBJECT069
10
0
20
0
30
0
70
128
71
-6
72
8
73
5
0
VERTEX
8
OBJECT069
10
0
20
0
30
0
70
128
71
1
72
4
73
-7
0
VERTEX
8
OBJECT069
10
0
20
0
30
0
70
128
71
-1
72
7
73
6
0
VERTEX
8
OBJECT069
10
0
20
0
30
0
70
128
71
3
72
2
73
-5
0
VERTEX
8
OBJECT069
10
0
20
0
30
0
70
128
71
-3
72
5
73
8
0
VERTEX
8
OBJECT069
10
0
20
0
30
0
70
128
71
2
72
1
73
-6
0
VERTEX
8
OBJECT069
10
0
20
0
30
0
70
128
71
-2
72
6
73
5
0
VERTEX
8
OBJECT069
10
0
20
0
30
0
70
128
71
4
72
3
73
-8
0
VERTEX
8
OBJECT069
10
0
20
0
30
0
70
128
71
-4
72
8
73
7
0
SEQEND
8
OBJECT069
0
POLYLINE
8
OBJECT070
66
1
70
64
71
8
72
12
62
50
0
VERTEX
8
OBJECT070
10
320.000000
20
-384.000000
30
32.000000
70
192
0
VERTEX
8
OBJECT070
10
384.000000
20
-384.000000
30
32.000000
70
192
0
VERTEX
8
OBJECT070
10
384.000000
20
-320.000000
30
32.000000
70
192
0
VERTEX
8
OBJECT070
10
338.000000
20
-338.000000
30
32.000000
70
192
0
VERTEX
8
OBJECT070
10
384.000000
20
-384.000000
30
48.000000
70
192
0
VERTEX
8
OBJECT070
10
320.000000
20
-384.000000
30
48.000000
70
192
0
VERTEX
8
OBJECT070
10
338.000000
20
-338.000000
30
48.000000
70
192
0
VERTEX
8
OBJECT070
10
384.000000
20
-320.000000
30
48.000000
70
192
0
VERTEX
8
OBJECT070
10
0
20
0
30
0
70
128
71
2
72
3
73
-4
0
VERTEX
8
OBJECT070
10
0
20
0
30
0
70
128
71
-2
72
4
73
1
0
VERTEX
8
OBJECT070
10
0
20
0
30
0
70
128
71
6
72
7
73
-8
0
VERTEX
8
OBJECT070
10
0
20
0
30
0
70
128
71
-6
72
8
73
5
0
VERTEX
8
OBJECT070
10
0
20
0
30
0
70
128
71
1
72
4
73
-7
0
VERTEX
8
OBJECT070
10
0
20
0
30
0
70
128
71
-1
72
7
73
6
0
VERTEX
8
OBJECT070
10
0
20
0
30
0
70
128
71
3
72
2
73
-5
0
VERTEX
8
OBJECT070
10
0
20
0
30
0
70
128
71
-3
72
5
73
8
0
VERTEX
8
OBJECT070
10
0
20
0
30
0
70
128
71
4
72
3
73
-8
0
VERTEX
8
OBJECT070
10
0
20
0
30
0
70
128
71
-4
72
8
73
7
0
VERTEX
8
OBJECT070
10
0
20
0
30
0
70
128
71
2
72
1
73
-6
0
VERTEX
8
OBJECT070
10
0
20
0
30
0
70
128
71
-2
72
6
73
5
0
SEQEND
8
OBJECT070
0
POLYLINE
8
OBJECT071
66
1
70
64
71
8
72
12
62
50
0
VERTEX
8
OBJECT071
10
430.000000
20
-338.000000
30
32.000000
70
192
0
VERTEX
8
OBJECT071
10
384.000000
20
-320.000000
30
32.000000
70
192
0
VERTEX
8
OBJECT071
10
384.000000
20
-384.000000
30
32.000000
70
192
0
VERTEX
8
OBJECT071
10
448.000000
20
-384.000000
30
32.000000
70
192
0
VERTEX
8
OBJECT071
10
384.000000
20
-320.000000
30
48.000000
70
192
0
VERTEX
8
OBJECT071
10
430.000000
20
-338.000000
30
48.000000
70
192
0
VERTEX
8
OBJECT071
10
448.000000
20
-384.000000
30
48.000000
70
192
0
VERTEX
8
OBJECT071
10
384.000000
20
-384.000000
30
48.000000
70
192
0
VERTEX
8
OBJECT071
10
0
20
0
30
0
70
128
71
2
72
3
73
-4
0
VERTEX
8
OBJECT071
10
0
20
0
30
0
70
128
71
-2
72
4
73
1
0
VERTEX
8
OBJECT071
10
0
20
0
30
0
70
128
71
6
72
7
73
-8
0
VERTEX
8
OBJECT071
10
0
20
0
30
0
70
128
71
-6
72
8
73
5
0
VERTEX
8
OBJECT071
10
0
20
0
30
0
70
128
71
1
72
4
73
-7
0
VERTEX
8
OBJECT071
10
0
20
0
30
0
70
128
71
-1
72
7
73
6
0
VERTEX
8
OBJECT071
10
0
20
0
30
0
70
128
71
3
72
2
73
-5
0
VERTEX
8
OBJECT071
10
0
20
0
30
0
70
128
71
-3
72
5
73
8
0
VERTEX
8
OBJECT071
10
0
20
0
30
0
70
128
71
2
72
1
73
-6
0
VERTEX
8
OBJECT071
10
0
20
0
30
0
70
128
71
-2
72
6
73
5
0
VERTEX
8
OBJECT071
10
0
20
0
30
0
70
128
71
4
72
3
73
-8
0
VERTEX
8
OBJECT071
10
0
20
0
30
0
70
128
71
-4
72
8
73
7
0
SEQEND
8
OBJECT071
0
POLYLINE
8
OBJECT072
66
1
70
64
71
8
72
12
62
50
0
VERTEX
8
OBJECT072
10
448.000000
20
-384.000000
30
32.000000
70
192
0
VERTEX
8
OBJECT072
10
384.000000
20
-384.000000
30
32.000000
70
192
0
VERTEX
8
OBJECT072
10
384.000000
20
-448.000000
30
32.000000
70
192
0
VERTEX
8
OBJECT072
10
430.000000
20
-430.000000
30
32.000000
70
192
0
VERTEX
8
OBJECT072
10
384.000000
20
-384.000000
30
48.000000
70
192
0
VERTEX
8
OBJECT072
10
448.000000
20
-384.000000
30
48.000000
70
192
0
VERTEX
8
OBJECT072
10
430.000000
20
-430.000000
30
48.000000
70
192
0
VERTEX
8
OBJECT072
10
384.000000
20
-448.000000
30
48.000000
70
192
0
VERTEX
8
OBJECT072
10
0
20
0
30
0
70
128
71
2
72
3
73
-4
0
VERTEX
8
OBJECT072
10
0
20
0
30
0
70
128
71
-2
72
4
73
1
0
VERTEX
8
OBJECT072
10
0
20
0
30
0
70
128
71
6
72
7
73
-8
0
VERTEX
8
OBJECT072
10
0
20
0
30
0
70
128
71
-6
72
8
73
5
0
VERTEX
8
OBJECT072
10
0
20
0
30
0
70
128
71
1
72
4
73
-7
0
VERTEX
8
OBJECT072
10
0
20
0
30
0
70
128
71
-1
72
7
73
6
0
VERTEX
8
OBJECT072
10
0
20
0
30
0
70
128
71
3
72
2
73
-5
0
VERTEX
8
OBJECT072
10
0
20
0
30
0
70
128
71
-3
72
5
73
8
0
VERTEX
8
OBJECT072
10
0
20
0
30
0
70
128
71
4
72
3
73
-8
0
VERTEX
8
OBJECT072
10
0
20
0
30
0
70
128
71
-4
72
8
73
7
0
VERTEX
8
OBJECT072
10
0
20
0
30
0
70
128
71
2
72
1
73
-6
0
VERTEX
8
OBJECT072
10
0
20
0
30
0
70
128
71
-2
72
6
73
5
0
SEQEND
8
OBJECT072
0
POLYLINE
8
OBJECT073
66
1
70
64
71
8
72
12
62
50
0
VERTEX
8
OBJECT073
10
320.000000
20
-384.000000
30
224.000000
70
192
0
VERTEX
8
OBJECT073
10
384.000000
20
-384.000000
30
224.000000
70
192
0
VERTEX
8
OBJECT073
10
384.000000
20
-448.000000
30
224.000000
70
192
0
VERTEX
8
OBJECT073
10
338.000000
20
-430.000000
30
224.000000
70
192
0
VERTEX
8
OBJECT073
10
384.000000
20
-384.000000
30
208.000000
70
192
0
VERTEX
8
OBJECT073
10
320.000000
20
-384.000000
30
208.000000
70
192
0
VERTEX
8
OBJECT073
10
338.000000
20
-430.000000
30
208.000000
70
192
0
VERTEX
8
OBJECT073
10
384.000000
20
-448.000000
30
208.000000
70
192
0
VERTEX
8
OBJECT073
10
0
20
0
30
0
70
128
71
2
72
3
73
-4
0
VERTEX
8
OBJECT073
10
0
20
0
30
0
70
128
71
-2
72
4
73
1
0
VERTEX
8
OBJECT073
10
0
20
0
30
0
70
128
71
6
72
7
73
-8
0
VERTEX
8
OBJECT073
10
0
20
0
30
0
70
128
71
-6
72
8
73
5
0
VERTEX
8
OBJECT073
10
0
20
0
30
0
70
128
71
1
72
4
73
-7
0
VERTEX
8
OBJECT073
10
0
20
0
30
0
70
128
71
-1
72
7
73
6
0
VERTEX
8
OBJECT073
10
0
20
0
30
0
70
128
71
3
72
2
73
-5
0
VERTEX
8
OBJECT073
10
0
20
0
30
0
70
128
71
-3
72
5
73
8
0
VERTEX
8
OBJECT073
10
0
20
0
30
0
70
128
71
4
72
3
73
-8
0
VERTEX
8
OBJECT073
10
0
20
0
30
0
70
128
71
-4
72
8
73
7
0
VERTEX
8
OBJECT073
10
0
20
0
30
0
70
128
71
2
72
1
73
-6
0
VERTEX
8
OBJECT073
10
0
20
0
30
0
70
128
71
-2
72
6
73
5
0
SEQEND
8
OBJECT073
0
POLYLINE
8
OBJECT074
66
1
70
64
71
8
72
12
62
50
0
VERTEX
8
OBJECT074
10
338.000000
20
-338.000000
30
224.000000
70
192
0
VERTEX
8
OBJECT074
10
384.000000
20
-320.000000
30
224.000000
70
192
0
VERTEX
8
OBJECT074
10
384.000000
20
-384.000000
30
224.000000
70
192
0
VERTEX
8
OBJECT074
10
320.000000
20
-384.000000
30
224.000000
70
192
0
VERTEX
8
OBJECT074
10
384.000000
20
-320.000000
30
208.000000
70
192
0
VERTEX
8
OBJECT074
10
338.000000
20
-338.000000
30
208.000000
70
192
0
VERTEX
8
OBJECT074
10
320.000000
20
-384.000000
30
208.000000
70
192
0
VERTEX
8
OBJECT074
10
384.000000
20
-384.000000
30
208.000000
70
192
0
VERTEX
8
OBJECT074
10
0
20
0
30
0
70
128
71
2
72
3
73
-4
0
VERTEX
8
OBJECT074
10
0
20
0
30
0
70
128
71
-2
72
4
73
1
0
VERTEX
8
OBJECT074
10
0
20
0
30
0
70
128
71
6
72
7
73
-8
0
VERTEX
8
OBJECT074
10
0
20
0
30
0
70
128
71
-6
72
8
73
5
0
VERTEX
8
OBJECT074
10
0
20
0
30
0
70
128
71
1
72
4
73
-7
0
VERTEX
8
OBJECT074
10
0
20
0
30
0
70
128
71
-1
72
7
73
6
0
VERTEX
8
OBJECT074
10
0
20
0
30
0
70
128
71
3
72
2
73
-5
0
VERTEX
8
OBJECT074
10
0
20
0
30
0
70
128
71
-3
72
5
73
8
0
VERTEX
8
OBJECT074
10
0
20
0
30
0
70
128
71
2
72
1
73
-6
0
VERTEX
8
OBJECT074
10
0
20
0
30
0
70
128
71
-2
72
6
73
5
0
VERTEX
8
OBJECT074
10
0
20
0
30
0
70
128
71
4
72
3
73
-8
0
VERTEX
8
OBJECT074
10
0
20
0
30
0
70
128
71
-4
72
8
73
7
0
SEQEND
8
OBJECT074
0
POLYLINE
8
OBJECT075
66
1
70
64
71
8
72
12
62
50
0
VERTEX
8
OBJECT075
10
448.000000
20
-384.000000
30
224.000000
70
192
0
VERTEX
8
OBJECT075
10
384.000000
20
-384.000000
30
224.000000
70
192
0
VERTEX
8
OBJECT075
10
384.000000
20
-320.000000
30
224.000000
70
192
0
VERTEX
8
OBJECT075
10
430.000000
20
-338.000000
30
224.000000
70
192
0
VERTEX
8
OBJECT075
10
384.000000
20
-384.000000
30
208.000000
70
192
0
VERTEX
8
OBJECT075
10
448.000000
20
-384.000000
30
208.000000
70
192
0
VERTEX
8
OBJECT075
10
430.000000
20
-338.000000
30
208.000000
70
192
0
VERTEX
8
OBJECT075
10
384.000000
20
-320.000000
30
208.000000
70
192
0
VERTEX
8
OBJECT075
10
0
20
0
30
0
70
128
71
2
72
3
73
-4
0
VERTEX
8
OBJECT075
10
0
20
0
30
0
70
128
71
-2
72
4
73
1
0
VERTEX
8
OBJECT075
10
0
20
0
30
0
70
128
71
6
72
7
73
-8
0
VERTEX
8
OBJECT075
10
0
20
0
30
0
70
128
71
-6
72
8
73
5
0
VERTEX
8
OBJECT075
10
0
20
0
30
0
70
128
71
1
72
4
73
-7
0
VERTEX
8
OBJECT075
10
0
20
0
30
0
70
128
71
-1
72
7
73
6
0
VERTEX
8
OBJECT075
10
0
20
0
30
0
70
128
71
3
72
2
73
-5
0
VERTEX
8
OBJECT075
10
0
20
0
30
0
70
128
71
-3
72
5
73
8
0
VERTEX
8
OBJECT075
10
0
20
0
30
0
70
128
71
4
72
3
73
-8
0
VERTEX
8
OBJECT075
10
0
20
0
30
0
70
128
71
-4
72
8
73
7
0
VERTEX
8
OBJECT075
10
0
20
0
30
0
70
128
71
2
72
1
73
-6
0
VERTEX
8
OBJECT075
10
0
20
0
30
0
70
128
71
-2
72
6
73
5
0
SEQEND
8
OBJECT075
0
POLYLINE
8
OBJECT076
66
1
70
64
71
8
72
12
62
50
0
VERTEX
8
OBJECT076
10
430.000000
20
-430.000000
30
224.000000
70
192
0
VERTEX
8
OBJECT076
10
384.000000
20
-448.000000
30
224.000000
70
192
0
VERTEX
8
OBJECT076
10
384.000000
20
-384.000000
30
224.000000
70
192
0
VERTEX
8
OBJECT076
10
448.000000
20
-384.000000
30
224.000000
70
192
0
VERTEX
8
OBJECT076
10
384.000000
20
-448.000000
30
208.000000
70
192
0
VERTEX
8
OBJECT076
10
430.000000
20
-430.000000
30
208.000000
70
192
0
VERTEX
8
OBJECT076
10
448.000000
20
-384.000000
30
208.000000
70
192
0
VERTEX
8
OBJECT076
10
384.000000
20
-384.000000
30
208.000000
70
192
0
VERTEX
8
OBJECT076
10
0
20
0
30
0
70
128
71
2
72
3
73
-4
0
VERTEX
8
OBJECT076
10
0
20
0
30
0
70
128
71
-2
72
4
73
1
0
VERTEX
8
OBJECT076
10
0
20
0
30
0
70
128
71
6
72
7
73
-8
0
VERTEX
8
OBJECT076
10
0
20
0
30
0
70
128
71
-6
72
8
73
5
0
VERTEX
8
OBJECT076
10
0
20
0
30
0
70
128
71
1
72
4
73
-7
0
VERTEX
8
OBJECT076
10
0
20
0
30
0
70
128
71
-1
72
7
73
6
0
VERTEX
8
OBJECT076
10
0
20
0
30
0
70
128
71
3
72
2
73
-5
0
VERTEX
8
OBJECT076
10
0
20
0
30
0
70
128
71
-3
72
5
73
8
0
VERTEX
8
OBJECT076
10
0
20
0
30
0
70
128
71
2
72
1
73
-6
0
VERTEX
8
OBJECT076
10
0
20
0
30
0
70
128
71
-2
72
6
73
5
0
VERTEX
8
OBJECT076
10
0
20
0
30
0
70
128
71
4
72
3
73
-8
0
VERTEX
8
OBJECT076
10
0
20
0
30
0
70
128
71
-4
72
8
73
7
0
SEQEND
8
OBJECT076
0
ENDSEC
0
EOF
