0
SECTION
2
HEADER
9
$ACADVER
1
AC1008
9
$UCSORG
10
0.0
20
0.0
30
0.0
9
$UCSXDIR
10
1.0
20
0.0
30
0.0
9
$TILEMODE
70
1
9
$UCSYDIR
10
0.0
20
1.0
30
0.0
9
$EXTMIN
10
-576.000000
20
64.000000
30
-128.000000
9
$EXTMAX
10
-320.000000
20
320.000000
30
128.000000
0
ENDSEC
0
SECTION
2
TABLES
0
TABLE
2
LTYPE
70
1
0
LTYPE
2
CONTINUOUS
70
64
3
Solid line
72
65
73
0
40
0.0
0
ENDTAB
0
TABLE
2
LAYER
70
1
0
LAYER
2
0
70
0
62
7
6
CONTINUOUS
0
ENDTAB
0
TABLE
2
STYLE
70
1
0
STYLE
2
STANDARD
70
0
40
0.0
41
1.0
50
0.0
71
0
42
0.2
3
txt
4

0
ENDTAB
0
TABLE
2
UCS
70
0
0
ENDTAB
0
ENDSEC
0
SECTION
2
ENTITIES
0
POLYLINE
8
OBJECT000
66
1
70
64
71
8
72
12
62
50
0
VERTEX
8
OBJECT000
10
-320.000000
20
168.000000
30
-96.000000
70
192
0
VERTEX
8
OBJECT000
10
-320.000000
20
149.332458
30
-128.000000
70
192
0
VERTEX
8
OBJECT000
10
-320.000000
20
64.000000
30
0.000000
70
192
0
VERTEX
8
OBJECT000
10
-320.000000
20
104.000000
30
0.000000
70
192
0
VERTEX
8
OBJECT000
10
-576.000000
20
149.332458
30
-128.000000
70
192
0
VERTEX
8
OBJECT000
10
-576.000000
20
168.000000
30
-96.000000
70
192
0
VERTEX
8
OBJECT000
10
-576.000000
20
104.000000
30
0.000000
70
192
0
VERTEX
8
OBJECT000
10
-576.000000
20
64.000000
30
0.000000
70
192
0
VERTEX
8
OBJECT000
10
0
20
0
30
0
70
128
71
2
72
3
73
-4
0
VERTEX
8
OBJECT000
10
0
20
0
30
0
70
128
71
-2
72
4
73
1
0
VERTEX
8
OBJECT000
10
0
20
0
30
0
70
128
71
6
72
7
73
-8
0
VERTEX
8
OBJECT000
10
0
20
0
30
0
70
128
71
-6
72
8
73
5
0
VERTEX
8
OBJECT000
10
0
20
0
30
0
70
128
71
5
72
2
73
-1
0
VERTEX
8
OBJECT000
10
0
20
0
30
0
70
128
71
-5
72
1
73
6
0
VERTEX
8
OBJECT000
10
0
20
0
30
0
70
128
71
7
72
4
73
-3
0
VERTEX
8
OBJECT000
10
0
20
0
30
0
70
128
71
-7
72
3
73
8
0
VERTEX
8
OBJECT000
10
0
20
0
30
0
70
128
71
2
72
5
73
-8
0
VERTEX
8
OBJECT000
10
0
20
0
30
0
70
128
71
-2
72
8
73
3
0
VERTEX
8
OBJECT000
10
0
20
0
30
0
70
128
71
6
72
1
73
-4
0
VERTEX
8
OBJECT000
10
0
20
0
30
0
70
128
71
-6
72
4
73
7
0
SEQEND
8
OBJECT000
0
POLYLINE
8
OBJECT001
66
1
70
64
71
8
72
12
62
50
0
VERTEX
8
OBJECT001
10
-320.000000
20
149.333008
30
128.000000
70
192
0
VERTEX
8
OBJECT001
10
-320.000000
20
168.000000
30
96.000000
70
192
0
VERTEX
8
OBJECT001
10
-320.000000
20
104.000000
30
0.000000
70
192
0
VERTEX
8
OBJECT001
10
-320.000000
20
64.000000
30
0.000000
70
192
0
VERTEX
8
OBJECT001
10
-576.000000
20
64.000000
30
0.000000
70
192
0
VERTEX
8
OBJECT001
10
-576.000000
20
104.000000
30
0.000000
70
192
0
VERTEX
8
OBJECT001
10
-576.000000
20
168.000000
30
96.000000
70
192
0
VERTEX
8
OBJECT001
10
-576.000000
20
149.333008
30
128.000000
70
192
0
VERTEX
8
OBJECT001
10
0
20
0
30
0
70
128
71
2
72
3
73
-4
0
VERTEX
8
OBJECT001
10
0
20
0
30
0
70
128
71
-2
72
4
73
1
0
VERTEX
8
OBJECT001
10
0
20
0
30
0
70
128
71
6
72
7
73
-8
0
VERTEX
8
OBJECT001
10
0
20
0
30
0
70
128
71
-6
72
8
73
5
0
VERTEX
8
OBJECT001
10
0
20
0
30
0
70
128
71
7
72
2
73
-1
0
VERTEX
8
OBJECT001
10
0
20
0
30
0
70
128
71
-7
72
1
73
8
0
VERTEX
8
OBJECT001
10
0
20
0
30
0
70
128
71
5
72
4
73
-3
0
VERTEX
8
OBJECT001
10
0
20
0
30
0
70
128
71
-5
72
3
73
6
0
VERTEX
8
OBJECT001
10
0
20
0
30
0
70
128
71
4
72
5
73
-8
0
VERTEX
8
OBJECT001
10
0
20
0
30
0
70
128
71
-4
72
8
73
1
0
VERTEX
8
OBJECT001
10
0
20
0
30
0
70
128
71
6
72
3
73
-2
0
VERTEX
8
OBJECT001
10
0
20
0
30
0
70
128
71
-6
72
2
73
7
0
SEQEND
8
OBJECT001
0
POLYLINE
8
OBJECT002
66
1
70
64
71
8
72
12
62
50
0
VERTEX
8
OBJECT002
10
-320.000000
20
320.000000
30
-128.000000
70
192
0
VERTEX
8
OBJECT002
10
-320.000000
20
149.332764
30
-128.000000
70
192
0
VERTEX
8
OBJECT002
10
-320.000000
20
168.000000
30
-96.000000
70
192
0
VERTEX
8
OBJECT002
10
-320.000000
20
296.000000
30
-96.000000
70
192
0
VERTEX
8
OBJECT002
10
-576.000000
20
149.332764
30
-128.000000
70
192
0
VERTEX
8
OBJECT002
10
-576.000000
20
320.000000
30
-128.000000
70
192
0
VERTEX
8
OBJECT002
10
-576.000000
20
296.000000
30
-96.000000
70
192
0
VERTEX
8
OBJECT002
10
-576.000000
20
168.000000
30
-96.000000
70
192
0
VERTEX
8
OBJECT002
10
0
20
0
30
0
70
128
71
2
72
3
73
-4
0
VERTEX
8
OBJECT002
10
0
20
0
30
0
70
128
71
-2
72
4
73
1
0
VERTEX
8
OBJECT002
10
0
20
0
30
0
70
128
71
6
72
7
73
-8
0
VERTEX
8
OBJECT002
10
0
20
0
30
0
70
128
71
-6
72
8
73
5
0
VERTEX
8
OBJECT002
10
0
20
0
30
0
70
128
71
5
72
2
73
-1
0
VERTEX
8
OBJECT002
10
0
20
0
30
0
70
128
71
-5
72
1
73
6
0
VERTEX
8
OBJECT002
10
0
20
0
30
0
70
128
71
7
72
4
73
-3
0
VERTEX
8
OBJECT002
10
0
20
0
30
0
70
128
71
-7
72
3
73
8
0
VERTEX
8
OBJECT002
10
0
20
0
30
0
70
128
71
2
72
5
73
-8
0
VERTEX
8
OBJECT002
10
0
20
0
30
0
70
128
71
-2
72
8
73
3
0
VERTEX
8
OBJECT002
10
0
20
0
30
0
70
128
71
6
72
1
73
-4
0
VERTEX
8
OBJECT002
10
0
20
0
30
0
70
128
71
-6
72
4
73
7
0
SEQEND
8
OBJECT002
0
POLYLINE
8
OBJECT003
66
1
70
64
71
8
72
12
62
50
0
VERTEX
8
OBJECT003
10
-576.000000
20
320.000000
30
-128.000000
70
192
0
VERTEX
8
OBJECT003
10
-576.000000
20
296.000000
30
-96.000000
70
192
0
VERTEX
8
OBJECT003
10
-320.000000
20
296.000000
30
-96.000000
70
192
0
VERTEX
8
OBJECT003
10
-320.000000
20
320.000000
30
-128.000000
70
192
0
VERTEX
8
OBJECT003
10
-576.000000
20
296.000000
30
-64.000000
70
192
0
VERTEX
8
OBJECT003
10
-576.000000
20
320.000000
30
-64.000000
70
192
0
VERTEX
8
OBJECT003
10
-320.000000
20
320.000000
30
-64.000000
70
192
0
VERTEX
8
OBJECT003
10
-320.000000
20
296.000000
30
-64.000000
70
192
0
VERTEX
8
OBJECT003
10
0
20
0
30
0
70
128
71
2
72
3
73
-4
0
VERTEX
8
OBJECT003
10
0
20
0
30
0
70
128
71
-2
72
4
73
1
0
VERTEX
8
OBJECT003
10
0
20
0
30
0
70
128
71
6
72
7
73
-8
0
VERTEX
8
OBJECT003
10
0
20
0
30
0
70
128
71
-6
72
8
73
5
0
VERTEX
8
OBJECT003
10
0
20
0
30
0
70
128
71
1
72
6
73
-5
0
VERTEX
8
OBJECT003
10
0
20
0
30
0
70
128
71
-1
72
5
73
2
0
VERTEX
8
OBJECT003
10
0
20
0
30
0
70
128
71
3
72
8
73
-7
0
VERTEX
8
OBJECT003
10
0
20
0
30
0
70
128
71
-3
72
7
73
4
0
VERTEX
8
OBJECT003
10
0
20
0
30
0
70
128
71
2
72
5
73
-8
0
VERTEX
8
OBJECT003
10
0
20
0
30
0
70
128
71
-2
72
8
73
3
0
VERTEX
8
OBJECT003
10
0
20
0
30
0
70
128
71
4
72
7
73
-6
0
VERTEX
8
OBJECT003
10
0
20
0
30
0
70
128
71
-4
72
6
73
1
0
SEQEND
8
OBJECT003
0
POLYLINE
8
OBJECT004
66
1
70
64
71
8
72
12
62
50
0
VERTEX
8
OBJECT004
10
-576.000000
20
320.000000
30
-64.000000
70
192
0
VERTEX
8
OBJECT004
10
-576.000000
20
296.000000
30
-64.000000
70
192
0
VERTEX
8
OBJECT004
10
-512.000000
20
296.000000
30
-64.000000
70
192
0
VERTEX
8
OBJECT004
10
-512.000000
20
320.000000
30
-64.000000
70
192
0
VERTEX
8
OBJECT004
10
-576.000000
20
296.000000
30
64.000000
70
192
0
VERTEX
8
OBJECT004
10
-576.000000
20
320.000000
30
64.000000
70
192
0
VERTEX
8
OBJECT004
10
-512.000000
20
320.000000
30
64.000000
70
192
0
VERTEX
8
OBJECT004
10
-512.000000
20
296.000000
30
64.000000
70
192
0
VERTEX
8
OBJECT004
10
0
20
0
30
0
70
128
71
2
72
3
73
-4
0
VERTEX
8
OBJECT004
10
0
20
0
30
0
70
128
71
-2
72
4
73
1
0
VERTEX
8
OBJECT004
10
0
20
0
30
0
70
128
71
6
72
7
73
-8
0
VERTEX
8
OBJECT004
10
0
20
0
30
0
70
128
71
-6
72
8
73
5
0
VERTEX
8
OBJECT004
10
0
20
0
30
0
70
128
71
1
72
6
73
-5
0
VERTEX
8
OBJECT004
10
0
20
0
30
0
70
128
71
-1
72
5
73
2
0
VERTEX
8
OBJECT004
10
0
20
0
30
0
70
128
71
3
72
8
73
-7
0
VERTEX
8
OBJECT004
10
0
20
0
30
0
70
128
71
-3
72
7
73
4
0
VERTEX
8
OBJECT004
10
0
20
0
30
0
70
128
71
2
72
5
73
-8
0
VERTEX
8
OBJECT004
10
0
20
0
30
0
70
128
71
-2
72
8
73
3
0
VERTEX
8
OBJECT004
10
0
20
0
30
0
70
128
71
4
72
7
73
-6
0
VERTEX
8
OBJECT004
10
0
20
0
30
0
70
128
71
-4
72
6
73
1
0
SEQEND
8
OBJECT004
0
POLYLINE
8
OBJECT005
66
1
70
64
71
8
72
12
62
50
0
VERTEX
8
OBJECT005
10
-384.000000
20
320.000000
30
-64.000000
70
192
0
VERTEX
8
OBJECT005
10
-384.000000
20
296.000000
30
-64.000000
70
192
0
VERTEX
8
OBJECT005
10
-320.000000
20
296.000000
30
-64.000000
70
192
0
VERTEX
8
OBJECT005
10
-320.000000
20
320.000000
30
-64.000000
70
192
0
VERTEX
8
OBJECT005
10
-384.000000
20
296.000000
30
64.000000
70
192
0
VERTEX
8
OBJECT005
10
-384.000000
20
320.000000
30
64.000000
70
192
0
VERTEX
8
OBJECT005
10
-320.000000
20
320.000000
30
64.000000
70
192
0
VERTEX
8
OBJECT005
10
-320.000000
20
296.000000
30
64.000000
70
192
0
VERTEX
8
OBJECT005
10
0
20
0
30
0
70
128
71
2
72
3
73
-4
0
VERTEX
8
OBJECT005
10
0
20
0
30
0
70
128
71
-2
72
4
73
1
0
VERTEX
8
OBJECT005
10
0
20
0
30
0
70
128
71
6
72
7
73
-8
0
VERTEX
8
OBJECT005
10
0
20
0
30
0
70
128
71
-6
72
8
73
5
0
VERTEX
8
OBJECT005
10
0
20
0
30
0
70
128
71
1
72
6
73
-5
0
VERTEX
8
OBJECT005
10
0
20
0
30
0
70
128
71
-1
72
5
73
2
0
VERTEX
8
OBJECT005
10
0
20
0
30
0
70
128
71
3
72
8
73
-7
0
VERTEX
8
OBJECT005
10
0
20
0
30
0
70
128
71
-3
72
7
73
4
0
VERTEX
8
OBJECT005
10
0
20
0
30
0
70
128
71
2
72
5
73
-8
0
VERTEX
8
OBJECT005
10
0
20
0
30
0
70
128
71
-2
72
8
73
3
0
VERTEX
8
OBJECT005
10
0
20
0
30
0
70
128
71
4
72
7
73
-6
0
VERTEX
8
OBJECT005
10
0
20
0
30
0
70
128
71
-4
72
6
73
1
0
SEQEND
8
OBJECT005
0
POLYLINE
8
OBJECT006
66
1
70
64
71
8
72
12
62
50
0
VERTEX
8
OBJECT006
10
-576.000000
20
320.000000
30
64.000000
70
192
0
VERTEX
8
OBJECT006
10
-576.000000
20
296.000000
30
64.000000
70
192
0
VERTEX
8
OBJECT006
10
-320.000000
20
296.000000
30
64.000000
70
192
0
VERTEX
8
OBJECT006
10
-320.000000
20
320.000000
30
64.000000
70
192
0
VERTEX
8
OBJECT006
10
-320.000000
20
320.000000
30
128.000000
70
192
0
VERTEX
8
OBJECT006
10
-320.000000
20
296.000000
30
96.000000
70
192
0
VERTEX
8
OBJECT006
10
-576.000000
20
296.000000
30
96.000000
70
192
0
VERTEX
8
OBJECT006
10
-576.000000
20
320.000000
30
128.000000
70
192
0
VERTEX
8
OBJECT006
10
0
20
0
30
0
70
128
71
2
72
3
73
-4
0
VERTEX
8
OBJECT006
10
0
20
0
30
0
70
128
71
-2
72
4
73
1
0
VERTEX
8
OBJECT006
10
0
20
0
30
0
70
128
71
6
72
7
73
-8
0
VERTEX
8
OBJECT006
10
0
20
0
30
0
70
128
71
-6
72
8
73
5
0
VERTEX
8
OBJECT006
10
0
20
0
30
0
70
128
71
7
72
2
73
-1
0
VERTEX
8
OBJECT006
10
0
20
0
30
0
70
128
71
-7
72
1
73
8
0
VERTEX
8
OBJECT006
10
0
20
0
30
0
70
128
71
3
72
6
73
-5
0
VERTEX
8
OBJECT006
10
0
20
0
30
0
70
128
71
-3
72
5
73
4
0
VERTEX
8
OBJECT006
10
0
20
0
30
0
70
128
71
2
72
7
73
-6
0
VERTEX
8
OBJECT006
10
0
20
0
30
0
70
128
71
-2
72
6
73
3
0
VERTEX
8
OBJECT006
10
0
20
0
30
0
70
128
71
4
72
5
73
-8
0
VERTEX
8
OBJECT006
10
0
20
0
30
0
70
128
71
-4
72
8
73
1
0
SEQEND
8
OBJECT006
0
POLYLINE
8
OBJECT007
66
1
70
64
71
8
72
12
62
50
0
VERTEX
8
OBJECT007
10
-320.000000
20
296.000000
30
96.000000
70
192
0
VERTEX
8
OBJECT007
10
-320.000000
20
168.000000
30
96.000000
70
192
0
VERTEX
8
OBJECT007
10
-320.000000
20
149.332764
30
128.000000
70
192
0
VERTEX
8
OBJECT007
10
-320.000000
20
320.000000
30
128.000000
70
192
0
VERTEX
8
OBJECT007
10
-576.000000
20
168.000000
30
96.000000
70
192
0
VERTEX
8
OBJECT007
10
-576.000000
20
296.000000
30
96.000000
70
192
0
VERTEX
8
OBJECT007
10
-576.000000
20
320.000000
30
128.000000
70
192
0
VERTEX
8
OBJECT007
10
-576.000000
20
149.332764
30
128.000000
70
192
0
VERTEX
8
OBJECT007
10
0
20
0
30
0
70
128
71
2
72
3
73
-4
0
VERTEX
8
OBJECT007
10
0
20
0
30
0
70
128
71
-2
72
4
73
1
0
VERTEX
8
OBJECT007
10
0
20
0
30
0
70
128
71
6
72
7
73
-8
0
VERTEX
8
OBJECT007
10
0
20
0
30
0
70
128
71
-6
72
8
73
5
0
VERTEX
8
OBJECT007
10
0
20
0
30
0
70
128
71
7
72
4
73
-3
0
VERTEX
8
OBJECT007
10
0
20
0
30
0
70
128
71
-7
72
3
73
8
0
VERTEX
8
OBJECT007
10
0
20
0
30
0
70
128
71
5
72
2
73
-1
0
VERTEX
8
OBJECT007
10
0
20
0
30
0
70
128
71
-5
72
1
73
6
0
VERTEX
8
OBJECT007
10
0
20
0
30
0
70
128
71
2
72
5
73
-8
0
VERTEX
8
OBJECT007
10
0
20
0
30
0
70
128
71
-2
72
8
73
3
0
VERTEX
8
OBJECT007
10
0
20
0
30
0
70
128
71
6
72
1
73
-4
0
VERTEX
8
OBJECT007
10
0
20
0
30
0
70
128
71
-6
72
4
73
7
0
SEQEND
8
OBJECT007
0
POLYLINE
8
OBJECT008
66
1
70
64
71
10
72
16
62
50
0
VERTEX
8
OBJECT008
10
-336.000000
20
168.000000
30
96.000000
70
192
0
VERTEX
8
OBJECT008
10
-336.000000
20
104.000000
30
0.000000
70
192
0
VERTEX
8
OBJECT008
10
-336.000000
20
168.000000
30
-96.000000
70
192
0
VERTEX
8
OBJECT008
10
-336.000000
20
296.000000
30
-96.000000
70
192
0
VERTEX
8
OBJECT008
10
-336.000000
20
296.000000
30
96.000000
70
192
0
VERTEX
8
OBJECT008
10
-320.000000
20
296.000000
30
-96.000000
70
192
0
VERTEX
8
OBJECT008
10
-320.000000
20
168.000000
30
-96.000000
70
192
0
VERTEX
8
OBJECT008
10
-320.000000
20
104.000000
30
0.000000
70
192
0
VERTEX
8
OBJECT008
10
-320.000000
20
168.000000
30
96.000000
70
192
0
VERTEX
8
OBJECT008
10
-320.000000
20
296.000000
30
96.000000
70
192
0
VERTEX
8
OBJECT008
10
0
20
0
30
0
70
128
71
2
72
3
73
-4
0
VERTEX
8
OBJECT008
10
0
20
0
30
0
70
128
71
-2
72
4
73
-5
0
VERTEX
8
OBJECT008
10
0
20
0
30
0
70
128
71
-2
72
5
73
1
0
VERTEX
8
OBJECT008
10
0
20
0
30
0
70
128
71
7
72
8
73
-9
0
VERTEX
8
OBJECT008
10
0
20
0
30
0
70
128
71
-7
72
9
73
-10
0
VERTEX
8
OBJECT008
10
0
20
0
30
0
70
128
71
-7
72
10
73
6
0
VERTEX
8
OBJECT008
10
0
20
0
30
0
70
128
71
8
72
2
73
-1
0
VERTEX
8
OBJECT008
10
0
20
0
30
0
70
128
71
-8
72
1
73
9
0
VERTEX
8
OBJECT008
10
0
20
0
30
0
70
128
71
7
72
3
73
-2
0
VERTEX
8
OBJECT008
10
0
20
0
30
0
70
128
71
-7
72
2
73
8
0
VERTEX
8
OBJECT008
10
0
20
0
30
0
70
128
71
3
72
7
73
-6
0
VERTEX
8
OBJECT008
10
0
20
0
30
0
70
128
71
-3
72
6
73
4
0
VERTEX
8
OBJECT008
10
0
20
0
30
0
70
128
71
5
72
10
73
-9
0
VERTEX
8
OBJECT008
10
0
20
0
30
0
70
128
71
-5
72
9
73
1
0
VERTEX
8
OBJECT008
10
0
20
0
30
0
70
128
71
4
72
6
73
-10
0
VERTEX
8
OBJECT008
10
0
20
0
30
0
70
128
71
-4
72
10
73
5
0
SEQEND
8
OBJECT008
0
POLYLINE
8
OBJECT009
66
1
70
64
71
8
72
12
62
50
0
VERTEX
8
OBJECT009
10
-560.000000
20
296.000000
30
72.000000
70
192
0
VERTEX
8
OBJECT009
10
-560.000000
20
160.000000
30
72.000000
70
192
0
VERTEX
8
OBJECT009
10
-336.000000
20
160.000000
30
72.000000
70
192
0
VERTEX
8
OBJECT009
10
-336.000000
20
296.000000
30
72.000000
70
192
0
VERTEX
8
OBJECT009
10
-560.000000
20
168.000000
30
80.000000
70
192
0
VERTEX
8
OBJECT009
10
-560.000000
20
296.000000
30
80.000000
70
192
0
VERTEX
8
OBJECT009
10
-336.000000
20
296.000000
30
80.000000
70
192
0
VERTEX
8
OBJECT009
10
-336.000000
20
168.000000
30
80.000000
70
192
0
VERTEX
8
OBJECT009
10
0
20
0
30
0
70
128
71
2
72
3
73
-4
0
VERTEX
8
OBJECT009
10
0
20
0
30
0
70
128
71
-2
72
4
73
1
0
VERTEX
8
OBJECT009
10
0
20
0
30
0
70
128
71
6
72
7
73
-8
0
VERTEX
8
OBJECT009
10
0
20
0
30
0
70
128
71
-6
72
8
73
5
0
VERTEX
8
OBJECT009
10
0
20
0
30
0
70
128
71
1
72
6
73
-5
0
VERTEX
8
OBJECT009
10
0
20
0
30
0
70
128
71
-1
72
5
73
2
0
VERTEX
8
OBJECT009
10
0
20
0
30
0
70
128
71
3
72
8
73
-7
0
VERTEX
8
OBJECT009
10
0
20
0
30
0
70
128
71
-3
72
7
73
4
0
VERTEX
8
OBJECT009
10
0
20
0
30
0
70
128
71
4
72
7
73
-6
0
VERTEX
8
OBJECT009
10
0
20
0
30
0
70
128
71
-4
72
6
73
1
0
VERTEX
8
OBJECT009
10
0
20
0
30
0
70
128
71
2
72
5
73
-8
0
VERTEX
8
OBJECT009
10
0
20
0
30
0
70
128
71
-2
72
8
73
3
0
SEQEND
8
OBJECT009
0
POLYLINE
8
OBJECT010
66
1
70
64
71
8
72
12
62
50
0
VERTEX
8
OBJECT010
10
-560.000000
20
160.000000
30
72.000000
70
192
0
VERTEX
8
OBJECT010
10
-560.000000
20
152.000000
30
72.000000
70
192
0
VERTEX
8
OBJECT010
10
-336.000000
20
152.000000
30
72.000000
70
192
0
VERTEX
8
OBJECT010
10
-336.000000
20
160.000000
30
72.000000
70
192
0
VERTEX
8
OBJECT010
10
-560.000000
20
168.000000
30
96.000000
70
192
0
VERTEX
8
OBJECT010
10
-560.000000
20
184.000000
30
96.000000
70
192
0
VERTEX
8
OBJECT010
10
-336.000000
20
184.000000
30
96.000000
70
192
0
VERTEX
8
OBJECT010
10
-336.000000
20
168.000000
30
96.000000
70
192
0
VERTEX
8
OBJECT010
10
0
20
0
30
0
70
128
71
2
72
3
73
-4
0
VERTEX
8
OBJECT010
10
0
20
0
30
0
70
128
71
-2
72
4
73
1
0
VERTEX
8
OBJECT010
10
0
20
0
30
0
70
128
71
6
72
7
73
-8
0
VERTEX
8
OBJECT010
10
0
20
0
30
0
70
128
71
-6
72
8
73
5
0
VERTEX
8
OBJECT010
10
0
20
0
30
0
70
128
71
1
72
6
73
-5
0
VERTEX
8
OBJECT010
10
0
20
0
30
0
70
128
71
-1
72
5
73
2
0
VERTEX
8
OBJECT010
10
0
20
0
30
0
70
128
71
3
72
8
73
-7
0
VERTEX
8
OBJECT010
10
0
20
0
30
0
70
128
71
-3
72
7
73
4
0
VERTEX
8
OBJECT010
10
0
20
0
30
0
70
128
71
4
72
7
73
-6
0
VERTEX
8
OBJECT010
10
0
20
0
30
0
70
128
71
-4
72
6
73
1
0
VERTEX
8
OBJECT010
10
0
20
0
30
0
70
128
71
2
72
5
73
-8
0
VERTEX
8
OBJECT010
10
0
20
0
30
0
70
128
71
-2
72
8
73
3
0
SEQEND
8
OBJECT010
0
POLYLINE
8
OBJECT011
66
1
70
64
71
8
72
12
62
50
0
VERTEX
8
OBJECT011
10
-560.000000
20
152.000000
30
-72.000000
70
192
0
VERTEX
8
OBJECT011
10
-560.000000
20
160.000000
30
-72.000000
70
192
0
VERTEX
8
OBJECT011
10
-336.000000
20
160.000000
30
-72.000000
70
192
0
VERTEX
8
OBJECT011
10
-336.000000
20
152.000000
30
-72.000000
70
192
0
VERTEX
8
OBJECT011
10
-560.000000
20
184.000000
30
-96.000000
70
192
0
VERTEX
8
OBJECT011
10
-560.000000
20
168.000000
30
-96.000000
70
192
0
VERTEX
8
OBJECT011
10
-336.000000
20
168.000000
30
-96.000000
70
192
0
VERTEX
8
OBJECT011
10
-336.000000
20
184.000000
30
-96.000000
70
192
0
VERTEX
8
OBJECT011
10
0
20
0
30
0
70
128
71
2
72
3
73
-4
0
VERTEX
8
OBJECT011
10
0
20
0
30
0
70
128
71
-2
72
4
73
1
0
VERTEX
8
OBJECT011
10
0
20
0
30
0
70
128
71
6
72
7
73
-8
0
VERTEX
8
OBJECT011
10
0
20
0
30
0
70
128
71
-6
72
8
73
5
0
VERTEX
8
OBJECT011
10
0
20
0
30
0
70
128
71
5
72
2
73
-1
0
VERTEX
8
OBJECT011
10
0
20
0
30
0
70
128
71
-5
72
1
73
6
0
VERTEX
8
OBJECT011
10
0
20
0
30
0
70
128
71
7
72
4
73
-3
0
VERTEX
8
OBJECT011
10
0
20
0
30
0
70
128
71
-7
72
3
73
8
0
VERTEX
8
OBJECT011
10
0
20
0
30
0
70
128
71
8
72
3
73
-2
0
VERTEX
8
OBJECT011
10
0
20
0
30
0
70
128
71
-8
72
2
73
5
0
VERTEX
8
OBJECT011
10
0
20
0
30
0
70
128
71
6
72
1
73
-4
0
VERTEX
8
OBJECT011
10
0
20
0
30
0
70
128
71
-6
72
4
73
7
0
SEQEND
8
OBJECT011
0
POLYLINE
8
OBJECT012
66
1
70
64
71
8
72
12
62
50
0
VERTEX
8
OBJECT012
10
-560.000000
20
160.000000
30
-72.000000
70
192
0
VERTEX
8
OBJECT012
10
-560.000000
20
296.000000
30
-72.000000
70
192
0
VERTEX
8
OBJECT012
10
-336.000000
20
296.000000
30
-72.000000
70
192
0
VERTEX
8
OBJECT012
10
-336.000000
20
160.000000
30
-72.000000
70
192
0
VERTEX
8
OBJECT012
10
-560.000000
20
296.000000
30
-80.000000
70
192
0
VERTEX
8
OBJECT012
10
-560.000000
20
168.000000
30
-80.000000
70
192
0
VERTEX
8
OBJECT012
10
-336.000000
20
168.000000
30
-80.000000
70
192
0
VERTEX
8
OBJECT012
10
-336.000000
20
296.000000
30
-80.000000
70
192
0
VERTEX
8
OBJECT012
10
0
20
0
30
0
70
128
71
2
72
3
73
-4
0
VERTEX
8
OBJECT012
10
0
20
0
30
0
70
128
71
-2
72
4
73
1
0
VERTEX
8
OBJECT012
10
0
20
0
30
0
70
128
71
6
72
7
73
-8
0
VERTEX
8
OBJECT012
10
0
20
0
30
0
70
128
71
-6
72
8
73
5
0
VERTEX
8
OBJECT012
10
0
20
0
30
0
70
128
71
5
72
2
73
-1
0
VERTEX
8
OBJECT012
10
0
20
0
30
0
70
128
71
-5
72
1
73
6
0
VERTEX
8
OBJECT012
10
0
20
0
30
0
70
128
71
7
72
4
73
-3
0
VERTEX
8
OBJECT012
10
0
20
0
30
0
70
128
71
-7
72
3
73
8
0
VERTEX
8
OBJECT012
10
0
20
0
30
0
70
128
71
8
72
3
73
-2
0
VERTEX
8
OBJECT012
10
0
20
0
30
0
70
128
71
-8
72
2
73
5
0
VERTEX
8
OBJECT012
10
0
20
0
30
0
70
128
71
6
72
1
73
-4
0
VERTEX
8
OBJECT012
10
0
20
0
30
0
70
128
71
-6
72
4
73
7
0
SEQEND
8
OBJECT012
0
POLYLINE
8
OBJECT013
66
1
70
64
71
10
72
16
62
50
0
VERTEX
8
OBJECT013
10
-576.000000
20
168.000000
30
96.000000
70
192
0
VERTEX
8
OBJECT013
10
-576.000000
20
104.000000
30
0.000000
70
192
0
VERTEX
8
OBJECT013
10
-576.000000
20
168.000000
30
-96.000000
70
192
0
VERTEX
8
OBJECT013
10
-576.000000
20
296.000000
30
-96.000000
70
192
0
VERTEX
8
OBJECT013
10
-576.000000
20
296.000000
30
96.000000
70
192
0
VERTEX
8
OBJECT013
10
-560.000000
20
296.000000
30
-96.000000
70
192
0
VERTEX
8
OBJECT013
10
-560.000000
20
168.000000
30
-96.000000
70
192
0
VERTEX
8
OBJECT013
10
-560.000000
20
104.000000
30
0.000000
70
192
0
VERTEX
8
OBJECT013
10
-560.000000
20
168.000000
30
96.000000
70
192
0
VERTEX
8
OBJECT013
10
-560.000000
20
296.000000
30
96.000000
70
192
0
VERTEX
8
OBJECT013
10
0
20
0
30
0
70
128
71
2
72
3
73
-4
0
VERTEX
8
OBJECT013
10
0
20
0
30
0
70
128
71
-2
72
4
73
-5
0
VERTEX
8
OBJECT013
10
0
20
0
30
0
70
128
71
-2
72
5
73
1
0
VERTEX
8
OBJECT013
10
0
20
0
30
0
70
128
71
7
72
8
73
-9
0
VERTEX
8
OBJECT013
10
0
20
0
30
0
70
128
71
-7
72
9
73
-10
0
VERTEX
8
OBJECT013
10
0
20
0
30
0
70
128
71
-7
72
10
73
6
0
VERTEX
8
OBJECT013
10
0
20
0
30
0
70
128
71
8
72
2
73
-1
0
VERTEX
8
OBJECT013
10
0
20
0
30
0
70
128
71
-8
72
1
73
9
0
VERTEX
8
OBJECT013
10
0
20
0
30
0
70
128
71
7
72
3
73
-2
0
VERTEX
8
OBJECT013
10
0
20
0
30
0
70
128
71
-7
72
2
73
8
0
VERTEX
8
OBJECT013
10
0
20
0
30
0
70
128
71
3
72
7
73
-6
0
VERTEX
8
OBJECT013
10
0
20
0
30
0
70
128
71
-3
72
6
73
4
0
VERTEX
8
OBJECT013
10
0
20
0
30
0
70
128
71
5
72
10
73
-9
0
VERTEX
8
OBJECT013
10
0
20
0
30
0
70
128
71
-5
72
9
73
1
0
VERTEX
8
OBJECT013
10
0
20
0
30
0
70
128
71
4
72
6
73
-10
0
VERTEX
8
OBJECT013
10
0
20
0
30
0
70
128
71
-4
72
10
73
5
0
SEQEND
8
OBJECT013
0
ENDSEC
0
EOF
