0
SECTION
2
HEADER
9
$ACADVER
1
AC1008
9
$UCSORG
10
0.0
20
0.0
30
0.0
9
$UCSXDIR
10
1.0
20
0.0
30
0.0
9
$TILEMODE
70
1
9
$UCSYDIR
10
0.0
20
1.0
30
0.0
9
$EXTMIN
10
-110.472435
20
-72.730698
30
-23.255003
9
$EXTMAX
10
427.149658
20
16.000000
30
64.000000
0
ENDSEC
0
SECTION
2
TABLES
0
TABLE
2
LTYPE
70
1
0
LTYPE
2
CONTINUOUS
70
64
3
Solid line
72
65
73
0
40
0.0
0
ENDTAB
0
TABLE
2
LAYER
70
1
0
LAYER
2
0
70
0
62
7
6
CONTINUOUS
0
ENDTAB
0
TABLE
2
STYLE
70
1
0
STYLE
2
STANDARD
70
0
40
0.0
41
1.0
50
0.0
71
0
42
0.2
3
txt
4

0
ENDTAB
0
TABLE
2
UCS
70
0
0
ENDTAB
0
ENDSEC
0
SECTION
2
ENTITIES
0
POLYLINE
8
OBJECT000
66
1
70
64
71
10
72
16
62
50
0
VERTEX
8
OBJECT000
10
-109.335732
20
-24.894222
30
64.000000
70
192
0
VERTEX
8
OBJECT000
10
-110.471985
20
-21.058401
30
64.000000
70
192
0
VERTEX
8
OBJECT000
10
-41.436348
20
-0.610498
30
64.000000
70
192
0
VERTEX
8
OBJECT000
10
-40.300461
20
-4.445180
30
64.000000
70
192
0
VERTEX
8
OBJECT000
10
-110.471985
20
-21.058401
30
-23.254999
70
192
0
VERTEX
8
OBJECT000
10
-96.270622
20
-69.000000
30
-23.254999
70
192
0
VERTEX
8
OBJECT000
10
-27.235725
20
-48.550877
30
-23.254999
70
192
0
VERTEX
8
OBJECT000
10
-41.436348
20
-0.610498
30
-23.254999
70
192
0
VERTEX
8
OBJECT000
10
-96.271027
20
-69.000000
30
23.631302
70
192
0
VERTEX
8
OBJECT000
10
-27.235073
20
-48.550686
30
23.631414
70
192
0
VERTEX
8
OBJECT000
10
0
20
0
30
0
70
128
71
2
72
3
73
-4
0
VERTEX
8
OBJECT000
10
0
20
0
30
0
70
128
71
-2
72
4
73
1
0
VERTEX
8
OBJECT000
10
0
20
0
30
0
70
128
71
6
72
7
73
-8
0
VERTEX
8
OBJECT000
10
0
20
0
30
0
70
128
71
-6
72
8
73
5
0
VERTEX
8
OBJECT000
10
0
20
0
30
0
70
128
71
5
72
2
73
-1
0
VERTEX
8
OBJECT000
10
0
20
0
30
0
70
128
71
-5
72
1
73
-9
0
VERTEX
8
OBJECT000
10
0
20
0
30
0
70
128
71
-5
72
9
73
6
0
VERTEX
8
OBJECT000
10
0
20
0
30
0
70
128
71
7
72
10
73
-4
0
VERTEX
8
OBJECT000
10
0
20
0
30
0
70
128
71
-7
72
4
73
-3
0
VERTEX
8
OBJECT000
10
0
20
0
30
0
70
128
71
-7
72
3
73
8
0
VERTEX
8
OBJECT000
10
0
20
0
30
0
70
128
71
8
72
3
73
-2
0
VERTEX
8
OBJECT000
10
0
20
0
30
0
70
128
71
-8
72
2
73
5
0
VERTEX
8
OBJECT000
10
0
20
0
30
0
70
128
71
6
72
9
73
-10
0
VERTEX
8
OBJECT000
10
0
20
0
30
0
70
128
71
-6
72
10
73
7
0
VERTEX
8
OBJECT000
10
0
20
0
30
0
70
128
71
1
72
4
73
-10
0
VERTEX
8
OBJECT000
10
0
20
0
30
0
70
128
71
-1
72
10
73
9
0
SEQEND
8
OBJECT000
0
POLYLINE
8
OBJECT001
66
1
70
64
71
10
72
16
62
50
0
VERTEX
8
OBJECT001
10
-42.234375
20
-2.000000
30
64.000000
70
192
0
VERTEX
8
OBJECT001
10
-42.234375
20
0.000000
30
64.000000
70
192
0
VERTEX
8
OBJECT001
10
59.764202
20
0.000000
30
64.000000
70
192
0
VERTEX
8
OBJECT001
10
59.764202
20
-2.000000
30
64.000000
70
192
0
VERTEX
8
OBJECT001
10
-42.234375
20
0.000000
30
-23.254999
70
192
0
VERTEX
8
OBJECT001
10
-42.234375
20
-48.000000
30
-23.254999
70
192
0
VERTEX
8
OBJECT001
10
59.764202
20
-48.000000
30
-23.254999
70
192
0
VERTEX
8
OBJECT001
10
59.764202
20
0.000000
30
-23.254999
70
192
0
VERTEX
8
OBJECT001
10
-42.235802
20
-48.000000
30
23.630999
70
192
0
VERTEX
8
OBJECT001
10
59.764198
20
-48.000000
30
23.630999
70
192
0
VERTEX
8
OBJECT001
10
0
20
0
30
0
70
128
71
2
72
3
73
-4
0
VERTEX
8
OBJECT001
10
0
20
0
30
0
70
128
71
-2
72
4
73
1
0
VERTEX
8
OBJECT001
10
0
20
0
30
0
70
128
71
6
72
7
73
-8
0
VERTEX
8
OBJECT001
10
0
20
0
30
0
70
128
71
-6
72
8
73
5
0
VERTEX
8
OBJECT001
10
0
20
0
30
0
70
128
71
5
72
2
73
-1
0
VERTEX
8
OBJECT001
10
0
20
0
30
0
70
128
71
-5
72
1
73
-9
0
VERTEX
8
OBJECT001
10
0
20
0
30
0
70
128
71
-5
72
9
73
6
0
VERTEX
8
OBJECT001
10
0
20
0
30
0
70
128
71
7
72
10
73
-4
0
VERTEX
8
OBJECT001
10
0
20
0
30
0
70
128
71
-7
72
4
73
-3
0
VERTEX
8
OBJECT001
10
0
20
0
30
0
70
128
71
-7
72
3
73
8
0
VERTEX
8
OBJECT001
10
0
20
0
30
0
70
128
71
6
72
9
73
-10
0
VERTEX
8
OBJECT001
10
0
20
0
30
0
70
128
71
-6
72
10
73
7
0
VERTEX
8
OBJECT001
10
0
20
0
30
0
70
128
71
1
72
4
73
-10
0
VERTEX
8
OBJECT001
10
0
20
0
30
0
70
128
71
-1
72
10
73
9
0
VERTEX
8
OBJECT001
10
0
20
0
30
0
70
128
71
8
72
3
73
-2
0
VERTEX
8
OBJECT001
10
0
20
0
30
0
70
128
71
-8
72
2
73
5
0
SEQEND
8
OBJECT001
0
POLYLINE
8
OBJECT002
66
1
70
64
71
10
72
16
62
50
0
VERTEX
8
OBJECT002
10
57.828747
20
-4.445142
30
64.000000
70
192
0
VERTEX
8
OBJECT002
10
58.964664
20
-0.610497
30
64.000000
70
192
0
VERTEX
8
OBJECT002
10
128.000000
20
-21.058552
30
64.000000
70
192
0
VERTEX
8
OBJECT002
10
126.865532
20
-24.894754
30
64.000000
70
192
0
VERTEX
8
OBJECT002
10
58.966618
20
-0.610497
30
-23.254999
70
192
0
VERTEX
8
OBJECT002
10
44.765377
20
-48.551250
30
-23.254999
70
192
0
VERTEX
8
OBJECT002
10
113.797012
20
-69.000000
30
-23.254999
70
192
0
VERTEX
8
OBJECT002
10
128.000000
20
-21.058552
30
-23.254999
70
192
0
VERTEX
8
OBJECT002
10
113.799973
20
-69.000000
30
23.631235
70
192
0
VERTEX
8
OBJECT002
10
44.763405
20
-48.550667
30
23.631300
70
192
0
VERTEX
8
OBJECT002
10
0
20
0
30
0
70
128
71
2
72
3
73
-4
0
VERTEX
8
OBJECT002
10
0
20
0
30
0
70
128
71
-2
72
4
73
1
0
VERTEX
8
OBJECT002
10
0
20
0
30
0
70
128
71
6
72
7
73
-8
0
VERTEX
8
OBJECT002
10
0
20
0
30
0
70
128
71
-6
72
8
73
5
0
VERTEX
8
OBJECT002
10
0
20
0
30
0
70
128
71
7
72
9
73
-4
0
VERTEX
8
OBJECT002
10
0
20
0
30
0
70
128
71
-7
72
4
73
-3
0
VERTEX
8
OBJECT002
10
0
20
0
30
0
70
128
71
-7
72
3
73
8
0
VERTEX
8
OBJECT002
10
0
20
0
30
0
70
128
71
5
72
2
73
-1
0
VERTEX
8
OBJECT002
10
0
20
0
30
0
70
128
71
-5
72
1
73
-10
0
VERTEX
8
OBJECT002
10
0
20
0
30
0
70
128
71
-5
72
10
73
6
0
VERTEX
8
OBJECT002
10
0
20
0
30
0
70
128
71
8
72
3
73
-2
0
VERTEX
8
OBJECT002
10
0
20
0
30
0
70
128
71
-8
72
2
73
5
0
VERTEX
8
OBJECT002
10
0
20
0
30
0
70
128
71
6
72
10
73
-9
0
VERTEX
8
OBJECT002
10
0
20
0
30
0
70
128
71
-6
72
9
73
7
0
VERTEX
8
OBJECT002
10
0
20
0
30
0
70
128
71
1
72
4
73
-9
0
VERTEX
8
OBJECT002
10
0
20
0
30
0
70
128
71
-1
72
9
73
10
0
SEQEND
8
OBJECT002
0
POLYLINE
8
OBJECT003
66
1
70
64
71
12
72
20
62
50
0
VERTEX
8
OBJECT003
10
358.074829
20
-2.000000
30
64.000000
70
192
0
VERTEX
8
OBJECT003
10
255.074829
20
-2.000000
30
64.000000
70
192
0
VERTEX
8
OBJECT003
10
255.074829
20
0.000000
30
64.000000
70
192
0
VERTEX
8
OBJECT003
10
358.074829
20
0.000000
30
64.000000
70
192
0
VERTEX
8
OBJECT003
10
275.074829
20
-48.000000
30
-23.255003
70
192
0
VERTEX
8
OBJECT003
10
343.074829
20
-48.000000
30
-23.255003
70
192
0
VERTEX
8
OBJECT003
10
358.074829
20
16.000000
30
-23.000000
70
192
0
VERTEX
8
OBJECT003
10
255.074829
20
16.000000
30
-23.000000
70
192
0
VERTEX
8
OBJECT003
10
255.074829
20
-2.000000
30
-23.255003
70
192
0
VERTEX
8
OBJECT003
10
255.074829
20
-1.999992
30
61.993927
70
192
0
VERTEX
8
OBJECT003
10
343.074829
20
-48.000000
30
23.627628
70
192
0
VERTEX
8
OBJECT003
10
275.074829
20
-48.000000
30
23.627628
70
192
0
VERTEX
8
OBJECT003
10
0
20
0
30
0
70
128
71
2
72
3
73
-4
0
VERTEX
8
OBJECT003
10
0
20
0
30
0
70
128
71
-2
72
4
73
1
0
VERTEX
8
OBJECT003
10
0
20
0
30
0
70
128
71
6
72
7
73
-8
0
VERTEX
8
OBJECT003
10
0
20
0
30
0
70
128
71
-6
72
8
73
-9
0
VERTEX
8
OBJECT003
10
0
20
0
30
0
70
128
71
-6
72
9
73
5
0
VERTEX
8
OBJECT003
10
0
20
0
30
0
70
128
71
2
72
10
73
-9
0
VERTEX
8
OBJECT003
10
0
20
0
30
0
70
128
71
-2
72
9
73
-8
0
VERTEX
8
OBJECT003
10
0
20
0
30
0
70
128
71
-2
72
8
73
3
0
VERTEX
8
OBJECT003
10
0
20
0
30
0
70
128
71
6
72
5
73
-12
0
VERTEX
8
OBJECT003
10
0
20
0
30
0
70
128
71
-6
72
12
73
11
0
VERTEX
8
OBJECT003
10
0
20
0
30
0
70
128
71
11
72
12
73
-10
0
VERTEX
8
OBJECT003
10
0
20
0
30
0
70
128
71
-11
72
10
73
-2
0
VERTEX
8
OBJECT003
10
0
20
0
30
0
70
128
71
-11
72
2
73
1
0
VERTEX
8
OBJECT003
10
0
20
0
30
0
70
128
71
8
72
7
73
-4
0
VERTEX
8
OBJECT003
10
0
20
0
30
0
70
128
71
-8
72
4
73
3
0
VERTEX
8
OBJECT003
10
0
20
0
30
0
70
128
71
5
72
9
73
-10
0
VERTEX
8
OBJECT003
10
0
20
0
30
0
70
128
71
-5
72
10
73
12
0
VERTEX
8
OBJECT003
10
0
20
0
30
0
70
128
71
1
72
4
73
-7
0
VERTEX
8
OBJECT003
10
0
20
0
30
0
70
128
71
-1
72
7
73
-6
0
VERTEX
8
OBJECT003
10
0
20
0
30
0
70
128
71
-1
72
6
73
11
0
SEQEND
8
OBJECT003
0
POLYLINE
8
OBJECT004
66
1
70
64
71
10
72
16
62
50
0
VERTEX
8
OBJECT004
10
255.074829
20
0.000000
30
64.000000
70
192
0
VERTEX
8
OBJECT004
10
255.074829
20
-2.000000
30
64.000000
70
192
0
VERTEX
8
OBJECT004
10
187.684036
20
-27.645149
30
64.000000
70
192
0
VERTEX
8
OBJECT004
10
187.000000
20
-25.684906
30
64.000000
70
192
0
VERTEX
8
OBJECT004
10
203.416962
20
-72.730698
30
23.626144
70
192
0
VERTEX
8
OBJECT004
10
203.416962
20
-72.730698
30
21.372498
70
192
0
VERTEX
8
OBJECT004
10
187.000000
20
-25.684906
30
63.612495
70
192
0
VERTEX
8
OBJECT004
10
255.074829
20
0.000000
30
63.612495
70
192
0
VERTEX
8
OBJECT004
10
275.074829
20
-48.000000
30
21.372498
70
192
0
VERTEX
8
OBJECT004
10
275.074829
20
-48.000000
30
23.626144
70
192
0
VERTEX
8
OBJECT004
10
0
20
0
30
0
70
128
71
2
72
3
73
-4
0
VERTEX
8
OBJECT004
10
0
20
0
30
0
70
128
71
-2
72
4
73
1
0
VERTEX
8
OBJECT004
10
0
20
0
30
0
70
128
71
5
72
6
73
-7
0
VERTEX
8
OBJECT004
10
0
20
0
30
0
70
128
71
-5
72
7
73
-4
0
VERTEX
8
OBJECT004
10
0
20
0
30
0
70
128
71
-5
72
4
73
3
0
VERTEX
8
OBJECT004
10
0
20
0
30
0
70
128
71
1
72
8
73
-9
0
VERTEX
8
OBJECT004
10
0
20
0
30
0
70
128
71
-1
72
9
73
-10
0
VERTEX
8
OBJECT004
10
0
20
0
30
0
70
128
71
-1
72
10
73
2
0
VERTEX
8
OBJECT004
10
0
20
0
30
0
70
128
71
9
72
6
73
-5
0
VERTEX
8
OBJECT004
10
0
20
0
30
0
70
128
71
-9
72
5
73
10
0
VERTEX
8
OBJECT004
10
0
20
0
30
0
70
128
71
10
72
5
73
-3
0
VERTEX
8
OBJECT004
10
0
20
0
30
0
70
128
71
-10
72
3
73
2
0
VERTEX
8
OBJECT004
10
0
20
0
30
0
70
128
71
7
72
8
73
-1
0
VERTEX
8
OBJECT004
10
0
20
0
30
0
70
128
71
-7
72
1
73
4
0
VERTEX
8
OBJECT004
10
0
20
0
30
0
70
128
71
8
72
7
73
-6
0
VERTEX
8
OBJECT004
10
0
20
0
30
0
70
128
71
-8
72
6
73
9
0
SEQEND
8
OBJECT004
0
POLYLINE
8
OBJECT005
66
1
70
64
71
10
72
16
62
50
0
VERTEX
8
OBJECT005
10
358.074829
20
0.000000
30
64.000000
70
192
0
VERTEX
8
OBJECT005
10
427.149658
20
-25.684906
30
64.000000
70
192
0
VERTEX
8
OBJECT005
10
426.465637
20
-27.645149
30
64.000000
70
192
0
VERTEX
8
OBJECT005
10
358.074829
20
-2.000000
30
64.000000
70
192
0
VERTEX
8
OBJECT005
10
410.732697
20
-72.730698
30
23.626144
70
192
0
VERTEX
8
OBJECT005
10
427.149658
20
-25.684906
30
63.612495
70
192
0
VERTEX
8
OBJECT005
10
410.732697
20
-72.730698
30
21.372498
70
192
0
VERTEX
8
OBJECT005
10
343.074829
20
-48.000000
30
23.626144
70
192
0
VERTEX
8
OBJECT005
10
343.074829
20
-48.000000
30
21.372498
70
192
0
VERTEX
8
OBJECT005
10
358.074829
20
0.000000
30
63.612495
70
192
0
VERTEX
8
OBJECT005
10
0
20
0
30
0
70
128
71
2
72
3
73
-4
0
VERTEX
8
OBJECT005
10
0
20
0
30
0
70
128
71
-2
72
4
73
1
0
VERTEX
8
OBJECT005
10
0
20
0
30
0
70
128
71
3
72
2
73
-6
0
VERTEX
8
OBJECT005
10
0
20
0
30
0
70
128
71
-3
72
6
73
-7
0
VERTEX
8
OBJECT005
10
0
20
0
30
0
70
128
71
-3
72
7
73
5
0
VERTEX
8
OBJECT005
10
0
20
0
30
0
70
128
71
4
72
8
73
-9
0
VERTEX
8
OBJECT005
10
0
20
0
30
0
70
128
71
-4
72
9
73
-10
0
VERTEX
8
OBJECT005
10
0
20
0
30
0
70
128
71
-4
72
10
73
1
0
VERTEX
8
OBJECT005
10
0
20
0
30
0
70
128
71
5
72
7
73
-9
0
VERTEX
8
OBJECT005
10
0
20
0
30
0
70
128
71
-5
72
9
73
8
0
VERTEX
8
OBJECT005
10
0
20
0
30
0
70
128
71
3
72
5
73
-8
0
VERTEX
8
OBJECT005
10
0
20
0
30
0
70
128
71
-3
72
8
73
4
0
VERTEX
8
OBJECT005
10
0
20
0
30
0
70
128
71
1
72
10
73
-6
0
VERTEX
8
OBJECT005
10
0
20
0
30
0
70
128
71
-1
72
6
73
2
0
VERTEX
8
OBJECT005
10
0
20
0
30
0
70
128
71
7
72
6
73
-10
0
VERTEX
8
OBJECT005
10
0
20
0
30
0
70
128
71
-7
72
10
73
9
0
SEQEND
8
OBJECT005
0
ENDSEC
0
EOF
