0
SECTION
2
HEADER
9
$ACADVER
1
AC1008
9
$UCSORG
10
0.0
20
0.0
30
0.0
9
$UCSXDIR
10
1.0
20
0.0
30
0.0
9
$TILEMODE
70
1
9
$UCSYDIR
10
0.0
20
1.0
30
0.0
9
$EXTMIN
10
-29.076889
20
192.000000
30
-3504.000000
9
$EXTMAX
10
1552.000000
20
368.000000
30
-3328.000000
0
ENDSEC
0
SECTION
2
TABLES
0
TABLE
2
LTYPE
70
1
0
LTYPE
2
CONTINUOUS
70
64
3
Solid line
72
65
73
0
40
0.0
0
ENDTAB
0
TABLE
2
LAYER
70
1
0
LAYER
2
0
70
0
62
7
6
CONTINUOUS
0
ENDTAB
0
TABLE
2
STYLE
70
1
0
STYLE
2
STANDARD
70
0
40
0.0
41
1.0
50
0.0
71
0
42
0.2
3
txt
4

0
ENDTAB
0
TABLE
2
UCS
70
0
0
ENDTAB
0
ENDSEC
0
SECTION
2
ENTITIES
0
POLYLINE
8
OBJECT000
66
1
70
64
71
26
72
48
62
50
0
VERTEX
8
OBJECT000
10
1552.000000
20
280.103973
30
-3404.000000
70
192
0
VERTEX
8
OBJECT000
10
1552.000000
20
280.000000
30
-3416.000000
70
192
0
VERTEX
8
OBJECT000
10
1552.000000
20
267.427246
30
-3415.890869
70
192
0
VERTEX
8
OBJECT000
10
1552.000000
20
267.427246
30
-3404.000000
70
192
0
VERTEX
8
OBJECT000
10
1472.000000
20
254.626022
30
-3352.416504
70
192
0
VERTEX
8
OBJECT000
10
1485.406372
20
254.626022
30
-3352.416504
70
192
0
VERTEX
8
OBJECT000
10
1478.544556
20
233.113571
30
-3368.259766
70
192
0
VERTEX
8
OBJECT000
10
1472.000000
20
233.113571
30
-3368.259766
70
192
0
VERTEX
8
OBJECT000
10
1484.629150
20
216.866425
30
-3389.533691
70
192
0
VERTEX
8
OBJECT000
10
1472.000000
20
216.866425
30
-3389.533691
70
192
0
VERTEX
8
OBJECT000
10
1472.000000
20
280.623810
30
-3344.000000
70
192
0
VERTEX
8
OBJECT000
10
1479.929321
20
280.623810
30
-3344.000000
70
192
0
VERTEX
8
OBJECT000
10
1491.063477
20
261.535950
30
-3350.180420
70
192
0
VERTEX
8
OBJECT000
10
1484.972900
20
208.000000
30
-3415.374023
70
192
0
VERTEX
8
OBJECT000
10
1472.000000
20
208.000000
30
-3415.374023
70
192
0
VERTEX
8
OBJECT000
10
1493.449341
20
213.060654
30
-3400.626465
70
192
0
VERTEX
8
OBJECT000
10
1472.000000
20
280.000000
30
-3416.000000
70
192
0
VERTEX
8
OBJECT000
10
1539.298462
20
280.307556
30
-3380.502930
70
192
0
VERTEX
8
OBJECT000
10
1530.928711
20
280.378571
30
-3372.305420
70
192
0
VERTEX
8
OBJECT000
10
1535.243164
20
238.000000
30
-3415.635254
70
192
0
VERTEX
8
OBJECT000
10
1545.786255
20
251.000000
30
-3415.748291
70
192
0
VERTEX
8
OBJECT000
10
1530.928223
20
272.343018
30
-3372.305176
70
192
0
VERTEX
8
OBJECT000
10
1539.298828
20
271.060303
30
-3380.503418
70
192
0
VERTEX
8
OBJECT000
10
1549.444824
20
260.672729
30
-3399.273193
70
192
0
VERTEX
8
OBJECT000
10
1545.786255
20
251.000000
30
-3405.922119
70
192
0
VERTEX
8
OBJECT000
10
1535.243164
20
238.000000
30
-3410.212158
70
192
0
VERTEX
8
OBJECT000
10
0
20
0
30
0
70
128
71
2
72
3
73
-4
0
VERTEX
8
OBJECT000
10
0
20
0
30
0
70
128
71
-2
72
4
73
1
0
VERTEX
8
OBJECT000
10
0
20
0
30
0
70
128
71
6
72
7
73
-8
0
VERTEX
8
OBJECT000
10
0
20
0
30
0
70
128
71
-6
72
8
73
5
0
VERTEX
8
OBJECT000
10
0
20
0
30
0
70
128
71
10
72
8
73
-7
0
VERTEX
8
OBJECT000
10
0
20
0
30
0
70
128
71
-10
72
7
73
9
0
VERTEX
8
OBJECT000
10
0
20
0
30
0
70
128
71
12
72
13
73
-6
0
VERTEX
8
OBJECT000
10
0
20
0
30
0
70
128
71
-12
72
6
73
-5
0
VERTEX
8
OBJECT000
10
0
20
0
30
0
70
128
71
-12
72
5
73
11
0
VERTEX
8
OBJECT000
10
0
20
0
30
0
70
128
71
15
72
10
73
-9
0
VERTEX
8
OBJECT000
10
0
20
0
30
0
70
128
71
-15
72
9
73
-16
0
VERTEX
8
OBJECT000
10
0
20
0
30
0
70
128
71
-15
72
16
73
14
0
VERTEX
8
OBJECT000
10
0
20
0
30
0
70
128
71
2
72
1
73
-18
0
VERTEX
8
OBJECT000
10
0
20
0
30
0
70
128
71
-2
72
18
73
-19
0
VERTEX
8
OBJECT000
10
0
20
0
30
0
70
128
71
-2
72
19
73
-12
0
VERTEX
8
OBJECT000
10
0
20
0
30
0
70
128
71
-2
72
12
73
-11
0
VERTEX
8
OBJECT000
10
0
20
0
30
0
70
128
71
-2
72
11
73
17
0
VERTEX
8
OBJECT000
10
0
20
0
30
0
70
128
71
14
72
20
73
-21
0
VERTEX
8
OBJECT000
10
0
20
0
30
0
70
128
71
-14
72
21
73
-3
0
VERTEX
8
OBJECT000
10
0
20
0
30
0
70
128
71
-14
72
3
73
-2
0
VERTEX
8
OBJECT000
10
0
20
0
30
0
70
128
71
-14
72
2
73
-17
0
VERTEX
8
OBJECT000
10
0
20
0
30
0
70
128
71
-14
72
17
73
15
0
VERTEX
8
OBJECT000
10
0
20
0
30
0
70
128
71
6
72
13
73
-22
0
VERTEX
8
OBJECT000
10
0
20
0
30
0
70
128
71
-6
72
22
73
-23
0
VERTEX
8
OBJECT000
10
0
20
0
30
0
70
128
71
-6
72
23
73
-24
0
VERTEX
8
OBJECT000
10
0
20
0
30
0
70
128
71
-6
72
24
73
-25
0
VERTEX
8
OBJECT000
10
0
20
0
30
0
70
128
71
-6
72
25
73
-26
0
VERTEX
8
OBJECT000
10
0
20
0
30
0
70
128
71
-6
72
26
73
-16
0
VERTEX
8
OBJECT000
10
0
20
0
30
0
70
128
71
-6
72
16
73
-9
0
VERTEX
8
OBJECT000
10
0
20
0
30
0
70
128
71
-6
72
9
73
7
0
VERTEX
8
OBJECT000
10
0
20
0
30
0
70
128
71
13
72
12
73
-19
0
VERTEX
8
OBJECT000
10
0
20
0
30
0
70
128
71
-13
72
19
73
22
0
VERTEX
8
OBJECT000
10
0
20
0
30
0
70
128
71
14
72
16
73
-26
0
VERTEX
8
OBJECT000
10
0
20
0
30
0
70
128
71
-14
72
26
73
20
0
VERTEX
8
OBJECT000
10
0
20
0
30
0
70
128
71
20
72
26
73
-25
0
VERTEX
8
OBJECT000
10
0
20
0
30
0
70
128
71
-20
72
25
73
21
0
VERTEX
8
OBJECT000
10
0
20
0
30
0
70
128
71
3
72
21
73
-25
0
VERTEX
8
OBJECT000
10
0
20
0
30
0
70
128
71
-3
72
25
73
-24
0
VERTEX
8
OBJECT000
10
0
20
0
30
0
70
128
71
-3
72
24
73
4
0
VERTEX
8
OBJECT000
10
0
20
0
30
0
70
128
71
22
72
19
73
-18
0
VERTEX
8
OBJECT000
10
0
20
0
30
0
70
128
71
-22
72
18
73
23
0
VERTEX
8
OBJECT000
10
0
20
0
30
0
70
128
71
4
72
24
73
-23
0
VERTEX
8
OBJECT000
10
0
20
0
30
0
70
128
71
-4
72
23
73
-18
0
VERTEX
8
OBJECT000
10
0
20
0
30
0
70
128
71
-4
72
18
73
1
0
VERTEX
8
OBJECT000
10
0
20
0
30
0
70
128
71
11
72
5
73
-8
0
VERTEX
8
OBJECT000
10
0
20
0
30
0
70
128
71
-11
72
8
73
-10
0
VERTEX
8
OBJECT000
10
0
20
0
30
0
70
128
71
-11
72
10
73
-15
0
VERTEX
8
OBJECT000
10
0
20
0
30
0
70
128
71
-11
72
15
73
17
0
SEQEND
8
OBJECT000
0
POLYLINE
8
OBJECT001
66
1
70
64
71
26
72
48
62
50
0
VERTEX
8
OBJECT001
10
1552.000000
20
280.000000
30
-3416.000000
70
192
0
VERTEX
8
OBJECT001
10
1552.000000
20
279.894867
30
-3428.000000
70
192
0
VERTEX
8
OBJECT001
10
1552.000000
20
267.428619
30
-3428.000000
70
192
0
VERTEX
8
OBJECT001
10
1552.000000
20
267.428619
30
-3415.890869
70
192
0
VERTEX
8
OBJECT001
10
1472.000000
20
232.281738
30
-3462.905762
70
192
0
VERTEX
8
OBJECT001
10
1476.613770
20
232.281738
30
-3462.905762
70
192
0
VERTEX
8
OBJECT001
10
1482.852539
20
253.529633
30
-3479.134033
70
192
0
VERTEX
8
OBJECT001
10
1472.000000
20
253.529633
30
-3479.134033
70
192
0
VERTEX
8
OBJECT001
10
1472.000000
20
216.415787
30
-3441.361816
70
192
0
VERTEX
8
OBJECT001
10
1483.664795
20
216.415787
30
-3441.361816
70
192
0
VERTEX
8
OBJECT001
10
1489.286987
20
261.413879
30
-3481.839355
70
192
0
VERTEX
8
OBJECT001
10
1477.870239
20
279.369202
30
-3488.000000
70
192
0
VERTEX
8
OBJECT001
10
1472.000000
20
279.369202
30
-3488.000000
70
192
0
VERTEX
8
OBJECT001
10
1472.000000
20
208.000000
30
-3415.374268
70
192
0
VERTEX
8
OBJECT001
10
1484.972900
20
208.000000
30
-3415.374268
70
192
0
VERTEX
8
OBJECT001
10
1493.026978
20
212.806351
30
-3430.215332
70
192
0
VERTEX
8
OBJECT001
10
1531.816650
20
279.624237
30
-3458.891113
70
192
0
VERTEX
8
OBJECT001
10
1537.791504
20
279.664581
30
-3454.285645
70
192
0
VERTEX
8
OBJECT001
10
1472.000000
20
280.000000
30
-3416.000000
70
192
0
VERTEX
8
OBJECT001
10
1545.784668
20
251.000000
30
-3415.747803
70
192
0
VERTEX
8
OBJECT001
10
1535.243164
20
238.000000
30
-3415.634766
70
192
0
VERTEX
8
OBJECT001
10
1537.791382
20
272.904602
30
-3454.285889
70
192
0
VERTEX
8
OBJECT001
10
1531.817871
20
272.700470
30
-3458.890381
70
192
0
VERTEX
8
OBJECT001
10
1535.243164
20
238.000000
30
-3421.428467
70
192
0
VERTEX
8
OBJECT001
10
1545.784668
20
251.000000
30
-3425.945313
70
192
0
VERTEX
8
OBJECT001
10
1549.459229
20
260.713074
30
-3432.700439
70
192
0
VERTEX
8
OBJECT001
10
0
20
0
30
0
70
128
71
2
72
3
73
-4
0
VERTEX
8
OBJECT001
10
0
20
0
30
0
70
128
71
-2
72
4
73
1
0
VERTEX
8
OBJECT001
10
0
20
0
30
0
70
128
71
6
72
7
73
-8
0
VERTEX
8
OBJECT001
10
0
20
0
30
0
70
128
71
-6
72
8
73
5
0
VERTEX
8
OBJECT001
10
0
20
0
30
0
70
128
71
5
72
9
73
-10
0
VERTEX
8
OBJECT001
10
0
20
0
30
0
70
128
71
-5
72
10
73
6
0
VERTEX
8
OBJECT001
10
0
20
0
30
0
70
128
71
7
72
11
73
-12
0
VERTEX
8
OBJECT001
10
0
20
0
30
0
70
128
71
-7
72
12
73
-13
0
VERTEX
8
OBJECT001
10
0
20
0
30
0
70
128
71
-7
72
13
73
8
0
VERTEX
8
OBJECT001
10
0
20
0
30
0
70
128
71
9
72
14
73
-15
0
VERTEX
8
OBJECT001
10
0
20
0
30
0
70
128
71
-9
72
15
73
-16
0
VERTEX
8
OBJECT001
10
0
20
0
30
0
70
128
71
-9
72
16
73
10
0
VERTEX
8
OBJECT001
10
0
20
0
30
0
70
128
71
12
72
17
73
-18
0
VERTEX
8
OBJECT001
10
0
20
0
30
0
70
128
71
-12
72
18
73
-2
0
VERTEX
8
OBJECT001
10
0
20
0
30
0
70
128
71
-12
72
2
73
-1
0
VERTEX
8
OBJECT001
10
0
20
0
30
0
70
128
71
-12
72
1
73
-19
0
VERTEX
8
OBJECT001
10
0
20
0
30
0
70
128
71
-12
72
19
73
13
0
VERTEX
8
OBJECT001
10
0
20
0
30
0
70
128
71
1
72
4
73
-20
0
VERTEX
8
OBJECT001
10
0
20
0
30
0
70
128
71
-1
72
20
73
-21
0
VERTEX
8
OBJECT001
10
0
20
0
30
0
70
128
71
-1
72
21
73
-15
0
VERTEX
8
OBJECT001
10
0
20
0
30
0
70
128
71
-1
72
15
73
-14
0
VERTEX
8
OBJECT001
10
0
20
0
30
0
70
128
71
-1
72
14
73
19
0
VERTEX
8
OBJECT001
10
0
20
0
30
0
70
128
71
23
72
11
73
-7
0
VERTEX
8
OBJECT001
10
0
20
0
30
0
70
128
71
-23
72
7
73
-6
0
VERTEX
8
OBJECT001
10
0
20
0
30
0
70
128
71
-23
72
6
73
-10
0
VERTEX
8
OBJECT001
10
0
20
0
30
0
70
128
71
-23
72
10
73
-16
0
VERTEX
8
OBJECT001
10
0
20
0
30
0
70
128
71
-23
72
16
73
-24
0
VERTEX
8
OBJECT001
10
0
20
0
30
0
70
128
71
-23
72
24
73
-25
0
VERTEX
8
OBJECT001
10
0
20
0
30
0
70
128
71
-23
72
25
73
-26
0
VERTEX
8
OBJECT001
10
0
20
0
30
0
70
128
71
-23
72
26
73
22
0
VERTEX
8
OBJECT001
10
0
20
0
30
0
70
128
71
11
72
23
73
-17
0
VERTEX
8
OBJECT001
10
0
20
0
30
0
70
128
71
-11
72
17
73
12
0
VERTEX
8
OBJECT001
10
0
20
0
30
0
70
128
71
16
72
15
73
-21
0
VERTEX
8
OBJECT001
10
0
20
0
30
0
70
128
71
-16
72
21
73
24
0
VERTEX
8
OBJECT001
10
0
20
0
30
0
70
128
71
24
72
21
73
-20
0
VERTEX
8
OBJECT001
10
0
20
0
30
0
70
128
71
-24
72
20
73
25
0
VERTEX
8
OBJECT001
10
0
20
0
30
0
70
128
71
3
72
26
73
-25
0
VERTEX
8
OBJECT001
10
0
20
0
30
0
70
128
71
-3
72
25
73
-20
0
VERTEX
8
OBJECT001
10
0
20
0
30
0
70
128
71
-3
72
20
73
4
0
VERTEX
8
OBJECT001
10
0
20
0
30
0
70
128
71
22
72
18
73
-17
0
VERTEX
8
OBJECT001
10
0
20
0
30
0
70
128
71
-22
72
17
73
23
0
VERTEX
8
OBJECT001
10
0
20
0
30
0
70
128
71
2
72
18
73
-22
0
VERTEX
8
OBJECT001
10
0
20
0
30
0
70
128
71
-2
72
22
73
-26
0
VERTEX
8
OBJECT001
10
0
20
0
30
0
70
128
71
-2
72
26
73
3
0
VERTEX
8
OBJECT001
10
0
20
0
30
0
70
128
71
9
72
5
73
-8
0
VERTEX
8
OBJECT001
10
0
20
0
30
0
70
128
71
-9
72
8
73
-13
0
VERTEX
8
OBJECT001
10
0
20
0
30
0
70
128
71
-9
72
13
73
-19
0
VERTEX
8
OBJECT001
10
0
20
0
30
0
70
128
71
-9
72
19
73
14
0
SEQEND
8
OBJECT001
0
POLYLINE
8
OBJECT002
66
1
70
64
71
26
72
48
62
50
0
VERTEX
8
OBJECT002
10
1552.000000
20
279.895355
30
-3428.000000
70
192
0
VERTEX
8
OBJECT002
10
1552.000000
20
280.000000
30
-3416.000000
70
192
0
VERTEX
8
OBJECT002
10
1552.000000
20
289.599915
30
-3416.083984
70
192
0
VERTEX
8
OBJECT002
10
1552.000000
20
289.599915
30
-3428.000000
70
192
0
VERTEX
8
OBJECT002
10
1472.000000
20
305.366180
30
-3479.585693
70
192
0
VERTEX
8
OBJECT002
10
1480.526978
20
305.366089
30
-3479.585693
70
192
0
VERTEX
8
OBJECT002
10
1473.154907
20
326.891846
30
-3463.732910
70
192
0
VERTEX
8
OBJECT002
10
1472.000000
20
326.891846
30
-3463.732910
70
192
0
VERTEX
8
OBJECT002
10
1479.680542
20
343.129608
30
-3442.471924
70
192
0
VERTEX
8
OBJECT002
10
1472.000000
20
343.129608
30
-3442.471924
70
192
0
VERTEX
8
OBJECT002
10
1472.000000
20
279.371185
30
-3488.000000
70
192
0
VERTEX
8
OBJECT002
10
1477.876099
20
279.371246
30
-3488.000000
70
192
0
VERTEX
8
OBJECT002
10
1488.216187
20
296.614349
30
-3482.418213
70
192
0
VERTEX
8
OBJECT002
10
1486.559570
20
345.896881
30
-3434.410156
70
192
0
VERTEX
8
OBJECT002
10
1474.777222
20
352.000000
30
-3416.629883
70
192
0
VERTEX
8
OBJECT002
10
1472.000000
20
352.000000
30
-3416.629883
70
192
0
VERTEX
8
OBJECT002
10
1537.792114
20
279.665985
30
-3454.283936
70
192
0
VERTEX
8
OBJECT002
10
1531.812744
20
279.625702
30
-3458.893066
70
192
0
VERTEX
8
OBJECT002
10
1472.000000
20
280.000000
30
-3416.000000
70
192
0
VERTEX
8
OBJECT002
10
1532.349365
20
322.177582
30
-3416.369141
70
192
0
VERTEX
8
OBJECT002
10
1543.351318
20
312.000000
30
-3416.280029
70
192
0
VERTEX
8
OBJECT002
10
1531.813354
20
286.586151
30
-3458.892578
70
192
0
VERTEX
8
OBJECT002
10
1537.792236
20
286.593292
30
-3454.283691
70
192
0
VERTEX
8
OBJECT002
10
1548.637451
20
298.308960
30
-3434.220703
70
192
0
VERTEX
8
OBJECT002
10
1543.351318
20
312.000000
30
-3424.597412
70
192
0
VERTEX
8
OBJECT002
10
1532.349243
20
322.177673
30
-3422.886963
70
192
0
VERTEX
8
OBJECT002
10
0
20
0
30
0
70
128
71
2
72
3
73
-4
0
VERTEX
8
OBJECT002
10
0
20
0
30
0
70
128
71
-2
72
4
73
1
0
VERTEX
8
OBJECT002
10
0
20
0
30
0
70
128
71
6
72
7
73
-8
0
VERTEX
8
OBJECT002
10
0
20
0
30
0
70
128
71
-6
72
8
73
5
0
VERTEX
8
OBJECT002
10
0
20
0
30
0
70
128
71
7
72
9
73
-10
0
VERTEX
8
OBJECT002
10
0
20
0
30
0
70
128
71
-7
72
10
73
8
0
VERTEX
8
OBJECT002
10
0
20
0
30
0
70
128
71
12
72
13
73
-6
0
VERTEX
8
OBJECT002
10
0
20
0
30
0
70
128
71
-12
72
6
73
-5
0
VERTEX
8
OBJECT002
10
0
20
0
30
0
70
128
71
-12
72
5
73
11
0
VERTEX
8
OBJECT002
10
0
20
0
30
0
70
128
71
9
72
14
73
-15
0
VERTEX
8
OBJECT002
10
0
20
0
30
0
70
128
71
-9
72
15
73
-16
0
VERTEX
8
OBJECT002
10
0
20
0
30
0
70
128
71
-9
72
16
73
10
0
VERTEX
8
OBJECT002
10
0
20
0
30
0
70
128
71
1
72
17
73
-18
0
VERTEX
8
OBJECT002
10
0
20
0
30
0
70
128
71
-1
72
18
73
-12
0
VERTEX
8
OBJECT002
10
0
20
0
30
0
70
128
71
-1
72
12
73
-11
0
VERTEX
8
OBJECT002
10
0
20
0
30
0
70
128
71
-1
72
11
73
-19
0
VERTEX
8
OBJECT002
10
0
20
0
30
0
70
128
71
-1
72
19
73
2
0
VERTEX
8
OBJECT002
10
0
20
0
30
0
70
128
71
15
72
20
73
-21
0
VERTEX
8
OBJECT002
10
0
20
0
30
0
70
128
71
-15
72
21
73
-3
0
VERTEX
8
OBJECT002
10
0
20
0
30
0
70
128
71
-15
72
3
73
-2
0
VERTEX
8
OBJECT002
10
0
20
0
30
0
70
128
71
-15
72
2
73
-19
0
VERTEX
8
OBJECT002
10
0
20
0
30
0
70
128
71
-15
72
19
73
16
0
VERTEX
8
OBJECT002
10
0
20
0
30
0
70
128
71
6
72
13
73
-22
0
VERTEX
8
OBJECT002
10
0
20
0
30
0
70
128
71
-6
72
22
73
-23
0
VERTEX
8
OBJECT002
10
0
20
0
30
0
70
128
71
-6
72
23
73
-24
0
VERTEX
8
OBJECT002
10
0
20
0
30
0
70
128
71
-6
72
24
73
-25
0
VERTEX
8
OBJECT002
10
0
20
0
30
0
70
128
71
-6
72
25
73
-26
0
VERTEX
8
OBJECT002
10
0
20
0
30
0
70
128
71
-6
72
26
73
-14
0
VERTEX
8
OBJECT002
10
0
20
0
30
0
70
128
71
-6
72
14
73
-9
0
VERTEX
8
OBJECT002
10
0
20
0
30
0
70
128
71
-6
72
9
73
7
0
VERTEX
8
OBJECT002
10
0
20
0
30
0
70
128
71
13
72
12
73
-18
0
VERTEX
8
OBJECT002
10
0
20
0
30
0
70
128
71
-13
72
18
73
22
0
VERTEX
8
OBJECT002
10
0
20
0
30
0
70
128
71
14
72
26
73
-20
0
VERTEX
8
OBJECT002
10
0
20
0
30
0
70
128
71
-14
72
20
73
15
0
VERTEX
8
OBJECT002
10
0
20
0
30
0
70
128
71
25
72
21
73
-20
0
VERTEX
8
OBJECT002
10
0
20
0
30
0
70
128
71
-25
72
20
73
26
0
VERTEX
8
OBJECT002
10
0
20
0
30
0
70
128
71
3
72
21
73
-25
0
VERTEX
8
OBJECT002
10
0
20
0
30
0
70
128
71
-3
72
25
73
-24
0
VERTEX
8
OBJECT002
10
0
20
0
30
0
70
128
71
-3
72
24
73
4
0
VERTEX
8
OBJECT002
10
0
20
0
30
0
70
128
71
22
72
18
73
-17
0
VERTEX
8
OBJECT002
10
0
20
0
30
0
70
128
71
-22
72
17
73
23
0
VERTEX
8
OBJECT002
10
0
20
0
30
0
70
128
71
4
72
24
73
-23
0
VERTEX
8
OBJECT002
10
0
20
0
30
0
70
128
71
-4
72
23
73
-17
0
VERTEX
8
OBJECT002
10
0
20
0
30
0
70
128
71
-4
72
17
73
1
0
VERTEX
8
OBJECT002
10
0
20
0
30
0
70
128
71
11
72
5
73
-8
0
VERTEX
8
OBJECT002
10
0
20
0
30
0
70
128
71
-11
72
8
73
-10
0
VERTEX
8
OBJECT002
10
0
20
0
30
0
70
128
71
-11
72
10
73
-16
0
VERTEX
8
OBJECT002
10
0
20
0
30
0
70
128
71
-11
72
16
73
19
0
SEQEND
8
OBJECT002
0
POLYLINE
8
OBJECT003
66
1
70
64
71
26
72
48
62
50
0
VERTEX
8
OBJECT003
10
1552.000000
20
280.000000
30
-3416.000000
70
192
0
VERTEX
8
OBJECT003
10
1552.000000
20
280.104034
30
-3404.000000
70
192
0
VERTEX
8
OBJECT003
10
1552.000000
20
289.601349
30
-3404.000000
70
192
0
VERTEX
8
OBJECT003
10
1552.000000
20
289.601349
30
-3416.083740
70
192
0
VERTEX
8
OBJECT003
10
1472.000000
20
327.716248
30
-3369.094727
70
192
0
VERTEX
8
OBJECT003
10
1478.558960
20
327.716248
30
-3369.094727
70
192
0
VERTEX
8
OBJECT003
10
1484.638184
20
306.467712
30
-3352.866455
70
192
0
VERTEX
8
OBJECT003
10
1472.000000
20
306.467712
30
-3352.866455
70
192
0
VERTEX
8
OBJECT003
10
1472.000000
20
343.587219
30
-3390.645508
70
192
0
VERTEX
8
OBJECT003
10
1485.430786
20
343.587219
30
-3390.645508
70
192
0
VERTEX
8
OBJECT003
10
1490.973999
20
298.498596
30
-3350.131348
70
192
0
VERTEX
8
OBJECT003
10
1479.932129
20
280.624237
30
-3344.000000
70
192
0
VERTEX
8
OBJECT003
10
1472.000000
20
280.624237
30
-3344.000000
70
192
0
VERTEX
8
OBJECT003
10
1472.000000
20
352.000000
30
-3416.627441
70
192
0
VERTEX
8
OBJECT003
10
1474.781982
20
352.000000
30
-3416.627441
70
192
0
VERTEX
8
OBJECT003
10
1488.601440
20
344.840942
30
-3394.519043
70
192
0
VERTEX
8
OBJECT003
10
1472.000000
20
280.000000
30
-3416.000000
70
192
0
VERTEX
8
OBJECT003
10
1530.918945
20
280.378876
30
-3372.301025
70
192
0
VERTEX
8
OBJECT003
10
1539.300049
20
280.307739
30
-3380.505127
70
192
0
VERTEX
8
OBJECT003
10
1543.351318
20
312.000000
30
-3416.279053
70
192
0
VERTEX
8
OBJECT003
10
1532.338257
20
322.185333
30
-3416.367920
70
192
0
VERTEX
8
OBJECT003
10
1530.926392
20
287.664703
30
-3372.303955
70
192
0
VERTEX
8
OBJECT003
10
1532.338135
20
322.185364
30
-3408.000000
70
192
0
VERTEX
8
OBJECT003
10
1543.351318
20
312.000000
30
-3406.907959
70
192
0
VERTEX
8
OBJECT003
10
1548.583618
20
298.450073
30
-3397.679688
70
192
0
VERTEX
8
OBJECT003
10
1539.300293
20
288.947296
30
-3380.505615
70
192
0
VERTEX
8
OBJECT003
10
0
20
0
30
0
70
128
71
2
72
3
73
-4
0
VERTEX
8
OBJECT003
10
0
20
0
30
0
70
128
71
-2
72
4
73
1
0
VERTEX
8
OBJECT003
10
0
20
0
30
0
70
128
71
6
72
7
73
-8
0
VERTEX
8
OBJECT003
10
0
20
0
30
0
70
128
71
-6
72
8
73
5
0
VERTEX
8
OBJECT003
10
0
20
0
30
0
70
128
71
10
72
6
73
-5
0
VERTEX
8
OBJECT003
10
0
20
0
30
0
70
128
71
-10
72
5
73
9
0
VERTEX
8
OBJECT003
10
0
20
0
30
0
70
128
71
7
72
11
73
-12
0
VERTEX
8
OBJECT003
10
0
20
0
30
0
70
128
71
-7
72
12
73
-13
0
VERTEX
8
OBJECT003
10
0
20
0
30
0
70
128
71
-7
72
13
73
8
0
VERTEX
8
OBJECT003
10
0
20
0
30
0
70
128
71
15
72
16
73
-10
0
VERTEX
8
OBJECT003
10
0
20
0
30
0
70
128
71
-15
72
10
73
-9
0
VERTEX
8
OBJECT003
10
0
20
0
30
0
70
128
71
-15
72
9
73
14
0
VERTEX
8
OBJECT003
10
0
20
0
30
0
70
128
71
1
72
17
73
-13
0
VERTEX
8
OBJECT003
10
0
20
0
30
0
70
128
71
-1
72
13
73
-12
0
VERTEX
8
OBJECT003
10
0
20
0
30
0
70
128
71
-1
72
12
73
-18
0
VERTEX
8
OBJECT003
10
0
20
0
30
0
70
128
71
-1
72
18
73
-19
0
VERTEX
8
OBJECT003
10
0
20
0
30
0
70
128
71
-1
72
19
73
2
0
VERTEX
8
OBJECT003
10
0
20
0
30
0
70
128
71
1
72
4
73
-20
0
VERTEX
8
OBJECT003
10
0
20
0
30
0
70
128
71
-1
72
20
73
-21
0
VERTEX
8
OBJECT003
10
0
20
0
30
0
70
128
71
-1
72
21
73
-15
0
VERTEX
8
OBJECT003
10
0
20
0
30
0
70
128
71
-1
72
15
73
-14
0
VERTEX
8
OBJECT003
10
0
20
0
30
0
70
128
71
-1
72
14
73
17
0
VERTEX
8
OBJECT003
10
0
20
0
30
0
70
128
71
11
72
7
73
-6
0
VERTEX
8
OBJECT003
10
0
20
0
30
0
70
128
71
-11
72
6
73
-10
0
VERTEX
8
OBJECT003
10
0
20
0
30
0
70
128
71
-11
72
10
73
-16
0
VERTEX
8
OBJECT003
10
0
20
0
30
0
70
128
71
-11
72
16
73
-23
0
VERTEX
8
OBJECT003
10
0
20
0
30
0
70
128
71
-11
72
23
73
-24
0
VERTEX
8
OBJECT003
10
0
20
0
30
0
70
128
71
-11
72
24
73
-25
0
VERTEX
8
OBJECT003
10
0
20
0
30
0
70
128
71
-11
72
25
73
-26
0
VERTEX
8
OBJECT003
10
0
20
0
30
0
70
128
71
-11
72
26
73
22
0
VERTEX
8
OBJECT003
10
0
20
0
30
0
70
128
71
11
72
22
73
-18
0
VERTEX
8
OBJECT003
10
0
20
0
30
0
70
128
71
-11
72
18
73
12
0
VERTEX
8
OBJECT003
10
0
20
0
30
0
70
128
71
16
72
15
73
-21
0
VERTEX
8
OBJECT003
10
0
20
0
30
0
70
128
71
-16
72
21
73
23
0
VERTEX
8
OBJECT003
10
0
20
0
30
0
70
128
71
23
72
21
73
-20
0
VERTEX
8
OBJECT003
10
0
20
0
30
0
70
128
71
-23
72
20
73
24
0
VERTEX
8
OBJECT003
10
0
20
0
30
0
70
128
71
3
72
25
73
-24
0
VERTEX
8
OBJECT003
10
0
20
0
30
0
70
128
71
-3
72
24
73
-20
0
VERTEX
8
OBJECT003
10
0
20
0
30
0
70
128
71
-3
72
20
73
4
0
VERTEX
8
OBJECT003
10
0
20
0
30
0
70
128
71
26
72
19
73
-18
0
VERTEX
8
OBJECT003
10
0
20
0
30
0
70
128
71
-26
72
18
73
22
0
VERTEX
8
OBJECT003
10
0
20
0
30
0
70
128
71
2
72
19
73
-26
0
VERTEX
8
OBJECT003
10
0
20
0
30
0
70
128
71
-2
72
26
73
-25
0
VERTEX
8
OBJECT003
10
0
20
0
30
0
70
128
71
-2
72
25
73
3
0
VERTEX
8
OBJECT003
10
0
20
0
30
0
70
128
71
9
72
5
73
-8
0
VERTEX
8
OBJECT003
10
0
20
0
30
0
70
128
71
-9
72
8
73
-13
0
VERTEX
8
OBJECT003
10
0
20
0
30
0
70
128
71
-9
72
13
73
-17
0
VERTEX
8
OBJECT003
10
0
20
0
30
0
70
128
71
-9
72
17
73
14
0
SEQEND
8
OBJECT003
0
POLYLINE
8
OBJECT004
66
1
70
64
71
7
72
8
62
50
0
VERTEX
8
OBJECT004
10
897.138916
20
259.336212
30
-3334.938721
70
192
0
VERTEX
8
OBJECT004
10
888.167419
20
258.163666
30
-3335.318359
70
192
0
VERTEX
8
OBJECT004
10
878.405640
20
260.000000
30
-3334.723877
70
192
0
VERTEX
8
OBJECT004
10
894.130798
20
260.000000
30
-3334.723877
70
192
0
VERTEX
8
OBJECT004
10
959.722412
20
260.000000
30
-3339.806152
70
192
0
VERTEX
8
OBJECT004
10
936.155884
20
260.000000
30
-3337.725586
70
192
0
VERTEX
8
OBJECT004
10
936.285461
20
260.000000
30
-3337.734863
70
192
0
VERTEX
8
OBJECT004
10
0
20
0
30
0
70
128
71
2
72
3
73
-4
0
VERTEX
8
OBJECT004
10
0
20
0
30
0
70
128
71
-2
72
4
73
1
0
VERTEX
8
OBJECT004
10
0
20
0
30
0
70
128
71
2
72
5
73
3
0
VERTEX
8
OBJECT004
10
0
20
0
30
0
70
128
71
2
72
1
73
-6
0
VERTEX
8
OBJECT004
10
0
20
0
30
0
70
128
71
-2
72
6
73
5
0
VERTEX
8
OBJECT004
10
0
20
0
30
0
70
128
71
4
72
7
73
1
0
VERTEX
8
OBJECT004
10
0
20
0
30
0
70
128
71
3
72
5
73
-7
0
VERTEX
8
OBJECT004
10
0
20
0
30
0
70
128
71
-3
72
7
73
4
0
SEQEND
8
OBJECT004
0
POLYLINE
8
OBJECT005
66
1
70
64
71
10
72
16
62
50
0
VERTEX
8
OBJECT005
10
1066.981201
20
254.627350
30
-3352.414551
70
192
0
VERTEX
8
OBJECT005
10
1472.000000
20
254.627350
30
-3352.414551
70
192
0
VERTEX
8
OBJECT005
10
1472.000000
20
248.000000
30
-3357.295654
70
192
0
VERTEX
8
OBJECT005
10
1120.000000
20
248.000000
30
-3357.295654
70
192
0
VERTEX
8
OBJECT005
10
1024.000000
20
260.000000
30
-3350.675781
70
192
0
VERTEX
8
OBJECT005
10
1472.000000
20
260.000000
30
-3350.675781
70
192
0
VERTEX
8
OBJECT005
10
1024.000000
20
260.000000
30
-3415.825928
70
192
0
VERTEX
8
OBJECT005
10
1120.000000
20
248.000000
30
-3415.721680
70
192
0
VERTEX
8
OBJECT005
10
1472.000000
20
248.000000
30
-3415.721680
70
192
0
VERTEX
8
OBJECT005
10
1472.000000
20
260.000000
30
-3415.825928
70
192
0
VERTEX
8
OBJECT005
10
0
20
0
30
0
70
128
71
2
72
3
73
-4
0
VERTEX
8
OBJECT005
10
0
20
0
30
0
70
128
71
-2
72
4
73
1
0
VERTEX
8
OBJECT005
10
0
20
0
30
0
70
128
71
1
72
5
73
-6
0
VERTEX
8
OBJECT005
10
0
20
0
30
0
70
128
71
-1
72
6
73
2
0
VERTEX
8
OBJECT005
10
0
20
0
30
0
70
128
71
8
72
9
73
-10
0
VERTEX
8
OBJECT005
10
0
20
0
30
0
70
128
71
-8
72
10
73
7
0
VERTEX
8
OBJECT005
10
0
20
0
30
0
70
128
71
9
72
3
73
-2
0
VERTEX
8
OBJECT005
10
0
20
0
30
0
70
128
71
-9
72
2
73
-6
0
VERTEX
8
OBJECT005
10
0
20
0
30
0
70
128
71
-9
72
6
73
10
0
VERTEX
8
OBJECT005
10
0
20
0
30
0
70
128
71
7
72
10
73
-6
0
VERTEX
8
OBJECT005
10
0
20
0
30
0
70
128
71
-7
72
6
73
5
0
VERTEX
8
OBJECT005
10
0
20
0
30
0
70
128
71
8
72
4
73
-3
0
VERTEX
8
OBJECT005
10
0
20
0
30
0
70
128
71
-8
72
3
73
9
0
VERTEX
8
OBJECT005
10
0
20
0
30
0
70
128
71
5
72
1
73
-4
0
VERTEX
8
OBJECT005
10
0
20
0
30
0
70
128
71
-5
72
4
73
-8
0
VERTEX
8
OBJECT005
10
0
20
0
30
0
70
128
71
-5
72
8
73
7
0
SEQEND
8
OBJECT005
0
POLYLINE
8
OBJECT006
66
1
70
64
71
10
72
16
62
50
0
VERTEX
8
OBJECT006
10
1472.000000
20
253.525864
30
-3479.133301
70
192
0
VERTEX
8
OBJECT006
10
1075.793091
20
253.525864
30
-3479.133301
70
192
0
VERTEX
8
OBJECT006
10
1120.000000
20
248.000000
30
-3474.912842
70
192
0
VERTEX
8
OBJECT006
10
1472.000000
20
248.000000
30
-3474.912842
70
192
0
VERTEX
8
OBJECT006
10
1024.000000
20
260.000000
30
-3481.353760
70
192
0
VERTEX
8
OBJECT006
10
1472.000000
20
260.000000
30
-3481.353760
70
192
0
VERTEX
8
OBJECT006
10
1024.000000
20
260.000000
30
-3415.826416
70
192
0
VERTEX
8
OBJECT006
10
1472.000000
20
260.000000
30
-3415.826416
70
192
0
VERTEX
8
OBJECT006
10
1472.000000
20
248.000000
30
-3415.722168
70
192
0
VERTEX
8
OBJECT006
10
1120.000000
20
248.000000
30
-3415.722168
70
192
0
VERTEX
8
OBJECT006
10
0
20
0
30
0
70
128
71
2
72
3
73
-4
0
VERTEX
8
OBJECT006
10
0
20
0
30
0
70
128
71
-2
72
4
73
1
0
VERTEX
8
OBJECT006
10
0
20
0
30
0
70
128
71
2
72
1
73
-6
0
VERTEX
8
OBJECT006
10
0
20
0
30
0
70
128
71
-2
72
6
73
5
0
VERTEX
8
OBJECT006
10
0
20
0
30
0
70
128
71
8
72
9
73
-10
0
VERTEX
8
OBJECT006
10
0
20
0
30
0
70
128
71
-8
72
10
73
7
0
VERTEX
8
OBJECT006
10
0
20
0
30
0
70
128
71
1
72
4
73
-9
0
VERTEX
8
OBJECT006
10
0
20
0
30
0
70
128
71
-1
72
9
73
-8
0
VERTEX
8
OBJECT006
10
0
20
0
30
0
70
128
71
-1
72
8
73
6
0
VERTEX
8
OBJECT006
10
0
20
0
30
0
70
128
71
5
72
6
73
-8
0
VERTEX
8
OBJECT006
10
0
20
0
30
0
70
128
71
-5
72
8
73
7
0
VERTEX
8
OBJECT006
10
0
20
0
30
0
70
128
71
3
72
10
73
-9
0
VERTEX
8
OBJECT006
10
0
20
0
30
0
70
128
71
-3
72
9
73
4
0
VERTEX
8
OBJECT006
10
0
20
0
30
0
70
128
71
2
72
5
73
-7
0
VERTEX
8
OBJECT006
10
0
20
0
30
0
70
128
71
-2
72
7
73
-10
0
VERTEX
8
OBJECT006
10
0
20
0
30
0
70
128
71
-2
72
10
73
3
0
SEQEND
8
OBJECT006
0
POLYLINE
8
OBJECT007
66
1
70
64
71
8
72
12
62
50
0
VERTEX
8
OBJECT007
10
1216.000000
20
240.000000
30
-3468.802734
70
192
0
VERTEX
8
OBJECT007
10
1472.000000
20
240.000000
30
-3468.802734
70
192
0
VERTEX
8
OBJECT007
10
1472.000000
20
248.000000
30
-3474.912842
70
192
0
VERTEX
8
OBJECT007
10
1120.000000
20
248.000000
30
-3474.912842
70
192
0
VERTEX
8
OBJECT007
10
1120.000000
20
248.000000
30
-3415.722168
70
192
0
VERTEX
8
OBJECT007
10
1472.000000
20
248.000000
30
-3415.722168
70
192
0
VERTEX
8
OBJECT007
10
1472.000000
20
240.000000
30
-3415.652588
70
192
0
VERTEX
8
OBJECT007
10
1216.000000
20
240.000000
30
-3415.652588
70
192
0
VERTEX
8
OBJECT007
10
0
20
0
30
0
70
128
71
2
72
3
73
-4
0
VERTEX
8
OBJECT007
10
0
20
0
30
0
70
128
71
-2
72
4
73
1
0
VERTEX
8
OBJECT007
10
0
20
0
30
0
70
128
71
6
72
7
73
-8
0
VERTEX
8
OBJECT007
10
0
20
0
30
0
70
128
71
-6
72
8
73
5
0
VERTEX
8
OBJECT007
10
0
20
0
30
0
70
128
71
2
72
7
73
-6
0
VERTEX
8
OBJECT007
10
0
20
0
30
0
70
128
71
-2
72
6
73
3
0
VERTEX
8
OBJECT007
10
0
20
0
30
0
70
128
71
3
72
6
73
-5
0
VERTEX
8
OBJECT007
10
0
20
0
30
0
70
128
71
-3
72
5
73
4
0
VERTEX
8
OBJECT007
10
0
20
0
30
0
70
128
71
1
72
8
73
-7
0
VERTEX
8
OBJECT007
10
0
20
0
30
0
70
128
71
-1
72
7
73
2
0
VERTEX
8
OBJECT007
10
0
20
0
30
0
70
128
71
4
72
5
73
-8
0
VERTEX
8
OBJECT007
10
0
20
0
30
0
70
128
71
-4
72
8
73
1
0
SEQEND
8
OBJECT007
0
POLYLINE
8
OBJECT008
66
1
70
64
71
8
72
12
62
50
0
VERTEX
8
OBJECT008
10
1120.000000
20
248.000000
30
-3357.297119
70
192
0
VERTEX
8
OBJECT008
10
1472.000000
20
248.000000
30
-3357.297119
70
192
0
VERTEX
8
OBJECT008
10
1472.000000
20
240.000000
30
-3363.188965
70
192
0
VERTEX
8
OBJECT008
10
1216.000000
20
240.000000
30
-3363.188965
70
192
0
VERTEX
8
OBJECT008
10
1216.000000
20
240.000000
30
-3415.651611
70
192
0
VERTEX
8
OBJECT008
10
1472.000000
20
240.000000
30
-3415.651611
70
192
0
VERTEX
8
OBJECT008
10
1472.000000
20
248.000000
30
-3415.721191
70
192
0
VERTEX
8
OBJECT008
10
1120.000000
20
248.000000
30
-3415.721191
70
192
0
VERTEX
8
OBJECT008
10
0
20
0
30
0
70
128
71
2
72
3
73
-4
0
VERTEX
8
OBJECT008
10
0
20
0
30
0
70
128
71
-2
72
4
73
1
0
VERTEX
8
OBJECT008
10
0
20
0
30
0
70
128
71
6
72
7
73
-8
0
VERTEX
8
OBJECT008
10
0
20
0
30
0
70
128
71
-6
72
8
73
5
0
VERTEX
8
OBJECT008
10
0
20
0
30
0
70
128
71
6
72
3
73
-2
0
VERTEX
8
OBJECT008
10
0
20
0
30
0
70
128
71
-6
72
2
73
7
0
VERTEX
8
OBJECT008
10
0
20
0
30
0
70
128
71
7
72
2
73
-1
0
VERTEX
8
OBJECT008
10
0
20
0
30
0
70
128
71
-7
72
1
73
8
0
VERTEX
8
OBJECT008
10
0
20
0
30
0
70
128
71
5
72
4
73
-3
0
VERTEX
8
OBJECT008
10
0
20
0
30
0
70
128
71
-5
72
3
73
6
0
VERTEX
8
OBJECT008
10
0
20
0
30
0
70
128
71
4
72
5
73
-8
0
VERTEX
8
OBJECT008
10
0
20
0
30
0
70
128
71
-4
72
8
73
1
0
SEQEND
8
OBJECT008
0
POLYLINE
8
OBJECT009
66
1
70
64
71
10
72
16
62
50
0
VERTEX
8
OBJECT009
10
1308.685913
20
232.276184
30
-3462.900879
70
192
0
VERTEX
8
OBJECT009
10
1472.000000
20
232.276184
30
-3462.900879
70
192
0
VERTEX
8
OBJECT009
10
1472.000000
20
240.000000
30
-3468.800293
70
192
0
VERTEX
8
OBJECT009
10
1216.000000
20
240.000000
30
-3468.800293
70
192
0
VERTEX
8
OBJECT009
10
1312.000000
20
232.000000
30
-3462.527100
70
192
0
VERTEX
8
OBJECT009
10
1472.000000
20
232.000000
30
-3462.527100
70
192
0
VERTEX
8
OBJECT009
10
1216.000000
20
240.000000
30
-3415.652588
70
192
0
VERTEX
8
OBJECT009
10
1472.000000
20
240.000000
30
-3415.652588
70
192
0
VERTEX
8
OBJECT009
10
1472.000000
20
232.000000
30
-3415.583008
70
192
0
VERTEX
8
OBJECT009
10
1312.000000
20
232.000000
30
-3415.583008
70
192
0
VERTEX
8
OBJECT009
10
0
20
0
30
0
70
128
71
2
72
3
73
-4
0
VERTEX
8
OBJECT009
10
0
20
0
30
0
70
128
71
-2
72
4
73
1
0
VERTEX
8
OBJECT009
10
0
20
0
30
0
70
128
71
1
72
5
73
-6
0
VERTEX
8
OBJECT009
10
0
20
0
30
0
70
128
71
-1
72
6
73
2
0
VERTEX
8
OBJECT009
10
0
20
0
30
0
70
128
71
8
72
9
73
-10
0
VERTEX
8
OBJECT009
10
0
20
0
30
0
70
128
71
-8
72
10
73
7
0
VERTEX
8
OBJECT009
10
0
20
0
30
0
70
128
71
2
72
6
73
-9
0
VERTEX
8
OBJECT009
10
0
20
0
30
0
70
128
71
-2
72
9
73
-8
0
VERTEX
8
OBJECT009
10
0
20
0
30
0
70
128
71
-2
72
8
73
3
0
VERTEX
8
OBJECT009
10
0
20
0
30
0
70
128
71
3
72
8
73
-7
0
VERTEX
8
OBJECT009
10
0
20
0
30
0
70
128
71
-3
72
7
73
4
0
VERTEX
8
OBJECT009
10
0
20
0
30
0
70
128
71
5
72
10
73
-9
0
VERTEX
8
OBJECT009
10
0
20
0
30
0
70
128
71
-5
72
9
73
6
0
VERTEX
8
OBJECT009
10
0
20
0
30
0
70
128
71
1
72
4
73
-7
0
VERTEX
8
OBJECT009
10
0
20
0
30
0
70
128
71
-1
72
7
73
-10
0
VERTEX
8
OBJECT009
10
0
20
0
30
0
70
128
71
-1
72
10
73
5
0
SEQEND
8
OBJECT009
0
POLYLINE
8
OBJECT010
66
1
70
64
71
10
72
16
62
50
0
VERTEX
8
OBJECT010
10
1472.000000
20
233.120605
30
-3368.252930
70
192
0
VERTEX
8
OBJECT010
10
1298.552856
20
233.120605
30
-3368.252930
70
192
0
VERTEX
8
OBJECT010
10
1216.000000
20
240.000000
30
-3363.186523
70
192
0
VERTEX
8
OBJECT010
10
1472.000000
20
240.000000
30
-3363.186523
70
192
0
VERTEX
8
OBJECT010
10
1472.000000
20
232.000000
30
-3369.720703
70
192
0
VERTEX
8
OBJECT010
10
1312.000000
20
232.000000
30
-3369.720703
70
192
0
VERTEX
8
OBJECT010
10
1312.000000
20
232.000000
30
-3415.582520
70
192
0
VERTEX
8
OBJECT010
10
1472.000000
20
232.000000
30
-3415.582520
70
192
0
VERTEX
8
OBJECT010
10
1472.000000
20
240.000000
30
-3415.652100
70
192
0
VERTEX
8
OBJECT010
10
1216.000000
20
240.000000
30
-3415.652100
70
192
0
VERTEX
8
OBJECT010
10
0
20
0
30
0
70
128
71
2
72
3
73
-4
0
VERTEX
8
OBJECT010
10
0
20
0
30
0
70
128
71
-2
72
4
73
1
0
VERTEX
8
OBJECT010
10
0
20
0
30
0
70
128
71
1
72
5
73
-6
0
VERTEX
8
OBJECT010
10
0
20
0
30
0
70
128
71
-1
72
6
73
2
0
VERTEX
8
OBJECT010
10
0
20
0
30
0
70
128
71
8
72
9
73
-10
0
VERTEX
8
OBJECT010
10
0
20
0
30
0
70
128
71
-8
72
10
73
7
0
VERTEX
8
OBJECT010
10
0
20
0
30
0
70
128
71
8
72
5
73
-1
0
VERTEX
8
OBJECT010
10
0
20
0
30
0
70
128
71
-8
72
1
73
-4
0
VERTEX
8
OBJECT010
10
0
20
0
30
0
70
128
71
-8
72
4
73
9
0
VERTEX
8
OBJECT010
10
0
20
0
30
0
70
128
71
9
72
4
73
-3
0
VERTEX
8
OBJECT010
10
0
20
0
30
0
70
128
71
-9
72
3
73
10
0
VERTEX
8
OBJECT010
10
0
20
0
30
0
70
128
71
7
72
6
73
-5
0
VERTEX
8
OBJECT010
10
0
20
0
30
0
70
128
71
-7
72
5
73
8
0
VERTEX
8
OBJECT010
10
0
20
0
30
0
70
128
71
2
72
6
73
-7
0
VERTEX
8
OBJECT010
10
0
20
0
30
0
70
128
71
-2
72
7
73
-10
0
VERTEX
8
OBJECT010
10
0
20
0
30
0
70
128
71
-2
72
10
73
3
0
SEQEND
8
OBJECT010
0
POLYLINE
8
OBJECT011
66
1
70
64
71
8
72
12
62
50
0
VERTEX
8
OBJECT011
10
1376.000000
20
224.000000
30
-3451.661133
70
192
0
VERTEX
8
OBJECT011
10
1472.000000
20
224.000000
30
-3451.661133
70
192
0
VERTEX
8
OBJECT011
10
1472.000000
20
232.000000
30
-3462.523682
70
192
0
VERTEX
8
OBJECT011
10
1308.000000
20
232.000000
30
-3462.523682
70
192
0
VERTEX
8
OBJECT011
10
1308.000000
20
232.000000
30
-3415.583008
70
192
0
VERTEX
8
OBJECT011
10
1472.000000
20
232.000000
30
-3415.583008
70
192
0
VERTEX
8
OBJECT011
10
1472.000000
20
224.000000
30
-3415.513428
70
192
0
VERTEX
8
OBJECT011
10
1376.000000
20
224.000000
30
-3415.513428
70
192
0
VERTEX
8
OBJECT011
10
0
20
0
30
0
70
128
71
2
72
3
73
-4
0
VERTEX
8
OBJECT011
10
0
20
0
30
0
70
128
71
-2
72
4
73
1
0
VERTEX
8
OBJECT011
10
0
20
0
30
0
70
128
71
6
72
7
73
-8
0
VERTEX
8
OBJECT011
10
0
20
0
30
0
70
128
71
-6
72
8
73
5
0
VERTEX
8
OBJECT011
10
0
20
0
30
0
70
128
71
2
72
7
73
-6
0
VERTEX
8
OBJECT011
10
0
20
0
30
0
70
128
71
-2
72
6
73
3
0
VERTEX
8
OBJECT011
10
0
20
0
30
0
70
128
71
3
72
6
73
-5
0
VERTEX
8
OBJECT011
10
0
20
0
30
0
70
128
71
-3
72
5
73
4
0
VERTEX
8
OBJECT011
10
0
20
0
30
0
70
128
71
1
72
8
73
-7
0
VERTEX
8
OBJECT011
10
0
20
0
30
0
70
128
71
-1
72
7
73
2
0
VERTEX
8
OBJECT011
10
0
20
0
30
0
70
128
71
4
72
5
73
-8
0
VERTEX
8
OBJECT011
10
0
20
0
30
0
70
128
71
-4
72
8
73
1
0
SEQEND
8
OBJECT011
0
POLYLINE
8
OBJECT012
66
1
70
64
71
8
72
12
62
50
0
VERTEX
8
OBJECT012
10
1472.000000
20
232.000000
30
-3369.719238
70
192
0
VERTEX
8
OBJECT012
10
1472.000000
20
224.000000
30
-3380.193848
70
192
0
VERTEX
8
OBJECT012
10
1376.000000
20
224.000000
30
-3380.193848
70
192
0
VERTEX
8
OBJECT012
10
1308.000000
20
232.000000
30
-3369.719238
70
192
0
VERTEX
8
OBJECT012
10
1376.000000
20
224.000000
30
-3415.512695
70
192
0
VERTEX
8
OBJECT012
10
1472.000000
20
224.000000
30
-3415.512695
70
192
0
VERTEX
8
OBJECT012
10
1472.000000
20
232.000000
30
-3415.582275
70
192
0
VERTEX
8
OBJECT012
10
1308.000000
20
232.000000
30
-3415.582275
70
192
0
VERTEX
8
OBJECT012
10
0
20
0
30
0
70
128
71
2
72
3
73
-4
0
VERTEX
8
OBJECT012
10
0
20
0
30
0
70
128
71
-2
72
4
73
1
0
VERTEX
8
OBJECT012
10
0
20
0
30
0
70
128
71
6
72
7
73
-8
0
VERTEX
8
OBJECT012
10
0
20
0
30
0
70
128
71
-6
72
8
73
5
0
VERTEX
8
OBJECT012
10
0
20
0
30
0
70
128
71
6
72
2
73
-1
0
VERTEX
8
OBJECT012
10
0
20
0
30
0
70
128
71
-6
72
1
73
7
0
VERTEX
8
OBJECT012
10
0
20
0
30
0
70
128
71
7
72
1
73
-4
0
VERTEX
8
OBJECT012
10
0
20
0
30
0
70
128
71
-7
72
4
73
8
0
VERTEX
8
OBJECT012
10
0
20
0
30
0
70
128
71
5
72
3
73
-2
0
VERTEX
8
OBJECT012
10
0
20
0
30
0
70
128
71
-5
72
2
73
6
0
VERTEX
8
OBJECT012
10
0
20
0
30
0
70
128
71
3
72
5
73
-8
0
VERTEX
8
OBJECT012
10
0
20
0
30
0
70
128
71
-3
72
8
73
4
0
SEQEND
8
OBJECT012
0
POLYLINE
8
OBJECT013
66
1
70
64
71
7
72
10
62
50
0
VERTEX
8
OBJECT013
10
1421.476563
20
216.420593
30
-3441.371094
70
192
0
VERTEX
8
OBJECT013
10
1472.000000
20
216.420593
30
-3441.371094
70
192
0
VERTEX
8
OBJECT013
10
1472.000000
20
224.000000
30
-3451.662354
70
192
0
VERTEX
8
OBJECT013
10
1376.000000
20
224.000000
30
-3451.662354
70
192
0
VERTEX
8
OBJECT013
10
1472.000000
20
208.000000
30
-3415.374268
70
192
0
VERTEX
8
OBJECT013
10
1376.000000
20
224.000000
30
-3415.513428
70
192
0
VERTEX
8
OBJECT013
10
1472.000000
20
224.000000
30
-3415.513428
70
192
0
VERTEX
8
OBJECT013
10
0
20
0
30
0
70
128
71
2
72
3
73
-4
0
VERTEX
8
OBJECT013
10
0
20
0
30
0
70
128
71
-2
72
4
73
1
0
VERTEX
8
OBJECT013
10
0
20
0
30
0
70
128
71
1
72
5
73
2
0
VERTEX
8
OBJECT013
10
0
20
0
30
0
70
128
71
6
72
7
73
5
0
VERTEX
8
OBJECT013
10
0
20
0
30
0
70
128
71
2
72
5
73
-7
0
VERTEX
8
OBJECT013
10
0
20
0
30
0
70
128
71
-2
72
7
73
3
0
VERTEX
8
OBJECT013
10
0
20
0
30
0
70
128
71
3
72
7
73
-6
0
VERTEX
8
OBJECT013
10
0
20
0
30
0
70
128
71
-3
72
6
73
4
0
VERTEX
8
OBJECT013
10
0
20
0
30
0
70
128
71
1
72
4
73
-6
0
VERTEX
8
OBJECT013
10
0
20
0
30
0
70
128
71
-1
72
6
73
5
0
SEQEND
8
OBJECT013
0
POLYLINE
8
OBJECT014
66
1
70
64
71
7
72
10
62
50
0
VERTEX
8
OBJECT014
10
1472.000000
20
224.000000
30
-3380.194824
70
192
0
VERTEX
8
OBJECT014
10
1472.000000
20
216.864685
30
-3389.537109
70
192
0
VERTEX
8
OBJECT014
10
1418.812012
20
216.864685
30
-3389.537109
70
192
0
VERTEX
8
OBJECT014
10
1376.000000
20
224.000000
30
-3380.194824
70
192
0
VERTEX
8
OBJECT014
10
1472.000000
20
208.000000
30
-3415.373779
70
192
0
VERTEX
8
OBJECT014
10
1472.000000
20
224.000000
30
-3415.512695
70
192
0
VERTEX
8
OBJECT014
10
1376.000000
20
224.000000
30
-3415.512695
70
192
0
VERTEX
8
OBJECT014
10
0
20
0
30
0
70
128
71
2
72
3
73
-4
0
VERTEX
8
OBJECT014
10
0
20
0
30
0
70
128
71
-2
72
4
73
1
0
VERTEX
8
OBJECT014
10
0
20
0
30
0
70
128
71
3
72
2
73
5
0
VERTEX
8
OBJECT014
10
0
20
0
30
0
70
128
71
6
72
7
73
5
0
VERTEX
8
OBJECT014
10
0
20
0
30
0
70
128
71
5
72
2
73
-1
0
VERTEX
8
OBJECT014
10
0
20
0
30
0
70
128
71
-5
72
1
73
6
0
VERTEX
8
OBJECT014
10
0
20
0
30
0
70
128
71
6
72
1
73
-4
0
VERTEX
8
OBJECT014
10
0
20
0
30
0
70
128
71
-6
72
4
73
7
0
VERTEX
8
OBJECT014
10
0
20
0
30
0
70
128
71
3
72
5
73
-7
0
VERTEX
8
OBJECT014
10
0
20
0
30
0
70
128
71
-3
72
7
73
4
0
SEQEND
8
OBJECT014
0
POLYLINE
8
OBJECT015
66
1
70
64
71
12
72
20
62
50
0
VERTEX
8
OBJECT015
10
1024.000000
20
280.000000
30
-3416.000000
70
192
0
VERTEX
8
OBJECT015
10
1024.000000
20
279.368896
30
-3488.000000
70
192
0
VERTEX
8
OBJECT015
10
1024.000000
20
305.369873
30
-3479.583008
70
192
0
VERTEX
8
OBJECT015
10
1024.000000
20
326.892059
30
-3463.732910
70
192
0
VERTEX
8
OBJECT015
10
1024.000000
20
343.128998
30
-3442.473633
70
192
0
VERTEX
8
OBJECT015
10
1024.000000
20
352.000000
30
-3416.629883
70
192
0
VERTEX
8
OBJECT015
10
1472.000000
20
326.893250
30
-3463.730957
70
192
0
VERTEX
8
OBJECT015
10
1472.000000
20
305.365295
30
-3479.585205
70
192
0
VERTEX
8
OBJECT015
10
1472.000000
20
343.129730
30
-3442.471436
70
192
0
VERTEX
8
OBJECT015
10
1472.000000
20
279.371185
30
-3488.000000
70
192
0
VERTEX
8
OBJECT015
10
1472.000000
20
352.000000
30
-3416.629883
70
192
0
VERTEX
8
OBJECT015
10
1472.000000
20
280.000000
30
-3416.000000
70
192
0
VERTEX
8
OBJECT015
10
0
20
0
30
0
70
128
71
2
72
3
73
-4
0
VERTEX
8
OBJECT015
10
0
20
0
30
0
70
128
71
-2
72
4
73
-5
0
VERTEX
8
OBJECT015
10
0
20
0
30
0
70
128
71
-2
72
5
73
-6
0
VERTEX
8
OBJECT015
10
0
20
0
30
0
70
128
71
-2
72
6
73
1
0
VERTEX
8
OBJECT015
10
0
20
0
30
0
70
128
71
4
72
3
73
-8
0
VERTEX
8
OBJECT015
10
0
20
0
30
0
70
128
71
-4
72
8
73
7
0
VERTEX
8
OBJECT015
10
0
20
0
30
0
70
128
71
4
72
7
73
-9
0
VERTEX
8
OBJECT015
10
0
20
0
30
0
70
128
71
-4
72
9
73
5
0
VERTEX
8
OBJECT015
10
0
20
0
30
0
70
128
71
3
72
2
73
-10
0
VERTEX
8
OBJECT015
10
0
20
0
30
0
70
128
71
-3
72
10
73
8
0
VERTEX
8
OBJECT015
10
0
20
0
30
0
70
128
71
5
72
9
73
-11
0
VERTEX
8
OBJECT015
10
0
20
0
30
0
70
128
71
-5
72
11
73
6
0
VERTEX
8
OBJECT015
10
0
20
0
30
0
70
128
71
2
72
1
73
-12
0
VERTEX
8
OBJECT015
10
0
20
0
30
0
70
128
71
-2
72
12
73
10
0
VERTEX
8
OBJECT015
10
0
20
0
30
0
70
128
71
1
72
6
73
-11
0
VERTEX
8
OBJECT015
10
0
20
0
30
0
70
128
71
-1
72
11
73
12
0
VERTEX
8
OBJECT015
10
0
20
0
30
0
70
128
71
9
72
7
73
-8
0
VERTEX
8
OBJECT015
10
0
20
0
30
0
70
128
71
-9
72
8
73
-10
0
VERTEX
8
OBJECT015
10
0
20
0
30
0
70
128
71
-9
72
10
73
-12
0
VERTEX
8
OBJECT015
10
0
20
0
30
0
70
128
71
-9
72
12
73
11
0
SEQEND
8
OBJECT015
0
POLYLINE
8
OBJECT016
66
1
70
64
71
12
72
20
62
50
0
VERTEX
8
OBJECT016
10
1024.000000
20
352.000000
30
-3416.627686
70
192
0
VERTEX
8
OBJECT016
10
1024.000000
20
343.586395
30
-3390.644531
70
192
0
VERTEX
8
OBJECT016
10
1024.000000
20
327.715057
30
-3369.094482
70
192
0
VERTEX
8
OBJECT016
10
1024.000000
20
306.463196
30
-3352.863770
70
192
0
VERTEX
8
OBJECT016
10
1024.000000
20
280.624237
30
-3344.000000
70
192
0
VERTEX
8
OBJECT016
10
1024.000000
20
280.000000
30
-3416.000000
70
192
0
VERTEX
8
OBJECT016
10
1472.000000
20
306.461304
30
-3352.863037
70
192
0
VERTEX
8
OBJECT016
10
1472.000000
20
327.716583
30
-3369.096436
70
192
0
VERTEX
8
OBJECT016
10
1472.000000
20
343.586823
30
-3390.645996
70
192
0
VERTEX
8
OBJECT016
10
1472.000000
20
280.624237
30
-3344.000000
70
192
0
VERTEX
8
OBJECT016
10
1472.000000
20
352.000000
30
-3416.627686
70
192
0
VERTEX
8
OBJECT016
10
1472.000000
20
280.000000
30
-3416.000000
70
192
0
VERTEX
8
OBJECT016
10
0
20
0
30
0
70
128
71
2
72
3
73
-4
0
VERTEX
8
OBJECT016
10
0
20
0
30
0
70
128
71
-2
72
4
73
-5
0
VERTEX
8
OBJECT016
10
0
20
0
30
0
70
128
71
-2
72
5
73
-6
0
VERTEX
8
OBJECT016
10
0
20
0
30
0
70
128
71
-2
72
6
73
1
0
VERTEX
8
OBJECT016
10
0
20
0
30
0
70
128
71
4
72
3
73
-8
0
VERTEX
8
OBJECT016
10
0
20
0
30
0
70
128
71
-4
72
8
73
7
0
VERTEX
8
OBJECT016
10
0
20
0
30
0
70
128
71
2
72
9
73
-8
0
VERTEX
8
OBJECT016
10
0
20
0
30
0
70
128
71
-2
72
8
73
3
0
VERTEX
8
OBJECT016
10
0
20
0
30
0
70
128
71
5
72
4
73
-7
0
VERTEX
8
OBJECT016
10
0
20
0
30
0
70
128
71
-5
72
7
73
10
0
VERTEX
8
OBJECT016
10
0
20
0
30
0
70
128
71
1
72
11
73
-9
0
VERTEX
8
OBJECT016
10
0
20
0
30
0
70
128
71
-1
72
9
73
2
0
VERTEX
8
OBJECT016
10
0
20
0
30
0
70
128
71
6
72
5
73
-10
0
VERTEX
8
OBJECT016
10
0
20
0
30
0
70
128
71
-6
72
10
73
12
0
VERTEX
8
OBJECT016
10
0
20
0
30
0
70
128
71
1
72
6
73
-12
0
VERTEX
8
OBJECT016
10
0
20
0
30
0
70
128
71
-1
72
12
73
11
0
VERTEX
8
OBJECT016
10
0
20
0
30
0
70
128
71
10
72
7
73
-8
0
VERTEX
8
OBJECT016
10
0
20
0
30
0
70
128
71
-10
72
8
73
-9
0
VERTEX
8
OBJECT016
10
0
20
0
30
0
70
128
71
-10
72
9
73
-11
0
VERTEX
8
OBJECT016
10
0
20
0
30
0
70
128
71
-10
72
11
73
12
0
SEQEND
8
OBJECT016
0
POLYLINE
8
OBJECT017
66
1
70
64
71
8
72
12
62
50
0
VERTEX
8
OBJECT017
10
1024.000000
20
280.000000
30
-3416.000000
70
192
0
VERTEX
8
OBJECT017
10
1024.000000
20
280.625763
30
-3344.000000
70
192
0
VERTEX
8
OBJECT017
10
1024.000000
20
268.000000
30
-3348.086670
70
192
0
VERTEX
8
OBJECT017
10
1024.000000
20
268.000000
30
-3415.895508
70
192
0
VERTEX
8
OBJECT017
10
1472.000000
20
280.622406
30
-3344.000000
70
192
0
VERTEX
8
OBJECT017
10
1472.000000
20
268.000000
30
-3348.086426
70
192
0
VERTEX
8
OBJECT017
10
1472.000000
20
280.000000
30
-3416.000000
70
192
0
VERTEX
8
OBJECT017
10
1472.000000
20
268.000000
30
-3415.895508
70
192
0
VERTEX
8
OBJECT017
10
0
20
0
30
0
70
128
71
2
72
3
73
-4
0
VERTEX
8
OBJECT017
10
0
20
0
30
0
70
128
71
-2
72
4
73
1
0
VERTEX
8
OBJECT017
10
0
20
0
30
0
70
128
71
2
72
5
73
-6
0
VERTEX
8
OBJECT017
10
0
20
0
30
0
70
128
71
-2
72
6
73
3
0
VERTEX
8
OBJECT017
10
0
20
0
30
0
70
128
71
1
72
7
73
-5
0
VERTEX
8
OBJECT017
10
0
20
0
30
0
70
128
71
-1
72
5
73
2
0
VERTEX
8
OBJECT017
10
0
20
0
30
0
70
128
71
1
72
4
73
-8
0
VERTEX
8
OBJECT017
10
0
20
0
30
0
70
128
71
-1
72
8
73
7
0
VERTEX
8
OBJECT017
10
0
20
0
30
0
70
128
71
5
72
7
73
-8
0
VERTEX
8
OBJECT017
10
0
20
0
30
0
70
128
71
-5
72
8
73
6
0
VERTEX
8
OBJECT017
10
0
20
0
30
0
70
128
71
4
72
3
73
-6
0
VERTEX
8
OBJECT017
10
0
20
0
30
0
70
128
71
-4
72
6
73
8
0
SEQEND
8
OBJECT017
0
POLYLINE
8
OBJECT018
66
1
70
64
71
8
72
12
62
50
0
VERTEX
8
OBJECT018
10
1024.000000
20
268.000000
30
-3484.101074
70
192
0
VERTEX
8
OBJECT018
10
1024.000000
20
279.370239
30
-3488.000000
70
192
0
VERTEX
8
OBJECT018
10
1024.000000
20
280.000000
30
-3416.000000
70
192
0
VERTEX
8
OBJECT018
10
1024.000000
20
268.000000
30
-3415.895996
70
192
0
VERTEX
8
OBJECT018
10
1472.000000
20
279.370575
30
-3488.000000
70
192
0
VERTEX
8
OBJECT018
10
1472.000000
20
268.000000
30
-3484.100098
70
192
0
VERTEX
8
OBJECT018
10
1472.000000
20
280.000000
30
-3416.000000
70
192
0
VERTEX
8
OBJECT018
10
1472.000000
20
268.000000
30
-3415.896240
70
192
0
VERTEX
8
OBJECT018
10
0
20
0
30
0
70
128
71
2
72
3
73
-4
0
VERTEX
8
OBJECT018
10
0
20
0
30
0
70
128
71
-2
72
4
73
1
0
VERTEX
8
OBJECT018
10
0
20
0
30
0
70
128
71
2
72
1
73
-6
0
VERTEX
8
OBJECT018
10
0
20
0
30
0
70
128
71
-2
72
6
73
5
0
VERTEX
8
OBJECT018
10
0
20
0
30
0
70
128
71
2
72
5
73
-7
0
VERTEX
8
OBJECT018
10
0
20
0
30
0
70
128
71
-2
72
7
73
3
0
VERTEX
8
OBJECT018
10
0
20
0
30
0
70
128
71
3
72
7
73
-8
0
VERTEX
8
OBJECT018
10
0
20
0
30
0
70
128
71
-3
72
8
73
4
0
VERTEX
8
OBJECT018
10
0
20
0
30
0
70
128
71
5
72
6
73
-8
0
VERTEX
8
OBJECT018
10
0
20
0
30
0
70
128
71
-5
72
8
73
7
0
VERTEX
8
OBJECT018
10
0
20
0
30
0
70
128
71
1
72
4
73
-8
0
VERTEX
8
OBJECT018
10
0
20
0
30
0
70
128
71
-1
72
8
73
6
0
SEQEND
8
OBJECT018
0
POLYLINE
8
OBJECT019
66
1
70
64
71
8
72
12
62
50
0
VERTEX
8
OBJECT019
10
1024.000000
20
268.000000
30
-3348.087158
70
192
0
VERTEX
8
OBJECT019
10
1024.000000
20
260.000000
30
-3350.677490
70
192
0
VERTEX
8
OBJECT019
10
1024.000000
20
260.000000
30
-3415.825928
70
192
0
VERTEX
8
OBJECT019
10
1024.000000
20
268.000000
30
-3415.895508
70
192
0
VERTEX
8
OBJECT019
10
1472.000000
20
268.000000
30
-3348.085449
70
192
0
VERTEX
8
OBJECT019
10
1472.000000
20
260.000000
30
-3350.675781
70
192
0
VERTEX
8
OBJECT019
10
1472.000000
20
260.000000
30
-3415.825684
70
192
0
VERTEX
8
OBJECT019
10
1472.000000
20
268.000000
30
-3415.895264
70
192
0
VERTEX
8
OBJECT019
10
0
20
0
30
0
70
128
71
2
72
3
73
-4
0
VERTEX
8
OBJECT019
10
0
20
0
30
0
70
128
71
-2
72
4
73
1
0
VERTEX
8
OBJECT019
10
0
20
0
30
0
70
128
71
1
72
5
73
-6
0
VERTEX
8
OBJECT019
10
0
20
0
30
0
70
128
71
-1
72
6
73
2
0
VERTEX
8
OBJECT019
10
0
20
0
30
0
70
128
71
3
72
7
73
-8
0
VERTEX
8
OBJECT019
10
0
20
0
30
0
70
128
71
-3
72
8
73
4
0
VERTEX
8
OBJECT019
10
0
20
0
30
0
70
128
71
7
72
6
73
-5
0
VERTEX
8
OBJECT019
10
0
20
0
30
0
70
128
71
-7
72
5
73
8
0
VERTEX
8
OBJECT019
10
0
20
0
30
0
70
128
71
4
72
8
73
-5
0
VERTEX
8
OBJECT019
10
0
20
0
30
0
70
128
71
-4
72
5
73
1
0
VERTEX
8
OBJECT019
10
0
20
0
30
0
70
128
71
3
72
2
73
-6
0
VERTEX
8
OBJECT019
10
0
20
0
30
0
70
128
71
-3
72
6
73
7
0
SEQEND
8
OBJECT019
0
POLYLINE
8
OBJECT020
66
1
70
64
71
8
72
12
62
50
0
VERTEX
8
OBJECT020
10
1024.000000
20
260.000000
30
-3481.355469
70
192
0
VERTEX
8
OBJECT020
10
1024.000000
20
268.000000
30
-3484.100342
70
192
0
VERTEX
8
OBJECT020
10
1024.000000
20
268.000000
30
-3415.895752
70
192
0
VERTEX
8
OBJECT020
10
1024.000000
20
260.000000
30
-3415.826172
70
192
0
VERTEX
8
OBJECT020
10
1472.000000
20
260.000000
30
-3481.356201
70
192
0
VERTEX
8
OBJECT020
10
1472.000000
20
268.000000
30
-3484.101074
70
192
0
VERTEX
8
OBJECT020
10
1472.000000
20
268.000000
30
-3415.895752
70
192
0
VERTEX
8
OBJECT020
10
1472.000000
20
260.000000
30
-3415.826172
70
192
0
VERTEX
8
OBJECT020
10
0
20
0
30
0
70
128
71
2
72
3
73
-4
0
VERTEX
8
OBJECT020
10
0
20
0
30
0
70
128
71
-2
72
4
73
1
0
VERTEX
8
OBJECT020
10
0
20
0
30
0
70
128
71
1
72
5
73
-6
0
VERTEX
8
OBJECT020
10
0
20
0
30
0
70
128
71
-1
72
6
73
2
0
VERTEX
8
OBJECT020
10
0
20
0
30
0
70
128
71
3
72
7
73
-8
0
VERTEX
8
OBJECT020
10
0
20
0
30
0
70
128
71
-3
72
8
73
4
0
VERTEX
8
OBJECT020
10
0
20
0
30
0
70
128
71
5
72
8
73
-7
0
VERTEX
8
OBJECT020
10
0
20
0
30
0
70
128
71
-5
72
7
73
6
0
VERTEX
8
OBJECT020
10
0
20
0
30
0
70
128
71
2
72
6
73
-7
0
VERTEX
8
OBJECT020
10
0
20
0
30
0
70
128
71
-2
72
7
73
3
0
VERTEX
8
OBJECT020
10
0
20
0
30
0
70
128
71
1
72
4
73
-8
0
VERTEX
8
OBJECT020
10
0
20
0
30
0
70
128
71
-1
72
8
73
5
0
SEQEND
8
OBJECT020
0
POLYLINE
8
OBJECT021
66
1
70
64
71
8
72
12
62
50
0
VERTEX
8
OBJECT021
10
-29.076889
20
259.234375
30
-3404.000000
70
192
0
VERTEX
8
OBJECT021
10
-29.076889
20
259.234375
30
-3415.824707
70
192
0
VERTEX
8
OBJECT021
10
-29.076889
20
267.232697
30
-3415.894531
70
192
0
VERTEX
8
OBJECT021
10
-29.076889
20
267.232697
30
-3404.000000
70
192
0
VERTEX
8
OBJECT021
10
1022.919189
20
267.232697
30
-3404.000000
70
192
0
VERTEX
8
OBJECT021
10
1022.919189
20
267.232697
30
-3415.894531
70
192
0
VERTEX
8
OBJECT021
10
1022.919189
20
259.234375
30
-3415.824707
70
192
0
VERTEX
8
OBJECT021
10
1022.919189
20
259.234375
30
-3404.000000
70
192
0
VERTEX
8
OBJECT021
10
0
20
0
30
0
70
128
71
2
72
3
73
-4
0
VERTEX
8
OBJECT021
10
0
20
0
30
0
70
128
71
-2
72
4
73
1
0
VERTEX
8
OBJECT021
10
0
20
0
30
0
70
128
71
6
72
7
73
-8
0
VERTEX
8
OBJECT021
10
0
20
0
30
0
70
128
71
-6
72
8
73
5
0
VERTEX
8
OBJECT021
10
0
20
0
30
0
70
128
71
2
72
7
73
-6
0
VERTEX
8
OBJECT021
10
0
20
0
30
0
70
128
71
-2
72
6
73
3
0
VERTEX
8
OBJECT021
10
0
20
0
30
0
70
128
71
7
72
2
73
-1
0
VERTEX
8
OBJECT021
10
0
20
0
30
0
70
128
71
-7
72
1
73
8
0
VERTEX
8
OBJECT021
10
0
20
0
30
0
70
128
71
3
72
6
73
-5
0
VERTEX
8
OBJECT021
10
0
20
0
30
0
70
128
71
-3
72
5
73
4
0
VERTEX
8
OBJECT021
10
0
20
0
30
0
70
128
71
4
72
5
73
-8
0
VERTEX
8
OBJECT021
10
0
20
0
30
0
70
128
71
-4
72
8
73
1
0
SEQEND
8
OBJECT021
0
POLYLINE
8
OBJECT022
66
1
70
64
71
14
72
24
62
50
0
VERTEX
8
OBJECT022
10
-29.076889
20
267.232697
30
-3404.000000
70
192
0
VERTEX
8
OBJECT022
10
-29.076889
20
267.232697
30
-3332.130371
70
192
0
VERTEX
8
OBJECT022
10
-29.076889
20
259.232697
30
-3334.719482
70
192
0
VERTEX
8
OBJECT022
10
-29.076889
20
259.232697
30
-3404.000000
70
192
0
VERTEX
8
OBJECT022
10
1022.919189
20
259.232697
30
-3404.000000
70
192
0
VERTEX
8
OBJECT022
10
1022.919189
20
259.232697
30
-3345.513184
70
192
0
VERTEX
8
OBJECT022
10
1022.919189
20
260.744843
30
-3344.000000
70
192
0
VERTEX
8
OBJECT022
10
1022.919189
20
267.232697
30
-3344.000000
70
192
0
VERTEX
8
OBJECT022
10
1022.919189
20
267.232697
30
-3404.000000
70
192
0
VERTEX
8
OBJECT022
10
829.602173
20
267.232697
30
-3332.129639
70
192
0
VERTEX
8
OBJECT022
10
873.257935
20
259.232697
30
-3334.718750
70
192
0
VERTEX
8
OBJECT022
10
1010.620422
20
267.232697
30
-3343.144775
70
192
0
VERTEX
8
OBJECT022
10
1004.019409
20
260.430847
30
-3342.685791
70
192
0
VERTEX
8
OBJECT022
10
956.245544
20
259.232697
30
-3339.768555
70
192
0
VERTEX
8
OBJECT022
10
0
20
0
30
0
70
128
71
2
72
3
73
-4
0
VERTEX
8
OBJECT022
10
0
20
0
30
0
70
128
71
-2
72
4
73
1
0
VERTEX
8
OBJECT022
10
0
20
0
30
0
70
128
71
6
72
7
73
-8
0
VERTEX
8
OBJECT022
10
0
20
0
30
0
70
128
71
-6
72
8
73
-9
0
VERTEX
8
OBJECT022
10
0
20
0
30
0
70
128
71
-6
72
9
73
5
0
VERTEX
8
OBJECT022
10
0
20
0
30
0
70
128
71
2
72
10
73
-11
0
VERTEX
8
OBJECT022
10
0
20
0
30
0
70
128
71
-2
72
11
73
3
0
VERTEX
8
OBJECT022
10
0
20
0
30
0
70
128
71
13
72
14
73
-11
0
VERTEX
8
OBJECT022
10
0
20
0
30
0
70
128
71
-13
72
11
73
-10
0
VERTEX
8
OBJECT022
10
0
20
0
30
0
70
128
71
-13
72
10
73
12
0
VERTEX
8
OBJECT022
10
0
20
0
30
0
70
128
71
6
72
14
73
-13
0
VERTEX
8
OBJECT022
10
0
20
0
30
0
70
128
71
-6
72
13
73
7
0
VERTEX
8
OBJECT022
10
0
20
0
30
0
70
128
71
7
72
13
73
-12
0
VERTEX
8
OBJECT022
10
0
20
0
30
0
70
128
71
-7
72
12
73
8
0
VERTEX
8
OBJECT022
10
0
20
0
30
0
70
128
71
5
72
4
73
-3
0
VERTEX
8
OBJECT022
10
0
20
0
30
0
70
128
71
-5
72
3
73
-11
0
VERTEX
8
OBJECT022
10
0
20
0
30
0
70
128
71
-5
72
11
73
-14
0
VERTEX
8
OBJECT022
10
0
20
0
30
0
70
128
71
-5
72
14
73
6
0
VERTEX
8
OBJECT022
10
0
20
0
30
0
70
128
71
1
72
9
73
-8
0
VERTEX
8
OBJECT022
10
0
20
0
30
0
70
128
71
-1
72
8
73
-12
0
VERTEX
8
OBJECT022
10
0
20
0
30
0
70
128
71
-1
72
12
73
-10
0
VERTEX
8
OBJECT022
10
0
20
0
30
0
70
128
71
-1
72
10
73
2
0
VERTEX
8
OBJECT022
10
0
20
0
30
0
70
128
71
4
72
5
73
-9
0
VERTEX
8
OBJECT022
10
0
20
0
30
0
70
128
71
-4
72
9
73
1
0
SEQEND
8
OBJECT022
0
POLYLINE
8
OBJECT023
66
1
70
64
71
12
72
20
62
50
0
VERTEX
8
OBJECT023
10
-29.076889
20
259.232697
30
-3428.000000
70
192
0
VERTEX
8
OBJECT023
10
-29.076889
20
259.232697
30
-3497.401855
70
192
0
VERTEX
8
OBJECT023
10
-29.076889
20
267.232697
30
-3500.146240
70
192
0
VERTEX
8
OBJECT023
10
-29.076889
20
267.232697
30
-3428.000000
70
192
0
VERTEX
8
OBJECT023
10
1022.919189
20
267.232697
30
-3428.000000
70
192
0
VERTEX
8
OBJECT023
10
1022.919189
20
267.232697
30
-3487.878906
70
192
0
VERTEX
8
OBJECT023
10
1022.919189
20
260.534424
30
-3487.823486
70
192
0
VERTEX
8
OBJECT023
10
1022.919189
20
259.232697
30
-3486.521973
70
192
0
VERTEX
8
OBJECT023
10
1022.919189
20
259.232697
30
-3428.000000
70
192
0
VERTEX
8
OBJECT023
10
865.589905
20
259.232697
30
-3497.401123
70
192
0
VERTEX
8
OBJECT023
10
821.643921
20
267.232697
30
-3500.145508
70
192
0
VERTEX
8
OBJECT023
10
971.171936
20
259.232697
30
-3490.966797
70
192
0
VERTEX
8
OBJECT023
10
0
20
0
30
0
70
128
71
2
72
3
73
-4
0
VERTEX
8
OBJECT023
10
0
20
0
30
0
70
128
71
-2
72
4
73
1
0
VERTEX
8
OBJECT023
10
0
20
0
30
0
70
128
71
6
72
7
73
-8
0
VERTEX
8
OBJECT023
10
0
20
0
30
0
70
128
71
-6
72
8
73
-9
0
VERTEX
8
OBJECT023
10
0
20
0
30
0
70
128
71
-6
72
9
73
5
0
VERTEX
8
OBJECT023
10
0
20
0
30
0
70
128
71
2
72
10
73
-11
0
VERTEX
8
OBJECT023
10
0
20
0
30
0
70
128
71
-2
72
11
73
3
0
VERTEX
8
OBJECT023
10
0
20
0
30
0
70
128
71
10
72
12
73
-7
0
VERTEX
8
OBJECT023
10
0
20
0
30
0
70
128
71
-10
72
7
73
-6
0
VERTEX
8
OBJECT023
10
0
20
0
30
0
70
128
71
-10
72
6
73
11
0
VERTEX
8
OBJECT023
10
0
20
0
30
0
70
128
71
7
72
12
73
8
0
VERTEX
8
OBJECT023
10
0
20
0
30
0
70
128
71
8
72
12
73
-10
0
VERTEX
8
OBJECT023
10
0
20
0
30
0
70
128
71
-8
72
10
73
-2
0
VERTEX
8
OBJECT023
10
0
20
0
30
0
70
128
71
-8
72
2
73
-1
0
VERTEX
8
OBJECT023
10
0
20
0
30
0
70
128
71
-8
72
1
73
9
0
VERTEX
8
OBJECT023
10
0
20
0
30
0
70
128
71
3
72
11
73
-6
0
VERTEX
8
OBJECT023
10
0
20
0
30
0
70
128
71
-3
72
6
73
-5
0
VERTEX
8
OBJECT023
10
0
20
0
30
0
70
128
71
-3
72
5
73
4
0
VERTEX
8
OBJECT023
10
0
20
0
30
0
70
128
71
4
72
5
73
-9
0
VERTEX
8
OBJECT023
10
0
20
0
30
0
70
128
71
-4
72
9
73
1
0
SEQEND
8
OBJECT023
0
POLYLINE
8
OBJECT024
66
1
70
64
71
8
72
12
62
50
0
VERTEX
8
OBJECT024
10
-29.076889
20
267.232697
30
-3428.000000
70
192
0
VERTEX
8
OBJECT024
10
-29.076889
20
267.232697
30
-3415.894531
70
192
0
VERTEX
8
OBJECT024
10
-29.076889
20
259.234375
30
-3415.824707
70
192
0
VERTEX
8
OBJECT024
10
-29.076889
20
259.234375
30
-3428.000000
70
192
0
VERTEX
8
OBJECT024
10
1022.919189
20
259.234375
30
-3428.000000
70
192
0
VERTEX
8
OBJECT024
10
1022.919189
20
259.234375
30
-3415.824707
70
192
0
VERTEX
8
OBJECT024
10
1022.919189
20
267.232697
30
-3415.894531
70
192
0
VERTEX
8
OBJECT024
10
1022.919189
20
267.232697
30
-3428.000000
70
192
0
VERTEX
8
OBJECT024
10
0
20
0
30
0
70
128
71
2
72
3
73
-4
0
VERTEX
8
OBJECT024
10
0
20
0
30
0
70
128
71
-2
72
4
73
1
0
VERTEX
8
OBJECT024
10
0
20
0
30
0
70
128
71
6
72
7
73
-8
0
VERTEX
8
OBJECT024
10
0
20
0
30
0
70
128
71
-6
72
8
73
5
0
VERTEX
8
OBJECT024
10
0
20
0
30
0
70
128
71
2
72
7
73
-6
0
VERTEX
8
OBJECT024
10
0
20
0
30
0
70
128
71
-2
72
6
73
3
0
VERTEX
8
OBJECT024
10
0
20
0
30
0
70
128
71
5
72
4
73
-3
0
VERTEX
8
OBJECT024
10
0
20
0
30
0
70
128
71
-5
72
3
73
6
0
VERTEX
8
OBJECT024
10
0
20
0
30
0
70
128
71
1
72
8
73
-7
0
VERTEX
8
OBJECT024
10
0
20
0
30
0
70
128
71
-1
72
7
73
2
0
VERTEX
8
OBJECT024
10
0
20
0
30
0
70
128
71
4
72
5
73
-8
0
VERTEX
8
OBJECT024
10
0
20
0
30
0
70
128
71
-4
72
8
73
1
0
SEQEND
8
OBJECT024
0
POLYLINE
8
OBJECT025
66
1
70
64
71
8
72
12
62
50
0
VERTEX
8
OBJECT025
10
873.337402
20
259.232697
30
-3334.722656
70
192
0
VERTEX
8
OBJECT025
10
829.642700
20
267.232697
30
-3332.132568
70
192
0
VERTEX
8
OBJECT025
10
852.229309
20
267.232697
30
-3332.132568
70
192
0
VERTEX
8
OBJECT025
10
889.482544
20
259.232697
30
-3334.722656
70
192
0
VERTEX
8
OBJECT025
10
956.815491
20
259.232697
30
-3339.802490
70
192
0
VERTEX
8
OBJECT025
10
1003.776794
20
260.405670
30
-3342.669922
70
192
0
VERTEX
8
OBJECT025
10
1010.495361
20
267.232697
30
-3343.137207
70
192
0
VERTEX
8
OBJECT025
10
932.823425
20
259.232697
30
-3337.736328
70
192
0
VERTEX
8
OBJECT025
10
0
20
0
30
0
70
128
71
2
72
3
73
-4
0
VERTEX
8
OBJECT025
10
0
20
0
30
0
70
128
71
-2
72
4
73
1
0
VERTEX
8
OBJECT025
10
0
20
0
30
0
70
128
71
1
72
5
73
-6
0
VERTEX
8
OBJECT025
10
0
20
0
30
0
70
128
71
-1
72
6
73
-7
0
VERTEX
8
OBJECT025
10
0
20
0
30
0
70
128
71
-1
72
7
73
2
0
VERTEX
8
OBJECT025
10
0
20
0
30
0
70
128
71
5
72
8
73
6
0
VERTEX
8
OBJECT025
10
0
20
0
30
0
70
128
71
3
72
7
73
-6
0
VERTEX
8
OBJECT025
10
0
20
0
30
0
70
128
71
-3
72
6
73
-8
0
VERTEX
8
OBJECT025
10
0
20
0
30
0
70
128
71
-3
72
8
73
4
0
VERTEX
8
OBJECT025
10
0
20
0
30
0
70
128
71
1
72
4
73
-8
0
VERTEX
8
OBJECT025
10
0
20
0
30
0
70
128
71
-1
72
8
73
5
0
VERTEX
8
OBJECT025
10
0
20
0
30
0
70
128
71
2
72
7
73
3
0
SEQEND
8
OBJECT025
0
POLYLINE
8
OBJECT026
66
1
70
64
71
12
72
20
62
50
0
VERTEX
8
OBJECT026
10
-29.076889
20
239.232697
30
-3428.000000
70
192
0
VERTEX
8
OBJECT026
10
-29.076889
20
239.232697
30
-3487.325684
70
192
0
VERTEX
8
OBJECT026
10
-29.076889
20
246.884583
30
-3493.169434
70
192
0
VERTEX
8
OBJECT026
10
-29.076889
20
247.232697
30
-3493.288818
70
192
0
VERTEX
8
OBJECT026
10
-29.076889
20
247.232697
30
-3428.000000
70
192
0
VERTEX
8
OBJECT026
10
801.747986
20
246.889725
30
-3493.170654
70
192
0
VERTEX
8
OBJECT026
10
754.907715
20
239.232697
30
-3487.322998
70
192
0
VERTEX
8
OBJECT026
10
784.241211
20
240.530548
30
-3488.314209
70
192
0
VERTEX
8
OBJECT026
10
804.379944
20
247.232697
30
-3493.287598
70
192
0
VERTEX
8
OBJECT026
10
935.719421
20
247.232697
30
-3482.000000
70
192
0
VERTEX
8
OBJECT026
10
754.901672
20
239.232697
30
-3428.000000
70
192
0
VERTEX
8
OBJECT026
10
935.713928
20
247.232697
30
-3428.000000
70
192
0
VERTEX
8
OBJECT026
10
0
20
0
30
0
70
128
71
2
72
3
73
-4
0
VERTEX
8
OBJECT026
10
0
20
0
30
0
70
128
71
-2
72
4
73
-5
0
VERTEX
8
OBJECT026
10
0
20
0
30
0
70
128
71
-2
72
5
73
1
0
VERTEX
8
OBJECT026
10
0
20
0
30
0
70
128
71
3
72
2
73
-7
0
VERTEX
8
OBJECT026
10
0
20
0
30
0
70
128
71
-3
72
7
73
-8
0
VERTEX
8
OBJECT026
10
0
20
0
30
0
70
128
71
-3
72
8
73
6
0
VERTEX
8
OBJECT026
10
0
20
0
30
0
70
128
71
3
72
6
73
-9
0
VERTEX
8
OBJECT026
10
0
20
0
30
0
70
128
71
-3
72
9
73
4
0
VERTEX
8
OBJECT026
10
0
20
0
30
0
70
128
71
9
72
6
73
-8
0
VERTEX
8
OBJECT026
10
0
20
0
30
0
70
128
71
-9
72
8
73
10
0
VERTEX
8
OBJECT026
10
0
20
0
30
0
70
128
71
7
72
2
73
-1
0
VERTEX
8
OBJECT026
10
0
20
0
30
0
70
128
71
-7
72
1
73
11
0
VERTEX
8
OBJECT026
10
0
20
0
30
0
70
128
71
4
72
9
73
-10
0
VERTEX
8
OBJECT026
10
0
20
0
30
0
70
128
71
-4
72
10
73
-12
0
VERTEX
8
OBJECT026
10
0
20
0
30
0
70
128
71
-4
72
12
73
5
0
VERTEX
8
OBJECT026
10
0
20
0
30
0
70
128
71
10
72
8
73
-7
0
VERTEX
8
OBJECT026
10
0
20
0
30
0
70
128
71
-10
72
7
73
-11
0
VERTEX
8
OBJECT026
10
0
20
0
30
0
70
128
71
-10
72
11
73
12
0
VERTEX
8
OBJECT026
10
0
20
0
30
0
70
128
71
1
72
5
73
-12
0
VERTEX
8
OBJECT026
10
0
20
0
30
0
70
128
71
-1
72
12
73
11
0
SEQEND
8
OBJECT026
0
POLYLINE
8
OBJECT027
66
1
70
64
71
8
72
12
62
50
0
VERTEX
8
OBJECT027
10
-29.076889
20
247.232697
30
-3428.000000
70
192
0
VERTEX
8
OBJECT027
10
-29.076889
20
247.232697
30
-3415.719971
70
192
0
VERTEX
8
OBJECT027
10
-29.076889
20
239.234375
30
-3415.650146
70
192
0
VERTEX
8
OBJECT027
10
-29.076889
20
239.234375
30
-3428.000000
70
192
0
VERTEX
8
OBJECT027
10
754.938354
20
239.234375
30
-3415.650146
70
192
0
VERTEX
8
OBJECT027
10
935.712708
20
247.232697
30
-3415.719971
70
192
0
VERTEX
8
OBJECT027
10
754.901672
20
239.232697
30
-3428.000000
70
192
0
VERTEX
8
OBJECT027
10
935.713928
20
247.232697
30
-3428.000000
70
192
0
VERTEX
8
OBJECT027
10
0
20
0
30
0
70
128
71
2
72
3
73
-4
0
VERTEX
8
OBJECT027
10
0
20
0
30
0
70
128
71
-2
72
4
73
1
0
VERTEX
8
OBJECT027
10
0
20
0
30
0
70
128
71
3
72
2
73
-6
0
VERTEX
8
OBJECT027
10
0
20
0
30
0
70
128
71
-3
72
6
73
5
0
VERTEX
8
OBJECT027
10
0
20
0
30
0
70
128
71
3
72
5
73
-7
0
VERTEX
8
OBJECT027
10
0
20
0
30
0
70
128
71
-3
72
7
73
4
0
VERTEX
8
OBJECT027
10
0
20
0
30
0
70
128
71
1
72
8
73
-6
0
VERTEX
8
OBJECT027
10
0
20
0
30
0
70
128
71
-1
72
6
73
2
0
VERTEX
8
OBJECT027
10
0
20
0
30
0
70
128
71
5
72
6
73
-8
0
VERTEX
8
OBJECT027
10
0
20
0
30
0
70
128
71
-5
72
8
73
7
0
VERTEX
8
OBJECT027
10
0
20
0
30
0
70
128
71
1
72
4
73
-7
0
VERTEX
8
OBJECT027
10
0
20
0
30
0
70
128
71
-1
72
7
73
8
0
SEQEND
8
OBJECT027
0
POLYLINE
8
OBJECT028
66
1
70
64
71
8
72
12
62
50
0
VERTEX
8
OBJECT028
10
-29.076889
20
239.234375
30
-3404.000000
70
192
0
VERTEX
8
OBJECT028
10
-29.076889
20
239.234375
30
-3415.650146
70
192
0
VERTEX
8
OBJECT028
10
-29.076889
20
247.232697
30
-3415.719971
70
192
0
VERTEX
8
OBJECT028
10
-29.076889
20
247.232697
30
-3404.000000
70
192
0
VERTEX
8
OBJECT028
10
935.722961
20
247.232697
30
-3415.719971
70
192
0
VERTEX
8
OBJECT028
10
754.949097
20
239.234375
30
-3415.650146
70
192
0
VERTEX
8
OBJECT028
10
754.911133
20
239.232697
30
-3404.000000
70
192
0
VERTEX
8
OBJECT028
10
935.722961
20
247.232697
30
-3404.000000
70
192
0
VERTEX
8
OBJECT028
10
0
20
0
30
0
70
128
71
2
72
3
73
-4
0
VERTEX
8
OBJECT028
10
0
20
0
30
0
70
128
71
-2
72
4
73
1
0
VERTEX
8
OBJECT028
10
0
20
0
30
0
70
128
71
3
72
2
73
-6
0
VERTEX
8
OBJECT028
10
0
20
0
30
0
70
128
71
-3
72
6
73
5
0
VERTEX
8
OBJECT028
10
0
20
0
30
0
70
128
71
6
72
2
73
-1
0
VERTEX
8
OBJECT028
10
0
20
0
30
0
70
128
71
-6
72
1
73
7
0
VERTEX
8
OBJECT028
10
0
20
0
30
0
70
128
71
3
72
5
73
-8
0
VERTEX
8
OBJECT028
10
0
20
0
30
0
70
128
71
-3
72
8
73
4
0
VERTEX
8
OBJECT028
10
0
20
0
30
0
70
128
71
5
72
6
73
-7
0
VERTEX
8
OBJECT028
10
0
20
0
30
0
70
128
71
-5
72
7
73
8
0
VERTEX
8
OBJECT028
10
0
20
0
30
0
70
128
71
1
72
4
73
-8
0
VERTEX
8
OBJECT028
10
0
20
0
30
0
70
128
71
-1
72
8
73
7
0
SEQEND
8
OBJECT028
0
POLYLINE
8
OBJECT029
66
1
70
64
71
10
72
16
62
50
0
VERTEX
8
OBJECT029
10
-29.076889
20
247.232697
30
-3404.000000
70
192
0
VERTEX
8
OBJECT029
10
-29.076889
20
247.232697
30
-3339.017578
70
192
0
VERTEX
8
OBJECT029
10
-29.076889
20
239.232697
30
-3344.910400
70
192
0
VERTEX
8
OBJECT029
10
-29.076889
20
239.232697
30
-3404.000000
70
192
0
VERTEX
8
OBJECT029
10
808.168274
20
247.232697
30
-3339.016113
70
192
0
VERTEX
8
OBJECT029
10
788.157654
20
240.703690
30
-3343.825684
70
192
0
VERTEX
8
OBJECT029
10
754.911072
20
239.232697
30
-3344.909424
70
192
0
VERTEX
8
OBJECT029
10
935.723083
20
247.232697
30
-3350.000000
70
192
0
VERTEX
8
OBJECT029
10
754.911133
20
239.232697
30
-3404.000000
70
192
0
VERTEX
8
OBJECT029
10
935.723083
20
247.232697
30
-3404.000000
70
192
0
VERTEX
8
OBJECT029
10
0
20
0
30
0
70
128
71
2
72
3
73
-4
0
VERTEX
8
OBJECT029
10
0
20
0
30
0
70
128
71
-2
72
4
73
1
0
VERTEX
8
OBJECT029
10
0
20
0
30
0
70
128
71
6
72
7
73
-3
0
VERTEX
8
OBJECT029
10
0
20
0
30
0
70
128
71
-6
72
3
73
-2
0
VERTEX
8
OBJECT029
10
0
20
0
30
0
70
128
71
-6
72
2
73
5
0
VERTEX
8
OBJECT029
10
0
20
0
30
0
70
128
71
5
72
8
73
6
0
VERTEX
8
OBJECT029
10
0
20
0
30
0
70
128
71
3
72
7
73
-9
0
VERTEX
8
OBJECT029
10
0
20
0
30
0
70
128
71
-3
72
9
73
4
0
VERTEX
8
OBJECT029
10
0
20
0
30
0
70
128
71
1
72
10
73
-8
0
VERTEX
8
OBJECT029
10
0
20
0
30
0
70
128
71
-1
72
8
73
-5
0
VERTEX
8
OBJECT029
10
0
20
0
30
0
70
128
71
-1
72
5
73
2
0
VERTEX
8
OBJECT029
10
0
20
0
30
0
70
128
71
7
72
6
73
-8
0
VERTEX
8
OBJECT029
10
0
20
0
30
0
70
128
71
-7
72
8
73
-10
0
VERTEX
8
OBJECT029
10
0
20
0
30
0
70
128
71
-7
72
10
73
9
0
VERTEX
8
OBJECT029
10
0
20
0
30
0
70
128
71
4
72
9
73
-10
0
VERTEX
8
OBJECT029
10
0
20
0
30
0
70
128
71
-4
72
10
73
1
0
SEQEND
8
OBJECT029
0
POLYLINE
8
OBJECT030
66
1
70
64
71
14
72
24
62
50
0
VERTEX
8
OBJECT030
10
-29.076889
20
247.232697
30
-3428.000000
70
192
0
VERTEX
8
OBJECT030
10
-29.076889
20
247.232697
30
-3493.286133
70
192
0
VERTEX
8
OBJECT030
10
-29.076889
20
259.232697
30
-3497.402832
70
192
0
VERTEX
8
OBJECT030
10
-29.076889
20
259.232697
30
-3428.000000
70
192
0
VERTEX
8
OBJECT030
10
1022.919189
20
259.232697
30
-3428.000000
70
192
0
VERTEX
8
OBJECT030
10
1022.919189
20
259.232697
30
-3486.516113
70
192
0
VERTEX
8
OBJECT030
10
1022.919189
20
258.909271
30
-3486.192627
70
192
0
VERTEX
8
OBJECT030
10
1022.919189
20
258.909271
30
-3428.000000
70
192
0
VERTEX
8
OBJECT030
10
803.856812
20
247.232697
30
-3493.286133
70
192
0
VERTEX
8
OBJECT030
10
878.216187
20
256.931152
30
-3496.613281
70
192
0
VERTEX
8
OBJECT030
10
865.570435
20
259.232697
30
-3497.402832
70
192
0
VERTEX
8
OBJECT030
10
970.863159
20
259.232697
30
-3490.976563
70
192
0
VERTEX
8
OBJECT030
10
890.965332
20
247.232697
30
-3485.824219
70
192
0
VERTEX
8
OBJECT030
10
890.965332
20
247.232697
30
-3428.000000
70
192
0
VERTEX
8
OBJECT030
10
0
20
0
30
0
70
128
71
2
72
3
73
-4
0
VERTEX
8
OBJECT030
10
0
20
0
30
0
70
128
71
-2
72
4
73
1
0
VERTEX
8
OBJECT030
10
0
20
0
30
0
70
128
71
6
72
7
73
-8
0
VERTEX
8
OBJECT030
10
0
20
0
30
0
70
128
71
-6
72
8
73
5
0
VERTEX
8
OBJECT030
10
0
20
0
30
0
70
128
71
2
72
9
73
-10
0
VERTEX
8
OBJECT030
10
0
20
0
30
0
70
128
71
-2
72
10
73
-11
0
VERTEX
8
OBJECT030
10
0
20
0
30
0
70
128
71
-2
72
11
73
3
0
VERTEX
8
OBJECT030
10
0
20
0
30
0
70
128
71
10
72
12
73
11
0
VERTEX
8
OBJECT030
10
0
20
0
30
0
70
128
71
6
72
12
73
-10
0
VERTEX
8
OBJECT030
10
0
20
0
30
0
70
128
71
-6
72
10
73
-9
0
VERTEX
8
OBJECT030
10
0
20
0
30
0
70
128
71
-6
72
9
73
-13
0
VERTEX
8
OBJECT030
10
0
20
0
30
0
70
128
71
-6
72
13
73
7
0
VERTEX
8
OBJECT030
10
0
20
0
30
0
70
128
71
3
72
11
73
-12
0
VERTEX
8
OBJECT030
10
0
20
0
30
0
70
128
71
-3
72
12
73
-6
0
VERTEX
8
OBJECT030
10
0
20
0
30
0
70
128
71
-3
72
6
73
-5
0
VERTEX
8
OBJECT030
10
0
20
0
30
0
70
128
71
-3
72
5
73
4
0
VERTEX
8
OBJECT030
10
0
20
0
30
0
70
128
71
13
72
9
73
-2
0
VERTEX
8
OBJECT030
10
0
20
0
30
0
70
128
71
-13
72
2
73
-1
0
VERTEX
8
OBJECT030
10
0
20
0
30
0
70
128
71
-13
72
1
73
14
0
VERTEX
8
OBJECT030
10
0
20
0
30
0
70
128
71
7
72
13
73
-14
0
VERTEX
8
OBJECT030
10
0
20
0
30
0
70
128
71
-7
72
14
73
8
0
VERTEX
8
OBJECT030
10
0
20
0
30
0
70
128
71
4
72
5
73
-8
0
VERTEX
8
OBJECT030
10
0
20
0
30
0
70
128
71
-4
72
8
73
-14
0
VERTEX
8
OBJECT030
10
0
20
0
30
0
70
128
71
-4
72
14
73
1
0
SEQEND
8
OBJECT030
0
POLYLINE
8
OBJECT031
66
1
70
64
71
10
72
16
62
50
0
VERTEX
8
OBJECT031
10
-29.076889
20
259.234375
30
-3428.000000
70
192
0
VERTEX
8
OBJECT031
10
-29.076889
20
259.234375
30
-3415.824707
70
192
0
VERTEX
8
OBJECT031
10
-29.076889
20
247.232697
30
-3415.719971
70
192
0
VERTEX
8
OBJECT031
10
-29.076889
20
247.232697
30
-3428.000000
70
192
0
VERTEX
8
OBJECT031
10
1022.919189
20
258.909241
30
-3428.000000
70
192
0
VERTEX
8
OBJECT031
10
1022.919189
20
258.909241
30
-3415.821777
70
192
0
VERTEX
8
OBJECT031
10
1022.919189
20
259.234375
30
-3415.824707
70
192
0
VERTEX
8
OBJECT031
10
1022.919189
20
259.234375
30
-3428.000000
70
192
0
VERTEX
8
OBJECT031
10
890.965332
20
247.232697
30
-3415.719971
70
192
0
VERTEX
8
OBJECT031
10
890.965332
20
247.232697
30
-3428.000000
70
192
0
VERTEX
8
OBJECT031
10
0
20
0
30
0
70
128
71
2
72
3
73
-4
0
VERTEX
8
OBJECT031
10
0
20
0
30
0
70
128
71
-2
72
4
73
1
0
VERTEX
8
OBJECT031
10
0
20
0
30
0
70
128
71
6
72
7
73
-8
0
VERTEX
8
OBJECT031
10
0
20
0
30
0
70
128
71
-6
72
8
73
5
0
VERTEX
8
OBJECT031
10
0
20
0
30
0
70
128
71
2
72
7
73
-6
0
VERTEX
8
OBJECT031
10
0
20
0
30
0
70
128
71
-2
72
6
73
-9
0
VERTEX
8
OBJECT031
10
0
20
0
30
0
70
128
71
-2
72
9
73
3
0
VERTEX
8
OBJECT031
10
0
20
0
30
0
70
128
71
1
72
8
73
-7
0
VERTEX
8
OBJECT031
10
0
20
0
30
0
70
128
71
-1
72
7
73
2
0
VERTEX
8
OBJECT031
10
0
20
0
30
0
70
128
71
3
72
9
73
-10
0
VERTEX
8
OBJECT031
10
0
20
0
30
0
70
128
71
-3
72
10
73
4
0
VERTEX
8
OBJECT031
10
0
20
0
30
0
70
128
71
5
72
10
73
-9
0
VERTEX
8
OBJECT031
10
0
20
0
30
0
70
128
71
-5
72
9
73
6
0
VERTEX
8
OBJECT031
10
0
20
0
30
0
70
128
71
4
72
10
73
-5
0
VERTEX
8
OBJECT031
10
0
20
0
30
0
70
128
71
-4
72
5
73
-8
0
VERTEX
8
OBJECT031
10
0
20
0
30
0
70
128
71
-4
72
8
73
1
0
SEQEND
8
OBJECT031
0
POLYLINE
8
OBJECT032
66
1
70
64
71
10
72
16
62
50
0
VERTEX
8
OBJECT032
10
-29.076889
20
247.232697
30
-3404.000000
70
192
0
VERTEX
8
OBJECT032
10
-29.076889
20
247.232697
30
-3415.719971
70
192
0
VERTEX
8
OBJECT032
10
-29.076889
20
259.234375
30
-3415.824707
70
192
0
VERTEX
8
OBJECT032
10
-29.076889
20
259.234375
30
-3404.000000
70
192
0
VERTEX
8
OBJECT032
10
1022.919189
20
259.234375
30
-3404.000000
70
192
0
VERTEX
8
OBJECT032
10
1022.919189
20
259.234375
30
-3415.824707
70
192
0
VERTEX
8
OBJECT032
10
1022.919189
20
258.909241
30
-3415.821777
70
192
0
VERTEX
8
OBJECT032
10
1022.919189
20
258.909241
30
-3404.000000
70
192
0
VERTEX
8
OBJECT032
10
890.965332
20
247.232697
30
-3415.719971
70
192
0
VERTEX
8
OBJECT032
10
890.965332
20
247.232697
30
-3404.000000
70
192
0
VERTEX
8
OBJECT032
10
0
20
0
30
0
70
128
71
2
72
3
73
-4
0
VERTEX
8
OBJECT032
10
0
20
0
30
0
70
128
71
-2
72
4
73
1
0
VERTEX
8
OBJECT032
10
0
20
0
30
0
70
128
71
6
72
7
73
-8
0
VERTEX
8
OBJECT032
10
0
20
0
30
0
70
128
71
-6
72
8
73
5
0
VERTEX
8
OBJECT032
10
0
20
0
30
0
70
128
71
2
72
9
73
-7
0
VERTEX
8
OBJECT032
10
0
20
0
30
0
70
128
71
-2
72
7
73
-6
0
VERTEX
8
OBJECT032
10
0
20
0
30
0
70
128
71
-2
72
6
73
3
0
VERTEX
8
OBJECT032
10
0
20
0
30
0
70
128
71
3
72
6
73
-5
0
VERTEX
8
OBJECT032
10
0
20
0
30
0
70
128
71
-3
72
5
73
4
0
VERTEX
8
OBJECT032
10
0
20
0
30
0
70
128
71
9
72
2
73
-1
0
VERTEX
8
OBJECT032
10
0
20
0
30
0
70
128
71
-9
72
1
73
10
0
VERTEX
8
OBJECT032
10
0
20
0
30
0
70
128
71
7
72
9
73
-10
0
VERTEX
8
OBJECT032
10
0
20
0
30
0
70
128
71
-7
72
10
73
8
0
VERTEX
8
OBJECT032
10
0
20
0
30
0
70
128
71
4
72
5
73
-8
0
VERTEX
8
OBJECT032
10
0
20
0
30
0
70
128
71
-4
72
8
73
-10
0
VERTEX
8
OBJECT032
10
0
20
0
30
0
70
128
71
-4
72
10
73
1
0
SEQEND
8
OBJECT032
0
POLYLINE
8
OBJECT033
66
1
70
64
71
16
72
28
62
50
0
VERTEX
8
OBJECT033
10
-29.076889
20
259.232697
30
-3404.000000
70
192
0
VERTEX
8
OBJECT033
10
-29.076889
20
259.232697
30
-3334.722168
70
192
0
VERTEX
8
OBJECT033
10
-29.076889
20
248.230911
30
-3338.283203
70
192
0
VERTEX
8
OBJECT033
10
-29.076889
20
247.232697
30
-3339.012207
70
192
0
VERTEX
8
OBJECT033
10
-29.076889
20
247.232697
30
-3404.000000
70
192
0
VERTEX
8
OBJECT033
10
1022.919189
20
258.909271
30
-3404.000000
70
192
0
VERTEX
8
OBJECT033
10
1022.919189
20
258.909271
30
-3345.836914
70
192
0
VERTEX
8
OBJECT033
10
1022.919189
20
259.232697
30
-3345.513184
70
192
0
VERTEX
8
OBJECT033
10
1022.919189
20
259.232697
30
-3404.000000
70
192
0
VERTEX
8
OBJECT033
10
811.200500
20
248.225845
30
-3338.285156
70
192
0
VERTEX
8
OBJECT033
10
808.084717
20
247.232697
30
-3339.010498
70
192
0
VERTEX
8
OBJECT033
10
873.304260
20
259.232697
30
-3334.721191
70
192
0
VERTEX
8
OBJECT033
10
883.292725
20
257.402344
30
-3335.313721
70
192
0
VERTEX
8
OBJECT033
10
956.245972
20
259.232697
30
-3339.768311
70
192
0
VERTEX
8
OBJECT033
10
890.965332
20
247.232697
30
-3346.149902
70
192
0
VERTEX
8
OBJECT033
10
890.965332
20
247.232697
30
-3404.000000
70
192
0
VERTEX
8
OBJECT033
10
0
20
0
30
0
70
128
71
2
72
3
73
-4
0
VERTEX
8
OBJECT033
10
0
20
0
30
0
70
128
71
-2
72
4
73
-5
0
VERTEX
8
OBJECT033
10
0
20
0
30
0
70
128
71
-2
72
5
73
1
0
VERTEX
8
OBJECT033
10
0
20
0
30
0
70
128
71
7
72
8
73
-9
0
VERTEX
8
OBJECT033
10
0
20
0
30
0
70
128
71
-7
72
9
73
6
0
VERTEX
8
OBJECT033
10
0
20
0
30
0
70
128
71
3
72
10
73
-11
0
VERTEX
8
OBJECT033
10
0
20
0
30
0
70
128
71
-3
72
11
73
4
0
VERTEX
8
OBJECT033
10
0
20
0
30
0
70
128
71
2
72
12
73
-13
0
VERTEX
8
OBJECT033
10
0
20
0
30
0
70
128
71
-2
72
13
73
-10
0
VERTEX
8
OBJECT033
10
0
20
0
30
0
70
128
71
-2
72
10
73
3
0
VERTEX
8
OBJECT033
10
0
20
0
30
0
70
128
71
13
72
12
73
14
0
VERTEX
8
OBJECT033
10
0
20
0
30
0
70
128
71
7
72
15
73
-11
0
VERTEX
8
OBJECT033
10
0
20
0
30
0
70
128
71
-7
72
11
73
-10
0
VERTEX
8
OBJECT033
10
0
20
0
30
0
70
128
71
-7
72
10
73
-13
0
VERTEX
8
OBJECT033
10
0
20
0
30
0
70
128
71
-7
72
13
73
-14
0
VERTEX
8
OBJECT033
10
0
20
0
30
0
70
128
71
-7
72
14
73
8
0
VERTEX
8
OBJECT033
10
0
20
0
30
0
70
128
71
1
72
9
73
-8
0
VERTEX
8
OBJECT033
10
0
20
0
30
0
70
128
71
-1
72
8
73
-14
0
VERTEX
8
OBJECT033
10
0
20
0
30
0
70
128
71
-1
72
14
73
-12
0
VERTEX
8
OBJECT033
10
0
20
0
30
0
70
128
71
-1
72
12
73
2
0
VERTEX
8
OBJECT033
10
0
20
0
30
0
70
128
71
4
72
11
73
-15
0
VERTEX
8
OBJECT033
10
0
20
0
30
0
70
128
71
-4
72
15
73
-16
0
VERTEX
8
OBJECT033
10
0
20
0
30
0
70
128
71
-4
72
16
73
5
0
VERTEX
8
OBJECT033
10
0
20
0
30
0
70
128
71
6
72
16
73
-15
0
VERTEX
8
OBJECT033
10
0
20
0
30
0
70
128
71
-6
72
15
73
7
0
VERTEX
8
OBJECT033
10
0
20
0
30
0
70
128
71
5
72
16
73
-6
0
VERTEX
8
OBJECT033
10
0
20
0
30
0
70
128
71
-5
72
6
73
-9
0
VERTEX
8
OBJECT033
10
0
20
0
30
0
70
128
71
-5
72
9
73
1
0
SEQEND
8
OBJECT033
0
POLYLINE
8
OBJECT034
66
1
70
64
71
8
72
12
62
50
0
VERTEX
8
OBJECT034
10
-29.076889
20
223.234375
30
-3428.000000
70
192
0
VERTEX
8
OBJECT034
10
-29.076889
20
223.234375
30
-3475.106445
70
192
0
VERTEX
8
OBJECT034
10
-29.076889
20
231.232697
30
-3481.215088
70
192
0
VERTEX
8
OBJECT034
10
-29.076889
20
231.232697
30
-3428.000000
70
192
0
VERTEX
8
OBJECT034
10
692.378540
20
231.232697
30
-3481.215088
70
192
0
VERTEX
8
OBJECT034
10
459.563782
20
223.234375
30
-3475.106445
70
192
0
VERTEX
8
OBJECT034
10
459.514893
20
223.232697
30
-3428.000000
70
192
0
VERTEX
8
OBJECT034
10
692.378601
20
231.232697
30
-3428.000000
70
192
0
VERTEX
8
OBJECT034
10
0
20
0
30
0
70
128
71
2
72
3
73
-4
0
VERTEX
8
OBJECT034
10
0
20
0
30
0
70
128
71
-2
72
4
73
1
0
VERTEX
8
OBJECT034
10
0
20
0
30
0
70
128
71
3
72
2
73
-6
0
VERTEX
8
OBJECT034
10
0
20
0
30
0
70
128
71
-3
72
6
73
5
0
VERTEX
8
OBJECT034
10
0
20
0
30
0
70
128
71
6
72
2
73
-1
0
VERTEX
8
OBJECT034
10
0
20
0
30
0
70
128
71
-6
72
1
73
7
0
VERTEX
8
OBJECT034
10
0
20
0
30
0
70
128
71
3
72
5
73
-8
0
VERTEX
8
OBJECT034
10
0
20
0
30
0
70
128
71
-3
72
8
73
4
0
VERTEX
8
OBJECT034
10
0
20
0
30
0
70
128
71
5
72
6
73
-7
0
VERTEX
8
OBJECT034
10
0
20
0
30
0
70
128
71
-5
72
7
73
8
0
VERTEX
8
OBJECT034
10
0
20
0
30
0
70
128
71
1
72
4
73
-8
0
VERTEX
8
OBJECT034
10
0
20
0
30
0
70
128
71
-1
72
8
73
7
0
SEQEND
8
OBJECT034
0
POLYLINE
8
OBJECT035
66
1
70
64
71
8
72
12
62
50
0
VERTEX
8
OBJECT035
10
-29.076889
20
231.232697
30
-3428.000000
70
192
0
VERTEX
8
OBJECT035
10
-29.076889
20
231.232697
30
-3415.582031
70
192
0
VERTEX
8
OBJECT035
10
-29.076889
20
223.234375
30
-3415.512207
70
192
0
VERTEX
8
OBJECT035
10
-29.076889
20
223.234375
30
-3428.000000
70
192
0
VERTEX
8
OBJECT035
10
459.563782
20
223.234375
30
-3415.511719
70
192
0
VERTEX
8
OBJECT035
10
692.378601
20
231.232697
30
-3415.581543
70
192
0
VERTEX
8
OBJECT035
10
459.514923
20
223.232697
30
-3428.000000
70
192
0
VERTEX
8
OBJECT035
10
692.378601
20
231.232697
30
-3428.000000
70
192
0
VERTEX
8
OBJECT035
10
0
20
0
30
0
70
128
71
2
72
3
73
-4
0
VERTEX
8
OBJECT035
10
0
20
0
30
0
70
128
71
-2
72
4
73
1
0
VERTEX
8
OBJECT035
10
0
20
0
30
0
70
128
71
3
72
2
73
-6
0
VERTEX
8
OBJECT035
10
0
20
0
30
0
70
128
71
-3
72
6
73
5
0
VERTEX
8
OBJECT035
10
0
20
0
30
0
70
128
71
3
72
5
73
-7
0
VERTEX
8
OBJECT035
10
0
20
0
30
0
70
128
71
-3
72
7
73
4
0
VERTEX
8
OBJECT035
10
0
20
0
30
0
70
128
71
1
72
8
73
-6
0
VERTEX
8
OBJECT035
10
0
20
0
30
0
70
128
71
-1
72
6
73
2
0
VERTEX
8
OBJECT035
10
0
20
0
30
0
70
128
71
5
72
6
73
-8
0
VERTEX
8
OBJECT035
10
0
20
0
30
0
70
128
71
-5
72
8
73
7
0
VERTEX
8
OBJECT035
10
0
20
0
30
0
70
128
71
1
72
4
73
-7
0
VERTEX
8
OBJECT035
10
0
20
0
30
0
70
128
71
-1
72
7
73
8
0
SEQEND
8
OBJECT035
0
POLYLINE
8
OBJECT036
66
1
70
64
71
8
72
12
62
50
0
VERTEX
8
OBJECT036
10
-29.076889
20
223.234375
30
-3404.000000
70
192
0
VERTEX
8
OBJECT036
10
-29.076889
20
223.234375
30
-3415.511963
70
192
0
VERTEX
8
OBJECT036
10
-29.076889
20
231.232697
30
-3415.582031
70
192
0
VERTEX
8
OBJECT036
10
-29.076889
20
231.232697
30
-3404.000000
70
192
0
VERTEX
8
OBJECT036
10
692.378723
20
231.232697
30
-3415.582520
70
192
0
VERTEX
8
OBJECT036
10
459.563995
20
223.234375
30
-3415.512451
70
192
0
VERTEX
8
OBJECT036
10
459.515076
20
223.232697
30
-3404.000000
70
192
0
VERTEX
8
OBJECT036
10
692.378723
20
231.232697
30
-3404.000000
70
192
0
VERTEX
8
OBJECT036
10
0
20
0
30
0
70
128
71
2
72
3
73
-4
0
VERTEX
8
OBJECT036
10
0
20
0
30
0
70
128
71
-2
72
4
73
1
0
VERTEX
8
OBJECT036
10
0
20
0
30
0
70
128
71
3
72
2
73
-6
0
VERTEX
8
OBJECT036
10
0
20
0
30
0
70
128
71
-3
72
6
73
5
0
VERTEX
8
OBJECT036
10
0
20
0
30
0
70
128
71
6
72
2
73
-1
0
VERTEX
8
OBJECT036
10
0
20
0
30
0
70
128
71
-6
72
1
73
7
0
VERTEX
8
OBJECT036
10
0
20
0
30
0
70
128
71
3
72
5
73
-8
0
VERTEX
8
OBJECT036
10
0
20
0
30
0
70
128
71
-3
72
8
73
4
0
VERTEX
8
OBJECT036
10
0
20
0
30
0
70
128
71
5
72
6
73
-7
0
VERTEX
8
OBJECT036
10
0
20
0
30
0
70
128
71
-5
72
7
73
8
0
VERTEX
8
OBJECT036
10
0
20
0
30
0
70
128
71
1
72
4
73
-8
0
VERTEX
8
OBJECT036
10
0
20
0
30
0
70
128
71
-1
72
8
73
7
0
SEQEND
8
OBJECT036
0
POLYLINE
8
OBJECT037
66
1
70
64
71
8
72
12
62
50
0
VERTEX
8
OBJECT037
10
-29.076889
20
231.232697
30
-3404.000000
70
192
0
VERTEX
8
OBJECT037
10
-29.076889
20
231.232697
30
-3350.804932
70
192
0
VERTEX
8
OBJECT037
10
-29.076889
20
223.234375
30
-3356.694824
70
192
0
VERTEX
8
OBJECT037
10
-29.076889
20
223.234375
30
-3404.000000
70
192
0
VERTEX
8
OBJECT037
10
459.563904
20
223.234375
30
-3356.694336
70
192
0
VERTEX
8
OBJECT037
10
692.378784
20
231.232697
30
-3350.804443
70
192
0
VERTEX
8
OBJECT037
10
459.515076
20
223.232697
30
-3404.000000
70
192
0
VERTEX
8
OBJECT037
10
692.378845
20
231.232697
30
-3404.000000
70
192
0
VERTEX
8
OBJECT037
10
0
20
0
30
0
70
128
71
2
72
3
73
-4
0
VERTEX
8
OBJECT037
10
0
20
0
30
0
70
128
71
-2
72
4
73
1
0
VERTEX
8
OBJECT037
10
0
20
0
30
0
70
128
71
3
72
2
73
-6
0
VERTEX
8
OBJECT037
10
0
20
0
30
0
70
128
71
-3
72
6
73
5
0
VERTEX
8
OBJECT037
10
0
20
0
30
0
70
128
71
3
72
5
73
-7
0
VERTEX
8
OBJECT037
10
0
20
0
30
0
70
128
71
-3
72
7
73
4
0
VERTEX
8
OBJECT037
10
0
20
0
30
0
70
128
71
1
72
8
73
-6
0
VERTEX
8
OBJECT037
10
0
20
0
30
0
70
128
71
-1
72
6
73
2
0
VERTEX
8
OBJECT037
10
0
20
0
30
0
70
128
71
5
72
6
73
-8
0
VERTEX
8
OBJECT037
10
0
20
0
30
0
70
128
71
-5
72
8
73
7
0
VERTEX
8
OBJECT037
10
0
20
0
30
0
70
128
71
1
72
4
73
-7
0
VERTEX
8
OBJECT037
10
0
20
0
30
0
70
128
71
-1
72
7
73
8
0
SEQEND
8
OBJECT037
0
POLYLINE
8
OBJECT038
66
1
70
64
71
8
72
12
62
50
0
VERTEX
8
OBJECT038
10
-29.076889
20
211.234375
30
-3404.000000
70
192
0
VERTEX
8
OBJECT038
10
-29.076889
20
211.234375
30
-3415.405762
70
192
0
VERTEX
8
OBJECT038
10
-29.076889
20
223.232697
30
-3415.510498
70
192
0
VERTEX
8
OBJECT038
10
-29.076889
20
223.232697
30
-3404.000000
70
192
0
VERTEX
8
OBJECT038
10
420.771332
20
223.232697
30
-3415.511230
70
192
0
VERTEX
8
OBJECT038
10
215.332123
20
211.234375
30
-3415.406494
70
192
0
VERTEX
8
OBJECT038
10
215.303375
20
211.232697
30
-3404.000000
70
192
0
VERTEX
8
OBJECT038
10
420.771332
20
223.232697
30
-3404.000000
70
192
0
VERTEX
8
OBJECT038
10
0
20
0
30
0
70
128
71
2
72
3
73
-4
0
VERTEX
8
OBJECT038
10
0
20
0
30
0
70
128
71
-2
72
4
73
1
0
VERTEX
8
OBJECT038
10
0
20
0
30
0
70
128
71
3
72
2
73
-6
0
VERTEX
8
OBJECT038
10
0
20
0
30
0
70
128
71
-3
72
6
73
5
0
VERTEX
8
OBJECT038
10
0
20
0
30
0
70
128
71
6
72
2
73
-1
0
VERTEX
8
OBJECT038
10
0
20
0
30
0
70
128
71
-6
72
1
73
7
0
VERTEX
8
OBJECT038
10
0
20
0
30
0
70
128
71
3
72
5
73
-8
0
VERTEX
8
OBJECT038
10
0
20
0
30
0
70
128
71
-3
72
8
73
4
0
VERTEX
8
OBJECT038
10
0
20
0
30
0
70
128
71
5
72
6
73
-7
0
VERTEX
8
OBJECT038
10
0
20
0
30
0
70
128
71
-5
72
7
73
8
0
VERTEX
8
OBJECT038
10
0
20
0
30
0
70
128
71
1
72
4
73
-8
0
VERTEX
8
OBJECT038
10
0
20
0
30
0
70
128
71
-1
72
8
73
7
0
SEQEND
8
OBJECT038
0
POLYLINE
8
OBJECT039
66
1
70
64
71
10
72
16
62
50
0
VERTEX
8
OBJECT039
10
-29.076889
20
223.232697
30
-3404.000000
70
192
0
VERTEX
8
OBJECT039
10
-29.076889
20
223.232697
30
-3356.697021
70
192
0
VERTEX
8
OBJECT039
10
-29.076889
20
221.923523
30
-3357.661133
70
192
0
VERTEX
8
OBJECT039
10
-29.076889
20
211.232697
30
-3371.658936
70
192
0
VERTEX
8
OBJECT039
10
-29.076889
20
211.232697
30
-3404.000000
70
192
0
VERTEX
8
OBJECT039
10
398.353271
20
221.923401
30
-3357.661377
70
192
0
VERTEX
8
OBJECT039
10
420.771362
20
223.232697
30
-3356.697266
70
192
0
VERTEX
8
OBJECT039
10
215.303391
20
211.232697
30
-3371.658447
70
192
0
VERTEX
8
OBJECT039
10
215.303375
20
211.232697
30
-3404.000000
70
192
0
VERTEX
8
OBJECT039
10
420.771362
20
223.232697
30
-3404.000000
70
192
0
VERTEX
8
OBJECT039
10
0
20
0
30
0
70
128
71
2
72
3
73
-4
0
VERTEX
8
OBJECT039
10
0
20
0
30
0
70
128
71
-2
72
4
73
-5
0
VERTEX
8
OBJECT039
10
0
20
0
30
0
70
128
71
-2
72
5
73
1
0
VERTEX
8
OBJECT039
10
0
20
0
30
0
70
128
71
3
72
2
73
-7
0
VERTEX
8
OBJECT039
10
0
20
0
30
0
70
128
71
-3
72
7
73
6
0
VERTEX
8
OBJECT039
10
0
20
0
30
0
70
128
71
4
72
3
73
-6
0
VERTEX
8
OBJECT039
10
0
20
0
30
0
70
128
71
-4
72
6
73
8
0
VERTEX
8
OBJECT039
10
0
20
0
30
0
70
128
71
4
72
8
73
-9
0
VERTEX
8
OBJECT039
10
0
20
0
30
0
70
128
71
-4
72
9
73
5
0
VERTEX
8
OBJECT039
10
0
20
0
30
0
70
128
71
1
72
10
73
-7
0
VERTEX
8
OBJECT039
10
0
20
0
30
0
70
128
71
-1
72
7
73
2
0
VERTEX
8
OBJECT039
10
0
20
0
30
0
70
128
71
8
72
6
73
-7
0
VERTEX
8
OBJECT039
10
0
20
0
30
0
70
128
71
-8
72
7
73
-10
0
VERTEX
8
OBJECT039
10
0
20
0
30
0
70
128
71
-8
72
10
73
9
0
VERTEX
8
OBJECT039
10
0
20
0
30
0
70
128
71
1
72
5
73
-9
0
VERTEX
8
OBJECT039
10
0
20
0
30
0
70
128
71
-1
72
9
73
10
0
SEQEND
8
OBJECT039
0
POLYLINE
8
OBJECT040
66
1
70
64
71
10
72
16
62
50
0
VERTEX
8
OBJECT040
10
-29.076889
20
211.232697
30
-3428.000000
70
192
0
VERTEX
8
OBJECT040
10
-29.076889
20
211.232697
30
-3460.189941
70
192
0
VERTEX
8
OBJECT040
10
-29.076889
20
220.912994
30
-3473.332275
70
192
0
VERTEX
8
OBJECT040
10
-29.076889
20
223.232697
30
-3475.104004
70
192
0
VERTEX
8
OBJECT040
10
-29.076889
20
223.232697
30
-3428.000000
70
192
0
VERTEX
8
OBJECT040
10
420.772644
20
223.232697
30
-3475.104248
70
192
0
VERTEX
8
OBJECT040
10
381.080017
20
220.914520
30
-3473.333740
70
192
0
VERTEX
8
OBJECT040
10
215.304642
20
211.232697
30
-3460.190918
70
192
0
VERTEX
8
OBJECT040
10
215.306549
20
211.232697
30
-3428.000000
70
192
0
VERTEX
8
OBJECT040
10
420.775452
20
223.232697
30
-3428.000000
70
192
0
VERTEX
8
OBJECT040
10
0
20
0
30
0
70
128
71
2
72
3
73
-4
0
VERTEX
8
OBJECT040
10
0
20
0
30
0
70
128
71
-2
72
4
73
-5
0
VERTEX
8
OBJECT040
10
0
20
0
30
0
70
128
71
-2
72
5
73
1
0
VERTEX
8
OBJECT040
10
0
20
0
30
0
70
128
71
4
72
3
73
-7
0
VERTEX
8
OBJECT040
10
0
20
0
30
0
70
128
71
-4
72
7
73
6
0
VERTEX
8
OBJECT040
10
0
20
0
30
0
70
128
71
3
72
2
73
-8
0
VERTEX
8
OBJECT040
10
0
20
0
30
0
70
128
71
-3
72
8
73
7
0
VERTEX
8
OBJECT040
10
0
20
0
30
0
70
128
71
8
72
2
73
-1
0
VERTEX
8
OBJECT040
10
0
20
0
30
0
70
128
71
-8
72
1
73
9
0
VERTEX
8
OBJECT040
10
0
20
0
30
0
70
128
71
4
72
6
73
-10
0
VERTEX
8
OBJECT040
10
0
20
0
30
0
70
128
71
-4
72
10
73
5
0
VERTEX
8
OBJECT040
10
0
20
0
30
0
70
128
71
6
72
7
73
-8
0
VERTEX
8
OBJECT040
10
0
20
0
30
0
70
128
71
-6
72
8
73
-9
0
VERTEX
8
OBJECT040
10
0
20
0
30
0
70
128
71
-6
72
9
73
10
0
VERTEX
8
OBJECT040
10
0
20
0
30
0
70
128
71
1
72
5
73
-10
0
VERTEX
8
OBJECT040
10
0
20
0
30
0
70
128
71
-1
72
10
73
9
0
SEQEND
8
OBJECT040
0
POLYLINE
8
OBJECT041
66
1
70
64
71
8
72
12
62
50
0
VERTEX
8
OBJECT041
10
-29.076889
20
223.232697
30
-3428.000000
70
192
0
VERTEX
8
OBJECT041
10
-29.076889
20
223.232697
30
-3415.510498
70
192
0
VERTEX
8
OBJECT041
10
-29.076889
20
211.234375
30
-3415.405762
70
192
0
VERTEX
8
OBJECT041
10
-29.076889
20
211.234375
30
-3428.000000
70
192
0
VERTEX
8
OBJECT041
10
215.335602
20
211.234375
30
-3415.406738
70
192
0
VERTEX
8
OBJECT041
10
420.775604
20
223.232697
30
-3415.511475
70
192
0
VERTEX
8
OBJECT041
10
215.306259
20
211.232697
30
-3428.000000
70
192
0
VERTEX
8
OBJECT041
10
420.774963
20
223.232697
30
-3428.000000
70
192
0
VERTEX
8
OBJECT041
10
0
20
0
30
0
70
128
71
2
72
3
73
-4
0
VERTEX
8
OBJECT041
10
0
20
0
30
0
70
128
71
-2
72
4
73
1
0
VERTEX
8
OBJECT041
10
0
20
0
30
0
70
128
71
3
72
2
73
-6
0
VERTEX
8
OBJECT041
10
0
20
0
30
0
70
128
71
-3
72
6
73
5
0
VERTEX
8
OBJECT041
10
0
20
0
30
0
70
128
71
3
72
5
73
-7
0
VERTEX
8
OBJECT041
10
0
20
0
30
0
70
128
71
-3
72
7
73
4
0
VERTEX
8
OBJECT041
10
0
20
0
30
0
70
128
71
1
72
8
73
-6
0
VERTEX
8
OBJECT041
10
0
20
0
30
0
70
128
71
-1
72
6
73
2
0
VERTEX
8
OBJECT041
10
0
20
0
30
0
70
128
71
5
72
6
73
-8
0
VERTEX
8
OBJECT041
10
0
20
0
30
0
70
128
71
-5
72
8
73
7
0
VERTEX
8
OBJECT041
10
0
20
0
30
0
70
128
71
1
72
4
73
-7
0
VERTEX
8
OBJECT041
10
0
20
0
30
0
70
128
71
-1
72
7
73
8
0
SEQEND
8
OBJECT041
0
POLYLINE
8
OBJECT042
66
1
70
64
71
8
72
12
62
50
0
VERTEX
8
OBJECT042
10
-29.076889
20
195.087692
30
-3404.000000
70
192
0
VERTEX
8
OBJECT042
10
-29.076889
20
192.000000
30
-3413.000000
70
192
0
VERTEX
8
OBJECT042
10
-29.076889
20
192.000000
30
-3415.237305
70
192
0
VERTEX
8
OBJECT042
10
-29.076889
20
211.232697
30
-3415.405518
70
192
0
VERTEX
8
OBJECT042
10
-29.076889
20
211.232697
30
-3404.000000
70
192
0
VERTEX
8
OBJECT042
10
5.186932
20
195.088196
30
-3404.000000
70
192
0
VERTEX
8
OBJECT042
10
184.312134
20
211.232697
30
-3415.405518
70
192
0
VERTEX
8
OBJECT042
10
184.312119
20
211.232697
30
-3404.000000
70
192
0
VERTEX
8
OBJECT042
10
0
20
0
30
0
70
128
71
2
72
3
73
-4
0
VERTEX
8
OBJECT042
10
0
20
0
30
0
70
128
71
-2
72
4
73
-5
0
VERTEX
8
OBJECT042
10
0
20
0
30
0
70
128
71
-2
72
5
73
1
0
VERTEX
8
OBJECT042
10
0
20
0
30
0
70
128
71
1
72
6
73
2
0
VERTEX
8
OBJECT042
10
0
20
0
30
0
70
128
71
4
72
3
73
7
0
VERTEX
8
OBJECT042
10
0
20
0
30
0
70
128
71
4
72
7
73
-8
0
VERTEX
8
OBJECT042
10
0
20
0
30
0
70
128
71
-4
72
8
73
5
0
VERTEX
8
OBJECT042
10
0
20
0
30
0
70
128
71
3
72
2
73
-6
0
VERTEX
8
OBJECT042
10
0
20
0
30
0
70
128
71
-3
72
6
73
-8
0
VERTEX
8
OBJECT042
10
0
20
0
30
0
70
128
71
-3
72
8
73
7
0
VERTEX
8
OBJECT042
10
0
20
0
30
0
70
128
71
1
72
5
73
-8
0
VERTEX
8
OBJECT042
10
0
20
0
30
0
70
128
71
-1
72
8
73
6
0
SEQEND
8
OBJECT042
0
POLYLINE
8
OBJECT043
66
1
70
64
71
8
72
12
62
50
0
VERTEX
8
OBJECT043
10
-29.076889
20
211.232697
30
-3371.650391
70
192
0
VERTEX
8
OBJECT043
10
-29.076889
20
202.075592
30
-3383.640137
70
192
0
VERTEX
8
OBJECT043
10
-29.076889
20
195.087769
30
-3404.000000
70
192
0
VERTEX
8
OBJECT043
10
-29.076889
20
211.232697
30
-3404.000000
70
192
0
VERTEX
8
OBJECT043
10
82.678436
20
202.072601
30
-3383.648682
70
192
0
VERTEX
8
OBJECT043
10
184.312119
20
211.232697
30
-3371.655029
70
192
0
VERTEX
8
OBJECT043
10
5.178840
20
195.087677
30
-3404.000000
70
192
0
VERTEX
8
OBJECT043
10
184.312119
20
211.232697
30
-3404.000000
70
192
0
VERTEX
8
OBJECT043
10
0
20
0
30
0
70
128
71
2
72
3
73
-4
0
VERTEX
8
OBJECT043
10
0
20
0
30
0
70
128
71
-2
72
4
73
1
0
VERTEX
8
OBJECT043
10
0
20
0
30
0
70
128
71
2
72
1
73
-6
0
VERTEX
8
OBJECT043
10
0
20
0
30
0
70
128
71
-2
72
6
73
5
0
VERTEX
8
OBJECT043
10
0
20
0
30
0
70
128
71
2
72
5
73
-7
0
VERTEX
8
OBJECT043
10
0
20
0
30
0
70
128
71
-2
72
7
73
3
0
VERTEX
8
OBJECT043
10
0
20
0
30
0
70
128
71
4
72
8
73
-6
0
VERTEX
8
OBJECT043
10
0
20
0
30
0
70
128
71
-4
72
6
73
1
0
VERTEX
8
OBJECT043
10
0
20
0
30
0
70
128
71
5
72
6
73
-8
0
VERTEX
8
OBJECT043
10
0
20
0
30
0
70
128
71
-5
72
8
73
7
0
VERTEX
8
OBJECT043
10
0
20
0
30
0
70
128
71
4
72
3
73
-7
0
VERTEX
8
OBJECT043
10
0
20
0
30
0
70
128
71
-4
72
7
73
8
0
SEQEND
8
OBJECT043
0
POLYLINE
8
OBJECT044
66
1
70
64
71
8
72
12
62
50
0
VERTEX
8
OBJECT044
10
-29.076889
20
195.363754
30
-3428.000000
70
192
0
VERTEX
8
OBJECT044
10
-29.076889
20
201.508530
30
-3446.988525
70
192
0
VERTEX
8
OBJECT044
10
-29.076889
20
211.232697
30
-3460.191162
70
192
0
VERTEX
8
OBJECT044
10
-29.076889
20
211.232697
30
-3428.000000
70
192
0
VERTEX
8
OBJECT044
10
184.312912
20
211.232697
30
-3460.194092
70
192
0
VERTEX
8
OBJECT044
10
76.434990
20
201.509827
30
-3447.000000
70
192
0
VERTEX
8
OBJECT044
10
8.240005
20
195.363510
30
-3428.000000
70
192
0
VERTEX
8
OBJECT044
10
184.313599
20
211.232697
30
-3428.000000
70
192
0
VERTEX
8
OBJECT044
10
0
20
0
30
0
70
128
71
2
72
3
73
-4
0
VERTEX
8
OBJECT044
10
0
20
0
30
0
70
128
71
-2
72
4
73
1
0
VERTEX
8
OBJECT044
10
0
20
0
30
0
70
128
71
3
72
2
73
-6
0
VERTEX
8
OBJECT044
10
0
20
0
30
0
70
128
71
-3
72
6
73
5
0
VERTEX
8
OBJECT044
10
0
20
0
30
0
70
128
71
2
72
1
73
-7
0
VERTEX
8
OBJECT044
10
0
20
0
30
0
70
128
71
-2
72
7
73
6
0
VERTEX
8
OBJECT044
10
0
20
0
30
0
70
128
71
3
72
5
73
-8
0
VERTEX
8
OBJECT044
10
0
20
0
30
0
70
128
71
-3
72
8
73
4
0
VERTEX
8
OBJECT044
10
0
20
0
30
0
70
128
71
5
72
6
73
-7
0
VERTEX
8
OBJECT044
10
0
20
0
30
0
70
128
71
-5
72
7
73
8
0
VERTEX
8
OBJECT044
10
0
20
0
30
0
70
128
71
1
72
4
73
-8
0
VERTEX
8
OBJECT044
10
0
20
0
30
0
70
128
71
-1
72
8
73
7
0
SEQEND
8
OBJECT044
0
POLYLINE
8
OBJECT045
66
1
70
64
71
8
72
12
62
50
0
VERTEX
8
OBJECT045
10
-29.076889
20
192.000000
30
-3417.607910
70
192
0
VERTEX
8
OBJECT045
10
-29.076889
20
195.363846
30
-3428.000000
70
192
0
VERTEX
8
OBJECT045
10
-29.076889
20
211.232697
30
-3428.000000
70
192
0
VERTEX
8
OBJECT045
10
-29.076889
20
211.232697
30
-3415.405762
70
192
0
VERTEX
8
OBJECT045
10
-29.076889
20
192.000000
30
-3415.237549
70
192
0
VERTEX
8
OBJECT045
10
8.241846
20
195.363678
30
-3428.000000
70
192
0
VERTEX
8
OBJECT045
10
184.302933
20
211.232697
30
-3415.406250
70
192
0
VERTEX
8
OBJECT045
10
184.302917
20
211.232697
30
-3428.000000
70
192
0
VERTEX
8
OBJECT045
10
0
20
0
30
0
70
128
71
2
72
3
73
-4
0
VERTEX
8
OBJECT045
10
0
20
0
30
0
70
128
71
-2
72
4
73
-5
0
VERTEX
8
OBJECT045
10
0
20
0
30
0
70
128
71
-2
72
5
73
1
0
VERTEX
8
OBJECT045
10
0
20
0
30
0
70
128
71
1
72
6
73
2
0
VERTEX
8
OBJECT045
10
0
20
0
30
0
70
128
71
4
72
7
73
5
0
VERTEX
8
OBJECT045
10
0
20
0
30
0
70
128
71
3
72
8
73
-7
0
VERTEX
8
OBJECT045
10
0
20
0
30
0
70
128
71
-3
72
7
73
4
0
VERTEX
8
OBJECT045
10
0
20
0
30
0
70
128
71
1
72
5
73
-7
0
VERTEX
8
OBJECT045
10
0
20
0
30
0
70
128
71
-1
72
7
73
-8
0
VERTEX
8
OBJECT045
10
0
20
0
30
0
70
128
71
-1
72
8
73
6
0
VERTEX
8
OBJECT045
10
0
20
0
30
0
70
128
71
3
72
2
73
-6
0
VERTEX
8
OBJECT045
10
0
20
0
30
0
70
128
71
-3
72
6
73
8
0
SEQEND
8
OBJECT045
0
POLYLINE
8
OBJECT046
66
1
70
64
71
8
72
12
62
50
0
VERTEX
8
OBJECT046
10
-29.076889
20
231.232697
30
-3428.000000
70
192
0
VERTEX
8
OBJECT046
10
-29.076889
20
231.232697
30
-3481.215088
70
192
0
VERTEX
8
OBJECT046
10
-29.076889
20
239.234375
30
-3487.326172
70
192
0
VERTEX
8
OBJECT046
10
-29.076889
20
239.234375
30
-3428.000000
70
192
0
VERTEX
8
OBJECT046
10
780.601440
20
239.234375
30
-3487.325928
70
192
0
VERTEX
8
OBJECT046
10
653.184631
20
231.232697
30
-3481.214844
70
192
0
VERTEX
8
OBJECT046
10
780.574768
20
239.232697
30
-3428.000000
70
192
0
VERTEX
8
OBJECT046
10
653.184631
20
231.232697
30
-3428.000000
70
192
0
VERTEX
8
OBJECT046
10
0
20
0
30
0
70
128
71
2
72
3
73
-4
0
VERTEX
8
OBJECT046
10
0
20
0
30
0
70
128
71
-2
72
4
73
1
0
VERTEX
8
OBJECT046
10
0
20
0
30
0
70
128
71
3
72
2
73
-6
0
VERTEX
8
OBJECT046
10
0
20
0
30
0
70
128
71
-3
72
6
73
5
0
VERTEX
8
OBJECT046
10
0
20
0
30
0
70
128
71
3
72
5
73
-7
0
VERTEX
8
OBJECT046
10
0
20
0
30
0
70
128
71
-3
72
7
73
4
0
VERTEX
8
OBJECT046
10
0
20
0
30
0
70
128
71
6
72
2
73
-1
0
VERTEX
8
OBJECT046
10
0
20
0
30
0
70
128
71
-6
72
1
73
8
0
VERTEX
8
OBJECT046
10
0
20
0
30
0
70
128
71
5
72
6
73
-8
0
VERTEX
8
OBJECT046
10
0
20
0
30
0
70
128
71
-5
72
8
73
7
0
VERTEX
8
OBJECT046
10
0
20
0
30
0
70
128
71
1
72
4
73
-7
0
VERTEX
8
OBJECT046
10
0
20
0
30
0
70
128
71
-1
72
7
73
8
0
SEQEND
8
OBJECT046
0
POLYLINE
8
OBJECT047
66
1
70
64
71
8
72
12
62
50
0
VERTEX
8
OBJECT047
10
-29.076889
20
239.234375
30
-3428.000000
70
192
0
VERTEX
8
OBJECT047
10
-29.076889
20
239.234375
30
-3415.652100
70
192
0
VERTEX
8
OBJECT047
10
-29.076889
20
231.232697
30
-3415.582031
70
192
0
VERTEX
8
OBJECT047
10
-29.076889
20
231.232697
30
-3428.000000
70
192
0
VERTEX
8
OBJECT047
10
653.184631
20
231.232697
30
-3415.582764
70
192
0
VERTEX
8
OBJECT047
10
780.601440
20
239.234375
30
-3415.652832
70
192
0
VERTEX
8
OBJECT047
10
780.574768
20
239.232697
30
-3428.000000
70
192
0
VERTEX
8
OBJECT047
10
653.184631
20
231.232697
30
-3428.000000
70
192
0
VERTEX
8
OBJECT047
10
0
20
0
30
0
70
128
71
2
72
3
73
-4
0
VERTEX
8
OBJECT047
10
0
20
0
30
0
70
128
71
-2
72
4
73
1
0
VERTEX
8
OBJECT047
10
0
20
0
30
0
70
128
71
3
72
2
73
-6
0
VERTEX
8
OBJECT047
10
0
20
0
30
0
70
128
71
-3
72
6
73
5
0
VERTEX
8
OBJECT047
10
0
20
0
30
0
70
128
71
1
72
7
73
-6
0
VERTEX
8
OBJECT047
10
0
20
0
30
0
70
128
71
-1
72
6
73
2
0
VERTEX
8
OBJECT047
10
0
20
0
30
0
70
128
71
3
72
5
73
-8
0
VERTEX
8
OBJECT047
10
0
20
0
30
0
70
128
71
-3
72
8
73
4
0
VERTEX
8
OBJECT047
10
0
20
0
30
0
70
128
71
5
72
6
73
-7
0
VERTEX
8
OBJECT047
10
0
20
0
30
0
70
128
71
-5
72
7
73
8
0
VERTEX
8
OBJECT047
10
0
20
0
30
0
70
128
71
1
72
4
73
-8
0
VERTEX
8
OBJECT047
10
0
20
0
30
0
70
128
71
-1
72
8
73
7
0
SEQEND
8
OBJECT047
0
POLYLINE
8
OBJECT048
66
1
70
64
71
8
72
12
62
50
0
VERTEX
8
OBJECT048
10
-29.076889
20
231.232697
30
-3404.000000
70
192
0
VERTEX
8
OBJECT048
10
-29.076889
20
231.232697
30
-3415.581055
70
192
0
VERTEX
8
OBJECT048
10
-29.076889
20
239.234375
30
-3415.650879
70
192
0
VERTEX
8
OBJECT048
10
-29.076889
20
239.234375
30
-3404.000000
70
192
0
VERTEX
8
OBJECT048
10
780.601440
20
239.234375
30
-3415.651367
70
192
0
VERTEX
8
OBJECT048
10
653.184631
20
231.232697
30
-3415.581543
70
192
0
VERTEX
8
OBJECT048
10
780.574768
20
239.232697
30
-3404.000000
70
192
0
VERTEX
8
OBJECT048
10
653.184631
20
231.232697
30
-3404.000000
70
192
0
VERTEX
8
OBJECT048
10
0
20
0
30
0
70
128
71
2
72
3
73
-4
0
VERTEX
8
OBJECT048
10
0
20
0
30
0
70
128
71
-2
72
4
73
1
0
VERTEX
8
OBJECT048
10
0
20
0
30
0
70
128
71
3
72
2
73
-6
0
VERTEX
8
OBJECT048
10
0
20
0
30
0
70
128
71
-3
72
6
73
5
0
VERTEX
8
OBJECT048
10
0
20
0
30
0
70
128
71
3
72
5
73
-7
0
VERTEX
8
OBJECT048
10
0
20
0
30
0
70
128
71
-3
72
7
73
4
0
VERTEX
8
OBJECT048
10
0
20
0
30
0
70
128
71
6
72
2
73
-1
0
VERTEX
8
OBJECT048
10
0
20
0
30
0
70
128
71
-6
72
1
73
8
0
VERTEX
8
OBJECT048
10
0
20
0
30
0
70
128
71
5
72
6
73
-8
0
VERTEX
8
OBJECT048
10
0
20
0
30
0
70
128
71
-5
72
8
73
7
0
VERTEX
8
OBJECT048
10
0
20
0
30
0
70
128
71
1
72
4
73
-7
0
VERTEX
8
OBJECT048
10
0
20
0
30
0
70
128
71
-1
72
7
73
8
0
SEQEND
8
OBJECT048
0
POLYLINE
8
OBJECT049
66
1
70
64
71
8
72
12
62
50
0
VERTEX
8
OBJECT049
10
-29.076889
20
239.234375
30
-3404.000000
70
192
0
VERTEX
8
OBJECT049
10
-29.076889
20
239.234375
30
-3344.911377
70
192
0
VERTEX
8
OBJECT049
10
-29.076889
20
231.232697
30
-3350.803955
70
192
0
VERTEX
8
OBJECT049
10
-29.076889
20
231.232697
30
-3404.000000
70
192
0
VERTEX
8
OBJECT049
10
653.184631
20
231.232697
30
-3350.804688
70
192
0
VERTEX
8
OBJECT049
10
780.601440
20
239.234375
30
-3344.912109
70
192
0
VERTEX
8
OBJECT049
10
780.574768
20
239.232697
30
-3404.000000
70
192
0
VERTEX
8
OBJECT049
10
653.184631
20
231.232697
30
-3404.000000
70
192
0
VERTEX
8
OBJECT049
10
0
20
0
30
0
70
128
71
2
72
3
73
-4
0
VERTEX
8
OBJECT049
10
0
20
0
30
0
70
128
71
-2
72
4
73
1
0
VERTEX
8
OBJECT049
10
0
20
0
30
0
70
128
71
3
72
2
73
-6
0
VERTEX
8
OBJECT049
10
0
20
0
30
0
70
128
71
-3
72
6
73
5
0
VERTEX
8
OBJECT049
10
0
20
0
30
0
70
128
71
1
72
7
73
-6
0
VERTEX
8
OBJECT049
10
0
20
0
30
0
70
128
71
-1
72
6
73
2
0
VERTEX
8
OBJECT049
10
0
20
0
30
0
70
128
71
3
72
5
73
-8
0
VERTEX
8
OBJECT049
10
0
20
0
30
0
70
128
71
-3
72
8
73
4
0
VERTEX
8
OBJECT049
10
0
20
0
30
0
70
128
71
5
72
6
73
-7
0
VERTEX
8
OBJECT049
10
0
20
0
30
0
70
128
71
-5
72
7
73
8
0
VERTEX
8
OBJECT049
10
0
20
0
30
0
70
128
71
1
72
4
73
-8
0
VERTEX
8
OBJECT049
10
0
20
0
30
0
70
128
71
-1
72
8
73
7
0
SEQEND
8
OBJECT049
0
POLYLINE
8
OBJECT050
66
1
70
64
71
12
72
20
62
50
0
VERTEX
8
OBJECT050
10
-29.076889
20
268.000000
30
-3331.882324
70
192
0
VERTEX
8
OBJECT050
10
-29.076889
20
267.232697
30
-3332.130615
70
192
0
VERTEX
8
OBJECT050
10
-29.076889
20
267.232697
30
-3404.000000
70
192
0
VERTEX
8
OBJECT050
10
-29.076889
20
268.000000
30
-3404.000000
70
192
0
VERTEX
8
OBJECT050
10
1022.919189
20
267.232697
30
-3404.000000
70
192
0
VERTEX
8
OBJECT050
10
1022.919189
20
267.232697
30
-3344.000000
70
192
0
VERTEX
8
OBJECT050
10
1022.919189
20
268.000000
30
-3344.000000
70
192
0
VERTEX
8
OBJECT050
10
1022.919189
20
268.000000
30
-3404.000000
70
192
0
VERTEX
8
OBJECT050
10
825.423340
20
268.000000
30
-3331.883057
70
192
0
VERTEX
8
OBJECT050
10
829.611450
20
267.232697
30
-3332.131348
70
192
0
VERTEX
8
OBJECT050
10
1011.262024
20
268.000000
30
-3343.189941
70
192
0
VERTEX
8
OBJECT050
10
1010.505676
20
267.232697
30
-3343.137451
70
192
0
VERTEX
8
OBJECT050
10
0
20
0
30
0
70
128
71
2
72
3
73
-4
0
VERTEX
8
OBJECT050
10
0
20
0
30
0
70
128
71
-2
72
4
73
1
0
VERTEX
8
OBJECT050
10
0
20
0
30
0
70
128
71
6
72
7
73
-8
0
VERTEX
8
OBJECT050
10
0
20
0
30
0
70
128
71
-6
72
8
73
5
0
VERTEX
8
OBJECT050
10
0
20
0
30
0
70
128
71
1
72
9
73
-10
0
VERTEX
8
OBJECT050
10
0
20
0
30
0
70
128
71
-1
72
10
73
2
0
VERTEX
8
OBJECT050
10
0
20
0
30
0
70
128
71
12
72
10
73
-9
0
VERTEX
8
OBJECT050
10
0
20
0
30
0
70
128
71
-12
72
9
73
11
0
VERTEX
8
OBJECT050
10
0
20
0
30
0
70
128
71
6
72
12
73
-11
0
VERTEX
8
OBJECT050
10
0
20
0
30
0
70
128
71
-6
72
11
73
7
0
VERTEX
8
OBJECT050
10
0
20
0
30
0
70
128
71
5
72
3
73
-2
0
VERTEX
8
OBJECT050
10
0
20
0
30
0
70
128
71
-5
72
2
73
-10
0
VERTEX
8
OBJECT050
10
0
20
0
30
0
70
128
71
-5
72
10
73
-12
0
VERTEX
8
OBJECT050
10
0
20
0
30
0
70
128
71
-5
72
12
73
6
0
VERTEX
8
OBJECT050
10
0
20
0
30
0
70
128
71
3
72
5
73
-8
0
VERTEX
8
OBJECT050
10
0
20
0
30
0
70
128
71
-3
72
8
73
4
0
VERTEX
8
OBJECT050
10
0
20
0
30
0
70
128
71
4
72
8
73
-7
0
VERTEX
8
OBJECT050
10
0
20
0
30
0
70
128
71
-4
72
7
73
-11
0
VERTEX
8
OBJECT050
10
0
20
0
30
0
70
128
71
-4
72
11
73
-9
0
VERTEX
8
OBJECT050
10
0
20
0
30
0
70
128
71
-4
72
9
73
1
0
SEQEND
8
OBJECT050
0
POLYLINE
8
OBJECT051
66
1
70
64
71
11
72
18
62
50
0
VERTEX
8
OBJECT051
10
-29.076889
20
279.337219
30
-3404.000000
70
192
0
VERTEX
8
OBJECT051
10
-29.076889
20
280.000000
30
-3328.000000
70
192
0
VERTEX
8
OBJECT051
10
-29.076889
20
268.000000
30
-3331.882324
70
192
0
VERTEX
8
OBJECT051
10
-29.076889
20
268.000000
30
-3404.000000
70
192
0
VERTEX
8
OBJECT051
10
1022.919189
20
268.000000
30
-3344.000000
70
192
0
VERTEX
8
OBJECT051
10
1022.919189
20
279.860413
30
-3344.000000
70
192
0
VERTEX
8
OBJECT051
10
1022.919189
20
279.337219
30
-3404.000000
70
192
0
VERTEX
8
OBJECT051
10
1022.919189
20
268.000000
30
-3404.000000
70
192
0
VERTEX
8
OBJECT051
10
759.932007
20
280.000000
30
-3328.000000
70
192
0
VERTEX
8
OBJECT051
10
825.417847
20
268.000000
30
-3331.882568
70
192
0
VERTEX
8
OBJECT051
10
1011.290405
20
268.000000
30
-3343.191895
70
192
0
VERTEX
8
OBJECT051
10
0
20
0
30
0
70
128
71
2
72
3
73
-4
0
VERTEX
8
OBJECT051
10
0
20
0
30
0
70
128
71
-2
72
4
73
1
0
VERTEX
8
OBJECT051
10
0
20
0
30
0
70
128
71
6
72
7
73
-8
0
VERTEX
8
OBJECT051
10
0
20
0
30
0
70
128
71
-6
72
8
73
5
0
VERTEX
8
OBJECT051
10
0
20
0
30
0
70
128
71
2
72
9
73
-10
0
VERTEX
8
OBJECT051
10
0
20
0
30
0
70
128
71
-2
72
10
73
3
0
VERTEX
8
OBJECT051
10
0
20
0
30
0
70
128
71
1
72
7
73
-6
0
VERTEX
8
OBJECT051
10
0
20
0
30
0
70
128
71
-1
72
6
73
-9
0
VERTEX
8
OBJECT051
10
0
20
0
30
0
70
128
71
-1
72
9
73
2
0
VERTEX
8
OBJECT051
10
0
20
0
30
0
70
128
71
11
72
10
73
-9
0
VERTEX
8
OBJECT051
10
0
20
0
30
0
70
128
71
-11
72
9
73
6
0
VERTEX
8
OBJECT051
10
0
20
0
30
0
70
128
71
5
72
11
73
6
0
VERTEX
8
OBJECT051
10
0
20
0
30
0
70
128
71
4
72
8
73
-7
0
VERTEX
8
OBJECT051
10
0
20
0
30
0
70
128
71
-4
72
7
73
1
0
VERTEX
8
OBJECT051
10
0
20
0
30
0
70
128
71
8
72
4
73
-3
0
VERTEX
8
OBJECT051
10
0
20
0
30
0
70
128
71
-8
72
3
73
-10
0
VERTEX
8
OBJECT051
10
0
20
0
30
0
70
128
71
-8
72
10
73
-11
0
VERTEX
8
OBJECT051
10
0
20
0
30
0
70
128
71
-8
72
11
73
5
0
SEQEND
8
OBJECT051
0
POLYLINE
8
OBJECT052
66
1
70
64
71
10
72
16
62
50
0
VERTEX
8
OBJECT052
10
-28.929033
20
292.000000
30
-3331.854980
70
192
0
VERTEX
8
OBJECT052
10
-28.929033
20
280.766968
30
-3328.000000
70
192
0
VERTEX
8
OBJECT052
10
-28.929033
20
280.104584
30
-3404.000000
70
192
0
VERTEX
8
OBJECT052
10
-28.929033
20
292.000000
30
-3404.000000
70
192
0
VERTEX
8
OBJECT052
10
1023.067078
20
280.104584
30
-3404.000000
70
192
0
VERTEX
8
OBJECT052
10
1023.067078
20
280.627502
30
-3344.000000
70
192
0
VERTEX
8
OBJECT052
10
1023.067078
20
292.000000
30
-3344.101807
70
192
0
VERTEX
8
OBJECT052
10
1023.067078
20
292.000000
30
-3404.000000
70
192
0
VERTEX
8
OBJECT052
10
821.794922
20
292.000000
30
-3331.855713
70
192
0
VERTEX
8
OBJECT052
10
760.071045
20
280.766968
30
-3328.000000
70
192
0
VERTEX
8
OBJECT052
10
0
20
0
30
0
70
128
71
2
72
3
73
-4
0
VERTEX
8
OBJECT052
10
0
20
0
30
0
70
128
71
-2
72
4
73
1
0
VERTEX
8
OBJECT052
10
0
20
0
30
0
70
128
71
6
72
7
73
-8
0
VERTEX
8
OBJECT052
10
0
20
0
30
0
70
128
71
-6
72
8
73
5
0
VERTEX
8
OBJECT052
10
0
20
0
30
0
70
128
71
1
72
9
73
-10
0
VERTEX
8
OBJECT052
10
0
20
0
30
0
70
128
71
-1
72
10
73
2
0
VERTEX
8
OBJECT052
10
0
20
0
30
0
70
128
71
5
72
3
73
-2
0
VERTEX
8
OBJECT052
10
0
20
0
30
0
70
128
71
-5
72
2
73
-10
0
VERTEX
8
OBJECT052
10
0
20
0
30
0
70
128
71
-5
72
10
73
6
0
VERTEX
8
OBJECT052
10
0
20
0
30
0
70
128
71
9
72
7
73
-6
0
VERTEX
8
OBJECT052
10
0
20
0
30
0
70
128
71
-9
72
6
73
10
0
VERTEX
8
OBJECT052
10
0
20
0
30
0
70
128
71
3
72
5
73
-8
0
VERTEX
8
OBJECT052
10
0
20
0
30
0
70
128
71
-3
72
8
73
4
0
VERTEX
8
OBJECT052
10
0
20
0
30
0
70
128
71
4
72
8
73
-7
0
VERTEX
8
OBJECT052
10
0
20
0
30
0
70
128
71
-4
72
7
73
-9
0
VERTEX
8
OBJECT052
10
0
20
0
30
0
70
128
71
-4
72
9
73
1
0
SEQEND
8
OBJECT052
0
POLYLINE
8
OBJECT053
66
1
70
64
71
18
72
32
62
50
0
VERTEX
8
OBJECT053
10
-28.929033
20
363.866455
30
-3404.000000
70
192
0
VERTEX
8
OBJECT053
10
-28.929033
20
357.714600
30
-3385.000000
70
192
0
VERTEX
8
OBJECT053
10
-28.929033
20
338.319519
30
-3358.667480
70
192
0
VERTEX
8
OBJECT053
10
-28.929033
20
312.363037
30
-3338.843506
70
192
0
VERTEX
8
OBJECT053
10
-28.929033
20
292.000000
30
-3331.854980
70
192
0
VERTEX
8
OBJECT053
10
-28.929033
20
292.000000
30
-3404.000000
70
192
0
VERTEX
8
OBJECT053
10
1023.067078
20
292.000000
30
-3344.101807
70
192
0
VERTEX
8
OBJECT053
10
1023.067078
20
298.669983
30
-3344.161133
70
192
0
VERTEX
8
OBJECT053
10
1023.067078
20
352.162689
30
-3397.653564
70
192
0
VERTEX
8
OBJECT053
10
1023.067078
20
352.108276
30
-3404.000000
70
192
0
VERTEX
8
OBJECT053
10
1023.067078
20
292.000000
30
-3404.000000
70
192
0
VERTEX
8
OBJECT053
10
730.850647
20
338.323914
30
-3358.674316
70
192
0
VERTEX
8
OBJECT053
10
802.166199
20
312.354797
30
-3338.840820
70
192
0
VERTEX
8
OBJECT053
10
811.468445
20
357.715424
30
-3385.000000
70
192
0
VERTEX
8
OBJECT053
10
878.618774
20
302.341309
30
-3335.404785
70
192
0
VERTEX
8
OBJECT053
10
821.794922
20
292.000000
30
-3331.855713
70
192
0
VERTEX
8
OBJECT053
10
829.796204
20
363.866943
30
-3404.000000
70
192
0
VERTEX
8
OBJECT053
10
883.506592
20
360.683502
30
-3394.167480
70
192
0
VERTEX
8
OBJECT053
10
0
20
0
30
0
70
128
71
2
72
3
73
-4
0
VERTEX
8
OBJECT053
10
0
20
0
30
0
70
128
71
-2
72
4
73
-5
0
VERTEX
8
OBJECT053
10
0
20
0
30
0
70
128
71
-2
72
5
73
-6
0
VERTEX
8
OBJECT053
10
0
20
0
30
0
70
128
71
-2
72
6
73
1
0
VERTEX
8
OBJECT053
10
0
20
0
30
0
70
128
71
8
72
9
73
-10
0
VERTEX
8
OBJECT053
10
0
20
0
30
0
70
128
71
-8
72
10
73
-11
0
VERTEX
8
OBJECT053
10
0
20
0
30
0
70
128
71
-8
72
11
73
7
0
VERTEX
8
OBJECT053
10
0
20
0
30
0
70
128
71
3
72
12
73
-13
0
VERTEX
8
OBJECT053
10
0
20
0
30
0
70
128
71
-3
72
13
73
4
0
VERTEX
8
OBJECT053
10
0
20
0
30
0
70
128
71
2
72
14
73
-12
0
VERTEX
8
OBJECT053
10
0
20
0
30
0
70
128
71
-2
72
12
73
3
0
VERTEX
8
OBJECT053
10
0
20
0
30
0
70
128
71
4
72
13
73
-15
0
VERTEX
8
OBJECT053
10
0
20
0
30
0
70
128
71
-4
72
15
73
-16
0
VERTEX
8
OBJECT053
10
0
20
0
30
0
70
128
71
-4
72
16
73
5
0
VERTEX
8
OBJECT053
10
0
20
0
30
0
70
128
71
1
72
17
73
-18
0
VERTEX
8
OBJECT053
10
0
20
0
30
0
70
128
71
-1
72
18
73
-14
0
VERTEX
8
OBJECT053
10
0
20
0
30
0
70
128
71
-1
72
14
73
2
0
VERTEX
8
OBJECT053
10
0
20
0
30
0
70
128
71
9
72
18
73
-17
0
VERTEX
8
OBJECT053
10
0
20
0
30
0
70
128
71
-9
72
17
73
10
0
VERTEX
8
OBJECT053
10
0
20
0
30
0
70
128
71
15
72
8
73
-7
0
VERTEX
8
OBJECT053
10
0
20
0
30
0
70
128
71
-15
72
7
73
16
0
VERTEX
8
OBJECT053
10
0
20
0
30
0
70
128
71
8
72
15
73
-13
0
VERTEX
8
OBJECT053
10
0
20
0
30
0
70
128
71
-8
72
13
73
-12
0
VERTEX
8
OBJECT053
10
0
20
0
30
0
70
128
71
-8
72
12
73
-14
0
VERTEX
8
OBJECT053
10
0
20
0
30
0
70
128
71
-8
72
14
73
-18
0
VERTEX
8
OBJECT053
10
0
20
0
30
0
70
128
71
-8
72
18
73
9
0
VERTEX
8
OBJECT053
10
0
20
0
30
0
70
128
71
6
72
11
73
-10
0
VERTEX
8
OBJECT053
10
0
20
0
30
0
70
128
71
-6
72
10
73
-17
0
VERTEX
8
OBJECT053
10
0
20
0
30
0
70
128
71
-6
72
17
73
1
0
VERTEX
8
OBJECT053
10
0
20
0
30
0
70
128
71
11
72
6
73
-5
0
VERTEX
8
OBJECT053
10
0
20
0
30
0
70
128
71
-11
72
5
73
-16
0
VERTEX
8
OBJECT053
10
0
20
0
30
0
70
128
71
-11
72
16
73
7
0
SEQEND
8
OBJECT053
0
POLYLINE
8
OBJECT054
66
1
70
64
71
10
72
16
62
50
0
VERTEX
8
OBJECT054
10
-28.929033
20
368.000000
30
-3416.767578
70
192
0
VERTEX
8
OBJECT054
10
-28.929033
20
363.865662
30
-3404.000000
70
192
0
VERTEX
8
OBJECT054
10
-28.929033
20
292.000000
30
-3404.000000
70
192
0
VERTEX
8
OBJECT054
10
-28.929033
20
292.000000
30
-3416.104736
70
192
0
VERTEX
8
OBJECT054
10
1023.067078
20
352.108276
30
-3404.000000
70
192
0
VERTEX
8
OBJECT054
10
1023.067078
20
352.000000
30
-3416.627930
70
192
0
VERTEX
8
OBJECT054
10
1023.067078
20
292.000000
30
-3416.104736
70
192
0
VERTEX
8
OBJECT054
10
1023.067078
20
292.000000
30
-3404.000000
70
192
0
VERTEX
8
OBJECT054
10
760.066589
20
368.000000
30
-3416.767578
70
192
0
VERTEX
8
OBJECT054
10
829.804932
20
363.866425
30
-3404.000000
70
192
0
VERTEX
8
OBJECT054
10
0
20
0
30
0
70
128
71
2
72
3
73
-4
0
VERTEX
8
OBJECT054
10
0
20
0
30
0
70
128
71
-2
72
4
73
1
0
VERTEX
8
OBJECT054
10
0
20
0
30
0
70
128
71
6
72
7
73
-8
0
VERTEX
8
OBJECT054
10
0
20
0
30
0
70
128
71
-6
72
8
73
5
0
VERTEX
8
OBJECT054
10
0
20
0
30
0
70
128
71
1
72
9
73
-10
0
VERTEX
8
OBJECT054
10
0
20
0
30
0
70
128
71
-1
72
10
73
2
0
VERTEX
8
OBJECT054
10
0
20
0
30
0
70
128
71
4
72
7
73
-6
0
VERTEX
8
OBJECT054
10
0
20
0
30
0
70
128
71
-4
72
6
73
-9
0
VERTEX
8
OBJECT054
10
0
20
0
30
0
70
128
71
-4
72
9
73
1
0
VERTEX
8
OBJECT054
10
0
20
0
30
0
70
128
71
5
72
10
73
-9
0
VERTEX
8
OBJECT054
10
0
20
0
30
0
70
128
71
-5
72
9
73
6
0
VERTEX
8
OBJECT054
10
0
20
0
30
0
70
128
71
2
72
10
73
-5
0
VERTEX
8
OBJECT054
10
0
20
0
30
0
70
128
71
-2
72
5
73
-8
0
VERTEX
8
OBJECT054
10
0
20
0
30
0
70
128
71
-2
72
8
73
3
0
VERTEX
8
OBJECT054
10
0
20
0
30
0
70
128
71
7
72
4
73
-3
0
VERTEX
8
OBJECT054
10
0
20
0
30
0
70
128
71
-7
72
3
73
8
0
SEQEND
8
OBJECT054
0
POLYLINE
8
OBJECT055
66
1
70
64
71
10
72
16
62
50
0
VERTEX
8
OBJECT055
10
-28.929033
20
292.000000
30
-3428.000000
70
192
0
VERTEX
8
OBJECT055
10
-28.929033
20
364.146423
30
-3428.000000
70
192
0
VERTEX
8
OBJECT055
10
-28.929033
20
368.000000
30
-3416.771484
70
192
0
VERTEX
8
OBJECT055
10
-28.929033
20
292.000000
30
-3416.105225
70
192
0
VERTEX
8
OBJECT055
10
1023.067078
20
292.000000
30
-3416.105225
70
192
0
VERTEX
8
OBJECT055
10
1023.067078
20
352.000000
30
-3416.631348
70
192
0
VERTEX
8
OBJECT055
10
1023.067078
20
351.900818
30
-3428.000000
70
192
0
VERTEX
8
OBJECT055
10
1023.067078
20
292.000000
30
-3428.000000
70
192
0
VERTEX
8
OBJECT055
10
821.793701
20
364.144836
30
-3428.000000
70
192
0
VERTEX
8
OBJECT055
10
760.110229
20
368.000000
30
-3416.771484
70
192
0
VERTEX
8
OBJECT055
10
0
20
0
30
0
70
128
71
2
72
3
73
-4
0
VERTEX
8
OBJECT055
10
0
20
0
30
0
70
128
71
-2
72
4
73
1
0
VERTEX
8
OBJECT055
10
0
20
0
30
0
70
128
71
6
72
7
73
-8
0
VERTEX
8
OBJECT055
10
0
20
0
30
0
70
128
71
-6
72
8
73
5
0
VERTEX
8
OBJECT055
10
0
20
0
30
0
70
128
71
2
72
9
73
-10
0
VERTEX
8
OBJECT055
10
0
20
0
30
0
70
128
71
-2
72
10
73
3
0
VERTEX
8
OBJECT055
10
0
20
0
30
0
70
128
71
3
72
10
73
-6
0
VERTEX
8
OBJECT055
10
0
20
0
30
0
70
128
71
-3
72
6
73
-5
0
VERTEX
8
OBJECT055
10
0
20
0
30
0
70
128
71
-3
72
5
73
4
0
VERTEX
8
OBJECT055
10
0
20
0
30
0
70
128
71
9
72
7
73
-6
0
VERTEX
8
OBJECT055
10
0
20
0
30
0
70
128
71
-9
72
6
73
10
0
VERTEX
8
OBJECT055
10
0
20
0
30
0
70
128
71
1
72
8
73
-7
0
VERTEX
8
OBJECT055
10
0
20
0
30
0
70
128
71
-1
72
7
73
-9
0
VERTEX
8
OBJECT055
10
0
20
0
30
0
70
128
71
-1
72
9
73
2
0
VERTEX
8
OBJECT055
10
0
20
0
30
0
70
128
71
8
72
1
73
-4
0
VERTEX
8
OBJECT055
10
0
20
0
30
0
70
128
71
-8
72
4
73
5
0
SEQEND
8
OBJECT055
0
POLYLINE
8
OBJECT056
66
1
70
64
71
18
72
32
62
50
0
VERTEX
8
OBJECT056
10
-28.929033
20
292.000000
30
-3499.868408
70
192
0
VERTEX
8
OBJECT056
10
-28.929033
20
311.000000
30
-3493.722900
70
192
0
VERTEX
8
OBJECT056
10
-28.929033
20
337.311707
30
-3474.338623
70
192
0
VERTEX
8
OBJECT056
10
-28.929033
20
357.161774
30
-3448.348633
70
192
0
VERTEX
8
OBJECT056
10
-28.929033
20
364.146729
30
-3428.000000
70
192
0
VERTEX
8
OBJECT056
10
-28.929033
20
292.000000
30
-3428.000000
70
192
0
VERTEX
8
OBJECT056
10
1023.067078
20
351.900818
30
-3428.000000
70
192
0
VERTEX
8
OBJECT056
10
1023.067078
20
351.841553
30
-3434.598877
70
192
0
VERTEX
8
OBJECT056
10
1023.067078
20
298.324371
30
-3488.162354
70
192
0
VERTEX
8
OBJECT056
10
1023.067078
20
292.000000
30
-3488.108154
70
192
0
VERTEX
8
OBJECT056
10
1023.067078
20
292.000000
30
-3428.000000
70
192
0
VERTEX
8
OBJECT056
10
811.537598
20
311.000000
30
-3493.722412
70
192
0
VERTEX
8
OBJECT056
10
730.877991
20
337.310181
30
-3474.340332
70
192
0
VERTEX
8
OBJECT056
10
801.871704
20
357.161438
30
-3448.349609
70
192
0
VERTEX
8
OBJECT056
10
829.793396
20
292.000000
30
-3499.867676
70
192
0
VERTEX
8
OBJECT056
10
883.482788
20
301.835693
30
-3496.685303
70
192
0
VERTEX
8
OBJECT056
10
878.365417
20
360.610901
30
-3438.300537
70
192
0
VERTEX
8
OBJECT056
10
821.763245
20
364.146698
30
-3428.000000
70
192
0
VERTEX
8
OBJECT056
10
0
20
0
30
0
70
128
71
2
72
3
73
-4
0
VERTEX
8
OBJECT056
10
0
20
0
30
0
70
128
71
-2
72
4
73
-5
0
VERTEX
8
OBJECT056
10
0
20
0
30
0
70
128
71
-2
72
5
73
-6
0
VERTEX
8
OBJECT056
10
0
20
0
30
0
70
128
71
-2
72
6
73
1
0
VERTEX
8
OBJECT056
10
0
20
0
30
0
70
128
71
8
72
9
73
-10
0
VERTEX
8
OBJECT056
10
0
20
0
30
0
70
128
71
-8
72
10
73
-11
0
VERTEX
8
OBJECT056
10
0
20
0
30
0
70
128
71
-8
72
11
73
7
0
VERTEX
8
OBJECT056
10
0
20
0
30
0
70
128
71
2
72
12
73
-13
0
VERTEX
8
OBJECT056
10
0
20
0
30
0
70
128
71
-2
72
13
73
3
0
VERTEX
8
OBJECT056
10
0
20
0
30
0
70
128
71
3
72
13
73
-14
0
VERTEX
8
OBJECT056
10
0
20
0
30
0
70
128
71
-3
72
14
73
4
0
VERTEX
8
OBJECT056
10
0
20
0
30
0
70
128
71
1
72
15
73
-16
0
VERTEX
8
OBJECT056
10
0
20
0
30
0
70
128
71
-1
72
16
73
-12
0
VERTEX
8
OBJECT056
10
0
20
0
30
0
70
128
71
-1
72
12
73
2
0
VERTEX
8
OBJECT056
10
0
20
0
30
0
70
128
71
4
72
14
73
-17
0
VERTEX
8
OBJECT056
10
0
20
0
30
0
70
128
71
-4
72
17
73
-18
0
VERTEX
8
OBJECT056
10
0
20
0
30
0
70
128
71
-4
72
18
73
5
0
VERTEX
8
OBJECT056
10
0
20
0
30
0
70
128
71
17
72
8
73
-7
0
VERTEX
8
OBJECT056
10
0
20
0
30
0
70
128
71
-17
72
7
73
18
0
VERTEX
8
OBJECT056
10
0
20
0
30
0
70
128
71
9
72
16
73
-15
0
VERTEX
8
OBJECT056
10
0
20
0
30
0
70
128
71
-9
72
15
73
10
0
VERTEX
8
OBJECT056
10
0
20
0
30
0
70
128
71
12
72
16
73
-9
0
VERTEX
8
OBJECT056
10
0
20
0
30
0
70
128
71
-12
72
9
73
-8
0
VERTEX
8
OBJECT056
10
0
20
0
30
0
70
128
71
-12
72
8
73
-17
0
VERTEX
8
OBJECT056
10
0
20
0
30
0
70
128
71
-12
72
17
73
-14
0
VERTEX
8
OBJECT056
10
0
20
0
30
0
70
128
71
-12
72
14
73
13
0
VERTEX
8
OBJECT056
10
0
20
0
30
0
70
128
71
5
72
18
73
-7
0
VERTEX
8
OBJECT056
10
0
20
0
30
0
70
128
71
-5
72
7
73
-11
0
VERTEX
8
OBJECT056
10
0
20
0
30
0
70
128
71
-5
72
11
73
6
0
VERTEX
8
OBJECT056
10
0
20
0
30
0
70
128
71
10
72
15
73
-1
0
VERTEX
8
OBJECT056
10
0
20
0
30
0
70
128
71
-10
72
1
73
-6
0
VERTEX
8
OBJECT056
10
0
20
0
30
0
70
128
71
-10
72
6
73
11
0
SEQEND
8
OBJECT056
0
POLYLINE
8
OBJECT057
66
1
70
64
71
10
72
16
62
50
0
VERTEX
8
OBJECT057
10
-28.929033
20
279.895325
30
-3428.000000
70
192
0
VERTEX
8
OBJECT057
10
-28.929033
20
279.231415
30
-3504.000000
70
192
0
VERTEX
8
OBJECT057
10
-28.929033
20
292.000000
30
-3499.868408
70
192
0
VERTEX
8
OBJECT057
10
-28.929033
20
292.000000
30
-3428.000000
70
192
0
VERTEX
8
OBJECT057
10
1023.067078
20
292.000000
30
-3488.108154
70
192
0
VERTEX
8
OBJECT057
10
1023.067078
20
279.371063
30
-3488.000000
70
192
0
VERTEX
8
OBJECT057
10
1023.067078
20
279.895203
30
-3428.000000
70
192
0
VERTEX
8
OBJECT057
10
1023.067078
20
292.000000
30
-3428.000000
70
192
0
VERTEX
8
OBJECT057
10
760.094116
20
279.231323
30
-3504.000000
70
192
0
VERTEX
8
OBJECT057
10
829.793396
20
292.000000
30
-3499.867676
70
192
0
VERTEX
8
OBJECT057
10
0
20
0
30
0
70
128
71
2
72
3
73
-4
0
VERTEX
8
OBJECT057
10
0
20
0
30
0
70
128
71
-2
72
4
73
1
0
VERTEX
8
OBJECT057
10
0
20
0
30
0
70
128
71
6
72
7
73
-8
0
VERTEX
8
OBJECT057
10
0
20
0
30
0
70
128
71
-6
72
8
73
5
0
VERTEX
8
OBJECT057
10
0
20
0
30
0
70
128
71
2
72
9
73
-10
0
VERTEX
8
OBJECT057
10
0
20
0
30
0
70
128
71
-2
72
10
73
3
0
VERTEX
8
OBJECT057
10
0
20
0
30
0
70
128
71
6
72
9
73
-2
0
VERTEX
8
OBJECT057
10
0
20
0
30
0
70
128
71
-6
72
2
73
-1
0
VERTEX
8
OBJECT057
10
0
20
0
30
0
70
128
71
-6
72
1
73
7
0
VERTEX
8
OBJECT057
10
0
20
0
30
0
70
128
71
5
72
10
73
-9
0
VERTEX
8
OBJECT057
10
0
20
0
30
0
70
128
71
-5
72
9
73
6
0
VERTEX
8
OBJECT057
10
0
20
0
30
0
70
128
71
4
72
8
73
-7
0
VERTEX
8
OBJECT057
10
0
20
0
30
0
70
128
71
-4
72
7
73
1
0
VERTEX
8
OBJECT057
10
0
20
0
30
0
70
128
71
3
72
10
73
-5
0
VERTEX
8
OBJECT057
10
0
20
0
30
0
70
128
71
-3
72
5
73
-8
0
VERTEX
8
OBJECT057
10
0
20
0
30
0
70
128
71
-3
72
8
73
4
0
SEQEND
8
OBJECT057
0
POLYLINE
8
OBJECT058
66
1
70
64
71
10
72
16
62
50
0
VERTEX
8
OBJECT058
10
-29.076889
20
268.000000
30
-3428.000000
70
192
0
VERTEX
8
OBJECT058
10
-29.076889
20
268.000000
30
-3500.409912
70
192
0
VERTEX
8
OBJECT058
10
-29.076889
20
278.463104
30
-3504.000000
70
192
0
VERTEX
8
OBJECT058
10
-29.076889
20
279.126770
30
-3428.000000
70
192
0
VERTEX
8
OBJECT058
10
1022.919189
20
279.126770
30
-3428.000000
70
192
0
VERTEX
8
OBJECT058
10
1022.919189
20
278.602966
30
-3487.983398
70
192
0
VERTEX
8
OBJECT058
10
1022.919189
20
268.000000
30
-3487.894775
70
192
0
VERTEX
8
OBJECT058
10
1022.919189
20
268.000000
30
-3428.000000
70
192
0
VERTEX
8
OBJECT058
10
817.409668
20
268.000000
30
-3500.410156
70
192
0
VERTEX
8
OBJECT058
10
759.883423
20
278.465118
30
-3504.000000
70
192
0
VERTEX
8
OBJECT058
10
0
20
0
30
0
70
128
71
2
72
3
73
-4
0
VERTEX
8
OBJECT058
10
0
20
0
30
0
70
128
71
-2
72
4
73
1
0
VERTEX
8
OBJECT058
10
0
20
0
30
0
70
128
71
6
72
7
73
-8
0
VERTEX
8
OBJECT058
10
0
20
0
30
0
70
128
71
-6
72
8
73
5
0
VERTEX
8
OBJECT058
10
0
20
0
30
0
70
128
71
2
72
9
73
-10
0
VERTEX
8
OBJECT058
10
0
20
0
30
0
70
128
71
-2
72
10
73
3
0
VERTEX
8
OBJECT058
10
0
20
0
30
0
70
128
71
3
72
10
73
-6
0
VERTEX
8
OBJECT058
10
0
20
0
30
0
70
128
71
-3
72
6
73
-5
0
VERTEX
8
OBJECT058
10
0
20
0
30
0
70
128
71
-3
72
5
73
4
0
VERTEX
8
OBJECT058
10
0
20
0
30
0
70
128
71
9
72
7
73
-6
0
VERTEX
8
OBJECT058
10
0
20
0
30
0
70
128
71
-9
72
6
73
10
0
VERTEX
8
OBJECT058
10
0
20
0
30
0
70
128
71
7
72
9
73
-2
0
VERTEX
8
OBJECT058
10
0
20
0
30
0
70
128
71
-7
72
2
73
-1
0
VERTEX
8
OBJECT058
10
0
20
0
30
0
70
128
71
-7
72
1
73
8
0
VERTEX
8
OBJECT058
10
0
20
0
30
0
70
128
71
4
72
5
73
-8
0
VERTEX
8
OBJECT058
10
0
20
0
30
0
70
128
71
-4
72
8
73
1
0
SEQEND
8
OBJECT058
0
POLYLINE
8
OBJECT059
66
1
70
64
71
8
72
12
62
50
0
VERTEX
8
OBJECT059
10
-1.076904
20
283.849152
30
-3428.000244
70
192
0
VERTEX
8
OBJECT059
10
-1.076904
20
283.998413
30
-3412.130615
70
192
0
VERTEX
8
OBJECT059
10
-1.076904
20
268.000000
30
-3412.001465
70
192
0
VERTEX
8
OBJECT059
10
-1.076904
20
268.000000
30
-3428.000244
70
192
0
VERTEX
8
OBJECT059
10
1022.923096
20
283.998413
30
-3412.130615
70
192
0
VERTEX
8
OBJECT059
10
1022.923096
20
283.849152
30
-3428.000244
70
192
0
VERTEX
8
OBJECT059
10
1022.923096
20
268.000000
30
-3428.000244
70
192
0
VERTEX
8
OBJECT059
10
1022.923096
20
268.000000
30
-3412.001465
70
192
0
VERTEX
8
OBJECT059
10
0
20
0
30
0
70
128
71
2
72
3
73
-4
0
VERTEX
8
OBJECT059
10
0
20
0
30
0
70
128
71
-2
72
4
73
1
0
VERTEX
8
OBJECT059
10
0
20
0
30
0
70
128
71
6
72
7
73
-8
0
VERTEX
8
OBJECT059
10
0
20
0
30
0
70
128
71
-6
72
8
73
5
0
VERTEX
8
OBJECT059
10
0
20
0
30
0
70
128
71
1
72
6
73
-5
0
VERTEX
8
OBJECT059
10
0
20
0
30
0
70
128
71
-1
72
5
73
2
0
VERTEX
8
OBJECT059
10
0
20
0
30
0
70
128
71
2
72
5
73
-8
0
VERTEX
8
OBJECT059
10
0
20
0
30
0
70
128
71
-2
72
8
73
3
0
VERTEX
8
OBJECT059
10
0
20
0
30
0
70
128
71
7
72
4
73
-3
0
VERTEX
8
OBJECT059
10
0
20
0
30
0
70
128
71
-7
72
3
73
8
0
VERTEX
8
OBJECT059
10
0
20
0
30
0
70
128
71
4
72
7
73
-6
0
VERTEX
8
OBJECT059
10
0
20
0
30
0
70
128
71
-4
72
6
73
1
0
SEQEND
8
OBJECT059
0
POLYLINE
8
OBJECT060
66
1
70
64
71
8
72
12
62
50
0
VERTEX
8
OBJECT060
10
-0.932983
20
292.000000
30
-3404.000000
70
192
0
VERTEX
8
OBJECT060
10
-0.932983
20
276.140076
30
-3404.000000
70
192
0
VERTEX
8
OBJECT060
10
-0.932983
20
276.000000
30
-3419.861816
70
192
0
VERTEX
8
OBJECT060
10
-0.932983
20
292.000000
30
-3420.000244
70
192
0
VERTEX
8
OBJECT060
10
1023.067017
20
292.000000
30
-3420.000244
70
192
0
VERTEX
8
OBJECT060
10
1023.067017
20
276.000000
30
-3419.861816
70
192
0
VERTEX
8
OBJECT060
10
1023.067017
20
276.140076
30
-3404.000000
70
192
0
VERTEX
8
OBJECT060
10
1023.067017
20
292.000000
30
-3404.000000
70
192
0
VERTEX
8
OBJECT060
10
0
20
0
30
0
70
128
71
2
72
3
73
-4
0
VERTEX
8
OBJECT060
10
0
20
0
30
0
70
128
71
-2
72
4
73
1
0
VERTEX
8
OBJECT060
10
0
20
0
30
0
70
128
71
6
72
7
73
-8
0
VERTEX
8
OBJECT060
10
0
20
0
30
0
70
128
71
-6
72
8
73
5
0
VERTEX
8
OBJECT060
10
0
20
0
30
0
70
128
71
6
72
3
73
-2
0
VERTEX
8
OBJECT060
10
0
20
0
30
0
70
128
71
-6
72
2
73
7
0
VERTEX
8
OBJECT060
10
0
20
0
30
0
70
128
71
3
72
6
73
-5
0
VERTEX
8
OBJECT060
10
0
20
0
30
0
70
128
71
-3
72
5
73
4
0
VERTEX
8
OBJECT060
10
0
20
0
30
0
70
128
71
1
72
8
73
-7
0
VERTEX
8
OBJECT060
10
0
20
0
30
0
70
128
71
-1
72
7
73
2
0
VERTEX
8
OBJECT060
10
0
20
0
30
0
70
128
71
4
72
5
73
-8
0
VERTEX
8
OBJECT060
10
0
20
0
30
0
70
128
71
-4
72
8
73
1
0
SEQEND
8
OBJECT060
0
POLYLINE
8
OBJECT061
66
1
70
64
71
8
72
12
62
50
0
VERTEX
8
OBJECT061
10
-1.076904
20
268.000000
30
-3419.867432
70
192
0
VERTEX
8
OBJECT061
10
-1.076904
20
283.852417
30
-3419.999756
70
192
0
VERTEX
8
OBJECT061
10
-1.076904
20
284.000000
30
-3403.999756
70
192
0
VERTEX
8
OBJECT061
10
-1.076904
20
268.000000
30
-3403.999756
70
192
0
VERTEX
8
OBJECT061
10
1022.923096
20
284.000000
30
-3403.999756
70
192
0
VERTEX
8
OBJECT061
10
1022.923096
20
283.852417
30
-3419.999756
70
192
0
VERTEX
8
OBJECT061
10
1022.923096
20
268.000000
30
-3419.867432
70
192
0
VERTEX
8
OBJECT061
10
1022.923096
20
268.000000
30
-3403.999756
70
192
0
VERTEX
8
OBJECT061
10
0
20
0
30
0
70
128
71
2
72
3
73
-4
0
VERTEX
8
OBJECT061
10
0
20
0
30
0
70
128
71
-2
72
4
73
1
0
VERTEX
8
OBJECT061
10
0
20
0
30
0
70
128
71
6
72
7
73
-8
0
VERTEX
8
OBJECT061
10
0
20
0
30
0
70
128
71
-6
72
8
73
5
0
VERTEX
8
OBJECT061
10
0
20
0
30
0
70
128
71
2
72
6
73
-5
0
VERTEX
8
OBJECT061
10
0
20
0
30
0
70
128
71
-2
72
5
73
3
0
VERTEX
8
OBJECT061
10
0
20
0
30
0
70
128
71
1
72
7
73
-6
0
VERTEX
8
OBJECT061
10
0
20
0
30
0
70
128
71
-1
72
6
73
2
0
VERTEX
8
OBJECT061
10
0
20
0
30
0
70
128
71
3
72
5
73
-8
0
VERTEX
8
OBJECT061
10
0
20
0
30
0
70
128
71
-3
72
8
73
4
0
VERTEX
8
OBJECT061
10
0
20
0
30
0
70
128
71
7
72
1
73
-4
0
VERTEX
8
OBJECT061
10
0
20
0
30
0
70
128
71
-7
72
4
73
8
0
SEQEND
8
OBJECT061
0
POLYLINE
8
OBJECT062
66
1
70
64
71
8
72
12
62
50
0
VERTEX
8
OBJECT062
10
-0.932983
20
276.138550
30
-3411.999756
70
192
0
VERTEX
8
OBJECT062
10
-0.932983
20
276.000580
30
-3427.999756
70
192
0
VERTEX
8
OBJECT062
10
-0.932983
20
292.000000
30
-3427.999756
70
192
0
VERTEX
8
OBJECT062
10
-0.932983
20
292.000000
30
-3412.140137
70
192
0
VERTEX
8
OBJECT062
10
1023.067017
20
276.000580
30
-3427.999756
70
192
0
VERTEX
8
OBJECT062
10
1023.067017
20
276.138550
30
-3411.999756
70
192
0
VERTEX
8
OBJECT062
10
1023.067017
20
292.000000
30
-3412.140137
70
192
0
VERTEX
8
OBJECT062
10
1023.067017
20
292.000000
30
-3427.999756
70
192
0
VERTEX
8
OBJECT062
10
0
20
0
30
0
70
128
71
2
72
3
73
-4
0
VERTEX
8
OBJECT062
10
0
20
0
30
0
70
128
71
-2
72
4
73
1
0
VERTEX
8
OBJECT062
10
0
20
0
30
0
70
128
71
6
72
7
73
-8
0
VERTEX
8
OBJECT062
10
0
20
0
30
0
70
128
71
-6
72
8
73
5
0
VERTEX
8
OBJECT062
10
0
20
0
30
0
70
128
71
5
72
2
73
-1
0
VERTEX
8
OBJECT062
10
0
20
0
30
0
70
128
71
-5
72
1
73
6
0
VERTEX
8
OBJECT062
10
0
20
0
30
0
70
128
71
4
72
7
73
-6
0
VERTEX
8
OBJECT062
10
0
20
0
30
0
70
128
71
-4
72
6
73
1
0
VERTEX
8
OBJECT062
10
0
20
0
30
0
70
128
71
2
72
5
73
-8
0
VERTEX
8
OBJECT062
10
0
20
0
30
0
70
128
71
-2
72
8
73
3
0
VERTEX
8
OBJECT062
10
0
20
0
30
0
70
128
71
3
72
8
73
-7
0
VERTEX
8
OBJECT062
10
0
20
0
30
0
70
128
71
-3
72
7
73
4
0
SEQEND
8
OBJECT062
0
POLYLINE
8
OBJECT063
66
1
70
64
71
7
72
10
62
50
0
VERTEX
8
OBJECT063
10
1023.066895
20
280.627106
30
-3344.000000
70
192
0
VERTEX
8
OBJECT063
10
1023.066895
20
292.000000
30
-3344.000000
70
192
0
VERTEX
8
OBJECT063
10
1023.066895
20
292.000000
30
-3344.103516
70
192
0
VERTEX
8
OBJECT063
10
799.132690
20
280.767426
30
-3328.000000
70
192
0
VERTEX
8
OBJECT063
10
767.098328
20
280.767426
30
-3328.000000
70
192
0
VERTEX
8
OBJECT063
10
827.149536
20
292.000000
30
-3331.856201
70
192
0
VERTEX
8
OBJECT063
10
853.080750
20
292.000000
30
-3331.856201
70
192
0
VERTEX
8
OBJECT063
10
0
20
0
30
0
70
128
71
2
72
3
73
1
0
VERTEX
8
OBJECT063
10
0
20
0
30
0
70
128
71
5
72
6
73
-7
0
VERTEX
8
OBJECT063
10
0
20
0
30
0
70
128
71
-5
72
7
73
4
0
VERTEX
8
OBJECT063
10
0
20
0
30
0
70
128
71
5
72
4
73
1
0
VERTEX
8
OBJECT063
10
0
20
0
30
0
70
128
71
3
72
6
73
-5
0
VERTEX
8
OBJECT063
10
0
20
0
30
0
70
128
71
-3
72
5
73
1
0
VERTEX
8
OBJECT063
10
0
20
0
30
0
70
128
71
7
72
2
73
-1
0
VERTEX
8
OBJECT063
10
0
20
0
30
0
70
128
71
-7
72
1
73
4
0
VERTEX
8
OBJECT063
10
0
20
0
30
0
70
128
71
2
72
7
73
-6
0
VERTEX
8
OBJECT063
10
0
20
0
30
0
70
128
71
-2
72
6
73
3
0
SEQEND
8
OBJECT063
0
POLYLINE
8
OBJECT064
66
1
70
64
71
6
72
8
62
50
0
VERTEX
8
OBJECT064
10
830.713928
20
268.000000
30
-3331.885254
70
192
0
VERTEX
8
OBJECT064
10
766.951294
20
280.000000
30
-3328.000000
70
192
0
VERTEX
8
OBJECT064
10
798.923096
20
280.000000
30
-3328.000000
70
192
0
VERTEX
8
OBJECT064
10
853.307800
20
268.000000
30
-3331.885254
70
192
0
VERTEX
8
OBJECT064
10
1024.000000
20
279.857849
30
-3344.069092
70
192
0
VERTEX
8
OBJECT064
10
1012.401123
20
268.000000
30
-3343.243408
70
192
0
VERTEX
8
OBJECT064
10
0
20
0
30
0
70
128
71
2
72
3
73
-4
0
VERTEX
8
OBJECT064
10
0
20
0
30
0
70
128
71
-2
72
4
73
1
0
VERTEX
8
OBJECT064
10
0
20
0
30
0
70
128
71
2
72
5
73
3
0
VERTEX
8
OBJECT064
10
0
20
0
30
0
70
128
71
2
72
1
73
-6
0
VERTEX
8
OBJECT064
10
0
20
0
30
0
70
128
71
-2
72
6
73
5
0
VERTEX
8
OBJECT064
10
0
20
0
30
0
70
128
71
3
72
5
73
-6
0
VERTEX
8
OBJECT064
10
0
20
0
30
0
70
128
71
-3
72
6
73
4
0
VERTEX
8
OBJECT064
10
0
20
0
30
0
70
128
71
1
72
4
73
6
0
SEQEND
8
OBJECT064
0
POLYLINE
8
OBJECT065
66
1
70
64
71
8
72
12
62
50
0
VERTEX
8
OBJECT065
10
1023.066895
20
292.000000
30
-3344.000000
70
192
0
VERTEX
8
OBJECT065
10
1023.066895
20
298.505829
30
-3344.000000
70
192
0
VERTEX
8
OBJECT065
10
1023.066895
20
298.669800
30
-3344.164063
70
192
0
VERTEX
8
OBJECT065
10
1023.066895
20
292.000000
30
-3344.103516
70
192
0
VERTEX
8
OBJECT065
10
827.149536
20
292.000000
30
-3331.856201
70
192
0
VERTEX
8
OBJECT065
10
882.442383
20
302.342529
30
-3335.406738
70
192
0
VERTEX
8
OBJECT065
10
894.780151
20
300.682251
30
-3334.836670
70
192
0
VERTEX
8
OBJECT065
10
853.080750
20
292.000000
30
-3331.856201
70
192
0
VERTEX
8
OBJECT065
10
0
20
0
30
0
70
128
71
2
72
3
73
-4
0
VERTEX
8
OBJECT065
10
0
20
0
30
0
70
128
71
-2
72
4
73
1
0
VERTEX
8
OBJECT065
10
0
20
0
30
0
70
128
71
6
72
7
73
-8
0
VERTEX
8
OBJECT065
10
0
20
0
30
0
70
128
71
-6
72
8
73
5
0
VERTEX
8
OBJECT065
10
0
20
0
30
0
70
128
71
3
72
6
73
-5
0
VERTEX
8
OBJECT065
10
0
20
0
30
0
70
128
71
-3
72
5
73
4
0
VERTEX
8
OBJECT065
10
0
20
0
30
0
70
128
71
2
72
7
73
-6
0
VERTEX
8
OBJECT065
10
0
20
0
30
0
70
128
71
-2
72
6
73
3
0
VERTEX
8
OBJECT065
10
0
20
0
30
0
70
128
71
7
72
2
73
-1
0
VERTEX
8
OBJECT065
10
0
20
0
30
0
70
128
71
-7
72
1
73
8
0
VERTEX
8
OBJECT065
10
0
20
0
30
0
70
128
71
4
72
5
73
-8
0
VERTEX
8
OBJECT065
10
0
20
0
30
0
70
128
71
-4
72
8
73
1
0
SEQEND
8
OBJECT065
0
POLYLINE
8
OBJECT066
66
1
70
64
71
6
72
8
62
50
0
VERTEX
8
OBJECT066
10
834.788025
20
267.232697
30
-3332.133301
70
192
0
VERTEX
8
OBJECT066
10
830.710144
20
268.000000
30
-3331.885010
70
192
0
VERTEX
8
OBJECT066
10
853.302917
20
268.000000
30
-3331.885010
70
192
0
VERTEX
8
OBJECT066
10
856.780212
20
267.232697
30
-3332.133301
70
192
0
VERTEX
8
OBJECT066
10
1011.653015
20
267.232697
30
-3343.190186
70
192
0
VERTEX
8
OBJECT066
10
1012.404663
20
268.000000
30
-3343.243896
70
192
0
VERTEX
8
OBJECT066
10
0
20
0
30
0
70
128
71
2
72
3
73
-4
0
VERTEX
8
OBJECT066
10
0
20
0
30
0
70
128
71
-2
72
4
73
1
0
VERTEX
8
OBJECT066
10
0
20
0
30
0
70
128
71
1
72
5
73
-6
0
VERTEX
8
OBJECT066
10
0
20
0
30
0
70
128
71
-1
72
6
73
2
0
VERTEX
8
OBJECT066
10
0
20
0
30
0
70
128
71
5
72
4
73
-3
0
VERTEX
8
OBJECT066
10
0
20
0
30
0
70
128
71
-5
72
3
73
6
0
VERTEX
8
OBJECT066
10
0
20
0
30
0
70
128
71
1
72
4
73
5
0
VERTEX
8
OBJECT066
10
0
20
0
30
0
70
128
71
2
72
6
73
3
0
SEQEND
8
OBJECT066
0
POLYLINE
8
OBJECT067
66
1
70
64
71
8
72
12
62
50
0
VERTEX
8
OBJECT067
10
-1.076904
20
267.234375
30
-3404.000000
70
192
0
VERTEX
8
OBJECT067
10
-1.076904
20
267.234375
30
-3415.895264
70
192
0
VERTEX
8
OBJECT067
10
-1.076904
20
268.000000
30
-3415.901855
70
192
0
VERTEX
8
OBJECT067
10
-1.076904
20
268.000000
30
-3404.000000
70
192
0
VERTEX
8
OBJECT067
10
1022.923096
20
268.000000
30
-3415.901855
70
192
0
VERTEX
8
OBJECT067
10
1022.923096
20
267.234375
30
-3415.895264
70
192
0
VERTEX
8
OBJECT067
10
1022.923096
20
267.234375
30
-3404.000000
70
192
0
VERTEX
8
OBJECT067
10
1022.923096
20
268.000000
30
-3404.000000
70
192
0
VERTEX
8
OBJECT067
10
0
20
0
30
0
70
128
71
2
72
3
73
-4
0
VERTEX
8
OBJECT067
10
0
20
0
30
0
70
128
71
-2
72
4
73
1
0
VERTEX
8
OBJECT067
10
0
20
0
30
0
70
128
71
6
72
7
73
-8
0
VERTEX
8
OBJECT067
10
0
20
0
30
0
70
128
71
-6
72
8
73
5
0
VERTEX
8
OBJECT067
10
0
20
0
30
0
70
128
71
2
72
6
73
-5
0
VERTEX
8
OBJECT067
10
0
20
0
30
0
70
128
71
-2
72
5
73
3
0
VERTEX
8
OBJECT067
10
0
20
0
30
0
70
128
71
6
72
2
73
-1
0
VERTEX
8
OBJECT067
10
0
20
0
30
0
70
128
71
-6
72
1
73
7
0
VERTEX
8
OBJECT067
10
0
20
0
30
0
70
128
71
4
72
8
73
-7
0
VERTEX
8
OBJECT067
10
0
20
0
30
0
70
128
71
-4
72
7
73
1
0
VERTEX
8
OBJECT067
10
0
20
0
30
0
70
128
71
3
72
5
73
-8
0
VERTEX
8
OBJECT067
10
0
20
0
30
0
70
128
71
-3
72
8
73
4
0
SEQEND
8
OBJECT067
0
POLYLINE
8
OBJECT068
66
1
70
64
71
8
72
12
62
50
0
VERTEX
8
OBJECT068
10
-1.076904
20
268.000000
30
-3428.000000
70
192
0
VERTEX
8
OBJECT068
10
-1.076904
20
268.000000
30
-3415.902832
70
192
0
VERTEX
8
OBJECT068
10
-1.076904
20
267.234375
30
-3415.896240
70
192
0
VERTEX
8
OBJECT068
10
-1.076904
20
267.234375
30
-3428.000000
70
192
0
VERTEX
8
OBJECT068
10
1022.923096
20
267.234375
30
-3428.000000
70
192
0
VERTEX
8
OBJECT068
10
1022.923096
20
267.234375
30
-3415.896240
70
192
0
VERTEX
8
OBJECT068
10
1022.923096
20
268.000000
30
-3415.902832
70
192
0
VERTEX
8
OBJECT068
10
1022.923096
20
268.000000
30
-3428.000000
70
192
0
VERTEX
8
OBJECT068
10
0
20
0
30
0
70
128
71
2
72
3
73
-4
0
VERTEX
8
OBJECT068
10
0
20
0
30
0
70
128
71
-2
72
4
73
1
0
VERTEX
8
OBJECT068
10
0
20
0
30
0
70
128
71
6
72
7
73
-8
0
VERTEX
8
OBJECT068
10
0
20
0
30
0
70
128
71
-6
72
8
73
5
0
VERTEX
8
OBJECT068
10
0
20
0
30
0
70
128
71
2
72
7
73
-6
0
VERTEX
8
OBJECT068
10
0
20
0
30
0
70
128
71
-2
72
6
73
3
0
VERTEX
8
OBJECT068
10
0
20
0
30
0
70
128
71
5
72
4
73
-3
0
VERTEX
8
OBJECT068
10
0
20
0
30
0
70
128
71
-5
72
3
73
6
0
VERTEX
8
OBJECT068
10
0
20
0
30
0
70
128
71
1
72
8
73
-7
0
VERTEX
8
OBJECT068
10
0
20
0
30
0
70
128
71
-1
72
7
73
2
0
VERTEX
8
OBJECT068
10
0
20
0
30
0
70
128
71
4
72
5
73
-8
0
VERTEX
8
OBJECT068
10
0
20
0
30
0
70
128
71
-4
72
8
73
1
0
SEQEND
8
OBJECT068
0
POLYLINE
8
OBJECT069
66
1
70
64
71
10
72
16
62
50
0
VERTEX
8
OBJECT069
10
-1.076904
20
267.232697
30
-3428.000000
70
192
0
VERTEX
8
OBJECT069
10
-1.076904
20
267.232697
30
-3500.145996
70
192
0
VERTEX
8
OBJECT069
10
-1.076904
20
268.000000
30
-3500.409180
70
192
0
VERTEX
8
OBJECT069
10
-1.076904
20
268.000000
30
-3428.000000
70
192
0
VERTEX
8
OBJECT069
10
1022.923096
20
268.000000
30
-3428.000000
70
192
0
VERTEX
8
OBJECT069
10
1022.923096
20
268.000000
30
-3487.894287
70
192
0
VERTEX
8
OBJECT069
10
1022.923096
20
267.232697
30
-3487.887939
70
192
0
VERTEX
8
OBJECT069
10
1022.923096
20
267.232697
30
-3428.000000
70
192
0
VERTEX
8
OBJECT069
10
826.987732
20
267.232697
30
-3500.146729
70
192
0
VERTEX
8
OBJECT069
10
822.883606
20
268.000000
30
-3500.409912
70
192
0
VERTEX
8
OBJECT069
10
0
20
0
30
0
70
128
71
2
72
3
73
-4
0
VERTEX
8
OBJECT069
10
0
20
0
30
0
70
128
71
-2
72
4
73
1
0
VERTEX
8
OBJECT069
10
0
20
0
30
0
70
128
71
6
72
7
73
-8
0
VERTEX
8
OBJECT069
10
0
20
0
30
0
70
128
71
-6
72
8
73
5
0
VERTEX
8
OBJECT069
10
0
20
0
30
0
70
128
71
2
72
9
73
-10
0
VERTEX
8
OBJECT069
10
0
20
0
30
0
70
128
71
-2
72
10
73
3
0
VERTEX
8
OBJECT069
10
0
20
0
30
0
70
128
71
9
72
7
73
-6
0
VERTEX
8
OBJECT069
10
0
20
0
30
0
70
128
71
-9
72
6
73
10
0
VERTEX
8
OBJECT069
10
0
20
0
30
0
70
128
71
7
72
9
73
-2
0
VERTEX
8
OBJECT069
10
0
20
0
30
0
70
128
71
-7
72
2
73
-1
0
VERTEX
8
OBJECT069
10
0
20
0
30
0
70
128
71
-7
72
1
73
8
0
VERTEX
8
OBJECT069
10
0
20
0
30
0
70
128
71
3
72
10
73
-6
0
VERTEX
8
OBJECT069
10
0
20
0
30
0
70
128
71
-3
72
6
73
-5
0
VERTEX
8
OBJECT069
10
0
20
0
30
0
70
128
71
-3
72
5
73
4
0
VERTEX
8
OBJECT069
10
0
20
0
30
0
70
128
71
4
72
5
73
-8
0
VERTEX
8
OBJECT069
10
0
20
0
30
0
70
128
71
-4
72
8
73
1
0
SEQEND
8
OBJECT069
0
ENDSEC
0
EOF
