0
SECTION
2
HEADER
9
$ACADVER
1
AC1008
9
$UCSORG
10
0.0
20
0.0
30
0.0
9
$UCSXDIR
10
1.0
20
0.0
30
0.0
9
$TILEMODE
70
1
9
$UCSYDIR
10
0.0
20
1.0
30
0.0
9
$EXTMIN
10
132.000000
20
1278.000000
30
-87.000000
9
$EXTMAX
10
1092.000000
20
1746.000000
30
362.000000
0
ENDSEC
0
SECTION
2
TABLES
0
TABLE
2
LTYPE
70
1
0
LTYPE
2
CONTINUOUS
70
64
3
Solid line
72
65
73
0
40
0.0
0
ENDTAB
0
TABLE
2
LAYER
70
1
0
LAYER
2
0
70
0
62
7
6
CONTINUOUS
0
ENDTAB
0
TABLE
2
STYLE
70
1
0
STYLE
2
STANDARD
70
0
40
0.0
41
1.0
50
0.0
71
0
42
0.2
3
txt
4

0
ENDTAB
0
TABLE
2
UCS
70
0
0
ENDTAB
0
ENDSEC
0
SECTION
2
ENTITIES
0
POLYLINE
8
OBJECT000
66
1
70
64
71
12
72
20
62
50
0
VERTEX
8
OBJECT000
10
1068.000000
20
1600.000000
30
12.000000
70
192
0
VERTEX
8
OBJECT000
10
880.000000
20
1600.000000
30
12.000000
70
192
0
VERTEX
8
OBJECT000
10
880.000000
20
1472.000000
30
12.000000
70
192
0
VERTEX
8
OBJECT000
10
1068.000000
20
1472.000000
30
12.000000
70
192
0
VERTEX
8
OBJECT000
10
1092.000000
20
1496.000000
30
12.000000
70
192
0
VERTEX
8
OBJECT000
10
1092.000000
20
1576.000000
30
12.000000
70
192
0
VERTEX
8
OBJECT000
10
880.000000
20
1600.000000
30
28.000000
70
192
0
VERTEX
8
OBJECT000
10
880.000000
20
1472.000000
30
28.000000
70
192
0
VERTEX
8
OBJECT000
10
1068.000000
20
1472.000000
30
28.000000
70
192
0
VERTEX
8
OBJECT000
10
1068.000000
20
1600.000000
30
28.000000
70
192
0
VERTEX
8
OBJECT000
10
1092.000000
20
1496.000000
30
23.199808
70
192
0
VERTEX
8
OBJECT000
10
1092.000000
20
1576.000000
30
23.199808
70
192
0
VERTEX
8
OBJECT000
10
0
20
0
30
0
70
128
71
2
72
3
73
-4
0
VERTEX
8
OBJECT000
10
0
20
0
30
0
70
128
71
-2
72
4
73
-5
0
VERTEX
8
OBJECT000
10
0
20
0
30
0
70
128
71
-2
72
5
73
-6
0
VERTEX
8
OBJECT000
10
0
20
0
30
0
70
128
71
-2
72
6
73
1
0
VERTEX
8
OBJECT000
10
0
20
0
30
0
70
128
71
2
72
7
73
-8
0
VERTEX
8
OBJECT000
10
0
20
0
30
0
70
128
71
-2
72
8
73
3
0
VERTEX
8
OBJECT000
10
0
20
0
30
0
70
128
71
8
72
7
73
-10
0
VERTEX
8
OBJECT000
10
0
20
0
30
0
70
128
71
-8
72
10
73
9
0
VERTEX
8
OBJECT000
10
0
20
0
30
0
70
128
71
3
72
8
73
-9
0
VERTEX
8
OBJECT000
10
0
20
0
30
0
70
128
71
-3
72
9
73
4
0
VERTEX
8
OBJECT000
10
0
20
0
30
0
70
128
71
2
72
1
73
-10
0
VERTEX
8
OBJECT000
10
0
20
0
30
0
70
128
71
-2
72
10
73
7
0
VERTEX
8
OBJECT000
10
0
20
0
30
0
70
128
71
5
72
11
73
-12
0
VERTEX
8
OBJECT000
10
0
20
0
30
0
70
128
71
-5
72
12
73
6
0
VERTEX
8
OBJECT000
10
0
20
0
30
0
70
128
71
4
72
9
73
-11
0
VERTEX
8
OBJECT000
10
0
20
0
30
0
70
128
71
-4
72
11
73
5
0
VERTEX
8
OBJECT000
10
0
20
0
30
0
70
128
71
6
72
12
73
-10
0
VERTEX
8
OBJECT000
10
0
20
0
30
0
70
128
71
-6
72
10
73
1
0
VERTEX
8
OBJECT000
10
0
20
0
30
0
70
128
71
10
72
12
73
-11
0
VERTEX
8
OBJECT000
10
0
20
0
30
0
70
128
71
-10
72
11
73
9
0
SEQEND
8
OBJECT000
0
POLYLINE
8
OBJECT001
66
1
70
64
71
10
72
16
62
50
0
VERTEX
8
OBJECT001
10
896.000000
20
1421.293091
30
57.000000
70
192
0
VERTEX
8
OBJECT001
10
278.860779
20
1421.225952
30
57.098389
70
192
0
VERTEX
8
OBJECT001
10
280.239777
20
1420.000000
30
58.853298
70
192
0
VERTEX
8
OBJECT001
10
896.000000
20
1420.000000
30
58.853313
70
192
0
VERTEX
8
OBJECT001
10
297.541260
20
1420.000000
30
80.873711
70
192
0
VERTEX
8
OBJECT001
10
268.000000
20
1441.954346
30
43.279861
70
192
0
VERTEX
8
OBJECT001
10
268.000000
20
1446.316406
30
43.279545
70
192
0
VERTEX
8
OBJECT001
10
268.000000
20
1450.130615
30
37.828770
70
192
0
VERTEX
8
OBJECT001
10
896.000000
20
1420.000000
30
80.584854
70
192
0
VERTEX
8
OBJECT001
10
896.000000
20
1449.802246
30
38.000000
70
192
0
VERTEX
8
OBJECT001
10
0
20
0
30
0
70
128
71
2
72
3
73
-4
0
VERTEX
8
OBJECT001
10
0
20
0
30
0
70
128
71
-2
72
4
73
1
0
VERTEX
8
OBJECT001
10
0
20
0
30
0
70
128
71
3
72
2
73
-6
0
VERTEX
8
OBJECT001
10
0
20
0
30
0
70
128
71
-3
72
6
73
-7
0
VERTEX
8
OBJECT001
10
0
20
0
30
0
70
128
71
-3
72
7
73
5
0
VERTEX
8
OBJECT001
10
0
20
0
30
0
70
128
71
6
72
8
73
7
0
VERTEX
8
OBJECT001
10
0
20
0
30
0
70
128
71
3
72
5
73
-9
0
VERTEX
8
OBJECT001
10
0
20
0
30
0
70
128
71
-3
72
9
73
4
0
VERTEX
8
OBJECT001
10
0
20
0
30
0
70
128
71
6
72
2
73
-1
0
VERTEX
8
OBJECT001
10
0
20
0
30
0
70
128
71
-6
72
1
73
-10
0
VERTEX
8
OBJECT001
10
0
20
0
30
0
70
128
71
-6
72
10
73
8
0
VERTEX
8
OBJECT001
10
0
20
0
30
0
70
128
71
5
72
7
73
-8
0
VERTEX
8
OBJECT001
10
0
20
0
30
0
70
128
71
-5
72
8
73
-10
0
VERTEX
8
OBJECT001
10
0
20
0
30
0
70
128
71
-5
72
10
73
9
0
VERTEX
8
OBJECT001
10
0
20
0
30
0
70
128
71
1
72
4
73
-9
0
VERTEX
8
OBJECT001
10
0
20
0
30
0
70
128
71
-1
72
9
73
10
0
SEQEND
8
OBJECT001
0
POLYLINE
8
OBJECT002
66
1
70
64
71
10
72
16
62
50
0
VERTEX
8
OBJECT002
10
896.000000
20
1466.000000
30
12.000000
70
192
0
VERTEX
8
OBJECT002
10
268.000000
20
1466.000000
30
12.000000
70
192
0
VERTEX
8
OBJECT002
10
268.000000
20
1441.244995
30
28.503698
70
192
0
VERTEX
8
OBJECT002
10
896.000000
20
1441.244995
30
28.503698
70
192
0
VERTEX
8
OBJECT002
10
268.000000
20
1430.896240
30
43.276508
70
192
0
VERTEX
8
OBJECT002
10
278.867035
20
1421.210449
30
57.106213
70
192
0
VERTEX
8
OBJECT002
10
896.000000
20
1421.210449
30
57.106213
70
192
0
VERTEX
8
OBJECT002
10
268.000000
20
1441.953735
30
43.280090
70
192
0
VERTEX
8
OBJECT002
10
896.000000
20
1488.883423
30
12.000000
70
192
0
VERTEX
8
OBJECT002
10
268.000000
20
1488.883423
30
12.000000
70
192
0
VERTEX
8
OBJECT002
10
0
20
0
30
0
70
128
71
2
72
3
73
-4
0
VERTEX
8
OBJECT002
10
0
20
0
30
0
70
128
71
-2
72
4
73
1
0
VERTEX
8
OBJECT002
10
0
20
0
30
0
70
128
71
3
72
5
73
-6
0
VERTEX
8
OBJECT002
10
0
20
0
30
0
70
128
71
-3
72
6
73
-7
0
VERTEX
8
OBJECT002
10
0
20
0
30
0
70
128
71
-3
72
7
73
4
0
VERTEX
8
OBJECT002
10
0
20
0
30
0
70
128
71
5
72
8
73
6
0
VERTEX
8
OBJECT002
10
0
20
0
30
0
70
128
71
10
72
2
73
-1
0
VERTEX
8
OBJECT002
10
0
20
0
30
0
70
128
71
-10
72
1
73
9
0
VERTEX
8
OBJECT002
10
0
20
0
30
0
70
128
71
3
72
2
73
-10
0
VERTEX
8
OBJECT002
10
0
20
0
30
0
70
128
71
-3
72
10
73
-8
0
VERTEX
8
OBJECT002
10
0
20
0
30
0
70
128
71
-3
72
8
73
5
0
VERTEX
8
OBJECT002
10
0
20
0
30
0
70
128
71
6
72
8
73
-10
0
VERTEX
8
OBJECT002
10
0
20
0
30
0
70
128
71
-6
72
10
73
-9
0
VERTEX
8
OBJECT002
10
0
20
0
30
0
70
128
71
-6
72
9
73
7
0
VERTEX
8
OBJECT002
10
0
20
0
30
0
70
128
71
1
72
4
73
-7
0
VERTEX
8
OBJECT002
10
0
20
0
30
0
70
128
71
-1
72
7
73
9
0
SEQEND
8
OBJECT002
0
POLYLINE
8
OBJECT003
66
1
70
64
71
6
72
8
62
50
0
VERTEX
8
OBJECT003
10
896.000000
20
1606.090576
30
12.000000
70
192
0
VERTEX
8
OBJECT003
10
268.000000
20
1606.090576
30
12.000000
70
192
0
VERTEX
8
OBJECT003
10
268.000000
20
1586.750000
30
12.000000
70
192
0
VERTEX
8
OBJECT003
10
896.000000
20
1586.750000
30
12.000000
70
192
0
VERTEX
8
OBJECT003
10
268.000000
20
1621.561401
30
35.208229
70
192
0
VERTEX
8
OBJECT003
10
896.000000
20
1621.557861
30
35.205883
70
192
0
VERTEX
8
OBJECT003
10
0
20
0
30
0
70
128
71
2
72
3
73
-4
0
VERTEX
8
OBJECT003
10
0
20
0
30
0
70
128
71
-2
72
4
73
1
0
VERTEX
8
OBJECT003
10
0
20
0
30
0
70
128
71
2
72
5
73
3
0
VERTEX
8
OBJECT003
10
0
20
0
30
0
70
128
71
2
72
1
73
-6
0
VERTEX
8
OBJECT003
10
0
20
0
30
0
70
128
71
-2
72
6
73
5
0
VERTEX
8
OBJECT003
10
0
20
0
30
0
70
128
71
3
72
5
73
-6
0
VERTEX
8
OBJECT003
10
0
20
0
30
0
70
128
71
-3
72
6
73
4
0
VERTEX
8
OBJECT003
10
0
20
0
30
0
70
128
71
1
72
4
73
6
0
SEQEND
8
OBJECT003
0
POLYLINE
8
OBJECT004
66
1
70
64
71
12
72
20
62
50
0
VERTEX
8
OBJECT004
10
279.572601
20
1652.000000
30
58.000000
70
192
0
VERTEX
8
OBJECT004
10
268.000000
20
1642.177124
30
43.272541
70
192
0
VERTEX
8
OBJECT004
10
268.000000
20
1630.390381
30
25.590837
70
192
0
VERTEX
8
OBJECT004
10
896.000000
20
1630.841675
30
25.897728
70
192
0
VERTEX
8
OBJECT004
10
896.000000
20
1652.000000
30
57.638084
70
192
0
VERTEX
8
OBJECT004
10
268.000000
20
1610.000000
30
12.000000
70
192
0
VERTEX
8
OBJECT004
10
896.000000
20
1610.000000
30
12.000000
70
192
0
VERTEX
8
OBJECT004
10
268.000000
20
1626.941528
30
43.277687
70
192
0
VERTEX
8
OBJECT004
10
297.533508
20
1652.000000
30
80.865875
70
192
0
VERTEX
8
OBJECT004
10
268.000000
20
1606.089966
30
12.000000
70
192
0
VERTEX
8
OBJECT004
10
896.000000
20
1606.089966
30
12.000000
70
192
0
VERTEX
8
OBJECT004
10
896.000000
20
1652.000000
30
80.865875
70
192
0
VERTEX
8
OBJECT004
10
0
20
0
30
0
70
128
71
2
72
3
73
-4
0
VERTEX
8
OBJECT004
10
0
20
0
30
0
70
128
71
-2
72
4
73
-5
0
VERTEX
8
OBJECT004
10
0
20
0
30
0
70
128
71
-2
72
5
73
1
0
VERTEX
8
OBJECT004
10
0
20
0
30
0
70
128
71
3
72
6
73
-7
0
VERTEX
8
OBJECT004
10
0
20
0
30
0
70
128
71
-3
72
7
73
4
0
VERTEX
8
OBJECT004
10
0
20
0
30
0
70
128
71
2
72
1
73
-9
0
VERTEX
8
OBJECT004
10
0
20
0
30
0
70
128
71
-2
72
9
73
8
0
VERTEX
8
OBJECT004
10
0
20
0
30
0
70
128
71
6
72
10
73
-11
0
VERTEX
8
OBJECT004
10
0
20
0
30
0
70
128
71
-6
72
11
73
7
0
VERTEX
8
OBJECT004
10
0
20
0
30
0
70
128
71
6
72
3
73
-2
0
VERTEX
8
OBJECT004
10
0
20
0
30
0
70
128
71
-6
72
2
73
-8
0
VERTEX
8
OBJECT004
10
0
20
0
30
0
70
128
71
-6
72
8
73
10
0
VERTEX
8
OBJECT004
10
0
20
0
30
0
70
128
71
1
72
5
73
-12
0
VERTEX
8
OBJECT004
10
0
20
0
30
0
70
128
71
-1
72
12
73
9
0
VERTEX
8
OBJECT004
10
0
20
0
30
0
70
128
71
10
72
8
73
-9
0
VERTEX
8
OBJECT004
10
0
20
0
30
0
70
128
71
-10
72
9
73
-12
0
VERTEX
8
OBJECT004
10
0
20
0
30
0
70
128
71
-10
72
12
73
11
0
VERTEX
8
OBJECT004
10
0
20
0
30
0
70
128
71
4
72
7
73
-11
0
VERTEX
8
OBJECT004
10
0
20
0
30
0
70
128
71
-4
72
11
73
-12
0
VERTEX
8
OBJECT004
10
0
20
0
30
0
70
128
71
-4
72
12
73
5
0
SEQEND
8
OBJECT004
0
POLYLINE
8
OBJECT005
66
1
70
64
71
6
72
8
62
50
0
VERTEX
8
OBJECT005
10
371.601105
20
1652.000000
30
175.128067
70
192
0
VERTEX
8
OBJECT005
10
388.247467
20
1652.000000
30
196.315018
70
192
0
VERTEX
8
OBJECT005
10
401.767548
20
1627.151978
30
213.521545
70
192
0
VERTEX
8
OBJECT005
10
896.000000
20
1652.000000
30
175.128067
70
192
0
VERTEX
8
OBJECT005
10
896.000000
20
1652.000000
30
196.312729
70
192
0
VERTEX
8
OBJECT005
10
896.000000
20
1627.154053
30
213.518311
70
192
0
VERTEX
8
OBJECT005
10
0
20
0
30
0
70
128
71
2
72
3
73
1
0
VERTEX
8
OBJECT005
10
0
20
0
30
0
70
128
71
1
72
4
73
-5
0
VERTEX
8
OBJECT005
10
0
20
0
30
0
70
128
71
-1
72
5
73
2
0
VERTEX
8
OBJECT005
10
0
20
0
30
0
70
128
71
3
72
2
73
-5
0
VERTEX
8
OBJECT005
10
0
20
0
30
0
70
128
71
-3
72
5
73
6
0
VERTEX
8
OBJECT005
10
0
20
0
30
0
70
128
71
1
72
3
73
-6
0
VERTEX
8
OBJECT005
10
0
20
0
30
0
70
128
71
-1
72
6
73
4
0
VERTEX
8
OBJECT005
10
0
20
0
30
0
70
128
71
5
72
4
73
6
0
SEQEND
8
OBJECT005
0
POLYLINE
8
OBJECT006
66
1
70
64
71
10
72
16
62
50
0
VERTEX
8
OBJECT006
10
896.000000
20
1605.329468
30
244.000000
70
192
0
VERTEX
8
OBJECT006
10
425.695862
20
1605.329468
30
244.000000
70
192
0
VERTEX
8
OBJECT006
10
408.715759
20
1636.588745
30
222.364517
70
192
0
VERTEX
8
OBJECT006
10
896.000000
20
1636.588745
30
222.364517
70
192
0
VERTEX
8
OBJECT006
10
390.000000
20
1652.000000
30
198.545380
70
192
0
VERTEX
8
OBJECT006
10
896.000000
20
1652.000000
30
198.545380
70
192
0
VERTEX
8
OBJECT006
10
388.247375
20
1652.000000
30
196.314011
70
192
0
VERTEX
8
OBJECT006
10
425.672607
20
1583.119995
30
244.000000
70
192
0
VERTEX
8
OBJECT006
10
896.000000
20
1583.119995
30
244.000000
70
192
0
VERTEX
8
OBJECT006
10
896.000000
20
1652.000000
30
196.313995
70
192
0
VERTEX
8
OBJECT006
10
0
20
0
30
0
70
128
71
2
72
3
73
-4
0
VERTEX
8
OBJECT006
10
0
20
0
30
0
70
128
71
-2
72
4
73
1
0
VERTEX
8
OBJECT006
10
0
20
0
30
0
70
128
71
3
72
5
73
-6
0
VERTEX
8
OBJECT006
10
0
20
0
30
0
70
128
71
-3
72
6
73
4
0
VERTEX
8
OBJECT006
10
0
20
0
30
0
70
128
71
5
72
3
73
-2
0
VERTEX
8
OBJECT006
10
0
20
0
30
0
70
128
71
-5
72
2
73
-8
0
VERTEX
8
OBJECT006
10
0
20
0
30
0
70
128
71
-5
72
8
73
7
0
VERTEX
8
OBJECT006
10
0
20
0
30
0
70
128
71
8
72
2
73
-1
0
VERTEX
8
OBJECT006
10
0
20
0
30
0
70
128
71
-8
72
1
73
9
0
VERTEX
8
OBJECT006
10
0
20
0
30
0
70
128
71
5
72
7
73
-10
0
VERTEX
8
OBJECT006
10
0
20
0
30
0
70
128
71
-5
72
10
73
6
0
VERTEX
8
OBJECT006
10
0
20
0
30
0
70
128
71
7
72
8
73
-9
0
VERTEX
8
OBJECT006
10
0
20
0
30
0
70
128
71
-7
72
9
73
10
0
VERTEX
8
OBJECT006
10
0
20
0
30
0
70
128
71
1
72
4
73
-6
0
VERTEX
8
OBJECT006
10
0
20
0
30
0
70
128
71
-1
72
6
73
-10
0
VERTEX
8
OBJECT006
10
0
20
0
30
0
70
128
71
-1
72
10
73
9
0
SEQEND
8
OBJECT006
0
POLYLINE
8
OBJECT007
66
1
70
64
71
6
72
8
62
50
0
VERTEX
8
OBJECT007
10
425.716339
20
1488.880005
30
244.000000
70
192
0
VERTEX
8
OBJECT007
10
425.716339
20
1467.680298
30
244.000000
70
192
0
VERTEX
8
OBJECT007
10
405.104370
20
1449.519165
30
217.767471
70
192
0
VERTEX
8
OBJECT007
10
896.000000
20
1467.680298
30
244.000000
70
192
0
VERTEX
8
OBJECT007
10
896.000000
20
1488.880005
30
244.000000
70
192
0
VERTEX
8
OBJECT007
10
896.000000
20
1449.521240
30
217.768829
70
192
0
VERTEX
8
OBJECT007
10
0
20
0
30
0
70
128
71
2
72
3
73
1
0
VERTEX
8
OBJECT007
10
0
20
0
30
0
70
128
71
2
72
1
73
-5
0
VERTEX
8
OBJECT007
10
0
20
0
30
0
70
128
71
-2
72
5
73
4
0
VERTEX
8
OBJECT007
10
0
20
0
30
0
70
128
71
3
72
2
73
-4
0
VERTEX
8
OBJECT007
10
0
20
0
30
0
70
128
71
-3
72
4
73
6
0
VERTEX
8
OBJECT007
10
0
20
0
30
0
70
128
71
1
72
3
73
-6
0
VERTEX
8
OBJECT007
10
0
20
0
30
0
70
128
71
-1
72
6
73
5
0
VERTEX
8
OBJECT007
10
0
20
0
30
0
70
128
71
4
72
5
73
6
0
SEQEND
8
OBJECT007
0
POLYLINE
8
OBJECT008
66
1
70
64
71
10
72
16
62
50
0
VERTEX
8
OBJECT008
10
896.000000
20
1420.000000
30
197.331985
70
192
0
VERTEX
8
OBJECT008
10
389.044983
20
1420.000000
30
197.331985
70
192
0
VERTEX
8
OBJECT008
10
412.398163
20
1440.575195
30
227.053101
70
192
0
VERTEX
8
OBJECT008
10
896.000000
20
1440.575195
30
227.053101
70
192
0
VERTEX
8
OBJECT008
10
425.716217
20
1466.000000
30
244.000000
70
192
0
VERTEX
8
OBJECT008
10
896.000000
20
1466.000000
30
244.000000
70
192
0
VERTEX
8
OBJECT008
10
371.597076
20
1420.000000
30
175.126953
70
192
0
VERTEX
8
OBJECT008
10
425.713654
20
1467.680054
30
244.000000
70
192
0
VERTEX
8
OBJECT008
10
896.000000
20
1467.680054
30
244.000000
70
192
0
VERTEX
8
OBJECT008
10
896.000000
20
1420.000000
30
175.126953
70
192
0
VERTEX
8
OBJECT008
10
0
20
0
30
0
70
128
71
2
72
3
73
-4
0
VERTEX
8
OBJECT008
10
0
20
0
30
0
70
128
71
-2
72
4
73
1
0
VERTEX
8
OBJECT008
10
0
20
0
30
0
70
128
71
3
72
5
73
-6
0
VERTEX
8
OBJECT008
10
0
20
0
30
0
70
128
71
-3
72
6
73
4
0
VERTEX
8
OBJECT008
10
0
20
0
30
0
70
128
71
2
72
7
73
-8
0
VERTEX
8
OBJECT008
10
0
20
0
30
0
70
128
71
-2
72
8
73
-5
0
VERTEX
8
OBJECT008
10
0
20
0
30
0
70
128
71
-2
72
5
73
3
0
VERTEX
8
OBJECT008
10
0
20
0
30
0
70
128
71
5
72
8
73
-9
0
VERTEX
8
OBJECT008
10
0
20
0
30
0
70
128
71
-5
72
9
73
6
0
VERTEX
8
OBJECT008
10
0
20
0
30
0
70
128
71
7
72
2
73
-1
0
VERTEX
8
OBJECT008
10
0
20
0
30
0
70
128
71
-7
72
1
73
10
0
VERTEX
8
OBJECT008
10
0
20
0
30
0
70
128
71
8
72
7
73
-10
0
VERTEX
8
OBJECT008
10
0
20
0
30
0
70
128
71
-8
72
10
73
9
0
VERTEX
8
OBJECT008
10
0
20
0
30
0
70
128
71
1
72
4
73
-6
0
VERTEX
8
OBJECT008
10
0
20
0
30
0
70
128
71
-1
72
6
73
-9
0
VERTEX
8
OBJECT008
10
0
20
0
30
0
70
128
71
-1
72
9
73
10
0
SEQEND
8
OBJECT008
0
POLYLINE
8
OBJECT009
66
1
70
64
71
8
72
12
62
50
0
VERTEX
8
OBJECT009
10
896.000000
20
1408.000000
30
76.000000
70
192
0
VERTEX
8
OBJECT009
10
293.714386
20
1408.000000
30
76.000000
70
192
0
VERTEX
8
OBJECT009
10
375.429932
20
1408.000000
30
180.000000
70
192
0
VERTEX
8
OBJECT009
10
896.000000
20
1408.000000
30
180.000000
70
192
0
VERTEX
8
OBJECT009
10
389.049286
20
1420.000000
30
197.331863
70
192
0
VERTEX
8
OBJECT009
10
896.000000
20
1420.000000
30
197.331863
70
192
0
VERTEX
8
OBJECT009
10
896.000000
20
1420.000000
30
58.853222
70
192
0
VERTEX
8
OBJECT009
10
280.242340
20
1420.000000
30
58.853222
70
192
0
VERTEX
8
OBJECT009
10
0
20
0
30
0
70
128
71
2
72
3
73
-4
0
VERTEX
8
OBJECT009
10
0
20
0
30
0
70
128
71
-2
72
4
73
1
0
VERTEX
8
OBJECT009
10
0
20
0
30
0
70
128
71
3
72
5
73
-6
0
VERTEX
8
OBJECT009
10
0
20
0
30
0
70
128
71
-3
72
6
73
4
0
VERTEX
8
OBJECT009
10
0
20
0
30
0
70
128
71
8
72
2
73
-1
0
VERTEX
8
OBJECT009
10
0
20
0
30
0
70
128
71
-8
72
1
73
7
0
VERTEX
8
OBJECT009
10
0
20
0
30
0
70
128
71
3
72
2
73
-8
0
VERTEX
8
OBJECT009
10
0
20
0
30
0
70
128
71
-3
72
8
73
5
0
VERTEX
8
OBJECT009
10
0
20
0
30
0
70
128
71
7
72
6
73
-5
0
VERTEX
8
OBJECT009
10
0
20
0
30
0
70
128
71
-7
72
5
73
8
0
VERTEX
8
OBJECT009
10
0
20
0
30
0
70
128
71
1
72
4
73
-6
0
VERTEX
8
OBJECT009
10
0
20
0
30
0
70
128
71
-1
72
6
73
7
0
SEQEND
8
OBJECT009
0
POLYLINE
8
OBJECT010
66
1
70
64
71
8
72
12
62
50
0
VERTEX
8
OBJECT010
10
293.711914
20
1664.000000
30
76.000000
70
192
0
VERTEX
8
OBJECT010
10
896.000000
20
1664.000000
30
76.000000
70
192
0
VERTEX
8
OBJECT010
10
896.000000
20
1664.000000
30
180.000000
70
192
0
VERTEX
8
OBJECT010
10
375.427460
20
1664.000000
30
180.000000
70
192
0
VERTEX
8
OBJECT010
10
390.000000
20
1652.000000
30
198.544708
70
192
0
VERTEX
8
OBJECT010
10
896.000000
20
1652.000000
30
198.544708
70
192
0
VERTEX
8
OBJECT010
10
279.565399
20
1652.000000
30
58.000000
70
192
0
VERTEX
8
OBJECT010
10
896.000000
20
1652.000000
30
58.000000
70
192
0
VERTEX
8
OBJECT010
10
0
20
0
30
0
70
128
71
2
72
3
73
-4
0
VERTEX
8
OBJECT010
10
0
20
0
30
0
70
128
71
-2
72
4
73
1
0
VERTEX
8
OBJECT010
10
0
20
0
30
0
70
128
71
4
72
3
73
-6
0
VERTEX
8
OBJECT010
10
0
20
0
30
0
70
128
71
-4
72
6
73
5
0
VERTEX
8
OBJECT010
10
0
20
0
30
0
70
128
71
1
72
7
73
-8
0
VERTEX
8
OBJECT010
10
0
20
0
30
0
70
128
71
-1
72
8
73
2
0
VERTEX
8
OBJECT010
10
0
20
0
30
0
70
128
71
1
72
4
73
-5
0
VERTEX
8
OBJECT010
10
0
20
0
30
0
70
128
71
-1
72
5
73
7
0
VERTEX
8
OBJECT010
10
0
20
0
30
0
70
128
71
7
72
5
73
-6
0
VERTEX
8
OBJECT010
10
0
20
0
30
0
70
128
71
-7
72
6
73
8
0
VERTEX
8
OBJECT010
10
0
20
0
30
0
70
128
71
3
72
2
73
-8
0
VERTEX
8
OBJECT010
10
0
20
0
30
0
70
128
71
-3
72
8
73
6
0
SEQEND
8
OBJECT010
0
POLYLINE
8
OBJECT011
66
1
70
64
71
12
72
20
62
50
0
VERTEX
8
OBJECT011
10
256.000000
20
1442.000000
30
28.000000
70
192
0
VERTEX
8
OBJECT011
10
256.000000
20
1466.000000
30
12.000000
70
192
0
VERTEX
8
OBJECT011
10
256.000000
20
1610.000000
30
12.000000
70
192
0
VERTEX
8
OBJECT011
10
256.000000
20
1630.398315
30
25.603750
70
192
0
VERTEX
8
OBJECT011
10
256.000000
20
1632.000000
30
28.000000
70
192
0
VERTEX
8
OBJECT011
10
268.000000
20
1642.202637
30
43.275108
70
192
0
VERTEX
8
OBJECT011
10
268.000000
20
1630.401001
30
25.604153
70
192
0
VERTEX
8
OBJECT011
10
268.000000
20
1610.000000
30
12.000000
70
192
0
VERTEX
8
OBJECT011
10
268.000000
20
1466.000000
30
12.000000
70
192
0
VERTEX
8
OBJECT011
10
256.395142
20
1441.241699
30
28.503008
70
192
0
VERTEX
8
OBJECT011
10
268.000000
20
1441.240601
30
28.504503
70
192
0
VERTEX
8
OBJECT011
10
268.000000
20
1430.909302
30
43.275093
70
192
0
VERTEX
8
OBJECT011
10
0
20
0
30
0
70
128
71
2
72
3
73
-4
0
VERTEX
8
OBJECT011
10
0
20
0
30
0
70
128
71
-2
72
4
73
-5
0
VERTEX
8
OBJECT011
10
0
20
0
30
0
70
128
71
-2
72
5
73
1
0
VERTEX
8
OBJECT011
10
0
20
0
30
0
70
128
71
5
72
4
73
-7
0
VERTEX
8
OBJECT011
10
0
20
0
30
0
70
128
71
-5
72
7
73
6
0
VERTEX
8
OBJECT011
10
0
20
0
30
0
70
128
71
4
72
3
73
-8
0
VERTEX
8
OBJECT011
10
0
20
0
30
0
70
128
71
-4
72
8
73
7
0
VERTEX
8
OBJECT011
10
0
20
0
30
0
70
128
71
2
72
1
73
-10
0
VERTEX
8
OBJECT011
10
0
20
0
30
0
70
128
71
-2
72
10
73
-11
0
VERTEX
8
OBJECT011
10
0
20
0
30
0
70
128
71
-2
72
11
73
9
0
VERTEX
8
OBJECT011
10
0
20
0
30
0
70
128
71
10
72
12
73
11
0
VERTEX
8
OBJECT011
10
0
20
0
30
0
70
128
71
10
72
1
73
-5
0
VERTEX
8
OBJECT011
10
0
20
0
30
0
70
128
71
-10
72
5
73
-6
0
VERTEX
8
OBJECT011
10
0
20
0
30
0
70
128
71
-10
72
6
73
12
0
VERTEX
8
OBJECT011
10
0
20
0
30
0
70
128
71
3
72
2
73
-9
0
VERTEX
8
OBJECT011
10
0
20
0
30
0
70
128
71
-3
72
9
73
8
0
VERTEX
8
OBJECT011
10
0
20
0
30
0
70
128
71
7
72
8
73
-9
0
VERTEX
8
OBJECT011
10
0
20
0
30
0
70
128
71
-7
72
9
73
-11
0
VERTEX
8
OBJECT011
10
0
20
0
30
0
70
128
71
-7
72
11
73
-12
0
VERTEX
8
OBJECT011
10
0
20
0
30
0
70
128
71
-7
72
12
73
6
0
SEQEND
8
OBJECT011
0
POLYLINE
8
OBJECT012
66
1
70
64
71
8
72
12
62
50
0
VERTEX
8
OBJECT012
10
896.000000
20
1592.000000
30
0.000000
70
192
0
VERTEX
8
OBJECT012
10
256.000000
20
1592.000000
30
0.000000
70
192
0
VERTEX
8
OBJECT012
10
256.000000
20
1484.000000
30
0.000000
70
192
0
VERTEX
8
OBJECT012
10
896.000000
20
1484.000000
30
0.000000
70
192
0
VERTEX
8
OBJECT012
10
256.000000
20
1466.000000
30
12.000000
70
192
0
VERTEX
8
OBJECT012
10
256.000000
20
1610.000000
30
12.000000
70
192
0
VERTEX
8
OBJECT012
10
896.000000
20
1610.000000
30
12.000000
70
192
0
VERTEX
8
OBJECT012
10
896.000000
20
1466.000000
30
12.000000
70
192
0
VERTEX
8
OBJECT012
10
0
20
0
30
0
70
128
71
2
72
3
73
-4
0
VERTEX
8
OBJECT012
10
0
20
0
30
0
70
128
71
-2
72
4
73
1
0
VERTEX
8
OBJECT012
10
0
20
0
30
0
70
128
71
3
72
2
73
-6
0
VERTEX
8
OBJECT012
10
0
20
0
30
0
70
128
71
-3
72
6
73
5
0
VERTEX
8
OBJECT012
10
0
20
0
30
0
70
128
71
6
72
2
73
-1
0
VERTEX
8
OBJECT012
10
0
20
0
30
0
70
128
71
-6
72
1
73
7
0
VERTEX
8
OBJECT012
10
0
20
0
30
0
70
128
71
3
72
5
73
-8
0
VERTEX
8
OBJECT012
10
0
20
0
30
0
70
128
71
-3
72
8
73
4
0
VERTEX
8
OBJECT012
10
0
20
0
30
0
70
128
71
5
72
6
73
-7
0
VERTEX
8
OBJECT012
10
0
20
0
30
0
70
128
71
-5
72
7
73
8
0
VERTEX
8
OBJECT012
10
0
20
0
30
0
70
128
71
1
72
4
73
-8
0
VERTEX
8
OBJECT012
10
0
20
0
30
0
70
128
71
-1
72
8
73
7
0
SEQEND
8
OBJECT012
0
POLYLINE
8
OBJECT013
66
1
70
64
71
8
72
12
62
50
0
VERTEX
8
OBJECT013
10
896.000000
20
1484.000000
30
256.000000
70
192
0
VERTEX
8
OBJECT013
10
435.144897
20
1484.000000
30
256.000000
70
192
0
VERTEX
8
OBJECT013
10
435.144897
20
1588.000000
30
256.000000
70
192
0
VERTEX
8
OBJECT013
10
896.000000
20
1588.000000
30
256.000000
70
192
0
VERTEX
8
OBJECT013
10
896.000000
20
1466.000000
30
244.000000
70
192
0
VERTEX
8
OBJECT013
10
425.715881
20
1466.000000
30
244.000000
70
192
0
VERTEX
8
OBJECT013
10
425.715881
20
1605.330200
30
244.000000
70
192
0
VERTEX
8
OBJECT013
10
896.000000
20
1605.330200
30
244.000000
70
192
0
VERTEX
8
OBJECT013
10
0
20
0
30
0
70
128
71
2
72
3
73
-4
0
VERTEX
8
OBJECT013
10
0
20
0
30
0
70
128
71
-2
72
4
73
1
0
VERTEX
8
OBJECT013
10
0
20
0
30
0
70
128
71
6
72
2
73
-1
0
VERTEX
8
OBJECT013
10
0
20
0
30
0
70
128
71
-6
72
1
73
5
0
VERTEX
8
OBJECT013
10
0
20
0
30
0
70
128
71
3
72
7
73
-8
0
VERTEX
8
OBJECT013
10
0
20
0
30
0
70
128
71
-3
72
8
73
4
0
VERTEX
8
OBJECT013
10
0
20
0
30
0
70
128
71
3
72
2
73
-6
0
VERTEX
8
OBJECT013
10
0
20
0
30
0
70
128
71
-3
72
6
73
7
0
VERTEX
8
OBJECT013
10
0
20
0
30
0
70
128
71
7
72
6
73
-5
0
VERTEX
8
OBJECT013
10
0
20
0
30
0
70
128
71
-7
72
5
73
8
0
VERTEX
8
OBJECT013
10
0
20
0
30
0
70
128
71
1
72
4
73
-8
0
VERTEX
8
OBJECT013
10
0
20
0
30
0
70
128
71
-1
72
8
73
5
0
SEQEND
8
OBJECT013
0
POLYLINE
8
OBJECT014
66
1
70
64
71
6
72
8
62
50
0
VERTEX
8
OBJECT014
10
267.156250
20
1524.941406
30
41.263943
70
192
0
VERTEX
8
OBJECT014
10
267.156250
20
1589.407837
30
41.263943
70
192
0
VERTEX
8
OBJECT014
10
310.576843
20
1552.566895
30
96.523514
70
192
0
VERTEX
8
OBJECT014
10
267.157990
20
1522.000000
30
35.375004
70
192
0
VERTEX
8
OBJECT014
10
267.157990
20
1593.339111
30
35.375004
70
192
0
VERTEX
8
OBJECT014
10
318.802094
20
1552.573730
30
96.528015
70
192
0
VERTEX
8
OBJECT014
10
0
20
0
30
0
70
128
71
2
72
3
73
1
0
VERTEX
8
OBJECT014
10
0
20
0
30
0
70
128
71
5
72
2
73
-1
0
VERTEX
8
OBJECT014
10
0
20
0
30
0
70
128
71
-5
72
1
73
4
0
VERTEX
8
OBJECT014
10
0
20
0
30
0
70
128
71
5
72
4
73
6
0
VERTEX
8
OBJECT014
10
0
20
0
30
0
70
128
71
2
72
5
73
-6
0
VERTEX
8
OBJECT014
10
0
20
0
30
0
70
128
71
-2
72
6
73
3
0
VERTEX
8
OBJECT014
10
0
20
0
30
0
70
128
71
4
72
1
73
-3
0
VERTEX
8
OBJECT014
10
0
20
0
30
0
70
128
71
-4
72
3
73
6
0
SEQEND
8
OBJECT014
0
POLYLINE
8
OBJECT015
66
1
70
64
71
14
72
24
62
50
0
VERTEX
8
OBJECT015
10
344.247620
20
1420.000000
30
139.375000
70
192
0
VERTEX
8
OBJECT015
10
296.671143
20
1420.000000
30
78.826736
70
192
0
VERTEX
8
OBJECT015
10
267.156250
20
1446.328735
30
41.263783
70
192
0
VERTEX
8
OBJECT015
10
267.156250
20
1524.940063
30
41.261353
70
192
0
VERTEX
8
OBJECT015
10
310.576111
20
1552.570313
30
96.518814
70
192
0
VERTEX
8
OBJECT015
10
344.250153
20
1524.000000
30
139.375000
70
192
0
VERTEX
8
OBJECT015
10
267.157990
20
1450.138550
30
35.826031
70
192
0
VERTEX
8
OBJECT015
10
267.157990
20
1450.809937
30
35.375008
70
192
0
VERTEX
8
OBJECT015
10
267.157990
20
1522.000000
30
35.375008
70
192
0
VERTEX
8
OBJECT015
10
355.629913
20
1420.000000
30
139.375000
70
192
0
VERTEX
8
OBJECT015
10
304.118713
20
1420.000000
30
78.822861
70
192
0
VERTEX
8
OBJECT015
10
267.541138
20
1450.138916
30
35.825390
70
192
0
VERTEX
8
OBJECT015
10
355.631256
20
1524.000000
30
139.375000
70
192
0
VERTEX
8
OBJECT015
10
319.170715
20
1552.574463
30
96.515129
70
192
0
VERTEX
8
OBJECT015
10
0
20
0
30
0
70
128
71
2
72
3
73
-4
0
VERTEX
8
OBJECT015
10
0
20
0
30
0
70
128
71
-2
72
4
73
-5
0
VERTEX
8
OBJECT015
10
0
20
0
30
0
70
128
71
-2
72
5
73
-6
0
VERTEX
8
OBJECT015
10
0
20
0
30
0
70
128
71
-2
72
6
73
1
0
VERTEX
8
OBJECT015
10
0
20
0
30
0
70
128
71
3
72
7
73
-8
0
VERTEX
8
OBJECT015
10
0
20
0
30
0
70
128
71
-3
72
8
73
-9
0
VERTEX
8
OBJECT015
10
0
20
0
30
0
70
128
71
-3
72
9
73
4
0
VERTEX
8
OBJECT015
10
0
20
0
30
0
70
128
71
11
72
2
73
-1
0
VERTEX
8
OBJECT015
10
0
20
0
30
0
70
128
71
-11
72
1
73
10
0
VERTEX
8
OBJECT015
10
0
20
0
30
0
70
128
71
7
72
12
73
8
0
VERTEX
8
OBJECT015
10
0
20
0
30
0
70
128
71
7
72
3
73
-2
0
VERTEX
8
OBJECT015
10
0
20
0
30
0
70
128
71
-7
72
2
73
-11
0
VERTEX
8
OBJECT015
10
0
20
0
30
0
70
128
71
-7
72
11
73
12
0
VERTEX
8
OBJECT015
10
0
20
0
30
0
70
128
71
8
72
12
73
-11
0
VERTEX
8
OBJECT015
10
0
20
0
30
0
70
128
71
-8
72
11
73
-10
0
VERTEX
8
OBJECT015
10
0
20
0
30
0
70
128
71
-8
72
10
73
-13
0
VERTEX
8
OBJECT015
10
0
20
0
30
0
70
128
71
-8
72
13
73
-14
0
VERTEX
8
OBJECT015
10
0
20
0
30
0
70
128
71
-8
72
14
73
9
0
VERTEX
8
OBJECT015
10
0
20
0
30
0
70
128
71
1
72
6
73
-13
0
VERTEX
8
OBJECT015
10
0
20
0
30
0
70
128
71
-1
72
13
73
10
0
VERTEX
8
OBJECT015
10
0
20
0
30
0
70
128
71
5
72
14
73
-13
0
VERTEX
8
OBJECT015
10
0
20
0
30
0
70
128
71
-5
72
13
73
6
0
VERTEX
8
OBJECT015
10
0
20
0
30
0
70
128
71
4
72
9
73
-14
0
VERTEX
8
OBJECT015
10
0
20
0
30
0
70
128
71
-4
72
14
73
5
0
SEQEND
8
OBJECT015
0
POLYLINE
8
OBJECT016
66
1
70
64
71
6
72
8
62
50
0
VERTEX
8
OBJECT016
10
331.673615
20
1534.669312
30
123.375000
70
192
0
VERTEX
8
OBJECT016
10
310.572845
20
1552.569946
30
96.520660
70
192
0
VERTEX
8
OBJECT016
10
331.673615
20
1566.000000
30
123.375000
70
192
0
VERTEX
8
OBJECT016
10
341.819458
20
1566.000000
30
123.375000
70
192
0
VERTEX
8
OBJECT016
10
319.040131
20
1552.569946
30
96.522972
70
192
0
VERTEX
8
OBJECT016
10
341.821442
20
1534.671143
30
123.375000
70
192
0
VERTEX
8
OBJECT016
10
0
20
0
30
0
70
128
71
2
72
3
73
1
0
VERTEX
8
OBJECT016
10
0
20
0
30
0
70
128
71
5
72
6
73
4
0
VERTEX
8
OBJECT016
10
0
20
0
30
0
70
128
71
5
72
2
73
-1
0
VERTEX
8
OBJECT016
10
0
20
0
30
0
70
128
71
-5
72
1
73
6
0
VERTEX
8
OBJECT016
10
0
20
0
30
0
70
128
71
2
72
5
73
-4
0
VERTEX
8
OBJECT016
10
0
20
0
30
0
70
128
71
-2
72
4
73
3
0
VERTEX
8
OBJECT016
10
0
20
0
30
0
70
128
71
3
72
4
73
-6
0
VERTEX
8
OBJECT016
10
0
20
0
30
0
70
128
71
-3
72
6
73
1
0
SEQEND
8
OBJECT016
0
POLYLINE
8
OBJECT017
66
1
70
64
71
12
72
20
62
50
0
VERTEX
8
OBJECT017
10
267.156250
20
1589.409790
30
41.264023
70
192
0
VERTEX
8
OBJECT017
10
267.156250
20
1626.921143
30
41.264023
70
192
0
VERTEX
8
OBJECT017
10
296.708405
20
1652.000000
30
78.873848
70
192
0
VERTEX
8
OBJECT017
10
344.247589
20
1652.000000
30
139.375000
70
192
0
VERTEX
8
OBJECT017
10
344.247589
20
1574.000000
30
139.375000
70
192
0
VERTEX
8
OBJECT017
10
310.570038
20
1552.568359
30
96.514977
70
192
0
VERTEX
8
OBJECT017
10
267.157990
20
1593.339966
30
35.375130
70
192
0
VERTEX
8
OBJECT017
10
267.157990
20
1623.000000
30
35.375011
70
192
0
VERTEX
8
OBJECT017
10
304.049011
20
1652.000000
30
78.860260
70
192
0
VERTEX
8
OBJECT017
10
355.386993
20
1652.000000
30
139.375000
70
192
0
VERTEX
8
OBJECT017
10
319.029449
20
1552.571045
30
96.520317
70
192
0
VERTEX
8
OBJECT017
10
355.385498
20
1574.000000
30
139.375000
70
192
0
VERTEX
8
OBJECT017
10
0
20
0
30
0
70
128
71
2
72
3
73
-4
0
VERTEX
8
OBJECT017
10
0
20
0
30
0
70
128
71
-2
72
4
73
-5
0
VERTEX
8
OBJECT017
10
0
20
0
30
0
70
128
71
-2
72
5
73
-6
0
VERTEX
8
OBJECT017
10
0
20
0
30
0
70
128
71
-2
72
6
73
1
0
VERTEX
8
OBJECT017
10
0
20
0
30
0
70
128
71
8
72
2
73
-1
0
VERTEX
8
OBJECT017
10
0
20
0
30
0
70
128
71
-8
72
1
73
7
0
VERTEX
8
OBJECT017
10
0
20
0
30
0
70
128
71
3
72
9
73
-10
0
VERTEX
8
OBJECT017
10
0
20
0
30
0
70
128
71
-3
72
10
73
4
0
VERTEX
8
OBJECT017
10
0
20
0
30
0
70
128
71
2
72
8
73
-9
0
VERTEX
8
OBJECT017
10
0
20
0
30
0
70
128
71
-2
72
9
73
3
0
VERTEX
8
OBJECT017
10
0
20
0
30
0
70
128
71
9
72
8
73
-7
0
VERTEX
8
OBJECT017
10
0
20
0
30
0
70
128
71
-9
72
7
73
-11
0
VERTEX
8
OBJECT017
10
0
20
0
30
0
70
128
71
-9
72
11
73
-12
0
VERTEX
8
OBJECT017
10
0
20
0
30
0
70
128
71
-9
72
12
73
10
0
VERTEX
8
OBJECT017
10
0
20
0
30
0
70
128
71
4
72
10
73
-12
0
VERTEX
8
OBJECT017
10
0
20
0
30
0
70
128
71
-4
72
12
73
5
0
VERTEX
8
OBJECT017
10
0
20
0
30
0
70
128
71
7
72
1
73
-6
0
VERTEX
8
OBJECT017
10
0
20
0
30
0
70
128
71
-7
72
6
73
11
0
VERTEX
8
OBJECT017
10
0
20
0
30
0
70
128
71
5
72
12
73
-11
0
VERTEX
8
OBJECT017
10
0
20
0
30
0
70
128
71
-5
72
11
73
6
0
SEQEND
8
OBJECT017
0
POLYLINE
8
OBJECT018
66
1
70
64
71
6
72
8
62
50
0
VERTEX
8
OBJECT018
10
344.252838
20
1608.000000
30
139.375000
70
192
0
VERTEX
8
OBJECT018
10
344.252838
20
1628.000000
30
139.375000
70
192
0
VERTEX
8
OBJECT018
10
359.967773
20
1628.000000
30
159.374924
70
192
0
VERTEX
8
OBJECT018
10
372.073883
20
1628.000000
30
159.374924
70
192
0
VERTEX
8
OBJECT018
10
355.149933
20
1628.000000
30
139.375000
70
192
0
VERTEX
8
OBJECT018
10
355.150940
20
1608.000000
30
139.375000
70
192
0
VERTEX
8
OBJECT018
10
0
20
0
30
0
70
128
71
2
72
3
73
1
0
VERTEX
8
OBJECT018
10
0
20
0
30
0
70
128
71
5
72
6
73
4
0
VERTEX
8
OBJECT018
10
0
20
0
30
0
70
128
71
1
72
6
73
-5
0
VERTEX
8
OBJECT018
10
0
20
0
30
0
70
128
71
-1
72
5
73
2
0
VERTEX
8
OBJECT018
10
0
20
0
30
0
70
128
71
2
72
5
73
-4
0
VERTEX
8
OBJECT018
10
0
20
0
30
0
70
128
71
-2
72
4
73
3
0
VERTEX
8
OBJECT018
10
0
20
0
30
0
70
128
71
6
72
1
73
-3
0
VERTEX
8
OBJECT018
10
0
20
0
30
0
70
128
71
-6
72
3
73
4
0
SEQEND
8
OBJECT018
0
POLYLINE
8
OBJECT019
66
1
70
64
71
10
72
16
62
50
0
VERTEX
8
OBJECT019
10
359.965729
20
1628.000000
30
159.374924
70
192
0
VERTEX
8
OBJECT019
10
344.250946
20
1628.000000
30
139.375000
70
192
0
VERTEX
8
OBJECT019
10
344.250946
20
1652.000000
30
139.375000
70
192
0
VERTEX
8
OBJECT019
10
365.919373
20
1652.000000
30
166.952011
70
192
0
VERTEX
8
OBJECT019
10
372.537659
20
1644.000000
30
175.374969
70
192
0
VERTEX
8
OBJECT019
10
355.157013
20
1652.000000
30
139.375000
70
192
0
VERTEX
8
OBJECT019
10
378.493317
20
1652.000000
30
166.952011
70
192
0
VERTEX
8
OBJECT019
10
355.160339
20
1628.000000
30
139.375000
70
192
0
VERTEX
8
OBJECT019
10
372.084747
20
1628.000000
30
159.374924
70
192
0
VERTEX
8
OBJECT019
10
385.623718
20
1644.000000
30
175.374969
70
192
0
VERTEX
8
OBJECT019
10
0
20
0
30
0
70
128
71
2
72
3
73
-4
0
VERTEX
8
OBJECT019
10
0
20
0
30
0
70
128
71
-2
72
4
73
-5
0
VERTEX
8
OBJECT019
10
0
20
0
30
0
70
128
71
-2
72
5
73
1
0
VERTEX
8
OBJECT019
10
0
20
0
30
0
70
128
71
3
72
6
73
-7
0
VERTEX
8
OBJECT019
10
0
20
0
30
0
70
128
71
-3
72
7
73
4
0
VERTEX
8
OBJECT019
10
0
20
0
30
0
70
128
71
6
72
8
73
-9
0
VERTEX
8
OBJECT019
10
0
20
0
30
0
70
128
71
-6
72
9
73
-10
0
VERTEX
8
OBJECT019
10
0
20
0
30
0
70
128
71
-6
72
10
73
7
0
VERTEX
8
OBJECT019
10
0
20
0
30
0
70
128
71
3
72
2
73
-8
0
VERTEX
8
OBJECT019
10
0
20
0
30
0
70
128
71
-3
72
8
73
6
0
VERTEX
8
OBJECT019
10
0
20
0
30
0
70
128
71
8
72
2
73
-1
0
VERTEX
8
OBJECT019
10
0
20
0
30
0
70
128
71
-8
72
1
73
9
0
VERTEX
8
OBJECT019
10
0
20
0
30
0
70
128
71
5
72
10
73
-9
0
VERTEX
8
OBJECT019
10
0
20
0
30
0
70
128
71
-5
72
9
73
1
0
VERTEX
8
OBJECT019
10
0
20
0
30
0
70
128
71
4
72
7
73
-10
0
VERTEX
8
OBJECT019
10
0
20
0
30
0
70
128
71
-4
72
10
73
5
0
SEQEND
8
OBJECT019
0
POLYLINE
8
OBJECT020
66
1
70
64
71
6
72
8
62
50
0
VERTEX
8
OBJECT020
10
385.770691
20
1628.000000
30
192.215012
70
192
0
VERTEX
8
OBJECT020
10
359.966217
20
1628.000000
30
159.374939
70
192
0
VERTEX
8
OBJECT020
10
372.538239
20
1644.000000
30
175.374969
70
192
0
VERTEX
8
OBJECT020
10
385.616577
20
1644.000000
30
175.374969
70
192
0
VERTEX
8
OBJECT020
10
372.078522
20
1628.000000
30
159.374924
70
192
0
VERTEX
8
OBJECT020
10
399.866913
20
1628.000000
30
192.215012
70
192
0
VERTEX
8
OBJECT020
10
0
20
0
30
0
70
128
71
2
72
3
73
1
0
VERTEX
8
OBJECT020
10
0
20
0
30
0
70
128
71
5
72
6
73
4
0
VERTEX
8
OBJECT020
10
0
20
0
30
0
70
128
71
5
72
2
73
-1
0
VERTEX
8
OBJECT020
10
0
20
0
30
0
70
128
71
-5
72
1
73
6
0
VERTEX
8
OBJECT020
10
0
20
0
30
0
70
128
71
2
72
5
73
-4
0
VERTEX
8
OBJECT020
10
0
20
0
30
0
70
128
71
-2
72
4
73
3
0
VERTEX
8
OBJECT020
10
0
20
0
30
0
70
128
71
3
72
4
73
-6
0
VERTEX
8
OBJECT020
10
0
20
0
30
0
70
128
71
-3
72
6
73
1
0
SEQEND
8
OBJECT020
0
POLYLINE
8
OBJECT021
66
1
70
64
71
8
72
12
62
50
0
VERTEX
8
OBJECT021
10
375.662689
20
1647.980469
30
179.349579
70
192
0
VERTEX
8
OBJECT021
10
399.918579
20
1628.000000
30
210.219406
70
192
0
VERTEX
8
OBJECT021
10
385.772278
20
1628.000000
30
192.215012
70
192
0
VERTEX
8
OBJECT021
10
372.540039
20
1644.000000
30
175.375046
70
192
0
VERTEX
8
OBJECT021
10
388.980682
20
1647.980347
30
179.349442
70
192
0
VERTEX
8
OBJECT021
10
415.104218
20
1628.000000
30
210.219055
70
192
0
VERTEX
8
OBJECT021
10
385.618530
20
1644.000000
30
175.375031
70
192
0
VERTEX
8
OBJECT021
10
399.869995
20
1628.000000
30
192.215012
70
192
0
VERTEX
8
OBJECT021
10
0
20
0
30
0
70
128
71
2
72
3
73
-4
0
VERTEX
8
OBJECT021
10
0
20
0
30
0
70
128
71
-2
72
4
73
1
0
VERTEX
8
OBJECT021
10
0
20
0
30
0
70
128
71
1
72
5
73
-6
0
VERTEX
8
OBJECT021
10
0
20
0
30
0
70
128
71
-1
72
6
73
2
0
VERTEX
8
OBJECT021
10
0
20
0
30
0
70
128
71
5
72
7
73
-8
0
VERTEX
8
OBJECT021
10
0
20
0
30
0
70
128
71
-5
72
8
73
6
0
VERTEX
8
OBJECT021
10
0
20
0
30
0
70
128
71
2
72
6
73
-8
0
VERTEX
8
OBJECT021
10
0
20
0
30
0
70
128
71
-2
72
8
73
3
0
VERTEX
8
OBJECT021
10
0
20
0
30
0
70
128
71
1
72
4
73
-7
0
VERTEX
8
OBJECT021
10
0
20
0
30
0
70
128
71
-1
72
7
73
5
0
VERTEX
8
OBJECT021
10
0
20
0
30
0
70
128
71
7
72
4
73
-3
0
VERTEX
8
OBJECT021
10
0
20
0
30
0
70
128
71
-7
72
3
73
8
0
SEQEND
8
OBJECT021
0
POLYLINE
8
OBJECT022
66
1
70
64
71
8
72
12
62
50
0
VERTEX
8
OBJECT022
10
410.260010
20
1598.400024
30
223.375000
70
192
0
VERTEX
8
OBJECT022
10
410.260010
20
1610.020630
30
223.375000
70
192
0
VERTEX
8
OBJECT022
10
424.894012
20
1583.120605
30
242.000000
70
192
0
VERTEX
8
OBJECT022
10
424.894012
20
1580.699951
30
242.000000
70
192
0
VERTEX
8
OBJECT022
10
441.983002
20
1583.120605
30
242.000000
70
192
0
VERTEX
8
OBJECT022
10
441.983002
20
1580.699951
30
242.000000
70
192
0
VERTEX
8
OBJECT022
10
426.216003
20
1610.020752
30
223.375000
70
192
0
VERTEX
8
OBJECT022
10
426.217224
20
1598.400024
30
223.375000
70
192
0
VERTEX
8
OBJECT022
10
0
20
0
30
0
70
128
71
2
72
3
73
-4
0
VERTEX
8
OBJECT022
10
0
20
0
30
0
70
128
71
-2
72
4
73
1
0
VERTEX
8
OBJECT022
10
0
20
0
30
0
70
128
71
3
72
5
73
-6
0
VERTEX
8
OBJECT022
10
0
20
0
30
0
70
128
71
-3
72
6
73
4
0
VERTEX
8
OBJECT022
10
0
20
0
30
0
70
128
71
3
72
2
73
-7
0
VERTEX
8
OBJECT022
10
0
20
0
30
0
70
128
71
-3
72
7
73
5
0
VERTEX
8
OBJECT022
10
0
20
0
30
0
70
128
71
5
72
7
73
-8
0
VERTEX
8
OBJECT022
10
0
20
0
30
0
70
128
71
-5
72
8
73
6
0
VERTEX
8
OBJECT022
10
0
20
0
30
0
70
128
71
2
72
1
73
-8
0
VERTEX
8
OBJECT022
10
0
20
0
30
0
70
128
71
-2
72
8
73
7
0
VERTEX
8
OBJECT022
10
0
20
0
30
0
70
128
71
4
72
6
73
-8
0
VERTEX
8
OBJECT022
10
0
20
0
30
0
70
128
71
-4
72
8
73
1
0
SEQEND
8
OBJECT022
0
POLYLINE
8
OBJECT023
66
1
70
64
71
10
72
16
62
50
0
VERTEX
8
OBJECT023
10
385.771179
20
1628.000000
30
192.214966
70
192
0
VERTEX
8
OBJECT023
10
399.919800
20
1628.000000
30
210.221756
70
192
0
VERTEX
8
OBJECT023
10
400.927551
20
1627.167603
30
211.504532
70
192
0
VERTEX
8
OBJECT023
10
410.251007
20
1610.018311
30
223.375000
70
192
0
VERTEX
8
OBJECT023
10
410.248566
20
1598.400024
30
223.375000
70
192
0
VERTEX
8
OBJECT023
10
416.171143
20
1627.167358
30
211.504929
70
192
0
VERTEX
8
OBJECT023
10
426.218964
20
1610.018677
30
223.375000
70
192
0
VERTEX
8
OBJECT023
10
415.085724
20
1628.000000
30
210.222900
70
192
0
VERTEX
8
OBJECT023
10
426.216949
20
1598.400024
30
223.375000
70
192
0
VERTEX
8
OBJECT023
10
399.837555
20
1628.000000
30
192.214966
70
192
0
VERTEX
8
OBJECT023
10
0
20
0
30
0
70
128
71
2
72
3
73
-4
0
VERTEX
8
OBJECT023
10
0
20
0
30
0
70
128
71
-2
72
4
73
-5
0
VERTEX
8
OBJECT023
10
0
20
0
30
0
70
128
71
-2
72
5
73
1
0
VERTEX
8
OBJECT023
10
0
20
0
30
0
70
128
71
3
72
6
73
-7
0
VERTEX
8
OBJECT023
10
0
20
0
30
0
70
128
71
-3
72
7
73
4
0
VERTEX
8
OBJECT023
10
0
20
0
30
0
70
128
71
2
72
8
73
-6
0
VERTEX
8
OBJECT023
10
0
20
0
30
0
70
128
71
-2
72
6
73
3
0
VERTEX
8
OBJECT023
10
0
20
0
30
0
70
128
71
7
72
6
73
-8
0
VERTEX
8
OBJECT023
10
0
20
0
30
0
70
128
71
-7
72
8
73
-10
0
VERTEX
8
OBJECT023
10
0
20
0
30
0
70
128
71
-7
72
10
73
9
0
VERTEX
8
OBJECT023
10
0
20
0
30
0
70
128
71
1
72
10
73
-8
0
VERTEX
8
OBJECT023
10
0
20
0
30
0
70
128
71
-1
72
8
73
2
0
VERTEX
8
OBJECT023
10
0
20
0
30
0
70
128
71
4
72
7
73
-9
0
VERTEX
8
OBJECT023
10
0
20
0
30
0
70
128
71
-4
72
9
73
5
0
VERTEX
8
OBJECT023
10
0
20
0
30
0
70
128
71
5
72
9
73
-10
0
VERTEX
8
OBJECT023
10
0
20
0
30
0
70
128
71
-5
72
10
73
1
0
SEQEND
8
OBJECT023
0
POLYLINE
8
OBJECT024
66
1
70
64
71
8
72
12
62
50
0
VERTEX
8
OBJECT024
10
424.892639
20
1580.699951
30
242.000000
70
192
0
VERTEX
8
OBJECT024
10
424.894653
20
1490.630127
30
242.000000
70
192
0
VERTEX
8
OBJECT024
10
410.260651
20
1472.000000
30
223.375000
70
192
0
VERTEX
8
OBJECT024
10
410.257813
20
1598.400024
30
223.375000
70
192
0
VERTEX
8
OBJECT024
10
441.983002
20
1580.699951
30
242.000000
70
192
0
VERTEX
8
OBJECT024
10
442.000000
20
1490.629517
30
242.000000
70
192
0
VERTEX
8
OBJECT024
10
426.219971
20
1598.400024
30
223.375000
70
192
0
VERTEX
8
OBJECT024
10
426.243835
20
1472.000000
30
223.375000
70
192
0
VERTEX
8
OBJECT024
10
0
20
0
30
0
70
128
71
2
72
3
73
-4
0
VERTEX
8
OBJECT024
10
0
20
0
30
0
70
128
71
-2
72
4
73
1
0
VERTEX
8
OBJECT024
10
0
20
0
30
0
70
128
71
1
72
5
73
-6
0
VERTEX
8
OBJECT024
10
0
20
0
30
0
70
128
71
-1
72
6
73
2
0
VERTEX
8
OBJECT024
10
0
20
0
30
0
70
128
71
8
72
6
73
-5
0
VERTEX
8
OBJECT024
10
0
20
0
30
0
70
128
71
-8
72
5
73
7
0
VERTEX
8
OBJECT024
10
0
20
0
30
0
70
128
71
2
72
6
73
-8
0
VERTEX
8
OBJECT024
10
0
20
0
30
0
70
128
71
-2
72
8
73
3
0
VERTEX
8
OBJECT024
10
0
20
0
30
0
70
128
71
3
72
8
73
-7
0
VERTEX
8
OBJECT024
10
0
20
0
30
0
70
128
71
-3
72
7
73
4
0
VERTEX
8
OBJECT024
10
0
20
0
30
0
70
128
71
4
72
7
73
-5
0
VERTEX
8
OBJECT024
10
0
20
0
30
0
70
128
71
-4
72
5
73
1
0
SEQEND
8
OBJECT024
0
POLYLINE
8
OBJECT025
66
1
70
64
71
8
72
12
62
50
0
VERTEX
8
OBJECT025
10
410.254547
20
1572.000000
30
223.375000
70
192
0
VERTEX
8
OBJECT025
10
410.254547
20
1536.000000
30
223.375000
70
192
0
VERTEX
8
OBJECT025
10
400.826538
20
1544.000000
30
211.375000
70
192
0
VERTEX
8
OBJECT025
10
400.826538
20
1564.000000
30
211.375000
70
192
0
VERTEX
8
OBJECT025
10
416.081268
20
1544.000000
30
211.375000
70
192
0
VERTEX
8
OBJECT025
10
426.238281
20
1536.000000
30
223.375000
70
192
0
VERTEX
8
OBJECT025
10
426.231262
20
1572.000000
30
223.375000
70
192
0
VERTEX
8
OBJECT025
10
416.077362
20
1564.000000
30
211.375000
70
192
0
VERTEX
8
OBJECT025
10
0
20
0
30
0
70
128
71
2
72
3
73
-4
0
VERTEX
8
OBJECT025
10
0
20
0
30
0
70
128
71
-2
72
4
73
1
0
VERTEX
8
OBJECT025
10
0
20
0
30
0
70
128
71
6
72
7
73
-8
0
VERTEX
8
OBJECT025
10
0
20
0
30
0
70
128
71
-6
72
8
73
5
0
VERTEX
8
OBJECT025
10
0
20
0
30
0
70
128
71
1
72
7
73
-6
0
VERTEX
8
OBJECT025
10
0
20
0
30
0
70
128
71
-1
72
6
73
2
0
VERTEX
8
OBJECT025
10
0
20
0
30
0
70
128
71
5
72
3
73
-2
0
VERTEX
8
OBJECT025
10
0
20
0
30
0
70
128
71
-5
72
2
73
6
0
VERTEX
8
OBJECT025
10
0
20
0
30
0
70
128
71
4
72
8
73
-7
0
VERTEX
8
OBJECT025
10
0
20
0
30
0
70
128
71
-4
72
7
73
1
0
VERTEX
8
OBJECT025
10
0
20
0
30
0
70
128
71
3
72
5
73
-8
0
VERTEX
8
OBJECT025
10
0
20
0
30
0
70
128
71
-3
72
8
73
4
0
SEQEND
8
OBJECT025
0
POLYLINE
8
OBJECT026
66
1
70
64
71
8
72
12
62
50
0
VERTEX
8
OBJECT026
10
424.887024
20
1490.630005
30
242.000000
70
192
0
VERTEX
8
OBJECT026
10
424.887024
20
1488.869385
30
242.000000
70
192
0
VERTEX
8
OBJECT026
10
410.253021
20
1460.929443
30
223.375000
70
192
0
VERTEX
8
OBJECT026
10
410.253021
20
1472.000000
30
223.375000
70
192
0
VERTEX
8
OBJECT026
10
442.000000
20
1488.869385
30
242.000000
70
192
0
VERTEX
8
OBJECT026
10
442.000000
20
1490.630005
30
242.000000
70
192
0
VERTEX
8
OBJECT026
10
426.240997
20
1460.930298
30
223.375000
70
192
0
VERTEX
8
OBJECT026
10
426.243011
20
1472.000000
30
223.375000
70
192
0
VERTEX
8
OBJECT026
10
0
20
0
30
0
70
128
71
2
72
3
73
-4
0
VERTEX
8
OBJECT026
10
0
20
0
30
0
70
128
71
-2
72
4
73
1
0
VERTEX
8
OBJECT026
10
0
20
0
30
0
70
128
71
2
72
1
73
-6
0
VERTEX
8
OBJECT026
10
0
20
0
30
0
70
128
71
-2
72
6
73
5
0
VERTEX
8
OBJECT026
10
0
20
0
30
0
70
128
71
2
72
5
73
-7
0
VERTEX
8
OBJECT026
10
0
20
0
30
0
70
128
71
-2
72
7
73
3
0
VERTEX
8
OBJECT026
10
0
20
0
30
0
70
128
71
5
72
6
73
-8
0
VERTEX
8
OBJECT026
10
0
20
0
30
0
70
128
71
-5
72
8
73
7
0
VERTEX
8
OBJECT026
10
0
20
0
30
0
70
128
71
1
72
4
73
-8
0
VERTEX
8
OBJECT026
10
0
20
0
30
0
70
128
71
-1
72
8
73
6
0
VERTEX
8
OBJECT026
10
0
20
0
30
0
70
128
71
3
72
7
73
-8
0
VERTEX
8
OBJECT026
10
0
20
0
30
0
70
128
71
-3
72
8
73
4
0
SEQEND
8
OBJECT026
0
POLYLINE
8
OBJECT027
66
1
70
64
71
10
72
16
62
50
0
VERTEX
8
OBJECT027
10
404.273682
20
1449.519409
30
215.762451
70
192
0
VERTEX
8
OBJECT027
10
393.468719
20
1440.000000
30
202.012329
70
192
0
VERTEX
8
OBJECT027
10
385.110443
20
1440.000000
30
191.375000
70
192
0
VERTEX
8
OBJECT027
10
410.257141
20
1472.000000
30
223.375000
70
192
0
VERTEX
8
OBJECT027
10
410.256226
20
1460.940186
30
223.375000
70
192
0
VERTEX
8
OBJECT027
10
419.799896
20
1449.520264
30
215.763321
70
192
0
VERTEX
8
OBJECT027
10
408.164642
20
1440.000000
30
202.011963
70
192
0
VERTEX
8
OBJECT027
10
426.238983
20
1460.938843
30
223.375000
70
192
0
VERTEX
8
OBJECT027
10
399.162689
20
1440.000000
30
191.375000
70
192
0
VERTEX
8
OBJECT027
10
426.236298
20
1472.000000
30
223.375000
70
192
0
VERTEX
8
OBJECT027
10
0
20
0
30
0
70
128
71
2
72
3
73
-4
0
VERTEX
8
OBJECT027
10
0
20
0
30
0
70
128
71
-2
72
4
73
-5
0
VERTEX
8
OBJECT027
10
0
20
0
30
0
70
128
71
-2
72
5
73
1
0
VERTEX
8
OBJECT027
10
0
20
0
30
0
70
128
71
1
72
6
73
-7
0
VERTEX
8
OBJECT027
10
0
20
0
30
0
70
128
71
-1
72
7
73
2
0
VERTEX
8
OBJECT027
10
0
20
0
30
0
70
128
71
1
72
5
73
-8
0
VERTEX
8
OBJECT027
10
0
20
0
30
0
70
128
71
-1
72
8
73
6
0
VERTEX
8
OBJECT027
10
0
20
0
30
0
70
128
71
7
72
6
73
-8
0
VERTEX
8
OBJECT027
10
0
20
0
30
0
70
128
71
-7
72
8
73
-10
0
VERTEX
8
OBJECT027
10
0
20
0
30
0
70
128
71
-7
72
10
73
9
0
VERTEX
8
OBJECT027
10
0
20
0
30
0
70
128
71
2
72
7
73
-9
0
VERTEX
8
OBJECT027
10
0
20
0
30
0
70
128
71
-2
72
9
73
3
0
VERTEX
8
OBJECT027
10
0
20
0
30
0
70
128
71
3
72
9
73
-10
0
VERTEX
8
OBJECT027
10
0
20
0
30
0
70
128
71
-3
72
10
73
4
0
VERTEX
8
OBJECT027
10
0
20
0
30
0
70
128
71
5
72
4
73
-10
0
VERTEX
8
OBJECT027
10
0
20
0
30
0
70
128
71
-5
72
10
73
8
0
SEQEND
8
OBJECT027
0
POLYLINE
8
OBJECT028
66
1
70
64
71
8
72
12
62
50
0
VERTEX
8
OBJECT028
10
393.470459
20
1440.000000
30
202.014587
70
192
0
VERTEX
8
OBJECT028
10
373.671997
20
1422.558960
30
176.817993
70
192
0
VERTEX
8
OBJECT028
10
372.537933
20
1424.000000
30
175.374939
70
192
0
VERTEX
8
OBJECT028
10
385.109833
20
1440.000000
30
191.375000
70
192
0
VERTEX
8
OBJECT028
10
408.162964
20
1440.000000
30
202.013168
70
192
0
VERTEX
8
OBJECT028
10
386.843353
20
1422.559570
30
176.817459
70
192
0
VERTEX
8
OBJECT028
10
385.620544
20
1424.000000
30
175.374985
70
192
0
VERTEX
8
OBJECT028
10
399.157471
20
1440.000000
30
191.375000
70
192
0
VERTEX
8
OBJECT028
10
0
20
0
30
0
70
128
71
2
72
3
73
-4
0
VERTEX
8
OBJECT028
10
0
20
0
30
0
70
128
71
-2
72
4
73
1
0
VERTEX
8
OBJECT028
10
0
20
0
30
0
70
128
71
6
72
2
73
-1
0
VERTEX
8
OBJECT028
10
0
20
0
30
0
70
128
71
-6
72
1
73
5
0
VERTEX
8
OBJECT028
10
0
20
0
30
0
70
128
71
6
72
5
73
-8
0
VERTEX
8
OBJECT028
10
0
20
0
30
0
70
128
71
-6
72
8
73
7
0
VERTEX
8
OBJECT028
10
0
20
0
30
0
70
128
71
2
72
6
73
-7
0
VERTEX
8
OBJECT028
10
0
20
0
30
0
70
128
71
-2
72
7
73
3
0
VERTEX
8
OBJECT028
10
0
20
0
30
0
70
128
71
4
72
8
73
-5
0
VERTEX
8
OBJECT028
10
0
20
0
30
0
70
128
71
-4
72
5
73
1
0
VERTEX
8
OBJECT028
10
0
20
0
30
0
70
128
71
3
72
7
73
-8
0
VERTEX
8
OBJECT028
10
0
20
0
30
0
70
128
71
-3
72
8
73
4
0
SEQEND
8
OBJECT028
0
POLYLINE
8
OBJECT029
66
1
70
64
71
6
72
8
62
50
0
VERTEX
8
OBJECT029
10
372.538879
20
1424.000000
30
175.375854
70
192
0
VERTEX
8
OBJECT029
10
359.967560
20
1440.000000
30
159.376709
70
192
0
VERTEX
8
OBJECT029
10
385.111206
20
1440.000000
30
191.375000
70
192
0
VERTEX
8
OBJECT029
10
399.158447
20
1440.000000
30
191.375000
70
192
0
VERTEX
8
OBJECT029
10
372.080139
20
1440.000000
30
159.375809
70
192
0
VERTEX
8
OBJECT029
10
385.620819
20
1424.000000
30
175.375397
70
192
0
VERTEX
8
OBJECT029
10
0
20
0
30
0
70
128
71
2
72
3
73
1
0
VERTEX
8
OBJECT029
10
0
20
0
30
0
70
128
71
5
72
6
73
4
0
VERTEX
8
OBJECT029
10
0
20
0
30
0
70
128
71
5
72
2
73
-1
0
VERTEX
8
OBJECT029
10
0
20
0
30
0
70
128
71
-5
72
1
73
6
0
VERTEX
8
OBJECT029
10
0
20
0
30
0
70
128
71
2
72
5
73
-4
0
VERTEX
8
OBJECT029
10
0
20
0
30
0
70
128
71
-2
72
4
73
3
0
VERTEX
8
OBJECT029
10
0
20
0
30
0
70
128
71
6
72
1
73
-3
0
VERTEX
8
OBJECT029
10
0
20
0
30
0
70
128
71
-6
72
3
73
4
0
SEQEND
8
OBJECT029
0
POLYLINE
8
OBJECT030
66
1
70
64
71
6
72
8
62
50
0
VERTEX
8
OBJECT030
10
344.249756
20
1440.000000
30
139.375000
70
192
0
VERTEX
8
OBJECT030
10
344.249756
20
1460.000000
30
139.375000
70
192
0
VERTEX
8
OBJECT030
10
359.963806
20
1440.000000
30
159.373779
70
192
0
VERTEX
8
OBJECT030
10
372.085480
20
1440.000000
30
159.374878
70
192
0
VERTEX
8
OBJECT030
10
355.155579
20
1460.000000
30
139.375000
70
192
0
VERTEX
8
OBJECT030
10
355.158569
20
1440.000000
30
139.375000
70
192
0
VERTEX
8
OBJECT030
10
0
20
0
30
0
70
128
71
2
72
3
73
1
0
VERTEX
8
OBJECT030
10
0
20
0
30
0
70
128
71
5
72
6
73
4
0
VERTEX
8
OBJECT030
10
0
20
0
30
0
70
128
71
1
72
6
73
-5
0
VERTEX
8
OBJECT030
10
0
20
0
30
0
70
128
71
-1
72
5
73
2
0
VERTEX
8
OBJECT030
10
0
20
0
30
0
70
128
71
2
72
5
73
-4
0
VERTEX
8
OBJECT030
10
0
20
0
30
0
70
128
71
-2
72
4
73
3
0
VERTEX
8
OBJECT030
10
0
20
0
30
0
70
128
71
6
72
1
73
-3
0
VERTEX
8
OBJECT030
10
0
20
0
30
0
70
128
71
-6
72
3
73
4
0
SEQEND
8
OBJECT030
0
POLYLINE
8
OBJECT031
66
1
70
64
71
8
72
12
62
50
0
VERTEX
8
OBJECT031
10
365.919098
20
1652.000000
30
166.952011
70
192
0
VERTEX
8
OBJECT031
10
370.774536
20
1652.000000
30
173.130554
70
192
0
VERTEX
8
OBJECT031
10
375.660767
20
1647.979736
30
179.349884
70
192
0
VERTEX
8
OBJECT031
10
372.535919
20
1644.000000
30
175.375076
70
192
0
VERTEX
8
OBJECT031
10
378.493317
20
1652.000000
30
166.952011
70
192
0
VERTEX
8
OBJECT031
10
383.721649
20
1652.000000
30
173.131622
70
192
0
VERTEX
8
OBJECT031
10
388.984039
20
1647.979736
30
179.349899
70
192
0
VERTEX
8
OBJECT031
10
385.622864
20
1644.000000
30
175.375046
70
192
0
VERTEX
8
OBJECT031
10
0
20
0
30
0
70
128
71
2
72
3
73
-4
0
VERTEX
8
OBJECT031
10
0
20
0
30
0
70
128
71
-2
72
4
73
1
0
VERTEX
8
OBJECT031
10
0
20
0
30
0
70
128
71
1
72
5
73
-6
0
VERTEX
8
OBJECT031
10
0
20
0
30
0
70
128
71
-1
72
6
73
2
0
VERTEX
8
OBJECT031
10
0
20
0
30
0
70
128
71
2
72
6
73
-7
0
VERTEX
8
OBJECT031
10
0
20
0
30
0
70
128
71
-2
72
7
73
3
0
VERTEX
8
OBJECT031
10
0
20
0
30
0
70
128
71
6
72
5
73
-8
0
VERTEX
8
OBJECT031
10
0
20
0
30
0
70
128
71
-6
72
8
73
7
0
VERTEX
8
OBJECT031
10
0
20
0
30
0
70
128
71
3
72
7
73
-8
0
VERTEX
8
OBJECT031
10
0
20
0
30
0
70
128
71
-3
72
8
73
4
0
VERTEX
8
OBJECT031
10
0
20
0
30
0
70
128
71
5
72
1
73
-4
0
VERTEX
8
OBJECT031
10
0
20
0
30
0
70
128
71
-5
72
4
73
8
0
SEQEND
8
OBJECT031
0
POLYLINE
8
OBJECT032
66
1
70
64
71
10
72
16
62
50
0
VERTEX
8
OBJECT032
10
369.390015
20
1420.000000
30
171.375000
70
192
0
VERTEX
8
OBJECT032
10
344.246002
20
1420.000000
30
139.375000
70
192
0
VERTEX
8
OBJECT032
10
344.246002
20
1440.000000
30
139.375000
70
192
0
VERTEX
8
OBJECT032
10
359.960938
20
1440.000000
30
159.374893
70
192
0
VERTEX
8
OBJECT032
10
372.532990
20
1424.000000
30
175.374954
70
192
0
VERTEX
8
OBJECT032
10
382.240967
20
1420.000000
30
171.375000
70
192
0
VERTEX
8
OBJECT032
10
355.159973
20
1420.000000
30
139.375000
70
192
0
VERTEX
8
OBJECT032
10
355.157898
20
1440.000000
30
139.375000
70
192
0
VERTEX
8
OBJECT032
10
385.626373
20
1424.000000
30
175.374954
70
192
0
VERTEX
8
OBJECT032
10
372.083435
20
1440.000000
30
159.374893
70
192
0
VERTEX
8
OBJECT032
10
0
20
0
30
0
70
128
71
2
72
3
73
-4
0
VERTEX
8
OBJECT032
10
0
20
0
30
0
70
128
71
-2
72
4
73
-5
0
VERTEX
8
OBJECT032
10
0
20
0
30
0
70
128
71
-2
72
5
73
1
0
VERTEX
8
OBJECT032
10
0
20
0
30
0
70
128
71
7
72
2
73
-1
0
VERTEX
8
OBJECT032
10
0
20
0
30
0
70
128
71
-7
72
1
73
6
0
VERTEX
8
OBJECT032
10
0
20
0
30
0
70
128
71
7
72
6
73
-9
0
VERTEX
8
OBJECT032
10
0
20
0
30
0
70
128
71
-7
72
9
73
-10
0
VERTEX
8
OBJECT032
10
0
20
0
30
0
70
128
71
-7
72
10
73
8
0
VERTEX
8
OBJECT032
10
0
20
0
30
0
70
128
71
2
72
7
73
-8
0
VERTEX
8
OBJECT032
10
0
20
0
30
0
70
128
71
-2
72
8
73
3
0
VERTEX
8
OBJECT032
10
0
20
0
30
0
70
128
71
4
72
10
73
-9
0
VERTEX
8
OBJECT032
10
0
20
0
30
0
70
128
71
-4
72
9
73
5
0
VERTEX
8
OBJECT032
10
0
20
0
30
0
70
128
71
3
72
8
73
-10
0
VERTEX
8
OBJECT032
10
0
20
0
30
0
70
128
71
-3
72
10
73
4
0
VERTEX
8
OBJECT032
10
0
20
0
30
0
70
128
71
6
72
1
73
-5
0
VERTEX
8
OBJECT032
10
0
20
0
30
0
70
128
71
-6
72
5
73
9
0
SEQEND
8
OBJECT032
0
POLYLINE
8
OBJECT033
66
1
70
64
71
8
72
12
62
50
0
VERTEX
8
OBJECT033
10
373.667725
20
1422.559692
30
176.819321
70
192
0
VERTEX
8
OBJECT033
10
370.765381
20
1420.000000
30
173.125839
70
192
0
VERTEX
8
OBJECT033
10
369.389496
20
1420.000000
30
171.375000
70
192
0
VERTEX
8
OBJECT033
10
372.532623
20
1424.000000
30
175.374969
70
192
0
VERTEX
8
OBJECT033
10
383.723846
20
1420.000000
30
173.127029
70
192
0
VERTEX
8
OBJECT033
10
382.240967
20
1420.000000
30
171.375000
70
192
0
VERTEX
8
OBJECT033
10
386.847717
20
1422.560303
30
176.818680
70
192
0
VERTEX
8
OBJECT033
10
385.625488
20
1424.000000
30
175.374954
70
192
0
VERTEX
8
OBJECT033
10
0
20
0
30
0
70
128
71
2
72
3
73
-4
0
VERTEX
8
OBJECT033
10
0
20
0
30
0
70
128
71
-2
72
4
73
1
0
VERTEX
8
OBJECT033
10
0
20
0
30
0
70
128
71
2
72
5
73
-6
0
VERTEX
8
OBJECT033
10
0
20
0
30
0
70
128
71
-2
72
6
73
3
0
VERTEX
8
OBJECT033
10
0
20
0
30
0
70
128
71
5
72
2
73
-1
0
VERTEX
8
OBJECT033
10
0
20
0
30
0
70
128
71
-5
72
1
73
7
0
VERTEX
8
OBJECT033
10
0
20
0
30
0
70
128
71
5
72
7
73
-8
0
VERTEX
8
OBJECT033
10
0
20
0
30
0
70
128
71
-5
72
8
73
6
0
VERTEX
8
OBJECT033
10
0
20
0
30
0
70
128
71
4
72
8
73
-7
0
VERTEX
8
OBJECT033
10
0
20
0
30
0
70
128
71
-4
72
7
73
1
0
VERTEX
8
OBJECT033
10
0
20
0
30
0
70
128
71
3
72
6
73
-8
0
VERTEX
8
OBJECT033
10
0
20
0
30
0
70
128
71
-3
72
8
73
4
0
SEQEND
8
OBJECT033
0
POLYLINE
8
OBJECT034
66
1
70
64
71
10
72
16
62
50
0
VERTEX
8
OBJECT034
10
508.079590
20
1396.000000
30
192.875641
70
192
0
VERTEX
8
OBJECT034
10
896.000000
20
1396.000000
30
192.875641
70
192
0
VERTEX
8
OBJECT034
10
896.000000
20
1396.000000
30
134.000000
70
192
0
VERTEX
8
OBJECT034
10
482.000000
20
1396.000000
30
134.000000
70
192
0
VERTEX
8
OBJECT034
10
482.000000
20
1396.000000
30
168.100006
70
192
0
VERTEX
8
OBJECT034
10
528.035034
20
1409.130005
30
211.833069
70
192
0
VERTEX
8
OBJECT034
10
896.000000
20
1409.130005
30
211.833069
70
192
0
VERTEX
8
OBJECT034
10
482.000000
20
1409.130005
30
134.000000
70
192
0
VERTEX
8
OBJECT034
10
896.000000
20
1409.130005
30
134.000000
70
192
0
VERTEX
8
OBJECT034
10
482.000000
20
1409.130005
30
168.099747
70
192
0
VERTEX
8
OBJECT034
10
0
20
0
30
0
70
128
71
2
72
3
73
-4
0
VERTEX
8
OBJECT034
10
0
20
0
30
0
70
128
71
-2
72
4
73
-5
0
VERTEX
8
OBJECT034
10
0
20
0
30
0
70
128
71
-2
72
5
73
1
0
VERTEX
8
OBJECT034
10
0
20
0
30
0
70
128
71
1
72
6
73
-7
0
VERTEX
8
OBJECT034
10
0
20
0
30
0
70
128
71
-1
72
7
73
2
0
VERTEX
8
OBJECT034
10
0
20
0
30
0
70
128
71
9
72
7
73
-6
0
VERTEX
8
OBJECT034
10
0
20
0
30
0
70
128
71
-9
72
6
73
-10
0
VERTEX
8
OBJECT034
10
0
20
0
30
0
70
128
71
-9
72
10
73
8
0
VERTEX
8
OBJECT034
10
0
20
0
30
0
70
128
71
2
72
7
73
-9
0
VERTEX
8
OBJECT034
10
0
20
0
30
0
70
128
71
-2
72
9
73
3
0
VERTEX
8
OBJECT034
10
0
20
0
30
0
70
128
71
8
72
4
73
-3
0
VERTEX
8
OBJECT034
10
0
20
0
30
0
70
128
71
-8
72
3
73
9
0
VERTEX
8
OBJECT034
10
0
20
0
30
0
70
128
71
4
72
8
73
-10
0
VERTEX
8
OBJECT034
10
0
20
0
30
0
70
128
71
-4
72
10
73
5
0
VERTEX
8
OBJECT034
10
0
20
0
30
0
70
128
71
1
72
5
73
-10
0
VERTEX
8
OBJECT034
10
0
20
0
30
0
70
128
71
-1
72
10
73
6
0
SEQEND
8
OBJECT034
0
POLYLINE
8
OBJECT035
66
1
70
64
71
8
72
12
62
50
0
VERTEX
8
OBJECT035
10
896.000000
20
1431.400024
30
244.000000
70
192
0
VERTEX
8
OBJECT035
10
896.000000
20
1409.129883
30
211.836914
70
192
0
VERTEX
8
OBJECT035
10
555.253723
20
1409.129883
30
211.836914
70
192
0
VERTEX
8
OBJECT035
10
581.231018
20
1431.400024
30
244.000000
70
192
0
VERTEX
8
OBJECT035
10
896.000000
20
1409.130005
30
187.542953
70
192
0
VERTEX
8
OBJECT035
10
535.630981
20
1409.130005
30
187.542953
70
192
0
VERTEX
8
OBJECT035
10
896.000000
20
1448.210083
30
244.000000
70
192
0
VERTEX
8
OBJECT035
10
581.229858
20
1448.210083
30
244.000000
70
192
0
VERTEX
8
OBJECT035
10
0
20
0
30
0
70
128
71
2
72
3
73
-4
0
VERTEX
8
OBJECT035
10
0
20
0
30
0
70
128
71
-2
72
4
73
1
0
VERTEX
8
OBJECT035
10
0
20
0
30
0
70
128
71
6
72
3
73
-2
0
VERTEX
8
OBJECT035
10
0
20
0
30
0
70
128
71
-6
72
2
73
5
0
VERTEX
8
OBJECT035
10
0
20
0
30
0
70
128
71
5
72
7
73
-8
0
VERTEX
8
OBJECT035
10
0
20
0
30
0
70
128
71
-5
72
8
73
6
0
VERTEX
8
OBJECT035
10
0
20
0
30
0
70
128
71
5
72
2
73
-1
0
VERTEX
8
OBJECT035
10
0
20
0
30
0
70
128
71
-5
72
1
73
7
0
VERTEX
8
OBJECT035
10
0
20
0
30
0
70
128
71
4
72
8
73
-7
0
VERTEX
8
OBJECT035
10
0
20
0
30
0
70
128
71
-4
72
7
73
1
0
VERTEX
8
OBJECT035
10
0
20
0
30
0
70
128
71
3
72
6
73
-8
0
VERTEX
8
OBJECT035
10
0
20
0
30
0
70
128
71
-3
72
8
73
4
0
SEQEND
8
OBJECT035
0
POLYLINE
8
OBJECT036
66
1
70
64
71
10
72
16
62
50
0
VERTEX
8
OBJECT036
10
896.000000
20
1410.455200
30
58.462769
70
192
0
VERTEX
8
OBJECT036
10
256.000000
20
1410.469238
30
58.454395
70
192
0
VERTEX
8
OBJECT036
10
256.000000
20
1409.130859
30
60.352375
70
192
0
VERTEX
8
OBJECT036
10
896.000000
20
1409.130859
30
60.340866
70
192
0
VERTEX
8
OBJECT036
10
256.000000
20
1409.130005
30
70.129089
70
192
0
VERTEX
8
OBJECT036
10
267.403595
20
1409.130005
30
84.444351
70
192
0
VERTEX
8
OBJECT036
10
896.000000
20
1409.130005
30
84.421852
70
192
0
VERTEX
8
OBJECT036
10
896.000000
20
1442.036011
30
37.406216
70
192
0
VERTEX
8
OBJECT036
10
256.000000
20
1442.064819
30
37.388004
70
192
0
VERTEX
8
OBJECT036
10
256.000000
20
1419.149658
30
70.129089
70
192
0
VERTEX
8
OBJECT036
10
0
20
0
30
0
70
128
71
2
72
3
73
-4
0
VERTEX
8
OBJECT036
10
0
20
0
30
0
70
128
71
-2
72
4
73
1
0
VERTEX
8
OBJECT036
10
0
20
0
30
0
70
128
71
3
72
5
73
-6
0
VERTEX
8
OBJECT036
10
0
20
0
30
0
70
128
71
-3
72
6
73
-7
0
VERTEX
8
OBJECT036
10
0
20
0
30
0
70
128
71
-3
72
7
73
4
0
VERTEX
8
OBJECT036
10
0
20
0
30
0
70
128
71
9
72
2
73
-1
0
VERTEX
8
OBJECT036
10
0
20
0
30
0
70
128
71
-9
72
1
73
8
0
VERTEX
8
OBJECT036
10
0
20
0
30
0
70
128
71
8
72
7
73
-6
0
VERTEX
8
OBJECT036
10
0
20
0
30
0
70
128
71
-8
72
6
73
-10
0
VERTEX
8
OBJECT036
10
0
20
0
30
0
70
128
71
-8
72
10
73
9
0
VERTEX
8
OBJECT036
10
0
20
0
30
0
70
128
71
1
72
4
73
-7
0
VERTEX
8
OBJECT036
10
0
20
0
30
0
70
128
71
-1
72
7
73
8
0
VERTEX
8
OBJECT036
10
0
20
0
30
0
70
128
71
3
72
2
73
-9
0
VERTEX
8
OBJECT036
10
0
20
0
30
0
70
128
71
-3
72
9
73
-10
0
VERTEX
8
OBJECT036
10
0
20
0
30
0
70
128
71
-3
72
10
73
5
0
VERTEX
8
OBJECT036
10
0
20
0
30
0
70
128
71
5
72
10
73
6
0
SEQEND
8
OBJECT036
0
POLYLINE
8
OBJECT037
66
1
70
64
71
8
72
12
62
50
0
VERTEX
8
OBJECT037
10
256.000000
20
1443.130127
30
20.000000
70
192
0
VERTEX
8
OBJECT037
10
256.000000
20
1432.342529
30
27.194101
70
192
0
VERTEX
8
OBJECT037
10
896.000000
20
1432.342529
30
27.194101
70
192
0
VERTEX
8
OBJECT037
10
896.000000
20
1443.130127
30
20.000000
70
192
0
VERTEX
8
OBJECT037
10
256.000000
20
1410.479004
30
58.441833
70
192
0
VERTEX
8
OBJECT037
10
896.000000
20
1410.479004
30
58.441833
70
192
0
VERTEX
8
OBJECT037
10
256.000000
20
1468.139038
30
20.000000
70
192
0
VERTEX
8
OBJECT037
10
896.000000
20
1468.139038
30
20.000000
70
192
0
VERTEX
8
OBJECT037
10
0
20
0
30
0
70
128
71
2
72
3
73
-4
0
VERTEX
8
OBJECT037
10
0
20
0
30
0
70
128
71
-2
72
4
73
1
0
VERTEX
8
OBJECT037
10
0
20
0
30
0
70
128
71
2
72
5
73
-6
0
VERTEX
8
OBJECT037
10
0
20
0
30
0
70
128
71
-2
72
6
73
3
0
VERTEX
8
OBJECT037
10
0
20
0
30
0
70
128
71
5
72
7
73
-8
0
VERTEX
8
OBJECT037
10
0
20
0
30
0
70
128
71
-5
72
8
73
6
0
VERTEX
8
OBJECT037
10
0
20
0
30
0
70
128
71
3
72
6
73
-8
0
VERTEX
8
OBJECT037
10
0
20
0
30
0
70
128
71
-3
72
8
73
4
0
VERTEX
8
OBJECT037
10
0
20
0
30
0
70
128
71
2
72
1
73
-7
0
VERTEX
8
OBJECT037
10
0
20
0
30
0
70
128
71
-2
72
7
73
5
0
VERTEX
8
OBJECT037
10
0
20
0
30
0
70
128
71
7
72
1
73
-4
0
VERTEX
8
OBJECT037
10
0
20
0
30
0
70
128
71
-7
72
4
73
8
0
SEQEND
8
OBJECT037
0
POLYLINE
8
OBJECT038
66
1
70
64
71
10
72
16
62
50
0
VERTEX
8
OBJECT038
10
896.000000
20
1396.000000
30
134.000000
70
192
0
VERTEX
8
OBJECT038
10
896.000000
20
1396.000000
30
79.123314
70
192
0
VERTEX
8
OBJECT038
10
263.164063
20
1396.000000
30
79.123314
70
192
0
VERTEX
8
OBJECT038
10
306.878998
20
1396.000000
30
134.000000
70
192
0
VERTEX
8
OBJECT038
10
896.000000
20
1409.130005
30
60.368416
70
192
0
VERTEX
8
OBJECT038
10
256.000000
20
1409.130005
30
60.368416
70
192
0
VERTEX
8
OBJECT038
10
256.000000
20
1402.295898
30
70.130211
70
192
0
VERTEX
8
OBJECT038
10
256.000000
20
1409.130005
30
70.130386
70
192
0
VERTEX
8
OBJECT038
10
896.000000
20
1409.130005
30
134.000000
70
192
0
VERTEX
8
OBJECT038
10
306.878723
20
1409.130005
30
134.000000
70
192
0
VERTEX
8
OBJECT038
10
0
20
0
30
0
70
128
71
2
72
3
73
-4
0
VERTEX
8
OBJECT038
10
0
20
0
30
0
70
128
71
-2
72
4
73
1
0
VERTEX
8
OBJECT038
10
0
20
0
30
0
70
128
71
6
72
7
73
-3
0
VERTEX
8
OBJECT038
10
0
20
0
30
0
70
128
71
-6
72
3
73
-2
0
VERTEX
8
OBJECT038
10
0
20
0
30
0
70
128
71
-6
72
2
73
5
0
VERTEX
8
OBJECT038
10
0
20
0
30
0
70
128
71
6
72
5
73
-9
0
VERTEX
8
OBJECT038
10
0
20
0
30
0
70
128
71
-6
72
9
73
-10
0
VERTEX
8
OBJECT038
10
0
20
0
30
0
70
128
71
-6
72
10
73
8
0
VERTEX
8
OBJECT038
10
0
20
0
30
0
70
128
71
5
72
2
73
-1
0
VERTEX
8
OBJECT038
10
0
20
0
30
0
70
128
71
-5
72
1
73
9
0
VERTEX
8
OBJECT038
10
0
20
0
30
0
70
128
71
6
72
8
73
7
0
VERTEX
8
OBJECT038
10
0
20
0
30
0
70
128
71
3
72
7
73
-8
0
VERTEX
8
OBJECT038
10
0
20
0
30
0
70
128
71
-3
72
8
73
-10
0
VERTEX
8
OBJECT038
10
0
20
0
30
0
70
128
71
-3
72
10
73
4
0
VERTEX
8
OBJECT038
10
0
20
0
30
0
70
128
71
4
72
10
73
-9
0
VERTEX
8
OBJECT038
10
0
20
0
30
0
70
128
71
-4
72
9
73
1
0
SEQEND
8
OBJECT038
0
POLYLINE
8
OBJECT039
66
1
70
64
71
10
72
16
62
50
0
VERTEX
8
OBJECT039
10
482.000000
20
1676.000000
30
134.000000
70
192
0
VERTEX
8
OBJECT039
10
896.000000
20
1676.000000
30
134.000000
70
192
0
VERTEX
8
OBJECT039
10
896.000000
20
1676.000000
30
192.875641
70
192
0
VERTEX
8
OBJECT039
10
508.079590
20
1676.000000
30
192.875641
70
192
0
VERTEX
8
OBJECT039
10
482.000000
20
1676.000000
30
168.100006
70
192
0
VERTEX
8
OBJECT039
10
896.000000
20
1662.869995
30
211.833008
70
192
0
VERTEX
8
OBJECT039
10
528.034729
20
1662.869995
30
211.833008
70
192
0
VERTEX
8
OBJECT039
10
896.000000
20
1662.869995
30
134.000000
70
192
0
VERTEX
8
OBJECT039
10
482.000000
20
1662.869995
30
134.000000
70
192
0
VERTEX
8
OBJECT039
10
482.000000
20
1662.869995
30
168.100006
70
192
0
VERTEX
8
OBJECT039
10
0
20
0
30
0
70
128
71
2
72
3
73
-4
0
VERTEX
8
OBJECT039
10
0
20
0
30
0
70
128
71
-2
72
4
73
-5
0
VERTEX
8
OBJECT039
10
0
20
0
30
0
70
128
71
-2
72
5
73
1
0
VERTEX
8
OBJECT039
10
0
20
0
30
0
70
128
71
3
72
6
73
-7
0
VERTEX
8
OBJECT039
10
0
20
0
30
0
70
128
71
-3
72
7
73
4
0
VERTEX
8
OBJECT039
10
0
20
0
30
0
70
128
71
6
72
8
73
-9
0
VERTEX
8
OBJECT039
10
0
20
0
30
0
70
128
71
-6
72
9
73
-10
0
VERTEX
8
OBJECT039
10
0
20
0
30
0
70
128
71
-6
72
10
73
7
0
VERTEX
8
OBJECT039
10
0
20
0
30
0
70
128
71
3
72
2
73
-8
0
VERTEX
8
OBJECT039
10
0
20
0
30
0
70
128
71
-3
72
8
73
6
0
VERTEX
8
OBJECT039
10
0
20
0
30
0
70
128
71
1
72
9
73
-8
0
VERTEX
8
OBJECT039
10
0
20
0
30
0
70
128
71
-1
72
8
73
2
0
VERTEX
8
OBJECT039
10
0
20
0
30
0
70
128
71
5
72
10
73
-9
0
VERTEX
8
OBJECT039
10
0
20
0
30
0
70
128
71
-5
72
9
73
1
0
VERTEX
8
OBJECT039
10
0
20
0
30
0
70
128
71
4
72
7
73
-10
0
VERTEX
8
OBJECT039
10
0
20
0
30
0
70
128
71
-4
72
10
73
5
0
SEQEND
8
OBJECT039
0
POLYLINE
8
OBJECT040
66
1
70
64
71
8
72
12
62
50
0
VERTEX
8
OBJECT040
10
555.255066
20
1662.869141
30
211.838547
70
192
0
VERTEX
8
OBJECT040
10
896.000000
20
1662.869141
30
211.838547
70
192
0
VERTEX
8
OBJECT040
10
896.000000
20
1640.600220
30
244.000000
70
192
0
VERTEX
8
OBJECT040
10
581.232239
20
1640.600220
30
244.000000
70
192
0
VERTEX
8
OBJECT040
10
535.631042
20
1662.869995
30
187.543060
70
192
0
VERTEX
8
OBJECT040
10
896.000000
20
1662.869995
30
187.543060
70
192
0
VERTEX
8
OBJECT040
10
896.000000
20
1623.791870
30
244.000000
70
192
0
VERTEX
8
OBJECT040
10
581.231995
20
1623.791870
30
244.000000
70
192
0
VERTEX
8
OBJECT040
10
0
20
0
30
0
70
128
71
2
72
3
73
-4
0
VERTEX
8
OBJECT040
10
0
20
0
30
0
70
128
71
-2
72
4
73
1
0
VERTEX
8
OBJECT040
10
0
20
0
30
0
70
128
71
6
72
2
73
-1
0
VERTEX
8
OBJECT040
10
0
20
0
30
0
70
128
71
-6
72
1
73
5
0
VERTEX
8
OBJECT040
10
0
20
0
30
0
70
128
71
6
72
5
73
-8
0
VERTEX
8
OBJECT040
10
0
20
0
30
0
70
128
71
-6
72
8
73
7
0
VERTEX
8
OBJECT040
10
0
20
0
30
0
70
128
71
2
72
6
73
-7
0
VERTEX
8
OBJECT040
10
0
20
0
30
0
70
128
71
-2
72
7
73
3
0
VERTEX
8
OBJECT040
10
0
20
0
30
0
70
128
71
8
72
4
73
-3
0
VERTEX
8
OBJECT040
10
0
20
0
30
0
70
128
71
-8
72
3
73
7
0
VERTEX
8
OBJECT040
10
0
20
0
30
0
70
128
71
5
72
1
73
-4
0
VERTEX
8
OBJECT040
10
0
20
0
30
0
70
128
71
-5
72
4
73
8
0
SEQEND
8
OBJECT040
0
POLYLINE
8
OBJECT041
66
1
70
64
71
10
72
16
62
50
0
VERTEX
8
OBJECT041
10
256.000000
20
1661.522705
30
58.444786
70
192
0
VERTEX
8
OBJECT041
10
896.000000
20
1661.535645
30
58.456093
70
192
0
VERTEX
8
OBJECT041
10
896.000000
20
1662.870117
30
60.347862
70
192
0
VERTEX
8
OBJECT041
10
256.000000
20
1662.870117
30
60.354855
70
192
0
VERTEX
8
OBJECT041
10
896.000000
20
1662.869995
30
84.420525
70
192
0
VERTEX
8
OBJECT041
10
267.393280
20
1662.869995
30
84.430824
70
192
0
VERTEX
8
OBJECT041
10
256.000000
20
1662.869995
30
70.129196
70
192
0
VERTEX
8
OBJECT041
10
256.000000
20
1629.951416
30
37.398388
70
192
0
VERTEX
8
OBJECT041
10
896.000000
20
1629.968750
30
37.412613
70
192
0
VERTEX
8
OBJECT041
10
256.000000
20
1652.859863
30
70.129196
70
192
0
VERTEX
8
OBJECT041
10
0
20
0
30
0
70
128
71
2
72
3
73
-4
0
VERTEX
8
OBJECT041
10
0
20
0
30
0
70
128
71
-2
72
4
73
1
0
VERTEX
8
OBJECT041
10
0
20
0
30
0
70
128
71
3
72
5
73
-6
0
VERTEX
8
OBJECT041
10
0
20
0
30
0
70
128
71
-3
72
6
73
-7
0
VERTEX
8
OBJECT041
10
0
20
0
30
0
70
128
71
-3
72
7
73
4
0
VERTEX
8
OBJECT041
10
0
20
0
30
0
70
128
71
1
72
8
73
-9
0
VERTEX
8
OBJECT041
10
0
20
0
30
0
70
128
71
-1
72
9
73
2
0
VERTEX
8
OBJECT041
10
0
20
0
30
0
70
128
71
8
72
10
73
-6
0
VERTEX
8
OBJECT041
10
0
20
0
30
0
70
128
71
-8
72
6
73
-5
0
VERTEX
8
OBJECT041
10
0
20
0
30
0
70
128
71
-8
72
5
73
9
0
VERTEX
8
OBJECT041
10
0
20
0
30
0
70
128
71
3
72
2
73
-9
0
VERTEX
8
OBJECT041
10
0
20
0
30
0
70
128
71
-3
72
9
73
5
0
VERTEX
8
OBJECT041
10
0
20
0
30
0
70
128
71
1
72
4
73
-7
0
VERTEX
8
OBJECT041
10
0
20
0
30
0
70
128
71
-1
72
7
73
-10
0
VERTEX
8
OBJECT041
10
0
20
0
30
0
70
128
71
-1
72
10
73
8
0
VERTEX
8
OBJECT041
10
0
20
0
30
0
70
128
71
6
72
10
73
7
0
SEQEND
8
OBJECT041
0
POLYLINE
8
OBJECT042
66
1
70
64
71
8
72
12
62
50
0
VERTEX
8
OBJECT042
10
896.000000
20
1639.647583
30
27.181669
70
192
0
VERTEX
8
OBJECT042
10
256.000000
20
1639.647583
30
27.181669
70
192
0
VERTEX
8
OBJECT042
10
256.000000
20
1628.870728
30
20.000000
70
192
0
VERTEX
8
OBJECT042
10
896.000000
20
1628.870728
30
20.000000
70
192
0
VERTEX
8
OBJECT042
10
896.000000
20
1661.518433
30
58.442970
70
192
0
VERTEX
8
OBJECT042
10
256.000000
20
1661.518433
30
58.442970
70
192
0
VERTEX
8
OBJECT042
10
256.000000
20
1603.861694
30
20.000000
70
192
0
VERTEX
8
OBJECT042
10
896.000000
20
1603.861694
30
20.000000
70
192
0
VERTEX
8
OBJECT042
10
0
20
0
30
0
70
128
71
2
72
3
73
-4
0
VERTEX
8
OBJECT042
10
0
20
0
30
0
70
128
71
-2
72
4
73
1
0
VERTEX
8
OBJECT042
10
0
20
0
30
0
70
128
71
1
72
5
73
-6
0
VERTEX
8
OBJECT042
10
0
20
0
30
0
70
128
71
-1
72
6
73
2
0
VERTEX
8
OBJECT042
10
0
20
0
30
0
70
128
71
6
72
5
73
-8
0
VERTEX
8
OBJECT042
10
0
20
0
30
0
70
128
71
-6
72
8
73
7
0
VERTEX
8
OBJECT042
10
0
20
0
30
0
70
128
71
1
72
4
73
-8
0
VERTEX
8
OBJECT042
10
0
20
0
30
0
70
128
71
-1
72
8
73
5
0
VERTEX
8
OBJECT042
10
0
20
0
30
0
70
128
71
2
72
6
73
-7
0
VERTEX
8
OBJECT042
10
0
20
0
30
0
70
128
71
-2
72
7
73
3
0
VERTEX
8
OBJECT042
10
0
20
0
30
0
70
128
71
3
72
7
73
-8
0
VERTEX
8
OBJECT042
10
0
20
0
30
0
70
128
71
-3
72
8
73
4
0
SEQEND
8
OBJECT042
0
POLYLINE
8
OBJECT043
66
1
70
64
71
10
72
16
62
50
0
VERTEX
8
OBJECT043
10
263.165070
20
1676.000000
30
79.124603
70
192
0
VERTEX
8
OBJECT043
10
896.000000
20
1676.000000
30
79.124603
70
192
0
VERTEX
8
OBJECT043
10
896.000000
20
1676.000000
30
134.000000
70
192
0
VERTEX
8
OBJECT043
10
306.879150
20
1676.000000
30
134.000000
70
192
0
VERTEX
8
OBJECT043
10
256.000000
20
1662.869995
30
60.379349
70
192
0
VERTEX
8
OBJECT043
10
896.000000
20
1662.869995
30
60.379349
70
192
0
VERTEX
8
OBJECT043
10
256.000000
20
1669.699951
30
70.130196
70
192
0
VERTEX
8
OBJECT043
10
896.000000
20
1662.869995
30
134.000000
70
192
0
VERTEX
8
OBJECT043
10
256.000000
20
1662.869995
30
70.130295
70
192
0
VERTEX
8
OBJECT043
10
306.878998
20
1662.869995
30
134.000000
70
192
0
VERTEX
8
OBJECT043
10
0
20
0
30
0
70
128
71
2
72
3
73
-4
0
VERTEX
8
OBJECT043
10
0
20
0
30
0
70
128
71
-2
72
4
73
1
0
VERTEX
8
OBJECT043
10
0
20
0
30
0
70
128
71
6
72
2
73
-1
0
VERTEX
8
OBJECT043
10
0
20
0
30
0
70
128
71
-6
72
1
73
-7
0
VERTEX
8
OBJECT043
10
0
20
0
30
0
70
128
71
-6
72
7
73
5
0
VERTEX
8
OBJECT043
10
0
20
0
30
0
70
128
71
6
72
5
73
-9
0
VERTEX
8
OBJECT043
10
0
20
0
30
0
70
128
71
-6
72
9
73
-10
0
VERTEX
8
OBJECT043
10
0
20
0
30
0
70
128
71
-6
72
10
73
8
0
VERTEX
8
OBJECT043
10
0
20
0
30
0
70
128
71
2
72
6
73
-8
0
VERTEX
8
OBJECT043
10
0
20
0
30
0
70
128
71
-2
72
8
73
3
0
VERTEX
8
OBJECT043
10
0
20
0
30
0
70
128
71
5
72
7
73
9
0
VERTEX
8
OBJECT043
10
0
20
0
30
0
70
128
71
9
72
7
73
-1
0
VERTEX
8
OBJECT043
10
0
20
0
30
0
70
128
71
-9
72
1
73
-4
0
VERTEX
8
OBJECT043
10
0
20
0
30
0
70
128
71
-9
72
4
73
10
0
VERTEX
8
OBJECT043
10
0
20
0
30
0
70
128
71
10
72
4
73
-3
0
VERTEX
8
OBJECT043
10
0
20
0
30
0
70
128
71
-10
72
3
73
8
0
SEQEND
8
OBJECT043
0
POLYLINE
8
OBJECT044
66
1
70
64
71
8
72
12
62
50
0
VERTEX
8
OBJECT044
10
896.000000
20
1479.119263
30
276.000000
70
192
0
VERTEX
8
OBJECT044
10
420.000000
20
1479.119263
30
276.000000
70
192
0
VERTEX
8
OBJECT044
10
420.000000
20
1536.000000
30
276.000000
70
192
0
VERTEX
8
OBJECT044
10
896.000000
20
1536.000000
30
276.000000
70
192
0
VERTEX
8
OBJECT044
10
896.000000
20
1459.440918
30
262.875000
70
192
0
VERTEX
8
OBJECT044
10
409.545013
20
1459.440918
30
262.875000
70
192
0
VERTEX
8
OBJECT044
10
409.545013
20
1536.000000
30
262.875000
70
192
0
VERTEX
8
OBJECT044
10
896.000000
20
1536.000000
30
262.875000
70
192
0
VERTEX
8
OBJECT044
10
0
20
0
30
0
70
128
71
2
72
3
73
-4
0
VERTEX
8
OBJECT044
10
0
20
0
30
0
70
128
71
-2
72
4
73
1
0
VERTEX
8
OBJECT044
10
0
20
0
30
0
70
128
71
6
72
2
73
-1
0
VERTEX
8
OBJECT044
10
0
20
0
30
0
70
128
71
-6
72
1
73
5
0
VERTEX
8
OBJECT044
10
0
20
0
30
0
70
128
71
6
72
5
73
-8
0
VERTEX
8
OBJECT044
10
0
20
0
30
0
70
128
71
-6
72
8
73
7
0
VERTEX
8
OBJECT044
10
0
20
0
30
0
70
128
71
5
72
1
73
-4
0
VERTEX
8
OBJECT044
10
0
20
0
30
0
70
128
71
-5
72
4
73
8
0
VERTEX
8
OBJECT044
10
0
20
0
30
0
70
128
71
2
72
6
73
-7
0
VERTEX
8
OBJECT044
10
0
20
0
30
0
70
128
71
-2
72
7
73
3
0
VERTEX
8
OBJECT044
10
0
20
0
30
0
70
128
71
8
72
4
73
-3
0
VERTEX
8
OBJECT044
10
0
20
0
30
0
70
128
71
-8
72
3
73
7
0
SEQEND
8
OBJECT044
0
POLYLINE
8
OBJECT045
66
1
70
64
71
6
72
8
62
50
0
VERTEX
8
OBJECT045
10
896.000000
20
1448.220093
30
244.000000
70
192
0
VERTEX
8
OBJECT045
10
896.000000
20
1441.416626
30
234.182877
70
192
0
VERTEX
8
OBJECT045
10
398.000000
20
1441.416626
30
234.182877
70
192
0
VERTEX
8
OBJECT045
10
398.000000
20
1448.220093
30
244.000000
70
192
0
VERTEX
8
OBJECT045
10
896.000000
20
1456.139771
30
244.000000
70
192
0
VERTEX
8
OBJECT045
10
398.000000
20
1456.139771
30
244.000000
70
192
0
VERTEX
8
OBJECT045
10
0
20
0
30
0
70
128
71
2
72
3
73
-4
0
VERTEX
8
OBJECT045
10
0
20
0
30
0
70
128
71
-2
72
4
73
1
0
VERTEX
8
OBJECT045
10
0
20
0
30
0
70
128
71
2
72
5
73
-6
0
VERTEX
8
OBJECT045
10
0
20
0
30
0
70
128
71
-2
72
6
73
3
0
VERTEX
8
OBJECT045
10
0
20
0
30
0
70
128
71
2
72
1
73
5
0
VERTEX
8
OBJECT045
10
0
20
0
30
0
70
128
71
4
72
6
73
-5
0
VERTEX
8
OBJECT045
10
0
20
0
30
0
70
128
71
-4
72
5
73
1
0
VERTEX
8
OBJECT045
10
0
20
0
30
0
70
128
71
3
72
6
73
4
0
SEQEND
8
OBJECT045
0
POLYLINE
8
OBJECT046
66
1
70
64
71
10
72
16
62
50
0
VERTEX
8
OBJECT046
10
896.000000
20
1461.281128
30
262.875000
70
192
0
VERTEX
8
OBJECT046
10
409.545013
20
1461.281128
30
262.875000
70
192
0
VERTEX
8
OBJECT046
10
409.545013
20
1484.459961
30
262.875000
70
192
0
VERTEX
8
OBJECT046
10
896.000000
20
1484.459961
30
262.875000
70
192
0
VERTEX
8
OBJECT046
10
398.000000
20
1451.249634
30
248.382019
70
192
0
VERTEX
8
OBJECT046
10
896.000000
20
1448.216797
30
244.000000
70
192
0
VERTEX
8
OBJECT046
10
398.000000
20
1448.216797
30
244.000000
70
192
0
VERTEX
8
OBJECT046
10
398.000000
20
1462.717896
30
248.382019
70
192
0
VERTEX
8
OBJECT046
10
398.000000
20
1456.144287
30
244.000000
70
192
0
VERTEX
8
OBJECT046
10
896.000000
20
1456.144287
30
244.000000
70
192
0
VERTEX
8
OBJECT046
10
0
20
0
30
0
70
128
71
2
72
3
73
-4
0
VERTEX
8
OBJECT046
10
0
20
0
30
0
70
128
71
-2
72
4
73
1
0
VERTEX
8
OBJECT046
10
0
20
0
30
0
70
128
71
2
72
1
73
-6
0
VERTEX
8
OBJECT046
10
0
20
0
30
0
70
128
71
-2
72
6
73
-7
0
VERTEX
8
OBJECT046
10
0
20
0
30
0
70
128
71
-2
72
7
73
5
0
VERTEX
8
OBJECT046
10
0
20
0
30
0
70
128
71
3
72
8
73
-9
0
VERTEX
8
OBJECT046
10
0
20
0
30
0
70
128
71
-3
72
9
73
-10
0
VERTEX
8
OBJECT046
10
0
20
0
30
0
70
128
71
-3
72
10
73
4
0
VERTEX
8
OBJECT046
10
0
20
0
30
0
70
128
71
1
72
4
73
-10
0
VERTEX
8
OBJECT046
10
0
20
0
30
0
70
128
71
-1
72
10
73
6
0
VERTEX
8
OBJECT046
10
0
20
0
30
0
70
128
71
2
72
5
73
-8
0
VERTEX
8
OBJECT046
10
0
20
0
30
0
70
128
71
-2
72
8
73
3
0
VERTEX
8
OBJECT046
10
0
20
0
30
0
70
128
71
9
72
7
73
-6
0
VERTEX
8
OBJECT046
10
0
20
0
30
0
70
128
71
-9
72
6
73
10
0
VERTEX
8
OBJECT046
10
0
20
0
30
0
70
128
71
7
72
9
73
-8
0
VERTEX
8
OBJECT046
10
0
20
0
30
0
70
128
71
-7
72
8
73
5
0
SEQEND
8
OBJECT046
0
POLYLINE
8
OBJECT047
66
1
70
64
71
12
72
20
62
50
0
VERTEX
8
OBJECT047
10
398.000000
20
1431.655884
30
244.362991
70
192
0
VERTEX
8
OBJECT047
10
896.000000
20
1431.655884
30
244.362991
70
192
0
VERTEX
8
OBJECT047
10
896.000000
20
1431.401001
30
244.000000
70
192
0
VERTEX
8
OBJECT047
10
398.000000
20
1431.401001
30
244.000000
70
192
0
VERTEX
8
OBJECT047
10
398.000000
20
1437.685547
30
248.382019
70
192
0
VERTEX
8
OBJECT047
10
409.545013
20
1459.433716
30
262.875000
70
192
0
VERTEX
8
OBJECT047
10
896.000000
20
1459.433716
30
262.875000
70
192
0
VERTEX
8
OBJECT047
10
409.545013
20
1461.280029
30
262.875000
70
192
0
VERTEX
8
OBJECT047
10
896.000000
20
1461.280029
30
262.875000
70
192
0
VERTEX
8
OBJECT047
10
896.000000
20
1448.211182
30
244.000000
70
192
0
VERTEX
8
OBJECT047
10
398.000000
20
1451.245483
30
248.381989
70
192
0
VERTEX
8
OBJECT047
10
398.000000
20
1448.211182
30
244.000000
70
192
0
VERTEX
8
OBJECT047
10
0
20
0
30
0
70
128
71
2
72
3
73
-4
0
VERTEX
8
OBJECT047
10
0
20
0
30
0
70
128
71
-2
72
4
73
1
0
VERTEX
8
OBJECT047
10
0
20
0
30
0
70
128
71
1
72
5
73
-6
0
VERTEX
8
OBJECT047
10
0
20
0
30
0
70
128
71
-1
72
6
73
-7
0
VERTEX
8
OBJECT047
10
0
20
0
30
0
70
128
71
-1
72
7
73
2
0
VERTEX
8
OBJECT047
10
0
20
0
30
0
70
128
71
6
72
8
73
-9
0
VERTEX
8
OBJECT047
10
0
20
0
30
0
70
128
71
-6
72
9
73
7
0
VERTEX
8
OBJECT047
10
0
20
0
30
0
70
128
71
9
72
8
73
-11
0
VERTEX
8
OBJECT047
10
0
20
0
30
0
70
128
71
-9
72
11
73
-12
0
VERTEX
8
OBJECT047
10
0
20
0
30
0
70
128
71
-9
72
12
73
10
0
VERTEX
8
OBJECT047
10
0
20
0
30
0
70
128
71
2
72
7
73
-9
0
VERTEX
8
OBJECT047
10
0
20
0
30
0
70
128
71
-2
72
9
73
-10
0
VERTEX
8
OBJECT047
10
0
20
0
30
0
70
128
71
-2
72
10
73
3
0
VERTEX
8
OBJECT047
10
0
20
0
30
0
70
128
71
8
72
6
73
-5
0
VERTEX
8
OBJECT047
10
0
20
0
30
0
70
128
71
-8
72
5
73
11
0
VERTEX
8
OBJECT047
10
0
20
0
30
0
70
128
71
12
72
4
73
-3
0
VERTEX
8
OBJECT047
10
0
20
0
30
0
70
128
71
-12
72
3
73
10
0
VERTEX
8
OBJECT047
10
0
20
0
30
0
70
128
71
4
72
12
73
-11
0
VERTEX
8
OBJECT047
10
0
20
0
30
0
70
128
71
-4
72
11
73
-5
0
VERTEX
8
OBJECT047
10
0
20
0
30
0
70
128
71
-4
72
5
73
1
0
SEQEND
8
OBJECT047
0
POLYLINE
8
OBJECT048
66
1
70
64
71
8
72
12
62
50
0
VERTEX
8
OBJECT048
10
896.000000
20
1479.279541
30
268.000000
70
192
0
VERTEX
8
OBJECT048
10
420.000000
20
1479.279541
30
268.000000
70
192
0
VERTEX
8
OBJECT048
10
420.000000
20
1536.000000
30
268.000000
70
192
0
VERTEX
8
OBJECT048
10
896.000000
20
1536.000000
30
268.000000
70
192
0
VERTEX
8
OBJECT048
10
896.000000
20
1459.601440
30
254.875000
70
192
0
VERTEX
8
OBJECT048
10
409.542969
20
1459.601440
30
254.875000
70
192
0
VERTEX
8
OBJECT048
10
409.542969
20
1536.000000
30
254.875000
70
192
0
VERTEX
8
OBJECT048
10
896.000000
20
1536.000000
30
254.875000
70
192
0
VERTEX
8
OBJECT048
10
0
20
0
30
0
70
128
71
2
72
3
73
-4
0
VERTEX
8
OBJECT048
10
0
20
0
30
0
70
128
71
-2
72
4
73
1
0
VERTEX
8
OBJECT048
10
0
20
0
30
0
70
128
71
6
72
2
73
-1
0
VERTEX
8
OBJECT048
10
0
20
0
30
0
70
128
71
-6
72
1
73
5
0
VERTEX
8
OBJECT048
10
0
20
0
30
0
70
128
71
6
72
5
73
-8
0
VERTEX
8
OBJECT048
10
0
20
0
30
0
70
128
71
-6
72
8
73
7
0
VERTEX
8
OBJECT048
10
0
20
0
30
0
70
128
71
5
72
1
73
-4
0
VERTEX
8
OBJECT048
10
0
20
0
30
0
70
128
71
-5
72
4
73
8
0
VERTEX
8
OBJECT048
10
0
20
0
30
0
70
128
71
2
72
6
73
-7
0
VERTEX
8
OBJECT048
10
0
20
0
30
0
70
128
71
-2
72
7
73
3
0
VERTEX
8
OBJECT048
10
0
20
0
30
0
70
128
71
8
72
4
73
-3
0
VERTEX
8
OBJECT048
10
0
20
0
30
0
70
128
71
-8
72
3
73
7
0
SEQEND
8
OBJECT048
0
POLYLINE
8
OBJECT049
66
1
70
64
71
10
72
16
62
50
0
VERTEX
8
OBJECT049
10
896.000000
20
1587.540161
30
262.875000
70
192
0
VERTEX
8
OBJECT049
10
409.545013
20
1587.540161
30
262.875000
70
192
0
VERTEX
8
OBJECT049
10
409.545013
20
1610.721436
30
262.875000
70
192
0
VERTEX
8
OBJECT049
10
896.000000
20
1610.721436
30
262.875000
70
192
0
VERTEX
8
OBJECT049
10
896.000000
20
1623.779785
30
244.000000
70
192
0
VERTEX
8
OBJECT049
10
398.000000
20
1620.747803
30
248.381989
70
192
0
VERTEX
8
OBJECT049
10
398.000000
20
1623.779785
30
244.000000
70
192
0
VERTEX
8
OBJECT049
10
398.000000
20
1609.280884
30
248.382019
70
192
0
VERTEX
8
OBJECT049
10
896.000000
20
1615.854492
30
244.000000
70
192
0
VERTEX
8
OBJECT049
10
398.000000
20
1615.854492
30
244.000000
70
192
0
VERTEX
8
OBJECT049
10
0
20
0
30
0
70
128
71
2
72
3
73
-4
0
VERTEX
8
OBJECT049
10
0
20
0
30
0
70
128
71
-2
72
4
73
1
0
VERTEX
8
OBJECT049
10
0
20
0
30
0
70
128
71
4
72
3
73
-6
0
VERTEX
8
OBJECT049
10
0
20
0
30
0
70
128
71
-4
72
6
73
-7
0
VERTEX
8
OBJECT049
10
0
20
0
30
0
70
128
71
-4
72
7
73
5
0
VERTEX
8
OBJECT049
10
0
20
0
30
0
70
128
71
2
72
1
73
-9
0
VERTEX
8
OBJECT049
10
0
20
0
30
0
70
128
71
-2
72
9
73
-10
0
VERTEX
8
OBJECT049
10
0
20
0
30
0
70
128
71
-2
72
10
73
8
0
VERTEX
8
OBJECT049
10
0
20
0
30
0
70
128
71
4
72
5
73
-9
0
VERTEX
8
OBJECT049
10
0
20
0
30
0
70
128
71
-4
72
9
73
1
0
VERTEX
8
OBJECT049
10
0
20
0
30
0
70
128
71
3
72
2
73
-8
0
VERTEX
8
OBJECT049
10
0
20
0
30
0
70
128
71
-3
72
8
73
6
0
VERTEX
8
OBJECT049
10
0
20
0
30
0
70
128
71
7
72
10
73
-9
0
VERTEX
8
OBJECT049
10
0
20
0
30
0
70
128
71
-7
72
9
73
5
0
VERTEX
8
OBJECT049
10
0
20
0
30
0
70
128
71
6
72
8
73
-10
0
VERTEX
8
OBJECT049
10
0
20
0
30
0
70
128
71
-6
72
10
73
7
0
SEQEND
8
OBJECT049
0
POLYLINE
8
OBJECT050
66
1
70
64
71
8
72
12
62
50
0
VERTEX
8
OBJECT050
10
420.000000
20
1536.000000
30
276.000000
70
192
0
VERTEX
8
OBJECT050
10
420.000000
20
1592.880737
30
276.000000
70
192
0
VERTEX
8
OBJECT050
10
896.000000
20
1592.880737
30
276.000000
70
192
0
VERTEX
8
OBJECT050
10
896.000000
20
1536.000000
30
276.000000
70
192
0
VERTEX
8
OBJECT050
10
409.543030
20
1612.560059
30
262.875000
70
192
0
VERTEX
8
OBJECT050
10
896.000000
20
1612.560059
30
262.875000
70
192
0
VERTEX
8
OBJECT050
10
409.543030
20
1536.000000
30
262.875000
70
192
0
VERTEX
8
OBJECT050
10
896.000000
20
1536.000000
30
262.875000
70
192
0
VERTEX
8
OBJECT050
10
0
20
0
30
0
70
128
71
2
72
3
73
-4
0
VERTEX
8
OBJECT050
10
0
20
0
30
0
70
128
71
-2
72
4
73
1
0
VERTEX
8
OBJECT050
10
0
20
0
30
0
70
128
71
2
72
5
73
-6
0
VERTEX
8
OBJECT050
10
0
20
0
30
0
70
128
71
-2
72
6
73
3
0
VERTEX
8
OBJECT050
10
0
20
0
30
0
70
128
71
5
72
7
73
-8
0
VERTEX
8
OBJECT050
10
0
20
0
30
0
70
128
71
-5
72
8
73
6
0
VERTEX
8
OBJECT050
10
0
20
0
30
0
70
128
71
3
72
6
73
-8
0
VERTEX
8
OBJECT050
10
0
20
0
30
0
70
128
71
-3
72
8
73
4
0
VERTEX
8
OBJECT050
10
0
20
0
30
0
70
128
71
5
72
2
73
-1
0
VERTEX
8
OBJECT050
10
0
20
0
30
0
70
128
71
-5
72
1
73
7
0
VERTEX
8
OBJECT050
10
0
20
0
30
0
70
128
71
7
72
1
73
-4
0
VERTEX
8
OBJECT050
10
0
20
0
30
0
70
128
71
-7
72
4
73
8
0
SEQEND
8
OBJECT050
0
POLYLINE
8
OBJECT051
66
1
70
64
71
8
72
12
62
50
0
VERTEX
8
OBJECT051
10
420.000000
20
1536.000000
30
268.000000
70
192
0
VERTEX
8
OBJECT051
10
420.000000
20
1592.718872
30
268.000000
70
192
0
VERTEX
8
OBJECT051
10
896.000000
20
1592.718872
30
268.000000
70
192
0
VERTEX
8
OBJECT051
10
896.000000
20
1536.000000
30
268.000000
70
192
0
VERTEX
8
OBJECT051
10
409.545013
20
1612.399536
30
254.875000
70
192
0
VERTEX
8
OBJECT051
10
896.000000
20
1612.399536
30
254.875000
70
192
0
VERTEX
8
OBJECT051
10
409.545013
20
1536.000000
30
254.875000
70
192
0
VERTEX
8
OBJECT051
10
896.000000
20
1536.000000
30
254.875000
70
192
0
VERTEX
8
OBJECT051
10
0
20
0
30
0
70
128
71
2
72
3
73
-4
0
VERTEX
8
OBJECT051
10
0
20
0
30
0
70
128
71
-2
72
4
73
1
0
VERTEX
8
OBJECT051
10
0
20
0
30
0
70
128
71
2
72
5
73
-6
0
VERTEX
8
OBJECT051
10
0
20
0
30
0
70
128
71
-2
72
6
73
3
0
VERTEX
8
OBJECT051
10
0
20
0
30
0
70
128
71
5
72
7
73
-8
0
VERTEX
8
OBJECT051
10
0
20
0
30
0
70
128
71
-5
72
8
73
6
0
VERTEX
8
OBJECT051
10
0
20
0
30
0
70
128
71
3
72
6
73
-8
0
VERTEX
8
OBJECT051
10
0
20
0
30
0
70
128
71
-3
72
8
73
4
0
VERTEX
8
OBJECT051
10
0
20
0
30
0
70
128
71
5
72
2
73
-1
0
VERTEX
8
OBJECT051
10
0
20
0
30
0
70
128
71
-5
72
1
73
7
0
VERTEX
8
OBJECT051
10
0
20
0
30
0
70
128
71
7
72
1
73
-4
0
VERTEX
8
OBJECT051
10
0
20
0
30
0
70
128
71
-7
72
4
73
8
0
SEQEND
8
OBJECT051
0
POLYLINE
8
OBJECT052
66
1
70
64
71
12
72
20
62
50
0
VERTEX
8
OBJECT052
10
896.000000
20
1640.600342
30
244.000000
70
192
0
VERTEX
8
OBJECT052
10
896.000000
20
1640.346191
30
244.362900
70
192
0
VERTEX
8
OBJECT052
10
398.000000
20
1640.346191
30
244.362900
70
192
0
VERTEX
8
OBJECT052
10
398.000000
20
1640.600342
30
244.000000
70
192
0
VERTEX
8
OBJECT052
10
896.000000
20
1612.559448
30
262.875000
70
192
0
VERTEX
8
OBJECT052
10
409.546997
20
1612.559448
30
262.875000
70
192
0
VERTEX
8
OBJECT052
10
398.000000
20
1634.313965
30
248.380997
70
192
0
VERTEX
8
OBJECT052
10
896.000000
20
1610.720093
30
262.875000
70
192
0
VERTEX
8
OBJECT052
10
409.546997
20
1610.720093
30
262.875000
70
192
0
VERTEX
8
OBJECT052
10
398.000000
20
1620.751709
30
248.380981
70
192
0
VERTEX
8
OBJECT052
10
896.000000
20
1623.783813
30
244.000000
70
192
0
VERTEX
8
OBJECT052
10
398.000000
20
1623.783813
30
244.000000
70
192
0
VERTEX
8
OBJECT052
10
0
20
0
30
0
70
128
71
2
72
3
73
-4
0
VERTEX
8
OBJECT052
10
0
20
0
30
0
70
128
71
-2
72
4
73
1
0
VERTEX
8
OBJECT052
10
0
20
0
30
0
70
128
71
6
72
7
73
-3
0
VERTEX
8
OBJECT052
10
0
20
0
30
0
70
128
71
-6
72
3
73
-2
0
VERTEX
8
OBJECT052
10
0
20
0
30
0
70
128
71
-6
72
2
73
5
0
VERTEX
8
OBJECT052
10
0
20
0
30
0
70
128
71
9
72
6
73
-5
0
VERTEX
8
OBJECT052
10
0
20
0
30
0
70
128
71
-9
72
5
73
8
0
VERTEX
8
OBJECT052
10
0
20
0
30
0
70
128
71
9
72
8
73
-11
0
VERTEX
8
OBJECT052
10
0
20
0
30
0
70
128
71
-9
72
11
73
-12
0
VERTEX
8
OBJECT052
10
0
20
0
30
0
70
128
71
-9
72
12
73
10
0
VERTEX
8
OBJECT052
10
0
20
0
30
0
70
128
71
1
72
11
73
-8
0
VERTEX
8
OBJECT052
10
0
20
0
30
0
70
128
71
-1
72
8
73
-5
0
VERTEX
8
OBJECT052
10
0
20
0
30
0
70
128
71
-1
72
5
73
2
0
VERTEX
8
OBJECT052
10
0
20
0
30
0
70
128
71
6
72
9
73
-10
0
VERTEX
8
OBJECT052
10
0
20
0
30
0
70
128
71
-6
72
10
73
7
0
VERTEX
8
OBJECT052
10
0
20
0
30
0
70
128
71
4
72
12
73
-11
0
VERTEX
8
OBJECT052
10
0
20
0
30
0
70
128
71
-4
72
11
73
1
0
VERTEX
8
OBJECT052
10
0
20
0
30
0
70
128
71
3
72
7
73
-10
0
VERTEX
8
OBJECT052
10
0
20
0
30
0
70
128
71
-3
72
10
73
-12
0
VERTEX
8
OBJECT052
10
0
20
0
30
0
70
128
71
-3
72
12
73
4
0
SEQEND
8
OBJECT052
0
POLYLINE
8
OBJECT053
66
1
70
64
71
6
72
8
62
50
0
VERTEX
8
OBJECT053
10
398.000000
20
1630.565674
30
234.196411
70
192
0
VERTEX
8
OBJECT053
10
896.000000
20
1630.565674
30
234.196411
70
192
0
VERTEX
8
OBJECT053
10
896.000000
20
1623.779541
30
244.000000
70
192
0
VERTEX
8
OBJECT053
10
398.000000
20
1623.779541
30
244.000000
70
192
0
VERTEX
8
OBJECT053
10
398.000000
20
1615.861816
30
244.000000
70
192
0
VERTEX
8
OBJECT053
10
896.000000
20
1615.861816
30
244.000000
70
192
0
VERTEX
8
OBJECT053
10
0
20
0
30
0
70
128
71
2
72
3
73
-4
0
VERTEX
8
OBJECT053
10
0
20
0
30
0
70
128
71
-2
72
4
73
1
0
VERTEX
8
OBJECT053
10
0
20
0
30
0
70
128
71
1
72
5
73
-6
0
VERTEX
8
OBJECT053
10
0
20
0
30
0
70
128
71
-1
72
6
73
2
0
VERTEX
8
OBJECT053
10
0
20
0
30
0
70
128
71
2
72
6
73
3
0
VERTEX
8
OBJECT053
10
0
20
0
30
0
70
128
71
5
72
4
73
-3
0
VERTEX
8
OBJECT053
10
0
20
0
30
0
70
128
71
-5
72
3
73
6
0
VERTEX
8
OBJECT053
10
0
20
0
30
0
70
128
71
1
72
4
73
5
0
SEQEND
8
OBJECT053
0
POLYLINE
8
OBJECT054
66
1
70
64
71
12
72
20
62
50
0
VERTEX
8
OBJECT054
10
426.466278
20
1458.388916
30
232.255615
70
192
0
VERTEX
8
OBJECT054
10
426.466278
20
1619.611206
30
232.255615
70
192
0
VERTEX
8
OBJECT054
10
427.998810
20
1620.897095
30
230.969650
70
192
0
VERTEX
8
OBJECT054
10
427.998810
20
1457.102905
30
230.969650
70
192
0
VERTEX
8
OBJECT054
10
327.479431
20
1654.000000
30
114.285530
70
192
0
VERTEX
8
OBJECT054
10
327.479431
20
1424.000000
30
114.285530
70
192
0
VERTEX
8
OBJECT054
10
329.010925
20
1424.000000
30
113.000458
70
192
0
VERTEX
8
OBJECT054
10
329.010925
20
1654.000000
30
113.000458
70
192
0
VERTEX
8
OBJECT054
10
397.612579
20
1654.000000
30
197.866730
70
192
0
VERTEX
8
OBJECT054
10
397.612549
20
1424.000000
30
197.866730
70
192
0
VERTEX
8
OBJECT054
10
400.222168
20
1424.000000
30
197.866730
70
192
0
VERTEX
8
OBJECT054
10
400.222198
20
1654.000000
30
197.866730
70
192
0
VERTEX
8
OBJECT054
10
0
20
0
30
0
70
128
71
2
72
3
73
-4
0
VERTEX
8
OBJECT054
10
0
20
0
30
0
70
128
71
-2
72
4
73
1
0
VERTEX
8
OBJECT054
10
0
20
0
30
0
70
128
71
6
72
7
73
-8
0
VERTEX
8
OBJECT054
10
0
20
0
30
0
70
128
71
-6
72
8
73
5
0
VERTEX
8
OBJECT054
10
0
20
0
30
0
70
128
71
5
72
9
73
-2
0
VERTEX
8
OBJECT054
10
0
20
0
30
0
70
128
71
-5
72
2
73
-1
0
VERTEX
8
OBJECT054
10
0
20
0
30
0
70
128
71
-5
72
1
73
-10
0
VERTEX
8
OBJECT054
10
0
20
0
30
0
70
128
71
-5
72
10
73
6
0
VERTEX
8
OBJECT054
10
0
20
0
30
0
70
128
71
7
72
11
73
-4
0
VERTEX
8
OBJECT054
10
0
20
0
30
0
70
128
71
-7
72
4
73
-3
0
VERTEX
8
OBJECT054
10
0
20
0
30
0
70
128
71
-7
72
3
73
-12
0
VERTEX
8
OBJECT054
10
0
20
0
30
0
70
128
71
-7
72
12
73
8
0
VERTEX
8
OBJECT054
10
0
20
0
30
0
70
128
71
8
72
12
73
-9
0
VERTEX
8
OBJECT054
10
0
20
0
30
0
70
128
71
-8
72
9
73
5
0
VERTEX
8
OBJECT054
10
0
20
0
30
0
70
128
71
6
72
10
73
-11
0
VERTEX
8
OBJECT054
10
0
20
0
30
0
70
128
71
-6
72
11
73
7
0
VERTEX
8
OBJECT054
10
0
20
0
30
0
70
128
71
1
72
4
73
-11
0
VERTEX
8
OBJECT054
10
0
20
0
30
0
70
128
71
-1
72
11
73
10
0
VERTEX
8
OBJECT054
10
0
20
0
30
0
70
128
71
3
72
2
73
-9
0
VERTEX
8
OBJECT054
10
0
20
0
30
0
70
128
71
-3
72
9
73
12
0
SEQEND
8
OBJECT054
0
POLYLINE
8
OBJECT055
66
1
70
64
71
6
72
8
62
50
0
VERTEX
8
OBJECT055
10
896.000000
20
1472.000000
30
200.000000
70
192
0
VERTEX
8
OBJECT055
10
896.000000
20
1472.000000
30
224.000000
70
192
0
VERTEX
8
OBJECT055
10
896.000000
20
1496.000000
30
224.000000
70
192
0
VERTEX
8
OBJECT055
10
880.000000
20
1472.000000
30
224.000000
70
192
0
VERTEX
8
OBJECT055
10
880.000000
20
1472.000000
30
200.000000
70
192
0
VERTEX
8
OBJECT055
10
880.000000
20
1496.000000
30
224.000000
70
192
0
VERTEX
8
OBJECT055
10
0
20
0
30
0
70
128
71
2
72
3
73
1
0
VERTEX
8
OBJECT055
10
0
20
0
30
0
70
128
71
5
72
6
73
4
0
VERTEX
8
OBJECT055
10
0
20
0
30
0
70
128
71
1
72
5
73
-4
0
VERTEX
8
OBJECT055
10
0
20
0
30
0
70
128
71
-1
72
4
73
2
0
VERTEX
8
OBJECT055
10
0
20
0
30
0
70
128
71
6
72
3
73
-2
0
VERTEX
8
OBJECT055
10
0
20
0
30
0
70
128
71
-6
72
2
73
4
0
VERTEX
8
OBJECT055
10
0
20
0
30
0
70
128
71
5
72
1
73
-3
0
VERTEX
8
OBJECT055
10
0
20
0
30
0
70
128
71
-5
72
3
73
6
0
SEQEND
8
OBJECT055
0
POLYLINE
8
OBJECT056
66
1
70
64
71
16
72
28
62
50
0
VERTEX
8
OBJECT056
10
896.000000
20
1472.000000
30
12.000000
70
192
0
VERTEX
8
OBJECT056
10
896.000000
20
1466.000000
30
12.000000
70
192
0
VERTEX
8
OBJECT056
10
896.000000
20
1441.236450
30
28.511141
70
192
0
VERTEX
8
OBJECT056
10
896.000000
20
1408.000000
30
76.000000
70
192
0
VERTEX
8
OBJECT056
10
896.000000
20
1408.000000
30
180.000000
70
192
0
VERTEX
8
OBJECT056
10
896.000000
20
1440.579224
30
227.055511
70
192
0
VERTEX
8
OBJECT056
10
896.000000
20
1466.000000
30
244.000000
70
192
0
VERTEX
8
OBJECT056
10
896.000000
20
1472.000000
30
244.000000
70
192
0
VERTEX
8
OBJECT056
10
880.000000
20
1408.000000
30
76.000000
70
192
0
VERTEX
8
OBJECT056
10
880.000000
20
1408.000000
30
180.000000
70
192
0
VERTEX
8
OBJECT056
10
880.000000
20
1440.579346
30
227.055588
70
192
0
VERTEX
8
OBJECT056
10
880.000000
20
1466.000000
30
244.000000
70
192
0
VERTEX
8
OBJECT056
10
880.000000
20
1441.238159
30
28.508602
70
192
0
VERTEX
8
OBJECT056
10
880.000000
20
1466.000000
30
12.000000
70
192
0
VERTEX
8
OBJECT056
10
880.000000
20
1472.000000
30
244.000000
70
192
0
VERTEX
8
OBJECT056
10
880.000000
20
1472.000000
30
12.000000
70
192
0
VERTEX
8
OBJECT056
10
0
20
0
30
0
70
128
71
2
72
3
73
-4
0
VERTEX
8
OBJECT056
10
0
20
0
30
0
70
128
71
-2
72
4
73
-5
0
VERTEX
8
OBJECT056
10
0
20
0
30
0
70
128
71
-2
72
5
73
-6
0
VERTEX
8
OBJECT056
10
0
20
0
30
0
70
128
71
-2
72
6
73
-7
0
VERTEX
8
OBJECT056
10
0
20
0
30
0
70
128
71
-2
72
7
73
-8
0
VERTEX
8
OBJECT056
10
0
20
0
30
0
70
128
71
-2
72
8
73
1
0
VERTEX
8
OBJECT056
10
0
20
0
30
0
70
128
71
4
72
9
73
-10
0
VERTEX
8
OBJECT056
10
0
20
0
30
0
70
128
71
-4
72
10
73
5
0
VERTEX
8
OBJECT056
10
0
20
0
30
0
70
128
71
5
72
10
73
-11
0
VERTEX
8
OBJECT056
10
0
20
0
30
0
70
128
71
-5
72
11
73
6
0
VERTEX
8
OBJECT056
10
0
20
0
30
0
70
128
71
7
72
6
73
-11
0
VERTEX
8
OBJECT056
10
0
20
0
30
0
70
128
71
-7
72
11
73
12
0
VERTEX
8
OBJECT056
10
0
20
0
30
0
70
128
71
3
72
2
73
-14
0
VERTEX
8
OBJECT056
10
0
20
0
30
0
70
128
71
-3
72
14
73
13
0
VERTEX
8
OBJECT056
10
0
20
0
30
0
70
128
71
3
72
13
73
-9
0
VERTEX
8
OBJECT056
10
0
20
0
30
0
70
128
71
-3
72
9
73
4
0
VERTEX
8
OBJECT056
10
0
20
0
30
0
70
128
71
7
72
12
73
-15
0
VERTEX
8
OBJECT056
10
0
20
0
30
0
70
128
71
-7
72
15
73
8
0
VERTEX
8
OBJECT056
10
0
20
0
30
0
70
128
71
14
72
2
73
-1
0
VERTEX
8
OBJECT056
10
0
20
0
30
0
70
128
71
-14
72
1
73
16
0
VERTEX
8
OBJECT056
10
0
20
0
30
0
70
128
71
10
72
9
73
-13
0
VERTEX
8
OBJECT056
10
0
20
0
30
0
70
128
71
-10
72
13
73
-14
0
VERTEX
8
OBJECT056
10
0
20
0
30
0
70
128
71
-10
72
14
73
-16
0
VERTEX
8
OBJECT056
10
0
20
0
30
0
70
128
71
-10
72
16
73
-15
0
VERTEX
8
OBJECT056
10
0
20
0
30
0
70
128
71
-10
72
15
73
-12
0
VERTEX
8
OBJECT056
10
0
20
0
30
0
70
128
71
-10
72
12
73
11
0
VERTEX
8
OBJECT056
10
0
20
0
30
0
70
128
71
1
72
8
73
-15
0
VERTEX
8
OBJECT056
10
0
20
0
30
0
70
128
71
-1
72
15
73
16
0
SEQEND
8
OBJECT056
0
POLYLINE
8
OBJECT057
66
1
70
64
71
8
72
12
62
50
0
VERTEX
8
OBJECT057
10
896.000000
20
1472.000000
30
224.000000
70
192
0
VERTEX
8
OBJECT057
10
896.000000
20
1472.000000
30
244.000000
70
192
0
VERTEX
8
OBJECT057
10
896.000000
20
1600.000000
30
244.000000
70
192
0
VERTEX
8
OBJECT057
10
896.000000
20
1600.000000
30
224.000000
70
192
0
VERTEX
8
OBJECT057
10
880.000000
20
1472.000000
30
244.000000
70
192
0
VERTEX
8
OBJECT057
10
880.000000
20
1600.000000
30
244.000000
70
192
0
VERTEX
8
OBJECT057
10
880.000000
20
1600.000000
30
224.000000
70
192
0
VERTEX
8
OBJECT057
10
880.000000
20
1472.000000
30
224.000000
70
192
0
VERTEX
8
OBJECT057
10
0
20
0
30
0
70
128
71
2
72
3
73
-4
0
VERTEX
8
OBJECT057
10
0
20
0
30
0
70
128
71
-2
72
4
73
1
0
VERTEX
8
OBJECT057
10
0
20
0
30
0
70
128
71
6
72
3
73
-2
0
VERTEX
8
OBJECT057
10
0
20
0
30
0
70
128
71
-6
72
2
73
5
0
VERTEX
8
OBJECT057
10
0
20
0
30
0
70
128
71
6
72
5
73
-8
0
VERTEX
8
OBJECT057
10
0
20
0
30
0
70
128
71
-6
72
8
73
7
0
VERTEX
8
OBJECT057
10
0
20
0
30
0
70
128
71
1
72
8
73
-5
0
VERTEX
8
OBJECT057
10
0
20
0
30
0
70
128
71
-1
72
5
73
2
0
VERTEX
8
OBJECT057
10
0
20
0
30
0
70
128
71
3
72
6
73
-7
0
VERTEX
8
OBJECT057
10
0
20
0
30
0
70
128
71
-3
72
7
73
4
0
VERTEX
8
OBJECT057
10
0
20
0
30
0
70
128
71
8
72
1
73
-4
0
VERTEX
8
OBJECT057
10
0
20
0
30
0
70
128
71
-8
72
4
73
7
0
SEQEND
8
OBJECT057
0
POLYLINE
8
OBJECT058
66
1
70
64
71
16
72
28
62
50
0
VERTEX
8
OBJECT058
10
896.000000
20
1664.000000
30
180.000000
70
192
0
VERTEX
8
OBJECT058
10
896.000000
20
1664.000000
30
76.000000
70
192
0
VERTEX
8
OBJECT058
10
896.000000
20
1630.411621
30
25.608400
70
192
0
VERTEX
8
OBJECT058
10
896.000000
20
1610.000000
30
12.000000
70
192
0
VERTEX
8
OBJECT058
10
896.000000
20
1600.000000
30
12.000000
70
192
0
VERTEX
8
OBJECT058
10
896.000000
20
1600.000000
30
244.000000
70
192
0
VERTEX
8
OBJECT058
10
896.000000
20
1605.338867
30
244.000000
70
192
0
VERTEX
8
OBJECT058
10
896.000000
20
1636.589722
30
222.363403
70
192
0
VERTEX
8
OBJECT058
10
880.000000
20
1664.000000
30
76.000000
70
192
0
VERTEX
8
OBJECT058
10
880.000000
20
1664.000000
30
180.000000
70
192
0
VERTEX
8
OBJECT058
10
880.000000
20
1636.587891
30
222.366104
70
192
0
VERTEX
8
OBJECT058
10
880.000000
20
1605.340942
30
244.000000
70
192
0
VERTEX
8
OBJECT058
10
880.000000
20
1630.409546
30
25.607037
70
192
0
VERTEX
8
OBJECT058
10
880.000000
20
1610.000000
30
12.000000
70
192
0
VERTEX
8
OBJECT058
10
880.000000
20
1600.000000
30
244.000000
70
192
0
VERTEX
8
OBJECT058
10
880.000000
20
1600.000000
30
12.000000
70
192
0
VERTEX
8
OBJECT058
10
0
20
0
30
0
70
128
71
2
72
3
73
-4
0
VERTEX
8
OBJECT058
10
0
20
0
30
0
70
128
71
-2
72
4
73
-5
0
VERTEX
8
OBJECT058
10
0
20
0
30
0
70
128
71
-2
72
5
73
-6
0
VERTEX
8
OBJECT058
10
0
20
0
30
0
70
128
71
-2
72
6
73
-7
0
VERTEX
8
OBJECT058
10
0
20
0
30
0
70
128
71
-2
72
7
73
-8
0
VERTEX
8
OBJECT058
10
0
20
0
30
0
70
128
71
-2
72
8
73
1
0
VERTEX
8
OBJECT058
10
0
20
0
30
0
70
128
71
2
72
1
73
-10
0
VERTEX
8
OBJECT058
10
0
20
0
30
0
70
128
71
-2
72
10
73
9
0
VERTEX
8
OBJECT058
10
0
20
0
30
0
70
128
71
8
72
7
73
-12
0
VERTEX
8
OBJECT058
10
0
20
0
30
0
70
128
71
-8
72
12
73
11
0
VERTEX
8
OBJECT058
10
0
20
0
30
0
70
128
71
1
72
8
73
-11
0
VERTEX
8
OBJECT058
10
0
20
0
30
0
70
128
71
-1
72
11
73
10
0
VERTEX
8
OBJECT058
10
0
20
0
30
0
70
128
71
3
72
2
73
-9
0
VERTEX
8
OBJECT058
10
0
20
0
30
0
70
128
71
-3
72
9
73
13
0
VERTEX
8
OBJECT058
10
0
20
0
30
0
70
128
71
4
72
3
73
-13
0
VERTEX
8
OBJECT058
10
0
20
0
30
0
70
128
71
-4
72
13
73
14
0
VERTEX
8
OBJECT058
10
0
20
0
30
0
70
128
71
12
72
7
73
-6
0
VERTEX
8
OBJECT058
10
0
20
0
30
0
70
128
71
-12
72
6
73
15
0
VERTEX
8
OBJECT058
10
0
20
0
30
0
70
128
71
4
72
14
73
-16
0
VERTEX
8
OBJECT058
10
0
20
0
30
0
70
128
71
-4
72
16
73
5
0
VERTEX
8
OBJECT058
10
0
20
0
30
0
70
128
71
14
72
13
73
-9
0
VERTEX
8
OBJECT058
10
0
20
0
30
0
70
128
71
-14
72
9
73
-10
0
VERTEX
8
OBJECT058
10
0
20
0
30
0
70
128
71
-14
72
10
73
-11
0
VERTEX
8
OBJECT058
10
0
20
0
30
0
70
128
71
-14
72
11
73
-12
0
VERTEX
8
OBJECT058
10
0
20
0
30
0
70
128
71
-14
72
12
73
-15
0
VERTEX
8
OBJECT058
10
0
20
0
30
0
70
128
71
-14
72
15
73
16
0
VERTEX
8
OBJECT058
10
0
20
0
30
0
70
128
71
5
72
16
73
-15
0
VERTEX
8
OBJECT058
10
0
20
0
30
0
70
128
71
-5
72
15
73
6
0
SEQEND
8
OBJECT058
0
POLYLINE
8
OBJECT059
66
1
70
64
71
6
72
8
62
50
0
VERTEX
8
OBJECT059
10
896.000000
20
1600.000000
30
224.000000
70
192
0
VERTEX
8
OBJECT059
10
896.000000
20
1600.000000
30
200.000000
70
192
0
VERTEX
8
OBJECT059
10
896.000000
20
1576.000000
30
224.000000
70
192
0
VERTEX
8
OBJECT059
10
880.000000
20
1600.000000
30
200.000000
70
192
0
VERTEX
8
OBJECT059
10
880.000000
20
1600.000000
30
224.000000
70
192
0
VERTEX
8
OBJECT059
10
880.000000
20
1576.000000
30
224.000000
70
192
0
VERTEX
8
OBJECT059
10
0
20
0
30
0
70
128
71
2
72
3
73
1
0
VERTEX
8
OBJECT059
10
0
20
0
30
0
70
128
71
5
72
6
73
4
0
VERTEX
8
OBJECT059
10
0
20
0
30
0
70
128
71
4
72
2
73
-1
0
VERTEX
8
OBJECT059
10
0
20
0
30
0
70
128
71
-4
72
1
73
5
0
VERTEX
8
OBJECT059
10
0
20
0
30
0
70
128
71
5
72
1
73
-3
0
VERTEX
8
OBJECT059
10
0
20
0
30
0
70
128
71
-5
72
3
73
6
0
VERTEX
8
OBJECT059
10
0
20
0
30
0
70
128
71
2
72
4
73
-6
0
VERTEX
8
OBJECT059
10
0
20
0
30
0
70
128
71
-2
72
6
73
3
0
SEQEND
8
OBJECT059
0
ENDSEC
0
EOF
