0
SECTION
2
HEADER
9
$ACADVER
1
AC1008
9
$UCSORG
10
0.0
20
0.0
30
0.0
9
$UCSXDIR
10
1.0
20
0.0
30
0.0
9
$TILEMODE
70
1
9
$UCSYDIR
10
0.0
20
1.0
30
0.0
9
$EXTMIN
10
-444.000000
20
-339.000000
30
39.000000
9
$EXTMAX
10
75.000000
20
175.000015
30
542.000000
0
ENDSEC
0
SECTION
2
TABLES
0
TABLE
2
LTYPE
70
1
0
LTYPE
2
CONTINUOUS
70
64
3
Solid line
72
65
73
0
40
0.0
0
ENDTAB
0
TABLE
2
LAYER
70
1
0
LAYER
2
0
70
0
62
7
6
CONTINUOUS
0
ENDTAB
0
TABLE
2
STYLE
70
1
0
STYLE
2
STANDARD
70
0
40
0.0
41
1.0
50
0.0
71
0
42
0.2
3
txt
4

0
ENDTAB
0
TABLE
2
UCS
70
0
0
ENDTAB
0
ENDSEC
0
SECTION
2
ENTITIES
0
POLYLINE
8
OBJECT000
66
1
70
64
71
4
72
4
62
50
0
VERTEX
8
OBJECT000
10
-369.342407
20
-272.512604
30
469.650726
70
192
0
VERTEX
8
OBJECT000
10
-369.342407
20
-260.100037
30
482.722321
70
192
0
VERTEX
8
OBJECT000
10
-344.190002
20
-260.100037
30
482.722321
70
192
0
VERTEX
8
OBJECT000
10
-369.342407
20
-260.100037
30
469.650726
70
192
0
VERTEX
8
OBJECT000
10
0
20
0
30
0
70
128
71
2
72
3
73
1
0
VERTEX
8
OBJECT000
10
0
20
0
30
0
70
128
71
2
72
4
73
3
0
VERTEX
8
OBJECT000
10
0
20
0
30
0
70
128
71
1
72
4
73
2
0
VERTEX
8
OBJECT000
10
0
20
0
30
0
70
128
71
3
72
4
73
1
0
SEQEND
8
OBJECT000
0
POLYLINE
8
OBJECT001
66
1
70
64
71
4
72
4
62
50
0
VERTEX
8
OBJECT001
10
-29.500748
20
-260.100037
30
482.722321
70
192
0
VERTEX
8
OBJECT001
10
-2.618674
20
-260.100037
30
482.722321
70
192
0
VERTEX
8
OBJECT001
10
-2.618674
20
-273.479645
30
468.632294
70
192
0
VERTEX
8
OBJECT001
10
-2.618674
20
-260.100037
30
468.632294
70
192
0
VERTEX
8
OBJECT001
10
0
20
0
30
0
70
128
71
2
72
3
73
1
0
VERTEX
8
OBJECT001
10
0
20
0
30
0
70
128
71
2
72
1
73
4
0
VERTEX
8
OBJECT001
10
0
20
0
30
0
70
128
71
2
72
4
73
3
0
VERTEX
8
OBJECT001
10
0
20
0
30
0
70
128
71
3
72
4
73
1
0
SEQEND
8
OBJECT001
0
POLYLINE
8
OBJECT002
66
1
70
64
71
6
72
8
62
50
0
VERTEX
8
OBJECT002
10
-2.618674
20
-260.100037
30
99.000000
70
192
0
VERTEX
8
OBJECT002
10
-27.132292
20
-260.100037
30
99.000000
70
192
0
VERTEX
8
OBJECT002
10
-27.132292
20
-260.838715
30
99.000000
70
192
0
VERTEX
8
OBJECT002
10
-2.618674
20
-260.838715
30
99.000000
70
192
0
VERTEX
8
OBJECT002
10
-2.618674
20
-268.182129
30
111.621750
70
192
0
VERTEX
8
OBJECT002
10
-2.618674
20
-260.100037
30
111.621750
70
192
0
VERTEX
8
OBJECT002
10
0
20
0
30
0
70
128
71
2
72
3
73
-4
0
VERTEX
8
OBJECT002
10
0
20
0
30
0
70
128
71
-2
72
4
73
1
0
VERTEX
8
OBJECT002
10
0
20
0
30
0
70
128
71
3
72
5
73
4
0
VERTEX
8
OBJECT002
10
0
20
0
30
0
70
128
71
1
72
6
73
2
0
VERTEX
8
OBJECT002
10
0
20
0
30
0
70
128
71
4
72
5
73
-6
0
VERTEX
8
OBJECT002
10
0
20
0
30
0
70
128
71
-4
72
6
73
1
0
VERTEX
8
OBJECT002
10
0
20
0
30
0
70
128
71
3
72
2
73
-6
0
VERTEX
8
OBJECT002
10
0
20
0
30
0
70
128
71
-3
72
6
73
5
0
SEQEND
8
OBJECT002
0
POLYLINE
8
OBJECT003
66
1
70
64
71
6
72
8
62
50
0
VERTEX
8
OBJECT003
10
-344.655975
20
-260.100037
30
99.000000
70
192
0
VERTEX
8
OBJECT003
10
-369.342407
20
-260.100037
30
99.000000
70
192
0
VERTEX
8
OBJECT003
10
-369.342407
20
-260.838715
30
99.000000
70
192
0
VERTEX
8
OBJECT003
10
-344.655975
20
-260.838715
30
99.000000
70
192
0
VERTEX
8
OBJECT003
10
-369.342407
20
-268.252838
30
111.743301
70
192
0
VERTEX
8
OBJECT003
10
-369.342407
20
-260.100037
30
111.743301
70
192
0
VERTEX
8
OBJECT003
10
0
20
0
30
0
70
128
71
2
72
3
73
-4
0
VERTEX
8
OBJECT003
10
0
20
0
30
0
70
128
71
-2
72
4
73
1
0
VERTEX
8
OBJECT003
10
0
20
0
30
0
70
128
71
3
72
5
73
4
0
VERTEX
8
OBJECT003
10
0
20
0
30
0
70
128
71
1
72
6
73
2
0
VERTEX
8
OBJECT003
10
0
20
0
30
0
70
128
71
3
72
2
73
-6
0
VERTEX
8
OBJECT003
10
0
20
0
30
0
70
128
71
-3
72
6
73
5
0
VERTEX
8
OBJECT003
10
0
20
0
30
0
70
128
71
4
72
5
73
-6
0
VERTEX
8
OBJECT003
10
0
20
0
30
0
70
128
71
-4
72
6
73
1
0
SEQEND
8
OBJECT003
0
POLYLINE
8
OBJECT004
66
1
70
64
71
12
72
20
62
50
0
VERTEX
8
OBJECT004
10
-2.618673
20
-260.839600
30
99.000000
70
192
0
VERTEX
8
OBJECT004
10
17.000000
20
-260.839600
30
99.000000
70
192
0
VERTEX
8
OBJECT004
10
17.000000
20
-260.100037
30
99.000000
70
192
0
VERTEX
8
OBJECT004
10
-2.618673
20
-260.100037
30
99.000000
70
192
0
VERTEX
8
OBJECT004
10
17.000000
20
-338.000000
30
231.638199
70
192
0
VERTEX
8
OBJECT004
10
-2.618673
20
-338.000000
30
231.638199
70
192
0
VERTEX
8
OBJECT004
10
-2.618673
20
-338.000000
30
356.476807
70
192
0
VERTEX
8
OBJECT004
10
17.000000
20
-338.000000
30
356.476807
70
192
0
VERTEX
8
OBJECT004
10
17.000000
20
-274.355469
30
467.711639
70
192
0
VERTEX
8
OBJECT004
10
-2.618673
20
-274.355469
30
467.711639
70
192
0
VERTEX
8
OBJECT004
10
-2.618673
20
-260.100037
30
482.721405
70
192
0
VERTEX
8
OBJECT004
10
17.000000
20
-260.100037
30
482.721405
70
192
0
VERTEX
8
OBJECT004
10
0
20
0
30
0
70
128
71
2
72
3
73
-4
0
VERTEX
8
OBJECT004
10
0
20
0
30
0
70
128
71
-2
72
4
73
1
0
VERTEX
8
OBJECT004
10
0
20
0
30
0
70
128
71
6
72
7
73
-8
0
VERTEX
8
OBJECT004
10
0
20
0
30
0
70
128
71
-6
72
8
73
5
0
VERTEX
8
OBJECT004
10
0
20
0
30
0
70
128
71
10
72
11
73
-12
0
VERTEX
8
OBJECT004
10
0
20
0
30
0
70
128
71
-10
72
12
73
9
0
VERTEX
8
OBJECT004
10
0
20
0
30
0
70
128
71
7
72
10
73
-9
0
VERTEX
8
OBJECT004
10
0
20
0
30
0
70
128
71
-7
72
9
73
8
0
VERTEX
8
OBJECT004
10
0
20
0
30
0
70
128
71
1
72
6
73
-5
0
VERTEX
8
OBJECT004
10
0
20
0
30
0
70
128
71
-1
72
5
73
2
0
VERTEX
8
OBJECT004
10
0
20
0
30
0
70
128
71
3
72
12
73
-11
0
VERTEX
8
OBJECT004
10
0
20
0
30
0
70
128
71
-3
72
11
73
4
0
VERTEX
8
OBJECT004
10
0
20
0
30
0
70
128
71
10
72
7
73
-6
0
VERTEX
8
OBJECT004
10
0
20
0
30
0
70
128
71
-10
72
6
73
-1
0
VERTEX
8
OBJECT004
10
0
20
0
30
0
70
128
71
-10
72
1
73
-4
0
VERTEX
8
OBJECT004
10
0
20
0
30
0
70
128
71
-10
72
4
73
11
0
VERTEX
8
OBJECT004
10
0
20
0
30
0
70
128
71
2
72
5
73
-8
0
VERTEX
8
OBJECT004
10
0
20
0
30
0
70
128
71
-2
72
8
73
-9
0
VERTEX
8
OBJECT004
10
0
20
0
30
0
70
128
71
-2
72
9
73
-12
0
VERTEX
8
OBJECT004
10
0
20
0
30
0
70
128
71
-2
72
12
73
3
0
SEQEND
8
OBJECT004
0
POLYLINE
8
OBJECT005
66
1
70
64
71
12
72
20
62
50
0
VERTEX
8
OBJECT005
10
17.000000
20
-260.839600
30
99.000000
70
192
0
VERTEX
8
OBJECT005
10
67.000000
20
-260.839600
30
99.000000
70
192
0
VERTEX
8
OBJECT005
10
67.000000
20
-260.100037
30
99.000000
70
192
0
VERTEX
8
OBJECT005
10
17.000000
20
-260.100037
30
99.000000
70
192
0
VERTEX
8
OBJECT005
10
67.000000
20
-280.000000
30
131.936600
70
192
0
VERTEX
8
OBJECT005
10
67.000000
20
-280.000000
30
457.846375
70
192
0
VERTEX
8
OBJECT005
10
67.000000
20
-274.354095
30
467.714020
70
192
0
VERTEX
8
OBJECT005
10
67.000000
20
-260.100037
30
482.722351
70
192
0
VERTEX
8
OBJECT005
10
17.000000
20
-274.355469
30
467.711639
70
192
0
VERTEX
8
OBJECT005
10
17.000000
20
-260.100037
30
482.721405
70
192
0
VERTEX
8
OBJECT005
10
17.000000
20
-280.000000
30
457.847748
70
192
0
VERTEX
8
OBJECT005
10
17.000000
20
-280.000000
30
131.936386
70
192
0
VERTEX
8
OBJECT005
10
0
20
0
30
0
70
128
71
2
72
3
73
-4
0
VERTEX
8
OBJECT005
10
0
20
0
30
0
70
128
71
-2
72
4
73
1
0
VERTEX
8
OBJECT005
10
0
20
0
30
0
70
128
71
2
72
5
73
-6
0
VERTEX
8
OBJECT005
10
0
20
0
30
0
70
128
71
-2
72
6
73
-7
0
VERTEX
8
OBJECT005
10
0
20
0
30
0
70
128
71
-2
72
7
73
-8
0
VERTEX
8
OBJECT005
10
0
20
0
30
0
70
128
71
-2
72
8
73
3
0
VERTEX
8
OBJECT005
10
0
20
0
30
0
70
128
71
7
72
9
73
-10
0
VERTEX
8
OBJECT005
10
0
20
0
30
0
70
128
71
-7
72
10
73
8
0
VERTEX
8
OBJECT005
10
0
20
0
30
0
70
128
71
6
72
11
73
-9
0
VERTEX
8
OBJECT005
10
0
20
0
30
0
70
128
71
-6
72
9
73
7
0
VERTEX
8
OBJECT005
10
0
20
0
30
0
70
128
71
2
72
1
73
-12
0
VERTEX
8
OBJECT005
10
0
20
0
30
0
70
128
71
-2
72
12
73
5
0
VERTEX
8
OBJECT005
10
0
20
0
30
0
70
128
71
3
72
8
73
-10
0
VERTEX
8
OBJECT005
10
0
20
0
30
0
70
128
71
-3
72
10
73
4
0
VERTEX
8
OBJECT005
10
0
20
0
30
0
70
128
71
9
72
11
73
-12
0
VERTEX
8
OBJECT005
10
0
20
0
30
0
70
128
71
-9
72
12
73
-1
0
VERTEX
8
OBJECT005
10
0
20
0
30
0
70
128
71
-9
72
1
73
-4
0
VERTEX
8
OBJECT005
10
0
20
0
30
0
70
128
71
-9
72
4
73
10
0
VERTEX
8
OBJECT005
10
0
20
0
30
0
70
128
71
5
72
12
73
-11
0
VERTEX
8
OBJECT005
10
0
20
0
30
0
70
128
71
-5
72
11
73
6
0
SEQEND
8
OBJECT005
0
POLYLINE
8
OBJECT006
66
1
70
64
71
12
72
20
62
50
0
VERTEX
8
OBJECT006
10
-369.342407
20
-260.100037
30
99.000000
70
192
0
VERTEX
8
OBJECT006
10
-379.000000
20
-260.100037
30
99.000000
70
192
0
VERTEX
8
OBJECT006
10
-379.000000
20
-260.839600
30
99.000000
70
192
0
VERTEX
8
OBJECT006
10
-369.342407
20
-260.839600
30
99.000000
70
192
0
VERTEX
8
OBJECT006
10
-369.342407
20
-338.000000
30
231.638199
70
192
0
VERTEX
8
OBJECT006
10
-379.000000
20
-338.000000
30
231.638199
70
192
0
VERTEX
8
OBJECT006
10
-379.000000
20
-338.000000
30
356.476807
70
192
0
VERTEX
8
OBJECT006
10
-369.342407
20
-338.000000
30
356.476807
70
192
0
VERTEX
8
OBJECT006
10
-369.342407
20
-274.355469
30
467.711639
70
192
0
VERTEX
8
OBJECT006
10
-379.000000
20
-274.355469
30
467.711639
70
192
0
VERTEX
8
OBJECT006
10
-379.000000
20
-260.100037
30
482.721405
70
192
0
VERTEX
8
OBJECT006
10
-369.342407
20
-260.100037
30
482.721405
70
192
0
VERTEX
8
OBJECT006
10
0
20
0
30
0
70
128
71
2
72
3
73
-4
0
VERTEX
8
OBJECT006
10
0
20
0
30
0
70
128
71
-2
72
4
73
1
0
VERTEX
8
OBJECT006
10
0
20
0
30
0
70
128
71
6
72
7
73
-8
0
VERTEX
8
OBJECT006
10
0
20
0
30
0
70
128
71
-6
72
8
73
5
0
VERTEX
8
OBJECT006
10
0
20
0
30
0
70
128
71
10
72
11
73
-12
0
VERTEX
8
OBJECT006
10
0
20
0
30
0
70
128
71
-10
72
12
73
9
0
VERTEX
8
OBJECT006
10
0
20
0
30
0
70
128
71
7
72
10
73
-9
0
VERTEX
8
OBJECT006
10
0
20
0
30
0
70
128
71
-7
72
9
73
8
0
VERTEX
8
OBJECT006
10
0
20
0
30
0
70
128
71
3
72
6
73
-5
0
VERTEX
8
OBJECT006
10
0
20
0
30
0
70
128
71
-3
72
5
73
4
0
VERTEX
8
OBJECT006
10
0
20
0
30
0
70
128
71
1
72
12
73
-11
0
VERTEX
8
OBJECT006
10
0
20
0
30
0
70
128
71
-1
72
11
73
2
0
VERTEX
8
OBJECT006
10
0
20
0
30
0
70
128
71
4
72
5
73
-8
0
VERTEX
8
OBJECT006
10
0
20
0
30
0
70
128
71
-4
72
8
73
-9
0
VERTEX
8
OBJECT006
10
0
20
0
30
0
70
128
71
-4
72
9
73
-12
0
VERTEX
8
OBJECT006
10
0
20
0
30
0
70
128
71
-4
72
12
73
1
0
VERTEX
8
OBJECT006
10
0
20
0
30
0
70
128
71
10
72
7
73
-6
0
VERTEX
8
OBJECT006
10
0
20
0
30
0
70
128
71
-10
72
6
73
-3
0
VERTEX
8
OBJECT006
10
0
20
0
30
0
70
128
71
-10
72
3
73
-2
0
VERTEX
8
OBJECT006
10
0
20
0
30
0
70
128
71
-10
72
2
73
11
0
SEQEND
8
OBJECT006
0
POLYLINE
8
OBJECT007
66
1
70
64
71
12
72
20
62
50
0
VERTEX
8
OBJECT007
10
-379.000000
20
-260.100037
30
99.000000
70
192
0
VERTEX
8
OBJECT007
10
-437.000000
20
-260.100037
30
99.000000
70
192
0
VERTEX
8
OBJECT007
10
-437.000000
20
-260.839600
30
99.000000
70
192
0
VERTEX
8
OBJECT007
10
-379.000000
20
-260.839600
30
99.000000
70
192
0
VERTEX
8
OBJECT007
10
-437.000000
20
-260.100037
30
482.722351
70
192
0
VERTEX
8
OBJECT007
10
-437.000000
20
-274.354095
30
467.714020
70
192
0
VERTEX
8
OBJECT007
10
-437.000000
20
-280.000000
30
457.846375
70
192
0
VERTEX
8
OBJECT007
10
-437.000000
20
-280.000000
30
131.936600
70
192
0
VERTEX
8
OBJECT007
10
-379.000000
20
-274.355469
30
467.711639
70
192
0
VERTEX
8
OBJECT007
10
-379.000000
20
-260.100037
30
482.721405
70
192
0
VERTEX
8
OBJECT007
10
-379.000000
20
-280.000000
30
457.847748
70
192
0
VERTEX
8
OBJECT007
10
-379.000000
20
-280.000000
30
131.936386
70
192
0
VERTEX
8
OBJECT007
10
0
20
0
30
0
70
128
71
2
72
3
73
-4
0
VERTEX
8
OBJECT007
10
0
20
0
30
0
70
128
71
-2
72
4
73
1
0
VERTEX
8
OBJECT007
10
0
20
0
30
0
70
128
71
6
72
7
73
-8
0
VERTEX
8
OBJECT007
10
0
20
0
30
0
70
128
71
-6
72
8
73
-3
0
VERTEX
8
OBJECT007
10
0
20
0
30
0
70
128
71
-6
72
3
73
-2
0
VERTEX
8
OBJECT007
10
0
20
0
30
0
70
128
71
-6
72
2
73
5
0
VERTEX
8
OBJECT007
10
0
20
0
30
0
70
128
71
6
72
5
73
-10
0
VERTEX
8
OBJECT007
10
0
20
0
30
0
70
128
71
-6
72
10
73
9
0
VERTEX
8
OBJECT007
10
0
20
0
30
0
70
128
71
6
72
9
73
-11
0
VERTEX
8
OBJECT007
10
0
20
0
30
0
70
128
71
-6
72
11
73
7
0
VERTEX
8
OBJECT007
10
0
20
0
30
0
70
128
71
3
72
8
73
-12
0
VERTEX
8
OBJECT007
10
0
20
0
30
0
70
128
71
-3
72
12
73
4
0
VERTEX
8
OBJECT007
10
0
20
0
30
0
70
128
71
2
72
1
73
-10
0
VERTEX
8
OBJECT007
10
0
20
0
30
0
70
128
71
-2
72
10
73
5
0
VERTEX
8
OBJECT007
10
0
20
0
30
0
70
128
71
4
72
12
73
-11
0
VERTEX
8
OBJECT007
10
0
20
0
30
0
70
128
71
-4
72
11
73
-9
0
VERTEX
8
OBJECT007
10
0
20
0
30
0
70
128
71
-4
72
9
73
-10
0
VERTEX
8
OBJECT007
10
0
20
0
30
0
70
128
71
-4
72
10
73
1
0
VERTEX
8
OBJECT007
10
0
20
0
30
0
70
128
71
8
72
7
73
-11
0
VERTEX
8
OBJECT007
10
0
20
0
30
0
70
128
71
-8
72
11
73
12
0
SEQEND
8
OBJECT007
0
POLYLINE
8
OBJECT008
66
1
70
64
71
4
72
4
62
50
0
VERTEX
8
OBJECT008
10
-369.342407
20
97.099991
30
469.650726
70
192
0
VERTEX
8
OBJECT008
10
-369.342407
20
97.099991
30
481.314728
70
192
0
VERTEX
8
OBJECT008
10
-346.898499
20
97.099991
30
481.314728
70
192
0
VERTEX
8
OBJECT008
10
-369.342407
20
109.272163
30
469.650726
70
192
0
VERTEX
8
OBJECT008
10
0
20
0
30
0
70
128
71
2
72
3
73
1
0
VERTEX
8
OBJECT008
10
0
20
0
30
0
70
128
71
2
72
4
73
3
0
VERTEX
8
OBJECT008
10
0
20
0
30
0
70
128
71
2
72
1
73
4
0
VERTEX
8
OBJECT008
10
0
20
0
30
0
70
128
71
3
72
4
73
1
0
SEQEND
8
OBJECT008
0
POLYLINE
8
OBJECT009
66
1
70
64
71
4
72
4
62
50
0
VERTEX
8
OBJECT009
10
-26.815228
20
97.099991
30
481.314728
70
192
0
VERTEX
8
OBJECT009
10
-2.618674
20
97.099991
30
481.314728
70
192
0
VERTEX
8
OBJECT009
10
-2.618674
20
97.099991
30
468.632294
70
192
0
VERTEX
8
OBJECT009
10
-2.618674
20
110.334923
30
468.632294
70
192
0
VERTEX
8
OBJECT009
10
0
20
0
30
0
70
128
71
2
72
3
73
1
0
VERTEX
8
OBJECT009
10
0
20
0
30
0
70
128
71
1
72
4
73
2
0
VERTEX
8
OBJECT009
10
0
20
0
30
0
70
128
71
2
72
4
73
3
0
VERTEX
8
OBJECT009
10
0
20
0
30
0
70
128
71
1
72
3
73
4
0
SEQEND
8
OBJECT009
0
POLYLINE
8
OBJECT010
66
1
70
64
71
6
72
8
62
50
0
VERTEX
8
OBJECT010
10
-2.618674
20
97.838745
30
99.000000
70
192
0
VERTEX
8
OBJECT010
10
-27.132292
20
97.838745
30
99.000000
70
192
0
VERTEX
8
OBJECT010
10
-27.132292
20
97.099991
30
99.000000
70
192
0
VERTEX
8
OBJECT010
10
-2.618674
20
97.099991
30
99.000000
70
192
0
VERTEX
8
OBJECT010
10
-2.618674
20
105.181526
30
111.621750
70
192
0
VERTEX
8
OBJECT010
10
-2.618674
20
97.099991
30
111.621750
70
192
0
VERTEX
8
OBJECT010
10
0
20
0
30
0
70
128
71
2
72
3
73
-4
0
VERTEX
8
OBJECT010
10
0
20
0
30
0
70
128
71
-2
72
4
73
1
0
VERTEX
8
OBJECT010
10
0
20
0
30
0
70
128
71
1
72
5
73
2
0
VERTEX
8
OBJECT010
10
0
20
0
30
0
70
128
71
3
72
6
73
4
0
VERTEX
8
OBJECT010
10
0
20
0
30
0
70
128
71
1
72
4
73
-6
0
VERTEX
8
OBJECT010
10
0
20
0
30
0
70
128
71
-1
72
6
73
5
0
VERTEX
8
OBJECT010
10
0
20
0
30
0
70
128
71
2
72
5
73
-6
0
VERTEX
8
OBJECT010
10
0
20
0
30
0
70
128
71
-2
72
6
73
3
0
SEQEND
8
OBJECT010
0
POLYLINE
8
OBJECT011
66
1
70
64
71
6
72
8
62
50
0
VERTEX
8
OBJECT011
10
-344.655975
20
97.838745
30
99.000000
70
192
0
VERTEX
8
OBJECT011
10
-369.342407
20
97.838745
30
99.000000
70
192
0
VERTEX
8
OBJECT011
10
-369.342407
20
97.099991
30
99.000000
70
192
0
VERTEX
8
OBJECT011
10
-344.655975
20
97.099991
30
99.000000
70
192
0
VERTEX
8
OBJECT011
10
-369.342407
20
105.252235
30
111.743301
70
192
0
VERTEX
8
OBJECT011
10
-369.342407
20
97.099991
30
111.743301
70
192
0
VERTEX
8
OBJECT011
10
0
20
0
30
0
70
128
71
2
72
3
73
-4
0
VERTEX
8
OBJECT011
10
0
20
0
30
0
70
128
71
-2
72
4
73
1
0
VERTEX
8
OBJECT011
10
0
20
0
30
0
70
128
71
1
72
5
73
2
0
VERTEX
8
OBJECT011
10
0
20
0
30
0
70
128
71
3
72
6
73
4
0
VERTEX
8
OBJECT011
10
0
20
0
30
0
70
128
71
2
72
5
73
-6
0
VERTEX
8
OBJECT011
10
0
20
0
30
0
70
128
71
-2
72
6
73
3
0
VERTEX
8
OBJECT011
10
0
20
0
30
0
70
128
71
1
72
4
73
-6
0
VERTEX
8
OBJECT011
10
0
20
0
30
0
70
128
71
-1
72
6
73
5
0
SEQEND
8
OBJECT011
0
POLYLINE
8
OBJECT012
66
1
70
64
71
12
72
20
62
50
0
VERTEX
8
OBJECT012
10
-369.342407
20
97.838913
30
99.000000
70
192
0
VERTEX
8
OBJECT012
10
-379.000000
20
97.838913
30
99.000000
70
192
0
VERTEX
8
OBJECT012
10
-379.000000
20
97.099991
30
99.000000
70
192
0
VERTEX
8
OBJECT012
10
-369.342407
20
97.099991
30
99.000000
70
192
0
VERTEX
8
OBJECT012
10
-379.000000
20
175.000000
30
231.637711
70
192
0
VERTEX
8
OBJECT012
10
-369.342407
20
175.000000
30
231.637711
70
192
0
VERTEX
8
OBJECT012
10
-369.342407
20
175.000000
30
356.475739
70
192
0
VERTEX
8
OBJECT012
10
-379.000000
20
175.000000
30
356.475739
70
192
0
VERTEX
8
OBJECT012
10
-369.342407
20
111.378731
30
467.632019
70
192
0
VERTEX
8
OBJECT012
10
-379.000000
20
111.378731
30
467.632019
70
192
0
VERTEX
8
OBJECT012
10
-379.000000
20
97.099991
30
481.315094
70
192
0
VERTEX
8
OBJECT012
10
-369.342407
20
97.099991
30
481.315094
70
192
0
VERTEX
8
OBJECT012
10
0
20
0
30
0
70
128
71
2
72
3
73
-4
0
VERTEX
8
OBJECT012
10
0
20
0
30
0
70
128
71
-2
72
4
73
1
0
VERTEX
8
OBJECT012
10
0
20
0
30
0
70
128
71
6
72
7
73
-8
0
VERTEX
8
OBJECT012
10
0
20
0
30
0
70
128
71
-6
72
8
73
5
0
VERTEX
8
OBJECT012
10
0
20
0
30
0
70
128
71
7
72
9
73
-10
0
VERTEX
8
OBJECT012
10
0
20
0
30
0
70
128
71
-7
72
10
73
8
0
VERTEX
8
OBJECT012
10
0
20
0
30
0
70
128
71
1
72
6
73
-5
0
VERTEX
8
OBJECT012
10
0
20
0
30
0
70
128
71
-1
72
5
73
2
0
VERTEX
8
OBJECT012
10
0
20
0
30
0
70
128
71
3
72
11
73
-12
0
VERTEX
8
OBJECT012
10
0
20
0
30
0
70
128
71
-3
72
12
73
4
0
VERTEX
8
OBJECT012
10
0
20
0
30
0
70
128
71
11
72
10
73
-9
0
VERTEX
8
OBJECT012
10
0
20
0
30
0
70
128
71
-11
72
9
73
12
0
VERTEX
8
OBJECT012
10
0
20
0
30
0
70
128
71
7
72
6
73
-1
0
VERTEX
8
OBJECT012
10
0
20
0
30
0
70
128
71
-7
72
1
73
-4
0
VERTEX
8
OBJECT012
10
0
20
0
30
0
70
128
71
-7
72
4
73
-12
0
VERTEX
8
OBJECT012
10
0
20
0
30
0
70
128
71
-7
72
12
73
9
0
VERTEX
8
OBJECT012
10
0
20
0
30
0
70
128
71
2
72
5
73
-8
0
VERTEX
8
OBJECT012
10
0
20
0
30
0
70
128
71
-2
72
8
73
-10
0
VERTEX
8
OBJECT012
10
0
20
0
30
0
70
128
71
-2
72
10
73
-11
0
VERTEX
8
OBJECT012
10
0
20
0
30
0
70
128
71
-2
72
11
73
3
0
SEQEND
8
OBJECT012
0
POLYLINE
8
OBJECT013
66
1
70
64
71
12
72
20
62
50
0
VERTEX
8
OBJECT013
10
-379.000000
20
97.838913
30
99.000000
70
192
0
VERTEX
8
OBJECT013
10
-437.000000
20
97.838913
30
99.000000
70
192
0
VERTEX
8
OBJECT013
10
-437.000000
20
97.099991
30
99.000000
70
192
0
VERTEX
8
OBJECT013
10
-379.000000
20
97.099991
30
99.000000
70
192
0
VERTEX
8
OBJECT013
10
-437.000000
20
116.000000
30
130.218384
70
192
0
VERTEX
8
OBJECT013
10
-437.000000
20
116.000000
30
459.559753
70
192
0
VERTEX
8
OBJECT013
10
-437.000000
20
111.381210
30
467.629639
70
192
0
VERTEX
8
OBJECT013
10
-437.000000
20
97.099991
30
481.315094
70
192
0
VERTEX
8
OBJECT013
10
-379.000000
20
116.000000
30
459.557800
70
192
0
VERTEX
8
OBJECT013
10
-379.000000
20
111.378731
30
467.632019
70
192
0
VERTEX
8
OBJECT013
10
-379.000000
20
116.000000
30
130.218475
70
192
0
VERTEX
8
OBJECT013
10
-379.000000
20
97.099991
30
481.315094
70
192
0
VERTEX
8
OBJECT013
10
0
20
0
30
0
70
128
71
2
72
3
73
-4
0
VERTEX
8
OBJECT013
10
0
20
0
30
0
70
128
71
-2
72
4
73
1
0
VERTEX
8
OBJECT013
10
0
20
0
30
0
70
128
71
2
72
5
73
-6
0
VERTEX
8
OBJECT013
10
0
20
0
30
0
70
128
71
-2
72
6
73
-7
0
VERTEX
8
OBJECT013
10
0
20
0
30
0
70
128
71
-2
72
7
73
-8
0
VERTEX
8
OBJECT013
10
0
20
0
30
0
70
128
71
-2
72
8
73
3
0
VERTEX
8
OBJECT013
10
0
20
0
30
0
70
128
71
6
72
9
73
-10
0
VERTEX
8
OBJECT013
10
0
20
0
30
0
70
128
71
-6
72
10
73
7
0
VERTEX
8
OBJECT013
10
0
20
0
30
0
70
128
71
2
72
1
73
-11
0
VERTEX
8
OBJECT013
10
0
20
0
30
0
70
128
71
-2
72
11
73
5
0
VERTEX
8
OBJECT013
10
0
20
0
30
0
70
128
71
3
72
8
73
-12
0
VERTEX
8
OBJECT013
10
0
20
0
30
0
70
128
71
-3
72
12
73
4
0
VERTEX
8
OBJECT013
10
0
20
0
30
0
70
128
71
8
72
7
73
-10
0
VERTEX
8
OBJECT013
10
0
20
0
30
0
70
128
71
-8
72
10
73
12
0
VERTEX
8
OBJECT013
10
0
20
0
30
0
70
128
71
9
72
11
73
-1
0
VERTEX
8
OBJECT013
10
0
20
0
30
0
70
128
71
-9
72
1
73
-4
0
VERTEX
8
OBJECT013
10
0
20
0
30
0
70
128
71
-9
72
4
73
-12
0
VERTEX
8
OBJECT013
10
0
20
0
30
0
70
128
71
-9
72
12
73
10
0
VERTEX
8
OBJECT013
10
0
20
0
30
0
70
128
71
5
72
11
73
-9
0
VERTEX
8
OBJECT013
10
0
20
0
30
0
70
128
71
-5
72
9
73
6
0
SEQEND
8
OBJECT013
0
POLYLINE
8
OBJECT014
66
1
70
64
71
12
72
20
62
50
0
VERTEX
8
OBJECT014
10
-2.618673
20
97.099991
30
99.000000
70
192
0
VERTEX
8
OBJECT014
10
17.000000
20
97.099991
30
99.000000
70
192
0
VERTEX
8
OBJECT014
10
17.000000
20
97.838913
30
99.000000
70
192
0
VERTEX
8
OBJECT014
10
-2.618673
20
97.838913
30
99.000000
70
192
0
VERTEX
8
OBJECT014
10
-2.618673
20
175.000000
30
231.637711
70
192
0
VERTEX
8
OBJECT014
10
17.000000
20
175.000000
30
231.637711
70
192
0
VERTEX
8
OBJECT014
10
17.000000
20
175.000000
30
356.475739
70
192
0
VERTEX
8
OBJECT014
10
-2.618673
20
175.000000
30
356.475739
70
192
0
VERTEX
8
OBJECT014
10
17.000000
20
111.378738
30
467.632019
70
192
0
VERTEX
8
OBJECT014
10
-2.618673
20
111.378738
30
467.632019
70
192
0
VERTEX
8
OBJECT014
10
-2.618673
20
97.099991
30
481.315063
70
192
0
VERTEX
8
OBJECT014
10
17.000000
20
97.099991
30
481.315063
70
192
0
VERTEX
8
OBJECT014
10
0
20
0
30
0
70
128
71
2
72
3
73
-4
0
VERTEX
8
OBJECT014
10
0
20
0
30
0
70
128
71
-2
72
4
73
1
0
VERTEX
8
OBJECT014
10
0
20
0
30
0
70
128
71
6
72
7
73
-8
0
VERTEX
8
OBJECT014
10
0
20
0
30
0
70
128
71
-6
72
8
73
5
0
VERTEX
8
OBJECT014
10
0
20
0
30
0
70
128
71
7
72
9
73
-10
0
VERTEX
8
OBJECT014
10
0
20
0
30
0
70
128
71
-7
72
10
73
8
0
VERTEX
8
OBJECT014
10
0
20
0
30
0
70
128
71
3
72
6
73
-5
0
VERTEX
8
OBJECT014
10
0
20
0
30
0
70
128
71
-3
72
5
73
4
0
VERTEX
8
OBJECT014
10
0
20
0
30
0
70
128
71
1
72
11
73
-12
0
VERTEX
8
OBJECT014
10
0
20
0
30
0
70
128
71
-1
72
12
73
2
0
VERTEX
8
OBJECT014
10
0
20
0
30
0
70
128
71
9
72
12
73
-11
0
VERTEX
8
OBJECT014
10
0
20
0
30
0
70
128
71
-9
72
11
73
10
0
VERTEX
8
OBJECT014
10
0
20
0
30
0
70
128
71
4
72
5
73
-8
0
VERTEX
8
OBJECT014
10
0
20
0
30
0
70
128
71
-4
72
8
73
-10
0
VERTEX
8
OBJECT014
10
0
20
0
30
0
70
128
71
-4
72
10
73
-11
0
VERTEX
8
OBJECT014
10
0
20
0
30
0
70
128
71
-4
72
11
73
1
0
VERTEX
8
OBJECT014
10
0
20
0
30
0
70
128
71
7
72
6
73
-3
0
VERTEX
8
OBJECT014
10
0
20
0
30
0
70
128
71
-7
72
3
73
-2
0
VERTEX
8
OBJECT014
10
0
20
0
30
0
70
128
71
-7
72
2
73
-12
0
VERTEX
8
OBJECT014
10
0
20
0
30
0
70
128
71
-7
72
12
73
9
0
SEQEND
8
OBJECT014
0
POLYLINE
8
OBJECT015
66
1
70
64
71
12
72
20
62
50
0
VERTEX
8
OBJECT015
10
17.000000
20
97.099991
30
99.000000
70
192
0
VERTEX
8
OBJECT015
10
67.000000
20
97.099991
30
99.000000
70
192
0
VERTEX
8
OBJECT015
10
67.000000
20
97.838913
30
99.000000
70
192
0
VERTEX
8
OBJECT015
10
17.000000
20
97.838913
30
99.000000
70
192
0
VERTEX
8
OBJECT015
10
67.000000
20
111.381210
30
467.629639
70
192
0
VERTEX
8
OBJECT015
10
67.000000
20
116.000000
30
459.559753
70
192
0
VERTEX
8
OBJECT015
10
67.000000
20
116.000000
30
130.218384
70
192
0
VERTEX
8
OBJECT015
10
67.000000
20
97.099991
30
481.315063
70
192
0
VERTEX
8
OBJECT015
10
17.000000
20
111.378738
30
467.632019
70
192
0
VERTEX
8
OBJECT015
10
17.000000
20
116.000000
30
459.557800
70
192
0
VERTEX
8
OBJECT015
10
17.000000
20
116.000000
30
130.218475
70
192
0
VERTEX
8
OBJECT015
10
17.000000
20
97.099991
30
481.315063
70
192
0
VERTEX
8
OBJECT015
10
0
20
0
30
0
70
128
71
2
72
3
73
-4
0
VERTEX
8
OBJECT015
10
0
20
0
30
0
70
128
71
-2
72
4
73
1
0
VERTEX
8
OBJECT015
10
0
20
0
30
0
70
128
71
6
72
7
73
-3
0
VERTEX
8
OBJECT015
10
0
20
0
30
0
70
128
71
-6
72
3
73
-2
0
VERTEX
8
OBJECT015
10
0
20
0
30
0
70
128
71
-6
72
2
73
-8
0
VERTEX
8
OBJECT015
10
0
20
0
30
0
70
128
71
-6
72
8
73
5
0
VERTEX
8
OBJECT015
10
0
20
0
30
0
70
128
71
5
72
9
73
-10
0
VERTEX
8
OBJECT015
10
0
20
0
30
0
70
128
71
-5
72
10
73
6
0
VERTEX
8
OBJECT015
10
0
20
0
30
0
70
128
71
3
72
7
73
-11
0
VERTEX
8
OBJECT015
10
0
20
0
30
0
70
128
71
-3
72
11
73
4
0
VERTEX
8
OBJECT015
10
0
20
0
30
0
70
128
71
2
72
1
73
-12
0
VERTEX
8
OBJECT015
10
0
20
0
30
0
70
128
71
-2
72
12
73
8
0
VERTEX
8
OBJECT015
10
0
20
0
30
0
70
128
71
5
72
8
73
-12
0
VERTEX
8
OBJECT015
10
0
20
0
30
0
70
128
71
-5
72
12
73
9
0
VERTEX
8
OBJECT015
10
0
20
0
30
0
70
128
71
4
72
11
73
-10
0
VERTEX
8
OBJECT015
10
0
20
0
30
0
70
128
71
-4
72
10
73
-9
0
VERTEX
8
OBJECT015
10
0
20
0
30
0
70
128
71
-4
72
9
73
-12
0
VERTEX
8
OBJECT015
10
0
20
0
30
0
70
128
71
-4
72
12
73
1
0
VERTEX
8
OBJECT015
10
0
20
0
30
0
70
128
71
7
72
6
73
-10
0
VERTEX
8
OBJECT015
10
0
20
0
30
0
70
128
71
-7
72
10
73
11
0
SEQEND
8
OBJECT015
0
POLYLINE
8
OBJECT016
66
1
70
64
71
8
72
12
62
50
0
VERTEX
8
OBJECT016
10
-437.000000
20
-11.200009
30
39.000000
70
192
0
VERTEX
8
OBJECT016
10
-437.000000
20
-149.900009
30
39.000000
70
192
0
VERTEX
8
OBJECT016
10
67.000000
20
-149.900009
30
39.000000
70
192
0
VERTEX
8
OBJECT016
10
67.000000
20
-11.200009
30
39.000000
70
192
0
VERTEX
8
OBJECT016
10
-437.000000
20
-168.487152
30
49.000000
70
192
0
VERTEX
8
OBJECT016
10
-437.000000
20
7.166438
30
49.000000
70
192
0
VERTEX
8
OBJECT016
10
67.000000
20
7.166438
30
49.000000
70
192
0
VERTEX
8
OBJECT016
10
67.000000
20
-168.487152
30
49.000000
70
192
0
VERTEX
8
OBJECT016
10
0
20
0
30
0
70
128
71
2
72
3
73
-4
0
VERTEX
8
OBJECT016
10
0
20
0
30
0
70
128
71
-2
72
4
73
1
0
VERTEX
8
OBJECT016
10
0
20
0
30
0
70
128
71
2
72
1
73
-6
0
VERTEX
8
OBJECT016
10
0
20
0
30
0
70
128
71
-2
72
6
73
5
0
VERTEX
8
OBJECT016
10
0
20
0
30
0
70
128
71
4
72
3
73
-8
0
VERTEX
8
OBJECT016
10
0
20
0
30
0
70
128
71
-4
72
8
73
7
0
VERTEX
8
OBJECT016
10
0
20
0
30
0
70
128
71
2
72
5
73
-8
0
VERTEX
8
OBJECT016
10
0
20
0
30
0
70
128
71
-2
72
8
73
3
0
VERTEX
8
OBJECT016
10
0
20
0
30
0
70
128
71
1
72
4
73
-7
0
VERTEX
8
OBJECT016
10
0
20
0
30
0
70
128
71
-1
72
7
73
6
0
VERTEX
8
OBJECT016
10
0
20
0
30
0
70
128
71
6
72
7
73
-8
0
VERTEX
8
OBJECT016
10
0
20
0
30
0
70
128
71
-6
72
8
73
5
0
SEQEND
8
OBJECT016
0
POLYLINE
8
OBJECT017
66
1
70
64
71
8
72
12
62
50
0
VERTEX
8
OBJECT017
10
67.000000
20
-168.886734
30
49.000000
70
192
0
VERTEX
8
OBJECT017
10
-437.000000
20
-168.886734
30
49.000000
70
192
0
VERTEX
8
OBJECT017
10
-437.000000
20
-170.706940
30
50.000000
70
192
0
VERTEX
8
OBJECT017
10
67.000000
20
-170.706940
30
50.000000
70
192
0
VERTEX
8
OBJECT017
10
-437.000000
20
-144.200012
30
49.000000
70
192
0
VERTEX
8
OBJECT017
10
67.000000
20
-144.200012
30
49.000000
70
192
0
VERTEX
8
OBJECT017
10
-437.000000
20
-146.069427
30
50.000000
70
192
0
VERTEX
8
OBJECT017
10
67.000000
20
-146.069427
30
50.000000
70
192
0
VERTEX
8
OBJECT017
10
0
20
0
30
0
70
128
71
2
72
3
73
-4
0
VERTEX
8
OBJECT017
10
0
20
0
30
0
70
128
71
-2
72
4
73
1
0
VERTEX
8
OBJECT017
10
0
20
0
30
0
70
128
71
2
72
1
73
-6
0
VERTEX
8
OBJECT017
10
0
20
0
30
0
70
128
71
-2
72
6
73
5
0
VERTEX
8
OBJECT017
10
0
20
0
30
0
70
128
71
2
72
5
73
-7
0
VERTEX
8
OBJECT017
10
0
20
0
30
0
70
128
71
-2
72
7
73
3
0
VERTEX
8
OBJECT017
10
0
20
0
30
0
70
128
71
1
72
4
73
-8
0
VERTEX
8
OBJECT017
10
0
20
0
30
0
70
128
71
-1
72
8
73
6
0
VERTEX
8
OBJECT017
10
0
20
0
30
0
70
128
71
5
72
6
73
-8
0
VERTEX
8
OBJECT017
10
0
20
0
30
0
70
128
71
-5
72
8
73
7
0
VERTEX
8
OBJECT017
10
0
20
0
30
0
70
128
71
3
72
7
73
-8
0
VERTEX
8
OBJECT017
10
0
20
0
30
0
70
128
71
-3
72
8
73
4
0
SEQEND
8
OBJECT017
0
POLYLINE
8
OBJECT018
66
1
70
64
71
8
72
12
62
50
0
VERTEX
8
OBJECT018
10
-2.618674
20
-260.100037
30
99.113487
70
192
0
VERTEX
8
OBJECT018
10
67.000000
20
-260.100037
30
99.113487
70
192
0
VERTEX
8
OBJECT018
10
67.000000
20
-170.706924
30
50.000000
70
192
0
VERTEX
8
OBJECT018
10
-2.618674
20
-170.706924
30
50.000000
70
192
0
VERTEX
8
OBJECT018
10
67.000000
20
-260.100037
30
111.000000
70
192
0
VERTEX
8
OBJECT018
10
67.000000
20
-146.069427
30
50.000000
70
192
0
VERTEX
8
OBJECT018
10
-2.618674
20
-260.100037
30
111.000000
70
192
0
VERTEX
8
OBJECT018
10
-2.618674
20
-146.069458
30
50.000000
70
192
0
VERTEX
8
OBJECT018
10
0
20
0
30
0
70
128
71
2
72
3
73
-4
0
VERTEX
8
OBJECT018
10
0
20
0
30
0
70
128
71
-2
72
4
73
1
0
VERTEX
8
OBJECT018
10
0
20
0
30
0
70
128
71
2
72
5
73
-6
0
VERTEX
8
OBJECT018
10
0
20
0
30
0
70
128
71
-2
72
6
73
3
0
VERTEX
8
OBJECT018
10
0
20
0
30
0
70
128
71
2
72
1
73
-7
0
VERTEX
8
OBJECT018
10
0
20
0
30
0
70
128
71
-2
72
7
73
5
0
VERTEX
8
OBJECT018
10
0
20
0
30
0
70
128
71
6
72
5
73
-7
0
VERTEX
8
OBJECT018
10
0
20
0
30
0
70
128
71
-6
72
7
73
8
0
VERTEX
8
OBJECT018
10
0
20
0
30
0
70
128
71
3
72
6
73
-8
0
VERTEX
8
OBJECT018
10
0
20
0
30
0
70
128
71
-3
72
8
73
4
0
VERTEX
8
OBJECT018
10
0
20
0
30
0
70
128
71
1
72
4
73
-8
0
VERTEX
8
OBJECT018
10
0
20
0
30
0
70
128
71
-1
72
8
73
7
0
SEQEND
8
OBJECT018
0
POLYLINE
8
OBJECT019
66
1
70
64
71
8
72
12
62
50
0
VERTEX
8
OBJECT019
10
-369.342407
20
-170.706924
30
50.000000
70
192
0
VERTEX
8
OBJECT019
10
-437.000000
20
-170.706924
30
50.000000
70
192
0
VERTEX
8
OBJECT019
10
-437.000000
20
-260.100037
30
99.113487
70
192
0
VERTEX
8
OBJECT019
10
-369.342407
20
-260.100037
30
99.113487
70
192
0
VERTEX
8
OBJECT019
10
-437.000000
20
-260.100037
30
111.000000
70
192
0
VERTEX
8
OBJECT019
10
-437.000000
20
-146.069427
30
50.000000
70
192
0
VERTEX
8
OBJECT019
10
-369.342407
20
-260.100037
30
111.000000
70
192
0
VERTEX
8
OBJECT019
10
-369.342407
20
-146.069458
30
50.000000
70
192
0
VERTEX
8
OBJECT019
10
0
20
0
30
0
70
128
71
2
72
3
73
-4
0
VERTEX
8
OBJECT019
10
0
20
0
30
0
70
128
71
-2
72
4
73
1
0
VERTEX
8
OBJECT019
10
0
20
0
30
0
70
128
71
3
72
2
73
-6
0
VERTEX
8
OBJECT019
10
0
20
0
30
0
70
128
71
-3
72
6
73
5
0
VERTEX
8
OBJECT019
10
0
20
0
30
0
70
128
71
3
72
5
73
-7
0
VERTEX
8
OBJECT019
10
0
20
0
30
0
70
128
71
-3
72
7
73
4
0
VERTEX
8
OBJECT019
10
0
20
0
30
0
70
128
71
5
72
6
73
-8
0
VERTEX
8
OBJECT019
10
0
20
0
30
0
70
128
71
-5
72
8
73
7
0
VERTEX
8
OBJECT019
10
0
20
0
30
0
70
128
71
6
72
2
73
-1
0
VERTEX
8
OBJECT019
10
0
20
0
30
0
70
128
71
-6
72
1
73
8
0
VERTEX
8
OBJECT019
10
0
20
0
30
0
70
128
71
4
72
7
73
-8
0
VERTEX
8
OBJECT019
10
0
20
0
30
0
70
128
71
-4
72
8
73
1
0
SEQEND
8
OBJECT019
0
POLYLINE
8
OBJECT020
66
1
70
64
71
8
72
12
62
50
0
VERTEX
8
OBJECT020
10
-2.618674
20
-170.706924
30
50.000000
70
192
0
VERTEX
8
OBJECT020
10
-122.280792
20
-170.706924
30
50.000000
70
192
0
VERTEX
8
OBJECT020
10
-26.908253
20
-260.100037
30
99.113487
70
192
0
VERTEX
8
OBJECT020
10
-2.618674
20
-260.100037
30
99.113487
70
192
0
VERTEX
8
OBJECT020
10
-3.826045
20
-260.100037
30
111.000000
70
192
0
VERTEX
8
OBJECT020
10
-2.618674
20
-260.100037
30
111.000000
70
192
0
VERTEX
8
OBJECT020
10
-122.280792
20
-146.069458
30
50.000000
70
192
0
VERTEX
8
OBJECT020
10
-2.618674
20
-146.069458
30
50.000000
70
192
0
VERTEX
8
OBJECT020
10
0
20
0
30
0
70
128
71
2
72
3
73
-4
0
VERTEX
8
OBJECT020
10
0
20
0
30
0
70
128
71
-2
72
4
73
1
0
VERTEX
8
OBJECT020
10
0
20
0
30
0
70
128
71
3
72
5
73
-6
0
VERTEX
8
OBJECT020
10
0
20
0
30
0
70
128
71
-3
72
6
73
4
0
VERTEX
8
OBJECT020
10
0
20
0
30
0
70
128
71
5
72
7
73
-8
0
VERTEX
8
OBJECT020
10
0
20
0
30
0
70
128
71
-5
72
8
73
6
0
VERTEX
8
OBJECT020
10
0
20
0
30
0
70
128
71
7
72
2
73
-1
0
VERTEX
8
OBJECT020
10
0
20
0
30
0
70
128
71
-7
72
1
73
8
0
VERTEX
8
OBJECT020
10
0
20
0
30
0
70
128
71
4
72
6
73
-8
0
VERTEX
8
OBJECT020
10
0
20
0
30
0
70
128
71
-4
72
8
73
1
0
VERTEX
8
OBJECT020
10
0
20
0
30
0
70
128
71
3
72
2
73
-7
0
VERTEX
8
OBJECT020
10
0
20
0
30
0
70
128
71
-3
72
7
73
5
0
SEQEND
8
OBJECT020
0
POLYLINE
8
OBJECT021
66
1
70
64
71
8
72
12
62
50
0
VERTEX
8
OBJECT021
10
-249.732803
20
-170.706924
30
50.000000
70
192
0
VERTEX
8
OBJECT021
10
-369.342407
20
-170.706924
30
50.000000
70
192
0
VERTEX
8
OBJECT021
10
-369.342407
20
-260.100037
30
99.113487
70
192
0
VERTEX
8
OBJECT021
10
-344.875824
20
-260.100037
30
99.113487
70
192
0
VERTEX
8
OBJECT021
10
-369.342407
20
-260.100037
30
111.000000
70
192
0
VERTEX
8
OBJECT021
10
-367.902466
20
-260.100037
30
111.000000
70
192
0
VERTEX
8
OBJECT021
10
-369.342407
20
-146.069458
30
50.000000
70
192
0
VERTEX
8
OBJECT021
10
-249.732803
20
-146.069458
30
50.000000
70
192
0
VERTEX
8
OBJECT021
10
0
20
0
30
0
70
128
71
2
72
3
73
-4
0
VERTEX
8
OBJECT021
10
0
20
0
30
0
70
128
71
-2
72
4
73
1
0
VERTEX
8
OBJECT021
10
0
20
0
30
0
70
128
71
3
72
5
73
-6
0
VERTEX
8
OBJECT021
10
0
20
0
30
0
70
128
71
-3
72
6
73
4
0
VERTEX
8
OBJECT021
10
0
20
0
30
0
70
128
71
5
72
7
73
-8
0
VERTEX
8
OBJECT021
10
0
20
0
30
0
70
128
71
-5
72
8
73
6
0
VERTEX
8
OBJECT021
10
0
20
0
30
0
70
128
71
7
72
2
73
-1
0
VERTEX
8
OBJECT021
10
0
20
0
30
0
70
128
71
-7
72
1
73
8
0
VERTEX
8
OBJECT021
10
0
20
0
30
0
70
128
71
3
72
2
73
-7
0
VERTEX
8
OBJECT021
10
0
20
0
30
0
70
128
71
-3
72
7
73
5
0
VERTEX
8
OBJECT021
10
0
20
0
30
0
70
128
71
4
72
6
73
-8
0
VERTEX
8
OBJECT021
10
0
20
0
30
0
70
128
71
-4
72
8
73
1
0
SEQEND
8
OBJECT021
0
POLYLINE
8
OBJECT022
66
1
70
64
71
8
72
12
62
50
0
VERTEX
8
OBJECT022
10
-437.000000
20
7.708715
30
50.000000
70
192
0
VERTEX
8
OBJECT022
10
-437.000000
20
5.888509
30
49.000000
70
192
0
VERTEX
8
OBJECT022
10
67.000000
20
5.888509
30
49.000000
70
192
0
VERTEX
8
OBJECT022
10
67.000000
20
7.708715
30
50.000000
70
192
0
VERTEX
8
OBJECT022
10
-437.000000
20
-18.800011
30
49.000000
70
192
0
VERTEX
8
OBJECT022
10
67.000000
20
-18.800011
30
49.000000
70
192
0
VERTEX
8
OBJECT022
10
-437.000000
20
-16.930595
30
50.000000
70
192
0
VERTEX
8
OBJECT022
10
67.000000
20
-16.930595
30
50.000000
70
192
0
VERTEX
8
OBJECT022
10
0
20
0
30
0
70
128
71
2
72
3
73
-4
0
VERTEX
8
OBJECT022
10
0
20
0
30
0
70
128
71
-2
72
4
73
1
0
VERTEX
8
OBJECT022
10
0
20
0
30
0
70
128
71
2
72
5
73
-6
0
VERTEX
8
OBJECT022
10
0
20
0
30
0
70
128
71
-2
72
6
73
3
0
VERTEX
8
OBJECT022
10
0
20
0
30
0
70
128
71
2
72
1
73
-7
0
VERTEX
8
OBJECT022
10
0
20
0
30
0
70
128
71
-2
72
7
73
5
0
VERTEX
8
OBJECT022
10
0
20
0
30
0
70
128
71
3
72
6
73
-8
0
VERTEX
8
OBJECT022
10
0
20
0
30
0
70
128
71
-3
72
8
73
4
0
VERTEX
8
OBJECT022
10
0
20
0
30
0
70
128
71
5
72
7
73
-8
0
VERTEX
8
OBJECT022
10
0
20
0
30
0
70
128
71
-5
72
8
73
6
0
VERTEX
8
OBJECT022
10
0
20
0
30
0
70
128
71
1
72
4
73
-8
0
VERTEX
8
OBJECT022
10
0
20
0
30
0
70
128
71
-1
72
8
73
7
0
SEQEND
8
OBJECT022
0
POLYLINE
8
OBJECT023
66
1
70
64
71
8
72
12
62
50
0
VERTEX
8
OBJECT023
10
-2.618674
20
7.708719
30
50.000000
70
192
0
VERTEX
8
OBJECT023
10
67.000000
20
7.708719
30
50.000000
70
192
0
VERTEX
8
OBJECT023
10
67.000000
20
97.099991
30
99.112244
70
192
0
VERTEX
8
OBJECT023
10
-2.618674
20
97.099991
30
99.112244
70
192
0
VERTEX
8
OBJECT023
10
67.000000
20
97.099991
30
111.000000
70
192
0
VERTEX
8
OBJECT023
10
67.000000
20
-16.930601
30
50.000000
70
192
0
VERTEX
8
OBJECT023
10
-2.618674
20
97.099991
30
111.000000
70
192
0
VERTEX
8
OBJECT023
10
-2.618674
20
-16.931850
30
50.000000
70
192
0
VERTEX
8
OBJECT023
10
0
20
0
30
0
70
128
71
2
72
3
73
-4
0
VERTEX
8
OBJECT023
10
0
20
0
30
0
70
128
71
-2
72
4
73
1
0
VERTEX
8
OBJECT023
10
0
20
0
30
0
70
128
71
3
72
2
73
-6
0
VERTEX
8
OBJECT023
10
0
20
0
30
0
70
128
71
-3
72
6
73
5
0
VERTEX
8
OBJECT023
10
0
20
0
30
0
70
128
71
3
72
5
73
-7
0
VERTEX
8
OBJECT023
10
0
20
0
30
0
70
128
71
-3
72
7
73
4
0
VERTEX
8
OBJECT023
10
0
20
0
30
0
70
128
71
5
72
6
73
-8
0
VERTEX
8
OBJECT023
10
0
20
0
30
0
70
128
71
-5
72
8
73
7
0
VERTEX
8
OBJECT023
10
0
20
0
30
0
70
128
71
1
72
8
73
-6
0
VERTEX
8
OBJECT023
10
0
20
0
30
0
70
128
71
-1
72
6
73
2
0
VERTEX
8
OBJECT023
10
0
20
0
30
0
70
128
71
4
72
7
73
-8
0
VERTEX
8
OBJECT023
10
0
20
0
30
0
70
128
71
-4
72
8
73
1
0
SEQEND
8
OBJECT023
0
POLYLINE
8
OBJECT024
66
1
70
64
71
8
72
12
62
50
0
VERTEX
8
OBJECT024
10
-369.342407
20
97.099991
30
99.112244
70
192
0
VERTEX
8
OBJECT024
10
-437.000000
20
97.099991
30
99.112244
70
192
0
VERTEX
8
OBJECT024
10
-437.000000
20
7.708719
30
50.000000
70
192
0
VERTEX
8
OBJECT024
10
-369.342407
20
7.708719
30
50.000000
70
192
0
VERTEX
8
OBJECT024
10
-437.000000
20
97.099991
30
111.000000
70
192
0
VERTEX
8
OBJECT024
10
-437.000000
20
-16.930601
30
50.000000
70
192
0
VERTEX
8
OBJECT024
10
-369.342407
20
97.099991
30
111.000000
70
192
0
VERTEX
8
OBJECT024
10
-369.342407
20
-16.931850
30
50.000000
70
192
0
VERTEX
8
OBJECT024
10
0
20
0
30
0
70
128
71
2
72
3
73
-4
0
VERTEX
8
OBJECT024
10
0
20
0
30
0
70
128
71
-2
72
4
73
1
0
VERTEX
8
OBJECT024
10
0
20
0
30
0
70
128
71
2
72
5
73
-6
0
VERTEX
8
OBJECT024
10
0
20
0
30
0
70
128
71
-2
72
6
73
3
0
VERTEX
8
OBJECT024
10
0
20
0
30
0
70
128
71
2
72
1
73
-7
0
VERTEX
8
OBJECT024
10
0
20
0
30
0
70
128
71
-2
72
7
73
5
0
VERTEX
8
OBJECT024
10
0
20
0
30
0
70
128
71
6
72
5
73
-7
0
VERTEX
8
OBJECT024
10
0
20
0
30
0
70
128
71
-6
72
7
73
8
0
VERTEX
8
OBJECT024
10
0
20
0
30
0
70
128
71
3
72
6
73
-8
0
VERTEX
8
OBJECT024
10
0
20
0
30
0
70
128
71
-3
72
8
73
4
0
VERTEX
8
OBJECT024
10
0
20
0
30
0
70
128
71
1
72
4
73
-8
0
VERTEX
8
OBJECT024
10
0
20
0
30
0
70
128
71
-1
72
8
73
7
0
SEQEND
8
OBJECT024
0
POLYLINE
8
OBJECT025
66
1
70
64
71
8
72
12
62
50
0
VERTEX
8
OBJECT025
10
-2.618674
20
97.099991
30
99.112244
70
192
0
VERTEX
8
OBJECT025
10
-26.910667
20
97.099991
30
99.112244
70
192
0
VERTEX
8
OBJECT025
10
-122.280792
20
7.708719
30
50.000000
70
192
0
VERTEX
8
OBJECT025
10
-2.618674
20
7.708719
30
50.000000
70
192
0
VERTEX
8
OBJECT025
10
-2.618674
20
97.099991
30
111.000000
70
192
0
VERTEX
8
OBJECT025
10
-3.826045
20
97.099991
30
111.000000
70
192
0
VERTEX
8
OBJECT025
10
-2.618674
20
-16.931850
30
50.000000
70
192
0
VERTEX
8
OBJECT025
10
-122.280792
20
-16.931850
30
50.000000
70
192
0
VERTEX
8
OBJECT025
10
0
20
0
30
0
70
128
71
2
72
3
73
-4
0
VERTEX
8
OBJECT025
10
0
20
0
30
0
70
128
71
-2
72
4
73
1
0
VERTEX
8
OBJECT025
10
0
20
0
30
0
70
128
71
1
72
5
73
-6
0
VERTEX
8
OBJECT025
10
0
20
0
30
0
70
128
71
-1
72
6
73
2
0
VERTEX
8
OBJECT025
10
0
20
0
30
0
70
128
71
8
72
6
73
-5
0
VERTEX
8
OBJECT025
10
0
20
0
30
0
70
128
71
-8
72
5
73
7
0
VERTEX
8
OBJECT025
10
0
20
0
30
0
70
128
71
3
72
8
73
-7
0
VERTEX
8
OBJECT025
10
0
20
0
30
0
70
128
71
-3
72
7
73
4
0
VERTEX
8
OBJECT025
10
0
20
0
30
0
70
128
71
1
72
4
73
-7
0
VERTEX
8
OBJECT025
10
0
20
0
30
0
70
128
71
-1
72
7
73
5
0
VERTEX
8
OBJECT025
10
0
20
0
30
0
70
128
71
2
72
6
73
-8
0
VERTEX
8
OBJECT025
10
0
20
0
30
0
70
128
71
-2
72
8
73
3
0
SEQEND
8
OBJECT025
0
POLYLINE
8
OBJECT026
66
1
70
64
71
8
72
12
62
50
0
VERTEX
8
OBJECT026
10
-344.873413
20
97.099991
30
99.112244
70
192
0
VERTEX
8
OBJECT026
10
-369.342407
20
97.099991
30
99.112244
70
192
0
VERTEX
8
OBJECT026
10
-369.342407
20
7.708719
30
50.000000
70
192
0
VERTEX
8
OBJECT026
10
-249.732803
20
7.708719
30
50.000000
70
192
0
VERTEX
8
OBJECT026
10
-367.902466
20
97.099991
30
111.000000
70
192
0
VERTEX
8
OBJECT026
10
-369.342407
20
97.099991
30
111.000000
70
192
0
VERTEX
8
OBJECT026
10
-249.732803
20
-16.931850
30
50.000000
70
192
0
VERTEX
8
OBJECT026
10
-369.342407
20
-16.931850
30
50.000000
70
192
0
VERTEX
8
OBJECT026
10
0
20
0
30
0
70
128
71
2
72
3
73
-4
0
VERTEX
8
OBJECT026
10
0
20
0
30
0
70
128
71
-2
72
4
73
1
0
VERTEX
8
OBJECT026
10
0
20
0
30
0
70
128
71
1
72
5
73
-6
0
VERTEX
8
OBJECT026
10
0
20
0
30
0
70
128
71
-1
72
6
73
2
0
VERTEX
8
OBJECT026
10
0
20
0
30
0
70
128
71
8
72
6
73
-5
0
VERTEX
8
OBJECT026
10
0
20
0
30
0
70
128
71
-8
72
5
73
7
0
VERTEX
8
OBJECT026
10
0
20
0
30
0
70
128
71
3
72
8
73
-7
0
VERTEX
8
OBJECT026
10
0
20
0
30
0
70
128
71
-3
72
7
73
4
0
VERTEX
8
OBJECT026
10
0
20
0
30
0
70
128
71
2
72
6
73
-8
0
VERTEX
8
OBJECT026
10
0
20
0
30
0
70
128
71
-2
72
8
73
3
0
VERTEX
8
OBJECT026
10
0
20
0
30
0
70
128
71
5
72
1
73
-4
0
VERTEX
8
OBJECT026
10
0
20
0
30
0
70
128
71
-5
72
4
73
7
0
SEQEND
8
OBJECT026
0
POLYLINE
8
OBJECT027
66
1
70
64
71
8
72
12
62
50
0
VERTEX
8
OBJECT027
10
-437.000000
20
-149.900009
30
542.000000
70
192
0
VERTEX
8
OBJECT027
10
-437.000000
20
-11.200009
30
542.000000
70
192
0
VERTEX
8
OBJECT027
10
67.000000
20
-11.200009
30
542.000000
70
192
0
VERTEX
8
OBJECT027
10
67.000000
20
-149.900009
30
542.000000
70
192
0
VERTEX
8
OBJECT027
10
-437.000000
20
7.166796
30
532.000000
70
192
0
VERTEX
8
OBJECT027
10
-437.000000
20
-168.487152
30
532.000000
70
192
0
VERTEX
8
OBJECT027
10
67.000000
20
-168.487152
30
532.000000
70
192
0
VERTEX
8
OBJECT027
10
67.000000
20
7.166796
30
532.000000
70
192
0
VERTEX
8
OBJECT027
10
0
20
0
30
0
70
128
71
2
72
3
73
-4
0
VERTEX
8
OBJECT027
10
0
20
0
30
0
70
128
71
-2
72
4
73
1
0
VERTEX
8
OBJECT027
10
0
20
0
30
0
70
128
71
2
72
1
73
-6
0
VERTEX
8
OBJECT027
10
0
20
0
30
0
70
128
71
-2
72
6
73
5
0
VERTEX
8
OBJECT027
10
0
20
0
30
0
70
128
71
4
72
3
73
-8
0
VERTEX
8
OBJECT027
10
0
20
0
30
0
70
128
71
-4
72
8
73
7
0
VERTEX
8
OBJECT027
10
0
20
0
30
0
70
128
71
1
72
4
73
-7
0
VERTEX
8
OBJECT027
10
0
20
0
30
0
70
128
71
-1
72
7
73
6
0
VERTEX
8
OBJECT027
10
0
20
0
30
0
70
128
71
2
72
5
73
-8
0
VERTEX
8
OBJECT027
10
0
20
0
30
0
70
128
71
-2
72
8
73
3
0
VERTEX
8
OBJECT027
10
0
20
0
30
0
70
128
71
6
72
7
73
-8
0
VERTEX
8
OBJECT027
10
0
20
0
30
0
70
128
71
-6
72
8
73
5
0
SEQEND
8
OBJECT027
0
POLYLINE
8
OBJECT028
66
1
70
64
71
8
72
12
62
50
0
VERTEX
8
OBJECT028
10
-2.618674
20
-168.887146
30
532.000000
70
192
0
VERTEX
8
OBJECT028
10
67.000000
20
-168.887146
30
532.000000
70
192
0
VERTEX
8
OBJECT028
10
67.000000
20
-260.100037
30
481.886719
70
192
0
VERTEX
8
OBJECT028
10
-2.618674
20
-260.100037
30
481.886719
70
192
0
VERTEX
8
OBJECT028
10
-2.618674
20
-144.200012
30
532.000000
70
192
0
VERTEX
8
OBJECT028
10
67.000000
20
-144.200012
30
532.000000
70
192
0
VERTEX
8
OBJECT028
10
67.000000
20
-260.100037
30
470.000000
70
192
0
VERTEX
8
OBJECT028
10
-2.618674
20
-260.100037
30
470.000000
70
192
0
VERTEX
8
OBJECT028
10
0
20
0
30
0
70
128
71
2
72
3
73
-4
0
VERTEX
8
OBJECT028
10
0
20
0
30
0
70
128
71
-2
72
4
73
1
0
VERTEX
8
OBJECT028
10
0
20
0
30
0
70
128
71
1
72
5
73
-6
0
VERTEX
8
OBJECT028
10
0
20
0
30
0
70
128
71
-1
72
6
73
2
0
VERTEX
8
OBJECT028
10
0
20
0
30
0
70
128
71
3
72
2
73
-6
0
VERTEX
8
OBJECT028
10
0
20
0
30
0
70
128
71
-3
72
6
73
7
0
VERTEX
8
OBJECT028
10
0
20
0
30
0
70
128
71
3
72
7
73
-8
0
VERTEX
8
OBJECT028
10
0
20
0
30
0
70
128
71
-3
72
8
73
4
0
VERTEX
8
OBJECT028
10
0
20
0
30
0
70
128
71
5
72
8
73
-7
0
VERTEX
8
OBJECT028
10
0
20
0
30
0
70
128
71
-5
72
7
73
6
0
VERTEX
8
OBJECT028
10
0
20
0
30
0
70
128
71
1
72
4
73
-8
0
VERTEX
8
OBJECT028
10
0
20
0
30
0
70
128
71
-1
72
8
73
5
0
SEQEND
8
OBJECT028
0
POLYLINE
8
OBJECT029
66
1
70
64
71
8
72
12
62
50
0
VERTEX
8
OBJECT029
10
-369.342407
20
-260.100037
30
481.886719
70
192
0
VERTEX
8
OBJECT029
10
-437.000000
20
-260.100037
30
481.886719
70
192
0
VERTEX
8
OBJECT029
10
-437.000000
20
-168.887146
30
532.000000
70
192
0
VERTEX
8
OBJECT029
10
-369.342407
20
-168.887146
30
532.000000
70
192
0
VERTEX
8
OBJECT029
10
-437.000000
20
-144.200012
30
532.000000
70
192
0
VERTEX
8
OBJECT029
10
-369.342407
20
-144.200012
30
532.000000
70
192
0
VERTEX
8
OBJECT029
10
-437.000000
20
-260.100037
30
470.000000
70
192
0
VERTEX
8
OBJECT029
10
-369.342407
20
-260.100037
30
470.000000
70
192
0
VERTEX
8
OBJECT029
10
0
20
0
30
0
70
128
71
2
72
3
73
-4
0
VERTEX
8
OBJECT029
10
0
20
0
30
0
70
128
71
-2
72
4
73
1
0
VERTEX
8
OBJECT029
10
0
20
0
30
0
70
128
71
3
72
5
73
-6
0
VERTEX
8
OBJECT029
10
0
20
0
30
0
70
128
71
-3
72
6
73
4
0
VERTEX
8
OBJECT029
10
0
20
0
30
0
70
128
71
3
72
2
73
-7
0
VERTEX
8
OBJECT029
10
0
20
0
30
0
70
128
71
-3
72
7
73
5
0
VERTEX
8
OBJECT029
10
0
20
0
30
0
70
128
71
7
72
2
73
-1
0
VERTEX
8
OBJECT029
10
0
20
0
30
0
70
128
71
-7
72
1
73
8
0
VERTEX
8
OBJECT029
10
0
20
0
30
0
70
128
71
5
72
7
73
-8
0
VERTEX
8
OBJECT029
10
0
20
0
30
0
70
128
71
-5
72
8
73
6
0
VERTEX
8
OBJECT029
10
0
20
0
30
0
70
128
71
1
72
4
73
-6
0
VERTEX
8
OBJECT029
10
0
20
0
30
0
70
128
71
-1
72
6
73
8
0
SEQEND
8
OBJECT029
0
POLYLINE
8
OBJECT030
66
1
70
64
71
8
72
12
62
50
0
VERTEX
8
OBJECT030
10
-369.342407
20
-170.707260
30
531.000000
70
192
0
VERTEX
8
OBJECT030
10
-369.342407
20
-168.887146
30
532.000000
70
192
0
VERTEX
8
OBJECT030
10
-2.618674
20
-168.887146
30
532.000000
70
192
0
VERTEX
8
OBJECT030
10
-2.618674
20
-170.707260
30
531.000000
70
192
0
VERTEX
8
OBJECT030
10
-369.342407
20
-144.200012
30
532.000000
70
192
0
VERTEX
8
OBJECT030
10
-2.618674
20
-144.200012
30
532.000000
70
192
0
VERTEX
8
OBJECT030
10
-369.342407
20
-146.068558
30
531.000000
70
192
0
VERTEX
8
OBJECT030
10
-2.618674
20
-146.068558
30
531.000000
70
192
0
VERTEX
8
OBJECT030
10
0
20
0
30
0
70
128
71
2
72
3
73
-4
0
VERTEX
8
OBJECT030
10
0
20
0
30
0
70
128
71
-2
72
4
73
1
0
VERTEX
8
OBJECT030
10
0
20
0
30
0
70
128
71
2
72
5
73
-6
0
VERTEX
8
OBJECT030
10
0
20
0
30
0
70
128
71
-2
72
6
73
3
0
VERTEX
8
OBJECT030
10
0
20
0
30
0
70
128
71
5
72
7
73
-8
0
VERTEX
8
OBJECT030
10
0
20
0
30
0
70
128
71
-5
72
8
73
6
0
VERTEX
8
OBJECT030
10
0
20
0
30
0
70
128
71
3
72
6
73
-8
0
VERTEX
8
OBJECT030
10
0
20
0
30
0
70
128
71
-3
72
8
73
4
0
VERTEX
8
OBJECT030
10
0
20
0
30
0
70
128
71
2
72
1
73
-7
0
VERTEX
8
OBJECT030
10
0
20
0
30
0
70
128
71
-2
72
7
73
5
0
VERTEX
8
OBJECT030
10
0
20
0
30
0
70
128
71
7
72
1
73
-4
0
VERTEX
8
OBJECT030
10
0
20
0
30
0
70
128
71
-7
72
4
73
8
0
SEQEND
8
OBJECT030
0
POLYLINE
8
OBJECT031
66
1
70
64
71
8
72
12
62
50
0
VERTEX
8
OBJECT031
10
-345.797943
20
-260.100037
30
481.886688
70
192
0
VERTEX
8
OBJECT031
10
-369.342407
20
-260.100037
30
481.886688
70
192
0
VERTEX
8
OBJECT031
10
-369.342407
20
-170.707230
30
531.000000
70
192
0
VERTEX
8
OBJECT031
10
-251.293961
20
-170.707230
30
531.000000
70
192
0
VERTEX
8
OBJECT031
10
-368.670380
20
-260.100037
30
470.000000
70
192
0
VERTEX
8
OBJECT031
10
-369.342407
20
-260.100037
30
470.000000
70
192
0
VERTEX
8
OBJECT031
10
-369.342407
20
-146.068573
30
531.000000
70
192
0
VERTEX
8
OBJECT031
10
-251.293961
20
-146.068573
30
531.000000
70
192
0
VERTEX
8
OBJECT031
10
0
20
0
30
0
70
128
71
2
72
3
73
-4
0
VERTEX
8
OBJECT031
10
0
20
0
30
0
70
128
71
-2
72
4
73
1
0
VERTEX
8
OBJECT031
10
0
20
0
30
0
70
128
71
6
72
2
73
-1
0
VERTEX
8
OBJECT031
10
0
20
0
30
0
70
128
71
-6
72
1
73
5
0
VERTEX
8
OBJECT031
10
0
20
0
30
0
70
128
71
6
72
5
73
-8
0
VERTEX
8
OBJECT031
10
0
20
0
30
0
70
128
71
-6
72
8
73
7
0
VERTEX
8
OBJECT031
10
0
20
0
30
0
70
128
71
2
72
6
73
-7
0
VERTEX
8
OBJECT031
10
0
20
0
30
0
70
128
71
-2
72
7
73
3
0
VERTEX
8
OBJECT031
10
0
20
0
30
0
70
128
71
3
72
7
73
-8
0
VERTEX
8
OBJECT031
10
0
20
0
30
0
70
128
71
-3
72
8
73
4
0
VERTEX
8
OBJECT031
10
0
20
0
30
0
70
128
71
5
72
1
73
-4
0
VERTEX
8
OBJECT031
10
0
20
0
30
0
70
128
71
-5
72
4
73
8
0
SEQEND
8
OBJECT031
0
POLYLINE
8
OBJECT032
66
1
70
64
71
8
72
12
62
50
0
VERTEX
8
OBJECT032
10
-2.618674
20
-260.100037
30
481.886688
70
192
0
VERTEX
8
OBJECT032
10
-27.906460
20
-260.100037
30
481.886688
70
192
0
VERTEX
8
OBJECT032
10
-121.608810
20
-170.707230
30
531.000000
70
192
0
VERTEX
8
OBJECT032
10
-2.618674
20
-170.707230
30
531.000000
70
192
0
VERTEX
8
OBJECT032
10
-2.618674
20
-260.100037
30
470.000000
70
192
0
VERTEX
8
OBJECT032
10
-5.228016
20
-260.100037
30
470.000000
70
192
0
VERTEX
8
OBJECT032
10
-2.618674
20
-146.068573
30
531.000000
70
192
0
VERTEX
8
OBJECT032
10
-121.608810
20
-146.068573
30
531.000000
70
192
0
VERTEX
8
OBJECT032
10
0
20
0
30
0
70
128
71
2
72
3
73
-4
0
VERTEX
8
OBJECT032
10
0
20
0
30
0
70
128
71
-2
72
4
73
1
0
VERTEX
8
OBJECT032
10
0
20
0
30
0
70
128
71
6
72
2
73
-1
0
VERTEX
8
OBJECT032
10
0
20
0
30
0
70
128
71
-6
72
1
73
5
0
VERTEX
8
OBJECT032
10
0
20
0
30
0
70
128
71
5
72
7
73
-8
0
VERTEX
8
OBJECT032
10
0
20
0
30
0
70
128
71
-5
72
8
73
6
0
VERTEX
8
OBJECT032
10
0
20
0
30
0
70
128
71
5
72
1
73
-4
0
VERTEX
8
OBJECT032
10
0
20
0
30
0
70
128
71
-5
72
4
73
7
0
VERTEX
8
OBJECT032
10
0
20
0
30
0
70
128
71
3
72
8
73
-7
0
VERTEX
8
OBJECT032
10
0
20
0
30
0
70
128
71
-3
72
7
73
4
0
VERTEX
8
OBJECT032
10
0
20
0
30
0
70
128
71
2
72
6
73
-8
0
VERTEX
8
OBJECT032
10
0
20
0
30
0
70
128
71
-2
72
8
73
3
0
SEQEND
8
OBJECT032
0
POLYLINE
8
OBJECT033
66
1
70
64
71
8
72
12
62
50
0
VERTEX
8
OBJECT033
10
67.000000
20
5.889485
30
532.000000
70
192
0
VERTEX
8
OBJECT033
10
-2.618674
20
5.889485
30
532.000000
70
192
0
VERTEX
8
OBJECT033
10
-2.618674
20
97.099991
30
481.887848
70
192
0
VERTEX
8
OBJECT033
10
67.000000
20
97.099991
30
481.887848
70
192
0
VERTEX
8
OBJECT033
10
67.000000
20
-18.800011
30
532.000000
70
192
0
VERTEX
8
OBJECT033
10
-2.618674
20
-18.800011
30
532.000000
70
192
0
VERTEX
8
OBJECT033
10
67.000000
20
97.099991
30
470.000000
70
192
0
VERTEX
8
OBJECT033
10
-2.618674
20
97.099991
30
470.000000
70
192
0
VERTEX
8
OBJECT033
10
0
20
0
30
0
70
128
71
2
72
3
73
-4
0
VERTEX
8
OBJECT033
10
0
20
0
30
0
70
128
71
-2
72
4
73
1
0
VERTEX
8
OBJECT033
10
0
20
0
30
0
70
128
71
1
72
5
73
-6
0
VERTEX
8
OBJECT033
10
0
20
0
30
0
70
128
71
-1
72
6
73
2
0
VERTEX
8
OBJECT033
10
0
20
0
30
0
70
128
71
1
72
4
73
-7
0
VERTEX
8
OBJECT033
10
0
20
0
30
0
70
128
71
-1
72
7
73
5
0
VERTEX
8
OBJECT033
10
0
20
0
30
0
70
128
71
4
72
3
73
-8
0
VERTEX
8
OBJECT033
10
0
20
0
30
0
70
128
71
-4
72
8
73
7
0
VERTEX
8
OBJECT033
10
0
20
0
30
0
70
128
71
5
72
7
73
-8
0
VERTEX
8
OBJECT033
10
0
20
0
30
0
70
128
71
-5
72
8
73
6
0
VERTEX
8
OBJECT033
10
0
20
0
30
0
70
128
71
3
72
2
73
-6
0
VERTEX
8
OBJECT033
10
0
20
0
30
0
70
128
71
-3
72
6
73
8
0
SEQEND
8
OBJECT033
0
POLYLINE
8
OBJECT034
66
1
70
64
71
8
72
12
62
50
0
VERTEX
8
OBJECT034
10
-369.342407
20
5.889485
30
532.000000
70
192
0
VERTEX
8
OBJECT034
10
-437.000000
20
5.889485
30
532.000000
70
192
0
VERTEX
8
OBJECT034
10
-437.000000
20
97.099991
30
481.887848
70
192
0
VERTEX
8
OBJECT034
10
-369.342407
20
97.099991
30
481.887848
70
192
0
VERTEX
8
OBJECT034
10
-369.342407
20
-18.800011
30
532.000000
70
192
0
VERTEX
8
OBJECT034
10
-437.000000
20
-18.800011
30
532.000000
70
192
0
VERTEX
8
OBJECT034
10
-437.000000
20
97.099991
30
470.000000
70
192
0
VERTEX
8
OBJECT034
10
-369.342407
20
97.099991
30
470.000000
70
192
0
VERTEX
8
OBJECT034
10
0
20
0
30
0
70
128
71
2
72
3
73
-4
0
VERTEX
8
OBJECT034
10
0
20
0
30
0
70
128
71
-2
72
4
73
1
0
VERTEX
8
OBJECT034
10
0
20
0
30
0
70
128
71
6
72
2
73
-1
0
VERTEX
8
OBJECT034
10
0
20
0
30
0
70
128
71
-6
72
1
73
5
0
VERTEX
8
OBJECT034
10
0
20
0
30
0
70
128
71
3
72
2
73
-6
0
VERTEX
8
OBJECT034
10
0
20
0
30
0
70
128
71
-3
72
6
73
7
0
VERTEX
8
OBJECT034
10
0
20
0
30
0
70
128
71
3
72
7
73
-8
0
VERTEX
8
OBJECT034
10
0
20
0
30
0
70
128
71
-3
72
8
73
4
0
VERTEX
8
OBJECT034
10
0
20
0
30
0
70
128
71
7
72
6
73
-5
0
VERTEX
8
OBJECT034
10
0
20
0
30
0
70
128
71
-7
72
5
73
8
0
VERTEX
8
OBJECT034
10
0
20
0
30
0
70
128
71
1
72
4
73
-8
0
VERTEX
8
OBJECT034
10
0
20
0
30
0
70
128
71
-1
72
8
73
5
0
SEQEND
8
OBJECT034
0
POLYLINE
8
OBJECT035
66
1
70
64
71
8
72
12
62
50
0
VERTEX
8
OBJECT035
10
-2.618674
20
5.889485
30
532.000000
70
192
0
VERTEX
8
OBJECT035
10
-369.342407
20
5.889485
30
532.000000
70
192
0
VERTEX
8
OBJECT035
10
-369.342407
20
7.709613
30
531.000000
70
192
0
VERTEX
8
OBJECT035
10
-2.618674
20
7.709613
30
531.000000
70
192
0
VERTEX
8
OBJECT035
10
-2.618674
20
-18.800011
30
532.000000
70
192
0
VERTEX
8
OBJECT035
10
-369.342407
20
-18.800011
30
532.000000
70
192
0
VERTEX
8
OBJECT035
10
-369.342407
20
-16.929087
30
531.000000
70
192
0
VERTEX
8
OBJECT035
10
-2.618674
20
-16.929087
30
531.000000
70
192
0
VERTEX
8
OBJECT035
10
0
20
0
30
0
70
128
71
2
72
3
73
-4
0
VERTEX
8
OBJECT035
10
0
20
0
30
0
70
128
71
-2
72
4
73
1
0
VERTEX
8
OBJECT035
10
0
20
0
30
0
70
128
71
6
72
2
73
-1
0
VERTEX
8
OBJECT035
10
0
20
0
30
0
70
128
71
-6
72
1
73
5
0
VERTEX
8
OBJECT035
10
0
20
0
30
0
70
128
71
6
72
5
73
-8
0
VERTEX
8
OBJECT035
10
0
20
0
30
0
70
128
71
-6
72
8
73
7
0
VERTEX
8
OBJECT035
10
0
20
0
30
0
70
128
71
1
72
4
73
-8
0
VERTEX
8
OBJECT035
10
0
20
0
30
0
70
128
71
-1
72
8
73
5
0
VERTEX
8
OBJECT035
10
0
20
0
30
0
70
128
71
2
72
6
73
-7
0
VERTEX
8
OBJECT035
10
0
20
0
30
0
70
128
71
-2
72
7
73
3
0
VERTEX
8
OBJECT035
10
0
20
0
30
0
70
128
71
3
72
7
73
-8
0
VERTEX
8
OBJECT035
10
0
20
0
30
0
70
128
71
-3
72
8
73
4
0
SEQEND
8
OBJECT035
0
POLYLINE
8
OBJECT036
66
1
70
64
71
8
72
12
62
50
0
VERTEX
8
OBJECT036
10
-369.342407
20
7.709609
30
531.000000
70
192
0
VERTEX
8
OBJECT036
10
-369.342407
20
97.099991
30
481.887848
70
192
0
VERTEX
8
OBJECT036
10
-345.795685
20
97.099991
30
481.887848
70
192
0
VERTEX
8
OBJECT036
10
-251.293961
20
7.709609
30
531.000000
70
192
0
VERTEX
8
OBJECT036
10
-369.342407
20
97.099991
30
470.000000
70
192
0
VERTEX
8
OBJECT036
10
-368.670258
20
97.099991
30
470.000000
70
192
0
VERTEX
8
OBJECT036
10
-369.342407
20
-16.929062
30
531.000000
70
192
0
VERTEX
8
OBJECT036
10
-251.293961
20
-16.929062
30
531.000000
70
192
0
VERTEX
8
OBJECT036
10
0
20
0
30
0
70
128
71
2
72
3
73
-4
0
VERTEX
8
OBJECT036
10
0
20
0
30
0
70
128
71
-2
72
4
73
1
0
VERTEX
8
OBJECT036
10
0
20
0
30
0
70
128
71
6
72
3
73
-2
0
VERTEX
8
OBJECT036
10
0
20
0
30
0
70
128
71
-6
72
2
73
5
0
VERTEX
8
OBJECT036
10
0
20
0
30
0
70
128
71
5
72
7
73
-8
0
VERTEX
8
OBJECT036
10
0
20
0
30
0
70
128
71
-5
72
8
73
6
0
VERTEX
8
OBJECT036
10
0
20
0
30
0
70
128
71
5
72
2
73
-1
0
VERTEX
8
OBJECT036
10
0
20
0
30
0
70
128
71
-5
72
1
73
7
0
VERTEX
8
OBJECT036
10
0
20
0
30
0
70
128
71
7
72
1
73
-4
0
VERTEX
8
OBJECT036
10
0
20
0
30
0
70
128
71
-7
72
4
73
8
0
VERTEX
8
OBJECT036
10
0
20
0
30
0
70
128
71
3
72
6
73
-8
0
VERTEX
8
OBJECT036
10
0
20
0
30
0
70
128
71
-3
72
8
73
4
0
SEQEND
8
OBJECT036
0
POLYLINE
8
OBJECT037
66
1
70
64
71
8
72
12
62
50
0
VERTEX
8
OBJECT037
10
-27.908672
20
97.099991
30
481.887848
70
192
0
VERTEX
8
OBJECT037
10
-2.618674
20
97.099991
30
481.887848
70
192
0
VERTEX
8
OBJECT037
10
-2.618674
20
7.709609
30
531.000000
70
192
0
VERTEX
8
OBJECT037
10
-121.608810
20
7.709609
30
531.000000
70
192
0
VERTEX
8
OBJECT037
10
-5.228133
20
97.099991
30
470.000000
70
192
0
VERTEX
8
OBJECT037
10
-2.618674
20
97.099991
30
470.000000
70
192
0
VERTEX
8
OBJECT037
10
-121.608810
20
-16.929062
30
531.000000
70
192
0
VERTEX
8
OBJECT037
10
-2.618674
20
-16.929062
30
531.000000
70
192
0
VERTEX
8
OBJECT037
10
0
20
0
30
0
70
128
71
2
72
3
73
-4
0
VERTEX
8
OBJECT037
10
0
20
0
30
0
70
128
71
-2
72
4
73
1
0
VERTEX
8
OBJECT037
10
0
20
0
30
0
70
128
71
6
72
2
73
-1
0
VERTEX
8
OBJECT037
10
0
20
0
30
0
70
128
71
-6
72
1
73
5
0
VERTEX
8
OBJECT037
10
0
20
0
30
0
70
128
71
5
72
7
73
-8
0
VERTEX
8
OBJECT037
10
0
20
0
30
0
70
128
71
-5
72
8
73
6
0
VERTEX
8
OBJECT037
10
0
20
0
30
0
70
128
71
2
72
6
73
-8
0
VERTEX
8
OBJECT037
10
0
20
0
30
0
70
128
71
-2
72
8
73
3
0
VERTEX
8
OBJECT037
10
0
20
0
30
0
70
128
71
7
72
4
73
-3
0
VERTEX
8
OBJECT037
10
0
20
0
30
0
70
128
71
-7
72
3
73
8
0
VERTEX
8
OBJECT037
10
0
20
0
30
0
70
128
71
1
72
4
73
-7
0
VERTEX
8
OBJECT037
10
0
20
0
30
0
70
128
71
-1
72
7
73
5
0
SEQEND
8
OBJECT037
0
POLYLINE
8
OBJECT038
66
1
70
64
71
4
72
4
62
50
0
VERTEX
8
OBJECT038
10
-359.251862
20
-244.348969
30
482.722046
70
192
0
VERTEX
8
OBJECT038
10
-359.251862
20
-270.000000
30
482.722046
70
192
0
VERTEX
8
OBJECT038
10
-371.640015
20
-270.000000
30
469.650665
70
192
0
VERTEX
8
OBJECT038
10
-359.251862
20
-270.000000
30
469.650665
70
192
0
VERTEX
8
OBJECT038
10
0
20
0
30
0
70
128
71
2
72
3
73
1
0
VERTEX
8
OBJECT038
10
0
20
0
30
0
70
128
71
2
72
1
73
4
0
VERTEX
8
OBJECT038
10
0
20
0
30
0
70
128
71
2
72
4
73
3
0
VERTEX
8
OBJECT038
10
0
20
0
30
0
70
128
71
3
72
4
73
1
0
SEQEND
8
OBJECT038
0
POLYLINE
8
OBJECT039
66
1
70
64
71
4
72
4
62
50
0
VERTEX
8
OBJECT039
10
-372.605164
20
104.000000
30
468.632263
70
192
0
VERTEX
8
OBJECT039
10
-359.251862
20
104.000000
30
482.722046
70
192
0
VERTEX
8
OBJECT039
10
-359.251862
20
76.585022
30
482.722046
70
192
0
VERTEX
8
OBJECT039
10
-359.251862
20
104.000000
30
468.632263
70
192
0
VERTEX
8
OBJECT039
10
0
20
0
30
0
70
128
71
2
72
3
73
1
0
VERTEX
8
OBJECT039
10
0
20
0
30
0
70
128
71
2
72
4
73
3
0
VERTEX
8
OBJECT039
10
0
20
0
30
0
70
128
71
1
72
4
73
2
0
VERTEX
8
OBJECT039
10
0
20
0
30
0
70
128
71
3
72
4
73
1
0
SEQEND
8
OBJECT039
0
POLYLINE
8
OBJECT040
66
1
70
64
71
6
72
8
62
50
0
VERTEX
8
OBJECT040
10
-359.989105
20
104.000000
30
99.000000
70
192
0
VERTEX
8
OBJECT040
10
-359.989105
20
79.000000
30
99.000000
70
192
0
VERTEX
8
OBJECT040
10
-359.251862
20
79.000000
30
99.000000
70
192
0
VERTEX
8
OBJECT040
10
-359.251862
20
104.000000
30
99.000000
70
192
0
VERTEX
8
OBJECT040
10
-367.317871
20
104.000000
30
111.621727
70
192
0
VERTEX
8
OBJECT040
10
-359.251862
20
104.000000
30
111.621727
70
192
0
VERTEX
8
OBJECT040
10
0
20
0
30
0
70
128
71
2
72
3
73
-4
0
VERTEX
8
OBJECT040
10
0
20
0
30
0
70
128
71
-2
72
4
73
1
0
VERTEX
8
OBJECT040
10
0
20
0
30
0
70
128
71
1
72
5
73
2
0
VERTEX
8
OBJECT040
10
0
20
0
30
0
70
128
71
3
72
6
73
4
0
VERTEX
8
OBJECT040
10
0
20
0
30
0
70
128
71
1
72
4
73
-6
0
VERTEX
8
OBJECT040
10
0
20
0
30
0
70
128
71
-1
72
6
73
5
0
VERTEX
8
OBJECT040
10
0
20
0
30
0
70
128
71
2
72
5
73
-6
0
VERTEX
8
OBJECT040
10
0
20
0
30
0
70
128
71
-2
72
6
73
3
0
SEQEND
8
OBJECT040
0
POLYLINE
8
OBJECT041
66
1
70
64
71
6
72
8
62
50
0
VERTEX
8
OBJECT041
10
-359.989105
20
-244.823761
30
99.000000
70
192
0
VERTEX
8
OBJECT041
10
-359.989105
20
-270.000000
30
99.000000
70
192
0
VERTEX
8
OBJECT041
10
-359.251862
20
-270.000000
30
99.000000
70
192
0
VERTEX
8
OBJECT041
10
-359.251862
20
-244.823761
30
99.000000
70
192
0
VERTEX
8
OBJECT041
10
-367.388428
20
-270.000000
30
111.743294
70
192
0
VERTEX
8
OBJECT041
10
-359.251862
20
-270.000000
30
111.743294
70
192
0
VERTEX
8
OBJECT041
10
0
20
0
30
0
70
128
71
2
72
3
73
-4
0
VERTEX
8
OBJECT041
10
0
20
0
30
0
70
128
71
-2
72
4
73
1
0
VERTEX
8
OBJECT041
10
0
20
0
30
0
70
128
71
1
72
5
73
2
0
VERTEX
8
OBJECT041
10
0
20
0
30
0
70
128
71
3
72
6
73
4
0
VERTEX
8
OBJECT041
10
0
20
0
30
0
70
128
71
2
72
5
73
-6
0
VERTEX
8
OBJECT041
10
0
20
0
30
0
70
128
71
-2
72
6
73
3
0
VERTEX
8
OBJECT041
10
0
20
0
30
0
70
128
71
1
72
4
73
-6
0
VERTEX
8
OBJECT041
10
0
20
0
30
0
70
128
71
-1
72
6
73
5
0
SEQEND
8
OBJECT041
0
POLYLINE
8
OBJECT042
66
1
70
64
71
12
72
20
62
50
0
VERTEX
8
OBJECT042
10
-359.251862
20
175.000000
30
99.000000
70
192
0
VERTEX
8
OBJECT042
10
-359.989655
20
175.000000
30
99.000000
70
192
0
VERTEX
8
OBJECT042
10
-359.989655
20
104.000000
30
99.000000
70
192
0
VERTEX
8
OBJECT042
10
-359.251862
20
104.000000
30
99.000000
70
192
0
VERTEX
8
OBJECT042
10
-359.251862
20
175.000000
30
482.722015
70
192
0
VERTEX
8
OBJECT042
10
-373.475006
20
175.000000
30
467.716583
70
192
0
VERTEX
8
OBJECT042
10
-379.000000
20
175.000000
30
458.041840
70
192
0
VERTEX
8
OBJECT042
10
-379.000000
20
175.000000
30
131.742477
70
192
0
VERTEX
8
OBJECT042
10
-373.473022
20
104.000000
30
467.720032
70
192
0
VERTEX
8
OBJECT042
10
-359.251862
20
104.000000
30
482.723358
70
192
0
VERTEX
8
OBJECT042
10
-379.000000
20
104.000000
30
458.039886
70
192
0
VERTEX
8
OBJECT042
10
-379.000000
20
104.000000
30
131.739807
70
192
0
VERTEX
8
OBJECT042
10
0
20
0
30
0
70
128
71
2
72
3
73
-4
0
VERTEX
8
OBJECT042
10
0
20
0
30
0
70
128
71
-2
72
4
73
1
0
VERTEX
8
OBJECT042
10
0
20
0
30
0
70
128
71
6
72
7
73
-8
0
VERTEX
8
OBJECT042
10
0
20
0
30
0
70
128
71
-6
72
8
73
-2
0
VERTEX
8
OBJECT042
10
0
20
0
30
0
70
128
71
-6
72
2
73
-1
0
VERTEX
8
OBJECT042
10
0
20
0
30
0
70
128
71
-6
72
1
73
5
0
VERTEX
8
OBJECT042
10
0
20
0
30
0
70
128
71
6
72
5
73
-10
0
VERTEX
8
OBJECT042
10
0
20
0
30
0
70
128
71
-6
72
10
73
9
0
VERTEX
8
OBJECT042
10
0
20
0
30
0
70
128
71
6
72
9
73
-11
0
VERTEX
8
OBJECT042
10
0
20
0
30
0
70
128
71
-6
72
11
73
7
0
VERTEX
8
OBJECT042
10
0
20
0
30
0
70
128
71
2
72
8
73
-12
0
VERTEX
8
OBJECT042
10
0
20
0
30
0
70
128
71
-2
72
12
73
3
0
VERTEX
8
OBJECT042
10
0
20
0
30
0
70
128
71
1
72
4
73
-10
0
VERTEX
8
OBJECT042
10
0
20
0
30
0
70
128
71
-1
72
10
73
5
0
VERTEX
8
OBJECT042
10
0
20
0
30
0
70
128
71
3
72
12
73
-11
0
VERTEX
8
OBJECT042
10
0
20
0
30
0
70
128
71
-3
72
11
73
-9
0
VERTEX
8
OBJECT042
10
0
20
0
30
0
70
128
71
-3
72
9
73
-10
0
VERTEX
8
OBJECT042
10
0
20
0
30
0
70
128
71
-3
72
10
73
4
0
VERTEX
8
OBJECT042
10
0
20
0
30
0
70
128
71
8
72
7
73
-11
0
VERTEX
8
OBJECT042
10
0
20
0
30
0
70
128
71
-8
72
11
73
12
0
SEQEND
8
OBJECT042
0
POLYLINE
8
OBJECT043
66
1
70
64
71
8
72
12
62
50
0
VERTEX
8
OBJECT043
10
-437.000000
20
104.000000
30
231.638794
70
192
0
VERTEX
8
OBJECT043
10
-437.000000
20
116.000000
30
231.638794
70
192
0
VERTEX
8
OBJECT043
10
-437.000000
20
116.000000
30
356.478943
70
192
0
VERTEX
8
OBJECT043
10
-437.000000
20
104.000000
30
356.478943
70
192
0
VERTEX
8
OBJECT043
10
-379.000000
20
104.000000
30
458.039856
70
192
0
VERTEX
8
OBJECT043
10
-379.000000
20
116.000000
30
458.039856
70
192
0
VERTEX
8
OBJECT043
10
-379.000000
20
104.000000
30
131.739792
70
192
0
VERTEX
8
OBJECT043
10
-379.000000
20
116.000000
30
131.739792
70
192
0
VERTEX
8
OBJECT043
10
0
20
0
30
0
70
128
71
2
72
3
73
-4
0
VERTEX
8
OBJECT043
10
0
20
0
30
0
70
128
71
-2
72
4
73
1
0
VERTEX
8
OBJECT043
10
0
20
0
30
0
70
128
71
4
72
3
73
-6
0
VERTEX
8
OBJECT043
10
0
20
0
30
0
70
128
71
-4
72
6
73
5
0
VERTEX
8
OBJECT043
10
0
20
0
30
0
70
128
71
1
72
7
73
-8
0
VERTEX
8
OBJECT043
10
0
20
0
30
0
70
128
71
-1
72
8
73
2
0
VERTEX
8
OBJECT043
10
0
20
0
30
0
70
128
71
1
72
4
73
-5
0
VERTEX
8
OBJECT043
10
0
20
0
30
0
70
128
71
-1
72
5
73
7
0
VERTEX
8
OBJECT043
10
0
20
0
30
0
70
128
71
7
72
5
73
-6
0
VERTEX
8
OBJECT043
10
0
20
0
30
0
70
128
71
-7
72
6
73
8
0
VERTEX
8
OBJECT043
10
0
20
0
30
0
70
128
71
3
72
2
73
-8
0
VERTEX
8
OBJECT043
10
0
20
0
30
0
70
128
71
-3
72
8
73
6
0
SEQEND
8
OBJECT043
0
POLYLINE
8
OBJECT044
66
1
70
64
71
12
72
20
62
50
0
VERTEX
8
OBJECT044
10
-359.989655
20
-270.000000
30
99.000000
70
192
0
VERTEX
8
OBJECT044
10
-359.989655
20
-339.000000
30
99.000000
70
192
0
VERTEX
8
OBJECT044
10
-359.251862
20
-339.000000
30
99.000000
70
192
0
VERTEX
8
OBJECT044
10
-359.251862
20
-270.000000
30
99.000000
70
192
0
VERTEX
8
OBJECT044
10
-379.000000
20
-339.000000
30
131.742493
70
192
0
VERTEX
8
OBJECT044
10
-379.000000
20
-339.000000
30
458.041840
70
192
0
VERTEX
8
OBJECT044
10
-373.474976
20
-339.000000
30
467.716644
70
192
0
VERTEX
8
OBJECT044
10
-359.251862
20
-339.000000
30
482.722046
70
192
0
VERTEX
8
OBJECT044
10
-373.473053
20
-270.000000
30
467.720001
70
192
0
VERTEX
8
OBJECT044
10
-359.251862
20
-270.000000
30
482.723358
70
192
0
VERTEX
8
OBJECT044
10
-379.000000
20
-270.000000
30
458.039886
70
192
0
VERTEX
8
OBJECT044
10
-379.000000
20
-270.000000
30
131.739746
70
192
0
VERTEX
8
OBJECT044
10
0
20
0
30
0
70
128
71
2
72
3
73
-4
0
VERTEX
8
OBJECT044
10
0
20
0
30
0
70
128
71
-2
72
4
73
1
0
VERTEX
8
OBJECT044
10
0
20
0
30
0
70
128
71
2
72
5
73
-6
0
VERTEX
8
OBJECT044
10
0
20
0
30
0
70
128
71
-2
72
6
73
-7
0
VERTEX
8
OBJECT044
10
0
20
0
30
0
70
128
71
-2
72
7
73
-8
0
VERTEX
8
OBJECT044
10
0
20
0
30
0
70
128
71
-2
72
8
73
3
0
VERTEX
8
OBJECT044
10
0
20
0
30
0
70
128
71
7
72
9
73
-10
0
VERTEX
8
OBJECT044
10
0
20
0
30
0
70
128
71
-7
72
10
73
8
0
VERTEX
8
OBJECT044
10
0
20
0
30
0
70
128
71
6
72
11
73
-9
0
VERTEX
8
OBJECT044
10
0
20
0
30
0
70
128
71
-6
72
9
73
7
0
VERTEX
8
OBJECT044
10
0
20
0
30
0
70
128
71
2
72
1
73
-12
0
VERTEX
8
OBJECT044
10
0
20
0
30
0
70
128
71
-2
72
12
73
5
0
VERTEX
8
OBJECT044
10
0
20
0
30
0
70
128
71
3
72
8
73
-10
0
VERTEX
8
OBJECT044
10
0
20
0
30
0
70
128
71
-3
72
10
73
4
0
VERTEX
8
OBJECT044
10
0
20
0
30
0
70
128
71
9
72
11
73
-12
0
VERTEX
8
OBJECT044
10
0
20
0
30
0
70
128
71
-9
72
12
73
-1
0
VERTEX
8
OBJECT044
10
0
20
0
30
0
70
128
71
-9
72
1
73
-4
0
VERTEX
8
OBJECT044
10
0
20
0
30
0
70
128
71
-9
72
4
73
10
0
VERTEX
8
OBJECT044
10
0
20
0
30
0
70
128
71
5
72
12
73
-11
0
VERTEX
8
OBJECT044
10
0
20
0
30
0
70
128
71
-5
72
11
73
6
0
SEQEND
8
OBJECT044
0
POLYLINE
8
OBJECT045
66
1
70
64
71
8
72
12
62
50
0
VERTEX
8
OBJECT045
10
-437.000000
20
-280.000000
30
231.638824
70
192
0
VERTEX
8
OBJECT045
10
-437.000000
20
-270.000000
30
231.638824
70
192
0
VERTEX
8
OBJECT045
10
-437.000000
20
-270.000000
30
356.478943
70
192
0
VERTEX
8
OBJECT045
10
-437.000000
20
-280.000000
30
356.478943
70
192
0
VERTEX
8
OBJECT045
10
-379.000000
20
-270.000000
30
458.039856
70
192
0
VERTEX
8
OBJECT045
10
-379.000000
20
-280.000000
30
458.039856
70
192
0
VERTEX
8
OBJECT045
10
-379.000000
20
-280.000000
30
131.739731
70
192
0
VERTEX
8
OBJECT045
10
-379.000000
20
-270.000000
30
131.739731
70
192
0
VERTEX
8
OBJECT045
10
0
20
0
30
0
70
128
71
2
72
3
73
-4
0
VERTEX
8
OBJECT045
10
0
20
0
30
0
70
128
71
-2
72
4
73
1
0
VERTEX
8
OBJECT045
10
0
20
0
30
0
70
128
71
3
72
5
73
-6
0
VERTEX
8
OBJECT045
10
0
20
0
30
0
70
128
71
-3
72
6
73
4
0
VERTEX
8
OBJECT045
10
0
20
0
30
0
70
128
71
8
72
2
73
-1
0
VERTEX
8
OBJECT045
10
0
20
0
30
0
70
128
71
-8
72
1
73
7
0
VERTEX
8
OBJECT045
10
0
20
0
30
0
70
128
71
3
72
2
73
-8
0
VERTEX
8
OBJECT045
10
0
20
0
30
0
70
128
71
-3
72
8
73
5
0
VERTEX
8
OBJECT045
10
0
20
0
30
0
70
128
71
7
72
6
73
-5
0
VERTEX
8
OBJECT045
10
0
20
0
30
0
70
128
71
-7
72
5
73
8
0
VERTEX
8
OBJECT045
10
0
20
0
30
0
70
128
71
1
72
4
73
-6
0
VERTEX
8
OBJECT045
10
0
20
0
30
0
70
128
71
-1
72
6
73
7
0
SEQEND
8
OBJECT045
0
POLYLINE
8
OBJECT046
66
1
70
64
71
4
72
4
62
50
0
VERTEX
8
OBJECT046
10
-2.748159
20
-247.110611
30
481.314758
70
192
0
VERTEX
8
OBJECT046
10
-2.748159
20
-270.000000
30
481.314758
70
192
0
VERTEX
8
OBJECT046
10
-2.748159
20
-270.000000
30
469.650665
70
192
0
VERTEX
8
OBJECT046
10
9.401748
20
-270.000000
30
469.650665
70
192
0
VERTEX
8
OBJECT046
10
0
20
0
30
0
70
128
71
2
72
3
73
1
0
VERTEX
8
OBJECT046
10
0
20
0
30
0
70
128
71
1
72
4
73
2
0
VERTEX
8
OBJECT046
10
0
20
0
30
0
70
128
71
2
72
4
73
3
0
VERTEX
8
OBJECT046
10
0
20
0
30
0
70
128
71
1
72
3
73
4
0
SEQEND
8
OBJECT046
0
POLYLINE
8
OBJECT047
66
1
70
64
71
4
72
4
62
50
0
VERTEX
8
OBJECT047
10
-2.748159
20
104.000000
30
468.632263
70
192
0
VERTEX
8
OBJECT047
10
-2.748159
20
104.000000
30
481.314758
70
192
0
VERTEX
8
OBJECT047
10
-2.748159
20
79.323227
30
481.314758
70
192
0
VERTEX
8
OBJECT047
10
10.462438
20
104.000000
30
468.632263
70
192
0
VERTEX
8
OBJECT047
10
0
20
0
30
0
70
128
71
2
72
3
73
1
0
VERTEX
8
OBJECT047
10
0
20
0
30
0
70
128
71
2
72
4
73
3
0
VERTEX
8
OBJECT047
10
0
20
0
30
0
70
128
71
2
72
1
73
4
0
VERTEX
8
OBJECT047
10
0
20
0
30
0
70
128
71
3
72
4
73
1
0
SEQEND
8
OBJECT047
0
POLYLINE
8
OBJECT048
66
1
70
64
71
6
72
8
62
50
0
VERTEX
8
OBJECT048
10
-2.748159
20
104.000000
30
99.000000
70
192
0
VERTEX
8
OBJECT048
10
-2.748159
20
79.000000
30
99.000000
70
192
0
VERTEX
8
OBJECT048
10
-2.010848
20
79.000000
30
99.000000
70
192
0
VERTEX
8
OBJECT048
10
-2.010847
20
104.000000
30
99.000000
70
192
0
VERTEX
8
OBJECT048
10
5.317600
20
104.000000
30
111.621727
70
192
0
VERTEX
8
OBJECT048
10
-2.748159
20
104.000000
30
111.621727
70
192
0
VERTEX
8
OBJECT048
10
0
20
0
30
0
70
128
71
2
72
3
73
-4
0
VERTEX
8
OBJECT048
10
0
20
0
30
0
70
128
71
-2
72
4
73
1
0
VERTEX
8
OBJECT048
10
0
20
0
30
0
70
128
71
3
72
5
73
4
0
VERTEX
8
OBJECT048
10
0
20
0
30
0
70
128
71
1
72
6
73
2
0
VERTEX
8
OBJECT048
10
0
20
0
30
0
70
128
71
4
72
5
73
-6
0
VERTEX
8
OBJECT048
10
0
20
0
30
0
70
128
71
-4
72
6
73
1
0
VERTEX
8
OBJECT048
10
0
20
0
30
0
70
128
71
2
72
6
73
-5
0
VERTEX
8
OBJECT048
10
0
20
0
30
0
70
128
71
-2
72
5
73
3
0
SEQEND
8
OBJECT048
0
POLYLINE
8
OBJECT049
66
1
70
64
71
6
72
8
62
50
0
VERTEX
8
OBJECT049
10
-2.748159
20
-244.823761
30
99.000000
70
192
0
VERTEX
8
OBJECT049
10
-2.748159
20
-270.000000
30
99.000000
70
192
0
VERTEX
8
OBJECT049
10
-2.010862
20
-270.000000
30
99.000000
70
192
0
VERTEX
8
OBJECT049
10
-2.010861
20
-244.823761
30
99.000000
70
192
0
VERTEX
8
OBJECT049
10
5.388169
20
-270.000000
30
111.743294
70
192
0
VERTEX
8
OBJECT049
10
-2.748159
20
-270.000000
30
111.743294
70
192
0
VERTEX
8
OBJECT049
10
0
20
0
30
0
70
128
71
2
72
3
73
-4
0
VERTEX
8
OBJECT049
10
0
20
0
30
0
70
128
71
-2
72
4
73
1
0
VERTEX
8
OBJECT049
10
0
20
0
30
0
70
128
71
3
72
5
73
4
0
VERTEX
8
OBJECT049
10
0
20
0
30
0
70
128
71
1
72
6
73
2
0
VERTEX
8
OBJECT049
10
0
20
0
30
0
70
128
71
3
72
2
73
-6
0
VERTEX
8
OBJECT049
10
0
20
0
30
0
70
128
71
-3
72
6
73
5
0
VERTEX
8
OBJECT049
10
0
20
0
30
0
70
128
71
4
72
5
73
-6
0
VERTEX
8
OBJECT049
10
0
20
0
30
0
70
128
71
-4
72
6
73
1
0
SEQEND
8
OBJECT049
0
POLYLINE
8
OBJECT050
66
1
70
64
71
12
72
20
62
50
0
VERTEX
8
OBJECT050
10
-2.010694
20
175.000000
30
99.000000
70
192
0
VERTEX
8
OBJECT050
10
-2.748159
20
175.000000
30
99.000000
70
192
0
VERTEX
8
OBJECT050
10
-2.748159
20
104.000000
30
99.000000
70
192
0
VERTEX
8
OBJECT050
10
-2.010697
20
104.000000
30
99.000000
70
192
0
VERTEX
8
OBJECT050
10
17.000000
20
175.000000
30
131.742676
70
192
0
VERTEX
8
OBJECT050
10
17.000000
20
175.000000
30
458.000000
70
192
0
VERTEX
8
OBJECT050
10
11.500166
20
175.000000
30
467.635864
70
192
0
VERTEX
8
OBJECT050
10
-2.748161
20
175.000000
30
481.316437
70
192
0
VERTEX
8
OBJECT050
10
17.000000
20
104.000000
30
458.000000
70
192
0
VERTEX
8
OBJECT050
10
11.498315
20
104.000000
30
467.637634
70
192
0
VERTEX
8
OBJECT050
10
17.000000
20
104.000000
30
131.741821
70
192
0
VERTEX
8
OBJECT050
10
-2.748159
20
104.000000
30
481.316437
70
192
0
VERTEX
8
OBJECT050
10
0
20
0
30
0
70
128
71
2
72
3
73
-4
0
VERTEX
8
OBJECT050
10
0
20
0
30
0
70
128
71
-2
72
4
73
1
0
VERTEX
8
OBJECT050
10
0
20
0
30
0
70
128
71
1
72
5
73
-6
0
VERTEX
8
OBJECT050
10
0
20
0
30
0
70
128
71
-1
72
6
73
-7
0
VERTEX
8
OBJECT050
10
0
20
0
30
0
70
128
71
-1
72
7
73
-8
0
VERTEX
8
OBJECT050
10
0
20
0
30
0
70
128
71
-1
72
8
73
2
0
VERTEX
8
OBJECT050
10
0
20
0
30
0
70
128
71
6
72
9
73
-10
0
VERTEX
8
OBJECT050
10
0
20
0
30
0
70
128
71
-6
72
10
73
7
0
VERTEX
8
OBJECT050
10
0
20
0
30
0
70
128
71
1
72
4
73
-11
0
VERTEX
8
OBJECT050
10
0
20
0
30
0
70
128
71
-1
72
11
73
5
0
VERTEX
8
OBJECT050
10
0
20
0
30
0
70
128
71
2
72
8
73
-12
0
VERTEX
8
OBJECT050
10
0
20
0
30
0
70
128
71
-2
72
12
73
3
0
VERTEX
8
OBJECT050
10
0
20
0
30
0
70
128
71
8
72
7
73
-10
0
VERTEX
8
OBJECT050
10
0
20
0
30
0
70
128
71
-8
72
10
73
12
0
VERTEX
8
OBJECT050
10
0
20
0
30
0
70
128
71
9
72
11
73
-4
0
VERTEX
8
OBJECT050
10
0
20
0
30
0
70
128
71
-9
72
4
73
-3
0
VERTEX
8
OBJECT050
10
0
20
0
30
0
70
128
71
-9
72
3
73
-12
0
VERTEX
8
OBJECT050
10
0
20
0
30
0
70
128
71
-9
72
12
73
10
0
VERTEX
8
OBJECT050
10
0
20
0
30
0
70
128
71
5
72
11
73
-9
0
VERTEX
8
OBJECT050
10
0
20
0
30
0
70
128
71
-5
72
9
73
6
0
SEQEND
8
OBJECT050
0
POLYLINE
8
OBJECT051
66
1
70
64
71
8
72
12
62
50
0
VERTEX
8
OBJECT051
10
75.000000
20
116.000000
30
231.637741
70
192
0
VERTEX
8
OBJECT051
10
75.000000
20
104.000000
30
231.637741
70
192
0
VERTEX
8
OBJECT051
10
75.000000
20
104.000000
30
356.472961
70
192
0
VERTEX
8
OBJECT051
10
75.000000
20
116.000000
30
356.472961
70
192
0
VERTEX
8
OBJECT051
10
17.000000
20
104.000000
30
458.000000
70
192
0
VERTEX
8
OBJECT051
10
17.000000
20
116.000000
30
458.000000
70
192
0
VERTEX
8
OBJECT051
10
17.000000
20
116.000000
30
131.741821
70
192
0
VERTEX
8
OBJECT051
10
17.000000
20
104.000000
30
131.741821
70
192
0
VERTEX
8
OBJECT051
10
0
20
0
30
0
70
128
71
2
72
3
73
-4
0
VERTEX
8
OBJECT051
10
0
20
0
30
0
70
128
71
-2
72
4
73
1
0
VERTEX
8
OBJECT051
10
0
20
0
30
0
70
128
71
3
72
5
73
-6
0
VERTEX
8
OBJECT051
10
0
20
0
30
0
70
128
71
-3
72
6
73
4
0
VERTEX
8
OBJECT051
10
0
20
0
30
0
70
128
71
8
72
2
73
-1
0
VERTEX
8
OBJECT051
10
0
20
0
30
0
70
128
71
-8
72
1
73
7
0
VERTEX
8
OBJECT051
10
0
20
0
30
0
70
128
71
3
72
2
73
-8
0
VERTEX
8
OBJECT051
10
0
20
0
30
0
70
128
71
-3
72
8
73
5
0
VERTEX
8
OBJECT051
10
0
20
0
30
0
70
128
71
7
72
6
73
-5
0
VERTEX
8
OBJECT051
10
0
20
0
30
0
70
128
71
-7
72
5
73
8
0
VERTEX
8
OBJECT051
10
0
20
0
30
0
70
128
71
1
72
4
73
-6
0
VERTEX
8
OBJECT051
10
0
20
0
30
0
70
128
71
-1
72
6
73
7
0
SEQEND
8
OBJECT051
0
POLYLINE
8
OBJECT052
66
1
70
64
71
12
72
20
62
50
0
VERTEX
8
OBJECT052
10
-2.748159
20
-270.000000
30
99.000000
70
192
0
VERTEX
8
OBJECT052
10
-2.748159
20
-339.000000
30
99.000000
70
192
0
VERTEX
8
OBJECT052
10
-2.010712
20
-339.000000
30
99.000000
70
192
0
VERTEX
8
OBJECT052
10
-2.010710
20
-270.000000
30
99.000000
70
192
0
VERTEX
8
OBJECT052
10
11.500105
20
-339.000000
30
467.635925
70
192
0
VERTEX
8
OBJECT052
10
17.000000
20
-339.000000
30
458.000000
70
192
0
VERTEX
8
OBJECT052
10
17.000000
20
-339.000000
30
131.742706
70
192
0
VERTEX
8
OBJECT052
10
-2.748161
20
-339.000000
30
481.316467
70
192
0
VERTEX
8
OBJECT052
10
11.498101
20
-270.000000
30
467.637848
70
192
0
VERTEX
8
OBJECT052
10
17.000000
20
-270.000000
30
458.000000
70
192
0
VERTEX
8
OBJECT052
10
17.000000
20
-270.000000
30
131.741837
70
192
0
VERTEX
8
OBJECT052
10
-2.748159
20
-270.000000
30
481.316467
70
192
0
VERTEX
8
OBJECT052
10
0
20
0
30
0
70
128
71
2
72
3
73
-4
0
VERTEX
8
OBJECT052
10
0
20
0
30
0
70
128
71
-2
72
4
73
1
0
VERTEX
8
OBJECT052
10
0
20
0
30
0
70
128
71
6
72
7
73
-3
0
VERTEX
8
OBJECT052
10
0
20
0
30
0
70
128
71
-6
72
3
73
-2
0
VERTEX
8
OBJECT052
10
0
20
0
30
0
70
128
71
-6
72
2
73
-8
0
VERTEX
8
OBJECT052
10
0
20
0
30
0
70
128
71
-6
72
8
73
5
0
VERTEX
8
OBJECT052
10
0
20
0
30
0
70
128
71
5
72
9
73
-10
0
VERTEX
8
OBJECT052
10
0
20
0
30
0
70
128
71
-5
72
10
73
6
0
VERTEX
8
OBJECT052
10
0
20
0
30
0
70
128
71
3
72
7
73
-11
0
VERTEX
8
OBJECT052
10
0
20
0
30
0
70
128
71
-3
72
11
73
4
0
VERTEX
8
OBJECT052
10
0
20
0
30
0
70
128
71
2
72
1
73
-12
0
VERTEX
8
OBJECT052
10
0
20
0
30
0
70
128
71
-2
72
12
73
8
0
VERTEX
8
OBJECT052
10
0
20
0
30
0
70
128
71
5
72
8
73
-12
0
VERTEX
8
OBJECT052
10
0
20
0
30
0
70
128
71
-5
72
12
73
9
0
VERTEX
8
OBJECT052
10
0
20
0
30
0
70
128
71
4
72
11
73
-10
0
VERTEX
8
OBJECT052
10
0
20
0
30
0
70
128
71
-4
72
10
73
-9
0
VERTEX
8
OBJECT052
10
0
20
0
30
0
70
128
71
-4
72
9
73
-12
0
VERTEX
8
OBJECT052
10
0
20
0
30
0
70
128
71
-4
72
12
73
1
0
VERTEX
8
OBJECT052
10
0
20
0
30
0
70
128
71
7
72
6
73
-10
0
VERTEX
8
OBJECT052
10
0
20
0
30
0
70
128
71
-7
72
10
73
11
0
SEQEND
8
OBJECT052
0
POLYLINE
8
OBJECT053
66
1
70
64
71
8
72
12
62
50
0
VERTEX
8
OBJECT053
10
75.000000
20
-270.000000
30
231.637756
70
192
0
VERTEX
8
OBJECT053
10
75.000000
20
-280.000000
30
231.637756
70
192
0
VERTEX
8
OBJECT053
10
75.000000
20
-280.000000
30
356.474854
70
192
0
VERTEX
8
OBJECT053
10
75.000000
20
-270.000000
30
356.474854
70
192
0
VERTEX
8
OBJECT053
10
17.000000
20
-270.000000
30
458.000000
70
192
0
VERTEX
8
OBJECT053
10
17.000000
20
-280.000000
30
458.000000
70
192
0
VERTEX
8
OBJECT053
10
17.000000
20
-270.000000
30
131.741806
70
192
0
VERTEX
8
OBJECT053
10
17.000000
20
-280.000000
30
131.741806
70
192
0
VERTEX
8
OBJECT053
10
0
20
0
30
0
70
128
71
2
72
3
73
-4
0
VERTEX
8
OBJECT053
10
0
20
0
30
0
70
128
71
-2
72
4
73
1
0
VERTEX
8
OBJECT053
10
0
20
0
30
0
70
128
71
4
72
3
73
-6
0
VERTEX
8
OBJECT053
10
0
20
0
30
0
70
128
71
-4
72
6
73
5
0
VERTEX
8
OBJECT053
10
0
20
0
30
0
70
128
71
1
72
7
73
-8
0
VERTEX
8
OBJECT053
10
0
20
0
30
0
70
128
71
-1
72
8
73
2
0
VERTEX
8
OBJECT053
10
0
20
0
30
0
70
128
71
1
72
4
73
-5
0
VERTEX
8
OBJECT053
10
0
20
0
30
0
70
128
71
-1
72
5
73
7
0
VERTEX
8
OBJECT053
10
0
20
0
30
0
70
128
71
7
72
5
73
-6
0
VERTEX
8
OBJECT053
10
0
20
0
30
0
70
128
71
-7
72
6
73
8
0
VERTEX
8
OBJECT053
10
0
20
0
30
0
70
128
71
3
72
2
73
-8
0
VERTEX
8
OBJECT053
10
0
20
0
30
0
70
128
71
-3
72
8
73
6
0
SEQEND
8
OBJECT053
0
POLYLINE
8
OBJECT054
66
1
70
64
71
8
72
12
62
50
0
VERTEX
8
OBJECT054
10
-249.266663
20
175.000000
30
542.000000
70
192
0
VERTEX
8
OBJECT054
10
-110.837029
20
175.000000
30
542.000000
70
192
0
VERTEX
8
OBJECT054
10
-110.837051
20
-339.000000
30
542.000000
70
192
0
VERTEX
8
OBJECT054
10
-249.266663
20
-339.000000
30
542.000000
70
192
0
VERTEX
8
OBJECT054
10
-92.506035
20
175.000000
30
532.000000
70
192
0
VERTEX
8
OBJECT054
10
-267.817566
20
175.000000
30
532.000000
70
192
0
VERTEX
8
OBJECT054
10
-267.817566
20
-339.000000
30
532.000000
70
192
0
VERTEX
8
OBJECT054
10
-92.506058
20
-339.000000
30
532.000000
70
192
0
VERTEX
8
OBJECT054
10
0
20
0
30
0
70
128
71
2
72
3
73
-4
0
VERTEX
8
OBJECT054
10
0
20
0
30
0
70
128
71
-2
72
4
73
1
0
VERTEX
8
OBJECT054
10
0
20
0
30
0
70
128
71
2
72
1
73
-6
0
VERTEX
8
OBJECT054
10
0
20
0
30
0
70
128
71
-2
72
6
73
5
0
VERTEX
8
OBJECT054
10
0
20
0
30
0
70
128
71
4
72
3
73
-8
0
VERTEX
8
OBJECT054
10
0
20
0
30
0
70
128
71
-4
72
8
73
7
0
VERTEX
8
OBJECT054
10
0
20
0
30
0
70
128
71
1
72
4
73
-7
0
VERTEX
8
OBJECT054
10
0
20
0
30
0
70
128
71
-1
72
7
73
6
0
VERTEX
8
OBJECT054
10
0
20
0
30
0
70
128
71
2
72
5
73
-8
0
VERTEX
8
OBJECT054
10
0
20
0
30
0
70
128
71
-2
72
8
73
3
0
VERTEX
8
OBJECT054
10
0
20
0
30
0
70
128
71
6
72
7
73
-8
0
VERTEX
8
OBJECT054
10
0
20
0
30
0
70
128
71
-6
72
8
73
5
0
SEQEND
8
OBJECT054
0
POLYLINE
8
OBJECT055
66
1
70
64
71
8
72
12
62
50
0
VERTEX
8
OBJECT055
10
-93.770378
20
104.000000
30
532.000000
70
192
0
VERTEX
8
OBJECT055
10
-93.770378
20
175.000000
30
532.000000
70
192
0
VERTEX
8
OBJECT055
10
-2.748159
20
175.000000
30
481.888885
70
192
0
VERTEX
8
OBJECT055
10
-2.748159
20
104.000000
30
481.888885
70
192
0
VERTEX
8
OBJECT055
10
-118.422234
20
175.000000
30
532.000000
70
192
0
VERTEX
8
OBJECT055
10
-118.422234
20
104.000000
30
532.000000
70
192
0
VERTEX
8
OBJECT055
10
-2.748159
20
175.000000
30
470.000000
70
192
0
VERTEX
8
OBJECT055
10
-2.748159
20
104.000000
30
470.000000
70
192
0
VERTEX
8
OBJECT055
10
0
20
0
30
0
70
128
71
2
72
3
73
-4
0
VERTEX
8
OBJECT055
10
0
20
0
30
0
70
128
71
-2
72
4
73
1
0
VERTEX
8
OBJECT055
10
0
20
0
30
0
70
128
71
2
72
1
73
-6
0
VERTEX
8
OBJECT055
10
0
20
0
30
0
70
128
71
-2
72
6
73
5
0
VERTEX
8
OBJECT055
10
0
20
0
30
0
70
128
71
3
72
2
73
-5
0
VERTEX
8
OBJECT055
10
0
20
0
30
0
70
128
71
-3
72
5
73
7
0
VERTEX
8
OBJECT055
10
0
20
0
30
0
70
128
71
3
72
7
73
-8
0
VERTEX
8
OBJECT055
10
0
20
0
30
0
70
128
71
-3
72
8
73
4
0
VERTEX
8
OBJECT055
10
0
20
0
30
0
70
128
71
6
72
8
73
-7
0
VERTEX
8
OBJECT055
10
0
20
0
30
0
70
128
71
-6
72
7
73
5
0
VERTEX
8
OBJECT055
10
0
20
0
30
0
70
128
71
1
72
4
73
-8
0
VERTEX
8
OBJECT055
10
0
20
0
30
0
70
128
71
-1
72
8
73
6
0
SEQEND
8
OBJECT055
0
POLYLINE
8
OBJECT056
66
1
70
64
71
8
72
12
62
50
0
VERTEX
8
OBJECT056
10
-2.748159
20
-339.000000
30
481.888885
70
192
0
VERTEX
8
OBJECT056
10
-93.770378
20
-339.000000
30
532.000000
70
192
0
VERTEX
8
OBJECT056
10
-93.770378
20
-270.000000
30
532.000000
70
192
0
VERTEX
8
OBJECT056
10
-2.748159
20
-270.000000
30
481.888885
70
192
0
VERTEX
8
OBJECT056
10
-118.422234
20
-339.000000
30
532.000000
70
192
0
VERTEX
8
OBJECT056
10
-118.422234
20
-270.000000
30
532.000000
70
192
0
VERTEX
8
OBJECT056
10
-2.748159
20
-339.000000
30
470.000000
70
192
0
VERTEX
8
OBJECT056
10
-2.748159
20
-270.000000
30
470.000000
70
192
0
VERTEX
8
OBJECT056
10
0
20
0
30
0
70
128
71
2
72
3
73
-4
0
VERTEX
8
OBJECT056
10
0
20
0
30
0
70
128
71
-2
72
4
73
1
0
VERTEX
8
OBJECT056
10
0
20
0
30
0
70
128
71
2
72
5
73
-6
0
VERTEX
8
OBJECT056
10
0
20
0
30
0
70
128
71
-2
72
6
73
3
0
VERTEX
8
OBJECT056
10
0
20
0
30
0
70
128
71
2
72
1
73
-7
0
VERTEX
8
OBJECT056
10
0
20
0
30
0
70
128
71
-2
72
7
73
5
0
VERTEX
8
OBJECT056
10
0
20
0
30
0
70
128
71
7
72
1
73
-4
0
VERTEX
8
OBJECT056
10
0
20
0
30
0
70
128
71
-7
72
4
73
8
0
VERTEX
8
OBJECT056
10
0
20
0
30
0
70
128
71
5
72
7
73
-8
0
VERTEX
8
OBJECT056
10
0
20
0
30
0
70
128
71
-5
72
8
73
6
0
VERTEX
8
OBJECT056
10
0
20
0
30
0
70
128
71
4
72
3
73
-6
0
VERTEX
8
OBJECT056
10
0
20
0
30
0
70
128
71
-4
72
6
73
8
0
SEQEND
8
OBJECT056
0
POLYLINE
8
OBJECT057
66
1
70
64
71
8
72
12
62
50
0
VERTEX
8
OBJECT057
10
-93.770378
20
-270.000000
30
532.000000
70
192
0
VERTEX
8
OBJECT057
10
-93.770378
20
104.000000
30
532.000000
70
192
0
VERTEX
8
OBJECT057
10
-91.962372
20
104.000000
30
531.000000
70
192
0
VERTEX
8
OBJECT057
10
-91.962395
20
-270.000000
30
531.000000
70
192
0
VERTEX
8
OBJECT057
10
-118.422234
20
-270.000000
30
532.000000
70
192
0
VERTEX
8
OBJECT057
10
-118.422234
20
104.000000
30
532.000000
70
192
0
VERTEX
8
OBJECT057
10
-116.555992
20
-270.000000
30
531.000000
70
192
0
VERTEX
8
OBJECT057
10
-116.555977
20
104.000000
30
531.000000
70
192
0
VERTEX
8
OBJECT057
10
0
20
0
30
0
70
128
71
2
72
3
73
-4
0
VERTEX
8
OBJECT057
10
0
20
0
30
0
70
128
71
-2
72
4
73
1
0
VERTEX
8
OBJECT057
10
0
20
0
30
0
70
128
71
6
72
2
73
-1
0
VERTEX
8
OBJECT057
10
0
20
0
30
0
70
128
71
-6
72
1
73
5
0
VERTEX
8
OBJECT057
10
0
20
0
30
0
70
128
71
5
72
7
73
-8
0
VERTEX
8
OBJECT057
10
0
20
0
30
0
70
128
71
-5
72
8
73
6
0
VERTEX
8
OBJECT057
10
0
20
0
30
0
70
128
71
2
72
6
73
-8
0
VERTEX
8
OBJECT057
10
0
20
0
30
0
70
128
71
-2
72
8
73
3
0
VERTEX
8
OBJECT057
10
0
20
0
30
0
70
128
71
1
72
4
73
-7
0
VERTEX
8
OBJECT057
10
0
20
0
30
0
70
128
71
-1
72
7
73
5
0
VERTEX
8
OBJECT057
10
0
20
0
30
0
70
128
71
7
72
4
73
-3
0
VERTEX
8
OBJECT057
10
0
20
0
30
0
70
128
71
-7
72
3
73
8
0
SEQEND
8
OBJECT057
0
POLYLINE
8
OBJECT058
66
1
70
64
71
8
72
12
62
50
0
VERTEX
8
OBJECT058
10
-2.748159
20
-245.983948
30
481.888885
70
192
0
VERTEX
8
OBJECT058
10
-2.748159
20
-270.000000
30
481.888885
70
192
0
VERTEX
8
OBJECT058
10
-91.962418
20
-270.000000
30
531.000000
70
192
0
VERTEX
8
OBJECT058
10
-91.962410
20
-149.609177
30
531.000000
70
192
0
VERTEX
8
OBJECT058
10
-2.748159
20
-269.314423
30
470.000000
70
192
0
VERTEX
8
OBJECT058
10
-2.748159
20
-270.000000
30
470.000000
70
192
0
VERTEX
8
OBJECT058
10
-116.555992
20
-270.000000
30
531.000000
70
192
0
VERTEX
8
OBJECT058
10
-116.555984
20
-149.609177
30
531.000000
70
192
0
VERTEX
8
OBJECT058
10
0
20
0
30
0
70
128
71
2
72
3
73
-4
0
VERTEX
8
OBJECT058
10
0
20
0
30
0
70
128
71
-2
72
4
73
1
0
VERTEX
8
OBJECT058
10
0
20
0
30
0
70
128
71
6
72
2
73
-1
0
VERTEX
8
OBJECT058
10
0
20
0
30
0
70
128
71
-6
72
1
73
5
0
VERTEX
8
OBJECT058
10
0
20
0
30
0
70
128
71
6
72
5
73
-8
0
VERTEX
8
OBJECT058
10
0
20
0
30
0
70
128
71
-6
72
8
73
7
0
VERTEX
8
OBJECT058
10
0
20
0
30
0
70
128
71
2
72
6
73
-7
0
VERTEX
8
OBJECT058
10
0
20
0
30
0
70
128
71
-2
72
7
73
3
0
VERTEX
8
OBJECT058
10
0
20
0
30
0
70
128
71
8
72
4
73
-3
0
VERTEX
8
OBJECT058
10
0
20
0
30
0
70
128
71
-8
72
3
73
7
0
VERTEX
8
OBJECT058
10
0
20
0
30
0
70
128
71
5
72
1
73
-4
0
VERTEX
8
OBJECT058
10
0
20
0
30
0
70
128
71
-5
72
4
73
8
0
SEQEND
8
OBJECT058
0
POLYLINE
8
OBJECT059
66
1
70
64
71
8
72
12
62
50
0
VERTEX
8
OBJECT059
10
-91.962402
20
-17.351063
30
531.000000
70
192
0
VERTEX
8
OBJECT059
10
-91.962395
20
104.000000
30
531.000000
70
192
0
VERTEX
8
OBJECT059
10
-2.748159
20
104.000000
30
481.888885
70
192
0
VERTEX
8
OBJECT059
10
-2.748159
20
78.206131
30
481.888885
70
192
0
VERTEX
8
OBJECT059
10
-2.748159
20
104.000000
30
470.000000
70
192
0
VERTEX
8
OBJECT059
10
-2.748159
20
101.338692
30
470.000000
70
192
0
VERTEX
8
OBJECT059
10
-116.555977
20
104.000000
30
531.000000
70
192
0
VERTEX
8
OBJECT059
10
-116.555977
20
-17.351063
30
531.000000
70
192
0
VERTEX
8
OBJECT059
10
0
20
0
30
0
70
128
71
2
72
3
73
-4
0
VERTEX
8
OBJECT059
10
0
20
0
30
0
70
128
71
-2
72
4
73
1
0
VERTEX
8
OBJECT059
10
0
20
0
30
0
70
128
71
6
72
4
73
-3
0
VERTEX
8
OBJECT059
10
0
20
0
30
0
70
128
71
-6
72
3
73
5
0
VERTEX
8
OBJECT059
10
0
20
0
30
0
70
128
71
5
72
7
73
-8
0
VERTEX
8
OBJECT059
10
0
20
0
30
0
70
128
71
-5
72
8
73
6
0
VERTEX
8
OBJECT059
10
0
20
0
30
0
70
128
71
5
72
3
73
-2
0
VERTEX
8
OBJECT059
10
0
20
0
30
0
70
128
71
-5
72
2
73
7
0
VERTEX
8
OBJECT059
10
0
20
0
30
0
70
128
71
7
72
2
73
-1
0
VERTEX
8
OBJECT059
10
0
20
0
30
0
70
128
71
-7
72
1
73
8
0
VERTEX
8
OBJECT059
10
0
20
0
30
0
70
128
71
4
72
6
73
-8
0
VERTEX
8
OBJECT059
10
0
20
0
30
0
70
128
71
-4
72
8
73
1
0
SEQEND
8
OBJECT059
0
POLYLINE
8
OBJECT060
66
1
70
64
71
8
72
12
62
50
0
VERTEX
8
OBJECT060
10
-359.251862
20
175.000000
30
481.885803
70
192
0
VERTEX
8
OBJECT060
10
-268.215118
20
175.000000
30
532.000000
70
192
0
VERTEX
8
OBJECT060
10
-268.215118
20
104.000000
30
532.000000
70
192
0
VERTEX
8
OBJECT060
10
-359.251862
20
104.000000
30
481.885803
70
192
0
VERTEX
8
OBJECT060
10
-243.577774
20
175.000000
30
532.000000
70
192
0
VERTEX
8
OBJECT060
10
-243.577774
20
104.000000
30
532.000000
70
192
0
VERTEX
8
OBJECT060
10
-359.251862
20
175.000000
30
470.000000
70
192
0
VERTEX
8
OBJECT060
10
-359.251862
20
104.000000
30
470.000000
70
192
0
VERTEX
8
OBJECT060
10
0
20
0
30
0
70
128
71
2
72
3
73
-4
0
VERTEX
8
OBJECT060
10
0
20
0
30
0
70
128
71
-2
72
4
73
1
0
VERTEX
8
OBJECT060
10
0
20
0
30
0
70
128
71
2
72
5
73
-6
0
VERTEX
8
OBJECT060
10
0
20
0
30
0
70
128
71
-2
72
6
73
3
0
VERTEX
8
OBJECT060
10
0
20
0
30
0
70
128
71
2
72
1
73
-7
0
VERTEX
8
OBJECT060
10
0
20
0
30
0
70
128
71
-2
72
7
73
5
0
VERTEX
8
OBJECT060
10
0
20
0
30
0
70
128
71
1
72
4
73
-8
0
VERTEX
8
OBJECT060
10
0
20
0
30
0
70
128
71
-1
72
8
73
7
0
VERTEX
8
OBJECT060
10
0
20
0
30
0
70
128
71
5
72
7
73
-8
0
VERTEX
8
OBJECT060
10
0
20
0
30
0
70
128
71
-5
72
8
73
6
0
VERTEX
8
OBJECT060
10
0
20
0
30
0
70
128
71
4
72
3
73
-6
0
VERTEX
8
OBJECT060
10
0
20
0
30
0
70
128
71
-4
72
6
73
8
0
SEQEND
8
OBJECT060
0
POLYLINE
8
OBJECT061
66
1
70
64
71
8
72
12
62
50
0
VERTEX
8
OBJECT061
10
-268.215118
20
-270.000000
30
532.000000
70
192
0
VERTEX
8
OBJECT061
10
-268.215118
20
-339.000000
30
532.000000
70
192
0
VERTEX
8
OBJECT061
10
-359.251862
20
-339.000000
30
481.885803
70
192
0
VERTEX
8
OBJECT061
10
-359.251862
20
-270.000000
30
481.885803
70
192
0
VERTEX
8
OBJECT061
10
-243.577774
20
-339.000000
30
532.000000
70
192
0
VERTEX
8
OBJECT061
10
-243.577774
20
-270.000000
30
532.000000
70
192
0
VERTEX
8
OBJECT061
10
-359.251862
20
-339.000000
30
470.000000
70
192
0
VERTEX
8
OBJECT061
10
-359.251862
20
-270.000000
30
470.000000
70
192
0
VERTEX
8
OBJECT061
10
0
20
0
30
0
70
128
71
2
72
3
73
-4
0
VERTEX
8
OBJECT061
10
0
20
0
30
0
70
128
71
-2
72
4
73
1
0
VERTEX
8
OBJECT061
10
0
20
0
30
0
70
128
71
2
72
1
73
-6
0
VERTEX
8
OBJECT061
10
0
20
0
30
0
70
128
71
-2
72
6
73
5
0
VERTEX
8
OBJECT061
10
0
20
0
30
0
70
128
71
3
72
2
73
-5
0
VERTEX
8
OBJECT061
10
0
20
0
30
0
70
128
71
-3
72
5
73
7
0
VERTEX
8
OBJECT061
10
0
20
0
30
0
70
128
71
3
72
7
73
-8
0
VERTEX
8
OBJECT061
10
0
20
0
30
0
70
128
71
-3
72
8
73
4
0
VERTEX
8
OBJECT061
10
0
20
0
30
0
70
128
71
7
72
5
73
-6
0
VERTEX
8
OBJECT061
10
0
20
0
30
0
70
128
71
-7
72
6
73
8
0
VERTEX
8
OBJECT061
10
0
20
0
30
0
70
128
71
1
72
4
73
-8
0
VERTEX
8
OBJECT061
10
0
20
0
30
0
70
128
71
-1
72
8
73
6
0
SEQEND
8
OBJECT061
0
POLYLINE
8
OBJECT062
66
1
70
64
71
8
72
12
62
50
0
VERTEX
8
OBJECT062
10
-270.031708
20
104.000000
30
531.000000
70
192
0
VERTEX
8
OBJECT062
10
-268.215118
20
104.000000
30
532.000000
70
192
0
VERTEX
8
OBJECT062
10
-268.215118
20
-270.000000
30
532.000000
70
192
0
VERTEX
8
OBJECT062
10
-270.031708
20
-270.000000
30
531.000000
70
192
0
VERTEX
8
OBJECT062
10
-243.577774
20
104.000000
30
532.000000
70
192
0
VERTEX
8
OBJECT062
10
-243.577774
20
-270.000000
30
532.000000
70
192
0
VERTEX
8
OBJECT062
10
-245.441864
20
-270.000000
30
531.000000
70
192
0
VERTEX
8
OBJECT062
10
-245.441864
20
104.000000
30
531.000000
70
192
0
VERTEX
8
OBJECT062
10
0
20
0
30
0
70
128
71
2
72
3
73
-4
0
VERTEX
8
OBJECT062
10
0
20
0
30
0
70
128
71
-2
72
4
73
1
0
VERTEX
8
OBJECT062
10
0
20
0
30
0
70
128
71
2
72
5
73
-6
0
VERTEX
8
OBJECT062
10
0
20
0
30
0
70
128
71
-2
72
6
73
3
0
VERTEX
8
OBJECT062
10
0
20
0
30
0
70
128
71
6
72
5
73
-8
0
VERTEX
8
OBJECT062
10
0
20
0
30
0
70
128
71
-6
72
8
73
7
0
VERTEX
8
OBJECT062
10
0
20
0
30
0
70
128
71
2
72
1
73
-8
0
VERTEX
8
OBJECT062
10
0
20
0
30
0
70
128
71
-2
72
8
73
5
0
VERTEX
8
OBJECT062
10
0
20
0
30
0
70
128
71
3
72
6
73
-7
0
VERTEX
8
OBJECT062
10
0
20
0
30
0
70
128
71
-3
72
7
73
4
0
VERTEX
8
OBJECT062
10
0
20
0
30
0
70
128
71
4
72
7
73
-8
0
VERTEX
8
OBJECT062
10
0
20
0
30
0
70
128
71
-4
72
8
73
1
0
SEQEND
8
OBJECT062
0
POLYLINE
8
OBJECT063
66
1
70
64
71
8
72
12
62
50
0
VERTEX
8
OBJECT063
10
-270.031738
20
-270.000000
30
531.000000
70
192
0
VERTEX
8
OBJECT063
10
-359.251862
20
-270.000000
30
481.885803
70
192
0
VERTEX
8
OBJECT063
10
-359.251862
20
-245.989990
30
481.885803
70
192
0
VERTEX
8
OBJECT063
10
-270.031738
20
-149.609177
30
531.000000
70
192
0
VERTEX
8
OBJECT063
10
-359.251862
20
-270.000000
30
470.000000
70
192
0
VERTEX
8
OBJECT063
10
-359.251862
20
-269.314545
30
470.000000
70
192
0
VERTEX
8
OBJECT063
10
-245.441833
20
-270.000000
30
531.000000
70
192
0
VERTEX
8
OBJECT063
10
-245.441833
20
-149.609177
30
531.000000
70
192
0
VERTEX
8
OBJECT063
10
0
20
0
30
0
70
128
71
2
72
3
73
-4
0
VERTEX
8
OBJECT063
10
0
20
0
30
0
70
128
71
-2
72
4
73
1
0
VERTEX
8
OBJECT063
10
0
20
0
30
0
70
128
71
6
72
3
73
-2
0
VERTEX
8
OBJECT063
10
0
20
0
30
0
70
128
71
-6
72
2
73
5
0
VERTEX
8
OBJECT063
10
0
20
0
30
0
70
128
71
5
72
7
73
-8
0
VERTEX
8
OBJECT063
10
0
20
0
30
0
70
128
71
-5
72
8
73
6
0
VERTEX
8
OBJECT063
10
0
20
0
30
0
70
128
71
5
72
2
73
-1
0
VERTEX
8
OBJECT063
10
0
20
0
30
0
70
128
71
-5
72
1
73
7
0
VERTEX
8
OBJECT063
10
0
20
0
30
0
70
128
71
4
72
8
73
-7
0
VERTEX
8
OBJECT063
10
0
20
0
30
0
70
128
71
-4
72
7
73
1
0
VERTEX
8
OBJECT063
10
0
20
0
30
0
70
128
71
3
72
6
73
-8
0
VERTEX
8
OBJECT063
10
0
20
0
30
0
70
128
71
-3
72
8
73
4
0
SEQEND
8
OBJECT063
0
POLYLINE
8
OBJECT064
66
1
70
64
71
8
72
12
62
50
0
VERTEX
8
OBJECT064
10
-359.251862
20
78.212128
30
481.885803
70
192
0
VERTEX
8
OBJECT064
10
-359.251862
20
104.000000
30
481.885803
70
192
0
VERTEX
8
OBJECT064
10
-270.031738
20
104.000000
30
531.000000
70
192
0
VERTEX
8
OBJECT064
10
-270.031738
20
-17.351063
30
531.000000
70
192
0
VERTEX
8
OBJECT064
10
-359.251862
20
101.338806
30
470.000000
70
192
0
VERTEX
8
OBJECT064
10
-359.251862
20
104.000000
30
470.000000
70
192
0
VERTEX
8
OBJECT064
10
-245.441833
20
104.000000
30
531.000000
70
192
0
VERTEX
8
OBJECT064
10
-245.441833
20
-17.351063
30
531.000000
70
192
0
VERTEX
8
OBJECT064
10
0
20
0
30
0
70
128
71
2
72
3
73
-4
0
VERTEX
8
OBJECT064
10
0
20
0
30
0
70
128
71
-2
72
4
73
1
0
VERTEX
8
OBJECT064
10
0
20
0
30
0
70
128
71
6
72
2
73
-1
0
VERTEX
8
OBJECT064
10
0
20
0
30
0
70
128
71
-6
72
1
73
5
0
VERTEX
8
OBJECT064
10
0
20
0
30
0
70
128
71
6
72
5
73
-8
0
VERTEX
8
OBJECT064
10
0
20
0
30
0
70
128
71
-6
72
8
73
7
0
VERTEX
8
OBJECT064
10
0
20
0
30
0
70
128
71
2
72
6
73
-7
0
VERTEX
8
OBJECT064
10
0
20
0
30
0
70
128
71
-2
72
7
73
3
0
VERTEX
8
OBJECT064
10
0
20
0
30
0
70
128
71
3
72
7
73
-8
0
VERTEX
8
OBJECT064
10
0
20
0
30
0
70
128
71
-3
72
8
73
4
0
VERTEX
8
OBJECT064
10
0
20
0
30
0
70
128
71
1
72
4
73
-8
0
VERTEX
8
OBJECT064
10
0
20
0
30
0
70
128
71
-1
72
8
73
5
0
SEQEND
8
OBJECT064
0
POLYLINE
8
OBJECT065
66
1
70
64
71
8
72
12
62
50
0
VERTEX
8
OBJECT065
10
-110.837029
20
175.000000
30
39.000000
70
192
0
VERTEX
8
OBJECT065
10
-249.266663
20
175.000000
30
39.000000
70
192
0
VERTEX
8
OBJECT065
10
-249.266663
20
-339.000000
30
39.000000
70
192
0
VERTEX
8
OBJECT065
10
-110.837051
20
-339.000000
30
39.000000
70
192
0
VERTEX
8
OBJECT065
10
-267.817566
20
175.000000
30
49.000000
70
192
0
VERTEX
8
OBJECT065
10
-92.506393
20
175.000000
30
49.000000
70
192
0
VERTEX
8
OBJECT065
10
-92.506409
20
-339.000000
30
49.000000
70
192
0
VERTEX
8
OBJECT065
10
-267.817566
20
-339.000000
30
49.000000
70
192
0
VERTEX
8
OBJECT065
10
0
20
0
30
0
70
128
71
2
72
3
73
-4
0
VERTEX
8
OBJECT065
10
0
20
0
30
0
70
128
71
-2
72
4
73
1
0
VERTEX
8
OBJECT065
10
0
20
0
30
0
70
128
71
2
72
1
73
-6
0
VERTEX
8
OBJECT065
10
0
20
0
30
0
70
128
71
-2
72
6
73
5
0
VERTEX
8
OBJECT065
10
0
20
0
30
0
70
128
71
4
72
3
73
-8
0
VERTEX
8
OBJECT065
10
0
20
0
30
0
70
128
71
-4
72
8
73
7
0
VERTEX
8
OBJECT065
10
0
20
0
30
0
70
128
71
2
72
5
73
-8
0
VERTEX
8
OBJECT065
10
0
20
0
30
0
70
128
71
-2
72
8
73
3
0
VERTEX
8
OBJECT065
10
0
20
0
30
0
70
128
71
1
72
4
73
-7
0
VERTEX
8
OBJECT065
10
0
20
0
30
0
70
128
71
-1
72
7
73
6
0
VERTEX
8
OBJECT065
10
0
20
0
30
0
70
128
71
6
72
7
73
-8
0
VERTEX
8
OBJECT065
10
0
20
0
30
0
70
128
71
-6
72
8
73
5
0
SEQEND
8
OBJECT065
0
POLYLINE
8
OBJECT066
66
1
70
64
71
8
72
12
62
50
0
VERTEX
8
OBJECT066
10
-91.964020
20
175.000000
30
50.000000
70
192
0
VERTEX
8
OBJECT066
10
-93.780655
20
175.000000
30
49.000000
70
192
0
VERTEX
8
OBJECT066
10
-93.780685
20
-339.000000
30
49.000000
70
192
0
VERTEX
8
OBJECT066
10
-91.964050
20
-339.000000
30
50.000000
70
192
0
VERTEX
8
OBJECT066
10
-118.422234
20
-339.000000
30
49.000000
70
192
0
VERTEX
8
OBJECT066
10
-118.422234
20
175.000000
30
49.000000
70
192
0
VERTEX
8
OBJECT066
10
-116.556458
20
175.000000
30
50.000000
70
192
0
VERTEX
8
OBJECT066
10
-116.556480
20
-339.000000
30
50.000000
70
192
0
VERTEX
8
OBJECT066
10
0
20
0
30
0
70
128
71
2
72
3
73
-4
0
VERTEX
8
OBJECT066
10
0
20
0
30
0
70
128
71
-2
72
4
73
1
0
VERTEX
8
OBJECT066
10
0
20
0
30
0
70
128
71
3
72
2
73
-6
0
VERTEX
8
OBJECT066
10
0
20
0
30
0
70
128
71
-3
72
6
73
5
0
VERTEX
8
OBJECT066
10
0
20
0
30
0
70
128
71
2
72
1
73
-7
0
VERTEX
8
OBJECT066
10
0
20
0
30
0
70
128
71
-2
72
7
73
6
0
VERTEX
8
OBJECT066
10
0
20
0
30
0
70
128
71
3
72
5
73
-8
0
VERTEX
8
OBJECT066
10
0
20
0
30
0
70
128
71
-3
72
8
73
4
0
VERTEX
8
OBJECT066
10
0
20
0
30
0
70
128
71
6
72
7
73
-8
0
VERTEX
8
OBJECT066
10
0
20
0
30
0
70
128
71
-6
72
8
73
5
0
VERTEX
8
OBJECT066
10
0
20
0
30
0
70
128
71
1
72
4
73
-8
0
VERTEX
8
OBJECT066
10
0
20
0
30
0
70
128
71
-1
72
8
73
7
0
SEQEND
8
OBJECT066
0
POLYLINE
8
OBJECT067
66
1
70
64
71
8
72
12
62
50
0
VERTEX
8
OBJECT067
10
-2.748159
20
175.000000
30
99.111595
70
192
0
VERTEX
8
OBJECT067
10
-91.964035
20
175.000000
30
50.000000
70
192
0
VERTEX
8
OBJECT067
10
-91.964035
20
104.000000
30
50.000000
70
192
0
VERTEX
8
OBJECT067
10
-2.748159
20
104.000000
30
99.111595
70
192
0
VERTEX
8
OBJECT067
10
-2.748159
20
175.000000
30
111.000000
70
192
0
VERTEX
8
OBJECT067
10
-116.556465
20
175.000000
30
50.000000
70
192
0
VERTEX
8
OBJECT067
10
-2.748159
20
104.000000
30
111.000000
70
192
0
VERTEX
8
OBJECT067
10
-116.555107
20
104.000000
30
50.000000
70
192
0
VERTEX
8
OBJECT067
10
0
20
0
30
0
70
128
71
2
72
3
73
-4
0
VERTEX
8
OBJECT067
10
0
20
0
30
0
70
128
71
-2
72
4
73
1
0
VERTEX
8
OBJECT067
10
0
20
0
30
0
70
128
71
1
72
5
73
-6
0
VERTEX
8
OBJECT067
10
0
20
0
30
0
70
128
71
-1
72
6
73
2
0
VERTEX
8
OBJECT067
10
0
20
0
30
0
70
128
71
1
72
4
73
-7
0
VERTEX
8
OBJECT067
10
0
20
0
30
0
70
128
71
-1
72
7
73
5
0
VERTEX
8
OBJECT067
10
0
20
0
30
0
70
128
71
5
72
7
73
-8
0
VERTEX
8
OBJECT067
10
0
20
0
30
0
70
128
71
-5
72
8
73
6
0
VERTEX
8
OBJECT067
10
0
20
0
30
0
70
128
71
2
72
6
73
-8
0
VERTEX
8
OBJECT067
10
0
20
0
30
0
70
128
71
-2
72
8
73
3
0
VERTEX
8
OBJECT067
10
0
20
0
30
0
70
128
71
4
72
3
73
-8
0
VERTEX
8
OBJECT067
10
0
20
0
30
0
70
128
71
-4
72
8
73
7
0
SEQEND
8
OBJECT067
0
POLYLINE
8
OBJECT068
66
1
70
64
71
8
72
12
62
50
0
VERTEX
8
OBJECT068
10
-91.964027
20
-270.000000
30
50.000000
70
192
0
VERTEX
8
OBJECT068
10
-91.964035
20
-339.000000
30
50.000000
70
192
0
VERTEX
8
OBJECT068
10
-2.748159
20
-339.000000
30
99.111595
70
192
0
VERTEX
8
OBJECT068
10
-2.748159
20
-270.000000
30
99.111595
70
192
0
VERTEX
8
OBJECT068
10
-2.748159
20
-339.000000
30
111.000000
70
192
0
VERTEX
8
OBJECT068
10
-116.556480
20
-339.000000
30
50.000000
70
192
0
VERTEX
8
OBJECT068
10
-2.748159
20
-270.000000
30
111.000000
70
192
0
VERTEX
8
OBJECT068
10
-116.555191
20
-270.000000
30
50.000000
70
192
0
VERTEX
8
OBJECT068
10
0
20
0
30
0
70
128
71
2
72
3
73
-4
0
VERTEX
8
OBJECT068
10
0
20
0
30
0
70
128
71
-2
72
4
73
1
0
VERTEX
8
OBJECT068
10
0
20
0
30
0
70
128
71
3
72
2
73
-6
0
VERTEX
8
OBJECT068
10
0
20
0
30
0
70
128
71
-3
72
6
73
5
0
VERTEX
8
OBJECT068
10
0
20
0
30
0
70
128
71
3
72
5
73
-7
0
VERTEX
8
OBJECT068
10
0
20
0
30
0
70
128
71
-3
72
7
73
4
0
VERTEX
8
OBJECT068
10
0
20
0
30
0
70
128
71
5
72
6
73
-8
0
VERTEX
8
OBJECT068
10
0
20
0
30
0
70
128
71
-5
72
8
73
7
0
VERTEX
8
OBJECT068
10
0
20
0
30
0
70
128
71
6
72
2
73
-1
0
VERTEX
8
OBJECT068
10
0
20
0
30
0
70
128
71
-6
72
1
73
8
0
VERTEX
8
OBJECT068
10
0
20
0
30
0
70
128
71
4
72
7
73
-8
0
VERTEX
8
OBJECT068
10
0
20
0
30
0
70
128
71
-4
72
8
73
1
0
SEQEND
8
OBJECT068
0
POLYLINE
8
OBJECT069
66
1
70
64
71
8
72
12
62
50
0
VERTEX
8
OBJECT069
10
-91.964027
20
104.000000
30
50.000000
70
192
0
VERTEX
8
OBJECT069
10
-91.964035
20
-18.036407
30
50.000000
70
192
0
VERTEX
8
OBJECT069
10
-2.748159
20
79.224777
30
99.111595
70
192
0
VERTEX
8
OBJECT069
10
-2.748159
20
104.000000
30
99.111595
70
192
0
VERTEX
8
OBJECT069
10
-2.748159
20
102.768707
30
111.000000
70
192
0
VERTEX
8
OBJECT069
10
-2.748159
20
104.000000
30
111.000000
70
192
0
VERTEX
8
OBJECT069
10
-116.555122
20
-18.036407
30
50.000000
70
192
0
VERTEX
8
OBJECT069
10
-116.555115
20
104.000000
30
50.000000
70
192
0
VERTEX
8
OBJECT069
10
0
20
0
30
0
70
128
71
2
72
3
73
-4
0
VERTEX
8
OBJECT069
10
0
20
0
30
0
70
128
71
-2
72
4
73
1
0
VERTEX
8
OBJECT069
10
0
20
0
30
0
70
128
71
3
72
5
73
-6
0
VERTEX
8
OBJECT069
10
0
20
0
30
0
70
128
71
-3
72
6
73
4
0
VERTEX
8
OBJECT069
10
0
20
0
30
0
70
128
71
8
72
6
73
-5
0
VERTEX
8
OBJECT069
10
0
20
0
30
0
70
128
71
-8
72
5
73
7
0
VERTEX
8
OBJECT069
10
0
20
0
30
0
70
128
71
7
72
2
73
-1
0
VERTEX
8
OBJECT069
10
0
20
0
30
0
70
128
71
-7
72
1
73
8
0
VERTEX
8
OBJECT069
10
0
20
0
30
0
70
128
71
4
72
6
73
-8
0
VERTEX
8
OBJECT069
10
0
20
0
30
0
70
128
71
-4
72
8
73
1
0
VERTEX
8
OBJECT069
10
0
20
0
30
0
70
128
71
5
72
3
73
-2
0
VERTEX
8
OBJECT069
10
0
20
0
30
0
70
128
71
-5
72
2
73
7
0
SEQEND
8
OBJECT069
0
POLYLINE
8
OBJECT070
66
1
70
64
71
8
72
12
62
50
0
VERTEX
8
OBJECT070
10
-91.964043
20
-148.017151
30
50.000000
70
192
0
VERTEX
8
OBJECT070
10
-91.964050
20
-270.000000
30
50.000000
70
192
0
VERTEX
8
OBJECT070
10
-2.748159
20
-270.000000
30
99.111595
70
192
0
VERTEX
8
OBJECT070
10
-2.748159
20
-245.044235
30
99.111595
70
192
0
VERTEX
8
OBJECT070
10
-2.748159
20
-270.000000
30
111.000000
70
192
0
VERTEX
8
OBJECT070
10
-2.748159
20
-268.531525
30
111.000000
70
192
0
VERTEX
8
OBJECT070
10
-116.555130
20
-270.000000
30
50.000000
70
192
0
VERTEX
8
OBJECT070
10
-116.555130
20
-148.017136
30
50.000000
70
192
0
VERTEX
8
OBJECT070
10
0
20
0
30
0
70
128
71
2
72
3
73
-4
0
VERTEX
8
OBJECT070
10
0
20
0
30
0
70
128
71
-2
72
4
73
1
0
VERTEX
8
OBJECT070
10
0
20
0
30
0
70
128
71
3
72
5
73
-6
0
VERTEX
8
OBJECT070
10
0
20
0
30
0
70
128
71
-3
72
6
73
4
0
VERTEX
8
OBJECT070
10
0
20
0
30
0
70
128
71
8
72
6
73
-5
0
VERTEX
8
OBJECT070
10
0
20
0
30
0
70
128
71
-8
72
5
73
7
0
VERTEX
8
OBJECT070
10
0
20
0
30
0
70
128
71
7
72
2
73
-1
0
VERTEX
8
OBJECT070
10
0
20
0
30
0
70
128
71
-7
72
1
73
8
0
VERTEX
8
OBJECT070
10
0
20
0
30
0
70
128
71
3
72
2
73
-7
0
VERTEX
8
OBJECT070
10
0
20
0
30
0
70
128
71
-3
72
7
73
5
0
VERTEX
8
OBJECT070
10
0
20
0
30
0
70
128
71
4
72
6
73
-8
0
VERTEX
8
OBJECT070
10
0
20
0
30
0
70
128
71
-4
72
8
73
1
0
SEQEND
8
OBJECT070
0
POLYLINE
8
OBJECT071
66
1
70
64
71
8
72
12
62
50
0
VERTEX
8
OBJECT071
10
-270.035217
20
-339.000000
30
50.000000
70
192
0
VERTEX
8
OBJECT071
10
-268.218567
20
-339.000000
30
49.000000
70
192
0
VERTEX
8
OBJECT071
10
-268.218536
20
175.000000
30
49.000000
70
192
0
VERTEX
8
OBJECT071
10
-270.035187
20
175.000000
30
50.000000
70
192
0
VERTEX
8
OBJECT071
10
-243.577774
20
175.000000
30
49.000000
70
192
0
VERTEX
8
OBJECT071
10
-243.577774
20
-339.000000
30
49.000000
70
192
0
VERTEX
8
OBJECT071
10
-245.443527
20
175.000000
30
50.000000
70
192
0
VERTEX
8
OBJECT071
10
-245.443527
20
-339.000000
30
50.000000
70
192
0
VERTEX
8
OBJECT071
10
0
20
0
30
0
70
128
71
2
72
3
73
-4
0
VERTEX
8
OBJECT071
10
0
20
0
30
0
70
128
71
-2
72
4
73
1
0
VERTEX
8
OBJECT071
10
0
20
0
30
0
70
128
71
3
72
2
73
-6
0
VERTEX
8
OBJECT071
10
0
20
0
30
0
70
128
71
-3
72
6
73
5
0
VERTEX
8
OBJECT071
10
0
20
0
30
0
70
128
71
3
72
5
73
-7
0
VERTEX
8
OBJECT071
10
0
20
0
30
0
70
128
71
-3
72
7
73
4
0
VERTEX
8
OBJECT071
10
0
20
0
30
0
70
128
71
2
72
1
73
-8
0
VERTEX
8
OBJECT071
10
0
20
0
30
0
70
128
71
-2
72
8
73
6
0
VERTEX
8
OBJECT071
10
0
20
0
30
0
70
128
71
5
72
6
73
-8
0
VERTEX
8
OBJECT071
10
0
20
0
30
0
70
128
71
-5
72
8
73
7
0
VERTEX
8
OBJECT071
10
0
20
0
30
0
70
128
71
1
72
4
73
-7
0
VERTEX
8
OBJECT071
10
0
20
0
30
0
70
128
71
-1
72
7
73
8
0
SEQEND
8
OBJECT071
0
POLYLINE
8
OBJECT072
66
1
70
64
71
8
72
12
62
50
0
VERTEX
8
OBJECT072
10
-270.035187
20
175.000000
30
50.000000
70
192
0
VERTEX
8
OBJECT072
10
-359.251862
20
175.000000
30
99.112274
70
192
0
VERTEX
8
OBJECT072
10
-359.251862
20
104.000000
30
99.112274
70
192
0
VERTEX
8
OBJECT072
10
-270.035187
20
104.000000
30
50.000000
70
192
0
VERTEX
8
OBJECT072
10
-359.251862
20
175.000000
30
111.000000
70
192
0
VERTEX
8
OBJECT072
10
-245.443527
20
175.000000
30
50.000000
70
192
0
VERTEX
8
OBJECT072
10
-359.251862
20
104.000000
30
111.000000
70
192
0
VERTEX
8
OBJECT072
10
-245.446243
20
104.000000
30
50.000000
70
192
0
VERTEX
8
OBJECT072
10
0
20
0
30
0
70
128
71
2
72
3
73
-4
0
VERTEX
8
OBJECT072
10
0
20
0
30
0
70
128
71
-2
72
4
73
1
0
VERTEX
8
OBJECT072
10
0
20
0
30
0
70
128
71
2
72
1
73
-6
0
VERTEX
8
OBJECT072
10
0
20
0
30
0
70
128
71
-2
72
6
73
5
0
VERTEX
8
OBJECT072
10
0
20
0
30
0
70
128
71
2
72
5
73
-7
0
VERTEX
8
OBJECT072
10
0
20
0
30
0
70
128
71
-2
72
7
73
3
0
VERTEX
8
OBJECT072
10
0
20
0
30
0
70
128
71
5
72
6
73
-8
0
VERTEX
8
OBJECT072
10
0
20
0
30
0
70
128
71
-5
72
8
73
7
0
VERTEX
8
OBJECT072
10
0
20
0
30
0
70
128
71
1
72
4
73
-8
0
VERTEX
8
OBJECT072
10
0
20
0
30
0
70
128
71
-1
72
8
73
6
0
VERTEX
8
OBJECT072
10
0
20
0
30
0
70
128
71
3
72
7
73
-8
0
VERTEX
8
OBJECT072
10
0
20
0
30
0
70
128
71
-3
72
8
73
4
0
SEQEND
8
OBJECT072
0
POLYLINE
8
OBJECT073
66
1
70
64
71
8
72
12
62
50
0
VERTEX
8
OBJECT073
10
-359.251862
20
-270.000000
30
99.112274
70
192
0
VERTEX
8
OBJECT073
10
-359.251862
20
-339.000000
30
99.112274
70
192
0
VERTEX
8
OBJECT073
10
-270.035187
20
-339.000000
30
50.000000
70
192
0
VERTEX
8
OBJECT073
10
-270.035187
20
-270.000000
30
50.000000
70
192
0
VERTEX
8
OBJECT073
10
-359.251862
20
-339.000000
30
111.000000
70
192
0
VERTEX
8
OBJECT073
10
-245.443527
20
-339.000000
30
50.000000
70
192
0
VERTEX
8
OBJECT073
10
-359.251862
20
-270.000000
30
111.000000
70
192
0
VERTEX
8
OBJECT073
10
-245.446381
20
-270.000000
30
50.000000
70
192
0
VERTEX
8
OBJECT073
10
0
20
0
30
0
70
128
71
2
72
3
73
-4
0
VERTEX
8
OBJECT073
10
0
20
0
30
0
70
128
71
-2
72
4
73
1
0
VERTEX
8
OBJECT073
10
0
20
0
30
0
70
128
71
2
72
5
73
-6
0
VERTEX
8
OBJECT073
10
0
20
0
30
0
70
128
71
-2
72
6
73
3
0
VERTEX
8
OBJECT073
10
0
20
0
30
0
70
128
71
2
72
1
73
-7
0
VERTEX
8
OBJECT073
10
0
20
0
30
0
70
128
71
-2
72
7
73
5
0
VERTEX
8
OBJECT073
10
0
20
0
30
0
70
128
71
5
72
7
73
-8
0
VERTEX
8
OBJECT073
10
0
20
0
30
0
70
128
71
-5
72
8
73
6
0
VERTEX
8
OBJECT073
10
0
20
0
30
0
70
128
71
3
72
6
73
-8
0
VERTEX
8
OBJECT073
10
0
20
0
30
0
70
128
71
-3
72
8
73
4
0
VERTEX
8
OBJECT073
10
0
20
0
30
0
70
128
71
1
72
4
73
-8
0
VERTEX
8
OBJECT073
10
0
20
0
30
0
70
128
71
-1
72
8
73
7
0
SEQEND
8
OBJECT073
0
POLYLINE
8
OBJECT074
66
1
70
64
71
8
72
12
62
50
0
VERTEX
8
OBJECT074
10
-359.251862
20
104.000000
30
99.112274
70
192
0
VERTEX
8
OBJECT074
10
-359.251862
20
79.226112
30
99.112274
70
192
0
VERTEX
8
OBJECT074
10
-270.035187
20
-18.036407
30
50.000000
70
192
0
VERTEX
8
OBJECT074
10
-270.035187
20
104.000000
30
50.000000
70
192
0
VERTEX
8
OBJECT074
10
-359.251862
20
104.000000
30
111.000000
70
192
0
VERTEX
8
OBJECT074
10
-359.251862
20
102.768723
30
111.000000
70
192
0
VERTEX
8
OBJECT074
10
-245.446335
20
104.000000
30
50.000000
70
192
0
VERTEX
8
OBJECT074
10
-245.446335
20
-18.036407
30
50.000000
70
192
0
VERTEX
8
OBJECT074
10
0
20
0
30
0
70
128
71
2
72
3
73
-4
0
VERTEX
8
OBJECT074
10
0
20
0
30
0
70
128
71
-2
72
4
73
1
0
VERTEX
8
OBJECT074
10
0
20
0
30
0
70
128
71
1
72
5
73
-6
0
VERTEX
8
OBJECT074
10
0
20
0
30
0
70
128
71
-1
72
6
73
2
0
VERTEX
8
OBJECT074
10
0
20
0
30
0
70
128
71
5
72
7
73
-8
0
VERTEX
8
OBJECT074
10
0
20
0
30
0
70
128
71
-5
72
8
73
6
0
VERTEX
8
OBJECT074
10
0
20
0
30
0
70
128
71
3
72
8
73
-7
0
VERTEX
8
OBJECT074
10
0
20
0
30
0
70
128
71
-3
72
7
73
4
0
VERTEX
8
OBJECT074
10
0
20
0
30
0
70
128
71
1
72
4
73
-7
0
VERTEX
8
OBJECT074
10
0
20
0
30
0
70
128
71
-1
72
7
73
5
0
VERTEX
8
OBJECT074
10
0
20
0
30
0
70
128
71
2
72
6
73
-8
0
VERTEX
8
OBJECT074
10
0
20
0
30
0
70
128
71
-2
72
8
73
3
0
SEQEND
8
OBJECT074
0
POLYLINE
8
OBJECT075
66
1
70
64
71
8
72
12
62
50
0
VERTEX
8
OBJECT075
10
-359.251862
20
-245.045563
30
99.112267
70
192
0
VERTEX
8
OBJECT075
10
-359.251862
20
-270.000000
30
99.112267
70
192
0
VERTEX
8
OBJECT075
10
-270.035217
20
-270.000000
30
50.000000
70
192
0
VERTEX
8
OBJECT075
10
-270.035217
20
-148.017151
30
50.000000
70
192
0
VERTEX
8
OBJECT075
10
-359.251862
20
-268.531525
30
111.000000
70
192
0
VERTEX
8
OBJECT075
10
-359.251862
20
-270.000000
30
111.000000
70
192
0
VERTEX
8
OBJECT075
10
-245.446335
20
-148.017136
30
50.000000
70
192
0
VERTEX
8
OBJECT075
10
-245.446335
20
-270.000000
30
50.000000
70
192
0
VERTEX
8
OBJECT075
10
0
20
0
30
0
70
128
71
2
72
3
73
-4
0
VERTEX
8
OBJECT075
10
0
20
0
30
0
70
128
71
-2
72
4
73
1
0
VERTEX
8
OBJECT075
10
0
20
0
30
0
70
128
71
1
72
5
73
-6
0
VERTEX
8
OBJECT075
10
0
20
0
30
0
70
128
71
-1
72
6
73
2
0
VERTEX
8
OBJECT075
10
0
20
0
30
0
70
128
71
5
72
7
73
-8
0
VERTEX
8
OBJECT075
10
0
20
0
30
0
70
128
71
-5
72
8
73
6
0
VERTEX
8
OBJECT075
10
0
20
0
30
0
70
128
71
3
72
8
73
-7
0
VERTEX
8
OBJECT075
10
0
20
0
30
0
70
128
71
-3
72
7
73
4
0
VERTEX
8
OBJECT075
10
0
20
0
30
0
70
128
71
2
72
6
73
-8
0
VERTEX
8
OBJECT075
10
0
20
0
30
0
70
128
71
-2
72
8
73
3
0
VERTEX
8
OBJECT075
10
0
20
0
30
0
70
128
71
1
72
4
73
-7
0
VERTEX
8
OBJECT075
10
0
20
0
30
0
70
128
71
-1
72
7
73
5
0
SEQEND
8
OBJECT075
0
POLYLINE
8
OBJECT076
66
1
70
64
71
8
72
12
62
50
0
VERTEX
8
OBJECT076
10
-444.000000
20
95.000015
30
278.000000
70
192
0
VERTEX
8
OBJECT076
10
-444.000000
20
-260.000000
30
278.000000
70
192
0
VERTEX
8
OBJECT076
10
70.000000
20
-260.000000
30
278.000000
70
192
0
VERTEX
8
OBJECT076
10
70.000000
20
95.000015
30
278.000000
70
192
0
VERTEX
8
OBJECT076
10
-444.000000
20
-260.000000
30
288.000000
70
192
0
VERTEX
8
OBJECT076
10
-444.000000
20
95.000015
30
288.000000
70
192
0
VERTEX
8
OBJECT076
10
70.000000
20
95.000015
30
288.000000
70
192
0
VERTEX
8
OBJECT076
10
70.000000
20
-260.000000
30
288.000000
70
192
0
VERTEX
8
OBJECT076
10
0
20
0
30
0
70
128
71
2
72
3
73
-4
0
VERTEX
8
OBJECT076
10
0
20
0
30
0
70
128
71
-2
72
4
73
1
0
VERTEX
8
OBJECT076
10
0
20
0
30
0
70
128
71
2
72
1
73
-6
0
VERTEX
8
OBJECT076
10
0
20
0
30
0
70
128
71
-2
72
6
73
5
0
VERTEX
8
OBJECT076
10
0
20
0
30
0
70
128
71
4
72
3
73
-8
0
VERTEX
8
OBJECT076
10
0
20
0
30
0
70
128
71
-4
72
8
73
7
0
VERTEX
8
OBJECT076
10
0
20
0
30
0
70
128
71
1
72
4
73
-7
0
VERTEX
8
OBJECT076
10
0
20
0
30
0
70
128
71
-1
72
7
73
6
0
VERTEX
8
OBJECT076
10
0
20
0
30
0
70
128
71
3
72
2
73
-5
0
VERTEX
8
OBJECT076
10
0
20
0
30
0
70
128
71
-3
72
5
73
8
0
VERTEX
8
OBJECT076
10
0
20
0
30
0
70
128
71
6
72
7
73
-8
0
VERTEX
8
OBJECT076
10
0
20
0
30
0
70
128
71
-6
72
8
73
5
0
SEQEND
8
OBJECT076
0
POLYLINE
8
OBJECT077
66
1
70
64
71
8
72
12
62
50
0
VERTEX
8
OBJECT077
10
-361.000000
20
175.000015
30
278.000000
70
192
0
VERTEX
8
OBJECT077
10
-361.000000
20
-338.999969
30
278.000000
70
192
0
VERTEX
8
OBJECT077
10
-1.999998
20
-338.999969
30
278.000000
70
192
0
VERTEX
8
OBJECT077
10
-1.999998
20
175.000015
30
278.000000
70
192
0
VERTEX
8
OBJECT077
10
-361.000000
20
-338.999969
30
288.000000
70
192
0
VERTEX
8
OBJECT077
10
-361.000000
20
175.000015
30
288.000000
70
192
0
VERTEX
8
OBJECT077
10
-1.999998
20
175.000015
30
288.000000
70
192
0
VERTEX
8
OBJECT077
10
-1.999998
20
-338.999969
30
288.000000
70
192
0
VERTEX
8
OBJECT077
10
0
20
0
30
0
70
128
71
2
72
3
73
-4
0
VERTEX
8
OBJECT077
10
0
20
0
30
0
70
128
71
-2
72
4
73
1
0
VERTEX
8
OBJECT077
10
0
20
0
30
0
70
128
71
2
72
1
73
-6
0
VERTEX
8
OBJECT077
10
0
20
0
30
0
70
128
71
-2
72
6
73
5
0
VERTEX
8
OBJECT077
10
0
20
0
30
0
70
128
71
4
72
3
73
-8
0
VERTEX
8
OBJECT077
10
0
20
0
30
0
70
128
71
-4
72
8
73
7
0
VERTEX
8
OBJECT077
10
0
20
0
30
0
70
128
71
1
72
4
73
-7
0
VERTEX
8
OBJECT077
10
0
20
0
30
0
70
128
71
-1
72
7
73
6
0
VERTEX
8
OBJECT077
10
0
20
0
30
0
70
128
71
3
72
2
73
-5
0
VERTEX
8
OBJECT077
10
0
20
0
30
0
70
128
71
-3
72
5
73
8
0
VERTEX
8
OBJECT077
10
0
20
0
30
0
70
128
71
6
72
7
73
-8
0
VERTEX
8
OBJECT077
10
0
20
0
30
0
70
128
71
-6
72
8
73
5
0
SEQEND
8
OBJECT077
0
ENDSEC
0
EOF
