0
SECTION
2
HEADER
9
$ACADVER
1
AC1008
9
$UCSORG
10
0.0
20
0.0
30
0.0
9
$UCSXDIR
10
1.0
20
0.0
30
0.0
9
$TILEMODE
70
1
9
$UCSYDIR
10
0.0
20
1.0
30
0.0
9
$EXTMIN
10
-7.000000
20
-90.639137
30
47.000000
9
$EXTMAX
10
23.000000
20
-45.360859
30
90.000000
0
ENDSEC
0
SECTION
2
TABLES
0
TABLE
2
LTYPE
70
1
0
LTYPE
2
CONTINUOUS
70
64
3
Solid line
72
65
73
0
40
0.0
0
ENDTAB
0
TABLE
2
LAYER
70
1
0
LAYER
2
0
70
0
62
7
6
CONTINUOUS
0
ENDTAB
0
TABLE
2
STYLE
70
1
0
STYLE
2
STANDARD
70
0
40
0.0
41
1.0
50
0.0
71
0
42
0.2
3
txt
4

0
ENDTAB
0
TABLE
2
UCS
70
0
0
ENDTAB
0
ENDSEC
0
SECTION
2
ENTITIES
0
POLYLINE
8
OBJECT000
66
1
70
64
71
16
72
28
62
50
0
VERTEX
8
OBJECT000
10
11.837732
20
-90.639137
30
79.000000
70
192
0
VERTEX
8
OBJECT000
10
3.086700
20
-90.639137
30
79.000000
70
192
0
VERTEX
8
OBJECT000
10
-7.000000
20
-67.272636
30
79.000000
70
192
0
VERTEX
8
OBJECT000
10
-7.000000
20
-62.639137
30
79.000000
70
192
0
VERTEX
8
OBJECT000
10
23.000000
20
-62.639137
30
79.000000
70
192
0
VERTEX
8
OBJECT000
10
23.000000
20
-66.897873
30
79.000000
70
192
0
VERTEX
8
OBJECT000
10
12.768894
20
-88.941040
30
79.000000
70
192
0
VERTEX
8
OBJECT000
10
11.837732
20
-90.639137
30
74.000000
70
192
0
VERTEX
8
OBJECT000
10
3.086700
20
-90.639137
30
74.000000
70
192
0
VERTEX
8
OBJECT000
10
12.801905
20
-88.880920
30
71.625404
70
192
0
VERTEX
8
OBJECT000
10
21.281782
20
-70.639137
30
47.000000
70
192
0
VERTEX
8
OBJECT000
10
23.000000
20
-66.945633
30
47.000000
70
192
0
VERTEX
8
OBJECT000
10
23.000000
20
-62.639137
30
47.000000
70
192
0
VERTEX
8
OBJECT000
10
-7.000000
20
-62.639137
30
47.000000
70
192
0
VERTEX
8
OBJECT000
10
-7.000000
20
-67.272636
30
47.000000
70
192
0
VERTEX
8
OBJECT000
10
-5.543129
20
-70.639137
30
47.000000
70
192
0
VERTEX
8
OBJECT000
10
0
20
0
30
0
70
128
71
2
72
3
73
-4
0
VERTEX
8
OBJECT000
10
0
20
0
30
0
70
128
71
-2
72
4
73
-5
0
VERTEX
8
OBJECT000
10
0
20
0
30
0
70
128
71
-2
72
5
73
-6
0
VERTEX
8
OBJECT000
10
0
20
0
30
0
70
128
71
-2
72
6
73
-7
0
VERTEX
8
OBJECT000
10
0
20
0
30
0
70
128
71
-2
72
7
73
1
0
VERTEX
8
OBJECT000
10
0
20
0
30
0
70
128
71
1
72
8
73
-9
0
VERTEX
8
OBJECT000
10
0
20
0
30
0
70
128
71
-1
72
9
73
2
0
VERTEX
8
OBJECT000
10
0
20
0
30
0
70
128
71
1
72
7
73
-10
0
VERTEX
8
OBJECT000
10
0
20
0
30
0
70
128
71
-1
72
10
73
8
0
VERTEX
8
OBJECT000
10
0
20
0
30
0
70
128
71
12
72
13
73
-14
0
VERTEX
8
OBJECT000
10
0
20
0
30
0
70
128
71
-12
72
14
73
-15
0
VERTEX
8
OBJECT000
10
0
20
0
30
0
70
128
71
-12
72
15
73
-16
0
VERTEX
8
OBJECT000
10
0
20
0
30
0
70
128
71
-12
72
16
73
11
0
VERTEX
8
OBJECT000
10
0
20
0
30
0
70
128
71
13
72
5
73
-4
0
VERTEX
8
OBJECT000
10
0
20
0
30
0
70
128
71
-13
72
4
73
14
0
VERTEX
8
OBJECT000
10
0
20
0
30
0
70
128
71
2
72
9
73
-16
0
VERTEX
8
OBJECT000
10
0
20
0
30
0
70
128
71
-2
72
16
73
-15
0
VERTEX
8
OBJECT000
10
0
20
0
30
0
70
128
71
-2
72
15
73
3
0
VERTEX
8
OBJECT000
10
0
20
0
30
0
70
128
71
11
72
10
73
-7
0
VERTEX
8
OBJECT000
10
0
20
0
30
0
70
128
71
-11
72
7
73
-6
0
VERTEX
8
OBJECT000
10
0
20
0
30
0
70
128
71
-11
72
6
73
12
0
VERTEX
8
OBJECT000
10
0
20
0
30
0
70
128
71
8
72
10
73
-11
0
VERTEX
8
OBJECT000
10
0
20
0
30
0
70
128
71
-8
72
11
73
-16
0
VERTEX
8
OBJECT000
10
0
20
0
30
0
70
128
71
-8
72
16
73
9
0
VERTEX
8
OBJECT000
10
0
20
0
30
0
70
128
71
3
72
15
73
-14
0
VERTEX
8
OBJECT000
10
0
20
0
30
0
70
128
71
-3
72
14
73
4
0
VERTEX
8
OBJECT000
10
0
20
0
30
0
70
128
71
12
72
6
73
-5
0
VERTEX
8
OBJECT000
10
0
20
0
30
0
70
128
71
-12
72
5
73
13
0
SEQEND
8
OBJECT000
0
POLYLINE
8
OBJECT001
66
1
70
64
71
6
72
8
62
50
0
VERTEX
8
OBJECT001
10
14.000000
20
-67.640671
30
80.000000
70
192
0
VERTEX
8
OBJECT001
10
12.000000
20
-63.640625
30
80.000000
70
192
0
VERTEX
8
OBJECT001
10
16.000000
20
-63.640625
30
80.000000
70
192
0
VERTEX
8
OBJECT001
10
16.000000
20
-63.639137
30
76.000000
70
192
0
VERTEX
8
OBJECT001
10
12.000000
20
-63.639137
30
76.000000
70
192
0
VERTEX
8
OBJECT001
10
14.000000
20
-67.639885
30
76.000000
70
192
0
VERTEX
8
OBJECT001
10
0
20
0
30
0
70
128
71
2
72
3
73
1
0
VERTEX
8
OBJECT001
10
0
20
0
30
0
70
128
71
3
72
2
73
-5
0
VERTEX
8
OBJECT001
10
0
20
0
30
0
70
128
71
-3
72
5
73
4
0
VERTEX
8
OBJECT001
10
0
20
0
30
0
70
128
71
2
72
1
73
-6
0
VERTEX
8
OBJECT001
10
0
20
0
30
0
70
128
71
-2
72
6
73
5
0
VERTEX
8
OBJECT001
10
0
20
0
30
0
70
128
71
1
72
3
73
-4
0
VERTEX
8
OBJECT001
10
0
20
0
30
0
70
128
71
-1
72
4
73
6
0
VERTEX
8
OBJECT001
10
0
20
0
30
0
70
128
71
5
72
6
73
4
0
SEQEND
8
OBJECT001
0
POLYLINE
8
OBJECT002
66
1
70
64
71
6
72
8
62
50
0
VERTEX
8
OBJECT002
10
8.000000
20
-67.639183
30
80.000000
70
192
0
VERTEX
8
OBJECT002
10
6.000000
20
-63.640625
30
80.000000
70
192
0
VERTEX
8
OBJECT002
10
10.000000
20
-63.640625
30
80.000000
70
192
0
VERTEX
8
OBJECT002
10
10.000000
20
-63.639137
30
76.000000
70
192
0
VERTEX
8
OBJECT002
10
6.000000
20
-63.639137
30
76.000000
70
192
0
VERTEX
8
OBJECT002
10
8.000000
20
-67.639885
30
76.000000
70
192
0
VERTEX
8
OBJECT002
10
0
20
0
30
0
70
128
71
2
72
3
73
1
0
VERTEX
8
OBJECT002
10
0
20
0
30
0
70
128
71
3
72
2
73
-5
0
VERTEX
8
OBJECT002
10
0
20
0
30
0
70
128
71
-3
72
5
73
4
0
VERTEX
8
OBJECT002
10
0
20
0
30
0
70
128
71
2
72
1
73
-6
0
VERTEX
8
OBJECT002
10
0
20
0
30
0
70
128
71
-2
72
6
73
5
0
VERTEX
8
OBJECT002
10
0
20
0
30
0
70
128
71
1
72
3
73
-4
0
VERTEX
8
OBJECT002
10
0
20
0
30
0
70
128
71
-1
72
4
73
6
0
VERTEX
8
OBJECT002
10
0
20
0
30
0
70
128
71
5
72
6
73
4
0
SEQEND
8
OBJECT002
0
POLYLINE
8
OBJECT003
66
1
70
64
71
6
72
8
62
50
0
VERTEX
8
OBJECT003
10
2.000000
20
-67.637695
30
80.000000
70
192
0
VERTEX
8
OBJECT003
10
0.000000
20
-63.640625
30
80.000000
70
192
0
VERTEX
8
OBJECT003
10
4.000000
20
-63.640625
30
80.000000
70
192
0
VERTEX
8
OBJECT003
10
4.000000
20
-63.639137
30
76.000000
70
192
0
VERTEX
8
OBJECT003
10
0.000000
20
-63.639137
30
76.000000
70
192
0
VERTEX
8
OBJECT003
10
2.000000
20
-67.637924
30
76.000000
70
192
0
VERTEX
8
OBJECT003
10
0
20
0
30
0
70
128
71
2
72
3
73
1
0
VERTEX
8
OBJECT003
10
0
20
0
30
0
70
128
71
3
72
2
73
-5
0
VERTEX
8
OBJECT003
10
0
20
0
30
0
70
128
71
-3
72
5
73
4
0
VERTEX
8
OBJECT003
10
0
20
0
30
0
70
128
71
2
72
1
73
-6
0
VERTEX
8
OBJECT003
10
0
20
0
30
0
70
128
71
-2
72
6
73
5
0
VERTEX
8
OBJECT003
10
0
20
0
30
0
70
128
71
1
72
3
73
-4
0
VERTEX
8
OBJECT003
10
0
20
0
30
0
70
128
71
-1
72
4
73
6
0
VERTEX
8
OBJECT003
10
0
20
0
30
0
70
128
71
5
72
6
73
4
0
SEQEND
8
OBJECT003
0
POLYLINE
8
OBJECT004
66
1
70
64
71
6
72
8
62
50
0
VERTEX
8
OBJECT004
10
19.211872
20
-70.640625
30
80.000000
70
192
0
VERTEX
8
OBJECT004
10
15.000000
20
-70.640625
30
80.000000
70
192
0
VERTEX
8
OBJECT004
10
17.105072
20
-66.638718
30
80.000000
70
192
0
VERTEX
8
OBJECT004
10
15.000000
20
-70.639137
30
76.000000
70
192
0
VERTEX
8
OBJECT004
10
19.211872
20
-70.639137
30
76.000000
70
192
0
VERTEX
8
OBJECT004
10
17.104864
20
-66.639114
30
76.000000
70
192
0
VERTEX
8
OBJECT004
10
0
20
0
30
0
70
128
71
2
72
3
73
1
0
VERTEX
8
OBJECT004
10
0
20
0
30
0
70
128
71
2
72
1
73
-5
0
VERTEX
8
OBJECT004
10
0
20
0
30
0
70
128
71
-2
72
5
73
4
0
VERTEX
8
OBJECT004
10
0
20
0
30
0
70
128
71
1
72
3
73
-6
0
VERTEX
8
OBJECT004
10
0
20
0
30
0
70
128
71
-1
72
6
73
5
0
VERTEX
8
OBJECT004
10
0
20
0
30
0
70
128
71
3
72
2
73
-4
0
VERTEX
8
OBJECT004
10
0
20
0
30
0
70
128
71
-3
72
4
73
6
0
VERTEX
8
OBJECT004
10
0
20
0
30
0
70
128
71
5
72
6
73
4
0
SEQEND
8
OBJECT004
0
POLYLINE
8
OBJECT005
66
1
70
64
71
6
72
8
62
50
0
VERTEX
8
OBJECT005
10
13.208577
20
-70.640625
30
80.000000
70
192
0
VERTEX
8
OBJECT005
10
9.000000
20
-70.640625
30
80.000000
70
192
0
VERTEX
8
OBJECT005
10
11.104411
20
-66.641220
30
80.000000
70
192
0
VERTEX
8
OBJECT005
10
9.000000
20
-70.639137
30
76.000000
70
192
0
VERTEX
8
OBJECT005
10
13.208577
20
-70.639137
30
76.000000
70
192
0
VERTEX
8
OBJECT005
10
11.105301
20
-66.639534
30
76.000000
70
192
0
VERTEX
8
OBJECT005
10
0
20
0
30
0
70
128
71
2
72
3
73
1
0
VERTEX
8
OBJECT005
10
0
20
0
30
0
70
128
71
2
72
1
73
-5
0
VERTEX
8
OBJECT005
10
0
20
0
30
0
70
128
71
-2
72
5
73
4
0
VERTEX
8
OBJECT005
10
0
20
0
30
0
70
128
71
1
72
3
73
-6
0
VERTEX
8
OBJECT005
10
0
20
0
30
0
70
128
71
-1
72
6
73
5
0
VERTEX
8
OBJECT005
10
0
20
0
30
0
70
128
71
3
72
2
73
-4
0
VERTEX
8
OBJECT005
10
0
20
0
30
0
70
128
71
-3
72
4
73
6
0
VERTEX
8
OBJECT005
10
0
20
0
30
0
70
128
71
5
72
6
73
4
0
SEQEND
8
OBJECT005
0
POLYLINE
8
OBJECT006
66
1
70
64
71
6
72
8
62
50
0
VERTEX
8
OBJECT006
10
7.212816
20
-70.640625
30
80.000000
70
192
0
VERTEX
8
OBJECT006
10
3.000000
20
-70.640625
30
80.000000
70
192
0
VERTEX
8
OBJECT006
10
5.106027
20
-66.637550
30
80.000000
70
192
0
VERTEX
8
OBJECT006
10
3.000000
20
-70.639137
30
76.000000
70
192
0
VERTEX
8
OBJECT006
10
7.210608
20
-70.639137
30
76.000000
70
192
0
VERTEX
8
OBJECT006
10
5.104777
20
-66.639923
30
76.000000
70
192
0
VERTEX
8
OBJECT006
10
0
20
0
30
0
70
128
71
2
72
3
73
1
0
VERTEX
8
OBJECT006
10
0
20
0
30
0
70
128
71
2
72
1
73
-5
0
VERTEX
8
OBJECT006
10
0
20
0
30
0
70
128
71
-2
72
5
73
4
0
VERTEX
8
OBJECT006
10
0
20
0
30
0
70
128
71
1
72
3
73
-6
0
VERTEX
8
OBJECT006
10
0
20
0
30
0
70
128
71
-1
72
6
73
5
0
VERTEX
8
OBJECT006
10
0
20
0
30
0
70
128
71
3
72
2
73
-4
0
VERTEX
8
OBJECT006
10
0
20
0
30
0
70
128
71
-3
72
4
73
6
0
VERTEX
8
OBJECT006
10
0
20
0
30
0
70
128
71
5
72
6
73
4
0
SEQEND
8
OBJECT006
0
POLYLINE
8
OBJECT007
66
1
70
64
71
6
72
8
62
50
0
VERTEX
8
OBJECT007
10
1.211664
20
-70.640625
30
80.000000
70
192
0
VERTEX
8
OBJECT007
10
-3.000000
20
-70.640625
30
80.000000
70
192
0
VERTEX
8
OBJECT007
10
-0.894567
20
-66.638069
30
80.000000
70
192
0
VERTEX
8
OBJECT007
10
-3.000000
20
-70.639137
30
76.000000
70
192
0
VERTEX
8
OBJECT007
10
1.211664
20
-70.639137
30
76.000000
70
192
0
VERTEX
8
OBJECT007
10
-0.895512
20
-66.639862
30
76.000000
70
192
0
VERTEX
8
OBJECT007
10
0
20
0
30
0
70
128
71
2
72
3
73
1
0
VERTEX
8
OBJECT007
10
0
20
0
30
0
70
128
71
2
72
1
73
-5
0
VERTEX
8
OBJECT007
10
0
20
0
30
0
70
128
71
-2
72
5
73
4
0
VERTEX
8
OBJECT007
10
0
20
0
30
0
70
128
71
1
72
3
73
-6
0
VERTEX
8
OBJECT007
10
0
20
0
30
0
70
128
71
-1
72
6
73
5
0
VERTEX
8
OBJECT007
10
0
20
0
30
0
70
128
71
3
72
2
73
-4
0
VERTEX
8
OBJECT007
10
0
20
0
30
0
70
128
71
-3
72
4
73
6
0
VERTEX
8
OBJECT007
10
0
20
0
30
0
70
128
71
5
72
6
73
4
0
SEQEND
8
OBJECT007
0
POLYLINE
8
OBJECT008
66
1
70
64
71
6
72
8
62
50
0
VERTEX
8
OBJECT008
10
5.000000
20
-75.637344
30
80.000000
70
192
0
VERTEX
8
OBJECT008
10
3.000000
20
-71.640625
30
80.000000
70
192
0
VERTEX
8
OBJECT008
10
7.000000
20
-71.640625
30
80.000000
70
192
0
VERTEX
8
OBJECT008
10
7.000000
20
-71.639137
30
76.000000
70
192
0
VERTEX
8
OBJECT008
10
3.000000
20
-71.639137
30
76.000000
70
192
0
VERTEX
8
OBJECT008
10
5.000000
20
-75.639877
30
76.000000
70
192
0
VERTEX
8
OBJECT008
10
0
20
0
30
0
70
128
71
2
72
3
73
1
0
VERTEX
8
OBJECT008
10
0
20
0
30
0
70
128
71
3
72
2
73
-5
0
VERTEX
8
OBJECT008
10
0
20
0
30
0
70
128
71
-3
72
5
73
4
0
VERTEX
8
OBJECT008
10
0
20
0
30
0
70
128
71
2
72
1
73
-6
0
VERTEX
8
OBJECT008
10
0
20
0
30
0
70
128
71
-2
72
6
73
5
0
VERTEX
8
OBJECT008
10
0
20
0
30
0
70
128
71
1
72
3
73
-4
0
VERTEX
8
OBJECT008
10
0
20
0
30
0
70
128
71
-1
72
4
73
6
0
VERTEX
8
OBJECT008
10
0
20
0
30
0
70
128
71
5
72
6
73
4
0
SEQEND
8
OBJECT008
0
POLYLINE
8
OBJECT009
66
1
70
64
71
6
72
8
62
50
0
VERTEX
8
OBJECT009
10
11.000000
20
-75.641022
30
80.000000
70
192
0
VERTEX
8
OBJECT009
10
9.000000
20
-71.640625
30
80.000000
70
192
0
VERTEX
8
OBJECT009
10
13.000000
20
-71.640625
30
80.000000
70
192
0
VERTEX
8
OBJECT009
10
13.000000
20
-71.639137
30
76.000000
70
192
0
VERTEX
8
OBJECT009
10
9.000000
20
-71.639137
30
76.000000
70
192
0
VERTEX
8
OBJECT009
10
11.000000
20
-75.637932
30
76.000000
70
192
0
VERTEX
8
OBJECT009
10
0
20
0
30
0
70
128
71
2
72
3
73
1
0
VERTEX
8
OBJECT009
10
0
20
0
30
0
70
128
71
3
72
2
73
-5
0
VERTEX
8
OBJECT009
10
0
20
0
30
0
70
128
71
-3
72
5
73
4
0
VERTEX
8
OBJECT009
10
0
20
0
30
0
70
128
71
2
72
1
73
-6
0
VERTEX
8
OBJECT009
10
0
20
0
30
0
70
128
71
-2
72
6
73
5
0
VERTEX
8
OBJECT009
10
0
20
0
30
0
70
128
71
1
72
3
73
-4
0
VERTEX
8
OBJECT009
10
0
20
0
30
0
70
128
71
-1
72
4
73
6
0
VERTEX
8
OBJECT009
10
0
20
0
30
0
70
128
71
5
72
6
73
4
0
SEQEND
8
OBJECT009
0
POLYLINE
8
OBJECT010
66
1
70
64
71
6
72
8
62
50
0
VERTEX
8
OBJECT010
10
16.000000
20
-77.640625
30
80.000000
70
192
0
VERTEX
8
OBJECT010
10
11.788033
20
-77.640625
30
80.000000
70
192
0
VERTEX
8
OBJECT010
10
13.894956
20
-73.638000
30
80.000000
70
192
0
VERTEX
8
OBJECT010
10
11.788816
20
-77.639137
30
76.000000
70
192
0
VERTEX
8
OBJECT010
10
16.000000
20
-77.639137
30
76.000000
70
192
0
VERTEX
8
OBJECT010
10
13.894515
20
-73.638840
30
76.000000
70
192
0
VERTEX
8
OBJECT010
10
0
20
0
30
0
70
128
71
2
72
3
73
1
0
VERTEX
8
OBJECT010
10
0
20
0
30
0
70
128
71
2
72
1
73
-5
0
VERTEX
8
OBJECT010
10
0
20
0
30
0
70
128
71
-2
72
5
73
4
0
VERTEX
8
OBJECT010
10
0
20
0
30
0
70
128
71
1
72
3
73
-6
0
VERTEX
8
OBJECT010
10
0
20
0
30
0
70
128
71
-1
72
6
73
5
0
VERTEX
8
OBJECT010
10
0
20
0
30
0
70
128
71
3
72
2
73
-4
0
VERTEX
8
OBJECT010
10
0
20
0
30
0
70
128
71
-3
72
4
73
6
0
VERTEX
8
OBJECT010
10
0
20
0
30
0
70
128
71
5
72
6
73
4
0
SEQEND
8
OBJECT010
0
POLYLINE
8
OBJECT011
66
1
70
64
71
6
72
8
62
50
0
VERTEX
8
OBJECT011
10
10.000000
20
-77.640625
30
80.000000
70
192
0
VERTEX
8
OBJECT011
10
5.787456
20
-77.640625
30
80.000000
70
192
0
VERTEX
8
OBJECT011
10
7.894255
20
-73.638779
30
80.000000
70
192
0
VERTEX
8
OBJECT011
10
5.788239
20
-77.639137
30
76.000000
70
192
0
VERTEX
8
OBJECT011
10
10.000000
20
-77.639137
30
76.000000
70
192
0
VERTEX
8
OBJECT011
10
7.894521
20
-73.638275
30
76.000000
70
192
0
VERTEX
8
OBJECT011
10
0
20
0
30
0
70
128
71
2
72
3
73
1
0
VERTEX
8
OBJECT011
10
0
20
0
30
0
70
128
71
2
72
1
73
-5
0
VERTEX
8
OBJECT011
10
0
20
0
30
0
70
128
71
-2
72
5
73
4
0
VERTEX
8
OBJECT011
10
0
20
0
30
0
70
128
71
1
72
3
73
-6
0
VERTEX
8
OBJECT011
10
0
20
0
30
0
70
128
71
-1
72
6
73
5
0
VERTEX
8
OBJECT011
10
0
20
0
30
0
70
128
71
3
72
2
73
-4
0
VERTEX
8
OBJECT011
10
0
20
0
30
0
70
128
71
-3
72
4
73
6
0
VERTEX
8
OBJECT011
10
0
20
0
30
0
70
128
71
5
72
6
73
4
0
SEQEND
8
OBJECT011
0
POLYLINE
8
OBJECT012
66
1
70
64
71
6
72
8
62
50
0
VERTEX
8
OBJECT012
10
4.000000
20
-77.640625
30
80.000000
70
192
0
VERTEX
8
OBJECT012
10
-0.211168
20
-77.640625
30
80.000000
70
192
0
VERTEX
8
OBJECT012
10
1.895237
20
-73.638222
30
80.000000
70
192
0
VERTEX
8
OBJECT012
10
-0.210385
20
-77.639137
30
76.000000
70
192
0
VERTEX
8
OBJECT012
10
4.000000
20
-77.639137
30
76.000000
70
192
0
VERTEX
8
OBJECT012
10
1.894677
20
-73.639290
30
76.000000
70
192
0
VERTEX
8
OBJECT012
10
0
20
0
30
0
70
128
71
2
72
3
73
1
0
VERTEX
8
OBJECT012
10
0
20
0
30
0
70
128
71
2
72
1
73
-5
0
VERTEX
8
OBJECT012
10
0
20
0
30
0
70
128
71
-2
72
5
73
4
0
VERTEX
8
OBJECT012
10
0
20
0
30
0
70
128
71
1
72
3
73
-6
0
VERTEX
8
OBJECT012
10
0
20
0
30
0
70
128
71
-1
72
6
73
5
0
VERTEX
8
OBJECT012
10
0
20
0
30
0
70
128
71
3
72
2
73
-4
0
VERTEX
8
OBJECT012
10
0
20
0
30
0
70
128
71
-3
72
4
73
6
0
VERTEX
8
OBJECT012
10
0
20
0
30
0
70
128
71
5
72
6
73
4
0
SEQEND
8
OBJECT012
0
POLYLINE
8
OBJECT013
66
1
70
64
71
6
72
8
62
50
0
VERTEX
8
OBJECT013
10
7.000000
20
-83.640625
30
80.000000
70
192
0
VERTEX
8
OBJECT013
10
2.789612
20
-83.640625
30
80.000000
70
192
0
VERTEX
8
OBJECT013
10
4.894969
20
-79.639473
30
80.000000
70
192
0
VERTEX
8
OBJECT013
10
2.790395
20
-83.639137
30
76.000000
70
192
0
VERTEX
8
OBJECT013
10
7.000000
20
-83.639137
30
76.000000
70
192
0
VERTEX
8
OBJECT013
10
4.894587
20
-79.640198
30
76.000000
70
192
0
VERTEX
8
OBJECT013
10
0
20
0
30
0
70
128
71
2
72
3
73
1
0
VERTEX
8
OBJECT013
10
0
20
0
30
0
70
128
71
2
72
1
73
-5
0
VERTEX
8
OBJECT013
10
0
20
0
30
0
70
128
71
-2
72
5
73
4
0
VERTEX
8
OBJECT013
10
0
20
0
30
0
70
128
71
1
72
3
73
-6
0
VERTEX
8
OBJECT013
10
0
20
0
30
0
70
128
71
-1
72
6
73
5
0
VERTEX
8
OBJECT013
10
0
20
0
30
0
70
128
71
3
72
2
73
-4
0
VERTEX
8
OBJECT013
10
0
20
0
30
0
70
128
71
-3
72
4
73
6
0
VERTEX
8
OBJECT013
10
0
20
0
30
0
70
128
71
5
72
6
73
4
0
SEQEND
8
OBJECT013
0
POLYLINE
8
OBJECT014
66
1
70
64
71
6
72
8
62
50
0
VERTEX
8
OBJECT014
10
13.000000
20
-83.640625
30
80.000000
70
192
0
VERTEX
8
OBJECT014
10
8.788226
20
-83.640625
30
80.000000
70
192
0
VERTEX
8
OBJECT014
10
10.894230
20
-79.639565
30
80.000000
70
192
0
VERTEX
8
OBJECT014
10
8.789009
20
-83.639137
30
76.000000
70
192
0
VERTEX
8
OBJECT014
10
13.000000
20
-83.639137
30
76.000000
70
192
0
VERTEX
8
OBJECT014
10
10.894055
20
-79.639893
30
76.000000
70
192
0
VERTEX
8
OBJECT014
10
0
20
0
30
0
70
128
71
2
72
3
73
1
0
VERTEX
8
OBJECT014
10
0
20
0
30
0
70
128
71
2
72
1
73
-5
0
VERTEX
8
OBJECT014
10
0
20
0
30
0
70
128
71
-2
72
5
73
4
0
VERTEX
8
OBJECT014
10
0
20
0
30
0
70
128
71
1
72
3
73
-6
0
VERTEX
8
OBJECT014
10
0
20
0
30
0
70
128
71
-1
72
6
73
5
0
VERTEX
8
OBJECT014
10
0
20
0
30
0
70
128
71
3
72
2
73
-4
0
VERTEX
8
OBJECT014
10
0
20
0
30
0
70
128
71
-3
72
4
73
6
0
VERTEX
8
OBJECT014
10
0
20
0
30
0
70
128
71
5
72
6
73
4
0
SEQEND
8
OBJECT014
0
POLYLINE
8
OBJECT015
66
1
70
64
71
6
72
8
62
50
0
VERTEX
8
OBJECT015
10
8.000000
20
-82.639183
30
80.000000
70
192
0
VERTEX
8
OBJECT015
10
6.000000
20
-78.640625
30
80.000000
70
192
0
VERTEX
8
OBJECT015
10
10.000000
20
-78.640625
30
80.000000
70
192
0
VERTEX
8
OBJECT015
10
10.000000
20
-78.639137
30
76.000000
70
192
0
VERTEX
8
OBJECT015
10
6.000000
20
-78.639137
30
76.000000
70
192
0
VERTEX
8
OBJECT015
10
8.000000
20
-82.639877
30
76.000000
70
192
0
VERTEX
8
OBJECT015
10
0
20
0
30
0
70
128
71
2
72
3
73
1
0
VERTEX
8
OBJECT015
10
0
20
0
30
0
70
128
71
3
72
2
73
-5
0
VERTEX
8
OBJECT015
10
0
20
0
30
0
70
128
71
-3
72
5
73
4
0
VERTEX
8
OBJECT015
10
0
20
0
30
0
70
128
71
2
72
1
73
-6
0
VERTEX
8
OBJECT015
10
0
20
0
30
0
70
128
71
-2
72
6
73
5
0
VERTEX
8
OBJECT015
10
0
20
0
30
0
70
128
71
1
72
3
73
-4
0
VERTEX
8
OBJECT015
10
0
20
0
30
0
70
128
71
-1
72
4
73
6
0
VERTEX
8
OBJECT015
10
0
20
0
30
0
70
128
71
5
72
6
73
4
0
SEQEND
8
OBJECT015
0
POLYLINE
8
OBJECT016
66
1
70
64
71
8
72
12
62
50
0
VERTEX
8
OBJECT016
10
10.714342
20
-88.639137
30
80.000000
70
192
0
VERTEX
8
OBJECT016
10
4.285734
20
-88.639137
30
80.000000
70
192
0
VERTEX
8
OBJECT016
10
3.000000
20
-85.640625
30
80.000000
70
192
0
VERTEX
8
OBJECT016
10
12.000000
20
-85.640625
30
80.000000
70
192
0
VERTEX
8
OBJECT016
10
12.000000
20
-85.639137
30
76.000000
70
192
0
VERTEX
8
OBJECT016
10
3.000000
20
-85.639137
30
76.000000
70
192
0
VERTEX
8
OBJECT016
10
4.285734
20
-88.639137
30
76.000000
70
192
0
VERTEX
8
OBJECT016
10
10.714342
20
-88.639137
30
76.000000
70
192
0
VERTEX
8
OBJECT016
10
0
20
0
30
0
70
128
71
2
72
3
73
-4
0
VERTEX
8
OBJECT016
10
0
20
0
30
0
70
128
71
-2
72
4
73
1
0
VERTEX
8
OBJECT016
10
0
20
0
30
0
70
128
71
4
72
3
73
-6
0
VERTEX
8
OBJECT016
10
0
20
0
30
0
70
128
71
-4
72
6
73
5
0
VERTEX
8
OBJECT016
10
0
20
0
30
0
70
128
71
2
72
1
73
-8
0
VERTEX
8
OBJECT016
10
0
20
0
30
0
70
128
71
-2
72
8
73
7
0
VERTEX
8
OBJECT016
10
0
20
0
30
0
70
128
71
3
72
2
73
-7
0
VERTEX
8
OBJECT016
10
0
20
0
30
0
70
128
71
-3
72
7
73
6
0
VERTEX
8
OBJECT016
10
0
20
0
30
0
70
128
71
1
72
4
73
-5
0
VERTEX
8
OBJECT016
10
0
20
0
30
0
70
128
71
-1
72
5
73
8
0
VERTEX
8
OBJECT016
10
0
20
0
30
0
70
128
71
6
72
7
73
-8
0
VERTEX
8
OBJECT016
10
0
20
0
30
0
70
128
71
-6
72
8
73
5
0
SEQEND
8
OBJECT016
0
POLYLINE
8
OBJECT017
66
1
70
64
71
6
72
8
62
50
0
VERTEX
8
OBJECT017
10
17.000000
20
-63.640625
30
80.000000
70
192
0
VERTEX
8
OBJECT017
10
21.000000
20
-63.640625
30
80.000000
70
192
0
VERTEX
8
OBJECT017
10
21.000000
20
-68.639137
30
80.000000
70
192
0
VERTEX
8
OBJECT017
10
21.000000
20
-68.639137
30
76.000000
70
192
0
VERTEX
8
OBJECT017
10
21.000000
20
-63.640625
30
76.000000
70
192
0
VERTEX
8
OBJECT017
10
17.000000
20
-63.639137
30
76.000000
70
192
0
VERTEX
8
OBJECT017
10
0
20
0
30
0
70
128
71
2
72
3
73
1
0
VERTEX
8
OBJECT017
10
0
20
0
30
0
70
128
71
3
72
2
73
-5
0
VERTEX
8
OBJECT017
10
0
20
0
30
0
70
128
71
-3
72
5
73
4
0
VERTEX
8
OBJECT017
10
0
20
0
30
0
70
128
71
2
72
1
73
-6
0
VERTEX
8
OBJECT017
10
0
20
0
30
0
70
128
71
-2
72
6
73
5
0
VERTEX
8
OBJECT017
10
0
20
0
30
0
70
128
71
1
72
3
73
-4
0
VERTEX
8
OBJECT017
10
0
20
0
30
0
70
128
71
-1
72
4
73
6
0
VERTEX
8
OBJECT017
10
0
20
0
30
0
70
128
71
5
72
6
73
4
0
SEQEND
8
OBJECT017
0
POLYLINE
8
OBJECT018
66
1
70
64
71
6
72
8
62
50
0
VERTEX
8
OBJECT018
10
14.000000
20
-71.640625
30
80.000000
70
192
0
VERTEX
8
OBJECT018
10
18.000000
20
-71.640625
30
80.000000
70
192
0
VERTEX
8
OBJECT018
10
18.000000
20
-75.639137
30
80.000000
70
192
0
VERTEX
8
OBJECT018
10
18.000000
20
-75.639137
30
76.000000
70
192
0
VERTEX
8
OBJECT018
10
18.000000
20
-71.640625
30
76.000000
70
192
0
VERTEX
8
OBJECT018
10
14.000000
20
-71.639137
30
76.000000
70
192
0
VERTEX
8
OBJECT018
10
0
20
0
30
0
70
128
71
2
72
3
73
1
0
VERTEX
8
OBJECT018
10
0
20
0
30
0
70
128
71
3
72
2
73
-5
0
VERTEX
8
OBJECT018
10
0
20
0
30
0
70
128
71
-3
72
5
73
4
0
VERTEX
8
OBJECT018
10
0
20
0
30
0
70
128
71
2
72
1
73
-6
0
VERTEX
8
OBJECT018
10
0
20
0
30
0
70
128
71
-2
72
6
73
5
0
VERTEX
8
OBJECT018
10
0
20
0
30
0
70
128
71
1
72
3
73
-4
0
VERTEX
8
OBJECT018
10
0
20
0
30
0
70
128
71
-1
72
4
73
6
0
VERTEX
8
OBJECT018
10
0
20
0
30
0
70
128
71
5
72
6
73
4
0
SEQEND
8
OBJECT018
0
POLYLINE
8
OBJECT019
66
1
70
64
71
6
72
8
62
50
0
VERTEX
8
OBJECT019
10
12.000000
20
-78.640625
30
80.000000
70
192
0
VERTEX
8
OBJECT019
10
15.000000
20
-78.640625
30
80.000000
70
192
0
VERTEX
8
OBJECT019
10
15.000000
20
-82.639137
30
80.000000
70
192
0
VERTEX
8
OBJECT019
10
15.000000
20
-82.639137
30
76.000000
70
192
0
VERTEX
8
OBJECT019
10
15.000000
20
-78.640625
30
76.000000
70
192
0
VERTEX
8
OBJECT019
10
12.000000
20
-78.639137
30
76.000000
70
192
0
VERTEX
8
OBJECT019
10
0
20
0
30
0
70
128
71
2
72
3
73
1
0
VERTEX
8
OBJECT019
10
0
20
0
30
0
70
128
71
3
72
2
73
-5
0
VERTEX
8
OBJECT019
10
0
20
0
30
0
70
128
71
-3
72
5
73
4
0
VERTEX
8
OBJECT019
10
0
20
0
30
0
70
128
71
2
72
1
73
-6
0
VERTEX
8
OBJECT019
10
0
20
0
30
0
70
128
71
-2
72
6
73
5
0
VERTEX
8
OBJECT019
10
0
20
0
30
0
70
128
71
1
72
3
73
-4
0
VERTEX
8
OBJECT019
10
0
20
0
30
0
70
128
71
-1
72
4
73
6
0
VERTEX
8
OBJECT019
10
0
20
0
30
0
70
128
71
5
72
6
73
4
0
SEQEND
8
OBJECT019
0
POLYLINE
8
OBJECT020
66
1
70
64
71
6
72
8
62
50
0
VERTEX
8
OBJECT020
10
1.000000
20
-82.639137
30
80.000000
70
192
0
VERTEX
8
OBJECT020
10
1.000000
20
-78.640625
30
80.000000
70
192
0
VERTEX
8
OBJECT020
10
4.000000
20
-78.640625
30
80.000000
70
192
0
VERTEX
8
OBJECT020
10
1.000000
20
-78.640625
30
76.000000
70
192
0
VERTEX
8
OBJECT020
10
1.000000
20
-82.639137
30
76.000000
70
192
0
VERTEX
8
OBJECT020
10
4.000000
20
-78.639137
30
76.000000
70
192
0
VERTEX
8
OBJECT020
10
0
20
0
30
0
70
128
71
2
72
3
73
1
0
VERTEX
8
OBJECT020
10
0
20
0
30
0
70
128
71
2
72
1
73
-5
0
VERTEX
8
OBJECT020
10
0
20
0
30
0
70
128
71
-2
72
5
73
4
0
VERTEX
8
OBJECT020
10
0
20
0
30
0
70
128
71
3
72
2
73
-4
0
VERTEX
8
OBJECT020
10
0
20
0
30
0
70
128
71
-3
72
4
73
6
0
VERTEX
8
OBJECT020
10
0
20
0
30
0
70
128
71
1
72
3
73
-6
0
VERTEX
8
OBJECT020
10
0
20
0
30
0
70
128
71
-1
72
6
73
5
0
VERTEX
8
OBJECT020
10
0
20
0
30
0
70
128
71
4
72
5
73
6
0
SEQEND
8
OBJECT020
0
POLYLINE
8
OBJECT021
66
1
70
64
71
6
72
8
62
50
0
VERTEX
8
OBJECT021
10
-2.000000
20
-75.639137
30
80.000000
70
192
0
VERTEX
8
OBJECT021
10
-2.000000
20
-71.640625
30
80.000000
70
192
0
VERTEX
8
OBJECT021
10
2.000000
20
-71.640625
30
80.000000
70
192
0
VERTEX
8
OBJECT021
10
-2.000000
20
-71.640625
30
76.000000
70
192
0
VERTEX
8
OBJECT021
10
-2.000000
20
-75.639137
30
76.000000
70
192
0
VERTEX
8
OBJECT021
10
2.000000
20
-71.639137
30
76.000000
70
192
0
VERTEX
8
OBJECT021
10
0
20
0
30
0
70
128
71
2
72
3
73
1
0
VERTEX
8
OBJECT021
10
0
20
0
30
0
70
128
71
2
72
1
73
-5
0
VERTEX
8
OBJECT021
10
0
20
0
30
0
70
128
71
-2
72
5
73
4
0
VERTEX
8
OBJECT021
10
0
20
0
30
0
70
128
71
3
72
2
73
-4
0
VERTEX
8
OBJECT021
10
0
20
0
30
0
70
128
71
-3
72
4
73
6
0
VERTEX
8
OBJECT021
10
0
20
0
30
0
70
128
71
1
72
3
73
-6
0
VERTEX
8
OBJECT021
10
0
20
0
30
0
70
128
71
-1
72
6
73
5
0
VERTEX
8
OBJECT021
10
0
20
0
30
0
70
128
71
4
72
5
73
6
0
SEQEND
8
OBJECT021
0
POLYLINE
8
OBJECT022
66
1
70
64
71
6
72
8
62
50
0
VERTEX
8
OBJECT022
10
-5.000000
20
-68.639137
30
80.000000
70
192
0
VERTEX
8
OBJECT022
10
-5.000000
20
-63.640625
30
80.000000
70
192
0
VERTEX
8
OBJECT022
10
-1.000000
20
-63.640625
30
80.000000
70
192
0
VERTEX
8
OBJECT022
10
-5.000000
20
-63.640625
30
76.000000
70
192
0
VERTEX
8
OBJECT022
10
-5.000000
20
-68.639137
30
76.000000
70
192
0
VERTEX
8
OBJECT022
10
-1.000000
20
-63.639137
30
76.000000
70
192
0
VERTEX
8
OBJECT022
10
0
20
0
30
0
70
128
71
2
72
3
73
1
0
VERTEX
8
OBJECT022
10
0
20
0
30
0
70
128
71
2
72
1
73
-5
0
VERTEX
8
OBJECT022
10
0
20
0
30
0
70
128
71
-2
72
5
73
4
0
VERTEX
8
OBJECT022
10
0
20
0
30
0
70
128
71
3
72
2
73
-4
0
VERTEX
8
OBJECT022
10
0
20
0
30
0
70
128
71
-3
72
4
73
6
0
VERTEX
8
OBJECT022
10
0
20
0
30
0
70
128
71
1
72
3
73
-6
0
VERTEX
8
OBJECT022
10
0
20
0
30
0
70
128
71
-1
72
6
73
5
0
VERTEX
8
OBJECT022
10
0
20
0
30
0
70
128
71
4
72
5
73
6
0
SEQEND
8
OBJECT022
0
POLYLINE
8
OBJECT023
66
1
70
64
71
12
72
20
62
50
0
VERTEX
8
OBJECT023
10
-7.000000
20
-62.171692
30
80.237579
70
192
0
VERTEX
8
OBJECT023
10
2.960960
20
-46.852474
30
89.995590
70
192
0
VERTEX
8
OBJECT023
10
11.841156
20
-46.853039
30
89.995590
70
192
0
VERTEX
8
OBJECT023
10
23.000000
20
-64.016212
30
79.063606
70
192
0
VERTEX
8
OBJECT023
10
23.000000
20
-67.000000
30
77.162453
70
192
0
VERTEX
8
OBJECT023
10
-7.000000
20
-67.000000
30
77.161400
70
192
0
VERTEX
8
OBJECT023
10
3.000000
20
-45.361252
30
87.654182
70
192
0
VERTEX
8
OBJECT023
10
11.841110
20
-45.361656
30
87.653885
70
192
0
VERTEX
8
OBJECT023
10
-7.000000
20
-58.945343
30
74.869209
70
192
0
VERTEX
8
OBJECT023
10
23.000000
20
-60.446686
30
73.456467
70
192
0
VERTEX
8
OBJECT023
10
-7.000000
20
-63.069641
30
70.995590
70
192
0
VERTEX
8
OBJECT023
10
23.000000
20
-63.069351
30
70.995590
70
192
0
VERTEX
8
OBJECT023
10
0
20
0
30
0
70
128
71
2
72
3
73
-4
0
VERTEX
8
OBJECT023
10
0
20
0
30
0
70
128
71
-2
72
4
73
-5
0
VERTEX
8
OBJECT023
10
0
20
0
30
0
70
128
71
-2
72
5
73
-6
0
VERTEX
8
OBJECT023
10
0
20
0
30
0
70
128
71
-2
72
6
73
1
0
VERTEX
8
OBJECT023
10
0
20
0
30
0
70
128
71
2
72
7
73
-8
0
VERTEX
8
OBJECT023
10
0
20
0
30
0
70
128
71
-2
72
8
73
3
0
VERTEX
8
OBJECT023
10
0
20
0
30
0
70
128
71
2
72
1
73
-9
0
VERTEX
8
OBJECT023
10
0
20
0
30
0
70
128
71
-2
72
9
73
7
0
VERTEX
8
OBJECT023
10
0
20
0
30
0
70
128
71
3
72
8
73
-10
0
VERTEX
8
OBJECT023
10
0
20
0
30
0
70
128
71
-3
72
10
73
4
0
VERTEX
8
OBJECT023
10
0
20
0
30
0
70
128
71
6
72
5
73
-12
0
VERTEX
8
OBJECT023
10
0
20
0
30
0
70
128
71
-6
72
12
73
11
0
VERTEX
8
OBJECT023
10
0
20
0
30
0
70
128
71
1
72
6
73
-11
0
VERTEX
8
OBJECT023
10
0
20
0
30
0
70
128
71
-1
72
11
73
9
0
VERTEX
8
OBJECT023
10
0
20
0
30
0
70
128
71
4
72
10
73
-12
0
VERTEX
8
OBJECT023
10
0
20
0
30
0
70
128
71
-4
72
12
73
5
0
VERTEX
8
OBJECT023
10
0
20
0
30
0
70
128
71
7
72
9
73
-11
0
VERTEX
8
OBJECT023
10
0
20
0
30
0
70
128
71
-7
72
11
73
-12
0
VERTEX
8
OBJECT023
10
0
20
0
30
0
70
128
71
-7
72
12
73
-10
0
VERTEX
8
OBJECT023
10
0
20
0
30
0
70
128
71
-7
72
10
73
8
0
SEQEND
8
OBJECT023
0
POLYLINE
8
OBJECT024
66
1
70
64
71
6
72
8
62
50
0
VERTEX
8
OBJECT024
10
6.846281
20
-51.193218
30
87.851395
70
192
0
VERTEX
8
OBJECT024
10
3.000000
20
-51.193218
30
87.851395
70
192
0
VERTEX
8
OBJECT024
10
4.922789
20
-47.818928
30
90.000000
70
192
0
VERTEX
8
OBJECT024
10
3.000000
20
-50.424316
30
86.645782
70
192
0
VERTEX
8
OBJECT024
10
6.845938
20
-50.424316
30
86.645782
70
192
0
VERTEX
8
OBJECT024
10
4.922488
20
-47.125481
30
88.913734
70
192
0
VERTEX
8
OBJECT024
10
0
20
0
30
0
70
128
71
2
72
3
73
1
0
VERTEX
8
OBJECT024
10
0
20
0
30
0
70
128
71
2
72
1
73
-5
0
VERTEX
8
OBJECT024
10
0
20
0
30
0
70
128
71
-2
72
5
73
4
0
VERTEX
8
OBJECT024
10
0
20
0
30
0
70
128
71
3
72
2
73
-4
0
VERTEX
8
OBJECT024
10
0
20
0
30
0
70
128
71
-3
72
4
73
6
0
VERTEX
8
OBJECT024
10
0
20
0
30
0
70
128
71
1
72
3
73
-6
0
VERTEX
8
OBJECT024
10
0
20
0
30
0
70
128
71
-1
72
6
73
5
0
VERTEX
8
OBJECT024
10
0
20
0
30
0
70
128
71
4
72
5
73
6
0
SEQEND
8
OBJECT024
0
POLYLINE
8
OBJECT025
66
1
70
64
71
6
72
8
62
50
0
VERTEX
8
OBJECT025
10
13.000000
20
-51.193218
30
87.851395
70
192
0
VERTEX
8
OBJECT025
10
9.153928
20
-51.193218
30
87.851395
70
192
0
VERTEX
8
OBJECT025
10
11.077027
20
-47.819614
30
90.000000
70
192
0
VERTEX
8
OBJECT025
10
9.153928
20
-50.424320
30
86.645782
70
192
0
VERTEX
8
OBJECT025
10
13.000000
20
-50.424320
30
86.645782
70
192
0
VERTEX
8
OBJECT025
10
11.077297
20
-47.127132
30
88.912598
70
192
0
VERTEX
8
OBJECT025
10
0
20
0
30
0
70
128
71
2
72
3
73
1
0
VERTEX
8
OBJECT025
10
0
20
0
30
0
70
128
71
2
72
1
73
-5
0
VERTEX
8
OBJECT025
10
0
20
0
30
0
70
128
71
-2
72
5
73
4
0
VERTEX
8
OBJECT025
10
0
20
0
30
0
70
128
71
3
72
2
73
-4
0
VERTEX
8
OBJECT025
10
0
20
0
30
0
70
128
71
-3
72
4
73
6
0
VERTEX
8
OBJECT025
10
0
20
0
30
0
70
128
71
1
72
3
73
-6
0
VERTEX
8
OBJECT025
10
0
20
0
30
0
70
128
71
-1
72
6
73
5
0
VERTEX
8
OBJECT025
10
0
20
0
30
0
70
128
71
4
72
5
73
6
0
SEQEND
8
OBJECT025
0
POLYLINE
8
OBJECT026
66
1
70
64
71
6
72
8
62
50
0
VERTEX
8
OBJECT026
10
10.950917
20
-52.036610
30
87.314095
70
192
0
VERTEX
8
OBJECT026
10
15.000000
20
-52.036610
30
87.314095
70
192
0
VERTEX
8
OBJECT026
10
12.976147
20
-55.411293
30
85.164185
70
192
0
VERTEX
8
OBJECT026
10
15.000000
20
-51.249893
30
86.078201
70
192
0
VERTEX
8
OBJECT026
10
10.951189
20
-51.249893
30
86.078201
70
192
0
VERTEX
8
OBJECT026
10
12.975813
20
-54.548195
30
83.810616
70
192
0
VERTEX
8
OBJECT026
10
0
20
0
30
0
70
128
71
2
72
3
73
1
0
VERTEX
8
OBJECT026
10
0
20
0
30
0
70
128
71
2
72
1
73
-5
0
VERTEX
8
OBJECT026
10
0
20
0
30
0
70
128
71
-2
72
5
73
4
0
VERTEX
8
OBJECT026
10
0
20
0
30
0
70
128
71
3
72
2
73
-4
0
VERTEX
8
OBJECT026
10
0
20
0
30
0
70
128
71
-3
72
4
73
6
0
VERTEX
8
OBJECT026
10
0
20
0
30
0
70
128
71
1
72
3
73
-6
0
VERTEX
8
OBJECT026
10
0
20
0
30
0
70
128
71
-1
72
6
73
5
0
VERTEX
8
OBJECT026
10
0
20
0
30
0
70
128
71
5
72
6
73
4
0
SEQEND
8
OBJECT026
0
POLYLINE
8
OBJECT027
66
1
70
64
71
6
72
8
62
50
0
VERTEX
8
OBJECT027
10
-0.048314
20
-52.036610
30
87.314095
70
192
0
VERTEX
8
OBJECT027
10
4.000000
20
-52.036610
30
87.314095
70
192
0
VERTEX
8
OBJECT027
10
1.976642
20
-55.411480
30
85.164063
70
192
0
VERTEX
8
OBJECT027
10
4.000000
20
-51.249897
30
86.078194
70
192
0
VERTEX
8
OBJECT027
10
-0.048039
20
-51.249897
30
86.078194
70
192
0
VERTEX
8
OBJECT027
10
1.976137
20
-54.548096
30
83.810684
70
192
0
VERTEX
8
OBJECT027
10
0
20
0
30
0
70
128
71
2
72
3
73
1
0
VERTEX
8
OBJECT027
10
0
20
0
30
0
70
128
71
2
72
1
73
-5
0
VERTEX
8
OBJECT027
10
0
20
0
30
0
70
128
71
-2
72
5
73
4
0
VERTEX
8
OBJECT027
10
0
20
0
30
0
70
128
71
3
72
2
73
-4
0
VERTEX
8
OBJECT027
10
0
20
0
30
0
70
128
71
-3
72
4
73
6
0
VERTEX
8
OBJECT027
10
0
20
0
30
0
70
128
71
1
72
3
73
-6
0
VERTEX
8
OBJECT027
10
0
20
0
30
0
70
128
71
-1
72
6
73
5
0
VERTEX
8
OBJECT027
10
0
20
0
30
0
70
128
71
5
72
6
73
4
0
SEQEND
8
OBJECT027
0
POLYLINE
8
OBJECT028
66
1
70
64
71
6
72
8
62
50
0
VERTEX
8
OBJECT028
10
1.000000
20
-57.096958
30
84.090294
70
192
0
VERTEX
8
OBJECT028
10
-2.845432
20
-57.096958
30
84.090294
70
192
0
VERTEX
8
OBJECT028
10
-0.922653
20
-53.723911
30
86.239159
70
192
0
VERTEX
8
OBJECT028
10
-2.845432
20
-56.196819
30
82.677185
70
192
0
VERTEX
8
OBJECT028
10
1.000000
20
-56.196819
30
82.677185
70
192
0
VERTEX
8
OBJECT028
10
-0.923221
20
-52.898083
30
84.945068
70
192
0
VERTEX
8
OBJECT028
10
0
20
0
30
0
70
128
71
2
72
3
73
1
0
VERTEX
8
OBJECT028
10
0
20
0
30
0
70
128
71
2
72
1
73
-5
0
VERTEX
8
OBJECT028
10
0
20
0
30
0
70
128
71
-2
72
5
73
4
0
VERTEX
8
OBJECT028
10
0
20
0
30
0
70
128
71
3
72
2
73
-4
0
VERTEX
8
OBJECT028
10
0
20
0
30
0
70
128
71
-3
72
4
73
6
0
VERTEX
8
OBJECT028
10
0
20
0
30
0
70
128
71
1
72
3
73
-6
0
VERTEX
8
OBJECT028
10
0
20
0
30
0
70
128
71
-1
72
6
73
5
0
VERTEX
8
OBJECT028
10
0
20
0
30
0
70
128
71
4
72
5
73
6
0
SEQEND
8
OBJECT028
0
POLYLINE
8
OBJECT029
66
1
70
64
71
6
72
8
62
50
0
VERTEX
8
OBJECT029
10
6.538588
20
-57.096958
30
84.090294
70
192
0
VERTEX
8
OBJECT029
10
2.691566
20
-57.096958
30
84.090294
70
192
0
VERTEX
8
OBJECT029
10
4.615077
20
-53.722626
30
86.239983
70
192
0
VERTEX
8
OBJECT029
10
2.691566
20
-56.196819
30
82.677185
70
192
0
VERTEX
8
OBJECT029
10
6.538632
20
-56.196819
30
82.677185
70
192
0
VERTEX
8
OBJECT029
10
4.615457
20
-52.898453
30
84.944817
70
192
0
VERTEX
8
OBJECT029
10
0
20
0
30
0
70
128
71
2
72
3
73
1
0
VERTEX
8
OBJECT029
10
0
20
0
30
0
70
128
71
2
72
1
73
-5
0
VERTEX
8
OBJECT029
10
0
20
0
30
0
70
128
71
-2
72
5
73
4
0
VERTEX
8
OBJECT029
10
0
20
0
30
0
70
128
71
3
72
2
73
-4
0
VERTEX
8
OBJECT029
10
0
20
0
30
0
70
128
71
-3
72
4
73
6
0
VERTEX
8
OBJECT029
10
0
20
0
30
0
70
128
71
1
72
3
73
-6
0
VERTEX
8
OBJECT029
10
0
20
0
30
0
70
128
71
-1
72
6
73
5
0
VERTEX
8
OBJECT029
10
0
20
0
30
0
70
128
71
4
72
5
73
6
0
SEQEND
8
OBJECT029
0
POLYLINE
8
OBJECT030
66
1
70
64
71
6
72
8
62
50
0
VERTEX
8
OBJECT030
10
12.307817
20
-57.096958
30
84.090294
70
192
0
VERTEX
8
OBJECT030
10
8.460446
20
-57.096958
30
84.090294
70
192
0
VERTEX
8
OBJECT030
10
10.384132
20
-53.722321
30
86.240173
70
192
0
VERTEX
8
OBJECT030
10
8.460446
20
-56.196819
30
82.677185
70
192
0
VERTEX
8
OBJECT030
10
12.307861
20
-56.196819
30
82.677185
70
192
0
VERTEX
8
OBJECT030
10
10.384984
20
-52.898964
30
84.944466
70
192
0
VERTEX
8
OBJECT030
10
0
20
0
30
0
70
128
71
2
72
3
73
1
0
VERTEX
8
OBJECT030
10
0
20
0
30
0
70
128
71
2
72
1
73
-5
0
VERTEX
8
OBJECT030
10
0
20
0
30
0
70
128
71
-2
72
5
73
4
0
VERTEX
8
OBJECT030
10
0
20
0
30
0
70
128
71
3
72
2
73
-4
0
VERTEX
8
OBJECT030
10
0
20
0
30
0
70
128
71
-3
72
4
73
6
0
VERTEX
8
OBJECT030
10
0
20
0
30
0
70
128
71
1
72
3
73
-6
0
VERTEX
8
OBJECT030
10
0
20
0
30
0
70
128
71
-1
72
6
73
5
0
VERTEX
8
OBJECT030
10
0
20
0
30
0
70
128
71
4
72
5
73
6
0
SEQEND
8
OBJECT030
0
POLYLINE
8
OBJECT031
66
1
70
64
71
6
72
8
62
50
0
VERTEX
8
OBJECT031
10
18.000000
20
-57.096958
30
84.090294
70
192
0
VERTEX
8
OBJECT031
10
14.153479
20
-57.096958
30
84.090294
70
192
0
VERTEX
8
OBJECT031
10
16.076803
20
-53.722954
30
86.239769
70
192
0
VERTEX
8
OBJECT031
10
14.153479
20
-56.196819
30
82.677185
70
192
0
VERTEX
8
OBJECT031
10
18.000000
20
-56.196819
30
82.677185
70
192
0
VERTEX
8
OBJECT031
10
16.078030
20
-52.900227
30
84.943596
70
192
0
VERTEX
8
OBJECT031
10
0
20
0
30
0
70
128
71
2
72
3
73
1
0
VERTEX
8
OBJECT031
10
0
20
0
30
0
70
128
71
2
72
1
73
-5
0
VERTEX
8
OBJECT031
10
0
20
0
30
0
70
128
71
-2
72
5
73
4
0
VERTEX
8
OBJECT031
10
0
20
0
30
0
70
128
71
3
72
2
73
-4
0
VERTEX
8
OBJECT031
10
0
20
0
30
0
70
128
71
-3
72
4
73
6
0
VERTEX
8
OBJECT031
10
0
20
0
30
0
70
128
71
1
72
3
73
-6
0
VERTEX
8
OBJECT031
10
0
20
0
30
0
70
128
71
-1
72
6
73
5
0
VERTEX
8
OBJECT031
10
0
20
0
30
0
70
128
71
4
72
5
73
6
0
SEQEND
8
OBJECT031
0
POLYLINE
8
OBJECT032
66
1
70
64
71
6
72
8
62
50
0
VERTEX
8
OBJECT032
10
-3.076789
20
-57.940346
30
83.552994
70
192
0
VERTEX
8
OBJECT032
10
0.969687
20
-57.940346
30
83.552994
70
192
0
VERTEX
8
OBJECT032
10
-1.053558
20
-61.312771
30
81.404518
70
192
0
VERTEX
8
OBJECT032
10
0.969687
20
-57.020664
30
82.110794
70
192
0
VERTEX
8
OBJECT032
10
-3.077173
20
-57.020664
30
82.110794
70
192
0
VERTEX
8
OBJECT032
10
-1.053639
20
-60.318237
30
79.843712
70
192
0
VERTEX
8
OBJECT032
10
0
20
0
30
0
70
128
71
2
72
3
73
1
0
VERTEX
8
OBJECT032
10
0
20
0
30
0
70
128
71
2
72
1
73
-5
0
VERTEX
8
OBJECT032
10
0
20
0
30
0
70
128
71
-2
72
5
73
4
0
VERTEX
8
OBJECT032
10
0
20
0
30
0
70
128
71
3
72
2
73
-4
0
VERTEX
8
OBJECT032
10
0
20
0
30
0
70
128
71
-3
72
4
73
6
0
VERTEX
8
OBJECT032
10
0
20
0
30
0
70
128
71
1
72
3
73
-6
0
VERTEX
8
OBJECT032
10
0
20
0
30
0
70
128
71
-1
72
6
73
5
0
VERTEX
8
OBJECT032
10
0
20
0
30
0
70
128
71
5
72
6
73
4
0
SEQEND
8
OBJECT032
0
POLYLINE
8
OBJECT033
66
1
70
64
71
6
72
8
62
50
0
VERTEX
8
OBJECT033
10
2.692443
20
-57.940346
30
83.552994
70
192
0
VERTEX
8
OBJECT033
10
6.742031
20
-57.940346
30
83.552994
70
192
0
VERTEX
8
OBJECT033
10
4.717246
20
-61.314877
30
81.403175
70
192
0
VERTEX
8
OBJECT033
10
6.739841
20
-57.022385
30
82.109612
70
192
0
VERTEX
8
OBJECT033
10
2.693114
20
-57.022385
30
82.109612
70
192
0
VERTEX
8
OBJECT033
10
4.716269
20
-60.318836
30
79.843300
70
192
0
VERTEX
8
OBJECT033
10
0
20
0
30
0
70
128
71
2
72
3
73
1
0
VERTEX
8
OBJECT033
10
0
20
0
30
0
70
128
71
2
72
1
73
-5
0
VERTEX
8
OBJECT033
10
0
20
0
30
0
70
128
71
-2
72
5
73
4
0
VERTEX
8
OBJECT033
10
0
20
0
30
0
70
128
71
3
72
2
73
-4
0
VERTEX
8
OBJECT033
10
0
20
0
30
0
70
128
71
-3
72
4
73
6
0
VERTEX
8
OBJECT033
10
0
20
0
30
0
70
128
71
1
72
3
73
-6
0
VERTEX
8
OBJECT033
10
0
20
0
30
0
70
128
71
-1
72
6
73
5
0
VERTEX
8
OBJECT033
10
0
20
0
30
0
70
128
71
5
72
6
73
4
0
SEQEND
8
OBJECT033
0
POLYLINE
8
OBJECT034
66
1
70
64
71
6
72
8
62
50
0
VERTEX
8
OBJECT034
10
8.461674
20
-57.940346
30
83.552994
70
192
0
VERTEX
8
OBJECT034
10
12.506945
20
-57.940346
30
83.552994
70
192
0
VERTEX
8
OBJECT034
10
10.484803
20
-61.311577
30
81.405281
70
192
0
VERTEX
8
OBJECT034
10
12.506945
20
-57.022385
30
82.109612
70
192
0
VERTEX
8
OBJECT034
10
8.462345
20
-57.022385
30
82.109612
70
192
0
VERTEX
8
OBJECT034
10
10.486054
20
-60.319244
30
79.843025
70
192
0
VERTEX
8
OBJECT034
10
0
20
0
30
0
70
128
71
2
72
3
73
1
0
VERTEX
8
OBJECT034
10
0
20
0
30
0
70
128
71
2
72
1
73
-5
0
VERTEX
8
OBJECT034
10
0
20
0
30
0
70
128
71
-2
72
5
73
4
0
VERTEX
8
OBJECT034
10
0
20
0
30
0
70
128
71
3
72
2
73
-4
0
VERTEX
8
OBJECT034
10
0
20
0
30
0
70
128
71
-3
72
4
73
6
0
VERTEX
8
OBJECT034
10
0
20
0
30
0
70
128
71
1
72
3
73
-6
0
VERTEX
8
OBJECT034
10
0
20
0
30
0
70
128
71
-1
72
6
73
5
0
VERTEX
8
OBJECT034
10
0
20
0
30
0
70
128
71
5
72
6
73
4
0
SEQEND
8
OBJECT034
0
POLYLINE
8
OBJECT035
66
1
70
64
71
6
72
8
62
50
0
VERTEX
8
OBJECT035
10
14.230904
20
-57.940346
30
83.552994
70
192
0
VERTEX
8
OBJECT035
10
18.281206
20
-57.940346
30
83.552994
70
192
0
VERTEX
8
OBJECT035
10
16.255600
20
-61.315243
30
81.402946
70
192
0
VERTEX
8
OBJECT035
10
18.281206
20
-57.020664
30
82.110794
70
192
0
VERTEX
8
OBJECT035
10
14.230519
20
-57.020664
30
82.110794
70
192
0
VERTEX
8
OBJECT035
10
16.254658
20
-60.319252
30
79.843018
70
192
0
VERTEX
8
OBJECT035
10
0
20
0
30
0
70
128
71
2
72
3
73
1
0
VERTEX
8
OBJECT035
10
0
20
0
30
0
70
128
71
2
72
1
73
-5
0
VERTEX
8
OBJECT035
10
0
20
0
30
0
70
128
71
-2
72
5
73
4
0
VERTEX
8
OBJECT035
10
0
20
0
30
0
70
128
71
3
72
2
73
-4
0
VERTEX
8
OBJECT035
10
0
20
0
30
0
70
128
71
-3
72
4
73
6
0
VERTEX
8
OBJECT035
10
0
20
0
30
0
70
128
71
1
72
3
73
-6
0
VERTEX
8
OBJECT035
10
0
20
0
30
0
70
128
71
-1
72
6
73
5
0
VERTEX
8
OBJECT035
10
0
20
0
30
0
70
128
71
5
72
6
73
4
0
SEQEND
8
OBJECT035
0
POLYLINE
8
OBJECT036
66
1
70
64
71
6
72
8
62
50
0
VERTEX
8
OBJECT036
10
-2.000000
20
-63.000000
30
80.330231
70
192
0
VERTEX
8
OBJECT036
10
-5.844733
20
-63.000000
30
80.330231
70
192
0
VERTEX
8
OBJECT036
10
-3.922771
20
-59.627441
30
82.478188
70
192
0
VERTEX
8
OBJECT036
10
-5.846900
20
-61.969311
30
78.708603
70
192
0
VERTEX
8
OBJECT036
10
-2.000000
20
-61.969311
30
78.708603
70
192
0
VERTEX
8
OBJECT036
10
-3.922920
20
-58.670437
30
80.976578
70
192
0
VERTEX
8
OBJECT036
10
0
20
0
30
0
70
128
71
2
72
3
73
1
0
VERTEX
8
OBJECT036
10
0
20
0
30
0
70
128
71
2
72
1
73
-5
0
VERTEX
8
OBJECT036
10
0
20
0
30
0
70
128
71
-2
72
5
73
4
0
VERTEX
8
OBJECT036
10
0
20
0
30
0
70
128
71
3
72
2
73
-4
0
VERTEX
8
OBJECT036
10
0
20
0
30
0
70
128
71
-3
72
4
73
6
0
VERTEX
8
OBJECT036
10
0
20
0
30
0
70
128
71
1
72
3
73
-6
0
VERTEX
8
OBJECT036
10
0
20
0
30
0
70
128
71
-1
72
6
73
5
0
VERTEX
8
OBJECT036
10
0
20
0
30
0
70
128
71
4
72
5
73
6
0
SEQEND
8
OBJECT036
0
POLYLINE
8
OBJECT037
66
1
70
64
71
6
72
8
62
50
0
VERTEX
8
OBJECT037
10
3.653038
20
-63.000000
30
80.330231
70
192
0
VERTEX
8
OBJECT037
10
-0.192874
20
-63.000000
30
80.330231
70
192
0
VERTEX
8
OBJECT037
10
1.730082
20
-59.625698
30
82.479294
70
192
0
VERTEX
8
OBJECT037
10
-0.192874
20
-61.969311
30
78.708603
70
192
0
VERTEX
8
OBJECT037
10
3.654400
20
-61.969311
30
78.708603
70
192
0
VERTEX
8
OBJECT037
10
1.730651
20
-58.669971
30
80.976898
70
192
0
VERTEX
8
OBJECT037
10
0
20
0
30
0
70
128
71
2
72
3
73
1
0
VERTEX
8
OBJECT037
10
0
20
0
30
0
70
128
71
2
72
1
73
-5
0
VERTEX
8
OBJECT037
10
0
20
0
30
0
70
128
71
-2
72
5
73
4
0
VERTEX
8
OBJECT037
10
0
20
0
30
0
70
128
71
3
72
2
73
-4
0
VERTEX
8
OBJECT037
10
0
20
0
30
0
70
128
71
-3
72
4
73
6
0
VERTEX
8
OBJECT037
10
0
20
0
30
0
70
128
71
1
72
3
73
-6
0
VERTEX
8
OBJECT037
10
0
20
0
30
0
70
128
71
-1
72
6
73
5
0
VERTEX
8
OBJECT037
10
0
20
0
30
0
70
128
71
4
72
5
73
6
0
SEQEND
8
OBJECT037
0
POLYLINE
8
OBJECT038
66
1
70
64
71
6
72
8
62
50
0
VERTEX
8
OBJECT038
10
9.422269
20
-63.000000
30
80.330231
70
192
0
VERTEX
8
OBJECT038
10
5.578176
20
-63.000000
30
80.330231
70
192
0
VERTEX
8
OBJECT038
10
7.500223
20
-59.627293
30
82.478279
70
192
0
VERTEX
8
OBJECT038
10
5.576010
20
-61.969311
30
78.708603
70
192
0
VERTEX
8
OBJECT038
10
9.423632
20
-61.969311
30
78.708603
70
192
0
VERTEX
8
OBJECT038
10
7.499197
20
-58.668793
30
80.977707
70
192
0
VERTEX
8
OBJECT038
10
0
20
0
30
0
70
128
71
2
72
3
73
1
0
VERTEX
8
OBJECT038
10
0
20
0
30
0
70
128
71
2
72
1
73
-5
0
VERTEX
8
OBJECT038
10
0
20
0
30
0
70
128
71
-2
72
5
73
4
0
VERTEX
8
OBJECT038
10
0
20
0
30
0
70
128
71
3
72
2
73
-4
0
VERTEX
8
OBJECT038
10
0
20
0
30
0
70
128
71
-3
72
4
73
6
0
VERTEX
8
OBJECT038
10
0
20
0
30
0
70
128
71
1
72
3
73
-6
0
VERTEX
8
OBJECT038
10
0
20
0
30
0
70
128
71
-1
72
6
73
5
0
VERTEX
8
OBJECT038
10
0
20
0
30
0
70
128
71
4
72
5
73
6
0
SEQEND
8
OBJECT038
0
POLYLINE
8
OBJECT039
66
1
70
64
71
6
72
8
62
50
0
VERTEX
8
OBJECT039
10
15.191499
20
-63.000000
30
80.330231
70
192
0
VERTEX
8
OBJECT039
10
11.347059
20
-63.000000
30
80.330231
70
192
0
VERTEX
8
OBJECT039
10
13.269279
20
-59.626987
30
82.478470
70
192
0
VERTEX
8
OBJECT039
10
11.344893
20
-61.969311
30
78.708603
70
192
0
VERTEX
8
OBJECT039
10
15.192862
20
-61.969311
30
78.708603
70
192
0
VERTEX
8
OBJECT039
10
13.269310
20
-58.670307
30
80.976662
70
192
0
VERTEX
8
OBJECT039
10
0
20
0
30
0
70
128
71
2
72
3
73
1
0
VERTEX
8
OBJECT039
10
0
20
0
30
0
70
128
71
2
72
1
73
-5
0
VERTEX
8
OBJECT039
10
0
20
0
30
0
70
128
71
-2
72
5
73
4
0
VERTEX
8
OBJECT039
10
0
20
0
30
0
70
128
71
3
72
2
73
-4
0
VERTEX
8
OBJECT039
10
0
20
0
30
0
70
128
71
-3
72
4
73
6
0
VERTEX
8
OBJECT039
10
0
20
0
30
0
70
128
71
1
72
3
73
-6
0
VERTEX
8
OBJECT039
10
0
20
0
30
0
70
128
71
-1
72
6
73
5
0
VERTEX
8
OBJECT039
10
0
20
0
30
0
70
128
71
4
72
5
73
6
0
SEQEND
8
OBJECT039
0
POLYLINE
8
OBJECT040
66
1
70
64
71
6
72
8
62
50
0
VERTEX
8
OBJECT040
10
20.845345
20
-63.000000
30
80.330231
70
192
0
VERTEX
8
OBJECT040
10
17.000000
20
-63.000000
30
80.330231
70
192
0
VERTEX
8
OBJECT040
10
18.923216
20
-59.627144
30
82.478371
70
192
0
VERTEX
8
OBJECT040
10
17.000000
20
-61.969311
30
78.708603
70
192
0
VERTEX
8
OBJECT040
10
20.846708
20
-61.969311
30
78.708603
70
192
0
VERTEX
8
OBJECT040
10
18.923260
20
-58.670483
30
80.976547
70
192
0
VERTEX
8
OBJECT040
10
0
20
0
30
0
70
128
71
2
72
3
73
1
0
VERTEX
8
OBJECT040
10
0
20
0
30
0
70
128
71
2
72
1
73
-5
0
VERTEX
8
OBJECT040
10
0
20
0
30
0
70
128
71
-2
72
5
73
4
0
VERTEX
8
OBJECT040
10
0
20
0
30
0
70
128
71
3
72
2
73
-4
0
VERTEX
8
OBJECT040
10
0
20
0
30
0
70
128
71
-3
72
4
73
6
0
VERTEX
8
OBJECT040
10
0
20
0
30
0
70
128
71
1
72
3
73
-6
0
VERTEX
8
OBJECT040
10
0
20
0
30
0
70
128
71
-1
72
6
73
5
0
VERTEX
8
OBJECT040
10
0
20
0
30
0
70
128
71
4
72
5
73
6
0
SEQEND
8
OBJECT040
0
ENDSEC
0
EOF
