0
SECTION
2
HEADER
9
$ACADVER
1
AC1008
9
$UCSORG
10
0.0
20
0.0
30
0.0
9
$UCSXDIR
10
1.0
20
0.0
30
0.0
9
$TILEMODE
70
1
9
$UCSYDIR
10
0.0
20
1.0
30
0.0
9
$EXTMIN
10
-1.000000
20
-336.000000
30
-136.000000
9
$EXTMAX
10
513.000000
20
796.000000
30
256.000000
0
ENDSEC
0
SECTION
2
TABLES
0
TABLE
2
LTYPE
70
1
0
LTYPE
2
CONTINUOUS
70
64
3
Solid line
72
65
73
0
40
0.0
0
ENDTAB
0
TABLE
2
LAYER
70
1
0
LAYER
2
0
70
0
62
7
6
CONTINUOUS
0
ENDTAB
0
TABLE
2
STYLE
70
1
0
STYLE
2
STANDARD
70
0
40
0.0
41
1.0
50
0.0
71
0
42
0.2
3
txt
4

0
ENDTAB
0
TABLE
2
UCS
70
0
0
ENDTAB
0
ENDSEC
0
SECTION
2
ENTITIES
0
POLYLINE
8
OBJECT000
66
1
70
64
71
12
72
20
62
50
0
VERTEX
8
OBJECT000
10
-1.000000
20
338.000000
30
-65.000000
70
192
0
VERTEX
8
OBJECT000
10
-1.000000
20
337.221985
30
-65.000000
70
192
0
VERTEX
8
OBJECT000
10
513.000000
20
337.221985
30
-65.000000
70
192
0
VERTEX
8
OBJECT000
10
513.000000
20
338.000000
30
-65.000000
70
192
0
VERTEX
8
OBJECT000
10
-1.000000
20
338.000000
30
195.723190
70
192
0
VERTEX
8
OBJECT000
10
-1.000000
20
323.000000
30
185.526337
70
192
0
VERTEX
8
OBJECT000
10
-1.000000
20
256.000000
30
109.943512
70
192
0
VERTEX
8
OBJECT000
10
-1.000000
20
256.000000
30
25.122467
70
192
0
VERTEX
8
OBJECT000
10
513.000000
20
256.000000
30
25.122467
70
192
0
VERTEX
8
OBJECT000
10
513.000000
20
256.000000
30
109.943512
70
192
0
VERTEX
8
OBJECT000
10
513.000000
20
323.000000
30
185.526337
70
192
0
VERTEX
8
OBJECT000
10
513.000000
20
338.000000
30
195.723190
70
192
0
VERTEX
8
OBJECT000
10
0
20
0
30
0
70
128
71
2
72
3
73
-4
0
VERTEX
8
OBJECT000
10
0
20
0
30
0
70
128
71
-2
72
4
73
1
0
VERTEX
8
OBJECT000
10
0
20
0
30
0
70
128
71
6
72
7
73
-8
0
VERTEX
8
OBJECT000
10
0
20
0
30
0
70
128
71
-6
72
8
73
-2
0
VERTEX
8
OBJECT000
10
0
20
0
30
0
70
128
71
-6
72
2
73
-1
0
VERTEX
8
OBJECT000
10
0
20
0
30
0
70
128
71
-6
72
1
73
5
0
VERTEX
8
OBJECT000
10
0
20
0
30
0
70
128
71
3
72
9
73
-10
0
VERTEX
8
OBJECT000
10
0
20
0
30
0
70
128
71
-3
72
10
73
-11
0
VERTEX
8
OBJECT000
10
0
20
0
30
0
70
128
71
-3
72
11
73
-12
0
VERTEX
8
OBJECT000
10
0
20
0
30
0
70
128
71
-3
72
12
73
4
0
VERTEX
8
OBJECT000
10
0
20
0
30
0
70
128
71
9
72
8
73
-7
0
VERTEX
8
OBJECT000
10
0
20
0
30
0
70
128
71
-9
72
7
73
10
0
VERTEX
8
OBJECT000
10
0
20
0
30
0
70
128
71
11
72
6
73
-5
0
VERTEX
8
OBJECT000
10
0
20
0
30
0
70
128
71
-11
72
5
73
12
0
VERTEX
8
OBJECT000
10
0
20
0
30
0
70
128
71
10
72
7
73
-6
0
VERTEX
8
OBJECT000
10
0
20
0
30
0
70
128
71
-10
72
6
73
11
0
VERTEX
8
OBJECT000
10
0
20
0
30
0
70
128
71
3
72
2
73
-8
0
VERTEX
8
OBJECT000
10
0
20
0
30
0
70
128
71
-3
72
8
73
9
0
VERTEX
8
OBJECT000
10
0
20
0
30
0
70
128
71
1
72
4
73
-12
0
VERTEX
8
OBJECT000
10
0
20
0
30
0
70
128
71
-1
72
12
73
5
0
SEQEND
8
OBJECT000
0
POLYLINE
8
OBJECT001
66
1
70
64
71
12
72
20
62
50
0
VERTEX
8
OBJECT001
10
-1.000000
20
714.776978
30
-65.000000
70
192
0
VERTEX
8
OBJECT001
10
-1.000000
20
714.000000
30
-65.000000
70
192
0
VERTEX
8
OBJECT001
10
513.000000
20
714.000000
30
-65.000000
70
192
0
VERTEX
8
OBJECT001
10
513.000000
20
714.776978
30
-65.000000
70
192
0
VERTEX
8
OBJECT001
10
-1.000000
20
796.000000
30
25.122467
70
192
0
VERTEX
8
OBJECT001
10
-1.000000
20
796.000000
30
109.943550
70
192
0
VERTEX
8
OBJECT001
10
-1.000000
20
729.036377
30
185.463806
70
192
0
VERTEX
8
OBJECT001
10
-1.000000
20
714.000000
30
194.764664
70
192
0
VERTEX
8
OBJECT001
10
513.000000
20
729.036377
30
185.463806
70
192
0
VERTEX
8
OBJECT001
10
513.000000
20
796.000000
30
109.943550
70
192
0
VERTEX
8
OBJECT001
10
513.000000
20
796.000000
30
25.122467
70
192
0
VERTEX
8
OBJECT001
10
513.000000
20
714.000000
30
194.764664
70
192
0
VERTEX
8
OBJECT001
10
0
20
0
30
0
70
128
71
2
72
3
73
-4
0
VERTEX
8
OBJECT001
10
0
20
0
30
0
70
128
71
-2
72
4
73
1
0
VERTEX
8
OBJECT001
10
0
20
0
30
0
70
128
71
1
72
5
73
-6
0
VERTEX
8
OBJECT001
10
0
20
0
30
0
70
128
71
-1
72
6
73
-7
0
VERTEX
8
OBJECT001
10
0
20
0
30
0
70
128
71
-1
72
7
73
-8
0
VERTEX
8
OBJECT001
10
0
20
0
30
0
70
128
71
-1
72
8
73
2
0
VERTEX
8
OBJECT001
10
0
20
0
30
0
70
128
71
10
72
11
73
-4
0
VERTEX
8
OBJECT001
10
0
20
0
30
0
70
128
71
-10
72
4
73
-3
0
VERTEX
8
OBJECT001
10
0
20
0
30
0
70
128
71
-10
72
3
73
-12
0
VERTEX
8
OBJECT001
10
0
20
0
30
0
70
128
71
-10
72
12
73
9
0
VERTEX
8
OBJECT001
10
0
20
0
30
0
70
128
71
5
72
11
73
-10
0
VERTEX
8
OBJECT001
10
0
20
0
30
0
70
128
71
-5
72
10
73
6
0
VERTEX
8
OBJECT001
10
0
20
0
30
0
70
128
71
6
72
10
73
-9
0
VERTEX
8
OBJECT001
10
0
20
0
30
0
70
128
71
-6
72
9
73
7
0
VERTEX
8
OBJECT001
10
0
20
0
30
0
70
128
71
1
72
4
73
-11
0
VERTEX
8
OBJECT001
10
0
20
0
30
0
70
128
71
-1
72
11
73
5
0
VERTEX
8
OBJECT001
10
0
20
0
30
0
70
128
71
3
72
2
73
-8
0
VERTEX
8
OBJECT001
10
0
20
0
30
0
70
128
71
-3
72
8
73
12
0
VERTEX
8
OBJECT001
10
0
20
0
30
0
70
128
71
7
72
9
73
-12
0
VERTEX
8
OBJECT001
10
0
20
0
30
0
70
128
71
-7
72
12
73
8
0
SEQEND
8
OBJECT001
0
POLYLINE
8
OBJECT002
66
1
70
64
71
8
72
12
62
50
0
VERTEX
8
OBJECT002
10
-1.000000
20
714.000000
30
-70.000000
70
192
0
VERTEX
8
OBJECT002
10
-1.000000
20
338.000000
30
-70.000000
70
192
0
VERTEX
8
OBJECT002
10
513.000000
20
338.000000
30
-70.000000
70
192
0
VERTEX
8
OBJECT002
10
513.000000
20
714.000000
30
-70.000000
70
192
0
VERTEX
8
OBJECT002
10
-1.000000
20
338.000000
30
-60.000000
70
192
0
VERTEX
8
OBJECT002
10
-1.000000
20
714.000000
30
-60.000000
70
192
0
VERTEX
8
OBJECT002
10
513.000000
20
714.000000
30
-60.000000
70
192
0
VERTEX
8
OBJECT002
10
513.000000
20
338.000000
30
-60.000000
70
192
0
VERTEX
8
OBJECT002
10
0
20
0
30
0
70
128
71
2
72
3
73
-4
0
VERTEX
8
OBJECT002
10
0
20
0
30
0
70
128
71
-2
72
4
73
1
0
VERTEX
8
OBJECT002
10
0
20
0
30
0
70
128
71
2
72
1
73
-6
0
VERTEX
8
OBJECT002
10
0
20
0
30
0
70
128
71
-2
72
6
73
5
0
VERTEX
8
OBJECT002
10
0
20
0
30
0
70
128
71
4
72
3
73
-8
0
VERTEX
8
OBJECT002
10
0
20
0
30
0
70
128
71
-4
72
8
73
7
0
VERTEX
8
OBJECT002
10
0
20
0
30
0
70
128
71
1
72
4
73
-7
0
VERTEX
8
OBJECT002
10
0
20
0
30
0
70
128
71
-1
72
7
73
6
0
VERTEX
8
OBJECT002
10
0
20
0
30
0
70
128
71
3
72
2
73
-5
0
VERTEX
8
OBJECT002
10
0
20
0
30
0
70
128
71
-3
72
5
73
8
0
VERTEX
8
OBJECT002
10
0
20
0
30
0
70
128
71
6
72
7
73
-8
0
VERTEX
8
OBJECT002
10
0
20
0
30
0
70
128
71
-6
72
8
73
5
0
SEQEND
8
OBJECT002
0
POLYLINE
8
OBJECT003
66
1
70
64
71
8
72
12
62
50
0
VERTEX
8
OBJECT003
10
-1.000000
20
339.000000
30
22.885986
70
192
0
VERTEX
8
OBJECT003
10
-1.000000
20
435.014923
30
73.000000
70
192
0
VERTEX
8
OBJECT003
10
513.000000
20
435.014923
30
73.000000
70
192
0
VERTEX
8
OBJECT003
10
513.000000
20
339.000000
30
22.885986
70
192
0
VERTEX
8
OBJECT003
10
-1.000000
20
461.000000
30
73.000000
70
192
0
VERTEX
8
OBJECT003
10
513.000000
20
461.000000
30
73.000000
70
192
0
VERTEX
8
OBJECT003
10
-1.000000
20
339.000000
30
11.000000
70
192
0
VERTEX
8
OBJECT003
10
513.000000
20
339.000000
30
11.000000
70
192
0
VERTEX
8
OBJECT003
10
0
20
0
30
0
70
128
71
2
72
3
73
-4
0
VERTEX
8
OBJECT003
10
0
20
0
30
0
70
128
71
-2
72
4
73
1
0
VERTEX
8
OBJECT003
10
0
20
0
30
0
70
128
71
2
72
5
73
-6
0
VERTEX
8
OBJECT003
10
0
20
0
30
0
70
128
71
-2
72
6
73
3
0
VERTEX
8
OBJECT003
10
0
20
0
30
0
70
128
71
2
72
1
73
-7
0
VERTEX
8
OBJECT003
10
0
20
0
30
0
70
128
71
-2
72
7
73
5
0
VERTEX
8
OBJECT003
10
0
20
0
30
0
70
128
71
4
72
3
73
-6
0
VERTEX
8
OBJECT003
10
0
20
0
30
0
70
128
71
-4
72
6
73
8
0
VERTEX
8
OBJECT003
10
0
20
0
30
0
70
128
71
1
72
4
73
-8
0
VERTEX
8
OBJECT003
10
0
20
0
30
0
70
128
71
-1
72
8
73
7
0
VERTEX
8
OBJECT003
10
0
20
0
30
0
70
128
71
5
72
7
73
-8
0
VERTEX
8
OBJECT003
10
0
20
0
30
0
70
128
71
-5
72
8
73
6
0
SEQEND
8
OBJECT003
0
POLYLINE
8
OBJECT004
66
1
70
64
71
12
72
20
62
50
0
VERTEX
8
OBJECT004
10
-1.000000
20
618.000000
30
73.000000
70
192
0
VERTEX
8
OBJECT004
10
-1.000000
20
434.000000
30
73.000000
70
192
0
VERTEX
8
OBJECT004
10
513.000000
20
434.000000
30
73.000000
70
192
0
VERTEX
8
OBJECT004
10
513.000000
20
618.000000
30
73.000000
70
192
0
VERTEX
8
OBJECT004
10
-1.000000
20
338.000000
30
83.000000
70
192
0
VERTEX
8
OBJECT004
10
-1.000000
20
338.000000
30
82.882355
70
192
0
VERTEX
8
OBJECT004
10
-1.000000
20
714.000000
30
82.868973
70
192
0
VERTEX
8
OBJECT004
10
-1.000000
20
714.000000
30
83.000000
70
192
0
VERTEX
8
OBJECT004
10
513.000000
20
714.000000
30
83.000000
70
192
0
VERTEX
8
OBJECT004
10
513.000000
20
714.000000
30
82.868973
70
192
0
VERTEX
8
OBJECT004
10
513.000000
20
338.000000
30
82.882355
70
192
0
VERTEX
8
OBJECT004
10
513.000000
20
338.000000
30
83.000000
70
192
0
VERTEX
8
OBJECT004
10
0
20
0
30
0
70
128
71
2
72
3
73
-4
0
VERTEX
8
OBJECT004
10
0
20
0
30
0
70
128
71
-2
72
4
73
1
0
VERTEX
8
OBJECT004
10
0
20
0
30
0
70
128
71
6
72
2
73
-1
0
VERTEX
8
OBJECT004
10
0
20
0
30
0
70
128
71
-6
72
1
73
-7
0
VERTEX
8
OBJECT004
10
0
20
0
30
0
70
128
71
-6
72
7
73
-8
0
VERTEX
8
OBJECT004
10
0
20
0
30
0
70
128
71
-6
72
8
73
5
0
VERTEX
8
OBJECT004
10
0
20
0
30
0
70
128
71
10
72
4
73
-3
0
VERTEX
8
OBJECT004
10
0
20
0
30
0
70
128
71
-10
72
3
73
-11
0
VERTEX
8
OBJECT004
10
0
20
0
30
0
70
128
71
-10
72
11
73
-12
0
VERTEX
8
OBJECT004
10
0
20
0
30
0
70
128
71
-10
72
12
73
9
0
VERTEX
8
OBJECT004
10
0
20
0
30
0
70
128
71
7
72
10
73
-9
0
VERTEX
8
OBJECT004
10
0
20
0
30
0
70
128
71
-7
72
9
73
8
0
VERTEX
8
OBJECT004
10
0
20
0
30
0
70
128
71
11
72
6
73
-5
0
VERTEX
8
OBJECT004
10
0
20
0
30
0
70
128
71
-11
72
5
73
12
0
VERTEX
8
OBJECT004
10
0
20
0
30
0
70
128
71
8
72
9
73
-12
0
VERTEX
8
OBJECT004
10
0
20
0
30
0
70
128
71
-8
72
12
73
5
0
VERTEX
8
OBJECT004
10
0
20
0
30
0
70
128
71
1
72
4
73
-10
0
VERTEX
8
OBJECT004
10
0
20
0
30
0
70
128
71
-1
72
10
73
7
0
VERTEX
8
OBJECT004
10
0
20
0
30
0
70
128
71
2
72
6
73
-11
0
VERTEX
8
OBJECT004
10
0
20
0
30
0
70
128
71
-2
72
11
73
3
0
SEQEND
8
OBJECT004
0
POLYLINE
8
OBJECT005
66
1
70
64
71
8
72
12
62
50
0
VERTEX
8
OBJECT005
10
513.000000
20
618.988403
30
73.000000
70
192
0
VERTEX
8
OBJECT005
10
-1.000000
20
618.988403
30
73.000000
70
192
0
VERTEX
8
OBJECT005
10
-1.000000
20
715.000000
30
22.887573
70
192
0
VERTEX
8
OBJECT005
10
513.000000
20
715.000000
30
22.887573
70
192
0
VERTEX
8
OBJECT005
10
-1.000000
20
593.000000
30
73.000000
70
192
0
VERTEX
8
OBJECT005
10
513.000000
20
593.000000
30
73.000000
70
192
0
VERTEX
8
OBJECT005
10
-1.000000
20
715.000000
30
11.000000
70
192
0
VERTEX
8
OBJECT005
10
513.000000
20
715.000000
30
11.000000
70
192
0
VERTEX
8
OBJECT005
10
0
20
0
30
0
70
128
71
2
72
3
73
-4
0
VERTEX
8
OBJECT005
10
0
20
0
30
0
70
128
71
-2
72
4
73
1
0
VERTEX
8
OBJECT005
10
0
20
0
30
0
70
128
71
2
72
1
73
-6
0
VERTEX
8
OBJECT005
10
0
20
0
30
0
70
128
71
-2
72
6
73
5
0
VERTEX
8
OBJECT005
10
0
20
0
30
0
70
128
71
3
72
2
73
-5
0
VERTEX
8
OBJECT005
10
0
20
0
30
0
70
128
71
-3
72
5
73
7
0
VERTEX
8
OBJECT005
10
0
20
0
30
0
70
128
71
1
72
4
73
-8
0
VERTEX
8
OBJECT005
10
0
20
0
30
0
70
128
71
-1
72
8
73
6
0
VERTEX
8
OBJECT005
10
0
20
0
30
0
70
128
71
4
72
3
73
-7
0
VERTEX
8
OBJECT005
10
0
20
0
30
0
70
128
71
-4
72
7
73
8
0
VERTEX
8
OBJECT005
10
0
20
0
30
0
70
128
71
5
72
6
73
-8
0
VERTEX
8
OBJECT005
10
0
20
0
30
0
70
128
71
-5
72
8
73
7
0
SEQEND
8
OBJECT005
0
POLYLINE
8
OBJECT006
66
1
70
64
71
8
72
12
62
50
0
VERTEX
8
OBJECT006
10
-1.000000
20
122.000000
30
0.000000
70
192
0
VERTEX
8
OBJECT006
10
-1.000000
20
-254.000000
30
0.000000
70
192
0
VERTEX
8
OBJECT006
10
513.000000
20
-254.000000
30
0.000000
70
192
0
VERTEX
8
OBJECT006
10
513.000000
20
122.000000
30
0.000000
70
192
0
VERTEX
8
OBJECT006
10
-1.000000
20
-254.000000
30
10.000000
70
192
0
VERTEX
8
OBJECT006
10
-1.000000
20
122.000000
30
10.000000
70
192
0
VERTEX
8
OBJECT006
10
513.000000
20
122.000000
30
10.000000
70
192
0
VERTEX
8
OBJECT006
10
513.000000
20
-254.000000
30
10.000000
70
192
0
VERTEX
8
OBJECT006
10
0
20
0
30
0
70
128
71
2
72
3
73
-4
0
VERTEX
8
OBJECT006
10
0
20
0
30
0
70
128
71
-2
72
4
73
1
0
VERTEX
8
OBJECT006
10
0
20
0
30
0
70
128
71
2
72
1
73
-6
0
VERTEX
8
OBJECT006
10
0
20
0
30
0
70
128
71
-2
72
6
73
5
0
VERTEX
8
OBJECT006
10
0
20
0
30
0
70
128
71
4
72
3
73
-8
0
VERTEX
8
OBJECT006
10
0
20
0
30
0
70
128
71
-4
72
8
73
7
0
VERTEX
8
OBJECT006
10
0
20
0
30
0
70
128
71
1
72
4
73
-7
0
VERTEX
8
OBJECT006
10
0
20
0
30
0
70
128
71
-1
72
7
73
6
0
VERTEX
8
OBJECT006
10
0
20
0
30
0
70
128
71
3
72
2
73
-5
0
VERTEX
8
OBJECT006
10
0
20
0
30
0
70
128
71
-3
72
5
73
8
0
VERTEX
8
OBJECT006
10
0
20
0
30
0
70
128
71
6
72
7
73
-8
0
VERTEX
8
OBJECT006
10
0
20
0
30
0
70
128
71
-6
72
8
73
5
0
SEQEND
8
OBJECT006
0
POLYLINE
8
OBJECT007
66
1
70
64
71
12
72
20
62
50
0
VERTEX
8
OBJECT007
10
-1.000000
20
-254.000000
30
5.000000
70
192
0
VERTEX
8
OBJECT007
10
-1.000000
20
-254.778015
30
5.000000
70
192
0
VERTEX
8
OBJECT007
10
513.000000
20
-254.778015
30
5.000000
70
192
0
VERTEX
8
OBJECT007
10
513.000000
20
-254.000000
30
5.000000
70
192
0
VERTEX
8
OBJECT007
10
-1.000000
20
-254.000000
30
196.723297
70
192
0
VERTEX
8
OBJECT007
10
-1.000000
20
-269.000000
30
189.225006
70
192
0
VERTEX
8
OBJECT007
10
-1.000000
20
-336.000000
30
133.645035
70
192
0
VERTEX
8
OBJECT007
10
-1.000000
20
-336.000000
30
71.271729
70
192
0
VERTEX
8
OBJECT007
10
513.000000
20
-336.000000
30
71.271729
70
192
0
VERTEX
8
OBJECT007
10
513.000000
20
-336.000000
30
133.645035
70
192
0
VERTEX
8
OBJECT007
10
513.000000
20
-269.000000
30
189.225006
70
192
0
VERTEX
8
OBJECT007
10
513.000000
20
-254.000000
30
196.723297
70
192
0
VERTEX
8
OBJECT007
10
0
20
0
30
0
70
128
71
2
72
3
73
-4
0
VERTEX
8
OBJECT007
10
0
20
0
30
0
70
128
71
-2
72
4
73
1
0
VERTEX
8
OBJECT007
10
0
20
0
30
0
70
128
71
6
72
7
73
-8
0
VERTEX
8
OBJECT007
10
0
20
0
30
0
70
128
71
-6
72
8
73
-2
0
VERTEX
8
OBJECT007
10
0
20
0
30
0
70
128
71
-6
72
2
73
-1
0
VERTEX
8
OBJECT007
10
0
20
0
30
0
70
128
71
-6
72
1
73
5
0
VERTEX
8
OBJECT007
10
0
20
0
30
0
70
128
71
3
72
9
73
-10
0
VERTEX
8
OBJECT007
10
0
20
0
30
0
70
128
71
-3
72
10
73
-11
0
VERTEX
8
OBJECT007
10
0
20
0
30
0
70
128
71
-3
72
11
73
-12
0
VERTEX
8
OBJECT007
10
0
20
0
30
0
70
128
71
-3
72
12
73
4
0
VERTEX
8
OBJECT007
10
0
20
0
30
0
70
128
71
9
72
8
73
-7
0
VERTEX
8
OBJECT007
10
0
20
0
30
0
70
128
71
-9
72
7
73
10
0
VERTEX
8
OBJECT007
10
0
20
0
30
0
70
128
71
11
72
6
73
-5
0
VERTEX
8
OBJECT007
10
0
20
0
30
0
70
128
71
-11
72
5
73
12
0
VERTEX
8
OBJECT007
10
0
20
0
30
0
70
128
71
10
72
7
73
-6
0
VERTEX
8
OBJECT007
10
0
20
0
30
0
70
128
71
-10
72
6
73
11
0
VERTEX
8
OBJECT007
10
0
20
0
30
0
70
128
71
3
72
2
73
-8
0
VERTEX
8
OBJECT007
10
0
20
0
30
0
70
128
71
-3
72
8
73
9
0
VERTEX
8
OBJECT007
10
0
20
0
30
0
70
128
71
1
72
4
73
-12
0
VERTEX
8
OBJECT007
10
0
20
0
30
0
70
128
71
-1
72
12
73
5
0
SEQEND
8
OBJECT007
0
POLYLINE
8
OBJECT008
66
1
70
64
71
12
72
20
62
50
0
VERTEX
8
OBJECT008
10
-1.000000
20
122.777008
30
5.000000
70
192
0
VERTEX
8
OBJECT008
10
-1.000000
20
122.000000
30
5.000000
70
192
0
VERTEX
8
OBJECT008
10
513.000000
20
122.000000
30
5.000000
70
192
0
VERTEX
8
OBJECT008
10
513.000000
20
122.777008
30
5.000000
70
192
0
VERTEX
8
OBJECT008
10
-1.000000
20
204.000000
30
71.271729
70
192
0
VERTEX
8
OBJECT008
10
-1.000000
20
204.000000
30
133.645065
70
192
0
VERTEX
8
OBJECT008
10
-1.000000
20
137.036407
30
189.179047
70
192
0
VERTEX
8
OBJECT008
10
-1.000000
20
122.000000
30
196.018433
70
192
0
VERTEX
8
OBJECT008
10
513.000000
20
137.036407
30
189.179047
70
192
0
VERTEX
8
OBJECT008
10
513.000000
20
204.000000
30
133.645065
70
192
0
VERTEX
8
OBJECT008
10
513.000000
20
204.000000
30
71.271729
70
192
0
VERTEX
8
OBJECT008
10
513.000000
20
122.000000
30
196.018433
70
192
0
VERTEX
8
OBJECT008
10
0
20
0
30
0
70
128
71
2
72
3
73
-4
0
VERTEX
8
OBJECT008
10
0
20
0
30
0
70
128
71
-2
72
4
73
1
0
VERTEX
8
OBJECT008
10
0
20
0
30
0
70
128
71
1
72
5
73
-6
0
VERTEX
8
OBJECT008
10
0
20
0
30
0
70
128
71
-1
72
6
73
-7
0
VERTEX
8
OBJECT008
10
0
20
0
30
0
70
128
71
-1
72
7
73
-8
0
VERTEX
8
OBJECT008
10
0
20
0
30
0
70
128
71
-1
72
8
73
2
0
VERTEX
8
OBJECT008
10
0
20
0
30
0
70
128
71
10
72
11
73
-4
0
VERTEX
8
OBJECT008
10
0
20
0
30
0
70
128
71
-10
72
4
73
-3
0
VERTEX
8
OBJECT008
10
0
20
0
30
0
70
128
71
-10
72
3
73
-12
0
VERTEX
8
OBJECT008
10
0
20
0
30
0
70
128
71
-10
72
12
73
9
0
VERTEX
8
OBJECT008
10
0
20
0
30
0
70
128
71
5
72
11
73
-10
0
VERTEX
8
OBJECT008
10
0
20
0
30
0
70
128
71
-5
72
10
73
6
0
VERTEX
8
OBJECT008
10
0
20
0
30
0
70
128
71
6
72
10
73
-9
0
VERTEX
8
OBJECT008
10
0
20
0
30
0
70
128
71
-6
72
9
73
7
0
VERTEX
8
OBJECT008
10
0
20
0
30
0
70
128
71
1
72
4
73
-11
0
VERTEX
8
OBJECT008
10
0
20
0
30
0
70
128
71
-1
72
11
73
5
0
VERTEX
8
OBJECT008
10
0
20
0
30
0
70
128
71
3
72
2
73
-8
0
VERTEX
8
OBJECT008
10
0
20
0
30
0
70
128
71
-3
72
8
73
12
0
VERTEX
8
OBJECT008
10
0
20
0
30
0
70
128
71
7
72
9
73
-12
0
VERTEX
8
OBJECT008
10
0
20
0
30
0
70
128
71
-7
72
12
73
8
0
SEQEND
8
OBJECT008
0
POLYLINE
8
OBJECT009
66
1
70
64
71
8
72
12
62
50
0
VERTEX
8
OBJECT009
10
-1.000000
20
-254.000000
30
195.886002
70
192
0
VERTEX
8
OBJECT009
10
-1.000000
20
-157.985077
30
246.000000
70
192
0
VERTEX
8
OBJECT009
10
513.000000
20
-157.985077
30
246.000000
70
192
0
VERTEX
8
OBJECT009
10
513.000000
20
-254.000000
30
195.886002
70
192
0
VERTEX
8
OBJECT009
10
-1.000000
20
-132.000000
30
246.000000
70
192
0
VERTEX
8
OBJECT009
10
513.000000
20
-132.000000
30
246.000000
70
192
0
VERTEX
8
OBJECT009
10
-1.000000
20
-254.000000
30
184.000000
70
192
0
VERTEX
8
OBJECT009
10
513.000000
20
-254.000000
30
184.000000
70
192
0
VERTEX
8
OBJECT009
10
0
20
0
30
0
70
128
71
2
72
3
73
-4
0
VERTEX
8
OBJECT009
10
0
20
0
30
0
70
128
71
-2
72
4
73
1
0
VERTEX
8
OBJECT009
10
0
20
0
30
0
70
128
71
2
72
5
73
-6
0
VERTEX
8
OBJECT009
10
0
20
0
30
0
70
128
71
-2
72
6
73
3
0
VERTEX
8
OBJECT009
10
0
20
0
30
0
70
128
71
2
72
1
73
-7
0
VERTEX
8
OBJECT009
10
0
20
0
30
0
70
128
71
-2
72
7
73
5
0
VERTEX
8
OBJECT009
10
0
20
0
30
0
70
128
71
4
72
3
73
-6
0
VERTEX
8
OBJECT009
10
0
20
0
30
0
70
128
71
-4
72
6
73
8
0
VERTEX
8
OBJECT009
10
0
20
0
30
0
70
128
71
1
72
4
73
-8
0
VERTEX
8
OBJECT009
10
0
20
0
30
0
70
128
71
-1
72
8
73
7
0
VERTEX
8
OBJECT009
10
0
20
0
30
0
70
128
71
5
72
7
73
-8
0
VERTEX
8
OBJECT009
10
0
20
0
30
0
70
128
71
-5
72
8
73
6
0
SEQEND
8
OBJECT009
0
POLYLINE
8
OBJECT010
66
1
70
64
71
8
72
12
62
50
0
VERTEX
8
OBJECT010
10
-1.000000
20
-138.000000
30
256.000000
70
192
0
VERTEX
8
OBJECT010
10
-1.000000
20
8.000000
30
256.000000
70
192
0
VERTEX
8
OBJECT010
10
513.000000
20
8.000000
30
256.000000
70
192
0
VERTEX
8
OBJECT010
10
513.000000
20
-138.000000
30
256.000000
70
192
0
VERTEX
8
OBJECT010
10
-1.000000
20
27.333481
30
246.000000
70
192
0
VERTEX
8
OBJECT010
10
-1.000000
20
-157.565399
30
246.000000
70
192
0
VERTEX
8
OBJECT010
10
513.000000
20
-157.565399
30
246.000000
70
192
0
VERTEX
8
OBJECT010
10
513.000000
20
27.333481
30
246.000000
70
192
0
VERTEX
8
OBJECT010
10
0
20
0
30
0
70
128
71
2
72
3
73
-4
0
VERTEX
8
OBJECT010
10
0
20
0
30
0
70
128
71
-2
72
4
73
1
0
VERTEX
8
OBJECT010
10
0
20
0
30
0
70
128
71
2
72
1
73
-6
0
VERTEX
8
OBJECT010
10
0
20
0
30
0
70
128
71
-2
72
6
73
5
0
VERTEX
8
OBJECT010
10
0
20
0
30
0
70
128
71
4
72
3
73
-8
0
VERTEX
8
OBJECT010
10
0
20
0
30
0
70
128
71
-4
72
8
73
7
0
VERTEX
8
OBJECT010
10
0
20
0
30
0
70
128
71
1
72
4
73
-7
0
VERTEX
8
OBJECT010
10
0
20
0
30
0
70
128
71
-1
72
7
73
6
0
VERTEX
8
OBJECT010
10
0
20
0
30
0
70
128
71
2
72
5
73
-8
0
VERTEX
8
OBJECT010
10
0
20
0
30
0
70
128
71
-2
72
8
73
3
0
VERTEX
8
OBJECT010
10
0
20
0
30
0
70
128
71
6
72
7
73
-8
0
VERTEX
8
OBJECT010
10
0
20
0
30
0
70
128
71
-6
72
8
73
5
0
SEQEND
8
OBJECT010
0
POLYLINE
8
OBJECT011
66
1
70
64
71
8
72
12
62
50
0
VERTEX
8
OBJECT011
10
513.000000
20
25.988411
30
246.000000
70
192
0
VERTEX
8
OBJECT011
10
-1.000000
20
25.988411
30
246.000000
70
192
0
VERTEX
8
OBJECT011
10
-1.000000
20
122.000000
30
195.887589
70
192
0
VERTEX
8
OBJECT011
10
513.000000
20
122.000000
30
195.887589
70
192
0
VERTEX
8
OBJECT011
10
-1.000000
20
0.000000
30
246.000000
70
192
0
VERTEX
8
OBJECT011
10
513.000000
20
0.000000
30
246.000000
70
192
0
VERTEX
8
OBJECT011
10
-1.000000
20
122.000000
30
184.000000
70
192
0
VERTEX
8
OBJECT011
10
513.000000
20
122.000000
30
184.000000
70
192
0
VERTEX
8
OBJECT011
10
0
20
0
30
0
70
128
71
2
72
3
73
-4
0
VERTEX
8
OBJECT011
10
0
20
0
30
0
70
128
71
-2
72
4
73
1
0
VERTEX
8
OBJECT011
10
0
20
0
30
0
70
128
71
2
72
1
73
-6
0
VERTEX
8
OBJECT011
10
0
20
0
30
0
70
128
71
-2
72
6
73
5
0
VERTEX
8
OBJECT011
10
0
20
0
30
0
70
128
71
3
72
2
73
-5
0
VERTEX
8
OBJECT011
10
0
20
0
30
0
70
128
71
-3
72
5
73
7
0
VERTEX
8
OBJECT011
10
0
20
0
30
0
70
128
71
1
72
4
73
-8
0
VERTEX
8
OBJECT011
10
0
20
0
30
0
70
128
71
-1
72
8
73
6
0
VERTEX
8
OBJECT011
10
0
20
0
30
0
70
128
71
4
72
3
73
-7
0
VERTEX
8
OBJECT011
10
0
20
0
30
0
70
128
71
-4
72
7
73
8
0
VERTEX
8
OBJECT011
10
0
20
0
30
0
70
128
71
5
72
6
73
-8
0
VERTEX
8
OBJECT011
10
0
20
0
30
0
70
128
71
-5
72
8
73
7
0
SEQEND
8
OBJECT011
0
POLYLINE
8
OBJECT012
66
1
70
64
71
8
72
12
62
50
0
VERTEX
8
OBJECT012
10
-1.000000
20
338.000000
30
194.886002
70
192
0
VERTEX
8
OBJECT012
10
-1.000000
20
434.014923
30
245.000000
70
192
0
VERTEX
8
OBJECT012
10
513.000000
20
434.014923
30
245.000000
70
192
0
VERTEX
8
OBJECT012
10
513.000000
20
338.000000
30
194.886002
70
192
0
VERTEX
8
OBJECT012
10
-1.000000
20
460.000000
30
245.000000
70
192
0
VERTEX
8
OBJECT012
10
513.000000
20
460.000000
30
245.000000
70
192
0
VERTEX
8
OBJECT012
10
-1.000000
20
338.000000
30
183.000000
70
192
0
VERTEX
8
OBJECT012
10
513.000000
20
338.000000
30
183.000000
70
192
0
VERTEX
8
OBJECT012
10
0
20
0
30
0
70
128
71
2
72
3
73
-4
0
VERTEX
8
OBJECT012
10
0
20
0
30
0
70
128
71
-2
72
4
73
1
0
VERTEX
8
OBJECT012
10
0
20
0
30
0
70
128
71
2
72
5
73
-6
0
VERTEX
8
OBJECT012
10
0
20
0
30
0
70
128
71
-2
72
6
73
3
0
VERTEX
8
OBJECT012
10
0
20
0
30
0
70
128
71
2
72
1
73
-7
0
VERTEX
8
OBJECT012
10
0
20
0
30
0
70
128
71
-2
72
7
73
5
0
VERTEX
8
OBJECT012
10
0
20
0
30
0
70
128
71
4
72
3
73
-6
0
VERTEX
8
OBJECT012
10
0
20
0
30
0
70
128
71
-4
72
6
73
8
0
VERTEX
8
OBJECT012
10
0
20
0
30
0
70
128
71
1
72
4
73
-8
0
VERTEX
8
OBJECT012
10
0
20
0
30
0
70
128
71
-1
72
8
73
7
0
VERTEX
8
OBJECT012
10
0
20
0
30
0
70
128
71
5
72
7
73
-8
0
VERTEX
8
OBJECT012
10
0
20
0
30
0
70
128
71
-5
72
8
73
6
0
SEQEND
8
OBJECT012
0
POLYLINE
8
OBJECT013
66
1
70
64
71
8
72
12
62
50
0
VERTEX
8
OBJECT013
10
-1.000000
20
454.000000
30
255.000000
70
192
0
VERTEX
8
OBJECT013
10
-1.000000
20
600.000000
30
255.000000
70
192
0
VERTEX
8
OBJECT013
10
513.000000
20
600.000000
30
255.000000
70
192
0
VERTEX
8
OBJECT013
10
513.000000
20
454.000000
30
255.000000
70
192
0
VERTEX
8
OBJECT013
10
-1.000000
20
619.333496
30
245.000000
70
192
0
VERTEX
8
OBJECT013
10
-1.000000
20
434.434601
30
245.000000
70
192
0
VERTEX
8
OBJECT013
10
513.000000
20
434.434601
30
245.000000
70
192
0
VERTEX
8
OBJECT013
10
513.000000
20
619.333496
30
245.000000
70
192
0
VERTEX
8
OBJECT013
10
0
20
0
30
0
70
128
71
2
72
3
73
-4
0
VERTEX
8
OBJECT013
10
0
20
0
30
0
70
128
71
-2
72
4
73
1
0
VERTEX
8
OBJECT013
10
0
20
0
30
0
70
128
71
2
72
1
73
-6
0
VERTEX
8
OBJECT013
10
0
20
0
30
0
70
128
71
-2
72
6
73
5
0
VERTEX
8
OBJECT013
10
0
20
0
30
0
70
128
71
4
72
3
73
-8
0
VERTEX
8
OBJECT013
10
0
20
0
30
0
70
128
71
-4
72
8
73
7
0
VERTEX
8
OBJECT013
10
0
20
0
30
0
70
128
71
1
72
4
73
-7
0
VERTEX
8
OBJECT013
10
0
20
0
30
0
70
128
71
-1
72
7
73
6
0
VERTEX
8
OBJECT013
10
0
20
0
30
0
70
128
71
2
72
5
73
-8
0
VERTEX
8
OBJECT013
10
0
20
0
30
0
70
128
71
-2
72
8
73
3
0
VERTEX
8
OBJECT013
10
0
20
0
30
0
70
128
71
6
72
7
73
-8
0
VERTEX
8
OBJECT013
10
0
20
0
30
0
70
128
71
-6
72
8
73
5
0
SEQEND
8
OBJECT013
0
POLYLINE
8
OBJECT014
66
1
70
64
71
8
72
12
62
50
0
VERTEX
8
OBJECT014
10
513.000000
20
617.988403
30
245.000000
70
192
0
VERTEX
8
OBJECT014
10
-1.000000
20
617.988403
30
245.000000
70
192
0
VERTEX
8
OBJECT014
10
-1.000000
20
714.000000
30
194.887589
70
192
0
VERTEX
8
OBJECT014
10
513.000000
20
714.000000
30
194.887589
70
192
0
VERTEX
8
OBJECT014
10
-1.000000
20
592.000000
30
245.000000
70
192
0
VERTEX
8
OBJECT014
10
513.000000
20
592.000000
30
245.000000
70
192
0
VERTEX
8
OBJECT014
10
-1.000000
20
714.000000
30
183.000000
70
192
0
VERTEX
8
OBJECT014
10
513.000000
20
714.000000
30
183.000000
70
192
0
VERTEX
8
OBJECT014
10
0
20
0
30
0
70
128
71
2
72
3
73
-4
0
VERTEX
8
OBJECT014
10
0
20
0
30
0
70
128
71
-2
72
4
73
1
0
VERTEX
8
OBJECT014
10
0
20
0
30
0
70
128
71
2
72
1
73
-6
0
VERTEX
8
OBJECT014
10
0
20
0
30
0
70
128
71
-2
72
6
73
5
0
VERTEX
8
OBJECT014
10
0
20
0
30
0
70
128
71
3
72
2
73
-5
0
VERTEX
8
OBJECT014
10
0
20
0
30
0
70
128
71
-3
72
5
73
7
0
VERTEX
8
OBJECT014
10
0
20
0
30
0
70
128
71
1
72
4
73
-8
0
VERTEX
8
OBJECT014
10
0
20
0
30
0
70
128
71
-1
72
8
73
6
0
VERTEX
8
OBJECT014
10
0
20
0
30
0
70
128
71
4
72
3
73
-7
0
VERTEX
8
OBJECT014
10
0
20
0
30
0
70
128
71
-4
72
7
73
8
0
VERTEX
8
OBJECT014
10
0
20
0
30
0
70
128
71
5
72
6
73
-8
0
VERTEX
8
OBJECT014
10
0
20
0
30
0
70
128
71
-5
72
8
73
7
0
SEQEND
8
OBJECT014
0
POLYLINE
8
OBJECT015
66
1
70
64
71
8
72
12
62
50
0
VERTEX
8
OBJECT015
10
-1.000000
20
-227.000000
30
-124.114014
70
192
0
VERTEX
8
OBJECT015
10
-1.000000
20
-130.985077
30
-74.000000
70
192
0
VERTEX
8
OBJECT015
10
513.000000
20
-130.985077
30
-74.000000
70
192
0
VERTEX
8
OBJECT015
10
513.000000
20
-227.000000
30
-124.114014
70
192
0
VERTEX
8
OBJECT015
10
-1.000000
20
-105.000000
30
-74.000000
70
192
0
VERTEX
8
OBJECT015
10
513.000000
20
-105.000000
30
-74.000000
70
192
0
VERTEX
8
OBJECT015
10
-1.000000
20
-227.000000
30
-136.000000
70
192
0
VERTEX
8
OBJECT015
10
513.000000
20
-227.000000
30
-136.000000
70
192
0
VERTEX
8
OBJECT015
10
0
20
0
30
0
70
128
71
2
72
3
73
-4
0
VERTEX
8
OBJECT015
10
0
20
0
30
0
70
128
71
-2
72
4
73
1
0
VERTEX
8
OBJECT015
10
0
20
0
30
0
70
128
71
2
72
5
73
-6
0
VERTEX
8
OBJECT015
10
0
20
0
30
0
70
128
71
-2
72
6
73
3
0
VERTEX
8
OBJECT015
10
0
20
0
30
0
70
128
71
2
72
1
73
-7
0
VERTEX
8
OBJECT015
10
0
20
0
30
0
70
128
71
-2
72
7
73
5
0
VERTEX
8
OBJECT015
10
0
20
0
30
0
70
128
71
4
72
3
73
-6
0
VERTEX
8
OBJECT015
10
0
20
0
30
0
70
128
71
-4
72
6
73
8
0
VERTEX
8
OBJECT015
10
0
20
0
30
0
70
128
71
1
72
4
73
-8
0
VERTEX
8
OBJECT015
10
0
20
0
30
0
70
128
71
-1
72
8
73
7
0
VERTEX
8
OBJECT015
10
0
20
0
30
0
70
128
71
5
72
7
73
-8
0
VERTEX
8
OBJECT015
10
0
20
0
30
0
70
128
71
-5
72
8
73
6
0
SEQEND
8
OBJECT015
0
POLYLINE
8
OBJECT016
66
1
70
64
71
12
72
20
62
50
0
VERTEX
8
OBJECT016
10
-1.000000
20
52.000000
30
-74.000000
70
192
0
VERTEX
8
OBJECT016
10
-1.000000
20
-132.000000
30
-74.000000
70
192
0
VERTEX
8
OBJECT016
10
513.000000
20
-132.000000
30
-74.000000
70
192
0
VERTEX
8
OBJECT016
10
513.000000
20
52.000000
30
-74.000000
70
192
0
VERTEX
8
OBJECT016
10
-1.000000
20
-228.000000
30
-64.000000
70
192
0
VERTEX
8
OBJECT016
10
-1.000000
20
-228.000000
30
-64.117645
70
192
0
VERTEX
8
OBJECT016
10
-1.000000
20
148.000000
30
-64.131027
70
192
0
VERTEX
8
OBJECT016
10
-1.000000
20
148.000000
30
-64.000000
70
192
0
VERTEX
8
OBJECT016
10
513.000000
20
148.000000
30
-64.000000
70
192
0
VERTEX
8
OBJECT016
10
513.000000
20
148.000000
30
-64.131027
70
192
0
VERTEX
8
OBJECT016
10
513.000000
20
-228.000000
30
-64.117645
70
192
0
VERTEX
8
OBJECT016
10
513.000000
20
-228.000000
30
-64.000000
70
192
0
VERTEX
8
OBJECT016
10
0
20
0
30
0
70
128
71
2
72
3
73
-4
0
VERTEX
8
OBJECT016
10
0
20
0
30
0
70
128
71
-2
72
4
73
1
0
VERTEX
8
OBJECT016
10
0
20
0
30
0
70
128
71
6
72
2
73
-1
0
VERTEX
8
OBJECT016
10
0
20
0
30
0
70
128
71
-6
72
1
73
-7
0
VERTEX
8
OBJECT016
10
0
20
0
30
0
70
128
71
-6
72
7
73
-8
0
VERTEX
8
OBJECT016
10
0
20
0
30
0
70
128
71
-6
72
8
73
5
0
VERTEX
8
OBJECT016
10
0
20
0
30
0
70
128
71
10
72
4
73
-3
0
VERTEX
8
OBJECT016
10
0
20
0
30
0
70
128
71
-10
72
3
73
-11
0
VERTEX
8
OBJECT016
10
0
20
0
30
0
70
128
71
-10
72
11
73
-12
0
VERTEX
8
OBJECT016
10
0
20
0
30
0
70
128
71
-10
72
12
73
9
0
VERTEX
8
OBJECT016
10
0
20
0
30
0
70
128
71
7
72
10
73
-9
0
VERTEX
8
OBJECT016
10
0
20
0
30
0
70
128
71
-7
72
9
73
8
0
VERTEX
8
OBJECT016
10
0
20
0
30
0
70
128
71
11
72
6
73
-5
0
VERTEX
8
OBJECT016
10
0
20
0
30
0
70
128
71
-11
72
5
73
12
0
VERTEX
8
OBJECT016
10
0
20
0
30
0
70
128
71
8
72
9
73
-12
0
VERTEX
8
OBJECT016
10
0
20
0
30
0
70
128
71
-8
72
12
73
5
0
VERTEX
8
OBJECT016
10
0
20
0
30
0
70
128
71
1
72
4
73
-10
0
VERTEX
8
OBJECT016
10
0
20
0
30
0
70
128
71
-1
72
10
73
7
0
VERTEX
8
OBJECT016
10
0
20
0
30
0
70
128
71
2
72
6
73
-11
0
VERTEX
8
OBJECT016
10
0
20
0
30
0
70
128
71
-2
72
11
73
3
0
SEQEND
8
OBJECT016
0
POLYLINE
8
OBJECT017
66
1
70
64
71
8
72
12
62
50
0
VERTEX
8
OBJECT017
10
513.000000
20
52.988403
30
-74.000000
70
192
0
VERTEX
8
OBJECT017
10
-1.000000
20
52.988403
30
-74.000000
70
192
0
VERTEX
8
OBJECT017
10
-1.000000
20
149.000000
30
-124.112427
70
192
0
VERTEX
8
OBJECT017
10
513.000000
20
149.000000
30
-124.112427
70
192
0
VERTEX
8
OBJECT017
10
-1.000000
20
27.000000
30
-74.000000
70
192
0
VERTEX
8
OBJECT017
10
513.000000
20
27.000000
30
-74.000000
70
192
0
VERTEX
8
OBJECT017
10
-1.000000
20
149.000000
30
-136.000000
70
192
0
VERTEX
8
OBJECT017
10
513.000000
20
149.000000
30
-136.000000
70
192
0
VERTEX
8
OBJECT017
10
0
20
0
30
0
70
128
71
2
72
3
73
-4
0
VERTEX
8
OBJECT017
10
0
20
0
30
0
70
128
71
-2
72
4
73
1
0
VERTEX
8
OBJECT017
10
0
20
0
30
0
70
128
71
2
72
1
73
-6
0
VERTEX
8
OBJECT017
10
0
20
0
30
0
70
128
71
-2
72
6
73
5
0
VERTEX
8
OBJECT017
10
0
20
0
30
0
70
128
71
3
72
2
73
-5
0
VERTEX
8
OBJECT017
10
0
20
0
30
0
70
128
71
-3
72
5
73
7
0
VERTEX
8
OBJECT017
10
0
20
0
30
0
70
128
71
1
72
4
73
-8
0
VERTEX
8
OBJECT017
10
0
20
0
30
0
70
128
71
-1
72
8
73
6
0
VERTEX
8
OBJECT017
10
0
20
0
30
0
70
128
71
4
72
3
73
-7
0
VERTEX
8
OBJECT017
10
0
20
0
30
0
70
128
71
-4
72
7
73
8
0
VERTEX
8
OBJECT017
10
0
20
0
30
0
70
128
71
5
72
6
73
-8
0
VERTEX
8
OBJECT017
10
0
20
0
30
0
70
128
71
-5
72
8
73
7
0
SEQEND
8
OBJECT017
0
ENDSEC
0
EOF
