0
SECTION
2
HEADER
9
$ACADVER
1
AC1008
9
$UCSORG
10
0.0
20
0.0
30
0.0
9
$UCSXDIR
10
1.0
20
0.0
30
0.0
9
$TILEMODE
70
1
9
$UCSYDIR
10
0.0
20
1.0
30
0.0
9
$EXTMIN
10
320.000000
20
-1160.000000
30
-294.000000
9
$EXTMAX
10
672.000000
20
-372.000000
30
144.000000
0
ENDSEC
0
SECTION
2
TABLES
0
TABLE
2
LTYPE
70
1
0
LTYPE
2
CONTINUOUS
70
64
3
Solid line
72
65
73
0
40
0.0
0
ENDTAB
0
TABLE
2
LAYER
70
1
0
LAYER
2
0
70
0
62
7
6
CONTINUOUS
0
ENDTAB
0
TABLE
2
STYLE
70
1
0
STYLE
2
STANDARD
70
0
40
0.0
41
1.0
50
0.0
71
0
42
0.2
3
txt
4

0
ENDTAB
0
TABLE
2
UCS
70
0
0
ENDTAB
0
ENDSEC
0
SECTION
2
ENTITIES
0
POLYLINE
8
OBJECT000
66
1
70
64
71
12
72
20
62
50
0
VERTEX
8
OBJECT000
10
656.000000
20
-400.481445
30
-209.528595
70
192
0
VERTEX
8
OBJECT000
10
576.000000
20
-400.481445
30
-209.528595
70
192
0
VERTEX
8
OBJECT000
10
576.000000
20
-387.210632
30
-219.654266
70
192
0
VERTEX
8
OBJECT000
10
656.000000
20
-387.210632
30
-219.654266
70
192
0
VERTEX
8
OBJECT000
10
576.000000
20
-377.266327
30
-233.148834
70
192
0
VERTEX
8
OBJECT000
10
656.000000
20
-377.266327
30
-233.148834
70
192
0
VERTEX
8
OBJECT000
10
656.000000
20
-416.628754
30
-204.000000
70
192
0
VERTEX
8
OBJECT000
10
576.000000
20
-416.628754
30
-204.000000
70
192
0
VERTEX
8
OBJECT000
10
656.000000
20
-375.694000
30
-238.000000
70
192
0
VERTEX
8
OBJECT000
10
576.000000
20
-375.694000
30
-238.000000
70
192
0
VERTEX
8
OBJECT000
10
576.000000
20
-416.911987
30
-238.000000
70
192
0
VERTEX
8
OBJECT000
10
656.000000
20
-416.911987
30
-238.000000
70
192
0
VERTEX
8
OBJECT000
10
0
20
0
30
0
70
128
71
2
72
3
73
-4
0
VERTEX
8
OBJECT000
10
0
20
0
30
0
70
128
71
-2
72
4
73
1
0
VERTEX
8
OBJECT000
10
0
20
0
30
0
70
128
71
6
72
4
73
-3
0
VERTEX
8
OBJECT000
10
0
20
0
30
0
70
128
71
-6
72
3
73
5
0
VERTEX
8
OBJECT000
10
0
20
0
30
0
70
128
71
8
72
2
73
-1
0
VERTEX
8
OBJECT000
10
0
20
0
30
0
70
128
71
-8
72
1
73
7
0
VERTEX
8
OBJECT000
10
0
20
0
30
0
70
128
71
6
72
5
73
-10
0
VERTEX
8
OBJECT000
10
0
20
0
30
0
70
128
71
-6
72
10
73
9
0
VERTEX
8
OBJECT000
10
0
20
0
30
0
70
128
71
8
72
7
73
-12
0
VERTEX
8
OBJECT000
10
0
20
0
30
0
70
128
71
-8
72
12
73
11
0
VERTEX
8
OBJECT000
10
0
20
0
30
0
70
128
71
5
72
3
73
-2
0
VERTEX
8
OBJECT000
10
0
20
0
30
0
70
128
71
-5
72
2
73
-8
0
VERTEX
8
OBJECT000
10
0
20
0
30
0
70
128
71
-5
72
8
73
-11
0
VERTEX
8
OBJECT000
10
0
20
0
30
0
70
128
71
-5
72
11
73
10
0
VERTEX
8
OBJECT000
10
0
20
0
30
0
70
128
71
7
72
1
73
-4
0
VERTEX
8
OBJECT000
10
0
20
0
30
0
70
128
71
-7
72
4
73
-6
0
VERTEX
8
OBJECT000
10
0
20
0
30
0
70
128
71
-7
72
6
73
-9
0
VERTEX
8
OBJECT000
10
0
20
0
30
0
70
128
71
-7
72
9
73
12
0
VERTEX
8
OBJECT000
10
0
20
0
30
0
70
128
71
10
72
11
73
-12
0
VERTEX
8
OBJECT000
10
0
20
0
30
0
70
128
71
-10
72
12
73
9
0
SEQEND
8
OBJECT000
0
POLYLINE
8
OBJECT001
66
1
70
64
71
8
72
12
62
50
0
VERTEX
8
OBJECT001
10
576.000000
20
-372.000000
30
-249.368118
70
192
0
VERTEX
8
OBJECT001
10
646.000000
20
-372.000000
30
-249.368118
70
192
0
VERTEX
8
OBJECT001
10
646.000000
20
-375.694000
30
-238.000000
70
192
0
VERTEX
8
OBJECT001
10
576.000000
20
-375.694000
30
-238.000000
70
192
0
VERTEX
8
OBJECT001
10
646.000000
20
-417.000000
30
-249.000000
70
192
0
VERTEX
8
OBJECT001
10
576.000000
20
-417.000000
30
-249.000000
70
192
0
VERTEX
8
OBJECT001
10
576.000000
20
-416.912018
30
-238.000000
70
192
0
VERTEX
8
OBJECT001
10
646.000000
20
-416.912018
30
-238.000000
70
192
0
VERTEX
8
OBJECT001
10
0
20
0
30
0
70
128
71
2
72
3
73
-4
0
VERTEX
8
OBJECT001
10
0
20
0
30
0
70
128
71
-2
72
4
73
1
0
VERTEX
8
OBJECT001
10
0
20
0
30
0
70
128
71
6
72
7
73
-8
0
VERTEX
8
OBJECT001
10
0
20
0
30
0
70
128
71
-6
72
8
73
5
0
VERTEX
8
OBJECT001
10
0
20
0
30
0
70
128
71
1
72
6
73
-5
0
VERTEX
8
OBJECT001
10
0
20
0
30
0
70
128
71
-1
72
5
73
2
0
VERTEX
8
OBJECT001
10
0
20
0
30
0
70
128
71
4
72
7
73
-6
0
VERTEX
8
OBJECT001
10
0
20
0
30
0
70
128
71
-4
72
6
73
1
0
VERTEX
8
OBJECT001
10
0
20
0
30
0
70
128
71
7
72
4
73
-3
0
VERTEX
8
OBJECT001
10
0
20
0
30
0
70
128
71
-7
72
3
73
8
0
VERTEX
8
OBJECT001
10
0
20
0
30
0
70
128
71
2
72
5
73
-8
0
VERTEX
8
OBJECT001
10
0
20
0
30
0
70
128
71
-2
72
8
73
3
0
SEQEND
8
OBJECT001
0
POLYLINE
8
OBJECT002
66
1
70
64
71
8
72
12
62
50
0
VERTEX
8
OBJECT002
10
646.000000
20
-372.000000
30
-249.368118
70
192
0
VERTEX
8
OBJECT002
10
656.000000
20
-372.000000
30
-249.368118
70
192
0
VERTEX
8
OBJECT002
10
656.000000
20
-375.694000
30
-238.000000
70
192
0
VERTEX
8
OBJECT002
10
646.000000
20
-375.694000
30
-238.000000
70
192
0
VERTEX
8
OBJECT002
10
646.000000
20
-406.000000
30
-249.085602
70
192
0
VERTEX
8
OBJECT002
10
656.000000
20
-406.000000
30
-249.085602
70
192
0
VERTEX
8
OBJECT002
10
656.000000
20
-406.000000
30
-238.000000
70
192
0
VERTEX
8
OBJECT002
10
646.000000
20
-406.000000
30
-238.000000
70
192
0
VERTEX
8
OBJECT002
10
0
20
0
30
0
70
128
71
2
72
3
73
-4
0
VERTEX
8
OBJECT002
10
0
20
0
30
0
70
128
71
-2
72
4
73
1
0
VERTEX
8
OBJECT002
10
0
20
0
30
0
70
128
71
1
72
5
73
-6
0
VERTEX
8
OBJECT002
10
0
20
0
30
0
70
128
71
-1
72
6
73
2
0
VERTEX
8
OBJECT002
10
0
20
0
30
0
70
128
71
2
72
6
73
-7
0
VERTEX
8
OBJECT002
10
0
20
0
30
0
70
128
71
-2
72
7
73
3
0
VERTEX
8
OBJECT002
10
0
20
0
30
0
70
128
71
4
72
3
73
-7
0
VERTEX
8
OBJECT002
10
0
20
0
30
0
70
128
71
-4
72
7
73
8
0
VERTEX
8
OBJECT002
10
0
20
0
30
0
70
128
71
4
72
8
73
-5
0
VERTEX
8
OBJECT002
10
0
20
0
30
0
70
128
71
-4
72
5
73
1
0
VERTEX
8
OBJECT002
10
0
20
0
30
0
70
128
71
5
72
8
73
-7
0
VERTEX
8
OBJECT002
10
0
20
0
30
0
70
128
71
-5
72
7
73
6
0
SEQEND
8
OBJECT002
0
POLYLINE
8
OBJECT003
66
1
70
64
71
14
72
24
62
50
0
VERTEX
8
OBJECT003
10
622.230957
20
-387.701813
30
-278.823700
70
192
0
VERTEX
8
OBJECT003
10
576.000000
20
-387.701813
30
-278.823669
70
192
0
VERTEX
8
OBJECT003
10
576.000000
20
-401.158966
30
-288.740997
70
192
0
VERTEX
8
OBJECT003
10
656.000000
20
-401.157196
30
-288.739746
70
192
0
VERTEX
8
OBJECT003
10
656.000000
20
-389.246521
30
-279.962097
70
192
0
VERTEX
8
OBJECT003
10
656.000000
20
-386.404480
30
-277.125977
70
192
0
VERTEX
8
OBJECT003
10
656.000000
20
-377.551910
30
-265.537506
70
192
0
VERTEX
8
OBJECT003
10
576.000000
20
-377.551880
30
-265.537415
70
192
0
VERTEX
8
OBJECT003
10
576.000000
20
-417.417053
30
-294.000000
70
192
0
VERTEX
8
OBJECT003
10
656.000000
20
-417.416077
30
-294.000000
70
192
0
VERTEX
8
OBJECT003
10
656.000000
20
-375.648773
30
-260.000000
70
192
0
VERTEX
8
OBJECT003
10
576.000000
20
-375.648773
30
-260.000000
70
192
0
VERTEX
8
OBJECT003
10
576.000000
20
-417.133484
30
-260.000000
70
192
0
VERTEX
8
OBJECT003
10
656.000000
20
-417.132507
30
-260.000000
70
192
0
VERTEX
8
OBJECT003
10
0
20
0
30
0
70
128
71
2
72
3
73
-4
0
VERTEX
8
OBJECT003
10
0
20
0
30
0
70
128
71
-2
72
4
73
-5
0
VERTEX
8
OBJECT003
10
0
20
0
30
0
70
128
71
-2
72
5
73
1
0
VERTEX
8
OBJECT003
10
0
20
0
30
0
70
128
71
1
72
6
73
-7
0
VERTEX
8
OBJECT003
10
0
20
0
30
0
70
128
71
-1
72
7
73
-8
0
VERTEX
8
OBJECT003
10
0
20
0
30
0
70
128
71
-1
72
8
73
2
0
VERTEX
8
OBJECT003
10
0
20
0
30
0
70
128
71
3
72
9
73
-10
0
VERTEX
8
OBJECT003
10
0
20
0
30
0
70
128
71
-3
72
10
73
4
0
VERTEX
8
OBJECT003
10
0
20
0
30
0
70
128
71
7
72
11
73
-12
0
VERTEX
8
OBJECT003
10
0
20
0
30
0
70
128
71
-7
72
12
73
8
0
VERTEX
8
OBJECT003
10
0
20
0
30
0
70
128
71
9
72
13
73
-14
0
VERTEX
8
OBJECT003
10
0
20
0
30
0
70
128
71
-9
72
14
73
10
0
VERTEX
8
OBJECT003
10
0
20
0
30
0
70
128
71
1
72
5
73
6
0
VERTEX
8
OBJECT003
10
0
20
0
30
0
70
128
71
9
72
3
73
-2
0
VERTEX
8
OBJECT003
10
0
20
0
30
0
70
128
71
-9
72
2
73
-8
0
VERTEX
8
OBJECT003
10
0
20
0
30
0
70
128
71
-9
72
8
73
-12
0
VERTEX
8
OBJECT003
10
0
20
0
30
0
70
128
71
-9
72
12
73
13
0
VERTEX
8
OBJECT003
10
0
20
0
30
0
70
128
71
7
72
6
73
-5
0
VERTEX
8
OBJECT003
10
0
20
0
30
0
70
128
71
-7
72
5
73
-4
0
VERTEX
8
OBJECT003
10
0
20
0
30
0
70
128
71
-7
72
4
73
-10
0
VERTEX
8
OBJECT003
10
0
20
0
30
0
70
128
71
-7
72
10
73
-14
0
VERTEX
8
OBJECT003
10
0
20
0
30
0
70
128
71
-7
72
14
73
11
0
VERTEX
8
OBJECT003
10
0
20
0
30
0
70
128
71
13
72
12
73
-11
0
VERTEX
8
OBJECT003
10
0
20
0
30
0
70
128
71
-13
72
11
73
14
0
SEQEND
8
OBJECT003
0
POLYLINE
8
OBJECT004
66
1
70
64
71
8
72
12
62
50
0
VERTEX
8
OBJECT004
10
646.000000
20
-372.000000
30
-249.387787
70
192
0
VERTEX
8
OBJECT004
10
576.000000
20
-372.000000
30
-249.387787
70
192
0
VERTEX
8
OBJECT004
10
576.000000
20
-375.648743
30
-260.000000
70
192
0
VERTEX
8
OBJECT004
10
646.000000
20
-375.648743
30
-260.000000
70
192
0
VERTEX
8
OBJECT004
10
576.000000
20
-417.133514
30
-260.000000
70
192
0
VERTEX
8
OBJECT004
10
576.000000
20
-417.041718
30
-249.000000
70
192
0
VERTEX
8
OBJECT004
10
646.000000
20
-417.040863
30
-249.000000
70
192
0
VERTEX
8
OBJECT004
10
646.000000
20
-417.132629
30
-260.000000
70
192
0
VERTEX
8
OBJECT004
10
0
20
0
30
0
70
128
71
2
72
3
73
-4
0
VERTEX
8
OBJECT004
10
0
20
0
30
0
70
128
71
-2
72
4
73
1
0
VERTEX
8
OBJECT004
10
0
20
0
30
0
70
128
71
6
72
7
73
-8
0
VERTEX
8
OBJECT004
10
0
20
0
30
0
70
128
71
-6
72
8
73
5
0
VERTEX
8
OBJECT004
10
0
20
0
30
0
70
128
71
6
72
2
73
-1
0
VERTEX
8
OBJECT004
10
0
20
0
30
0
70
128
71
-6
72
1
73
7
0
VERTEX
8
OBJECT004
10
0
20
0
30
0
70
128
71
5
72
3
73
-2
0
VERTEX
8
OBJECT004
10
0
20
0
30
0
70
128
71
-5
72
2
73
6
0
VERTEX
8
OBJECT004
10
0
20
0
30
0
70
128
71
3
72
5
73
-8
0
VERTEX
8
OBJECT004
10
0
20
0
30
0
70
128
71
-3
72
8
73
4
0
VERTEX
8
OBJECT004
10
0
20
0
30
0
70
128
71
4
72
8
73
-7
0
VERTEX
8
OBJECT004
10
0
20
0
30
0
70
128
71
-4
72
7
73
1
0
SEQEND
8
OBJECT004
0
POLYLINE
8
OBJECT005
66
1
70
64
71
8
72
12
62
50
0
VERTEX
8
OBJECT005
10
646.000000
20
-375.648743
30
-260.000000
70
192
0
VERTEX
8
OBJECT005
10
656.000000
20
-375.648743
30
-260.000000
70
192
0
VERTEX
8
OBJECT005
10
656.000000
20
-372.000000
30
-249.387787
70
192
0
VERTEX
8
OBJECT005
10
646.000000
20
-372.000000
30
-249.387787
70
192
0
VERTEX
8
OBJECT005
10
646.000000
20
-406.000000
30
-249.091553
70
192
0
VERTEX
8
OBJECT005
10
656.000000
20
-406.000000
30
-249.091553
70
192
0
VERTEX
8
OBJECT005
10
656.000000
20
-406.000000
30
-260.000000
70
192
0
VERTEX
8
OBJECT005
10
646.000000
20
-406.000000
30
-260.000000
70
192
0
VERTEX
8
OBJECT005
10
0
20
0
30
0
70
128
71
2
72
3
73
-4
0
VERTEX
8
OBJECT005
10
0
20
0
30
0
70
128
71
-2
72
4
73
1
0
VERTEX
8
OBJECT005
10
0
20
0
30
0
70
128
71
4
72
3
73
-6
0
VERTEX
8
OBJECT005
10
0
20
0
30
0
70
128
71
-4
72
6
73
5
0
VERTEX
8
OBJECT005
10
0
20
0
30
0
70
128
71
2
72
7
73
-6
0
VERTEX
8
OBJECT005
10
0
20
0
30
0
70
128
71
-2
72
6
73
3
0
VERTEX
8
OBJECT005
10
0
20
0
30
0
70
128
71
1
72
8
73
-7
0
VERTEX
8
OBJECT005
10
0
20
0
30
0
70
128
71
-1
72
7
73
2
0
VERTEX
8
OBJECT005
10
0
20
0
30
0
70
128
71
1
72
4
73
-5
0
VERTEX
8
OBJECT005
10
0
20
0
30
0
70
128
71
-1
72
5
73
8
0
VERTEX
8
OBJECT005
10
0
20
0
30
0
70
128
71
6
72
7
73
-8
0
VERTEX
8
OBJECT005
10
0
20
0
30
0
70
128
71
-6
72
8
73
5
0
SEQEND
8
OBJECT005
0
POLYLINE
8
OBJECT006
66
1
70
64
71
12
72
20
62
50
0
VERTEX
8
OBJECT006
10
656.000000
20
-433.550354
30
-288.443939
70
192
0
VERTEX
8
OBJECT006
10
576.000000
20
-433.550354
30
-288.443939
70
192
0
VERTEX
8
OBJECT006
10
576.000000
20
-446.804565
30
-278.329132
70
192
0
VERTEX
8
OBJECT006
10
656.000000
20
-446.804565
30
-278.329132
70
192
0
VERTEX
8
OBJECT006
10
576.000000
20
-456.731873
30
-264.857422
70
192
0
VERTEX
8
OBJECT006
10
656.000000
20
-456.731873
30
-264.857422
70
192
0
VERTEX
8
OBJECT006
10
656.000000
20
-417.397278
30
-294.000000
70
192
0
VERTEX
8
OBJECT006
10
576.000000
20
-417.397278
30
-294.000000
70
192
0
VERTEX
8
OBJECT006
10
576.000000
20
-458.307098
30
-260.000000
70
192
0
VERTEX
8
OBJECT006
10
656.000000
20
-458.307098
30
-260.000000
70
192
0
VERTEX
8
OBJECT006
10
656.000000
20
-417.105408
30
-260.000000
70
192
0
VERTEX
8
OBJECT006
10
576.000000
20
-417.105408
30
-260.000000
70
192
0
VERTEX
8
OBJECT006
10
0
20
0
30
0
70
128
71
2
72
3
73
-4
0
VERTEX
8
OBJECT006
10
0
20
0
30
0
70
128
71
-2
72
4
73
1
0
VERTEX
8
OBJECT006
10
0
20
0
30
0
70
128
71
3
72
5
73
-6
0
VERTEX
8
OBJECT006
10
0
20
0
30
0
70
128
71
-3
72
6
73
4
0
VERTEX
8
OBJECT006
10
0
20
0
30
0
70
128
71
8
72
2
73
-1
0
VERTEX
8
OBJECT006
10
0
20
0
30
0
70
128
71
-8
72
1
73
7
0
VERTEX
8
OBJECT006
10
0
20
0
30
0
70
128
71
5
72
9
73
-10
0
VERTEX
8
OBJECT006
10
0
20
0
30
0
70
128
71
-5
72
10
73
6
0
VERTEX
8
OBJECT006
10
0
20
0
30
0
70
128
71
7
72
11
73
-12
0
VERTEX
8
OBJECT006
10
0
20
0
30
0
70
128
71
-7
72
12
73
8
0
VERTEX
8
OBJECT006
10
0
20
0
30
0
70
128
71
5
72
3
73
-2
0
VERTEX
8
OBJECT006
10
0
20
0
30
0
70
128
71
-5
72
2
73
-8
0
VERTEX
8
OBJECT006
10
0
20
0
30
0
70
128
71
-5
72
8
73
-12
0
VERTEX
8
OBJECT006
10
0
20
0
30
0
70
128
71
-5
72
12
73
9
0
VERTEX
8
OBJECT006
10
0
20
0
30
0
70
128
71
7
72
1
73
-4
0
VERTEX
8
OBJECT006
10
0
20
0
30
0
70
128
71
-7
72
4
73
-6
0
VERTEX
8
OBJECT006
10
0
20
0
30
0
70
128
71
-7
72
6
73
-10
0
VERTEX
8
OBJECT006
10
0
20
0
30
0
70
128
71
-7
72
10
73
11
0
VERTEX
8
OBJECT006
10
0
20
0
30
0
70
128
71
9
72
12
73
-11
0
VERTEX
8
OBJECT006
10
0
20
0
30
0
70
128
71
-9
72
11
73
10
0
SEQEND
8
OBJECT006
0
POLYLINE
8
OBJECT007
66
1
70
64
71
8
72
12
62
50
0
VERTEX
8
OBJECT007
10
576.000000
20
-458.307098
30
-260.000000
70
192
0
VERTEX
8
OBJECT007
10
576.000000
20
-462.000000
30
-248.599030
70
192
0
VERTEX
8
OBJECT007
10
646.000000
20
-462.000000
30
-248.599030
70
192
0
VERTEX
8
OBJECT007
10
646.000000
20
-458.307098
30
-260.000000
70
192
0
VERTEX
8
OBJECT007
10
646.000000
20
-417.010925
30
-249.000000
70
192
0
VERTEX
8
OBJECT007
10
576.000000
20
-417.010925
30
-249.000000
70
192
0
VERTEX
8
OBJECT007
10
576.000000
20
-417.105408
30
-260.000000
70
192
0
VERTEX
8
OBJECT007
10
646.000000
20
-417.105408
30
-260.000000
70
192
0
VERTEX
8
OBJECT007
10
0
20
0
30
0
70
128
71
2
72
3
73
-4
0
VERTEX
8
OBJECT007
10
0
20
0
30
0
70
128
71
-2
72
4
73
1
0
VERTEX
8
OBJECT007
10
0
20
0
30
0
70
128
71
6
72
7
73
-8
0
VERTEX
8
OBJECT007
10
0
20
0
30
0
70
128
71
-6
72
8
73
5
0
VERTEX
8
OBJECT007
10
0
20
0
30
0
70
128
71
2
72
6
73
-5
0
VERTEX
8
OBJECT007
10
0
20
0
30
0
70
128
71
-2
72
5
73
3
0
VERTEX
8
OBJECT007
10
0
20
0
30
0
70
128
71
1
72
7
73
-6
0
VERTEX
8
OBJECT007
10
0
20
0
30
0
70
128
71
-1
72
6
73
2
0
VERTEX
8
OBJECT007
10
0
20
0
30
0
70
128
71
7
72
1
73
-4
0
VERTEX
8
OBJECT007
10
0
20
0
30
0
70
128
71
-7
72
4
73
8
0
VERTEX
8
OBJECT007
10
0
20
0
30
0
70
128
71
8
72
4
73
-3
0
VERTEX
8
OBJECT007
10
0
20
0
30
0
70
128
71
-8
72
3
73
5
0
SEQEND
8
OBJECT007
0
POLYLINE
8
OBJECT008
66
1
70
64
71
8
72
12
62
50
0
VERTEX
8
OBJECT008
10
646.000000
20
-462.000000
30
-248.599030
70
192
0
VERTEX
8
OBJECT008
10
656.000000
20
-462.000000
30
-248.599030
70
192
0
VERTEX
8
OBJECT008
10
656.000000
20
-458.307098
30
-260.000000
70
192
0
VERTEX
8
OBJECT008
10
646.000000
20
-458.307098
30
-260.000000
70
192
0
VERTEX
8
OBJECT008
10
646.000000
20
-428.000000
30
-248.897644
70
192
0
VERTEX
8
OBJECT008
10
656.000000
20
-428.000000
30
-248.897644
70
192
0
VERTEX
8
OBJECT008
10
656.000000
20
-428.000000
30
-260.000000
70
192
0
VERTEX
8
OBJECT008
10
646.000000
20
-428.000000
30
-260.000000
70
192
0
VERTEX
8
OBJECT008
10
0
20
0
30
0
70
128
71
2
72
3
73
-4
0
VERTEX
8
OBJECT008
10
0
20
0
30
0
70
128
71
-2
72
4
73
1
0
VERTEX
8
OBJECT008
10
0
20
0
30
0
70
128
71
1
72
5
73
-6
0
VERTEX
8
OBJECT008
10
0
20
0
30
0
70
128
71
-1
72
6
73
2
0
VERTEX
8
OBJECT008
10
0
20
0
30
0
70
128
71
3
72
2
73
-6
0
VERTEX
8
OBJECT008
10
0
20
0
30
0
70
128
71
-3
72
6
73
7
0
VERTEX
8
OBJECT008
10
0
20
0
30
0
70
128
71
4
72
3
73
-7
0
VERTEX
8
OBJECT008
10
0
20
0
30
0
70
128
71
-4
72
7
73
8
0
VERTEX
8
OBJECT008
10
0
20
0
30
0
70
128
71
4
72
8
73
-5
0
VERTEX
8
OBJECT008
10
0
20
0
30
0
70
128
71
-4
72
5
73
1
0
VERTEX
8
OBJECT008
10
0
20
0
30
0
70
128
71
7
72
6
73
-5
0
VERTEX
8
OBJECT008
10
0
20
0
30
0
70
128
71
-7
72
5
73
8
0
SEQEND
8
OBJECT008
0
POLYLINE
8
OBJECT009
66
1
70
64
71
12
72
20
62
50
0
VERTEX
8
OBJECT009
10
656.000000
20
-446.299805
30
-219.153809
70
192
0
VERTEX
8
OBJECT009
10
576.000000
20
-446.299805
30
-219.153809
70
192
0
VERTEX
8
OBJECT009
10
576.000000
20
-432.872375
30
-209.264648
70
192
0
VERTEX
8
OBJECT009
10
656.000000
20
-432.872375
30
-209.264648
70
192
0
VERTEX
8
OBJECT009
10
656.000000
20
-456.452881
30
-232.441635
70
192
0
VERTEX
8
OBJECT009
10
576.000000
20
-456.452881
30
-232.441635
70
192
0
VERTEX
8
OBJECT009
10
576.000000
20
-416.629150
30
-204.000000
70
192
0
VERTEX
8
OBJECT009
10
656.000000
20
-416.629150
30
-204.000000
70
192
0
VERTEX
8
OBJECT009
10
576.000000
20
-458.360840
30
-238.000000
70
192
0
VERTEX
8
OBJECT009
10
656.000000
20
-458.360840
30
-238.000000
70
192
0
VERTEX
8
OBJECT009
10
656.000000
20
-416.912048
30
-238.000000
70
192
0
VERTEX
8
OBJECT009
10
576.000000
20
-416.912048
30
-238.000000
70
192
0
VERTEX
8
OBJECT009
10
0
20
0
30
0
70
128
71
2
72
3
73
-4
0
VERTEX
8
OBJECT009
10
0
20
0
30
0
70
128
71
-2
72
4
73
1
0
VERTEX
8
OBJECT009
10
0
20
0
30
0
70
128
71
6
72
2
73
-1
0
VERTEX
8
OBJECT009
10
0
20
0
30
0
70
128
71
-6
72
1
73
5
0
VERTEX
8
OBJECT009
10
0
20
0
30
0
70
128
71
3
72
7
73
-8
0
VERTEX
8
OBJECT009
10
0
20
0
30
0
70
128
71
-3
72
8
73
4
0
VERTEX
8
OBJECT009
10
0
20
0
30
0
70
128
71
6
72
5
73
-10
0
VERTEX
8
OBJECT009
10
0
20
0
30
0
70
128
71
-6
72
10
73
9
0
VERTEX
8
OBJECT009
10
0
20
0
30
0
70
128
71
8
72
7
73
-12
0
VERTEX
8
OBJECT009
10
0
20
0
30
0
70
128
71
-8
72
12
73
11
0
VERTEX
8
OBJECT009
10
0
20
0
30
0
70
128
71
7
72
3
73
-2
0
VERTEX
8
OBJECT009
10
0
20
0
30
0
70
128
71
-7
72
2
73
-6
0
VERTEX
8
OBJECT009
10
0
20
0
30
0
70
128
71
-7
72
6
73
-9
0
VERTEX
8
OBJECT009
10
0
20
0
30
0
70
128
71
-7
72
9
73
12
0
VERTEX
8
OBJECT009
10
0
20
0
30
0
70
128
71
5
72
1
73
-4
0
VERTEX
8
OBJECT009
10
0
20
0
30
0
70
128
71
-5
72
4
73
-8
0
VERTEX
8
OBJECT009
10
0
20
0
30
0
70
128
71
-5
72
8
73
-11
0
VERTEX
8
OBJECT009
10
0
20
0
30
0
70
128
71
-5
72
11
73
10
0
VERTEX
8
OBJECT009
10
0
20
0
30
0
70
128
71
12
72
9
73
-10
0
VERTEX
8
OBJECT009
10
0
20
0
30
0
70
128
71
-12
72
10
73
11
0
SEQEND
8
OBJECT009
0
POLYLINE
8
OBJECT010
66
1
70
64
71
8
72
12
62
50
0
VERTEX
8
OBJECT010
10
646.000000
20
-462.000000
30
-248.600693
70
192
0
VERTEX
8
OBJECT010
10
576.000000
20
-462.000000
30
-248.600693
70
192
0
VERTEX
8
OBJECT010
10
576.000000
20
-458.360840
30
-238.000000
70
192
0
VERTEX
8
OBJECT010
10
646.000000
20
-458.360840
30
-238.000000
70
192
0
VERTEX
8
OBJECT010
10
576.000000
20
-417.000000
30
-249.000000
70
192
0
VERTEX
8
OBJECT010
10
646.000000
20
-417.000000
30
-249.000000
70
192
0
VERTEX
8
OBJECT010
10
646.000000
20
-416.912048
30
-238.000000
70
192
0
VERTEX
8
OBJECT010
10
576.000000
20
-416.912048
30
-238.000000
70
192
0
VERTEX
8
OBJECT010
10
0
20
0
30
0
70
128
71
2
72
3
73
-4
0
VERTEX
8
OBJECT010
10
0
20
0
30
0
70
128
71
-2
72
4
73
1
0
VERTEX
8
OBJECT010
10
0
20
0
30
0
70
128
71
6
72
7
73
-8
0
VERTEX
8
OBJECT010
10
0
20
0
30
0
70
128
71
-6
72
8
73
5
0
VERTEX
8
OBJECT010
10
0
20
0
30
0
70
128
71
5
72
2
73
-1
0
VERTEX
8
OBJECT010
10
0
20
0
30
0
70
128
71
-5
72
1
73
6
0
VERTEX
8
OBJECT010
10
0
20
0
30
0
70
128
71
2
72
5
73
-8
0
VERTEX
8
OBJECT010
10
0
20
0
30
0
70
128
71
-2
72
8
73
3
0
VERTEX
8
OBJECT010
10
0
20
0
30
0
70
128
71
3
72
8
73
-7
0
VERTEX
8
OBJECT010
10
0
20
0
30
0
70
128
71
-3
72
7
73
4
0
VERTEX
8
OBJECT010
10
0
20
0
30
0
70
128
71
4
72
7
73
-6
0
VERTEX
8
OBJECT010
10
0
20
0
30
0
70
128
71
-4
72
6
73
1
0
SEQEND
8
OBJECT010
0
POLYLINE
8
OBJECT011
66
1
70
64
71
8
72
12
62
50
0
VERTEX
8
OBJECT011
10
656.000000
20
-462.000000
30
-248.600693
70
192
0
VERTEX
8
OBJECT011
10
646.000000
20
-462.000000
30
-248.600693
70
192
0
VERTEX
8
OBJECT011
10
646.000000
20
-458.360840
30
-238.000000
70
192
0
VERTEX
8
OBJECT011
10
656.000000
20
-458.360840
30
-238.000000
70
192
0
VERTEX
8
OBJECT011
10
646.000000
20
-428.000000
30
-248.906433
70
192
0
VERTEX
8
OBJECT011
10
656.000000
20
-428.000000
30
-248.906433
70
192
0
VERTEX
8
OBJECT011
10
656.000000
20
-428.000000
30
-238.000000
70
192
0
VERTEX
8
OBJECT011
10
646.000000
20
-428.000000
30
-238.000000
70
192
0
VERTEX
8
OBJECT011
10
0
20
0
30
0
70
128
71
2
72
3
73
-4
0
VERTEX
8
OBJECT011
10
0
20
0
30
0
70
128
71
-2
72
4
73
1
0
VERTEX
8
OBJECT011
10
0
20
0
30
0
70
128
71
2
72
1
73
-6
0
VERTEX
8
OBJECT011
10
0
20
0
30
0
70
128
71
-2
72
6
73
5
0
VERTEX
8
OBJECT011
10
0
20
0
30
0
70
128
71
4
72
7
73
-6
0
VERTEX
8
OBJECT011
10
0
20
0
30
0
70
128
71
-4
72
6
73
1
0
VERTEX
8
OBJECT011
10
0
20
0
30
0
70
128
71
3
72
8
73
-7
0
VERTEX
8
OBJECT011
10
0
20
0
30
0
70
128
71
-3
72
7
73
4
0
VERTEX
8
OBJECT011
10
0
20
0
30
0
70
128
71
2
72
5
73
-8
0
VERTEX
8
OBJECT011
10
0
20
0
30
0
70
128
71
-2
72
8
73
3
0
VERTEX
8
OBJECT011
10
0
20
0
30
0
70
128
71
6
72
7
73
-8
0
VERTEX
8
OBJECT011
10
0
20
0
30
0
70
128
71
-6
72
8
73
5
0
SEQEND
8
OBJECT011
0
POLYLINE
8
OBJECT012
66
1
70
64
71
8
72
12
62
50
0
VERTEX
8
OBJECT012
10
626.000000
20
-812.000000
30
-248.600708
70
192
0
VERTEX
8
OBJECT012
10
576.000000
20
-812.000000
30
-248.600708
70
192
0
VERTEX
8
OBJECT012
10
576.000000
20
-809.047241
30
-240.000000
70
192
0
VERTEX
8
OBJECT012
10
626.000000
20
-809.047241
30
-240.000000
70
192
0
VERTEX
8
OBJECT012
10
576.000000
20
-767.000000
30
-249.000000
70
192
0
VERTEX
8
OBJECT012
10
626.000000
20
-767.000000
30
-249.000000
70
192
0
VERTEX
8
OBJECT012
10
626.000000
20
-766.928528
30
-240.000000
70
192
0
VERTEX
8
OBJECT012
10
576.000000
20
-766.928528
30
-240.000000
70
192
0
VERTEX
8
OBJECT012
10
0
20
0
30
0
70
128
71
2
72
3
73
-4
0
VERTEX
8
OBJECT012
10
0
20
0
30
0
70
128
71
-2
72
4
73
1
0
VERTEX
8
OBJECT012
10
0
20
0
30
0
70
128
71
6
72
7
73
-8
0
VERTEX
8
OBJECT012
10
0
20
0
30
0
70
128
71
-6
72
8
73
5
0
VERTEX
8
OBJECT012
10
0
20
0
30
0
70
128
71
5
72
2
73
-1
0
VERTEX
8
OBJECT012
10
0
20
0
30
0
70
128
71
-5
72
1
73
6
0
VERTEX
8
OBJECT012
10
0
20
0
30
0
70
128
71
8
72
3
73
-2
0
VERTEX
8
OBJECT012
10
0
20
0
30
0
70
128
71
-8
72
2
73
5
0
VERTEX
8
OBJECT012
10
0
20
0
30
0
70
128
71
4
72
7
73
-6
0
VERTEX
8
OBJECT012
10
0
20
0
30
0
70
128
71
-4
72
6
73
1
0
VERTEX
8
OBJECT012
10
0
20
0
30
0
70
128
71
3
72
8
73
-7
0
VERTEX
8
OBJECT012
10
0
20
0
30
0
70
128
71
-3
72
7
73
4
0
SEQEND
8
OBJECT012
0
POLYLINE
8
OBJECT013
66
1
70
64
71
12
72
20
62
50
0
VERTEX
8
OBJECT013
10
672.000000
20
-796.300598
30
-219.154938
70
192
0
VERTEX
8
OBJECT013
10
626.000000
20
-796.300598
30
-219.154938
70
192
0
VERTEX
8
OBJECT013
10
626.000000
20
-782.871033
30
-209.264206
70
192
0
VERTEX
8
OBJECT013
10
672.000000
20
-782.871033
30
-209.264206
70
192
0
VERTEX
8
OBJECT013
10
672.000000
20
-806.453613
30
-232.443802
70
192
0
VERTEX
8
OBJECT013
10
626.000000
20
-806.453613
30
-232.443802
70
192
0
VERTEX
8
OBJECT013
10
626.000000
20
-766.629150
30
-204.000000
70
192
0
VERTEX
8
OBJECT013
10
672.000000
20
-766.629150
30
-204.000000
70
192
0
VERTEX
8
OBJECT013
10
626.000000
20
-808.360657
30
-238.000000
70
192
0
VERTEX
8
OBJECT013
10
672.000000
20
-808.360657
30
-238.000000
70
192
0
VERTEX
8
OBJECT013
10
672.000000
20
-766.911926
30
-238.000000
70
192
0
VERTEX
8
OBJECT013
10
626.000000
20
-766.911926
30
-238.000000
70
192
0
VERTEX
8
OBJECT013
10
0
20
0
30
0
70
128
71
2
72
3
73
-4
0
VERTEX
8
OBJECT013
10
0
20
0
30
0
70
128
71
-2
72
4
73
1
0
VERTEX
8
OBJECT013
10
0
20
0
30
0
70
128
71
6
72
2
73
-1
0
VERTEX
8
OBJECT013
10
0
20
0
30
0
70
128
71
-6
72
1
73
5
0
VERTEX
8
OBJECT013
10
0
20
0
30
0
70
128
71
3
72
7
73
-8
0
VERTEX
8
OBJECT013
10
0
20
0
30
0
70
128
71
-3
72
8
73
4
0
VERTEX
8
OBJECT013
10
0
20
0
30
0
70
128
71
6
72
5
73
-10
0
VERTEX
8
OBJECT013
10
0
20
0
30
0
70
128
71
-6
72
10
73
9
0
VERTEX
8
OBJECT013
10
0
20
0
30
0
70
128
71
8
72
7
73
-12
0
VERTEX
8
OBJECT013
10
0
20
0
30
0
70
128
71
-8
72
12
73
11
0
VERTEX
8
OBJECT013
10
0
20
0
30
0
70
128
71
5
72
1
73
-4
0
VERTEX
8
OBJECT013
10
0
20
0
30
0
70
128
71
-5
72
4
73
-8
0
VERTEX
8
OBJECT013
10
0
20
0
30
0
70
128
71
-5
72
8
73
-11
0
VERTEX
8
OBJECT013
10
0
20
0
30
0
70
128
71
-5
72
11
73
10
0
VERTEX
8
OBJECT013
10
0
20
0
30
0
70
128
71
7
72
3
73
-2
0
VERTEX
8
OBJECT013
10
0
20
0
30
0
70
128
71
-7
72
2
73
-6
0
VERTEX
8
OBJECT013
10
0
20
0
30
0
70
128
71
-7
72
6
73
-9
0
VERTEX
8
OBJECT013
10
0
20
0
30
0
70
128
71
-7
72
9
73
12
0
VERTEX
8
OBJECT013
10
0
20
0
30
0
70
128
71
12
72
9
73
-10
0
VERTEX
8
OBJECT013
10
0
20
0
30
0
70
128
71
-12
72
10
73
11
0
SEQEND
8
OBJECT013
0
POLYLINE
8
OBJECT014
66
1
70
64
71
8
72
12
62
50
0
VERTEX
8
OBJECT014
10
646.000000
20
-812.000000
30
-248.600708
70
192
0
VERTEX
8
OBJECT014
10
626.000000
20
-812.000000
30
-248.600708
70
192
0
VERTEX
8
OBJECT014
10
626.000000
20
-808.360657
30
-238.000000
70
192
0
VERTEX
8
OBJECT014
10
646.000000
20
-808.360657
30
-238.000000
70
192
0
VERTEX
8
OBJECT014
10
626.000000
20
-767.000000
30
-249.000000
70
192
0
VERTEX
8
OBJECT014
10
646.000000
20
-767.000000
30
-249.000000
70
192
0
VERTEX
8
OBJECT014
10
646.000000
20
-766.911987
30
-238.000000
70
192
0
VERTEX
8
OBJECT014
10
626.000000
20
-766.911987
30
-238.000000
70
192
0
VERTEX
8
OBJECT014
10
0
20
0
30
0
70
128
71
2
72
3
73
-4
0
VERTEX
8
OBJECT014
10
0
20
0
30
0
70
128
71
-2
72
4
73
1
0
VERTEX
8
OBJECT014
10
0
20
0
30
0
70
128
71
6
72
7
73
-8
0
VERTEX
8
OBJECT014
10
0
20
0
30
0
70
128
71
-6
72
8
73
5
0
VERTEX
8
OBJECT014
10
0
20
0
30
0
70
128
71
5
72
2
73
-1
0
VERTEX
8
OBJECT014
10
0
20
0
30
0
70
128
71
-5
72
1
73
6
0
VERTEX
8
OBJECT014
10
0
20
0
30
0
70
128
71
2
72
5
73
-8
0
VERTEX
8
OBJECT014
10
0
20
0
30
0
70
128
71
-2
72
8
73
3
0
VERTEX
8
OBJECT014
10
0
20
0
30
0
70
128
71
3
72
8
73
-7
0
VERTEX
8
OBJECT014
10
0
20
0
30
0
70
128
71
-3
72
7
73
4
0
VERTEX
8
OBJECT014
10
0
20
0
30
0
70
128
71
4
72
7
73
-6
0
VERTEX
8
OBJECT014
10
0
20
0
30
0
70
128
71
-4
72
6
73
1
0
SEQEND
8
OBJECT014
0
POLYLINE
8
OBJECT015
66
1
70
64
71
8
72
12
62
50
0
VERTEX
8
OBJECT015
10
672.000000
20
-812.000000
30
-248.600708
70
192
0
VERTEX
8
OBJECT015
10
646.000000
20
-812.000000
30
-248.600708
70
192
0
VERTEX
8
OBJECT015
10
646.000000
20
-808.360657
30
-238.000000
70
192
0
VERTEX
8
OBJECT015
10
672.000000
20
-808.360657
30
-238.000000
70
192
0
VERTEX
8
OBJECT015
10
646.000000
20
-778.000000
30
-248.906433
70
192
0
VERTEX
8
OBJECT015
10
672.000000
20
-778.000000
30
-248.906433
70
192
0
VERTEX
8
OBJECT015
10
672.000000
20
-778.000000
30
-238.000000
70
192
0
VERTEX
8
OBJECT015
10
646.000000
20
-778.000000
30
-238.000000
70
192
0
VERTEX
8
OBJECT015
10
0
20
0
30
0
70
128
71
2
72
3
73
-4
0
VERTEX
8
OBJECT015
10
0
20
0
30
0
70
128
71
-2
72
4
73
1
0
VERTEX
8
OBJECT015
10
0
20
0
30
0
70
128
71
2
72
1
73
-6
0
VERTEX
8
OBJECT015
10
0
20
0
30
0
70
128
71
-2
72
6
73
5
0
VERTEX
8
OBJECT015
10
0
20
0
30
0
70
128
71
4
72
7
73
-6
0
VERTEX
8
OBJECT015
10
0
20
0
30
0
70
128
71
-4
72
6
73
1
0
VERTEX
8
OBJECT015
10
0
20
0
30
0
70
128
71
3
72
8
73
-7
0
VERTEX
8
OBJECT015
10
0
20
0
30
0
70
128
71
-3
72
7
73
4
0
VERTEX
8
OBJECT015
10
0
20
0
30
0
70
128
71
2
72
5
73
-8
0
VERTEX
8
OBJECT015
10
0
20
0
30
0
70
128
71
-2
72
8
73
3
0
VERTEX
8
OBJECT015
10
0
20
0
30
0
70
128
71
6
72
7
73
-8
0
VERTEX
8
OBJECT015
10
0
20
0
30
0
70
128
71
-6
72
8
73
5
0
SEQEND
8
OBJECT015
0
POLYLINE
8
OBJECT016
66
1
70
64
71
8
72
12
62
50
0
VERTEX
8
OBJECT016
10
576.000000
20
-722.000000
30
-249.368149
70
192
0
VERTEX
8
OBJECT016
10
626.000000
20
-722.000000
30
-249.368149
70
192
0
VERTEX
8
OBJECT016
10
626.000000
20
-725.043518
30
-240.000000
70
192
0
VERTEX
8
OBJECT016
10
576.000000
20
-725.043518
30
-240.000000
70
192
0
VERTEX
8
OBJECT016
10
626.000000
20
-767.000000
30
-249.000000
70
192
0
VERTEX
8
OBJECT016
10
576.000000
20
-767.000000
30
-249.000000
70
192
0
VERTEX
8
OBJECT016
10
576.000000
20
-766.928711
30
-240.000000
70
192
0
VERTEX
8
OBJECT016
10
626.000000
20
-766.928711
30
-240.000000
70
192
0
VERTEX
8
OBJECT016
10
0
20
0
30
0
70
128
71
2
72
3
73
-4
0
VERTEX
8
OBJECT016
10
0
20
0
30
0
70
128
71
-2
72
4
73
1
0
VERTEX
8
OBJECT016
10
0
20
0
30
0
70
128
71
6
72
7
73
-8
0
VERTEX
8
OBJECT016
10
0
20
0
30
0
70
128
71
-6
72
8
73
5
0
VERTEX
8
OBJECT016
10
0
20
0
30
0
70
128
71
1
72
6
73
-5
0
VERTEX
8
OBJECT016
10
0
20
0
30
0
70
128
71
-1
72
5
73
2
0
VERTEX
8
OBJECT016
10
0
20
0
30
0
70
128
71
4
72
7
73
-6
0
VERTEX
8
OBJECT016
10
0
20
0
30
0
70
128
71
-4
72
6
73
1
0
VERTEX
8
OBJECT016
10
0
20
0
30
0
70
128
71
8
72
3
73
-2
0
VERTEX
8
OBJECT016
10
0
20
0
30
0
70
128
71
-8
72
2
73
5
0
VERTEX
8
OBJECT016
10
0
20
0
30
0
70
128
71
7
72
4
73
-3
0
VERTEX
8
OBJECT016
10
0
20
0
30
0
70
128
71
-7
72
3
73
8
0
SEQEND
8
OBJECT016
0
POLYLINE
8
OBJECT017
66
1
70
64
71
12
72
20
62
50
0
VERTEX
8
OBJECT017
10
672.000000
20
-750.486267
30
-209.526932
70
192
0
VERTEX
8
OBJECT017
10
626.000000
20
-750.486267
30
-209.526932
70
192
0
VERTEX
8
OBJECT017
10
626.000000
20
-737.206726
30
-219.659241
70
192
0
VERTEX
8
OBJECT017
10
672.000000
20
-737.206726
30
-219.659241
70
192
0
VERTEX
8
OBJECT017
10
626.000000
20
-727.266907
30
-233.146774
70
192
0
VERTEX
8
OBJECT017
10
672.000000
20
-727.266907
30
-233.146774
70
192
0
VERTEX
8
OBJECT017
10
672.000000
20
-766.628723
30
-204.000000
70
192
0
VERTEX
8
OBJECT017
10
626.000000
20
-766.628723
30
-204.000000
70
192
0
VERTEX
8
OBJECT017
10
672.000000
20
-725.692017
30
-238.000000
70
192
0
VERTEX
8
OBJECT017
10
626.000000
20
-725.692017
30
-238.000000
70
192
0
VERTEX
8
OBJECT017
10
626.000000
20
-766.912048
30
-238.000000
70
192
0
VERTEX
8
OBJECT017
10
672.000000
20
-766.912048
30
-238.000000
70
192
0
VERTEX
8
OBJECT017
10
0
20
0
30
0
70
128
71
2
72
3
73
-4
0
VERTEX
8
OBJECT017
10
0
20
0
30
0
70
128
71
-2
72
4
73
1
0
VERTEX
8
OBJECT017
10
0
20
0
30
0
70
128
71
6
72
4
73
-3
0
VERTEX
8
OBJECT017
10
0
20
0
30
0
70
128
71
-6
72
3
73
5
0
VERTEX
8
OBJECT017
10
0
20
0
30
0
70
128
71
8
72
2
73
-1
0
VERTEX
8
OBJECT017
10
0
20
0
30
0
70
128
71
-8
72
1
73
7
0
VERTEX
8
OBJECT017
10
0
20
0
30
0
70
128
71
6
72
5
73
-10
0
VERTEX
8
OBJECT017
10
0
20
0
30
0
70
128
71
-6
72
10
73
9
0
VERTEX
8
OBJECT017
10
0
20
0
30
0
70
128
71
8
72
7
73
-12
0
VERTEX
8
OBJECT017
10
0
20
0
30
0
70
128
71
-8
72
12
73
11
0
VERTEX
8
OBJECT017
10
0
20
0
30
0
70
128
71
7
72
1
73
-4
0
VERTEX
8
OBJECT017
10
0
20
0
30
0
70
128
71
-7
72
4
73
-6
0
VERTEX
8
OBJECT017
10
0
20
0
30
0
70
128
71
-7
72
6
73
-9
0
VERTEX
8
OBJECT017
10
0
20
0
30
0
70
128
71
-7
72
9
73
12
0
VERTEX
8
OBJECT017
10
0
20
0
30
0
70
128
71
5
72
3
73
-2
0
VERTEX
8
OBJECT017
10
0
20
0
30
0
70
128
71
-5
72
2
73
-8
0
VERTEX
8
OBJECT017
10
0
20
0
30
0
70
128
71
-5
72
8
73
-11
0
VERTEX
8
OBJECT017
10
0
20
0
30
0
70
128
71
-5
72
11
73
10
0
VERTEX
8
OBJECT017
10
0
20
0
30
0
70
128
71
10
72
11
73
-12
0
VERTEX
8
OBJECT017
10
0
20
0
30
0
70
128
71
-10
72
12
73
9
0
SEQEND
8
OBJECT017
0
POLYLINE
8
OBJECT018
66
1
70
64
71
8
72
12
62
50
0
VERTEX
8
OBJECT018
10
626.000000
20
-722.000000
30
-249.368149
70
192
0
VERTEX
8
OBJECT018
10
646.000000
20
-722.000000
30
-249.368149
70
192
0
VERTEX
8
OBJECT018
10
646.000000
20
-725.692078
30
-238.000000
70
192
0
VERTEX
8
OBJECT018
10
626.000000
20
-725.692078
30
-238.000000
70
192
0
VERTEX
8
OBJECT018
10
646.000000
20
-767.000000
30
-249.000000
70
192
0
VERTEX
8
OBJECT018
10
626.000000
20
-767.000000
30
-249.000000
70
192
0
VERTEX
8
OBJECT018
10
626.000000
20
-766.911987
30
-238.000000
70
192
0
VERTEX
8
OBJECT018
10
646.000000
20
-766.911987
30
-238.000000
70
192
0
VERTEX
8
OBJECT018
10
0
20
0
30
0
70
128
71
2
72
3
73
-4
0
VERTEX
8
OBJECT018
10
0
20
0
30
0
70
128
71
-2
72
4
73
1
0
VERTEX
8
OBJECT018
10
0
20
0
30
0
70
128
71
6
72
7
73
-8
0
VERTEX
8
OBJECT018
10
0
20
0
30
0
70
128
71
-6
72
8
73
5
0
VERTEX
8
OBJECT018
10
0
20
0
30
0
70
128
71
1
72
6
73
-5
0
VERTEX
8
OBJECT018
10
0
20
0
30
0
70
128
71
-1
72
5
73
2
0
VERTEX
8
OBJECT018
10
0
20
0
30
0
70
128
71
4
72
7
73
-6
0
VERTEX
8
OBJECT018
10
0
20
0
30
0
70
128
71
-4
72
6
73
1
0
VERTEX
8
OBJECT018
10
0
20
0
30
0
70
128
71
7
72
4
73
-3
0
VERTEX
8
OBJECT018
10
0
20
0
30
0
70
128
71
-7
72
3
73
8
0
VERTEX
8
OBJECT018
10
0
20
0
30
0
70
128
71
2
72
5
73
-8
0
VERTEX
8
OBJECT018
10
0
20
0
30
0
70
128
71
-2
72
8
73
3
0
SEQEND
8
OBJECT018
0
POLYLINE
8
OBJECT019
66
1
70
64
71
8
72
12
62
50
0
VERTEX
8
OBJECT019
10
646.000000
20
-722.000000
30
-249.368149
70
192
0
VERTEX
8
OBJECT019
10
672.000000
20
-722.000000
30
-249.368149
70
192
0
VERTEX
8
OBJECT019
10
672.000000
20
-725.692078
30
-238.000000
70
192
0
VERTEX
8
OBJECT019
10
646.000000
20
-725.692078
30
-238.000000
70
192
0
VERTEX
8
OBJECT019
10
646.000000
20
-756.000000
30
-249.085602
70
192
0
VERTEX
8
OBJECT019
10
672.000000
20
-756.000000
30
-249.085602
70
192
0
VERTEX
8
OBJECT019
10
672.000000
20
-756.000000
30
-238.000000
70
192
0
VERTEX
8
OBJECT019
10
646.000000
20
-756.000000
30
-238.000000
70
192
0
VERTEX
8
OBJECT019
10
0
20
0
30
0
70
128
71
2
72
3
73
-4
0
VERTEX
8
OBJECT019
10
0
20
0
30
0
70
128
71
-2
72
4
73
1
0
VERTEX
8
OBJECT019
10
0
20
0
30
0
70
128
71
1
72
5
73
-6
0
VERTEX
8
OBJECT019
10
0
20
0
30
0
70
128
71
-1
72
6
73
2
0
VERTEX
8
OBJECT019
10
0
20
0
30
0
70
128
71
2
72
6
73
-7
0
VERTEX
8
OBJECT019
10
0
20
0
30
0
70
128
71
-2
72
7
73
3
0
VERTEX
8
OBJECT019
10
0
20
0
30
0
70
128
71
4
72
3
73
-7
0
VERTEX
8
OBJECT019
10
0
20
0
30
0
70
128
71
-4
72
7
73
8
0
VERTEX
8
OBJECT019
10
0
20
0
30
0
70
128
71
4
72
8
73
-5
0
VERTEX
8
OBJECT019
10
0
20
0
30
0
70
128
71
-4
72
5
73
1
0
VERTEX
8
OBJECT019
10
0
20
0
30
0
70
128
71
5
72
8
73
-7
0
VERTEX
8
OBJECT019
10
0
20
0
30
0
70
128
71
-5
72
7
73
6
0
SEQEND
8
OBJECT019
0
POLYLINE
8
OBJECT020
66
1
70
64
71
15
72
24
62
50
0
VERTEX
8
OBJECT020
10
631.419312
20
-737.703125
30
-278.825623
70
192
0
VERTEX
8
OBJECT020
10
576.000000
20
-737.703125
30
-278.825592
70
192
0
VERTEX
8
OBJECT020
10
576.000000
20
-751.156738
30
-288.740265
70
192
0
VERTEX
8
OBJECT020
10
672.000000
20
-751.154968
30
-288.739014
70
192
0
VERTEX
8
OBJECT020
10
672.000000
20
-739.250000
30
-279.965607
70
192
0
VERTEX
8
OBJECT020
10
672.000000
20
-736.397949
30
-277.119476
70
192
0
VERTEX
8
OBJECT020
10
672.000000
20
-727.553223
30
-265.541199
70
192
0
VERTEX
8
OBJECT020
10
576.000000
20
-727.553162
30
-265.541107
70
192
0
VERTEX
8
OBJECT020
10
576.000000
20
-767.417114
30
-294.000000
70
192
0
VERTEX
8
OBJECT020
10
672.000000
20
-767.416138
30
-294.000000
70
192
0
VERTEX
8
OBJECT020
10
672.000000
20
-725.649048
30
-260.000000
70
192
0
VERTEX
8
OBJECT020
10
576.000000
20
-725.649048
30
-260.000000
70
192
0
VERTEX
8
OBJECT020
10
576.000000
20
-767.133423
30
-260.000000
70
192
0
VERTEX
8
OBJECT020
10
672.000000
20
-767.132446
30
-260.000000
70
192
0
VERTEX
8
OBJECT020
10
631.524658
20
-737.702209
30
-278.824402
70
192
0
VERTEX
8
OBJECT020
10
0
20
0
30
0
70
128
71
2
72
3
73
-4
0
VERTEX
8
OBJECT020
10
0
20
0
30
0
70
128
71
-2
72
4
73
-5
0
VERTEX
8
OBJECT020
10
0
20
0
30
0
70
128
71
-2
72
5
73
1
0
VERTEX
8
OBJECT020
10
0
20
0
30
0
70
128
71
1
72
6
73
-7
0
VERTEX
8
OBJECT020
10
0
20
0
30
0
70
128
71
-1
72
7
73
-8
0
VERTEX
8
OBJECT020
10
0
20
0
30
0
70
128
71
-1
72
8
73
2
0
VERTEX
8
OBJECT020
10
0
20
0
30
0
70
128
71
3
72
9
73
-10
0
VERTEX
8
OBJECT020
10
0
20
0
30
0
70
128
71
-3
72
10
73
4
0
VERTEX
8
OBJECT020
10
0
20
0
30
0
70
128
71
7
72
11
73
-12
0
VERTEX
8
OBJECT020
10
0
20
0
30
0
70
128
71
-7
72
12
73
8
0
VERTEX
8
OBJECT020
10
0
20
0
30
0
70
128
71
9
72
13
73
-14
0
VERTEX
8
OBJECT020
10
0
20
0
30
0
70
128
71
-9
72
14
73
10
0
VERTEX
8
OBJECT020
10
0
20
0
30
0
70
128
71
15
72
5
73
6
0
VERTEX
8
OBJECT020
10
0
20
0
30
0
70
128
71
9
72
3
73
-2
0
VERTEX
8
OBJECT020
10
0
20
0
30
0
70
128
71
-9
72
2
73
-8
0
VERTEX
8
OBJECT020
10
0
20
0
30
0
70
128
71
-9
72
8
73
-12
0
VERTEX
8
OBJECT020
10
0
20
0
30
0
70
128
71
-9
72
12
73
13
0
VERTEX
8
OBJECT020
10
0
20
0
30
0
70
128
71
7
72
6
73
-5
0
VERTEX
8
OBJECT020
10
0
20
0
30
0
70
128
71
-7
72
5
73
-4
0
VERTEX
8
OBJECT020
10
0
20
0
30
0
70
128
71
-7
72
4
73
-10
0
VERTEX
8
OBJECT020
10
0
20
0
30
0
70
128
71
-7
72
10
73
-14
0
VERTEX
8
OBJECT020
10
0
20
0
30
0
70
128
71
-7
72
14
73
11
0
VERTEX
8
OBJECT020
10
0
20
0
30
0
70
128
71
13
72
12
73
-11
0
VERTEX
8
OBJECT020
10
0
20
0
30
0
70
128
71
-13
72
11
73
14
0
SEQEND
8
OBJECT020
0
POLYLINE
8
OBJECT021
66
1
70
64
71
8
72
12
62
50
0
VERTEX
8
OBJECT021
10
646.000000
20
-722.000000
30
-249.387772
70
192
0
VERTEX
8
OBJECT021
10
576.000000
20
-722.000000
30
-249.387772
70
192
0
VERTEX
8
OBJECT021
10
576.000000
20
-725.648987
30
-260.000000
70
192
0
VERTEX
8
OBJECT021
10
646.000000
20
-725.648987
30
-260.000000
70
192
0
VERTEX
8
OBJECT021
10
576.000000
20
-767.133423
30
-260.000000
70
192
0
VERTEX
8
OBJECT021
10
576.000000
20
-767.041626
30
-249.000000
70
192
0
VERTEX
8
OBJECT021
10
646.000000
20
-767.040894
30
-249.000000
70
192
0
VERTEX
8
OBJECT021
10
646.000000
20
-767.132690
30
-260.000000
70
192
0
VERTEX
8
OBJECT021
10
0
20
0
30
0
70
128
71
2
72
3
73
-4
0
VERTEX
8
OBJECT021
10
0
20
0
30
0
70
128
71
-2
72
4
73
1
0
VERTEX
8
OBJECT021
10
0
20
0
30
0
70
128
71
6
72
7
73
-8
0
VERTEX
8
OBJECT021
10
0
20
0
30
0
70
128
71
-6
72
8
73
5
0
VERTEX
8
OBJECT021
10
0
20
0
30
0
70
128
71
6
72
2
73
-1
0
VERTEX
8
OBJECT021
10
0
20
0
30
0
70
128
71
-6
72
1
73
7
0
VERTEX
8
OBJECT021
10
0
20
0
30
0
70
128
71
5
72
3
73
-2
0
VERTEX
8
OBJECT021
10
0
20
0
30
0
70
128
71
-5
72
2
73
6
0
VERTEX
8
OBJECT021
10
0
20
0
30
0
70
128
71
3
72
5
73
-8
0
VERTEX
8
OBJECT021
10
0
20
0
30
0
70
128
71
-3
72
8
73
4
0
VERTEX
8
OBJECT021
10
0
20
0
30
0
70
128
71
4
72
8
73
-7
0
VERTEX
8
OBJECT021
10
0
20
0
30
0
70
128
71
-4
72
7
73
1
0
SEQEND
8
OBJECT021
0
POLYLINE
8
OBJECT022
66
1
70
64
71
8
72
12
62
50
0
VERTEX
8
OBJECT022
10
646.000000
20
-725.648987
30
-260.000000
70
192
0
VERTEX
8
OBJECT022
10
672.000000
20
-725.648987
30
-260.000000
70
192
0
VERTEX
8
OBJECT022
10
672.000000
20
-722.000000
30
-249.387772
70
192
0
VERTEX
8
OBJECT022
10
646.000000
20
-722.000000
30
-249.387772
70
192
0
VERTEX
8
OBJECT022
10
646.000000
20
-756.000000
30
-249.091583
70
192
0
VERTEX
8
OBJECT022
10
672.000000
20
-756.000000
30
-249.091583
70
192
0
VERTEX
8
OBJECT022
10
672.000000
20
-756.000000
30
-260.000000
70
192
0
VERTEX
8
OBJECT022
10
646.000000
20
-756.000000
30
-260.000000
70
192
0
VERTEX
8
OBJECT022
10
0
20
0
30
0
70
128
71
2
72
3
73
-4
0
VERTEX
8
OBJECT022
10
0
20
0
30
0
70
128
71
-2
72
4
73
1
0
VERTEX
8
OBJECT022
10
0
20
0
30
0
70
128
71
4
72
3
73
-6
0
VERTEX
8
OBJECT022
10
0
20
0
30
0
70
128
71
-4
72
6
73
5
0
VERTEX
8
OBJECT022
10
0
20
0
30
0
70
128
71
2
72
7
73
-6
0
VERTEX
8
OBJECT022
10
0
20
0
30
0
70
128
71
-2
72
6
73
3
0
VERTEX
8
OBJECT022
10
0
20
0
30
0
70
128
71
1
72
8
73
-7
0
VERTEX
8
OBJECT022
10
0
20
0
30
0
70
128
71
-1
72
7
73
2
0
VERTEX
8
OBJECT022
10
0
20
0
30
0
70
128
71
1
72
4
73
-5
0
VERTEX
8
OBJECT022
10
0
20
0
30
0
70
128
71
-1
72
5
73
8
0
VERTEX
8
OBJECT022
10
0
20
0
30
0
70
128
71
6
72
7
73
-8
0
VERTEX
8
OBJECT022
10
0
20
0
30
0
70
128
71
-6
72
8
73
5
0
SEQEND
8
OBJECT022
0
POLYLINE
8
OBJECT023
66
1
70
64
71
12
72
20
62
50
0
VERTEX
8
OBJECT023
10
672.000000
20
-783.548157
30
-288.444702
70
192
0
VERTEX
8
OBJECT023
10
576.000000
20
-783.548157
30
-288.444702
70
192
0
VERTEX
8
OBJECT023
10
576.000000
20
-796.805725
30
-278.327332
70
192
0
VERTEX
8
OBJECT023
10
672.000000
20
-796.805725
30
-278.327332
70
192
0
VERTEX
8
OBJECT023
10
576.000000
20
-806.733459
30
-264.852448
70
192
0
VERTEX
8
OBJECT023
10
672.000000
20
-806.733459
30
-264.852448
70
192
0
VERTEX
8
OBJECT023
10
672.000000
20
-767.397278
30
-294.000000
70
192
0
VERTEX
8
OBJECT023
10
576.000000
20
-767.397278
30
-294.000000
70
192
0
VERTEX
8
OBJECT023
10
576.000000
20
-808.306763
30
-260.000000
70
192
0
VERTEX
8
OBJECT023
10
672.000000
20
-808.306763
30
-260.000000
70
192
0
VERTEX
8
OBJECT023
10
672.000000
20
-767.105408
30
-260.000000
70
192
0
VERTEX
8
OBJECT023
10
576.000000
20
-767.105408
30
-260.000000
70
192
0
VERTEX
8
OBJECT023
10
0
20
0
30
0
70
128
71
2
72
3
73
-4
0
VERTEX
8
OBJECT023
10
0
20
0
30
0
70
128
71
-2
72
4
73
1
0
VERTEX
8
OBJECT023
10
0
20
0
30
0
70
128
71
3
72
5
73
-6
0
VERTEX
8
OBJECT023
10
0
20
0
30
0
70
128
71
-3
72
6
73
4
0
VERTEX
8
OBJECT023
10
0
20
0
30
0
70
128
71
8
72
2
73
-1
0
VERTEX
8
OBJECT023
10
0
20
0
30
0
70
128
71
-8
72
1
73
7
0
VERTEX
8
OBJECT023
10
0
20
0
30
0
70
128
71
5
72
9
73
-10
0
VERTEX
8
OBJECT023
10
0
20
0
30
0
70
128
71
-5
72
10
73
6
0
VERTEX
8
OBJECT023
10
0
20
0
30
0
70
128
71
7
72
11
73
-12
0
VERTEX
8
OBJECT023
10
0
20
0
30
0
70
128
71
-7
72
12
73
8
0
VERTEX
8
OBJECT023
10
0
20
0
30
0
70
128
71
5
72
3
73
-2
0
VERTEX
8
OBJECT023
10
0
20
0
30
0
70
128
71
-5
72
2
73
-8
0
VERTEX
8
OBJECT023
10
0
20
0
30
0
70
128
71
-5
72
8
73
-12
0
VERTEX
8
OBJECT023
10
0
20
0
30
0
70
128
71
-5
72
12
73
9
0
VERTEX
8
OBJECT023
10
0
20
0
30
0
70
128
71
7
72
1
73
-4
0
VERTEX
8
OBJECT023
10
0
20
0
30
0
70
128
71
-7
72
4
73
-6
0
VERTEX
8
OBJECT023
10
0
20
0
30
0
70
128
71
-7
72
6
73
-10
0
VERTEX
8
OBJECT023
10
0
20
0
30
0
70
128
71
-7
72
10
73
11
0
VERTEX
8
OBJECT023
10
0
20
0
30
0
70
128
71
9
72
12
73
-11
0
VERTEX
8
OBJECT023
10
0
20
0
30
0
70
128
71
-9
72
11
73
10
0
SEQEND
8
OBJECT023
0
POLYLINE
8
OBJECT024
66
1
70
64
71
8
72
12
62
50
0
VERTEX
8
OBJECT024
10
576.000000
20
-808.306824
30
-260.000000
70
192
0
VERTEX
8
OBJECT024
10
576.000000
20
-812.000000
30
-248.599014
70
192
0
VERTEX
8
OBJECT024
10
646.000000
20
-812.000000
30
-248.599014
70
192
0
VERTEX
8
OBJECT024
10
646.000000
20
-808.306824
30
-260.000000
70
192
0
VERTEX
8
OBJECT024
10
646.000000
20
-767.010986
30
-249.000000
70
192
0
VERTEX
8
OBJECT024
10
576.000000
20
-767.010986
30
-249.000000
70
192
0
VERTEX
8
OBJECT024
10
576.000000
20
-767.105469
30
-260.000000
70
192
0
VERTEX
8
OBJECT024
10
646.000000
20
-767.105469
30
-260.000000
70
192
0
VERTEX
8
OBJECT024
10
0
20
0
30
0
70
128
71
2
72
3
73
-4
0
VERTEX
8
OBJECT024
10
0
20
0
30
0
70
128
71
-2
72
4
73
1
0
VERTEX
8
OBJECT024
10
0
20
0
30
0
70
128
71
6
72
7
73
-8
0
VERTEX
8
OBJECT024
10
0
20
0
30
0
70
128
71
-6
72
8
73
5
0
VERTEX
8
OBJECT024
10
0
20
0
30
0
70
128
71
2
72
6
73
-5
0
VERTEX
8
OBJECT024
10
0
20
0
30
0
70
128
71
-2
72
5
73
3
0
VERTEX
8
OBJECT024
10
0
20
0
30
0
70
128
71
1
72
7
73
-6
0
VERTEX
8
OBJECT024
10
0
20
0
30
0
70
128
71
-1
72
6
73
2
0
VERTEX
8
OBJECT024
10
0
20
0
30
0
70
128
71
7
72
1
73
-4
0
VERTEX
8
OBJECT024
10
0
20
0
30
0
70
128
71
-7
72
4
73
8
0
VERTEX
8
OBJECT024
10
0
20
0
30
0
70
128
71
8
72
4
73
-3
0
VERTEX
8
OBJECT024
10
0
20
0
30
0
70
128
71
-8
72
3
73
5
0
SEQEND
8
OBJECT024
0
POLYLINE
8
OBJECT025
66
1
70
64
71
8
72
12
62
50
0
VERTEX
8
OBJECT025
10
646.000000
20
-812.000000
30
-248.599014
70
192
0
VERTEX
8
OBJECT025
10
672.000000
20
-812.000000
30
-248.599014
70
192
0
VERTEX
8
OBJECT025
10
672.000000
20
-808.306824
30
-260.000000
70
192
0
VERTEX
8
OBJECT025
10
646.000000
20
-808.306824
30
-260.000000
70
192
0
VERTEX
8
OBJECT025
10
646.000000
20
-778.000000
30
-248.897659
70
192
0
VERTEX
8
OBJECT025
10
672.000000
20
-778.000000
30
-248.897659
70
192
0
VERTEX
8
OBJECT025
10
672.000000
20
-778.000000
30
-260.000000
70
192
0
VERTEX
8
OBJECT025
10
646.000000
20
-778.000000
30
-260.000000
70
192
0
VERTEX
8
OBJECT025
10
0
20
0
30
0
70
128
71
2
72
3
73
-4
0
VERTEX
8
OBJECT025
10
0
20
0
30
0
70
128
71
-2
72
4
73
1
0
VERTEX
8
OBJECT025
10
0
20
0
30
0
70
128
71
1
72
5
73
-6
0
VERTEX
8
OBJECT025
10
0
20
0
30
0
70
128
71
-1
72
6
73
2
0
VERTEX
8
OBJECT025
10
0
20
0
30
0
70
128
71
3
72
2
73
-6
0
VERTEX
8
OBJECT025
10
0
20
0
30
0
70
128
71
-3
72
6
73
7
0
VERTEX
8
OBJECT025
10
0
20
0
30
0
70
128
71
4
72
3
73
-7
0
VERTEX
8
OBJECT025
10
0
20
0
30
0
70
128
71
-4
72
7
73
8
0
VERTEX
8
OBJECT025
10
0
20
0
30
0
70
128
71
4
72
8
73
-5
0
VERTEX
8
OBJECT025
10
0
20
0
30
0
70
128
71
-4
72
5
73
1
0
VERTEX
8
OBJECT025
10
0
20
0
30
0
70
128
71
7
72
6
73
-5
0
VERTEX
8
OBJECT025
10
0
20
0
30
0
70
128
71
-7
72
5
73
8
0
SEQEND
8
OBJECT025
0
POLYLINE
8
OBJECT026
66
1
70
64
71
12
72
20
62
50
0
VERTEX
8
OBJECT026
10
656.000000
20
-1098.476074
30
-209.530365
70
192
0
VERTEX
8
OBJECT026
10
576.000000
20
-1098.476074
30
-209.530365
70
192
0
VERTEX
8
OBJECT026
10
576.000000
20
-1085.213745
30
-219.649551
70
192
0
VERTEX
8
OBJECT026
10
656.000000
20
-1085.213745
30
-219.649551
70
192
0
VERTEX
8
OBJECT026
10
576.000000
20
-1075.264282
30
-233.155792
70
192
0
VERTEX
8
OBJECT026
10
656.000000
20
-1075.264282
30
-233.155792
70
192
0
VERTEX
8
OBJECT026
10
656.000000
20
-1114.628784
30
-204.000000
70
192
0
VERTEX
8
OBJECT026
10
576.000000
20
-1114.628784
30
-204.000000
70
192
0
VERTEX
8
OBJECT026
10
656.000000
20
-1073.693604
30
-238.000000
70
192
0
VERTEX
8
OBJECT026
10
576.000000
20
-1073.693604
30
-238.000000
70
192
0
VERTEX
8
OBJECT026
10
576.000000
20
-1114.912231
30
-238.000000
70
192
0
VERTEX
8
OBJECT026
10
656.000000
20
-1114.912231
30
-238.000000
70
192
0
VERTEX
8
OBJECT026
10
0
20
0
30
0
70
128
71
2
72
3
73
-4
0
VERTEX
8
OBJECT026
10
0
20
0
30
0
70
128
71
-2
72
4
73
1
0
VERTEX
8
OBJECT026
10
0
20
0
30
0
70
128
71
6
72
4
73
-3
0
VERTEX
8
OBJECT026
10
0
20
0
30
0
70
128
71
-6
72
3
73
5
0
VERTEX
8
OBJECT026
10
0
20
0
30
0
70
128
71
8
72
2
73
-1
0
VERTEX
8
OBJECT026
10
0
20
0
30
0
70
128
71
-8
72
1
73
7
0
VERTEX
8
OBJECT026
10
0
20
0
30
0
70
128
71
6
72
5
73
-10
0
VERTEX
8
OBJECT026
10
0
20
0
30
0
70
128
71
-6
72
10
73
9
0
VERTEX
8
OBJECT026
10
0
20
0
30
0
70
128
71
8
72
7
73
-12
0
VERTEX
8
OBJECT026
10
0
20
0
30
0
70
128
71
-8
72
12
73
11
0
VERTEX
8
OBJECT026
10
0
20
0
30
0
70
128
71
5
72
3
73
-2
0
VERTEX
8
OBJECT026
10
0
20
0
30
0
70
128
71
-5
72
2
73
-8
0
VERTEX
8
OBJECT026
10
0
20
0
30
0
70
128
71
-5
72
8
73
-11
0
VERTEX
8
OBJECT026
10
0
20
0
30
0
70
128
71
-5
72
11
73
10
0
VERTEX
8
OBJECT026
10
0
20
0
30
0
70
128
71
7
72
1
73
-4
0
VERTEX
8
OBJECT026
10
0
20
0
30
0
70
128
71
-7
72
4
73
-6
0
VERTEX
8
OBJECT026
10
0
20
0
30
0
70
128
71
-7
72
6
73
-9
0
VERTEX
8
OBJECT026
10
0
20
0
30
0
70
128
71
-7
72
9
73
12
0
VERTEX
8
OBJECT026
10
0
20
0
30
0
70
128
71
10
72
11
73
-12
0
VERTEX
8
OBJECT026
10
0
20
0
30
0
70
128
71
-10
72
12
73
9
0
SEQEND
8
OBJECT026
0
POLYLINE
8
OBJECT027
66
1
70
64
71
8
72
12
62
50
0
VERTEX
8
OBJECT027
10
576.000000
20
-1070.000000
30
-249.368118
70
192
0
VERTEX
8
OBJECT027
10
646.000000
20
-1070.000000
30
-249.368118
70
192
0
VERTEX
8
OBJECT027
10
646.000000
20
-1073.693726
30
-238.000000
70
192
0
VERTEX
8
OBJECT027
10
576.000000
20
-1073.693726
30
-238.000000
70
192
0
VERTEX
8
OBJECT027
10
646.000000
20
-1115.000000
30
-249.000000
70
192
0
VERTEX
8
OBJECT027
10
576.000000
20
-1115.000000
30
-249.000000
70
192
0
VERTEX
8
OBJECT027
10
576.000000
20
-1114.912354
30
-238.000000
70
192
0
VERTEX
8
OBJECT027
10
646.000000
20
-1114.912354
30
-238.000000
70
192
0
VERTEX
8
OBJECT027
10
0
20
0
30
0
70
128
71
2
72
3
73
-4
0
VERTEX
8
OBJECT027
10
0
20
0
30
0
70
128
71
-2
72
4
73
1
0
VERTEX
8
OBJECT027
10
0
20
0
30
0
70
128
71
6
72
7
73
-8
0
VERTEX
8
OBJECT027
10
0
20
0
30
0
70
128
71
-6
72
8
73
5
0
VERTEX
8
OBJECT027
10
0
20
0
30
0
70
128
71
1
72
6
73
-5
0
VERTEX
8
OBJECT027
10
0
20
0
30
0
70
128
71
-1
72
5
73
2
0
VERTEX
8
OBJECT027
10
0
20
0
30
0
70
128
71
4
72
7
73
-6
0
VERTEX
8
OBJECT027
10
0
20
0
30
0
70
128
71
-4
72
6
73
1
0
VERTEX
8
OBJECT027
10
0
20
0
30
0
70
128
71
7
72
4
73
-3
0
VERTEX
8
OBJECT027
10
0
20
0
30
0
70
128
71
-7
72
3
73
8
0
VERTEX
8
OBJECT027
10
0
20
0
30
0
70
128
71
2
72
5
73
-8
0
VERTEX
8
OBJECT027
10
0
20
0
30
0
70
128
71
-2
72
8
73
3
0
SEQEND
8
OBJECT027
0
POLYLINE
8
OBJECT028
66
1
70
64
71
8
72
12
62
50
0
VERTEX
8
OBJECT028
10
646.000000
20
-1070.000000
30
-249.368118
70
192
0
VERTEX
8
OBJECT028
10
656.000000
20
-1070.000000
30
-249.368118
70
192
0
VERTEX
8
OBJECT028
10
656.000000
20
-1073.693726
30
-238.000000
70
192
0
VERTEX
8
OBJECT028
10
646.000000
20
-1073.693726
30
-238.000000
70
192
0
VERTEX
8
OBJECT028
10
646.000000
20
-1104.000000
30
-249.085602
70
192
0
VERTEX
8
OBJECT028
10
656.000000
20
-1104.000000
30
-249.085602
70
192
0
VERTEX
8
OBJECT028
10
656.000000
20
-1104.000000
30
-238.000000
70
192
0
VERTEX
8
OBJECT028
10
646.000000
20
-1104.000000
30
-238.000000
70
192
0
VERTEX
8
OBJECT028
10
0
20
0
30
0
70
128
71
2
72
3
73
-4
0
VERTEX
8
OBJECT028
10
0
20
0
30
0
70
128
71
-2
72
4
73
1
0
VERTEX
8
OBJECT028
10
0
20
0
30
0
70
128
71
1
72
5
73
-6
0
VERTEX
8
OBJECT028
10
0
20
0
30
0
70
128
71
-1
72
6
73
2
0
VERTEX
8
OBJECT028
10
0
20
0
30
0
70
128
71
2
72
6
73
-7
0
VERTEX
8
OBJECT028
10
0
20
0
30
0
70
128
71
-2
72
7
73
3
0
VERTEX
8
OBJECT028
10
0
20
0
30
0
70
128
71
4
72
3
73
-7
0
VERTEX
8
OBJECT028
10
0
20
0
30
0
70
128
71
-4
72
7
73
8
0
VERTEX
8
OBJECT028
10
0
20
0
30
0
70
128
71
4
72
8
73
-5
0
VERTEX
8
OBJECT028
10
0
20
0
30
0
70
128
71
-4
72
5
73
1
0
VERTEX
8
OBJECT028
10
0
20
0
30
0
70
128
71
5
72
8
73
-7
0
VERTEX
8
OBJECT028
10
0
20
0
30
0
70
128
71
-5
72
7
73
6
0
SEQEND
8
OBJECT028
0
POLYLINE
8
OBJECT029
66
1
70
64
71
14
72
24
62
50
0
VERTEX
8
OBJECT029
10
622.196594
20
-1085.703369
30
-278.825897
70
192
0
VERTEX
8
OBJECT029
10
576.000000
20
-1085.703247
30
-278.825775
70
192
0
VERTEX
8
OBJECT029
10
576.000000
20
-1099.157104
30
-288.740387
70
192
0
VERTEX
8
OBJECT029
10
656.000000
20
-1099.155273
30
-288.739166
70
192
0
VERTEX
8
OBJECT029
10
656.000000
20
-1087.250854
30
-279.966339
70
192
0
VERTEX
8
OBJECT029
10
656.000000
20
-1084.401001
30
-277.122375
70
192
0
VERTEX
8
OBJECT029
10
656.000000
20
-1075.551880
30
-265.537476
70
192
0
VERTEX
8
OBJECT029
10
576.000000
20
-1075.551880
30
-265.537384
70
192
0
VERTEX
8
OBJECT029
10
576.000000
20
-1115.416870
30
-294.000000
70
192
0
VERTEX
8
OBJECT029
10
656.000000
20
-1115.416138
30
-294.000000
70
192
0
VERTEX
8
OBJECT029
10
656.000000
20
-1073.648926
30
-260.000000
70
192
0
VERTEX
8
OBJECT029
10
576.000000
20
-1073.649048
30
-260.000000
70
192
0
VERTEX
8
OBJECT029
10
576.000000
20
-1115.133179
30
-260.000000
70
192
0
VERTEX
8
OBJECT029
10
656.000000
20
-1115.132446
30
-260.000000
70
192
0
VERTEX
8
OBJECT029
10
0
20
0
30
0
70
128
71
2
72
3
73
-4
0
VERTEX
8
OBJECT029
10
0
20
0
30
0
70
128
71
-2
72
4
73
-5
0
VERTEX
8
OBJECT029
10
0
20
0
30
0
70
128
71
-2
72
5
73
1
0
VERTEX
8
OBJECT029
10
0
20
0
30
0
70
128
71
1
72
6
73
-7
0
VERTEX
8
OBJECT029
10
0
20
0
30
0
70
128
71
-1
72
7
73
-8
0
VERTEX
8
OBJECT029
10
0
20
0
30
0
70
128
71
-1
72
8
73
2
0
VERTEX
8
OBJECT029
10
0
20
0
30
0
70
128
71
3
72
9
73
-10
0
VERTEX
8
OBJECT029
10
0
20
0
30
0
70
128
71
-3
72
10
73
4
0
VERTEX
8
OBJECT029
10
0
20
0
30
0
70
128
71
7
72
11
73
-12
0
VERTEX
8
OBJECT029
10
0
20
0
30
0
70
128
71
-7
72
12
73
8
0
VERTEX
8
OBJECT029
10
0
20
0
30
0
70
128
71
9
72
13
73
-14
0
VERTEX
8
OBJECT029
10
0
20
0
30
0
70
128
71
-9
72
14
73
10
0
VERTEX
8
OBJECT029
10
0
20
0
30
0
70
128
71
1
72
5
73
6
0
VERTEX
8
OBJECT029
10
0
20
0
30
0
70
128
71
9
72
3
73
-2
0
VERTEX
8
OBJECT029
10
0
20
0
30
0
70
128
71
-9
72
2
73
-8
0
VERTEX
8
OBJECT029
10
0
20
0
30
0
70
128
71
-9
72
8
73
-12
0
VERTEX
8
OBJECT029
10
0
20
0
30
0
70
128
71
-9
72
12
73
13
0
VERTEX
8
OBJECT029
10
0
20
0
30
0
70
128
71
7
72
6
73
-5
0
VERTEX
8
OBJECT029
10
0
20
0
30
0
70
128
71
-7
72
5
73
-4
0
VERTEX
8
OBJECT029
10
0
20
0
30
0
70
128
71
-7
72
4
73
-10
0
VERTEX
8
OBJECT029
10
0
20
0
30
0
70
128
71
-7
72
10
73
-14
0
VERTEX
8
OBJECT029
10
0
20
0
30
0
70
128
71
-7
72
14
73
11
0
VERTEX
8
OBJECT029
10
0
20
0
30
0
70
128
71
13
72
12
73
-11
0
VERTEX
8
OBJECT029
10
0
20
0
30
0
70
128
71
-13
72
11
73
14
0
SEQEND
8
OBJECT029
0
POLYLINE
8
OBJECT030
66
1
70
64
71
8
72
12
62
50
0
VERTEX
8
OBJECT030
10
646.000000
20
-1070.000000
30
-249.387787
70
192
0
VERTEX
8
OBJECT030
10
576.000000
20
-1070.000000
30
-249.387787
70
192
0
VERTEX
8
OBJECT030
10
576.000000
20
-1073.648926
30
-260.000000
70
192
0
VERTEX
8
OBJECT030
10
646.000000
20
-1073.648926
30
-260.000000
70
192
0
VERTEX
8
OBJECT030
10
576.000000
20
-1115.133179
30
-260.000000
70
192
0
VERTEX
8
OBJECT030
10
576.000000
20
-1115.041382
30
-249.000000
70
192
0
VERTEX
8
OBJECT030
10
646.000000
20
-1115.040771
30
-249.000000
70
192
0
VERTEX
8
OBJECT030
10
646.000000
20
-1115.132568
30
-260.000000
70
192
0
VERTEX
8
OBJECT030
10
0
20
0
30
0
70
128
71
2
72
3
73
-4
0
VERTEX
8
OBJECT030
10
0
20
0
30
0
70
128
71
-2
72
4
73
1
0
VERTEX
8
OBJECT030
10
0
20
0
30
0
70
128
71
6
72
7
73
-8
0
VERTEX
8
OBJECT030
10
0
20
0
30
0
70
128
71
-6
72
8
73
5
0
VERTEX
8
OBJECT030
10
0
20
0
30
0
70
128
71
6
72
2
73
-1
0
VERTEX
8
OBJECT030
10
0
20
0
30
0
70
128
71
-6
72
1
73
7
0
VERTEX
8
OBJECT030
10
0
20
0
30
0
70
128
71
5
72
3
73
-2
0
VERTEX
8
OBJECT030
10
0
20
0
30
0
70
128
71
-5
72
2
73
6
0
VERTEX
8
OBJECT030
10
0
20
0
30
0
70
128
71
3
72
5
73
-8
0
VERTEX
8
OBJECT030
10
0
20
0
30
0
70
128
71
-3
72
8
73
4
0
VERTEX
8
OBJECT030
10
0
20
0
30
0
70
128
71
4
72
8
73
-7
0
VERTEX
8
OBJECT030
10
0
20
0
30
0
70
128
71
-4
72
7
73
1
0
SEQEND
8
OBJECT030
0
POLYLINE
8
OBJECT031
66
1
70
64
71
8
72
12
62
50
0
VERTEX
8
OBJECT031
10
646.000000
20
-1073.648926
30
-260.000000
70
192
0
VERTEX
8
OBJECT031
10
656.000000
20
-1073.648926
30
-260.000000
70
192
0
VERTEX
8
OBJECT031
10
656.000000
20
-1070.000000
30
-249.387787
70
192
0
VERTEX
8
OBJECT031
10
646.000000
20
-1070.000000
30
-249.387787
70
192
0
VERTEX
8
OBJECT031
10
646.000000
20
-1104.000000
30
-249.091583
70
192
0
VERTEX
8
OBJECT031
10
656.000000
20
-1104.000000
30
-249.091583
70
192
0
VERTEX
8
OBJECT031
10
656.000000
20
-1104.000000
30
-260.000000
70
192
0
VERTEX
8
OBJECT031
10
646.000000
20
-1104.000000
30
-260.000000
70
192
0
VERTEX
8
OBJECT031
10
0
20
0
30
0
70
128
71
2
72
3
73
-4
0
VERTEX
8
OBJECT031
10
0
20
0
30
0
70
128
71
-2
72
4
73
1
0
VERTEX
8
OBJECT031
10
0
20
0
30
0
70
128
71
4
72
3
73
-6
0
VERTEX
8
OBJECT031
10
0
20
0
30
0
70
128
71
-4
72
6
73
5
0
VERTEX
8
OBJECT031
10
0
20
0
30
0
70
128
71
2
72
7
73
-6
0
VERTEX
8
OBJECT031
10
0
20
0
30
0
70
128
71
-2
72
6
73
3
0
VERTEX
8
OBJECT031
10
0
20
0
30
0
70
128
71
1
72
8
73
-7
0
VERTEX
8
OBJECT031
10
0
20
0
30
0
70
128
71
-1
72
7
73
2
0
VERTEX
8
OBJECT031
10
0
20
0
30
0
70
128
71
1
72
4
73
-5
0
VERTEX
8
OBJECT031
10
0
20
0
30
0
70
128
71
-1
72
5
73
8
0
VERTEX
8
OBJECT031
10
0
20
0
30
0
70
128
71
6
72
7
73
-8
0
VERTEX
8
OBJECT031
10
0
20
0
30
0
70
128
71
-6
72
8
73
5
0
SEQEND
8
OBJECT031
0
POLYLINE
8
OBJECT032
66
1
70
64
71
12
72
20
62
50
0
VERTEX
8
OBJECT032
10
656.000000
20
-1131.548218
30
-288.444672
70
192
0
VERTEX
8
OBJECT032
10
576.000000
20
-1131.548218
30
-288.444672
70
192
0
VERTEX
8
OBJECT032
10
576.000000
20
-1144.806396
30
-278.326874
70
192
0
VERTEX
8
OBJECT032
10
656.000000
20
-1144.806396
30
-278.326874
70
192
0
VERTEX
8
OBJECT032
10
576.000000
20
-1154.732056
30
-264.857208
70
192
0
VERTEX
8
OBJECT032
10
656.000000
20
-1154.732056
30
-264.857208
70
192
0
VERTEX
8
OBJECT032
10
656.000000
20
-1115.397339
30
-294.000000
70
192
0
VERTEX
8
OBJECT032
10
576.000000
20
-1115.397339
30
-294.000000
70
192
0
VERTEX
8
OBJECT032
10
576.000000
20
-1156.306519
30
-260.000000
70
192
0
VERTEX
8
OBJECT032
10
656.000000
20
-1156.306519
30
-260.000000
70
192
0
VERTEX
8
OBJECT032
10
656.000000
20
-1115.105469
30
-260.000000
70
192
0
VERTEX
8
OBJECT032
10
576.000000
20
-1115.105469
30
-260.000000
70
192
0
VERTEX
8
OBJECT032
10
0
20
0
30
0
70
128
71
2
72
3
73
-4
0
VERTEX
8
OBJECT032
10
0
20
0
30
0
70
128
71
-2
72
4
73
1
0
VERTEX
8
OBJECT032
10
0
20
0
30
0
70
128
71
3
72
5
73
-6
0
VERTEX
8
OBJECT032
10
0
20
0
30
0
70
128
71
-3
72
6
73
4
0
VERTEX
8
OBJECT032
10
0
20
0
30
0
70
128
71
8
72
2
73
-1
0
VERTEX
8
OBJECT032
10
0
20
0
30
0
70
128
71
-8
72
1
73
7
0
VERTEX
8
OBJECT032
10
0
20
0
30
0
70
128
71
5
72
9
73
-10
0
VERTEX
8
OBJECT032
10
0
20
0
30
0
70
128
71
-5
72
10
73
6
0
VERTEX
8
OBJECT032
10
0
20
0
30
0
70
128
71
7
72
11
73
-12
0
VERTEX
8
OBJECT032
10
0
20
0
30
0
70
128
71
-7
72
12
73
8
0
VERTEX
8
OBJECT032
10
0
20
0
30
0
70
128
71
5
72
3
73
-2
0
VERTEX
8
OBJECT032
10
0
20
0
30
0
70
128
71
-5
72
2
73
-8
0
VERTEX
8
OBJECT032
10
0
20
0
30
0
70
128
71
-5
72
8
73
-12
0
VERTEX
8
OBJECT032
10
0
20
0
30
0
70
128
71
-5
72
12
73
9
0
VERTEX
8
OBJECT032
10
0
20
0
30
0
70
128
71
7
72
1
73
-4
0
VERTEX
8
OBJECT032
10
0
20
0
30
0
70
128
71
-7
72
4
73
-6
0
VERTEX
8
OBJECT032
10
0
20
0
30
0
70
128
71
-7
72
6
73
-10
0
VERTEX
8
OBJECT032
10
0
20
0
30
0
70
128
71
-7
72
10
73
11
0
VERTEX
8
OBJECT032
10
0
20
0
30
0
70
128
71
9
72
12
73
-11
0
VERTEX
8
OBJECT032
10
0
20
0
30
0
70
128
71
-9
72
11
73
10
0
SEQEND
8
OBJECT032
0
POLYLINE
8
OBJECT033
66
1
70
64
71
8
72
12
62
50
0
VERTEX
8
OBJECT033
10
576.000000
20
-1156.306519
30
-260.000000
70
192
0
VERTEX
8
OBJECT033
10
576.000000
20
-1160.000000
30
-248.599030
70
192
0
VERTEX
8
OBJECT033
10
646.000000
20
-1160.000000
30
-248.599030
70
192
0
VERTEX
8
OBJECT033
10
646.000000
20
-1156.306519
30
-260.000000
70
192
0
VERTEX
8
OBJECT033
10
646.000000
20
-1115.010986
30
-249.000000
70
192
0
VERTEX
8
OBJECT033
10
576.000000
20
-1115.010986
30
-249.000000
70
192
0
VERTEX
8
OBJECT033
10
576.000000
20
-1115.105469
30
-260.000000
70
192
0
VERTEX
8
OBJECT033
10
646.000000
20
-1115.105469
30
-260.000000
70
192
0
VERTEX
8
OBJECT033
10
0
20
0
30
0
70
128
71
2
72
3
73
-4
0
VERTEX
8
OBJECT033
10
0
20
0
30
0
70
128
71
-2
72
4
73
1
0
VERTEX
8
OBJECT033
10
0
20
0
30
0
70
128
71
6
72
7
73
-8
0
VERTEX
8
OBJECT033
10
0
20
0
30
0
70
128
71
-6
72
8
73
5
0
VERTEX
8
OBJECT033
10
0
20
0
30
0
70
128
71
2
72
6
73
-5
0
VERTEX
8
OBJECT033
10
0
20
0
30
0
70
128
71
-2
72
5
73
3
0
VERTEX
8
OBJECT033
10
0
20
0
30
0
70
128
71
1
72
7
73
-6
0
VERTEX
8
OBJECT033
10
0
20
0
30
0
70
128
71
-1
72
6
73
2
0
VERTEX
8
OBJECT033
10
0
20
0
30
0
70
128
71
7
72
1
73
-4
0
VERTEX
8
OBJECT033
10
0
20
0
30
0
70
128
71
-7
72
4
73
8
0
VERTEX
8
OBJECT033
10
0
20
0
30
0
70
128
71
8
72
4
73
-3
0
VERTEX
8
OBJECT033
10
0
20
0
30
0
70
128
71
-8
72
3
73
5
0
SEQEND
8
OBJECT033
0
POLYLINE
8
OBJECT034
66
1
70
64
71
8
72
12
62
50
0
VERTEX
8
OBJECT034
10
646.000000
20
-1160.000000
30
-248.599030
70
192
0
VERTEX
8
OBJECT034
10
656.000000
20
-1160.000000
30
-248.599030
70
192
0
VERTEX
8
OBJECT034
10
656.000000
20
-1156.306519
30
-260.000000
70
192
0
VERTEX
8
OBJECT034
10
646.000000
20
-1156.306519
30
-260.000000
70
192
0
VERTEX
8
OBJECT034
10
646.000000
20
-1126.000000
30
-248.897675
70
192
0
VERTEX
8
OBJECT034
10
656.000000
20
-1126.000000
30
-248.897675
70
192
0
VERTEX
8
OBJECT034
10
656.000000
20
-1126.000000
30
-260.000000
70
192
0
VERTEX
8
OBJECT034
10
646.000000
20
-1126.000000
30
-260.000000
70
192
0
VERTEX
8
OBJECT034
10
0
20
0
30
0
70
128
71
2
72
3
73
-4
0
VERTEX
8
OBJECT034
10
0
20
0
30
0
70
128
71
-2
72
4
73
1
0
VERTEX
8
OBJECT034
10
0
20
0
30
0
70
128
71
1
72
5
73
-6
0
VERTEX
8
OBJECT034
10
0
20
0
30
0
70
128
71
-1
72
6
73
2
0
VERTEX
8
OBJECT034
10
0
20
0
30
0
70
128
71
3
72
2
73
-6
0
VERTEX
8
OBJECT034
10
0
20
0
30
0
70
128
71
-3
72
6
73
7
0
VERTEX
8
OBJECT034
10
0
20
0
30
0
70
128
71
4
72
3
73
-7
0
VERTEX
8
OBJECT034
10
0
20
0
30
0
70
128
71
-4
72
7
73
8
0
VERTEX
8
OBJECT034
10
0
20
0
30
0
70
128
71
4
72
8
73
-5
0
VERTEX
8
OBJECT034
10
0
20
0
30
0
70
128
71
-4
72
5
73
1
0
VERTEX
8
OBJECT034
10
0
20
0
30
0
70
128
71
7
72
6
73
-5
0
VERTEX
8
OBJECT034
10
0
20
0
30
0
70
128
71
-7
72
5
73
8
0
SEQEND
8
OBJECT034
0
POLYLINE
8
OBJECT035
66
1
70
64
71
12
72
20
62
50
0
VERTEX
8
OBJECT035
10
656.000000
20
-1144.304443
30
-219.159271
70
192
0
VERTEX
8
OBJECT035
10
576.000000
20
-1144.304443
30
-219.159271
70
192
0
VERTEX
8
OBJECT035
10
576.000000
20
-1130.866821
30
-209.262787
70
192
0
VERTEX
8
OBJECT035
10
656.000000
20
-1130.866821
30
-209.262787
70
192
0
VERTEX
8
OBJECT035
10
656.000000
20
-1154.455078
30
-232.447830
70
192
0
VERTEX
8
OBJECT035
10
576.000000
20
-1154.455078
30
-232.447830
70
192
0
VERTEX
8
OBJECT035
10
576.000000
20
-1114.629150
30
-204.000000
70
192
0
VERTEX
8
OBJECT035
10
656.000000
20
-1114.629150
30
-204.000000
70
192
0
VERTEX
8
OBJECT035
10
576.000000
20
-1156.361084
30
-238.000000
70
192
0
VERTEX
8
OBJECT035
10
656.000000
20
-1156.361084
30
-238.000000
70
192
0
VERTEX
8
OBJECT035
10
656.000000
20
-1114.912109
30
-238.000000
70
192
0
VERTEX
8
OBJECT035
10
576.000000
20
-1114.912109
30
-238.000000
70
192
0
VERTEX
8
OBJECT035
10
0
20
0
30
0
70
128
71
2
72
3
73
-4
0
VERTEX
8
OBJECT035
10
0
20
0
30
0
70
128
71
-2
72
4
73
1
0
VERTEX
8
OBJECT035
10
0
20
0
30
0
70
128
71
6
72
2
73
-1
0
VERTEX
8
OBJECT035
10
0
20
0
30
0
70
128
71
-6
72
1
73
5
0
VERTEX
8
OBJECT035
10
0
20
0
30
0
70
128
71
3
72
7
73
-8
0
VERTEX
8
OBJECT035
10
0
20
0
30
0
70
128
71
-3
72
8
73
4
0
VERTEX
8
OBJECT035
10
0
20
0
30
0
70
128
71
6
72
5
73
-10
0
VERTEX
8
OBJECT035
10
0
20
0
30
0
70
128
71
-6
72
10
73
9
0
VERTEX
8
OBJECT035
10
0
20
0
30
0
70
128
71
8
72
7
73
-12
0
VERTEX
8
OBJECT035
10
0
20
0
30
0
70
128
71
-8
72
12
73
11
0
VERTEX
8
OBJECT035
10
0
20
0
30
0
70
128
71
7
72
3
73
-2
0
VERTEX
8
OBJECT035
10
0
20
0
30
0
70
128
71
-7
72
2
73
-6
0
VERTEX
8
OBJECT035
10
0
20
0
30
0
70
128
71
-7
72
6
73
-9
0
VERTEX
8
OBJECT035
10
0
20
0
30
0
70
128
71
-7
72
9
73
12
0
VERTEX
8
OBJECT035
10
0
20
0
30
0
70
128
71
5
72
1
73
-4
0
VERTEX
8
OBJECT035
10
0
20
0
30
0
70
128
71
-5
72
4
73
-8
0
VERTEX
8
OBJECT035
10
0
20
0
30
0
70
128
71
-5
72
8
73
-11
0
VERTEX
8
OBJECT035
10
0
20
0
30
0
70
128
71
-5
72
11
73
10
0
VERTEX
8
OBJECT035
10
0
20
0
30
0
70
128
71
12
72
9
73
-10
0
VERTEX
8
OBJECT035
10
0
20
0
30
0
70
128
71
-12
72
10
73
11
0
SEQEND
8
OBJECT035
0
POLYLINE
8
OBJECT036
66
1
70
64
71
8
72
12
62
50
0
VERTEX
8
OBJECT036
10
646.000000
20
-1160.000000
30
-248.600723
70
192
0
VERTEX
8
OBJECT036
10
576.000000
20
-1160.000000
30
-248.600723
70
192
0
VERTEX
8
OBJECT036
10
576.000000
20
-1156.361206
30
-238.000000
70
192
0
VERTEX
8
OBJECT036
10
646.000000
20
-1156.361206
30
-238.000000
70
192
0
VERTEX
8
OBJECT036
10
576.000000
20
-1115.000000
30
-249.000000
70
192
0
VERTEX
8
OBJECT036
10
646.000000
20
-1115.000000
30
-249.000000
70
192
0
VERTEX
8
OBJECT036
10
646.000000
20
-1114.912109
30
-238.000000
70
192
0
VERTEX
8
OBJECT036
10
576.000000
20
-1114.912109
30
-238.000000
70
192
0
VERTEX
8
OBJECT036
10
0
20
0
30
0
70
128
71
2
72
3
73
-4
0
VERTEX
8
OBJECT036
10
0
20
0
30
0
70
128
71
-2
72
4
73
1
0
VERTEX
8
OBJECT036
10
0
20
0
30
0
70
128
71
6
72
7
73
-8
0
VERTEX
8
OBJECT036
10
0
20
0
30
0
70
128
71
-6
72
8
73
5
0
VERTEX
8
OBJECT036
10
0
20
0
30
0
70
128
71
5
72
2
73
-1
0
VERTEX
8
OBJECT036
10
0
20
0
30
0
70
128
71
-5
72
1
73
6
0
VERTEX
8
OBJECT036
10
0
20
0
30
0
70
128
71
2
72
5
73
-8
0
VERTEX
8
OBJECT036
10
0
20
0
30
0
70
128
71
-2
72
8
73
3
0
VERTEX
8
OBJECT036
10
0
20
0
30
0
70
128
71
3
72
8
73
-7
0
VERTEX
8
OBJECT036
10
0
20
0
30
0
70
128
71
-3
72
7
73
4
0
VERTEX
8
OBJECT036
10
0
20
0
30
0
70
128
71
4
72
7
73
-6
0
VERTEX
8
OBJECT036
10
0
20
0
30
0
70
128
71
-4
72
6
73
1
0
SEQEND
8
OBJECT036
0
POLYLINE
8
OBJECT037
66
1
70
64
71
8
72
12
62
50
0
VERTEX
8
OBJECT037
10
656.000000
20
-1160.000000
30
-248.600723
70
192
0
VERTEX
8
OBJECT037
10
646.000000
20
-1160.000000
30
-248.600723
70
192
0
VERTEX
8
OBJECT037
10
646.000000
20
-1156.361206
30
-238.000000
70
192
0
VERTEX
8
OBJECT037
10
656.000000
20
-1156.361206
30
-238.000000
70
192
0
VERTEX
8
OBJECT037
10
646.000000
20
-1126.000000
30
-248.906448
70
192
0
VERTEX
8
OBJECT037
10
656.000000
20
-1126.000000
30
-248.906448
70
192
0
VERTEX
8
OBJECT037
10
656.000000
20
-1126.000000
30
-238.000000
70
192
0
VERTEX
8
OBJECT037
10
646.000000
20
-1126.000000
30
-238.000000
70
192
0
VERTEX
8
OBJECT037
10
0
20
0
30
0
70
128
71
2
72
3
73
-4
0
VERTEX
8
OBJECT037
10
0
20
0
30
0
70
128
71
-2
72
4
73
1
0
VERTEX
8
OBJECT037
10
0
20
0
30
0
70
128
71
2
72
1
73
-6
0
VERTEX
8
OBJECT037
10
0
20
0
30
0
70
128
71
-2
72
6
73
5
0
VERTEX
8
OBJECT037
10
0
20
0
30
0
70
128
71
4
72
7
73
-6
0
VERTEX
8
OBJECT037
10
0
20
0
30
0
70
128
71
-4
72
6
73
1
0
VERTEX
8
OBJECT037
10
0
20
0
30
0
70
128
71
3
72
8
73
-7
0
VERTEX
8
OBJECT037
10
0
20
0
30
0
70
128
71
-3
72
7
73
4
0
VERTEX
8
OBJECT037
10
0
20
0
30
0
70
128
71
2
72
5
73
-8
0
VERTEX
8
OBJECT037
10
0
20
0
30
0
70
128
71
-2
72
8
73
3
0
VERTEX
8
OBJECT037
10
0
20
0
30
0
70
128
71
6
72
7
73
-8
0
VERTEX
8
OBJECT037
10
0
20
0
30
0
70
128
71
-6
72
8
73
5
0
SEQEND
8
OBJECT037
0
POLYLINE
8
OBJECT038
66
1
70
64
71
12
72
20
62
50
0
VERTEX
8
OBJECT038
10
576.000000
20
-782.866699
30
138.737228
70
192
0
VERTEX
8
OBJECT038
10
656.000000
20
-782.866699
30
138.737228
70
192
0
VERTEX
8
OBJECT038
10
656.000000
20
-796.306152
30
128.839233
70
192
0
VERTEX
8
OBJECT038
10
576.000000
20
-796.306152
30
128.839233
70
192
0
VERTEX
8
OBJECT038
10
656.000000
20
-806.454590
30
115.553368
70
192
0
VERTEX
8
OBJECT038
10
576.000000
20
-806.454590
30
115.553368
70
192
0
VERTEX
8
OBJECT038
10
576.000000
20
-766.629150
30
143.999985
70
192
0
VERTEX
8
OBJECT038
10
656.000000
20
-766.629150
30
143.999985
70
192
0
VERTEX
8
OBJECT038
10
656.000000
20
-812.000000
30
99.399284
70
192
0
VERTEX
8
OBJECT038
10
576.000000
20
-812.000000
30
99.399284
70
192
0
VERTEX
8
OBJECT038
10
576.000000
20
-767.003601
30
98.994690
70
192
0
VERTEX
8
OBJECT038
10
656.000000
20
-767.003601
30
98.994690
70
192
0
VERTEX
8
OBJECT038
10
0
20
0
30
0
70
128
71
2
72
3
73
-4
0
VERTEX
8
OBJECT038
10
0
20
0
30
0
70
128
71
-2
72
4
73
1
0
VERTEX
8
OBJECT038
10
0
20
0
30
0
70
128
71
6
72
4
73
-3
0
VERTEX
8
OBJECT038
10
0
20
0
30
0
70
128
71
-6
72
3
73
5
0
VERTEX
8
OBJECT038
10
0
20
0
30
0
70
128
71
8
72
2
73
-1
0
VERTEX
8
OBJECT038
10
0
20
0
30
0
70
128
71
-8
72
1
73
7
0
VERTEX
8
OBJECT038
10
0
20
0
30
0
70
128
71
10
72
6
73
-5
0
VERTEX
8
OBJECT038
10
0
20
0
30
0
70
128
71
-10
72
5
73
9
0
VERTEX
8
OBJECT038
10
0
20
0
30
0
70
128
71
12
72
8
73
-7
0
VERTEX
8
OBJECT038
10
0
20
0
30
0
70
128
71
-12
72
7
73
11
0
VERTEX
8
OBJECT038
10
0
20
0
30
0
70
128
71
9
72
12
73
-11
0
VERTEX
8
OBJECT038
10
0
20
0
30
0
70
128
71
-9
72
11
73
10
0
VERTEX
8
OBJECT038
10
0
20
0
30
0
70
128
71
7
72
1
73
-4
0
VERTEX
8
OBJECT038
10
0
20
0
30
0
70
128
71
-7
72
4
73
-6
0
VERTEX
8
OBJECT038
10
0
20
0
30
0
70
128
71
-7
72
6
73
-10
0
VERTEX
8
OBJECT038
10
0
20
0
30
0
70
128
71
-7
72
10
73
11
0
VERTEX
8
OBJECT038
10
0
20
0
30
0
70
128
71
5
72
3
73
-2
0
VERTEX
8
OBJECT038
10
0
20
0
30
0
70
128
71
-5
72
2
73
-8
0
VERTEX
8
OBJECT038
10
0
20
0
30
0
70
128
71
-5
72
8
73
-12
0
VERTEX
8
OBJECT038
10
0
20
0
30
0
70
128
71
-5
72
12
73
9
0
SEQEND
8
OBJECT038
0
POLYLINE
8
OBJECT039
66
1
70
64
71
12
72
20
62
50
0
VERTEX
8
OBJECT039
10
576.000000
20
-796.805847
30
69.673576
70
192
0
VERTEX
8
OBJECT039
10
656.000000
20
-796.805847
30
69.673576
70
192
0
VERTEX
8
OBJECT039
10
656.000000
20
-783.544800
30
59.553551
70
192
0
VERTEX
8
OBJECT039
10
576.000000
20
-783.544800
30
59.553551
70
192
0
VERTEX
8
OBJECT039
10
576.000000
20
-806.734985
30
83.150322
70
192
0
VERTEX
8
OBJECT039
10
656.000000
20
-806.734985
30
83.150322
70
192
0
VERTEX
8
OBJECT039
10
656.000000
20
-767.397278
30
54.000603
70
192
0
VERTEX
8
OBJECT039
10
576.000000
20
-767.397278
30
54.000603
70
192
0
VERTEX
8
OBJECT039
10
576.000000
20
-812.000000
30
99.400963
70
192
0
VERTEX
8
OBJECT039
10
656.000000
20
-812.000000
30
99.400963
70
192
0
VERTEX
8
OBJECT039
10
656.000000
20
-767.010925
30
99.005821
70
192
0
VERTEX
8
OBJECT039
10
576.000000
20
-767.010925
30
99.005821
70
192
0
VERTEX
8
OBJECT039
10
0
20
0
30
0
70
128
71
2
72
3
73
-4
0
VERTEX
8
OBJECT039
10
0
20
0
30
0
70
128
71
-2
72
4
73
1
0
VERTEX
8
OBJECT039
10
0
20
0
30
0
70
128
71
1
72
5
73
-6
0
VERTEX
8
OBJECT039
10
0
20
0
30
0
70
128
71
-1
72
6
73
2
0
VERTEX
8
OBJECT039
10
0
20
0
30
0
70
128
71
3
72
7
73
-8
0
VERTEX
8
OBJECT039
10
0
20
0
30
0
70
128
71
-3
72
8
73
4
0
VERTEX
8
OBJECT039
10
0
20
0
30
0
70
128
71
5
72
9
73
-10
0
VERTEX
8
OBJECT039
10
0
20
0
30
0
70
128
71
-5
72
10
73
6
0
VERTEX
8
OBJECT039
10
0
20
0
30
0
70
128
71
7
72
11
73
-12
0
VERTEX
8
OBJECT039
10
0
20
0
30
0
70
128
71
-7
72
12
73
8
0
VERTEX
8
OBJECT039
10
0
20
0
30
0
70
128
71
11
72
10
73
-9
0
VERTEX
8
OBJECT039
10
0
20
0
30
0
70
128
71
-11
72
9
73
12
0
VERTEX
8
OBJECT039
10
0
20
0
30
0
70
128
71
5
72
1
73
-4
0
VERTEX
8
OBJECT039
10
0
20
0
30
0
70
128
71
-5
72
4
73
-8
0
VERTEX
8
OBJECT039
10
0
20
0
30
0
70
128
71
-5
72
8
73
-12
0
VERTEX
8
OBJECT039
10
0
20
0
30
0
70
128
71
-5
72
12
73
9
0
VERTEX
8
OBJECT039
10
0
20
0
30
0
70
128
71
7
72
3
73
-2
0
VERTEX
8
OBJECT039
10
0
20
0
30
0
70
128
71
-7
72
2
73
-6
0
VERTEX
8
OBJECT039
10
0
20
0
30
0
70
128
71
-7
72
6
73
-10
0
VERTEX
8
OBJECT039
10
0
20
0
30
0
70
128
71
-7
72
10
73
11
0
SEQEND
8
OBJECT039
0
POLYLINE
8
OBJECT040
66
1
70
64
71
15
72
24
62
50
0
VERTEX
8
OBJECT040
10
576.000000
20
-751.156799
30
59.260429
70
192
0
VERTEX
8
OBJECT040
10
656.000000
20
-751.155090
30
59.261650
70
192
0
VERTEX
8
OBJECT040
10
656.000000
20
-739.249939
30
68.035210
70
192
0
VERTEX
8
OBJECT040
10
622.076660
20
-737.698120
30
69.178856
70
192
0
VERTEX
8
OBJECT040
10
576.000000
20
-737.698120
30
69.178856
70
192
0
VERTEX
8
OBJECT040
10
622.179199
20
-737.700806
30
69.177422
70
192
0
VERTEX
8
OBJECT040
10
656.000000
20
-736.389282
30
70.894249
70
192
0
VERTEX
8
OBJECT040
10
656.000000
20
-727.551575
30
82.463280
70
192
0
VERTEX
8
OBJECT040
10
576.000000
20
-727.551575
30
82.463280
70
192
0
VERTEX
8
OBJECT040
10
576.000000
20
-767.417053
30
54.002254
70
192
0
VERTEX
8
OBJECT040
10
656.000000
20
-767.416077
30
54.003223
70
192
0
VERTEX
8
OBJECT040
10
656.000000
20
-722.000061
30
98.612206
70
192
0
VERTEX
8
OBJECT040
10
576.000000
20
-722.000061
30
98.612206
70
192
0
VERTEX
8
OBJECT040
10
576.000000
20
-767.041687
30
99.004601
70
192
0
VERTEX
8
OBJECT040
10
656.000000
20
-767.040710
30
99.004601
70
192
0
VERTEX
8
OBJECT040
10
0
20
0
30
0
70
128
71
2
72
3
73
-4
0
VERTEX
8
OBJECT040
10
0
20
0
30
0
70
128
71
-2
72
4
73
-5
0
VERTEX
8
OBJECT040
10
0
20
0
30
0
70
128
71
-2
72
5
73
1
0
VERTEX
8
OBJECT040
10
0
20
0
30
0
70
128
71
6
72
7
73
-8
0
VERTEX
8
OBJECT040
10
0
20
0
30
0
70
128
71
-6
72
8
73
-9
0
VERTEX
8
OBJECT040
10
0
20
0
30
0
70
128
71
-6
72
9
73
5
0
VERTEX
8
OBJECT040
10
0
20
0
30
0
70
128
71
1
72
10
73
-11
0
VERTEX
8
OBJECT040
10
0
20
0
30
0
70
128
71
-1
72
11
73
2
0
VERTEX
8
OBJECT040
10
0
20
0
30
0
70
128
71
8
72
12
73
-13
0
VERTEX
8
OBJECT040
10
0
20
0
30
0
70
128
71
-8
72
13
73
9
0
VERTEX
8
OBJECT040
10
0
20
0
30
0
70
128
71
10
72
14
73
-15
0
VERTEX
8
OBJECT040
10
0
20
0
30
0
70
128
71
-10
72
15
73
11
0
VERTEX
8
OBJECT040
10
0
20
0
30
0
70
128
71
12
72
15
73
-14
0
VERTEX
8
OBJECT040
10
0
20
0
30
0
70
128
71
-12
72
14
73
13
0
VERTEX
8
OBJECT040
10
0
20
0
30
0
70
128
71
3
72
7
73
4
0
VERTEX
8
OBJECT040
10
0
20
0
30
0
70
128
71
10
72
1
73
-5
0
VERTEX
8
OBJECT040
10
0
20
0
30
0
70
128
71
-10
72
5
73
-9
0
VERTEX
8
OBJECT040
10
0
20
0
30
0
70
128
71
-10
72
9
73
-13
0
VERTEX
8
OBJECT040
10
0
20
0
30
0
70
128
71
-10
72
13
73
14
0
VERTEX
8
OBJECT040
10
0
20
0
30
0
70
128
71
8
72
7
73
-3
0
VERTEX
8
OBJECT040
10
0
20
0
30
0
70
128
71
-8
72
3
73
-2
0
VERTEX
8
OBJECT040
10
0
20
0
30
0
70
128
71
-8
72
2
73
-11
0
VERTEX
8
OBJECT040
10
0
20
0
30
0
70
128
71
-8
72
11
73
-15
0
VERTEX
8
OBJECT040
10
0
20
0
30
0
70
128
71
-8
72
15
73
12
0
SEQEND
8
OBJECT040
0
POLYLINE
8
OBJECT041
66
1
70
64
71
12
72
20
62
50
0
VERTEX
8
OBJECT041
10
576.000000
20
-737.206848
30
128.343430
70
192
0
VERTEX
8
OBJECT041
10
656.000000
20
-737.206848
30
128.343430
70
192
0
VERTEX
8
OBJECT041
10
656.000000
20
-750.480164
30
138.470993
70
192
0
VERTEX
8
OBJECT041
10
576.000000
20
-750.480164
30
138.470993
70
192
0
VERTEX
8
OBJECT041
10
576.000000
20
-727.264648
30
114.845764
70
192
0
VERTEX
8
OBJECT041
10
656.000000
20
-727.264648
30
114.845764
70
192
0
VERTEX
8
OBJECT041
10
656.000000
20
-766.628723
30
143.995911
70
192
0
VERTEX
8
OBJECT041
10
576.000000
20
-766.628723
30
143.995911
70
192
0
VERTEX
8
OBJECT041
10
576.000000
20
-722.007141
30
98.631866
70
192
0
VERTEX
8
OBJECT041
10
656.000000
20
-722.007141
30
98.631866
70
192
0
VERTEX
8
OBJECT041
10
656.000000
20
-767.003601
30
99.005821
70
192
0
VERTEX
8
OBJECT041
10
576.000000
20
-767.003601
30
99.005821
70
192
0
VERTEX
8
OBJECT041
10
0
20
0
30
0
70
128
71
2
72
3
73
-4
0
VERTEX
8
OBJECT041
10
0
20
0
30
0
70
128
71
-2
72
4
73
1
0
VERTEX
8
OBJECT041
10
0
20
0
30
0
70
128
71
6
72
2
73
-1
0
VERTEX
8
OBJECT041
10
0
20
0
30
0
70
128
71
-6
72
1
73
5
0
VERTEX
8
OBJECT041
10
0
20
0
30
0
70
128
71
3
72
7
73
-8
0
VERTEX
8
OBJECT041
10
0
20
0
30
0
70
128
71
-3
72
8
73
4
0
VERTEX
8
OBJECT041
10
0
20
0
30
0
70
128
71
10
72
6
73
-5
0
VERTEX
8
OBJECT041
10
0
20
0
30
0
70
128
71
-10
72
5
73
9
0
VERTEX
8
OBJECT041
10
0
20
0
30
0
70
128
71
12
72
8
73
-7
0
VERTEX
8
OBJECT041
10
0
20
0
30
0
70
128
71
-12
72
7
73
11
0
VERTEX
8
OBJECT041
10
0
20
0
30
0
70
128
71
11
72
10
73
-9
0
VERTEX
8
OBJECT041
10
0
20
0
30
0
70
128
71
-11
72
9
73
12
0
VERTEX
8
OBJECT041
10
0
20
0
30
0
70
128
71
5
72
1
73
-4
0
VERTEX
8
OBJECT041
10
0
20
0
30
0
70
128
71
-5
72
4
73
-8
0
VERTEX
8
OBJECT041
10
0
20
0
30
0
70
128
71
-5
72
8
73
-12
0
VERTEX
8
OBJECT041
10
0
20
0
30
0
70
128
71
-5
72
12
73
9
0
VERTEX
8
OBJECT041
10
0
20
0
30
0
70
128
71
7
72
3
73
-2
0
VERTEX
8
OBJECT041
10
0
20
0
30
0
70
128
71
-7
72
2
73
-6
0
VERTEX
8
OBJECT041
10
0
20
0
30
0
70
128
71
-7
72
6
73
-10
0
VERTEX
8
OBJECT041
10
0
20
0
30
0
70
128
71
-7
72
10
73
11
0
SEQEND
8
OBJECT041
0
POLYLINE
8
OBJECT042
66
1
70
64
71
12
72
20
62
50
0
VERTEX
8
OBJECT042
10
628.000000
20
-766.000000
30
-262.000000
70
192
0
VERTEX
8
OBJECT042
10
630.000000
20
-766.000000
30
-262.000000
70
192
0
VERTEX
8
OBJECT042
10
630.000000
20
-382.000000
30
-262.000000
70
192
0
VERTEX
8
OBJECT042
10
628.000000
20
-382.000000
30
-262.000000
70
192
0
VERTEX
8
OBJECT042
10
630.000000
20
-382.000000
30
-226.607773
70
192
0
VERTEX
8
OBJECT042
10
630.000000
20
-766.000000
30
-96.727295
70
192
0
VERTEX
8
OBJECT042
10
630.000000
20
-631.230347
30
-96.727295
70
192
0
VERTEX
8
OBJECT042
10
630.000000
20
-393.830902
30
-215.251160
70
192
0
VERTEX
8
OBJECT042
10
628.000000
20
-382.000000
30
-226.607773
70
192
0
VERTEX
8
OBJECT042
10
628.000000
20
-393.836731
30
-215.248260
70
192
0
VERTEX
8
OBJECT042
10
628.000000
20
-631.230347
30
-96.727295
70
192
0
VERTEX
8
OBJECT042
10
628.000000
20
-766.000000
30
-96.727295
70
192
0
VERTEX
8
OBJECT042
10
0
20
0
30
0
70
128
71
2
72
3
73
-4
0
VERTEX
8
OBJECT042
10
0
20
0
30
0
70
128
71
-2
72
4
73
1
0
VERTEX
8
OBJECT042
10
0
20
0
30
0
70
128
71
3
72
2
73
-6
0
VERTEX
8
OBJECT042
10
0
20
0
30
0
70
128
71
-3
72
6
73
-7
0
VERTEX
8
OBJECT042
10
0
20
0
30
0
70
128
71
-3
72
7
73
-8
0
VERTEX
8
OBJECT042
10
0
20
0
30
0
70
128
71
-3
72
8
73
5
0
VERTEX
8
OBJECT042
10
0
20
0
30
0
70
128
71
3
72
5
73
-9
0
VERTEX
8
OBJECT042
10
0
20
0
30
0
70
128
71
-3
72
9
73
4
0
VERTEX
8
OBJECT042
10
0
20
0
30
0
70
128
71
5
72
8
73
-10
0
VERTEX
8
OBJECT042
10
0
20
0
30
0
70
128
71
-5
72
10
73
9
0
VERTEX
8
OBJECT042
10
0
20
0
30
0
70
128
71
7
72
6
73
-12
0
VERTEX
8
OBJECT042
10
0
20
0
30
0
70
128
71
-7
72
12
73
11
0
VERTEX
8
OBJECT042
10
0
20
0
30
0
70
128
71
8
72
7
73
-11
0
VERTEX
8
OBJECT042
10
0
20
0
30
0
70
128
71
-8
72
11
73
10
0
VERTEX
8
OBJECT042
10
0
20
0
30
0
70
128
71
2
72
1
73
-12
0
VERTEX
8
OBJECT042
10
0
20
0
30
0
70
128
71
-2
72
12
73
6
0
VERTEX
8
OBJECT042
10
0
20
0
30
0
70
128
71
4
72
9
73
-10
0
VERTEX
8
OBJECT042
10
0
20
0
30
0
70
128
71
-4
72
10
73
-11
0
VERTEX
8
OBJECT042
10
0
20
0
30
0
70
128
71
-4
72
11
73
-12
0
VERTEX
8
OBJECT042
10
0
20
0
30
0
70
128
71
-4
72
12
73
1
0
SEQEND
8
OBJECT042
0
POLYLINE
8
OBJECT043
66
1
70
64
71
10
72
16
62
50
0
VERTEX
8
OBJECT043
10
628.000000
20
-382.000000
30
-262.000000
70
192
0
VERTEX
8
OBJECT043
10
549.560364
20
-382.000000
30
-262.000000
70
192
0
VERTEX
8
OBJECT043
10
406.042389
20
-566.963379
30
-262.000000
70
192
0
VERTEX
8
OBJECT043
10
628.000000
20
-566.963379
30
-262.000000
70
192
0
VERTEX
8
OBJECT043
10
628.000000
20
-382.000000
30
-226.607773
70
192
0
VERTEX
8
OBJECT043
10
549.559570
20
-382.000000
30
-226.607773
70
192
0
VERTEX
8
OBJECT043
10
628.000000
20
-393.836731
30
-215.248260
70
192
0
VERTEX
8
OBJECT043
10
540.374878
20
-393.836731
30
-215.248260
70
192
0
VERTEX
8
OBJECT043
10
406.039459
20
-566.963379
30
-128.811707
70
192
0
VERTEX
8
OBJECT043
10
628.000000
20
-566.963379
30
-128.811707
70
192
0
VERTEX
8
OBJECT043
10
0
20
0
30
0
70
128
71
2
72
3
73
-4
0
VERTEX
8
OBJECT043
10
0
20
0
30
0
70
128
71
-2
72
4
73
1
0
VERTEX
8
OBJECT043
10
0
20
0
30
0
70
128
71
1
72
5
73
-6
0
VERTEX
8
OBJECT043
10
0
20
0
30
0
70
128
71
-1
72
6
73
2
0
VERTEX
8
OBJECT043
10
0
20
0
30
0
70
128
71
8
72
6
73
-5
0
VERTEX
8
OBJECT043
10
0
20
0
30
0
70
128
71
-8
72
5
73
7
0
VERTEX
8
OBJECT043
10
0
20
0
30
0
70
128
71
8
72
7
73
-10
0
VERTEX
8
OBJECT043
10
0
20
0
30
0
70
128
71
-8
72
10
73
9
0
VERTEX
8
OBJECT043
10
0
20
0
30
0
70
128
71
2
72
6
73
-8
0
VERTEX
8
OBJECT043
10
0
20
0
30
0
70
128
71
-2
72
8
73
-9
0
VERTEX
8
OBJECT043
10
0
20
0
30
0
70
128
71
-2
72
9
73
3
0
VERTEX
8
OBJECT043
10
0
20
0
30
0
70
128
71
1
72
4
73
-10
0
VERTEX
8
OBJECT043
10
0
20
0
30
0
70
128
71
-1
72
10
73
-7
0
VERTEX
8
OBJECT043
10
0
20
0
30
0
70
128
71
-1
72
7
73
5
0
VERTEX
8
OBJECT043
10
0
20
0
30
0
70
128
71
3
72
9
73
-10
0
VERTEX
8
OBJECT043
10
0
20
0
30
0
70
128
71
-3
72
10
73
4
0
SEQEND
8
OBJECT043
0
POLYLINE
8
OBJECT044
66
1
70
64
71
10
72
16
62
50
0
VERTEX
8
OBJECT044
10
406.042389
20
-566.963379
30
-262.000000
70
192
0
VERTEX
8
OBJECT044
10
356.000000
20
-631.457092
30
-262.000000
70
192
0
VERTEX
8
OBJECT044
10
356.000000
20
-766.000000
30
-262.000000
70
192
0
VERTEX
8
OBJECT044
10
628.000000
20
-766.000000
30
-262.000000
70
192
0
VERTEX
8
OBJECT044
10
628.000000
20
-566.963379
30
-262.000000
70
192
0
VERTEX
8
OBJECT044
10
356.000000
20
-631.456543
30
-243.636368
70
192
0
VERTEX
8
OBJECT044
10
356.000000
20
-766.000000
30
-243.636368
70
192
0
VERTEX
8
OBJECT044
10
628.000000
20
-766.000000
30
-243.636368
70
192
0
VERTEX
8
OBJECT044
10
406.043945
20
-566.963379
30
-243.636368
70
192
0
VERTEX
8
OBJECT044
10
628.000000
20
-566.963379
30
-243.636368
70
192
0
VERTEX
8
OBJECT044
10
0
20
0
30
0
70
128
71
2
72
3
73
-4
0
VERTEX
8
OBJECT044
10
0
20
0
30
0
70
128
71
-2
72
4
73
-5
0
VERTEX
8
OBJECT044
10
0
20
0
30
0
70
128
71
-2
72
5
73
1
0
VERTEX
8
OBJECT044
10
0
20
0
30
0
70
128
71
2
72
6
73
-7
0
VERTEX
8
OBJECT044
10
0
20
0
30
0
70
128
71
-2
72
7
73
3
0
VERTEX
8
OBJECT044
10
0
20
0
30
0
70
128
71
3
72
7
73
-8
0
VERTEX
8
OBJECT044
10
0
20
0
30
0
70
128
71
-3
72
8
73
4
0
VERTEX
8
OBJECT044
10
0
20
0
30
0
70
128
71
2
72
1
73
-9
0
VERTEX
8
OBJECT044
10
0
20
0
30
0
70
128
71
-2
72
9
73
6
0
VERTEX
8
OBJECT044
10
0
20
0
30
0
70
128
71
4
72
8
73
-10
0
VERTEX
8
OBJECT044
10
0
20
0
30
0
70
128
71
-4
72
10
73
5
0
VERTEX
8
OBJECT044
10
0
20
0
30
0
70
128
71
5
72
10
73
-9
0
VERTEX
8
OBJECT044
10
0
20
0
30
0
70
128
71
-5
72
9
73
1
0
VERTEX
8
OBJECT044
10
0
20
0
30
0
70
128
71
7
72
6
73
-9
0
VERTEX
8
OBJECT044
10
0
20
0
30
0
70
128
71
-7
72
9
73
-10
0
VERTEX
8
OBJECT044
10
0
20
0
30
0
70
128
71
-7
72
10
73
8
0
SEQEND
8
OBJECT044
0
POLYLINE
8
OBJECT045
66
1
70
64
71
6
72
8
62
50
0
VERTEX
8
OBJECT045
10
356.000000
20
-657.918945
30
-40.292191
70
192
0
VERTEX
8
OBJECT045
10
356.000000
20
-669.312012
30
-15.111132
70
192
0
VERTEX
8
OBJECT045
10
356.000000
20
-710.074036
30
-15.111132
70
192
0
VERTEX
8
OBJECT045
10
628.000000
20
-657.919495
30
-40.291924
70
192
0
VERTEX
8
OBJECT045
10
628.000000
20
-669.312439
30
-15.111132
70
192
0
VERTEX
8
OBJECT045
10
628.000000
20
-710.074036
30
-15.111132
70
192
0
VERTEX
8
OBJECT045
10
0
20
0
30
0
70
128
71
2
72
3
73
1
0
VERTEX
8
OBJECT045
10
0
20
0
30
0
70
128
71
1
72
4
73
-5
0
VERTEX
8
OBJECT045
10
0
20
0
30
0
70
128
71
-1
72
5
73
2
0
VERTEX
8
OBJECT045
10
0
20
0
30
0
70
128
71
4
72
6
73
5
0
VERTEX
8
OBJECT045
10
0
20
0
30
0
70
128
71
2
72
5
73
-6
0
VERTEX
8
OBJECT045
10
0
20
0
30
0
70
128
71
-2
72
6
73
3
0
VERTEX
8
OBJECT045
10
0
20
0
30
0
70
128
71
1
72
3
73
-6
0
VERTEX
8
OBJECT045
10
0
20
0
30
0
70
128
71
-1
72
6
73
4
0
SEQEND
8
OBJECT045
0
POLYLINE
8
OBJECT046
66
1
70
64
71
8
72
12
62
50
0
VERTEX
8
OBJECT046
10
356.000000
20
-669.312805
30
-15.111132
70
192
0
VERTEX
8
OBJECT046
10
356.000000
20
-720.741577
30
98.556793
70
192
0
VERTEX
8
OBJECT046
10
356.000000
20
-766.000000
30
141.999969
70
192
0
VERTEX
8
OBJECT046
10
356.000000
20
-766.000000
30
-15.111132
70
192
0
VERTEX
8
OBJECT046
10
628.000000
20
-766.000000
30
141.999969
70
192
0
VERTEX
8
OBJECT046
10
628.000000
20
-720.741455
30
98.556572
70
192
0
VERTEX
8
OBJECT046
10
628.000000
20
-669.312439
30
-15.111132
70
192
0
VERTEX
8
OBJECT046
10
628.000000
20
-766.000000
30
-15.111132
70
192
0
VERTEX
8
OBJECT046
10
0
20
0
30
0
70
128
71
2
72
3
73
-4
0
VERTEX
8
OBJECT046
10
0
20
0
30
0
70
128
71
-2
72
4
73
1
0
VERTEX
8
OBJECT046
10
0
20
0
30
0
70
128
71
3
72
2
73
-6
0
VERTEX
8
OBJECT046
10
0
20
0
30
0
70
128
71
-3
72
6
73
5
0
VERTEX
8
OBJECT046
10
0
20
0
30
0
70
128
71
1
72
7
73
-6
0
VERTEX
8
OBJECT046
10
0
20
0
30
0
70
128
71
-1
72
6
73
2
0
VERTEX
8
OBJECT046
10
0
20
0
30
0
70
128
71
3
72
5
73
-8
0
VERTEX
8
OBJECT046
10
0
20
0
30
0
70
128
71
-3
72
8
73
4
0
VERTEX
8
OBJECT046
10
0
20
0
30
0
70
128
71
6
72
7
73
-8
0
VERTEX
8
OBJECT046
10
0
20
0
30
0
70
128
71
-6
72
8
73
5
0
VERTEX
8
OBJECT046
10
0
20
0
30
0
70
128
71
1
72
4
73
-8
0
VERTEX
8
OBJECT046
10
0
20
0
30
0
70
128
71
-1
72
8
73
7
0
SEQEND
8
OBJECT046
0
POLYLINE
8
OBJECT047
66
1
70
64
71
8
72
12
62
50
0
VERTEX
8
OBJECT047
10
630.000000
20
-766.000000
30
141.999969
70
192
0
VERTEX
8
OBJECT047
10
630.000000
20
-720.741577
30
98.556793
70
192
0
VERTEX
8
OBJECT047
10
630.000000
20
-632.385803
30
-96.727295
70
192
0
VERTEX
8
OBJECT047
10
630.000000
20
-766.000000
30
-96.727295
70
192
0
VERTEX
8
OBJECT047
10
628.000000
20
-720.741455
30
98.556572
70
192
0
VERTEX
8
OBJECT047
10
628.000000
20
-766.000000
30
141.999969
70
192
0
VERTEX
8
OBJECT047
10
628.000000
20
-766.000000
30
-96.727295
70
192
0
VERTEX
8
OBJECT047
10
628.000000
20
-632.385803
30
-96.727295
70
192
0
VERTEX
8
OBJECT047
10
0
20
0
30
0
70
128
71
2
72
3
73
-4
0
VERTEX
8
OBJECT047
10
0
20
0
30
0
70
128
71
-2
72
4
73
1
0
VERTEX
8
OBJECT047
10
0
20
0
30
0
70
128
71
2
72
1
73
-6
0
VERTEX
8
OBJECT047
10
0
20
0
30
0
70
128
71
-2
72
6
73
5
0
VERTEX
8
OBJECT047
10
0
20
0
30
0
70
128
71
4
72
3
73
-8
0
VERTEX
8
OBJECT047
10
0
20
0
30
0
70
128
71
-4
72
8
73
7
0
VERTEX
8
OBJECT047
10
0
20
0
30
0
70
128
71
3
72
2
73
-5
0
VERTEX
8
OBJECT047
10
0
20
0
30
0
70
128
71
-3
72
5
73
8
0
VERTEX
8
OBJECT047
10
0
20
0
30
0
70
128
71
4
72
7
73
-6
0
VERTEX
8
OBJECT047
10
0
20
0
30
0
70
128
71
-4
72
6
73
1
0
VERTEX
8
OBJECT047
10
0
20
0
30
0
70
128
71
8
72
5
73
-6
0
VERTEX
8
OBJECT047
10
0
20
0
30
0
70
128
71
-8
72
6
73
7
0
SEQEND
8
OBJECT047
0
POLYLINE
8
OBJECT048
66
1
70
64
71
6
72
8
62
50
0
VERTEX
8
OBJECT048
10
356.000000
20
-862.687622
30
-15.111132
70
192
0
VERTEX
8
OBJECT048
10
356.000000
20
-872.979919
30
-37.859238
70
192
0
VERTEX
8
OBJECT048
10
356.000000
20
-825.908447
30
-15.111132
70
192
0
VERTEX
8
OBJECT048
10
628.000000
20
-862.687195
30
-15.111132
70
192
0
VERTEX
8
OBJECT048
10
628.000000
20
-872.979370
30
-37.858971
70
192
0
VERTEX
8
OBJECT048
10
628.000000
20
-825.908447
30
-15.111132
70
192
0
VERTEX
8
OBJECT048
10
0
20
0
30
0
70
128
71
2
72
3
73
1
0
VERTEX
8
OBJECT048
10
0
20
0
30
0
70
128
71
1
72
4
73
-5
0
VERTEX
8
OBJECT048
10
0
20
0
30
0
70
128
71
-1
72
5
73
2
0
VERTEX
8
OBJECT048
10
0
20
0
30
0
70
128
71
4
72
6
73
5
0
VERTEX
8
OBJECT048
10
0
20
0
30
0
70
128
71
1
72
3
73
-6
0
VERTEX
8
OBJECT048
10
0
20
0
30
0
70
128
71
-1
72
6
73
4
0
VERTEX
8
OBJECT048
10
0
20
0
30
0
70
128
71
2
72
5
73
-6
0
VERTEX
8
OBJECT048
10
0
20
0
30
0
70
128
71
-2
72
6
73
3
0
SEQEND
8
OBJECT048
0
POLYLINE
8
OBJECT049
66
1
70
64
71
8
72
12
62
50
0
VERTEX
8
OBJECT049
10
356.000000
20
-766.000000
30
141.999969
70
192
0
VERTEX
8
OBJECT049
10
356.000000
20
-811.258057
30
98.557579
70
192
0
VERTEX
8
OBJECT049
10
356.000000
20
-862.687195
30
-15.111132
70
192
0
VERTEX
8
OBJECT049
10
356.000000
20
-766.000000
30
-15.111132
70
192
0
VERTEX
8
OBJECT049
10
628.000000
20
-811.258301
30
98.557045
70
192
0
VERTEX
8
OBJECT049
10
628.000000
20
-766.000000
30
141.999969
70
192
0
VERTEX
8
OBJECT049
10
628.000000
20
-862.687195
30
-15.111132
70
192
0
VERTEX
8
OBJECT049
10
628.000000
20
-766.000000
30
-15.111132
70
192
0
VERTEX
8
OBJECT049
10
0
20
0
30
0
70
128
71
2
72
3
73
-4
0
VERTEX
8
OBJECT049
10
0
20
0
30
0
70
128
71
-2
72
4
73
1
0
VERTEX
8
OBJECT049
10
0
20
0
30
0
70
128
71
2
72
1
73
-6
0
VERTEX
8
OBJECT049
10
0
20
0
30
0
70
128
71
-2
72
6
73
5
0
VERTEX
8
OBJECT049
10
0
20
0
30
0
70
128
71
2
72
5
73
-7
0
VERTEX
8
OBJECT049
10
0
20
0
30
0
70
128
71
-2
72
7
73
3
0
VERTEX
8
OBJECT049
10
0
20
0
30
0
70
128
71
4
72
8
73
-6
0
VERTEX
8
OBJECT049
10
0
20
0
30
0
70
128
71
-4
72
6
73
1
0
VERTEX
8
OBJECT049
10
0
20
0
30
0
70
128
71
5
72
6
73
-8
0
VERTEX
8
OBJECT049
10
0
20
0
30
0
70
128
71
-5
72
8
73
7
0
VERTEX
8
OBJECT049
10
0
20
0
30
0
70
128
71
4
72
3
73
-7
0
VERTEX
8
OBJECT049
10
0
20
0
30
0
70
128
71
-4
72
7
73
8
0
SEQEND
8
OBJECT049
0
POLYLINE
8
OBJECT050
66
1
70
64
71
8
72
12
62
50
0
VERTEX
8
OBJECT050
10
630.000000
20
-766.000000
30
-96.727295
70
192
0
VERTEX
8
OBJECT050
10
630.000000
20
-899.614197
30
-96.727295
70
192
0
VERTEX
8
OBJECT050
10
630.000000
20
-811.258057
30
98.557579
70
192
0
VERTEX
8
OBJECT050
10
630.000000
20
-766.000000
30
141.999969
70
192
0
VERTEX
8
OBJECT050
10
628.000000
20
-766.000000
30
141.999969
70
192
0
VERTEX
8
OBJECT050
10
628.000000
20
-811.258301
30
98.557045
70
192
0
VERTEX
8
OBJECT050
10
628.000000
20
-899.614197
30
-96.727295
70
192
0
VERTEX
8
OBJECT050
10
628.000000
20
-766.000000
30
-96.727295
70
192
0
VERTEX
8
OBJECT050
10
0
20
0
30
0
70
128
71
2
72
3
73
-4
0
VERTEX
8
OBJECT050
10
0
20
0
30
0
70
128
71
-2
72
4
73
1
0
VERTEX
8
OBJECT050
10
0
20
0
30
0
70
128
71
4
72
3
73
-6
0
VERTEX
8
OBJECT050
10
0
20
0
30
0
70
128
71
-4
72
6
73
5
0
VERTEX
8
OBJECT050
10
0
20
0
30
0
70
128
71
2
72
1
73
-8
0
VERTEX
8
OBJECT050
10
0
20
0
30
0
70
128
71
-2
72
8
73
7
0
VERTEX
8
OBJECT050
10
0
20
0
30
0
70
128
71
2
72
7
73
-6
0
VERTEX
8
OBJECT050
10
0
20
0
30
0
70
128
71
-2
72
6
73
3
0
VERTEX
8
OBJECT050
10
0
20
0
30
0
70
128
71
1
72
4
73
-5
0
VERTEX
8
OBJECT050
10
0
20
0
30
0
70
128
71
-1
72
5
73
8
0
VERTEX
8
OBJECT050
10
0
20
0
30
0
70
128
71
6
72
7
73
-8
0
VERTEX
8
OBJECT050
10
0
20
0
30
0
70
128
71
-6
72
8
73
5
0
SEQEND
8
OBJECT050
0
POLYLINE
8
OBJECT051
66
1
70
64
71
12
72
20
62
50
0
VERTEX
8
OBJECT051
10
628.000000
20
-1150.000000
30
-262.000000
70
192
0
VERTEX
8
OBJECT051
10
630.000000
20
-1150.000000
30
-262.000000
70
192
0
VERTEX
8
OBJECT051
10
630.000000
20
-766.000000
30
-262.000000
70
192
0
VERTEX
8
OBJECT051
10
628.000000
20
-766.000000
30
-262.000000
70
192
0
VERTEX
8
OBJECT051
10
630.000000
20
-1150.000000
30
-226.607742
70
192
0
VERTEX
8
OBJECT051
10
630.000000
20
-1138.169189
30
-215.251190
70
192
0
VERTEX
8
OBJECT051
10
630.000000
20
-900.769714
30
-96.727295
70
192
0
VERTEX
8
OBJECT051
10
630.000000
20
-766.000000
30
-96.727295
70
192
0
VERTEX
8
OBJECT051
10
628.000000
20
-1150.000000
30
-226.607742
70
192
0
VERTEX
8
OBJECT051
10
628.000000
20
-1138.173218
30
-215.253220
70
192
0
VERTEX
8
OBJECT051
10
628.000000
20
-766.000000
30
-96.727295
70
192
0
VERTEX
8
OBJECT051
10
628.000000
20
-900.769714
30
-96.727295
70
192
0
VERTEX
8
OBJECT051
10
0
20
0
30
0
70
128
71
2
72
3
73
-4
0
VERTEX
8
OBJECT051
10
0
20
0
30
0
70
128
71
-2
72
4
73
1
0
VERTEX
8
OBJECT051
10
0
20
0
30
0
70
128
71
2
72
5
73
-6
0
VERTEX
8
OBJECT051
10
0
20
0
30
0
70
128
71
-2
72
6
73
-7
0
VERTEX
8
OBJECT051
10
0
20
0
30
0
70
128
71
-2
72
7
73
-8
0
VERTEX
8
OBJECT051
10
0
20
0
30
0
70
128
71
-2
72
8
73
3
0
VERTEX
8
OBJECT051
10
0
20
0
30
0
70
128
71
2
72
1
73
-9
0
VERTEX
8
OBJECT051
10
0
20
0
30
0
70
128
71
-2
72
9
73
5
0
VERTEX
8
OBJECT051
10
0
20
0
30
0
70
128
71
6
72
5
73
-9
0
VERTEX
8
OBJECT051
10
0
20
0
30
0
70
128
71
-6
72
9
73
10
0
VERTEX
8
OBJECT051
10
0
20
0
30
0
70
128
71
8
72
7
73
-12
0
VERTEX
8
OBJECT051
10
0
20
0
30
0
70
128
71
-8
72
12
73
11
0
VERTEX
8
OBJECT051
10
0
20
0
30
0
70
128
71
7
72
6
73
-10
0
VERTEX
8
OBJECT051
10
0
20
0
30
0
70
128
71
-7
72
10
73
12
0
VERTEX
8
OBJECT051
10
0
20
0
30
0
70
128
71
3
72
8
73
-11
0
VERTEX
8
OBJECT051
10
0
20
0
30
0
70
128
71
-3
72
11
73
4
0
VERTEX
8
OBJECT051
10
0
20
0
30
0
70
128
71
1
72
4
73
-11
0
VERTEX
8
OBJECT051
10
0
20
0
30
0
70
128
71
-1
72
11
73
-12
0
VERTEX
8
OBJECT051
10
0
20
0
30
0
70
128
71
-1
72
12
73
-10
0
VERTEX
8
OBJECT051
10
0
20
0
30
0
70
128
71
-1
72
10
73
9
0
SEQEND
8
OBJECT051
0
POLYLINE
8
OBJECT052
66
1
70
64
71
10
72
16
62
50
0
VERTEX
8
OBJECT052
10
402.919495
20
-961.015686
30
-262.000000
70
192
0
VERTEX
8
OBJECT052
10
549.559448
20
-1150.000000
30
-262.000000
70
192
0
VERTEX
8
OBJECT052
10
628.000000
20
-1150.000000
30
-262.000000
70
192
0
VERTEX
8
OBJECT052
10
628.000000
20
-961.015686
30
-262.000000
70
192
0
VERTEX
8
OBJECT052
10
549.559448
20
-1150.000000
30
-226.607742
70
192
0
VERTEX
8
OBJECT052
10
628.000000
20
-1150.000000
30
-226.607742
70
192
0
VERTEX
8
OBJECT052
10
540.382629
20
-1138.173218
30
-215.253220
70
192
0
VERTEX
8
OBJECT052
10
628.000000
20
-1138.173218
30
-215.253220
70
192
0
VERTEX
8
OBJECT052
10
402.919464
20
-961.015686
30
-126.805649
70
192
0
VERTEX
8
OBJECT052
10
628.000000
20
-961.015686
30
-126.805649
70
192
0
VERTEX
8
OBJECT052
10
0
20
0
30
0
70
128
71
2
72
3
73
-4
0
VERTEX
8
OBJECT052
10
0
20
0
30
0
70
128
71
-2
72
4
73
1
0
VERTEX
8
OBJECT052
10
0
20
0
30
0
70
128
71
2
72
5
73
-6
0
VERTEX
8
OBJECT052
10
0
20
0
30
0
70
128
71
-2
72
6
73
3
0
VERTEX
8
OBJECT052
10
0
20
0
30
0
70
128
71
5
72
7
73
-8
0
VERTEX
8
OBJECT052
10
0
20
0
30
0
70
128
71
-5
72
8
73
6
0
VERTEX
8
OBJECT052
10
0
20
0
30
0
70
128
71
7
72
9
73
-10
0
VERTEX
8
OBJECT052
10
0
20
0
30
0
70
128
71
-7
72
10
73
8
0
VERTEX
8
OBJECT052
10
0
20
0
30
0
70
128
71
2
72
1
73
-9
0
VERTEX
8
OBJECT052
10
0
20
0
30
0
70
128
71
-2
72
9
73
-7
0
VERTEX
8
OBJECT052
10
0
20
0
30
0
70
128
71
-2
72
7
73
5
0
VERTEX
8
OBJECT052
10
0
20
0
30
0
70
128
71
3
72
6
73
-8
0
VERTEX
8
OBJECT052
10
0
20
0
30
0
70
128
71
-3
72
8
73
-10
0
VERTEX
8
OBJECT052
10
0
20
0
30
0
70
128
71
-3
72
10
73
4
0
VERTEX
8
OBJECT052
10
0
20
0
30
0
70
128
71
4
72
10
73
-9
0
VERTEX
8
OBJECT052
10
0
20
0
30
0
70
128
71
-4
72
9
73
1
0
SEQEND
8
OBJECT052
0
POLYLINE
8
OBJECT053
66
1
70
64
71
10
72
16
62
50
0
VERTEX
8
OBJECT053
10
628.000000
20
-766.000000
30
-262.000000
70
192
0
VERTEX
8
OBJECT053
10
356.000000
20
-766.000000
30
-262.000000
70
192
0
VERTEX
8
OBJECT053
10
356.000000
20
-900.547546
30
-262.000000
70
192
0
VERTEX
8
OBJECT053
10
402.919495
20
-961.015686
30
-262.000000
70
192
0
VERTEX
8
OBJECT053
10
628.000000
20
-961.015686
30
-262.000000
70
192
0
VERTEX
8
OBJECT053
10
356.000000
20
-766.000000
30
-243.636368
70
192
0
VERTEX
8
OBJECT053
10
356.000000
20
-900.547546
30
-243.636368
70
192
0
VERTEX
8
OBJECT053
10
628.000000
20
-766.000000
30
-243.636368
70
192
0
VERTEX
8
OBJECT053
10
402.919464
20
-961.015686
30
-243.636368
70
192
0
VERTEX
8
OBJECT053
10
628.000000
20
-961.015686
30
-243.636368
70
192
0
VERTEX
8
OBJECT053
10
0
20
0
30
0
70
128
71
2
72
3
73
-4
0
VERTEX
8
OBJECT053
10
0
20
0
30
0
70
128
71
-2
72
4
73
-5
0
VERTEX
8
OBJECT053
10
0
20
0
30
0
70
128
71
-2
72
5
73
1
0
VERTEX
8
OBJECT053
10
0
20
0
30
0
70
128
71
2
72
6
73
-7
0
VERTEX
8
OBJECT053
10
0
20
0
30
0
70
128
71
-2
72
7
73
3
0
VERTEX
8
OBJECT053
10
0
20
0
30
0
70
128
71
2
72
1
73
-8
0
VERTEX
8
OBJECT053
10
0
20
0
30
0
70
128
71
-2
72
8
73
6
0
VERTEX
8
OBJECT053
10
0
20
0
30
0
70
128
71
3
72
7
73
-9
0
VERTEX
8
OBJECT053
10
0
20
0
30
0
70
128
71
-3
72
9
73
4
0
VERTEX
8
OBJECT053
10
0
20
0
30
0
70
128
71
5
72
10
73
-8
0
VERTEX
8
OBJECT053
10
0
20
0
30
0
70
128
71
-5
72
8
73
1
0
VERTEX
8
OBJECT053
10
0
20
0
30
0
70
128
71
4
72
9
73
-10
0
VERTEX
8
OBJECT053
10
0
20
0
30
0
70
128
71
-4
72
10
73
5
0
VERTEX
8
OBJECT053
10
0
20
0
30
0
70
128
71
7
72
6
73
-8
0
VERTEX
8
OBJECT053
10
0
20
0
30
0
70
128
71
-7
72
8
73
-10
0
VERTEX
8
OBJECT053
10
0
20
0
30
0
70
128
71
-7
72
10
73
9
0
SEQEND
8
OBJECT053
0
POLYLINE
8
OBJECT054
66
1
70
64
71
12
72
20
62
50
0
VERTEX
8
OBJECT054
10
638.559204
20
-960.000000
30
-241.000000
70
192
0
VERTEX
8
OBJECT054
10
638.559204
20
-960.000000
30
-61.932495
70
192
0
VERTEX
8
OBJECT054
10
638.559204
20
-869.064270
30
-15.000000
70
192
0
VERTEX
8
OBJECT054
10
638.559204
20
-666.000000
30
-15.000000
70
192
0
VERTEX
8
OBJECT054
10
638.559204
20
-568.000000
30
-64.000000
70
192
0
VERTEX
8
OBJECT054
10
638.559204
20
-568.000000
30
-241.000000
70
192
0
VERTEX
8
OBJECT054
10
626.000000
20
-869.064148
30
-15.000000
70
192
0
VERTEX
8
OBJECT054
10
626.000000
20
-960.000000
30
-61.932549
70
192
0
VERTEX
8
OBJECT054
10
626.000000
20
-568.000000
30
-64.000000
70
192
0
VERTEX
8
OBJECT054
10
626.000000
20
-666.000000
30
-15.000000
70
192
0
VERTEX
8
OBJECT054
10
626.000000
20
-960.000000
30
-241.000000
70
192
0
VERTEX
8
OBJECT054
10
626.000000
20
-568.000000
30
-241.000000
70
192
0
VERTEX
8
OBJECT054
10
0
20
0
30
0
70
128
71
2
72
3
73
-4
0
VERTEX
8
OBJECT054
10
0
20
0
30
0
70
128
71
-2
72
4
73
-5
0
VERTEX
8
OBJECT054
10
0
20
0
30
0
70
128
71
-2
72
5
73
-6
0
VERTEX
8
OBJECT054
10
0
20
0
30
0
70
128
71
-2
72
6
73
1
0
VERTEX
8
OBJECT054
10
0
20
0
30
0
70
128
71
3
72
2
73
-8
0
VERTEX
8
OBJECT054
10
0
20
0
30
0
70
128
71
-3
72
8
73
7
0
VERTEX
8
OBJECT054
10
0
20
0
30
0
70
128
71
5
72
4
73
-10
0
VERTEX
8
OBJECT054
10
0
20
0
30
0
70
128
71
-5
72
10
73
9
0
VERTEX
8
OBJECT054
10
0
20
0
30
0
70
128
71
1
72
11
73
-8
0
VERTEX
8
OBJECT054
10
0
20
0
30
0
70
128
71
-1
72
8
73
2
0
VERTEX
8
OBJECT054
10
0
20
0
30
0
70
128
71
6
72
5
73
-9
0
VERTEX
8
OBJECT054
10
0
20
0
30
0
70
128
71
-6
72
9
73
12
0
VERTEX
8
OBJECT054
10
0
20
0
30
0
70
128
71
4
72
3
73
-7
0
VERTEX
8
OBJECT054
10
0
20
0
30
0
70
128
71
-4
72
7
73
10
0
VERTEX
8
OBJECT054
10
0
20
0
30
0
70
128
71
1
72
6
73
-12
0
VERTEX
8
OBJECT054
10
0
20
0
30
0
70
128
71
-1
72
12
73
11
0
VERTEX
8
OBJECT054
10
0
20
0
30
0
70
128
71
9
72
10
73
-7
0
VERTEX
8
OBJECT054
10
0
20
0
30
0
70
128
71
-9
72
7
73
-8
0
VERTEX
8
OBJECT054
10
0
20
0
30
0
70
128
71
-9
72
8
73
-11
0
VERTEX
8
OBJECT054
10
0
20
0
30
0
70
128
71
-9
72
11
73
12
0
SEQEND
8
OBJECT054
0
POLYLINE
8
OBJECT055
66
1
70
64
71
8
72
12
62
50
0
VERTEX
8
OBJECT055
10
512.000000
20
-871.000000
30
-16.000000
70
192
0
VERTEX
8
OBJECT055
10
512.000000
20
-869.064148
30
-15.000000
70
192
0
VERTEX
8
OBJECT055
10
626.000000
20
-869.064148
30
-15.000000
70
192
0
VERTEX
8
OBJECT055
10
626.000000
20
-871.000000
30
-16.000000
70
192
0
VERTEX
8
OBJECT055
10
626.000000
20
-666.000000
30
-15.000000
70
192
0
VERTEX
8
OBJECT055
10
512.000000
20
-666.000000
30
-15.000000
70
192
0
VERTEX
8
OBJECT055
10
512.000000
20
-664.000000
30
-16.000000
70
192
0
VERTEX
8
OBJECT055
10
626.000000
20
-664.000000
30
-16.000000
70
192
0
VERTEX
8
OBJECT055
10
0
20
0
30
0
70
128
71
2
72
3
73
-4
0
VERTEX
8
OBJECT055
10
0
20
0
30
0
70
128
71
-2
72
4
73
1
0
VERTEX
8
OBJECT055
10
0
20
0
30
0
70
128
71
6
72
7
73
-8
0
VERTEX
8
OBJECT055
10
0
20
0
30
0
70
128
71
-6
72
8
73
5
0
VERTEX
8
OBJECT055
10
0
20
0
30
0
70
128
71
2
72
6
73
-5
0
VERTEX
8
OBJECT055
10
0
20
0
30
0
70
128
71
-2
72
5
73
3
0
VERTEX
8
OBJECT055
10
0
20
0
30
0
70
128
71
6
72
2
73
-1
0
VERTEX
8
OBJECT055
10
0
20
0
30
0
70
128
71
-6
72
1
73
7
0
VERTEX
8
OBJECT055
10
0
20
0
30
0
70
128
71
3
72
5
73
-8
0
VERTEX
8
OBJECT055
10
0
20
0
30
0
70
128
71
-3
72
8
73
4
0
VERTEX
8
OBJECT055
10
0
20
0
30
0
70
128
71
7
72
1
73
-4
0
VERTEX
8
OBJECT055
10
0
20
0
30
0
70
128
71
-7
72
4
73
8
0
SEQEND
8
OBJECT055
0
POLYLINE
8
OBJECT056
66
1
70
64
71
8
72
12
62
50
0
VERTEX
8
OBJECT056
10
512.000000
20
-568.000000
30
-241.000000
70
192
0
VERTEX
8
OBJECT056
10
512.000000
20
-960.000000
30
-241.000000
70
192
0
VERTEX
8
OBJECT056
10
626.000000
20
-960.000000
30
-241.000000
70
192
0
VERTEX
8
OBJECT056
10
626.000000
20
-568.000000
30
-241.000000
70
192
0
VERTEX
8
OBJECT056
10
512.000000
20
-960.000000
30
-240.000000
70
192
0
VERTEX
8
OBJECT056
10
512.000000
20
-568.000000
30
-240.000000
70
192
0
VERTEX
8
OBJECT056
10
626.000000
20
-568.000000
30
-240.000000
70
192
0
VERTEX
8
OBJECT056
10
626.000000
20
-960.000000
30
-240.000000
70
192
0
VERTEX
8
OBJECT056
10
0
20
0
30
0
70
128
71
2
72
3
73
-4
0
VERTEX
8
OBJECT056
10
0
20
0
30
0
70
128
71
-2
72
4
73
1
0
VERTEX
8
OBJECT056
10
0
20
0
30
0
70
128
71
2
72
1
73
-6
0
VERTEX
8
OBJECT056
10
0
20
0
30
0
70
128
71
-2
72
6
73
5
0
VERTEX
8
OBJECT056
10
0
20
0
30
0
70
128
71
4
72
3
73
-8
0
VERTEX
8
OBJECT056
10
0
20
0
30
0
70
128
71
-4
72
8
73
7
0
VERTEX
8
OBJECT056
10
0
20
0
30
0
70
128
71
2
72
5
73
-8
0
VERTEX
8
OBJECT056
10
0
20
0
30
0
70
128
71
-2
72
8
73
3
0
VERTEX
8
OBJECT056
10
0
20
0
30
0
70
128
71
4
72
7
73
-6
0
VERTEX
8
OBJECT056
10
0
20
0
30
0
70
128
71
-4
72
6
73
1
0
VERTEX
8
OBJECT056
10
0
20
0
30
0
70
128
71
6
72
7
73
-8
0
VERTEX
8
OBJECT056
10
0
20
0
30
0
70
128
71
-6
72
8
73
5
0
SEQEND
8
OBJECT056
0
POLYLINE
8
OBJECT057
66
1
70
64
71
8
72
12
62
50
0
VERTEX
8
OBJECT057
10
512.000000
20
-960.000000
30
-61.932549
70
192
0
VERTEX
8
OBJECT057
10
512.000000
20
-871.000000
30
-16.000000
70
192
0
VERTEX
8
OBJECT057
10
626.000000
20
-871.000000
30
-16.000000
70
192
0
VERTEX
8
OBJECT057
10
626.000000
20
-960.000000
30
-61.932549
70
192
0
VERTEX
8
OBJECT057
10
512.000000
20
-825.596436
30
-16.000000
70
192
0
VERTEX
8
OBJECT057
10
512.000000
20
-960.000000
30
-80.000000
70
192
0
VERTEX
8
OBJECT057
10
626.000000
20
-960.000000
30
-80.000000
70
192
0
VERTEX
8
OBJECT057
10
626.000000
20
-825.596436
30
-16.000000
70
192
0
VERTEX
8
OBJECT057
10
0
20
0
30
0
70
128
71
2
72
3
73
-4
0
VERTEX
8
OBJECT057
10
0
20
0
30
0
70
128
71
-2
72
4
73
1
0
VERTEX
8
OBJECT057
10
0
20
0
30
0
70
128
71
2
72
1
73
-6
0
VERTEX
8
OBJECT057
10
0
20
0
30
0
70
128
71
-2
72
6
73
5
0
VERTEX
8
OBJECT057
10
0
20
0
30
0
70
128
71
4
72
3
73
-8
0
VERTEX
8
OBJECT057
10
0
20
0
30
0
70
128
71
-4
72
8
73
7
0
VERTEX
8
OBJECT057
10
0
20
0
30
0
70
128
71
1
72
4
73
-7
0
VERTEX
8
OBJECT057
10
0
20
0
30
0
70
128
71
-1
72
7
73
6
0
VERTEX
8
OBJECT057
10
0
20
0
30
0
70
128
71
2
72
5
73
-8
0
VERTEX
8
OBJECT057
10
0
20
0
30
0
70
128
71
-2
72
8
73
3
0
VERTEX
8
OBJECT057
10
0
20
0
30
0
70
128
71
6
72
7
73
-8
0
VERTEX
8
OBJECT057
10
0
20
0
30
0
70
128
71
-6
72
8
73
5
0
SEQEND
8
OBJECT057
0
POLYLINE
8
OBJECT058
66
1
70
64
71
8
72
12
62
50
0
VERTEX
8
OBJECT058
10
512.000000
20
-664.000000
30
-16.000000
70
192
0
VERTEX
8
OBJECT058
10
512.000000
20
-568.000000
30
-64.000000
70
192
0
VERTEX
8
OBJECT058
10
626.000000
20
-568.000000
30
-64.000000
70
192
0
VERTEX
8
OBJECT058
10
626.000000
20
-664.000000
30
-16.000000
70
192
0
VERTEX
8
OBJECT058
10
512.000000
20
-568.000000
30
-83.727180
70
192
0
VERTEX
8
OBJECT058
10
512.000000
20
-710.365295
30
-16.000000
70
192
0
VERTEX
8
OBJECT058
10
626.000000
20
-710.365295
30
-16.000000
70
192
0
VERTEX
8
OBJECT058
10
626.000000
20
-568.000000
30
-83.727180
70
192
0
VERTEX
8
OBJECT058
10
0
20
0
30
0
70
128
71
2
72
3
73
-4
0
VERTEX
8
OBJECT058
10
0
20
0
30
0
70
128
71
-2
72
4
73
1
0
VERTEX
8
OBJECT058
10
0
20
0
30
0
70
128
71
2
72
1
73
-6
0
VERTEX
8
OBJECT058
10
0
20
0
30
0
70
128
71
-2
72
6
73
5
0
VERTEX
8
OBJECT058
10
0
20
0
30
0
70
128
71
4
72
3
73
-8
0
VERTEX
8
OBJECT058
10
0
20
0
30
0
70
128
71
-4
72
8
73
7
0
VERTEX
8
OBJECT058
10
0
20
0
30
0
70
128
71
3
72
2
73
-5
0
VERTEX
8
OBJECT058
10
0
20
0
30
0
70
128
71
-3
72
5
73
8
0
VERTEX
8
OBJECT058
10
0
20
0
30
0
70
128
71
1
72
4
73
-7
0
VERTEX
8
OBJECT058
10
0
20
0
30
0
70
128
71
-1
72
7
73
6
0
VERTEX
8
OBJECT058
10
0
20
0
30
0
70
128
71
6
72
7
73
-8
0
VERTEX
8
OBJECT058
10
0
20
0
30
0
70
128
71
-6
72
8
73
5
0
SEQEND
8
OBJECT058
0
POLYLINE
8
OBJECT059
66
1
70
64
71
10
72
16
62
50
0
VERTEX
8
OBJECT059
10
638.559326
20
-496.000000
30
-122.825027
70
192
0
VERTEX
8
OBJECT059
10
638.559326
20
-496.000000
30
-185.482498
70
192
0
VERTEX
8
OBJECT059
10
638.559326
20
-568.000000
30
-252.149170
70
192
0
VERTEX
8
OBJECT059
10
638.559326
20
-568.000000
30
-64.000000
70
192
0
VERTEX
8
OBJECT059
10
638.559326
20
-566.546997
30
-64.727501
70
192
0
VERTEX
8
OBJECT059
10
320.000000
20
-496.000000
30
-185.482498
70
192
0
VERTEX
8
OBJECT059
10
320.000000
20
-496.000000
30
-122.825027
70
192
0
VERTEX
8
OBJECT059
10
320.000000
20
-566.547668
30
-64.726982
70
192
0
VERTEX
8
OBJECT059
10
320.000000
20
-568.000000
30
-64.000000
70
192
0
VERTEX
8
OBJECT059
10
320.000000
20
-568.000000
30
-252.149170
70
192
0
VERTEX
8
OBJECT059
10
0
20
0
30
0
70
128
71
2
72
3
73
-4
0
VERTEX
8
OBJECT059
10
0
20
0
30
0
70
128
71
-2
72
4
73
-5
0
VERTEX
8
OBJECT059
10
0
20
0
30
0
70
128
71
-2
72
5
73
1
0
VERTEX
8
OBJECT059
10
0
20
0
30
0
70
128
71
2
72
1
73
-7
0
VERTEX
8
OBJECT059
10
0
20
0
30
0
70
128
71
-2
72
7
73
6
0
VERTEX
8
OBJECT059
10
0
20
0
30
0
70
128
71
5
72
4
73
-9
0
VERTEX
8
OBJECT059
10
0
20
0
30
0
70
128
71
-5
72
9
73
8
0
VERTEX
8
OBJECT059
10
0
20
0
30
0
70
128
71
1
72
5
73
-8
0
VERTEX
8
OBJECT059
10
0
20
0
30
0
70
128
71
-1
72
8
73
7
0
VERTEX
8
OBJECT059
10
0
20
0
30
0
70
128
71
3
72
2
73
-6
0
VERTEX
8
OBJECT059
10
0
20
0
30
0
70
128
71
-3
72
6
73
10
0
VERTEX
8
OBJECT059
10
0
20
0
30
0
70
128
71
3
72
10
73
-9
0
VERTEX
8
OBJECT059
10
0
20
0
30
0
70
128
71
-3
72
9
73
4
0
VERTEX
8
OBJECT059
10
0
20
0
30
0
70
128
71
6
72
7
73
-8
0
VERTEX
8
OBJECT059
10
0
20
0
30
0
70
128
71
-6
72
8
73
-9
0
VERTEX
8
OBJECT059
10
0
20
0
30
0
70
128
71
-6
72
9
73
10
0
SEQEND
8
OBJECT059
0
POLYLINE
8
OBJECT060
66
1
70
64
71
12
72
20
62
50
0
VERTEX
8
OBJECT060
10
320.000000
20
-962.820923
30
-256.000000
70
192
0
VERTEX
8
OBJECT060
10
638.559326
20
-962.820923
30
-256.000000
70
192
0
VERTEX
8
OBJECT060
10
638.559326
20
-960.000000
30
-256.000000
70
192
0
VERTEX
8
OBJECT060
10
320.000000
20
-960.000000
30
-256.000000
70
192
0
VERTEX
8
OBJECT060
10
638.559326
20
-1040.000000
30
-183.108627
70
192
0
VERTEX
8
OBJECT060
10
638.559326
20
-1040.000000
30
-125.000000
70
192
0
VERTEX
8
OBJECT060
10
638.559326
20
-960.973694
30
-62.435280
70
192
0
VERTEX
8
OBJECT060
10
638.559326
20
-960.000000
30
-61.932739
70
192
0
VERTEX
8
OBJECT060
10
320.000000
20
-1040.000000
30
-183.108627
70
192
0
VERTEX
8
OBJECT060
10
320.000000
20
-1040.000000
30
-125.000000
70
192
0
VERTEX
8
OBJECT060
10
320.000000
20
-960.000000
30
-61.933212
70
192
0
VERTEX
8
OBJECT060
10
320.000000
20
-960.975281
30
-62.436573
70
192
0
VERTEX
8
OBJECT060
10
0
20
0
30
0
70
128
71
2
72
3
73
-4
0
VERTEX
8
OBJECT060
10
0
20
0
30
0
70
128
71
-2
72
4
73
1
0
VERTEX
8
OBJECT060
10
0
20
0
30
0
70
128
71
2
72
5
73
-6
0
VERTEX
8
OBJECT060
10
0
20
0
30
0
70
128
71
-2
72
6
73
-7
0
VERTEX
8
OBJECT060
10
0
20
0
30
0
70
128
71
-2
72
7
73
-8
0
VERTEX
8
OBJECT060
10
0
20
0
30
0
70
128
71
-2
72
8
73
3
0
VERTEX
8
OBJECT060
10
0
20
0
30
0
70
128
71
5
72
9
73
-10
0
VERTEX
8
OBJECT060
10
0
20
0
30
0
70
128
71
-5
72
10
73
6
0
VERTEX
8
OBJECT060
10
0
20
0
30
0
70
128
71
8
72
7
73
-12
0
VERTEX
8
OBJECT060
10
0
20
0
30
0
70
128
71
-8
72
12
73
11
0
VERTEX
8
OBJECT060
10
0
20
0
30
0
70
128
71
7
72
6
73
-10
0
VERTEX
8
OBJECT060
10
0
20
0
30
0
70
128
71
-7
72
10
73
12
0
VERTEX
8
OBJECT060
10
0
20
0
30
0
70
128
71
1
72
9
73
-5
0
VERTEX
8
OBJECT060
10
0
20
0
30
0
70
128
71
-1
72
5
73
2
0
VERTEX
8
OBJECT060
10
0
20
0
30
0
70
128
71
3
72
8
73
-11
0
VERTEX
8
OBJECT060
10
0
20
0
30
0
70
128
71
-3
72
11
73
4
0
VERTEX
8
OBJECT060
10
0
20
0
30
0
70
128
71
9
72
1
73
-4
0
VERTEX
8
OBJECT060
10
0
20
0
30
0
70
128
71
-9
72
4
73
-11
0
VERTEX
8
OBJECT060
10
0
20
0
30
0
70
128
71
-9
72
11
73
-12
0
VERTEX
8
OBJECT060
10
0
20
0
30
0
70
128
71
-9
72
12
73
10
0
SEQEND
8
OBJECT060
0
POLYLINE
8
OBJECT061
66
1
70
64
71
10
72
16
62
50
0
VERTEX
8
OBJECT061
10
320.000000
20
-960.000000
30
-256.000000
70
192
0
VERTEX
8
OBJECT061
10
638.559326
20
-960.000000
30
-256.000000
70
192
0
VERTEX
8
OBJECT061
10
638.559326
20
-572.160095
30
-256.000000
70
192
0
VERTEX
8
OBJECT061
10
320.000000
20
-572.160095
30
-256.000000
70
192
0
VERTEX
8
OBJECT061
10
638.559326
20
-568.000000
30
-241.000000
70
192
0
VERTEX
8
OBJECT061
10
638.559326
20
-568.000000
30
-252.148056
70
192
0
VERTEX
8
OBJECT061
10
638.559326
20
-960.000000
30
-241.000000
70
192
0
VERTEX
8
OBJECT061
10
320.000000
20
-568.000000
30
-252.149689
70
192
0
VERTEX
8
OBJECT061
10
320.000000
20
-960.000000
30
-241.000000
70
192
0
VERTEX
8
OBJECT061
10
320.000000
20
-568.000000
30
-241.000000
70
192
0
VERTEX
8
OBJECT061
10
0
20
0
30
0
70
128
71
2
72
3
73
-4
0
VERTEX
8
OBJECT061
10
0
20
0
30
0
70
128
71
-2
72
4
73
1
0
VERTEX
8
OBJECT061
10
0
20
0
30
0
70
128
71
6
72
3
73
-2
0
VERTEX
8
OBJECT061
10
0
20
0
30
0
70
128
71
-6
72
2
73
-7
0
VERTEX
8
OBJECT061
10
0
20
0
30
0
70
128
71
-6
72
7
73
5
0
VERTEX
8
OBJECT061
10
0
20
0
30
0
70
128
71
3
72
6
73
-8
0
VERTEX
8
OBJECT061
10
0
20
0
30
0
70
128
71
-3
72
8
73
4
0
VERTEX
8
OBJECT061
10
0
20
0
30
0
70
128
71
2
72
1
73
-9
0
VERTEX
8
OBJECT061
10
0
20
0
30
0
70
128
71
-2
72
9
73
7
0
VERTEX
8
OBJECT061
10
0
20
0
30
0
70
128
71
6
72
5
73
-10
0
VERTEX
8
OBJECT061
10
0
20
0
30
0
70
128
71
-6
72
10
73
8
0
VERTEX
8
OBJECT061
10
0
20
0
30
0
70
128
71
5
72
7
73
-9
0
VERTEX
8
OBJECT061
10
0
20
0
30
0
70
128
71
-5
72
9
73
10
0
VERTEX
8
OBJECT061
10
0
20
0
30
0
70
128
71
1
72
4
73
-8
0
VERTEX
8
OBJECT061
10
0
20
0
30
0
70
128
71
-1
72
8
73
-10
0
VERTEX
8
OBJECT061
10
0
20
0
30
0
70
128
71
-1
72
10
73
9
0
SEQEND
8
OBJECT061
0
POLYLINE
8
OBJECT062
66
1
70
64
71
10
72
16
62
50
0
VERTEX
8
OBJECT062
10
626.000000
20
-840.629944
30
0.000000
70
192
0
VERTEX
8
OBJECT062
10
640.000000
20
-840.629944
30
0.000000
70
192
0
VERTEX
8
OBJECT062
10
640.000000
20
-956.393738
30
-57.915112
70
192
0
VERTEX
8
OBJECT062
10
626.000000
20
-956.393738
30
-57.915112
70
192
0
VERTEX
8
OBJECT062
10
626.000000
20
-792.000000
30
0.000000
70
192
0
VERTEX
8
OBJECT062
10
640.000000
20
-792.000000
30
0.000000
70
192
0
VERTEX
8
OBJECT062
10
640.000000
20
-960.000000
30
-80.346443
70
192
0
VERTEX
8
OBJECT062
10
640.000000
20
-960.000000
30
-60.800095
70
192
0
VERTEX
8
OBJECT062
10
626.000000
20
-960.000000
30
-80.346298
70
192
0
VERTEX
8
OBJECT062
10
626.000000
20
-960.000000
30
-60.800400
70
192
0
VERTEX
8
OBJECT062
10
0
20
0
30
0
70
128
71
2
72
3
73
-4
0
VERTEX
8
OBJECT062
10
0
20
0
30
0
70
128
71
-2
72
4
73
1
0
VERTEX
8
OBJECT062
10
0
20
0
30
0
70
128
71
1
72
5
73
-6
0
VERTEX
8
OBJECT062
10
0
20
0
30
0
70
128
71
-1
72
6
73
2
0
VERTEX
8
OBJECT062
10
0
20
0
30
0
70
128
71
2
72
6
73
-7
0
VERTEX
8
OBJECT062
10
0
20
0
30
0
70
128
71
-2
72
7
73
-8
0
VERTEX
8
OBJECT062
10
0
20
0
30
0
70
128
71
-2
72
8
73
3
0
VERTEX
8
OBJECT062
10
0
20
0
30
0
70
128
71
5
72
9
73
-7
0
VERTEX
8
OBJECT062
10
0
20
0
30
0
70
128
71
-5
72
7
73
6
0
VERTEX
8
OBJECT062
10
0
20
0
30
0
70
128
71
3
72
8
73
-10
0
VERTEX
8
OBJECT062
10
0
20
0
30
0
70
128
71
-3
72
10
73
4
0
VERTEX
8
OBJECT062
10
0
20
0
30
0
70
128
71
8
72
7
73
-9
0
VERTEX
8
OBJECT062
10
0
20
0
30
0
70
128
71
-8
72
9
73
10
0
VERTEX
8
OBJECT062
10
0
20
0
30
0
70
128
71
1
72
4
73
-10
0
VERTEX
8
OBJECT062
10
0
20
0
30
0
70
128
71
-1
72
10
73
-9
0
VERTEX
8
OBJECT062
10
0
20
0
30
0
70
128
71
-1
72
9
73
5
0
SEQEND
8
OBJECT062
0
POLYLINE
8
OBJECT063
66
1
70
64
71
8
72
12
62
50
0
VERTEX
8
OBJECT063
10
320.000000
20
-872.611572
30
-16.000000
70
192
0
VERTEX
8
OBJECT063
10
320.000000
20
-840.629944
30
0.000000
70
192
0
VERTEX
8
OBJECT063
10
626.000000
20
-840.629944
30
0.000000
70
192
0
VERTEX
8
OBJECT063
10
626.000000
20
-872.611572
30
-16.000000
70
192
0
VERTEX
8
OBJECT063
10
320.000000
20
-792.000000
30
0.000000
70
192
0
VERTEX
8
OBJECT063
10
626.000000
20
-792.000000
30
0.000000
70
192
0
VERTEX
8
OBJECT063
10
320.000000
20
-825.455444
30
-16.000000
70
192
0
VERTEX
8
OBJECT063
10
626.000000
20
-825.455444
30
-16.000000
70
192
0
VERTEX
8
OBJECT063
10
0
20
0
30
0
70
128
71
2
72
3
73
-4
0
VERTEX
8
OBJECT063
10
0
20
0
30
0
70
128
71
-2
72
4
73
1
0
VERTEX
8
OBJECT063
10
0
20
0
30
0
70
128
71
2
72
5
73
-6
0
VERTEX
8
OBJECT063
10
0
20
0
30
0
70
128
71
-2
72
6
73
3
0
VERTEX
8
OBJECT063
10
0
20
0
30
0
70
128
71
5
72
7
73
-8
0
VERTEX
8
OBJECT063
10
0
20
0
30
0
70
128
71
-5
72
8
73
6
0
VERTEX
8
OBJECT063
10
0
20
0
30
0
70
128
71
2
72
1
73
-7
0
VERTEX
8
OBJECT063
10
0
20
0
30
0
70
128
71
-2
72
7
73
5
0
VERTEX
8
OBJECT063
10
0
20
0
30
0
70
128
71
3
72
6
73
-8
0
VERTEX
8
OBJECT063
10
0
20
0
30
0
70
128
71
-3
72
8
73
4
0
VERTEX
8
OBJECT063
10
0
20
0
30
0
70
128
71
7
72
1
73
-4
0
VERTEX
8
OBJECT063
10
0
20
0
30
0
70
128
71
-7
72
4
73
8
0
SEQEND
8
OBJECT063
0
POLYLINE
8
OBJECT064
66
1
70
64
71
10
72
16
62
50
0
VERTEX
8
OBJECT064
10
626.000000
20
-956.393616
30
-57.914993
70
192
0
VERTEX
8
OBJECT064
10
320.000000
20
-956.393616
30
-57.914993
70
192
0
VERTEX
8
OBJECT064
10
320.000000
20
-872.611694
30
-16.000000
70
192
0
VERTEX
8
OBJECT064
10
626.000000
20
-872.611694
30
-16.000000
70
192
0
VERTEX
8
OBJECT064
10
320.000000
20
-960.000000
30
-60.800400
70
192
0
VERTEX
8
OBJECT064
10
626.000000
20
-960.000000
30
-60.800400
70
192
0
VERTEX
8
OBJECT064
10
320.000000
20
-960.000000
30
-80.000000
70
192
0
VERTEX
8
OBJECT064
10
320.000000
20
-825.596436
30
-16.000000
70
192
0
VERTEX
8
OBJECT064
10
626.000000
20
-960.000000
30
-80.000000
70
192
0
VERTEX
8
OBJECT064
10
626.000000
20
-825.596436
30
-16.000000
70
192
0
VERTEX
8
OBJECT064
10
0
20
0
30
0
70
128
71
2
72
3
73
-4
0
VERTEX
8
OBJECT064
10
0
20
0
30
0
70
128
71
-2
72
4
73
1
0
VERTEX
8
OBJECT064
10
0
20
0
30
0
70
128
71
2
72
1
73
-6
0
VERTEX
8
OBJECT064
10
0
20
0
30
0
70
128
71
-2
72
6
73
5
0
VERTEX
8
OBJECT064
10
0
20
0
30
0
70
128
71
2
72
5
73
-7
0
VERTEX
8
OBJECT064
10
0
20
0
30
0
70
128
71
-2
72
7
73
-8
0
VERTEX
8
OBJECT064
10
0
20
0
30
0
70
128
71
-2
72
8
73
3
0
VERTEX
8
OBJECT064
10
0
20
0
30
0
70
128
71
6
72
1
73
-4
0
VERTEX
8
OBJECT064
10
0
20
0
30
0
70
128
71
-6
72
4
73
-10
0
VERTEX
8
OBJECT064
10
0
20
0
30
0
70
128
71
-6
72
10
73
9
0
VERTEX
8
OBJECT064
10
0
20
0
30
0
70
128
71
5
72
6
73
-9
0
VERTEX
8
OBJECT064
10
0
20
0
30
0
70
128
71
-5
72
9
73
7
0
VERTEX
8
OBJECT064
10
0
20
0
30
0
70
128
71
3
72
8
73
-10
0
VERTEX
8
OBJECT064
10
0
20
0
30
0
70
128
71
-3
72
10
73
4
0
VERTEX
8
OBJECT064
10
0
20
0
30
0
70
128
71
7
72
9
73
-10
0
VERTEX
8
OBJECT064
10
0
20
0
30
0
70
128
71
-7
72
10
73
8
0
SEQEND
8
OBJECT064
0
POLYLINE
8
OBJECT065
66
1
70
64
71
10
72
16
62
50
0
VERTEX
8
OBJECT065
10
640.000000
20
-695.372314
30
0.000000
70
192
0
VERTEX
8
OBJECT065
10
626.000000
20
-695.372314
30
0.000000
70
192
0
VERTEX
8
OBJECT065
10
626.000000
20
-569.113342
30
-63.165691
70
192
0
VERTEX
8
OBJECT065
10
640.000000
20
-569.113342
30
-63.165691
70
192
0
VERTEX
8
OBJECT065
10
640.000000
20
-744.000000
30
0.000000
70
192
0
VERTEX
8
OBJECT065
10
626.000000
20
-744.000000
30
0.000000
70
192
0
VERTEX
8
OBJECT065
10
640.000000
20
-568.000000
30
-64.000000
70
192
0
VERTEX
8
OBJECT065
10
640.000000
20
-568.000000
30
-84.174500
70
192
0
VERTEX
8
OBJECT065
10
626.000000
20
-568.000000
30
-84.175369
70
192
0
VERTEX
8
OBJECT065
10
626.000000
20
-568.000000
30
-64.000000
70
192
0
VERTEX
8
OBJECT065
10
0
20
0
30
0
70
128
71
2
72
3
73
-4
0
VERTEX
8
OBJECT065
10
0
20
0
30
0
70
128
71
-2
72
4
73
1
0
VERTEX
8
OBJECT065
10
0
20
0
30
0
70
128
71
1
72
5
73
-6
0
VERTEX
8
OBJECT065
10
0
20
0
30
0
70
128
71
-1
72
6
73
2
0
VERTEX
8
OBJECT065
10
0
20
0
30
0
70
128
71
1
72
4
73
-7
0
VERTEX
8
OBJECT065
10
0
20
0
30
0
70
128
71
-1
72
7
73
-8
0
VERTEX
8
OBJECT065
10
0
20
0
30
0
70
128
71
-1
72
8
73
5
0
VERTEX
8
OBJECT065
10
0
20
0
30
0
70
128
71
5
72
8
73
-9
0
VERTEX
8
OBJECT065
10
0
20
0
30
0
70
128
71
-5
72
9
73
6
0
VERTEX
8
OBJECT065
10
0
20
0
30
0
70
128
71
3
72
10
73
-7
0
VERTEX
8
OBJECT065
10
0
20
0
30
0
70
128
71
-3
72
7
73
4
0
VERTEX
8
OBJECT065
10
0
20
0
30
0
70
128
71
8
72
7
73
-10
0
VERTEX
8
OBJECT065
10
0
20
0
30
0
70
128
71
-8
72
10
73
9
0
VERTEX
8
OBJECT065
10
0
20
0
30
0
70
128
71
2
72
6
73
-9
0
VERTEX
8
OBJECT065
10
0
20
0
30
0
70
128
71
-2
72
9
73
-10
0
VERTEX
8
OBJECT065
10
0
20
0
30
0
70
128
71
-2
72
10
73
3
0
SEQEND
8
OBJECT065
0
POLYLINE
8
OBJECT066
66
1
70
64
71
8
72
12
62
50
0
VERTEX
8
OBJECT066
10
626.000000
20
-695.372314
30
0.000000
70
192
0
VERTEX
8
OBJECT066
10
320.000000
20
-695.372314
30
0.000000
70
192
0
VERTEX
8
OBJECT066
10
320.000000
20
-663.390686
30
-16.000000
70
192
0
VERTEX
8
OBJECT066
10
626.000000
20
-663.390686
30
-16.000000
70
192
0
VERTEX
8
OBJECT066
10
626.000000
20
-744.000000
30
0.000000
70
192
0
VERTEX
8
OBJECT066
10
320.000000
20
-744.000000
30
0.000000
70
192
0
VERTEX
8
OBJECT066
10
320.000000
20
-710.547546
30
-16.000000
70
192
0
VERTEX
8
OBJECT066
10
626.000000
20
-710.547546
30
-16.000000
70
192
0
VERTEX
8
OBJECT066
10
0
20
0
30
0
70
128
71
2
72
3
73
-4
0
VERTEX
8
OBJECT066
10
0
20
0
30
0
70
128
71
-2
72
4
73
1
0
VERTEX
8
OBJECT066
10
0
20
0
30
0
70
128
71
6
72
2
73
-1
0
VERTEX
8
OBJECT066
10
0
20
0
30
0
70
128
71
-6
72
1
73
5
0
VERTEX
8
OBJECT066
10
0
20
0
30
0
70
128
71
6
72
5
73
-8
0
VERTEX
8
OBJECT066
10
0
20
0
30
0
70
128
71
-6
72
8
73
7
0
VERTEX
8
OBJECT066
10
0
20
0
30
0
70
128
71
2
72
6
73
-7
0
VERTEX
8
OBJECT066
10
0
20
0
30
0
70
128
71
-2
72
7
73
3
0
VERTEX
8
OBJECT066
10
0
20
0
30
0
70
128
71
1
72
4
73
-8
0
VERTEX
8
OBJECT066
10
0
20
0
30
0
70
128
71
-1
72
8
73
5
0
VERTEX
8
OBJECT066
10
0
20
0
30
0
70
128
71
3
72
7
73
-8
0
VERTEX
8
OBJECT066
10
0
20
0
30
0
70
128
71
-3
72
8
73
4
0
SEQEND
8
OBJECT066
0
POLYLINE
8
OBJECT067
66
1
70
64
71
10
72
16
62
50
0
VERTEX
8
OBJECT067
10
320.000000
20
-663.390686
30
-16.000000
70
192
0
VERTEX
8
OBJECT067
10
320.000000
20
-569.113342
30
-63.165726
70
192
0
VERTEX
8
OBJECT067
10
626.000000
20
-569.113342
30
-63.165726
70
192
0
VERTEX
8
OBJECT067
10
626.000000
20
-663.390686
30
-16.000000
70
192
0
VERTEX
8
OBJECT067
10
320.000000
20
-568.000000
30
-64.000000
70
192
0
VERTEX
8
OBJECT067
10
626.000000
20
-568.000000
30
-64.000000
70
192
0
VERTEX
8
OBJECT067
10
320.000000
20
-568.000000
30
-83.727180
70
192
0
VERTEX
8
OBJECT067
10
320.000000
20
-710.365295
30
-16.000000
70
192
0
VERTEX
8
OBJECT067
10
626.000000
20
-568.000000
30
-83.727180
70
192
0
VERTEX
8
OBJECT067
10
626.000000
20
-710.365295
30
-16.000000
70
192
0
VERTEX
8
OBJECT067
10
0
20
0
30
0
70
128
71
2
72
3
73
-4
0
VERTEX
8
OBJECT067
10
0
20
0
30
0
70
128
71
-2
72
4
73
1
0
VERTEX
8
OBJECT067
10
0
20
0
30
0
70
128
71
2
72
5
73
-6
0
VERTEX
8
OBJECT067
10
0
20
0
30
0
70
128
71
-2
72
6
73
3
0
VERTEX
8
OBJECT067
10
0
20
0
30
0
70
128
71
5
72
2
73
-1
0
VERTEX
8
OBJECT067
10
0
20
0
30
0
70
128
71
-5
72
1
73
-8
0
VERTEX
8
OBJECT067
10
0
20
0
30
0
70
128
71
-5
72
8
73
7
0
VERTEX
8
OBJECT067
10
0
20
0
30
0
70
128
71
3
72
6
73
-9
0
VERTEX
8
OBJECT067
10
0
20
0
30
0
70
128
71
-3
72
9
73
-10
0
VERTEX
8
OBJECT067
10
0
20
0
30
0
70
128
71
-3
72
10
73
4
0
VERTEX
8
OBJECT067
10
0
20
0
30
0
70
128
71
6
72
5
73
-7
0
VERTEX
8
OBJECT067
10
0
20
0
30
0
70
128
71
-6
72
7
73
9
0
VERTEX
8
OBJECT067
10
0
20
0
30
0
70
128
71
1
72
4
73
-10
0
VERTEX
8
OBJECT067
10
0
20
0
30
0
70
128
71
-1
72
10
73
8
0
VERTEX
8
OBJECT067
10
0
20
0
30
0
70
128
71
8
72
10
73
-9
0
VERTEX
8
OBJECT067
10
0
20
0
30
0
70
128
71
-8
72
9
73
7
0
SEQEND
8
OBJECT067
0
POLYLINE
8
OBJECT068
66
1
70
64
71
8
72
12
62
50
0
VERTEX
8
OBJECT068
10
320.000000
20
-696.000000
30
0.000000
70
192
0
VERTEX
8
OBJECT068
10
638.559326
20
-696.000000
30
0.000000
70
192
0
VERTEX
8
OBJECT068
10
638.559326
20
-840.000000
30
0.000000
70
192
0
VERTEX
8
OBJECT068
10
320.000000
20
-840.000000
30
0.000000
70
192
0
VERTEX
8
OBJECT068
10
638.559326
20
-869.062988
30
-16.000000
70
192
0
VERTEX
8
OBJECT068
10
638.559326
20
-666.000000
30
-16.000000
70
192
0
VERTEX
8
OBJECT068
10
320.000000
20
-869.064270
30
-16.000000
70
192
0
VERTEX
8
OBJECT068
10
320.000000
20
-666.000000
30
-16.000000
70
192
0
VERTEX
8
OBJECT068
10
0
20
0
30
0
70
128
71
2
72
3
73
-4
0
VERTEX
8
OBJECT068
10
0
20
0
30
0
70
128
71
-2
72
4
73
1
0
VERTEX
8
OBJECT068
10
0
20
0
30
0
70
128
71
3
72
2
73
-6
0
VERTEX
8
OBJECT068
10
0
20
0
30
0
70
128
71
-3
72
6
73
5
0
VERTEX
8
OBJECT068
10
0
20
0
30
0
70
128
71
3
72
5
73
-7
0
VERTEX
8
OBJECT068
10
0
20
0
30
0
70
128
71
-3
72
7
73
4
0
VERTEX
8
OBJECT068
10
0
20
0
30
0
70
128
71
1
72
8
73
-6
0
VERTEX
8
OBJECT068
10
0
20
0
30
0
70
128
71
-1
72
6
73
2
0
VERTEX
8
OBJECT068
10
0
20
0
30
0
70
128
71
5
72
6
73
-8
0
VERTEX
8
OBJECT068
10
0
20
0
30
0
70
128
71
-5
72
8
73
7
0
VERTEX
8
OBJECT068
10
0
20
0
30
0
70
128
71
1
72
4
73
-7
0
VERTEX
8
OBJECT068
10
0
20
0
30
0
70
128
71
-1
72
7
73
8
0
SEQEND
8
OBJECT068
0
ENDSEC
0
EOF
