0
SECTION
2
HEADER
9
$ACADVER
1
AC1008
9
$UCSORG
10
0.0
20
0.0
30
0.0
9
$UCSXDIR
10
1.0
20
0.0
30
0.0
9
$TILEMODE
70
1
9
$UCSYDIR
10
0.0
20
1.0
30
0.0
9
$EXTMIN
10
-9.000016
20
-352.000000
30
-283.000000
9
$EXTMAX
10
505.000000
20
188.000000
30
160.000000
0
ENDSEC
0
SECTION
2
TABLES
0
TABLE
2
LTYPE
70
1
0
LTYPE
2
CONTINUOUS
70
64
3
Solid line
72
65
73
0
40
0.0
0
ENDTAB
0
TABLE
2
LAYER
70
1
0
LAYER
2
0
70
0
62
7
6
CONTINUOUS
0
ENDTAB
0
TABLE
2
STYLE
70
1
0
STYLE
2
STANDARD
70
0
40
0.0
41
1.0
50
0.0
71
0
42
0.2
3
txt
4

0
ENDTAB
0
TABLE
2
UCS
70
0
0
ENDTAB
0
ENDSEC
0
SECTION
2
ENTITIES
0
POLYLINE
8
OBJECT000
66
1
70
64
71
12
72
20
62
50
0
VERTEX
8
OBJECT000
10
-9.000005
20
-270.000000
30
-283.000000
70
192
0
VERTEX
8
OBJECT000
10
-9.000005
20
-270.777679
30
-283.000000
70
192
0
VERTEX
8
OBJECT000
10
505.000000
20
-270.777679
30
-283.000000
70
192
0
VERTEX
8
OBJECT000
10
505.000000
20
-270.000000
30
-283.000000
70
192
0
VERTEX
8
OBJECT000
10
-8.999056
20
-352.000000
30
-25.524380
70
192
0
VERTEX
8
OBJECT000
10
-8.999056
20
-352.000000
30
-150.361023
70
192
0
VERTEX
8
OBJECT000
10
-8.999056
20
-270.000000
30
100.722748
70
192
0
VERTEX
8
OBJECT000
10
-8.999056
20
-285.000000
30
85.707542
70
192
0
VERTEX
8
OBJECT000
10
504.999969
20
-352.000000
30
-150.361023
70
192
0
VERTEX
8
OBJECT000
10
504.999969
20
-352.000000
30
-25.524380
70
192
0
VERTEX
8
OBJECT000
10
504.999969
20
-285.000000
30
85.707542
70
192
0
VERTEX
8
OBJECT000
10
504.999969
20
-270.000000
30
100.722748
70
192
0
VERTEX
8
OBJECT000
10
0
20
0
30
0
70
128
71
2
72
3
73
-4
0
VERTEX
8
OBJECT000
10
0
20
0
30
0
70
128
71
-2
72
4
73
1
0
VERTEX
8
OBJECT000
10
0
20
0
30
0
70
128
71
6
72
2
73
-1
0
VERTEX
8
OBJECT000
10
0
20
0
30
0
70
128
71
-6
72
1
73
-7
0
VERTEX
8
OBJECT000
10
0
20
0
30
0
70
128
71
-6
72
7
73
-8
0
VERTEX
8
OBJECT000
10
0
20
0
30
0
70
128
71
-6
72
8
73
5
0
VERTEX
8
OBJECT000
10
0
20
0
30
0
70
128
71
3
72
9
73
-10
0
VERTEX
8
OBJECT000
10
0
20
0
30
0
70
128
71
-3
72
10
73
-11
0
VERTEX
8
OBJECT000
10
0
20
0
30
0
70
128
71
-3
72
11
73
-12
0
VERTEX
8
OBJECT000
10
0
20
0
30
0
70
128
71
-3
72
12
73
4
0
VERTEX
8
OBJECT000
10
0
20
0
30
0
70
128
71
9
72
6
73
-5
0
VERTEX
8
OBJECT000
10
0
20
0
30
0
70
128
71
-9
72
5
73
10
0
VERTEX
8
OBJECT000
10
0
20
0
30
0
70
128
71
7
72
12
73
-11
0
VERTEX
8
OBJECT000
10
0
20
0
30
0
70
128
71
-7
72
11
73
8
0
VERTEX
8
OBJECT000
10
0
20
0
30
0
70
128
71
8
72
11
73
-10
0
VERTEX
8
OBJECT000
10
0
20
0
30
0
70
128
71
-8
72
10
73
5
0
VERTEX
8
OBJECT000
10
0
20
0
30
0
70
128
71
2
72
6
73
-9
0
VERTEX
8
OBJECT000
10
0
20
0
30
0
70
128
71
-2
72
9
73
3
0
VERTEX
8
OBJECT000
10
0
20
0
30
0
70
128
71
1
72
4
73
-12
0
VERTEX
8
OBJECT000
10
0
20
0
30
0
70
128
71
-1
72
12
73
7
0
SEQEND
8
OBJECT000
0
POLYLINE
8
OBJECT001
66
1
70
64
71
12
72
20
62
50
0
VERTEX
8
OBJECT001
10
-9.000005
20
106.777008
30
-283.000000
70
192
0
VERTEX
8
OBJECT001
10
-9.000005
20
106.000000
30
-283.000000
70
192
0
VERTEX
8
OBJECT001
10
505.000000
20
106.000000
30
-283.000000
70
192
0
VERTEX
8
OBJECT001
10
505.000000
20
106.777008
30
-283.000000
70
192
0
VERTEX
8
OBJECT001
10
-8.999056
20
188.000000
30
-150.361023
70
192
0
VERTEX
8
OBJECT001
10
-8.999056
20
188.000000
30
-25.524380
70
192
0
VERTEX
8
OBJECT001
10
-8.999056
20
121.032333
30
85.628838
70
192
0
VERTEX
8
OBJECT001
10
-8.999056
20
106.000000
30
99.312279
70
192
0
VERTEX
8
OBJECT001
10
504.999969
20
188.000000
30
-25.524380
70
192
0
VERTEX
8
OBJECT001
10
504.999969
20
188.000000
30
-150.361023
70
192
0
VERTEX
8
OBJECT001
10
504.999969
20
106.000000
30
99.312279
70
192
0
VERTEX
8
OBJECT001
10
504.999969
20
121.032333
30
85.628838
70
192
0
VERTEX
8
OBJECT001
10
0
20
0
30
0
70
128
71
2
72
3
73
-4
0
VERTEX
8
OBJECT001
10
0
20
0
30
0
70
128
71
-2
72
4
73
1
0
VERTEX
8
OBJECT001
10
0
20
0
30
0
70
128
71
1
72
5
73
-6
0
VERTEX
8
OBJECT001
10
0
20
0
30
0
70
128
71
-1
72
6
73
-7
0
VERTEX
8
OBJECT001
10
0
20
0
30
0
70
128
71
-1
72
7
73
-8
0
VERTEX
8
OBJECT001
10
0
20
0
30
0
70
128
71
-1
72
8
73
2
0
VERTEX
8
OBJECT001
10
0
20
0
30
0
70
128
71
10
72
4
73
-3
0
VERTEX
8
OBJECT001
10
0
20
0
30
0
70
128
71
-10
72
3
73
-11
0
VERTEX
8
OBJECT001
10
0
20
0
30
0
70
128
71
-10
72
11
73
-12
0
VERTEX
8
OBJECT001
10
0
20
0
30
0
70
128
71
-10
72
12
73
9
0
VERTEX
8
OBJECT001
10
0
20
0
30
0
70
128
71
5
72
10
73
-9
0
VERTEX
8
OBJECT001
10
0
20
0
30
0
70
128
71
-5
72
9
73
6
0
VERTEX
8
OBJECT001
10
0
20
0
30
0
70
128
71
6
72
9
73
-12
0
VERTEX
8
OBJECT001
10
0
20
0
30
0
70
128
71
-6
72
12
73
7
0
VERTEX
8
OBJECT001
10
0
20
0
30
0
70
128
71
1
72
4
73
-10
0
VERTEX
8
OBJECT001
10
0
20
0
30
0
70
128
71
-1
72
10
73
5
0
VERTEX
8
OBJECT001
10
0
20
0
30
0
70
128
71
3
72
2
73
-8
0
VERTEX
8
OBJECT001
10
0
20
0
30
0
70
128
71
-3
72
8
73
11
0
VERTEX
8
OBJECT001
10
0
20
0
30
0
70
128
71
7
72
12
73
-11
0
VERTEX
8
OBJECT001
10
0
20
0
30
0
70
128
71
-7
72
11
73
8
0
SEQEND
8
OBJECT001
0
POLYLINE
8
OBJECT002
66
1
70
64
71
8
72
12
62
50
0
VERTEX
8
OBJECT002
10
-9.000005
20
-154.000000
30
160.000000
70
192
0
VERTEX
8
OBJECT002
10
-9.000005
20
-8.000000
30
160.000000
70
192
0
VERTEX
8
OBJECT002
10
505.000000
20
-8.000000
30
160.000000
70
192
0
VERTEX
8
OBJECT002
10
505.000000
20
-154.000000
30
160.000000
70
192
0
VERTEX
8
OBJECT002
10
-8.999515
20
11.333386
30
150.000000
70
192
0
VERTEX
8
OBJECT002
10
-8.999515
20
-173.564941
30
150.000000
70
192
0
VERTEX
8
OBJECT002
10
505.000000
20
-173.564941
30
150.000000
70
192
0
VERTEX
8
OBJECT002
10
505.000000
20
11.333386
30
150.000000
70
192
0
VERTEX
8
OBJECT002
10
0
20
0
30
0
70
128
71
2
72
3
73
-4
0
VERTEX
8
OBJECT002
10
0
20
0
30
0
70
128
71
-2
72
4
73
1
0
VERTEX
8
OBJECT002
10
0
20
0
30
0
70
128
71
2
72
1
73
-6
0
VERTEX
8
OBJECT002
10
0
20
0
30
0
70
128
71
-2
72
6
73
5
0
VERTEX
8
OBJECT002
10
0
20
0
30
0
70
128
71
4
72
3
73
-8
0
VERTEX
8
OBJECT002
10
0
20
0
30
0
70
128
71
-4
72
8
73
7
0
VERTEX
8
OBJECT002
10
0
20
0
30
0
70
128
71
1
72
4
73
-7
0
VERTEX
8
OBJECT002
10
0
20
0
30
0
70
128
71
-1
72
7
73
6
0
VERTEX
8
OBJECT002
10
0
20
0
30
0
70
128
71
2
72
5
73
-8
0
VERTEX
8
OBJECT002
10
0
20
0
30
0
70
128
71
-2
72
8
73
3
0
VERTEX
8
OBJECT002
10
0
20
0
30
0
70
128
71
6
72
7
73
-8
0
VERTEX
8
OBJECT002
10
0
20
0
30
0
70
128
71
-6
72
8
73
5
0
SEQEND
8
OBJECT002
0
POLYLINE
8
OBJECT003
66
1
70
64
71
8
72
12
62
50
0
VERTEX
8
OBJECT003
10
-9.000016
20
-270.000000
30
99.886955
70
192
0
VERTEX
8
OBJECT003
10
-9.000016
20
-173.987289
30
150.000000
70
192
0
VERTEX
8
OBJECT003
10
505.000000
20
-173.987289
30
150.000000
70
192
0
VERTEX
8
OBJECT003
10
505.000000
20
-270.000000
30
99.886955
70
192
0
VERTEX
8
OBJECT003
10
-9.000016
20
-148.000061
30
150.000000
70
192
0
VERTEX
8
OBJECT003
10
505.000000
20
-148.000061
30
150.000000
70
192
0
VERTEX
8
OBJECT003
10
-8.999531
20
-270.000000
30
88.000038
70
192
0
VERTEX
8
OBJECT003
10
505.000000
20
-270.000000
30
88.000038
70
192
0
VERTEX
8
OBJECT003
10
0
20
0
30
0
70
128
71
2
72
3
73
-4
0
VERTEX
8
OBJECT003
10
0
20
0
30
0
70
128
71
-2
72
4
73
1
0
VERTEX
8
OBJECT003
10
0
20
0
30
0
70
128
71
2
72
5
73
-6
0
VERTEX
8
OBJECT003
10
0
20
0
30
0
70
128
71
-2
72
6
73
3
0
VERTEX
8
OBJECT003
10
0
20
0
30
0
70
128
71
2
72
1
73
-7
0
VERTEX
8
OBJECT003
10
0
20
0
30
0
70
128
71
-2
72
7
73
5
0
VERTEX
8
OBJECT003
10
0
20
0
30
0
70
128
71
3
72
6
73
-8
0
VERTEX
8
OBJECT003
10
0
20
0
30
0
70
128
71
-3
72
8
73
4
0
VERTEX
8
OBJECT003
10
0
20
0
30
0
70
128
71
1
72
4
73
-8
0
VERTEX
8
OBJECT003
10
0
20
0
30
0
70
128
71
-1
72
8
73
7
0
VERTEX
8
OBJECT003
10
0
20
0
30
0
70
128
71
5
72
7
73
-8
0
VERTEX
8
OBJECT003
10
0
20
0
30
0
70
128
71
-5
72
8
73
6
0
SEQEND
8
OBJECT003
0
POLYLINE
8
OBJECT004
66
1
70
64
71
8
72
12
62
50
0
VERTEX
8
OBJECT004
10
-9.000005
20
106.000000
30
-96.000000
70
192
0
VERTEX
8
OBJECT004
10
-9.000005
20
-270.000000
30
-96.000000
70
192
0
VERTEX
8
OBJECT004
10
504.999512
20
-270.000000
30
-96.000000
70
192
0
VERTEX
8
OBJECT004
10
504.999512
20
106.000000
30
-96.000000
70
192
0
VERTEX
8
OBJECT004
10
-8.999515
20
-270.000000
30
-86.000000
70
192
0
VERTEX
8
OBJECT004
10
-8.999515
20
106.000000
30
-86.000000
70
192
0
VERTEX
8
OBJECT004
10
504.999512
20
106.000000
30
-86.000000
70
192
0
VERTEX
8
OBJECT004
10
504.999512
20
-270.000000
30
-86.000000
70
192
0
VERTEX
8
OBJECT004
10
0
20
0
30
0
70
128
71
2
72
3
73
-4
0
VERTEX
8
OBJECT004
10
0
20
0
30
0
70
128
71
-2
72
4
73
1
0
VERTEX
8
OBJECT004
10
0
20
0
30
0
70
128
71
2
72
1
73
-6
0
VERTEX
8
OBJECT004
10
0
20
0
30
0
70
128
71
-2
72
6
73
5
0
VERTEX
8
OBJECT004
10
0
20
0
30
0
70
128
71
4
72
3
73
-8
0
VERTEX
8
OBJECT004
10
0
20
0
30
0
70
128
71
-4
72
8
73
7
0
VERTEX
8
OBJECT004
10
0
20
0
30
0
70
128
71
1
72
4
73
-7
0
VERTEX
8
OBJECT004
10
0
20
0
30
0
70
128
71
-1
72
7
73
6
0
VERTEX
8
OBJECT004
10
0
20
0
30
0
70
128
71
3
72
2
73
-5
0
VERTEX
8
OBJECT004
10
0
20
0
30
0
70
128
71
-3
72
5
73
8
0
VERTEX
8
OBJECT004
10
0
20
0
30
0
70
128
71
6
72
7
73
-8
0
VERTEX
8
OBJECT004
10
0
20
0
30
0
70
128
71
-6
72
8
73
5
0
SEQEND
8
OBJECT004
0
POLYLINE
8
OBJECT005
66
1
70
64
71
8
72
12
62
50
0
VERTEX
8
OBJECT005
10
505.000000
20
106.000000
30
99.886955
70
192
0
VERTEX
8
OBJECT005
10
505.000000
20
9.987289
30
150.000000
70
192
0
VERTEX
8
OBJECT005
10
-9.000016
20
9.987289
30
150.000000
70
192
0
VERTEX
8
OBJECT005
10
-9.000016
20
106.000000
30
99.886955
70
192
0
VERTEX
8
OBJECT005
10
505.000000
20
-15.999939
30
150.000000
70
192
0
VERTEX
8
OBJECT005
10
-9.000016
20
-15.999939
30
150.000000
70
192
0
VERTEX
8
OBJECT005
10
-8.999531
20
106.000000
30
88.000038
70
192
0
VERTEX
8
OBJECT005
10
505.000000
20
106.000000
30
88.000038
70
192
0
VERTEX
8
OBJECT005
10
0
20
0
30
0
70
128
71
2
72
3
73
-4
0
VERTEX
8
OBJECT005
10
0
20
0
30
0
70
128
71
-2
72
4
73
1
0
VERTEX
8
OBJECT005
10
0
20
0
30
0
70
128
71
6
72
3
73
-2
0
VERTEX
8
OBJECT005
10
0
20
0
30
0
70
128
71
-6
72
2
73
5
0
VERTEX
8
OBJECT005
10
0
20
0
30
0
70
128
71
4
72
3
73
-6
0
VERTEX
8
OBJECT005
10
0
20
0
30
0
70
128
71
-4
72
6
73
7
0
VERTEX
8
OBJECT005
10
0
20
0
30
0
70
128
71
5
72
2
73
-1
0
VERTEX
8
OBJECT005
10
0
20
0
30
0
70
128
71
-5
72
1
73
8
0
VERTEX
8
OBJECT005
10
0
20
0
30
0
70
128
71
1
72
4
73
-7
0
VERTEX
8
OBJECT005
10
0
20
0
30
0
70
128
71
-1
72
7
73
8
0
VERTEX
8
OBJECT005
10
0
20
0
30
0
70
128
71
7
72
6
73
-5
0
VERTEX
8
OBJECT005
10
0
20
0
30
0
70
128
71
-7
72
5
73
8
0
SEQEND
8
OBJECT005
0
POLYLINE
8
OBJECT006
66
1
70
64
71
8
72
12
62
50
0
VERTEX
8
OBJECT006
10
-9.000005
20
106.000000
30
-283.000000
70
192
0
VERTEX
8
OBJECT006
10
-9.000005
20
-270.000000
30
-283.000000
70
192
0
VERTEX
8
OBJECT006
10
504.999512
20
-270.000000
30
-283.000000
70
192
0
VERTEX
8
OBJECT006
10
504.999512
20
106.000000
30
-283.000000
70
192
0
VERTEX
8
OBJECT006
10
-8.999515
20
-270.000000
30
-272.723480
70
192
0
VERTEX
8
OBJECT006
10
-8.999515
20
106.000000
30
-272.723480
70
192
0
VERTEX
8
OBJECT006
10
504.999512
20
106.000000
30
-272.723480
70
192
0
VERTEX
8
OBJECT006
10
504.999512
20
-270.000000
30
-272.723480
70
192
0
VERTEX
8
OBJECT006
10
0
20
0
30
0
70
128
71
2
72
3
73
-4
0
VERTEX
8
OBJECT006
10
0
20
0
30
0
70
128
71
-2
72
4
73
1
0
VERTEX
8
OBJECT006
10
0
20
0
30
0
70
128
71
2
72
1
73
-6
0
VERTEX
8
OBJECT006
10
0
20
0
30
0
70
128
71
-2
72
6
73
5
0
VERTEX
8
OBJECT006
10
0
20
0
30
0
70
128
71
4
72
3
73
-8
0
VERTEX
8
OBJECT006
10
0
20
0
30
0
70
128
71
-4
72
8
73
7
0
VERTEX
8
OBJECT006
10
0
20
0
30
0
70
128
71
1
72
4
73
-7
0
VERTEX
8
OBJECT006
10
0
20
0
30
0
70
128
71
-1
72
7
73
6
0
VERTEX
8
OBJECT006
10
0
20
0
30
0
70
128
71
3
72
2
73
-5
0
VERTEX
8
OBJECT006
10
0
20
0
30
0
70
128
71
-3
72
5
73
8
0
VERTEX
8
OBJECT006
10
0
20
0
30
0
70
128
71
6
72
7
73
-8
0
VERTEX
8
OBJECT006
10
0
20
0
30
0
70
128
71
-6
72
8
73
5
0
SEQEND
8
OBJECT006
0
ENDSEC
0
EOF
