0
SECTION
2
HEADER
9
$ACADVER
1
AC1008
9
$UCSORG
10
0.0
20
0.0
30
0.0
9
$UCSXDIR
10
1.0
20
0.0
30
0.0
9
$TILEMODE
70
1
9
$UCSYDIR
10
0.0
20
1.0
30
0.0
9
$EXTMIN
10
-9.000000
20
-352.000000
30
-283.000000
9
$EXTMAX
10
505.000000
20
188.000000
30
160.000000
0
ENDSEC
0
SECTION
2
TABLES
0
TABLE
2
LTYPE
70
1
0
LTYPE
2
CONTINUOUS
70
64
3
Solid line
72
65
73
0
40
0.0
0
ENDTAB
0
TABLE
2
LAYER
70
1
0
LAYER
2
0
70
0
62
7
6
CONTINUOUS
0
ENDTAB
0
TABLE
2
STYLE
70
1
0
STYLE
2
STANDARD
70
0
40
0.0
41
1.0
50
0.0
71
0
42
0.2
3
txt
4

0
ENDTAB
0
TABLE
2
UCS
70
0
0
ENDTAB
0
ENDSEC
0
SECTION
2
ENTITIES
0
POLYLINE
8
OBJECT000
66
1
70
64
71
8
72
12
62
50
0
VERTEX
8
OBJECT000
10
-9.000000
20
-154.000000
30
160.000000
70
192
0
VERTEX
8
OBJECT000
10
-9.000000
20
-8.000000
30
160.000000
70
192
0
VERTEX
8
OBJECT000
10
505.000000
20
-8.000000
30
160.000000
70
192
0
VERTEX
8
OBJECT000
10
505.000000
20
-154.000000
30
160.000000
70
192
0
VERTEX
8
OBJECT000
10
-9.000000
20
11.333480
30
150.000000
70
192
0
VERTEX
8
OBJECT000
10
-9.000000
20
-173.565399
30
150.000000
70
192
0
VERTEX
8
OBJECT000
10
505.000000
20
-173.565399
30
150.000000
70
192
0
VERTEX
8
OBJECT000
10
505.000000
20
11.333480
30
150.000000
70
192
0
VERTEX
8
OBJECT000
10
0
20
0
30
0
70
128
71
2
72
3
73
-4
0
VERTEX
8
OBJECT000
10
0
20
0
30
0
70
128
71
-2
72
4
73
1
0
VERTEX
8
OBJECT000
10
0
20
0
30
0
70
128
71
2
72
1
73
-6
0
VERTEX
8
OBJECT000
10
0
20
0
30
0
70
128
71
-2
72
6
73
5
0
VERTEX
8
OBJECT000
10
0
20
0
30
0
70
128
71
4
72
3
73
-8
0
VERTEX
8
OBJECT000
10
0
20
0
30
0
70
128
71
-4
72
8
73
7
0
VERTEX
8
OBJECT000
10
0
20
0
30
0
70
128
71
1
72
4
73
-7
0
VERTEX
8
OBJECT000
10
0
20
0
30
0
70
128
71
-1
72
7
73
6
0
VERTEX
8
OBJECT000
10
0
20
0
30
0
70
128
71
2
72
5
73
-8
0
VERTEX
8
OBJECT000
10
0
20
0
30
0
70
128
71
-2
72
8
73
3
0
VERTEX
8
OBJECT000
10
0
20
0
30
0
70
128
71
6
72
7
73
-8
0
VERTEX
8
OBJECT000
10
0
20
0
30
0
70
128
71
-6
72
8
73
5
0
SEQEND
8
OBJECT000
0
POLYLINE
8
OBJECT001
66
1
70
64
71
8
72
12
62
50
0
VERTEX
8
OBJECT001
10
-9.000000
20
-270.000000
30
99.886002
70
192
0
VERTEX
8
OBJECT001
10
-9.000000
20
-173.985077
30
150.000000
70
192
0
VERTEX
8
OBJECT001
10
505.000000
20
-173.985077
30
150.000000
70
192
0
VERTEX
8
OBJECT001
10
505.000000
20
-270.000000
30
99.886002
70
192
0
VERTEX
8
OBJECT001
10
-9.000000
20
-148.000000
30
150.000000
70
192
0
VERTEX
8
OBJECT001
10
505.000000
20
-148.000000
30
150.000000
70
192
0
VERTEX
8
OBJECT001
10
-9.000000
20
-270.000000
30
88.000000
70
192
0
VERTEX
8
OBJECT001
10
505.000000
20
-270.000000
30
88.000000
70
192
0
VERTEX
8
OBJECT001
10
0
20
0
30
0
70
128
71
2
72
3
73
-4
0
VERTEX
8
OBJECT001
10
0
20
0
30
0
70
128
71
-2
72
4
73
1
0
VERTEX
8
OBJECT001
10
0
20
0
30
0
70
128
71
2
72
5
73
-6
0
VERTEX
8
OBJECT001
10
0
20
0
30
0
70
128
71
-2
72
6
73
3
0
VERTEX
8
OBJECT001
10
0
20
0
30
0
70
128
71
2
72
1
73
-7
0
VERTEX
8
OBJECT001
10
0
20
0
30
0
70
128
71
-2
72
7
73
5
0
VERTEX
8
OBJECT001
10
0
20
0
30
0
70
128
71
4
72
3
73
-6
0
VERTEX
8
OBJECT001
10
0
20
0
30
0
70
128
71
-4
72
6
73
8
0
VERTEX
8
OBJECT001
10
0
20
0
30
0
70
128
71
1
72
4
73
-8
0
VERTEX
8
OBJECT001
10
0
20
0
30
0
70
128
71
-1
72
8
73
7
0
VERTEX
8
OBJECT001
10
0
20
0
30
0
70
128
71
5
72
7
73
-8
0
VERTEX
8
OBJECT001
10
0
20
0
30
0
70
128
71
-5
72
8
73
6
0
SEQEND
8
OBJECT001
0
POLYLINE
8
OBJECT002
66
1
70
64
71
8
72
12
62
50
0
VERTEX
8
OBJECT002
10
505.000000
20
9.988409
30
150.000000
70
192
0
VERTEX
8
OBJECT002
10
-9.000000
20
9.988409
30
150.000000
70
192
0
VERTEX
8
OBJECT002
10
-9.000000
20
106.000000
30
99.887589
70
192
0
VERTEX
8
OBJECT002
10
505.000000
20
106.000000
30
99.887589
70
192
0
VERTEX
8
OBJECT002
10
-9.000000
20
-16.000000
30
150.000000
70
192
0
VERTEX
8
OBJECT002
10
505.000000
20
-16.000000
30
150.000000
70
192
0
VERTEX
8
OBJECT002
10
-9.000000
20
106.000000
30
88.000000
70
192
0
VERTEX
8
OBJECT002
10
505.000000
20
106.000000
30
88.000000
70
192
0
VERTEX
8
OBJECT002
10
0
20
0
30
0
70
128
71
2
72
3
73
-4
0
VERTEX
8
OBJECT002
10
0
20
0
30
0
70
128
71
-2
72
4
73
1
0
VERTEX
8
OBJECT002
10
0
20
0
30
0
70
128
71
2
72
1
73
-6
0
VERTEX
8
OBJECT002
10
0
20
0
30
0
70
128
71
-2
72
6
73
5
0
VERTEX
8
OBJECT002
10
0
20
0
30
0
70
128
71
3
72
2
73
-5
0
VERTEX
8
OBJECT002
10
0
20
0
30
0
70
128
71
-3
72
5
73
7
0
VERTEX
8
OBJECT002
10
0
20
0
30
0
70
128
71
1
72
4
73
-8
0
VERTEX
8
OBJECT002
10
0
20
0
30
0
70
128
71
-1
72
8
73
6
0
VERTEX
8
OBJECT002
10
0
20
0
30
0
70
128
71
4
72
3
73
-7
0
VERTEX
8
OBJECT002
10
0
20
0
30
0
70
128
71
-4
72
7
73
8
0
VERTEX
8
OBJECT002
10
0
20
0
30
0
70
128
71
5
72
6
73
-8
0
VERTEX
8
OBJECT002
10
0
20
0
30
0
70
128
71
-5
72
8
73
7
0
SEQEND
8
OBJECT002
0
POLYLINE
8
OBJECT003
66
1
70
64
71
8
72
12
62
50
0
VERTEX
8
OBJECT003
10
-9.000000
20
106.000000
30
-283.000000
70
192
0
VERTEX
8
OBJECT003
10
-9.000000
20
-270.000000
30
-283.000000
70
192
0
VERTEX
8
OBJECT003
10
505.000000
20
-270.000000
30
-283.000000
70
192
0
VERTEX
8
OBJECT003
10
505.000000
20
106.000000
30
-283.000000
70
192
0
VERTEX
8
OBJECT003
10
-9.000000
20
-270.000000
30
-272.722992
70
192
0
VERTEX
8
OBJECT003
10
-9.000000
20
106.000000
30
-272.722992
70
192
0
VERTEX
8
OBJECT003
10
505.000000
20
106.000000
30
-272.722992
70
192
0
VERTEX
8
OBJECT003
10
505.000000
20
-270.000000
30
-272.722992
70
192
0
VERTEX
8
OBJECT003
10
0
20
0
30
0
70
128
71
2
72
3
73
-4
0
VERTEX
8
OBJECT003
10
0
20
0
30
0
70
128
71
-2
72
4
73
1
0
VERTEX
8
OBJECT003
10
0
20
0
30
0
70
128
71
2
72
1
73
-6
0
VERTEX
8
OBJECT003
10
0
20
0
30
0
70
128
71
-2
72
6
73
5
0
VERTEX
8
OBJECT003
10
0
20
0
30
0
70
128
71
4
72
3
73
-8
0
VERTEX
8
OBJECT003
10
0
20
0
30
0
70
128
71
-4
72
8
73
7
0
VERTEX
8
OBJECT003
10
0
20
0
30
0
70
128
71
1
72
4
73
-7
0
VERTEX
8
OBJECT003
10
0
20
0
30
0
70
128
71
-1
72
7
73
6
0
VERTEX
8
OBJECT003
10
0
20
0
30
0
70
128
71
3
72
2
73
-5
0
VERTEX
8
OBJECT003
10
0
20
0
30
0
70
128
71
-3
72
5
73
8
0
VERTEX
8
OBJECT003
10
0
20
0
30
0
70
128
71
6
72
7
73
-8
0
VERTEX
8
OBJECT003
10
0
20
0
30
0
70
128
71
-6
72
8
73
5
0
SEQEND
8
OBJECT003
0
POLYLINE
8
OBJECT004
66
1
70
64
71
8
72
12
62
50
0
VERTEX
8
OBJECT004
10
-9.000000
20
12.000000
30
-96.000000
70
192
0
VERTEX
8
OBJECT004
10
-9.000000
20
-176.000000
30
-96.000000
70
192
0
VERTEX
8
OBJECT004
10
505.000000
20
-176.000000
30
-96.000000
70
192
0
VERTEX
8
OBJECT004
10
505.000000
20
12.000000
30
-96.000000
70
192
0
VERTEX
8
OBJECT004
10
-9.000000
20
-176.000000
30
-86.000000
70
192
0
VERTEX
8
OBJECT004
10
-9.000000
20
12.000000
30
-86.000000
70
192
0
VERTEX
8
OBJECT004
10
505.000000
20
12.000000
30
-86.000000
70
192
0
VERTEX
8
OBJECT004
10
505.000000
20
-176.000000
30
-86.000000
70
192
0
VERTEX
8
OBJECT004
10
0
20
0
30
0
70
128
71
2
72
3
73
-4
0
VERTEX
8
OBJECT004
10
0
20
0
30
0
70
128
71
-2
72
4
73
1
0
VERTEX
8
OBJECT004
10
0
20
0
30
0
70
128
71
2
72
1
73
-6
0
VERTEX
8
OBJECT004
10
0
20
0
30
0
70
128
71
-2
72
6
73
5
0
VERTEX
8
OBJECT004
10
0
20
0
30
0
70
128
71
4
72
3
73
-8
0
VERTEX
8
OBJECT004
10
0
20
0
30
0
70
128
71
-4
72
8
73
7
0
VERTEX
8
OBJECT004
10
0
20
0
30
0
70
128
71
1
72
4
73
-7
0
VERTEX
8
OBJECT004
10
0
20
0
30
0
70
128
71
-1
72
7
73
6
0
VERTEX
8
OBJECT004
10
0
20
0
30
0
70
128
71
3
72
2
73
-5
0
VERTEX
8
OBJECT004
10
0
20
0
30
0
70
128
71
-3
72
5
73
8
0
VERTEX
8
OBJECT004
10
0
20
0
30
0
70
128
71
6
72
7
73
-8
0
VERTEX
8
OBJECT004
10
0
20
0
30
0
70
128
71
-6
72
8
73
5
0
SEQEND
8
OBJECT004
0
POLYLINE
8
OBJECT005
66
1
70
64
71
6
72
8
62
50
0
VERTEX
8
OBJECT005
10
96.000046
20
-270.000000
30
-272.000000
70
192
0
VERTEX
8
OBJECT005
10
505.000000
20
-270.000000
30
-272.000000
70
192
0
VERTEX
8
OBJECT005
10
505.000000
20
-175.000000
30
-272.000000
70
192
0
VERTEX
8
OBJECT005
10
96.000046
20
-175.000000
30
-272.000000
70
192
0
VERTEX
8
OBJECT005
10
505.000000
20
-175.000000
30
-86.638100
70
192
0
VERTEX
8
OBJECT005
10
505.000000
20
-270.000000
30
-86.638100
70
192
0
VERTEX
8
OBJECT005
10
0
20
0
30
0
70
128
71
2
72
3
73
-4
0
VERTEX
8
OBJECT005
10
0
20
0
30
0
70
128
71
-2
72
4
73
1
0
VERTEX
8
OBJECT005
10
0
20
0
30
0
70
128
71
3
72
2
73
-6
0
VERTEX
8
OBJECT005
10
0
20
0
30
0
70
128
71
-3
72
6
73
5
0
VERTEX
8
OBJECT005
10
0
20
0
30
0
70
128
71
3
72
5
73
4
0
VERTEX
8
OBJECT005
10
0
20
0
30
0
70
128
71
2
72
1
73
6
0
VERTEX
8
OBJECT005
10
0
20
0
30
0
70
128
71
4
72
5
73
-6
0
VERTEX
8
OBJECT005
10
0
20
0
30
0
70
128
71
-4
72
6
73
1
0
SEQEND
8
OBJECT005
0
POLYLINE
8
OBJECT006
66
1
70
64
71
12
72
20
62
50
0
VERTEX
8
OBJECT006
10
-9.000000
20
-270.000000
30
-283.000000
70
192
0
VERTEX
8
OBJECT006
10
-9.000000
20
-270.778015
30
-283.000000
70
192
0
VERTEX
8
OBJECT006
10
505.000000
20
-270.778015
30
-283.000000
70
192
0
VERTEX
8
OBJECT006
10
505.000000
20
-270.000000
30
-283.000000
70
192
0
VERTEX
8
OBJECT006
10
-9.000000
20
-270.000000
30
100.723022
70
192
0
VERTEX
8
OBJECT006
10
-9.000000
20
-285.000000
30
85.715645
70
192
0
VERTEX
8
OBJECT006
10
-9.000000
20
-352.000000
30
-25.524427
70
192
0
VERTEX
8
OBJECT006
10
-9.000000
20
-352.000000
30
-150.360977
70
192
0
VERTEX
8
OBJECT006
10
505.000000
20
-352.000000
30
-150.360977
70
192
0
VERTEX
8
OBJECT006
10
505.000000
20
-352.000000
30
-25.524427
70
192
0
VERTEX
8
OBJECT006
10
505.000000
20
-285.000000
30
85.715645
70
192
0
VERTEX
8
OBJECT006
10
505.000000
20
-270.000000
30
100.723022
70
192
0
VERTEX
8
OBJECT006
10
0
20
0
30
0
70
128
71
2
72
3
73
-4
0
VERTEX
8
OBJECT006
10
0
20
0
30
0
70
128
71
-2
72
4
73
1
0
VERTEX
8
OBJECT006
10
0
20
0
30
0
70
128
71
6
72
7
73
-8
0
VERTEX
8
OBJECT006
10
0
20
0
30
0
70
128
71
-6
72
8
73
-2
0
VERTEX
8
OBJECT006
10
0
20
0
30
0
70
128
71
-6
72
2
73
-1
0
VERTEX
8
OBJECT006
10
0
20
0
30
0
70
128
71
-6
72
1
73
5
0
VERTEX
8
OBJECT006
10
0
20
0
30
0
70
128
71
3
72
9
73
-10
0
VERTEX
8
OBJECT006
10
0
20
0
30
0
70
128
71
-3
72
10
73
-11
0
VERTEX
8
OBJECT006
10
0
20
0
30
0
70
128
71
-3
72
11
73
-12
0
VERTEX
8
OBJECT006
10
0
20
0
30
0
70
128
71
-3
72
12
73
4
0
VERTEX
8
OBJECT006
10
0
20
0
30
0
70
128
71
9
72
8
73
-7
0
VERTEX
8
OBJECT006
10
0
20
0
30
0
70
128
71
-9
72
7
73
10
0
VERTEX
8
OBJECT006
10
0
20
0
30
0
70
128
71
11
72
6
73
-5
0
VERTEX
8
OBJECT006
10
0
20
0
30
0
70
128
71
-11
72
5
73
12
0
VERTEX
8
OBJECT006
10
0
20
0
30
0
70
128
71
10
72
7
73
-6
0
VERTEX
8
OBJECT006
10
0
20
0
30
0
70
128
71
-10
72
6
73
11
0
VERTEX
8
OBJECT006
10
0
20
0
30
0
70
128
71
3
72
2
73
-8
0
VERTEX
8
OBJECT006
10
0
20
0
30
0
70
128
71
-3
72
8
73
9
0
VERTEX
8
OBJECT006
10
0
20
0
30
0
70
128
71
1
72
4
73
-12
0
VERTEX
8
OBJECT006
10
0
20
0
30
0
70
128
71
-1
72
12
73
5
0
SEQEND
8
OBJECT006
0
POLYLINE
8
OBJECT007
66
1
70
64
71
12
72
20
62
50
0
VERTEX
8
OBJECT007
10
-9.000000
20
106.777000
30
-283.000000
70
192
0
VERTEX
8
OBJECT007
10
-9.000000
20
106.000000
30
-283.000000
70
192
0
VERTEX
8
OBJECT007
10
505.000000
20
106.000000
30
-283.000000
70
192
0
VERTEX
8
OBJECT007
10
505.000000
20
106.777000
30
-283.000000
70
192
0
VERTEX
8
OBJECT007
10
-9.000000
20
188.000000
30
-150.360977
70
192
0
VERTEX
8
OBJECT007
10
-9.000000
20
188.000000
30
-25.524366
70
192
0
VERTEX
8
OBJECT007
10
-9.000000
20
121.036407
30
85.623627
70
192
0
VERTEX
8
OBJECT007
10
-9.000000
20
106.000000
30
99.312302
70
192
0
VERTEX
8
OBJECT007
10
505.000000
20
121.036407
30
85.623627
70
192
0
VERTEX
8
OBJECT007
10
505.000000
20
188.000000
30
-25.524366
70
192
0
VERTEX
8
OBJECT007
10
505.000000
20
188.000000
30
-150.360977
70
192
0
VERTEX
8
OBJECT007
10
505.000000
20
106.000000
30
99.312302
70
192
0
VERTEX
8
OBJECT007
10
0
20
0
30
0
70
128
71
2
72
3
73
-4
0
VERTEX
8
OBJECT007
10
0
20
0
30
0
70
128
71
-2
72
4
73
1
0
VERTEX
8
OBJECT007
10
0
20
0
30
0
70
128
71
1
72
5
73
-6
0
VERTEX
8
OBJECT007
10
0
20
0
30
0
70
128
71
-1
72
6
73
-7
0
VERTEX
8
OBJECT007
10
0
20
0
30
0
70
128
71
-1
72
7
73
-8
0
VERTEX
8
OBJECT007
10
0
20
0
30
0
70
128
71
-1
72
8
73
2
0
VERTEX
8
OBJECT007
10
0
20
0
30
0
70
128
71
10
72
11
73
-4
0
VERTEX
8
OBJECT007
10
0
20
0
30
0
70
128
71
-10
72
4
73
-3
0
VERTEX
8
OBJECT007
10
0
20
0
30
0
70
128
71
-10
72
3
73
-12
0
VERTEX
8
OBJECT007
10
0
20
0
30
0
70
128
71
-10
72
12
73
9
0
VERTEX
8
OBJECT007
10
0
20
0
30
0
70
128
71
5
72
11
73
-10
0
VERTEX
8
OBJECT007
10
0
20
0
30
0
70
128
71
-5
72
10
73
6
0
VERTEX
8
OBJECT007
10
0
20
0
30
0
70
128
71
6
72
10
73
-9
0
VERTEX
8
OBJECT007
10
0
20
0
30
0
70
128
71
-6
72
9
73
7
0
VERTEX
8
OBJECT007
10
0
20
0
30
0
70
128
71
1
72
4
73
-11
0
VERTEX
8
OBJECT007
10
0
20
0
30
0
70
128
71
-1
72
11
73
5
0
VERTEX
8
OBJECT007
10
0
20
0
30
0
70
128
71
3
72
2
73
-8
0
VERTEX
8
OBJECT007
10
0
20
0
30
0
70
128
71
-3
72
8
73
12
0
VERTEX
8
OBJECT007
10
0
20
0
30
0
70
128
71
7
72
9
73
-12
0
VERTEX
8
OBJECT007
10
0
20
0
30
0
70
128
71
-7
72
12
73
8
0
SEQEND
8
OBJECT007
0
POLYLINE
8
OBJECT008
66
1
70
64
71
8
72
12
62
50
0
VERTEX
8
OBJECT008
10
499.000000
20
10.000000
30
-86.000000
70
192
0
VERTEX
8
OBJECT008
10
505.000000
20
10.000000
30
-86.000000
70
192
0
VERTEX
8
OBJECT008
10
505.000000
20
4.000000
30
-86.000000
70
192
0
VERTEX
8
OBJECT008
10
499.000000
20
4.000000
30
-86.000000
70
192
0
VERTEX
8
OBJECT008
10
499.000000
20
4.000000
30
-273.000000
70
192
0
VERTEX
8
OBJECT008
10
505.000000
20
4.000000
30
-273.000000
70
192
0
VERTEX
8
OBJECT008
10
505.000000
20
10.000000
30
-273.000000
70
192
0
VERTEX
8
OBJECT008
10
499.000000
20
10.000000
30
-273.000000
70
192
0
VERTEX
8
OBJECT008
10
0
20
0
30
0
70
128
71
2
72
3
73
-4
0
VERTEX
8
OBJECT008
10
0
20
0
30
0
70
128
71
-2
72
4
73
1
0
VERTEX
8
OBJECT008
10
0
20
0
30
0
70
128
71
6
72
7
73
-8
0
VERTEX
8
OBJECT008
10
0
20
0
30
0
70
128
71
-6
72
8
73
5
0
VERTEX
8
OBJECT008
10
0
20
0
30
0
70
128
71
4
72
5
73
-8
0
VERTEX
8
OBJECT008
10
0
20
0
30
0
70
128
71
-4
72
8
73
1
0
VERTEX
8
OBJECT008
10
0
20
0
30
0
70
128
71
6
72
3
73
-2
0
VERTEX
8
OBJECT008
10
0
20
0
30
0
70
128
71
-6
72
2
73
7
0
VERTEX
8
OBJECT008
10
0
20
0
30
0
70
128
71
1
72
8
73
-7
0
VERTEX
8
OBJECT008
10
0
20
0
30
0
70
128
71
-1
72
7
73
2
0
VERTEX
8
OBJECT008
10
0
20
0
30
0
70
128
71
5
72
4
73
-3
0
VERTEX
8
OBJECT008
10
0
20
0
30
0
70
128
71
-5
72
3
73
6
0
SEQEND
8
OBJECT008
0
POLYLINE
8
OBJECT009
66
1
70
64
71
8
72
12
62
50
0
VERTEX
8
OBJECT009
10
-9.000000
20
-169.000000
30
-86.000000
70
192
0
VERTEX
8
OBJECT009
10
-3.000000
20
-169.000000
30
-86.000000
70
192
0
VERTEX
8
OBJECT009
10
-3.000000
20
-175.000000
30
-86.000000
70
192
0
VERTEX
8
OBJECT009
10
-9.000000
20
-175.000000
30
-86.000000
70
192
0
VERTEX
8
OBJECT009
10
-9.000000
20
-175.000000
30
-273.000000
70
192
0
VERTEX
8
OBJECT009
10
-3.000000
20
-175.000000
30
-273.000000
70
192
0
VERTEX
8
OBJECT009
10
-3.000000
20
-169.000000
30
-273.000000
70
192
0
VERTEX
8
OBJECT009
10
-9.000000
20
-169.000000
30
-273.000000
70
192
0
VERTEX
8
OBJECT009
10
0
20
0
30
0
70
128
71
2
72
3
73
-4
0
VERTEX
8
OBJECT009
10
0
20
0
30
0
70
128
71
-2
72
4
73
1
0
VERTEX
8
OBJECT009
10
0
20
0
30
0
70
128
71
6
72
7
73
-8
0
VERTEX
8
OBJECT009
10
0
20
0
30
0
70
128
71
-6
72
8
73
5
0
VERTEX
8
OBJECT009
10
0
20
0
30
0
70
128
71
4
72
5
73
-8
0
VERTEX
8
OBJECT009
10
0
20
0
30
0
70
128
71
-4
72
8
73
1
0
VERTEX
8
OBJECT009
10
0
20
0
30
0
70
128
71
6
72
3
73
-2
0
VERTEX
8
OBJECT009
10
0
20
0
30
0
70
128
71
-6
72
2
73
7
0
VERTEX
8
OBJECT009
10
0
20
0
30
0
70
128
71
1
72
8
73
-7
0
VERTEX
8
OBJECT009
10
0
20
0
30
0
70
128
71
-1
72
7
73
2
0
VERTEX
8
OBJECT009
10
0
20
0
30
0
70
128
71
5
72
4
73
-3
0
VERTEX
8
OBJECT009
10
0
20
0
30
0
70
128
71
-5
72
3
73
6
0
SEQEND
8
OBJECT009
0
POLYLINE
8
OBJECT010
66
1
70
64
71
12
72
20
62
50
0
VERTEX
8
OBJECT010
10
405.320282
20
-171.000000
30
-87.000000
70
192
0
VERTEX
8
OBJECT010
10
505.000000
20
-171.000000
30
-87.000000
70
192
0
VERTEX
8
OBJECT010
10
505.000000
20
-175.000000
30
-87.000000
70
192
0
VERTEX
8
OBJECT010
10
405.320282
20
-175.000000
30
-87.000000
70
192
0
VERTEX
8
OBJECT010
10
59.000000
20
-175.000000
30
-272.000000
70
192
0
VERTEX
8
OBJECT010
10
505.000000
20
-175.000000
30
-272.000000
70
192
0
VERTEX
8
OBJECT010
10
505.000000
20
-171.000000
30
-272.000000
70
192
0
VERTEX
8
OBJECT010
10
59.000000
20
-171.000000
30
-272.000000
70
192
0
VERTEX
8
OBJECT010
10
87.057663
20
-171.000000
30
-218.475998
70
192
0
VERTEX
8
OBJECT010
10
76.157806
20
-171.000000
30
-229.765137
70
192
0
VERTEX
8
OBJECT010
10
76.157806
20
-175.000000
30
-229.765137
70
192
0
VERTEX
8
OBJECT010
10
87.057663
20
-175.000000
30
-218.475998
70
192
0
VERTEX
8
OBJECT010
10
0
20
0
30
0
70
128
71
2
72
3
73
-4
0
VERTEX
8
OBJECT010
10
0
20
0
30
0
70
128
71
-2
72
4
73
1
0
VERTEX
8
OBJECT010
10
0
20
0
30
0
70
128
71
6
72
7
73
-8
0
VERTEX
8
OBJECT010
10
0
20
0
30
0
70
128
71
-6
72
8
73
5
0
VERTEX
8
OBJECT010
10
0
20
0
30
0
70
128
71
6
72
3
73
-2
0
VERTEX
8
OBJECT010
10
0
20
0
30
0
70
128
71
-6
72
2
73
7
0
VERTEX
8
OBJECT010
10
0
20
0
30
0
70
128
71
7
72
2
73
-1
0
VERTEX
8
OBJECT010
10
0
20
0
30
0
70
128
71
-7
72
1
73
-9
0
VERTEX
8
OBJECT010
10
0
20
0
30
0
70
128
71
-7
72
9
73
-10
0
VERTEX
8
OBJECT010
10
0
20
0
30
0
70
128
71
-7
72
10
73
8
0
VERTEX
8
OBJECT010
10
0
20
0
30
0
70
128
71
5
72
11
73
-12
0
VERTEX
8
OBJECT010
10
0
20
0
30
0
70
128
71
-5
72
12
73
-4
0
VERTEX
8
OBJECT010
10
0
20
0
30
0
70
128
71
-5
72
4
73
-3
0
VERTEX
8
OBJECT010
10
0
20
0
30
0
70
128
71
-5
72
3
73
6
0
VERTEX
8
OBJECT010
10
0
20
0
30
0
70
128
71
1
72
4
73
-12
0
VERTEX
8
OBJECT010
10
0
20
0
30
0
70
128
71
-1
72
12
73
9
0
VERTEX
8
OBJECT010
10
0
20
0
30
0
70
128
71
8
72
10
73
-11
0
VERTEX
8
OBJECT010
10
0
20
0
30
0
70
128
71
-8
72
11
73
5
0
VERTEX
8
OBJECT010
10
0
20
0
30
0
70
128
71
9
72
12
73
-11
0
VERTEX
8
OBJECT010
10
0
20
0
30
0
70
128
71
-9
72
11
73
10
0
SEQEND
8
OBJECT010
0
POLYLINE
8
OBJECT011
66
1
70
64
71
12
72
20
62
50
0
VERTEX
8
OBJECT011
10
90.679718
20
8.000000
30
-87.000000
70
192
0
VERTEX
8
OBJECT011
10
-9.000000
20
8.000000
30
-87.000000
70
192
0
VERTEX
8
OBJECT011
10
-9.000000
20
12.000000
30
-87.000000
70
192
0
VERTEX
8
OBJECT011
10
90.679718
20
12.000000
30
-87.000000
70
192
0
VERTEX
8
OBJECT011
10
437.000000
20
12.000000
30
-272.000000
70
192
0
VERTEX
8
OBJECT011
10
-9.000000
20
12.000000
30
-272.000000
70
192
0
VERTEX
8
OBJECT011
10
-9.000000
20
8.000000
30
-272.000000
70
192
0
VERTEX
8
OBJECT011
10
437.000000
20
8.000000
30
-272.000000
70
192
0
VERTEX
8
OBJECT011
10
408.942322
20
8.000000
30
-218.475998
70
192
0
VERTEX
8
OBJECT011
10
419.842194
20
8.000000
30
-229.765137
70
192
0
VERTEX
8
OBJECT011
10
419.842194
20
12.000000
30
-229.765137
70
192
0
VERTEX
8
OBJECT011
10
408.942322
20
12.000000
30
-218.475998
70
192
0
VERTEX
8
OBJECT011
10
0
20
0
30
0
70
128
71
2
72
3
73
-4
0
VERTEX
8
OBJECT011
10
0
20
0
30
0
70
128
71
-2
72
4
73
1
0
VERTEX
8
OBJECT011
10
0
20
0
30
0
70
128
71
6
72
7
73
-8
0
VERTEX
8
OBJECT011
10
0
20
0
30
0
70
128
71
-6
72
8
73
5
0
VERTEX
8
OBJECT011
10
0
20
0
30
0
70
128
71
6
72
3
73
-2
0
VERTEX
8
OBJECT011
10
0
20
0
30
0
70
128
71
-6
72
2
73
7
0
VERTEX
8
OBJECT011
10
0
20
0
30
0
70
128
71
7
72
2
73
-1
0
VERTEX
8
OBJECT011
10
0
20
0
30
0
70
128
71
-7
72
1
73
-9
0
VERTEX
8
OBJECT011
10
0
20
0
30
0
70
128
71
-7
72
9
73
-10
0
VERTEX
8
OBJECT011
10
0
20
0
30
0
70
128
71
-7
72
10
73
8
0
VERTEX
8
OBJECT011
10
0
20
0
30
0
70
128
71
5
72
11
73
-12
0
VERTEX
8
OBJECT011
10
0
20
0
30
0
70
128
71
-5
72
12
73
-4
0
VERTEX
8
OBJECT011
10
0
20
0
30
0
70
128
71
-5
72
4
73
-3
0
VERTEX
8
OBJECT011
10
0
20
0
30
0
70
128
71
-5
72
3
73
6
0
VERTEX
8
OBJECT011
10
0
20
0
30
0
70
128
71
1
72
4
73
-12
0
VERTEX
8
OBJECT011
10
0
20
0
30
0
70
128
71
-1
72
12
73
9
0
VERTEX
8
OBJECT011
10
0
20
0
30
0
70
128
71
8
72
10
73
-11
0
VERTEX
8
OBJECT011
10
0
20
0
30
0
70
128
71
-8
72
11
73
5
0
VERTEX
8
OBJECT011
10
0
20
0
30
0
70
128
71
9
72
12
73
-11
0
VERTEX
8
OBJECT011
10
0
20
0
30
0
70
128
71
-9
72
11
73
10
0
SEQEND
8
OBJECT011
0
POLYLINE
8
OBJECT012
66
1
70
64
71
6
72
8
62
50
0
VERTEX
8
OBJECT012
10
399.999939
20
107.000000
30
-272.000000
70
192
0
VERTEX
8
OBJECT012
10
-9.000000
20
107.000000
30
-272.000000
70
192
0
VERTEX
8
OBJECT012
10
-9.000000
20
12.000000
30
-272.000000
70
192
0
VERTEX
8
OBJECT012
10
399.999939
20
12.000000
30
-272.000000
70
192
0
VERTEX
8
OBJECT012
10
-9.000000
20
12.000000
30
-86.638100
70
192
0
VERTEX
8
OBJECT012
10
-9.000000
20
107.000000
30
-86.638100
70
192
0
VERTEX
8
OBJECT012
10
0
20
0
30
0
70
128
71
2
72
3
73
-4
0
VERTEX
8
OBJECT012
10
0
20
0
30
0
70
128
71
-2
72
4
73
1
0
VERTEX
8
OBJECT012
10
0
20
0
30
0
70
128
71
3
72
2
73
-6
0
VERTEX
8
OBJECT012
10
0
20
0
30
0
70
128
71
-3
72
6
73
5
0
VERTEX
8
OBJECT012
10
0
20
0
30
0
70
128
71
3
72
5
73
4
0
VERTEX
8
OBJECT012
10
0
20
0
30
0
70
128
71
2
72
1
73
6
0
VERTEX
8
OBJECT012
10
0
20
0
30
0
70
128
71
4
72
5
73
-6
0
VERTEX
8
OBJECT012
10
0
20
0
30
0
70
128
71
-4
72
6
73
1
0
SEQEND
8
OBJECT012
0
ENDSEC
0
EOF
