0
SECTION
2
HEADER
9
$ACADVER
1
AC1008
9
$UCSORG
10
0.0
20
0.0
30
0.0
9
$UCSXDIR
10
1.0
20
0.0
30
0.0
9
$TILEMODE
70
1
9
$UCSYDIR
10
0.0
20
1.0
30
0.0
9
$EXTMIN
10
-368.000000
20
-64.000000
30
254.999985
9
$EXTMAX
10
80.000000
20
224.000000
30
432.000000
0
ENDSEC
0
SECTION
2
TABLES
0
TABLE
2
LTYPE
70
1
0
LTYPE
2
CONTINUOUS
70
64
3
Solid line
72
65
73
0
40
0.0
0
ENDTAB
0
TABLE
2
LAYER
70
1
0
LAYER
2
0
70
0
62
7
6
CONTINUOUS
0
ENDTAB
0
TABLE
2
STYLE
70
1
0
STYLE
2
STANDARD
70
0
40
0.0
41
1.0
50
0.0
71
0
42
0.2
3
txt
4

0
ENDTAB
0
TABLE
2
UCS
70
0
0
ENDTAB
0
ENDSEC
0
SECTION
2
ENTITIES
0
POLYLINE
8
OBJECT000
66
1
70
64
71
8
72
12
62
50
0
VERTEX
8
OBJECT000
10
-72.000000
20
160.000000
30
254.999985
70
192
0
VERTEX
8
OBJECT000
10
-224.736832
20
160.000000
30
254.999985
70
192
0
VERTEX
8
OBJECT000
10
-224.736832
20
0.000000
30
254.999985
70
192
0
VERTEX
8
OBJECT000
10
-72.000000
20
0.000000
30
254.999985
70
192
0
VERTEX
8
OBJECT000
10
-224.736832
20
0.000000
30
260.000000
70
192
0
VERTEX
8
OBJECT000
10
-72.000000
20
0.000000
30
260.000000
70
192
0
VERTEX
8
OBJECT000
10
-72.000000
20
160.000000
30
260.000000
70
192
0
VERTEX
8
OBJECT000
10
-224.736832
20
160.000000
30
260.000000
70
192
0
VERTEX
8
OBJECT000
10
0
20
0
30
0
70
128
71
2
72
3
73
-4
0
VERTEX
8
OBJECT000
10
0
20
0
30
0
70
128
71
-2
72
4
73
1
0
VERTEX
8
OBJECT000
10
0
20
0
30
0
70
128
71
3
72
5
73
-6
0
VERTEX
8
OBJECT000
10
0
20
0
30
0
70
128
71
-3
72
6
73
4
0
VERTEX
8
OBJECT000
10
0
20
0
30
0
70
128
71
1
72
7
73
-8
0
VERTEX
8
OBJECT000
10
0
20
0
30
0
70
128
71
-1
72
8
73
2
0
VERTEX
8
OBJECT000
10
0
20
0
30
0
70
128
71
3
72
2
73
-8
0
VERTEX
8
OBJECT000
10
0
20
0
30
0
70
128
71
-3
72
8
73
5
0
VERTEX
8
OBJECT000
10
0
20
0
30
0
70
128
71
1
72
4
73
-6
0
VERTEX
8
OBJECT000
10
0
20
0
30
0
70
128
71
-1
72
6
73
7
0
VERTEX
8
OBJECT000
10
0
20
0
30
0
70
128
71
5
72
8
73
-7
0
VERTEX
8
OBJECT000
10
0
20
0
30
0
70
128
71
-5
72
7
73
6
0
SEQEND
8
OBJECT000
0
POLYLINE
8
OBJECT001
66
1
70
64
71
8
72
12
62
50
0
VERTEX
8
OBJECT001
10
-224.736832
20
0.000000
30
255.000015
70
192
0
VERTEX
8
OBJECT001
10
-224.736832
20
0.000000
30
344.333313
70
192
0
VERTEX
8
OBJECT001
10
-72.000000
20
0.000000
30
344.333313
70
192
0
VERTEX
8
OBJECT001
10
-72.000000
20
0.000000
30
255.000015
70
192
0
VERTEX
8
OBJECT001
10
-224.736832
20
5.000000
30
344.333313
70
192
0
VERTEX
8
OBJECT001
10
-72.000000
20
5.000000
30
344.333313
70
192
0
VERTEX
8
OBJECT001
10
-224.736832
20
5.000000
30
255.000015
70
192
0
VERTEX
8
OBJECT001
10
-72.000000
20
5.000000
30
255.000015
70
192
0
VERTEX
8
OBJECT001
10
0
20
0
30
0
70
128
71
2
72
3
73
-4
0
VERTEX
8
OBJECT001
10
0
20
0
30
0
70
128
71
-2
72
4
73
1
0
VERTEX
8
OBJECT001
10
0
20
0
30
0
70
128
71
2
72
5
73
-6
0
VERTEX
8
OBJECT001
10
0
20
0
30
0
70
128
71
-2
72
6
73
3
0
VERTEX
8
OBJECT001
10
0
20
0
30
0
70
128
71
1
72
7
73
-5
0
VERTEX
8
OBJECT001
10
0
20
0
30
0
70
128
71
-1
72
5
73
2
0
VERTEX
8
OBJECT001
10
0
20
0
30
0
70
128
71
4
72
3
73
-6
0
VERTEX
8
OBJECT001
10
0
20
0
30
0
70
128
71
-4
72
6
73
8
0
VERTEX
8
OBJECT001
10
0
20
0
30
0
70
128
71
1
72
4
73
-8
0
VERTEX
8
OBJECT001
10
0
20
0
30
0
70
128
71
-1
72
8
73
7
0
VERTEX
8
OBJECT001
10
0
20
0
30
0
70
128
71
6
72
5
73
-7
0
VERTEX
8
OBJECT001
10
0
20
0
30
0
70
128
71
-6
72
7
73
8
0
SEQEND
8
OBJECT001
0
POLYLINE
8
OBJECT002
66
1
70
64
71
8
72
12
62
50
0
VERTEX
8
OBJECT002
10
-230.000000
20
0.000000
30
351.000000
70
192
0
VERTEX
8
OBJECT002
10
-230.000000
20
160.000000
30
351.000000
70
192
0
VERTEX
8
OBJECT002
10
-70.000008
20
160.000000
30
351.000000
70
192
0
VERTEX
8
OBJECT002
10
-70.000008
20
0.000000
30
351.000000
70
192
0
VERTEX
8
OBJECT002
10
-230.000000
20
160.000000
30
344.333313
70
192
0
VERTEX
8
OBJECT002
10
-230.000000
20
0.000000
30
344.333313
70
192
0
VERTEX
8
OBJECT002
10
-70.000008
20
0.000000
30
344.333313
70
192
0
VERTEX
8
OBJECT002
10
-70.000008
20
160.000000
30
344.333313
70
192
0
VERTEX
8
OBJECT002
10
0
20
0
30
0
70
128
71
2
72
3
73
-4
0
VERTEX
8
OBJECT002
10
0
20
0
30
0
70
128
71
-2
72
4
73
1
0
VERTEX
8
OBJECT002
10
0
20
0
30
0
70
128
71
2
72
1
73
-6
0
VERTEX
8
OBJECT002
10
0
20
0
30
0
70
128
71
-2
72
6
73
5
0
VERTEX
8
OBJECT002
10
0
20
0
30
0
70
128
71
4
72
3
73
-8
0
VERTEX
8
OBJECT002
10
0
20
0
30
0
70
128
71
-4
72
8
73
7
0
VERTEX
8
OBJECT002
10
0
20
0
30
0
70
128
71
1
72
4
73
-7
0
VERTEX
8
OBJECT002
10
0
20
0
30
0
70
128
71
-1
72
7
73
6
0
VERTEX
8
OBJECT002
10
0
20
0
30
0
70
128
71
3
72
2
73
-5
0
VERTEX
8
OBJECT002
10
0
20
0
30
0
70
128
71
-3
72
5
73
8
0
VERTEX
8
OBJECT002
10
0
20
0
30
0
70
128
71
6
72
7
73
-8
0
VERTEX
8
OBJECT002
10
0
20
0
30
0
70
128
71
-6
72
8
73
5
0
SEQEND
8
OBJECT002
0
POLYLINE
8
OBJECT003
66
1
70
64
71
19
72
34
62
50
0
VERTEX
8
OBJECT003
10
12.631580
20
192.000000
30
330.000000
70
192
0
VERTEX
8
OBJECT003
10
-34.927505
20
192.000000
30
330.000000
70
192
0
VERTEX
8
OBJECT003
10
-48.000000
20
141.289642
30
330.000000
70
192
0
VERTEX
8
OBJECT003
10
-48.000000
20
19.237415
30
330.000000
70
192
0
VERTEX
8
OBJECT003
10
-33.684212
20
-32.000004
30
330.000000
70
192
0
VERTEX
8
OBJECT003
10
12.733654
20
-32.000004
30
330.000000
70
192
0
VERTEX
8
OBJECT003
10
16.000000
20
17.777775
30
330.000000
70
192
0
VERTEX
8
OBJECT003
10
16.000000
20
152.177185
30
330.000000
70
192
0
VERTEX
8
OBJECT003
10
12.631580
20
192.000000
30
334.500000
70
192
0
VERTEX
8
OBJECT003
10
-34.927505
20
192.000000
30
334.500000
70
192
0
VERTEX
8
OBJECT003
10
-33.684212
20
-32.000004
30
333.750000
70
192
0
VERTEX
8
OBJECT003
10
12.733654
20
-32.000004
30
333.750000
70
192
0
VERTEX
8
OBJECT003
10
-48.000000
20
141.289642
30
342.000000
70
192
0
VERTEX
8
OBJECT003
10
-48.000000
20
19.237417
30
342.000000
70
192
0
VERTEX
8
OBJECT003
10
16.000000
20
17.777775
30
342.000000
70
192
0
VERTEX
8
OBJECT003
10
16.000000
20
142.435120
30
342.000000
70
192
0
VERTEX
8
OBJECT003
10
16.000000
20
152.177185
30
340.525879
70
192
0
VERTEX
8
OBJECT003
10
-47.704712
20
142.435120
30
342.000000
70
192
0
VERTEX
8
OBJECT003
10
-47.592182
20
17.777775
30
342.000000
70
192
0
VERTEX
8
OBJECT003
10
0
20
0
30
0
70
128
71
2
72
3
73
-4
0
VERTEX
8
OBJECT003
10
0
20
0
30
0
70
128
71
-2
72
4
73
-5
0
VERTEX
8
OBJECT003
10
0
20
0
30
0
70
128
71
-2
72
5
73
-6
0
VERTEX
8
OBJECT003
10
0
20
0
30
0
70
128
71
-2
72
6
73
-7
0
VERTEX
8
OBJECT003
10
0
20
0
30
0
70
128
71
-2
72
7
73
-8
0
VERTEX
8
OBJECT003
10
0
20
0
30
0
70
128
71
-2
72
8
73
1
0
VERTEX
8
OBJECT003
10
0
20
0
30
0
70
128
71
1
72
9
73
-10
0
VERTEX
8
OBJECT003
10
0
20
0
30
0
70
128
71
-1
72
10
73
2
0
VERTEX
8
OBJECT003
10
0
20
0
30
0
70
128
71
5
72
11
73
-12
0
VERTEX
8
OBJECT003
10
0
20
0
30
0
70
128
71
-5
72
12
73
6
0
VERTEX
8
OBJECT003
10
0
20
0
30
0
70
128
71
3
72
13
73
-14
0
VERTEX
8
OBJECT003
10
0
20
0
30
0
70
128
71
-3
72
14
73
4
0
VERTEX
8
OBJECT003
10
0
20
0
30
0
70
128
71
7
72
15
73
-16
0
VERTEX
8
OBJECT003
10
0
20
0
30
0
70
128
71
-7
72
16
73
-17
0
VERTEX
8
OBJECT003
10
0
20
0
30
0
70
128
71
-7
72
17
73
8
0
VERTEX
8
OBJECT003
10
0
20
0
30
0
70
128
71
13
72
18
73
-16
0
VERTEX
8
OBJECT003
10
0
20
0
30
0
70
128
71
-13
72
16
73
-15
0
VERTEX
8
OBJECT003
10
0
20
0
30
0
70
128
71
-13
72
15
73
-19
0
VERTEX
8
OBJECT003
10
0
20
0
30
0
70
128
71
-13
72
19
73
14
0
VERTEX
8
OBJECT003
10
0
20
0
30
0
70
128
71
9
72
17
73
-16
0
VERTEX
8
OBJECT003
10
0
20
0
30
0
70
128
71
-9
72
16
73
-18
0
VERTEX
8
OBJECT003
10
0
20
0
30
0
70
128
71
-9
72
18
73
10
0
VERTEX
8
OBJECT003
10
0
20
0
30
0
70
128
71
11
72
19
73
-15
0
VERTEX
8
OBJECT003
10
0
20
0
30
0
70
128
71
-11
72
15
73
12
0
VERTEX
8
OBJECT003
10
0
20
0
30
0
70
128
71
5
72
4
73
-14
0
VERTEX
8
OBJECT003
10
0
20
0
30
0
70
128
71
-5
72
14
73
-19
0
VERTEX
8
OBJECT003
10
0
20
0
30
0
70
128
71
-5
72
19
73
11
0
VERTEX
8
OBJECT003
10
0
20
0
30
0
70
128
71
3
72
2
73
-10
0
VERTEX
8
OBJECT003
10
0
20
0
30
0
70
128
71
-3
72
10
73
-18
0
VERTEX
8
OBJECT003
10
0
20
0
30
0
70
128
71
-3
72
18
73
13
0
VERTEX
8
OBJECT003
10
0
20
0
30
0
70
128
71
1
72
8
73
-17
0
VERTEX
8
OBJECT003
10
0
20
0
30
0
70
128
71
-1
72
17
73
9
0
VERTEX
8
OBJECT003
10
0
20
0
30
0
70
128
71
7
72
6
73
-12
0
VERTEX
8
OBJECT003
10
0
20
0
30
0
70
128
71
-7
72
12
73
15
0
SEQEND
8
OBJECT003
0
POLYLINE
8
OBJECT004
66
1
70
64
71
8
72
12
62
50
0
VERTEX
8
OBJECT004
10
80.000000
20
60.000000
30
320.000000
70
192
0
VERTEX
8
OBJECT004
10
80.000000
20
55.000000
30
320.000000
70
192
0
VERTEX
8
OBJECT004
10
80.000000
20
55.000000
30
344.000000
70
192
0
VERTEX
8
OBJECT004
10
80.000000
20
60.000000
30
344.000000
70
192
0
VERTEX
8
OBJECT004
10
-72.000000
20
0.097864
30
320.000000
70
192
0
VERTEX
8
OBJECT004
10
-72.000000
20
0.097864
30
344.000000
70
192
0
VERTEX
8
OBJECT004
10
-72.000000
20
60.000000
30
320.000000
70
192
0
VERTEX
8
OBJECT004
10
-72.000000
20
60.000000
30
344.000000
70
192
0
VERTEX
8
OBJECT004
10
0
20
0
30
0
70
128
71
2
72
3
73
-4
0
VERTEX
8
OBJECT004
10
0
20
0
30
0
70
128
71
-2
72
4
73
1
0
VERTEX
8
OBJECT004
10
0
20
0
30
0
70
128
71
2
72
5
73
-6
0
VERTEX
8
OBJECT004
10
0
20
0
30
0
70
128
71
-2
72
6
73
3
0
VERTEX
8
OBJECT004
10
0
20
0
30
0
70
128
71
5
72
7
73
-8
0
VERTEX
8
OBJECT004
10
0
20
0
30
0
70
128
71
-5
72
8
73
6
0
VERTEX
8
OBJECT004
10
0
20
0
30
0
70
128
71
5
72
2
73
-1
0
VERTEX
8
OBJECT004
10
0
20
0
30
0
70
128
71
-5
72
1
73
7
0
VERTEX
8
OBJECT004
10
0
20
0
30
0
70
128
71
3
72
6
73
-8
0
VERTEX
8
OBJECT004
10
0
20
0
30
0
70
128
71
-3
72
8
73
4
0
VERTEX
8
OBJECT004
10
0
20
0
30
0
70
128
71
7
72
1
73
-4
0
VERTEX
8
OBJECT004
10
0
20
0
30
0
70
128
71
-7
72
4
73
8
0
SEQEND
8
OBJECT004
0
POLYLINE
8
OBJECT005
66
1
70
64
71
8
72
12
62
50
0
VERTEX
8
OBJECT005
10
-72.000000
20
159.792282
30
352.000000
70
192
0
VERTEX
8
OBJECT005
10
80.000000
20
106.664078
30
352.000000
70
192
0
VERTEX
8
OBJECT005
10
80.000000
20
55.000000
30
352.000000
70
192
0
VERTEX
8
OBJECT005
10
-72.000000
20
0.097406
30
352.000000
70
192
0
VERTEX
8
OBJECT005
10
80.000000
20
55.000000
30
344.000000
70
192
0
VERTEX
8
OBJECT005
10
80.000000
20
106.664238
30
344.000000
70
192
0
VERTEX
8
OBJECT005
10
-72.000000
20
0.097900
30
344.000000
70
192
0
VERTEX
8
OBJECT005
10
-72.000000
20
159.792450
30
344.000000
70
192
0
VERTEX
8
OBJECT005
10
0
20
0
30
0
70
128
71
2
72
3
73
-4
0
VERTEX
8
OBJECT005
10
0
20
0
30
0
70
128
71
-2
72
4
73
1
0
VERTEX
8
OBJECT005
10
0
20
0
30
0
70
128
71
3
72
2
73
-6
0
VERTEX
8
OBJECT005
10
0
20
0
30
0
70
128
71
-3
72
6
73
5
0
VERTEX
8
OBJECT005
10
0
20
0
30
0
70
128
71
4
72
3
73
-5
0
VERTEX
8
OBJECT005
10
0
20
0
30
0
70
128
71
-4
72
5
73
7
0
VERTEX
8
OBJECT005
10
0
20
0
30
0
70
128
71
2
72
1
73
-8
0
VERTEX
8
OBJECT005
10
0
20
0
30
0
70
128
71
-2
72
8
73
6
0
VERTEX
8
OBJECT005
10
0
20
0
30
0
70
128
71
1
72
4
73
-7
0
VERTEX
8
OBJECT005
10
0
20
0
30
0
70
128
71
-1
72
7
73
8
0
VERTEX
8
OBJECT005
10
0
20
0
30
0
70
128
71
5
72
6
73
-8
0
VERTEX
8
OBJECT005
10
0
20
0
30
0
70
128
71
-5
72
8
73
7
0
SEQEND
8
OBJECT005
0
POLYLINE
8
OBJECT006
66
1
70
64
71
8
72
12
62
50
0
VERTEX
8
OBJECT006
10
31.999996
20
76.000000
30
432.000000
70
192
0
VERTEX
8
OBJECT006
10
2.285711
20
76.000000
30
432.000000
70
192
0
VERTEX
8
OBJECT006
10
2.285711
20
84.000000
30
432.000000
70
192
0
VERTEX
8
OBJECT006
10
31.999996
20
84.000000
30
432.000000
70
192
0
VERTEX
8
OBJECT006
10
7.238094
20
84.000000
30
352.000000
70
192
0
VERTEX
8
OBJECT006
10
-72.000000
20
84.000000
30
352.000000
70
192
0
VERTEX
8
OBJECT006
10
-72.000000
20
76.000000
30
352.000000
70
192
0
VERTEX
8
OBJECT006
10
7.238094
20
76.000000
30
352.000000
70
192
0
VERTEX
8
OBJECT006
10
0
20
0
30
0
70
128
71
2
72
3
73
-4
0
VERTEX
8
OBJECT006
10
0
20
0
30
0
70
128
71
-2
72
4
73
1
0
VERTEX
8
OBJECT006
10
0
20
0
30
0
70
128
71
4
72
3
73
-6
0
VERTEX
8
OBJECT006
10
0
20
0
30
0
70
128
71
-4
72
6
73
5
0
VERTEX
8
OBJECT006
10
0
20
0
30
0
70
128
71
2
72
1
73
-8
0
VERTEX
8
OBJECT006
10
0
20
0
30
0
70
128
71
-2
72
8
73
7
0
VERTEX
8
OBJECT006
10
0
20
0
30
0
70
128
71
6
72
3
73
-2
0
VERTEX
8
OBJECT006
10
0
20
0
30
0
70
128
71
-6
72
2
73
7
0
VERTEX
8
OBJECT006
10
0
20
0
30
0
70
128
71
1
72
4
73
-5
0
VERTEX
8
OBJECT006
10
0
20
0
30
0
70
128
71
-1
72
5
73
8
0
VERTEX
8
OBJECT006
10
0
20
0
30
0
70
128
71
6
72
7
73
-8
0
VERTEX
8
OBJECT006
10
0
20
0
30
0
70
128
71
-6
72
8
73
5
0
SEQEND
8
OBJECT006
0
POLYLINE
8
OBJECT007
66
1
70
64
71
11
72
18
62
50
0
VERTEX
8
OBJECT007
10
-223.547302
20
1.000000
30
256.000000
70
192
0
VERTEX
8
OBJECT007
10
-190.000000
20
-64.000000
30
256.000000
70
192
0
VERTEX
8
OBJECT007
10
-79.757866
20
-64.000000
30
256.000000
70
192
0
VERTEX
8
OBJECT007
10
-72.000000
20
0.000000
30
256.000000
70
192
0
VERTEX
8
OBJECT007
10
-72.000000
20
1.000000
30
256.000000
70
192
0
VERTEX
8
OBJECT007
10
-190.000000
20
-64.000000
30
263.499512
70
192
0
VERTEX
8
OBJECT007
10
-79.757866
20
-64.000000
30
263.499512
70
192
0
VERTEX
8
OBJECT007
10
-72.000000
20
0.000000
30
280.000000
70
192
0
VERTEX
8
OBJECT007
10
-72.000000
20
1.000000
30
280.000000
70
192
0
VERTEX
8
OBJECT007
10
-223.031204
20
0.000000
30
280.000000
70
192
0
VERTEX
8
OBJECT007
10
-223.547302
20
1.000000
30
280.000000
70
192
0
VERTEX
8
OBJECT007
10
0
20
0
30
0
70
128
71
2
72
3
73
-4
0
VERTEX
8
OBJECT007
10
0
20
0
30
0
70
128
71
-2
72
4
73
-5
0
VERTEX
8
OBJECT007
10
0
20
0
30
0
70
128
71
-2
72
5
73
1
0
VERTEX
8
OBJECT007
10
0
20
0
30
0
70
128
71
2
72
6
73
-7
0
VERTEX
8
OBJECT007
10
0
20
0
30
0
70
128
71
-2
72
7
73
3
0
VERTEX
8
OBJECT007
10
0
20
0
30
0
70
128
71
4
72
8
73
-9
0
VERTEX
8
OBJECT007
10
0
20
0
30
0
70
128
71
-4
72
9
73
5
0
VERTEX
8
OBJECT007
10
0
20
0
30
0
70
128
71
8
72
10
73
-11
0
VERTEX
8
OBJECT007
10
0
20
0
30
0
70
128
71
-8
72
11
73
9
0
VERTEX
8
OBJECT007
10
0
20
0
30
0
70
128
71
6
72
10
73
-8
0
VERTEX
8
OBJECT007
10
0
20
0
30
0
70
128
71
-6
72
8
73
7
0
VERTEX
8
OBJECT007
10
0
20
0
30
0
70
128
71
2
72
1
73
-11
0
VERTEX
8
OBJECT007
10
0
20
0
30
0
70
128
71
-2
72
11
73
-10
0
VERTEX
8
OBJECT007
10
0
20
0
30
0
70
128
71
-2
72
10
73
6
0
VERTEX
8
OBJECT007
10
0
20
0
30
0
70
128
71
4
72
3
73
-7
0
VERTEX
8
OBJECT007
10
0
20
0
30
0
70
128
71
-4
72
7
73
8
0
VERTEX
8
OBJECT007
10
0
20
0
30
0
70
128
71
5
72
9
73
-11
0
VERTEX
8
OBJECT007
10
0
20
0
30
0
70
128
71
-5
72
11
73
1
0
SEQEND
8
OBJECT007
0
POLYLINE
8
OBJECT008
66
1
70
64
71
8
72
12
62
50
0
VERTEX
8
OBJECT008
10
-335.000000
20
121.459541
30
260.000000
70
192
0
VERTEX
8
OBJECT008
10
-363.000000
20
111.736649
30
269.333984
70
192
0
VERTEX
8
OBJECT008
10
-363.000000
20
48.264969
30
269.333984
70
192
0
VERTEX
8
OBJECT008
10
-335.000000
20
38.542080
30
260.000000
70
192
0
VERTEX
8
OBJECT008
10
-318.333313
20
127.245644
30
260.000000
70
192
0
VERTEX
8
OBJECT008
10
-363.000000
20
111.736382
30
274.333344
70
192
0
VERTEX
8
OBJECT008
10
-318.333313
20
32.753807
30
260.000000
70
192
0
VERTEX
8
OBJECT008
10
-363.000000
20
48.263073
30
274.333344
70
192
0
VERTEX
8
OBJECT008
10
0
20
0
30
0
70
128
71
2
72
3
73
-4
0
VERTEX
8
OBJECT008
10
0
20
0
30
0
70
128
71
-2
72
4
73
1
0
VERTEX
8
OBJECT008
10
0
20
0
30
0
70
128
71
1
72
5
73
-6
0
VERTEX
8
OBJECT008
10
0
20
0
30
0
70
128
71
-1
72
6
73
2
0
VERTEX
8
OBJECT008
10
0
20
0
30
0
70
128
71
4
72
3
73
-8
0
VERTEX
8
OBJECT008
10
0
20
0
30
0
70
128
71
-4
72
8
73
7
0
VERTEX
8
OBJECT008
10
0
20
0
30
0
70
128
71
1
72
4
73
-7
0
VERTEX
8
OBJECT008
10
0
20
0
30
0
70
128
71
-1
72
7
73
5
0
VERTEX
8
OBJECT008
10
0
20
0
30
0
70
128
71
3
72
2
73
-6
0
VERTEX
8
OBJECT008
10
0
20
0
30
0
70
128
71
-3
72
6
73
8
0
VERTEX
8
OBJECT008
10
0
20
0
30
0
70
128
71
8
72
6
73
-5
0
VERTEX
8
OBJECT008
10
0
20
0
30
0
70
128
71
-8
72
5
73
7
0
SEQEND
8
OBJECT008
0
POLYLINE
8
OBJECT009
66
1
70
64
71
12
72
20
62
50
0
VERTEX
8
OBJECT009
10
-224.000000
20
0.000000
30
346.000000
70
192
0
VERTEX
8
OBJECT009
10
-224.000000
20
0.000000
30
260.000000
70
192
0
VERTEX
8
OBJECT009
10
-318.333313
20
32.753807
30
260.000000
70
192
0
VERTEX
8
OBJECT009
10
-363.000000
20
48.263073
30
274.333344
70
192
0
VERTEX
8
OBJECT009
10
-363.000000
20
48.263073
30
288.666687
70
192
0
VERTEX
8
OBJECT009
10
-258.777740
20
12.074794
30
346.000000
70
192
0
VERTEX
8
OBJECT009
10
-224.000000
20
2.398167
30
260.000000
70
192
0
VERTEX
8
OBJECT009
10
-224.000000
20
2.398092
30
346.000000
70
192
0
VERTEX
8
OBJECT009
10
-258.777740
20
14.698990
30
346.000000
70
192
0
VERTEX
8
OBJECT009
10
-318.333313
20
35.763893
30
260.000000
70
192
0
VERTEX
8
OBJECT009
10
-363.000000
20
51.562504
30
274.333344
70
192
0
VERTEX
8
OBJECT009
10
-363.000000
20
51.562489
30
288.666687
70
192
0
VERTEX
8
OBJECT009
10
0
20
0
30
0
70
128
71
2
72
3
73
-4
0
VERTEX
8
OBJECT009
10
0
20
0
30
0
70
128
71
-2
72
4
73
-5
0
VERTEX
8
OBJECT009
10
0
20
0
30
0
70
128
71
-2
72
5
73
-6
0
VERTEX
8
OBJECT009
10
0
20
0
30
0
70
128
71
-2
72
6
73
1
0
VERTEX
8
OBJECT009
10
0
20
0
30
0
70
128
71
2
72
1
73
-8
0
VERTEX
8
OBJECT009
10
0
20
0
30
0
70
128
71
-2
72
8
73
7
0
VERTEX
8
OBJECT009
10
0
20
0
30
0
70
128
71
6
72
9
73
-8
0
VERTEX
8
OBJECT009
10
0
20
0
30
0
70
128
71
-6
72
8
73
1
0
VERTEX
8
OBJECT009
10
0
20
0
30
0
70
128
71
3
72
2
73
-7
0
VERTEX
8
OBJECT009
10
0
20
0
30
0
70
128
71
-3
72
7
73
10
0
VERTEX
8
OBJECT009
10
0
20
0
30
0
70
128
71
4
72
11
73
-12
0
VERTEX
8
OBJECT009
10
0
20
0
30
0
70
128
71
-4
72
12
73
5
0
VERTEX
8
OBJECT009
10
0
20
0
30
0
70
128
71
5
72
12
73
-9
0
VERTEX
8
OBJECT009
10
0
20
0
30
0
70
128
71
-5
72
9
73
6
0
VERTEX
8
OBJECT009
10
0
20
0
30
0
70
128
71
4
72
3
73
-10
0
VERTEX
8
OBJECT009
10
0
20
0
30
0
70
128
71
-4
72
10
73
11
0
VERTEX
8
OBJECT009
10
0
20
0
30
0
70
128
71
7
72
8
73
-9
0
VERTEX
8
OBJECT009
10
0
20
0
30
0
70
128
71
-7
72
9
73
-12
0
VERTEX
8
OBJECT009
10
0
20
0
30
0
70
128
71
-7
72
12
73
-11
0
VERTEX
8
OBJECT009
10
0
20
0
30
0
70
128
71
-7
72
11
73
10
0
SEQEND
8
OBJECT009
0
POLYLINE
8
OBJECT010
66
1
70
64
71
8
72
12
62
50
0
VERTEX
8
OBJECT010
10
-368.000000
20
50.000000
30
271.000000
70
192
0
VERTEX
8
OBJECT010
10
-368.000000
20
110.000000
30
271.000000
70
192
0
VERTEX
8
OBJECT010
10
-368.000000
20
110.000000
30
287.000000
70
192
0
VERTEX
8
OBJECT010
10
-368.000000
20
50.000000
30
287.000000
70
192
0
VERTEX
8
OBJECT010
10
-363.000000
20
48.263885
30
289.856323
70
192
0
VERTEX
8
OBJECT010
10
-363.000000
20
111.735695
30
289.856323
70
192
0
VERTEX
8
OBJECT010
10
-363.000000
20
111.735695
30
269.333984
70
192
0
VERTEX
8
OBJECT010
10
-363.000000
20
48.263885
30
269.333984
70
192
0
VERTEX
8
OBJECT010
10
0
20
0
30
0
70
128
71
2
72
3
73
-4
0
VERTEX
8
OBJECT010
10
0
20
0
30
0
70
128
71
-2
72
4
73
1
0
VERTEX
8
OBJECT010
10
0
20
0
30
0
70
128
71
4
72
3
73
-6
0
VERTEX
8
OBJECT010
10
0
20
0
30
0
70
128
71
-4
72
6
73
5
0
VERTEX
8
OBJECT010
10
0
20
0
30
0
70
128
71
2
72
1
73
-8
0
VERTEX
8
OBJECT010
10
0
20
0
30
0
70
128
71
-2
72
8
73
7
0
VERTEX
8
OBJECT010
10
0
20
0
30
0
70
128
71
2
72
7
73
-6
0
VERTEX
8
OBJECT010
10
0
20
0
30
0
70
128
71
-2
72
6
73
3
0
VERTEX
8
OBJECT010
10
0
20
0
30
0
70
128
71
1
72
4
73
-5
0
VERTEX
8
OBJECT010
10
0
20
0
30
0
70
128
71
-1
72
5
73
8
0
VERTEX
8
OBJECT010
10
0
20
0
30
0
70
128
71
8
72
5
73
-6
0
VERTEX
8
OBJECT010
10
0
20
0
30
0
70
128
71
-8
72
6
73
7
0
SEQEND
8
OBJECT010
0
POLYLINE
8
OBJECT011
66
1
70
64
71
8
72
12
62
50
0
VERTEX
8
OBJECT011
10
-281.305725
20
32.798958
30
336.666016
70
192
0
VERTEX
8
OBJECT011
10
-337.305695
20
50.576717
30
304.666016
70
192
0
VERTEX
8
OBJECT011
10
-337.305695
20
107.242760
30
304.666016
70
192
0
VERTEX
8
OBJECT011
10
-281.305725
20
129.464966
30
336.666016
70
192
0
VERTEX
8
OBJECT011
10
-334.137878
20
50.576706
30
304.666016
70
192
0
VERTEX
8
OBJECT011
10
-275.967590
20
32.798920
30
336.666016
70
192
0
VERTEX
8
OBJECT011
10
-275.967590
20
129.464966
30
336.666016
70
192
0
VERTEX
8
OBJECT011
10
-334.137878
20
107.242760
30
304.666016
70
192
0
VERTEX
8
OBJECT011
10
0
20
0
30
0
70
128
71
2
72
3
73
-4
0
VERTEX
8
OBJECT011
10
0
20
0
30
0
70
128
71
-2
72
4
73
1
0
VERTEX
8
OBJECT011
10
0
20
0
30
0
70
128
71
6
72
7
73
-8
0
VERTEX
8
OBJECT011
10
0
20
0
30
0
70
128
71
-6
72
8
73
5
0
VERTEX
8
OBJECT011
10
0
20
0
30
0
70
128
71
5
72
2
73
-1
0
VERTEX
8
OBJECT011
10
0
20
0
30
0
70
128
71
-5
72
1
73
6
0
VERTEX
8
OBJECT011
10
0
20
0
30
0
70
128
71
4
72
7
73
-6
0
VERTEX
8
OBJECT011
10
0
20
0
30
0
70
128
71
-4
72
6
73
1
0
VERTEX
8
OBJECT011
10
0
20
0
30
0
70
128
71
3
72
8
73
-7
0
VERTEX
8
OBJECT011
10
0
20
0
30
0
70
128
71
-3
72
7
73
4
0
VERTEX
8
OBJECT011
10
0
20
0
30
0
70
128
71
2
72
5
73
-8
0
VERTEX
8
OBJECT011
10
0
20
0
30
0
70
128
71
-2
72
8
73
3
0
SEQEND
8
OBJECT011
0
POLYLINE
8
OBJECT012
66
1
70
64
71
8
72
12
62
50
0
VERTEX
8
OBJECT012
10
-337.305695
20
50.576717
30
304.666016
70
192
0
VERTEX
8
OBJECT012
10
-363.223236
20
58.804512
30
289.855988
70
192
0
VERTEX
8
OBJECT012
10
-363.223236
20
96.958015
30
289.855988
70
192
0
VERTEX
8
OBJECT012
10
-337.305695
20
107.242760
30
304.666016
70
192
0
VERTEX
8
OBJECT012
10
-363.223236
20
59.465675
30
288.666016
70
192
0
VERTEX
8
OBJECT012
10
-363.223236
20
96.131638
30
288.666016
70
192
0
VERTEX
8
OBJECT012
10
-334.137878
20
50.576706
30
304.666016
70
192
0
VERTEX
8
OBJECT012
10
-334.137878
20
107.242760
30
304.666016
70
192
0
VERTEX
8
OBJECT012
10
0
20
0
30
0
70
128
71
2
72
3
73
-4
0
VERTEX
8
OBJECT012
10
0
20
0
30
0
70
128
71
-2
72
4
73
1
0
VERTEX
8
OBJECT012
10
0
20
0
30
0
70
128
71
6
72
3
73
-2
0
VERTEX
8
OBJECT012
10
0
20
0
30
0
70
128
71
-6
72
2
73
5
0
VERTEX
8
OBJECT012
10
0
20
0
30
0
70
128
71
5
72
7
73
-8
0
VERTEX
8
OBJECT012
10
0
20
0
30
0
70
128
71
-5
72
8
73
6
0
VERTEX
8
OBJECT012
10
0
20
0
30
0
70
128
71
5
72
2
73
-1
0
VERTEX
8
OBJECT012
10
0
20
0
30
0
70
128
71
-5
72
1
73
7
0
VERTEX
8
OBJECT012
10
0
20
0
30
0
70
128
71
3
72
6
73
-8
0
VERTEX
8
OBJECT012
10
0
20
0
30
0
70
128
71
-3
72
8
73
4
0
VERTEX
8
OBJECT012
10
0
20
0
30
0
70
128
71
4
72
8
73
-7
0
VERTEX
8
OBJECT012
10
0
20
0
30
0
70
128
71
-4
72
7
73
1
0
SEQEND
8
OBJECT012
0
POLYLINE
8
OBJECT013
66
1
70
64
71
8
72
12
62
50
0
VERTEX
8
OBJECT013
10
-337.305695
20
121.163223
30
304.666016
70
192
0
VERTEX
8
OBJECT013
10
-281.305725
20
140.607666
30
336.666016
70
192
0
VERTEX
8
OBJECT013
10
-281.305725
20
129.464966
30
336.666016
70
192
0
VERTEX
8
OBJECT013
10
-337.305695
20
107.242760
30
304.666016
70
192
0
VERTEX
8
OBJECT013
10
-334.138092
20
122.263229
30
304.666016
70
192
0
VERTEX
8
OBJECT013
10
-275.967804
20
142.461441
30
336.666016
70
192
0
VERTEX
8
OBJECT013
10
-334.137817
20
107.242760
30
304.666016
70
192
0
VERTEX
8
OBJECT013
10
-275.967529
20
129.464966
30
336.666016
70
192
0
VERTEX
8
OBJECT013
10
0
20
0
30
0
70
128
71
2
72
3
73
-4
0
VERTEX
8
OBJECT013
10
0
20
0
30
0
70
128
71
-2
72
4
73
1
0
VERTEX
8
OBJECT013
10
0
20
0
30
0
70
128
71
1
72
5
73
-6
0
VERTEX
8
OBJECT013
10
0
20
0
30
0
70
128
71
-1
72
6
73
2
0
VERTEX
8
OBJECT013
10
0
20
0
30
0
70
128
71
5
72
7
73
-8
0
VERTEX
8
OBJECT013
10
0
20
0
30
0
70
128
71
-5
72
8
73
6
0
VERTEX
8
OBJECT013
10
0
20
0
30
0
70
128
71
2
72
6
73
-8
0
VERTEX
8
OBJECT013
10
0
20
0
30
0
70
128
71
-2
72
8
73
3
0
VERTEX
8
OBJECT013
10
0
20
0
30
0
70
128
71
3
72
8
73
-7
0
VERTEX
8
OBJECT013
10
0
20
0
30
0
70
128
71
-3
72
7
73
4
0
VERTEX
8
OBJECT013
10
0
20
0
30
0
70
128
71
1
72
4
73
-7
0
VERTEX
8
OBJECT013
10
0
20
0
30
0
70
128
71
-1
72
7
73
5
0
SEQEND
8
OBJECT013
0
POLYLINE
8
OBJECT014
66
1
70
64
71
8
72
12
62
50
0
VERTEX
8
OBJECT014
10
-363.223236
20
96.958015
30
289.855988
70
192
0
VERTEX
8
OBJECT014
10
-363.223236
20
112.164078
30
289.855988
70
192
0
VERTEX
8
OBJECT014
10
-337.305695
20
121.163223
30
304.666016
70
192
0
VERTEX
8
OBJECT014
10
-337.305695
20
107.242760
30
304.666016
70
192
0
VERTEX
8
OBJECT014
10
-363.223236
20
112.164124
30
288.666016
70
192
0
VERTEX
8
OBJECT014
10
-334.138092
20
122.263229
30
304.666016
70
192
0
VERTEX
8
OBJECT014
10
-363.223236
20
96.131638
30
288.666016
70
192
0
VERTEX
8
OBJECT014
10
-334.137817
20
107.242760
30
304.666016
70
192
0
VERTEX
8
OBJECT014
10
0
20
0
30
0
70
128
71
2
72
3
73
-4
0
VERTEX
8
OBJECT014
10
0
20
0
30
0
70
128
71
-2
72
4
73
1
0
VERTEX
8
OBJECT014
10
0
20
0
30
0
70
128
71
2
72
5
73
-6
0
VERTEX
8
OBJECT014
10
0
20
0
30
0
70
128
71
-2
72
6
73
3
0
VERTEX
8
OBJECT014
10
0
20
0
30
0
70
128
71
5
72
2
73
-1
0
VERTEX
8
OBJECT014
10
0
20
0
30
0
70
128
71
-5
72
1
73
7
0
VERTEX
8
OBJECT014
10
0
20
0
30
0
70
128
71
5
72
7
73
-8
0
VERTEX
8
OBJECT014
10
0
20
0
30
0
70
128
71
-5
72
8
73
6
0
VERTEX
8
OBJECT014
10
0
20
0
30
0
70
128
71
1
72
4
73
-8
0
VERTEX
8
OBJECT014
10
0
20
0
30
0
70
128
71
-1
72
8
73
7
0
VERTEX
8
OBJECT014
10
0
20
0
30
0
70
128
71
3
72
6
73
-8
0
VERTEX
8
OBJECT014
10
0
20
0
30
0
70
128
71
-3
72
8
73
4
0
SEQEND
8
OBJECT014
0
POLYLINE
8
OBJECT015
66
1
70
64
71
8
72
12
62
50
0
VERTEX
8
OBJECT015
10
-337.305695
20
39.691364
30
304.666016
70
192
0
VERTEX
8
OBJECT015
10
-363.223236
20
48.690502
30
289.855988
70
192
0
VERTEX
8
OBJECT015
10
-363.223236
20
58.806328
30
289.855988
70
192
0
VERTEX
8
OBJECT015
10
-337.305695
20
50.578537
30
304.666016
70
192
0
VERTEX
8
OBJECT015
10
-334.138000
20
38.591194
30
304.666016
70
192
0
VERTEX
8
OBJECT015
10
-363.223236
20
48.690235
30
288.666016
70
192
0
VERTEX
8
OBJECT015
10
-363.223236
20
59.467415
30
288.666016
70
192
0
VERTEX
8
OBJECT015
10
-334.138275
20
50.578522
30
304.666016
70
192
0
VERTEX
8
OBJECT015
10
0
20
0
30
0
70
128
71
2
72
3
73
-4
0
VERTEX
8
OBJECT015
10
0
20
0
30
0
70
128
71
-2
72
4
73
1
0
VERTEX
8
OBJECT015
10
0
20
0
30
0
70
128
71
6
72
2
73
-1
0
VERTEX
8
OBJECT015
10
0
20
0
30
0
70
128
71
-6
72
1
73
5
0
VERTEX
8
OBJECT015
10
0
20
0
30
0
70
128
71
2
72
6
73
-7
0
VERTEX
8
OBJECT015
10
0
20
0
30
0
70
128
71
-2
72
7
73
3
0
VERTEX
8
OBJECT015
10
0
20
0
30
0
70
128
71
7
72
6
73
-5
0
VERTEX
8
OBJECT015
10
0
20
0
30
0
70
128
71
-7
72
5
73
8
0
VERTEX
8
OBJECT015
10
0
20
0
30
0
70
128
71
3
72
7
73
-8
0
VERTEX
8
OBJECT015
10
0
20
0
30
0
70
128
71
-3
72
8
73
4
0
VERTEX
8
OBJECT015
10
0
20
0
30
0
70
128
71
1
72
4
73
-8
0
VERTEX
8
OBJECT015
10
0
20
0
30
0
70
128
71
-1
72
8
73
5
0
SEQEND
8
OBJECT015
0
POLYLINE
8
OBJECT016
66
1
70
64
71
8
72
12
62
50
0
VERTEX
8
OBJECT016
10
-281.305725
20
20.246925
30
336.666016
70
192
0
VERTEX
8
OBJECT016
10
-337.305695
20
39.691364
30
304.666016
70
192
0
VERTEX
8
OBJECT016
10
-337.305695
20
50.578537
30
304.666016
70
192
0
VERTEX
8
OBJECT016
10
-281.305725
20
32.800762
30
336.666016
70
192
0
VERTEX
8
OBJECT016
10
-275.967529
20
18.393108
30
336.666016
70
192
0
VERTEX
8
OBJECT016
10
-334.138000
20
38.591194
30
304.666016
70
192
0
VERTEX
8
OBJECT016
10
-275.967804
20
32.800735
30
336.666016
70
192
0
VERTEX
8
OBJECT016
10
-334.138275
20
50.578522
30
304.666016
70
192
0
VERTEX
8
OBJECT016
10
0
20
0
30
0
70
128
71
2
72
3
73
-4
0
VERTEX
8
OBJECT016
10
0
20
0
30
0
70
128
71
-2
72
4
73
1
0
VERTEX
8
OBJECT016
10
0
20
0
30
0
70
128
71
6
72
2
73
-1
0
VERTEX
8
OBJECT016
10
0
20
0
30
0
70
128
71
-6
72
1
73
5
0
VERTEX
8
OBJECT016
10
0
20
0
30
0
70
128
71
8
72
6
73
-5
0
VERTEX
8
OBJECT016
10
0
20
0
30
0
70
128
71
-8
72
5
73
7
0
VERTEX
8
OBJECT016
10
0
20
0
30
0
70
128
71
3
72
8
73
-7
0
VERTEX
8
OBJECT016
10
0
20
0
30
0
70
128
71
-3
72
7
73
4
0
VERTEX
8
OBJECT016
10
0
20
0
30
0
70
128
71
1
72
4
73
-7
0
VERTEX
8
OBJECT016
10
0
20
0
30
0
70
128
71
-1
72
7
73
5
0
VERTEX
8
OBJECT016
10
0
20
0
30
0
70
128
71
2
72
6
73
-8
0
VERTEX
8
OBJECT016
10
0
20
0
30
0
70
128
71
-2
72
8
73
3
0
SEQEND
8
OBJECT016
0
POLYLINE
8
OBJECT017
66
1
70
64
71
8
72
12
62
50
0
VERTEX
8
OBJECT017
10
-264.971283
20
14.575246
30
346.000000
70
192
0
VERTEX
8
OBJECT017
10
-281.305756
20
20.246937
30
336.666016
70
192
0
VERTEX
8
OBJECT017
10
-281.305756
20
32.800762
30
336.666016
70
192
0
VERTEX
8
OBJECT017
10
-264.971283
20
27.615215
30
346.000000
70
192
0
VERTEX
8
OBJECT017
10
-259.000000
20
12.500000
30
346.000000
70
192
0
VERTEX
8
OBJECT017
10
-275.967529
20
18.391495
30
336.666016
70
192
0
VERTEX
8
OBJECT017
10
-259.000641
20
27.615419
30
345.999634
70
192
0
VERTEX
8
OBJECT017
10
-275.967590
20
32.800762
30
336.666016
70
192
0
VERTEX
8
OBJECT017
10
0
20
0
30
0
70
128
71
2
72
3
73
-4
0
VERTEX
8
OBJECT017
10
0
20
0
30
0
70
128
71
-2
72
4
73
1
0
VERTEX
8
OBJECT017
10
0
20
0
30
0
70
128
71
1
72
5
73
-6
0
VERTEX
8
OBJECT017
10
0
20
0
30
0
70
128
71
-1
72
6
73
2
0
VERTEX
8
OBJECT017
10
0
20
0
30
0
70
128
71
1
72
4
73
-7
0
VERTEX
8
OBJECT017
10
0
20
0
30
0
70
128
71
-1
72
7
73
5
0
VERTEX
8
OBJECT017
10
0
20
0
30
0
70
128
71
5
72
7
73
-8
0
VERTEX
8
OBJECT017
10
0
20
0
30
0
70
128
71
-5
72
8
73
6
0
VERTEX
8
OBJECT017
10
0
20
0
30
0
70
128
71
4
72
3
73
-8
0
VERTEX
8
OBJECT017
10
0
20
0
30
0
70
128
71
-4
72
8
73
7
0
VERTEX
8
OBJECT017
10
0
20
0
30
0
70
128
71
2
72
6
73
-8
0
VERTEX
8
OBJECT017
10
0
20
0
30
0
70
128
71
-2
72
8
73
3
0
SEQEND
8
OBJECT017
0
POLYLINE
8
OBJECT018
66
1
70
64
71
8
72
12
62
50
0
VERTEX
8
OBJECT018
10
-264.971283
20
135.944901
30
346.000000
70
192
0
VERTEX
8
OBJECT018
10
-264.971283
20
27.612698
30
346.000000
70
192
0
VERTEX
8
OBJECT018
10
-281.305756
20
32.798485
30
336.666016
70
192
0
VERTEX
8
OBJECT018
10
-281.305756
20
129.462952
30
336.666016
70
192
0
VERTEX
8
OBJECT018
10
-259.000732
20
135.944641
30
345.999634
70
192
0
VERTEX
8
OBJECT018
10
-259.000732
20
27.612711
30
345.999634
70
192
0
VERTEX
8
OBJECT018
10
-275.967560
20
129.462952
30
336.666016
70
192
0
VERTEX
8
OBJECT018
10
-275.967560
20
32.798332
30
336.666016
70
192
0
VERTEX
8
OBJECT018
10
0
20
0
30
0
70
128
71
2
72
3
73
-4
0
VERTEX
8
OBJECT018
10
0
20
0
30
0
70
128
71
-2
72
4
73
1
0
VERTEX
8
OBJECT018
10
0
20
0
30
0
70
128
71
1
72
5
73
-6
0
VERTEX
8
OBJECT018
10
0
20
0
30
0
70
128
71
-1
72
6
73
2
0
VERTEX
8
OBJECT018
10
0
20
0
30
0
70
128
71
8
72
6
73
-5
0
VERTEX
8
OBJECT018
10
0
20
0
30
0
70
128
71
-8
72
5
73
7
0
VERTEX
8
OBJECT018
10
0
20
0
30
0
70
128
71
2
72
6
73
-8
0
VERTEX
8
OBJECT018
10
0
20
0
30
0
70
128
71
-2
72
8
73
3
0
VERTEX
8
OBJECT018
10
0
20
0
30
0
70
128
71
3
72
8
73
-7
0
VERTEX
8
OBJECT018
10
0
20
0
30
0
70
128
71
-3
72
7
73
4
0
VERTEX
8
OBJECT018
10
0
20
0
30
0
70
128
71
1
72
4
73
-7
0
VERTEX
8
OBJECT018
10
0
20
0
30
0
70
128
71
-1
72
7
73
5
0
SEQEND
8
OBJECT018
0
POLYLINE
8
OBJECT019
66
1
70
64
71
8
72
12
62
50
0
VERTEX
8
OBJECT019
10
-281.305756
20
129.462952
30
336.666016
70
192
0
VERTEX
8
OBJECT019
10
-281.305756
20
140.606033
30
336.666016
70
192
0
VERTEX
8
OBJECT019
10
-264.971283
20
146.277725
30
346.000000
70
192
0
VERTEX
8
OBJECT019
10
-264.971283
20
135.944901
30
346.000000
70
192
0
VERTEX
8
OBJECT019
10
-259.000061
20
148.352509
30
346.000000
70
192
0
VERTEX
8
OBJECT019
10
-275.967590
20
142.461624
30
336.666016
70
192
0
VERTEX
8
OBJECT019
10
-259.000732
20
135.944641
30
345.999634
70
192
0
VERTEX
8
OBJECT019
10
-275.967590
20
129.462967
30
336.666016
70
192
0
VERTEX
8
OBJECT019
10
0
20
0
30
0
70
128
71
2
72
3
73
-4
0
VERTEX
8
OBJECT019
10
0
20
0
30
0
70
128
71
-2
72
4
73
1
0
VERTEX
8
OBJECT019
10
0
20
0
30
0
70
128
71
3
72
2
73
-6
0
VERTEX
8
OBJECT019
10
0
20
0
30
0
70
128
71
-3
72
6
73
5
0
VERTEX
8
OBJECT019
10
0
20
0
30
0
70
128
71
3
72
5
73
-7
0
VERTEX
8
OBJECT019
10
0
20
0
30
0
70
128
71
-3
72
7
73
4
0
VERTEX
8
OBJECT019
10
0
20
0
30
0
70
128
71
6
72
8
73
-7
0
VERTEX
8
OBJECT019
10
0
20
0
30
0
70
128
71
-6
72
7
73
5
0
VERTEX
8
OBJECT019
10
0
20
0
30
0
70
128
71
2
72
1
73
-8
0
VERTEX
8
OBJECT019
10
0
20
0
30
0
70
128
71
-2
72
8
73
6
0
VERTEX
8
OBJECT019
10
0
20
0
30
0
70
128
71
4
72
7
73
-8
0
VERTEX
8
OBJECT019
10
0
20
0
30
0
70
128
71
-4
72
8
73
1
0
SEQEND
8
OBJECT019
0
POLYLINE
8
OBJECT020
66
1
70
64
71
8
72
12
62
50
0
VERTEX
8
OBJECT020
10
-224.000000
20
0.000000
30
351.000000
70
192
0
VERTEX
8
OBJECT020
10
-256.000000
20
11.111117
30
351.000000
70
192
0
VERTEX
8
OBJECT020
10
-256.000000
20
148.889557
30
351.000000
70
192
0
VERTEX
8
OBJECT020
10
-224.000000
20
160.000000
30
351.000000
70
192
0
VERTEX
8
OBJECT020
10
-264.748535
20
145.851318
30
346.000000
70
192
0
VERTEX
8
OBJECT020
10
-264.748535
20
14.148794
30
346.000000
70
192
0
VERTEX
8
OBJECT020
10
-224.000000
20
160.000000
30
346.000000
70
192
0
VERTEX
8
OBJECT020
10
-224.000000
20
0.000000
30
346.000000
70
192
0
VERTEX
8
OBJECT020
10
0
20
0
30
0
70
128
71
2
72
3
73
-4
0
VERTEX
8
OBJECT020
10
0
20
0
30
0
70
128
71
-2
72
4
73
1
0
VERTEX
8
OBJECT020
10
0
20
0
30
0
70
128
71
3
72
2
73
-6
0
VERTEX
8
OBJECT020
10
0
20
0
30
0
70
128
71
-3
72
6
73
5
0
VERTEX
8
OBJECT020
10
0
20
0
30
0
70
128
71
4
72
3
73
-5
0
VERTEX
8
OBJECT020
10
0
20
0
30
0
70
128
71
-4
72
5
73
7
0
VERTEX
8
OBJECT020
10
0
20
0
30
0
70
128
71
2
72
1
73
-8
0
VERTEX
8
OBJECT020
10
0
20
0
30
0
70
128
71
-2
72
8
73
6
0
VERTEX
8
OBJECT020
10
0
20
0
30
0
70
128
71
1
72
4
73
-7
0
VERTEX
8
OBJECT020
10
0
20
0
30
0
70
128
71
-1
72
7
73
8
0
VERTEX
8
OBJECT020
10
0
20
0
30
0
70
128
71
5
72
6
73
-8
0
VERTEX
8
OBJECT020
10
0
20
0
30
0
70
128
71
-5
72
8
73
7
0
SEQEND
8
OBJECT020
0
POLYLINE
8
OBJECT021
66
1
70
64
71
8
72
12
62
50
0
VERTEX
8
OBJECT021
10
-224.000000
20
160.000000
30
255.000000
70
192
0
VERTEX
8
OBJECT021
10
-320.000000
20
126.666664
30
255.000000
70
192
0
VERTEX
8
OBJECT021
10
-320.000000
20
33.333332
30
255.000000
70
192
0
VERTEX
8
OBJECT021
10
-224.000000
20
0.000000
30
255.000000
70
192
0
VERTEX
8
OBJECT021
10
-335.000000
20
38.540993
30
260.000000
70
192
0
VERTEX
8
OBJECT021
10
-335.000000
20
121.458969
30
260.000000
70
192
0
VERTEX
8
OBJECT021
10
-224.000000
20
160.000000
30
260.000000
70
192
0
VERTEX
8
OBJECT021
10
-224.000000
20
0.000000
30
260.000000
70
192
0
VERTEX
8
OBJECT021
10
0
20
0
30
0
70
128
71
2
72
3
73
-4
0
VERTEX
8
OBJECT021
10
0
20
0
30
0
70
128
71
-2
72
4
73
1
0
VERTEX
8
OBJECT021
10
0
20
0
30
0
70
128
71
3
72
2
73
-6
0
VERTEX
8
OBJECT021
10
0
20
0
30
0
70
128
71
-3
72
6
73
5
0
VERTEX
8
OBJECT021
10
0
20
0
30
0
70
128
71
2
72
1
73
-7
0
VERTEX
8
OBJECT021
10
0
20
0
30
0
70
128
71
-2
72
7
73
6
0
VERTEX
8
OBJECT021
10
0
20
0
30
0
70
128
71
3
72
5
73
-8
0
VERTEX
8
OBJECT021
10
0
20
0
30
0
70
128
71
-3
72
8
73
4
0
VERTEX
8
OBJECT021
10
0
20
0
30
0
70
128
71
4
72
8
73
-7
0
VERTEX
8
OBJECT021
10
0
20
0
30
0
70
128
71
-4
72
7
73
1
0
VERTEX
8
OBJECT021
10
0
20
0
30
0
70
128
71
5
72
6
73
-7
0
VERTEX
8
OBJECT021
10
0
20
0
30
0
70
128
71
-5
72
7
73
8
0
SEQEND
8
OBJECT021
0
POLYLINE
8
OBJECT022
66
1
70
64
71
12
72
20
62
50
0
VERTEX
8
OBJECT022
10
-318.333313
20
127.245644
30
260.000000
70
192
0
VERTEX
8
OBJECT022
10
-224.000000
20
160.000000
30
260.000000
70
192
0
VERTEX
8
OBJECT022
10
-224.000000
20
160.000000
30
346.000000
70
192
0
VERTEX
8
OBJECT022
10
-258.777740
20
147.924667
30
346.000000
70
192
0
VERTEX
8
OBJECT022
10
-363.000000
20
111.736382
30
288.666687
70
192
0
VERTEX
8
OBJECT022
10
-363.000000
20
111.736382
30
274.333344
70
192
0
VERTEX
8
OBJECT022
10
-224.000000
20
157.601837
30
260.000000
70
192
0
VERTEX
8
OBJECT022
10
-224.000000
20
157.601837
30
346.000000
70
192
0
VERTEX
8
OBJECT022
10
-258.777740
20
145.300949
30
346.000000
70
192
0
VERTEX
8
OBJECT022
10
-318.333313
20
124.236130
30
260.000000
70
192
0
VERTEX
8
OBJECT022
10
-363.000000
20
108.437508
30
274.333344
70
192
0
VERTEX
8
OBJECT022
10
-363.000000
20
108.437508
30
288.666687
70
192
0
VERTEX
8
OBJECT022
10
0
20
0
30
0
70
128
71
2
72
3
73
-4
0
VERTEX
8
OBJECT022
10
0
20
0
30
0
70
128
71
-2
72
4
73
-5
0
VERTEX
8
OBJECT022
10
0
20
0
30
0
70
128
71
-2
72
5
73
-6
0
VERTEX
8
OBJECT022
10
0
20
0
30
0
70
128
71
-2
72
6
73
1
0
VERTEX
8
OBJECT022
10
0
20
0
30
0
70
128
71
2
72
7
73
-8
0
VERTEX
8
OBJECT022
10
0
20
0
30
0
70
128
71
-2
72
8
73
3
0
VERTEX
8
OBJECT022
10
0
20
0
30
0
70
128
71
4
72
3
73
-8
0
VERTEX
8
OBJECT022
10
0
20
0
30
0
70
128
71
-4
72
8
73
9
0
VERTEX
8
OBJECT022
10
0
20
0
30
0
70
128
71
1
72
10
73
-7
0
VERTEX
8
OBJECT022
10
0
20
0
30
0
70
128
71
-1
72
7
73
2
0
VERTEX
8
OBJECT022
10
0
20
0
30
0
70
128
71
6
72
5
73
-12
0
VERTEX
8
OBJECT022
10
0
20
0
30
0
70
128
71
-6
72
12
73
11
0
VERTEX
8
OBJECT022
10
0
20
0
30
0
70
128
71
5
72
4
73
-9
0
VERTEX
8
OBJECT022
10
0
20
0
30
0
70
128
71
-5
72
9
73
12
0
VERTEX
8
OBJECT022
10
0
20
0
30
0
70
128
71
6
72
11
73
-10
0
VERTEX
8
OBJECT022
10
0
20
0
30
0
70
128
71
-6
72
10
73
1
0
VERTEX
8
OBJECT022
10
0
20
0
30
0
70
128
71
7
72
10
73
-11
0
VERTEX
8
OBJECT022
10
0
20
0
30
0
70
128
71
-7
72
11
73
-12
0
VERTEX
8
OBJECT022
10
0
20
0
30
0
70
128
71
-7
72
12
73
-9
0
VERTEX
8
OBJECT022
10
0
20
0
30
0
70
128
71
-7
72
9
73
8
0
SEQEND
8
OBJECT022
0
POLYLINE
8
OBJECT023
66
1
70
64
71
8
72
12
62
50
0
VERTEX
8
OBJECT023
10
80.000000
20
106.664146
30
344.000000
70
192
0
VERTEX
8
OBJECT023
10
80.000000
20
106.664635
30
320.000000
70
192
0
VERTEX
8
OBJECT023
10
80.000000
20
101.000000
30
320.000000
70
192
0
VERTEX
8
OBJECT023
10
80.000000
20
101.000000
30
344.000000
70
192
0
VERTEX
8
OBJECT023
10
-72.000000
20
159.792511
30
344.000000
70
192
0
VERTEX
8
OBJECT023
10
-72.000000
20
159.792999
30
320.000000
70
192
0
VERTEX
8
OBJECT023
10
-72.000000
20
101.000000
30
320.000000
70
192
0
VERTEX
8
OBJECT023
10
-72.000000
20
101.000000
30
344.000000
70
192
0
VERTEX
8
OBJECT023
10
0
20
0
30
0
70
128
71
2
72
3
73
-4
0
VERTEX
8
OBJECT023
10
0
20
0
30
0
70
128
71
-2
72
4
73
1
0
VERTEX
8
OBJECT023
10
0
20
0
30
0
70
128
71
6
72
2
73
-1
0
VERTEX
8
OBJECT023
10
0
20
0
30
0
70
128
71
-6
72
1
73
5
0
VERTEX
8
OBJECT023
10
0
20
0
30
0
70
128
71
6
72
5
73
-8
0
VERTEX
8
OBJECT023
10
0
20
0
30
0
70
128
71
-6
72
8
73
7
0
VERTEX
8
OBJECT023
10
0
20
0
30
0
70
128
71
2
72
6
73
-7
0
VERTEX
8
OBJECT023
10
0
20
0
30
0
70
128
71
-2
72
7
73
3
0
VERTEX
8
OBJECT023
10
0
20
0
30
0
70
128
71
5
72
1
73
-4
0
VERTEX
8
OBJECT023
10
0
20
0
30
0
70
128
71
-5
72
4
73
8
0
VERTEX
8
OBJECT023
10
0
20
0
30
0
70
128
71
3
72
7
73
-8
0
VERTEX
8
OBJECT023
10
0
20
0
30
0
70
128
71
-3
72
8
73
4
0
SEQEND
8
OBJECT023
0
POLYLINE
8
OBJECT024
66
1
70
64
71
8
72
12
62
50
0
VERTEX
8
OBJECT024
10
-72.000000
20
160.000000
30
255.000015
70
192
0
VERTEX
8
OBJECT024
10
-72.000000
20
160.000000
30
344.333313
70
192
0
VERTEX
8
OBJECT024
10
-224.736832
20
160.000000
30
344.333313
70
192
0
VERTEX
8
OBJECT024
10
-224.736832
20
160.000000
30
255.000015
70
192
0
VERTEX
8
OBJECT024
10
-224.736832
20
155.000000
30
344.333313
70
192
0
VERTEX
8
OBJECT024
10
-72.000000
20
155.000000
30
344.333313
70
192
0
VERTEX
8
OBJECT024
10
-224.736832
20
155.000000
30
255.000015
70
192
0
VERTEX
8
OBJECT024
10
-72.000000
20
155.000000
30
255.000015
70
192
0
VERTEX
8
OBJECT024
10
0
20
0
30
0
70
128
71
2
72
3
73
-4
0
VERTEX
8
OBJECT024
10
0
20
0
30
0
70
128
71
-2
72
4
73
1
0
VERTEX
8
OBJECT024
10
0
20
0
30
0
70
128
71
3
72
2
73
-6
0
VERTEX
8
OBJECT024
10
0
20
0
30
0
70
128
71
-3
72
6
73
5
0
VERTEX
8
OBJECT024
10
0
20
0
30
0
70
128
71
4
72
3
73
-5
0
VERTEX
8
OBJECT024
10
0
20
0
30
0
70
128
71
-4
72
5
73
7
0
VERTEX
8
OBJECT024
10
0
20
0
30
0
70
128
71
1
72
8
73
-6
0
VERTEX
8
OBJECT024
10
0
20
0
30
0
70
128
71
-1
72
6
73
2
0
VERTEX
8
OBJECT024
10
0
20
0
30
0
70
128
71
4
72
7
73
-8
0
VERTEX
8
OBJECT024
10
0
20
0
30
0
70
128
71
-4
72
8
73
1
0
VERTEX
8
OBJECT024
10
0
20
0
30
0
70
128
71
5
72
6
73
-8
0
VERTEX
8
OBJECT024
10
0
20
0
30
0
70
128
71
-5
72
8
73
7
0
SEQEND
8
OBJECT024
0
POLYLINE
8
OBJECT025
66
1
70
64
71
12
72
20
62
50
0
VERTEX
8
OBJECT025
10
-80.000000
20
224.000000
30
256.000000
70
192
0
VERTEX
8
OBJECT025
10
-192.952835
20
224.000000
30
256.000000
70
192
0
VERTEX
8
OBJECT025
10
-223.905228
20
159.000000
30
256.000000
70
192
0
VERTEX
8
OBJECT025
10
-72.000000
20
159.000000
30
256.000000
70
192
0
VERTEX
8
OBJECT025
10
-72.000000
20
172.801926
30
256.000000
70
192
0
VERTEX
8
OBJECT025
10
-80.000000
20
224.000000
30
265.000000
70
192
0
VERTEX
8
OBJECT025
10
-192.952835
20
224.000000
30
265.000000
70
192
0
VERTEX
8
OBJECT025
10
-72.000000
20
159.000000
30
280.000000
70
192
0
VERTEX
8
OBJECT025
10
-72.000000
20
160.272598
30
280.000000
70
192
0
VERTEX
8
OBJECT025
10
-72.000000
20
172.801926
30
277.050873
70
192
0
VERTEX
8
OBJECT025
10
-223.905228
20
159.000000
30
280.000000
70
192
0
VERTEX
8
OBJECT025
10
-223.299225
20
160.272598
30
280.000000
70
192
0
VERTEX
8
OBJECT025
10
0
20
0
30
0
70
128
71
2
72
3
73
-4
0
VERTEX
8
OBJECT025
10
0
20
0
30
0
70
128
71
-2
72
4
73
-5
0
VERTEX
8
OBJECT025
10
0
20
0
30
0
70
128
71
-2
72
5
73
1
0
VERTEX
8
OBJECT025
10
0
20
0
30
0
70
128
71
1
72
6
73
-7
0
VERTEX
8
OBJECT025
10
0
20
0
30
0
70
128
71
-1
72
7
73
2
0
VERTEX
8
OBJECT025
10
0
20
0
30
0
70
128
71
4
72
8
73
-9
0
VERTEX
8
OBJECT025
10
0
20
0
30
0
70
128
71
-4
72
9
73
-10
0
VERTEX
8
OBJECT025
10
0
20
0
30
0
70
128
71
-4
72
10
73
5
0
VERTEX
8
OBJECT025
10
0
20
0
30
0
70
128
71
12
72
9
73
-8
0
VERTEX
8
OBJECT025
10
0
20
0
30
0
70
128
71
-12
72
8
73
11
0
VERTEX
8
OBJECT025
10
0
20
0
30
0
70
128
71
6
72
10
73
-9
0
VERTEX
8
OBJECT025
10
0
20
0
30
0
70
128
71
-6
72
9
73
-12
0
VERTEX
8
OBJECT025
10
0
20
0
30
0
70
128
71
-6
72
12
73
7
0
VERTEX
8
OBJECT025
10
0
20
0
30
0
70
128
71
2
72
7
73
-12
0
VERTEX
8
OBJECT025
10
0
20
0
30
0
70
128
71
-2
72
12
73
-11
0
VERTEX
8
OBJECT025
10
0
20
0
30
0
70
128
71
-2
72
11
73
3
0
VERTEX
8
OBJECT025
10
0
20
0
30
0
70
128
71
1
72
5
73
-10
0
VERTEX
8
OBJECT025
10
0
20
0
30
0
70
128
71
-1
72
10
73
6
0
VERTEX
8
OBJECT025
10
0
20
0
30
0
70
128
71
4
72
3
73
-11
0
VERTEX
8
OBJECT025
10
0
20
0
30
0
70
128
71
-4
72
11
73
8
0
SEQEND
8
OBJECT025
0
POLYLINE
8
OBJECT026
66
1
70
64
71
8
72
12
62
50
0
VERTEX
8
OBJECT026
10
63.999996
20
101.000000
30
320.000000
70
192
0
VERTEX
8
OBJECT026
10
63.999996
20
60.000000
30
320.000000
70
192
0
VERTEX
8
OBJECT026
10
63.999996
20
60.000000
30
344.000000
70
192
0
VERTEX
8
OBJECT026
10
63.999996
20
101.000000
30
344.000000
70
192
0
VERTEX
8
OBJECT026
10
-72.000000
20
60.000000
30
320.000000
70
192
0
VERTEX
8
OBJECT026
10
-72.000000
20
101.000000
30
320.000000
70
192
0
VERTEX
8
OBJECT026
10
-72.000000
20
101.000000
30
344.000000
70
192
0
VERTEX
8
OBJECT026
10
-72.000000
20
60.000000
30
344.000000
70
192
0
VERTEX
8
OBJECT026
10
0
20
0
30
0
70
128
71
2
72
3
73
-4
0
VERTEX
8
OBJECT026
10
0
20
0
30
0
70
128
71
-2
72
4
73
1
0
VERTEX
8
OBJECT026
10
0
20
0
30
0
70
128
71
6
72
7
73
-8
0
VERTEX
8
OBJECT026
10
0
20
0
30
0
70
128
71
-6
72
8
73
5
0
VERTEX
8
OBJECT026
10
0
20
0
30
0
70
128
71
1
72
6
73
-5
0
VERTEX
8
OBJECT026
10
0
20
0
30
0
70
128
71
-1
72
5
73
2
0
VERTEX
8
OBJECT026
10
0
20
0
30
0
70
128
71
7
72
4
73
-3
0
VERTEX
8
OBJECT026
10
0
20
0
30
0
70
128
71
-7
72
3
73
8
0
VERTEX
8
OBJECT026
10
0
20
0
30
0
70
128
71
2
72
5
73
-8
0
VERTEX
8
OBJECT026
10
0
20
0
30
0
70
128
71
-2
72
8
73
3
0
VERTEX
8
OBJECT026
10
0
20
0
30
0
70
128
71
6
72
1
73
-4
0
VERTEX
8
OBJECT026
10
0
20
0
30
0
70
128
71
-6
72
4
73
7
0
SEQEND
8
OBJECT026
0
POLYLINE
8
OBJECT027
66
1
70
64
71
10
72
16
62
50
0
VERTEX
8
OBJECT027
10
-72.000000
20
0.097913
30
256.000000
70
192
0
VERTEX
8
OBJECT027
10
-62.000000
20
3.709891
30
256.000000
70
192
0
VERTEX
8
OBJECT027
10
-62.000000
20
156.298965
30
256.000000
70
192
0
VERTEX
8
OBJECT027
10
-72.000000
20
159.794250
30
256.000000
70
192
0
VERTEX
8
OBJECT027
10
80.000000
20
106.664726
30
320.000000
70
192
0
VERTEX
8
OBJECT027
10
80.000000
20
106.664871
30
313.000000
70
192
0
VERTEX
8
OBJECT027
10
80.000000
20
55.000000
30
313.000000
70
192
0
VERTEX
8
OBJECT027
10
80.000000
20
55.000000
30
320.000000
70
192
0
VERTEX
8
OBJECT027
10
-72.000000
20
0.097965
30
320.000000
70
192
0
VERTEX
8
OBJECT027
10
-72.000000
20
159.794281
30
320.000000
70
192
0
VERTEX
8
OBJECT027
10
0
20
0
30
0
70
128
71
2
72
3
73
-4
0
VERTEX
8
OBJECT027
10
0
20
0
30
0
70
128
71
-2
72
4
73
1
0
VERTEX
8
OBJECT027
10
0
20
0
30
0
70
128
71
6
72
7
73
-8
0
VERTEX
8
OBJECT027
10
0
20
0
30
0
70
128
71
-6
72
8
73
5
0
VERTEX
8
OBJECT027
10
0
20
0
30
0
70
128
71
7
72
2
73
-1
0
VERTEX
8
OBJECT027
10
0
20
0
30
0
70
128
71
-7
72
1
73
-9
0
VERTEX
8
OBJECT027
10
0
20
0
30
0
70
128
71
-7
72
9
73
8
0
VERTEX
8
OBJECT027
10
0
20
0
30
0
70
128
71
4
72
3
73
-6
0
VERTEX
8
OBJECT027
10
0
20
0
30
0
70
128
71
-4
72
6
73
-5
0
VERTEX
8
OBJECT027
10
0
20
0
30
0
70
128
71
-4
72
5
73
10
0
VERTEX
8
OBJECT027
10
0
20
0
30
0
70
128
71
1
72
4
73
-10
0
VERTEX
8
OBJECT027
10
0
20
0
30
0
70
128
71
-1
72
10
73
9
0
VERTEX
8
OBJECT027
10
0
20
0
30
0
70
128
71
5
72
8
73
-9
0
VERTEX
8
OBJECT027
10
0
20
0
30
0
70
128
71
-5
72
9
73
10
0
VERTEX
8
OBJECT027
10
0
20
0
30
0
70
128
71
2
72
7
73
-6
0
VERTEX
8
OBJECT027
10
0
20
0
30
0
70
128
71
-2
72
6
73
3
0
SEQEND
8
OBJECT027
0
ENDSEC
0
EOF
