0
SECTION
2
HEADER
9
$ACADVER
1
AC1008
9
$UCSORG
10
0.0
20
0.0
30
0.0
9
$UCSXDIR
10
1.0
20
0.0
30
0.0
9
$TILEMODE
70
1
9
$UCSYDIR
10
0.0
20
1.0
30
0.0
9
$EXTMIN
10
-256.000000
20
-448.000031
30
-192.000000
9
$EXTMAX
10
256.000000
20
576.000000
30
192.000061
0
ENDSEC
0
SECTION
2
TABLES
0
TABLE
2
LTYPE
70
1
0
LTYPE
2
CONTINUOUS
70
64
3
Solid line
72
65
73
0
40
0.0
0
ENDTAB
0
TABLE
2
LAYER
70
1
0
LAYER
2
0
70
0
62
7
6
CONTINUOUS
0
ENDTAB
0
TABLE
2
STYLE
70
1
0
STYLE
2
STANDARD
70
0
40
0.0
41
1.0
50
0.0
71
0
42
0.2
3
txt
4

0
ENDTAB
0
TABLE
2
UCS
70
0
0
ENDTAB
0
ENDSEC
0
SECTION
2
ENTITIES
0
POLYLINE
8
OBJECT000
66
1
70
64
71
8
72
12
62
50
0
VERTEX
8
OBJECT000
10
0.000000
20
576.000000
30
-128.000000
70
192
0
VERTEX
8
OBJECT000
10
0.000000
20
64.000031
30
-128.000000
70
192
0
VERTEX
8
OBJECT000
10
-256.000000
20
64.000031
30
-128.000000
70
192
0
VERTEX
8
OBJECT000
10
-256.000000
20
448.000031
30
-128.000000
70
192
0
VERTEX
8
OBJECT000
10
0.000000
20
64.000031
30
-192.000000
70
192
0
VERTEX
8
OBJECT000
10
0.000000
20
576.000000
30
-192.000000
70
192
0
VERTEX
8
OBJECT000
10
-256.000000
20
448.000031
30
-192.000000
70
192
0
VERTEX
8
OBJECT000
10
-256.000000
20
64.000031
30
-192.000000
70
192
0
VERTEX
8
OBJECT000
10
0
20
0
30
0
70
128
71
2
72
3
73
-4
0
VERTEX
8
OBJECT000
10
0
20
0
30
0
70
128
71
-2
72
4
73
1
0
VERTEX
8
OBJECT000
10
0
20
0
30
0
70
128
71
6
72
7
73
-8
0
VERTEX
8
OBJECT000
10
0
20
0
30
0
70
128
71
-6
72
8
73
5
0
VERTEX
8
OBJECT000
10
0
20
0
30
0
70
128
71
8
72
7
73
-4
0
VERTEX
8
OBJECT000
10
0
20
0
30
0
70
128
71
-8
72
4
73
3
0
VERTEX
8
OBJECT000
10
0
20
0
30
0
70
128
71
2
72
1
73
-6
0
VERTEX
8
OBJECT000
10
0
20
0
30
0
70
128
71
-2
72
6
73
5
0
VERTEX
8
OBJECT000
10
0
20
0
30
0
70
128
71
7
72
6
73
-1
0
VERTEX
8
OBJECT000
10
0
20
0
30
0
70
128
71
-7
72
1
73
4
0
VERTEX
8
OBJECT000
10
0
20
0
30
0
70
128
71
3
72
2
73
-5
0
VERTEX
8
OBJECT000
10
0
20
0
30
0
70
128
71
-3
72
5
73
8
0
SEQEND
8
OBJECT000
0
POLYLINE
8
OBJECT001
66
1
70
64
71
8
72
12
62
50
0
VERTEX
8
OBJECT001
10
-256.000000
20
-383.999969
30
-64.000000
70
192
0
VERTEX
8
OBJECT001
10
-256.000000
20
448.000031
30
-64.000000
70
192
0
VERTEX
8
OBJECT001
10
-224.000000
20
416.000031
30
-64.000000
70
192
0
VERTEX
8
OBJECT001
10
-224.000000
20
-383.999969
30
-64.000000
70
192
0
VERTEX
8
OBJECT001
10
-256.000000
20
448.000031
30
-128.000000
70
192
0
VERTEX
8
OBJECT001
10
-256.000000
20
-383.999969
30
-128.000000
70
192
0
VERTEX
8
OBJECT001
10
-224.000000
20
-383.999969
30
-128.000000
70
192
0
VERTEX
8
OBJECT001
10
-224.000000
20
416.000031
30
-128.000000
70
192
0
VERTEX
8
OBJECT001
10
0
20
0
30
0
70
128
71
2
72
3
73
-4
0
VERTEX
8
OBJECT001
10
0
20
0
30
0
70
128
71
-2
72
4
73
1
0
VERTEX
8
OBJECT001
10
0
20
0
30
0
70
128
71
6
72
7
73
-8
0
VERTEX
8
OBJECT001
10
0
20
0
30
0
70
128
71
-6
72
8
73
5
0
VERTEX
8
OBJECT001
10
0
20
0
30
0
70
128
71
2
72
1
73
-6
0
VERTEX
8
OBJECT001
10
0
20
0
30
0
70
128
71
-2
72
6
73
5
0
VERTEX
8
OBJECT001
10
0
20
0
30
0
70
128
71
8
72
7
73
-4
0
VERTEX
8
OBJECT001
10
0
20
0
30
0
70
128
71
-8
72
4
73
3
0
VERTEX
8
OBJECT001
10
0
20
0
30
0
70
128
71
3
72
2
73
-5
0
VERTEX
8
OBJECT001
10
0
20
0
30
0
70
128
71
-3
72
5
73
8
0
VERTEX
8
OBJECT001
10
0
20
0
30
0
70
128
71
7
72
6
73
-1
0
VERTEX
8
OBJECT001
10
0
20
0
30
0
70
128
71
-7
72
1
73
4
0
SEQEND
8
OBJECT001
0
POLYLINE
8
OBJECT002
66
1
70
64
71
8
72
12
62
50
0
VERTEX
8
OBJECT002
10
-224.000000
20
416.000031
30
-64.000000
70
192
0
VERTEX
8
OBJECT002
10
-256.000000
20
448.000031
30
-64.000000
70
192
0
VERTEX
8
OBJECT002
10
0.000000
20
576.000000
30
-64.000000
70
192
0
VERTEX
8
OBJECT002
10
0.000000
20
512.000000
30
-64.000000
70
192
0
VERTEX
8
OBJECT002
10
-256.000000
20
448.000031
30
-128.000000
70
192
0
VERTEX
8
OBJECT002
10
-224.000000
20
416.000031
30
-128.000000
70
192
0
VERTEX
8
OBJECT002
10
0.000000
20
512.000000
30
-128.000000
70
192
0
VERTEX
8
OBJECT002
10
0.000000
20
576.000000
30
-128.000000
70
192
0
VERTEX
8
OBJECT002
10
0
20
0
30
0
70
128
71
2
72
3
73
-4
0
VERTEX
8
OBJECT002
10
0
20
0
30
0
70
128
71
-2
72
4
73
1
0
VERTEX
8
OBJECT002
10
0
20
0
30
0
70
128
71
6
72
7
73
-8
0
VERTEX
8
OBJECT002
10
0
20
0
30
0
70
128
71
-6
72
8
73
5
0
VERTEX
8
OBJECT002
10
0
20
0
30
0
70
128
71
2
72
1
73
-6
0
VERTEX
8
OBJECT002
10
0
20
0
30
0
70
128
71
-2
72
6
73
5
0
VERTEX
8
OBJECT002
10
0
20
0
30
0
70
128
71
8
72
7
73
-4
0
VERTEX
8
OBJECT002
10
0
20
0
30
0
70
128
71
-8
72
4
73
3
0
VERTEX
8
OBJECT002
10
0
20
0
30
0
70
128
71
3
72
2
73
-5
0
VERTEX
8
OBJECT002
10
0
20
0
30
0
70
128
71
-3
72
5
73
8
0
VERTEX
8
OBJECT002
10
0
20
0
30
0
70
128
71
7
72
6
73
-1
0
VERTEX
8
OBJECT002
10
0
20
0
30
0
70
128
71
-7
72
1
73
4
0
SEQEND
8
OBJECT002
0
POLYLINE
8
OBJECT003
66
1
70
64
71
8
72
12
62
50
0
VERTEX
8
OBJECT003
10
-48.000000
20
-447.999969
30
176.000000
70
192
0
VERTEX
8
OBJECT003
10
-224.000000
20
-447.999969
30
64.000000
70
192
0
VERTEX
8
OBJECT003
10
-224.000000
20
-383.999969
30
64.000000
70
192
0
VERTEX
8
OBJECT003
10
-48.000000
20
-383.999969
30
176.000000
70
192
0
VERTEX
8
OBJECT003
10
-48.000000
20
-383.999969
30
-32.000000
70
192
0
VERTEX
8
OBJECT003
10
-224.000000
20
-383.999969
30
-32.000000
70
192
0
VERTEX
8
OBJECT003
10
-224.000000
20
-447.999969
30
-32.000000
70
192
0
VERTEX
8
OBJECT003
10
-48.000000
20
-447.999969
30
-32.000000
70
192
0
VERTEX
8
OBJECT003
10
0
20
0
30
0
70
128
71
2
72
3
73
-4
0
VERTEX
8
OBJECT003
10
0
20
0
30
0
70
128
71
-2
72
4
73
1
0
VERTEX
8
OBJECT003
10
0
20
0
30
0
70
128
71
6
72
7
73
-8
0
VERTEX
8
OBJECT003
10
0
20
0
30
0
70
128
71
-6
72
8
73
5
0
VERTEX
8
OBJECT003
10
0
20
0
30
0
70
128
71
6
72
3
73
-2
0
VERTEX
8
OBJECT003
10
0
20
0
30
0
70
128
71
-6
72
2
73
7
0
VERTEX
8
OBJECT003
10
0
20
0
30
0
70
128
71
4
72
5
73
-8
0
VERTEX
8
OBJECT003
10
0
20
0
30
0
70
128
71
-4
72
8
73
1
0
VERTEX
8
OBJECT003
10
0
20
0
30
0
70
128
71
5
72
4
73
-3
0
VERTEX
8
OBJECT003
10
0
20
0
30
0
70
128
71
-5
72
3
73
6
0
VERTEX
8
OBJECT003
10
0
20
0
30
0
70
128
71
1
72
8
73
-7
0
VERTEX
8
OBJECT003
10
0
20
0
30
0
70
128
71
-1
72
7
73
2
0
SEQEND
8
OBJECT003
0
POLYLINE
8
OBJECT004
66
1
70
64
71
8
72
12
62
50
0
VERTEX
8
OBJECT004
10
-224.000000
20
-383.999969
30
-32.000000
70
192
0
VERTEX
8
OBJECT004
10
-48.000000
20
-383.999969
30
-32.000000
70
192
0
VERTEX
8
OBJECT004
10
-48.000000
20
-447.999969
30
-32.000000
70
192
0
VERTEX
8
OBJECT004
10
-224.000000
20
-447.999969
30
-32.000000
70
192
0
VERTEX
8
OBJECT004
10
-224.000000
20
-447.999969
30
-128.000000
70
192
0
VERTEX
8
OBJECT004
10
-48.000000
20
-447.999969
30
-128.000000
70
192
0
VERTEX
8
OBJECT004
10
-48.000000
20
-383.999969
30
-128.000000
70
192
0
VERTEX
8
OBJECT004
10
-224.000000
20
-383.999969
30
-128.000000
70
192
0
VERTEX
8
OBJECT004
10
0
20
0
30
0
70
128
71
2
72
3
73
-4
0
VERTEX
8
OBJECT004
10
0
20
0
30
0
70
128
71
-2
72
4
73
1
0
VERTEX
8
OBJECT004
10
0
20
0
30
0
70
128
71
6
72
7
73
-8
0
VERTEX
8
OBJECT004
10
0
20
0
30
0
70
128
71
-6
72
8
73
5
0
VERTEX
8
OBJECT004
10
0
20
0
30
0
70
128
71
4
72
5
73
-8
0
VERTEX
8
OBJECT004
10
0
20
0
30
0
70
128
71
-4
72
8
73
1
0
VERTEX
8
OBJECT004
10
0
20
0
30
0
70
128
71
6
72
3
73
-2
0
VERTEX
8
OBJECT004
10
0
20
0
30
0
70
128
71
-6
72
2
73
7
0
VERTEX
8
OBJECT004
10
0
20
0
30
0
70
128
71
1
72
8
73
-7
0
VERTEX
8
OBJECT004
10
0
20
0
30
0
70
128
71
-1
72
7
73
2
0
VERTEX
8
OBJECT004
10
0
20
0
30
0
70
128
71
5
72
4
73
-3
0
VERTEX
8
OBJECT004
10
0
20
0
30
0
70
128
71
-5
72
3
73
6
0
SEQEND
8
OBJECT004
0
POLYLINE
8
OBJECT005
66
1
70
64
71
8
72
12
62
50
0
VERTEX
8
OBJECT005
10
48.000000
20
-383.999969
30
-32.000000
70
192
0
VERTEX
8
OBJECT005
10
224.000000
20
-383.999969
30
-32.000000
70
192
0
VERTEX
8
OBJECT005
10
224.000000
20
-447.999969
30
-32.000000
70
192
0
VERTEX
8
OBJECT005
10
48.000000
20
-447.999969
30
-32.000000
70
192
0
VERTEX
8
OBJECT005
10
48.000000
20
-447.999969
30
-128.000000
70
192
0
VERTEX
8
OBJECT005
10
224.000000
20
-447.999969
30
-128.000000
70
192
0
VERTEX
8
OBJECT005
10
224.000000
20
-383.999969
30
-128.000000
70
192
0
VERTEX
8
OBJECT005
10
48.000000
20
-383.999969
30
-128.000000
70
192
0
VERTEX
8
OBJECT005
10
0
20
0
30
0
70
128
71
2
72
3
73
-4
0
VERTEX
8
OBJECT005
10
0
20
0
30
0
70
128
71
-2
72
4
73
1
0
VERTEX
8
OBJECT005
10
0
20
0
30
0
70
128
71
6
72
7
73
-8
0
VERTEX
8
OBJECT005
10
0
20
0
30
0
70
128
71
-6
72
8
73
5
0
VERTEX
8
OBJECT005
10
0
20
0
30
0
70
128
71
4
72
5
73
-8
0
VERTEX
8
OBJECT005
10
0
20
0
30
0
70
128
71
-4
72
8
73
1
0
VERTEX
8
OBJECT005
10
0
20
0
30
0
70
128
71
6
72
3
73
-2
0
VERTEX
8
OBJECT005
10
0
20
0
30
0
70
128
71
-6
72
2
73
7
0
VERTEX
8
OBJECT005
10
0
20
0
30
0
70
128
71
1
72
8
73
-7
0
VERTEX
8
OBJECT005
10
0
20
0
30
0
70
128
71
-1
72
7
73
2
0
VERTEX
8
OBJECT005
10
0
20
0
30
0
70
128
71
5
72
4
73
-3
0
VERTEX
8
OBJECT005
10
0
20
0
30
0
70
128
71
-5
72
3
73
6
0
SEQEND
8
OBJECT005
0
POLYLINE
8
OBJECT006
66
1
70
64
71
8
72
12
62
50
0
VERTEX
8
OBJECT006
10
-224.000000
20
0.000031
30
-112.000000
70
192
0
VERTEX
8
OBJECT006
10
-96.000000
20
0.000031
30
-112.000000
70
192
0
VERTEX
8
OBJECT006
10
-96.000000
20
-383.999969
30
-112.000000
70
192
0
VERTEX
8
OBJECT006
10
-224.000000
20
-383.999969
30
-112.000000
70
192
0
VERTEX
8
OBJECT006
10
-224.000000
20
-383.999969
30
-128.000000
70
192
0
VERTEX
8
OBJECT006
10
-96.000000
20
-383.999969
30
-128.000000
70
192
0
VERTEX
8
OBJECT006
10
-96.000000
20
0.000031
30
-128.000000
70
192
0
VERTEX
8
OBJECT006
10
-224.000000
20
0.000031
30
-128.000000
70
192
0
VERTEX
8
OBJECT006
10
0
20
0
30
0
70
128
71
2
72
3
73
-4
0
VERTEX
8
OBJECT006
10
0
20
0
30
0
70
128
71
-2
72
4
73
1
0
VERTEX
8
OBJECT006
10
0
20
0
30
0
70
128
71
6
72
7
73
-8
0
VERTEX
8
OBJECT006
10
0
20
0
30
0
70
128
71
-6
72
8
73
5
0
VERTEX
8
OBJECT006
10
0
20
0
30
0
70
128
71
4
72
5
73
-8
0
VERTEX
8
OBJECT006
10
0
20
0
30
0
70
128
71
-4
72
8
73
1
0
VERTEX
8
OBJECT006
10
0
20
0
30
0
70
128
71
6
72
3
73
-2
0
VERTEX
8
OBJECT006
10
0
20
0
30
0
70
128
71
-6
72
2
73
7
0
VERTEX
8
OBJECT006
10
0
20
0
30
0
70
128
71
1
72
8
73
-7
0
VERTEX
8
OBJECT006
10
0
20
0
30
0
70
128
71
-1
72
7
73
2
0
VERTEX
8
OBJECT006
10
0
20
0
30
0
70
128
71
5
72
4
73
-3
0
VERTEX
8
OBJECT006
10
0
20
0
30
0
70
128
71
-5
72
3
73
6
0
SEQEND
8
OBJECT006
0
POLYLINE
8
OBJECT007
66
1
70
64
71
8
72
12
62
50
0
VERTEX
8
OBJECT007
10
96.000000
20
0.000031
30
-112.000000
70
192
0
VERTEX
8
OBJECT007
10
224.000000
20
0.000031
30
-112.000000
70
192
0
VERTEX
8
OBJECT007
10
224.000000
20
-383.999969
30
-112.000000
70
192
0
VERTEX
8
OBJECT007
10
96.000000
20
-383.999969
30
-112.000000
70
192
0
VERTEX
8
OBJECT007
10
96.000000
20
-383.999969
30
-128.000000
70
192
0
VERTEX
8
OBJECT007
10
224.000000
20
-383.999969
30
-128.000000
70
192
0
VERTEX
8
OBJECT007
10
224.000000
20
0.000031
30
-128.000000
70
192
0
VERTEX
8
OBJECT007
10
96.000000
20
0.000031
30
-128.000000
70
192
0
VERTEX
8
OBJECT007
10
0
20
0
30
0
70
128
71
2
72
3
73
-4
0
VERTEX
8
OBJECT007
10
0
20
0
30
0
70
128
71
-2
72
4
73
1
0
VERTEX
8
OBJECT007
10
0
20
0
30
0
70
128
71
6
72
7
73
-8
0
VERTEX
8
OBJECT007
10
0
20
0
30
0
70
128
71
-6
72
8
73
5
0
VERTEX
8
OBJECT007
10
0
20
0
30
0
70
128
71
4
72
5
73
-8
0
VERTEX
8
OBJECT007
10
0
20
0
30
0
70
128
71
-4
72
8
73
1
0
VERTEX
8
OBJECT007
10
0
20
0
30
0
70
128
71
6
72
3
73
-2
0
VERTEX
8
OBJECT007
10
0
20
0
30
0
70
128
71
-6
72
2
73
7
0
VERTEX
8
OBJECT007
10
0
20
0
30
0
70
128
71
1
72
8
73
-7
0
VERTEX
8
OBJECT007
10
0
20
0
30
0
70
128
71
-1
72
7
73
2
0
VERTEX
8
OBJECT007
10
0
20
0
30
0
70
128
71
5
72
4
73
-3
0
VERTEX
8
OBJECT007
10
0
20
0
30
0
70
128
71
-5
72
3
73
6
0
SEQEND
8
OBJECT007
0
POLYLINE
8
OBJECT008
66
1
70
64
71
8
72
12
62
50
0
VERTEX
8
OBJECT008
10
-96.000000
20
0.000031
30
-120.000000
70
192
0
VERTEX
8
OBJECT008
10
-88.000000
20
0.000031
30
-120.000000
70
192
0
VERTEX
8
OBJECT008
10
-88.000000
20
-383.999969
30
-120.000000
70
192
0
VERTEX
8
OBJECT008
10
-96.000000
20
-383.999969
30
-120.000000
70
192
0
VERTEX
8
OBJECT008
10
-96.000000
20
-383.999969
30
-128.000000
70
192
0
VERTEX
8
OBJECT008
10
-88.000000
20
-383.999969
30
-128.000000
70
192
0
VERTEX
8
OBJECT008
10
-88.000000
20
0.000031
30
-128.000000
70
192
0
VERTEX
8
OBJECT008
10
-96.000000
20
0.000031
30
-128.000000
70
192
0
VERTEX
8
OBJECT008
10
0
20
0
30
0
70
128
71
2
72
3
73
-4
0
VERTEX
8
OBJECT008
10
0
20
0
30
0
70
128
71
-2
72
4
73
1
0
VERTEX
8
OBJECT008
10
0
20
0
30
0
70
128
71
6
72
7
73
-8
0
VERTEX
8
OBJECT008
10
0
20
0
30
0
70
128
71
-6
72
8
73
5
0
VERTEX
8
OBJECT008
10
0
20
0
30
0
70
128
71
4
72
5
73
-8
0
VERTEX
8
OBJECT008
10
0
20
0
30
0
70
128
71
-4
72
8
73
1
0
VERTEX
8
OBJECT008
10
0
20
0
30
0
70
128
71
6
72
3
73
-2
0
VERTEX
8
OBJECT008
10
0
20
0
30
0
70
128
71
-6
72
2
73
7
0
VERTEX
8
OBJECT008
10
0
20
0
30
0
70
128
71
1
72
8
73
-7
0
VERTEX
8
OBJECT008
10
0
20
0
30
0
70
128
71
-1
72
7
73
2
0
VERTEX
8
OBJECT008
10
0
20
0
30
0
70
128
71
5
72
4
73
-3
0
VERTEX
8
OBJECT008
10
0
20
0
30
0
70
128
71
-5
72
3
73
6
0
SEQEND
8
OBJECT008
0
POLYLINE
8
OBJECT009
66
1
70
64
71
8
72
12
62
50
0
VERTEX
8
OBJECT009
10
88.000000
20
0.000031
30
-120.000000
70
192
0
VERTEX
8
OBJECT009
10
96.000000
20
0.000031
30
-120.000000
70
192
0
VERTEX
8
OBJECT009
10
96.000000
20
-383.999969
30
-120.000000
70
192
0
VERTEX
8
OBJECT009
10
88.000000
20
-383.999969
30
-120.000000
70
192
0
VERTEX
8
OBJECT009
10
88.000000
20
-383.999969
30
-128.000000
70
192
0
VERTEX
8
OBJECT009
10
96.000000
20
-383.999969
30
-128.000000
70
192
0
VERTEX
8
OBJECT009
10
96.000000
20
0.000031
30
-128.000000
70
192
0
VERTEX
8
OBJECT009
10
88.000000
20
0.000031
30
-128.000000
70
192
0
VERTEX
8
OBJECT009
10
0
20
0
30
0
70
128
71
2
72
3
73
-4
0
VERTEX
8
OBJECT009
10
0
20
0
30
0
70
128
71
-2
72
4
73
1
0
VERTEX
8
OBJECT009
10
0
20
0
30
0
70
128
71
6
72
7
73
-8
0
VERTEX
8
OBJECT009
10
0
20
0
30
0
70
128
71
-6
72
8
73
5
0
VERTEX
8
OBJECT009
10
0
20
0
30
0
70
128
71
4
72
5
73
-8
0
VERTEX
8
OBJECT009
10
0
20
0
30
0
70
128
71
-4
72
8
73
1
0
VERTEX
8
OBJECT009
10
0
20
0
30
0
70
128
71
6
72
3
73
-2
0
VERTEX
8
OBJECT009
10
0
20
0
30
0
70
128
71
-6
72
2
73
7
0
VERTEX
8
OBJECT009
10
0
20
0
30
0
70
128
71
1
72
8
73
-7
0
VERTEX
8
OBJECT009
10
0
20
0
30
0
70
128
71
-1
72
7
73
2
0
VERTEX
8
OBJECT009
10
0
20
0
30
0
70
128
71
5
72
4
73
-3
0
VERTEX
8
OBJECT009
10
0
20
0
30
0
70
128
71
-5
72
3
73
6
0
SEQEND
8
OBJECT009
0
POLYLINE
8
OBJECT010
66
1
70
64
71
8
72
12
62
50
0
VERTEX
8
OBJECT010
10
-224.000000
20
64.000031
30
-64.000000
70
192
0
VERTEX
8
OBJECT010
10
-88.000000
20
64.000031
30
-64.000000
70
192
0
VERTEX
8
OBJECT010
10
-88.000000
20
0.000031
30
-64.000000
70
192
0
VERTEX
8
OBJECT010
10
-224.000000
20
0.000031
30
-64.000000
70
192
0
VERTEX
8
OBJECT010
10
-224.000000
20
0.000031
30
-128.000000
70
192
0
VERTEX
8
OBJECT010
10
-88.000000
20
0.000031
30
-128.000000
70
192
0
VERTEX
8
OBJECT010
10
-88.000000
20
64.000031
30
-128.000000
70
192
0
VERTEX
8
OBJECT010
10
-224.000000
20
64.000031
30
-128.000000
70
192
0
VERTEX
8
OBJECT010
10
0
20
0
30
0
70
128
71
2
72
3
73
-4
0
VERTEX
8
OBJECT010
10
0
20
0
30
0
70
128
71
-2
72
4
73
1
0
VERTEX
8
OBJECT010
10
0
20
0
30
0
70
128
71
6
72
7
73
-8
0
VERTEX
8
OBJECT010
10
0
20
0
30
0
70
128
71
-6
72
8
73
5
0
VERTEX
8
OBJECT010
10
0
20
0
30
0
70
128
71
4
72
5
73
-8
0
VERTEX
8
OBJECT010
10
0
20
0
30
0
70
128
71
-4
72
8
73
1
0
VERTEX
8
OBJECT010
10
0
20
0
30
0
70
128
71
6
72
3
73
-2
0
VERTEX
8
OBJECT010
10
0
20
0
30
0
70
128
71
-6
72
2
73
7
0
VERTEX
8
OBJECT010
10
0
20
0
30
0
70
128
71
1
72
8
73
-7
0
VERTEX
8
OBJECT010
10
0
20
0
30
0
70
128
71
-1
72
7
73
2
0
VERTEX
8
OBJECT010
10
0
20
0
30
0
70
128
71
5
72
4
73
-3
0
VERTEX
8
OBJECT010
10
0
20
0
30
0
70
128
71
-5
72
3
73
6
0
SEQEND
8
OBJECT010
0
POLYLINE
8
OBJECT011
66
1
70
64
71
8
72
12
62
50
0
VERTEX
8
OBJECT011
10
88.000000
20
64.000031
30
-64.000000
70
192
0
VERTEX
8
OBJECT011
10
224.000000
20
64.000031
30
-64.000000
70
192
0
VERTEX
8
OBJECT011
10
224.000000
20
0.000031
30
-64.000000
70
192
0
VERTEX
8
OBJECT011
10
88.000000
20
0.000031
30
-64.000000
70
192
0
VERTEX
8
OBJECT011
10
88.000000
20
0.000031
30
-128.000000
70
192
0
VERTEX
8
OBJECT011
10
224.000000
20
0.000031
30
-128.000000
70
192
0
VERTEX
8
OBJECT011
10
224.000000
20
64.000031
30
-128.000000
70
192
0
VERTEX
8
OBJECT011
10
88.000000
20
64.000031
30
-128.000000
70
192
0
VERTEX
8
OBJECT011
10
0
20
0
30
0
70
128
71
2
72
3
73
-4
0
VERTEX
8
OBJECT011
10
0
20
0
30
0
70
128
71
-2
72
4
73
1
0
VERTEX
8
OBJECT011
10
0
20
0
30
0
70
128
71
6
72
7
73
-8
0
VERTEX
8
OBJECT011
10
0
20
0
30
0
70
128
71
-6
72
8
73
5
0
VERTEX
8
OBJECT011
10
0
20
0
30
0
70
128
71
4
72
5
73
-8
0
VERTEX
8
OBJECT011
10
0
20
0
30
0
70
128
71
-4
72
8
73
1
0
VERTEX
8
OBJECT011
10
0
20
0
30
0
70
128
71
6
72
3
73
-2
0
VERTEX
8
OBJECT011
10
0
20
0
30
0
70
128
71
-6
72
2
73
7
0
VERTEX
8
OBJECT011
10
0
20
0
30
0
70
128
71
1
72
8
73
-7
0
VERTEX
8
OBJECT011
10
0
20
0
30
0
70
128
71
-1
72
7
73
2
0
VERTEX
8
OBJECT011
10
0
20
0
30
0
70
128
71
5
72
4
73
-3
0
VERTEX
8
OBJECT011
10
0
20
0
30
0
70
128
71
-5
72
3
73
6
0
SEQEND
8
OBJECT011
0
POLYLINE
8
OBJECT012
66
1
70
64
71
8
72
12
62
50
0
VERTEX
8
OBJECT012
10
-88.000000
20
0.000031
30
-120.000000
70
192
0
VERTEX
8
OBJECT012
10
88.000000
20
0.000031
30
-120.000000
70
192
0
VERTEX
8
OBJECT012
10
88.000000
20
-15.999969
30
-120.000000
70
192
0
VERTEX
8
OBJECT012
10
-88.000000
20
-15.999969
30
-120.000000
70
192
0
VERTEX
8
OBJECT012
10
-88.000000
20
-15.999969
30
-128.000000
70
192
0
VERTEX
8
OBJECT012
10
88.000000
20
-15.999969
30
-128.000000
70
192
0
VERTEX
8
OBJECT012
10
88.000000
20
0.000031
30
-128.000000
70
192
0
VERTEX
8
OBJECT012
10
-88.000000
20
0.000031
30
-128.000000
70
192
0
VERTEX
8
OBJECT012
10
0
20
0
30
0
70
128
71
2
72
3
73
-4
0
VERTEX
8
OBJECT012
10
0
20
0
30
0
70
128
71
-2
72
4
73
1
0
VERTEX
8
OBJECT012
10
0
20
0
30
0
70
128
71
6
72
7
73
-8
0
VERTEX
8
OBJECT012
10
0
20
0
30
0
70
128
71
-6
72
8
73
5
0
VERTEX
8
OBJECT012
10
0
20
0
30
0
70
128
71
4
72
5
73
-8
0
VERTEX
8
OBJECT012
10
0
20
0
30
0
70
128
71
-4
72
8
73
1
0
VERTEX
8
OBJECT012
10
0
20
0
30
0
70
128
71
6
72
3
73
-2
0
VERTEX
8
OBJECT012
10
0
20
0
30
0
70
128
71
-6
72
2
73
7
0
VERTEX
8
OBJECT012
10
0
20
0
30
0
70
128
71
1
72
8
73
-7
0
VERTEX
8
OBJECT012
10
0
20
0
30
0
70
128
71
-1
72
7
73
2
0
VERTEX
8
OBJECT012
10
0
20
0
30
0
70
128
71
5
72
4
73
-3
0
VERTEX
8
OBJECT012
10
0
20
0
30
0
70
128
71
-5
72
3
73
6
0
SEQEND
8
OBJECT012
0
POLYLINE
8
OBJECT013
66
1
70
64
71
8
72
12
62
50
0
VERTEX
8
OBJECT013
10
-88.000000
20
16.000031
30
-112.000000
70
192
0
VERTEX
8
OBJECT013
10
88.000000
20
16.000031
30
-112.000000
70
192
0
VERTEX
8
OBJECT013
10
88.000000
20
0.000031
30
-112.000000
70
192
0
VERTEX
8
OBJECT013
10
-88.000000
20
0.000031
30
-112.000000
70
192
0
VERTEX
8
OBJECT013
10
-88.000000
20
0.000031
30
-128.000000
70
192
0
VERTEX
8
OBJECT013
10
88.000000
20
0.000031
30
-128.000000
70
192
0
VERTEX
8
OBJECT013
10
88.000000
20
16.000031
30
-128.000000
70
192
0
VERTEX
8
OBJECT013
10
-88.000000
20
16.000031
30
-128.000000
70
192
0
VERTEX
8
OBJECT013
10
0
20
0
30
0
70
128
71
2
72
3
73
-4
0
VERTEX
8
OBJECT013
10
0
20
0
30
0
70
128
71
-2
72
4
73
1
0
VERTEX
8
OBJECT013
10
0
20
0
30
0
70
128
71
6
72
7
73
-8
0
VERTEX
8
OBJECT013
10
0
20
0
30
0
70
128
71
-6
72
8
73
5
0
VERTEX
8
OBJECT013
10
0
20
0
30
0
70
128
71
4
72
5
73
-8
0
VERTEX
8
OBJECT013
10
0
20
0
30
0
70
128
71
-4
72
8
73
1
0
VERTEX
8
OBJECT013
10
0
20
0
30
0
70
128
71
6
72
3
73
-2
0
VERTEX
8
OBJECT013
10
0
20
0
30
0
70
128
71
-6
72
2
73
7
0
VERTEX
8
OBJECT013
10
0
20
0
30
0
70
128
71
1
72
8
73
-7
0
VERTEX
8
OBJECT013
10
0
20
0
30
0
70
128
71
-1
72
7
73
2
0
VERTEX
8
OBJECT013
10
0
20
0
30
0
70
128
71
5
72
4
73
-3
0
VERTEX
8
OBJECT013
10
0
20
0
30
0
70
128
71
-5
72
3
73
6
0
SEQEND
8
OBJECT013
0
POLYLINE
8
OBJECT014
66
1
70
64
71
8
72
12
62
50
0
VERTEX
8
OBJECT014
10
-88.000000
20
32.000031
30
-104.000000
70
192
0
VERTEX
8
OBJECT014
10
88.000000
20
32.000031
30
-104.000000
70
192
0
VERTEX
8
OBJECT014
10
88.000000
20
16.000031
30
-104.000000
70
192
0
VERTEX
8
OBJECT014
10
-88.000000
20
16.000031
30
-104.000000
70
192
0
VERTEX
8
OBJECT014
10
-88.000000
20
16.000031
30
-128.000000
70
192
0
VERTEX
8
OBJECT014
10
88.000000
20
16.000031
30
-128.000000
70
192
0
VERTEX
8
OBJECT014
10
88.000000
20
32.000031
30
-128.000000
70
192
0
VERTEX
8
OBJECT014
10
-88.000000
20
32.000031
30
-128.000000
70
192
0
VERTEX
8
OBJECT014
10
0
20
0
30
0
70
128
71
2
72
3
73
-4
0
VERTEX
8
OBJECT014
10
0
20
0
30
0
70
128
71
-2
72
4
73
1
0
VERTEX
8
OBJECT014
10
0
20
0
30
0
70
128
71
6
72
7
73
-8
0
VERTEX
8
OBJECT014
10
0
20
0
30
0
70
128
71
-6
72
8
73
5
0
VERTEX
8
OBJECT014
10
0
20
0
30
0
70
128
71
4
72
5
73
-8
0
VERTEX
8
OBJECT014
10
0
20
0
30
0
70
128
71
-4
72
8
73
1
0
VERTEX
8
OBJECT014
10
0
20
0
30
0
70
128
71
6
72
3
73
-2
0
VERTEX
8
OBJECT014
10
0
20
0
30
0
70
128
71
-6
72
2
73
7
0
VERTEX
8
OBJECT014
10
0
20
0
30
0
70
128
71
1
72
8
73
-7
0
VERTEX
8
OBJECT014
10
0
20
0
30
0
70
128
71
-1
72
7
73
2
0
VERTEX
8
OBJECT014
10
0
20
0
30
0
70
128
71
5
72
4
73
-3
0
VERTEX
8
OBJECT014
10
0
20
0
30
0
70
128
71
-5
72
3
73
6
0
SEQEND
8
OBJECT014
0
POLYLINE
8
OBJECT015
66
1
70
64
71
8
72
12
62
50
0
VERTEX
8
OBJECT015
10
-88.000000
20
48.000031
30
-96.000000
70
192
0
VERTEX
8
OBJECT015
10
88.000000
20
48.000031
30
-96.000000
70
192
0
VERTEX
8
OBJECT015
10
88.000000
20
32.000031
30
-96.000000
70
192
0
VERTEX
8
OBJECT015
10
-88.000000
20
32.000031
30
-96.000000
70
192
0
VERTEX
8
OBJECT015
10
-88.000000
20
32.000031
30
-128.000000
70
192
0
VERTEX
8
OBJECT015
10
88.000000
20
32.000031
30
-128.000000
70
192
0
VERTEX
8
OBJECT015
10
88.000000
20
48.000031
30
-128.000000
70
192
0
VERTEX
8
OBJECT015
10
-88.000000
20
48.000031
30
-128.000000
70
192
0
VERTEX
8
OBJECT015
10
0
20
0
30
0
70
128
71
2
72
3
73
-4
0
VERTEX
8
OBJECT015
10
0
20
0
30
0
70
128
71
-2
72
4
73
1
0
VERTEX
8
OBJECT015
10
0
20
0
30
0
70
128
71
6
72
7
73
-8
0
VERTEX
8
OBJECT015
10
0
20
0
30
0
70
128
71
-6
72
8
73
5
0
VERTEX
8
OBJECT015
10
0
20
0
30
0
70
128
71
4
72
5
73
-8
0
VERTEX
8
OBJECT015
10
0
20
0
30
0
70
128
71
-4
72
8
73
1
0
VERTEX
8
OBJECT015
10
0
20
0
30
0
70
128
71
6
72
3
73
-2
0
VERTEX
8
OBJECT015
10
0
20
0
30
0
70
128
71
-6
72
2
73
7
0
VERTEX
8
OBJECT015
10
0
20
0
30
0
70
128
71
1
72
8
73
-7
0
VERTEX
8
OBJECT015
10
0
20
0
30
0
70
128
71
-1
72
7
73
2
0
VERTEX
8
OBJECT015
10
0
20
0
30
0
70
128
71
5
72
4
73
-3
0
VERTEX
8
OBJECT015
10
0
20
0
30
0
70
128
71
-5
72
3
73
6
0
SEQEND
8
OBJECT015
0
POLYLINE
8
OBJECT016
66
1
70
64
71
8
72
12
62
50
0
VERTEX
8
OBJECT016
10
-88.000000
20
64.000031
30
-88.000000
70
192
0
VERTEX
8
OBJECT016
10
88.000000
20
64.000031
30
-88.000000
70
192
0
VERTEX
8
OBJECT016
10
88.000000
20
48.000031
30
-88.000000
70
192
0
VERTEX
8
OBJECT016
10
-88.000000
20
48.000031
30
-88.000000
70
192
0
VERTEX
8
OBJECT016
10
-88.000000
20
48.000031
30
-128.000000
70
192
0
VERTEX
8
OBJECT016
10
88.000000
20
48.000031
30
-128.000000
70
192
0
VERTEX
8
OBJECT016
10
88.000000
20
64.000031
30
-128.000000
70
192
0
VERTEX
8
OBJECT016
10
-88.000000
20
64.000031
30
-128.000000
70
192
0
VERTEX
8
OBJECT016
10
0
20
0
30
0
70
128
71
2
72
3
73
-4
0
VERTEX
8
OBJECT016
10
0
20
0
30
0
70
128
71
-2
72
4
73
1
0
VERTEX
8
OBJECT016
10
0
20
0
30
0
70
128
71
6
72
7
73
-8
0
VERTEX
8
OBJECT016
10
0
20
0
30
0
70
128
71
-6
72
8
73
5
0
VERTEX
8
OBJECT016
10
0
20
0
30
0
70
128
71
4
72
5
73
-8
0
VERTEX
8
OBJECT016
10
0
20
0
30
0
70
128
71
-4
72
8
73
1
0
VERTEX
8
OBJECT016
10
0
20
0
30
0
70
128
71
6
72
3
73
-2
0
VERTEX
8
OBJECT016
10
0
20
0
30
0
70
128
71
-6
72
2
73
7
0
VERTEX
8
OBJECT016
10
0
20
0
30
0
70
128
71
1
72
8
73
-7
0
VERTEX
8
OBJECT016
10
0
20
0
30
0
70
128
71
-1
72
7
73
2
0
VERTEX
8
OBJECT016
10
0
20
0
30
0
70
128
71
5
72
4
73
-3
0
VERTEX
8
OBJECT016
10
0
20
0
30
0
70
128
71
-5
72
3
73
6
0
SEQEND
8
OBJECT016
0
POLYLINE
8
OBJECT017
66
1
70
64
71
8
72
12
62
50
0
VERTEX
8
OBJECT017
10
0.000000
20
64.000031
30
-80.000000
70
192
0
VERTEX
8
OBJECT017
10
-224.000000
20
64.000031
30
-80.000000
70
192
0
VERTEX
8
OBJECT017
10
-224.000000
20
416.000031
30
-80.000000
70
192
0
VERTEX
8
OBJECT017
10
0.000000
20
512.000000
30
-80.000000
70
192
0
VERTEX
8
OBJECT017
10
0.000000
20
512.000000
30
-128.000000
70
192
0
VERTEX
8
OBJECT017
10
-224.000000
20
416.000031
30
-128.000000
70
192
0
VERTEX
8
OBJECT017
10
-224.000000
20
64.000031
30
-128.000000
70
192
0
VERTEX
8
OBJECT017
10
0.000000
20
64.000031
30
-128.000000
70
192
0
VERTEX
8
OBJECT017
10
0
20
0
30
0
70
128
71
2
72
3
73
-4
0
VERTEX
8
OBJECT017
10
0
20
0
30
0
70
128
71
-2
72
4
73
1
0
VERTEX
8
OBJECT017
10
0
20
0
30
0
70
128
71
6
72
7
73
-8
0
VERTEX
8
OBJECT017
10
0
20
0
30
0
70
128
71
-6
72
8
73
5
0
VERTEX
8
OBJECT017
10
0
20
0
30
0
70
128
71
6
72
3
73
-2
0
VERTEX
8
OBJECT017
10
0
20
0
30
0
70
128
71
-6
72
2
73
7
0
VERTEX
8
OBJECT017
10
0
20
0
30
0
70
128
71
4
72
5
73
-8
0
VERTEX
8
OBJECT017
10
0
20
0
30
0
70
128
71
-4
72
8
73
1
0
VERTEX
8
OBJECT017
10
0
20
0
30
0
70
128
71
5
72
4
73
-3
0
VERTEX
8
OBJECT017
10
0
20
0
30
0
70
128
71
-5
72
3
73
6
0
VERTEX
8
OBJECT017
10
0
20
0
30
0
70
128
71
1
72
8
73
-7
0
VERTEX
8
OBJECT017
10
0
20
0
30
0
70
128
71
-1
72
7
73
2
0
SEQEND
8
OBJECT017
0
POLYLINE
8
OBJECT018
66
1
70
64
71
8
72
12
62
50
0
VERTEX
8
OBJECT018
10
-248.000000
20
440.000031
30
32.000000
70
192
0
VERTEX
8
OBJECT018
10
-232.000000
20
424.000031
30
32.000000
70
192
0
VERTEX
8
OBJECT018
10
-232.000000
20
-383.999969
30
32.000000
70
192
0
VERTEX
8
OBJECT018
10
-248.000000
20
-383.999969
30
32.000000
70
192
0
VERTEX
8
OBJECT018
10
-248.000000
20
-383.999969
30
-64.000000
70
192
0
VERTEX
8
OBJECT018
10
-232.000000
20
-383.999969
30
-64.000000
70
192
0
VERTEX
8
OBJECT018
10
-232.000000
20
424.000031
30
-64.000000
70
192
0
VERTEX
8
OBJECT018
10
-248.000000
20
440.000031
30
-64.000000
70
192
0
VERTEX
8
OBJECT018
10
0
20
0
30
0
70
128
71
2
72
3
73
-4
0
VERTEX
8
OBJECT018
10
0
20
0
30
0
70
128
71
-2
72
4
73
1
0
VERTEX
8
OBJECT018
10
0
20
0
30
0
70
128
71
6
72
7
73
-8
0
VERTEX
8
OBJECT018
10
0
20
0
30
0
70
128
71
-6
72
8
73
5
0
VERTEX
8
OBJECT018
10
0
20
0
30
0
70
128
71
4
72
5
73
-8
0
VERTEX
8
OBJECT018
10
0
20
0
30
0
70
128
71
-4
72
8
73
1
0
VERTEX
8
OBJECT018
10
0
20
0
30
0
70
128
71
6
72
3
73
-2
0
VERTEX
8
OBJECT018
10
0
20
0
30
0
70
128
71
-6
72
2
73
7
0
VERTEX
8
OBJECT018
10
0
20
0
30
0
70
128
71
1
72
8
73
-7
0
VERTEX
8
OBJECT018
10
0
20
0
30
0
70
128
71
-1
72
7
73
2
0
VERTEX
8
OBJECT018
10
0
20
0
30
0
70
128
71
5
72
4
73
-3
0
VERTEX
8
OBJECT018
10
0
20
0
30
0
70
128
71
-5
72
3
73
6
0
SEQEND
8
OBJECT018
0
POLYLINE
8
OBJECT019
66
1
70
64
71
8
72
12
62
50
0
VERTEX
8
OBJECT019
10
-256.000000
20
-383.999969
30
64.000000
70
192
0
VERTEX
8
OBJECT019
10
-256.000000
20
448.000031
30
64.000000
70
192
0
VERTEX
8
OBJECT019
10
-224.000000
20
416.000031
30
64.000000
70
192
0
VERTEX
8
OBJECT019
10
-224.000000
20
-383.999969
30
64.000000
70
192
0
VERTEX
8
OBJECT019
10
-256.000000
20
448.000031
30
32.000000
70
192
0
VERTEX
8
OBJECT019
10
-256.000000
20
-383.999969
30
32.000000
70
192
0
VERTEX
8
OBJECT019
10
-224.000000
20
-383.999969
30
32.000000
70
192
0
VERTEX
8
OBJECT019
10
-224.000000
20
416.000031
30
32.000000
70
192
0
VERTEX
8
OBJECT019
10
0
20
0
30
0
70
128
71
2
72
3
73
-4
0
VERTEX
8
OBJECT019
10
0
20
0
30
0
70
128
71
-2
72
4
73
1
0
VERTEX
8
OBJECT019
10
0
20
0
30
0
70
128
71
6
72
7
73
-8
0
VERTEX
8
OBJECT019
10
0
20
0
30
0
70
128
71
-6
72
8
73
5
0
VERTEX
8
OBJECT019
10
0
20
0
30
0
70
128
71
2
72
1
73
-6
0
VERTEX
8
OBJECT019
10
0
20
0
30
0
70
128
71
-2
72
6
73
5
0
VERTEX
8
OBJECT019
10
0
20
0
30
0
70
128
71
8
72
7
73
-4
0
VERTEX
8
OBJECT019
10
0
20
0
30
0
70
128
71
-8
72
4
73
3
0
VERTEX
8
OBJECT019
10
0
20
0
30
0
70
128
71
3
72
2
73
-5
0
VERTEX
8
OBJECT019
10
0
20
0
30
0
70
128
71
-3
72
5
73
8
0
VERTEX
8
OBJECT019
10
0
20
0
30
0
70
128
71
7
72
6
73
-1
0
VERTEX
8
OBJECT019
10
0
20
0
30
0
70
128
71
-7
72
1
73
4
0
SEQEND
8
OBJECT019
0
POLYLINE
8
OBJECT020
66
1
70
64
71
8
72
12
62
50
0
VERTEX
8
OBJECT020
10
-224.000000
20
416.000031
30
64.000000
70
192
0
VERTEX
8
OBJECT020
10
-256.000000
20
448.000031
30
64.000000
70
192
0
VERTEX
8
OBJECT020
10
0.000000
20
576.000000
30
64.000000
70
192
0
VERTEX
8
OBJECT020
10
0.000000
20
512.000000
30
64.000000
70
192
0
VERTEX
8
OBJECT020
10
-256.000000
20
448.000031
30
32.000000
70
192
0
VERTEX
8
OBJECT020
10
-224.000000
20
416.000031
30
32.000000
70
192
0
VERTEX
8
OBJECT020
10
0.000000
20
512.000000
30
32.000000
70
192
0
VERTEX
8
OBJECT020
10
0.000000
20
576.000000
30
32.000000
70
192
0
VERTEX
8
OBJECT020
10
0
20
0
30
0
70
128
71
2
72
3
73
-4
0
VERTEX
8
OBJECT020
10
0
20
0
30
0
70
128
71
-2
72
4
73
1
0
VERTEX
8
OBJECT020
10
0
20
0
30
0
70
128
71
6
72
7
73
-8
0
VERTEX
8
OBJECT020
10
0
20
0
30
0
70
128
71
-6
72
8
73
5
0
VERTEX
8
OBJECT020
10
0
20
0
30
0
70
128
71
2
72
1
73
-6
0
VERTEX
8
OBJECT020
10
0
20
0
30
0
70
128
71
-2
72
6
73
5
0
VERTEX
8
OBJECT020
10
0
20
0
30
0
70
128
71
8
72
7
73
-4
0
VERTEX
8
OBJECT020
10
0
20
0
30
0
70
128
71
-8
72
4
73
3
0
VERTEX
8
OBJECT020
10
0
20
0
30
0
70
128
71
3
72
2
73
-5
0
VERTEX
8
OBJECT020
10
0
20
0
30
0
70
128
71
-3
72
5
73
8
0
VERTEX
8
OBJECT020
10
0
20
0
30
0
70
128
71
7
72
6
73
-1
0
VERTEX
8
OBJECT020
10
0
20
0
30
0
70
128
71
-7
72
1
73
4
0
SEQEND
8
OBJECT020
0
POLYLINE
8
OBJECT021
66
1
70
64
71
8
72
12
62
50
0
VERTEX
8
OBJECT021
10
-256.000000
20
319.999664
30
64.000000
70
192
0
VERTEX
8
OBJECT021
10
-48.000000
20
319.999664
30
192.000000
70
192
0
VERTEX
8
OBJECT021
10
-48.000000
20
-447.999969
30
192.000000
70
192
0
VERTEX
8
OBJECT021
10
-256.000000
20
-447.999969
30
64.000000
70
192
0
VERTEX
8
OBJECT021
10
-224.000000
20
-447.999969
30
64.000000
70
192
0
VERTEX
8
OBJECT021
10
-48.000000
20
-447.999969
30
176.000000
70
192
0
VERTEX
8
OBJECT021
10
-48.000000
20
319.999664
30
176.000000
70
192
0
VERTEX
8
OBJECT021
10
-224.000000
20
319.999664
30
64.000000
70
192
0
VERTEX
8
OBJECT021
10
0
20
0
30
0
70
128
71
2
72
3
73
-4
0
VERTEX
8
OBJECT021
10
0
20
0
30
0
70
128
71
-2
72
4
73
1
0
VERTEX
8
OBJECT021
10
0
20
0
30
0
70
128
71
6
72
7
73
-8
0
VERTEX
8
OBJECT021
10
0
20
0
30
0
70
128
71
-6
72
8
73
5
0
VERTEX
8
OBJECT021
10
0
20
0
30
0
70
128
71
4
72
5
73
-8
0
VERTEX
8
OBJECT021
10
0
20
0
30
0
70
128
71
-4
72
8
73
1
0
VERTEX
8
OBJECT021
10
0
20
0
30
0
70
128
71
6
72
3
73
-2
0
VERTEX
8
OBJECT021
10
0
20
0
30
0
70
128
71
-6
72
2
73
7
0
VERTEX
8
OBJECT021
10
0
20
0
30
0
70
128
71
1
72
8
73
-7
0
VERTEX
8
OBJECT021
10
0
20
0
30
0
70
128
71
-1
72
7
73
2
0
VERTEX
8
OBJECT021
10
0
20
0
30
0
70
128
71
5
72
4
73
-3
0
VERTEX
8
OBJECT021
10
0
20
0
30
0
70
128
71
-5
72
3
73
6
0
SEQEND
8
OBJECT021
0
POLYLINE
8
OBJECT022
66
1
70
64
71
8
72
12
62
50
0
VERTEX
8
OBJECT022
10
256.000000
20
319.999664
30
64.000000
70
192
0
VERTEX
8
OBJECT022
10
256.000000
20
-447.999969
30
64.000000
70
192
0
VERTEX
8
OBJECT022
10
48.000000
20
-447.999969
30
192.000000
70
192
0
VERTEX
8
OBJECT022
10
48.000000
20
319.999664
30
192.000000
70
192
0
VERTEX
8
OBJECT022
10
224.000000
20
-447.999969
30
64.000000
70
192
0
VERTEX
8
OBJECT022
10
224.000000
20
319.999664
30
64.000000
70
192
0
VERTEX
8
OBJECT022
10
48.000000
20
319.999664
30
176.000000
70
192
0
VERTEX
8
OBJECT022
10
48.000000
20
-447.999969
30
176.000000
70
192
0
VERTEX
8
OBJECT022
10
0
20
0
30
0
70
128
71
2
72
3
73
-4
0
VERTEX
8
OBJECT022
10
0
20
0
30
0
70
128
71
-2
72
4
73
1
0
VERTEX
8
OBJECT022
10
0
20
0
30
0
70
128
71
6
72
7
73
-8
0
VERTEX
8
OBJECT022
10
0
20
0
30
0
70
128
71
-6
72
8
73
5
0
VERTEX
8
OBJECT022
10
0
20
0
30
0
70
128
71
6
72
5
73
-2
0
VERTEX
8
OBJECT022
10
0
20
0
30
0
70
128
71
-6
72
2
73
1
0
VERTEX
8
OBJECT022
10
0
20
0
30
0
70
128
71
4
72
3
73
-8
0
VERTEX
8
OBJECT022
10
0
20
0
30
0
70
128
71
-4
72
8
73
7
0
VERTEX
8
OBJECT022
10
0
20
0
30
0
70
128
71
7
72
6
73
-1
0
VERTEX
8
OBJECT022
10
0
20
0
30
0
70
128
71
-7
72
1
73
4
0
VERTEX
8
OBJECT022
10
0
20
0
30
0
70
128
71
3
72
2
73
-5
0
VERTEX
8
OBJECT022
10
0
20
0
30
0
70
128
71
-3
72
5
73
8
0
SEQEND
8
OBJECT022
0
POLYLINE
8
OBJECT023
66
1
70
64
71
8
72
12
62
50
0
VERTEX
8
OBJECT023
10
-48.000000
20
240.000031
30
192.000000
70
192
0
VERTEX
8
OBJECT023
10
48.000000
20
240.000031
30
192.000000
70
192
0
VERTEX
8
OBJECT023
10
48.000000
20
-383.999969
30
192.000000
70
192
0
VERTEX
8
OBJECT023
10
-48.000000
20
-383.999969
30
192.000000
70
192
0
VERTEX
8
OBJECT023
10
-48.000000
20
-383.999969
30
128.000000
70
192
0
VERTEX
8
OBJECT023
10
48.000000
20
-383.999969
30
128.000000
70
192
0
VERTEX
8
OBJECT023
10
48.000000
20
240.000031
30
128.000000
70
192
0
VERTEX
8
OBJECT023
10
-48.000000
20
240.000031
30
128.000000
70
192
0
VERTEX
8
OBJECT023
10
0
20
0
30
0
70
128
71
2
72
3
73
-4
0
VERTEX
8
OBJECT023
10
0
20
0
30
0
70
128
71
-2
72
4
73
1
0
VERTEX
8
OBJECT023
10
0
20
0
30
0
70
128
71
6
72
7
73
-8
0
VERTEX
8
OBJECT023
10
0
20
0
30
0
70
128
71
-6
72
8
73
5
0
VERTEX
8
OBJECT023
10
0
20
0
30
0
70
128
71
4
72
5
73
-8
0
VERTEX
8
OBJECT023
10
0
20
0
30
0
70
128
71
-4
72
8
73
1
0
VERTEX
8
OBJECT023
10
0
20
0
30
0
70
128
71
6
72
3
73
-2
0
VERTEX
8
OBJECT023
10
0
20
0
30
0
70
128
71
-6
72
2
73
7
0
VERTEX
8
OBJECT023
10
0
20
0
30
0
70
128
71
1
72
8
73
-7
0
VERTEX
8
OBJECT023
10
0
20
0
30
0
70
128
71
-1
72
7
73
2
0
VERTEX
8
OBJECT023
10
0
20
0
30
0
70
128
71
5
72
4
73
-3
0
VERTEX
8
OBJECT023
10
0
20
0
30
0
70
128
71
-5
72
3
73
6
0
SEQEND
8
OBJECT023
0
POLYLINE
8
OBJECT024
66
1
70
64
71
8
72
12
62
50
0
VERTEX
8
OBJECT024
10
224.000000
20
-447.999969
30
64.000000
70
192
0
VERTEX
8
OBJECT024
10
48.000000
20
-447.999969
30
176.000000
70
192
0
VERTEX
8
OBJECT024
10
48.000000
20
-383.999969
30
176.000000
70
192
0
VERTEX
8
OBJECT024
10
224.000000
20
-383.999969
30
64.000000
70
192
0
VERTEX
8
OBJECT024
10
224.000000
20
-383.999969
30
-32.000000
70
192
0
VERTEX
8
OBJECT024
10
48.000000
20
-383.999969
30
-32.000000
70
192
0
VERTEX
8
OBJECT024
10
48.000000
20
-447.999969
30
-32.000000
70
192
0
VERTEX
8
OBJECT024
10
224.000000
20
-447.999969
30
-32.000000
70
192
0
VERTEX
8
OBJECT024
10
0
20
0
30
0
70
128
71
2
72
3
73
-4
0
VERTEX
8
OBJECT024
10
0
20
0
30
0
70
128
71
-2
72
4
73
1
0
VERTEX
8
OBJECT024
10
0
20
0
30
0
70
128
71
6
72
7
73
-8
0
VERTEX
8
OBJECT024
10
0
20
0
30
0
70
128
71
-6
72
8
73
5
0
VERTEX
8
OBJECT024
10
0
20
0
30
0
70
128
71
8
72
1
73
-4
0
VERTEX
8
OBJECT024
10
0
20
0
30
0
70
128
71
-8
72
4
73
5
0
VERTEX
8
OBJECT024
10
0
20
0
30
0
70
128
71
2
72
7
73
-6
0
VERTEX
8
OBJECT024
10
0
20
0
30
0
70
128
71
-2
72
6
73
3
0
VERTEX
8
OBJECT024
10
0
20
0
30
0
70
128
71
5
72
4
73
-3
0
VERTEX
8
OBJECT024
10
0
20
0
30
0
70
128
71
-5
72
3
73
6
0
VERTEX
8
OBJECT024
10
0
20
0
30
0
70
128
71
1
72
8
73
-7
0
VERTEX
8
OBJECT024
10
0
20
0
30
0
70
128
71
-1
72
7
73
2
0
SEQEND
8
OBJECT024
0
POLYLINE
8
OBJECT025
66
1
70
64
71
8
72
12
62
50
0
VERTEX
8
OBJECT025
10
-48.000000
20
-383.999969
30
192.000061
70
192
0
VERTEX
8
OBJECT025
10
48.000000
20
-383.999969
30
192.000061
70
192
0
VERTEX
8
OBJECT025
10
48.000000
20
-448.000031
30
192.000061
70
192
0
VERTEX
8
OBJECT025
10
-48.000000
20
-448.000031
30
192.000061
70
192
0
VERTEX
8
OBJECT025
10
-48.000000
20
-448.000031
30
-127.999939
70
192
0
VERTEX
8
OBJECT025
10
48.000000
20
-448.000031
30
-127.999939
70
192
0
VERTEX
8
OBJECT025
10
48.000000
20
-383.999969
30
-127.999939
70
192
0
VERTEX
8
OBJECT025
10
-48.000000
20
-383.999969
30
-127.999939
70
192
0
VERTEX
8
OBJECT025
10
0
20
0
30
0
70
128
71
2
72
3
73
-4
0
VERTEX
8
OBJECT025
10
0
20
0
30
0
70
128
71
-2
72
4
73
1
0
VERTEX
8
OBJECT025
10
0
20
0
30
0
70
128
71
6
72
7
73
-8
0
VERTEX
8
OBJECT025
10
0
20
0
30
0
70
128
71
-6
72
8
73
5
0
VERTEX
8
OBJECT025
10
0
20
0
30
0
70
128
71
4
72
5
73
-8
0
VERTEX
8
OBJECT025
10
0
20
0
30
0
70
128
71
-4
72
8
73
1
0
VERTEX
8
OBJECT025
10
0
20
0
30
0
70
128
71
6
72
3
73
-2
0
VERTEX
8
OBJECT025
10
0
20
0
30
0
70
128
71
-6
72
2
73
7
0
VERTEX
8
OBJECT025
10
0
20
0
30
0
70
128
71
1
72
8
73
-7
0
VERTEX
8
OBJECT025
10
0
20
0
30
0
70
128
71
-1
72
7
73
2
0
VERTEX
8
OBJECT025
10
0
20
0
30
0
70
128
71
5
72
4
73
-3
0
VERTEX
8
OBJECT025
10
0
20
0
30
0
70
128
71
-5
72
3
73
6
0
SEQEND
8
OBJECT025
0
POLYLINE
8
OBJECT026
66
1
70
64
71
8
72
12
62
50
0
VERTEX
8
OBJECT026
10
224.000000
20
-383.999969
30
64.000000
70
192
0
VERTEX
8
OBJECT026
10
256.000000
20
-383.999969
30
64.000000
70
192
0
VERTEX
8
OBJECT026
10
256.000000
20
-447.999969
30
64.000000
70
192
0
VERTEX
8
OBJECT026
10
224.000000
20
-447.999969
30
64.000000
70
192
0
VERTEX
8
OBJECT026
10
224.000000
20
-447.999969
30
-128.000000
70
192
0
VERTEX
8
OBJECT026
10
256.000000
20
-447.999969
30
-128.000000
70
192
0
VERTEX
8
OBJECT026
10
256.000000
20
-383.999969
30
-128.000000
70
192
0
VERTEX
8
OBJECT026
10
224.000000
20
-383.999969
30
-128.000000
70
192
0
VERTEX
8
OBJECT026
10
0
20
0
30
0
70
128
71
2
72
3
73
-4
0
VERTEX
8
OBJECT026
10
0
20
0
30
0
70
128
71
-2
72
4
73
1
0
VERTEX
8
OBJECT026
10
0
20
0
30
0
70
128
71
6
72
7
73
-8
0
VERTEX
8
OBJECT026
10
0
20
0
30
0
70
128
71
-6
72
8
73
5
0
VERTEX
8
OBJECT026
10
0
20
0
30
0
70
128
71
4
72
5
73
-8
0
VERTEX
8
OBJECT026
10
0
20
0
30
0
70
128
71
-4
72
8
73
1
0
VERTEX
8
OBJECT026
10
0
20
0
30
0
70
128
71
6
72
3
73
-2
0
VERTEX
8
OBJECT026
10
0
20
0
30
0
70
128
71
-6
72
2
73
7
0
VERTEX
8
OBJECT026
10
0
20
0
30
0
70
128
71
1
72
8
73
-7
0
VERTEX
8
OBJECT026
10
0
20
0
30
0
70
128
71
-1
72
7
73
2
0
VERTEX
8
OBJECT026
10
0
20
0
30
0
70
128
71
5
72
4
73
-3
0
VERTEX
8
OBJECT026
10
0
20
0
30
0
70
128
71
-5
72
3
73
6
0
SEQEND
8
OBJECT026
0
POLYLINE
8
OBJECT027
66
1
70
64
71
8
72
12
62
50
0
VERTEX
8
OBJECT027
10
-256.000000
20
-383.999969
30
64.000000
70
192
0
VERTEX
8
OBJECT027
10
-224.000000
20
-383.999969
30
64.000000
70
192
0
VERTEX
8
OBJECT027
10
-224.000000
20
-447.999969
30
64.000000
70
192
0
VERTEX
8
OBJECT027
10
-256.000000
20
-447.999969
30
64.000000
70
192
0
VERTEX
8
OBJECT027
10
-256.000000
20
-447.999969
30
-128.000000
70
192
0
VERTEX
8
OBJECT027
10
-224.000000
20
-447.999969
30
-128.000000
70
192
0
VERTEX
8
OBJECT027
10
-224.000000
20
-383.999969
30
-128.000000
70
192
0
VERTEX
8
OBJECT027
10
-256.000000
20
-383.999969
30
-128.000000
70
192
0
VERTEX
8
OBJECT027
10
0
20
0
30
0
70
128
71
2
72
3
73
-4
0
VERTEX
8
OBJECT027
10
0
20
0
30
0
70
128
71
-2
72
4
73
1
0
VERTEX
8
OBJECT027
10
0
20
0
30
0
70
128
71
6
72
7
73
-8
0
VERTEX
8
OBJECT027
10
0
20
0
30
0
70
128
71
-6
72
8
73
5
0
VERTEX
8
OBJECT027
10
0
20
0
30
0
70
128
71
4
72
5
73
-8
0
VERTEX
8
OBJECT027
10
0
20
0
30
0
70
128
71
-4
72
8
73
1
0
VERTEX
8
OBJECT027
10
0
20
0
30
0
70
128
71
6
72
3
73
-2
0
VERTEX
8
OBJECT027
10
0
20
0
30
0
70
128
71
-6
72
2
73
7
0
VERTEX
8
OBJECT027
10
0
20
0
30
0
70
128
71
1
72
8
73
-7
0
VERTEX
8
OBJECT027
10
0
20
0
30
0
70
128
71
-1
72
7
73
2
0
VERTEX
8
OBJECT027
10
0
20
0
30
0
70
128
71
5
72
4
73
-3
0
VERTEX
8
OBJECT027
10
0
20
0
30
0
70
128
71
-5
72
3
73
6
0
SEQEND
8
OBJECT027
0
POLYLINE
8
OBJECT028
66
1
70
64
71
8
72
12
62
50
0
VERTEX
8
OBJECT028
10
0.000000
20
512.000000
30
-64.000000
70
192
0
VERTEX
8
OBJECT028
10
0.000000
20
576.000000
30
-64.000000
70
192
0
VERTEX
8
OBJECT028
10
256.000000
20
448.000031
30
-64.000000
70
192
0
VERTEX
8
OBJECT028
10
224.000000
20
416.000031
30
-64.000000
70
192
0
VERTEX
8
OBJECT028
10
0.000000
20
576.000000
30
-128.000000
70
192
0
VERTEX
8
OBJECT028
10
0.000000
20
512.000000
30
-128.000000
70
192
0
VERTEX
8
OBJECT028
10
224.000000
20
416.000031
30
-128.000000
70
192
0
VERTEX
8
OBJECT028
10
256.000000
20
448.000031
30
-128.000000
70
192
0
VERTEX
8
OBJECT028
10
0
20
0
30
0
70
128
71
2
72
3
73
-4
0
VERTEX
8
OBJECT028
10
0
20
0
30
0
70
128
71
-2
72
4
73
1
0
VERTEX
8
OBJECT028
10
0
20
0
30
0
70
128
71
6
72
7
73
-8
0
VERTEX
8
OBJECT028
10
0
20
0
30
0
70
128
71
-6
72
8
73
5
0
VERTEX
8
OBJECT028
10
0
20
0
30
0
70
128
71
4
72
3
73
-8
0
VERTEX
8
OBJECT028
10
0
20
0
30
0
70
128
71
-4
72
8
73
7
0
VERTEX
8
OBJECT028
10
0
20
0
30
0
70
128
71
6
72
5
73
-2
0
VERTEX
8
OBJECT028
10
0
20
0
30
0
70
128
71
-6
72
2
73
1
0
VERTEX
8
OBJECT028
10
0
20
0
30
0
70
128
71
3
72
2
73
-5
0
VERTEX
8
OBJECT028
10
0
20
0
30
0
70
128
71
-3
72
5
73
8
0
VERTEX
8
OBJECT028
10
0
20
0
30
0
70
128
71
7
72
6
73
-1
0
VERTEX
8
OBJECT028
10
0
20
0
30
0
70
128
71
-7
72
1
73
4
0
SEQEND
8
OBJECT028
0
POLYLINE
8
OBJECT029
66
1
70
64
71
8
72
12
62
50
0
VERTEX
8
OBJECT029
10
0.000000
20
512.000000
30
64.000000
70
192
0
VERTEX
8
OBJECT029
10
0.000000
20
576.000000
30
64.000000
70
192
0
VERTEX
8
OBJECT029
10
256.000000
20
448.000031
30
64.000000
70
192
0
VERTEX
8
OBJECT029
10
224.000000
20
416.000031
30
64.000000
70
192
0
VERTEX
8
OBJECT029
10
0.000000
20
576.000000
30
32.000000
70
192
0
VERTEX
8
OBJECT029
10
0.000000
20
512.000000
30
32.000000
70
192
0
VERTEX
8
OBJECT029
10
224.000000
20
416.000031
30
32.000000
70
192
0
VERTEX
8
OBJECT029
10
256.000000
20
448.000031
30
32.000000
70
192
0
VERTEX
8
OBJECT029
10
0
20
0
30
0
70
128
71
2
72
3
73
-4
0
VERTEX
8
OBJECT029
10
0
20
0
30
0
70
128
71
-2
72
4
73
1
0
VERTEX
8
OBJECT029
10
0
20
0
30
0
70
128
71
6
72
7
73
-8
0
VERTEX
8
OBJECT029
10
0
20
0
30
0
70
128
71
-6
72
8
73
5
0
VERTEX
8
OBJECT029
10
0
20
0
30
0
70
128
71
4
72
3
73
-8
0
VERTEX
8
OBJECT029
10
0
20
0
30
0
70
128
71
-4
72
8
73
7
0
VERTEX
8
OBJECT029
10
0
20
0
30
0
70
128
71
6
72
5
73
-2
0
VERTEX
8
OBJECT029
10
0
20
0
30
0
70
128
71
-6
72
2
73
1
0
VERTEX
8
OBJECT029
10
0
20
0
30
0
70
128
71
3
72
2
73
-5
0
VERTEX
8
OBJECT029
10
0
20
0
30
0
70
128
71
-3
72
5
73
8
0
VERTEX
8
OBJECT029
10
0
20
0
30
0
70
128
71
7
72
6
73
-1
0
VERTEX
8
OBJECT029
10
0
20
0
30
0
70
128
71
-7
72
1
73
4
0
SEQEND
8
OBJECT029
0
POLYLINE
8
OBJECT030
66
1
70
64
71
8
72
12
62
50
0
VERTEX
8
OBJECT030
10
224.000000
20
-383.999969
30
64.000000
70
192
0
VERTEX
8
OBJECT030
10
224.000000
20
416.000031
30
64.000000
70
192
0
VERTEX
8
OBJECT030
10
256.000000
20
448.000031
30
64.000000
70
192
0
VERTEX
8
OBJECT030
10
256.000000
20
-383.999969
30
64.000000
70
192
0
VERTEX
8
OBJECT030
10
224.000000
20
416.000031
30
32.000000
70
192
0
VERTEX
8
OBJECT030
10
224.000000
20
-383.999969
30
32.000000
70
192
0
VERTEX
8
OBJECT030
10
256.000000
20
-383.999969
30
32.000000
70
192
0
VERTEX
8
OBJECT030
10
256.000000
20
448.000031
30
32.000000
70
192
0
VERTEX
8
OBJECT030
10
0
20
0
30
0
70
128
71
2
72
3
73
-4
0
VERTEX
8
OBJECT030
10
0
20
0
30
0
70
128
71
-2
72
4
73
1
0
VERTEX
8
OBJECT030
10
0
20
0
30
0
70
128
71
6
72
7
73
-8
0
VERTEX
8
OBJECT030
10
0
20
0
30
0
70
128
71
-6
72
8
73
5
0
VERTEX
8
OBJECT030
10
0
20
0
30
0
70
128
71
4
72
3
73
-8
0
VERTEX
8
OBJECT030
10
0
20
0
30
0
70
128
71
-4
72
8
73
7
0
VERTEX
8
OBJECT030
10
0
20
0
30
0
70
128
71
6
72
5
73
-2
0
VERTEX
8
OBJECT030
10
0
20
0
30
0
70
128
71
-6
72
2
73
1
0
VERTEX
8
OBJECT030
10
0
20
0
30
0
70
128
71
3
72
2
73
-5
0
VERTEX
8
OBJECT030
10
0
20
0
30
0
70
128
71
-3
72
5
73
8
0
VERTEX
8
OBJECT030
10
0
20
0
30
0
70
128
71
7
72
6
73
-1
0
VERTEX
8
OBJECT030
10
0
20
0
30
0
70
128
71
-7
72
1
73
4
0
SEQEND
8
OBJECT030
0
POLYLINE
8
OBJECT031
66
1
70
64
71
8
72
12
62
50
0
VERTEX
8
OBJECT031
10
232.000000
20
424.000031
30
32.000000
70
192
0
VERTEX
8
OBJECT031
10
248.000000
20
440.000031
30
32.000000
70
192
0
VERTEX
8
OBJECT031
10
248.000000
20
-383.999969
30
32.000000
70
192
0
VERTEX
8
OBJECT031
10
232.000000
20
-383.999969
30
32.000000
70
192
0
VERTEX
8
OBJECT031
10
232.000000
20
-383.999969
30
-64.000000
70
192
0
VERTEX
8
OBJECT031
10
248.000000
20
-383.999969
30
-64.000000
70
192
0
VERTEX
8
OBJECT031
10
248.000000
20
440.000031
30
-64.000000
70
192
0
VERTEX
8
OBJECT031
10
232.000000
20
424.000031
30
-64.000000
70
192
0
VERTEX
8
OBJECT031
10
0
20
0
30
0
70
128
71
2
72
3
73
-4
0
VERTEX
8
OBJECT031
10
0
20
0
30
0
70
128
71
-2
72
4
73
1
0
VERTEX
8
OBJECT031
10
0
20
0
30
0
70
128
71
6
72
7
73
-8
0
VERTEX
8
OBJECT031
10
0
20
0
30
0
70
128
71
-6
72
8
73
5
0
VERTEX
8
OBJECT031
10
0
20
0
30
0
70
128
71
4
72
5
73
-8
0
VERTEX
8
OBJECT031
10
0
20
0
30
0
70
128
71
-4
72
8
73
1
0
VERTEX
8
OBJECT031
10
0
20
0
30
0
70
128
71
6
72
3
73
-2
0
VERTEX
8
OBJECT031
10
0
20
0
30
0
70
128
71
-6
72
2
73
7
0
VERTEX
8
OBJECT031
10
0
20
0
30
0
70
128
71
1
72
8
73
-7
0
VERTEX
8
OBJECT031
10
0
20
0
30
0
70
128
71
-1
72
7
73
2
0
VERTEX
8
OBJECT031
10
0
20
0
30
0
70
128
71
5
72
4
73
-3
0
VERTEX
8
OBJECT031
10
0
20
0
30
0
70
128
71
-5
72
3
73
6
0
SEQEND
8
OBJECT031
0
POLYLINE
8
OBJECT032
66
1
70
64
71
8
72
12
62
50
0
VERTEX
8
OBJECT032
10
224.000000
20
-383.999969
30
-64.000000
70
192
0
VERTEX
8
OBJECT032
10
224.000000
20
416.000031
30
-64.000000
70
192
0
VERTEX
8
OBJECT032
10
256.000000
20
448.000031
30
-64.000000
70
192
0
VERTEX
8
OBJECT032
10
256.000000
20
-383.999969
30
-64.000000
70
192
0
VERTEX
8
OBJECT032
10
224.000000
20
416.000031
30
-128.000000
70
192
0
VERTEX
8
OBJECT032
10
224.000000
20
-383.999969
30
-128.000000
70
192
0
VERTEX
8
OBJECT032
10
256.000000
20
-383.999969
30
-128.000000
70
192
0
VERTEX
8
OBJECT032
10
256.000000
20
448.000031
30
-128.000000
70
192
0
VERTEX
8
OBJECT032
10
0
20
0
30
0
70
128
71
2
72
3
73
-4
0
VERTEX
8
OBJECT032
10
0
20
0
30
0
70
128
71
-2
72
4
73
1
0
VERTEX
8
OBJECT032
10
0
20
0
30
0
70
128
71
6
72
7
73
-8
0
VERTEX
8
OBJECT032
10
0
20
0
30
0
70
128
71
-6
72
8
73
5
0
VERTEX
8
OBJECT032
10
0
20
0
30
0
70
128
71
4
72
3
73
-8
0
VERTEX
8
OBJECT032
10
0
20
0
30
0
70
128
71
-4
72
8
73
7
0
VERTEX
8
OBJECT032
10
0
20
0
30
0
70
128
71
6
72
5
73
-2
0
VERTEX
8
OBJECT032
10
0
20
0
30
0
70
128
71
-6
72
2
73
1
0
VERTEX
8
OBJECT032
10
0
20
0
30
0
70
128
71
3
72
2
73
-5
0
VERTEX
8
OBJECT032
10
0
20
0
30
0
70
128
71
-3
72
5
73
8
0
VERTEX
8
OBJECT032
10
0
20
0
30
0
70
128
71
7
72
6
73
-1
0
VERTEX
8
OBJECT032
10
0
20
0
30
0
70
128
71
-7
72
1
73
4
0
SEQEND
8
OBJECT032
0
POLYLINE
8
OBJECT033
66
1
70
64
71
8
72
12
62
50
0
VERTEX
8
OBJECT033
10
0.000000
20
512.000000
30
-80.000000
70
192
0
VERTEX
8
OBJECT033
10
224.000000
20
416.000031
30
-80.000000
70
192
0
VERTEX
8
OBJECT033
10
224.000000
20
64.000031
30
-80.000000
70
192
0
VERTEX
8
OBJECT033
10
0.000000
20
64.000031
30
-80.000000
70
192
0
VERTEX
8
OBJECT033
10
0.000000
20
64.000031
30
-128.000000
70
192
0
VERTEX
8
OBJECT033
10
224.000000
20
64.000031
30
-128.000000
70
192
0
VERTEX
8
OBJECT033
10
224.000000
20
416.000031
30
-128.000000
70
192
0
VERTEX
8
OBJECT033
10
0.000000
20
512.000000
30
-128.000000
70
192
0
VERTEX
8
OBJECT033
10
0
20
0
30
0
70
128
71
2
72
3
73
-4
0
VERTEX
8
OBJECT033
10
0
20
0
30
0
70
128
71
-2
72
4
73
1
0
VERTEX
8
OBJECT033
10
0
20
0
30
0
70
128
71
6
72
7
73
-8
0
VERTEX
8
OBJECT033
10
0
20
0
30
0
70
128
71
-6
72
8
73
5
0
VERTEX
8
OBJECT033
10
0
20
0
30
0
70
128
71
2
72
7
73
-6
0
VERTEX
8
OBJECT033
10
0
20
0
30
0
70
128
71
-2
72
6
73
3
0
VERTEX
8
OBJECT033
10
0
20
0
30
0
70
128
71
8
72
1
73
-4
0
VERTEX
8
OBJECT033
10
0
20
0
30
0
70
128
71
-8
72
4
73
5
0
VERTEX
8
OBJECT033
10
0
20
0
30
0
70
128
71
1
72
8
73
-7
0
VERTEX
8
OBJECT033
10
0
20
0
30
0
70
128
71
-1
72
7
73
2
0
VERTEX
8
OBJECT033
10
0
20
0
30
0
70
128
71
5
72
4
73
-3
0
VERTEX
8
OBJECT033
10
0
20
0
30
0
70
128
71
-5
72
3
73
6
0
SEQEND
8
OBJECT033
0
POLYLINE
8
OBJECT034
66
1
70
64
71
8
72
12
62
50
0
VERTEX
8
OBJECT034
10
0.000000
20
560.000000
30
32.000000
70
192
0
VERTEX
8
OBJECT034
10
0.000000
20
528.000000
30
32.000000
70
192
0
VERTEX
8
OBJECT034
10
-232.000000
20
424.000031
30
32.000000
70
192
0
VERTEX
8
OBJECT034
10
-248.000000
20
440.000031
30
32.000000
70
192
0
VERTEX
8
OBJECT034
10
0.000000
20
528.000000
30
-64.000000
70
192
0
VERTEX
8
OBJECT034
10
0.000000
20
560.000000
30
-64.000000
70
192
0
VERTEX
8
OBJECT034
10
-248.000000
20
440.000031
30
-64.000000
70
192
0
VERTEX
8
OBJECT034
10
-232.000000
20
424.000031
30
-64.000000
70
192
0
VERTEX
8
OBJECT034
10
0
20
0
30
0
70
128
71
2
72
3
73
-4
0
VERTEX
8
OBJECT034
10
0
20
0
30
0
70
128
71
-2
72
4
73
1
0
VERTEX
8
OBJECT034
10
0
20
0
30
0
70
128
71
6
72
7
73
-8
0
VERTEX
8
OBJECT034
10
0
20
0
30
0
70
128
71
-6
72
8
73
5
0
VERTEX
8
OBJECT034
10
0
20
0
30
0
70
128
71
8
72
7
73
-4
0
VERTEX
8
OBJECT034
10
0
20
0
30
0
70
128
71
-8
72
4
73
3
0
VERTEX
8
OBJECT034
10
0
20
0
30
0
70
128
71
2
72
1
73
-6
0
VERTEX
8
OBJECT034
10
0
20
0
30
0
70
128
71
-2
72
6
73
5
0
VERTEX
8
OBJECT034
10
0
20
0
30
0
70
128
71
7
72
6
73
-1
0
VERTEX
8
OBJECT034
10
0
20
0
30
0
70
128
71
-7
72
1
73
4
0
VERTEX
8
OBJECT034
10
0
20
0
30
0
70
128
71
3
72
2
73
-5
0
VERTEX
8
OBJECT034
10
0
20
0
30
0
70
128
71
-3
72
5
73
8
0
SEQEND
8
OBJECT034
0
POLYLINE
8
OBJECT035
66
1
70
64
71
8
72
12
62
50
0
VERTEX
8
OBJECT035
10
248.000000
20
440.000031
30
32.000000
70
192
0
VERTEX
8
OBJECT035
10
232.000000
20
424.000031
30
32.000000
70
192
0
VERTEX
8
OBJECT035
10
0.000000
20
528.000000
30
32.000000
70
192
0
VERTEX
8
OBJECT035
10
0.000000
20
560.000000
30
32.000000
70
192
0
VERTEX
8
OBJECT035
10
232.000000
20
424.000031
30
-64.000000
70
192
0
VERTEX
8
OBJECT035
10
248.000000
20
440.000031
30
-64.000000
70
192
0
VERTEX
8
OBJECT035
10
0.000000
20
560.000000
30
-64.000000
70
192
0
VERTEX
8
OBJECT035
10
0.000000
20
528.000000
30
-64.000000
70
192
0
VERTEX
8
OBJECT035
10
0
20
0
30
0
70
128
71
2
72
3
73
-4
0
VERTEX
8
OBJECT035
10
0
20
0
30
0
70
128
71
-2
72
4
73
1
0
VERTEX
8
OBJECT035
10
0
20
0
30
0
70
128
71
6
72
7
73
-8
0
VERTEX
8
OBJECT035
10
0
20
0
30
0
70
128
71
-6
72
8
73
5
0
VERTEX
8
OBJECT035
10
0
20
0
30
0
70
128
71
6
72
5
73
-2
0
VERTEX
8
OBJECT035
10
0
20
0
30
0
70
128
71
-6
72
2
73
1
0
VERTEX
8
OBJECT035
10
0
20
0
30
0
70
128
71
4
72
3
73
-8
0
VERTEX
8
OBJECT035
10
0
20
0
30
0
70
128
71
-4
72
8
73
7
0
VERTEX
8
OBJECT035
10
0
20
0
30
0
70
128
71
7
72
6
73
-1
0
VERTEX
8
OBJECT035
10
0
20
0
30
0
70
128
71
-7
72
1
73
4
0
VERTEX
8
OBJECT035
10
0
20
0
30
0
70
128
71
3
72
2
73
-5
0
VERTEX
8
OBJECT035
10
0
20
0
30
0
70
128
71
-3
72
5
73
8
0
SEQEND
8
OBJECT035
0
POLYLINE
8
OBJECT036
66
1
70
64
71
8
72
12
62
50
0
VERTEX
8
OBJECT036
10
-48.000000
20
336.000031
30
192.000000
70
192
0
VERTEX
8
OBJECT036
10
-48.000000
20
320.000031
30
192.000000
70
192
0
VERTEX
8
OBJECT036
10
-128.000000
20
320.000031
30
144.000000
70
192
0
VERTEX
8
OBJECT036
10
-128.000000
20
336.000031
30
144.000000
70
192
0
VERTEX
8
OBJECT036
10
-48.000000
20
320.000031
30
64.000000
70
192
0
VERTEX
8
OBJECT036
10
-48.000000
20
336.000031
30
64.000000
70
192
0
VERTEX
8
OBJECT036
10
-256.000000
20
336.000031
30
64.000000
70
192
0
VERTEX
8
OBJECT036
10
-256.000000
20
320.000031
30
64.000000
70
192
0
VERTEX
8
OBJECT036
10
0
20
0
30
0
70
128
71
2
72
3
73
-4
0
VERTEX
8
OBJECT036
10
0
20
0
30
0
70
128
71
-2
72
4
73
1
0
VERTEX
8
OBJECT036
10
0
20
0
30
0
70
128
71
6
72
7
73
-8
0
VERTEX
8
OBJECT036
10
0
20
0
30
0
70
128
71
-6
72
8
73
5
0
VERTEX
8
OBJECT036
10
0
20
0
30
0
70
128
71
8
72
7
73
-4
0
VERTEX
8
OBJECT036
10
0
20
0
30
0
70
128
71
-8
72
4
73
3
0
VERTEX
8
OBJECT036
10
0
20
0
30
0
70
128
71
2
72
1
73
-6
0
VERTEX
8
OBJECT036
10
0
20
0
30
0
70
128
71
-2
72
6
73
5
0
VERTEX
8
OBJECT036
10
0
20
0
30
0
70
128
71
7
72
6
73
-1
0
VERTEX
8
OBJECT036
10
0
20
0
30
0
70
128
71
-7
72
1
73
4
0
VERTEX
8
OBJECT036
10
0
20
0
30
0
70
128
71
3
72
2
73
-5
0
VERTEX
8
OBJECT036
10
0
20
0
30
0
70
128
71
-3
72
5
73
8
0
SEQEND
8
OBJECT036
0
POLYLINE
8
OBJECT037
66
1
70
64
71
8
72
12
62
50
0
VERTEX
8
OBJECT037
10
128.000000
20
336.000031
30
144.000000
70
192
0
VERTEX
8
OBJECT037
10
128.000000
20
320.000031
30
144.000000
70
192
0
VERTEX
8
OBJECT037
10
48.000000
20
320.000031
30
192.000000
70
192
0
VERTEX
8
OBJECT037
10
48.000000
20
336.000031
30
192.000000
70
192
0
VERTEX
8
OBJECT037
10
256.000000
20
320.000031
30
64.000000
70
192
0
VERTEX
8
OBJECT037
10
256.000000
20
336.000031
30
64.000000
70
192
0
VERTEX
8
OBJECT037
10
48.000000
20
336.000031
30
64.000000
70
192
0
VERTEX
8
OBJECT037
10
48.000000
20
320.000031
30
64.000000
70
192
0
VERTEX
8
OBJECT037
10
0
20
0
30
0
70
128
71
2
72
3
73
-4
0
VERTEX
8
OBJECT037
10
0
20
0
30
0
70
128
71
-2
72
4
73
1
0
VERTEX
8
OBJECT037
10
0
20
0
30
0
70
128
71
6
72
7
73
-8
0
VERTEX
8
OBJECT037
10
0
20
0
30
0
70
128
71
-6
72
8
73
5
0
VERTEX
8
OBJECT037
10
0
20
0
30
0
70
128
71
6
72
5
73
-2
0
VERTEX
8
OBJECT037
10
0
20
0
30
0
70
128
71
-6
72
2
73
1
0
VERTEX
8
OBJECT037
10
0
20
0
30
0
70
128
71
4
72
3
73
-8
0
VERTEX
8
OBJECT037
10
0
20
0
30
0
70
128
71
-4
72
8
73
7
0
VERTEX
8
OBJECT037
10
0
20
0
30
0
70
128
71
7
72
6
73
-1
0
VERTEX
8
OBJECT037
10
0
20
0
30
0
70
128
71
-7
72
1
73
4
0
VERTEX
8
OBJECT037
10
0
20
0
30
0
70
128
71
3
72
2
73
-5
0
VERTEX
8
OBJECT037
10
0
20
0
30
0
70
128
71
-3
72
5
73
8
0
SEQEND
8
OBJECT037
0
POLYLINE
8
OBJECT038
66
1
70
64
71
8
72
12
62
50
0
VERTEX
8
OBJECT038
10
48.000000
20
240.000031
30
192.000000
70
192
0
VERTEX
8
OBJECT038
10
-48.000000
20
240.000031
30
192.000000
70
192
0
VERTEX
8
OBJECT038
10
-48.000000
20
320.000031
30
192.000000
70
192
0
VERTEX
8
OBJECT038
10
48.000000
20
320.000031
30
192.000000
70
192
0
VERTEX
8
OBJECT038
10
48.000000
20
320.000031
30
64.000000
70
192
0
VERTEX
8
OBJECT038
10
-48.000000
20
320.000031
30
64.000000
70
192
0
VERTEX
8
OBJECT038
10
-48.000000
20
240.000031
30
128.000000
70
192
0
VERTEX
8
OBJECT038
10
48.000000
20
240.000031
30
128.000000
70
192
0
VERTEX
8
OBJECT038
10
0
20
0
30
0
70
128
71
2
72
3
73
-4
0
VERTEX
8
OBJECT038
10
0
20
0
30
0
70
128
71
-2
72
4
73
1
0
VERTEX
8
OBJECT038
10
0
20
0
30
0
70
128
71
6
72
7
73
-8
0
VERTEX
8
OBJECT038
10
0
20
0
30
0
70
128
71
-6
72
8
73
5
0
VERTEX
8
OBJECT038
10
0
20
0
30
0
70
128
71
6
72
3
73
-2
0
VERTEX
8
OBJECT038
10
0
20
0
30
0
70
128
71
-6
72
2
73
7
0
VERTEX
8
OBJECT038
10
0
20
0
30
0
70
128
71
4
72
5
73
-8
0
VERTEX
8
OBJECT038
10
0
20
0
30
0
70
128
71
-4
72
8
73
1
0
VERTEX
8
OBJECT038
10
0
20
0
30
0
70
128
71
5
72
4
73
-3
0
VERTEX
8
OBJECT038
10
0
20
0
30
0
70
128
71
-5
72
3
73
6
0
VERTEX
8
OBJECT038
10
0
20
0
30
0
70
128
71
1
72
8
73
-7
0
VERTEX
8
OBJECT038
10
0
20
0
30
0
70
128
71
-1
72
7
73
2
0
SEQEND
8
OBJECT038
0
POLYLINE
8
OBJECT039
66
1
70
64
71
8
72
12
62
50
0
VERTEX
8
OBJECT039
10
48.000000
20
320.000031
30
192.000000
70
192
0
VERTEX
8
OBJECT039
10
-48.000000
20
320.000031
30
192.000000
70
192
0
VERTEX
8
OBJECT039
10
-48.000000
20
336.000031
30
192.000000
70
192
0
VERTEX
8
OBJECT039
10
48.000000
20
336.000031
30
192.000000
70
192
0
VERTEX
8
OBJECT039
10
48.000000
20
336.000031
30
64.000000
70
192
0
VERTEX
8
OBJECT039
10
-48.000000
20
336.000031
30
64.000000
70
192
0
VERTEX
8
OBJECT039
10
-48.000000
20
320.000031
30
64.000000
70
192
0
VERTEX
8
OBJECT039
10
48.000000
20
320.000031
30
64.000000
70
192
0
VERTEX
8
OBJECT039
10
0
20
0
30
0
70
128
71
2
72
3
73
-4
0
VERTEX
8
OBJECT039
10
0
20
0
30
0
70
128
71
-2
72
4
73
1
0
VERTEX
8
OBJECT039
10
0
20
0
30
0
70
128
71
6
72
7
73
-8
0
VERTEX
8
OBJECT039
10
0
20
0
30
0
70
128
71
-6
72
8
73
5
0
VERTEX
8
OBJECT039
10
0
20
0
30
0
70
128
71
6
72
3
73
-2
0
VERTEX
8
OBJECT039
10
0
20
0
30
0
70
128
71
-6
72
2
73
7
0
VERTEX
8
OBJECT039
10
0
20
0
30
0
70
128
71
4
72
5
73
-8
0
VERTEX
8
OBJECT039
10
0
20
0
30
0
70
128
71
-4
72
8
73
1
0
VERTEX
8
OBJECT039
10
0
20
0
30
0
70
128
71
5
72
4
73
-3
0
VERTEX
8
OBJECT039
10
0
20
0
30
0
70
128
71
-5
72
3
73
6
0
VERTEX
8
OBJECT039
10
0
20
0
30
0
70
128
71
1
72
8
73
-7
0
VERTEX
8
OBJECT039
10
0
20
0
30
0
70
128
71
-1
72
7
73
2
0
SEQEND
8
OBJECT039
0
POLYLINE
8
OBJECT040
66
1
70
64
71
8
72
12
62
50
0
VERTEX
8
OBJECT040
10
-256.000000
20
336.000031
30
80.000000
70
192
0
VERTEX
8
OBJECT040
10
-256.000000
20
448.000031
30
80.000000
70
192
0
VERTEX
8
OBJECT040
10
0.000000
20
576.000000
30
192.000000
70
192
0
VERTEX
8
OBJECT040
10
0.000000
20
336.000031
30
192.000000
70
192
0
VERTEX
8
OBJECT040
10
-256.000000
20
448.000031
30
64.000000
70
192
0
VERTEX
8
OBJECT040
10
-256.000000
20
336.000031
30
64.000000
70
192
0
VERTEX
8
OBJECT040
10
0.000000
20
336.000031
30
64.000000
70
192
0
VERTEX
8
OBJECT040
10
0.000000
20
576.000000
30
64.000000
70
192
0
VERTEX
8
OBJECT040
10
0
20
0
30
0
70
128
71
2
72
3
73
-4
0
VERTEX
8
OBJECT040
10
0
20
0
30
0
70
128
71
-2
72
4
73
1
0
VERTEX
8
OBJECT040
10
0
20
0
30
0
70
128
71
6
72
7
73
-8
0
VERTEX
8
OBJECT040
10
0
20
0
30
0
70
128
71
-6
72
8
73
5
0
VERTEX
8
OBJECT040
10
0
20
0
30
0
70
128
71
2
72
1
73
-6
0
VERTEX
8
OBJECT040
10
0
20
0
30
0
70
128
71
-2
72
6
73
5
0
VERTEX
8
OBJECT040
10
0
20
0
30
0
70
128
71
8
72
7
73
-4
0
VERTEX
8
OBJECT040
10
0
20
0
30
0
70
128
71
-8
72
4
73
3
0
VERTEX
8
OBJECT040
10
0
20
0
30
0
70
128
71
3
72
2
73
-5
0
VERTEX
8
OBJECT040
10
0
20
0
30
0
70
128
71
-3
72
5
73
8
0
VERTEX
8
OBJECT040
10
0
20
0
30
0
70
128
71
7
72
6
73
-1
0
VERTEX
8
OBJECT040
10
0
20
0
30
0
70
128
71
-7
72
1
73
4
0
SEQEND
8
OBJECT040
0
POLYLINE
8
OBJECT041
66
1
70
64
71
8
72
12
62
50
0
VERTEX
8
OBJECT041
10
0.000000
20
336.000031
30
192.000000
70
192
0
VERTEX
8
OBJECT041
10
0.000000
20
576.000000
30
192.000000
70
192
0
VERTEX
8
OBJECT041
10
256.000000
20
448.000031
30
80.000000
70
192
0
VERTEX
8
OBJECT041
10
256.000000
20
336.000031
30
80.000000
70
192
0
VERTEX
8
OBJECT041
10
0.000000
20
576.000000
30
64.000000
70
192
0
VERTEX
8
OBJECT041
10
0.000000
20
336.000031
30
64.000000
70
192
0
VERTEX
8
OBJECT041
10
256.000000
20
336.000031
30
64.000000
70
192
0
VERTEX
8
OBJECT041
10
256.000000
20
448.000031
30
64.000000
70
192
0
VERTEX
8
OBJECT041
10
0
20
0
30
0
70
128
71
2
72
3
73
-4
0
VERTEX
8
OBJECT041
10
0
20
0
30
0
70
128
71
-2
72
4
73
1
0
VERTEX
8
OBJECT041
10
0
20
0
30
0
70
128
71
6
72
7
73
-8
0
VERTEX
8
OBJECT041
10
0
20
0
30
0
70
128
71
-6
72
8
73
5
0
VERTEX
8
OBJECT041
10
0
20
0
30
0
70
128
71
4
72
3
73
-8
0
VERTEX
8
OBJECT041
10
0
20
0
30
0
70
128
71
-4
72
8
73
7
0
VERTEX
8
OBJECT041
10
0
20
0
30
0
70
128
71
6
72
5
73
-2
0
VERTEX
8
OBJECT041
10
0
20
0
30
0
70
128
71
-6
72
2
73
1
0
VERTEX
8
OBJECT041
10
0
20
0
30
0
70
128
71
3
72
2
73
-5
0
VERTEX
8
OBJECT041
10
0
20
0
30
0
70
128
71
-3
72
5
73
8
0
VERTEX
8
OBJECT041
10
0
20
0
30
0
70
128
71
7
72
6
73
-1
0
VERTEX
8
OBJECT041
10
0
20
0
30
0
70
128
71
-7
72
1
73
4
0
SEQEND
8
OBJECT041
0
POLYLINE
8
OBJECT042
66
1
70
64
71
8
72
12
62
50
0
VERTEX
8
OBJECT042
10
-56.000000
20
-47.999969
30
168.000000
70
192
0
VERTEX
8
OBJECT042
10
-48.000000
20
-47.999969
30
168.000000
70
192
0
VERTEX
8
OBJECT042
10
-48.000000
20
-79.999969
30
168.000000
70
192
0
VERTEX
8
OBJECT042
10
-56.000000
20
-79.999969
30
168.000000
70
192
0
VERTEX
8
OBJECT042
10
-56.000000
20
-79.999969
30
136.000000
70
192
0
VERTEX
8
OBJECT042
10
-48.000000
20
-79.999969
30
136.000000
70
192
0
VERTEX
8
OBJECT042
10
-48.000000
20
-47.999969
30
136.000000
70
192
0
VERTEX
8
OBJECT042
10
-56.000000
20
-47.999969
30
136.000000
70
192
0
VERTEX
8
OBJECT042
10
0
20
0
30
0
70
128
71
2
72
3
73
-4
0
VERTEX
8
OBJECT042
10
0
20
0
30
0
70
128
71
-2
72
4
73
1
0
VERTEX
8
OBJECT042
10
0
20
0
30
0
70
128
71
6
72
7
73
-8
0
VERTEX
8
OBJECT042
10
0
20
0
30
0
70
128
71
-6
72
8
73
5
0
VERTEX
8
OBJECT042
10
0
20
0
30
0
70
128
71
4
72
5
73
-8
0
VERTEX
8
OBJECT042
10
0
20
0
30
0
70
128
71
-4
72
8
73
1
0
VERTEX
8
OBJECT042
10
0
20
0
30
0
70
128
71
6
72
3
73
-2
0
VERTEX
8
OBJECT042
10
0
20
0
30
0
70
128
71
-6
72
2
73
7
0
VERTEX
8
OBJECT042
10
0
20
0
30
0
70
128
71
1
72
8
73
-7
0
VERTEX
8
OBJECT042
10
0
20
0
30
0
70
128
71
-1
72
7
73
2
0
VERTEX
8
OBJECT042
10
0
20
0
30
0
70
128
71
5
72
4
73
-3
0
VERTEX
8
OBJECT042
10
0
20
0
30
0
70
128
71
-5
72
3
73
6
0
SEQEND
8
OBJECT042
0
POLYLINE
8
OBJECT043
66
1
70
64
71
8
72
12
62
50
0
VERTEX
8
OBJECT043
10
48.000000
20
-47.999969
30
168.000000
70
192
0
VERTEX
8
OBJECT043
10
56.000000
20
-47.999969
30
168.000000
70
192
0
VERTEX
8
OBJECT043
10
56.000000
20
-79.999969
30
168.000000
70
192
0
VERTEX
8
OBJECT043
10
48.000000
20
-79.999969
30
168.000000
70
192
0
VERTEX
8
OBJECT043
10
48.000000
20
-79.999969
30
136.000000
70
192
0
VERTEX
8
OBJECT043
10
56.000000
20
-79.999969
30
136.000000
70
192
0
VERTEX
8
OBJECT043
10
56.000000
20
-47.999969
30
136.000000
70
192
0
VERTEX
8
OBJECT043
10
48.000000
20
-47.999969
30
136.000000
70
192
0
VERTEX
8
OBJECT043
10
0
20
0
30
0
70
128
71
2
72
3
73
-4
0
VERTEX
8
OBJECT043
10
0
20
0
30
0
70
128
71
-2
72
4
73
1
0
VERTEX
8
OBJECT043
10
0
20
0
30
0
70
128
71
6
72
7
73
-8
0
VERTEX
8
OBJECT043
10
0
20
0
30
0
70
128
71
-6
72
8
73
5
0
VERTEX
8
OBJECT043
10
0
20
0
30
0
70
128
71
4
72
5
73
-8
0
VERTEX
8
OBJECT043
10
0
20
0
30
0
70
128
71
-4
72
8
73
1
0
VERTEX
8
OBJECT043
10
0
20
0
30
0
70
128
71
6
72
3
73
-2
0
VERTEX
8
OBJECT043
10
0
20
0
30
0
70
128
71
-6
72
2
73
7
0
VERTEX
8
OBJECT043
10
0
20
0
30
0
70
128
71
1
72
8
73
-7
0
VERTEX
8
OBJECT043
10
0
20
0
30
0
70
128
71
-1
72
7
73
2
0
VERTEX
8
OBJECT043
10
0
20
0
30
0
70
128
71
5
72
4
73
-3
0
VERTEX
8
OBJECT043
10
0
20
0
30
0
70
128
71
-5
72
3
73
6
0
SEQEND
8
OBJECT043
0
POLYLINE
8
OBJECT044
66
1
70
64
71
8
72
12
62
50
0
VERTEX
8
OBJECT044
10
-224.000000
20
-47.999969
30
64.000000
70
192
0
VERTEX
8
OBJECT044
10
-216.000000
20
-47.999969
30
64.000000
70
192
0
VERTEX
8
OBJECT044
10
-216.000000
20
-79.999969
30
64.000000
70
192
0
VERTEX
8
OBJECT044
10
-224.000000
20
-79.999969
30
64.000000
70
192
0
VERTEX
8
OBJECT044
10
-224.000000
20
-79.999969
30
32.000000
70
192
0
VERTEX
8
OBJECT044
10
-216.000000
20
-79.999969
30
32.000000
70
192
0
VERTEX
8
OBJECT044
10
-216.000000
20
-47.999969
30
32.000000
70
192
0
VERTEX
8
OBJECT044
10
-224.000000
20
-47.999969
30
32.000000
70
192
0
VERTEX
8
OBJECT044
10
0
20
0
30
0
70
128
71
2
72
3
73
-4
0
VERTEX
8
OBJECT044
10
0
20
0
30
0
70
128
71
-2
72
4
73
1
0
VERTEX
8
OBJECT044
10
0
20
0
30
0
70
128
71
6
72
7
73
-8
0
VERTEX
8
OBJECT044
10
0
20
0
30
0
70
128
71
-6
72
8
73
5
0
VERTEX
8
OBJECT044
10
0
20
0
30
0
70
128
71
4
72
5
73
-8
0
VERTEX
8
OBJECT044
10
0
20
0
30
0
70
128
71
-4
72
8
73
1
0
VERTEX
8
OBJECT044
10
0
20
0
30
0
70
128
71
6
72
3
73
-2
0
VERTEX
8
OBJECT044
10
0
20
0
30
0
70
128
71
-6
72
2
73
7
0
VERTEX
8
OBJECT044
10
0
20
0
30
0
70
128
71
1
72
8
73
-7
0
VERTEX
8
OBJECT044
10
0
20
0
30
0
70
128
71
-1
72
7
73
2
0
VERTEX
8
OBJECT044
10
0
20
0
30
0
70
128
71
5
72
4
73
-3
0
VERTEX
8
OBJECT044
10
0
20
0
30
0
70
128
71
-5
72
3
73
6
0
SEQEND
8
OBJECT044
0
POLYLINE
8
OBJECT045
66
1
70
64
71
8
72
12
62
50
0
VERTEX
8
OBJECT045
10
216.000000
20
-47.999969
30
64.000000
70
192
0
VERTEX
8
OBJECT045
10
224.000000
20
-47.999969
30
64.000000
70
192
0
VERTEX
8
OBJECT045
10
224.000000
20
-79.999969
30
64.000000
70
192
0
VERTEX
8
OBJECT045
10
216.000000
20
-79.999969
30
64.000000
70
192
0
VERTEX
8
OBJECT045
10
216.000000
20
-79.999969
30
32.000000
70
192
0
VERTEX
8
OBJECT045
10
224.000000
20
-79.999969
30
32.000000
70
192
0
VERTEX
8
OBJECT045
10
224.000000
20
-47.999969
30
32.000000
70
192
0
VERTEX
8
OBJECT045
10
216.000000
20
-47.999969
30
32.000000
70
192
0
VERTEX
8
OBJECT045
10
0
20
0
30
0
70
128
71
2
72
3
73
-4
0
VERTEX
8
OBJECT045
10
0
20
0
30
0
70
128
71
-2
72
4
73
1
0
VERTEX
8
OBJECT045
10
0
20
0
30
0
70
128
71
6
72
7
73
-8
0
VERTEX
8
OBJECT045
10
0
20
0
30
0
70
128
71
-6
72
8
73
5
0
VERTEX
8
OBJECT045
10
0
20
0
30
0
70
128
71
4
72
5
73
-8
0
VERTEX
8
OBJECT045
10
0
20
0
30
0
70
128
71
-4
72
8
73
1
0
VERTEX
8
OBJECT045
10
0
20
0
30
0
70
128
71
6
72
3
73
-2
0
VERTEX
8
OBJECT045
10
0
20
0
30
0
70
128
71
-6
72
2
73
7
0
VERTEX
8
OBJECT045
10
0
20
0
30
0
70
128
71
1
72
8
73
-7
0
VERTEX
8
OBJECT045
10
0
20
0
30
0
70
128
71
-1
72
7
73
2
0
VERTEX
8
OBJECT045
10
0
20
0
30
0
70
128
71
5
72
4
73
-3
0
VERTEX
8
OBJECT045
10
0
20
0
30
0
70
128
71
-5
72
3
73
6
0
SEQEND
8
OBJECT045
0
POLYLINE
8
OBJECT046
66
1
70
64
71
8
72
12
62
50
0
VERTEX
8
OBJECT046
10
-56.000000
20
-175.999969
30
168.000000
70
192
0
VERTEX
8
OBJECT046
10
-48.000000
20
-175.999969
30
168.000000
70
192
0
VERTEX
8
OBJECT046
10
-48.000000
20
-207.999969
30
168.000000
70
192
0
VERTEX
8
OBJECT046
10
-56.000000
20
-207.999969
30
168.000000
70
192
0
VERTEX
8
OBJECT046
10
-56.000000
20
-207.999969
30
136.000000
70
192
0
VERTEX
8
OBJECT046
10
-48.000000
20
-207.999969
30
136.000000
70
192
0
VERTEX
8
OBJECT046
10
-48.000000
20
-175.999969
30
136.000000
70
192
0
VERTEX
8
OBJECT046
10
-56.000000
20
-175.999969
30
136.000000
70
192
0
VERTEX
8
OBJECT046
10
0
20
0
30
0
70
128
71
2
72
3
73
-4
0
VERTEX
8
OBJECT046
10
0
20
0
30
0
70
128
71
-2
72
4
73
1
0
VERTEX
8
OBJECT046
10
0
20
0
30
0
70
128
71
6
72
7
73
-8
0
VERTEX
8
OBJECT046
10
0
20
0
30
0
70
128
71
-6
72
8
73
5
0
VERTEX
8
OBJECT046
10
0
20
0
30
0
70
128
71
4
72
5
73
-8
0
VERTEX
8
OBJECT046
10
0
20
0
30
0
70
128
71
-4
72
8
73
1
0
VERTEX
8
OBJECT046
10
0
20
0
30
0
70
128
71
6
72
3
73
-2
0
VERTEX
8
OBJECT046
10
0
20
0
30
0
70
128
71
-6
72
2
73
7
0
VERTEX
8
OBJECT046
10
0
20
0
30
0
70
128
71
1
72
8
73
-7
0
VERTEX
8
OBJECT046
10
0
20
0
30
0
70
128
71
-1
72
7
73
2
0
VERTEX
8
OBJECT046
10
0
20
0
30
0
70
128
71
5
72
4
73
-3
0
VERTEX
8
OBJECT046
10
0
20
0
30
0
70
128
71
-5
72
3
73
6
0
SEQEND
8
OBJECT046
0
POLYLINE
8
OBJECT047
66
1
70
64
71
8
72
12
62
50
0
VERTEX
8
OBJECT047
10
-224.000000
20
-175.999969
30
64.000000
70
192
0
VERTEX
8
OBJECT047
10
-216.000000
20
-175.999969
30
64.000000
70
192
0
VERTEX
8
OBJECT047
10
-216.000000
20
-207.999969
30
64.000000
70
192
0
VERTEX
8
OBJECT047
10
-224.000000
20
-207.999969
30
64.000000
70
192
0
VERTEX
8
OBJECT047
10
-224.000000
20
-207.999969
30
32.000000
70
192
0
VERTEX
8
OBJECT047
10
-216.000000
20
-207.999969
30
32.000000
70
192
0
VERTEX
8
OBJECT047
10
-216.000000
20
-175.999969
30
32.000000
70
192
0
VERTEX
8
OBJECT047
10
-224.000000
20
-175.999969
30
32.000000
70
192
0
VERTEX
8
OBJECT047
10
0
20
0
30
0
70
128
71
2
72
3
73
-4
0
VERTEX
8
OBJECT047
10
0
20
0
30
0
70
128
71
-2
72
4
73
1
0
VERTEX
8
OBJECT047
10
0
20
0
30
0
70
128
71
6
72
7
73
-8
0
VERTEX
8
OBJECT047
10
0
20
0
30
0
70
128
71
-6
72
8
73
5
0
VERTEX
8
OBJECT047
10
0
20
0
30
0
70
128
71
4
72
5
73
-8
0
VERTEX
8
OBJECT047
10
0
20
0
30
0
70
128
71
-4
72
8
73
1
0
VERTEX
8
OBJECT047
10
0
20
0
30
0
70
128
71
6
72
3
73
-2
0
VERTEX
8
OBJECT047
10
0
20
0
30
0
70
128
71
-6
72
2
73
7
0
VERTEX
8
OBJECT047
10
0
20
0
30
0
70
128
71
1
72
8
73
-7
0
VERTEX
8
OBJECT047
10
0
20
0
30
0
70
128
71
-1
72
7
73
2
0
VERTEX
8
OBJECT047
10
0
20
0
30
0
70
128
71
5
72
4
73
-3
0
VERTEX
8
OBJECT047
10
0
20
0
30
0
70
128
71
-5
72
3
73
6
0
SEQEND
8
OBJECT047
0
POLYLINE
8
OBJECT048
66
1
70
64
71
8
72
12
62
50
0
VERTEX
8
OBJECT048
10
48.000000
20
-175.999969
30
168.000000
70
192
0
VERTEX
8
OBJECT048
10
56.000000
20
-175.999969
30
168.000000
70
192
0
VERTEX
8
OBJECT048
10
56.000000
20
-207.999969
30
168.000000
70
192
0
VERTEX
8
OBJECT048
10
48.000000
20
-207.999969
30
168.000000
70
192
0
VERTEX
8
OBJECT048
10
48.000000
20
-207.999969
30
136.000000
70
192
0
VERTEX
8
OBJECT048
10
56.000000
20
-207.999969
30
136.000000
70
192
0
VERTEX
8
OBJECT048
10
56.000000
20
-175.999969
30
136.000000
70
192
0
VERTEX
8
OBJECT048
10
48.000000
20
-175.999969
30
136.000000
70
192
0
VERTEX
8
OBJECT048
10
0
20
0
30
0
70
128
71
2
72
3
73
-4
0
VERTEX
8
OBJECT048
10
0
20
0
30
0
70
128
71
-2
72
4
73
1
0
VERTEX
8
OBJECT048
10
0
20
0
30
0
70
128
71
6
72
7
73
-8
0
VERTEX
8
OBJECT048
10
0
20
0
30
0
70
128
71
-6
72
8
73
5
0
VERTEX
8
OBJECT048
10
0
20
0
30
0
70
128
71
4
72
5
73
-8
0
VERTEX
8
OBJECT048
10
0
20
0
30
0
70
128
71
-4
72
8
73
1
0
VERTEX
8
OBJECT048
10
0
20
0
30
0
70
128
71
6
72
3
73
-2
0
VERTEX
8
OBJECT048
10
0
20
0
30
0
70
128
71
-6
72
2
73
7
0
VERTEX
8
OBJECT048
10
0
20
0
30
0
70
128
71
1
72
8
73
-7
0
VERTEX
8
OBJECT048
10
0
20
0
30
0
70
128
71
-1
72
7
73
2
0
VERTEX
8
OBJECT048
10
0
20
0
30
0
70
128
71
5
72
4
73
-3
0
VERTEX
8
OBJECT048
10
0
20
0
30
0
70
128
71
-5
72
3
73
6
0
SEQEND
8
OBJECT048
0
POLYLINE
8
OBJECT049
66
1
70
64
71
8
72
12
62
50
0
VERTEX
8
OBJECT049
10
216.000000
20
-175.999969
30
64.000000
70
192
0
VERTEX
8
OBJECT049
10
224.000000
20
-175.999969
30
64.000000
70
192
0
VERTEX
8
OBJECT049
10
224.000000
20
-207.999969
30
64.000000
70
192
0
VERTEX
8
OBJECT049
10
216.000000
20
-207.999969
30
64.000000
70
192
0
VERTEX
8
OBJECT049
10
216.000000
20
-207.999969
30
32.000000
70
192
0
VERTEX
8
OBJECT049
10
224.000000
20
-207.999969
30
32.000000
70
192
0
VERTEX
8
OBJECT049
10
224.000000
20
-175.999969
30
32.000000
70
192
0
VERTEX
8
OBJECT049
10
216.000000
20
-175.999969
30
32.000000
70
192
0
VERTEX
8
OBJECT049
10
0
20
0
30
0
70
128
71
2
72
3
73
-4
0
VERTEX
8
OBJECT049
10
0
20
0
30
0
70
128
71
-2
72
4
73
1
0
VERTEX
8
OBJECT049
10
0
20
0
30
0
70
128
71
6
72
7
73
-8
0
VERTEX
8
OBJECT049
10
0
20
0
30
0
70
128
71
-6
72
8
73
5
0
VERTEX
8
OBJECT049
10
0
20
0
30
0
70
128
71
4
72
5
73
-8
0
VERTEX
8
OBJECT049
10
0
20
0
30
0
70
128
71
-4
72
8
73
1
0
VERTEX
8
OBJECT049
10
0
20
0
30
0
70
128
71
6
72
3
73
-2
0
VERTEX
8
OBJECT049
10
0
20
0
30
0
70
128
71
-6
72
2
73
7
0
VERTEX
8
OBJECT049
10
0
20
0
30
0
70
128
71
1
72
8
73
-7
0
VERTEX
8
OBJECT049
10
0
20
0
30
0
70
128
71
-1
72
7
73
2
0
VERTEX
8
OBJECT049
10
0
20
0
30
0
70
128
71
5
72
4
73
-3
0
VERTEX
8
OBJECT049
10
0
20
0
30
0
70
128
71
-5
72
3
73
6
0
SEQEND
8
OBJECT049
0
POLYLINE
8
OBJECT050
66
1
70
64
71
8
72
12
62
50
0
VERTEX
8
OBJECT050
10
48.000000
20
-303.999969
30
168.000000
70
192
0
VERTEX
8
OBJECT050
10
56.000000
20
-303.999969
30
168.000000
70
192
0
VERTEX
8
OBJECT050
10
56.000000
20
-335.999969
30
168.000000
70
192
0
VERTEX
8
OBJECT050
10
48.000000
20
-335.999969
30
168.000000
70
192
0
VERTEX
8
OBJECT050
10
48.000000
20
-335.999969
30
136.000000
70
192
0
VERTEX
8
OBJECT050
10
56.000000
20
-335.999969
30
136.000000
70
192
0
VERTEX
8
OBJECT050
10
56.000000
20
-303.999969
30
136.000000
70
192
0
VERTEX
8
OBJECT050
10
48.000000
20
-303.999969
30
136.000000
70
192
0
VERTEX
8
OBJECT050
10
0
20
0
30
0
70
128
71
2
72
3
73
-4
0
VERTEX
8
OBJECT050
10
0
20
0
30
0
70
128
71
-2
72
4
73
1
0
VERTEX
8
OBJECT050
10
0
20
0
30
0
70
128
71
6
72
7
73
-8
0
VERTEX
8
OBJECT050
10
0
20
0
30
0
70
128
71
-6
72
8
73
5
0
VERTEX
8
OBJECT050
10
0
20
0
30
0
70
128
71
4
72
5
73
-8
0
VERTEX
8
OBJECT050
10
0
20
0
30
0
70
128
71
-4
72
8
73
1
0
VERTEX
8
OBJECT050
10
0
20
0
30
0
70
128
71
6
72
3
73
-2
0
VERTEX
8
OBJECT050
10
0
20
0
30
0
70
128
71
-6
72
2
73
7
0
VERTEX
8
OBJECT050
10
0
20
0
30
0
70
128
71
1
72
8
73
-7
0
VERTEX
8
OBJECT050
10
0
20
0
30
0
70
128
71
-1
72
7
73
2
0
VERTEX
8
OBJECT050
10
0
20
0
30
0
70
128
71
5
72
4
73
-3
0
VERTEX
8
OBJECT050
10
0
20
0
30
0
70
128
71
-5
72
3
73
6
0
SEQEND
8
OBJECT050
0
POLYLINE
8
OBJECT051
66
1
70
64
71
8
72
12
62
50
0
VERTEX
8
OBJECT051
10
216.000000
20
-303.999969
30
64.000000
70
192
0
VERTEX
8
OBJECT051
10
224.000000
20
-303.999969
30
64.000000
70
192
0
VERTEX
8
OBJECT051
10
224.000000
20
-335.999969
30
64.000000
70
192
0
VERTEX
8
OBJECT051
10
216.000000
20
-335.999969
30
64.000000
70
192
0
VERTEX
8
OBJECT051
10
216.000000
20
-335.999969
30
32.000000
70
192
0
VERTEX
8
OBJECT051
10
224.000000
20
-335.999969
30
32.000000
70
192
0
VERTEX
8
OBJECT051
10
224.000000
20
-303.999969
30
32.000000
70
192
0
VERTEX
8
OBJECT051
10
216.000000
20
-303.999969
30
32.000000
70
192
0
VERTEX
8
OBJECT051
10
0
20
0
30
0
70
128
71
2
72
3
73
-4
0
VERTEX
8
OBJECT051
10
0
20
0
30
0
70
128
71
-2
72
4
73
1
0
VERTEX
8
OBJECT051
10
0
20
0
30
0
70
128
71
6
72
7
73
-8
0
VERTEX
8
OBJECT051
10
0
20
0
30
0
70
128
71
-6
72
8
73
5
0
VERTEX
8
OBJECT051
10
0
20
0
30
0
70
128
71
4
72
5
73
-8
0
VERTEX
8
OBJECT051
10
0
20
0
30
0
70
128
71
-4
72
8
73
1
0
VERTEX
8
OBJECT051
10
0
20
0
30
0
70
128
71
6
72
3
73
-2
0
VERTEX
8
OBJECT051
10
0
20
0
30
0
70
128
71
-6
72
2
73
7
0
VERTEX
8
OBJECT051
10
0
20
0
30
0
70
128
71
1
72
8
73
-7
0
VERTEX
8
OBJECT051
10
0
20
0
30
0
70
128
71
-1
72
7
73
2
0
VERTEX
8
OBJECT051
10
0
20
0
30
0
70
128
71
5
72
4
73
-3
0
VERTEX
8
OBJECT051
10
0
20
0
30
0
70
128
71
-5
72
3
73
6
0
SEQEND
8
OBJECT051
0
POLYLINE
8
OBJECT052
66
1
70
64
71
8
72
12
62
50
0
VERTEX
8
OBJECT052
10
-224.000000
20
-303.999969
30
64.000000
70
192
0
VERTEX
8
OBJECT052
10
-216.000000
20
-303.999969
30
64.000000
70
192
0
VERTEX
8
OBJECT052
10
-216.000000
20
-335.999969
30
64.000000
70
192
0
VERTEX
8
OBJECT052
10
-224.000000
20
-335.999969
30
64.000000
70
192
0
VERTEX
8
OBJECT052
10
-224.000000
20
-335.999969
30
32.000000
70
192
0
VERTEX
8
OBJECT052
10
-216.000000
20
-335.999969
30
32.000000
70
192
0
VERTEX
8
OBJECT052
10
-216.000000
20
-303.999969
30
32.000000
70
192
0
VERTEX
8
OBJECT052
10
-224.000000
20
-303.999969
30
32.000000
70
192
0
VERTEX
8
OBJECT052
10
0
20
0
30
0
70
128
71
2
72
3
73
-4
0
VERTEX
8
OBJECT052
10
0
20
0
30
0
70
128
71
-2
72
4
73
1
0
VERTEX
8
OBJECT052
10
0
20
0
30
0
70
128
71
6
72
7
73
-8
0
VERTEX
8
OBJECT052
10
0
20
0
30
0
70
128
71
-6
72
8
73
5
0
VERTEX
8
OBJECT052
10
0
20
0
30
0
70
128
71
4
72
5
73
-8
0
VERTEX
8
OBJECT052
10
0
20
0
30
0
70
128
71
-4
72
8
73
1
0
VERTEX
8
OBJECT052
10
0
20
0
30
0
70
128
71
6
72
3
73
-2
0
VERTEX
8
OBJECT052
10
0
20
0
30
0
70
128
71
-6
72
2
73
7
0
VERTEX
8
OBJECT052
10
0
20
0
30
0
70
128
71
1
72
8
73
-7
0
VERTEX
8
OBJECT052
10
0
20
0
30
0
70
128
71
-1
72
7
73
2
0
VERTEX
8
OBJECT052
10
0
20
0
30
0
70
128
71
5
72
4
73
-3
0
VERTEX
8
OBJECT052
10
0
20
0
30
0
70
128
71
-5
72
3
73
6
0
SEQEND
8
OBJECT052
0
POLYLINE
8
OBJECT053
66
1
70
64
71
8
72
12
62
50
0
VERTEX
8
OBJECT053
10
-56.000000
20
-303.999969
30
168.000000
70
192
0
VERTEX
8
OBJECT053
10
-48.000000
20
-303.999969
30
168.000000
70
192
0
VERTEX
8
OBJECT053
10
-48.000000
20
-335.999969
30
168.000000
70
192
0
VERTEX
8
OBJECT053
10
-56.000000
20
-335.999969
30
168.000000
70
192
0
VERTEX
8
OBJECT053
10
-56.000000
20
-335.999969
30
136.000000
70
192
0
VERTEX
8
OBJECT053
10
-48.000000
20
-335.999969
30
136.000000
70
192
0
VERTEX
8
OBJECT053
10
-48.000000
20
-303.999969
30
136.000000
70
192
0
VERTEX
8
OBJECT053
10
-56.000000
20
-303.999969
30
136.000000
70
192
0
VERTEX
8
OBJECT053
10
0
20
0
30
0
70
128
71
2
72
3
73
-4
0
VERTEX
8
OBJECT053
10
0
20
0
30
0
70
128
71
-2
72
4
73
1
0
VERTEX
8
OBJECT053
10
0
20
0
30
0
70
128
71
6
72
7
73
-8
0
VERTEX
8
OBJECT053
10
0
20
0
30
0
70
128
71
-6
72
8
73
5
0
VERTEX
8
OBJECT053
10
0
20
0
30
0
70
128
71
4
72
5
73
-8
0
VERTEX
8
OBJECT053
10
0
20
0
30
0
70
128
71
-4
72
8
73
1
0
VERTEX
8
OBJECT053
10
0
20
0
30
0
70
128
71
6
72
3
73
-2
0
VERTEX
8
OBJECT053
10
0
20
0
30
0
70
128
71
-6
72
2
73
7
0
VERTEX
8
OBJECT053
10
0
20
0
30
0
70
128
71
1
72
8
73
-7
0
VERTEX
8
OBJECT053
10
0
20
0
30
0
70
128
71
-1
72
7
73
2
0
VERTEX
8
OBJECT053
10
0
20
0
30
0
70
128
71
5
72
4
73
-3
0
VERTEX
8
OBJECT053
10
0
20
0
30
0
70
128
71
-5
72
3
73
6
0
SEQEND
8
OBJECT053
0
POLYLINE
8
OBJECT054
66
1
70
64
71
8
72
12
62
50
0
VERTEX
8
OBJECT054
10
-56.000000
20
-71.999969
30
160.000000
70
192
0
VERTEX
8
OBJECT054
10
-216.000000
20
-71.999969
30
56.000000
70
192
0
VERTEX
8
OBJECT054
10
-216.000000
20
-55.999969
30
56.000000
70
192
0
VERTEX
8
OBJECT054
10
-56.000000
20
-55.999969
30
160.000000
70
192
0
VERTEX
8
OBJECT054
10
-56.000000
20
-55.999969
30
144.000000
70
192
0
VERTEX
8
OBJECT054
10
-216.000000
20
-55.999969
30
40.000000
70
192
0
VERTEX
8
OBJECT054
10
-216.000000
20
-71.999969
30
40.000000
70
192
0
VERTEX
8
OBJECT054
10
-56.000000
20
-71.999969
30
144.000000
70
192
0
VERTEX
8
OBJECT054
10
0
20
0
30
0
70
128
71
2
72
3
73
-4
0
VERTEX
8
OBJECT054
10
0
20
0
30
0
70
128
71
-2
72
4
73
1
0
VERTEX
8
OBJECT054
10
0
20
0
30
0
70
128
71
6
72
7
73
-8
0
VERTEX
8
OBJECT054
10
0
20
0
30
0
70
128
71
-6
72
8
73
5
0
VERTEX
8
OBJECT054
10
0
20
0
30
0
70
128
71
6
72
3
73
-2
0
VERTEX
8
OBJECT054
10
0
20
0
30
0
70
128
71
-6
72
2
73
7
0
VERTEX
8
OBJECT054
10
0
20
0
30
0
70
128
71
4
72
5
73
-8
0
VERTEX
8
OBJECT054
10
0
20
0
30
0
70
128
71
-4
72
8
73
1
0
VERTEX
8
OBJECT054
10
0
20
0
30
0
70
128
71
5
72
4
73
-3
0
VERTEX
8
OBJECT054
10
0
20
0
30
0
70
128
71
-5
72
3
73
6
0
VERTEX
8
OBJECT054
10
0
20
0
30
0
70
128
71
1
72
8
73
-7
0
VERTEX
8
OBJECT054
10
0
20
0
30
0
70
128
71
-1
72
7
73
2
0
SEQEND
8
OBJECT054
0
POLYLINE
8
OBJECT055
66
1
70
64
71
8
72
12
62
50
0
VERTEX
8
OBJECT055
10
56.000000
20
-55.999969
30
160.000000
70
192
0
VERTEX
8
OBJECT055
10
216.000000
20
-55.999969
30
56.000000
70
192
0
VERTEX
8
OBJECT055
10
216.000000
20
-71.999969
30
56.000000
70
192
0
VERTEX
8
OBJECT055
10
56.000000
20
-71.999969
30
160.000000
70
192
0
VERTEX
8
OBJECT055
10
56.000000
20
-71.999969
30
144.000000
70
192
0
VERTEX
8
OBJECT055
10
216.000000
20
-71.999969
30
40.000000
70
192
0
VERTEX
8
OBJECT055
10
216.000000
20
-55.999969
30
40.000000
70
192
0
VERTEX
8
OBJECT055
10
56.000000
20
-55.999969
30
144.000000
70
192
0
VERTEX
8
OBJECT055
10
0
20
0
30
0
70
128
71
2
72
3
73
-4
0
VERTEX
8
OBJECT055
10
0
20
0
30
0
70
128
71
-2
72
4
73
1
0
VERTEX
8
OBJECT055
10
0
20
0
30
0
70
128
71
6
72
7
73
-8
0
VERTEX
8
OBJECT055
10
0
20
0
30
0
70
128
71
-6
72
8
73
5
0
VERTEX
8
OBJECT055
10
0
20
0
30
0
70
128
71
2
72
7
73
-6
0
VERTEX
8
OBJECT055
10
0
20
0
30
0
70
128
71
-2
72
6
73
3
0
VERTEX
8
OBJECT055
10
0
20
0
30
0
70
128
71
8
72
1
73
-4
0
VERTEX
8
OBJECT055
10
0
20
0
30
0
70
128
71
-8
72
4
73
5
0
VERTEX
8
OBJECT055
10
0
20
0
30
0
70
128
71
1
72
8
73
-7
0
VERTEX
8
OBJECT055
10
0
20
0
30
0
70
128
71
-1
72
7
73
2
0
VERTEX
8
OBJECT055
10
0
20
0
30
0
70
128
71
5
72
4
73
-3
0
VERTEX
8
OBJECT055
10
0
20
0
30
0
70
128
71
-5
72
3
73
6
0
SEQEND
8
OBJECT055
0
POLYLINE
8
OBJECT056
66
1
70
64
71
8
72
12
62
50
0
VERTEX
8
OBJECT056
10
56.000000
20
-183.999969
30
160.000000
70
192
0
VERTEX
8
OBJECT056
10
216.000000
20
-183.999969
30
56.000000
70
192
0
VERTEX
8
OBJECT056
10
216.000000
20
-199.999969
30
56.000000
70
192
0
VERTEX
8
OBJECT056
10
56.000000
20
-199.999969
30
160.000000
70
192
0
VERTEX
8
OBJECT056
10
56.000000
20
-199.999969
30
144.000000
70
192
0
VERTEX
8
OBJECT056
10
216.000000
20
-199.999969
30
40.000000
70
192
0
VERTEX
8
OBJECT056
10
216.000000
20
-183.999969
30
40.000000
70
192
0
VERTEX
8
OBJECT056
10
56.000000
20
-183.999969
30
144.000000
70
192
0
VERTEX
8
OBJECT056
10
0
20
0
30
0
70
128
71
2
72
3
73
-4
0
VERTEX
8
OBJECT056
10
0
20
0
30
0
70
128
71
-2
72
4
73
1
0
VERTEX
8
OBJECT056
10
0
20
0
30
0
70
128
71
6
72
7
73
-8
0
VERTEX
8
OBJECT056
10
0
20
0
30
0
70
128
71
-6
72
8
73
5
0
VERTEX
8
OBJECT056
10
0
20
0
30
0
70
128
71
2
72
7
73
-6
0
VERTEX
8
OBJECT056
10
0
20
0
30
0
70
128
71
-2
72
6
73
3
0
VERTEX
8
OBJECT056
10
0
20
0
30
0
70
128
71
8
72
1
73
-4
0
VERTEX
8
OBJECT056
10
0
20
0
30
0
70
128
71
-8
72
4
73
5
0
VERTEX
8
OBJECT056
10
0
20
0
30
0
70
128
71
1
72
8
73
-7
0
VERTEX
8
OBJECT056
10
0
20
0
30
0
70
128
71
-1
72
7
73
2
0
VERTEX
8
OBJECT056
10
0
20
0
30
0
70
128
71
5
72
4
73
-3
0
VERTEX
8
OBJECT056
10
0
20
0
30
0
70
128
71
-5
72
3
73
6
0
SEQEND
8
OBJECT056
0
POLYLINE
8
OBJECT057
66
1
70
64
71
8
72
12
62
50
0
VERTEX
8
OBJECT057
10
-56.000000
20
-199.999969
30
160.000000
70
192
0
VERTEX
8
OBJECT057
10
-216.000000
20
-199.999969
30
56.000000
70
192
0
VERTEX
8
OBJECT057
10
-216.000000
20
-183.999969
30
56.000000
70
192
0
VERTEX
8
OBJECT057
10
-56.000000
20
-183.999969
30
160.000000
70
192
0
VERTEX
8
OBJECT057
10
-56.000000
20
-183.999969
30
144.000000
70
192
0
VERTEX
8
OBJECT057
10
-216.000000
20
-183.999969
30
40.000000
70
192
0
VERTEX
8
OBJECT057
10
-216.000000
20
-199.999969
30
40.000000
70
192
0
VERTEX
8
OBJECT057
10
-56.000000
20
-199.999969
30
144.000000
70
192
0
VERTEX
8
OBJECT057
10
0
20
0
30
0
70
128
71
2
72
3
73
-4
0
VERTEX
8
OBJECT057
10
0
20
0
30
0
70
128
71
-2
72
4
73
1
0
VERTEX
8
OBJECT057
10
0
20
0
30
0
70
128
71
6
72
7
73
-8
0
VERTEX
8
OBJECT057
10
0
20
0
30
0
70
128
71
-6
72
8
73
5
0
VERTEX
8
OBJECT057
10
0
20
0
30
0
70
128
71
6
72
3
73
-2
0
VERTEX
8
OBJECT057
10
0
20
0
30
0
70
128
71
-6
72
2
73
7
0
VERTEX
8
OBJECT057
10
0
20
0
30
0
70
128
71
4
72
5
73
-8
0
VERTEX
8
OBJECT057
10
0
20
0
30
0
70
128
71
-4
72
8
73
1
0
VERTEX
8
OBJECT057
10
0
20
0
30
0
70
128
71
5
72
4
73
-3
0
VERTEX
8
OBJECT057
10
0
20
0
30
0
70
128
71
-5
72
3
73
6
0
VERTEX
8
OBJECT057
10
0
20
0
30
0
70
128
71
1
72
8
73
-7
0
VERTEX
8
OBJECT057
10
0
20
0
30
0
70
128
71
-1
72
7
73
2
0
SEQEND
8
OBJECT057
0
POLYLINE
8
OBJECT058
66
1
70
64
71
8
72
12
62
50
0
VERTEX
8
OBJECT058
10
56.000000
20
-311.999969
30
160.000000
70
192
0
VERTEX
8
OBJECT058
10
216.000000
20
-311.999969
30
56.000000
70
192
0
VERTEX
8
OBJECT058
10
216.000000
20
-327.999969
30
56.000000
70
192
0
VERTEX
8
OBJECT058
10
56.000000
20
-327.999969
30
160.000000
70
192
0
VERTEX
8
OBJECT058
10
56.000000
20
-327.999969
30
144.000000
70
192
0
VERTEX
8
OBJECT058
10
216.000000
20
-327.999969
30
40.000000
70
192
0
VERTEX
8
OBJECT058
10
216.000000
20
-311.999969
30
40.000000
70
192
0
VERTEX
8
OBJECT058
10
56.000000
20
-311.999969
30
144.000000
70
192
0
VERTEX
8
OBJECT058
10
0
20
0
30
0
70
128
71
2
72
3
73
-4
0
VERTEX
8
OBJECT058
10
0
20
0
30
0
70
128
71
-2
72
4
73
1
0
VERTEX
8
OBJECT058
10
0
20
0
30
0
70
128
71
6
72
7
73
-8
0
VERTEX
8
OBJECT058
10
0
20
0
30
0
70
128
71
-6
72
8
73
5
0
VERTEX
8
OBJECT058
10
0
20
0
30
0
70
128
71
2
72
7
73
-6
0
VERTEX
8
OBJECT058
10
0
20
0
30
0
70
128
71
-2
72
6
73
3
0
VERTEX
8
OBJECT058
10
0
20
0
30
0
70
128
71
8
72
1
73
-4
0
VERTEX
8
OBJECT058
10
0
20
0
30
0
70
128
71
-8
72
4
73
5
0
VERTEX
8
OBJECT058
10
0
20
0
30
0
70
128
71
1
72
8
73
-7
0
VERTEX
8
OBJECT058
10
0
20
0
30
0
70
128
71
-1
72
7
73
2
0
VERTEX
8
OBJECT058
10
0
20
0
30
0
70
128
71
5
72
4
73
-3
0
VERTEX
8
OBJECT058
10
0
20
0
30
0
70
128
71
-5
72
3
73
6
0
SEQEND
8
OBJECT058
0
POLYLINE
8
OBJECT059
66
1
70
64
71
8
72
12
62
50
0
VERTEX
8
OBJECT059
10
-56.000000
20
-327.999969
30
160.000000
70
192
0
VERTEX
8
OBJECT059
10
-216.000000
20
-327.999969
30
56.000000
70
192
0
VERTEX
8
OBJECT059
10
-216.000000
20
-311.999969
30
56.000000
70
192
0
VERTEX
8
OBJECT059
10
-56.000000
20
-311.999969
30
160.000000
70
192
0
VERTEX
8
OBJECT059
10
-56.000000
20
-311.999969
30
144.000000
70
192
0
VERTEX
8
OBJECT059
10
-216.000000
20
-311.999969
30
40.000000
70
192
0
VERTEX
8
OBJECT059
10
-216.000000
20
-327.999969
30
40.000000
70
192
0
VERTEX
8
OBJECT059
10
-56.000000
20
-327.999969
30
144.000000
70
192
0
VERTEX
8
OBJECT059
10
0
20
0
30
0
70
128
71
2
72
3
73
-4
0
VERTEX
8
OBJECT059
10
0
20
0
30
0
70
128
71
-2
72
4
73
1
0
VERTEX
8
OBJECT059
10
0
20
0
30
0
70
128
71
6
72
7
73
-8
0
VERTEX
8
OBJECT059
10
0
20
0
30
0
70
128
71
-6
72
8
73
5
0
VERTEX
8
OBJECT059
10
0
20
0
30
0
70
128
71
6
72
3
73
-2
0
VERTEX
8
OBJECT059
10
0
20
0
30
0
70
128
71
-6
72
2
73
7
0
VERTEX
8
OBJECT059
10
0
20
0
30
0
70
128
71
4
72
5
73
-8
0
VERTEX
8
OBJECT059
10
0
20
0
30
0
70
128
71
-4
72
8
73
1
0
VERTEX
8
OBJECT059
10
0
20
0
30
0
70
128
71
5
72
4
73
-3
0
VERTEX
8
OBJECT059
10
0
20
0
30
0
70
128
71
-5
72
3
73
6
0
VERTEX
8
OBJECT059
10
0
20
0
30
0
70
128
71
1
72
8
73
-7
0
VERTEX
8
OBJECT059
10
0
20
0
30
0
70
128
71
-1
72
7
73
2
0
SEQEND
8
OBJECT059
0
POLYLINE
8
OBJECT060
66
1
70
64
71
8
72
12
62
50
0
VERTEX
8
OBJECT060
10
-56.000000
20
80.000031
30
168.000000
70
192
0
VERTEX
8
OBJECT060
10
-48.000000
20
80.000031
30
168.000000
70
192
0
VERTEX
8
OBJECT060
10
-48.000000
20
48.000031
30
168.000000
70
192
0
VERTEX
8
OBJECT060
10
-56.000000
20
48.000031
30
168.000000
70
192
0
VERTEX
8
OBJECT060
10
-56.000000
20
48.000031
30
136.000000
70
192
0
VERTEX
8
OBJECT060
10
-48.000000
20
48.000031
30
136.000000
70
192
0
VERTEX
8
OBJECT060
10
-48.000000
20
80.000031
30
136.000000
70
192
0
VERTEX
8
OBJECT060
10
-56.000000
20
80.000031
30
136.000000
70
192
0
VERTEX
8
OBJECT060
10
0
20
0
30
0
70
128
71
2
72
3
73
-4
0
VERTEX
8
OBJECT060
10
0
20
0
30
0
70
128
71
-2
72
4
73
1
0
VERTEX
8
OBJECT060
10
0
20
0
30
0
70
128
71
6
72
7
73
-8
0
VERTEX
8
OBJECT060
10
0
20
0
30
0
70
128
71
-6
72
8
73
5
0
VERTEX
8
OBJECT060
10
0
20
0
30
0
70
128
71
4
72
5
73
-8
0
VERTEX
8
OBJECT060
10
0
20
0
30
0
70
128
71
-4
72
8
73
1
0
VERTEX
8
OBJECT060
10
0
20
0
30
0
70
128
71
6
72
3
73
-2
0
VERTEX
8
OBJECT060
10
0
20
0
30
0
70
128
71
-6
72
2
73
7
0
VERTEX
8
OBJECT060
10
0
20
0
30
0
70
128
71
1
72
8
73
-7
0
VERTEX
8
OBJECT060
10
0
20
0
30
0
70
128
71
-1
72
7
73
2
0
VERTEX
8
OBJECT060
10
0
20
0
30
0
70
128
71
5
72
4
73
-3
0
VERTEX
8
OBJECT060
10
0
20
0
30
0
70
128
71
-5
72
3
73
6
0
SEQEND
8
OBJECT060
0
POLYLINE
8
OBJECT061
66
1
70
64
71
8
72
12
62
50
0
VERTEX
8
OBJECT061
10
-56.000000
20
56.000031
30
160.000000
70
192
0
VERTEX
8
OBJECT061
10
-216.000000
20
56.000031
30
56.000000
70
192
0
VERTEX
8
OBJECT061
10
-216.000000
20
72.000031
30
56.000000
70
192
0
VERTEX
8
OBJECT061
10
-56.000000
20
72.000031
30
160.000000
70
192
0
VERTEX
8
OBJECT061
10
-56.000000
20
72.000031
30
144.000000
70
192
0
VERTEX
8
OBJECT061
10
-216.000000
20
72.000031
30
40.000000
70
192
0
VERTEX
8
OBJECT061
10
-216.000000
20
56.000031
30
40.000000
70
192
0
VERTEX
8
OBJECT061
10
-56.000000
20
56.000031
30
144.000000
70
192
0
VERTEX
8
OBJECT061
10
0
20
0
30
0
70
128
71
2
72
3
73
-4
0
VERTEX
8
OBJECT061
10
0
20
0
30
0
70
128
71
-2
72
4
73
1
0
VERTEX
8
OBJECT061
10
0
20
0
30
0
70
128
71
6
72
7
73
-8
0
VERTEX
8
OBJECT061
10
0
20
0
30
0
70
128
71
-6
72
8
73
5
0
VERTEX
8
OBJECT061
10
0
20
0
30
0
70
128
71
6
72
3
73
-2
0
VERTEX
8
OBJECT061
10
0
20
0
30
0
70
128
71
-6
72
2
73
7
0
VERTEX
8
OBJECT061
10
0
20
0
30
0
70
128
71
4
72
5
73
-8
0
VERTEX
8
OBJECT061
10
0
20
0
30
0
70
128
71
-4
72
8
73
1
0
VERTEX
8
OBJECT061
10
0
20
0
30
0
70
128
71
5
72
4
73
-3
0
VERTEX
8
OBJECT061
10
0
20
0
30
0
70
128
71
-5
72
3
73
6
0
VERTEX
8
OBJECT061
10
0
20
0
30
0
70
128
71
1
72
8
73
-7
0
VERTEX
8
OBJECT061
10
0
20
0
30
0
70
128
71
-1
72
7
73
2
0
SEQEND
8
OBJECT061
0
POLYLINE
8
OBJECT062
66
1
70
64
71
8
72
12
62
50
0
VERTEX
8
OBJECT062
10
-224.000000
20
80.000031
30
64.000000
70
192
0
VERTEX
8
OBJECT062
10
-216.000000
20
80.000031
30
64.000000
70
192
0
VERTEX
8
OBJECT062
10
-216.000000
20
48.000031
30
64.000000
70
192
0
VERTEX
8
OBJECT062
10
-224.000000
20
48.000031
30
64.000000
70
192
0
VERTEX
8
OBJECT062
10
-224.000000
20
48.000031
30
32.000000
70
192
0
VERTEX
8
OBJECT062
10
-216.000000
20
48.000031
30
32.000000
70
192
0
VERTEX
8
OBJECT062
10
-216.000000
20
80.000031
30
32.000000
70
192
0
VERTEX
8
OBJECT062
10
-224.000000
20
80.000031
30
32.000000
70
192
0
VERTEX
8
OBJECT062
10
0
20
0
30
0
70
128
71
2
72
3
73
-4
0
VERTEX
8
OBJECT062
10
0
20
0
30
0
70
128
71
-2
72
4
73
1
0
VERTEX
8
OBJECT062
10
0
20
0
30
0
70
128
71
6
72
7
73
-8
0
VERTEX
8
OBJECT062
10
0
20
0
30
0
70
128
71
-6
72
8
73
5
0
VERTEX
8
OBJECT062
10
0
20
0
30
0
70
128
71
4
72
5
73
-8
0
VERTEX
8
OBJECT062
10
0
20
0
30
0
70
128
71
-4
72
8
73
1
0
VERTEX
8
OBJECT062
10
0
20
0
30
0
70
128
71
6
72
3
73
-2
0
VERTEX
8
OBJECT062
10
0
20
0
30
0
70
128
71
-6
72
2
73
7
0
VERTEX
8
OBJECT062
10
0
20
0
30
0
70
128
71
1
72
8
73
-7
0
VERTEX
8
OBJECT062
10
0
20
0
30
0
70
128
71
-1
72
7
73
2
0
VERTEX
8
OBJECT062
10
0
20
0
30
0
70
128
71
5
72
4
73
-3
0
VERTEX
8
OBJECT062
10
0
20
0
30
0
70
128
71
-5
72
3
73
6
0
SEQEND
8
OBJECT062
0
POLYLINE
8
OBJECT063
66
1
70
64
71
8
72
12
62
50
0
VERTEX
8
OBJECT063
10
48.000000
20
80.000031
30
168.000000
70
192
0
VERTEX
8
OBJECT063
10
56.000000
20
80.000031
30
168.000000
70
192
0
VERTEX
8
OBJECT063
10
56.000000
20
48.000031
30
168.000000
70
192
0
VERTEX
8
OBJECT063
10
48.000000
20
48.000031
30
168.000000
70
192
0
VERTEX
8
OBJECT063
10
48.000000
20
48.000031
30
136.000000
70
192
0
VERTEX
8
OBJECT063
10
56.000000
20
48.000031
30
136.000000
70
192
0
VERTEX
8
OBJECT063
10
56.000000
20
80.000031
30
136.000000
70
192
0
VERTEX
8
OBJECT063
10
48.000000
20
80.000031
30
136.000000
70
192
0
VERTEX
8
OBJECT063
10
0
20
0
30
0
70
128
71
2
72
3
73
-4
0
VERTEX
8
OBJECT063
10
0
20
0
30
0
70
128
71
-2
72
4
73
1
0
VERTEX
8
OBJECT063
10
0
20
0
30
0
70
128
71
6
72
7
73
-8
0
VERTEX
8
OBJECT063
10
0
20
0
30
0
70
128
71
-6
72
8
73
5
0
VERTEX
8
OBJECT063
10
0
20
0
30
0
70
128
71
4
72
5
73
-8
0
VERTEX
8
OBJECT063
10
0
20
0
30
0
70
128
71
-4
72
8
73
1
0
VERTEX
8
OBJECT063
10
0
20
0
30
0
70
128
71
6
72
3
73
-2
0
VERTEX
8
OBJECT063
10
0
20
0
30
0
70
128
71
-6
72
2
73
7
0
VERTEX
8
OBJECT063
10
0
20
0
30
0
70
128
71
1
72
8
73
-7
0
VERTEX
8
OBJECT063
10
0
20
0
30
0
70
128
71
-1
72
7
73
2
0
VERTEX
8
OBJECT063
10
0
20
0
30
0
70
128
71
5
72
4
73
-3
0
VERTEX
8
OBJECT063
10
0
20
0
30
0
70
128
71
-5
72
3
73
6
0
SEQEND
8
OBJECT063
0
POLYLINE
8
OBJECT064
66
1
70
64
71
8
72
12
62
50
0
VERTEX
8
OBJECT064
10
56.000000
20
72.000031
30
160.000000
70
192
0
VERTEX
8
OBJECT064
10
216.000000
20
72.000031
30
56.000000
70
192
0
VERTEX
8
OBJECT064
10
216.000000
20
56.000031
30
56.000000
70
192
0
VERTEX
8
OBJECT064
10
56.000000
20
56.000031
30
160.000000
70
192
0
VERTEX
8
OBJECT064
10
56.000000
20
56.000031
30
144.000000
70
192
0
VERTEX
8
OBJECT064
10
216.000000
20
56.000031
30
40.000000
70
192
0
VERTEX
8
OBJECT064
10
216.000000
20
72.000031
30
40.000000
70
192
0
VERTEX
8
OBJECT064
10
56.000000
20
72.000031
30
144.000000
70
192
0
VERTEX
8
OBJECT064
10
0
20
0
30
0
70
128
71
2
72
3
73
-4
0
VERTEX
8
OBJECT064
10
0
20
0
30
0
70
128
71
-2
72
4
73
1
0
VERTEX
8
OBJECT064
10
0
20
0
30
0
70
128
71
6
72
7
73
-8
0
VERTEX
8
OBJECT064
10
0
20
0
30
0
70
128
71
-6
72
8
73
5
0
VERTEX
8
OBJECT064
10
0
20
0
30
0
70
128
71
2
72
7
73
-6
0
VERTEX
8
OBJECT064
10
0
20
0
30
0
70
128
71
-2
72
6
73
3
0
VERTEX
8
OBJECT064
10
0
20
0
30
0
70
128
71
8
72
1
73
-4
0
VERTEX
8
OBJECT064
10
0
20
0
30
0
70
128
71
-8
72
4
73
5
0
VERTEX
8
OBJECT064
10
0
20
0
30
0
70
128
71
1
72
8
73
-7
0
VERTEX
8
OBJECT064
10
0
20
0
30
0
70
128
71
-1
72
7
73
2
0
VERTEX
8
OBJECT064
10
0
20
0
30
0
70
128
71
5
72
4
73
-3
0
VERTEX
8
OBJECT064
10
0
20
0
30
0
70
128
71
-5
72
3
73
6
0
SEQEND
8
OBJECT064
0
POLYLINE
8
OBJECT065
66
1
70
64
71
8
72
12
62
50
0
VERTEX
8
OBJECT065
10
216.000000
20
80.000031
30
64.000000
70
192
0
VERTEX
8
OBJECT065
10
224.000000
20
80.000031
30
64.000000
70
192
0
VERTEX
8
OBJECT065
10
224.000000
20
48.000031
30
64.000000
70
192
0
VERTEX
8
OBJECT065
10
216.000000
20
48.000031
30
64.000000
70
192
0
VERTEX
8
OBJECT065
10
216.000000
20
48.000031
30
32.000000
70
192
0
VERTEX
8
OBJECT065
10
224.000000
20
48.000031
30
32.000000
70
192
0
VERTEX
8
OBJECT065
10
224.000000
20
80.000031
30
32.000000
70
192
0
VERTEX
8
OBJECT065
10
216.000000
20
80.000031
30
32.000000
70
192
0
VERTEX
8
OBJECT065
10
0
20
0
30
0
70
128
71
2
72
3
73
-4
0
VERTEX
8
OBJECT065
10
0
20
0
30
0
70
128
71
-2
72
4
73
1
0
VERTEX
8
OBJECT065
10
0
20
0
30
0
70
128
71
6
72
7
73
-8
0
VERTEX
8
OBJECT065
10
0
20
0
30
0
70
128
71
-6
72
8
73
5
0
VERTEX
8
OBJECT065
10
0
20
0
30
0
70
128
71
4
72
5
73
-8
0
VERTEX
8
OBJECT065
10
0
20
0
30
0
70
128
71
-4
72
8
73
1
0
VERTEX
8
OBJECT065
10
0
20
0
30
0
70
128
71
6
72
3
73
-2
0
VERTEX
8
OBJECT065
10
0
20
0
30
0
70
128
71
-6
72
2
73
7
0
VERTEX
8
OBJECT065
10
0
20
0
30
0
70
128
71
1
72
8
73
-7
0
VERTEX
8
OBJECT065
10
0
20
0
30
0
70
128
71
-1
72
7
73
2
0
VERTEX
8
OBJECT065
10
0
20
0
30
0
70
128
71
5
72
4
73
-3
0
VERTEX
8
OBJECT065
10
0
20
0
30
0
70
128
71
-5
72
3
73
6
0
SEQEND
8
OBJECT065
0
POLYLINE
8
OBJECT066
66
1
70
64
71
8
72
12
62
50
0
VERTEX
8
OBJECT066
10
-56.000000
20
208.000031
30
168.000000
70
192
0
VERTEX
8
OBJECT066
10
-48.000000
20
208.000031
30
168.000000
70
192
0
VERTEX
8
OBJECT066
10
-48.000000
20
176.000031
30
168.000000
70
192
0
VERTEX
8
OBJECT066
10
-56.000000
20
176.000031
30
168.000000
70
192
0
VERTEX
8
OBJECT066
10
-56.000000
20
176.000031
30
136.000000
70
192
0
VERTEX
8
OBJECT066
10
-48.000000
20
176.000031
30
136.000000
70
192
0
VERTEX
8
OBJECT066
10
-48.000000
20
208.000031
30
136.000000
70
192
0
VERTEX
8
OBJECT066
10
-56.000000
20
208.000031
30
136.000000
70
192
0
VERTEX
8
OBJECT066
10
0
20
0
30
0
70
128
71
2
72
3
73
-4
0
VERTEX
8
OBJECT066
10
0
20
0
30
0
70
128
71
-2
72
4
73
1
0
VERTEX
8
OBJECT066
10
0
20
0
30
0
70
128
71
6
72
7
73
-8
0
VERTEX
8
OBJECT066
10
0
20
0
30
0
70
128
71
-6
72
8
73
5
0
VERTEX
8
OBJECT066
10
0
20
0
30
0
70
128
71
4
72
5
73
-8
0
VERTEX
8
OBJECT066
10
0
20
0
30
0
70
128
71
-4
72
8
73
1
0
VERTEX
8
OBJECT066
10
0
20
0
30
0
70
128
71
6
72
3
73
-2
0
VERTEX
8
OBJECT066
10
0
20
0
30
0
70
128
71
-6
72
2
73
7
0
VERTEX
8
OBJECT066
10
0
20
0
30
0
70
128
71
1
72
8
73
-7
0
VERTEX
8
OBJECT066
10
0
20
0
30
0
70
128
71
-1
72
7
73
2
0
VERTEX
8
OBJECT066
10
0
20
0
30
0
70
128
71
5
72
4
73
-3
0
VERTEX
8
OBJECT066
10
0
20
0
30
0
70
128
71
-5
72
3
73
6
0
SEQEND
8
OBJECT066
0
POLYLINE
8
OBJECT067
66
1
70
64
71
8
72
12
62
50
0
VERTEX
8
OBJECT067
10
-56.000000
20
184.000031
30
160.000000
70
192
0
VERTEX
8
OBJECT067
10
-216.000000
20
184.000031
30
56.000000
70
192
0
VERTEX
8
OBJECT067
10
-216.000000
20
200.000031
30
56.000000
70
192
0
VERTEX
8
OBJECT067
10
-56.000000
20
200.000031
30
160.000000
70
192
0
VERTEX
8
OBJECT067
10
-56.000000
20
200.000031
30
144.000000
70
192
0
VERTEX
8
OBJECT067
10
-216.000000
20
200.000031
30
40.000000
70
192
0
VERTEX
8
OBJECT067
10
-216.000000
20
184.000031
30
40.000000
70
192
0
VERTEX
8
OBJECT067
10
-56.000000
20
184.000031
30
144.000000
70
192
0
VERTEX
8
OBJECT067
10
0
20
0
30
0
70
128
71
2
72
3
73
-4
0
VERTEX
8
OBJECT067
10
0
20
0
30
0
70
128
71
-2
72
4
73
1
0
VERTEX
8
OBJECT067
10
0
20
0
30
0
70
128
71
6
72
7
73
-8
0
VERTEX
8
OBJECT067
10
0
20
0
30
0
70
128
71
-6
72
8
73
5
0
VERTEX
8
OBJECT067
10
0
20
0
30
0
70
128
71
6
72
3
73
-2
0
VERTEX
8
OBJECT067
10
0
20
0
30
0
70
128
71
-6
72
2
73
7
0
VERTEX
8
OBJECT067
10
0
20
0
30
0
70
128
71
4
72
5
73
-8
0
VERTEX
8
OBJECT067
10
0
20
0
30
0
70
128
71
-4
72
8
73
1
0
VERTEX
8
OBJECT067
10
0
20
0
30
0
70
128
71
5
72
4
73
-3
0
VERTEX
8
OBJECT067
10
0
20
0
30
0
70
128
71
-5
72
3
73
6
0
VERTEX
8
OBJECT067
10
0
20
0
30
0
70
128
71
1
72
8
73
-7
0
VERTEX
8
OBJECT067
10
0
20
0
30
0
70
128
71
-1
72
7
73
2
0
SEQEND
8
OBJECT067
0
POLYLINE
8
OBJECT068
66
1
70
64
71
8
72
12
62
50
0
VERTEX
8
OBJECT068
10
-224.000000
20
208.000031
30
64.000000
70
192
0
VERTEX
8
OBJECT068
10
-216.000000
20
208.000031
30
64.000000
70
192
0
VERTEX
8
OBJECT068
10
-216.000000
20
176.000031
30
64.000000
70
192
0
VERTEX
8
OBJECT068
10
-224.000000
20
176.000031
30
64.000000
70
192
0
VERTEX
8
OBJECT068
10
-224.000000
20
176.000031
30
32.000000
70
192
0
VERTEX
8
OBJECT068
10
-216.000000
20
176.000031
30
32.000000
70
192
0
VERTEX
8
OBJECT068
10
-216.000000
20
208.000031
30
32.000000
70
192
0
VERTEX
8
OBJECT068
10
-224.000000
20
208.000031
30
32.000000
70
192
0
VERTEX
8
OBJECT068
10
0
20
0
30
0
70
128
71
2
72
3
73
-4
0
VERTEX
8
OBJECT068
10
0
20
0
30
0
70
128
71
-2
72
4
73
1
0
VERTEX
8
OBJECT068
10
0
20
0
30
0
70
128
71
6
72
7
73
-8
0
VERTEX
8
OBJECT068
10
0
20
0
30
0
70
128
71
-6
72
8
73
5
0
VERTEX
8
OBJECT068
10
0
20
0
30
0
70
128
71
4
72
5
73
-8
0
VERTEX
8
OBJECT068
10
0
20
0
30
0
70
128
71
-4
72
8
73
1
0
VERTEX
8
OBJECT068
10
0
20
0
30
0
70
128
71
6
72
3
73
-2
0
VERTEX
8
OBJECT068
10
0
20
0
30
0
70
128
71
-6
72
2
73
7
0
VERTEX
8
OBJECT068
10
0
20
0
30
0
70
128
71
1
72
8
73
-7
0
VERTEX
8
OBJECT068
10
0
20
0
30
0
70
128
71
-1
72
7
73
2
0
VERTEX
8
OBJECT068
10
0
20
0
30
0
70
128
71
5
72
4
73
-3
0
VERTEX
8
OBJECT068
10
0
20
0
30
0
70
128
71
-5
72
3
73
6
0
SEQEND
8
OBJECT068
0
POLYLINE
8
OBJECT069
66
1
70
64
71
8
72
12
62
50
0
VERTEX
8
OBJECT069
10
48.000000
20
208.000031
30
168.000000
70
192
0
VERTEX
8
OBJECT069
10
56.000000
20
208.000031
30
168.000000
70
192
0
VERTEX
8
OBJECT069
10
56.000000
20
176.000031
30
168.000000
70
192
0
VERTEX
8
OBJECT069
10
48.000000
20
176.000031
30
168.000000
70
192
0
VERTEX
8
OBJECT069
10
48.000000
20
176.000031
30
136.000000
70
192
0
VERTEX
8
OBJECT069
10
56.000000
20
176.000031
30
136.000000
70
192
0
VERTEX
8
OBJECT069
10
56.000000
20
208.000031
30
136.000000
70
192
0
VERTEX
8
OBJECT069
10
48.000000
20
208.000031
30
136.000000
70
192
0
VERTEX
8
OBJECT069
10
0
20
0
30
0
70
128
71
2
72
3
73
-4
0
VERTEX
8
OBJECT069
10
0
20
0
30
0
70
128
71
-2
72
4
73
1
0
VERTEX
8
OBJECT069
10
0
20
0
30
0
70
128
71
6
72
7
73
-8
0
VERTEX
8
OBJECT069
10
0
20
0
30
0
70
128
71
-6
72
8
73
5
0
VERTEX
8
OBJECT069
10
0
20
0
30
0
70
128
71
4
72
5
73
-8
0
VERTEX
8
OBJECT069
10
0
20
0
30
0
70
128
71
-4
72
8
73
1
0
VERTEX
8
OBJECT069
10
0
20
0
30
0
70
128
71
6
72
3
73
-2
0
VERTEX
8
OBJECT069
10
0
20
0
30
0
70
128
71
-6
72
2
73
7
0
VERTEX
8
OBJECT069
10
0
20
0
30
0
70
128
71
1
72
8
73
-7
0
VERTEX
8
OBJECT069
10
0
20
0
30
0
70
128
71
-1
72
7
73
2
0
VERTEX
8
OBJECT069
10
0
20
0
30
0
70
128
71
5
72
4
73
-3
0
VERTEX
8
OBJECT069
10
0
20
0
30
0
70
128
71
-5
72
3
73
6
0
SEQEND
8
OBJECT069
0
POLYLINE
8
OBJECT070
66
1
70
64
71
8
72
12
62
50
0
VERTEX
8
OBJECT070
10
56.000000
20
200.000031
30
160.000000
70
192
0
VERTEX
8
OBJECT070
10
216.000000
20
200.000031
30
56.000000
70
192
0
VERTEX
8
OBJECT070
10
216.000000
20
184.000031
30
56.000000
70
192
0
VERTEX
8
OBJECT070
10
56.000000
20
184.000031
30
160.000000
70
192
0
VERTEX
8
OBJECT070
10
56.000000
20
184.000031
30
144.000000
70
192
0
VERTEX
8
OBJECT070
10
216.000000
20
184.000031
30
40.000000
70
192
0
VERTEX
8
OBJECT070
10
216.000000
20
200.000031
30
40.000000
70
192
0
VERTEX
8
OBJECT070
10
56.000000
20
200.000031
30
144.000000
70
192
0
VERTEX
8
OBJECT070
10
0
20
0
30
0
70
128
71
2
72
3
73
-4
0
VERTEX
8
OBJECT070
10
0
20
0
30
0
70
128
71
-2
72
4
73
1
0
VERTEX
8
OBJECT070
10
0
20
0
30
0
70
128
71
6
72
7
73
-8
0
VERTEX
8
OBJECT070
10
0
20
0
30
0
70
128
71
-6
72
8
73
5
0
VERTEX
8
OBJECT070
10
0
20
0
30
0
70
128
71
2
72
7
73
-6
0
VERTEX
8
OBJECT070
10
0
20
0
30
0
70
128
71
-2
72
6
73
3
0
VERTEX
8
OBJECT070
10
0
20
0
30
0
70
128
71
8
72
1
73
-4
0
VERTEX
8
OBJECT070
10
0
20
0
30
0
70
128
71
-8
72
4
73
5
0
VERTEX
8
OBJECT070
10
0
20
0
30
0
70
128
71
1
72
8
73
-7
0
VERTEX
8
OBJECT070
10
0
20
0
30
0
70
128
71
-1
72
7
73
2
0
VERTEX
8
OBJECT070
10
0
20
0
30
0
70
128
71
5
72
4
73
-3
0
VERTEX
8
OBJECT070
10
0
20
0
30
0
70
128
71
-5
72
3
73
6
0
SEQEND
8
OBJECT070
0
POLYLINE
8
OBJECT071
66
1
70
64
71
8
72
12
62
50
0
VERTEX
8
OBJECT071
10
216.000000
20
208.000031
30
64.000000
70
192
0
VERTEX
8
OBJECT071
10
224.000000
20
208.000031
30
64.000000
70
192
0
VERTEX
8
OBJECT071
10
224.000000
20
176.000031
30
64.000000
70
192
0
VERTEX
8
OBJECT071
10
216.000000
20
176.000031
30
64.000000
70
192
0
VERTEX
8
OBJECT071
10
216.000000
20
176.000031
30
32.000000
70
192
0
VERTEX
8
OBJECT071
10
224.000000
20
176.000031
30
32.000000
70
192
0
VERTEX
8
OBJECT071
10
224.000000
20
208.000031
30
32.000000
70
192
0
VERTEX
8
OBJECT071
10
216.000000
20
208.000031
30
32.000000
70
192
0
VERTEX
8
OBJECT071
10
0
20
0
30
0
70
128
71
2
72
3
73
-4
0
VERTEX
8
OBJECT071
10
0
20
0
30
0
70
128
71
-2
72
4
73
1
0
VERTEX
8
OBJECT071
10
0
20
0
30
0
70
128
71
6
72
7
73
-8
0
VERTEX
8
OBJECT071
10
0
20
0
30
0
70
128
71
-6
72
8
73
5
0
VERTEX
8
OBJECT071
10
0
20
0
30
0
70
128
71
4
72
5
73
-8
0
VERTEX
8
OBJECT071
10
0
20
0
30
0
70
128
71
-4
72
8
73
1
0
VERTEX
8
OBJECT071
10
0
20
0
30
0
70
128
71
6
72
3
73
-2
0
VERTEX
8
OBJECT071
10
0
20
0
30
0
70
128
71
-6
72
2
73
7
0
VERTEX
8
OBJECT071
10
0
20
0
30
0
70
128
71
1
72
8
73
-7
0
VERTEX
8
OBJECT071
10
0
20
0
30
0
70
128
71
-1
72
7
73
2
0
VERTEX
8
OBJECT071
10
0
20
0
30
0
70
128
71
5
72
4
73
-3
0
VERTEX
8
OBJECT071
10
0
20
0
30
0
70
128
71
-5
72
3
73
6
0
SEQEND
8
OBJECT071
0
POLYLINE
8
OBJECT072
66
1
70
64
71
8
72
12
62
50
0
VERTEX
8
OBJECT072
10
256.000000
20
448.000031
30
-128.000000
70
192
0
VERTEX
8
OBJECT072
10
256.000000
20
64.000031
30
-128.000000
70
192
0
VERTEX
8
OBJECT072
10
0.000000
20
64.000031
30
-128.000000
70
192
0
VERTEX
8
OBJECT072
10
0.000000
20
576.000000
30
-128.000000
70
192
0
VERTEX
8
OBJECT072
10
256.000000
20
64.000031
30
-192.000000
70
192
0
VERTEX
8
OBJECT072
10
256.000000
20
448.000031
30
-192.000000
70
192
0
VERTEX
8
OBJECT072
10
0.000000
20
576.000000
30
-192.000000
70
192
0
VERTEX
8
OBJECT072
10
0.000000
20
64.000031
30
-192.000000
70
192
0
VERTEX
8
OBJECT072
10
0
20
0
30
0
70
128
71
2
72
3
73
-4
0
VERTEX
8
OBJECT072
10
0
20
0
30
0
70
128
71
-2
72
4
73
1
0
VERTEX
8
OBJECT072
10
0
20
0
30
0
70
128
71
6
72
7
73
-8
0
VERTEX
8
OBJECT072
10
0
20
0
30
0
70
128
71
-6
72
8
73
5
0
VERTEX
8
OBJECT072
10
0
20
0
30
0
70
128
71
6
72
5
73
-2
0
VERTEX
8
OBJECT072
10
0
20
0
30
0
70
128
71
-6
72
2
73
1
0
VERTEX
8
OBJECT072
10
0
20
0
30
0
70
128
71
4
72
3
73
-8
0
VERTEX
8
OBJECT072
10
0
20
0
30
0
70
128
71
-4
72
8
73
7
0
VERTEX
8
OBJECT072
10
0
20
0
30
0
70
128
71
7
72
6
73
-1
0
VERTEX
8
OBJECT072
10
0
20
0
30
0
70
128
71
-7
72
1
73
4
0
VERTEX
8
OBJECT072
10
0
20
0
30
0
70
128
71
3
72
2
73
-5
0
VERTEX
8
OBJECT072
10
0
20
0
30
0
70
128
71
-3
72
5
73
8
0
SEQEND
8
OBJECT072
0
POLYLINE
8
OBJECT073
66
1
70
64
71
8
72
12
62
50
0
VERTEX
8
OBJECT073
10
-256.000000
20
-447.999969
30
-128.000000
70
192
0
VERTEX
8
OBJECT073
10
-256.000000
20
64.000031
30
-128.000000
70
192
0
VERTEX
8
OBJECT073
10
-48.000000
20
64.000031
30
-128.000000
70
192
0
VERTEX
8
OBJECT073
10
-48.000000
20
-447.999969
30
-128.000000
70
192
0
VERTEX
8
OBJECT073
10
-256.000000
20
64.000031
30
-192.000000
70
192
0
VERTEX
8
OBJECT073
10
-256.000000
20
-447.999969
30
-192.000000
70
192
0
VERTEX
8
OBJECT073
10
-48.000000
20
-447.999969
30
-192.000000
70
192
0
VERTEX
8
OBJECT073
10
-48.000000
20
64.000031
30
-192.000000
70
192
0
VERTEX
8
OBJECT073
10
0
20
0
30
0
70
128
71
2
72
3
73
-4
0
VERTEX
8
OBJECT073
10
0
20
0
30
0
70
128
71
-2
72
4
73
1
0
VERTEX
8
OBJECT073
10
0
20
0
30
0
70
128
71
6
72
7
73
-8
0
VERTEX
8
OBJECT073
10
0
20
0
30
0
70
128
71
-6
72
8
73
5
0
VERTEX
8
OBJECT073
10
0
20
0
30
0
70
128
71
5
72
2
73
-1
0
VERTEX
8
OBJECT073
10
0
20
0
30
0
70
128
71
-5
72
1
73
6
0
VERTEX
8
OBJECT073
10
0
20
0
30
0
70
128
71
8
72
3
73
-2
0
VERTEX
8
OBJECT073
10
0
20
0
30
0
70
128
71
-8
72
2
73
5
0
VERTEX
8
OBJECT073
10
0
20
0
30
0
70
128
71
6
72
1
73
-4
0
VERTEX
8
OBJECT073
10
0
20
0
30
0
70
128
71
-6
72
4
73
7
0
VERTEX
8
OBJECT073
10
0
20
0
30
0
70
128
71
7
72
4
73
-3
0
VERTEX
8
OBJECT073
10
0
20
0
30
0
70
128
71
-7
72
3
73
8
0
SEQEND
8
OBJECT073
0
POLYLINE
8
OBJECT074
66
1
70
64
71
8
72
12
62
50
0
VERTEX
8
OBJECT074
10
48.000000
20
64.000031
30
-128.000000
70
192
0
VERTEX
8
OBJECT074
10
256.000000
20
64.000031
30
-128.000000
70
192
0
VERTEX
8
OBJECT074
10
256.000000
20
-447.999969
30
-128.000000
70
192
0
VERTEX
8
OBJECT074
10
48.000000
20
-447.999969
30
-128.000000
70
192
0
VERTEX
8
OBJECT074
10
48.000000
20
-447.999969
30
-192.000000
70
192
0
VERTEX
8
OBJECT074
10
256.000000
20
-447.999969
30
-192.000000
70
192
0
VERTEX
8
OBJECT074
10
256.000000
20
64.000031
30
-192.000000
70
192
0
VERTEX
8
OBJECT074
10
48.000000
20
64.000031
30
-192.000000
70
192
0
VERTEX
8
OBJECT074
10
0
20
0
30
0
70
128
71
2
72
3
73
-4
0
VERTEX
8
OBJECT074
10
0
20
0
30
0
70
128
71
-2
72
4
73
1
0
VERTEX
8
OBJECT074
10
0
20
0
30
0
70
128
71
6
72
7
73
-8
0
VERTEX
8
OBJECT074
10
0
20
0
30
0
70
128
71
-6
72
8
73
5
0
VERTEX
8
OBJECT074
10
0
20
0
30
0
70
128
71
6
72
3
73
-2
0
VERTEX
8
OBJECT074
10
0
20
0
30
0
70
128
71
-6
72
2
73
7
0
VERTEX
8
OBJECT074
10
0
20
0
30
0
70
128
71
7
72
2
73
-1
0
VERTEX
8
OBJECT074
10
0
20
0
30
0
70
128
71
-7
72
1
73
8
0
VERTEX
8
OBJECT074
10
0
20
0
30
0
70
128
71
5
72
4
73
-3
0
VERTEX
8
OBJECT074
10
0
20
0
30
0
70
128
71
-5
72
3
73
6
0
VERTEX
8
OBJECT074
10
0
20
0
30
0
70
128
71
8
72
1
73
-4
0
VERTEX
8
OBJECT074
10
0
20
0
30
0
70
128
71
-8
72
4
73
5
0
SEQEND
8
OBJECT074
0
POLYLINE
8
OBJECT075
66
1
70
64
71
8
72
12
62
50
0
VERTEX
8
OBJECT075
10
-48.000000
20
-207.999969
30
-128.000000
70
192
0
VERTEX
8
OBJECT075
10
-48.000000
20
64.000031
30
-128.000000
70
192
0
VERTEX
8
OBJECT075
10
48.000000
20
64.000031
30
-128.000000
70
192
0
VERTEX
8
OBJECT075
10
48.000000
20
-207.999969
30
-128.000000
70
192
0
VERTEX
8
OBJECT075
10
48.000000
20
64.000031
30
-192.000000
70
192
0
VERTEX
8
OBJECT075
10
-48.000000
20
64.000031
30
-192.000000
70
192
0
VERTEX
8
OBJECT075
10
-48.000000
20
-207.999969
30
-192.000000
70
192
0
VERTEX
8
OBJECT075
10
48.000000
20
-207.999969
30
-192.000000
70
192
0
VERTEX
8
OBJECT075
10
0
20
0
30
0
70
128
71
2
72
3
73
-4
0
VERTEX
8
OBJECT075
10
0
20
0
30
0
70
128
71
-2
72
4
73
1
0
VERTEX
8
OBJECT075
10
0
20
0
30
0
70
128
71
6
72
7
73
-8
0
VERTEX
8
OBJECT075
10
0
20
0
30
0
70
128
71
-6
72
8
73
5
0
VERTEX
8
OBJECT075
10
0
20
0
30
0
70
128
71
5
72
3
73
-2
0
VERTEX
8
OBJECT075
10
0
20
0
30
0
70
128
71
-5
72
2
73
6
0
VERTEX
8
OBJECT075
10
0
20
0
30
0
70
128
71
6
72
2
73
-1
0
VERTEX
8
OBJECT075
10
0
20
0
30
0
70
128
71
-6
72
1
73
7
0
VERTEX
8
OBJECT075
10
0
20
0
30
0
70
128
71
8
72
4
73
-3
0
VERTEX
8
OBJECT075
10
0
20
0
30
0
70
128
71
-8
72
3
73
5
0
VERTEX
8
OBJECT075
10
0
20
0
30
0
70
128
71
7
72
1
73
-4
0
VERTEX
8
OBJECT075
10
0
20
0
30
0
70
128
71
-7
72
4
73
8
0
SEQEND
8
OBJECT075
0
POLYLINE
8
OBJECT076
66
1
70
64
71
8
72
12
62
50
0
VERTEX
8
OBJECT076
10
48.000000
20
-447.999969
30
-128.000000
70
192
0
VERTEX
8
OBJECT076
10
-48.000000
20
-447.999969
30
-128.000000
70
192
0
VERTEX
8
OBJECT076
10
-48.000000
20
-303.999969
30
-128.000000
70
192
0
VERTEX
8
OBJECT076
10
48.000000
20
-303.999969
30
-128.000000
70
192
0
VERTEX
8
OBJECT076
10
-48.000000
20
-303.999969
30
-192.000000
70
192
0
VERTEX
8
OBJECT076
10
-48.000000
20
-447.999969
30
-192.000000
70
192
0
VERTEX
8
OBJECT076
10
48.000000
20
-447.999969
30
-192.000000
70
192
0
VERTEX
8
OBJECT076
10
48.000000
20
-303.999969
30
-192.000000
70
192
0
VERTEX
8
OBJECT076
10
0
20
0
30
0
70
128
71
2
72
3
73
-4
0
VERTEX
8
OBJECT076
10
0
20
0
30
0
70
128
71
-2
72
4
73
1
0
VERTEX
8
OBJECT076
10
0
20
0
30
0
70
128
71
6
72
7
73
-8
0
VERTEX
8
OBJECT076
10
0
20
0
30
0
70
128
71
-6
72
8
73
5
0
VERTEX
8
OBJECT076
10
0
20
0
30
0
70
128
71
6
72
2
73
-1
0
VERTEX
8
OBJECT076
10
0
20
0
30
0
70
128
71
-6
72
1
73
7
0
VERTEX
8
OBJECT076
10
0
20
0
30
0
70
128
71
5
72
3
73
-2
0
VERTEX
8
OBJECT076
10
0
20
0
30
0
70
128
71
-5
72
2
73
6
0
VERTEX
8
OBJECT076
10
0
20
0
30
0
70
128
71
7
72
1
73
-4
0
VERTEX
8
OBJECT076
10
0
20
0
30
0
70
128
71
-7
72
4
73
8
0
VERTEX
8
OBJECT076
10
0
20
0
30
0
70
128
71
8
72
4
73
-3
0
VERTEX
8
OBJECT076
10
0
20
0
30
0
70
128
71
-8
72
3
73
5
0
SEQEND
8
OBJECT076
0
ENDSEC
0
EOF
