0
SECTION
2
HEADER
9
$ACADVER
1
AC1008
9
$UCSORG
10
0.0
20
0.0
30
0.0
9
$UCSXDIR
10
1.0
20
0.0
30
0.0
9
$TILEMODE
70
1
9
$UCSYDIR
10
0.0
20
1.0
30
0.0
9
$EXTMIN
10
-30.000000
20
-80.000000
30
-96.000000
9
$EXTMAX
10
32.000000
20
80.000000
30
128.000000
0
ENDSEC
0
SECTION
2
TABLES
0
TABLE
2
LTYPE
70
1
0
LTYPE
2
CONTINUOUS
70
64
3
Solid line
72
65
73
0
40
0.0
0
ENDTAB
0
TABLE
2
LAYER
70
1
0
LAYER
2
0
70
0
62
7
6
CONTINUOUS
0
ENDTAB
0
TABLE
2
STYLE
70
1
0
STYLE
2
STANDARD
70
0
40
0.0
41
1.0
50
0.0
71
0
42
0.2
3
txt
4

0
ENDTAB
0
TABLE
2
UCS
70
0
0
ENDTAB
0
ENDSEC
0
SECTION
2
ENTITIES
0
POLYLINE
8
OBJECT000
66
1
70
64
71
8
72
12
62
50
0
VERTEX
8
OBJECT000
10
20.000000
20
-51.666565
30
-80.552002
70
192
0
VERTEX
8
OBJECT000
10
2.000000
20
-51.666565
30
-80.552002
70
192
0
VERTEX
8
OBJECT000
10
2.000000
20
-1.666992
30
-80.552002
70
192
0
VERTEX
8
OBJECT000
10
20.000000
20
-1.666992
30
-80.552002
70
192
0
VERTEX
8
OBJECT000
10
11.000000
20
-1.666992
30
-96.000000
70
192
0
VERTEX
8
OBJECT000
10
2.000000
20
-1.666992
30
-96.000000
70
192
0
VERTEX
8
OBJECT000
10
2.000000
20
-51.666565
30
-96.000000
70
192
0
VERTEX
8
OBJECT000
10
11.000000
20
-51.666565
30
-96.000000
70
192
0
VERTEX
8
OBJECT000
10
0
20
0
30
0
70
128
71
2
72
3
73
-4
0
VERTEX
8
OBJECT000
10
0
20
0
30
0
70
128
71
-2
72
4
73
1
0
VERTEX
8
OBJECT000
10
0
20
0
30
0
70
128
71
6
72
7
73
-8
0
VERTEX
8
OBJECT000
10
0
20
0
30
0
70
128
71
-6
72
8
73
5
0
VERTEX
8
OBJECT000
10
0
20
0
30
0
70
128
71
7
72
2
73
-1
0
VERTEX
8
OBJECT000
10
0
20
0
30
0
70
128
71
-7
72
1
73
8
0
VERTEX
8
OBJECT000
10
0
20
0
30
0
70
128
71
5
72
4
73
-3
0
VERTEX
8
OBJECT000
10
0
20
0
30
0
70
128
71
-5
72
3
73
6
0
VERTEX
8
OBJECT000
10
0
20
0
30
0
70
128
71
6
72
3
73
-2
0
VERTEX
8
OBJECT000
10
0
20
0
30
0
70
128
71
-6
72
2
73
7
0
VERTEX
8
OBJECT000
10
0
20
0
30
0
70
128
71
8
72
1
73
-4
0
VERTEX
8
OBJECT000
10
0
20
0
30
0
70
128
71
-8
72
4
73
5
0
SEQEND
8
OBJECT000
0
POLYLINE
8
OBJECT001
66
1
70
64
71
8
72
12
62
50
0
VERTEX
8
OBJECT001
10
20.000000
20
1.665466
30
-80.552002
70
192
0
VERTEX
8
OBJECT001
10
2.000000
20
1.665466
30
-80.552002
70
192
0
VERTEX
8
OBJECT001
10
2.000000
20
51.667053
30
-80.552002
70
192
0
VERTEX
8
OBJECT001
10
20.000000
20
51.667053
30
-80.552002
70
192
0
VERTEX
8
OBJECT001
10
11.000000
20
51.667053
30
-96.000000
70
192
0
VERTEX
8
OBJECT001
10
2.000000
20
51.667053
30
-96.000000
70
192
0
VERTEX
8
OBJECT001
10
2.000000
20
1.665466
30
-96.000000
70
192
0
VERTEX
8
OBJECT001
10
11.000000
20
1.665466
30
-96.000000
70
192
0
VERTEX
8
OBJECT001
10
0
20
0
30
0
70
128
71
2
72
3
73
-4
0
VERTEX
8
OBJECT001
10
0
20
0
30
0
70
128
71
-2
72
4
73
1
0
VERTEX
8
OBJECT001
10
0
20
0
30
0
70
128
71
6
72
7
73
-8
0
VERTEX
8
OBJECT001
10
0
20
0
30
0
70
128
71
-6
72
8
73
5
0
VERTEX
8
OBJECT001
10
0
20
0
30
0
70
128
71
7
72
2
73
-1
0
VERTEX
8
OBJECT001
10
0
20
0
30
0
70
128
71
-7
72
1
73
8
0
VERTEX
8
OBJECT001
10
0
20
0
30
0
70
128
71
5
72
4
73
-3
0
VERTEX
8
OBJECT001
10
0
20
0
30
0
70
128
71
-5
72
3
73
6
0
VERTEX
8
OBJECT001
10
0
20
0
30
0
70
128
71
6
72
3
73
-2
0
VERTEX
8
OBJECT001
10
0
20
0
30
0
70
128
71
-6
72
2
73
7
0
VERTEX
8
OBJECT001
10
0
20
0
30
0
70
128
71
8
72
1
73
-4
0
VERTEX
8
OBJECT001
10
0
20
0
30
0
70
128
71
-8
72
4
73
5
0
SEQEND
8
OBJECT001
0
POLYLINE
8
OBJECT002
66
1
70
64
71
8
72
12
62
50
0
VERTEX
8
OBJECT002
10
32.000000
20
53.333435
30
-65.102997
70
192
0
VERTEX
8
OBJECT002
10
-16.000000
20
53.333435
30
-65.102997
70
192
0
VERTEX
8
OBJECT002
10
-16.000000
20
80.000000
30
-65.102997
70
192
0
VERTEX
8
OBJECT002
10
32.000000
20
80.000000
30
-65.102997
70
192
0
VERTEX
8
OBJECT002
10
32.000000
20
80.000000
30
-96.000000
70
192
0
VERTEX
8
OBJECT002
10
-16.000000
20
80.000000
30
-96.000000
70
192
0
VERTEX
8
OBJECT002
10
-16.000000
20
53.333435
30
-96.000000
70
192
0
VERTEX
8
OBJECT002
10
32.000000
20
53.333435
30
-96.000000
70
192
0
VERTEX
8
OBJECT002
10
0
20
0
30
0
70
128
71
2
72
3
73
-4
0
VERTEX
8
OBJECT002
10
0
20
0
30
0
70
128
71
-2
72
4
73
1
0
VERTEX
8
OBJECT002
10
0
20
0
30
0
70
128
71
6
72
7
73
-8
0
VERTEX
8
OBJECT002
10
0
20
0
30
0
70
128
71
-6
72
8
73
5
0
VERTEX
8
OBJECT002
10
0
20
0
30
0
70
128
71
7
72
2
73
-1
0
VERTEX
8
OBJECT002
10
0
20
0
30
0
70
128
71
-7
72
1
73
8
0
VERTEX
8
OBJECT002
10
0
20
0
30
0
70
128
71
5
72
4
73
-3
0
VERTEX
8
OBJECT002
10
0
20
0
30
0
70
128
71
-5
72
3
73
6
0
VERTEX
8
OBJECT002
10
0
20
0
30
0
70
128
71
6
72
3
73
-2
0
VERTEX
8
OBJECT002
10
0
20
0
30
0
70
128
71
-6
72
2
73
7
0
VERTEX
8
OBJECT002
10
0
20
0
30
0
70
128
71
8
72
1
73
-4
0
VERTEX
8
OBJECT002
10
0
20
0
30
0
70
128
71
-8
72
4
73
5
0
SEQEND
8
OBJECT002
0
POLYLINE
8
OBJECT003
66
1
70
64
71
8
72
12
62
50
0
VERTEX
8
OBJECT003
10
32.000000
20
-79.998596
30
-65.102997
70
192
0
VERTEX
8
OBJECT003
10
-16.000000
20
-79.998596
30
-65.102997
70
192
0
VERTEX
8
OBJECT003
10
-16.000000
20
-53.332947
30
-65.102997
70
192
0
VERTEX
8
OBJECT003
10
32.000000
20
-53.332947
30
-65.102997
70
192
0
VERTEX
8
OBJECT003
10
32.000000
20
-53.332947
30
-96.000000
70
192
0
VERTEX
8
OBJECT003
10
-16.000000
20
-53.332947
30
-96.000000
70
192
0
VERTEX
8
OBJECT003
10
-16.000000
20
-79.998596
30
-96.000000
70
192
0
VERTEX
8
OBJECT003
10
32.000000
20
-79.998596
30
-96.000000
70
192
0
VERTEX
8
OBJECT003
10
0
20
0
30
0
70
128
71
2
72
3
73
-4
0
VERTEX
8
OBJECT003
10
0
20
0
30
0
70
128
71
-2
72
4
73
1
0
VERTEX
8
OBJECT003
10
0
20
0
30
0
70
128
71
6
72
7
73
-8
0
VERTEX
8
OBJECT003
10
0
20
0
30
0
70
128
71
-6
72
8
73
5
0
VERTEX
8
OBJECT003
10
0
20
0
30
0
70
128
71
7
72
2
73
-1
0
VERTEX
8
OBJECT003
10
0
20
0
30
0
70
128
71
-7
72
1
73
8
0
VERTEX
8
OBJECT003
10
0
20
0
30
0
70
128
71
5
72
4
73
-3
0
VERTEX
8
OBJECT003
10
0
20
0
30
0
70
128
71
-5
72
3
73
6
0
VERTEX
8
OBJECT003
10
0
20
0
30
0
70
128
71
6
72
3
73
-2
0
VERTEX
8
OBJECT003
10
0
20
0
30
0
70
128
71
-6
72
2
73
7
0
VERTEX
8
OBJECT003
10
0
20
0
30
0
70
128
71
8
72
1
73
-4
0
VERTEX
8
OBJECT003
10
0
20
0
30
0
70
128
71
-8
72
4
73
5
0
SEQEND
8
OBJECT003
0
POLYLINE
8
OBJECT004
66
1
70
64
71
8
72
12
62
50
0
VERTEX
8
OBJECT004
10
8.000000
20
-66.666565
30
-34.207001
70
192
0
VERTEX
8
OBJECT004
10
-16.000000
20
-66.666565
30
-34.207001
70
192
0
VERTEX
8
OBJECT004
10
-16.000000
20
-53.332947
30
-34.207001
70
192
0
VERTEX
8
OBJECT004
10
8.000000
20
-53.332947
30
-34.207001
70
192
0
VERTEX
8
OBJECT004
10
8.000000
20
-53.332947
30
-63.171997
70
192
0
VERTEX
8
OBJECT004
10
-16.000000
20
-53.332947
30
-63.171997
70
192
0
VERTEX
8
OBJECT004
10
-16.000000
20
-66.666565
30
-63.171997
70
192
0
VERTEX
8
OBJECT004
10
8.000000
20
-66.666565
30
-63.171997
70
192
0
VERTEX
8
OBJECT004
10
0
20
0
30
0
70
128
71
2
72
3
73
-4
0
VERTEX
8
OBJECT004
10
0
20
0
30
0
70
128
71
-2
72
4
73
1
0
VERTEX
8
OBJECT004
10
0
20
0
30
0
70
128
71
6
72
7
73
-8
0
VERTEX
8
OBJECT004
10
0
20
0
30
0
70
128
71
-6
72
8
73
5
0
VERTEX
8
OBJECT004
10
0
20
0
30
0
70
128
71
7
72
2
73
-1
0
VERTEX
8
OBJECT004
10
0
20
0
30
0
70
128
71
-7
72
1
73
8
0
VERTEX
8
OBJECT004
10
0
20
0
30
0
70
128
71
5
72
4
73
-3
0
VERTEX
8
OBJECT004
10
0
20
0
30
0
70
128
71
-5
72
3
73
6
0
VERTEX
8
OBJECT004
10
0
20
0
30
0
70
128
71
6
72
3
73
-2
0
VERTEX
8
OBJECT004
10
0
20
0
30
0
70
128
71
-6
72
2
73
7
0
VERTEX
8
OBJECT004
10
0
20
0
30
0
70
128
71
8
72
1
73
-4
0
VERTEX
8
OBJECT004
10
0
20
0
30
0
70
128
71
-8
72
4
73
5
0
SEQEND
8
OBJECT004
0
POLYLINE
8
OBJECT005
66
1
70
64
71
8
72
12
62
50
0
VERTEX
8
OBJECT005
10
18.500000
20
-1.666565
30
-80.552002
70
192
0
VERTEX
8
OBJECT005
10
2.000000
20
-1.666565
30
-80.552002
70
192
0
VERTEX
8
OBJECT005
10
2.000000
20
1.667053
30
-80.552002
70
192
0
VERTEX
8
OBJECT005
10
18.500000
20
1.667053
30
-80.552002
70
192
0
VERTEX
8
OBJECT005
10
9.500000
20
1.667053
30
-96.000000
70
192
0
VERTEX
8
OBJECT005
10
2.000000
20
1.667053
30
-96.000000
70
192
0
VERTEX
8
OBJECT005
10
2.000000
20
-1.666565
30
-96.000000
70
192
0
VERTEX
8
OBJECT005
10
9.500000
20
-1.666565
30
-96.000000
70
192
0
VERTEX
8
OBJECT005
10
0
20
0
30
0
70
128
71
2
72
3
73
-4
0
VERTEX
8
OBJECT005
10
0
20
0
30
0
70
128
71
-2
72
4
73
1
0
VERTEX
8
OBJECT005
10
0
20
0
30
0
70
128
71
6
72
7
73
-8
0
VERTEX
8
OBJECT005
10
0
20
0
30
0
70
128
71
-6
72
8
73
5
0
VERTEX
8
OBJECT005
10
0
20
0
30
0
70
128
71
7
72
2
73
-1
0
VERTEX
8
OBJECT005
10
0
20
0
30
0
70
128
71
-7
72
1
73
8
0
VERTEX
8
OBJECT005
10
0
20
0
30
0
70
128
71
5
72
4
73
-3
0
VERTEX
8
OBJECT005
10
0
20
0
30
0
70
128
71
-5
72
3
73
6
0
VERTEX
8
OBJECT005
10
0
20
0
30
0
70
128
71
6
72
3
73
-2
0
VERTEX
8
OBJECT005
10
0
20
0
30
0
70
128
71
-6
72
2
73
7
0
VERTEX
8
OBJECT005
10
0
20
0
30
0
70
128
71
8
72
1
73
-4
0
VERTEX
8
OBJECT005
10
0
20
0
30
0
70
128
71
-8
72
4
73
5
0
SEQEND
8
OBJECT005
0
POLYLINE
8
OBJECT006
66
1
70
64
71
8
72
12
62
50
0
VERTEX
8
OBJECT006
10
18.500000
20
-53.334534
30
-80.552002
70
192
0
VERTEX
8
OBJECT006
10
2.000000
20
-53.334534
30
-80.552002
70
192
0
VERTEX
8
OBJECT006
10
2.000000
20
-51.666992
30
-80.552002
70
192
0
VERTEX
8
OBJECT006
10
18.500000
20
-51.666992
30
-80.552002
70
192
0
VERTEX
8
OBJECT006
10
9.500000
20
-51.666992
30
-96.000000
70
192
0
VERTEX
8
OBJECT006
10
2.000000
20
-51.666992
30
-96.000000
70
192
0
VERTEX
8
OBJECT006
10
2.000000
20
-53.334534
30
-96.000000
70
192
0
VERTEX
8
OBJECT006
10
9.500000
20
-53.334534
30
-96.000000
70
192
0
VERTEX
8
OBJECT006
10
0
20
0
30
0
70
128
71
2
72
3
73
-4
0
VERTEX
8
OBJECT006
10
0
20
0
30
0
70
128
71
-2
72
4
73
1
0
VERTEX
8
OBJECT006
10
0
20
0
30
0
70
128
71
6
72
7
73
-8
0
VERTEX
8
OBJECT006
10
0
20
0
30
0
70
128
71
-6
72
8
73
5
0
VERTEX
8
OBJECT006
10
0
20
0
30
0
70
128
71
7
72
2
73
-1
0
VERTEX
8
OBJECT006
10
0
20
0
30
0
70
128
71
-7
72
1
73
8
0
VERTEX
8
OBJECT006
10
0
20
0
30
0
70
128
71
5
72
4
73
-3
0
VERTEX
8
OBJECT006
10
0
20
0
30
0
70
128
71
-5
72
3
73
6
0
VERTEX
8
OBJECT006
10
0
20
0
30
0
70
128
71
6
72
3
73
-2
0
VERTEX
8
OBJECT006
10
0
20
0
30
0
70
128
71
-6
72
2
73
7
0
VERTEX
8
OBJECT006
10
0
20
0
30
0
70
128
71
8
72
1
73
-4
0
VERTEX
8
OBJECT006
10
0
20
0
30
0
70
128
71
-8
72
4
73
5
0
SEQEND
8
OBJECT006
0
POLYLINE
8
OBJECT007
66
1
70
64
71
8
72
12
62
50
0
VERTEX
8
OBJECT007
10
18.500000
20
51.665466
30
-80.552002
70
192
0
VERTEX
8
OBJECT007
10
2.000000
20
51.665466
30
-80.552002
70
192
0
VERTEX
8
OBJECT007
10
2.000000
20
53.333008
30
-80.552002
70
192
0
VERTEX
8
OBJECT007
10
18.500000
20
53.333008
30
-80.552002
70
192
0
VERTEX
8
OBJECT007
10
9.500000
20
53.333008
30
-96.000000
70
192
0
VERTEX
8
OBJECT007
10
2.000000
20
53.333008
30
-96.000000
70
192
0
VERTEX
8
OBJECT007
10
2.000000
20
51.665466
30
-96.000000
70
192
0
VERTEX
8
OBJECT007
10
9.500000
20
51.665466
30
-96.000000
70
192
0
VERTEX
8
OBJECT007
10
0
20
0
30
0
70
128
71
2
72
3
73
-4
0
VERTEX
8
OBJECT007
10
0
20
0
30
0
70
128
71
-2
72
4
73
1
0
VERTEX
8
OBJECT007
10
0
20
0
30
0
70
128
71
6
72
7
73
-8
0
VERTEX
8
OBJECT007
10
0
20
0
30
0
70
128
71
-6
72
8
73
5
0
VERTEX
8
OBJECT007
10
0
20
0
30
0
70
128
71
7
72
2
73
-1
0
VERTEX
8
OBJECT007
10
0
20
0
30
0
70
128
71
-7
72
1
73
8
0
VERTEX
8
OBJECT007
10
0
20
0
30
0
70
128
71
5
72
4
73
-3
0
VERTEX
8
OBJECT007
10
0
20
0
30
0
70
128
71
-5
72
3
73
6
0
VERTEX
8
OBJECT007
10
0
20
0
30
0
70
128
71
6
72
3
73
-2
0
VERTEX
8
OBJECT007
10
0
20
0
30
0
70
128
71
-6
72
2
73
7
0
VERTEX
8
OBJECT007
10
0
20
0
30
0
70
128
71
8
72
1
73
-4
0
VERTEX
8
OBJECT007
10
0
20
0
30
0
70
128
71
-8
72
4
73
5
0
SEQEND
8
OBJECT007
0
POLYLINE
8
OBJECT008
66
1
70
64
71
8
72
12
62
50
0
VERTEX
8
OBJECT008
10
6.500000
20
-66.666565
30
-63.171997
70
192
0
VERTEX
8
OBJECT008
10
-16.000000
20
-66.666565
30
-63.171997
70
192
0
VERTEX
8
OBJECT008
10
-16.000000
20
-54.166992
30
-63.171997
70
192
0
VERTEX
8
OBJECT008
10
6.500000
20
-54.166992
30
-63.171997
70
192
0
VERTEX
8
OBJECT008
10
6.500000
20
-54.166992
30
-65.102997
70
192
0
VERTEX
8
OBJECT008
10
-16.000000
20
-54.166992
30
-65.102997
70
192
0
VERTEX
8
OBJECT008
10
-16.000000
20
-66.666565
30
-65.102997
70
192
0
VERTEX
8
OBJECT008
10
6.500000
20
-66.666565
30
-65.102997
70
192
0
VERTEX
8
OBJECT008
10
0
20
0
30
0
70
128
71
2
72
3
73
-4
0
VERTEX
8
OBJECT008
10
0
20
0
30
0
70
128
71
-2
72
4
73
1
0
VERTEX
8
OBJECT008
10
0
20
0
30
0
70
128
71
6
72
7
73
-8
0
VERTEX
8
OBJECT008
10
0
20
0
30
0
70
128
71
-6
72
8
73
5
0
VERTEX
8
OBJECT008
10
0
20
0
30
0
70
128
71
7
72
2
73
-1
0
VERTEX
8
OBJECT008
10
0
20
0
30
0
70
128
71
-7
72
1
73
8
0
VERTEX
8
OBJECT008
10
0
20
0
30
0
70
128
71
5
72
4
73
-3
0
VERTEX
8
OBJECT008
10
0
20
0
30
0
70
128
71
-5
72
3
73
6
0
VERTEX
8
OBJECT008
10
0
20
0
30
0
70
128
71
6
72
3
73
-2
0
VERTEX
8
OBJECT008
10
0
20
0
30
0
70
128
71
-6
72
2
73
7
0
VERTEX
8
OBJECT008
10
0
20
0
30
0
70
128
71
8
72
1
73
-4
0
VERTEX
8
OBJECT008
10
0
20
0
30
0
70
128
71
-8
72
4
73
5
0
SEQEND
8
OBJECT008
0
POLYLINE
8
OBJECT009
66
1
70
64
71
8
72
12
62
50
0
VERTEX
8
OBJECT009
10
8.000000
20
-66.666565
30
-3.309998
70
192
0
VERTEX
8
OBJECT009
10
-16.000000
20
-66.666565
30
-3.309998
70
192
0
VERTEX
8
OBJECT009
10
-16.000000
20
-53.332947
30
-3.309998
70
192
0
VERTEX
8
OBJECT009
10
8.000000
20
-53.332947
30
-3.309998
70
192
0
VERTEX
8
OBJECT009
10
8.000000
20
-53.332947
30
-32.276001
70
192
0
VERTEX
8
OBJECT009
10
-16.000000
20
-53.332947
30
-32.276001
70
192
0
VERTEX
8
OBJECT009
10
-16.000000
20
-66.666565
30
-32.276001
70
192
0
VERTEX
8
OBJECT009
10
8.000000
20
-66.666565
30
-32.276001
70
192
0
VERTEX
8
OBJECT009
10
0
20
0
30
0
70
128
71
2
72
3
73
-4
0
VERTEX
8
OBJECT009
10
0
20
0
30
0
70
128
71
-2
72
4
73
1
0
VERTEX
8
OBJECT009
10
0
20
0
30
0
70
128
71
6
72
7
73
-8
0
VERTEX
8
OBJECT009
10
0
20
0
30
0
70
128
71
-6
72
8
73
5
0
VERTEX
8
OBJECT009
10
0
20
0
30
0
70
128
71
7
72
2
73
-1
0
VERTEX
8
OBJECT009
10
0
20
0
30
0
70
128
71
-7
72
1
73
8
0
VERTEX
8
OBJECT009
10
0
20
0
30
0
70
128
71
5
72
4
73
-3
0
VERTEX
8
OBJECT009
10
0
20
0
30
0
70
128
71
-5
72
3
73
6
0
VERTEX
8
OBJECT009
10
0
20
0
30
0
70
128
71
6
72
3
73
-2
0
VERTEX
8
OBJECT009
10
0
20
0
30
0
70
128
71
-6
72
2
73
7
0
VERTEX
8
OBJECT009
10
0
20
0
30
0
70
128
71
8
72
1
73
-4
0
VERTEX
8
OBJECT009
10
0
20
0
30
0
70
128
71
-8
72
4
73
5
0
SEQEND
8
OBJECT009
0
POLYLINE
8
OBJECT010
66
1
70
64
71
8
72
12
62
50
0
VERTEX
8
OBJECT010
10
6.500000
20
-66.666565
30
-32.276001
70
192
0
VERTEX
8
OBJECT010
10
-16.000000
20
-66.666565
30
-32.276001
70
192
0
VERTEX
8
OBJECT010
10
-16.000000
20
-54.166992
30
-32.276001
70
192
0
VERTEX
8
OBJECT010
10
6.500000
20
-54.166992
30
-32.276001
70
192
0
VERTEX
8
OBJECT010
10
6.500000
20
-54.166992
30
-34.207001
70
192
0
VERTEX
8
OBJECT010
10
-16.000000
20
-54.166992
30
-34.207001
70
192
0
VERTEX
8
OBJECT010
10
-16.000000
20
-66.666565
30
-34.207001
70
192
0
VERTEX
8
OBJECT010
10
6.500000
20
-66.666565
30
-34.207001
70
192
0
VERTEX
8
OBJECT010
10
0
20
0
30
0
70
128
71
2
72
3
73
-4
0
VERTEX
8
OBJECT010
10
0
20
0
30
0
70
128
71
-2
72
4
73
1
0
VERTEX
8
OBJECT010
10
0
20
0
30
0
70
128
71
6
72
7
73
-8
0
VERTEX
8
OBJECT010
10
0
20
0
30
0
70
128
71
-6
72
8
73
5
0
VERTEX
8
OBJECT010
10
0
20
0
30
0
70
128
71
7
72
2
73
-1
0
VERTEX
8
OBJECT010
10
0
20
0
30
0
70
128
71
-7
72
1
73
8
0
VERTEX
8
OBJECT010
10
0
20
0
30
0
70
128
71
5
72
4
73
-3
0
VERTEX
8
OBJECT010
10
0
20
0
30
0
70
128
71
-5
72
3
73
6
0
VERTEX
8
OBJECT010
10
0
20
0
30
0
70
128
71
6
72
3
73
-2
0
VERTEX
8
OBJECT010
10
0
20
0
30
0
70
128
71
-6
72
2
73
7
0
VERTEX
8
OBJECT010
10
0
20
0
30
0
70
128
71
8
72
1
73
-4
0
VERTEX
8
OBJECT010
10
0
20
0
30
0
70
128
71
-8
72
4
73
5
0
SEQEND
8
OBJECT010
0
POLYLINE
8
OBJECT011
66
1
70
64
71
8
72
12
62
50
0
VERTEX
8
OBJECT011
10
8.000000
20
-66.666565
30
27.585999
70
192
0
VERTEX
8
OBJECT011
10
-16.000000
20
-66.666565
30
27.585999
70
192
0
VERTEX
8
OBJECT011
10
-16.000000
20
-53.332947
30
27.585999
70
192
0
VERTEX
8
OBJECT011
10
8.000000
20
-53.332947
30
27.585999
70
192
0
VERTEX
8
OBJECT011
10
8.000000
20
-53.332947
30
-1.378998
70
192
0
VERTEX
8
OBJECT011
10
-16.000000
20
-53.332947
30
-1.378998
70
192
0
VERTEX
8
OBJECT011
10
-16.000000
20
-66.666565
30
-1.378998
70
192
0
VERTEX
8
OBJECT011
10
8.000000
20
-66.666565
30
-1.378998
70
192
0
VERTEX
8
OBJECT011
10
0
20
0
30
0
70
128
71
2
72
3
73
-4
0
VERTEX
8
OBJECT011
10
0
20
0
30
0
70
128
71
-2
72
4
73
1
0
VERTEX
8
OBJECT011
10
0
20
0
30
0
70
128
71
6
72
7
73
-8
0
VERTEX
8
OBJECT011
10
0
20
0
30
0
70
128
71
-6
72
8
73
5
0
VERTEX
8
OBJECT011
10
0
20
0
30
0
70
128
71
7
72
2
73
-1
0
VERTEX
8
OBJECT011
10
0
20
0
30
0
70
128
71
-7
72
1
73
8
0
VERTEX
8
OBJECT011
10
0
20
0
30
0
70
128
71
5
72
4
73
-3
0
VERTEX
8
OBJECT011
10
0
20
0
30
0
70
128
71
-5
72
3
73
6
0
VERTEX
8
OBJECT011
10
0
20
0
30
0
70
128
71
6
72
3
73
-2
0
VERTEX
8
OBJECT011
10
0
20
0
30
0
70
128
71
-6
72
2
73
7
0
VERTEX
8
OBJECT011
10
0
20
0
30
0
70
128
71
8
72
1
73
-4
0
VERTEX
8
OBJECT011
10
0
20
0
30
0
70
128
71
-8
72
4
73
5
0
SEQEND
8
OBJECT011
0
POLYLINE
8
OBJECT012
66
1
70
64
71
8
72
12
62
50
0
VERTEX
8
OBJECT012
10
6.500000
20
-66.666565
30
-1.378998
70
192
0
VERTEX
8
OBJECT012
10
-16.000000
20
-66.666565
30
-1.378998
70
192
0
VERTEX
8
OBJECT012
10
-16.000000
20
-54.166992
30
-1.378998
70
192
0
VERTEX
8
OBJECT012
10
6.500000
20
-54.166992
30
-1.378998
70
192
0
VERTEX
8
OBJECT012
10
6.500000
20
-54.166992
30
-3.309998
70
192
0
VERTEX
8
OBJECT012
10
-16.000000
20
-54.166992
30
-3.309998
70
192
0
VERTEX
8
OBJECT012
10
-16.000000
20
-66.666565
30
-3.309998
70
192
0
VERTEX
8
OBJECT012
10
6.500000
20
-66.666565
30
-3.309998
70
192
0
VERTEX
8
OBJECT012
10
0
20
0
30
0
70
128
71
2
72
3
73
-4
0
VERTEX
8
OBJECT012
10
0
20
0
30
0
70
128
71
-2
72
4
73
1
0
VERTEX
8
OBJECT012
10
0
20
0
30
0
70
128
71
6
72
7
73
-8
0
VERTEX
8
OBJECT012
10
0
20
0
30
0
70
128
71
-6
72
8
73
5
0
VERTEX
8
OBJECT012
10
0
20
0
30
0
70
128
71
7
72
2
73
-1
0
VERTEX
8
OBJECT012
10
0
20
0
30
0
70
128
71
-7
72
1
73
8
0
VERTEX
8
OBJECT012
10
0
20
0
30
0
70
128
71
5
72
4
73
-3
0
VERTEX
8
OBJECT012
10
0
20
0
30
0
70
128
71
-5
72
3
73
6
0
VERTEX
8
OBJECT012
10
0
20
0
30
0
70
128
71
6
72
3
73
-2
0
VERTEX
8
OBJECT012
10
0
20
0
30
0
70
128
71
-6
72
2
73
7
0
VERTEX
8
OBJECT012
10
0
20
0
30
0
70
128
71
8
72
1
73
-4
0
VERTEX
8
OBJECT012
10
0
20
0
30
0
70
128
71
-8
72
4
73
5
0
SEQEND
8
OBJECT012
0
POLYLINE
8
OBJECT013
66
1
70
64
71
8
72
12
62
50
0
VERTEX
8
OBJECT013
10
6.500000
20
53.333435
30
-63.171997
70
192
0
VERTEX
8
OBJECT013
10
-16.000000
20
53.333435
30
-63.171997
70
192
0
VERTEX
8
OBJECT013
10
-16.000000
20
66.667053
30
-63.171997
70
192
0
VERTEX
8
OBJECT013
10
6.500000
20
66.667053
30
-63.171997
70
192
0
VERTEX
8
OBJECT013
10
6.500000
20
66.667053
30
-65.102997
70
192
0
VERTEX
8
OBJECT013
10
-16.000000
20
66.667053
30
-65.102997
70
192
0
VERTEX
8
OBJECT013
10
-16.000000
20
53.333435
30
-65.102997
70
192
0
VERTEX
8
OBJECT013
10
6.500000
20
53.333435
30
-65.102997
70
192
0
VERTEX
8
OBJECT013
10
0
20
0
30
0
70
128
71
2
72
3
73
-4
0
VERTEX
8
OBJECT013
10
0
20
0
30
0
70
128
71
-2
72
4
73
1
0
VERTEX
8
OBJECT013
10
0
20
0
30
0
70
128
71
6
72
7
73
-8
0
VERTEX
8
OBJECT013
10
0
20
0
30
0
70
128
71
-6
72
8
73
5
0
VERTEX
8
OBJECT013
10
0
20
0
30
0
70
128
71
7
72
2
73
-1
0
VERTEX
8
OBJECT013
10
0
20
0
30
0
70
128
71
-7
72
1
73
8
0
VERTEX
8
OBJECT013
10
0
20
0
30
0
70
128
71
5
72
4
73
-3
0
VERTEX
8
OBJECT013
10
0
20
0
30
0
70
128
71
-5
72
3
73
6
0
VERTEX
8
OBJECT013
10
0
20
0
30
0
70
128
71
6
72
3
73
-2
0
VERTEX
8
OBJECT013
10
0
20
0
30
0
70
128
71
-6
72
2
73
7
0
VERTEX
8
OBJECT013
10
0
20
0
30
0
70
128
71
8
72
1
73
-4
0
VERTEX
8
OBJECT013
10
0
20
0
30
0
70
128
71
-8
72
4
73
5
0
SEQEND
8
OBJECT013
0
POLYLINE
8
OBJECT014
66
1
70
64
71
8
72
12
62
50
0
VERTEX
8
OBJECT014
10
8.000000
20
53.333435
30
-34.207001
70
192
0
VERTEX
8
OBJECT014
10
-16.000000
20
53.333435
30
-34.207001
70
192
0
VERTEX
8
OBJECT014
10
-16.000000
20
66.667053
30
-34.207001
70
192
0
VERTEX
8
OBJECT014
10
8.000000
20
66.667053
30
-34.207001
70
192
0
VERTEX
8
OBJECT014
10
8.000000
20
66.667053
30
-63.171997
70
192
0
VERTEX
8
OBJECT014
10
-16.000000
20
66.667053
30
-63.171997
70
192
0
VERTEX
8
OBJECT014
10
-16.000000
20
53.333435
30
-63.171997
70
192
0
VERTEX
8
OBJECT014
10
8.000000
20
53.333435
30
-63.171997
70
192
0
VERTEX
8
OBJECT014
10
0
20
0
30
0
70
128
71
2
72
3
73
-4
0
VERTEX
8
OBJECT014
10
0
20
0
30
0
70
128
71
-2
72
4
73
1
0
VERTEX
8
OBJECT014
10
0
20
0
30
0
70
128
71
6
72
7
73
-8
0
VERTEX
8
OBJECT014
10
0
20
0
30
0
70
128
71
-6
72
8
73
5
0
VERTEX
8
OBJECT014
10
0
20
0
30
0
70
128
71
7
72
2
73
-1
0
VERTEX
8
OBJECT014
10
0
20
0
30
0
70
128
71
-7
72
1
73
8
0
VERTEX
8
OBJECT014
10
0
20
0
30
0
70
128
71
5
72
4
73
-3
0
VERTEX
8
OBJECT014
10
0
20
0
30
0
70
128
71
-5
72
3
73
6
0
VERTEX
8
OBJECT014
10
0
20
0
30
0
70
128
71
6
72
3
73
-2
0
VERTEX
8
OBJECT014
10
0
20
0
30
0
70
128
71
-6
72
2
73
7
0
VERTEX
8
OBJECT014
10
0
20
0
30
0
70
128
71
8
72
1
73
-4
0
VERTEX
8
OBJECT014
10
0
20
0
30
0
70
128
71
-8
72
4
73
5
0
SEQEND
8
OBJECT014
0
POLYLINE
8
OBJECT015
66
1
70
64
71
8
72
12
62
50
0
VERTEX
8
OBJECT015
10
6.500000
20
53.333435
30
-32.276001
70
192
0
VERTEX
8
OBJECT015
10
-16.000000
20
53.333435
30
-32.276001
70
192
0
VERTEX
8
OBJECT015
10
-16.000000
20
66.667053
30
-32.276001
70
192
0
VERTEX
8
OBJECT015
10
6.500000
20
66.667053
30
-32.276001
70
192
0
VERTEX
8
OBJECT015
10
6.500000
20
66.667053
30
-34.207001
70
192
0
VERTEX
8
OBJECT015
10
-16.000000
20
66.667053
30
-34.207001
70
192
0
VERTEX
8
OBJECT015
10
-16.000000
20
53.333435
30
-34.207001
70
192
0
VERTEX
8
OBJECT015
10
6.500000
20
53.333435
30
-34.207001
70
192
0
VERTEX
8
OBJECT015
10
0
20
0
30
0
70
128
71
2
72
3
73
-4
0
VERTEX
8
OBJECT015
10
0
20
0
30
0
70
128
71
-2
72
4
73
1
0
VERTEX
8
OBJECT015
10
0
20
0
30
0
70
128
71
6
72
7
73
-8
0
VERTEX
8
OBJECT015
10
0
20
0
30
0
70
128
71
-6
72
8
73
5
0
VERTEX
8
OBJECT015
10
0
20
0
30
0
70
128
71
7
72
2
73
-1
0
VERTEX
8
OBJECT015
10
0
20
0
30
0
70
128
71
-7
72
1
73
8
0
VERTEX
8
OBJECT015
10
0
20
0
30
0
70
128
71
5
72
4
73
-3
0
VERTEX
8
OBJECT015
10
0
20
0
30
0
70
128
71
-5
72
3
73
6
0
VERTEX
8
OBJECT015
10
0
20
0
30
0
70
128
71
6
72
3
73
-2
0
VERTEX
8
OBJECT015
10
0
20
0
30
0
70
128
71
-6
72
2
73
7
0
VERTEX
8
OBJECT015
10
0
20
0
30
0
70
128
71
8
72
1
73
-4
0
VERTEX
8
OBJECT015
10
0
20
0
30
0
70
128
71
-8
72
4
73
5
0
SEQEND
8
OBJECT015
0
POLYLINE
8
OBJECT016
66
1
70
64
71
8
72
12
62
50
0
VERTEX
8
OBJECT016
10
8.000000
20
53.333435
30
-3.309998
70
192
0
VERTEX
8
OBJECT016
10
-16.000000
20
53.333435
30
-3.309998
70
192
0
VERTEX
8
OBJECT016
10
-16.000000
20
66.667053
30
-3.309998
70
192
0
VERTEX
8
OBJECT016
10
8.000000
20
66.667053
30
-3.309998
70
192
0
VERTEX
8
OBJECT016
10
8.000000
20
66.667053
30
-32.276001
70
192
0
VERTEX
8
OBJECT016
10
-16.000000
20
66.667053
30
-32.276001
70
192
0
VERTEX
8
OBJECT016
10
-16.000000
20
53.333435
30
-32.276001
70
192
0
VERTEX
8
OBJECT016
10
8.000000
20
53.333435
30
-32.276001
70
192
0
VERTEX
8
OBJECT016
10
0
20
0
30
0
70
128
71
2
72
3
73
-4
0
VERTEX
8
OBJECT016
10
0
20
0
30
0
70
128
71
-2
72
4
73
1
0
VERTEX
8
OBJECT016
10
0
20
0
30
0
70
128
71
6
72
7
73
-8
0
VERTEX
8
OBJECT016
10
0
20
0
30
0
70
128
71
-6
72
8
73
5
0
VERTEX
8
OBJECT016
10
0
20
0
30
0
70
128
71
7
72
2
73
-1
0
VERTEX
8
OBJECT016
10
0
20
0
30
0
70
128
71
-7
72
1
73
8
0
VERTEX
8
OBJECT016
10
0
20
0
30
0
70
128
71
5
72
4
73
-3
0
VERTEX
8
OBJECT016
10
0
20
0
30
0
70
128
71
-5
72
3
73
6
0
VERTEX
8
OBJECT016
10
0
20
0
30
0
70
128
71
6
72
3
73
-2
0
VERTEX
8
OBJECT016
10
0
20
0
30
0
70
128
71
-6
72
2
73
7
0
VERTEX
8
OBJECT016
10
0
20
0
30
0
70
128
71
8
72
1
73
-4
0
VERTEX
8
OBJECT016
10
0
20
0
30
0
70
128
71
-8
72
4
73
5
0
SEQEND
8
OBJECT016
0
POLYLINE
8
OBJECT017
66
1
70
64
71
8
72
12
62
50
0
VERTEX
8
OBJECT017
10
6.500000
20
53.333435
30
-1.378998
70
192
0
VERTEX
8
OBJECT017
10
-16.000000
20
53.333435
30
-1.378998
70
192
0
VERTEX
8
OBJECT017
10
-16.000000
20
66.667053
30
-1.378998
70
192
0
VERTEX
8
OBJECT017
10
6.500000
20
66.667053
30
-1.378998
70
192
0
VERTEX
8
OBJECT017
10
6.500000
20
66.667053
30
-3.309998
70
192
0
VERTEX
8
OBJECT017
10
-16.000000
20
66.667053
30
-3.309998
70
192
0
VERTEX
8
OBJECT017
10
-16.000000
20
53.333435
30
-3.309998
70
192
0
VERTEX
8
OBJECT017
10
6.500000
20
53.333435
30
-3.309998
70
192
0
VERTEX
8
OBJECT017
10
0
20
0
30
0
70
128
71
2
72
3
73
-4
0
VERTEX
8
OBJECT017
10
0
20
0
30
0
70
128
71
-2
72
4
73
1
0
VERTEX
8
OBJECT017
10
0
20
0
30
0
70
128
71
6
72
7
73
-8
0
VERTEX
8
OBJECT017
10
0
20
0
30
0
70
128
71
-6
72
8
73
5
0
VERTEX
8
OBJECT017
10
0
20
0
30
0
70
128
71
7
72
2
73
-1
0
VERTEX
8
OBJECT017
10
0
20
0
30
0
70
128
71
-7
72
1
73
8
0
VERTEX
8
OBJECT017
10
0
20
0
30
0
70
128
71
5
72
4
73
-3
0
VERTEX
8
OBJECT017
10
0
20
0
30
0
70
128
71
-5
72
3
73
6
0
VERTEX
8
OBJECT017
10
0
20
0
30
0
70
128
71
6
72
3
73
-2
0
VERTEX
8
OBJECT017
10
0
20
0
30
0
70
128
71
-6
72
2
73
7
0
VERTEX
8
OBJECT017
10
0
20
0
30
0
70
128
71
8
72
1
73
-4
0
VERTEX
8
OBJECT017
10
0
20
0
30
0
70
128
71
-8
72
4
73
5
0
SEQEND
8
OBJECT017
0
POLYLINE
8
OBJECT018
66
1
70
64
71
8
72
12
62
50
0
VERTEX
8
OBJECT018
10
8.000000
20
53.333435
30
27.585999
70
192
0
VERTEX
8
OBJECT018
10
-16.000000
20
53.333435
30
27.585999
70
192
0
VERTEX
8
OBJECT018
10
-16.000000
20
66.667053
30
27.585999
70
192
0
VERTEX
8
OBJECT018
10
8.000000
20
66.667053
30
27.585999
70
192
0
VERTEX
8
OBJECT018
10
8.000000
20
66.667053
30
-1.378998
70
192
0
VERTEX
8
OBJECT018
10
-16.000000
20
66.667053
30
-1.378998
70
192
0
VERTEX
8
OBJECT018
10
-16.000000
20
53.333435
30
-1.378998
70
192
0
VERTEX
8
OBJECT018
10
8.000000
20
53.333435
30
-1.378998
70
192
0
VERTEX
8
OBJECT018
10
0
20
0
30
0
70
128
71
2
72
3
73
-4
0
VERTEX
8
OBJECT018
10
0
20
0
30
0
70
128
71
-2
72
4
73
1
0
VERTEX
8
OBJECT018
10
0
20
0
30
0
70
128
71
6
72
7
73
-8
0
VERTEX
8
OBJECT018
10
0
20
0
30
0
70
128
71
-6
72
8
73
5
0
VERTEX
8
OBJECT018
10
0
20
0
30
0
70
128
71
7
72
2
73
-1
0
VERTEX
8
OBJECT018
10
0
20
0
30
0
70
128
71
-7
72
1
73
8
0
VERTEX
8
OBJECT018
10
0
20
0
30
0
70
128
71
5
72
4
73
-3
0
VERTEX
8
OBJECT018
10
0
20
0
30
0
70
128
71
-5
72
3
73
6
0
VERTEX
8
OBJECT018
10
0
20
0
30
0
70
128
71
6
72
3
73
-2
0
VERTEX
8
OBJECT018
10
0
20
0
30
0
70
128
71
-6
72
2
73
7
0
VERTEX
8
OBJECT018
10
0
20
0
30
0
70
128
71
8
72
1
73
-4
0
VERTEX
8
OBJECT018
10
0
20
0
30
0
70
128
71
-8
72
4
73
5
0
SEQEND
8
OBJECT018
0
POLYLINE
8
OBJECT019
66
1
70
64
71
8
72
12
62
50
0
VERTEX
8
OBJECT019
10
6.500000
20
-66.666565
30
29.516998
70
192
0
VERTEX
8
OBJECT019
10
-16.000000
20
-66.666565
30
29.516998
70
192
0
VERTEX
8
OBJECT019
10
-16.000000
20
-54.166992
30
29.516998
70
192
0
VERTEX
8
OBJECT019
10
6.500000
20
-54.166992
30
29.516998
70
192
0
VERTEX
8
OBJECT019
10
6.500000
20
-54.166992
30
27.585999
70
192
0
VERTEX
8
OBJECT019
10
-16.000000
20
-54.166992
30
27.585999
70
192
0
VERTEX
8
OBJECT019
10
-16.000000
20
-66.666565
30
27.585999
70
192
0
VERTEX
8
OBJECT019
10
6.500000
20
-66.666565
30
27.585999
70
192
0
VERTEX
8
OBJECT019
10
0
20
0
30
0
70
128
71
2
72
3
73
-4
0
VERTEX
8
OBJECT019
10
0
20
0
30
0
70
128
71
-2
72
4
73
1
0
VERTEX
8
OBJECT019
10
0
20
0
30
0
70
128
71
6
72
7
73
-8
0
VERTEX
8
OBJECT019
10
0
20
0
30
0
70
128
71
-6
72
8
73
5
0
VERTEX
8
OBJECT019
10
0
20
0
30
0
70
128
71
7
72
2
73
-1
0
VERTEX
8
OBJECT019
10
0
20
0
30
0
70
128
71
-7
72
1
73
8
0
VERTEX
8
OBJECT019
10
0
20
0
30
0
70
128
71
5
72
4
73
-3
0
VERTEX
8
OBJECT019
10
0
20
0
30
0
70
128
71
-5
72
3
73
6
0
VERTEX
8
OBJECT019
10
0
20
0
30
0
70
128
71
6
72
3
73
-2
0
VERTEX
8
OBJECT019
10
0
20
0
30
0
70
128
71
-6
72
2
73
7
0
VERTEX
8
OBJECT019
10
0
20
0
30
0
70
128
71
8
72
1
73
-4
0
VERTEX
8
OBJECT019
10
0
20
0
30
0
70
128
71
-8
72
4
73
5
0
SEQEND
8
OBJECT019
0
POLYLINE
8
OBJECT020
66
1
70
64
71
8
72
12
62
50
0
VERTEX
8
OBJECT020
10
8.000000
20
-62.499939
30
60.414368
70
192
0
VERTEX
8
OBJECT020
10
-16.000000
20
-62.499939
30
60.414368
70
192
0
VERTEX
8
OBJECT020
10
-16.000000
20
-49.166931
30
53.655365
70
192
0
VERTEX
8
OBJECT020
10
8.000000
20
-49.166931
30
53.655365
70
192
0
VERTEX
8
OBJECT020
10
8.000000
20
-53.332947
30
29.516998
70
192
0
VERTEX
8
OBJECT020
10
-16.000000
20
-53.332947
30
29.516998
70
192
0
VERTEX
8
OBJECT020
10
-16.000000
20
-66.666992
30
29.516998
70
192
0
VERTEX
8
OBJECT020
10
8.000000
20
-66.666992
30
29.516998
70
192
0
VERTEX
8
OBJECT020
10
0
20
0
30
0
70
128
71
2
72
3
73
-4
0
VERTEX
8
OBJECT020
10
0
20
0
30
0
70
128
71
-2
72
4
73
1
0
VERTEX
8
OBJECT020
10
0
20
0
30
0
70
128
71
6
72
7
73
-8
0
VERTEX
8
OBJECT020
10
0
20
0
30
0
70
128
71
-6
72
8
73
5
0
VERTEX
8
OBJECT020
10
0
20
0
30
0
70
128
71
7
72
2
73
-1
0
VERTEX
8
OBJECT020
10
0
20
0
30
0
70
128
71
-7
72
1
73
8
0
VERTEX
8
OBJECT020
10
0
20
0
30
0
70
128
71
5
72
4
73
-3
0
VERTEX
8
OBJECT020
10
0
20
0
30
0
70
128
71
-5
72
3
73
6
0
VERTEX
8
OBJECT020
10
0
20
0
30
0
70
128
71
6
72
3
73
-2
0
VERTEX
8
OBJECT020
10
0
20
0
30
0
70
128
71
-6
72
2
73
7
0
VERTEX
8
OBJECT020
10
0
20
0
30
0
70
128
71
4
72
5
73
-8
0
VERTEX
8
OBJECT020
10
0
20
0
30
0
70
128
71
-4
72
8
73
1
0
SEQEND
8
OBJECT020
0
POLYLINE
8
OBJECT021
66
1
70
64
71
8
72
12
62
50
0
VERTEX
8
OBJECT021
10
-16.000000
20
-39.998779
30
73.933746
70
192
0
VERTEX
8
OBJECT021
10
8.000000
20
-39.998779
30
73.933746
70
192
0
VERTEX
8
OBJECT021
10
8.000000
20
-50.831726
30
86.485748
70
192
0
VERTEX
8
OBJECT021
10
-16.000000
20
-50.831726
30
86.485748
70
192
0
VERTEX
8
OBJECT021
10
8.000000
20
-48.332886
30
55.586121
70
192
0
VERTEX
8
OBJECT021
10
-16.000000
20
-48.332886
30
55.586121
70
192
0
VERTEX
8
OBJECT021
10
-16.000000
20
-61.666931
30
62.345123
70
192
0
VERTEX
8
OBJECT021
10
8.000000
20
-61.666931
30
62.345123
70
192
0
VERTEX
8
OBJECT021
10
0
20
0
30
0
70
128
71
2
72
3
73
-4
0
VERTEX
8
OBJECT021
10
0
20
0
30
0
70
128
71
-2
72
4
73
1
0
VERTEX
8
OBJECT021
10
0
20
0
30
0
70
128
71
6
72
7
73
-8
0
VERTEX
8
OBJECT021
10
0
20
0
30
0
70
128
71
-6
72
8
73
5
0
VERTEX
8
OBJECT021
10
0
20
0
30
0
70
128
71
7
72
4
73
-3
0
VERTEX
8
OBJECT021
10
0
20
0
30
0
70
128
71
-7
72
3
73
8
0
VERTEX
8
OBJECT021
10
0
20
0
30
0
70
128
71
5
72
2
73
-1
0
VERTEX
8
OBJECT021
10
0
20
0
30
0
70
128
71
-5
72
1
73
6
0
VERTEX
8
OBJECT021
10
0
20
0
30
0
70
128
71
6
72
1
73
-4
0
VERTEX
8
OBJECT021
10
0
20
0
30
0
70
128
71
-6
72
4
73
7
0
VERTEX
8
OBJECT021
10
0
20
0
30
0
70
128
71
2
72
5
73
-8
0
VERTEX
8
OBJECT021
10
0
20
0
30
0
70
128
71
-2
72
8
73
3
0
SEQEND
8
OBJECT021
0
POLYLINE
8
OBJECT022
66
1
70
64
71
8
72
12
62
50
0
VERTEX
8
OBJECT022
10
-16.000000
20
-25.833984
30
89.377869
70
192
0
VERTEX
8
OBJECT022
10
8.000000
20
-25.833984
30
89.377869
70
192
0
VERTEX
8
OBJECT022
10
8.000000
20
-33.333984
30
106.757813
70
192
0
VERTEX
8
OBJECT022
10
-16.000000
20
-33.333984
30
106.757813
70
192
0
VERTEX
8
OBJECT022
10
8.000000
20
-38.334778
30
75.860046
70
192
0
VERTEX
8
OBJECT022
10
-16.000000
20
-38.334778
30
75.860046
70
192
0
VERTEX
8
OBJECT022
10
-16.000000
20
-49.168762
30
88.411957
70
192
0
VERTEX
8
OBJECT022
10
8.000000
20
-49.168762
30
88.411957
70
192
0
VERTEX
8
OBJECT022
10
0
20
0
30
0
70
128
71
2
72
3
73
-4
0
VERTEX
8
OBJECT022
10
0
20
0
30
0
70
128
71
-2
72
4
73
1
0
VERTEX
8
OBJECT022
10
0
20
0
30
0
70
128
71
6
72
7
73
-8
0
VERTEX
8
OBJECT022
10
0
20
0
30
0
70
128
71
-6
72
8
73
5
0
VERTEX
8
OBJECT022
10
0
20
0
30
0
70
128
71
7
72
4
73
-3
0
VERTEX
8
OBJECT022
10
0
20
0
30
0
70
128
71
-7
72
3
73
8
0
VERTEX
8
OBJECT022
10
0
20
0
30
0
70
128
71
5
72
2
73
-1
0
VERTEX
8
OBJECT022
10
0
20
0
30
0
70
128
71
-5
72
1
73
6
0
VERTEX
8
OBJECT022
10
0
20
0
30
0
70
128
71
6
72
1
73
-4
0
VERTEX
8
OBJECT022
10
0
20
0
30
0
70
128
71
-6
72
4
73
7
0
VERTEX
8
OBJECT022
10
0
20
0
30
0
70
128
71
2
72
5
73
-8
0
VERTEX
8
OBJECT022
10
0
20
0
30
0
70
128
71
-2
72
8
73
3
0
SEQEND
8
OBJECT022
0
POLYLINE
8
OBJECT023
66
1
70
64
71
8
72
12
62
50
0
VERTEX
8
OBJECT023
10
-16.000000
20
-9.167114
30
101.930908
70
192
0
VERTEX
8
OBJECT023
10
8.000000
20
-9.167114
30
101.930908
70
192
0
VERTEX
8
OBJECT023
10
8.000000
20
-11.667114
30
120.275909
70
192
0
VERTEX
8
OBJECT023
10
-16.000000
20
-11.667114
30
120.275909
70
192
0
VERTEX
8
OBJECT023
10
8.000000
20
-24.166504
30
90.345398
70
192
0
VERTEX
8
OBJECT023
10
-16.000000
20
-24.166504
30
90.345398
70
192
0
VERTEX
8
OBJECT023
10
-16.000000
20
-31.666443
30
107.724335
70
192
0
VERTEX
8
OBJECT023
10
8.000000
20
-31.666443
30
107.724335
70
192
0
VERTEX
8
OBJECT023
10
0
20
0
30
0
70
128
71
2
72
3
73
-4
0
VERTEX
8
OBJECT023
10
0
20
0
30
0
70
128
71
-2
72
4
73
1
0
VERTEX
8
OBJECT023
10
0
20
0
30
0
70
128
71
6
72
7
73
-8
0
VERTEX
8
OBJECT023
10
0
20
0
30
0
70
128
71
-6
72
8
73
5
0
VERTEX
8
OBJECT023
10
0
20
0
30
0
70
128
71
7
72
4
73
-3
0
VERTEX
8
OBJECT023
10
0
20
0
30
0
70
128
71
-7
72
3
73
8
0
VERTEX
8
OBJECT023
10
0
20
0
30
0
70
128
71
1
72
6
73
-5
0
VERTEX
8
OBJECT023
10
0
20
0
30
0
70
128
71
-1
72
5
73
2
0
VERTEX
8
OBJECT023
10
0
20
0
30
0
70
128
71
6
72
1
73
-4
0
VERTEX
8
OBJECT023
10
0
20
0
30
0
70
128
71
-6
72
4
73
7
0
VERTEX
8
OBJECT023
10
0
20
0
30
0
70
128
71
2
72
5
73
-8
0
VERTEX
8
OBJECT023
10
0
20
0
30
0
70
128
71
-2
72
8
73
3
0
SEQEND
8
OBJECT023
0
POLYLINE
8
OBJECT024
66
1
70
64
71
8
72
12
62
50
0
VERTEX
8
OBJECT024
10
-16.000000
20
8.332642
30
97.102997
70
192
0
VERTEX
8
OBJECT024
10
14.000000
20
8.332642
30
97.102997
70
192
0
VERTEX
8
OBJECT024
10
14.000000
20
12.499634
30
128.000000
70
192
0
VERTEX
8
OBJECT024
10
-16.000000
20
12.499634
30
128.000000
70
192
0
VERTEX
8
OBJECT024
10
14.000000
20
-8.333008
30
97.102997
70
192
0
VERTEX
8
OBJECT024
10
-16.000000
20
-8.333008
30
97.102997
70
192
0
VERTEX
8
OBJECT024
10
-16.000000
20
-12.500061
30
128.000000
70
192
0
VERTEX
8
OBJECT024
10
14.000000
20
-12.500061
30
128.000000
70
192
0
VERTEX
8
OBJECT024
10
0
20
0
30
0
70
128
71
2
72
3
73
-4
0
VERTEX
8
OBJECT024
10
0
20
0
30
0
70
128
71
-2
72
4
73
1
0
VERTEX
8
OBJECT024
10
0
20
0
30
0
70
128
71
6
72
7
73
-8
0
VERTEX
8
OBJECT024
10
0
20
0
30
0
70
128
71
-6
72
8
73
5
0
VERTEX
8
OBJECT024
10
0
20
0
30
0
70
128
71
7
72
4
73
-3
0
VERTEX
8
OBJECT024
10
0
20
0
30
0
70
128
71
-7
72
3
73
8
0
VERTEX
8
OBJECT024
10
0
20
0
30
0
70
128
71
1
72
6
73
-5
0
VERTEX
8
OBJECT024
10
0
20
0
30
0
70
128
71
-1
72
5
73
2
0
VERTEX
8
OBJECT024
10
0
20
0
30
0
70
128
71
6
72
1
73
-4
0
VERTEX
8
OBJECT024
10
0
20
0
30
0
70
128
71
-6
72
4
73
7
0
VERTEX
8
OBJECT024
10
0
20
0
30
0
70
128
71
2
72
5
73
-8
0
VERTEX
8
OBJECT024
10
0
20
0
30
0
70
128
71
-2
72
8
73
3
0
SEQEND
8
OBJECT024
0
POLYLINE
8
OBJECT025
66
1
70
64
71
8
72
12
62
50
0
VERTEX
8
OBJECT025
10
8.000000
20
49.166992
30
53.655365
70
192
0
VERTEX
8
OBJECT025
10
-16.000000
20
49.166992
30
53.655365
70
192
0
VERTEX
8
OBJECT025
10
-16.000000
20
62.499939
30
60.414368
70
192
0
VERTEX
8
OBJECT025
10
8.000000
20
62.499939
30
60.414368
70
192
0
VERTEX
8
OBJECT025
10
8.000000
20
66.667053
30
29.516998
70
192
0
VERTEX
8
OBJECT025
10
-16.000000
20
66.667053
30
29.516998
70
192
0
VERTEX
8
OBJECT025
10
-16.000000
20
53.333008
30
29.516998
70
192
0
VERTEX
8
OBJECT025
10
8.000000
20
53.333008
30
29.516998
70
192
0
VERTEX
8
OBJECT025
10
0
20
0
30
0
70
128
71
2
72
3
73
-4
0
VERTEX
8
OBJECT025
10
0
20
0
30
0
70
128
71
-2
72
4
73
1
0
VERTEX
8
OBJECT025
10
0
20
0
30
0
70
128
71
6
72
7
73
-8
0
VERTEX
8
OBJECT025
10
0
20
0
30
0
70
128
71
-6
72
8
73
5
0
VERTEX
8
OBJECT025
10
0
20
0
30
0
70
128
71
5
72
4
73
-3
0
VERTEX
8
OBJECT025
10
0
20
0
30
0
70
128
71
-5
72
3
73
6
0
VERTEX
8
OBJECT025
10
0
20
0
30
0
70
128
71
7
72
2
73
-1
0
VERTEX
8
OBJECT025
10
0
20
0
30
0
70
128
71
-7
72
1
73
8
0
VERTEX
8
OBJECT025
10
0
20
0
30
0
70
128
71
2
72
7
73
-6
0
VERTEX
8
OBJECT025
10
0
20
0
30
0
70
128
71
-2
72
6
73
3
0
VERTEX
8
OBJECT025
10
0
20
0
30
0
70
128
71
8
72
1
73
-4
0
VERTEX
8
OBJECT025
10
0
20
0
30
0
70
128
71
-8
72
4
73
5
0
SEQEND
8
OBJECT025
0
POLYLINE
8
OBJECT026
66
1
70
64
71
8
72
12
62
50
0
VERTEX
8
OBJECT026
10
8.000000
20
40.000183
30
73.930634
70
192
0
VERTEX
8
OBJECT026
10
-16.000000
20
40.000183
30
73.930634
70
192
0
VERTEX
8
OBJECT026
10
-16.000000
20
50.833191
30
86.482666
70
192
0
VERTEX
8
OBJECT026
10
8.000000
20
50.833191
30
86.482666
70
192
0
VERTEX
8
OBJECT026
10
8.000000
20
61.666687
30
62.345856
70
192
0
VERTEX
8
OBJECT026
10
-16.000000
20
61.666687
30
62.345856
70
192
0
VERTEX
8
OBJECT026
10
-16.000000
20
48.332642
30
55.586853
70
192
0
VERTEX
8
OBJECT026
10
8.000000
20
48.332642
30
55.586853
70
192
0
VERTEX
8
OBJECT026
10
0
20
0
30
0
70
128
71
2
72
3
73
-4
0
VERTEX
8
OBJECT026
10
0
20
0
30
0
70
128
71
-2
72
4
73
1
0
VERTEX
8
OBJECT026
10
0
20
0
30
0
70
128
71
6
72
7
73
-8
0
VERTEX
8
OBJECT026
10
0
20
0
30
0
70
128
71
-6
72
8
73
5
0
VERTEX
8
OBJECT026
10
0
20
0
30
0
70
128
71
5
72
4
73
-3
0
VERTEX
8
OBJECT026
10
0
20
0
30
0
70
128
71
-5
72
3
73
6
0
VERTEX
8
OBJECT026
10
0
20
0
30
0
70
128
71
7
72
2
73
-1
0
VERTEX
8
OBJECT026
10
0
20
0
30
0
70
128
71
-7
72
1
73
8
0
VERTEX
8
OBJECT026
10
0
20
0
30
0
70
128
71
2
72
7
73
-6
0
VERTEX
8
OBJECT026
10
0
20
0
30
0
70
128
71
-2
72
6
73
3
0
VERTEX
8
OBJECT026
10
0
20
0
30
0
70
128
71
8
72
1
73
-4
0
VERTEX
8
OBJECT026
10
0
20
0
30
0
70
128
71
-8
72
4
73
5
0
SEQEND
8
OBJECT026
0
POLYLINE
8
OBJECT027
66
1
70
64
71
8
72
12
62
50
0
VERTEX
8
OBJECT027
10
8.000000
20
25.833374
30
89.378601
70
192
0
VERTEX
8
OBJECT027
10
-16.000000
20
25.833374
30
89.378601
70
192
0
VERTEX
8
OBJECT027
10
-16.000000
20
33.333374
30
106.758606
70
192
0
VERTEX
8
OBJECT027
10
8.000000
20
33.333374
30
106.758606
70
192
0
VERTEX
8
OBJECT027
10
-16.000000
20
38.333374
30
75.861572
70
192
0
VERTEX
8
OBJECT027
10
8.000000
20
38.333374
30
75.861572
70
192
0
VERTEX
8
OBJECT027
10
8.000000
20
49.167419
30
88.413574
70
192
0
VERTEX
8
OBJECT027
10
-16.000000
20
49.167419
30
88.413574
70
192
0
VERTEX
8
OBJECT027
10
0
20
0
30
0
70
128
71
2
72
3
73
-4
0
VERTEX
8
OBJECT027
10
0
20
0
30
0
70
128
71
-2
72
4
73
1
0
VERTEX
8
OBJECT027
10
0
20
0
30
0
70
128
71
6
72
7
73
-8
0
VERTEX
8
OBJECT027
10
0
20
0
30
0
70
128
71
-6
72
8
73
5
0
VERTEX
8
OBJECT027
10
0
20
0
30
0
70
128
71
7
72
4
73
-3
0
VERTEX
8
OBJECT027
10
0
20
0
30
0
70
128
71
-7
72
3
73
8
0
VERTEX
8
OBJECT027
10
0
20
0
30
0
70
128
71
5
72
2
73
-1
0
VERTEX
8
OBJECT027
10
0
20
0
30
0
70
128
71
-5
72
1
73
6
0
VERTEX
8
OBJECT027
10
0
20
0
30
0
70
128
71
2
72
5
73
-8
0
VERTEX
8
OBJECT027
10
0
20
0
30
0
70
128
71
-2
72
8
73
3
0
VERTEX
8
OBJECT027
10
0
20
0
30
0
70
128
71
6
72
1
73
-4
0
VERTEX
8
OBJECT027
10
0
20
0
30
0
70
128
71
-6
72
4
73
7
0
SEQEND
8
OBJECT027
0
POLYLINE
8
OBJECT028
66
1
70
64
71
8
72
12
62
50
0
VERTEX
8
OBJECT028
10
8.000000
20
9.167053
30
101.931000
70
192
0
VERTEX
8
OBJECT028
10
-16.000000
20
9.167053
30
101.931000
70
192
0
VERTEX
8
OBJECT028
10
-16.000000
20
11.667053
30
120.276001
70
192
0
VERTEX
8
OBJECT028
10
8.000000
20
11.667053
30
120.276001
70
192
0
VERTEX
8
OBJECT028
10
-16.000000
20
24.167664
30
90.344513
70
192
0
VERTEX
8
OBJECT028
10
8.000000
20
24.167664
30
90.344513
70
192
0
VERTEX
8
OBJECT028
10
8.000000
20
31.667725
30
107.723602
70
192
0
VERTEX
8
OBJECT028
10
-16.000000
20
31.667725
30
107.723602
70
192
0
VERTEX
8
OBJECT028
10
0
20
0
30
0
70
128
71
2
72
3
73
-4
0
VERTEX
8
OBJECT028
10
0
20
0
30
0
70
128
71
-2
72
4
73
1
0
VERTEX
8
OBJECT028
10
0
20
0
30
0
70
128
71
6
72
7
73
-8
0
VERTEX
8
OBJECT028
10
0
20
0
30
0
70
128
71
-6
72
8
73
5
0
VERTEX
8
OBJECT028
10
0
20
0
30
0
70
128
71
3
72
8
73
-7
0
VERTEX
8
OBJECT028
10
0
20
0
30
0
70
128
71
-3
72
7
73
4
0
VERTEX
8
OBJECT028
10
0
20
0
30
0
70
128
71
5
72
2
73
-1
0
VERTEX
8
OBJECT028
10
0
20
0
30
0
70
128
71
-5
72
1
73
6
0
VERTEX
8
OBJECT028
10
0
20
0
30
0
70
128
71
2
72
5
73
-8
0
VERTEX
8
OBJECT028
10
0
20
0
30
0
70
128
71
-2
72
8
73
3
0
VERTEX
8
OBJECT028
10
0
20
0
30
0
70
128
71
6
72
1
73
-4
0
VERTEX
8
OBJECT028
10
0
20
0
30
0
70
128
71
-6
72
4
73
7
0
SEQEND
8
OBJECT028
0
POLYLINE
8
OBJECT029
66
1
70
64
71
8
72
12
62
50
0
VERTEX
8
OBJECT029
10
6.500000
20
53.333435
30
29.516998
70
192
0
VERTEX
8
OBJECT029
10
-16.000000
20
53.333435
30
29.516998
70
192
0
VERTEX
8
OBJECT029
10
-16.000000
20
66.667053
30
29.516998
70
192
0
VERTEX
8
OBJECT029
10
6.500000
20
66.667053
30
29.516998
70
192
0
VERTEX
8
OBJECT029
10
6.500000
20
66.667053
30
27.585999
70
192
0
VERTEX
8
OBJECT029
10
-16.000000
20
66.667053
30
27.585999
70
192
0
VERTEX
8
OBJECT029
10
-16.000000
20
53.333435
30
27.585999
70
192
0
VERTEX
8
OBJECT029
10
6.500000
20
53.333435
30
27.585999
70
192
0
VERTEX
8
OBJECT029
10
0
20
0
30
0
70
128
71
2
72
3
73
-4
0
VERTEX
8
OBJECT029
10
0
20
0
30
0
70
128
71
-2
72
4
73
1
0
VERTEX
8
OBJECT029
10
0
20
0
30
0
70
128
71
6
72
7
73
-8
0
VERTEX
8
OBJECT029
10
0
20
0
30
0
70
128
71
-6
72
8
73
5
0
VERTEX
8
OBJECT029
10
0
20
0
30
0
70
128
71
7
72
2
73
-1
0
VERTEX
8
OBJECT029
10
0
20
0
30
0
70
128
71
-7
72
1
73
8
0
VERTEX
8
OBJECT029
10
0
20
0
30
0
70
128
71
5
72
4
73
-3
0
VERTEX
8
OBJECT029
10
0
20
0
30
0
70
128
71
-5
72
3
73
6
0
VERTEX
8
OBJECT029
10
0
20
0
30
0
70
128
71
6
72
3
73
-2
0
VERTEX
8
OBJECT029
10
0
20
0
30
0
70
128
71
-6
72
2
73
7
0
VERTEX
8
OBJECT029
10
0
20
0
30
0
70
128
71
8
72
1
73
-4
0
VERTEX
8
OBJECT029
10
0
20
0
30
0
70
128
71
-8
72
4
73
5
0
SEQEND
8
OBJECT029
0
POLYLINE
8
OBJECT030
66
1
70
64
71
8
72
12
62
50
0
VERTEX
8
OBJECT030
10
6.500000
20
-61.667175
30
62.343750
70
192
0
VERTEX
8
OBJECT030
10
-16.000000
20
-61.667175
30
62.343750
70
192
0
VERTEX
8
OBJECT030
10
-16.000000
20
-49.167480
30
56.067902
70
192
0
VERTEX
8
OBJECT030
10
6.500000
20
-49.167480
30
56.067902
70
192
0
VERTEX
8
OBJECT030
10
6.500000
20
-49.999939
30
54.138184
70
192
0
VERTEX
8
OBJECT030
10
-16.000000
20
-49.999939
30
54.138184
70
192
0
VERTEX
8
OBJECT030
10
-16.000000
20
-62.500183
30
60.414307
70
192
0
VERTEX
8
OBJECT030
10
6.500000
20
-62.500183
30
60.414307
70
192
0
VERTEX
8
OBJECT030
10
0
20
0
30
0
70
128
71
2
72
3
73
-4
0
VERTEX
8
OBJECT030
10
0
20
0
30
0
70
128
71
-2
72
4
73
1
0
VERTEX
8
OBJECT030
10
0
20
0
30
0
70
128
71
6
72
7
73
-8
0
VERTEX
8
OBJECT030
10
0
20
0
30
0
70
128
71
-6
72
8
73
5
0
VERTEX
8
OBJECT030
10
0
20
0
30
0
70
128
71
7
72
2
73
-1
0
VERTEX
8
OBJECT030
10
0
20
0
30
0
70
128
71
-7
72
1
73
8
0
VERTEX
8
OBJECT030
10
0
20
0
30
0
70
128
71
5
72
4
73
-3
0
VERTEX
8
OBJECT030
10
0
20
0
30
0
70
128
71
-5
72
3
73
6
0
VERTEX
8
OBJECT030
10
0
20
0
30
0
70
128
71
6
72
3
73
-2
0
VERTEX
8
OBJECT030
10
0
20
0
30
0
70
128
71
-6
72
2
73
7
0
VERTEX
8
OBJECT030
10
0
20
0
30
0
70
128
71
8
72
1
73
-4
0
VERTEX
8
OBJECT030
10
0
20
0
30
0
70
128
71
-8
72
4
73
5
0
SEQEND
8
OBJECT030
0
POLYLINE
8
OBJECT031
66
1
70
64
71
8
72
12
62
50
0
VERTEX
8
OBJECT031
10
-16.000000
20
-39.166443
30
76.828674
70
192
0
VERTEX
8
OBJECT031
10
6.500000
20
-39.166443
30
76.828674
70
192
0
VERTEX
8
OBJECT031
10
6.500000
20
-49.165466
30
88.413544
70
192
0
VERTEX
8
OBJECT031
10
-16.000000
20
-49.165466
30
88.413544
70
192
0
VERTEX
8
OBJECT031
10
6.500000
20
-40.832581
30
74.897491
70
192
0
VERTEX
8
OBJECT031
10
-16.000000
20
-40.832581
30
74.897491
70
192
0
VERTEX
8
OBJECT031
10
-16.000000
20
-50.833069
30
86.484100
70
192
0
VERTEX
8
OBJECT031
10
6.500000
20
-50.833069
30
86.484100
70
192
0
VERTEX
8
OBJECT031
10
0
20
0
30
0
70
128
71
2
72
3
73
-4
0
VERTEX
8
OBJECT031
10
0
20
0
30
0
70
128
71
-2
72
4
73
1
0
VERTEX
8
OBJECT031
10
0
20
0
30
0
70
128
71
6
72
7
73
-8
0
VERTEX
8
OBJECT031
10
0
20
0
30
0
70
128
71
-6
72
8
73
5
0
VERTEX
8
OBJECT031
10
0
20
0
30
0
70
128
71
7
72
4
73
-3
0
VERTEX
8
OBJECT031
10
0
20
0
30
0
70
128
71
-7
72
3
73
8
0
VERTEX
8
OBJECT031
10
0
20
0
30
0
70
128
71
5
72
2
73
-1
0
VERTEX
8
OBJECT031
10
0
20
0
30
0
70
128
71
-5
72
1
73
6
0
VERTEX
8
OBJECT031
10
0
20
0
30
0
70
128
71
6
72
1
73
-4
0
VERTEX
8
OBJECT031
10
0
20
0
30
0
70
128
71
-6
72
4
73
7
0
VERTEX
8
OBJECT031
10
0
20
0
30
0
70
128
71
2
72
5
73
-8
0
VERTEX
8
OBJECT031
10
0
20
0
30
0
70
128
71
-2
72
8
73
3
0
SEQEND
8
OBJECT031
0
POLYLINE
8
OBJECT032
66
1
70
64
71
8
72
12
62
50
0
VERTEX
8
OBJECT032
10
-16.000000
20
-24.581848
30
91.310669
70
192
0
VERTEX
8
OBJECT032
10
6.500000
20
-24.581848
30
91.310669
70
192
0
VERTEX
8
OBJECT032
10
6.500000
20
-31.666016
30
107.725006
70
192
0
VERTEX
8
OBJECT032
10
-16.000000
20
-31.666016
30
107.725006
70
192
0
VERTEX
8
OBJECT032
10
6.500000
20
-26.251038
30
90.344452
70
192
0
VERTEX
8
OBJECT032
10
-16.000000
20
-26.251038
30
90.344452
70
192
0
VERTEX
8
OBJECT032
10
-16.000000
20
-33.333252
30
106.756805
70
192
0
VERTEX
8
OBJECT032
10
6.500000
20
-33.333252
30
106.756805
70
192
0
VERTEX
8
OBJECT032
10
0
20
0
30
0
70
128
71
2
72
3
73
-4
0
VERTEX
8
OBJECT032
10
0
20
0
30
0
70
128
71
-2
72
4
73
1
0
VERTEX
8
OBJECT032
10
0
20
0
30
0
70
128
71
6
72
7
73
-8
0
VERTEX
8
OBJECT032
10
0
20
0
30
0
70
128
71
-6
72
8
73
5
0
VERTEX
8
OBJECT032
10
0
20
0
30
0
70
128
71
7
72
4
73
-3
0
VERTEX
8
OBJECT032
10
0
20
0
30
0
70
128
71
-7
72
3
73
8
0
VERTEX
8
OBJECT032
10
0
20
0
30
0
70
128
71
1
72
6
73
-5
0
VERTEX
8
OBJECT032
10
0
20
0
30
0
70
128
71
-1
72
5
73
2
0
VERTEX
8
OBJECT032
10
0
20
0
30
0
70
128
71
4
72
7
73
-6
0
VERTEX
8
OBJECT032
10
0
20
0
30
0
70
128
71
-4
72
6
73
1
0
VERTEX
8
OBJECT032
10
0
20
0
30
0
70
128
71
2
72
5
73
-8
0
VERTEX
8
OBJECT032
10
0
20
0
30
0
70
128
71
-2
72
8
73
3
0
SEQEND
8
OBJECT032
0
POLYLINE
8
OBJECT033
66
1
70
64
71
8
72
12
62
50
0
VERTEX
8
OBJECT033
10
6.500000
20
24.582947
30
91.310028
70
192
0
VERTEX
8
OBJECT033
10
-16.000000
20
24.582947
30
91.310028
70
192
0
VERTEX
8
OBJECT033
10
-16.000000
20
31.667358
30
107.724823
70
192
0
VERTEX
8
OBJECT033
10
6.500000
20
31.667358
30
107.724823
70
192
0
VERTEX
8
OBJECT033
10
-16.000000
20
26.250183
30
90.344910
70
192
0
VERTEX
8
OBJECT033
10
6.500000
20
26.250183
30
90.344910
70
192
0
VERTEX
8
OBJECT033
10
6.500000
20
33.333557
30
106.759827
70
192
0
VERTEX
8
OBJECT033
10
-16.000000
20
33.333557
30
106.759827
70
192
0
VERTEX
8
OBJECT033
10
0
20
0
30
0
70
128
71
2
72
3
73
-4
0
VERTEX
8
OBJECT033
10
0
20
0
30
0
70
128
71
-2
72
4
73
1
0
VERTEX
8
OBJECT033
10
0
20
0
30
0
70
128
71
6
72
7
73
-8
0
VERTEX
8
OBJECT033
10
0
20
0
30
0
70
128
71
-6
72
8
73
5
0
VERTEX
8
OBJECT033
10
0
20
0
30
0
70
128
71
3
72
8
73
-7
0
VERTEX
8
OBJECT033
10
0
20
0
30
0
70
128
71
-3
72
7
73
4
0
VERTEX
8
OBJECT033
10
0
20
0
30
0
70
128
71
5
72
2
73
-1
0
VERTEX
8
OBJECT033
10
0
20
0
30
0
70
128
71
-5
72
1
73
6
0
VERTEX
8
OBJECT033
10
0
20
0
30
0
70
128
71
2
72
5
73
-8
0
VERTEX
8
OBJECT033
10
0
20
0
30
0
70
128
71
-2
72
8
73
3
0
VERTEX
8
OBJECT033
10
0
20
0
30
0
70
128
71
4
72
7
73
-6
0
VERTEX
8
OBJECT033
10
0
20
0
30
0
70
128
71
-4
72
6
73
1
0
SEQEND
8
OBJECT033
0
POLYLINE
8
OBJECT034
66
1
70
64
71
8
72
12
62
50
0
VERTEX
8
OBJECT034
10
6.500000
20
39.166565
30
76.828583
70
192
0
VERTEX
8
OBJECT034
10
-16.000000
20
39.166565
30
76.828583
70
192
0
VERTEX
8
OBJECT034
10
-16.000000
20
49.167053
30
88.415192
70
192
0
VERTEX
8
OBJECT034
10
6.500000
20
49.167053
30
88.415192
70
192
0
VERTEX
8
OBJECT034
10
-16.000000
20
40.832642
30
74.897400
70
192
0
VERTEX
8
OBJECT034
10
6.500000
20
40.832642
30
74.897400
70
192
0
VERTEX
8
OBJECT034
10
6.500000
20
50.832092
30
86.482758
70
192
0
VERTEX
8
OBJECT034
10
-16.000000
20
50.832092
30
86.482758
70
192
0
VERTEX
8
OBJECT034
10
0
20
0
30
0
70
128
71
2
72
3
73
-4
0
VERTEX
8
OBJECT034
10
0
20
0
30
0
70
128
71
-2
72
4
73
1
0
VERTEX
8
OBJECT034
10
0
20
0
30
0
70
128
71
6
72
7
73
-8
0
VERTEX
8
OBJECT034
10
0
20
0
30
0
70
128
71
-6
72
8
73
5
0
VERTEX
8
OBJECT034
10
0
20
0
30
0
70
128
71
7
72
4
73
-3
0
VERTEX
8
OBJECT034
10
0
20
0
30
0
70
128
71
-7
72
3
73
8
0
VERTEX
8
OBJECT034
10
0
20
0
30
0
70
128
71
5
72
2
73
-1
0
VERTEX
8
OBJECT034
10
0
20
0
30
0
70
128
71
-5
72
1
73
6
0
VERTEX
8
OBJECT034
10
0
20
0
30
0
70
128
71
2
72
5
73
-8
0
VERTEX
8
OBJECT034
10
0
20
0
30
0
70
128
71
-2
72
8
73
3
0
VERTEX
8
OBJECT034
10
0
20
0
30
0
70
128
71
6
72
1
73
-4
0
VERTEX
8
OBJECT034
10
0
20
0
30
0
70
128
71
-6
72
4
73
7
0
SEQEND
8
OBJECT034
0
POLYLINE
8
OBJECT035
66
1
70
64
71
8
72
12
62
50
0
VERTEX
8
OBJECT035
10
6.500000
20
49.167236
30
56.068573
70
192
0
VERTEX
8
OBJECT035
10
-16.000000
20
49.167236
30
56.068573
70
192
0
VERTEX
8
OBJECT035
10
-16.000000
20
61.667236
30
62.344574
70
192
0
VERTEX
8
OBJECT035
10
6.500000
20
61.667236
30
62.344574
70
192
0
VERTEX
8
OBJECT035
10
6.500000
20
62.500244
30
60.413208
70
192
0
VERTEX
8
OBJECT035
10
-16.000000
20
62.500244
30
60.413208
70
192
0
VERTEX
8
OBJECT035
10
-16.000000
20
50.000305
30
54.137238
70
192
0
VERTEX
8
OBJECT035
10
6.500000
20
50.000305
30
54.137238
70
192
0
VERTEX
8
OBJECT035
10
0
20
0
30
0
70
128
71
2
72
3
73
-4
0
VERTEX
8
OBJECT035
10
0
20
0
30
0
70
128
71
-2
72
4
73
1
0
VERTEX
8
OBJECT035
10
0
20
0
30
0
70
128
71
6
72
7
73
-8
0
VERTEX
8
OBJECT035
10
0
20
0
30
0
70
128
71
-6
72
8
73
5
0
VERTEX
8
OBJECT035
10
0
20
0
30
0
70
128
71
5
72
4
73
-3
0
VERTEX
8
OBJECT035
10
0
20
0
30
0
70
128
71
-5
72
3
73
6
0
VERTEX
8
OBJECT035
10
0
20
0
30
0
70
128
71
7
72
2
73
-1
0
VERTEX
8
OBJECT035
10
0
20
0
30
0
70
128
71
-7
72
1
73
8
0
VERTEX
8
OBJECT035
10
0
20
0
30
0
70
128
71
6
72
3
73
-2
0
VERTEX
8
OBJECT035
10
0
20
0
30
0
70
128
71
-6
72
2
73
7
0
VERTEX
8
OBJECT035
10
0
20
0
30
0
70
128
71
8
72
1
73
-4
0
VERTEX
8
OBJECT035
10
0
20
0
30
0
70
128
71
-8
72
4
73
5
0
SEQEND
8
OBJECT035
0
POLYLINE
8
OBJECT036
66
1
70
64
71
8
72
12
62
50
0
VERTEX
8
OBJECT036
10
6.500000
20
54.167053
30
29.516998
70
192
0
VERTEX
8
OBJECT036
10
-16.000000
20
54.167053
30
29.516998
70
192
0
VERTEX
8
OBJECT036
10
-16.000000
20
66.665466
30
29.516998
70
192
0
VERTEX
8
OBJECT036
10
6.500000
20
66.665466
30
29.516998
70
192
0
VERTEX
8
OBJECT036
10
6.500000
20
66.665466
30
27.585999
70
192
0
VERTEX
8
OBJECT036
10
-16.000000
20
66.665466
30
27.585999
70
192
0
VERTEX
8
OBJECT036
10
-16.000000
20
54.167053
30
27.585999
70
192
0
VERTEX
8
OBJECT036
10
6.500000
20
54.167053
30
27.585999
70
192
0
VERTEX
8
OBJECT036
10
0
20
0
30
0
70
128
71
2
72
3
73
-4
0
VERTEX
8
OBJECT036
10
0
20
0
30
0
70
128
71
-2
72
4
73
1
0
VERTEX
8
OBJECT036
10
0
20
0
30
0
70
128
71
6
72
7
73
-8
0
VERTEX
8
OBJECT036
10
0
20
0
30
0
70
128
71
-6
72
8
73
5
0
VERTEX
8
OBJECT036
10
0
20
0
30
0
70
128
71
5
72
4
73
-3
0
VERTEX
8
OBJECT036
10
0
20
0
30
0
70
128
71
-5
72
3
73
6
0
VERTEX
8
OBJECT036
10
0
20
0
30
0
70
128
71
7
72
2
73
-1
0
VERTEX
8
OBJECT036
10
0
20
0
30
0
70
128
71
-7
72
1
73
8
0
VERTEX
8
OBJECT036
10
0
20
0
30
0
70
128
71
6
72
3
73
-2
0
VERTEX
8
OBJECT036
10
0
20
0
30
0
70
128
71
-6
72
2
73
7
0
VERTEX
8
OBJECT036
10
0
20
0
30
0
70
128
71
8
72
1
73
-4
0
VERTEX
8
OBJECT036
10
0
20
0
30
0
70
128
71
-8
72
4
73
5
0
SEQEND
8
OBJECT036
0
POLYLINE
8
OBJECT037
66
1
70
64
71
8
72
12
62
50
0
VERTEX
8
OBJECT037
10
2.000000
20
-51.666565
30
-80.552002
70
192
0
VERTEX
8
OBJECT037
10
-16.000000
20
-51.666565
30
-80.552002
70
192
0
VERTEX
8
OBJECT037
10
-16.000000
20
-1.666992
30
-80.552002
70
192
0
VERTEX
8
OBJECT037
10
2.000000
20
-1.666992
30
-80.552002
70
192
0
VERTEX
8
OBJECT037
10
2.000000
20
-1.666992
30
-96.000000
70
192
0
VERTEX
8
OBJECT037
10
-7.000000
20
-1.666992
30
-96.000000
70
192
0
VERTEX
8
OBJECT037
10
-7.000000
20
-51.666565
30
-96.000000
70
192
0
VERTEX
8
OBJECT037
10
2.000000
20
-51.666565
30
-96.000000
70
192
0
VERTEX
8
OBJECT037
10
0
20
0
30
0
70
128
71
2
72
3
73
-4
0
VERTEX
8
OBJECT037
10
0
20
0
30
0
70
128
71
-2
72
4
73
1
0
VERTEX
8
OBJECT037
10
0
20
0
30
0
70
128
71
6
72
7
73
-8
0
VERTEX
8
OBJECT037
10
0
20
0
30
0
70
128
71
-6
72
8
73
5
0
VERTEX
8
OBJECT037
10
0
20
0
30
0
70
128
71
7
72
2
73
-1
0
VERTEX
8
OBJECT037
10
0
20
0
30
0
70
128
71
-7
72
1
73
8
0
VERTEX
8
OBJECT037
10
0
20
0
30
0
70
128
71
5
72
4
73
-3
0
VERTEX
8
OBJECT037
10
0
20
0
30
0
70
128
71
-5
72
3
73
6
0
VERTEX
8
OBJECT037
10
0
20
0
30
0
70
128
71
8
72
1
73
-4
0
VERTEX
8
OBJECT037
10
0
20
0
30
0
70
128
71
-8
72
4
73
5
0
VERTEX
8
OBJECT037
10
0
20
0
30
0
70
128
71
6
72
3
73
-2
0
VERTEX
8
OBJECT037
10
0
20
0
30
0
70
128
71
-6
72
2
73
7
0
SEQEND
8
OBJECT037
0
POLYLINE
8
OBJECT038
66
1
70
64
71
8
72
12
62
50
0
VERTEX
8
OBJECT038
10
2.000000
20
-1.666565
30
-80.552002
70
192
0
VERTEX
8
OBJECT038
10
-14.500000
20
-1.666565
30
-80.552002
70
192
0
VERTEX
8
OBJECT038
10
-14.500000
20
1.667053
30
-80.552002
70
192
0
VERTEX
8
OBJECT038
10
2.000000
20
1.667053
30
-80.552002
70
192
0
VERTEX
8
OBJECT038
10
2.000000
20
1.667053
30
-96.000000
70
192
0
VERTEX
8
OBJECT038
10
-5.500000
20
1.667053
30
-96.000000
70
192
0
VERTEX
8
OBJECT038
10
-5.500000
20
-1.666565
30
-96.000000
70
192
0
VERTEX
8
OBJECT038
10
2.000000
20
-1.666565
30
-96.000000
70
192
0
VERTEX
8
OBJECT038
10
0
20
0
30
0
70
128
71
2
72
3
73
-4
0
VERTEX
8
OBJECT038
10
0
20
0
30
0
70
128
71
-2
72
4
73
1
0
VERTEX
8
OBJECT038
10
0
20
0
30
0
70
128
71
6
72
7
73
-8
0
VERTEX
8
OBJECT038
10
0
20
0
30
0
70
128
71
-6
72
8
73
5
0
VERTEX
8
OBJECT038
10
0
20
0
30
0
70
128
71
7
72
2
73
-1
0
VERTEX
8
OBJECT038
10
0
20
0
30
0
70
128
71
-7
72
1
73
8
0
VERTEX
8
OBJECT038
10
0
20
0
30
0
70
128
71
5
72
4
73
-3
0
VERTEX
8
OBJECT038
10
0
20
0
30
0
70
128
71
-5
72
3
73
6
0
VERTEX
8
OBJECT038
10
0
20
0
30
0
70
128
71
8
72
1
73
-4
0
VERTEX
8
OBJECT038
10
0
20
0
30
0
70
128
71
-8
72
4
73
5
0
VERTEX
8
OBJECT038
10
0
20
0
30
0
70
128
71
6
72
3
73
-2
0
VERTEX
8
OBJECT038
10
0
20
0
30
0
70
128
71
-6
72
2
73
7
0
SEQEND
8
OBJECT038
0
POLYLINE
8
OBJECT039
66
1
70
64
71
8
72
12
62
50
0
VERTEX
8
OBJECT039
10
2.000000
20
1.665466
30
-80.552002
70
192
0
VERTEX
8
OBJECT039
10
-16.000000
20
1.665466
30
-80.552002
70
192
0
VERTEX
8
OBJECT039
10
-16.000000
20
51.667053
30
-80.552002
70
192
0
VERTEX
8
OBJECT039
10
2.000000
20
51.667053
30
-80.552002
70
192
0
VERTEX
8
OBJECT039
10
2.000000
20
51.667053
30
-96.000000
70
192
0
VERTEX
8
OBJECT039
10
-7.000000
20
51.667053
30
-96.000000
70
192
0
VERTEX
8
OBJECT039
10
-7.000000
20
1.665466
30
-96.000000
70
192
0
VERTEX
8
OBJECT039
10
2.000000
20
1.665466
30
-96.000000
70
192
0
VERTEX
8
OBJECT039
10
0
20
0
30
0
70
128
71
2
72
3
73
-4
0
VERTEX
8
OBJECT039
10
0
20
0
30
0
70
128
71
-2
72
4
73
1
0
VERTEX
8
OBJECT039
10
0
20
0
30
0
70
128
71
6
72
7
73
-8
0
VERTEX
8
OBJECT039
10
0
20
0
30
0
70
128
71
-6
72
8
73
5
0
VERTEX
8
OBJECT039
10
0
20
0
30
0
70
128
71
7
72
2
73
-1
0
VERTEX
8
OBJECT039
10
0
20
0
30
0
70
128
71
-7
72
1
73
8
0
VERTEX
8
OBJECT039
10
0
20
0
30
0
70
128
71
5
72
4
73
-3
0
VERTEX
8
OBJECT039
10
0
20
0
30
0
70
128
71
-5
72
3
73
6
0
VERTEX
8
OBJECT039
10
0
20
0
30
0
70
128
71
8
72
1
73
-4
0
VERTEX
8
OBJECT039
10
0
20
0
30
0
70
128
71
-8
72
4
73
5
0
VERTEX
8
OBJECT039
10
0
20
0
30
0
70
128
71
6
72
3
73
-2
0
VERTEX
8
OBJECT039
10
0
20
0
30
0
70
128
71
-6
72
2
73
7
0
SEQEND
8
OBJECT039
0
POLYLINE
8
OBJECT040
66
1
70
64
71
8
72
12
62
50
0
VERTEX
8
OBJECT040
10
2.000000
20
-53.334534
30
-80.552002
70
192
0
VERTEX
8
OBJECT040
10
-14.500000
20
-53.334534
30
-80.552002
70
192
0
VERTEX
8
OBJECT040
10
-14.500000
20
-51.666992
30
-80.552002
70
192
0
VERTEX
8
OBJECT040
10
2.000000
20
-51.666992
30
-80.552002
70
192
0
VERTEX
8
OBJECT040
10
2.000000
20
-51.666992
30
-96.000000
70
192
0
VERTEX
8
OBJECT040
10
-5.500000
20
-51.666992
30
-96.000000
70
192
0
VERTEX
8
OBJECT040
10
-5.500000
20
-53.334534
30
-96.000000
70
192
0
VERTEX
8
OBJECT040
10
2.000000
20
-53.334534
30
-96.000000
70
192
0
VERTEX
8
OBJECT040
10
0
20
0
30
0
70
128
71
2
72
3
73
-4
0
VERTEX
8
OBJECT040
10
0
20
0
30
0
70
128
71
-2
72
4
73
1
0
VERTEX
8
OBJECT040
10
0
20
0
30
0
70
128
71
6
72
7
73
-8
0
VERTEX
8
OBJECT040
10
0
20
0
30
0
70
128
71
-6
72
8
73
5
0
VERTEX
8
OBJECT040
10
0
20
0
30
0
70
128
71
7
72
2
73
-1
0
VERTEX
8
OBJECT040
10
0
20
0
30
0
70
128
71
-7
72
1
73
8
0
VERTEX
8
OBJECT040
10
0
20
0
30
0
70
128
71
5
72
4
73
-3
0
VERTEX
8
OBJECT040
10
0
20
0
30
0
70
128
71
-5
72
3
73
6
0
VERTEX
8
OBJECT040
10
0
20
0
30
0
70
128
71
8
72
1
73
-4
0
VERTEX
8
OBJECT040
10
0
20
0
30
0
70
128
71
-8
72
4
73
5
0
VERTEX
8
OBJECT040
10
0
20
0
30
0
70
128
71
6
72
3
73
-2
0
VERTEX
8
OBJECT040
10
0
20
0
30
0
70
128
71
-6
72
2
73
7
0
SEQEND
8
OBJECT040
0
POLYLINE
8
OBJECT041
66
1
70
64
71
8
72
12
62
50
0
VERTEX
8
OBJECT041
10
2.000000
20
51.665466
30
-80.552002
70
192
0
VERTEX
8
OBJECT041
10
-14.500000
20
51.665466
30
-80.552002
70
192
0
VERTEX
8
OBJECT041
10
-14.500000
20
53.333008
30
-80.552002
70
192
0
VERTEX
8
OBJECT041
10
2.000000
20
53.333008
30
-80.552002
70
192
0
VERTEX
8
OBJECT041
10
2.000000
20
53.333008
30
-96.000000
70
192
0
VERTEX
8
OBJECT041
10
-5.500000
20
53.333008
30
-96.000000
70
192
0
VERTEX
8
OBJECT041
10
-5.500000
20
51.665466
30
-96.000000
70
192
0
VERTEX
8
OBJECT041
10
2.000000
20
51.665466
30
-96.000000
70
192
0
VERTEX
8
OBJECT041
10
0
20
0
30
0
70
128
71
2
72
3
73
-4
0
VERTEX
8
OBJECT041
10
0
20
0
30
0
70
128
71
-2
72
4
73
1
0
VERTEX
8
OBJECT041
10
0
20
0
30
0
70
128
71
6
72
7
73
-8
0
VERTEX
8
OBJECT041
10
0
20
0
30
0
70
128
71
-6
72
8
73
5
0
VERTEX
8
OBJECT041
10
0
20
0
30
0
70
128
71
7
72
2
73
-1
0
VERTEX
8
OBJECT041
10
0
20
0
30
0
70
128
71
-7
72
1
73
8
0
VERTEX
8
OBJECT041
10
0
20
0
30
0
70
128
71
5
72
4
73
-3
0
VERTEX
8
OBJECT041
10
0
20
0
30
0
70
128
71
-5
72
3
73
6
0
VERTEX
8
OBJECT041
10
0
20
0
30
0
70
128
71
8
72
1
73
-4
0
VERTEX
8
OBJECT041
10
0
20
0
30
0
70
128
71
-8
72
4
73
5
0
VERTEX
8
OBJECT041
10
0
20
0
30
0
70
128
71
6
72
3
73
-2
0
VERTEX
8
OBJECT041
10
0
20
0
30
0
70
128
71
-6
72
2
73
7
0
SEQEND
8
OBJECT041
0
POLYLINE
8
OBJECT042
66
1
70
64
71
6
72
8
62
50
0
VERTEX
8
OBJECT042
10
-6.000000
20
-22.492493
30
82.394501
70
192
0
VERTEX
8
OBJECT042
10
-18.000000
20
-25.566162
30
89.516876
70
192
0
VERTEX
8
OBJECT042
10
-6.000000
20
-25.566162
30
89.516876
70
192
0
VERTEX
8
OBJECT042
10
-18.000000
20
-6.398621
30
104.000000
70
192
0
VERTEX
8
OBJECT042
10
-6.000000
20
-13.064941
30
89.517395
70
192
0
VERTEX
8
OBJECT042
10
-6.000000
20
-6.398621
30
104.000000
70
192
0
VERTEX
8
OBJECT042
10
0
20
0
30
0
70
128
71
2
72
3
73
1
0
VERTEX
8
OBJECT042
10
0
20
0
30
0
70
128
71
5
72
6
73
4
0
VERTEX
8
OBJECT042
10
0
20
0
30
0
70
128
71
1
72
5
73
-4
0
VERTEX
8
OBJECT042
10
0
20
0
30
0
70
128
71
-1
72
4
73
2
0
VERTEX
8
OBJECT042
10
0
20
0
30
0
70
128
71
2
72
4
73
-6
0
VERTEX
8
OBJECT042
10
0
20
0
30
0
70
128
71
-2
72
6
73
3
0
VERTEX
8
OBJECT042
10
0
20
0
30
0
70
128
71
5
72
1
73
-3
0
VERTEX
8
OBJECT042
10
0
20
0
30
0
70
128
71
-5
72
3
73
6
0
SEQEND
8
OBJECT042
0
POLYLINE
8
OBJECT043
66
1
70
64
71
6
72
8
62
50
0
VERTEX
8
OBJECT043
10
-6.000000
20
-35.566284
30
68.275452
70
192
0
VERTEX
8
OBJECT043
10
-18.000000
20
-39.732971
30
74.068573
70
192
0
VERTEX
8
OBJECT043
10
-6.000000
20
-39.732971
30
74.068573
70
192
0
VERTEX
8
OBJECT043
10
-18.000000
20
-25.566101
30
89.516846
70
192
0
VERTEX
8
OBJECT043
10
-6.000000
20
-22.532715
30
82.487854
70
192
0
VERTEX
8
OBJECT043
10
-6.000000
20
-25.566101
30
89.516846
70
192
0
VERTEX
8
OBJECT043
10
0
20
0
30
0
70
128
71
2
72
3
73
1
0
VERTEX
8
OBJECT043
10
0
20
0
30
0
70
128
71
5
72
6
73
4
0
VERTEX
8
OBJECT043
10
0
20
0
30
0
70
128
71
1
72
5
73
-4
0
VERTEX
8
OBJECT043
10
0
20
0
30
0
70
128
71
-1
72
4
73
2
0
VERTEX
8
OBJECT043
10
0
20
0
30
0
70
128
71
2
72
4
73
-6
0
VERTEX
8
OBJECT043
10
0
20
0
30
0
70
128
71
-2
72
6
73
3
0
VERTEX
8
OBJECT043
10
0
20
0
30
0
70
128
71
5
72
1
73
-3
0
VERTEX
8
OBJECT043
10
0
20
0
30
0
70
128
71
-5
72
3
73
6
0
SEQEND
8
OBJECT043
0
POLYLINE
8
OBJECT044
66
1
70
64
71
6
72
8
62
50
0
VERTEX
8
OBJECT044
10
-6.000000
20
-44.732971
30
46.069519
70
192
0
VERTEX
8
OBJECT044
10
-18.000000
20
-48.899353
30
53.794495
70
192
0
VERTEX
8
OBJECT044
10
-6.000000
20
-48.899353
30
53.794495
70
192
0
VERTEX
8
OBJECT044
10
-6.000000
20
-39.732971
30
74.068451
70
192
0
VERTEX
8
OBJECT044
10
-16.698669
20
-39.732971
30
74.068451
70
192
0
VERTEX
8
OBJECT044
10
-6.000000
20
-35.566650
30
68.275940
70
192
0
VERTEX
8
OBJECT044
10
0
20
0
30
0
70
128
71
2
72
3
73
1
0
VERTEX
8
OBJECT044
10
0
20
0
30
0
70
128
71
5
72
6
73
4
0
VERTEX
8
OBJECT044
10
0
20
0
30
0
70
128
71
1
72
6
73
-5
0
VERTEX
8
OBJECT044
10
0
20
0
30
0
70
128
71
-1
72
5
73
2
0
VERTEX
8
OBJECT044
10
0
20
0
30
0
70
128
71
2
72
5
73
-4
0
VERTEX
8
OBJECT044
10
0
20
0
30
0
70
128
71
-2
72
4
73
3
0
VERTEX
8
OBJECT044
10
0
20
0
30
0
70
128
71
3
72
4
73
-6
0
VERTEX
8
OBJECT044
10
0
20
0
30
0
70
128
71
-3
72
6
73
1
0
SEQEND
8
OBJECT044
0
POLYLINE
8
OBJECT045
66
1
70
64
71
6
72
8
62
50
0
VERTEX
8
OBJECT045
10
-6.000000
20
-46.400085
30
35.446411
70
192
0
VERTEX
8
OBJECT045
10
-18.166321
20
-53.066223
30
27.722229
70
192
0
VERTEX
8
OBJECT045
10
-6.000000
20
-53.066223
30
27.722229
70
192
0
VERTEX
8
OBJECT045
10
-18.000000
20
-48.899658
30
53.795013
70
192
0
VERTEX
8
OBJECT045
10
-6.000000
20
-44.732971
30
46.071350
70
192
0
VERTEX
8
OBJECT045
10
-6.000000
20
-48.899658
30
53.795013
70
192
0
VERTEX
8
OBJECT045
10
0
20
0
30
0
70
128
71
2
72
3
73
1
0
VERTEX
8
OBJECT045
10
0
20
0
30
0
70
128
71
5
72
6
73
4
0
VERTEX
8
OBJECT045
10
0
20
0
30
0
70
128
71
1
72
5
73
-4
0
VERTEX
8
OBJECT045
10
0
20
0
30
0
70
128
71
-1
72
4
73
2
0
VERTEX
8
OBJECT045
10
0
20
0
30
0
70
128
71
2
72
4
73
-6
0
VERTEX
8
OBJECT045
10
0
20
0
30
0
70
128
71
-2
72
6
73
3
0
VERTEX
8
OBJECT045
10
0
20
0
30
0
70
128
71
5
72
1
73
-3
0
VERTEX
8
OBJECT045
10
0
20
0
30
0
70
128
71
-5
72
3
73
6
0
SEQEND
8
OBJECT045
0
POLYLINE
8
OBJECT046
66
1
70
64
71
6
72
8
62
50
0
VERTEX
8
OBJECT046
10
-6.000000
20
-13.067261
30
35.448273
70
192
0
VERTEX
8
OBJECT046
10
-18.000000
20
-6.401001
30
27.723999
70
192
0
VERTEX
8
OBJECT046
10
-6.000000
20
-6.401001
30
27.723999
70
192
0
VERTEX
8
OBJECT046
10
-6.000000
20
-53.064758
30
27.723999
70
192
0
VERTEX
8
OBJECT046
10
-18.000000
20
-53.064758
30
27.723999
70
192
0
VERTEX
8
OBJECT046
10
-6.000000
20
-46.399170
30
35.447479
70
192
0
VERTEX
8
OBJECT046
10
0
20
0
30
0
70
128
71
2
72
3
73
1
0
VERTEX
8
OBJECT046
10
0
20
0
30
0
70
128
71
5
72
6
73
4
0
VERTEX
8
OBJECT046
10
0
20
0
30
0
70
128
71
1
72
6
73
-5
0
VERTEX
8
OBJECT046
10
0
20
0
30
0
70
128
71
-1
72
5
73
2
0
VERTEX
8
OBJECT046
10
0
20
0
30
0
70
128
71
2
72
5
73
-4
0
VERTEX
8
OBJECT046
10
0
20
0
30
0
70
128
71
-2
72
4
73
3
0
VERTEX
8
OBJECT046
10
0
20
0
30
0
70
128
71
3
72
4
73
-6
0
VERTEX
8
OBJECT046
10
0
20
0
30
0
70
128
71
-3
72
6
73
1
0
SEQEND
8
OBJECT046
0
POLYLINE
8
OBJECT047
66
1
70
64
71
6
72
8
62
50
0
VERTEX
8
OBJECT047
10
-18.000000
20
-6.398254
30
27.723999
70
192
0
VERTEX
8
OBJECT047
10
-6.000000
20
-13.064514
30
20.000000
70
192
0
VERTEX
8
OBJECT047
10
-6.000000
20
-6.398254
30
27.723999
70
192
0
VERTEX
8
OBJECT047
10
-6.000000
20
-46.401001
30
20.000000
70
192
0
VERTEX
8
OBJECT047
10
-18.000000
20
-53.067566
30
27.723999
70
192
0
VERTEX
8
OBJECT047
10
-6.000000
20
-53.067566
30
27.723999
70
192
0
VERTEX
8
OBJECT047
10
0
20
0
30
0
70
128
71
2
72
3
73
1
0
VERTEX
8
OBJECT047
10
0
20
0
30
0
70
128
71
5
72
6
73
4
0
VERTEX
8
OBJECT047
10
0
20
0
30
0
70
128
71
1
72
5
73
-4
0
VERTEX
8
OBJECT047
10
0
20
0
30
0
70
128
71
-1
72
4
73
2
0
VERTEX
8
OBJECT047
10
0
20
0
30
0
70
128
71
5
72
1
73
-3
0
VERTEX
8
OBJECT047
10
0
20
0
30
0
70
128
71
-5
72
3
73
6
0
VERTEX
8
OBJECT047
10
0
20
0
30
0
70
128
71
2
72
4
73
-6
0
VERTEX
8
OBJECT047
10
0
20
0
30
0
70
128
71
-2
72
6
73
3
0
SEQEND
8
OBJECT047
0
POLYLINE
8
OBJECT048
66
1
70
64
71
6
72
8
62
50
0
VERTEX
8
OBJECT048
10
-18.000000
20
-53.065979
30
27.722198
70
192
0
VERTEX
8
OBJECT048
10
-6.000000
20
-46.400574
30
20.000000
70
192
0
VERTEX
8
OBJECT048
10
-6.000000
20
-53.065979
30
27.722198
70
192
0
VERTEX
8
OBJECT048
10
-6.000000
20
-46.399719
30
-18.622360
70
192
0
VERTEX
8
OBJECT048
10
-18.000000
20
-53.065979
30
-26.346649
70
192
0
VERTEX
8
OBJECT048
10
-6.000000
20
-53.065979
30
-26.346649
70
192
0
VERTEX
8
OBJECT048
10
0
20
0
30
0
70
128
71
2
72
3
73
1
0
VERTEX
8
OBJECT048
10
0
20
0
30
0
70
128
71
5
72
6
73
4
0
VERTEX
8
OBJECT048
10
0
20
0
30
0
70
128
71
4
72
2
73
-1
0
VERTEX
8
OBJECT048
10
0
20
0
30
0
70
128
71
-4
72
1
73
5
0
VERTEX
8
OBJECT048
10
0
20
0
30
0
70
128
71
5
72
1
73
-3
0
VERTEX
8
OBJECT048
10
0
20
0
30
0
70
128
71
-5
72
3
73
6
0
VERTEX
8
OBJECT048
10
0
20
0
30
0
70
128
71
2
72
4
73
-6
0
VERTEX
8
OBJECT048
10
0
20
0
30
0
70
128
71
-2
72
6
73
3
0
SEQEND
8
OBJECT048
0
POLYLINE
8
OBJECT049
66
1
70
64
71
6
72
8
62
50
0
VERTEX
8
OBJECT049
10
-6.000000
20
-13.066406
30
-18.621277
70
192
0
VERTEX
8
OBJECT049
10
-18.000000
20
-6.400635
30
-26.345001
70
192
0
VERTEX
8
OBJECT049
10
-6.000000
20
-6.400635
30
-26.345001
70
192
0
VERTEX
8
OBJECT049
10
-6.000000
20
-53.064575
30
-26.345001
70
192
0
VERTEX
8
OBJECT049
10
-18.000000
20
-53.064575
30
-26.345001
70
192
0
VERTEX
8
OBJECT049
10
-6.000000
20
-46.398315
30
-18.620682
70
192
0
VERTEX
8
OBJECT049
10
0
20
0
30
0
70
128
71
2
72
3
73
1
0
VERTEX
8
OBJECT049
10
0
20
0
30
0
70
128
71
5
72
6
73
4
0
VERTEX
8
OBJECT049
10
0
20
0
30
0
70
128
71
1
72
6
73
-5
0
VERTEX
8
OBJECT049
10
0
20
0
30
0
70
128
71
-1
72
5
73
2
0
VERTEX
8
OBJECT049
10
0
20
0
30
0
70
128
71
2
72
5
73
-4
0
VERTEX
8
OBJECT049
10
0
20
0
30
0
70
128
71
-2
72
4
73
3
0
VERTEX
8
OBJECT049
10
0
20
0
30
0
70
128
71
3
72
4
73
-6
0
VERTEX
8
OBJECT049
10
0
20
0
30
0
70
128
71
-3
72
6
73
1
0
SEQEND
8
OBJECT049
0
POLYLINE
8
OBJECT050
66
1
70
64
71
6
72
8
62
50
0
VERTEX
8
OBJECT050
10
-18.000000
20
-53.065979
30
-26.346375
70
192
0
VERTEX
8
OBJECT050
10
-6.000000
20
-46.399414
30
-34.071045
70
192
0
VERTEX
8
OBJECT050
10
-6.000000
20
-53.065979
30
-26.346375
70
192
0
VERTEX
8
OBJECT050
10
-6.000000
20
-46.399597
30
-72.690781
70
192
0
VERTEX
8
OBJECT050
10
-18.000000
20
-53.065979
30
-80.415207
70
192
0
VERTEX
8
OBJECT050
10
-6.000000
20
-53.065979
30
-80.415207
70
192
0
VERTEX
8
OBJECT050
10
0
20
0
30
0
70
128
71
2
72
3
73
1
0
VERTEX
8
OBJECT050
10
0
20
0
30
0
70
128
71
5
72
6
73
4
0
VERTEX
8
OBJECT050
10
0
20
0
30
0
70
128
71
4
72
2
73
-1
0
VERTEX
8
OBJECT050
10
0
20
0
30
0
70
128
71
-4
72
1
73
5
0
VERTEX
8
OBJECT050
10
0
20
0
30
0
70
128
71
5
72
1
73
-3
0
VERTEX
8
OBJECT050
10
0
20
0
30
0
70
128
71
-5
72
3
73
6
0
VERTEX
8
OBJECT050
10
0
20
0
30
0
70
128
71
2
72
4
73
-6
0
VERTEX
8
OBJECT050
10
0
20
0
30
0
70
128
71
-2
72
6
73
3
0
SEQEND
8
OBJECT050
0
POLYLINE
8
OBJECT051
66
1
70
64
71
6
72
8
62
50
0
VERTEX
8
OBJECT051
10
-6.000000
20
-13.066589
30
-72.690277
70
192
0
VERTEX
8
OBJECT051
10
-18.000000
20
-6.400818
30
-80.414001
70
192
0
VERTEX
8
OBJECT051
10
-6.000000
20
-6.400818
30
-80.414001
70
192
0
VERTEX
8
OBJECT051
10
-6.000000
20
-53.064941
30
-80.414001
70
192
0
VERTEX
8
OBJECT051
10
-18.000000
20
-53.064941
30
-80.414001
70
192
0
VERTEX
8
OBJECT051
10
-6.000000
20
-46.399170
30
-72.690277
70
192
0
VERTEX
8
OBJECT051
10
0
20
0
30
0
70
128
71
2
72
3
73
1
0
VERTEX
8
OBJECT051
10
0
20
0
30
0
70
128
71
5
72
6
73
4
0
VERTEX
8
OBJECT051
10
0
20
0
30
0
70
128
71
1
72
6
73
-5
0
VERTEX
8
OBJECT051
10
0
20
0
30
0
70
128
71
-1
72
5
73
2
0
VERTEX
8
OBJECT051
10
0
20
0
30
0
70
128
71
2
72
5
73
-4
0
VERTEX
8
OBJECT051
10
0
20
0
30
0
70
128
71
-2
72
4
73
3
0
VERTEX
8
OBJECT051
10
0
20
0
30
0
70
128
71
3
72
4
73
-6
0
VERTEX
8
OBJECT051
10
0
20
0
30
0
70
128
71
-3
72
6
73
1
0
SEQEND
8
OBJECT051
0
POLYLINE
8
OBJECT052
66
1
70
64
71
8
72
12
62
50
0
VERTEX
8
OBJECT052
10
-18.000000
20
-6.399963
30
97.000000
70
192
0
VERTEX
8
OBJECT052
10
-18.000000
20
6.599060
30
97.000000
70
192
0
VERTEX
8
OBJECT052
10
-6.000000
20
6.599060
30
97.000000
70
192
0
VERTEX
8
OBJECT052
10
-6.000000
20
-6.399963
30
97.000000
70
192
0
VERTEX
8
OBJECT052
10
-18.000000
20
6.599060
30
-81.000000
70
192
0
VERTEX
8
OBJECT052
10
-18.000000
20
-6.399963
30
-81.000000
70
192
0
VERTEX
8
OBJECT052
10
-6.000000
20
-6.399963
30
-81.000000
70
192
0
VERTEX
8
OBJECT052
10
-6.000000
20
6.599060
30
-81.000000
70
192
0
VERTEX
8
OBJECT052
10
0
20
0
30
0
70
128
71
2
72
3
73
-4
0
VERTEX
8
OBJECT052
10
0
20
0
30
0
70
128
71
-2
72
4
73
1
0
VERTEX
8
OBJECT052
10
0
20
0
30
0
70
128
71
6
72
7
73
-8
0
VERTEX
8
OBJECT052
10
0
20
0
30
0
70
128
71
-6
72
8
73
5
0
VERTEX
8
OBJECT052
10
0
20
0
30
0
70
128
71
7
72
4
73
-3
0
VERTEX
8
OBJECT052
10
0
20
0
30
0
70
128
71
-7
72
3
73
8
0
VERTEX
8
OBJECT052
10
0
20
0
30
0
70
128
71
5
72
2
73
-1
0
VERTEX
8
OBJECT052
10
0
20
0
30
0
70
128
71
-5
72
1
73
6
0
VERTEX
8
OBJECT052
10
0
20
0
30
0
70
128
71
8
72
3
73
-2
0
VERTEX
8
OBJECT052
10
0
20
0
30
0
70
128
71
-8
72
2
73
5
0
VERTEX
8
OBJECT052
10
0
20
0
30
0
70
128
71
6
72
1
73
-4
0
VERTEX
8
OBJECT052
10
0
20
0
30
0
70
128
71
-6
72
4
73
7
0
SEQEND
8
OBJECT052
0
POLYLINE
8
OBJECT053
66
1
70
64
71
6
72
8
62
50
0
VERTEX
8
OBJECT053
10
-6.000000
20
-13.065430
30
-34.066025
70
192
0
VERTEX
8
OBJECT053
10
-18.000000
20
-6.399963
30
-26.342667
70
192
0
VERTEX
8
OBJECT053
10
-6.000000
20
-6.399963
30
-26.342667
70
192
0
VERTEX
8
OBJECT053
10
-6.000000
20
-6.399963
30
-80.415009
70
192
0
VERTEX
8
OBJECT053
10
-18.000000
20
-6.399963
30
-80.415009
70
192
0
VERTEX
8
OBJECT053
10
-6.000000
20
-13.066162
30
-72.690796
70
192
0
VERTEX
8
OBJECT053
10
0
20
0
30
0
70
128
71
2
72
3
73
1
0
VERTEX
8
OBJECT053
10
0
20
0
30
0
70
128
71
5
72
6
73
4
0
VERTEX
8
OBJECT053
10
0
20
0
30
0
70
128
71
1
72
6
73
-5
0
VERTEX
8
OBJECT053
10
0
20
0
30
0
70
128
71
-1
72
5
73
2
0
VERTEX
8
OBJECT053
10
0
20
0
30
0
70
128
71
4
72
3
73
-2
0
VERTEX
8
OBJECT053
10
0
20
0
30
0
70
128
71
-4
72
2
73
5
0
VERTEX
8
OBJECT053
10
0
20
0
30
0
70
128
71
6
72
1
73
-3
0
VERTEX
8
OBJECT053
10
0
20
0
30
0
70
128
71
-6
72
3
73
4
0
SEQEND
8
OBJECT053
0
POLYLINE
8
OBJECT054
66
1
70
64
71
6
72
8
62
50
0
VERTEX
8
OBJECT054
10
-6.000000
20
-13.066467
30
20.000000
70
192
0
VERTEX
8
OBJECT054
10
-18.000000
20
-6.399963
30
27.721985
70
192
0
VERTEX
8
OBJECT054
10
-6.000000
20
-6.399963
30
27.721985
70
192
0
VERTEX
8
OBJECT054
10
-6.000000
20
-6.399963
30
-26.345810
70
192
0
VERTEX
8
OBJECT054
10
-18.000000
20
-6.399963
30
-26.345810
70
192
0
VERTEX
8
OBJECT054
10
-6.000000
20
-13.065979
30
-18.621796
70
192
0
VERTEX
8
OBJECT054
10
0
20
0
30
0
70
128
71
2
72
3
73
1
0
VERTEX
8
OBJECT054
10
0
20
0
30
0
70
128
71
5
72
6
73
4
0
VERTEX
8
OBJECT054
10
0
20
0
30
0
70
128
71
1
72
6
73
-5
0
VERTEX
8
OBJECT054
10
0
20
0
30
0
70
128
71
-1
72
5
73
2
0
VERTEX
8
OBJECT054
10
0
20
0
30
0
70
128
71
4
72
3
73
-2
0
VERTEX
8
OBJECT054
10
0
20
0
30
0
70
128
71
-4
72
2
73
5
0
VERTEX
8
OBJECT054
10
0
20
0
30
0
70
128
71
6
72
1
73
-3
0
VERTEX
8
OBJECT054
10
0
20
0
30
0
70
128
71
-6
72
3
73
4
0
SEQEND
8
OBJECT054
0
POLYLINE
8
OBJECT055
66
1
70
64
71
6
72
8
62
50
0
VERTEX
8
OBJECT055
10
-6.000000
20
-13.065918
30
89.515106
70
192
0
VERTEX
8
OBJECT055
10
-18.000000
20
-6.399963
30
104.000000
70
192
0
VERTEX
8
OBJECT055
10
-6.000000
20
-6.399963
30
104.000000
70
192
0
VERTEX
8
OBJECT055
10
-6.000000
20
-6.399963
30
27.722717
70
192
0
VERTEX
8
OBJECT055
10
-18.000000
20
-6.399963
30
27.722717
70
192
0
VERTEX
8
OBJECT055
10
-6.000000
20
-13.066040
30
35.446808
70
192
0
VERTEX
8
OBJECT055
10
0
20
0
30
0
70
128
71
2
72
3
73
1
0
VERTEX
8
OBJECT055
10
0
20
0
30
0
70
128
71
5
72
6
73
4
0
VERTEX
8
OBJECT055
10
0
20
0
30
0
70
128
71
1
72
6
73
-5
0
VERTEX
8
OBJECT055
10
0
20
0
30
0
70
128
71
-1
72
5
73
2
0
VERTEX
8
OBJECT055
10
0
20
0
30
0
70
128
71
4
72
3
73
-2
0
VERTEX
8
OBJECT055
10
0
20
0
30
0
70
128
71
-4
72
2
73
5
0
VERTEX
8
OBJECT055
10
0
20
0
30
0
70
128
71
6
72
1
73
-3
0
VERTEX
8
OBJECT055
10
0
20
0
30
0
70
128
71
-6
72
3
73
4
0
SEQEND
8
OBJECT055
0
POLYLINE
8
OBJECT056
66
1
70
64
71
8
72
12
62
50
0
VERTEX
8
OBJECT056
10
-18.000000
20
-4.666565
30
-11.033997
70
192
0
VERTEX
8
OBJECT056
10
-24.000000
20
-4.666565
30
-11.033997
70
192
0
VERTEX
8
OBJECT056
10
-24.000000
20
-1.332947
30
-11.033997
70
192
0
VERTEX
8
OBJECT056
10
-18.000000
20
-1.332947
30
-11.033997
70
192
0
VERTEX
8
OBJECT056
10
-18.000000
20
-1.332947
30
-14.897003
70
192
0
VERTEX
8
OBJECT056
10
-24.000000
20
-1.332947
30
-14.897003
70
192
0
VERTEX
8
OBJECT056
10
-24.000000
20
-4.666565
30
-14.897003
70
192
0
VERTEX
8
OBJECT056
10
-18.000000
20
-4.666565
30
-14.897003
70
192
0
VERTEX
8
OBJECT056
10
0
20
0
30
0
70
128
71
2
72
3
73
-4
0
VERTEX
8
OBJECT056
10
0
20
0
30
0
70
128
71
-2
72
4
73
1
0
VERTEX
8
OBJECT056
10
0
20
0
30
0
70
128
71
6
72
7
73
-8
0
VERTEX
8
OBJECT056
10
0
20
0
30
0
70
128
71
-6
72
8
73
5
0
VERTEX
8
OBJECT056
10
0
20
0
30
0
70
128
71
7
72
2
73
-1
0
VERTEX
8
OBJECT056
10
0
20
0
30
0
70
128
71
-7
72
1
73
8
0
VERTEX
8
OBJECT056
10
0
20
0
30
0
70
128
71
5
72
4
73
-3
0
VERTEX
8
OBJECT056
10
0
20
0
30
0
70
128
71
-5
72
3
73
6
0
VERTEX
8
OBJECT056
10
0
20
0
30
0
70
128
71
8
72
1
73
-4
0
VERTEX
8
OBJECT056
10
0
20
0
30
0
70
128
71
-8
72
4
73
5
0
VERTEX
8
OBJECT056
10
0
20
0
30
0
70
128
71
6
72
3
73
-2
0
VERTEX
8
OBJECT056
10
0
20
0
30
0
70
128
71
-6
72
2
73
7
0
SEQEND
8
OBJECT056
0
POLYLINE
8
OBJECT057
66
1
70
64
71
8
72
12
62
50
0
VERTEX
8
OBJECT057
10
-24.000000
20
-4.666565
30
16.000000
70
192
0
VERTEX
8
OBJECT057
10
-30.000000
20
-4.666565
30
16.000000
70
192
0
VERTEX
8
OBJECT057
10
-30.000000
20
-1.332947
30
16.000000
70
192
0
VERTEX
8
OBJECT057
10
-24.000000
20
-1.332947
30
16.000000
70
192
0
VERTEX
8
OBJECT057
10
-24.000000
20
-1.332947
30
-14.897003
70
192
0
VERTEX
8
OBJECT057
10
-30.000000
20
-1.332947
30
-14.897003
70
192
0
VERTEX
8
OBJECT057
10
-30.000000
20
-4.666565
30
-14.897003
70
192
0
VERTEX
8
OBJECT057
10
-24.000000
20
-4.666565
30
-14.897003
70
192
0
VERTEX
8
OBJECT057
10
0
20
0
30
0
70
128
71
2
72
3
73
-4
0
VERTEX
8
OBJECT057
10
0
20
0
30
0
70
128
71
-2
72
4
73
1
0
VERTEX
8
OBJECT057
10
0
20
0
30
0
70
128
71
6
72
7
73
-8
0
VERTEX
8
OBJECT057
10
0
20
0
30
0
70
128
71
-6
72
8
73
5
0
VERTEX
8
OBJECT057
10
0
20
0
30
0
70
128
71
7
72
2
73
-1
0
VERTEX
8
OBJECT057
10
0
20
0
30
0
70
128
71
-7
72
1
73
8
0
VERTEX
8
OBJECT057
10
0
20
0
30
0
70
128
71
5
72
4
73
-3
0
VERTEX
8
OBJECT057
10
0
20
0
30
0
70
128
71
-5
72
3
73
6
0
VERTEX
8
OBJECT057
10
0
20
0
30
0
70
128
71
8
72
1
73
-4
0
VERTEX
8
OBJECT057
10
0
20
0
30
0
70
128
71
-8
72
4
73
5
0
VERTEX
8
OBJECT057
10
0
20
0
30
0
70
128
71
6
72
3
73
-2
0
VERTEX
8
OBJECT057
10
0
20
0
30
0
70
128
71
-6
72
2
73
7
0
SEQEND
8
OBJECT057
0
POLYLINE
8
OBJECT058
66
1
70
64
71
8
72
12
62
50
0
VERTEX
8
OBJECT058
10
-18.000000
20
-4.666565
30
16.000000
70
192
0
VERTEX
8
OBJECT058
10
-24.000000
20
-4.666565
30
16.000000
70
192
0
VERTEX
8
OBJECT058
10
-24.000000
20
-1.332947
30
16.000000
70
192
0
VERTEX
8
OBJECT058
10
-18.000000
20
-1.332947
30
16.000000
70
192
0
VERTEX
8
OBJECT058
10
-18.000000
20
-1.332947
30
12.138000
70
192
0
VERTEX
8
OBJECT058
10
-24.000000
20
-1.332947
30
12.138000
70
192
0
VERTEX
8
OBJECT058
10
-24.000000
20
-4.666565
30
12.138000
70
192
0
VERTEX
8
OBJECT058
10
-18.000000
20
-4.666565
30
12.138000
70
192
0
VERTEX
8
OBJECT058
10
0
20
0
30
0
70
128
71
2
72
3
73
-4
0
VERTEX
8
OBJECT058
10
0
20
0
30
0
70
128
71
-2
72
4
73
1
0
VERTEX
8
OBJECT058
10
0
20
0
30
0
70
128
71
6
72
7
73
-8
0
VERTEX
8
OBJECT058
10
0
20
0
30
0
70
128
71
-6
72
8
73
5
0
VERTEX
8
OBJECT058
10
0
20
0
30
0
70
128
71
7
72
2
73
-1
0
VERTEX
8
OBJECT058
10
0
20
0
30
0
70
128
71
-7
72
1
73
8
0
VERTEX
8
OBJECT058
10
0
20
0
30
0
70
128
71
5
72
4
73
-3
0
VERTEX
8
OBJECT058
10
0
20
0
30
0
70
128
71
-5
72
3
73
6
0
VERTEX
8
OBJECT058
10
0
20
0
30
0
70
128
71
8
72
1
73
-4
0
VERTEX
8
OBJECT058
10
0
20
0
30
0
70
128
71
-8
72
4
73
5
0
VERTEX
8
OBJECT058
10
0
20
0
30
0
70
128
71
6
72
3
73
-2
0
VERTEX
8
OBJECT058
10
0
20
0
30
0
70
128
71
-6
72
2
73
7
0
SEQEND
8
OBJECT058
0
POLYLINE
8
OBJECT059
66
1
70
64
71
8
72
12
62
50
0
VERTEX
8
OBJECT059
10
-24.000000
20
2.001404
30
16.000000
70
192
0
VERTEX
8
OBJECT059
10
-30.000000
20
2.001404
30
16.000000
70
192
0
VERTEX
8
OBJECT059
10
-30.000000
20
5.333008
30
16.000000
70
192
0
VERTEX
8
OBJECT059
10
-24.000000
20
5.333008
30
16.000000
70
192
0
VERTEX
8
OBJECT059
10
-24.000000
20
5.333008
30
-14.897003
70
192
0
VERTEX
8
OBJECT059
10
-30.000000
20
5.333008
30
-14.897003
70
192
0
VERTEX
8
OBJECT059
10
-30.000000
20
2.001404
30
-14.897003
70
192
0
VERTEX
8
OBJECT059
10
-24.000000
20
2.001404
30
-14.897003
70
192
0
VERTEX
8
OBJECT059
10
0
20
0
30
0
70
128
71
2
72
3
73
-4
0
VERTEX
8
OBJECT059
10
0
20
0
30
0
70
128
71
-2
72
4
73
1
0
VERTEX
8
OBJECT059
10
0
20
0
30
0
70
128
71
6
72
7
73
-8
0
VERTEX
8
OBJECT059
10
0
20
0
30
0
70
128
71
-6
72
8
73
5
0
VERTEX
8
OBJECT059
10
0
20
0
30
0
70
128
71
7
72
2
73
-1
0
VERTEX
8
OBJECT059
10
0
20
0
30
0
70
128
71
-7
72
1
73
8
0
VERTEX
8
OBJECT059
10
0
20
0
30
0
70
128
71
5
72
4
73
-3
0
VERTEX
8
OBJECT059
10
0
20
0
30
0
70
128
71
-5
72
3
73
6
0
VERTEX
8
OBJECT059
10
0
20
0
30
0
70
128
71
8
72
1
73
-4
0
VERTEX
8
OBJECT059
10
0
20
0
30
0
70
128
71
-8
72
4
73
5
0
VERTEX
8
OBJECT059
10
0
20
0
30
0
70
128
71
6
72
3
73
-2
0
VERTEX
8
OBJECT059
10
0
20
0
30
0
70
128
71
-6
72
2
73
7
0
SEQEND
8
OBJECT059
0
POLYLINE
8
OBJECT060
66
1
70
64
71
8
72
12
62
50
0
VERTEX
8
OBJECT060
10
-18.000000
20
2.001404
30
16.000000
70
192
0
VERTEX
8
OBJECT060
10
-24.000000
20
2.001404
30
16.000000
70
192
0
VERTEX
8
OBJECT060
10
-24.000000
20
5.333008
30
16.000000
70
192
0
VERTEX
8
OBJECT060
10
-18.000000
20
5.333008
30
16.000000
70
192
0
VERTEX
8
OBJECT060
10
-18.000000
20
5.333008
30
12.138000
70
192
0
VERTEX
8
OBJECT060
10
-24.000000
20
5.333008
30
12.138000
70
192
0
VERTEX
8
OBJECT060
10
-24.000000
20
2.001404
30
12.138000
70
192
0
VERTEX
8
OBJECT060
10
-18.000000
20
2.001404
30
12.138000
70
192
0
VERTEX
8
OBJECT060
10
0
20
0
30
0
70
128
71
2
72
3
73
-4
0
VERTEX
8
OBJECT060
10
0
20
0
30
0
70
128
71
-2
72
4
73
1
0
VERTEX
8
OBJECT060
10
0
20
0
30
0
70
128
71
6
72
7
73
-8
0
VERTEX
8
OBJECT060
10
0
20
0
30
0
70
128
71
-6
72
8
73
5
0
VERTEX
8
OBJECT060
10
0
20
0
30
0
70
128
71
7
72
2
73
-1
0
VERTEX
8
OBJECT060
10
0
20
0
30
0
70
128
71
-7
72
1
73
8
0
VERTEX
8
OBJECT060
10
0
20
0
30
0
70
128
71
5
72
4
73
-3
0
VERTEX
8
OBJECT060
10
0
20
0
30
0
70
128
71
-5
72
3
73
6
0
VERTEX
8
OBJECT060
10
0
20
0
30
0
70
128
71
8
72
1
73
-4
0
VERTEX
8
OBJECT060
10
0
20
0
30
0
70
128
71
-8
72
4
73
5
0
VERTEX
8
OBJECT060
10
0
20
0
30
0
70
128
71
6
72
3
73
-2
0
VERTEX
8
OBJECT060
10
0
20
0
30
0
70
128
71
-6
72
2
73
7
0
SEQEND
8
OBJECT060
0
POLYLINE
8
OBJECT061
66
1
70
64
71
8
72
12
62
50
0
VERTEX
8
OBJECT061
10
-18.000000
20
2.001404
30
-11.033997
70
192
0
VERTEX
8
OBJECT061
10
-24.000000
20
2.001404
30
-11.033997
70
192
0
VERTEX
8
OBJECT061
10
-24.000000
20
5.333008
30
-11.033997
70
192
0
VERTEX
8
OBJECT061
10
-18.000000
20
5.333008
30
-11.033997
70
192
0
VERTEX
8
OBJECT061
10
-18.000000
20
5.333008
30
-14.897003
70
192
0
VERTEX
8
OBJECT061
10
-24.000000
20
5.333008
30
-14.897003
70
192
0
VERTEX
8
OBJECT061
10
-24.000000
20
2.001404
30
-14.897003
70
192
0
VERTEX
8
OBJECT061
10
-18.000000
20
2.001404
30
-14.897003
70
192
0
VERTEX
8
OBJECT061
10
0
20
0
30
0
70
128
71
2
72
3
73
-4
0
VERTEX
8
OBJECT061
10
0
20
0
30
0
70
128
71
-2
72
4
73
1
0
VERTEX
8
OBJECT061
10
0
20
0
30
0
70
128
71
6
72
7
73
-8
0
VERTEX
8
OBJECT061
10
0
20
0
30
0
70
128
71
-6
72
8
73
5
0
VERTEX
8
OBJECT061
10
0
20
0
30
0
70
128
71
7
72
2
73
-1
0
VERTEX
8
OBJECT061
10
0
20
0
30
0
70
128
71
-7
72
1
73
8
0
VERTEX
8
OBJECT061
10
0
20
0
30
0
70
128
71
5
72
4
73
-3
0
VERTEX
8
OBJECT061
10
0
20
0
30
0
70
128
71
-5
72
3
73
6
0
VERTEX
8
OBJECT061
10
0
20
0
30
0
70
128
71
8
72
1
73
-4
0
VERTEX
8
OBJECT061
10
0
20
0
30
0
70
128
71
-8
72
4
73
5
0
VERTEX
8
OBJECT061
10
0
20
0
30
0
70
128
71
6
72
3
73
-2
0
VERTEX
8
OBJECT061
10
0
20
0
30
0
70
128
71
-6
72
2
73
7
0
SEQEND
8
OBJECT061
0
POLYLINE
8
OBJECT062
66
1
70
64
71
6
72
8
62
50
0
VERTEX
8
OBJECT062
10
-18.000000
20
6.600037
30
104.000000
70
192
0
VERTEX
8
OBJECT062
10
-6.000000
20
13.267029
30
89.518066
70
192
0
VERTEX
8
OBJECT062
10
-6.000000
20
6.600037
30
104.000000
70
192
0
VERTEX
8
OBJECT062
10
-6.000000
20
13.267029
30
35.445557
70
192
0
VERTEX
8
OBJECT062
10
-18.000000
20
6.600037
30
27.722687
70
192
0
VERTEX
8
OBJECT062
10
-6.000000
20
6.600037
30
27.722687
70
192
0
VERTEX
8
OBJECT062
10
0
20
0
30
0
70
128
71
2
72
3
73
1
0
VERTEX
8
OBJECT062
10
0
20
0
30
0
70
128
71
5
72
6
73
4
0
VERTEX
8
OBJECT062
10
0
20
0
30
0
70
128
71
4
72
2
73
-1
0
VERTEX
8
OBJECT062
10
0
20
0
30
0
70
128
71
-4
72
1
73
5
0
VERTEX
8
OBJECT062
10
0
20
0
30
0
70
128
71
5
72
1
73
-3
0
VERTEX
8
OBJECT062
10
0
20
0
30
0
70
128
71
-5
72
3
73
6
0
VERTEX
8
OBJECT062
10
0
20
0
30
0
70
128
71
2
72
4
73
-6
0
VERTEX
8
OBJECT062
10
0
20
0
30
0
70
128
71
-2
72
6
73
3
0
SEQEND
8
OBJECT062
0
POLYLINE
8
OBJECT063
66
1
70
64
71
6
72
8
62
50
0
VERTEX
8
OBJECT063
10
-18.000000
20
25.766113
30
89.517700
70
192
0
VERTEX
8
OBJECT063
10
-6.000000
20
23.267029
30
83.724670
70
192
0
VERTEX
8
OBJECT063
10
-6.000000
20
25.766113
30
89.517700
70
192
0
VERTEX
8
OBJECT063
10
-6.000000
20
12.023621
30
92.219574
70
192
0
VERTEX
8
OBJECT063
10
-18.000000
20
6.601074
30
104.000000
70
192
0
VERTEX
8
OBJECT063
10
-6.000000
20
6.601074
30
104.000000
70
192
0
VERTEX
8
OBJECT063
10
0
20
0
30
0
70
128
71
2
72
3
73
1
0
VERTEX
8
OBJECT063
10
0
20
0
30
0
70
128
71
5
72
6
73
4
0
VERTEX
8
OBJECT063
10
0
20
0
30
0
70
128
71
1
72
5
73
-4
0
VERTEX
8
OBJECT063
10
0
20
0
30
0
70
128
71
-1
72
4
73
2
0
VERTEX
8
OBJECT063
10
0
20
0
30
0
70
128
71
5
72
1
73
-3
0
VERTEX
8
OBJECT063
10
0
20
0
30
0
70
128
71
-5
72
3
73
6
0
VERTEX
8
OBJECT063
10
0
20
0
30
0
70
128
71
2
72
4
73
-6
0
VERTEX
8
OBJECT063
10
0
20
0
30
0
70
128
71
-2
72
6
73
3
0
SEQEND
8
OBJECT063
0
POLYLINE
8
OBJECT064
66
1
70
64
71
6
72
8
62
50
0
VERTEX
8
OBJECT064
10
-18.000000
20
39.934570
30
74.068390
70
192
0
VERTEX
8
OBJECT064
10
-6.000000
20
35.767212
30
68.274902
70
192
0
VERTEX
8
OBJECT064
10
-6.000000
20
39.934570
30
74.068390
70
192
0
VERTEX
8
OBJECT064
10
-6.000000
20
23.267029
30
83.724762
70
192
0
VERTEX
8
OBJECT064
10
-15.741150
20
25.766174
30
89.517944
70
192
0
VERTEX
8
OBJECT064
10
-6.000000
20
25.766174
30
89.517944
70
192
0
VERTEX
8
OBJECT064
10
0
20
0
30
0
70
128
71
2
72
3
73
1
0
VERTEX
8
OBJECT064
10
0
20
0
30
0
70
128
71
5
72
6
73
4
0
VERTEX
8
OBJECT064
10
0
20
0
30
0
70
128
71
1
72
5
73
-4
0
VERTEX
8
OBJECT064
10
0
20
0
30
0
70
128
71
-1
72
4
73
2
0
VERTEX
8
OBJECT064
10
0
20
0
30
0
70
128
71
3
72
6
73
-5
0
VERTEX
8
OBJECT064
10
0
20
0
30
0
70
128
71
-3
72
5
73
1
0
VERTEX
8
OBJECT064
10
0
20
0
30
0
70
128
71
2
72
4
73
-6
0
VERTEX
8
OBJECT064
10
0
20
0
30
0
70
128
71
-2
72
6
73
3
0
SEQEND
8
OBJECT064
0
POLYLINE
8
OBJECT065
66
1
70
64
71
6
72
8
62
50
0
VERTEX
8
OBJECT065
10
-6.000000
20
49.099976
30
53.793182
70
192
0
VERTEX
8
OBJECT065
10
-19.456787
20
49.099976
30
53.793182
70
192
0
VERTEX
8
OBJECT065
10
-6.000000
20
44.933960
30
46.069153
70
192
0
VERTEX
8
OBJECT065
10
-6.000000
20
35.768005
30
68.275940
70
192
0
VERTEX
8
OBJECT065
10
-18.000000
20
39.934387
30
74.068115
70
192
0
VERTEX
8
OBJECT065
10
-6.000000
20
39.934387
30
74.068115
70
192
0
VERTEX
8
OBJECT065
10
0
20
0
30
0
70
128
71
2
72
3
73
1
0
VERTEX
8
OBJECT065
10
0
20
0
30
0
70
128
71
5
72
6
73
4
0
VERTEX
8
OBJECT065
10
0
20
0
30
0
70
128
71
2
72
5
73
-4
0
VERTEX
8
OBJECT065
10
0
20
0
30
0
70
128
71
-2
72
4
73
3
0
VERTEX
8
OBJECT065
10
0
20
0
30
0
70
128
71
1
72
6
73
-5
0
VERTEX
8
OBJECT065
10
0
20
0
30
0
70
128
71
-1
72
5
73
2
0
VERTEX
8
OBJECT065
10
0
20
0
30
0
70
128
71
3
72
4
73
-6
0
VERTEX
8
OBJECT065
10
0
20
0
30
0
70
128
71
-3
72
6
73
1
0
SEQEND
8
OBJECT065
0
POLYLINE
8
OBJECT066
66
1
70
64
71
6
72
8
62
50
0
VERTEX
8
OBJECT066
10
-6.000000
20
53.267029
30
27.724945
70
192
0
VERTEX
8
OBJECT066
10
-18.000000
20
53.267029
30
27.724945
70
192
0
VERTEX
8
OBJECT066
10
-6.000000
20
46.638367
30
35.404327
70
192
0
VERTEX
8
OBJECT066
10
-6.000000
20
44.934021
30
46.069366
70
192
0
VERTEX
8
OBJECT066
10
-18.000000
20
49.099976
30
53.793274
70
192
0
VERTEX
8
OBJECT066
10
-6.000000
20
49.099976
30
53.793274
70
192
0
VERTEX
8
OBJECT066
10
0
20
0
30
0
70
128
71
2
72
3
73
1
0
VERTEX
8
OBJECT066
10
0
20
0
30
0
70
128
71
5
72
6
73
4
0
VERTEX
8
OBJECT066
10
0
20
0
30
0
70
128
71
2
72
5
73
-4
0
VERTEX
8
OBJECT066
10
0
20
0
30
0
70
128
71
-2
72
4
73
3
0
VERTEX
8
OBJECT066
10
0
20
0
30
0
70
128
71
1
72
6
73
-5
0
VERTEX
8
OBJECT066
10
0
20
0
30
0
70
128
71
-1
72
5
73
2
0
VERTEX
8
OBJECT066
10
0
20
0
30
0
70
128
71
3
72
4
73
-6
0
VERTEX
8
OBJECT066
10
0
20
0
30
0
70
128
71
-3
72
6
73
1
0
SEQEND
8
OBJECT066
0
POLYLINE
8
OBJECT067
66
1
70
64
71
6
72
8
62
50
0
VERTEX
8
OBJECT067
10
-6.000000
20
6.601135
30
27.723999
70
192
0
VERTEX
8
OBJECT067
10
-18.000000
20
6.601135
30
27.723999
70
192
0
VERTEX
8
OBJECT067
10
-6.000000
20
13.267029
30
35.447906
70
192
0
VERTEX
8
OBJECT067
10
-6.000000
20
46.600281
30
35.448425
70
192
0
VERTEX
8
OBJECT067
10
-18.000000
20
53.267029
30
27.723999
70
192
0
VERTEX
8
OBJECT067
10
-6.000000
20
53.267029
30
27.723999
70
192
0
VERTEX
8
OBJECT067
10
0
20
0
30
0
70
128
71
2
72
3
73
1
0
VERTEX
8
OBJECT067
10
0
20
0
30
0
70
128
71
5
72
6
73
4
0
VERTEX
8
OBJECT067
10
0
20
0
30
0
70
128
71
2
72
5
73
-4
0
VERTEX
8
OBJECT067
10
0
20
0
30
0
70
128
71
-2
72
4
73
3
0
VERTEX
8
OBJECT067
10
0
20
0
30
0
70
128
71
5
72
2
73
-1
0
VERTEX
8
OBJECT067
10
0
20
0
30
0
70
128
71
-5
72
1
73
6
0
VERTEX
8
OBJECT067
10
0
20
0
30
0
70
128
71
3
72
4
73
-6
0
VERTEX
8
OBJECT067
10
0
20
0
30
0
70
128
71
-3
72
6
73
1
0
SEQEND
8
OBJECT067
0
POLYLINE
8
OBJECT068
66
1
70
64
71
6
72
8
62
50
0
VERTEX
8
OBJECT068
10
-6.000000
20
13.267029
30
20.000000
70
192
0
VERTEX
8
OBJECT068
10
-18.000000
20
6.598816
30
27.723999
70
192
0
VERTEX
8
OBJECT068
10
-6.000000
20
6.598816
30
27.723999
70
192
0
VERTEX
8
OBJECT068
10
-18.000000
20
53.267029
30
27.723999
70
192
0
VERTEX
8
OBJECT068
10
-6.000000
20
46.598938
30
20.000000
70
192
0
VERTEX
8
OBJECT068
10
-6.000000
20
53.267029
30
27.723999
70
192
0
VERTEX
8
OBJECT068
10
0
20
0
30
0
70
128
71
2
72
3
73
1
0
VERTEX
8
OBJECT068
10
0
20
0
30
0
70
128
71
5
72
6
73
4
0
VERTEX
8
OBJECT068
10
0
20
0
30
0
70
128
71
1
72
5
73
-4
0
VERTEX
8
OBJECT068
10
0
20
0
30
0
70
128
71
-1
72
4
73
2
0
VERTEX
8
OBJECT068
10
0
20
0
30
0
70
128
71
2
72
4
73
-6
0
VERTEX
8
OBJECT068
10
0
20
0
30
0
70
128
71
-2
72
6
73
3
0
VERTEX
8
OBJECT068
10
0
20
0
30
0
70
128
71
5
72
1
73
-3
0
VERTEX
8
OBJECT068
10
0
20
0
30
0
70
128
71
-5
72
3
73
6
0
SEQEND
8
OBJECT068
0
POLYLINE
8
OBJECT069
66
1
70
64
71
6
72
8
62
50
0
VERTEX
8
OBJECT069
10
-6.000000
20
46.599609
30
20.000000
70
192
0
VERTEX
8
OBJECT069
10
-18.000000
20
53.267029
30
27.724365
70
192
0
VERTEX
8
OBJECT069
10
-6.000000
20
53.267029
30
27.724365
70
192
0
VERTEX
8
OBJECT069
10
-6.000000
20
53.267029
30
-26.343185
70
192
0
VERTEX
8
OBJECT069
10
-18.000000
20
53.267029
30
-26.343185
70
192
0
VERTEX
8
OBJECT069
10
-6.000000
20
46.599976
30
-18.619095
70
192
0
VERTEX
8
OBJECT069
10
0
20
0
30
0
70
128
71
2
72
3
73
1
0
VERTEX
8
OBJECT069
10
0
20
0
30
0
70
128
71
5
72
6
73
4
0
VERTEX
8
OBJECT069
10
0
20
0
30
0
70
128
71
1
72
6
73
-5
0
VERTEX
8
OBJECT069
10
0
20
0
30
0
70
128
71
-1
72
5
73
2
0
VERTEX
8
OBJECT069
10
0
20
0
30
0
70
128
71
4
72
3
73
-2
0
VERTEX
8
OBJECT069
10
0
20
0
30
0
70
128
71
-4
72
2
73
5
0
VERTEX
8
OBJECT069
10
0
20
0
30
0
70
128
71
6
72
1
73
-3
0
VERTEX
8
OBJECT069
10
0
20
0
30
0
70
128
71
-6
72
3
73
4
0
SEQEND
8
OBJECT069
0
POLYLINE
8
OBJECT070
66
1
70
64
71
6
72
8
62
50
0
VERTEX
8
OBJECT070
10
-18.000000
20
6.600037
30
27.722565
70
192
0
VERTEX
8
OBJECT070
10
-6.000000
20
13.267029
30
20.000000
70
192
0
VERTEX
8
OBJECT070
10
-6.000000
20
6.600037
30
27.722565
70
192
0
VERTEX
8
OBJECT070
10
-6.000000
20
13.267029
30
-18.622772
70
192
0
VERTEX
8
OBJECT070
10
-18.000000
20
6.600037
30
-26.345901
70
192
0
VERTEX
8
OBJECT070
10
-6.000000
20
6.600037
30
-26.345901
70
192
0
VERTEX
8
OBJECT070
10
0
20
0
30
0
70
128
71
2
72
3
73
1
0
VERTEX
8
OBJECT070
10
0
20
0
30
0
70
128
71
5
72
6
73
4
0
VERTEX
8
OBJECT070
10
0
20
0
30
0
70
128
71
4
72
2
73
-1
0
VERTEX
8
OBJECT070
10
0
20
0
30
0
70
128
71
-4
72
1
73
5
0
VERTEX
8
OBJECT070
10
0
20
0
30
0
70
128
71
5
72
1
73
-3
0
VERTEX
8
OBJECT070
10
0
20
0
30
0
70
128
71
-5
72
3
73
6
0
VERTEX
8
OBJECT070
10
0
20
0
30
0
70
128
71
2
72
4
73
-6
0
VERTEX
8
OBJECT070
10
0
20
0
30
0
70
128
71
-2
72
6
73
3
0
SEQEND
8
OBJECT070
0
POLYLINE
8
OBJECT071
66
1
70
64
71
6
72
8
62
50
0
VERTEX
8
OBJECT071
10
-6.000000
20
6.600769
30
-26.345001
70
192
0
VERTEX
8
OBJECT071
10
-18.000000
20
6.600769
30
-26.345001
70
192
0
VERTEX
8
OBJECT071
10
-6.000000
20
13.267029
30
-18.620911
70
192
0
VERTEX
8
OBJECT071
10
-6.000000
20
46.601563
30
-18.620926
70
192
0
VERTEX
8
OBJECT071
10
-18.000000
20
53.267029
30
-26.345001
70
192
0
VERTEX
8
OBJECT071
10
-6.000000
20
53.267029
30
-26.345001
70
192
0
VERTEX
8
OBJECT071
10
0
20
0
30
0
70
128
71
2
72
3
73
1
0
VERTEX
8
OBJECT071
10
0
20
0
30
0
70
128
71
5
72
6
73
4
0
VERTEX
8
OBJECT071
10
0
20
0
30
0
70
128
71
2
72
5
73
-4
0
VERTEX
8
OBJECT071
10
0
20
0
30
0
70
128
71
-2
72
4
73
3
0
VERTEX
8
OBJECT071
10
0
20
0
30
0
70
128
71
5
72
2
73
-1
0
VERTEX
8
OBJECT071
10
0
20
0
30
0
70
128
71
-5
72
1
73
6
0
VERTEX
8
OBJECT071
10
0
20
0
30
0
70
128
71
3
72
4
73
-6
0
VERTEX
8
OBJECT071
10
0
20
0
30
0
70
128
71
-3
72
6
73
1
0
SEQEND
8
OBJECT071
0
POLYLINE
8
OBJECT072
66
1
70
64
71
6
72
8
62
50
0
VERTEX
8
OBJECT072
10
-6.000000
20
13.267029
30
-34.068939
70
192
0
VERTEX
8
OBJECT072
10
-18.000000
20
6.599182
30
-26.345001
70
192
0
VERTEX
8
OBJECT072
10
-6.000000
20
6.599182
30
-26.345001
70
192
0
VERTEX
8
OBJECT072
10
-18.000000
20
53.267029
30
-26.345001
70
192
0
VERTEX
8
OBJECT072
10
-6.000000
20
46.599976
30
-34.068222
70
192
0
VERTEX
8
OBJECT072
10
-6.000000
20
53.267029
30
-26.345001
70
192
0
VERTEX
8
OBJECT072
10
0
20
0
30
0
70
128
71
2
72
3
73
1
0
VERTEX
8
OBJECT072
10
0
20
0
30
0
70
128
71
5
72
6
73
4
0
VERTEX
8
OBJECT072
10
0
20
0
30
0
70
128
71
1
72
5
73
-4
0
VERTEX
8
OBJECT072
10
0
20
0
30
0
70
128
71
-1
72
4
73
2
0
VERTEX
8
OBJECT072
10
0
20
0
30
0
70
128
71
2
72
4
73
-6
0
VERTEX
8
OBJECT072
10
0
20
0
30
0
70
128
71
-2
72
6
73
3
0
VERTEX
8
OBJECT072
10
0
20
0
30
0
70
128
71
5
72
1
73
-3
0
VERTEX
8
OBJECT072
10
0
20
0
30
0
70
128
71
-5
72
3
73
6
0
SEQEND
8
OBJECT072
0
POLYLINE
8
OBJECT073
66
1
70
64
71
6
72
8
62
50
0
VERTEX
8
OBJECT073
10
-18.000000
20
6.600037
30
-26.346024
70
192
0
VERTEX
8
OBJECT073
10
-6.000000
20
13.267029
30
-34.070816
70
192
0
VERTEX
8
OBJECT073
10
-6.000000
20
6.600037
30
-26.346024
70
192
0
VERTEX
8
OBJECT073
10
-6.000000
20
13.267029
30
-72.689697
70
192
0
VERTEX
8
OBJECT073
10
-18.000000
20
6.600037
30
-80.413773
70
192
0
VERTEX
8
OBJECT073
10
-6.000000
20
6.600037
30
-80.413773
70
192
0
VERTEX
8
OBJECT073
10
0
20
0
30
0
70
128
71
2
72
3
73
1
0
VERTEX
8
OBJECT073
10
0
20
0
30
0
70
128
71
5
72
6
73
4
0
VERTEX
8
OBJECT073
10
0
20
0
30
0
70
128
71
4
72
2
73
-1
0
VERTEX
8
OBJECT073
10
0
20
0
30
0
70
128
71
-4
72
1
73
5
0
VERTEX
8
OBJECT073
10
0
20
0
30
0
70
128
71
5
72
1
73
-3
0
VERTEX
8
OBJECT073
10
0
20
0
30
0
70
128
71
-5
72
3
73
6
0
VERTEX
8
OBJECT073
10
0
20
0
30
0
70
128
71
2
72
4
73
-6
0
VERTEX
8
OBJECT073
10
0
20
0
30
0
70
128
71
-2
72
6
73
3
0
SEQEND
8
OBJECT073
0
POLYLINE
8
OBJECT074
66
1
70
64
71
6
72
8
62
50
0
VERTEX
8
OBJECT074
10
-6.000000
20
6.599854
30
-80.414001
70
192
0
VERTEX
8
OBJECT074
10
-18.000000
20
6.599854
30
-80.414001
70
192
0
VERTEX
8
OBJECT074
10
-6.000000
20
13.267029
30
-72.689133
70
192
0
VERTEX
8
OBJECT074
10
-6.000000
20
46.598450
30
-72.689819
70
192
0
VERTEX
8
OBJECT074
10
-18.000000
20
53.267029
30
-80.414001
70
192
0
VERTEX
8
OBJECT074
10
-6.000000
20
53.267029
30
-80.414001
70
192
0
VERTEX
8
OBJECT074
10
0
20
0
30
0
70
128
71
2
72
3
73
1
0
VERTEX
8
OBJECT074
10
0
20
0
30
0
70
128
71
5
72
6
73
4
0
VERTEX
8
OBJECT074
10
0
20
0
30
0
70
128
71
2
72
5
73
-4
0
VERTEX
8
OBJECT074
10
0
20
0
30
0
70
128
71
-2
72
4
73
3
0
VERTEX
8
OBJECT074
10
0
20
0
30
0
70
128
71
5
72
2
73
-1
0
VERTEX
8
OBJECT074
10
0
20
0
30
0
70
128
71
-5
72
1
73
6
0
VERTEX
8
OBJECT074
10
0
20
0
30
0
70
128
71
3
72
4
73
-6
0
VERTEX
8
OBJECT074
10
0
20
0
30
0
70
128
71
-3
72
6
73
1
0
SEQEND
8
OBJECT074
0
POLYLINE
8
OBJECT075
66
1
70
64
71
6
72
8
62
50
0
VERTEX
8
OBJECT075
10
-6.000000
20
46.600281
30
-34.067856
70
192
0
VERTEX
8
OBJECT075
10
-18.000000
20
53.267029
30
-26.344162
70
192
0
VERTEX
8
OBJECT075
10
-6.000000
20
53.267029
30
-26.344162
70
192
0
VERTEX
8
OBJECT075
10
-6.000000
20
53.267029
30
-80.415619
70
192
0
VERTEX
8
OBJECT075
10
-18.000000
20
53.267029
30
-80.415619
70
192
0
VERTEX
8
OBJECT075
10
-6.000000
20
46.599792
30
-72.691360
70
192
0
VERTEX
8
OBJECT075
10
0
20
0
30
0
70
128
71
2
72
3
73
1
0
VERTEX
8
OBJECT075
10
0
20
0
30
0
70
128
71
5
72
6
73
4
0
VERTEX
8
OBJECT075
10
0
20
0
30
0
70
128
71
1
72
6
73
-5
0
VERTEX
8
OBJECT075
10
0
20
0
30
0
70
128
71
-1
72
5
73
2
0
VERTEX
8
OBJECT075
10
0
20
0
30
0
70
128
71
4
72
3
73
-2
0
VERTEX
8
OBJECT075
10
0
20
0
30
0
70
128
71
-4
72
2
73
5
0
VERTEX
8
OBJECT075
10
0
20
0
30
0
70
128
71
6
72
1
73
-3
0
VERTEX
8
OBJECT075
10
0
20
0
30
0
70
128
71
-6
72
3
73
4
0
SEQEND
8
OBJECT075
0
POLYLINE
8
OBJECT076
66
1
70
64
71
6
72
8
62
50
0
VERTEX
8
OBJECT076
10
-18.000000
20
-6.732971
30
-26.276001
70
192
0
VERTEX
8
OBJECT076
10
-6.000000
20
-13.400696
30
-34.000000
70
192
0
VERTEX
8
OBJECT076
10
-6.000000
20
-6.732971
30
-26.276001
70
192
0
VERTEX
8
OBJECT076
10
-6.000000
20
-46.732971
30
-34.000000
70
192
0
VERTEX
8
OBJECT076
10
-18.000000
20
-53.399170
30
-26.276001
70
192
0
VERTEX
8
OBJECT076
10
-6.000000
20
-53.399170
30
-26.276001
70
192
0
VERTEX
8
OBJECT076
10
0
20
0
30
0
70
128
71
2
72
3
73
1
0
VERTEX
8
OBJECT076
10
0
20
0
30
0
70
128
71
5
72
6
73
4
0
VERTEX
8
OBJECT076
10
0
20
0
30
0
70
128
71
1
72
5
73
-4
0
VERTEX
8
OBJECT076
10
0
20
0
30
0
70
128
71
-1
72
4
73
2
0
VERTEX
8
OBJECT076
10
0
20
0
30
0
70
128
71
5
72
1
73
-3
0
VERTEX
8
OBJECT076
10
0
20
0
30
0
70
128
71
-5
72
3
73
6
0
VERTEX
8
OBJECT076
10
0
20
0
30
0
70
128
71
2
72
4
73
-6
0
VERTEX
8
OBJECT076
10
0
20
0
30
0
70
128
71
-2
72
6
73
3
0
SEQEND
8
OBJECT076
0
POLYLINE
8
OBJECT077
66
1
70
64
71
8
72
12
62
50
0
VERTEX
8
OBJECT077
10
-6.000000
20
-6.399963
30
97.000000
70
192
0
VERTEX
8
OBJECT077
10
-6.000000
20
6.599060
30
97.000000
70
192
0
VERTEX
8
OBJECT077
10
6.000000
20
6.599060
30
97.000000
70
192
0
VERTEX
8
OBJECT077
10
6.000000
20
-6.399963
30
97.000000
70
192
0
VERTEX
8
OBJECT077
10
-6.000000
20
6.599060
30
-81.000000
70
192
0
VERTEX
8
OBJECT077
10
-6.000000
20
-6.399963
30
-81.000000
70
192
0
VERTEX
8
OBJECT077
10
6.000000
20
-6.399963
30
-81.000000
70
192
0
VERTEX
8
OBJECT077
10
6.000000
20
6.599060
30
-81.000000
70
192
0
VERTEX
8
OBJECT077
10
0
20
0
30
0
70
128
71
2
72
3
73
-4
0
VERTEX
8
OBJECT077
10
0
20
0
30
0
70
128
71
-2
72
4
73
1
0
VERTEX
8
OBJECT077
10
0
20
0
30
0
70
128
71
6
72
7
73
-8
0
VERTEX
8
OBJECT077
10
0
20
0
30
0
70
128
71
-6
72
8
73
5
0
VERTEX
8
OBJECT077
10
0
20
0
30
0
70
128
71
5
72
2
73
-1
0
VERTEX
8
OBJECT077
10
0
20
0
30
0
70
128
71
-5
72
1
73
6
0
VERTEX
8
OBJECT077
10
0
20
0
30
0
70
128
71
7
72
4
73
-3
0
VERTEX
8
OBJECT077
10
0
20
0
30
0
70
128
71
-7
72
3
73
8
0
VERTEX
8
OBJECT077
10
0
20
0
30
0
70
128
71
8
72
3
73
-2
0
VERTEX
8
OBJECT077
10
0
20
0
30
0
70
128
71
-8
72
2
73
5
0
VERTEX
8
OBJECT077
10
0
20
0
30
0
70
128
71
6
72
1
73
-4
0
VERTEX
8
OBJECT077
10
0
20
0
30
0
70
128
71
-6
72
4
73
7
0
SEQEND
8
OBJECT077
0
POLYLINE
8
OBJECT078
66
1
70
64
71
6
72
8
62
50
0
VERTEX
8
OBJECT078
10
6.000000
20
-6.399963
30
104.000000
70
192
0
VERTEX
8
OBJECT078
10
-6.000000
20
-13.066162
30
89.514679
70
192
0
VERTEX
8
OBJECT078
10
-6.000000
20
-6.399963
30
104.000000
70
192
0
VERTEX
8
OBJECT078
10
-6.000000
20
-13.066223
30
35.447021
70
192
0
VERTEX
8
OBJECT078
10
6.000000
20
-6.399963
30
27.722717
70
192
0
VERTEX
8
OBJECT078
10
-6.000000
20
-6.399963
30
27.722717
70
192
0
VERTEX
8
OBJECT078
10
0
20
0
30
0
70
128
71
2
72
3
73
1
0
VERTEX
8
OBJECT078
10
0
20
0
30
0
70
128
71
5
72
6
73
4
0
VERTEX
8
OBJECT078
10
0
20
0
30
0
70
128
71
4
72
2
73
-1
0
VERTEX
8
OBJECT078
10
0
20
0
30
0
70
128
71
-4
72
1
73
5
0
VERTEX
8
OBJECT078
10
0
20
0
30
0
70
128
71
5
72
1
73
-3
0
VERTEX
8
OBJECT078
10
0
20
0
30
0
70
128
71
-5
72
3
73
6
0
VERTEX
8
OBJECT078
10
0
20
0
30
0
70
128
71
2
72
4
73
-6
0
VERTEX
8
OBJECT078
10
0
20
0
30
0
70
128
71
-2
72
6
73
3
0
SEQEND
8
OBJECT078
0
POLYLINE
8
OBJECT079
66
1
70
64
71
6
72
8
62
50
0
VERTEX
8
OBJECT079
10
6.000000
20
-25.566162
30
89.516876
70
192
0
VERTEX
8
OBJECT079
10
-6.000000
20
-23.066406
30
83.724487
70
192
0
VERTEX
8
OBJECT079
10
-6.000000
20
-25.566162
30
89.516876
70
192
0
VERTEX
8
OBJECT079
10
-6.000000
20
-11.820190
30
92.221771
70
192
0
VERTEX
8
OBJECT079
10
6.000000
20
-6.398621
30
104.000000
70
192
0
VERTEX
8
OBJECT079
10
-6.000000
20
-6.398621
30
104.000000
70
192
0
VERTEX
8
OBJECT079
10
0
20
0
30
0
70
128
71
2
72
3
73
1
0
VERTEX
8
OBJECT079
10
0
20
0
30
0
70
128
71
5
72
6
73
4
0
VERTEX
8
OBJECT079
10
0
20
0
30
0
70
128
71
4
72
2
73
-1
0
VERTEX
8
OBJECT079
10
0
20
0
30
0
70
128
71
-4
72
1
73
5
0
VERTEX
8
OBJECT079
10
0
20
0
30
0
70
128
71
3
72
6
73
-5
0
VERTEX
8
OBJECT079
10
0
20
0
30
0
70
128
71
-3
72
5
73
1
0
VERTEX
8
OBJECT079
10
0
20
0
30
0
70
128
71
2
72
4
73
-6
0
VERTEX
8
OBJECT079
10
0
20
0
30
0
70
128
71
-2
72
6
73
3
0
SEQEND
8
OBJECT079
0
POLYLINE
8
OBJECT080
66
1
70
64
71
6
72
8
62
50
0
VERTEX
8
OBJECT080
10
6.000000
20
-39.732971
30
74.068573
70
192
0
VERTEX
8
OBJECT080
10
-6.000000
20
-35.566467
30
68.275757
70
192
0
VERTEX
8
OBJECT080
10
-6.000000
20
-39.732971
30
74.068573
70
192
0
VERTEX
8
OBJECT080
10
-6.000000
20
-23.065796
30
83.723145
70
192
0
VERTEX
8
OBJECT080
10
3.742004
20
-25.566101
30
89.516846
70
192
0
VERTEX
8
OBJECT080
10
-6.000000
20
-25.566101
30
89.516846
70
192
0
VERTEX
8
OBJECT080
10
0
20
0
30
0
70
128
71
2
72
3
73
1
0
VERTEX
8
OBJECT080
10
0
20
0
30
0
70
128
71
5
72
6
73
4
0
VERTEX
8
OBJECT080
10
0
20
0
30
0
70
128
71
1
72
5
73
-4
0
VERTEX
8
OBJECT080
10
0
20
0
30
0
70
128
71
-1
72
4
73
2
0
VERTEX
8
OBJECT080
10
0
20
0
30
0
70
128
71
3
72
6
73
-5
0
VERTEX
8
OBJECT080
10
0
20
0
30
0
70
128
71
-3
72
5
73
1
0
VERTEX
8
OBJECT080
10
0
20
0
30
0
70
128
71
2
72
4
73
-6
0
VERTEX
8
OBJECT080
10
0
20
0
30
0
70
128
71
-2
72
6
73
3
0
SEQEND
8
OBJECT080
0
POLYLINE
8
OBJECT081
66
1
70
64
71
6
72
8
62
50
0
VERTEX
8
OBJECT081
10
-6.000000
20
-48.899353
30
53.794464
70
192
0
VERTEX
8
OBJECT081
10
7.456909
20
-48.899353
30
53.794464
70
192
0
VERTEX
8
OBJECT081
10
-6.000000
20
-44.732971
30
46.071381
70
192
0
VERTEX
8
OBJECT081
10
-6.000000
20
-35.566284
30
68.275482
70
192
0
VERTEX
8
OBJECT081
10
6.000000
20
-39.732971
30
74.068451
70
192
0
VERTEX
8
OBJECT081
10
-6.000000
20
-39.732971
30
74.068451
70
192
0
VERTEX
8
OBJECT081
10
0
20
0
30
0
70
128
71
2
72
3
73
1
0
VERTEX
8
OBJECT081
10
0
20
0
30
0
70
128
71
5
72
6
73
4
0
VERTEX
8
OBJECT081
10
0
20
0
30
0
70
128
71
2
72
5
73
-4
0
VERTEX
8
OBJECT081
10
0
20
0
30
0
70
128
71
-2
72
4
73
3
0
VERTEX
8
OBJECT081
10
0
20
0
30
0
70
128
71
1
72
6
73
-5
0
VERTEX
8
OBJECT081
10
0
20
0
30
0
70
128
71
-1
72
5
73
2
0
VERTEX
8
OBJECT081
10
0
20
0
30
0
70
128
71
3
72
4
73
-6
0
VERTEX
8
OBJECT081
10
0
20
0
30
0
70
128
71
-3
72
6
73
1
0
SEQEND
8
OBJECT081
0
POLYLINE
8
OBJECT082
66
1
70
64
71
6
72
8
62
50
0
VERTEX
8
OBJECT082
10
-6.000000
20
-53.066223
30
27.722229
70
192
0
VERTEX
8
OBJECT082
10
6.000000
20
-53.066223
30
27.722229
70
192
0
VERTEX
8
OBJECT082
10
-6.000000
20
-46.437866
30
35.402588
70
192
0
VERTEX
8
OBJECT082
10
-6.000000
20
-44.732971
30
46.072052
70
192
0
VERTEX
8
OBJECT082
10
6.000000
20
-48.899658
30
53.795013
70
192
0
VERTEX
8
OBJECT082
10
-6.000000
20
-48.899658
30
53.795013
70
192
0
VERTEX
8
OBJECT082
10
0
20
0
30
0
70
128
71
2
72
3
73
1
0
VERTEX
8
OBJECT082
10
0
20
0
30
0
70
128
71
5
72
6
73
4
0
VERTEX
8
OBJECT082
10
0
20
0
30
0
70
128
71
2
72
5
73
-4
0
VERTEX
8
OBJECT082
10
0
20
0
30
0
70
128
71
-2
72
4
73
3
0
VERTEX
8
OBJECT082
10
0
20
0
30
0
70
128
71
1
72
6
73
-5
0
VERTEX
8
OBJECT082
10
0
20
0
30
0
70
128
71
-1
72
5
73
2
0
VERTEX
8
OBJECT082
10
0
20
0
30
0
70
128
71
3
72
4
73
-6
0
VERTEX
8
OBJECT082
10
0
20
0
30
0
70
128
71
-3
72
6
73
1
0
SEQEND
8
OBJECT082
0
POLYLINE
8
OBJECT083
66
1
70
64
71
6
72
8
62
50
0
VERTEX
8
OBJECT083
10
-6.000000
20
-6.401001
30
27.723999
70
192
0
VERTEX
8
OBJECT083
10
6.000000
20
-6.401001
30
27.723999
70
192
0
VERTEX
8
OBJECT083
10
-6.000000
20
-13.066406
30
35.447266
70
192
0
VERTEX
8
OBJECT083
10
-6.000000
20
-46.399048
30
35.447632
70
192
0
VERTEX
8
OBJECT083
10
6.000000
20
-53.064758
30
27.723999
70
192
0
VERTEX
8
OBJECT083
10
-6.000000
20
-53.064758
30
27.723999
70
192
0
VERTEX
8
OBJECT083
10
0
20
0
30
0
70
128
71
2
72
3
73
1
0
VERTEX
8
OBJECT083
10
0
20
0
30
0
70
128
71
5
72
6
73
4
0
VERTEX
8
OBJECT083
10
0
20
0
30
0
70
128
71
4
72
3
73
-2
0
VERTEX
8
OBJECT083
10
0
20
0
30
0
70
128
71
-4
72
2
73
5
0
VERTEX
8
OBJECT083
10
0
20
0
30
0
70
128
71
1
72
6
73
-5
0
VERTEX
8
OBJECT083
10
0
20
0
30
0
70
128
71
-1
72
5
73
2
0
VERTEX
8
OBJECT083
10
0
20
0
30
0
70
128
71
3
72
4
73
-6
0
VERTEX
8
OBJECT083
10
0
20
0
30
0
70
128
71
-3
72
6
73
1
0
SEQEND
8
OBJECT083
0
POLYLINE
8
OBJECT084
66
1
70
64
71
6
72
8
62
50
0
VERTEX
8
OBJECT084
10
-6.000000
20
-13.064697
30
20.000000
70
192
0
VERTEX
8
OBJECT084
10
6.000000
20
-6.398254
30
27.723999
70
192
0
VERTEX
8
OBJECT084
10
-6.000000
20
-6.398254
30
27.723999
70
192
0
VERTEX
8
OBJECT084
10
6.000000
20
-53.067566
30
27.723999
70
192
0
VERTEX
8
OBJECT084
10
-6.000000
20
-46.401855
30
20.000000
70
192
0
VERTEX
8
OBJECT084
10
-6.000000
20
-53.067566
30
27.723999
70
192
0
VERTEX
8
OBJECT084
10
0
20
0
30
0
70
128
71
2
72
3
73
1
0
VERTEX
8
OBJECT084
10
0
20
0
30
0
70
128
71
5
72
6
73
4
0
VERTEX
8
OBJECT084
10
0
20
0
30
0
70
128
71
1
72
5
73
-4
0
VERTEX
8
OBJECT084
10
0
20
0
30
0
70
128
71
-1
72
4
73
2
0
VERTEX
8
OBJECT084
10
0
20
0
30
0
70
128
71
6
72
3
73
-2
0
VERTEX
8
OBJECT084
10
0
20
0
30
0
70
128
71
-6
72
2
73
4
0
VERTEX
8
OBJECT084
10
0
20
0
30
0
70
128
71
5
72
1
73
-3
0
VERTEX
8
OBJECT084
10
0
20
0
30
0
70
128
71
-5
72
3
73
6
0
SEQEND
8
OBJECT084
0
POLYLINE
8
OBJECT085
66
1
70
64
71
6
72
8
62
50
0
VERTEX
8
OBJECT085
10
-6.000000
20
-46.400330
30
20.000000
70
192
0
VERTEX
8
OBJECT085
10
6.000000
20
-53.065979
30
27.722198
70
192
0
VERTEX
8
OBJECT085
10
-6.000000
20
-53.065979
30
27.722198
70
192
0
VERTEX
8
OBJECT085
10
-6.000000
20
-53.065979
30
-26.346634
70
192
0
VERTEX
8
OBJECT085
10
6.000000
20
-53.065979
30
-26.346634
70
192
0
VERTEX
8
OBJECT085
10
-6.000000
20
-46.399475
30
-18.622101
70
192
0
VERTEX
8
OBJECT085
10
0
20
0
30
0
70
128
71
2
72
3
73
1
0
VERTEX
8
OBJECT085
10
0
20
0
30
0
70
128
71
5
72
6
73
4
0
VERTEX
8
OBJECT085
10
0
20
0
30
0
70
128
71
1
72
6
73
-5
0
VERTEX
8
OBJECT085
10
0
20
0
30
0
70
128
71
-1
72
5
73
2
0
VERTEX
8
OBJECT085
10
0
20
0
30
0
70
128
71
4
72
3
73
-2
0
VERTEX
8
OBJECT085
10
0
20
0
30
0
70
128
71
-4
72
2
73
5
0
VERTEX
8
OBJECT085
10
0
20
0
30
0
70
128
71
6
72
1
73
-3
0
VERTEX
8
OBJECT085
10
0
20
0
30
0
70
128
71
-6
72
3
73
4
0
SEQEND
8
OBJECT085
0
POLYLINE
8
OBJECT086
66
1
70
64
71
6
72
8
62
50
0
VERTEX
8
OBJECT086
10
-6.000000
20
-6.400635
30
-26.345001
70
192
0
VERTEX
8
OBJECT086
10
6.000000
20
-6.400635
30
-26.345001
70
192
0
VERTEX
8
OBJECT086
10
-6.000000
20
-13.066528
30
-18.621109
70
192
0
VERTEX
8
OBJECT086
10
-6.000000
20
-46.399170
30
-18.621689
70
192
0
VERTEX
8
OBJECT086
10
6.000000
20
-53.064575
30
-26.345001
70
192
0
VERTEX
8
OBJECT086
10
-6.000000
20
-53.064575
30
-26.345001
70
192
0
VERTEX
8
OBJECT086
10
0
20
0
30
0
70
128
71
2
72
3
73
1
0
VERTEX
8
OBJECT086
10
0
20
0
30
0
70
128
71
5
72
6
73
4
0
VERTEX
8
OBJECT086
10
0
20
0
30
0
70
128
71
4
72
3
73
-2
0
VERTEX
8
OBJECT086
10
0
20
0
30
0
70
128
71
-4
72
2
73
5
0
VERTEX
8
OBJECT086
10
0
20
0
30
0
70
128
71
1
72
6
73
-5
0
VERTEX
8
OBJECT086
10
0
20
0
30
0
70
128
71
-1
72
5
73
2
0
VERTEX
8
OBJECT086
10
0
20
0
30
0
70
128
71
3
72
4
73
-6
0
VERTEX
8
OBJECT086
10
0
20
0
30
0
70
128
71
-3
72
6
73
1
0
SEQEND
8
OBJECT086
0
POLYLINE
8
OBJECT087
66
1
70
64
71
6
72
8
62
50
0
VERTEX
8
OBJECT087
10
6.000000
20
-6.399963
30
27.721985
70
192
0
VERTEX
8
OBJECT087
10
-6.000000
20
-13.065613
30
20.000000
70
192
0
VERTEX
8
OBJECT087
10
-6.000000
20
-6.399963
30
27.721985
70
192
0
VERTEX
8
OBJECT087
10
-6.000000
20
-13.066223
30
-18.621552
70
192
0
VERTEX
8
OBJECT087
10
6.000000
20
-6.399963
30
-26.345810
70
192
0
VERTEX
8
OBJECT087
10
-6.000000
20
-6.399963
30
-26.345810
70
192
0
VERTEX
8
OBJECT087
10
0
20
0
30
0
70
128
71
2
72
3
73
1
0
VERTEX
8
OBJECT087
10
0
20
0
30
0
70
128
71
5
72
6
73
4
0
VERTEX
8
OBJECT087
10
0
20
0
30
0
70
128
71
4
72
2
73
-1
0
VERTEX
8
OBJECT087
10
0
20
0
30
0
70
128
71
-4
72
1
73
5
0
VERTEX
8
OBJECT087
10
0
20
0
30
0
70
128
71
5
72
1
73
-3
0
VERTEX
8
OBJECT087
10
0
20
0
30
0
70
128
71
-5
72
3
73
6
0
VERTEX
8
OBJECT087
10
0
20
0
30
0
70
128
71
2
72
4
73
-6
0
VERTEX
8
OBJECT087
10
0
20
0
30
0
70
128
71
-2
72
6
73
3
0
SEQEND
8
OBJECT087
0
POLYLINE
8
OBJECT088
66
1
70
64
71
6
72
8
62
50
0
VERTEX
8
OBJECT088
10
-6.000000
20
-13.400818
30
-34.000000
70
192
0
VERTEX
8
OBJECT088
10
6.000000
20
-6.732971
30
-26.276001
70
192
0
VERTEX
8
OBJECT088
10
-6.000000
20
-6.732971
30
-26.276001
70
192
0
VERTEX
8
OBJECT088
10
6.000000
20
-53.399170
30
-26.276001
70
192
0
VERTEX
8
OBJECT088
10
-6.000000
20
-46.732971
30
-34.000000
70
192
0
VERTEX
8
OBJECT088
10
-6.000000
20
-53.399170
30
-26.276001
70
192
0
VERTEX
8
OBJECT088
10
0
20
0
30
0
70
128
71
2
72
3
73
1
0
VERTEX
8
OBJECT088
10
0
20
0
30
0
70
128
71
5
72
6
73
4
0
VERTEX
8
OBJECT088
10
0
20
0
30
0
70
128
71
1
72
5
73
-4
0
VERTEX
8
OBJECT088
10
0
20
0
30
0
70
128
71
-1
72
4
73
2
0
VERTEX
8
OBJECT088
10
0
20
0
30
0
70
128
71
6
72
3
73
-2
0
VERTEX
8
OBJECT088
10
0
20
0
30
0
70
128
71
-6
72
2
73
4
0
VERTEX
8
OBJECT088
10
0
20
0
30
0
70
128
71
5
72
1
73
-3
0
VERTEX
8
OBJECT088
10
0
20
0
30
0
70
128
71
-5
72
3
73
6
0
SEQEND
8
OBJECT088
0
POLYLINE
8
OBJECT089
66
1
70
64
71
6
72
8
62
50
0
VERTEX
8
OBJECT089
10
-6.000000
20
-46.400269
30
-34.069992
70
192
0
VERTEX
8
OBJECT089
10
6.000000
20
-53.065979
30
-26.346375
70
192
0
VERTEX
8
OBJECT089
10
-6.000000
20
-53.065979
30
-26.346375
70
192
0
VERTEX
8
OBJECT089
10
-6.000000
20
-53.065979
30
-80.415207
70
192
0
VERTEX
8
OBJECT089
10
6.000000
20
-53.065979
30
-80.415207
70
192
0
VERTEX
8
OBJECT089
10
-6.000000
20
-46.399353
30
-72.690521
70
192
0
VERTEX
8
OBJECT089
10
0
20
0
30
0
70
128
71
2
72
3
73
1
0
VERTEX
8
OBJECT089
10
0
20
0
30
0
70
128
71
5
72
6
73
4
0
VERTEX
8
OBJECT089
10
0
20
0
30
0
70
128
71
1
72
6
73
-5
0
VERTEX
8
OBJECT089
10
0
20
0
30
0
70
128
71
-1
72
5
73
2
0
VERTEX
8
OBJECT089
10
0
20
0
30
0
70
128
71
4
72
3
73
-2
0
VERTEX
8
OBJECT089
10
0
20
0
30
0
70
128
71
-4
72
2
73
5
0
VERTEX
8
OBJECT089
10
0
20
0
30
0
70
128
71
6
72
1
73
-3
0
VERTEX
8
OBJECT089
10
0
20
0
30
0
70
128
71
-6
72
3
73
4
0
SEQEND
8
OBJECT089
0
POLYLINE
8
OBJECT090
66
1
70
64
71
6
72
8
62
50
0
VERTEX
8
OBJECT090
10
-6.000000
20
-6.400818
30
-80.414001
70
192
0
VERTEX
8
OBJECT090
10
6.000000
20
-6.400818
30
-80.414001
70
192
0
VERTEX
8
OBJECT090
10
-6.000000
20
-13.066711
30
-72.690109
70
192
0
VERTEX
8
OBJECT090
10
-6.000000
20
-46.399048
30
-72.690109
70
192
0
VERTEX
8
OBJECT090
10
6.000000
20
-53.064941
30
-80.414001
70
192
0
VERTEX
8
OBJECT090
10
-6.000000
20
-53.064941
30
-80.414001
70
192
0
VERTEX
8
OBJECT090
10
0
20
0
30
0
70
128
71
2
72
3
73
1
0
VERTEX
8
OBJECT090
10
0
20
0
30
0
70
128
71
5
72
6
73
4
0
VERTEX
8
OBJECT090
10
0
20
0
30
0
70
128
71
4
72
3
73
-2
0
VERTEX
8
OBJECT090
10
0
20
0
30
0
70
128
71
-4
72
2
73
5
0
VERTEX
8
OBJECT090
10
0
20
0
30
0
70
128
71
1
72
6
73
-5
0
VERTEX
8
OBJECT090
10
0
20
0
30
0
70
128
71
-1
72
5
73
2
0
VERTEX
8
OBJECT090
10
0
20
0
30
0
70
128
71
3
72
4
73
-6
0
VERTEX
8
OBJECT090
10
0
20
0
30
0
70
128
71
-3
72
6
73
1
0
SEQEND
8
OBJECT090
0
POLYLINE
8
OBJECT091
66
1
70
64
71
6
72
8
62
50
0
VERTEX
8
OBJECT091
10
6.000000
20
-6.399963
30
-26.342667
70
192
0
VERTEX
8
OBJECT091
10
-6.000000
20
-13.065613
30
-34.066254
70
192
0
VERTEX
8
OBJECT091
10
-6.000000
20
-6.399963
30
-26.342667
70
192
0
VERTEX
8
OBJECT091
10
-6.000000
20
-13.066406
30
-72.690552
70
192
0
VERTEX
8
OBJECT091
10
6.000000
20
-6.399963
30
-80.415009
70
192
0
VERTEX
8
OBJECT091
10
-6.000000
20
-6.399963
30
-80.415009
70
192
0
VERTEX
8
OBJECT091
10
0
20
0
30
0
70
128
71
2
72
3
73
1
0
VERTEX
8
OBJECT091
10
0
20
0
30
0
70
128
71
5
72
6
73
4
0
VERTEX
8
OBJECT091
10
0
20
0
30
0
70
128
71
4
72
2
73
-1
0
VERTEX
8
OBJECT091
10
0
20
0
30
0
70
128
71
-4
72
1
73
5
0
VERTEX
8
OBJECT091
10
0
20
0
30
0
70
128
71
5
72
1
73
-3
0
VERTEX
8
OBJECT091
10
0
20
0
30
0
70
128
71
-5
72
3
73
6
0
VERTEX
8
OBJECT091
10
0
20
0
30
0
70
128
71
2
72
4
73
-6
0
VERTEX
8
OBJECT091
10
0
20
0
30
0
70
128
71
-2
72
6
73
3
0
SEQEND
8
OBJECT091
0
POLYLINE
8
OBJECT092
66
1
70
64
71
6
72
8
62
50
0
VERTEX
8
OBJECT092
10
-6.000000
20
13.267029
30
-34.070679
70
192
0
VERTEX
8
OBJECT092
10
6.000000
20
6.600037
30
-26.346024
70
192
0
VERTEX
8
OBJECT092
10
-6.000000
20
6.600037
30
-26.346024
70
192
0
VERTEX
8
OBJECT092
10
-6.000000
20
6.600037
30
-80.413773
70
192
0
VERTEX
8
OBJECT092
10
6.000000
20
6.600037
30
-80.413773
70
192
0
VERTEX
8
OBJECT092
10
-6.000000
20
13.267029
30
-72.689835
70
192
0
VERTEX
8
OBJECT092
10
0
20
0
30
0
70
128
71
2
72
3
73
1
0
VERTEX
8
OBJECT092
10
0
20
0
30
0
70
128
71
5
72
6
73
4
0
VERTEX
8
OBJECT092
10
0
20
0
30
0
70
128
71
1
72
6
73
-5
0
VERTEX
8
OBJECT092
10
0
20
0
30
0
70
128
71
-1
72
5
73
2
0
VERTEX
8
OBJECT092
10
0
20
0
30
0
70
128
71
4
72
3
73
-2
0
VERTEX
8
OBJECT092
10
0
20
0
30
0
70
128
71
-4
72
2
73
5
0
VERTEX
8
OBJECT092
10
0
20
0
30
0
70
128
71
6
72
1
73
-3
0
VERTEX
8
OBJECT092
10
0
20
0
30
0
70
128
71
-6
72
3
73
4
0
SEQEND
8
OBJECT092
0
POLYLINE
8
OBJECT093
66
1
70
64
71
6
72
8
62
50
0
VERTEX
8
OBJECT093
10
-6.000000
20
13.267029
30
-72.690125
70
192
0
VERTEX
8
OBJECT093
10
6.000000
20
6.599854
30
-80.414001
70
192
0
VERTEX
8
OBJECT093
10
-6.000000
20
6.599854
30
-80.414001
70
192
0
VERTEX
8
OBJECT093
10
-6.000000
20
53.267029
30
-80.414001
70
192
0
VERTEX
8
OBJECT093
10
6.000000
20
53.267029
30
-80.414001
70
192
0
VERTEX
8
OBJECT093
10
-6.000000
20
46.598328
30
-72.689667
70
192
0
VERTEX
8
OBJECT093
10
0
20
0
30
0
70
128
71
2
72
3
73
1
0
VERTEX
8
OBJECT093
10
0
20
0
30
0
70
128
71
5
72
6
73
4
0
VERTEX
8
OBJECT093
10
0
20
0
30
0
70
128
71
1
72
6
73
-5
0
VERTEX
8
OBJECT093
10
0
20
0
30
0
70
128
71
-1
72
5
73
2
0
VERTEX
8
OBJECT093
10
0
20
0
30
0
70
128
71
4
72
3
73
-2
0
VERTEX
8
OBJECT093
10
0
20
0
30
0
70
128
71
-4
72
2
73
5
0
VERTEX
8
OBJECT093
10
0
20
0
30
0
70
128
71
3
72
4
73
-6
0
VERTEX
8
OBJECT093
10
0
20
0
30
0
70
128
71
-3
72
6
73
1
0
SEQEND
8
OBJECT093
0
POLYLINE
8
OBJECT094
66
1
70
64
71
6
72
8
62
50
0
VERTEX
8
OBJECT094
10
6.000000
20
53.267029
30
-26.344162
70
192
0
VERTEX
8
OBJECT094
10
-6.000000
20
46.600403
30
-34.067719
70
192
0
VERTEX
8
OBJECT094
10
-6.000000
20
53.267029
30
-26.344162
70
192
0
VERTEX
8
OBJECT094
10
-6.000000
20
46.599915
30
-72.691498
70
192
0
VERTEX
8
OBJECT094
10
6.000000
20
53.267029
30
-80.415619
70
192
0
VERTEX
8
OBJECT094
10
-6.000000
20
53.267029
30
-80.415619
70
192
0
VERTEX
8
OBJECT094
10
0
20
0
30
0
70
128
71
2
72
3
73
1
0
VERTEX
8
OBJECT094
10
0
20
0
30
0
70
128
71
5
72
6
73
4
0
VERTEX
8
OBJECT094
10
0
20
0
30
0
70
128
71
4
72
2
73
-1
0
VERTEX
8
OBJECT094
10
0
20
0
30
0
70
128
71
-4
72
1
73
5
0
VERTEX
8
OBJECT094
10
0
20
0
30
0
70
128
71
5
72
1
73
-3
0
VERTEX
8
OBJECT094
10
0
20
0
30
0
70
128
71
-5
72
3
73
6
0
VERTEX
8
OBJECT094
10
0
20
0
30
0
70
128
71
2
72
4
73
-6
0
VERTEX
8
OBJECT094
10
0
20
0
30
0
70
128
71
-2
72
6
73
3
0
SEQEND
8
OBJECT094
0
POLYLINE
8
OBJECT095
66
1
70
64
71
6
72
8
62
50
0
VERTEX
8
OBJECT095
10
6.000000
20
6.599182
30
-26.345001
70
192
0
VERTEX
8
OBJECT095
10
-6.000000
20
13.267029
30
-34.069092
70
192
0
VERTEX
8
OBJECT095
10
-6.000000
20
6.599182
30
-26.345001
70
192
0
VERTEX
8
OBJECT095
10
-6.000000
20
46.598816
30
-34.069550
70
192
0
VERTEX
8
OBJECT095
10
6.000000
20
53.267029
30
-26.345001
70
192
0
VERTEX
8
OBJECT095
10
-6.000000
20
53.267029
30
-26.345001
70
192
0
VERTEX
8
OBJECT095
10
0
20
0
30
0
70
128
71
2
72
3
73
1
0
VERTEX
8
OBJECT095
10
0
20
0
30
0
70
128
71
5
72
6
73
4
0
VERTEX
8
OBJECT095
10
0
20
0
30
0
70
128
71
4
72
2
73
-1
0
VERTEX
8
OBJECT095
10
0
20
0
30
0
70
128
71
-4
72
1
73
5
0
VERTEX
8
OBJECT095
10
0
20
0
30
0
70
128
71
3
72
6
73
-5
0
VERTEX
8
OBJECT095
10
0
20
0
30
0
70
128
71
-3
72
5
73
1
0
VERTEX
8
OBJECT095
10
0
20
0
30
0
70
128
71
2
72
4
73
-6
0
VERTEX
8
OBJECT095
10
0
20
0
30
0
70
128
71
-2
72
6
73
3
0
SEQEND
8
OBJECT095
0
POLYLINE
8
OBJECT096
66
1
70
64
71
6
72
8
62
50
0
VERTEX
8
OBJECT096
10
-6.000000
20
13.267029
30
-18.621902
70
192
0
VERTEX
8
OBJECT096
10
6.000000
20
6.600769
30
-26.345001
70
192
0
VERTEX
8
OBJECT096
10
-6.000000
20
6.600769
30
-26.345001
70
192
0
VERTEX
8
OBJECT096
10
-6.000000
20
53.267029
30
-26.345001
70
192
0
VERTEX
8
OBJECT096
10
6.000000
20
53.267029
30
-26.345001
70
192
0
VERTEX
8
OBJECT096
10
-6.000000
20
46.601440
30
-18.620773
70
192
0
VERTEX
8
OBJECT096
10
0
20
0
30
0
70
128
71
2
72
3
73
1
0
VERTEX
8
OBJECT096
10
0
20
0
30
0
70
128
71
5
72
6
73
4
0
VERTEX
8
OBJECT096
10
0
20
0
30
0
70
128
71
1
72
6
73
-5
0
VERTEX
8
OBJECT096
10
0
20
0
30
0
70
128
71
-1
72
5
73
2
0
VERTEX
8
OBJECT096
10
0
20
0
30
0
70
128
71
4
72
3
73
-2
0
VERTEX
8
OBJECT096
10
0
20
0
30
0
70
128
71
-4
72
2
73
5
0
VERTEX
8
OBJECT096
10
0
20
0
30
0
70
128
71
3
72
4
73
-6
0
VERTEX
8
OBJECT096
10
0
20
0
30
0
70
128
71
-3
72
6
73
1
0
SEQEND
8
OBJECT096
0
POLYLINE
8
OBJECT097
66
1
70
64
71
6
72
8
62
50
0
VERTEX
8
OBJECT097
10
6.000000
20
53.267029
30
27.724365
70
192
0
VERTEX
8
OBJECT097
10
-6.000000
20
46.599731
30
20.000000
70
192
0
VERTEX
8
OBJECT097
10
-6.000000
20
53.267029
30
27.724365
70
192
0
VERTEX
8
OBJECT097
10
-6.000000
20
46.600098
30
-18.619217
70
192
0
VERTEX
8
OBJECT097
10
6.000000
20
53.267029
30
-26.343170
70
192
0
VERTEX
8
OBJECT097
10
-6.000000
20
53.267029
30
-26.343170
70
192
0
VERTEX
8
OBJECT097
10
0
20
0
30
0
70
128
71
2
72
3
73
1
0
VERTEX
8
OBJECT097
10
0
20
0
30
0
70
128
71
5
72
6
73
4
0
VERTEX
8
OBJECT097
10
0
20
0
30
0
70
128
71
4
72
2
73
-1
0
VERTEX
8
OBJECT097
10
0
20
0
30
0
70
128
71
-4
72
1
73
5
0
VERTEX
8
OBJECT097
10
0
20
0
30
0
70
128
71
5
72
1
73
-3
0
VERTEX
8
OBJECT097
10
0
20
0
30
0
70
128
71
-5
72
3
73
6
0
VERTEX
8
OBJECT097
10
0
20
0
30
0
70
128
71
2
72
4
73
-6
0
VERTEX
8
OBJECT097
10
0
20
0
30
0
70
128
71
-2
72
6
73
3
0
SEQEND
8
OBJECT097
0
POLYLINE
8
OBJECT098
66
1
70
64
71
6
72
8
62
50
0
VERTEX
8
OBJECT098
10
-6.000000
20
13.267029
30
20.000000
70
192
0
VERTEX
8
OBJECT098
10
6.000000
20
6.600037
30
27.722565
70
192
0
VERTEX
8
OBJECT098
10
-6.000000
20
6.600037
30
27.722565
70
192
0
VERTEX
8
OBJECT098
10
-6.000000
20
6.600037
30
-26.345901
70
192
0
VERTEX
8
OBJECT098
10
6.000000
20
6.600037
30
-26.345901
70
192
0
VERTEX
8
OBJECT098
10
-6.000000
20
13.267029
30
-18.622910
70
192
0
VERTEX
8
OBJECT098
10
0
20
0
30
0
70
128
71
2
72
3
73
1
0
VERTEX
8
OBJECT098
10
0
20
0
30
0
70
128
71
5
72
6
73
4
0
VERTEX
8
OBJECT098
10
0
20
0
30
0
70
128
71
1
72
6
73
-5
0
VERTEX
8
OBJECT098
10
0
20
0
30
0
70
128
71
-1
72
5
73
2
0
VERTEX
8
OBJECT098
10
0
20
0
30
0
70
128
71
4
72
3
73
-2
0
VERTEX
8
OBJECT098
10
0
20
0
30
0
70
128
71
-4
72
2
73
5
0
VERTEX
8
OBJECT098
10
0
20
0
30
0
70
128
71
6
72
1
73
-3
0
VERTEX
8
OBJECT098
10
0
20
0
30
0
70
128
71
-6
72
3
73
4
0
SEQEND
8
OBJECT098
0
POLYLINE
8
OBJECT099
66
1
70
64
71
6
72
8
62
50
0
VERTEX
8
OBJECT099
10
6.000000
20
6.598816
30
27.723999
70
192
0
VERTEX
8
OBJECT099
10
-6.000000
20
13.267029
30
20.000000
70
192
0
VERTEX
8
OBJECT099
10
-6.000000
20
6.598816
30
27.723999
70
192
0
VERTEX
8
OBJECT099
10
-6.000000
20
46.599792
30
20.000000
70
192
0
VERTEX
8
OBJECT099
10
6.000000
20
53.267029
30
27.723999
70
192
0
VERTEX
8
OBJECT099
10
-6.000000
20
53.267029
30
27.723999
70
192
0
VERTEX
8
OBJECT099
10
0
20
0
30
0
70
128
71
2
72
3
73
1
0
VERTEX
8
OBJECT099
10
0
20
0
30
0
70
128
71
5
72
6
73
4
0
VERTEX
8
OBJECT099
10
0
20
0
30
0
70
128
71
4
72
2
73
-1
0
VERTEX
8
OBJECT099
10
0
20
0
30
0
70
128
71
-4
72
1
73
5
0
VERTEX
8
OBJECT099
10
0
20
0
30
0
70
128
71
3
72
6
73
-5
0
VERTEX
8
OBJECT099
10
0
20
0
30
0
70
128
71
-3
72
5
73
1
0
VERTEX
8
OBJECT099
10
0
20
0
30
0
70
128
71
2
72
4
73
-6
0
VERTEX
8
OBJECT099
10
0
20
0
30
0
70
128
71
-2
72
6
73
3
0
SEQEND
8
OBJECT099
0
POLYLINE
8
OBJECT100
66
1
70
64
71
6
72
8
62
50
0
VERTEX
8
OBJECT100
10
-6.000000
20
13.267029
30
35.448090
70
192
0
VERTEX
8
OBJECT100
10
6.000000
20
6.601135
30
27.723999
70
192
0
VERTEX
8
OBJECT100
10
-6.000000
20
6.601135
30
27.723999
70
192
0
VERTEX
8
OBJECT100
10
-6.000000
20
53.267029
30
27.723999
70
192
0
VERTEX
8
OBJECT100
10
6.000000
20
53.267029
30
27.723999
70
192
0
VERTEX
8
OBJECT100
10
-6.000000
20
46.601135
30
35.447449
70
192
0
VERTEX
8
OBJECT100
10
0
20
0
30
0
70
128
71
2
72
3
73
1
0
VERTEX
8
OBJECT100
10
0
20
0
30
0
70
128
71
5
72
6
73
4
0
VERTEX
8
OBJECT100
10
0
20
0
30
0
70
128
71
1
72
6
73
-5
0
VERTEX
8
OBJECT100
10
0
20
0
30
0
70
128
71
-1
72
5
73
2
0
VERTEX
8
OBJECT100
10
0
20
0
30
0
70
128
71
4
72
3
73
-2
0
VERTEX
8
OBJECT100
10
0
20
0
30
0
70
128
71
-4
72
2
73
5
0
VERTEX
8
OBJECT100
10
0
20
0
30
0
70
128
71
3
72
4
73
-6
0
VERTEX
8
OBJECT100
10
0
20
0
30
0
70
128
71
-3
72
6
73
1
0
SEQEND
8
OBJECT100
0
POLYLINE
8
OBJECT101
66
1
70
64
71
6
72
8
62
50
0
VERTEX
8
OBJECT101
10
-6.000000
20
13.267029
30
89.518311
70
192
0
VERTEX
8
OBJECT101
10
6.000000
20
6.600037
30
104.000000
70
192
0
VERTEX
8
OBJECT101
10
-6.000000
20
6.600037
30
104.000000
70
192
0
VERTEX
8
OBJECT101
10
-6.000000
20
6.600037
30
27.722687
70
192
0
VERTEX
8
OBJECT101
10
6.000000
20
6.600037
30
27.722687
70
192
0
VERTEX
8
OBJECT101
10
-6.000000
20
13.267029
30
35.446716
70
192
0
VERTEX
8
OBJECT101
10
0
20
0
30
0
70
128
71
2
72
3
73
1
0
VERTEX
8
OBJECT101
10
0
20
0
30
0
70
128
71
5
72
6
73
4
0
VERTEX
8
OBJECT101
10
0
20
0
30
0
70
128
71
1
72
6
73
-5
0
VERTEX
8
OBJECT101
10
0
20
0
30
0
70
128
71
-1
72
5
73
2
0
VERTEX
8
OBJECT101
10
0
20
0
30
0
70
128
71
4
72
3
73
-2
0
VERTEX
8
OBJECT101
10
0
20
0
30
0
70
128
71
-4
72
2
73
5
0
VERTEX
8
OBJECT101
10
0
20
0
30
0
70
128
71
6
72
1
73
-3
0
VERTEX
8
OBJECT101
10
0
20
0
30
0
70
128
71
-6
72
3
73
4
0
SEQEND
8
OBJECT101
0
POLYLINE
8
OBJECT102
66
1
70
64
71
6
72
8
62
50
0
VERTEX
8
OBJECT102
10
-6.000000
20
22.692688
30
82.395966
70
192
0
VERTEX
8
OBJECT102
10
6.000000
20
25.766113
30
89.517700
70
192
0
VERTEX
8
OBJECT102
10
-6.000000
20
25.766113
30
89.517700
70
192
0
VERTEX
8
OBJECT102
10
6.000000
20
6.601074
30
104.000000
70
192
0
VERTEX
8
OBJECT102
10
-6.000000
20
13.267029
30
89.515717
70
192
0
VERTEX
8
OBJECT102
10
-6.000000
20
6.601074
30
104.000000
70
192
0
VERTEX
8
OBJECT102
10
0
20
0
30
0
70
128
71
2
72
3
73
1
0
VERTEX
8
OBJECT102
10
0
20
0
30
0
70
128
71
5
72
6
73
4
0
VERTEX
8
OBJECT102
10
0
20
0
30
0
70
128
71
1
72
5
73
-4
0
VERTEX
8
OBJECT102
10
0
20
0
30
0
70
128
71
-1
72
4
73
2
0
VERTEX
8
OBJECT102
10
0
20
0
30
0
70
128
71
6
72
3
73
-2
0
VERTEX
8
OBJECT102
10
0
20
0
30
0
70
128
71
-6
72
2
73
4
0
VERTEX
8
OBJECT102
10
0
20
0
30
0
70
128
71
5
72
1
73
-3
0
VERTEX
8
OBJECT102
10
0
20
0
30
0
70
128
71
-5
72
3
73
6
0
SEQEND
8
OBJECT102
0
POLYLINE
8
OBJECT103
66
1
70
64
71
6
72
8
62
50
0
VERTEX
8
OBJECT103
10
-6.000000
20
35.767944
30
68.275879
70
192
0
VERTEX
8
OBJECT103
10
6.000000
20
39.934570
30
74.068390
70
192
0
VERTEX
8
OBJECT103
10
-6.000000
20
39.934570
30
74.068390
70
192
0
VERTEX
8
OBJECT103
10
6.000000
20
25.766174
30
89.517944
70
192
0
VERTEX
8
OBJECT103
10
-6.000000
20
22.732666
30
82.488678
70
192
0
VERTEX
8
OBJECT103
10
-6.000000
20
25.766174
30
89.517944
70
192
0
VERTEX
8
OBJECT103
10
0
20
0
30
0
70
128
71
2
72
3
73
1
0
VERTEX
8
OBJECT103
10
0
20
0
30
0
70
128
71
5
72
6
73
4
0
VERTEX
8
OBJECT103
10
0
20
0
30
0
70
128
71
1
72
5
73
-4
0
VERTEX
8
OBJECT103
10
0
20
0
30
0
70
128
71
-1
72
4
73
2
0
VERTEX
8
OBJECT103
10
0
20
0
30
0
70
128
71
2
72
4
73
-6
0
VERTEX
8
OBJECT103
10
0
20
0
30
0
70
128
71
-2
72
6
73
3
0
VERTEX
8
OBJECT103
10
0
20
0
30
0
70
128
71
5
72
1
73
-3
0
VERTEX
8
OBJECT103
10
0
20
0
30
0
70
128
71
-5
72
3
73
6
0
SEQEND
8
OBJECT103
0
POLYLINE
8
OBJECT104
66
1
70
64
71
6
72
8
62
50
0
VERTEX
8
OBJECT104
10
-6.000000
20
44.934204
30
46.069702
70
192
0
VERTEX
8
OBJECT104
10
6.000000
20
49.099915
30
53.793182
70
192
0
VERTEX
8
OBJECT104
10
-6.000000
20
49.099915
30
53.793182
70
192
0
VERTEX
8
OBJECT104
10
-6.000000
20
39.934387
30
74.068115
70
192
0
VERTEX
8
OBJECT104
10
4.700317
20
39.934387
30
74.068115
70
192
0
VERTEX
8
OBJECT104
10
-6.000000
20
35.767639
30
68.275452
70
192
0
VERTEX
8
OBJECT104
10
0
20
0
30
0
70
128
71
2
72
3
73
1
0
VERTEX
8
OBJECT104
10
0
20
0
30
0
70
128
71
5
72
6
73
4
0
VERTEX
8
OBJECT104
10
0
20
0
30
0
70
128
71
1
72
6
73
-5
0
VERTEX
8
OBJECT104
10
0
20
0
30
0
70
128
71
-1
72
5
73
2
0
VERTEX
8
OBJECT104
10
0
20
0
30
0
70
128
71
2
72
5
73
-4
0
VERTEX
8
OBJECT104
10
0
20
0
30
0
70
128
71
-2
72
4
73
3
0
VERTEX
8
OBJECT104
10
0
20
0
30
0
70
128
71
3
72
4
73
-6
0
VERTEX
8
OBJECT104
10
0
20
0
30
0
70
128
71
-3
72
6
73
1
0
SEQEND
8
OBJECT104
0
POLYLINE
8
OBJECT105
66
1
70
64
71
6
72
8
62
50
0
VERTEX
8
OBJECT105
10
-6.000000
20
46.599304
30
35.449585
70
192
0
VERTEX
8
OBJECT105
10
6.174591
20
53.267029
30
27.724945
70
192
0
VERTEX
8
OBJECT105
10
-6.000000
20
53.267029
30
27.724945
70
192
0
VERTEX
8
OBJECT105
10
6.000000
20
49.099976
30
53.793274
70
192
0
VERTEX
8
OBJECT105
10
-6.000000
20
44.933899
30
46.069153
70
192
0
VERTEX
8
OBJECT105
10
-6.000000
20
49.099976
30
53.793274
70
192
0
VERTEX
8
OBJECT105
10
0
20
0
30
0
70
128
71
2
72
3
73
1
0
VERTEX
8
OBJECT105
10
0
20
0
30
0
70
128
71
5
72
6
73
4
0
VERTEX
8
OBJECT105
10
0
20
0
30
0
70
128
71
1
72
5
73
-4
0
VERTEX
8
OBJECT105
10
0
20
0
30
0
70
128
71
-1
72
4
73
2
0
VERTEX
8
OBJECT105
10
0
20
0
30
0
70
128
71
2
72
4
73
-6
0
VERTEX
8
OBJECT105
10
0
20
0
30
0
70
128
71
-2
72
6
73
3
0
VERTEX
8
OBJECT105
10
0
20
0
30
0
70
128
71
5
72
1
73
-3
0
VERTEX
8
OBJECT105
10
0
20
0
30
0
70
128
71
-5
72
3
73
6
0
SEQEND
8
OBJECT105
0
POLYLINE
8
OBJECT106
66
1
70
64
71
8
72
12
62
50
0
VERTEX
8
OBJECT106
10
12.000000
20
-4.732971
30
-11.033997
70
192
0
VERTEX
8
OBJECT106
10
6.000000
20
-4.732971
30
-11.033997
70
192
0
VERTEX
8
OBJECT106
10
6.000000
20
-1.399963
30
-11.033997
70
192
0
VERTEX
8
OBJECT106
10
12.000000
20
-1.399963
30
-11.033997
70
192
0
VERTEX
8
OBJECT106
10
12.000000
20
-1.399963
30
-14.897003
70
192
0
VERTEX
8
OBJECT106
10
6.000000
20
-1.399963
30
-14.897003
70
192
0
VERTEX
8
OBJECT106
10
6.000000
20
-4.732971
30
-14.897003
70
192
0
VERTEX
8
OBJECT106
10
12.000000
20
-4.732971
30
-14.897003
70
192
0
VERTEX
8
OBJECT106
10
0
20
0
30
0
70
128
71
2
72
3
73
-4
0
VERTEX
8
OBJECT106
10
0
20
0
30
0
70
128
71
-2
72
4
73
1
0
VERTEX
8
OBJECT106
10
0
20
0
30
0
70
128
71
6
72
7
73
-8
0
VERTEX
8
OBJECT106
10
0
20
0
30
0
70
128
71
-6
72
8
73
5
0
VERTEX
8
OBJECT106
10
0
20
0
30
0
70
128
71
7
72
2
73
-1
0
VERTEX
8
OBJECT106
10
0
20
0
30
0
70
128
71
-7
72
1
73
8
0
VERTEX
8
OBJECT106
10
0
20
0
30
0
70
128
71
5
72
4
73
-3
0
VERTEX
8
OBJECT106
10
0
20
0
30
0
70
128
71
-5
72
3
73
6
0
VERTEX
8
OBJECT106
10
0
20
0
30
0
70
128
71
6
72
3
73
-2
0
VERTEX
8
OBJECT106
10
0
20
0
30
0
70
128
71
-6
72
2
73
7
0
VERTEX
8
OBJECT106
10
0
20
0
30
0
70
128
71
8
72
1
73
-4
0
VERTEX
8
OBJECT106
10
0
20
0
30
0
70
128
71
-8
72
4
73
5
0
SEQEND
8
OBJECT106
0
POLYLINE
8
OBJECT107
66
1
70
64
71
8
72
12
62
50
0
VERTEX
8
OBJECT107
10
18.000000
20
-4.732971
30
16.000000
70
192
0
VERTEX
8
OBJECT107
10
12.000000
20
-4.732971
30
16.000000
70
192
0
VERTEX
8
OBJECT107
10
12.000000
20
-1.399963
30
16.000000
70
192
0
VERTEX
8
OBJECT107
10
18.000000
20
-1.399963
30
16.000000
70
192
0
VERTEX
8
OBJECT107
10
18.000000
20
-1.399963
30
-14.897003
70
192
0
VERTEX
8
OBJECT107
10
12.000000
20
-1.399963
30
-14.897003
70
192
0
VERTEX
8
OBJECT107
10
12.000000
20
-4.732971
30
-14.897003
70
192
0
VERTEX
8
OBJECT107
10
18.000000
20
-4.732971
30
-14.897003
70
192
0
VERTEX
8
OBJECT107
10
0
20
0
30
0
70
128
71
2
72
3
73
-4
0
VERTEX
8
OBJECT107
10
0
20
0
30
0
70
128
71
-2
72
4
73
1
0
VERTEX
8
OBJECT107
10
0
20
0
30
0
70
128
71
6
72
7
73
-8
0
VERTEX
8
OBJECT107
10
0
20
0
30
0
70
128
71
-6
72
8
73
5
0
VERTEX
8
OBJECT107
10
0
20
0
30
0
70
128
71
7
72
2
73
-1
0
VERTEX
8
OBJECT107
10
0
20
0
30
0
70
128
71
-7
72
1
73
8
0
VERTEX
8
OBJECT107
10
0
20
0
30
0
70
128
71
5
72
4
73
-3
0
VERTEX
8
OBJECT107
10
0
20
0
30
0
70
128
71
-5
72
3
73
6
0
VERTEX
8
OBJECT107
10
0
20
0
30
0
70
128
71
6
72
3
73
-2
0
VERTEX
8
OBJECT107
10
0
20
0
30
0
70
128
71
-6
72
2
73
7
0
VERTEX
8
OBJECT107
10
0
20
0
30
0
70
128
71
8
72
1
73
-4
0
VERTEX
8
OBJECT107
10
0
20
0
30
0
70
128
71
-8
72
4
73
5
0
SEQEND
8
OBJECT107
0
POLYLINE
8
OBJECT108
66
1
70
64
71
8
72
12
62
50
0
VERTEX
8
OBJECT108
10
12.000000
20
-4.732971
30
16.000000
70
192
0
VERTEX
8
OBJECT108
10
6.000000
20
-4.732971
30
16.000000
70
192
0
VERTEX
8
OBJECT108
10
6.000000
20
-1.399963
30
16.000000
70
192
0
VERTEX
8
OBJECT108
10
12.000000
20
-1.399963
30
16.000000
70
192
0
VERTEX
8
OBJECT108
10
12.000000
20
-1.399963
30
12.138000
70
192
0
VERTEX
8
OBJECT108
10
6.000000
20
-1.399963
30
12.138000
70
192
0
VERTEX
8
OBJECT108
10
6.000000
20
-4.732971
30
12.138000
70
192
0
VERTEX
8
OBJECT108
10
12.000000
20
-4.732971
30
12.138000
70
192
0
VERTEX
8
OBJECT108
10
0
20
0
30
0
70
128
71
2
72
3
73
-4
0
VERTEX
8
OBJECT108
10
0
20
0
30
0
70
128
71
-2
72
4
73
1
0
VERTEX
8
OBJECT108
10
0
20
0
30
0
70
128
71
6
72
7
73
-8
0
VERTEX
8
OBJECT108
10
0
20
0
30
0
70
128
71
-6
72
8
73
5
0
VERTEX
8
OBJECT108
10
0
20
0
30
0
70
128
71
7
72
2
73
-1
0
VERTEX
8
OBJECT108
10
0
20
0
30
0
70
128
71
-7
72
1
73
8
0
VERTEX
8
OBJECT108
10
0
20
0
30
0
70
128
71
5
72
4
73
-3
0
VERTEX
8
OBJECT108
10
0
20
0
30
0
70
128
71
-5
72
3
73
6
0
VERTEX
8
OBJECT108
10
0
20
0
30
0
70
128
71
6
72
3
73
-2
0
VERTEX
8
OBJECT108
10
0
20
0
30
0
70
128
71
-6
72
2
73
7
0
VERTEX
8
OBJECT108
10
0
20
0
30
0
70
128
71
8
72
1
73
-4
0
VERTEX
8
OBJECT108
10
0
20
0
30
0
70
128
71
-8
72
4
73
5
0
SEQEND
8
OBJECT108
0
POLYLINE
8
OBJECT109
66
1
70
64
71
8
72
12
62
50
0
VERTEX
8
OBJECT109
10
12.000000
20
1.934998
30
16.000000
70
192
0
VERTEX
8
OBJECT109
10
6.000000
20
1.934998
30
16.000000
70
192
0
VERTEX
8
OBJECT109
10
6.000000
20
5.267029
30
16.000000
70
192
0
VERTEX
8
OBJECT109
10
12.000000
20
5.267029
30
16.000000
70
192
0
VERTEX
8
OBJECT109
10
12.000000
20
5.267029
30
12.138000
70
192
0
VERTEX
8
OBJECT109
10
6.000000
20
5.267029
30
12.138000
70
192
0
VERTEX
8
OBJECT109
10
6.000000
20
1.934998
30
12.138000
70
192
0
VERTEX
8
OBJECT109
10
12.000000
20
1.934998
30
12.138000
70
192
0
VERTEX
8
OBJECT109
10
0
20
0
30
0
70
128
71
2
72
3
73
-4
0
VERTEX
8
OBJECT109
10
0
20
0
30
0
70
128
71
-2
72
4
73
1
0
VERTEX
8
OBJECT109
10
0
20
0
30
0
70
128
71
6
72
7
73
-8
0
VERTEX
8
OBJECT109
10
0
20
0
30
0
70
128
71
-6
72
8
73
5
0
VERTEX
8
OBJECT109
10
0
20
0
30
0
70
128
71
7
72
2
73
-1
0
VERTEX
8
OBJECT109
10
0
20
0
30
0
70
128
71
-7
72
1
73
8
0
VERTEX
8
OBJECT109
10
0
20
0
30
0
70
128
71
5
72
4
73
-3
0
VERTEX
8
OBJECT109
10
0
20
0
30
0
70
128
71
-5
72
3
73
6
0
VERTEX
8
OBJECT109
10
0
20
0
30
0
70
128
71
6
72
3
73
-2
0
VERTEX
8
OBJECT109
10
0
20
0
30
0
70
128
71
-6
72
2
73
7
0
VERTEX
8
OBJECT109
10
0
20
0
30
0
70
128
71
8
72
1
73
-4
0
VERTEX
8
OBJECT109
10
0
20
0
30
0
70
128
71
-8
72
4
73
5
0
SEQEND
8
OBJECT109
0
POLYLINE
8
OBJECT110
66
1
70
64
71
8
72
12
62
50
0
VERTEX
8
OBJECT110
10
18.000000
20
1.934998
30
16.000000
70
192
0
VERTEX
8
OBJECT110
10
12.000000
20
1.934998
30
16.000000
70
192
0
VERTEX
8
OBJECT110
10
12.000000
20
5.267029
30
16.000000
70
192
0
VERTEX
8
OBJECT110
10
18.000000
20
5.267029
30
16.000000
70
192
0
VERTEX
8
OBJECT110
10
18.000000
20
5.267029
30
-14.897003
70
192
0
VERTEX
8
OBJECT110
10
12.000000
20
5.267029
30
-14.897003
70
192
0
VERTEX
8
OBJECT110
10
12.000000
20
1.934998
30
-14.897003
70
192
0
VERTEX
8
OBJECT110
10
18.000000
20
1.934998
30
-14.897003
70
192
0
VERTEX
8
OBJECT110
10
0
20
0
30
0
70
128
71
2
72
3
73
-4
0
VERTEX
8
OBJECT110
10
0
20
0
30
0
70
128
71
-2
72
4
73
1
0
VERTEX
8
OBJECT110
10
0
20
0
30
0
70
128
71
6
72
7
73
-8
0
VERTEX
8
OBJECT110
10
0
20
0
30
0
70
128
71
-6
72
8
73
5
0
VERTEX
8
OBJECT110
10
0
20
0
30
0
70
128
71
7
72
2
73
-1
0
VERTEX
8
OBJECT110
10
0
20
0
30
0
70
128
71
-7
72
1
73
8
0
VERTEX
8
OBJECT110
10
0
20
0
30
0
70
128
71
5
72
4
73
-3
0
VERTEX
8
OBJECT110
10
0
20
0
30
0
70
128
71
-5
72
3
73
6
0
VERTEX
8
OBJECT110
10
0
20
0
30
0
70
128
71
6
72
3
73
-2
0
VERTEX
8
OBJECT110
10
0
20
0
30
0
70
128
71
-6
72
2
73
7
0
VERTEX
8
OBJECT110
10
0
20
0
30
0
70
128
71
8
72
1
73
-4
0
VERTEX
8
OBJECT110
10
0
20
0
30
0
70
128
71
-8
72
4
73
5
0
SEQEND
8
OBJECT110
0
POLYLINE
8
OBJECT111
66
1
70
64
71
8
72
12
62
50
0
VERTEX
8
OBJECT111
10
12.000000
20
1.934998
30
-11.033997
70
192
0
VERTEX
8
OBJECT111
10
6.000000
20
1.934998
30
-11.033997
70
192
0
VERTEX
8
OBJECT111
10
6.000000
20
5.267029
30
-11.033997
70
192
0
VERTEX
8
OBJECT111
10
12.000000
20
5.267029
30
-11.033997
70
192
0
VERTEX
8
OBJECT111
10
12.000000
20
5.267029
30
-14.897003
70
192
0
VERTEX
8
OBJECT111
10
6.000000
20
5.267029
30
-14.897003
70
192
0
VERTEX
8
OBJECT111
10
6.000000
20
1.934998
30
-14.897003
70
192
0
VERTEX
8
OBJECT111
10
12.000000
20
1.934998
30
-14.897003
70
192
0
VERTEX
8
OBJECT111
10
0
20
0
30
0
70
128
71
2
72
3
73
-4
0
VERTEX
8
OBJECT111
10
0
20
0
30
0
70
128
71
-2
72
4
73
1
0
VERTEX
8
OBJECT111
10
0
20
0
30
0
70
128
71
6
72
7
73
-8
0
VERTEX
8
OBJECT111
10
0
20
0
30
0
70
128
71
-6
72
8
73
5
0
VERTEX
8
OBJECT111
10
0
20
0
30
0
70
128
71
7
72
2
73
-1
0
VERTEX
8
OBJECT111
10
0
20
0
30
0
70
128
71
-7
72
1
73
8
0
VERTEX
8
OBJECT111
10
0
20
0
30
0
70
128
71
5
72
4
73
-3
0
VERTEX
8
OBJECT111
10
0
20
0
30
0
70
128
71
-5
72
3
73
6
0
VERTEX
8
OBJECT111
10
0
20
0
30
0
70
128
71
6
72
3
73
-2
0
VERTEX
8
OBJECT111
10
0
20
0
30
0
70
128
71
-6
72
2
73
7
0
VERTEX
8
OBJECT111
10
0
20
0
30
0
70
128
71
8
72
1
73
-4
0
VERTEX
8
OBJECT111
10
0
20
0
30
0
70
128
71
-8
72
4
73
5
0
SEQEND
8
OBJECT111
0
ENDSEC
0
EOF
