0
SECTION
2
HEADER
9
$ACADVER
1
AC1008
9
$UCSORG
10
0.0
20
0.0
30
0.0
9
$UCSXDIR
10
1.0
20
0.0
30
0.0
9
$TILEMODE
70
1
9
$UCSYDIR
10
0.0
20
1.0
30
0.0
9
$EXTMIN
10
-128.000000
20
-128.000000
30
-64.000000
9
$EXTMAX
10
128.000000
20
128.000000
30
64.000000
0
ENDSEC
0
SECTION
2
TABLES
0
TABLE
2
LTYPE
70
1
0
LTYPE
2
CONTINUOUS
70
64
3
Solid line
72
65
73
0
40
0.0
0
ENDTAB
0
TABLE
2
LAYER
70
1
0
LAYER
2
0
70
0
62
7
6
CONTINUOUS
0
ENDTAB
0
TABLE
2
STYLE
70
1
0
STYLE
2
STANDARD
70
0
40
0.0
41
1.0
50
0.0
71
0
42
0.2
3
txt
4

0
ENDTAB
0
TABLE
2
UCS
70
0
0
ENDTAB
0
ENDSEC
0
SECTION
2
ENTITIES
0
POLYLINE
8
OBJECT000
66
1
70
64
71
8
72
12
62
50
0
VERTEX
8
OBJECT000
10
57.962006
20
-128.000000
30
61.793030
70
192
0
VERTEX
8
OBJECT000
10
-56.753906
20
-128.000000
30
61.793030
70
192
0
VERTEX
8
OBJECT000
10
-56.753906
20
-125.537994
30
61.793030
70
192
0
VERTEX
8
OBJECT000
10
57.962006
20
-125.537994
30
61.793030
70
192
0
VERTEX
8
OBJECT000
10
-56.753906
20
-128.000000
30
51.862000
70
192
0
VERTEX
8
OBJECT000
10
57.962006
20
-128.000000
30
51.862000
70
192
0
VERTEX
8
OBJECT000
10
57.962006
20
-125.537994
30
51.862000
70
192
0
VERTEX
8
OBJECT000
10
-56.753906
20
-125.537994
30
51.862000
70
192
0
VERTEX
8
OBJECT000
10
0
20
0
30
0
70
128
71
2
72
3
73
-4
0
VERTEX
8
OBJECT000
10
0
20
0
30
0
70
128
71
-2
72
4
73
1
0
VERTEX
8
OBJECT000
10
0
20
0
30
0
70
128
71
2
72
1
73
-6
0
VERTEX
8
OBJECT000
10
0
20
0
30
0
70
128
71
-2
72
6
73
5
0
VERTEX
8
OBJECT000
10
0
20
0
30
0
70
128
71
4
72
3
73
-8
0
VERTEX
8
OBJECT000
10
0
20
0
30
0
70
128
71
-4
72
8
73
7
0
VERTEX
8
OBJECT000
10
0
20
0
30
0
70
128
71
3
72
2
73
-5
0
VERTEX
8
OBJECT000
10
0
20
0
30
0
70
128
71
-3
72
5
73
8
0
VERTEX
8
OBJECT000
10
0
20
0
30
0
70
128
71
1
72
4
73
-7
0
VERTEX
8
OBJECT000
10
0
20
0
30
0
70
128
71
-1
72
7
73
6
0
VERTEX
8
OBJECT000
10
0
20
0
30
0
70
128
71
8
72
5
73
-6
0
VERTEX
8
OBJECT000
10
0
20
0
30
0
70
128
71
-8
72
6
73
7
0
SEQEND
8
OBJECT000
0
POLYLINE
8
OBJECT001
66
1
70
64
71
8
72
12
62
50
0
VERTEX
8
OBJECT001
10
57.962006
20
-128.000000
30
-51.862000
70
192
0
VERTEX
8
OBJECT001
10
-56.753906
20
-128.000000
30
-51.862000
70
192
0
VERTEX
8
OBJECT001
10
-56.753906
20
-125.537994
30
-51.862000
70
192
0
VERTEX
8
OBJECT001
10
57.962006
20
-125.537994
30
-51.862000
70
192
0
VERTEX
8
OBJECT001
10
-56.753906
20
-128.000000
30
-61.793030
70
192
0
VERTEX
8
OBJECT001
10
57.962006
20
-128.000000
30
-61.793030
70
192
0
VERTEX
8
OBJECT001
10
57.962006
20
-125.537994
30
-61.793030
70
192
0
VERTEX
8
OBJECT001
10
-56.753906
20
-125.537994
30
-61.793030
70
192
0
VERTEX
8
OBJECT001
10
0
20
0
30
0
70
128
71
2
72
3
73
-4
0
VERTEX
8
OBJECT001
10
0
20
0
30
0
70
128
71
-2
72
4
73
1
0
VERTEX
8
OBJECT001
10
0
20
0
30
0
70
128
71
2
72
1
73
-6
0
VERTEX
8
OBJECT001
10
0
20
0
30
0
70
128
71
-2
72
6
73
5
0
VERTEX
8
OBJECT001
10
0
20
0
30
0
70
128
71
4
72
3
73
-8
0
VERTEX
8
OBJECT001
10
0
20
0
30
0
70
128
71
-4
72
8
73
7
0
VERTEX
8
OBJECT001
10
0
20
0
30
0
70
128
71
3
72
2
73
-5
0
VERTEX
8
OBJECT001
10
0
20
0
30
0
70
128
71
-3
72
5
73
8
0
VERTEX
8
OBJECT001
10
0
20
0
30
0
70
128
71
1
72
4
73
-7
0
VERTEX
8
OBJECT001
10
0
20
0
30
0
70
128
71
-1
72
7
73
6
0
VERTEX
8
OBJECT001
10
0
20
0
30
0
70
128
71
8
72
5
73
-6
0
VERTEX
8
OBJECT001
10
0
20
0
30
0
70
128
71
-8
72
6
73
7
0
SEQEND
8
OBJECT001
0
POLYLINE
8
OBJECT002
66
1
70
64
71
8
72
12
62
50
0
VERTEX
8
OBJECT002
10
-92.981003
20
128.000000
30
-64.000000
70
192
0
VERTEX
8
OBJECT002
10
-118.339920
20
118.153168
30
-64.000000
70
192
0
VERTEX
8
OBJECT002
10
-128.000000
20
92.308014
30
-64.000000
70
192
0
VERTEX
8
OBJECT002
10
-92.981003
20
92.308014
30
-64.000000
70
192
0
VERTEX
8
OBJECT002
10
-128.000000
20
92.308014
30
64.000000
70
192
0
VERTEX
8
OBJECT002
10
-118.339920
20
118.153168
30
64.000000
70
192
0
VERTEX
8
OBJECT002
10
-92.981003
20
128.000000
30
64.000000
70
192
0
VERTEX
8
OBJECT002
10
-92.981003
20
92.308014
30
64.000000
70
192
0
VERTEX
8
OBJECT002
10
0
20
0
30
0
70
128
71
2
72
3
73
-4
0
VERTEX
8
OBJECT002
10
0
20
0
30
0
70
128
71
-2
72
4
73
1
0
VERTEX
8
OBJECT002
10
0
20
0
30
0
70
128
71
6
72
7
73
-8
0
VERTEX
8
OBJECT002
10
0
20
0
30
0
70
128
71
-6
72
8
73
5
0
VERTEX
8
OBJECT002
10
0
20
0
30
0
70
128
71
2
72
6
73
-5
0
VERTEX
8
OBJECT002
10
0
20
0
30
0
70
128
71
-2
72
5
73
3
0
VERTEX
8
OBJECT002
10
0
20
0
30
0
70
128
71
1
72
7
73
-6
0
VERTEX
8
OBJECT002
10
0
20
0
30
0
70
128
71
-1
72
6
73
2
0
VERTEX
8
OBJECT002
10
0
20
0
30
0
70
128
71
4
72
8
73
-7
0
VERTEX
8
OBJECT002
10
0
20
0
30
0
70
128
71
-4
72
7
73
1
0
VERTEX
8
OBJECT002
10
0
20
0
30
0
70
128
71
3
72
5
73
-8
0
VERTEX
8
OBJECT002
10
0
20
0
30
0
70
128
71
-3
72
8
73
4
0
SEQEND
8
OBJECT002
0
POLYLINE
8
OBJECT003
66
1
70
64
71
8
72
12
62
50
0
VERTEX
8
OBJECT003
10
118.341248
20
118.152588
30
-64.000000
70
192
0
VERTEX
8
OBJECT003
10
92.980988
20
128.000000
30
-64.000000
70
192
0
VERTEX
8
OBJECT003
10
92.980988
20
92.308014
30
-64.000000
70
192
0
VERTEX
8
OBJECT003
10
128.000000
20
92.308014
30
-64.000000
70
192
0
VERTEX
8
OBJECT003
10
92.980988
20
128.000000
30
64.000000
70
192
0
VERTEX
8
OBJECT003
10
118.341248
20
118.152588
30
64.000000
70
192
0
VERTEX
8
OBJECT003
10
128.000000
20
92.308014
30
64.000000
70
192
0
VERTEX
8
OBJECT003
10
92.980988
20
92.308014
30
64.000000
70
192
0
VERTEX
8
OBJECT003
10
0
20
0
30
0
70
128
71
2
72
3
73
-4
0
VERTEX
8
OBJECT003
10
0
20
0
30
0
70
128
71
-2
72
4
73
1
0
VERTEX
8
OBJECT003
10
0
20
0
30
0
70
128
71
6
72
7
73
-8
0
VERTEX
8
OBJECT003
10
0
20
0
30
0
70
128
71
-6
72
8
73
5
0
VERTEX
8
OBJECT003
10
0
20
0
30
0
70
128
71
1
72
6
73
-5
0
VERTEX
8
OBJECT003
10
0
20
0
30
0
70
128
71
-1
72
5
73
2
0
VERTEX
8
OBJECT003
10
0
20
0
30
0
70
128
71
4
72
7
73
-6
0
VERTEX
8
OBJECT003
10
0
20
0
30
0
70
128
71
-4
72
6
73
1
0
VERTEX
8
OBJECT003
10
0
20
0
30
0
70
128
71
3
72
8
73
-7
0
VERTEX
8
OBJECT003
10
0
20
0
30
0
70
128
71
-3
72
7
73
4
0
VERTEX
8
OBJECT003
10
0
20
0
30
0
70
128
71
2
72
5
73
-8
0
VERTEX
8
OBJECT003
10
0
20
0
30
0
70
128
71
-2
72
8
73
3
0
SEQEND
8
OBJECT003
0
POLYLINE
8
OBJECT004
66
1
70
64
71
8
72
12
62
50
0
VERTEX
8
OBJECT004
10
92.980988
20
-128.000000
30
61.793030
70
192
0
VERTEX
8
OBJECT004
10
57.960938
20
-128.000000
30
61.793030
70
192
0
VERTEX
8
OBJECT004
10
57.960938
20
-125.537994
30
61.793030
70
192
0
VERTEX
8
OBJECT004
10
92.980988
20
-125.537994
30
61.793030
70
192
0
VERTEX
8
OBJECT004
10
92.980988
20
-125.537994
30
-61.793030
70
192
0
VERTEX
8
OBJECT004
10
57.960938
20
-125.537994
30
-61.793030
70
192
0
VERTEX
8
OBJECT004
10
57.960938
20
-128.000000
30
-61.793030
70
192
0
VERTEX
8
OBJECT004
10
92.980988
20
-128.000000
30
-61.793030
70
192
0
VERTEX
8
OBJECT004
10
0
20
0
30
0
70
128
71
2
72
3
73
-4
0
VERTEX
8
OBJECT004
10
0
20
0
30
0
70
128
71
-2
72
4
73
1
0
VERTEX
8
OBJECT004
10
0
20
0
30
0
70
128
71
6
72
7
73
-8
0
VERTEX
8
OBJECT004
10
0
20
0
30
0
70
128
71
-6
72
8
73
5
0
VERTEX
8
OBJECT004
10
0
20
0
30
0
70
128
71
7
72
2
73
-1
0
VERTEX
8
OBJECT004
10
0
20
0
30
0
70
128
71
-7
72
1
73
8
0
VERTEX
8
OBJECT004
10
0
20
0
30
0
70
128
71
5
72
4
73
-3
0
VERTEX
8
OBJECT004
10
0
20
0
30
0
70
128
71
-5
72
3
73
6
0
VERTEX
8
OBJECT004
10
0
20
0
30
0
70
128
71
6
72
3
73
-2
0
VERTEX
8
OBJECT004
10
0
20
0
30
0
70
128
71
-6
72
2
73
7
0
VERTEX
8
OBJECT004
10
0
20
0
30
0
70
128
71
8
72
1
73
-4
0
VERTEX
8
OBJECT004
10
0
20
0
30
0
70
128
71
-8
72
4
73
5
0
SEQEND
8
OBJECT004
0
POLYLINE
8
OBJECT005
66
1
70
64
71
8
72
12
62
50
0
VERTEX
8
OBJECT005
10
-56.753906
20
-128.000000
30
61.793030
70
192
0
VERTEX
8
OBJECT005
10
-92.981003
20
-128.000000
30
61.793030
70
192
0
VERTEX
8
OBJECT005
10
-92.981003
20
-125.537994
30
61.793030
70
192
0
VERTEX
8
OBJECT005
10
-56.753906
20
-125.537994
30
61.793030
70
192
0
VERTEX
8
OBJECT005
10
-56.753906
20
-125.537994
30
-61.793030
70
192
0
VERTEX
8
OBJECT005
10
-92.981003
20
-125.537994
30
-61.793030
70
192
0
VERTEX
8
OBJECT005
10
-92.981003
20
-128.000000
30
-61.793030
70
192
0
VERTEX
8
OBJECT005
10
-56.753906
20
-128.000000
30
-61.793030
70
192
0
VERTEX
8
OBJECT005
10
0
20
0
30
0
70
128
71
2
72
3
73
-4
0
VERTEX
8
OBJECT005
10
0
20
0
30
0
70
128
71
-2
72
4
73
1
0
VERTEX
8
OBJECT005
10
0
20
0
30
0
70
128
71
6
72
7
73
-8
0
VERTEX
8
OBJECT005
10
0
20
0
30
0
70
128
71
-6
72
8
73
5
0
VERTEX
8
OBJECT005
10
0
20
0
30
0
70
128
71
7
72
2
73
-1
0
VERTEX
8
OBJECT005
10
0
20
0
30
0
70
128
71
-7
72
1
73
8
0
VERTEX
8
OBJECT005
10
0
20
0
30
0
70
128
71
5
72
4
73
-3
0
VERTEX
8
OBJECT005
10
0
20
0
30
0
70
128
71
-5
72
3
73
6
0
VERTEX
8
OBJECT005
10
0
20
0
30
0
70
128
71
8
72
1
73
-4
0
VERTEX
8
OBJECT005
10
0
20
0
30
0
70
128
71
-8
72
4
73
5
0
VERTEX
8
OBJECT005
10
0
20
0
30
0
70
128
71
6
72
3
73
-2
0
VERTEX
8
OBJECT005
10
0
20
0
30
0
70
128
71
-6
72
2
73
7
0
SEQEND
8
OBJECT005
0
POLYLINE
8
OBJECT006
66
1
70
64
71
8
72
12
62
50
0
VERTEX
8
OBJECT006
10
92.980988
20
-92.307999
30
-64.000000
70
192
0
VERTEX
8
OBJECT006
10
92.980988
20
-128.000000
30
-64.000000
70
192
0
VERTEX
8
OBJECT006
10
118.338928
20
-118.155746
30
-64.000000
70
192
0
VERTEX
8
OBJECT006
10
128.000000
20
-92.307999
30
-64.000000
70
192
0
VERTEX
8
OBJECT006
10
128.000000
20
-92.307999
30
64.000000
70
192
0
VERTEX
8
OBJECT006
10
118.338928
20
-118.155746
30
64.000000
70
192
0
VERTEX
8
OBJECT006
10
92.980988
20
-128.000000
30
64.000000
70
192
0
VERTEX
8
OBJECT006
10
92.980988
20
-92.307999
30
64.000000
70
192
0
VERTEX
8
OBJECT006
10
0
20
0
30
0
70
128
71
2
72
3
73
-4
0
VERTEX
8
OBJECT006
10
0
20
0
30
0
70
128
71
-2
72
4
73
1
0
VERTEX
8
OBJECT006
10
0
20
0
30
0
70
128
71
6
72
7
73
-8
0
VERTEX
8
OBJECT006
10
0
20
0
30
0
70
128
71
-6
72
8
73
5
0
VERTEX
8
OBJECT006
10
0
20
0
30
0
70
128
71
3
72
6
73
-5
0
VERTEX
8
OBJECT006
10
0
20
0
30
0
70
128
71
-3
72
5
73
4
0
VERTEX
8
OBJECT006
10
0
20
0
30
0
70
128
71
2
72
7
73
-6
0
VERTEX
8
OBJECT006
10
0
20
0
30
0
70
128
71
-2
72
6
73
3
0
VERTEX
8
OBJECT006
10
0
20
0
30
0
70
128
71
1
72
8
73
-7
0
VERTEX
8
OBJECT006
10
0
20
0
30
0
70
128
71
-1
72
7
73
2
0
VERTEX
8
OBJECT006
10
0
20
0
30
0
70
128
71
4
72
5
73
-8
0
VERTEX
8
OBJECT006
10
0
20
0
30
0
70
128
71
-4
72
8
73
1
0
SEQEND
8
OBJECT006
0
POLYLINE
8
OBJECT007
66
1
70
64
71
8
72
12
62
50
0
VERTEX
8
OBJECT007
10
-92.981003
20
-92.307999
30
-64.000000
70
192
0
VERTEX
8
OBJECT007
10
-128.000000
20
-92.307999
30
-64.000000
70
192
0
VERTEX
8
OBJECT007
10
-118.339172
20
-118.153870
30
-64.000000
70
192
0
VERTEX
8
OBJECT007
10
-92.981003
20
-128.000000
30
-64.000000
70
192
0
VERTEX
8
OBJECT007
10
-92.981003
20
-128.000000
30
64.000000
70
192
0
VERTEX
8
OBJECT007
10
-118.339172
20
-118.153870
30
64.000000
70
192
0
VERTEX
8
OBJECT007
10
-128.000000
20
-92.307999
30
64.000000
70
192
0
VERTEX
8
OBJECT007
10
-92.981003
20
-92.307999
30
64.000000
70
192
0
VERTEX
8
OBJECT007
10
0
20
0
30
0
70
128
71
2
72
3
73
-4
0
VERTEX
8
OBJECT007
10
0
20
0
30
0
70
128
71
-2
72
4
73
1
0
VERTEX
8
OBJECT007
10
0
20
0
30
0
70
128
71
6
72
7
73
-8
0
VERTEX
8
OBJECT007
10
0
20
0
30
0
70
128
71
-6
72
8
73
5
0
VERTEX
8
OBJECT007
10
0
20
0
30
0
70
128
71
3
72
6
73
-5
0
VERTEX
8
OBJECT007
10
0
20
0
30
0
70
128
71
-3
72
5
73
4
0
VERTEX
8
OBJECT007
10
0
20
0
30
0
70
128
71
2
72
7
73
-6
0
VERTEX
8
OBJECT007
10
0
20
0
30
0
70
128
71
-2
72
6
73
3
0
VERTEX
8
OBJECT007
10
0
20
0
30
0
70
128
71
1
72
8
73
-7
0
VERTEX
8
OBJECT007
10
0
20
0
30
0
70
128
71
-1
72
7
73
2
0
VERTEX
8
OBJECT007
10
0
20
0
30
0
70
128
71
4
72
5
73
-8
0
VERTEX
8
OBJECT007
10
0
20
0
30
0
70
128
71
-4
72
8
73
1
0
SEQEND
8
OBJECT007
0
POLYLINE
8
OBJECT008
66
1
70
64
71
8
72
12
62
50
0
VERTEX
8
OBJECT008
10
-128.000000
20
-34.462006
30
23.171997
70
192
0
VERTEX
8
OBJECT008
10
-128.000000
20
34.460938
30
23.171997
70
192
0
VERTEX
8
OBJECT008
10
-125.585007
20
34.460938
30
23.171997
70
192
0
VERTEX
8
OBJECT008
10
-125.585007
20
-34.462006
30
23.171997
70
192
0
VERTEX
8
OBJECT008
10
-128.000000
20
34.460938
30
-23.171997
70
192
0
VERTEX
8
OBJECT008
10
-128.000000
20
-34.462006
30
-23.171997
70
192
0
VERTEX
8
OBJECT008
10
-125.585007
20
-34.462006
30
-23.171997
70
192
0
VERTEX
8
OBJECT008
10
-125.585007
20
34.460938
30
-23.171997
70
192
0
VERTEX
8
OBJECT008
10
0
20
0
30
0
70
128
71
2
72
3
73
-4
0
VERTEX
8
OBJECT008
10
0
20
0
30
0
70
128
71
-2
72
4
73
1
0
VERTEX
8
OBJECT008
10
0
20
0
30
0
70
128
71
6
72
7
73
-8
0
VERTEX
8
OBJECT008
10
0
20
0
30
0
70
128
71
-6
72
8
73
5
0
VERTEX
8
OBJECT008
10
0
20
0
30
0
70
128
71
5
72
2
73
-1
0
VERTEX
8
OBJECT008
10
0
20
0
30
0
70
128
71
-5
72
1
73
6
0
VERTEX
8
OBJECT008
10
0
20
0
30
0
70
128
71
7
72
4
73
-3
0
VERTEX
8
OBJECT008
10
0
20
0
30
0
70
128
71
-7
72
3
73
8
0
VERTEX
8
OBJECT008
10
0
20
0
30
0
70
128
71
8
72
3
73
-2
0
VERTEX
8
OBJECT008
10
0
20
0
30
0
70
128
71
-8
72
2
73
5
0
VERTEX
8
OBJECT008
10
0
20
0
30
0
70
128
71
6
72
1
73
-4
0
VERTEX
8
OBJECT008
10
0
20
0
30
0
70
128
71
-6
72
4
73
7
0
SEQEND
8
OBJECT008
0
POLYLINE
8
OBJECT009
66
1
70
64
71
8
72
12
62
50
0
VERTEX
8
OBJECT009
10
125.585938
20
-34.462006
30
23.171997
70
192
0
VERTEX
8
OBJECT009
10
125.585938
20
34.460938
30
23.171997
70
192
0
VERTEX
8
OBJECT009
10
128.000000
20
34.460938
30
23.171997
70
192
0
VERTEX
8
OBJECT009
10
128.000000
20
-34.462006
30
23.171997
70
192
0
VERTEX
8
OBJECT009
10
125.585938
20
34.460938
30
-23.171997
70
192
0
VERTEX
8
OBJECT009
10
125.585938
20
-34.462006
30
-23.171997
70
192
0
VERTEX
8
OBJECT009
10
128.000000
20
-34.462006
30
-23.171997
70
192
0
VERTEX
8
OBJECT009
10
128.000000
20
34.460938
30
-23.171997
70
192
0
VERTEX
8
OBJECT009
10
0
20
0
30
0
70
128
71
2
72
3
73
-4
0
VERTEX
8
OBJECT009
10
0
20
0
30
0
70
128
71
-2
72
4
73
1
0
VERTEX
8
OBJECT009
10
0
20
0
30
0
70
128
71
6
72
7
73
-8
0
VERTEX
8
OBJECT009
10
0
20
0
30
0
70
128
71
-6
72
8
73
5
0
VERTEX
8
OBJECT009
10
0
20
0
30
0
70
128
71
5
72
2
73
-1
0
VERTEX
8
OBJECT009
10
0
20
0
30
0
70
128
71
-5
72
1
73
6
0
VERTEX
8
OBJECT009
10
0
20
0
30
0
70
128
71
7
72
4
73
-3
0
VERTEX
8
OBJECT009
10
0
20
0
30
0
70
128
71
-7
72
3
73
8
0
VERTEX
8
OBJECT009
10
0
20
0
30
0
70
128
71
8
72
3
73
-2
0
VERTEX
8
OBJECT009
10
0
20
0
30
0
70
128
71
-8
72
2
73
5
0
VERTEX
8
OBJECT009
10
0
20
0
30
0
70
128
71
6
72
1
73
-4
0
VERTEX
8
OBJECT009
10
0
20
0
30
0
70
128
71
-6
72
4
73
7
0
SEQEND
8
OBJECT009
0
POLYLINE
8
OBJECT010
66
1
70
64
71
8
72
12
62
50
0
VERTEX
8
OBJECT010
10
-33.812500
20
125.537994
30
23.171997
70
192
0
VERTEX
8
OBJECT010
10
-33.812500
20
128.000000
30
23.171997
70
192
0
VERTEX
8
OBJECT010
10
33.811005
20
128.000000
30
23.171997
70
192
0
VERTEX
8
OBJECT010
10
33.811005
20
125.537994
30
23.171997
70
192
0
VERTEX
8
OBJECT010
10
-33.812500
20
128.000000
30
-23.171997
70
192
0
VERTEX
8
OBJECT010
10
-33.812500
20
125.537994
30
-23.171997
70
192
0
VERTEX
8
OBJECT010
10
33.811005
20
125.537994
30
-23.171997
70
192
0
VERTEX
8
OBJECT010
10
33.811005
20
128.000000
30
-23.171997
70
192
0
VERTEX
8
OBJECT010
10
0
20
0
30
0
70
128
71
2
72
3
73
-4
0
VERTEX
8
OBJECT010
10
0
20
0
30
0
70
128
71
-2
72
4
73
1
0
VERTEX
8
OBJECT010
10
0
20
0
30
0
70
128
71
6
72
7
73
-8
0
VERTEX
8
OBJECT010
10
0
20
0
30
0
70
128
71
-6
72
8
73
5
0
VERTEX
8
OBJECT010
10
0
20
0
30
0
70
128
71
5
72
2
73
-1
0
VERTEX
8
OBJECT010
10
0
20
0
30
0
70
128
71
-5
72
1
73
6
0
VERTEX
8
OBJECT010
10
0
20
0
30
0
70
128
71
7
72
4
73
-3
0
VERTEX
8
OBJECT010
10
0
20
0
30
0
70
128
71
-7
72
3
73
8
0
VERTEX
8
OBJECT010
10
0
20
0
30
0
70
128
71
8
72
3
73
-2
0
VERTEX
8
OBJECT010
10
0
20
0
30
0
70
128
71
-8
72
2
73
5
0
VERTEX
8
OBJECT010
10
0
20
0
30
0
70
128
71
6
72
1
73
-4
0
VERTEX
8
OBJECT010
10
0
20
0
30
0
70
128
71
-6
72
4
73
7
0
SEQEND
8
OBJECT010
0
POLYLINE
8
OBJECT011
66
1
70
64
71
8
72
12
62
50
0
VERTEX
8
OBJECT011
10
-92.981003
20
92.308594
30
61.793030
70
192
0
VERTEX
8
OBJECT011
10
-128.000000
20
92.308594
30
61.793030
70
192
0
VERTEX
8
OBJECT011
10
-128.000000
20
-92.307999
30
61.793030
70
192
0
VERTEX
8
OBJECT011
10
-92.981003
20
-92.307999
30
61.793030
70
192
0
VERTEX
8
OBJECT011
10
-92.981003
20
92.308014
30
64.000000
70
192
0
VERTEX
8
OBJECT011
10
-128.000000
20
92.308014
30
64.000000
70
192
0
VERTEX
8
OBJECT011
10
-128.000000
20
-92.307999
30
64.000000
70
192
0
VERTEX
8
OBJECT011
10
-92.981003
20
-92.307999
30
64.000000
70
192
0
VERTEX
8
OBJECT011
10
0
20
0
30
0
70
128
71
2
72
3
73
-4
0
VERTEX
8
OBJECT011
10
0
20
0
30
0
70
128
71
-2
72
4
73
1
0
VERTEX
8
OBJECT011
10
0
20
0
30
0
70
128
71
1
72
5
73
-6
0
VERTEX
8
OBJECT011
10
0
20
0
30
0
70
128
71
-1
72
6
73
2
0
VERTEX
8
OBJECT011
10
0
20
0
30
0
70
128
71
6
72
5
73
-8
0
VERTEX
8
OBJECT011
10
0
20
0
30
0
70
128
71
-6
72
8
73
7
0
VERTEX
8
OBJECT011
10
0
20
0
30
0
70
128
71
2
72
6
73
-7
0
VERTEX
8
OBJECT011
10
0
20
0
30
0
70
128
71
-2
72
7
73
3
0
VERTEX
8
OBJECT011
10
0
20
0
30
0
70
128
71
1
72
4
73
-8
0
VERTEX
8
OBJECT011
10
0
20
0
30
0
70
128
71
-1
72
8
73
5
0
VERTEX
8
OBJECT011
10
0
20
0
30
0
70
128
71
3
72
7
73
-8
0
VERTEX
8
OBJECT011
10
0
20
0
30
0
70
128
71
-3
72
8
73
4
0
SEQEND
8
OBJECT011
0
POLYLINE
8
OBJECT012
66
1
70
64
71
8
72
12
62
50
0
VERTEX
8
OBJECT012
10
128.000000
20
92.308594
30
61.793030
70
192
0
VERTEX
8
OBJECT012
10
92.980469
20
92.308594
30
61.793030
70
192
0
VERTEX
8
OBJECT012
10
92.980469
20
-92.307999
30
61.793030
70
192
0
VERTEX
8
OBJECT012
10
128.000000
20
-92.307999
30
61.793030
70
192
0
VERTEX
8
OBJECT012
10
128.000000
20
92.308014
30
64.000000
70
192
0
VERTEX
8
OBJECT012
10
92.980469
20
92.308014
30
64.000000
70
192
0
VERTEX
8
OBJECT012
10
92.980469
20
-92.307999
30
64.000000
70
192
0
VERTEX
8
OBJECT012
10
128.000000
20
-92.307999
30
64.000000
70
192
0
VERTEX
8
OBJECT012
10
0
20
0
30
0
70
128
71
2
72
3
73
-4
0
VERTEX
8
OBJECT012
10
0
20
0
30
0
70
128
71
-2
72
4
73
1
0
VERTEX
8
OBJECT012
10
0
20
0
30
0
70
128
71
1
72
5
73
-6
0
VERTEX
8
OBJECT012
10
0
20
0
30
0
70
128
71
-1
72
6
73
2
0
VERTEX
8
OBJECT012
10
0
20
0
30
0
70
128
71
6
72
5
73
-8
0
VERTEX
8
OBJECT012
10
0
20
0
30
0
70
128
71
-6
72
8
73
7
0
VERTEX
8
OBJECT012
10
0
20
0
30
0
70
128
71
2
72
6
73
-7
0
VERTEX
8
OBJECT012
10
0
20
0
30
0
70
128
71
-2
72
7
73
3
0
VERTEX
8
OBJECT012
10
0
20
0
30
0
70
128
71
1
72
4
73
-8
0
VERTEX
8
OBJECT012
10
0
20
0
30
0
70
128
71
-1
72
8
73
5
0
VERTEX
8
OBJECT012
10
0
20
0
30
0
70
128
71
3
72
7
73
-8
0
VERTEX
8
OBJECT012
10
0
20
0
30
0
70
128
71
-3
72
8
73
4
0
SEQEND
8
OBJECT012
0
POLYLINE
8
OBJECT013
66
1
70
64
71
8
72
12
62
50
0
VERTEX
8
OBJECT013
10
92.980988
20
128.000000
30
61.793030
70
192
0
VERTEX
8
OBJECT013
10
-92.980469
20
128.000000
30
61.793030
70
192
0
VERTEX
8
OBJECT013
10
-92.980469
20
57.846008
30
61.793030
70
192
0
VERTEX
8
OBJECT013
10
92.980988
20
57.846008
30
61.793030
70
192
0
VERTEX
8
OBJECT013
10
-92.980469
20
128.000000
30
64.000000
70
192
0
VERTEX
8
OBJECT013
10
92.980988
20
128.000000
30
64.000000
70
192
0
VERTEX
8
OBJECT013
10
-92.981003
20
57.846008
30
64.000000
70
192
0
VERTEX
8
OBJECT013
10
92.980988
20
57.846008
30
64.000000
70
192
0
VERTEX
8
OBJECT013
10
0
20
0
30
0
70
128
71
2
72
3
73
-4
0
VERTEX
8
OBJECT013
10
0
20
0
30
0
70
128
71
-2
72
4
73
1
0
VERTEX
8
OBJECT013
10
0
20
0
30
0
70
128
71
2
72
1
73
-6
0
VERTEX
8
OBJECT013
10
0
20
0
30
0
70
128
71
-2
72
6
73
5
0
VERTEX
8
OBJECT013
10
0
20
0
30
0
70
128
71
2
72
5
73
-7
0
VERTEX
8
OBJECT013
10
0
20
0
30
0
70
128
71
-2
72
7
73
3
0
VERTEX
8
OBJECT013
10
0
20
0
30
0
70
128
71
5
72
6
73
-8
0
VERTEX
8
OBJECT013
10
0
20
0
30
0
70
128
71
-5
72
8
73
7
0
VERTEX
8
OBJECT013
10
0
20
0
30
0
70
128
71
1
72
4
73
-8
0
VERTEX
8
OBJECT013
10
0
20
0
30
0
70
128
71
-1
72
8
73
6
0
VERTEX
8
OBJECT013
10
0
20
0
30
0
70
128
71
3
72
7
73
-8
0
VERTEX
8
OBJECT013
10
0
20
0
30
0
70
128
71
-3
72
8
73
4
0
SEQEND
8
OBJECT013
0
POLYLINE
8
OBJECT014
66
1
70
64
71
8
72
12
62
50
0
VERTEX
8
OBJECT014
10
-92.980469
20
-57.845993
30
61.793030
70
192
0
VERTEX
8
OBJECT014
10
-92.980469
20
-128.000000
30
61.793030
70
192
0
VERTEX
8
OBJECT014
10
92.980988
20
-128.000000
30
61.793030
70
192
0
VERTEX
8
OBJECT014
10
92.980988
20
-57.845993
30
61.793030
70
192
0
VERTEX
8
OBJECT014
10
-92.980469
20
-128.000000
30
64.000000
70
192
0
VERTEX
8
OBJECT014
10
92.980988
20
-128.000000
30
64.000000
70
192
0
VERTEX
8
OBJECT014
10
-92.981003
20
-57.845993
30
64.000000
70
192
0
VERTEX
8
OBJECT014
10
92.980988
20
-57.845993
30
64.000000
70
192
0
VERTEX
8
OBJECT014
10
0
20
0
30
0
70
128
71
2
72
3
73
-4
0
VERTEX
8
OBJECT014
10
0
20
0
30
0
70
128
71
-2
72
4
73
1
0
VERTEX
8
OBJECT014
10
0
20
0
30
0
70
128
71
2
72
5
73
-6
0
VERTEX
8
OBJECT014
10
0
20
0
30
0
70
128
71
-2
72
6
73
3
0
VERTEX
8
OBJECT014
10
0
20
0
30
0
70
128
71
2
72
1
73
-7
0
VERTEX
8
OBJECT014
10
0
20
0
30
0
70
128
71
-2
72
7
73
5
0
VERTEX
8
OBJECT014
10
0
20
0
30
0
70
128
71
5
72
7
73
-8
0
VERTEX
8
OBJECT014
10
0
20
0
30
0
70
128
71
-5
72
8
73
6
0
VERTEX
8
OBJECT014
10
0
20
0
30
0
70
128
71
3
72
6
73
-8
0
VERTEX
8
OBJECT014
10
0
20
0
30
0
70
128
71
-3
72
8
73
4
0
VERTEX
8
OBJECT014
10
0
20
0
30
0
70
128
71
1
72
4
73
-8
0
VERTEX
8
OBJECT014
10
0
20
0
30
0
70
128
71
-1
72
8
73
7
0
SEQEND
8
OBJECT014
0
POLYLINE
8
OBJECT015
66
1
70
64
71
8
72
12
62
50
0
VERTEX
8
OBJECT015
10
-56.755005
20
57.847656
30
61.793030
70
192
0
VERTEX
8
OBJECT015
10
-92.980469
20
57.847656
30
61.793030
70
192
0
VERTEX
8
OBJECT015
10
-92.980469
20
-57.845993
30
61.793030
70
192
0
VERTEX
8
OBJECT015
10
-56.755005
20
-57.845993
30
61.793030
70
192
0
VERTEX
8
OBJECT015
10
-92.981003
20
57.847656
30
64.000000
70
192
0
VERTEX
8
OBJECT015
10
-92.981003
20
-57.845993
30
64.000000
70
192
0
VERTEX
8
OBJECT015
10
-56.755005
20
-57.845993
30
64.000000
70
192
0
VERTEX
8
OBJECT015
10
-56.755005
20
57.847656
30
64.000000
70
192
0
VERTEX
8
OBJECT015
10
0
20
0
30
0
70
128
71
2
72
3
73
-4
0
VERTEX
8
OBJECT015
10
0
20
0
30
0
70
128
71
-2
72
4
73
1
0
VERTEX
8
OBJECT015
10
0
20
0
30
0
70
128
71
2
72
5
73
-6
0
VERTEX
8
OBJECT015
10
0
20
0
30
0
70
128
71
-2
72
6
73
3
0
VERTEX
8
OBJECT015
10
0
20
0
30
0
70
128
71
6
72
5
73
-8
0
VERTEX
8
OBJECT015
10
0
20
0
30
0
70
128
71
-6
72
8
73
7
0
VERTEX
8
OBJECT015
10
0
20
0
30
0
70
128
71
2
72
1
73
-8
0
VERTEX
8
OBJECT015
10
0
20
0
30
0
70
128
71
-2
72
8
73
5
0
VERTEX
8
OBJECT015
10
0
20
0
30
0
70
128
71
3
72
6
73
-7
0
VERTEX
8
OBJECT015
10
0
20
0
30
0
70
128
71
-3
72
7
73
4
0
VERTEX
8
OBJECT015
10
0
20
0
30
0
70
128
71
4
72
7
73
-8
0
VERTEX
8
OBJECT015
10
0
20
0
30
0
70
128
71
-4
72
8
73
1
0
SEQEND
8
OBJECT015
0
POLYLINE
8
OBJECT016
66
1
70
64
71
8
72
12
62
50
0
VERTEX
8
OBJECT016
10
57.962006
20
-57.845993
30
61.793030
70
192
0
VERTEX
8
OBJECT016
10
92.980469
20
-57.845993
30
61.793030
70
192
0
VERTEX
8
OBJECT016
10
92.980469
20
57.847656
30
61.793030
70
192
0
VERTEX
8
OBJECT016
10
57.962006
20
57.847656
30
61.793030
70
192
0
VERTEX
8
OBJECT016
10
57.962006
20
57.847656
30
64.000000
70
192
0
VERTEX
8
OBJECT016
10
92.980469
20
57.847656
30
64.000000
70
192
0
VERTEX
8
OBJECT016
10
92.980469
20
-57.845993
30
64.000000
70
192
0
VERTEX
8
OBJECT016
10
57.962006
20
-57.845993
30
64.000000
70
192
0
VERTEX
8
OBJECT016
10
0
20
0
30
0
70
128
71
2
72
3
73
-4
0
VERTEX
8
OBJECT016
10
0
20
0
30
0
70
128
71
-2
72
4
73
1
0
VERTEX
8
OBJECT016
10
0
20
0
30
0
70
128
71
6
72
7
73
-8
0
VERTEX
8
OBJECT016
10
0
20
0
30
0
70
128
71
-6
72
8
73
5
0
VERTEX
8
OBJECT016
10
0
20
0
30
0
70
128
71
2
72
7
73
-6
0
VERTEX
8
OBJECT016
10
0
20
0
30
0
70
128
71
-2
72
6
73
3
0
VERTEX
8
OBJECT016
10
0
20
0
30
0
70
128
71
3
72
6
73
-5
0
VERTEX
8
OBJECT016
10
0
20
0
30
0
70
128
71
-3
72
5
73
4
0
VERTEX
8
OBJECT016
10
0
20
0
30
0
70
128
71
1
72
8
73
-7
0
VERTEX
8
OBJECT016
10
0
20
0
30
0
70
128
71
-1
72
7
73
2
0
VERTEX
8
OBJECT016
10
0
20
0
30
0
70
128
71
4
72
5
73
-8
0
VERTEX
8
OBJECT016
10
0
20
0
30
0
70
128
71
-4
72
8
73
1
0
SEQEND
8
OBJECT016
0
POLYLINE
8
OBJECT017
66
1
70
64
71
8
72
12
62
50
0
VERTEX
8
OBJECT017
10
-128.000000
20
-92.307999
30
-61.793030
70
192
0
VERTEX
8
OBJECT017
10
-128.000000
20
92.308594
30
-61.793030
70
192
0
VERTEX
8
OBJECT017
10
-92.981003
20
92.308594
30
-61.793030
70
192
0
VERTEX
8
OBJECT017
10
-92.981003
20
-92.307999
30
-61.793030
70
192
0
VERTEX
8
OBJECT017
10
-128.000000
20
92.308014
30
-64.000000
70
192
0
VERTEX
8
OBJECT017
10
-92.981003
20
92.308014
30
-64.000000
70
192
0
VERTEX
8
OBJECT017
10
-128.000000
20
-92.307999
30
-64.000000
70
192
0
VERTEX
8
OBJECT017
10
-92.981003
20
-92.307999
30
-64.000000
70
192
0
VERTEX
8
OBJECT017
10
0
20
0
30
0
70
128
71
2
72
3
73
-4
0
VERTEX
8
OBJECT017
10
0
20
0
30
0
70
128
71
-2
72
4
73
1
0
VERTEX
8
OBJECT017
10
0
20
0
30
0
70
128
71
6
72
3
73
-2
0
VERTEX
8
OBJECT017
10
0
20
0
30
0
70
128
71
-6
72
2
73
5
0
VERTEX
8
OBJECT017
10
0
20
0
30
0
70
128
71
5
72
7
73
-8
0
VERTEX
8
OBJECT017
10
0
20
0
30
0
70
128
71
-5
72
8
73
6
0
VERTEX
8
OBJECT017
10
0
20
0
30
0
70
128
71
5
72
2
73
-1
0
VERTEX
8
OBJECT017
10
0
20
0
30
0
70
128
71
-5
72
1
73
7
0
VERTEX
8
OBJECT017
10
0
20
0
30
0
70
128
71
3
72
6
73
-8
0
VERTEX
8
OBJECT017
10
0
20
0
30
0
70
128
71
-3
72
8
73
4
0
VERTEX
8
OBJECT017
10
0
20
0
30
0
70
128
71
7
72
1
73
-4
0
VERTEX
8
OBJECT017
10
0
20
0
30
0
70
128
71
-7
72
4
73
8
0
SEQEND
8
OBJECT017
0
POLYLINE
8
OBJECT018
66
1
70
64
71
8
72
12
62
50
0
VERTEX
8
OBJECT018
10
92.980469
20
-92.307999
30
-61.793030
70
192
0
VERTEX
8
OBJECT018
10
92.980469
20
92.308594
30
-61.793030
70
192
0
VERTEX
8
OBJECT018
10
128.000000
20
92.308594
30
-61.793030
70
192
0
VERTEX
8
OBJECT018
10
128.000000
20
-92.307999
30
-61.793030
70
192
0
VERTEX
8
OBJECT018
10
92.980469
20
92.308014
30
-64.000000
70
192
0
VERTEX
8
OBJECT018
10
128.000000
20
92.308014
30
-64.000000
70
192
0
VERTEX
8
OBJECT018
10
92.980469
20
-92.307999
30
-64.000000
70
192
0
VERTEX
8
OBJECT018
10
128.000000
20
-92.307999
30
-64.000000
70
192
0
VERTEX
8
OBJECT018
10
0
20
0
30
0
70
128
71
2
72
3
73
-4
0
VERTEX
8
OBJECT018
10
0
20
0
30
0
70
128
71
-2
72
4
73
1
0
VERTEX
8
OBJECT018
10
0
20
0
30
0
70
128
71
6
72
3
73
-2
0
VERTEX
8
OBJECT018
10
0
20
0
30
0
70
128
71
-6
72
2
73
5
0
VERTEX
8
OBJECT018
10
0
20
0
30
0
70
128
71
5
72
7
73
-8
0
VERTEX
8
OBJECT018
10
0
20
0
30
0
70
128
71
-5
72
8
73
6
0
VERTEX
8
OBJECT018
10
0
20
0
30
0
70
128
71
5
72
2
73
-1
0
VERTEX
8
OBJECT018
10
0
20
0
30
0
70
128
71
-5
72
1
73
7
0
VERTEX
8
OBJECT018
10
0
20
0
30
0
70
128
71
3
72
6
73
-8
0
VERTEX
8
OBJECT018
10
0
20
0
30
0
70
128
71
-3
72
8
73
4
0
VERTEX
8
OBJECT018
10
0
20
0
30
0
70
128
71
7
72
1
73
-4
0
VERTEX
8
OBJECT018
10
0
20
0
30
0
70
128
71
-7
72
4
73
8
0
SEQEND
8
OBJECT018
0
POLYLINE
8
OBJECT019
66
1
70
64
71
8
72
12
62
50
0
VERTEX
8
OBJECT019
10
-92.980469
20
57.846008
30
-61.793030
70
192
0
VERTEX
8
OBJECT019
10
-92.980469
20
128.000000
30
-61.793030
70
192
0
VERTEX
8
OBJECT019
10
92.980988
20
128.000000
30
-61.793030
70
192
0
VERTEX
8
OBJECT019
10
92.980988
20
57.846008
30
-61.793030
70
192
0
VERTEX
8
OBJECT019
10
-92.980469
20
128.000000
30
-64.000000
70
192
0
VERTEX
8
OBJECT019
10
92.980988
20
128.000000
30
-64.000000
70
192
0
VERTEX
8
OBJECT019
10
-92.981003
20
57.846008
30
-64.000000
70
192
0
VERTEX
8
OBJECT019
10
92.980988
20
57.846008
30
-64.000000
70
192
0
VERTEX
8
OBJECT019
10
0
20
0
30
0
70
128
71
2
72
3
73
-4
0
VERTEX
8
OBJECT019
10
0
20
0
30
0
70
128
71
-2
72
4
73
1
0
VERTEX
8
OBJECT019
10
0
20
0
30
0
70
128
71
2
72
5
73
-6
0
VERTEX
8
OBJECT019
10
0
20
0
30
0
70
128
71
-2
72
6
73
3
0
VERTEX
8
OBJECT019
10
0
20
0
30
0
70
128
71
5
72
2
73
-1
0
VERTEX
8
OBJECT019
10
0
20
0
30
0
70
128
71
-5
72
1
73
7
0
VERTEX
8
OBJECT019
10
0
20
0
30
0
70
128
71
5
72
7
73
-8
0
VERTEX
8
OBJECT019
10
0
20
0
30
0
70
128
71
-5
72
8
73
6
0
VERTEX
8
OBJECT019
10
0
20
0
30
0
70
128
71
3
72
6
73
-8
0
VERTEX
8
OBJECT019
10
0
20
0
30
0
70
128
71
-3
72
8
73
4
0
VERTEX
8
OBJECT019
10
0
20
0
30
0
70
128
71
7
72
1
73
-4
0
VERTEX
8
OBJECT019
10
0
20
0
30
0
70
128
71
-7
72
4
73
8
0
SEQEND
8
OBJECT019
0
POLYLINE
8
OBJECT020
66
1
70
64
71
8
72
12
62
50
0
VERTEX
8
OBJECT020
10
92.980988
20
-128.000000
30
-61.793030
70
192
0
VERTEX
8
OBJECT020
10
-92.980469
20
-128.000000
30
-61.793030
70
192
0
VERTEX
8
OBJECT020
10
-92.980469
20
-57.845993
30
-61.793030
70
192
0
VERTEX
8
OBJECT020
10
92.980988
20
-57.845993
30
-61.793030
70
192
0
VERTEX
8
OBJECT020
10
92.980988
20
-128.000000
30
-64.000000
70
192
0
VERTEX
8
OBJECT020
10
-92.980469
20
-128.000000
30
-64.000000
70
192
0
VERTEX
8
OBJECT020
10
-92.981003
20
-57.845993
30
-64.000000
70
192
0
VERTEX
8
OBJECT020
10
92.980988
20
-57.845993
30
-64.000000
70
192
0
VERTEX
8
OBJECT020
10
0
20
0
30
0
70
128
71
2
72
3
73
-4
0
VERTEX
8
OBJECT020
10
0
20
0
30
0
70
128
71
-2
72
4
73
1
0
VERTEX
8
OBJECT020
10
0
20
0
30
0
70
128
71
6
72
2
73
-1
0
VERTEX
8
OBJECT020
10
0
20
0
30
0
70
128
71
-6
72
1
73
5
0
VERTEX
8
OBJECT020
10
0
20
0
30
0
70
128
71
2
72
6
73
-7
0
VERTEX
8
OBJECT020
10
0
20
0
30
0
70
128
71
-2
72
7
73
3
0
VERTEX
8
OBJECT020
10
0
20
0
30
0
70
128
71
6
72
5
73
-8
0
VERTEX
8
OBJECT020
10
0
20
0
30
0
70
128
71
-6
72
8
73
7
0
VERTEX
8
OBJECT020
10
0
20
0
30
0
70
128
71
5
72
1
73
-4
0
VERTEX
8
OBJECT020
10
0
20
0
30
0
70
128
71
-5
72
4
73
8
0
VERTEX
8
OBJECT020
10
0
20
0
30
0
70
128
71
3
72
7
73
-8
0
VERTEX
8
OBJECT020
10
0
20
0
30
0
70
128
71
-3
72
8
73
4
0
SEQEND
8
OBJECT020
0
POLYLINE
8
OBJECT021
66
1
70
64
71
8
72
12
62
50
0
VERTEX
8
OBJECT021
10
-56.755005
20
-57.845993
30
-61.793030
70
192
0
VERTEX
8
OBJECT021
10
-92.980469
20
-57.845993
30
-61.793030
70
192
0
VERTEX
8
OBJECT021
10
-92.980469
20
57.847656
30
-61.793030
70
192
0
VERTEX
8
OBJECT021
10
-56.755005
20
57.847656
30
-61.793030
70
192
0
VERTEX
8
OBJECT021
10
-92.981003
20
-57.845993
30
-64.000000
70
192
0
VERTEX
8
OBJECT021
10
-92.981003
20
57.847656
30
-64.000000
70
192
0
VERTEX
8
OBJECT021
10
-56.755005
20
57.847656
30
-64.000000
70
192
0
VERTEX
8
OBJECT021
10
-56.755005
20
-57.845993
30
-64.000000
70
192
0
VERTEX
8
OBJECT021
10
0
20
0
30
0
70
128
71
2
72
3
73
-4
0
VERTEX
8
OBJECT021
10
0
20
0
30
0
70
128
71
-2
72
4
73
1
0
VERTEX
8
OBJECT021
10
0
20
0
30
0
70
128
71
6
72
3
73
-2
0
VERTEX
8
OBJECT021
10
0
20
0
30
0
70
128
71
-6
72
2
73
5
0
VERTEX
8
OBJECT021
10
0
20
0
30
0
70
128
71
6
72
5
73
-8
0
VERTEX
8
OBJECT021
10
0
20
0
30
0
70
128
71
-6
72
8
73
7
0
VERTEX
8
OBJECT021
10
0
20
0
30
0
70
128
71
3
72
6
73
-7
0
VERTEX
8
OBJECT021
10
0
20
0
30
0
70
128
71
-3
72
7
73
4
0
VERTEX
8
OBJECT021
10
0
20
0
30
0
70
128
71
5
72
2
73
-1
0
VERTEX
8
OBJECT021
10
0
20
0
30
0
70
128
71
-5
72
1
73
8
0
VERTEX
8
OBJECT021
10
0
20
0
30
0
70
128
71
8
72
1
73
-4
0
VERTEX
8
OBJECT021
10
0
20
0
30
0
70
128
71
-8
72
4
73
7
0
SEQEND
8
OBJECT021
0
POLYLINE
8
OBJECT022
66
1
70
64
71
8
72
12
62
50
0
VERTEX
8
OBJECT022
10
57.962006
20
57.847656
30
-61.793030
70
192
0
VERTEX
8
OBJECT022
10
92.980469
20
57.847656
30
-61.793030
70
192
0
VERTEX
8
OBJECT022
10
92.980469
20
-57.845993
30
-61.793030
70
192
0
VERTEX
8
OBJECT022
10
57.962006
20
-57.845993
30
-61.793030
70
192
0
VERTEX
8
OBJECT022
10
57.962006
20
-57.845993
30
-64.000000
70
192
0
VERTEX
8
OBJECT022
10
92.980469
20
-57.845993
30
-64.000000
70
192
0
VERTEX
8
OBJECT022
10
92.980469
20
57.847656
30
-64.000000
70
192
0
VERTEX
8
OBJECT022
10
57.962006
20
57.847656
30
-64.000000
70
192
0
VERTEX
8
OBJECT022
10
0
20
0
30
0
70
128
71
2
72
3
73
-4
0
VERTEX
8
OBJECT022
10
0
20
0
30
0
70
128
71
-2
72
4
73
1
0
VERTEX
8
OBJECT022
10
0
20
0
30
0
70
128
71
6
72
7
73
-8
0
VERTEX
8
OBJECT022
10
0
20
0
30
0
70
128
71
-6
72
8
73
5
0
VERTEX
8
OBJECT022
10
0
20
0
30
0
70
128
71
6
72
3
73
-2
0
VERTEX
8
OBJECT022
10
0
20
0
30
0
70
128
71
-6
72
2
73
7
0
VERTEX
8
OBJECT022
10
0
20
0
30
0
70
128
71
7
72
2
73
-1
0
VERTEX
8
OBJECT022
10
0
20
0
30
0
70
128
71
-7
72
1
73
8
0
VERTEX
8
OBJECT022
10
0
20
0
30
0
70
128
71
5
72
4
73
-3
0
VERTEX
8
OBJECT022
10
0
20
0
30
0
70
128
71
-5
72
3
73
6
0
VERTEX
8
OBJECT022
10
0
20
0
30
0
70
128
71
8
72
1
73
-4
0
VERTEX
8
OBJECT022
10
0
20
0
30
0
70
128
71
-8
72
4
73
5
0
SEQEND
8
OBJECT022
0
POLYLINE
8
OBJECT023
66
1
70
64
71
8
72
12
62
50
0
VERTEX
8
OBJECT023
10
-92.980469
20
125.537994
30
23.171997
70
192
0
VERTEX
8
OBJECT023
10
-92.980469
20
125.537994
30
61.792969
70
192
0
VERTEX
8
OBJECT023
10
92.980988
20
125.537994
30
61.792969
70
192
0
VERTEX
8
OBJECT023
10
92.980988
20
125.537994
30
23.171997
70
192
0
VERTEX
8
OBJECT023
10
92.980988
20
128.000000
30
23.171997
70
192
0
VERTEX
8
OBJECT023
10
92.980988
20
128.000000
30
61.792969
70
192
0
VERTEX
8
OBJECT023
10
-92.980469
20
128.000000
30
61.792969
70
192
0
VERTEX
8
OBJECT023
10
-92.980469
20
128.000000
30
23.171997
70
192
0
VERTEX
8
OBJECT023
10
0
20
0
30
0
70
128
71
2
72
3
73
-4
0
VERTEX
8
OBJECT023
10
0
20
0
30
0
70
128
71
-2
72
4
73
1
0
VERTEX
8
OBJECT023
10
0
20
0
30
0
70
128
71
6
72
7
73
-8
0
VERTEX
8
OBJECT023
10
0
20
0
30
0
70
128
71
-6
72
8
73
5
0
VERTEX
8
OBJECT023
10
0
20
0
30
0
70
128
71
2
72
7
73
-6
0
VERTEX
8
OBJECT023
10
0
20
0
30
0
70
128
71
-2
72
6
73
3
0
VERTEX
8
OBJECT023
10
0
20
0
30
0
70
128
71
1
72
8
73
-7
0
VERTEX
8
OBJECT023
10
0
20
0
30
0
70
128
71
-1
72
7
73
2
0
VERTEX
8
OBJECT023
10
0
20
0
30
0
70
128
71
5
72
4
73
-3
0
VERTEX
8
OBJECT023
10
0
20
0
30
0
70
128
71
-5
72
3
73
6
0
VERTEX
8
OBJECT023
10
0
20
0
30
0
70
128
71
8
72
1
73
-4
0
VERTEX
8
OBJECT023
10
0
20
0
30
0
70
128
71
-8
72
4
73
5
0
SEQEND
8
OBJECT023
0
POLYLINE
8
OBJECT024
66
1
70
64
71
8
72
12
62
50
0
VERTEX
8
OBJECT024
10
92.980988
20
125.537994
30
-23.171997
70
192
0
VERTEX
8
OBJECT024
10
92.980988
20
125.537994
30
-61.792969
70
192
0
VERTEX
8
OBJECT024
10
-92.980469
20
125.537994
30
-61.792969
70
192
0
VERTEX
8
OBJECT024
10
-92.980469
20
125.537994
30
-23.171997
70
192
0
VERTEX
8
OBJECT024
10
-92.980469
20
128.000000
30
-23.171997
70
192
0
VERTEX
8
OBJECT024
10
-92.980469
20
128.000000
30
-61.792969
70
192
0
VERTEX
8
OBJECT024
10
92.980988
20
128.000000
30
-61.792969
70
192
0
VERTEX
8
OBJECT024
10
92.980988
20
128.000000
30
-23.171997
70
192
0
VERTEX
8
OBJECT024
10
0
20
0
30
0
70
128
71
2
72
3
73
-4
0
VERTEX
8
OBJECT024
10
0
20
0
30
0
70
128
71
-2
72
4
73
1
0
VERTEX
8
OBJECT024
10
0
20
0
30
0
70
128
71
6
72
7
73
-8
0
VERTEX
8
OBJECT024
10
0
20
0
30
0
70
128
71
-6
72
8
73
5
0
VERTEX
8
OBJECT024
10
0
20
0
30
0
70
128
71
6
72
3
73
-2
0
VERTEX
8
OBJECT024
10
0
20
0
30
0
70
128
71
-6
72
2
73
7
0
VERTEX
8
OBJECT024
10
0
20
0
30
0
70
128
71
3
72
6
73
-5
0
VERTEX
8
OBJECT024
10
0
20
0
30
0
70
128
71
-3
72
5
73
4
0
VERTEX
8
OBJECT024
10
0
20
0
30
0
70
128
71
7
72
2
73
-1
0
VERTEX
8
OBJECT024
10
0
20
0
30
0
70
128
71
-7
72
1
73
8
0
VERTEX
8
OBJECT024
10
0
20
0
30
0
70
128
71
4
72
5
73
-8
0
VERTEX
8
OBJECT024
10
0
20
0
30
0
70
128
71
-4
72
8
73
1
0
SEQEND
8
OBJECT024
0
POLYLINE
8
OBJECT025
66
1
70
64
71
8
72
12
62
50
0
VERTEX
8
OBJECT025
10
92.980469
20
125.537994
30
23.171875
70
192
0
VERTEX
8
OBJECT025
10
92.980469
20
125.537994
30
-23.171997
70
192
0
VERTEX
8
OBJECT025
10
33.811005
20
125.537994
30
-23.171997
70
192
0
VERTEX
8
OBJECT025
10
33.811005
20
125.537994
30
23.171875
70
192
0
VERTEX
8
OBJECT025
10
33.811005
20
128.000000
30
-23.171997
70
192
0
VERTEX
8
OBJECT025
10
92.980469
20
128.000000
30
-23.171997
70
192
0
VERTEX
8
OBJECT025
10
92.980469
20
128.000000
30
23.171875
70
192
0
VERTEX
8
OBJECT025
10
33.811005
20
128.000000
30
23.171875
70
192
0
VERTEX
8
OBJECT025
10
0
20
0
30
0
70
128
71
2
72
3
73
-4
0
VERTEX
8
OBJECT025
10
0
20
0
30
0
70
128
71
-2
72
4
73
1
0
VERTEX
8
OBJECT025
10
0
20
0
30
0
70
128
71
6
72
7
73
-8
0
VERTEX
8
OBJECT025
10
0
20
0
30
0
70
128
71
-6
72
8
73
5
0
VERTEX
8
OBJECT025
10
0
20
0
30
0
70
128
71
6
72
2
73
-1
0
VERTEX
8
OBJECT025
10
0
20
0
30
0
70
128
71
-6
72
1
73
7
0
VERTEX
8
OBJECT025
10
0
20
0
30
0
70
128
71
4
72
8
73
-7
0
VERTEX
8
OBJECT025
10
0
20
0
30
0
70
128
71
-4
72
7
73
1
0
VERTEX
8
OBJECT025
10
0
20
0
30
0
70
128
71
5
72
3
73
-2
0
VERTEX
8
OBJECT025
10
0
20
0
30
0
70
128
71
-5
72
2
73
6
0
VERTEX
8
OBJECT025
10
0
20
0
30
0
70
128
71
3
72
5
73
-8
0
VERTEX
8
OBJECT025
10
0
20
0
30
0
70
128
71
-3
72
8
73
4
0
SEQEND
8
OBJECT025
0
POLYLINE
8
OBJECT026
66
1
70
64
71
8
72
12
62
50
0
VERTEX
8
OBJECT026
10
-33.811005
20
125.537994
30
-23.171997
70
192
0
VERTEX
8
OBJECT026
10
-92.980469
20
125.537994
30
-23.171997
70
192
0
VERTEX
8
OBJECT026
10
-92.980469
20
125.537994
30
23.171875
70
192
0
VERTEX
8
OBJECT026
10
-33.811005
20
125.537994
30
23.171875
70
192
0
VERTEX
8
OBJECT026
10
-92.980469
20
128.000000
30
23.171875
70
192
0
VERTEX
8
OBJECT026
10
-92.980469
20
128.000000
30
-23.171997
70
192
0
VERTEX
8
OBJECT026
10
-33.811005
20
128.000000
30
-23.171997
70
192
0
VERTEX
8
OBJECT026
10
-33.811005
20
128.000000
30
23.171875
70
192
0
VERTEX
8
OBJECT026
10
0
20
0
30
0
70
128
71
2
72
3
73
-4
0
VERTEX
8
OBJECT026
10
0
20
0
30
0
70
128
71
-2
72
4
73
1
0
VERTEX
8
OBJECT026
10
0
20
0
30
0
70
128
71
6
72
7
73
-8
0
VERTEX
8
OBJECT026
10
0
20
0
30
0
70
128
71
-6
72
8
73
5
0
VERTEX
8
OBJECT026
10
0
20
0
30
0
70
128
71
2
72
6
73
-5
0
VERTEX
8
OBJECT026
10
0
20
0
30
0
70
128
71
-2
72
5
73
3
0
VERTEX
8
OBJECT026
10
0
20
0
30
0
70
128
71
3
72
5
73
-8
0
VERTEX
8
OBJECT026
10
0
20
0
30
0
70
128
71
-3
72
8
73
4
0
VERTEX
8
OBJECT026
10
0
20
0
30
0
70
128
71
6
72
2
73
-1
0
VERTEX
8
OBJECT026
10
0
20
0
30
0
70
128
71
-6
72
1
73
7
0
VERTEX
8
OBJECT026
10
0
20
0
30
0
70
128
71
7
72
1
73
-4
0
VERTEX
8
OBJECT026
10
0
20
0
30
0
70
128
71
-7
72
4
73
8
0
SEQEND
8
OBJECT026
0
POLYLINE
8
OBJECT027
66
1
70
64
71
8
72
12
62
50
0
VERTEX
8
OBJECT027
10
-125.585007
20
-92.307999
30
23.171997
70
192
0
VERTEX
8
OBJECT027
10
-125.585007
20
-92.307999
30
61.792969
70
192
0
VERTEX
8
OBJECT027
10
-125.585007
20
92.308594
30
61.792969
70
192
0
VERTEX
8
OBJECT027
10
-125.585007
20
92.308594
30
23.171997
70
192
0
VERTEX
8
OBJECT027
10
-128.000000
20
-92.307999
30
61.793030
70
192
0
VERTEX
8
OBJECT027
10
-128.000000
20
92.308594
30
61.793030
70
192
0
VERTEX
8
OBJECT027
10
-128.000000
20
92.308014
30
23.171997
70
192
0
VERTEX
8
OBJECT027
10
-128.000000
20
-92.307999
30
23.171997
70
192
0
VERTEX
8
OBJECT027
10
0
20
0
30
0
70
128
71
2
72
3
73
-4
0
VERTEX
8
OBJECT027
10
0
20
0
30
0
70
128
71
-2
72
4
73
1
0
VERTEX
8
OBJECT027
10
0
20
0
30
0
70
128
71
6
72
3
73
-2
0
VERTEX
8
OBJECT027
10
0
20
0
30
0
70
128
71
-6
72
2
73
5
0
VERTEX
8
OBJECT027
10
0
20
0
30
0
70
128
71
3
72
6
73
-7
0
VERTEX
8
OBJECT027
10
0
20
0
30
0
70
128
71
-3
72
7
73
4
0
VERTEX
8
OBJECT027
10
0
20
0
30
0
70
128
71
6
72
5
73
-8
0
VERTEX
8
OBJECT027
10
0
20
0
30
0
70
128
71
-6
72
8
73
7
0
VERTEX
8
OBJECT027
10
0
20
0
30
0
70
128
71
1
72
8
73
-5
0
VERTEX
8
OBJECT027
10
0
20
0
30
0
70
128
71
-1
72
5
73
2
0
VERTEX
8
OBJECT027
10
0
20
0
30
0
70
128
71
4
72
7
73
-8
0
VERTEX
8
OBJECT027
10
0
20
0
30
0
70
128
71
-4
72
8
73
1
0
SEQEND
8
OBJECT027
0
POLYLINE
8
OBJECT028
66
1
70
64
71
8
72
12
62
50
0
VERTEX
8
OBJECT028
10
-125.585007
20
92.308594
30
-23.171997
70
192
0
VERTEX
8
OBJECT028
10
-125.585007
20
92.308594
30
-61.792969
70
192
0
VERTEX
8
OBJECT028
10
-125.585007
20
-92.307999
30
-61.792969
70
192
0
VERTEX
8
OBJECT028
10
-125.585007
20
-92.307999
30
-23.171997
70
192
0
VERTEX
8
OBJECT028
10
-128.000000
20
92.308594
30
-61.793030
70
192
0
VERTEX
8
OBJECT028
10
-128.000000
20
-92.307999
30
-61.793030
70
192
0
VERTEX
8
OBJECT028
10
-128.000000
20
92.308014
30
-23.171997
70
192
0
VERTEX
8
OBJECT028
10
-128.000000
20
-92.307999
30
-23.171997
70
192
0
VERTEX
8
OBJECT028
10
0
20
0
30
0
70
128
71
2
72
3
73
-4
0
VERTEX
8
OBJECT028
10
0
20
0
30
0
70
128
71
-2
72
4
73
1
0
VERTEX
8
OBJECT028
10
0
20
0
30
0
70
128
71
2
72
5
73
-6
0
VERTEX
8
OBJECT028
10
0
20
0
30
0
70
128
71
-2
72
6
73
3
0
VERTEX
8
OBJECT028
10
0
20
0
30
0
70
128
71
5
72
2
73
-1
0
VERTEX
8
OBJECT028
10
0
20
0
30
0
70
128
71
-5
72
1
73
7
0
VERTEX
8
OBJECT028
10
0
20
0
30
0
70
128
71
6
72
5
73
-7
0
VERTEX
8
OBJECT028
10
0
20
0
30
0
70
128
71
-6
72
7
73
8
0
VERTEX
8
OBJECT028
10
0
20
0
30
0
70
128
71
3
72
6
73
-8
0
VERTEX
8
OBJECT028
10
0
20
0
30
0
70
128
71
-3
72
8
73
4
0
VERTEX
8
OBJECT028
10
0
20
0
30
0
70
128
71
7
72
1
73
-4
0
VERTEX
8
OBJECT028
10
0
20
0
30
0
70
128
71
-7
72
4
73
8
0
SEQEND
8
OBJECT028
0
POLYLINE
8
OBJECT029
66
1
70
64
71
8
72
12
62
50
0
VERTEX
8
OBJECT029
10
-125.585007
20
92.308594
30
23.171875
70
192
0
VERTEX
8
OBJECT029
10
-125.585007
20
92.308594
30
-23.171997
70
192
0
VERTEX
8
OBJECT029
10
-125.585007
20
34.462006
30
-23.171997
70
192
0
VERTEX
8
OBJECT029
10
-125.585007
20
34.462006
30
23.171875
70
192
0
VERTEX
8
OBJECT029
10
-128.000000
20
92.308014
30
23.171875
70
192
0
VERTEX
8
OBJECT029
10
-128.000000
20
92.308014
30
-23.171997
70
192
0
VERTEX
8
OBJECT029
10
-128.000000
20
34.462006
30
-23.171997
70
192
0
VERTEX
8
OBJECT029
10
-128.000000
20
34.462006
30
23.171875
70
192
0
VERTEX
8
OBJECT029
10
0
20
0
30
0
70
128
71
2
72
3
73
-4
0
VERTEX
8
OBJECT029
10
0
20
0
30
0
70
128
71
-2
72
4
73
1
0
VERTEX
8
OBJECT029
10
0
20
0
30
0
70
128
71
6
72
2
73
-1
0
VERTEX
8
OBJECT029
10
0
20
0
30
0
70
128
71
-6
72
1
73
5
0
VERTEX
8
OBJECT029
10
0
20
0
30
0
70
128
71
6
72
5
73
-8
0
VERTEX
8
OBJECT029
10
0
20
0
30
0
70
128
71
-6
72
8
73
7
0
VERTEX
8
OBJECT029
10
0
20
0
30
0
70
128
71
5
72
1
73
-4
0
VERTEX
8
OBJECT029
10
0
20
0
30
0
70
128
71
-5
72
4
73
8
0
VERTEX
8
OBJECT029
10
0
20
0
30
0
70
128
71
2
72
6
73
-7
0
VERTEX
8
OBJECT029
10
0
20
0
30
0
70
128
71
-2
72
7
73
3
0
VERTEX
8
OBJECT029
10
0
20
0
30
0
70
128
71
3
72
7
73
-8
0
VERTEX
8
OBJECT029
10
0
20
0
30
0
70
128
71
-3
72
8
73
4
0
SEQEND
8
OBJECT029
0
POLYLINE
8
OBJECT030
66
1
70
64
71
8
72
12
62
50
0
VERTEX
8
OBJECT030
10
-125.585007
20
-34.462006
30
-23.171997
70
192
0
VERTEX
8
OBJECT030
10
-125.585007
20
-92.308594
30
-23.171997
70
192
0
VERTEX
8
OBJECT030
10
-125.585007
20
-92.308594
30
23.171875
70
192
0
VERTEX
8
OBJECT030
10
-125.585007
20
-34.462006
30
23.171875
70
192
0
VERTEX
8
OBJECT030
10
-128.000000
20
-92.308594
30
23.171875
70
192
0
VERTEX
8
OBJECT030
10
-128.000000
20
-92.308594
30
-23.171997
70
192
0
VERTEX
8
OBJECT030
10
-128.000000
20
-34.462006
30
-23.171997
70
192
0
VERTEX
8
OBJECT030
10
-128.000000
20
-34.462006
30
23.171875
70
192
0
VERTEX
8
OBJECT030
10
0
20
0
30
0
70
128
71
2
72
3
73
-4
0
VERTEX
8
OBJECT030
10
0
20
0
30
0
70
128
71
-2
72
4
73
1
0
VERTEX
8
OBJECT030
10
0
20
0
30
0
70
128
71
6
72
7
73
-8
0
VERTEX
8
OBJECT030
10
0
20
0
30
0
70
128
71
-6
72
8
73
5
0
VERTEX
8
OBJECT030
10
0
20
0
30
0
70
128
71
2
72
6
73
-5
0
VERTEX
8
OBJECT030
10
0
20
0
30
0
70
128
71
-2
72
5
73
3
0
VERTEX
8
OBJECT030
10
0
20
0
30
0
70
128
71
8
72
4
73
-3
0
VERTEX
8
OBJECT030
10
0
20
0
30
0
70
128
71
-8
72
3
73
5
0
VERTEX
8
OBJECT030
10
0
20
0
30
0
70
128
71
6
72
2
73
-1
0
VERTEX
8
OBJECT030
10
0
20
0
30
0
70
128
71
-6
72
1
73
7
0
VERTEX
8
OBJECT030
10
0
20
0
30
0
70
128
71
7
72
1
73
-4
0
VERTEX
8
OBJECT030
10
0
20
0
30
0
70
128
71
-7
72
4
73
8
0
SEQEND
8
OBJECT030
0
POLYLINE
8
OBJECT031
66
1
70
64
71
8
72
12
62
50
0
VERTEX
8
OBJECT031
10
125.585938
20
-92.307999
30
61.793030
70
192
0
VERTEX
8
OBJECT031
10
125.585938
20
92.308594
30
61.793030
70
192
0
VERTEX
8
OBJECT031
10
128.000000
20
92.308594
30
61.793030
70
192
0
VERTEX
8
OBJECT031
10
128.000000
20
-92.307999
30
61.793030
70
192
0
VERTEX
8
OBJECT031
10
125.584991
20
92.308594
30
23.171997
70
192
0
VERTEX
8
OBJECT031
10
125.584991
20
-92.307999
30
23.171997
70
192
0
VERTEX
8
OBJECT031
10
128.000000
20
92.308014
30
23.171997
70
192
0
VERTEX
8
OBJECT031
10
128.000000
20
-92.307999
30
23.171997
70
192
0
VERTEX
8
OBJECT031
10
0
20
0
30
0
70
128
71
2
72
3
73
-4
0
VERTEX
8
OBJECT031
10
0
20
0
30
0
70
128
71
-2
72
4
73
1
0
VERTEX
8
OBJECT031
10
0
20
0
30
0
70
128
71
2
72
1
73
-6
0
VERTEX
8
OBJECT031
10
0
20
0
30
0
70
128
71
-2
72
6
73
5
0
VERTEX
8
OBJECT031
10
0
20
0
30
0
70
128
71
3
72
2
73
-5
0
VERTEX
8
OBJECT031
10
0
20
0
30
0
70
128
71
-3
72
5
73
7
0
VERTEX
8
OBJECT031
10
0
20
0
30
0
70
128
71
4
72
3
73
-7
0
VERTEX
8
OBJECT031
10
0
20
0
30
0
70
128
71
-4
72
7
73
8
0
VERTEX
8
OBJECT031
10
0
20
0
30
0
70
128
71
1
72
4
73
-8
0
VERTEX
8
OBJECT031
10
0
20
0
30
0
70
128
71
-1
72
8
73
6
0
VERTEX
8
OBJECT031
10
0
20
0
30
0
70
128
71
5
72
6
73
-8
0
VERTEX
8
OBJECT031
10
0
20
0
30
0
70
128
71
-5
72
8
73
7
0
SEQEND
8
OBJECT031
0
POLYLINE
8
OBJECT032
66
1
70
64
71
8
72
12
62
50
0
VERTEX
8
OBJECT032
10
128.000000
20
92.308594
30
-61.793030
70
192
0
VERTEX
8
OBJECT032
10
125.585938
20
92.308594
30
-61.793030
70
192
0
VERTEX
8
OBJECT032
10
125.585938
20
-92.307999
30
-61.793030
70
192
0
VERTEX
8
OBJECT032
10
128.000000
20
-92.307999
30
-61.793030
70
192
0
VERTEX
8
OBJECT032
10
125.584991
20
-92.307999
30
-23.171997
70
192
0
VERTEX
8
OBJECT032
10
125.584991
20
92.308594
30
-23.171997
70
192
0
VERTEX
8
OBJECT032
10
128.000000
20
92.308014
30
-23.171997
70
192
0
VERTEX
8
OBJECT032
10
128.000000
20
-92.307999
30
-23.171997
70
192
0
VERTEX
8
OBJECT032
10
0
20
0
30
0
70
128
71
2
72
3
73
-4
0
VERTEX
8
OBJECT032
10
0
20
0
30
0
70
128
71
-2
72
4
73
1
0
VERTEX
8
OBJECT032
10
0
20
0
30
0
70
128
71
3
72
2
73
-6
0
VERTEX
8
OBJECT032
10
0
20
0
30
0
70
128
71
-3
72
6
73
5
0
VERTEX
8
OBJECT032
10
0
20
0
30
0
70
128
71
2
72
1
73
-7
0
VERTEX
8
OBJECT032
10
0
20
0
30
0
70
128
71
-2
72
7
73
6
0
VERTEX
8
OBJECT032
10
0
20
0
30
0
70
128
71
1
72
4
73
-8
0
VERTEX
8
OBJECT032
10
0
20
0
30
0
70
128
71
-1
72
8
73
7
0
VERTEX
8
OBJECT032
10
0
20
0
30
0
70
128
71
4
72
3
73
-5
0
VERTEX
8
OBJECT032
10
0
20
0
30
0
70
128
71
-4
72
5
73
8
0
VERTEX
8
OBJECT032
10
0
20
0
30
0
70
128
71
6
72
7
73
-8
0
VERTEX
8
OBJECT032
10
0
20
0
30
0
70
128
71
-6
72
8
73
5
0
SEQEND
8
OBJECT032
0
POLYLINE
8
OBJECT033
66
1
70
64
71
8
72
12
62
50
0
VERTEX
8
OBJECT033
10
125.584991
20
34.462006
30
-23.171997
70
192
0
VERTEX
8
OBJECT033
10
125.584991
20
92.308594
30
-23.171997
70
192
0
VERTEX
8
OBJECT033
10
125.584991
20
92.308594
30
23.171875
70
192
0
VERTEX
8
OBJECT033
10
125.584991
20
34.462006
30
23.171875
70
192
0
VERTEX
8
OBJECT033
10
128.000000
20
92.308014
30
-23.171997
70
192
0
VERTEX
8
OBJECT033
10
128.000000
20
92.308014
30
23.171875
70
192
0
VERTEX
8
OBJECT033
10
128.000000
20
34.462006
30
-23.171997
70
192
0
VERTEX
8
OBJECT033
10
128.000000
20
34.462006
30
23.171875
70
192
0
VERTEX
8
OBJECT033
10
0
20
0
30
0
70
128
71
2
72
3
73
-4
0
VERTEX
8
OBJECT033
10
0
20
0
30
0
70
128
71
-2
72
4
73
1
0
VERTEX
8
OBJECT033
10
0
20
0
30
0
70
128
71
2
72
5
73
-6
0
VERTEX
8
OBJECT033
10
0
20
0
30
0
70
128
71
-2
72
6
73
3
0
VERTEX
8
OBJECT033
10
0
20
0
30
0
70
128
71
5
72
7
73
-8
0
VERTEX
8
OBJECT033
10
0
20
0
30
0
70
128
71
-5
72
8
73
6
0
VERTEX
8
OBJECT033
10
0
20
0
30
0
70
128
71
3
72
6
73
-8
0
VERTEX
8
OBJECT033
10
0
20
0
30
0
70
128
71
-3
72
8
73
4
0
VERTEX
8
OBJECT033
10
0
20
0
30
0
70
128
71
2
72
1
73
-7
0
VERTEX
8
OBJECT033
10
0
20
0
30
0
70
128
71
-2
72
7
73
5
0
VERTEX
8
OBJECT033
10
0
20
0
30
0
70
128
71
7
72
1
73
-4
0
VERTEX
8
OBJECT033
10
0
20
0
30
0
70
128
71
-7
72
4
73
8
0
SEQEND
8
OBJECT033
0
POLYLINE
8
OBJECT034
66
1
70
64
71
8
72
12
62
50
0
VERTEX
8
OBJECT034
10
125.584991
20
-92.308594
30
23.171875
70
192
0
VERTEX
8
OBJECT034
10
125.584991
20
-92.308594
30
-23.171997
70
192
0
VERTEX
8
OBJECT034
10
125.584991
20
-34.462006
30
-23.171997
70
192
0
VERTEX
8
OBJECT034
10
125.584991
20
-34.462006
30
23.171875
70
192
0
VERTEX
8
OBJECT034
10
128.000000
20
-34.462006
30
-23.171997
70
192
0
VERTEX
8
OBJECT034
10
128.000000
20
-92.308594
30
-23.171997
70
192
0
VERTEX
8
OBJECT034
10
128.000000
20
-92.308594
30
23.171875
70
192
0
VERTEX
8
OBJECT034
10
128.000000
20
-34.462006
30
23.171875
70
192
0
VERTEX
8
OBJECT034
10
0
20
0
30
0
70
128
71
2
72
3
73
-4
0
VERTEX
8
OBJECT034
10
0
20
0
30
0
70
128
71
-2
72
4
73
1
0
VERTEX
8
OBJECT034
10
0
20
0
30
0
70
128
71
6
72
7
73
-8
0
VERTEX
8
OBJECT034
10
0
20
0
30
0
70
128
71
-6
72
8
73
5
0
VERTEX
8
OBJECT034
10
0
20
0
30
0
70
128
71
6
72
2
73
-1
0
VERTEX
8
OBJECT034
10
0
20
0
30
0
70
128
71
-6
72
1
73
7
0
VERTEX
8
OBJECT034
10
0
20
0
30
0
70
128
71
4
72
8
73
-7
0
VERTEX
8
OBJECT034
10
0
20
0
30
0
70
128
71
-4
72
7
73
1
0
VERTEX
8
OBJECT034
10
0
20
0
30
0
70
128
71
2
72
6
73
-5
0
VERTEX
8
OBJECT034
10
0
20
0
30
0
70
128
71
-2
72
5
73
3
0
VERTEX
8
OBJECT034
10
0
20
0
30
0
70
128
71
3
72
5
73
-8
0
VERTEX
8
OBJECT034
10
0
20
0
30
0
70
128
71
-3
72
8
73
4
0
SEQEND
8
OBJECT034
0
ENDSEC
0
EOF
