0
SECTION
2
HEADER
9
$ACADVER
1
AC1008
9
$UCSORG
10
0.0
20
0.0
30
0.0
9
$UCSXDIR
10
1.0
20
0.0
30
0.0
9
$TILEMODE
70
1
9
$UCSYDIR
10
0.0
20
1.0
30
0.0
9
$EXTMIN
10
-171.000000
20
-221.000000
30
-59.350739
9
$EXTMAX
10
121.000000
20
158.000000
30
59.350723
0
ENDSEC
0
SECTION
2
TABLES
0
TABLE
2
LTYPE
70
1
0
LTYPE
2
CONTINUOUS
70
64
3
Solid line
72
65
73
0
40
0.0
0
ENDTAB
0
TABLE
2
LAYER
70
1
0
LAYER
2
0
70
0
62
7
6
CONTINUOUS
0
ENDTAB
0
TABLE
2
STYLE
70
1
0
STYLE
2
STANDARD
70
0
40
0.0
41
1.0
50
0.0
71
0
42
0.2
3
txt
4

0
ENDTAB
0
TABLE
2
UCS
70
0
0
ENDTAB
0
ENDSEC
0
SECTION
2
ENTITIES
0
POLYLINE
8
OBJECT000
66
1
70
64
71
8
72
12
62
50
0
VERTEX
8
OBJECT000
10
-59.000000
20
-37.480042
30
-11.727524
70
192
0
VERTEX
8
OBJECT000
10
-59.000000
20
141.860168
30
35.895798
70
192
0
VERTEX
8
OBJECT000
10
-59.000000
20
137.679993
30
51.350273
70
192
0
VERTEX
8
OBJECT000
10
-59.000000
20
-41.660034
30
3.727280
70
192
0
VERTEX
8
OBJECT000
10
101.000000
20
141.860474
30
35.894485
70
192
0
VERTEX
8
OBJECT000
10
21.000000
20
-37.479736
30
-11.728836
70
192
0
VERTEX
8
OBJECT000
10
21.000000
20
-41.660034
30
3.727280
70
192
0
VERTEX
8
OBJECT000
10
101.000000
20
137.679993
30
51.350273
70
192
0
VERTEX
8
OBJECT000
10
0
20
0
30
0
70
128
71
2
72
3
73
-4
0
VERTEX
8
OBJECT000
10
0
20
0
30
0
70
128
71
-2
72
4
73
1
0
VERTEX
8
OBJECT000
10
0
20
0
30
0
70
128
71
6
72
7
73
-8
0
VERTEX
8
OBJECT000
10
0
20
0
30
0
70
128
71
-6
72
8
73
5
0
VERTEX
8
OBJECT000
10
0
20
0
30
0
70
128
71
1
72
6
73
-5
0
VERTEX
8
OBJECT000
10
0
20
0
30
0
70
128
71
-1
72
5
73
2
0
VERTEX
8
OBJECT000
10
0
20
0
30
0
70
128
71
3
72
8
73
-7
0
VERTEX
8
OBJECT000
10
0
20
0
30
0
70
128
71
-3
72
7
73
4
0
VERTEX
8
OBJECT000
10
0
20
0
30
0
70
128
71
2
72
5
73
-8
0
VERTEX
8
OBJECT000
10
0
20
0
30
0
70
128
71
-2
72
8
73
3
0
VERTEX
8
OBJECT000
10
0
20
0
30
0
70
128
71
6
72
1
73
-4
0
VERTEX
8
OBJECT000
10
0
20
0
30
0
70
128
71
-6
72
4
73
7
0
SEQEND
8
OBJECT000
0
POLYLINE
8
OBJECT001
66
1
70
64
71
14
72
24
62
50
0
VERTEX
8
OBJECT001
10
109.000000
20
141.590210
30
36.858772
70
192
0
VERTEX
8
OBJECT001
10
101.000000
20
141.859863
30
35.893845
70
192
0
VERTEX
8
OBJECT001
10
21.000000
20
-37.488892
30
-11.729034
70
192
0
VERTEX
8
OBJECT001
10
29.000000
20
-37.749512
30
-10.762329
70
192
0
VERTEX
8
OBJECT001
10
21.000000
20
-41.658142
30
3.726013
70
192
0
VERTEX
8
OBJECT001
10
101.000000
20
137.679810
30
51.350990
70
192
0
VERTEX
8
OBJECT001
10
29.000000
20
-41.397644
30
2.757492
70
192
0
VERTEX
8
OBJECT001
10
35.000000
20
-40.617859
30
-0.132324
70
192
0
VERTEX
8
OBJECT001
10
37.000000
20
-39.572998
30
-4.005005
70
192
0
VERTEX
8
OBJECT001
10
35.000000
20
-38.532410
30
-7.861938
70
192
0
VERTEX
8
OBJECT001
10
115.000000
20
140.799805
30
39.758553
70
192
0
VERTEX
8
OBJECT001
10
117.000000
20
139.754333
30
43.616409
70
192
0
VERTEX
8
OBJECT001
10
115.000000
20
138.709961
30
47.486526
70
192
0
VERTEX
8
OBJECT001
10
109.000000
20
137.933960
30
50.380226
70
192
0
VERTEX
8
OBJECT001
10
0
20
0
30
0
70
128
71
2
72
3
73
-4
0
VERTEX
8
OBJECT001
10
0
20
0
30
0
70
128
71
-2
72
4
73
1
0
VERTEX
8
OBJECT001
10
0
20
0
30
0
70
128
71
3
72
2
73
-6
0
VERTEX
8
OBJECT001
10
0
20
0
30
0
70
128
71
-3
72
6
73
5
0
VERTEX
8
OBJECT001
10
0
20
0
30
0
70
128
71
3
72
5
73
-7
0
VERTEX
8
OBJECT001
10
0
20
0
30
0
70
128
71
-3
72
7
73
-8
0
VERTEX
8
OBJECT001
10
0
20
0
30
0
70
128
71
-3
72
8
73
-9
0
VERTEX
8
OBJECT001
10
0
20
0
30
0
70
128
71
-3
72
9
73
-10
0
VERTEX
8
OBJECT001
10
0
20
0
30
0
70
128
71
-3
72
10
73
4
0
VERTEX
8
OBJECT001
10
0
20
0
30
0
70
128
71
2
72
1
73
-11
0
VERTEX
8
OBJECT001
10
0
20
0
30
0
70
128
71
-2
72
11
73
-12
0
VERTEX
8
OBJECT001
10
0
20
0
30
0
70
128
71
-2
72
12
73
-13
0
VERTEX
8
OBJECT001
10
0
20
0
30
0
70
128
71
-2
72
13
73
-14
0
VERTEX
8
OBJECT001
10
0
20
0
30
0
70
128
71
-2
72
14
73
6
0
VERTEX
8
OBJECT001
10
0
20
0
30
0
70
128
71
6
72
14
73
-7
0
VERTEX
8
OBJECT001
10
0
20
0
30
0
70
128
71
-6
72
7
73
5
0
VERTEX
8
OBJECT001
10
0
20
0
30
0
70
128
71
13
72
8
73
-7
0
VERTEX
8
OBJECT001
10
0
20
0
30
0
70
128
71
-13
72
7
73
14
0
VERTEX
8
OBJECT001
10
0
20
0
30
0
70
128
71
8
72
13
73
-12
0
VERTEX
8
OBJECT001
10
0
20
0
30
0
70
128
71
-8
72
12
73
9
0
VERTEX
8
OBJECT001
10
0
20
0
30
0
70
128
71
11
72
10
73
-9
0
VERTEX
8
OBJECT001
10
0
20
0
30
0
70
128
71
-11
72
9
73
12
0
VERTEX
8
OBJECT001
10
0
20
0
30
0
70
128
71
1
72
4
73
-10
0
VERTEX
8
OBJECT001
10
0
20
0
30
0
70
128
71
-1
72
10
73
11
0
SEQEND
8
OBJECT001
0
POLYLINE
8
OBJECT002
66
1
70
64
71
14
72
24
62
50
0
VERTEX
8
OBJECT002
10
-59.000000
20
141.859985
30
35.895325
70
192
0
VERTEX
8
OBJECT002
10
-59.000000
20
-37.480591
30
-11.726852
70
192
0
VERTEX
8
OBJECT002
10
-59.000000
20
-41.669983
30
3.727203
70
192
0
VERTEX
8
OBJECT002
10
-59.000000
20
137.679688
30
51.351379
70
192
0
VERTEX
8
OBJECT002
10
-67.000000
20
137.940063
30
50.383057
70
192
0
VERTEX
8
OBJECT002
10
-67.000000
20
-41.406555
30
2.759293
70
192
0
VERTEX
8
OBJECT002
10
-67.000000
20
-37.742126
30
-10.757645
70
192
0
VERTEX
8
OBJECT002
10
-67.000000
20
141.596436
30
36.864059
70
192
0
VERTEX
8
OBJECT002
10
-73.000000
20
-38.524719
30
-7.865036
70
192
0
VERTEX
8
OBJECT002
10
-75.000000
20
-39.572388
30
-3.999786
70
192
0
VERTEX
8
OBJECT002
10
-73.000000
20
-40.620911
30
-0.134109
70
192
0
VERTEX
8
OBJECT002
10
-73.000000
20
138.722046
30
47.486320
70
192
0
VERTEX
8
OBJECT002
10
-75.000000
20
139.766541
30
43.623055
70
192
0
VERTEX
8
OBJECT002
10
-73.000000
20
140.812988
30
39.755562
70
192
0
VERTEX
8
OBJECT002
10
0
20
0
30
0
70
128
71
2
72
3
73
-4
0
VERTEX
8
OBJECT002
10
0
20
0
30
0
70
128
71
-2
72
4
73
1
0
VERTEX
8
OBJECT002
10
0
20
0
30
0
70
128
71
4
72
3
73
-6
0
VERTEX
8
OBJECT002
10
0
20
0
30
0
70
128
71
-4
72
6
73
5
0
VERTEX
8
OBJECT002
10
0
20
0
30
0
70
128
71
2
72
1
73
-8
0
VERTEX
8
OBJECT002
10
0
20
0
30
0
70
128
71
-2
72
8
73
7
0
VERTEX
8
OBJECT002
10
0
20
0
30
0
70
128
71
2
72
7
73
-9
0
VERTEX
8
OBJECT002
10
0
20
0
30
0
70
128
71
-2
72
9
73
-10
0
VERTEX
8
OBJECT002
10
0
20
0
30
0
70
128
71
-2
72
10
73
-11
0
VERTEX
8
OBJECT002
10
0
20
0
30
0
70
128
71
-2
72
11
73
-6
0
VERTEX
8
OBJECT002
10
0
20
0
30
0
70
128
71
-2
72
6
73
3
0
VERTEX
8
OBJECT002
10
0
20
0
30
0
70
128
71
4
72
5
73
-12
0
VERTEX
8
OBJECT002
10
0
20
0
30
0
70
128
71
-4
72
12
73
-13
0
VERTEX
8
OBJECT002
10
0
20
0
30
0
70
128
71
-4
72
13
73
-14
0
VERTEX
8
OBJECT002
10
0
20
0
30
0
70
128
71
-4
72
14
73
-8
0
VERTEX
8
OBJECT002
10
0
20
0
30
0
70
128
71
-4
72
8
73
1
0
VERTEX
8
OBJECT002
10
0
20
0
30
0
70
128
71
7
72
8
73
-14
0
VERTEX
8
OBJECT002
10
0
20
0
30
0
70
128
71
-7
72
14
73
9
0
VERTEX
8
OBJECT002
10
0
20
0
30
0
70
128
71
13
72
10
73
-9
0
VERTEX
8
OBJECT002
10
0
20
0
30
0
70
128
71
-13
72
9
73
14
0
VERTEX
8
OBJECT002
10
0
20
0
30
0
70
128
71
12
72
11
73
-10
0
VERTEX
8
OBJECT002
10
0
20
0
30
0
70
128
71
-12
72
10
73
13
0
VERTEX
8
OBJECT002
10
0
20
0
30
0
70
128
71
5
72
6
73
-11
0
VERTEX
8
OBJECT002
10
0
20
0
30
0
70
128
71
-5
72
11
73
12
0
SEQEND
8
OBJECT002
0
POLYLINE
8
OBJECT003
66
1
70
64
71
6
72
8
62
50
0
VERTEX
8
OBJECT003
10
21.000000
20
-37.478882
30
-11.727203
70
192
0
VERTEX
8
OBJECT003
10
-59.000000
20
-37.478882
30
-11.727203
70
192
0
VERTEX
8
OBJECT003
10
-155.000000
20
-216.822998
30
-59.350739
70
192
0
VERTEX
8
OBJECT003
10
-155.000000
20
-221.000000
30
-43.893921
70
192
0
VERTEX
8
OBJECT003
10
-59.000000
20
-41.658936
30
3.728119
70
192
0
VERTEX
8
OBJECT003
10
21.000000
20
-41.658936
30
3.728119
70
192
0
VERTEX
8
OBJECT003
10
0
20
0
30
0
70
128
71
2
72
3
73
1
0
VERTEX
8
OBJECT003
10
0
20
0
30
0
70
128
71
5
72
6
73
4
0
VERTEX
8
OBJECT003
10
0
20
0
30
0
70
128
71
2
72
5
73
-4
0
VERTEX
8
OBJECT003
10
0
20
0
30
0
70
128
71
-2
72
4
73
3
0
VERTEX
8
OBJECT003
10
0
20
0
30
0
70
128
71
1
72
6
73
-5
0
VERTEX
8
OBJECT003
10
0
20
0
30
0
70
128
71
-1
72
5
73
2
0
VERTEX
8
OBJECT003
10
0
20
0
30
0
70
128
71
3
72
4
73
-6
0
VERTEX
8
OBJECT003
10
0
20
0
30
0
70
128
71
-3
72
6
73
1
0
SEQEND
8
OBJECT003
0
POLYLINE
8
OBJECT004
66
1
70
64
71
14
72
24
62
50
0
VERTEX
8
OBJECT004
10
-67.000000
20
-41.397522
30
2.763626
70
192
0
VERTEX
8
OBJECT004
10
-59.000000
20
-41.657471
30
3.728485
70
192
0
VERTEX
8
OBJECT004
10
-155.000000
20
-220.979736
30
-43.891617
70
192
0
VERTEX
8
OBJECT004
10
-162.984558
20
-220.730225
30
-44.856506
70
192
0
VERTEX
8
OBJECT004
10
-155.000000
20
-216.819946
30
-59.350739
70
192
0
VERTEX
8
OBJECT004
10
-59.000000
20
-37.479919
30
-11.729324
70
192
0
VERTEX
8
OBJECT004
10
-73.000000
20
-40.614868
30
-0.139832
70
192
0
VERTEX
8
OBJECT004
10
-75.000000
20
-39.571289
30
-3.999298
70
192
0
VERTEX
8
OBJECT004
10
-73.000000
20
-38.527039
30
-7.859451
70
192
0
VERTEX
8
OBJECT004
10
-67.000000
20
-37.741333
30
-10.761795
70
192
0
VERTEX
8
OBJECT004
10
-163.000000
20
-217.089111
30
-58.387192
70
192
0
VERTEX
8
OBJECT004
10
-169.000000
20
-217.877319
30
-55.486496
70
192
0
VERTEX
8
OBJECT004
10
-171.000000
20
-218.920532
30
-51.618958
70
192
0
VERTEX
8
OBJECT004
10
-169.000000
20
-219.954102
30
-47.768219
70
192
0
VERTEX
8
OBJECT004
10
0
20
0
30
0
70
128
71
2
72
3
73
-4
0
VERTEX
8
OBJECT004
10
0
20
0
30
0
70
128
71
-2
72
4
73
1
0
VERTEX
8
OBJECT004
10
0
20
0
30
0
70
128
71
3
72
2
73
-6
0
VERTEX
8
OBJECT004
10
0
20
0
30
0
70
128
71
-3
72
6
73
5
0
VERTEX
8
OBJECT004
10
0
20
0
30
0
70
128
71
2
72
1
73
-7
0
VERTEX
8
OBJECT004
10
0
20
0
30
0
70
128
71
-2
72
7
73
-8
0
VERTEX
8
OBJECT004
10
0
20
0
30
0
70
128
71
-2
72
8
73
-9
0
VERTEX
8
OBJECT004
10
0
20
0
30
0
70
128
71
-2
72
9
73
-10
0
VERTEX
8
OBJECT004
10
0
20
0
30
0
70
128
71
-2
72
10
73
6
0
VERTEX
8
OBJECT004
10
0
20
0
30
0
70
128
71
3
72
5
73
-11
0
VERTEX
8
OBJECT004
10
0
20
0
30
0
70
128
71
-3
72
11
73
-12
0
VERTEX
8
OBJECT004
10
0
20
0
30
0
70
128
71
-3
72
12
73
-13
0
VERTEX
8
OBJECT004
10
0
20
0
30
0
70
128
71
-3
72
13
73
-14
0
VERTEX
8
OBJECT004
10
0
20
0
30
0
70
128
71
-3
72
14
73
4
0
VERTEX
8
OBJECT004
10
0
20
0
30
0
70
128
71
5
72
6
73
-10
0
VERTEX
8
OBJECT004
10
0
20
0
30
0
70
128
71
-5
72
10
73
11
0
VERTEX
8
OBJECT004
10
0
20
0
30
0
70
128
71
11
72
10
73
-9
0
VERTEX
8
OBJECT004
10
0
20
0
30
0
70
128
71
-11
72
9
73
12
0
VERTEX
8
OBJECT004
10
0
20
0
30
0
70
128
71
8
72
13
73
-12
0
VERTEX
8
OBJECT004
10
0
20
0
30
0
70
128
71
-8
72
12
73
9
0
VERTEX
8
OBJECT004
10
0
20
0
30
0
70
128
71
7
72
14
73
-13
0
VERTEX
8
OBJECT004
10
0
20
0
30
0
70
128
71
-7
72
13
73
8
0
VERTEX
8
OBJECT004
10
0
20
0
30
0
70
128
71
1
72
4
73
-14
0
VERTEX
8
OBJECT004
10
0
20
0
30
0
70
128
71
-1
72
14
73
7
0
SEQEND
8
OBJECT004
0
POLYLINE
8
OBJECT005
66
1
70
64
71
14
72
24
62
50
0
VERTEX
8
OBJECT005
10
29.000000
20
-37.741211
30
-10.759857
70
192
0
VERTEX
8
OBJECT005
10
21.000000
20
-37.480713
30
-11.727539
70
192
0
VERTEX
8
OBJECT005
10
-154.958862
20
-216.779663
30
-59.339005
70
192
0
VERTEX
8
OBJECT005
10
-146.956482
20
-217.050171
30
-58.373062
70
192
0
VERTEX
8
OBJECT005
10
-155.000000
20
-221.000000
30
-43.892059
70
192
0
VERTEX
8
OBJECT005
10
20.989746
20
-41.671326
30
3.732941
70
192
0
VERTEX
8
OBJECT005
10
35.000000
20
-38.525879
30
-7.860260
70
192
0
VERTEX
8
OBJECT005
10
37.000000
20
-39.570801
30
-4.003708
70
192
0
VERTEX
8
OBJECT005
10
35.000000
20
-40.614990
30
-0.153061
70
192
0
VERTEX
8
OBJECT005
10
28.971680
20
-41.407837
30
2.766754
70
192
0
VERTEX
8
OBJECT005
10
-147.000000
20
-220.742310
30
-44.861786
70
192
0
VERTEX
8
OBJECT005
10
-141.000000
20
-219.953003
30
-47.768433
70
192
0
VERTEX
8
OBJECT005
10
-139.000000
20
-218.901978
30
-51.621033
70
192
0
VERTEX
8
OBJECT005
10
-141.000000
20
-217.843872
30
-55.487488
70
192
0
VERTEX
8
OBJECT005
10
0
20
0
30
0
70
128
71
2
72
3
73
-4
0
VERTEX
8
OBJECT005
10
0
20
0
30
0
70
128
71
-2
72
4
73
1
0
VERTEX
8
OBJECT005
10
0
20
0
30
0
70
128
71
3
72
2
73
-6
0
VERTEX
8
OBJECT005
10
0
20
0
30
0
70
128
71
-3
72
6
73
5
0
VERTEX
8
OBJECT005
10
0
20
0
30
0
70
128
71
2
72
1
73
-7
0
VERTEX
8
OBJECT005
10
0
20
0
30
0
70
128
71
-2
72
7
73
-8
0
VERTEX
8
OBJECT005
10
0
20
0
30
0
70
128
71
-2
72
8
73
-9
0
VERTEX
8
OBJECT005
10
0
20
0
30
0
70
128
71
-2
72
9
73
-10
0
VERTEX
8
OBJECT005
10
0
20
0
30
0
70
128
71
-2
72
10
73
6
0
VERTEX
8
OBJECT005
10
0
20
0
30
0
70
128
71
3
72
5
73
-11
0
VERTEX
8
OBJECT005
10
0
20
0
30
0
70
128
71
-3
72
11
73
-12
0
VERTEX
8
OBJECT005
10
0
20
0
30
0
70
128
71
-3
72
12
73
-13
0
VERTEX
8
OBJECT005
10
0
20
0
30
0
70
128
71
-3
72
13
73
-14
0
VERTEX
8
OBJECT005
10
0
20
0
30
0
70
128
71
-3
72
14
73
4
0
VERTEX
8
OBJECT005
10
0
20
0
30
0
70
128
71
6
72
10
73
-11
0
VERTEX
8
OBJECT005
10
0
20
0
30
0
70
128
71
-6
72
11
73
5
0
VERTEX
8
OBJECT005
10
0
20
0
30
0
70
128
71
11
72
10
73
-9
0
VERTEX
8
OBJECT005
10
0
20
0
30
0
70
128
71
-11
72
9
73
12
0
VERTEX
8
OBJECT005
10
0
20
0
30
0
70
128
71
12
72
9
73
-8
0
VERTEX
8
OBJECT005
10
0
20
0
30
0
70
128
71
-12
72
8
73
13
0
VERTEX
8
OBJECT005
10
0
20
0
30
0
70
128
71
7
72
14
73
-13
0
VERTEX
8
OBJECT005
10
0
20
0
30
0
70
128
71
-7
72
13
73
8
0
VERTEX
8
OBJECT005
10
0
20
0
30
0
70
128
71
1
72
4
73
-14
0
VERTEX
8
OBJECT005
10
0
20
0
30
0
70
128
71
-1
72
14
73
7
0
SEQEND
8
OBJECT005
0
POLYLINE
8
OBJECT006
66
1
70
64
71
24
72
44
62
50
0
VERTEX
8
OBJECT006
10
-79.000000
20
133.525269
30
57.151329
70
192
0
VERTEX
8
OBJECT006
10
-79.000000
20
127.750122
30
51.227325
70
192
0
VERTEX
8
OBJECT006
10
-79.000000
20
125.458862
30
43.296494
70
192
0
VERTEX
8
OBJECT006
10
-79.000000
20
127.677917
30
35.102310
70
192
0
VERTEX
8
OBJECT006
10
-79.000000
20
133.659973
30
29.369263
70
192
0
VERTEX
8
OBJECT006
10
-79.000000
20
141.658997
30
27.101257
70
192
0
VERTEX
8
OBJECT006
10
-79.000000
20
149.928650
30
29.297913
70
192
0
VERTEX
8
OBJECT006
10
-79.000000
20
155.708984
30
35.225189
70
192
0
VERTEX
8
OBJECT006
10
-79.000000
20
158.000000
30
43.156693
70
192
0
VERTEX
8
OBJECT006
10
-79.000000
20
155.779236
30
51.353027
70
192
0
VERTEX
8
OBJECT006
10
-79.000000
20
149.802246
30
57.083046
70
192
0
VERTEX
8
OBJECT006
10
-79.000000
20
141.800476
30
59.350113
70
192
0
VERTEX
8
OBJECT006
10
121.000000
20
127.677917
30
35.102310
70
192
0
VERTEX
8
OBJECT006
10
121.000000
20
125.458862
30
43.296494
70
192
0
VERTEX
8
OBJECT006
10
121.000000
20
127.748474
30
51.221733
70
192
0
VERTEX
8
OBJECT006
10
121.000000
20
133.530090
30
57.152344
70
192
0
VERTEX
8
OBJECT006
10
121.000000
20
141.802185
30
59.350311
70
192
0
VERTEX
8
OBJECT006
10
121.000000
20
149.811768
30
57.081024
70
192
0
VERTEX
8
OBJECT006
10
121.000000
20
155.776672
30
51.362625
70
192
0
VERTEX
8
OBJECT006
10
121.000000
20
158.000000
30
43.155731
70
192
0
VERTEX
8
OBJECT006
10
121.000000
20
155.709839
30
35.226044
70
192
0
VERTEX
8
OBJECT006
10
121.000000
20
149.928711
30
29.297928
70
192
0
VERTEX
8
OBJECT006
10
121.000000
20
141.658997
30
27.101257
70
192
0
VERTEX
8
OBJECT006
10
121.000000
20
133.659973
30
29.369263
70
192
0
VERTEX
8
OBJECT006
10
0
20
0
30
0
70
128
71
2
72
3
73
-4
0
VERTEX
8
OBJECT006
10
0
20
0
30
0
70
128
71
-2
72
4
73
-5
0
VERTEX
8
OBJECT006
10
0
20
0
30
0
70
128
71
-2
72
5
73
-6
0
VERTEX
8
OBJECT006
10
0
20
0
30
0
70
128
71
-2
72
6
73
-7
0
VERTEX
8
OBJECT006
10
0
20
0
30
0
70
128
71
-2
72
7
73
-8
0
VERTEX
8
OBJECT006
10
0
20
0
30
0
70
128
71
-2
72
8
73
-9
0
VERTEX
8
OBJECT006
10
0
20
0
30
0
70
128
71
-2
72
9
73
-10
0
VERTEX
8
OBJECT006
10
0
20
0
30
0
70
128
71
-2
72
10
73
-11
0
VERTEX
8
OBJECT006
10
0
20
0
30
0
70
128
71
-2
72
11
73
-12
0
VERTEX
8
OBJECT006
10
0
20
0
30
0
70
128
71
-2
72
12
73
1
0
VERTEX
8
OBJECT006
10
0
20
0
30
0
70
128
71
14
72
15
73
-16
0
VERTEX
8
OBJECT006
10
0
20
0
30
0
70
128
71
-14
72
16
73
-17
0
VERTEX
8
OBJECT006
10
0
20
0
30
0
70
128
71
-14
72
17
73
-18
0
VERTEX
8
OBJECT006
10
0
20
0
30
0
70
128
71
-14
72
18
73
-19
0
VERTEX
8
OBJECT006
10
0
20
0
30
0
70
128
71
-14
72
19
73
-20
0
VERTEX
8
OBJECT006
10
0
20
0
30
0
70
128
71
-14
72
20
73
-21
0
VERTEX
8
OBJECT006
10
0
20
0
30
0
70
128
71
-14
72
21
73
-22
0
VERTEX
8
OBJECT006
10
0
20
0
30
0
70
128
71
-14
72
22
73
-23
0
VERTEX
8
OBJECT006
10
0
20
0
30
0
70
128
71
-14
72
23
73
-24
0
VERTEX
8
OBJECT006
10
0
20
0
30
0
70
128
71
-14
72
24
73
13
0
VERTEX
8
OBJECT006
10
0
20
0
30
0
70
128
71
13
72
4
73
-3
0
VERTEX
8
OBJECT006
10
0
20
0
30
0
70
128
71
-13
72
3
73
14
0
VERTEX
8
OBJECT006
10
0
20
0
30
0
70
128
71
14
72
3
73
-2
0
VERTEX
8
OBJECT006
10
0
20
0
30
0
70
128
71
-14
72
2
73
15
0
VERTEX
8
OBJECT006
10
0
20
0
30
0
70
128
71
15
72
2
73
-1
0
VERTEX
8
OBJECT006
10
0
20
0
30
0
70
128
71
-15
72
1
73
16
0
VERTEX
8
OBJECT006
10
0
20
0
30
0
70
128
71
12
72
17
73
-16
0
VERTEX
8
OBJECT006
10
0
20
0
30
0
70
128
71
-12
72
16
73
1
0
VERTEX
8
OBJECT006
10
0
20
0
30
0
70
128
71
11
72
18
73
-17
0
VERTEX
8
OBJECT006
10
0
20
0
30
0
70
128
71
-11
72
17
73
12
0
VERTEX
8
OBJECT006
10
0
20
0
30
0
70
128
71
10
72
19
73
-18
0
VERTEX
8
OBJECT006
10
0
20
0
30
0
70
128
71
-10
72
18
73
11
0
VERTEX
8
OBJECT006
10
0
20
0
30
0
70
128
71
9
72
20
73
-19
0
VERTEX
8
OBJECT006
10
0
20
0
30
0
70
128
71
-9
72
19
73
10
0
VERTEX
8
OBJECT006
10
0
20
0
30
0
70
128
71
8
72
21
73
-20
0
VERTEX
8
OBJECT006
10
0
20
0
30
0
70
128
71
-8
72
20
73
9
0
VERTEX
8
OBJECT006
10
0
20
0
30
0
70
128
71
7
72
22
73
-21
0
VERTEX
8
OBJECT006
10
0
20
0
30
0
70
128
71
-7
72
21
73
8
0
VERTEX
8
OBJECT006
10
0
20
0
30
0
70
128
71
6
72
23
73
-22
0
VERTEX
8
OBJECT006
10
0
20
0
30
0
70
128
71
-6
72
22
73
7
0
VERTEX
8
OBJECT006
10
0
20
0
30
0
70
128
71
5
72
24
73
-23
0
VERTEX
8
OBJECT006
10
0
20
0
30
0
70
128
71
-5
72
23
73
6
0
VERTEX
8
OBJECT006
10
0
20
0
30
0
70
128
71
4
72
13
73
-24
0
VERTEX
8
OBJECT006
10
0
20
0
30
0
70
128
71
-4
72
24
73
5
0
SEQEND
8
OBJECT006
0
ENDSEC
0
EOF
