0
SECTION
2
HEADER
9
$ACADVER
1
AC1008
9
$UCSORG
10
0.0
20
0.0
30
0.0
9
$UCSXDIR
10
1.0
20
0.0
30
0.0
9
$TILEMODE
70
1
9
$UCSYDIR
10
0.0
20
1.0
30
0.0
9
$EXTMIN
10
-32.000000
20
-160.000000
30
-160.000000
9
$EXTMAX
10
64.000000
20
-32.000000
30
-32.000000
0
ENDSEC
0
SECTION
2
TABLES
0
TABLE
2
LTYPE
70
1
0
LTYPE
2
CONTINUOUS
70
64
3
Solid line
72
65
73
0
40
0.0
0
ENDTAB
0
TABLE
2
LAYER
70
1
0
LAYER
2
0
70
0
62
7
6
CONTINUOUS
0
ENDTAB
0
TABLE
2
STYLE
70
1
0
STYLE
2
STANDARD
70
0
40
0.0
41
1.0
50
0.0
71
0
42
0.2
3
txt
4

0
ENDTAB
0
TABLE
2
UCS
70
0
0
ENDTAB
0
ENDSEC
0
SECTION
2
ENTITIES
0
POLYLINE
8
OBJECT000
66
1
70
64
71
34
72
64
62
50
0
VERTEX
8
OBJECT000
10
36.245201
20
-50.498005
30
-160.000000
70
192
0
VERTEX
8
OBJECT000
10
21.241192
20
-43.000000
30
-160.000000
70
192
0
VERTEX
8
OBJECT000
10
4.743168
20
-37.000000
30
-160.000000
70
192
0
VERTEX
8
OBJECT000
10
-13.254689
20
-33.000000
30
-160.000000
70
192
0
VERTEX
8
OBJECT000
10
-32.000000
20
-32.000000
30
-160.000000
70
192
0
VERTEX
8
OBJECT000
10
-32.000000
20
-160.000000
30
-160.000000
70
192
0
VERTEX
8
OBJECT000
10
-13.249892
20
-159.000000
30
-160.000000
70
192
0
VERTEX
8
OBJECT000
10
4.746858
20
-155.000000
30
-160.000000
70
192
0
VERTEX
8
OBJECT000
10
21.290630
20
-148.985672
30
-160.000000
70
192
0
VERTEX
8
OBJECT000
10
36.247639
20
-141.503357
30
-160.000000
70
192
0
VERTEX
8
OBJECT000
10
47.494759
20
-131.507309
30
-160.000000
70
192
0
VERTEX
8
OBJECT000
10
56.497562
20
-120.503487
30
-160.000000
70
192
0
VERTEX
8
OBJECT000
10
62.500000
20
-108.499008
30
-160.000000
70
192
0
VERTEX
8
OBJECT000
10
64.000000
20
-96.000000
30
-160.000000
70
192
0
VERTEX
8
OBJECT000
10
62.500618
20
-83.504242
30
-160.000000
70
192
0
VERTEX
8
OBJECT000
10
56.495277
20
-71.493744
30
-160.000000
70
192
0
VERTEX
8
OBJECT000
10
47.503586
20
-60.504852
30
-160.000000
70
192
0
VERTEX
8
OBJECT000
10
-13.254771
20
-33.000000
30
-154.000000
70
192
0
VERTEX
8
OBJECT000
10
-32.000000
20
-32.000000
30
-154.000000
70
192
0
VERTEX
8
OBJECT000
10
4.741502
20
-37.000000
30
-154.000000
70
192
0
VERTEX
8
OBJECT000
10
21.244946
20
-43.000000
30
-154.000000
70
192
0
VERTEX
8
OBJECT000
10
36.241959
20
-50.495136
30
-154.000000
70
192
0
VERTEX
8
OBJECT000
10
47.508770
20
-60.511189
30
-154.000000
70
192
0
VERTEX
8
OBJECT000
10
56.498219
20
-71.499672
30
-154.000000
70
192
0
VERTEX
8
OBJECT000
10
62.500618
20
-83.504257
30
-154.000000
70
192
0
VERTEX
8
OBJECT000
10
64.000000
20
-96.000000
30
-154.000000
70
192
0
VERTEX
8
OBJECT000
10
62.500202
20
-108.498619
30
-154.000000
70
192
0
VERTEX
8
OBJECT000
10
56.494286
20
-120.507484
30
-154.000000
70
192
0
VERTEX
8
OBJECT000
10
47.497143
20
-131.505203
30
-154.000000
70
192
0
VERTEX
8
OBJECT000
10
36.252285
20
-141.501038
30
-154.000000
70
192
0
VERTEX
8
OBJECT000
10
21.287882
20
-148.986664
30
-154.000000
70
192
0
VERTEX
8
OBJECT000
10
4.748222
20
-155.000000
30
-154.000000
70
192
0
VERTEX
8
OBJECT000
10
-13.253371
20
-159.000000
30
-154.000000
70
192
0
VERTEX
8
OBJECT000
10
-32.000000
20
-160.000000
30
-154.000000
70
192
0
VERTEX
8
OBJECT000
10
0
20
0
30
0
70
128
71
2
72
3
73
-4
0
VERTEX
8
OBJECT000
10
0
20
0
30
0
70
128
71
-2
72
4
73
-5
0
VERTEX
8
OBJECT000
10
0
20
0
30
0
70
128
71
-2
72
5
73
-6
0
VERTEX
8
OBJECT000
10
0
20
0
30
0
70
128
71
-2
72
6
73
-7
0
VERTEX
8
OBJECT000
10
0
20
0
30
0
70
128
71
-2
72
7
73
-8
0
VERTEX
8
OBJECT000
10
0
20
0
30
0
70
128
71
-2
72
8
73
-9
0
VERTEX
8
OBJECT000
10
0
20
0
30
0
70
128
71
-2
72
9
73
-10
0
VERTEX
8
OBJECT000
10
0
20
0
30
0
70
128
71
-2
72
10
73
-11
0
VERTEX
8
OBJECT000
10
0
20
0
30
0
70
128
71
-2
72
11
73
-12
0
VERTEX
8
OBJECT000
10
0
20
0
30
0
70
128
71
-2
72
12
73
-13
0
VERTEX
8
OBJECT000
10
0
20
0
30
0
70
128
71
-2
72
13
73
-14
0
VERTEX
8
OBJECT000
10
0
20
0
30
0
70
128
71
-2
72
14
73
-15
0
VERTEX
8
OBJECT000
10
0
20
0
30
0
70
128
71
-2
72
15
73
-16
0
VERTEX
8
OBJECT000
10
0
20
0
30
0
70
128
71
-2
72
16
73
-17
0
VERTEX
8
OBJECT000
10
0
20
0
30
0
70
128
71
-2
72
17
73
1
0
VERTEX
8
OBJECT000
10
0
20
0
30
0
70
128
71
4
72
18
73
-19
0
VERTEX
8
OBJECT000
10
0
20
0
30
0
70
128
71
-4
72
19
73
5
0
VERTEX
8
OBJECT000
10
0
20
0
30
0
70
128
71
4
72
3
73
-20
0
VERTEX
8
OBJECT000
10
0
20
0
30
0
70
128
71
-4
72
20
73
18
0
VERTEX
8
OBJECT000
10
0
20
0
30
0
70
128
71
3
72
2
73
-21
0
VERTEX
8
OBJECT000
10
0
20
0
30
0
70
128
71
-3
72
21
73
20
0
VERTEX
8
OBJECT000
10
0
20
0
30
0
70
128
71
2
72
1
73
-22
0
VERTEX
8
OBJECT000
10
0
20
0
30
0
70
128
71
-2
72
22
73
21
0
VERTEX
8
OBJECT000
10
0
20
0
30
0
70
128
71
1
72
17
73
-23
0
VERTEX
8
OBJECT000
10
0
20
0
30
0
70
128
71
-1
72
23
73
22
0
VERTEX
8
OBJECT000
10
0
20
0
30
0
70
128
71
17
72
16
73
-24
0
VERTEX
8
OBJECT000
10
0
20
0
30
0
70
128
71
-17
72
24
73
23
0
VERTEX
8
OBJECT000
10
0
20
0
30
0
70
128
71
16
72
15
73
-25
0
VERTEX
8
OBJECT000
10
0
20
0
30
0
70
128
71
-16
72
25
73
24
0
VERTEX
8
OBJECT000
10
0
20
0
30
0
70
128
71
15
72
14
73
-26
0
VERTEX
8
OBJECT000
10
0
20
0
30
0
70
128
71
-15
72
26
73
25
0
VERTEX
8
OBJECT000
10
0
20
0
30
0
70
128
71
14
72
13
73
-27
0
VERTEX
8
OBJECT000
10
0
20
0
30
0
70
128
71
-14
72
27
73
26
0
VERTEX
8
OBJECT000
10
0
20
0
30
0
70
128
71
13
72
12
73
-28
0
VERTEX
8
OBJECT000
10
0
20
0
30
0
70
128
71
-13
72
28
73
27
0
VERTEX
8
OBJECT000
10
0
20
0
30
0
70
128
71
12
72
11
73
-29
0
VERTEX
8
OBJECT000
10
0
20
0
30
0
70
128
71
-12
72
29
73
28
0
VERTEX
8
OBJECT000
10
0
20
0
30
0
70
128
71
11
72
10
73
-30
0
VERTEX
8
OBJECT000
10
0
20
0
30
0
70
128
71
-11
72
30
73
29
0
VERTEX
8
OBJECT000
10
0
20
0
30
0
70
128
71
10
72
9
73
-31
0
VERTEX
8
OBJECT000
10
0
20
0
30
0
70
128
71
-10
72
31
73
30
0
VERTEX
8
OBJECT000
10
0
20
0
30
0
70
128
71
9
72
8
73
-32
0
VERTEX
8
OBJECT000
10
0
20
0
30
0
70
128
71
-9
72
32
73
31
0
VERTEX
8
OBJECT000
10
0
20
0
30
0
70
128
71
8
72
7
73
-33
0
VERTEX
8
OBJECT000
10
0
20
0
30
0
70
128
71
-8
72
33
73
32
0
VERTEX
8
OBJECT000
10
0
20
0
30
0
70
128
71
7
72
6
73
-34
0
VERTEX
8
OBJECT000
10
0
20
0
30
0
70
128
71
-7
72
34
73
33
0
VERTEX
8
OBJECT000
10
0
20
0
30
0
70
128
71
18
72
20
73
-21
0
VERTEX
8
OBJECT000
10
0
20
0
30
0
70
128
71
-18
72
21
73
-22
0
VERTEX
8
OBJECT000
10
0
20
0
30
0
70
128
71
-18
72
22
73
-23
0
VERTEX
8
OBJECT000
10
0
20
0
30
0
70
128
71
-18
72
23
73
-24
0
VERTEX
8
OBJECT000
10
0
20
0
30
0
70
128
71
-18
72
24
73
-25
0
VERTEX
8
OBJECT000
10
0
20
0
30
0
70
128
71
-18
72
25
73
-26
0
VERTEX
8
OBJECT000
10
0
20
0
30
0
70
128
71
-18
72
26
73
-27
0
VERTEX
8
OBJECT000
10
0
20
0
30
0
70
128
71
-18
72
27
73
-28
0
VERTEX
8
OBJECT000
10
0
20
0
30
0
70
128
71
-18
72
28
73
-29
0
VERTEX
8
OBJECT000
10
0
20
0
30
0
70
128
71
-18
72
29
73
-30
0
VERTEX
8
OBJECT000
10
0
20
0
30
0
70
128
71
-18
72
30
73
-31
0
VERTEX
8
OBJECT000
10
0
20
0
30
0
70
128
71
-18
72
31
73
-32
0
VERTEX
8
OBJECT000
10
0
20
0
30
0
70
128
71
-18
72
32
73
-33
0
VERTEX
8
OBJECT000
10
0
20
0
30
0
70
128
71
-18
72
33
73
-34
0
VERTEX
8
OBJECT000
10
0
20
0
30
0
70
128
71
-18
72
34
73
19
0
VERTEX
8
OBJECT000
10
0
20
0
30
0
70
128
71
6
72
5
73
-19
0
VERTEX
8
OBJECT000
10
0
20
0
30
0
70
128
71
-6
72
19
73
34
0
SEQEND
8
OBJECT000
0
POLYLINE
8
OBJECT001
66
1
70
64
71
34
72
64
62
50
0
VERTEX
8
OBJECT001
10
-32.000000
20
-32.000000
30
-32.000000
70
192
0
VERTEX
8
OBJECT001
10
-13.254689
20
-33.000000
30
-32.000000
70
192
0
VERTEX
8
OBJECT001
10
4.743168
20
-37.000000
30
-32.000000
70
192
0
VERTEX
8
OBJECT001
10
21.241192
20
-43.000000
30
-32.000000
70
192
0
VERTEX
8
OBJECT001
10
36.245201
20
-50.498005
30
-32.000000
70
192
0
VERTEX
8
OBJECT001
10
47.503586
20
-60.504852
30
-32.000000
70
192
0
VERTEX
8
OBJECT001
10
56.495243
20
-71.493713
30
-32.000000
70
192
0
VERTEX
8
OBJECT001
10
62.500641
20
-83.504295
30
-32.000000
70
192
0
VERTEX
8
OBJECT001
10
64.000000
20
-96.000000
30
-32.000000
70
192
0
VERTEX
8
OBJECT001
10
62.500000
20
-108.499023
30
-32.000000
70
192
0
VERTEX
8
OBJECT001
10
56.497585
20
-120.503456
30
-32.000000
70
192
0
VERTEX
8
OBJECT001
10
47.494743
20
-131.507324
30
-32.000000
70
192
0
VERTEX
8
OBJECT001
10
36.247620
20
-141.503357
30
-32.000000
70
192
0
VERTEX
8
OBJECT001
10
21.290558
20
-148.985687
30
-32.000000
70
192
0
VERTEX
8
OBJECT001
10
4.746885
20
-155.000000
30
-32.000000
70
192
0
VERTEX
8
OBJECT001
10
-13.249855
20
-159.000000
30
-32.000000
70
192
0
VERTEX
8
OBJECT001
10
-32.000000
20
-160.000000
30
-32.000000
70
192
0
VERTEX
8
OBJECT001
10
-32.000000
20
-32.000000
30
-38.000000
70
192
0
VERTEX
8
OBJECT001
10
-13.254771
20
-33.000000
30
-38.000000
70
192
0
VERTEX
8
OBJECT001
10
4.741502
20
-37.000000
30
-38.000000
70
192
0
VERTEX
8
OBJECT001
10
21.244946
20
-43.000000
30
-38.000000
70
192
0
VERTEX
8
OBJECT001
10
36.241959
20
-50.495136
30
-38.000000
70
192
0
VERTEX
8
OBJECT001
10
47.508770
20
-60.511189
30
-38.000000
70
192
0
VERTEX
8
OBJECT001
10
56.498207
20
-71.499634
30
-38.000000
70
192
0
VERTEX
8
OBJECT001
10
62.500618
20
-83.504257
30
-38.000000
70
192
0
VERTEX
8
OBJECT001
10
64.000000
20
-96.000000
30
-38.000000
70
192
0
VERTEX
8
OBJECT001
10
62.500202
20
-108.498596
30
-38.000000
70
192
0
VERTEX
8
OBJECT001
10
56.494308
20
-120.507454
30
-38.000000
70
192
0
VERTEX
8
OBJECT001
10
47.497143
20
-131.505203
30
-38.000000
70
192
0
VERTEX
8
OBJECT001
10
36.252213
20
-141.501068
30
-38.000000
70
192
0
VERTEX
8
OBJECT001
10
21.287882
20
-148.986664
30
-38.000000
70
192
0
VERTEX
8
OBJECT001
10
4.748222
20
-155.000000
30
-38.000000
70
192
0
VERTEX
8
OBJECT001
10
-13.253371
20
-159.000000
30
-38.000000
70
192
0
VERTEX
8
OBJECT001
10
-32.000000
20
-160.000000
30
-38.000000
70
192
0
VERTEX
8
OBJECT001
10
0
20
0
30
0
70
128
71
2
72
3
73
-4
0
VERTEX
8
OBJECT001
10
0
20
0
30
0
70
128
71
-2
72
4
73
-5
0
VERTEX
8
OBJECT001
10
0
20
0
30
0
70
128
71
-2
72
5
73
-6
0
VERTEX
8
OBJECT001
10
0
20
0
30
0
70
128
71
-2
72
6
73
-7
0
VERTEX
8
OBJECT001
10
0
20
0
30
0
70
128
71
-2
72
7
73
-8
0
VERTEX
8
OBJECT001
10
0
20
0
30
0
70
128
71
-2
72
8
73
-9
0
VERTEX
8
OBJECT001
10
0
20
0
30
0
70
128
71
-2
72
9
73
-10
0
VERTEX
8
OBJECT001
10
0
20
0
30
0
70
128
71
-2
72
10
73
-11
0
VERTEX
8
OBJECT001
10
0
20
0
30
0
70
128
71
-2
72
11
73
-12
0
VERTEX
8
OBJECT001
10
0
20
0
30
0
70
128
71
-2
72
12
73
-13
0
VERTEX
8
OBJECT001
10
0
20
0
30
0
70
128
71
-2
72
13
73
-14
0
VERTEX
8
OBJECT001
10
0
20
0
30
0
70
128
71
-2
72
14
73
-15
0
VERTEX
8
OBJECT001
10
0
20
0
30
0
70
128
71
-2
72
15
73
-16
0
VERTEX
8
OBJECT001
10
0
20
0
30
0
70
128
71
-2
72
16
73
-17
0
VERTEX
8
OBJECT001
10
0
20
0
30
0
70
128
71
-2
72
17
73
1
0
VERTEX
8
OBJECT001
10
0
20
0
30
0
70
128
71
19
72
2
73
-1
0
VERTEX
8
OBJECT001
10
0
20
0
30
0
70
128
71
-19
72
1
73
18
0
VERTEX
8
OBJECT001
10
0
20
0
30
0
70
128
71
3
72
2
73
-19
0
VERTEX
8
OBJECT001
10
0
20
0
30
0
70
128
71
-3
72
19
73
20
0
VERTEX
8
OBJECT001
10
0
20
0
30
0
70
128
71
4
72
3
73
-20
0
VERTEX
8
OBJECT001
10
0
20
0
30
0
70
128
71
-4
72
20
73
21
0
VERTEX
8
OBJECT001
10
0
20
0
30
0
70
128
71
5
72
4
73
-21
0
VERTEX
8
OBJECT001
10
0
20
0
30
0
70
128
71
-5
72
21
73
22
0
VERTEX
8
OBJECT001
10
0
20
0
30
0
70
128
71
6
72
5
73
-22
0
VERTEX
8
OBJECT001
10
0
20
0
30
0
70
128
71
-6
72
22
73
23
0
VERTEX
8
OBJECT001
10
0
20
0
30
0
70
128
71
7
72
6
73
-23
0
VERTEX
8
OBJECT001
10
0
20
0
30
0
70
128
71
-7
72
23
73
24
0
VERTEX
8
OBJECT001
10
0
20
0
30
0
70
128
71
8
72
7
73
-24
0
VERTEX
8
OBJECT001
10
0
20
0
30
0
70
128
71
-8
72
24
73
25
0
VERTEX
8
OBJECT001
10
0
20
0
30
0
70
128
71
9
72
8
73
-25
0
VERTEX
8
OBJECT001
10
0
20
0
30
0
70
128
71
-9
72
25
73
26
0
VERTEX
8
OBJECT001
10
0
20
0
30
0
70
128
71
10
72
9
73
-26
0
VERTEX
8
OBJECT001
10
0
20
0
30
0
70
128
71
-10
72
26
73
27
0
VERTEX
8
OBJECT001
10
0
20
0
30
0
70
128
71
11
72
10
73
-27
0
VERTEX
8
OBJECT001
10
0
20
0
30
0
70
128
71
-11
72
27
73
28
0
VERTEX
8
OBJECT001
10
0
20
0
30
0
70
128
71
12
72
11
73
-28
0
VERTEX
8
OBJECT001
10
0
20
0
30
0
70
128
71
-12
72
28
73
29
0
VERTEX
8
OBJECT001
10
0
20
0
30
0
70
128
71
13
72
12
73
-29
0
VERTEX
8
OBJECT001
10
0
20
0
30
0
70
128
71
-13
72
29
73
30
0
VERTEX
8
OBJECT001
10
0
20
0
30
0
70
128
71
14
72
13
73
-30
0
VERTEX
8
OBJECT001
10
0
20
0
30
0
70
128
71
-14
72
30
73
31
0
VERTEX
8
OBJECT001
10
0
20
0
30
0
70
128
71
15
72
14
73
-31
0
VERTEX
8
OBJECT001
10
0
20
0
30
0
70
128
71
-15
72
31
73
32
0
VERTEX
8
OBJECT001
10
0
20
0
30
0
70
128
71
16
72
15
73
-32
0
VERTEX
8
OBJECT001
10
0
20
0
30
0
70
128
71
-16
72
32
73
33
0
VERTEX
8
OBJECT001
10
0
20
0
30
0
70
128
71
16
72
33
73
-34
0
VERTEX
8
OBJECT001
10
0
20
0
30
0
70
128
71
-16
72
34
73
17
0
VERTEX
8
OBJECT001
10
0
20
0
30
0
70
128
71
21
72
20
73
-19
0
VERTEX
8
OBJECT001
10
0
20
0
30
0
70
128
71
-21
72
19
73
-18
0
VERTEX
8
OBJECT001
10
0
20
0
30
0
70
128
71
-21
72
18
73
-34
0
VERTEX
8
OBJECT001
10
0
20
0
30
0
70
128
71
-21
72
34
73
-33
0
VERTEX
8
OBJECT001
10
0
20
0
30
0
70
128
71
-21
72
33
73
-32
0
VERTEX
8
OBJECT001
10
0
20
0
30
0
70
128
71
-21
72
32
73
-31
0
VERTEX
8
OBJECT001
10
0
20
0
30
0
70
128
71
-21
72
31
73
-30
0
VERTEX
8
OBJECT001
10
0
20
0
30
0
70
128
71
-21
72
30
73
-29
0
VERTEX
8
OBJECT001
10
0
20
0
30
0
70
128
71
-21
72
29
73
-28
0
VERTEX
8
OBJECT001
10
0
20
0
30
0
70
128
71
-21
72
28
73
-27
0
VERTEX
8
OBJECT001
10
0
20
0
30
0
70
128
71
-21
72
27
73
-26
0
VERTEX
8
OBJECT001
10
0
20
0
30
0
70
128
71
-21
72
26
73
-25
0
VERTEX
8
OBJECT001
10
0
20
0
30
0
70
128
71
-21
72
25
73
-24
0
VERTEX
8
OBJECT001
10
0
20
0
30
0
70
128
71
-21
72
24
73
-23
0
VERTEX
8
OBJECT001
10
0
20
0
30
0
70
128
71
-21
72
23
73
22
0
VERTEX
8
OBJECT001
10
0
20
0
30
0
70
128
71
1
72
17
73
-34
0
VERTEX
8
OBJECT001
10
0
20
0
30
0
70
128
71
-1
72
34
73
18
0
SEQEND
8
OBJECT001
0
POLYLINE
8
OBJECT002
66
1
70
64
71
10
72
16
62
50
0
VERTEX
8
OBJECT002
10
-32.000000
20
-32.000000
30
-154.000000
70
192
0
VERTEX
8
OBJECT002
10
-13.254771
20
-33.000000
30
-154.000000
70
192
0
VERTEX
8
OBJECT002
10
-13.254771
20
-33.000000
30
-38.000000
70
192
0
VERTEX
8
OBJECT002
10
-32.000000
20
-32.000000
30
-38.000000
70
192
0
VERTEX
8
OBJECT002
10
4.747636
20
-37.000000
30
-154.000000
70
192
0
VERTEX
8
OBJECT002
10
4.747636
20
-37.000000
30
-38.000000
70
192
0
VERTEX
8
OBJECT002
10
14.290763
20
-40.469040
30
-154.000000
70
192
0
VERTEX
8
OBJECT002
10
14.290763
20
-40.469040
30
-38.000000
70
192
0
VERTEX
8
OBJECT002
10
-32.000000
20
-38.000000
30
-154.000000
70
192
0
VERTEX
8
OBJECT002
10
-32.000000
20
-38.000000
30
-38.000000
70
192
0
VERTEX
8
OBJECT002
10
0
20
0
30
0
70
128
71
2
72
3
73
-4
0
VERTEX
8
OBJECT002
10
0
20
0
30
0
70
128
71
-2
72
4
73
1
0
VERTEX
8
OBJECT002
10
0
20
0
30
0
70
128
71
2
72
5
73
-6
0
VERTEX
8
OBJECT002
10
0
20
0
30
0
70
128
71
-2
72
6
73
3
0
VERTEX
8
OBJECT002
10
0
20
0
30
0
70
128
71
5
72
7
73
-8
0
VERTEX
8
OBJECT002
10
0
20
0
30
0
70
128
71
-5
72
8
73
6
0
VERTEX
8
OBJECT002
10
0
20
0
30
0
70
128
71
5
72
2
73
-1
0
VERTEX
8
OBJECT002
10
0
20
0
30
0
70
128
71
-5
72
1
73
-9
0
VERTEX
8
OBJECT002
10
0
20
0
30
0
70
128
71
-5
72
9
73
7
0
VERTEX
8
OBJECT002
10
0
20
0
30
0
70
128
71
3
72
6
73
-8
0
VERTEX
8
OBJECT002
10
0
20
0
30
0
70
128
71
-3
72
8
73
-10
0
VERTEX
8
OBJECT002
10
0
20
0
30
0
70
128
71
-3
72
10
73
4
0
VERTEX
8
OBJECT002
10
0
20
0
30
0
70
128
71
7
72
9
73
-10
0
VERTEX
8
OBJECT002
10
0
20
0
30
0
70
128
71
-7
72
10
73
8
0
VERTEX
8
OBJECT002
10
0
20
0
30
0
70
128
71
1
72
4
73
-10
0
VERTEX
8
OBJECT002
10
0
20
0
30
0
70
128
71
-1
72
10
73
9
0
SEQEND
8
OBJECT002
0
POLYLINE
8
OBJECT003
66
1
70
64
71
8
72
12
62
50
0
VERTEX
8
OBJECT003
10
14.291788
20
-40.468964
30
-154.000000
70
192
0
VERTEX
8
OBJECT003
10
21.240002
20
-43.000000
30
-154.000000
70
192
0
VERTEX
8
OBJECT003
10
21.240002
20
-43.000000
30
-38.000000
70
192
0
VERTEX
8
OBJECT003
10
14.291788
20
-40.468964
30
-38.000000
70
192
0
VERTEX
8
OBJECT003
10
35.513512
20
-50.133469
30
-154.000000
70
192
0
VERTEX
8
OBJECT003
10
35.513512
20
-50.133469
30
-38.000000
70
192
0
VERTEX
8
OBJECT003
10
-15.011229
20
-38.905823
30
-154.000000
70
192
0
VERTEX
8
OBJECT003
10
-15.011229
20
-38.905823
30
-38.000000
70
192
0
VERTEX
8
OBJECT003
10
0
20
0
30
0
70
128
71
2
72
3
73
-4
0
VERTEX
8
OBJECT003
10
0
20
0
30
0
70
128
71
-2
72
4
73
1
0
VERTEX
8
OBJECT003
10
0
20
0
30
0
70
128
71
2
72
5
73
-6
0
VERTEX
8
OBJECT003
10
0
20
0
30
0
70
128
71
-2
72
6
73
3
0
VERTEX
8
OBJECT003
10
0
20
0
30
0
70
128
71
2
72
1
73
-7
0
VERTEX
8
OBJECT003
10
0
20
0
30
0
70
128
71
-2
72
7
73
5
0
VERTEX
8
OBJECT003
10
0
20
0
30
0
70
128
71
4
72
3
73
-6
0
VERTEX
8
OBJECT003
10
0
20
0
30
0
70
128
71
-4
72
6
73
8
0
VERTEX
8
OBJECT003
10
0
20
0
30
0
70
128
71
1
72
4
73
-8
0
VERTEX
8
OBJECT003
10
0
20
0
30
0
70
128
71
-1
72
8
73
7
0
VERTEX
8
OBJECT003
10
0
20
0
30
0
70
128
71
5
72
7
73
-8
0
VERTEX
8
OBJECT003
10
0
20
0
30
0
70
128
71
-5
72
8
73
6
0
SEQEND
8
OBJECT003
0
POLYLINE
8
OBJECT004
66
1
70
64
71
8
72
12
62
50
0
VERTEX
8
OBJECT004
10
35.515930
20
-50.133270
30
-154.000000
70
192
0
VERTEX
8
OBJECT004
10
36.251644
20
-50.500935
30
-154.000000
70
192
0
VERTEX
8
OBJECT004
10
36.251644
20
-50.500935
30
-38.000000
70
192
0
VERTEX
8
OBJECT004
10
35.515930
20
-50.133270
30
-38.000000
70
192
0
VERTEX
8
OBJECT004
10
45.272045
20
-58.519592
30
-154.000000
70
192
0
VERTEX
8
OBJECT004
10
45.272045
20
-58.519592
30
-38.000000
70
192
0
VERTEX
8
OBJECT004
10
1.300246
20
-42.529648
30
-154.000000
70
192
0
VERTEX
8
OBJECT004
10
1.300246
20
-42.529648
30
-38.000000
70
192
0
VERTEX
8
OBJECT004
10
0
20
0
30
0
70
128
71
2
72
3
73
-4
0
VERTEX
8
OBJECT004
10
0
20
0
30
0
70
128
71
-2
72
4
73
1
0
VERTEX
8
OBJECT004
10
0
20
0
30
0
70
128
71
2
72
5
73
-6
0
VERTEX
8
OBJECT004
10
0
20
0
30
0
70
128
71
-2
72
6
73
3
0
VERTEX
8
OBJECT004
10
0
20
0
30
0
70
128
71
1
72
7
73
-5
0
VERTEX
8
OBJECT004
10
0
20
0
30
0
70
128
71
-1
72
5
73
2
0
VERTEX
8
OBJECT004
10
0
20
0
30
0
70
128
71
4
72
3
73
-6
0
VERTEX
8
OBJECT004
10
0
20
0
30
0
70
128
71
-4
72
6
73
8
0
VERTEX
8
OBJECT004
10
0
20
0
30
0
70
128
71
1
72
4
73
-8
0
VERTEX
8
OBJECT004
10
0
20
0
30
0
70
128
71
-1
72
8
73
7
0
VERTEX
8
OBJECT004
10
0
20
0
30
0
70
128
71
5
72
7
73
-8
0
VERTEX
8
OBJECT004
10
0
20
0
30
0
70
128
71
-5
72
8
73
6
0
SEQEND
8
OBJECT004
0
POLYLINE
8
OBJECT005
66
1
70
64
71
8
72
12
62
50
0
VERTEX
8
OBJECT005
10
45.270889
20
-58.519062
30
-154.000000
70
192
0
VERTEX
8
OBJECT005
10
47.496830
20
-60.496613
30
-154.000000
70
192
0
VERTEX
8
OBJECT005
10
47.496830
20
-60.496613
30
-38.000000
70
192
0
VERTEX
8
OBJECT005
10
45.270889
20
-58.519062
30
-38.000000
70
192
0
VERTEX
8
OBJECT005
10
51.780182
20
-65.729492
30
-154.000000
70
192
0
VERTEX
8
OBJECT005
10
51.780182
20
-65.729492
30
-38.000000
70
192
0
VERTEX
8
OBJECT005
10
16.256712
20
-47.967365
30
-154.000000
70
192
0
VERTEX
8
OBJECT005
10
16.256676
20
-47.967346
30
-38.000000
70
192
0
VERTEX
8
OBJECT005
10
0
20
0
30
0
70
128
71
2
72
3
73
-4
0
VERTEX
8
OBJECT005
10
0
20
0
30
0
70
128
71
-2
72
4
73
1
0
VERTEX
8
OBJECT005
10
0
20
0
30
0
70
128
71
2
72
5
73
-6
0
VERTEX
8
OBJECT005
10
0
20
0
30
0
70
128
71
-2
72
6
73
3
0
VERTEX
8
OBJECT005
10
0
20
0
30
0
70
128
71
2
72
1
73
-7
0
VERTEX
8
OBJECT005
10
0
20
0
30
0
70
128
71
-2
72
7
73
5
0
VERTEX
8
OBJECT005
10
0
20
0
30
0
70
128
71
4
72
3
73
-6
0
VERTEX
8
OBJECT005
10
0
20
0
30
0
70
128
71
-4
72
6
73
8
0
VERTEX
8
OBJECT005
10
0
20
0
30
0
70
128
71
1
72
4
73
-8
0
VERTEX
8
OBJECT005
10
0
20
0
30
0
70
128
71
-1
72
8
73
7
0
VERTEX
8
OBJECT005
10
0
20
0
30
0
70
128
71
5
72
7
73
-8
0
VERTEX
8
OBJECT005
10
0
20
0
30
0
70
128
71
-5
72
8
73
6
0
SEQEND
8
OBJECT005
0
POLYLINE
8
OBJECT006
66
1
70
64
71
10
72
16
62
50
0
VERTEX
8
OBJECT006
10
51.781902
20
-65.731354
30
-154.000000
70
192
0
VERTEX
8
OBJECT006
10
56.497726
20
-71.497826
30
-154.000000
70
192
0
VERTEX
8
OBJECT006
10
56.497726
20
-71.497826
30
-38.000000
70
192
0
VERTEX
8
OBJECT006
10
51.781902
20
-65.731354
30
-38.000000
70
192
0
VERTEX
8
OBJECT006
10
62.500515
20
-83.504295
30
-154.000000
70
192
0
VERTEX
8
OBJECT006
10
62.500515
20
-83.504295
30
-38.000000
70
192
0
VERTEX
8
OBJECT006
10
62.538795
20
-83.825356
30
-154.000000
70
192
0
VERTEX
8
OBJECT006
10
62.538795
20
-83.825356
30
-38.000000
70
192
0
VERTEX
8
OBJECT006
10
29.840282
20
-54.759735
30
-154.000000
70
192
0
VERTEX
8
OBJECT006
10
29.840300
20
-54.759750
30
-38.000000
70
192
0
VERTEX
8
OBJECT006
10
0
20
0
30
0
70
128
71
2
72
3
73
-4
0
VERTEX
8
OBJECT006
10
0
20
0
30
0
70
128
71
-2
72
4
73
1
0
VERTEX
8
OBJECT006
10
0
20
0
30
0
70
128
71
2
72
5
73
-6
0
VERTEX
8
OBJECT006
10
0
20
0
30
0
70
128
71
-2
72
6
73
3
0
VERTEX
8
OBJECT006
10
0
20
0
30
0
70
128
71
5
72
7
73
-8
0
VERTEX
8
OBJECT006
10
0
20
0
30
0
70
128
71
-5
72
8
73
6
0
VERTEX
8
OBJECT006
10
0
20
0
30
0
70
128
71
5
72
2
73
-1
0
VERTEX
8
OBJECT006
10
0
20
0
30
0
70
128
71
-5
72
1
73
-9
0
VERTEX
8
OBJECT006
10
0
20
0
30
0
70
128
71
-5
72
9
73
7
0
VERTEX
8
OBJECT006
10
0
20
0
30
0
70
128
71
4
72
3
73
-6
0
VERTEX
8
OBJECT006
10
0
20
0
30
0
70
128
71
-4
72
6
73
-8
0
VERTEX
8
OBJECT006
10
0
20
0
30
0
70
128
71
-4
72
8
73
10
0
VERTEX
8
OBJECT006
10
0
20
0
30
0
70
128
71
1
72
4
73
-10
0
VERTEX
8
OBJECT006
10
0
20
0
30
0
70
128
71
-1
72
10
73
9
0
VERTEX
8
OBJECT006
10
0
20
0
30
0
70
128
71
7
72
9
73
-10
0
VERTEX
8
OBJECT006
10
0
20
0
30
0
70
128
71
-7
72
10
73
8
0
SEQEND
8
OBJECT006
0
POLYLINE
8
OBJECT007
66
1
70
64
71
6
72
8
62
50
0
VERTEX
8
OBJECT007
10
62.538692
20
-83.822678
30
-154.000000
70
192
0
VERTEX
8
OBJECT007
10
63.593449
20
-92.606308
30
-154.000000
70
192
0
VERTEX
8
OBJECT007
10
63.593449
20
-92.606308
30
-38.000000
70
192
0
VERTEX
8
OBJECT007
10
62.538692
20
-83.822678
30
-38.000000
70
192
0
VERTEX
8
OBJECT007
10
40.062073
20
-63.845398
30
-154.000000
70
192
0
VERTEX
8
OBJECT007
10
40.062073
20
-63.845398
30
-38.000000
70
192
0
VERTEX
8
OBJECT007
10
0
20
0
30
0
70
128
71
2
72
3
73
-4
0
VERTEX
8
OBJECT007
10
0
20
0
30
0
70
128
71
-2
72
4
73
1
0
VERTEX
8
OBJECT007
10
0
20
0
30
0
70
128
71
1
72
5
73
2
0
VERTEX
8
OBJECT007
10
0
20
0
30
0
70
128
71
4
72
3
73
6
0
VERTEX
8
OBJECT007
10
0
20
0
30
0
70
128
71
1
72
4
73
-6
0
VERTEX
8
OBJECT007
10
0
20
0
30
0
70
128
71
-1
72
6
73
5
0
VERTEX
8
OBJECT007
10
0
20
0
30
0
70
128
71
2
72
5
73
-6
0
VERTEX
8
OBJECT007
10
0
20
0
30
0
70
128
71
-2
72
6
73
3
0
SEQEND
8
OBJECT007
0
POLYLINE
8
OBJECT008
66
1
70
64
71
8
72
12
62
50
0
VERTEX
8
OBJECT008
10
63.593338
20
-92.609177
30
-154.000000
70
192
0
VERTEX
8
OBJECT008
10
64.000000
20
-96.000000
30
-154.000000
70
192
0
VERTEX
8
OBJECT008
10
64.000000
20
-96.000000
30
-38.000000
70
192
0
VERTEX
8
OBJECT008
10
63.593338
20
-92.609177
30
-38.000000
70
192
0
VERTEX
8
OBJECT008
10
63.091740
20
-103.574303
30
-154.000000
70
192
0
VERTEX
8
OBJECT008
10
63.091740
20
-103.574303
30
-38.000000
70
192
0
VERTEX
8
OBJECT008
10
48.208363
20
-73.806885
30
-154.000000
70
192
0
VERTEX
8
OBJECT008
10
48.208363
20
-73.806885
30
-38.000000
70
192
0
VERTEX
8
OBJECT008
10
0
20
0
30
0
70
128
71
2
72
3
73
-4
0
VERTEX
8
OBJECT008
10
0
20
0
30
0
70
128
71
-2
72
4
73
1
0
VERTEX
8
OBJECT008
10
0
20
0
30
0
70
128
71
2
72
5
73
-6
0
VERTEX
8
OBJECT008
10
0
20
0
30
0
70
128
71
-2
72
6
73
3
0
VERTEX
8
OBJECT008
10
0
20
0
30
0
70
128
71
2
72
1
73
-7
0
VERTEX
8
OBJECT008
10
0
20
0
30
0
70
128
71
-2
72
7
73
5
0
VERTEX
8
OBJECT008
10
0
20
0
30
0
70
128
71
4
72
3
73
-6
0
VERTEX
8
OBJECT008
10
0
20
0
30
0
70
128
71
-4
72
6
73
8
0
VERTEX
8
OBJECT008
10
0
20
0
30
0
70
128
71
1
72
4
73
-8
0
VERTEX
8
OBJECT008
10
0
20
0
30
0
70
128
71
-1
72
8
73
7
0
VERTEX
8
OBJECT008
10
0
20
0
30
0
70
128
71
5
72
7
73
-8
0
VERTEX
8
OBJECT008
10
0
20
0
30
0
70
128
71
-5
72
8
73
6
0
SEQEND
8
OBJECT008
0
POLYLINE
8
OBJECT009
66
1
70
64
71
8
72
12
62
50
0
VERTEX
8
OBJECT009
10
63.091503
20
-103.575829
30
-154.000000
70
192
0
VERTEX
8
OBJECT009
10
62.500179
20
-108.501511
30
-154.000000
70
192
0
VERTEX
8
OBJECT009
10
62.500179
20
-108.501511
30
-38.000000
70
192
0
VERTEX
8
OBJECT009
10
63.091503
20
-103.575829
30
-38.000000
70
192
0
VERTEX
8
OBJECT009
10
57.661564
20
-118.176682
30
-154.000000
70
192
0
VERTEX
8
OBJECT009
10
57.661564
20
-118.176682
30
-38.000000
70
192
0
VERTEX
8
OBJECT009
10
53.640881
20
-84.676964
30
-154.000000
70
192
0
VERTEX
8
OBJECT009
10
53.640881
20
-84.676964
30
-38.000000
70
192
0
VERTEX
8
OBJECT009
10
0
20
0
30
0
70
128
71
2
72
3
73
-4
0
VERTEX
8
OBJECT009
10
0
20
0
30
0
70
128
71
-2
72
4
73
1
0
VERTEX
8
OBJECT009
10
0
20
0
30
0
70
128
71
2
72
5
73
-6
0
VERTEX
8
OBJECT009
10
0
20
0
30
0
70
128
71
-2
72
6
73
3
0
VERTEX
8
OBJECT009
10
0
20
0
30
0
70
128
71
2
72
1
73
-7
0
VERTEX
8
OBJECT009
10
0
20
0
30
0
70
128
71
-2
72
7
73
5
0
VERTEX
8
OBJECT009
10
0
20
0
30
0
70
128
71
4
72
3
73
-6
0
VERTEX
8
OBJECT009
10
0
20
0
30
0
70
128
71
-4
72
6
73
8
0
VERTEX
8
OBJECT009
10
0
20
0
30
0
70
128
71
1
72
4
73
-8
0
VERTEX
8
OBJECT009
10
0
20
0
30
0
70
128
71
-1
72
8
73
7
0
VERTEX
8
OBJECT009
10
0
20
0
30
0
70
128
71
5
72
7
73
-8
0
VERTEX
8
OBJECT009
10
0
20
0
30
0
70
128
71
-5
72
8
73
6
0
SEQEND
8
OBJECT009
0
POLYLINE
8
OBJECT010
66
1
70
64
71
8
72
12
62
50
0
VERTEX
8
OBJECT010
10
57.661549
20
-118.176537
30
-154.000000
70
192
0
VERTEX
8
OBJECT010
10
56.499886
20
-120.499062
30
-154.000000
70
192
0
VERTEX
8
OBJECT010
10
56.499886
20
-120.499062
30
-38.000000
70
192
0
VERTEX
8
OBJECT010
10
57.661549
20
-118.176537
30
-38.000000
70
192
0
VERTEX
8
OBJECT010
10
51.296761
20
-126.859337
30
-154.000000
70
192
0
VERTEX
8
OBJECT010
10
51.296761
20
-126.859337
30
-38.000000
70
192
0
VERTEX
8
OBJECT010
10
55.000000
20
-96.000000
30
-154.000000
70
192
0
VERTEX
8
OBJECT010
10
55.000000
20
-96.000000
30
-38.000000
70
192
0
VERTEX
8
OBJECT010
10
0
20
0
30
0
70
128
71
2
72
3
73
-4
0
VERTEX
8
OBJECT010
10
0
20
0
30
0
70
128
71
-2
72
4
73
1
0
VERTEX
8
OBJECT010
10
0
20
0
30
0
70
128
71
2
72
5
73
-6
0
VERTEX
8
OBJECT010
10
0
20
0
30
0
70
128
71
-2
72
6
73
3
0
VERTEX
8
OBJECT010
10
0
20
0
30
0
70
128
71
2
72
1
73
-7
0
VERTEX
8
OBJECT010
10
0
20
0
30
0
70
128
71
-2
72
7
73
5
0
VERTEX
8
OBJECT010
10
0
20
0
30
0
70
128
71
4
72
3
73
-6
0
VERTEX
8
OBJECT010
10
0
20
0
30
0
70
128
71
-4
72
6
73
8
0
VERTEX
8
OBJECT010
10
0
20
0
30
0
70
128
71
1
72
4
73
-8
0
VERTEX
8
OBJECT010
10
0
20
0
30
0
70
128
71
-1
72
8
73
7
0
VERTEX
8
OBJECT010
10
0
20
0
30
0
70
128
71
5
72
7
73
-8
0
VERTEX
8
OBJECT010
10
0
20
0
30
0
70
128
71
-5
72
8
73
6
0
SEQEND
8
OBJECT010
0
POLYLINE
8
OBJECT011
66
1
70
64
71
8
72
12
62
50
0
VERTEX
8
OBJECT011
10
51.296562
20
-126.859848
30
-154.000000
70
192
0
VERTEX
8
OBJECT011
10
47.509975
20
-131.489227
30
-154.000000
70
192
0
VERTEX
8
OBJECT011
10
47.509975
20
-131.489227
30
-38.000000
70
192
0
VERTEX
8
OBJECT011
10
51.296562
20
-126.859848
30
-38.000000
70
192
0
VERTEX
8
OBJECT011
10
36.801624
20
-141.000000
30
-154.000000
70
192
0
VERTEX
8
OBJECT011
10
36.801624
20
-141.000000
30
-38.000000
70
192
0
VERTEX
8
OBJECT011
10
53.640385
20
-107.329041
30
-154.000000
70
192
0
VERTEX
8
OBJECT011
10
53.640385
20
-107.329041
30
-38.000000
70
192
0
VERTEX
8
OBJECT011
10
0
20
0
30
0
70
128
71
2
72
3
73
-4
0
VERTEX
8
OBJECT011
10
0
20
0
30
0
70
128
71
-2
72
4
73
1
0
VERTEX
8
OBJECT011
10
0
20
0
30
0
70
128
71
2
72
5
73
-6
0
VERTEX
8
OBJECT011
10
0
20
0
30
0
70
128
71
-2
72
6
73
3
0
VERTEX
8
OBJECT011
10
0
20
0
30
0
70
128
71
2
72
1
73
-7
0
VERTEX
8
OBJECT011
10
0
20
0
30
0
70
128
71
-2
72
7
73
5
0
VERTEX
8
OBJECT011
10
0
20
0
30
0
70
128
71
4
72
3
73
-6
0
VERTEX
8
OBJECT011
10
0
20
0
30
0
70
128
71
-4
72
6
73
8
0
VERTEX
8
OBJECT011
10
0
20
0
30
0
70
128
71
1
72
4
73
-8
0
VERTEX
8
OBJECT011
10
0
20
0
30
0
70
128
71
-1
72
8
73
7
0
VERTEX
8
OBJECT011
10
0
20
0
30
0
70
128
71
5
72
7
73
-8
0
VERTEX
8
OBJECT011
10
0
20
0
30
0
70
128
71
-5
72
8
73
6
0
SEQEND
8
OBJECT011
0
POLYLINE
8
OBJECT012
66
1
70
64
71
8
72
12
62
50
0
VERTEX
8
OBJECT012
10
36.793472
20
-141.023865
30
-154.000000
70
192
0
VERTEX
8
OBJECT012
10
36.260365
20
-141.495651
30
-154.000000
70
192
0
VERTEX
8
OBJECT012
10
36.260365
20
-141.495651
30
-38.000000
70
192
0
VERTEX
8
OBJECT012
10
36.793472
20
-141.023865
30
-38.000000
70
192
0
VERTEX
8
OBJECT012
10
24.216417
20
-147.518921
30
-154.000000
70
192
0
VERTEX
8
OBJECT012
10
24.216417
20
-147.518921
30
-38.000000
70
192
0
VERTEX
8
OBJECT012
10
48.204407
20
-118.203041
30
-154.000000
70
192
0
VERTEX
8
OBJECT012
10
48.204407
20
-118.203041
30
-38.000000
70
192
0
VERTEX
8
OBJECT012
10
0
20
0
30
0
70
128
71
2
72
3
73
-4
0
VERTEX
8
OBJECT012
10
0
20
0
30
0
70
128
71
-2
72
4
73
1
0
VERTEX
8
OBJECT012
10
0
20
0
30
0
70
128
71
2
72
5
73
-6
0
VERTEX
8
OBJECT012
10
0
20
0
30
0
70
128
71
-2
72
6
73
3
0
VERTEX
8
OBJECT012
10
0
20
0
30
0
70
128
71
2
72
1
73
-7
0
VERTEX
8
OBJECT012
10
0
20
0
30
0
70
128
71
-2
72
7
73
5
0
VERTEX
8
OBJECT012
10
0
20
0
30
0
70
128
71
4
72
3
73
-6
0
VERTEX
8
OBJECT012
10
0
20
0
30
0
70
128
71
-4
72
6
73
8
0
VERTEX
8
OBJECT012
10
0
20
0
30
0
70
128
71
1
72
4
73
-8
0
VERTEX
8
OBJECT012
10
0
20
0
30
0
70
128
71
-1
72
8
73
7
0
VERTEX
8
OBJECT012
10
0
20
0
30
0
70
128
71
5
72
7
73
-8
0
VERTEX
8
OBJECT012
10
0
20
0
30
0
70
128
71
-5
72
8
73
6
0
SEQEND
8
OBJECT012
0
POLYLINE
8
OBJECT013
66
1
70
64
71
8
72
12
62
50
0
VERTEX
8
OBJECT013
10
24.220116
20
-147.515381
30
-154.000000
70
192
0
VERTEX
8
OBJECT013
10
21.236778
20
-149.000000
30
-154.000000
70
192
0
VERTEX
8
OBJECT013
10
21.236778
20
-149.000000
30
-38.000000
70
192
0
VERTEX
8
OBJECT013
10
24.220116
20
-147.515381
30
-38.000000
70
192
0
VERTEX
8
OBJECT013
10
13.411180
20
-151.850342
30
-154.000000
70
192
0
VERTEX
8
OBJECT013
10
13.411180
20
-151.850342
30
-38.000000
70
192
0
VERTEX
8
OBJECT013
10
40.045353
20
-128.173233
30
-154.000000
70
192
0
VERTEX
8
OBJECT013
10
40.045353
20
-128.173233
30
-38.000000
70
192
0
VERTEX
8
OBJECT013
10
0
20
0
30
0
70
128
71
2
72
3
73
-4
0
VERTEX
8
OBJECT013
10
0
20
0
30
0
70
128
71
-2
72
4
73
1
0
VERTEX
8
OBJECT013
10
0
20
0
30
0
70
128
71
2
72
5
73
-6
0
VERTEX
8
OBJECT013
10
0
20
0
30
0
70
128
71
-2
72
6
73
3
0
VERTEX
8
OBJECT013
10
0
20
0
30
0
70
128
71
2
72
1
73
-7
0
VERTEX
8
OBJECT013
10
0
20
0
30
0
70
128
71
-2
72
7
73
5
0
VERTEX
8
OBJECT013
10
0
20
0
30
0
70
128
71
3
72
6
73
-8
0
VERTEX
8
OBJECT013
10
0
20
0
30
0
70
128
71
-3
72
8
73
4
0
VERTEX
8
OBJECT013
10
0
20
0
30
0
70
128
71
1
72
4
73
-8
0
VERTEX
8
OBJECT013
10
0
20
0
30
0
70
128
71
-1
72
8
73
7
0
VERTEX
8
OBJECT013
10
0
20
0
30
0
70
128
71
5
72
7
73
-8
0
VERTEX
8
OBJECT013
10
0
20
0
30
0
70
128
71
-5
72
8
73
6
0
SEQEND
8
OBJECT013
0
POLYLINE
8
OBJECT014
66
1
70
64
71
10
72
16
62
50
0
VERTEX
8
OBJECT014
10
13.409678
20
-151.850464
30
-154.000000
70
192
0
VERTEX
8
OBJECT014
10
4.738573
20
-155.000000
30
-154.000000
70
192
0
VERTEX
8
OBJECT014
10
4.738573
20
-155.000000
30
-38.000000
70
192
0
VERTEX
8
OBJECT014
10
13.409678
20
-151.850464
30
-38.000000
70
192
0
VERTEX
8
OBJECT014
10
-13.247127
20
-159.000000
30
-154.000000
70
192
0
VERTEX
8
OBJECT014
10
-13.247127
20
-159.000000
30
-38.000000
70
192
0
VERTEX
8
OBJECT014
10
-13.732704
20
-159.026169
30
-154.000000
70
192
0
VERTEX
8
OBJECT014
10
-13.732704
20
-159.026169
30
-38.000000
70
192
0
VERTEX
8
OBJECT014
10
29.855480
20
-137.232651
30
-154.000000
70
192
0
VERTEX
8
OBJECT014
10
29.855461
20
-137.232666
30
-38.000000
70
192
0
VERTEX
8
OBJECT014
10
0
20
0
30
0
70
128
71
2
72
3
73
-4
0
VERTEX
8
OBJECT014
10
0
20
0
30
0
70
128
71
-2
72
4
73
1
0
VERTEX
8
OBJECT014
10
0
20
0
30
0
70
128
71
2
72
5
73
-6
0
VERTEX
8
OBJECT014
10
0
20
0
30
0
70
128
71
-2
72
6
73
3
0
VERTEX
8
OBJECT014
10
0
20
0
30
0
70
128
71
5
72
7
73
-8
0
VERTEX
8
OBJECT014
10
0
20
0
30
0
70
128
71
-5
72
8
73
6
0
VERTEX
8
OBJECT014
10
0
20
0
30
0
70
128
71
5
72
2
73
-1
0
VERTEX
8
OBJECT014
10
0
20
0
30
0
70
128
71
-5
72
1
73
-9
0
VERTEX
8
OBJECT014
10
0
20
0
30
0
70
128
71
-5
72
9
73
7
0
VERTEX
8
OBJECT014
10
0
20
0
30
0
70
128
71
3
72
6
73
-8
0
VERTEX
8
OBJECT014
10
0
20
0
30
0
70
128
71
-3
72
8
73
-10
0
VERTEX
8
OBJECT014
10
0
20
0
30
0
70
128
71
-3
72
10
73
4
0
VERTEX
8
OBJECT014
10
0
20
0
30
0
70
128
71
1
72
4
73
-10
0
VERTEX
8
OBJECT014
10
0
20
0
30
0
70
128
71
-1
72
10
73
9
0
VERTEX
8
OBJECT014
10
0
20
0
30
0
70
128
71
7
72
9
73
-10
0
VERTEX
8
OBJECT014
10
0
20
0
30
0
70
128
71
-7
72
10
73
8
0
SEQEND
8
OBJECT014
0
POLYLINE
8
OBJECT015
66
1
70
64
71
6
72
8
62
50
0
VERTEX
8
OBJECT015
10
-13.731752
20
-159.026367
30
-154.000000
70
192
0
VERTEX
8
OBJECT015
10
-26.913954
20
-159.729340
30
-154.000000
70
192
0
VERTEX
8
OBJECT015
10
-26.913954
20
-159.729340
30
-38.000000
70
192
0
VERTEX
8
OBJECT015
10
-13.731752
20
-159.026367
30
-38.000000
70
192
0
VERTEX
8
OBJECT015
10
16.250763
20
-144.033737
30
-154.000000
70
192
0
VERTEX
8
OBJECT015
10
16.250763
20
-144.033737
30
-38.000000
70
192
0
VERTEX
8
OBJECT015
10
0
20
0
30
0
70
128
71
2
72
3
73
-4
0
VERTEX
8
OBJECT015
10
0
20
0
30
0
70
128
71
-2
72
4
73
1
0
VERTEX
8
OBJECT015
10
0
20
0
30
0
70
128
71
1
72
5
73
2
0
VERTEX
8
OBJECT015
10
0
20
0
30
0
70
128
71
4
72
3
73
6
0
VERTEX
8
OBJECT015
10
0
20
0
30
0
70
128
71
1
72
4
73
-6
0
VERTEX
8
OBJECT015
10
0
20
0
30
0
70
128
71
-1
72
6
73
5
0
VERTEX
8
OBJECT015
10
0
20
0
30
0
70
128
71
2
72
5
73
-6
0
VERTEX
8
OBJECT015
10
0
20
0
30
0
70
128
71
-2
72
6
73
3
0
SEQEND
8
OBJECT015
0
POLYLINE
8
OBJECT016
66
1
70
64
71
8
72
12
62
50
0
VERTEX
8
OBJECT016
10
-26.914879
20
-159.729126
30
-154.000000
70
192
0
VERTEX
8
OBJECT016
10
-32.000000
20
-160.000000
30
-154.000000
70
192
0
VERTEX
8
OBJECT016
10
-32.000000
20
-160.000000
30
-38.000000
70
192
0
VERTEX
8
OBJECT016
10
-26.914879
20
-159.729126
30
-38.000000
70
192
0
VERTEX
8
OBJECT016
10
1.291658
20
-149.472046
30
-154.000000
70
192
0
VERTEX
8
OBJECT016
10
-32.000000
20
-156.869995
30
-154.000000
70
192
0
VERTEX
8
OBJECT016
10
1.291658
20
-149.472046
30
-38.000000
70
192
0
VERTEX
8
OBJECT016
10
-32.000000
20
-156.869995
30
-38.000000
70
192
0
VERTEX
8
OBJECT016
10
0
20
0
30
0
70
128
71
2
72
3
73
-4
0
VERTEX
8
OBJECT016
10
0
20
0
30
0
70
128
71
-2
72
4
73
1
0
VERTEX
8
OBJECT016
10
0
20
0
30
0
70
128
71
1
72
5
73
-6
0
VERTEX
8
OBJECT016
10
0
20
0
30
0
70
128
71
-1
72
6
73
2
0
VERTEX
8
OBJECT016
10
0
20
0
30
0
70
128
71
4
72
3
73
-8
0
VERTEX
8
OBJECT016
10
0
20
0
30
0
70
128
71
-4
72
8
73
7
0
VERTEX
8
OBJECT016
10
0
20
0
30
0
70
128
71
1
72
4
73
-7
0
VERTEX
8
OBJECT016
10
0
20
0
30
0
70
128
71
-1
72
7
73
5
0
VERTEX
8
OBJECT016
10
0
20
0
30
0
70
128
71
5
72
7
73
-8
0
VERTEX
8
OBJECT016
10
0
20
0
30
0
70
128
71
-5
72
8
73
6
0
VERTEX
8
OBJECT016
10
0
20
0
30
0
70
128
71
2
72
6
73
-8
0
VERTEX
8
OBJECT016
10
0
20
0
30
0
70
128
71
-2
72
8
73
3
0
SEQEND
8
OBJECT016
0
POLYLINE
8
OBJECT017
66
1
70
64
71
6
72
8
62
50
0
VERTEX
8
OBJECT017
10
-32.000000
20
-156.869308
30
-154.000000
70
192
0
VERTEX
8
OBJECT017
10
-15.007174
20
-153.094070
30
-154.000000
70
192
0
VERTEX
8
OBJECT017
10
-32.000000
20
-154.000000
30
-154.000000
70
192
0
VERTEX
8
OBJECT017
10
-15.007174
20
-153.094070
30
-38.000000
70
192
0
VERTEX
8
OBJECT017
10
-32.000000
20
-156.869308
30
-38.000000
70
192
0
VERTEX
8
OBJECT017
10
-32.000000
20
-154.000000
30
-38.000000
70
192
0
VERTEX
8
OBJECT017
10
0
20
0
30
0
70
128
71
2
72
3
73
1
0
VERTEX
8
OBJECT017
10
0
20
0
30
0
70
128
71
5
72
6
73
4
0
VERTEX
8
OBJECT017
10
0
20
0
30
0
70
128
71
1
72
5
73
-4
0
VERTEX
8
OBJECT017
10
0
20
0
30
0
70
128
71
-1
72
4
73
2
0
VERTEX
8
OBJECT017
10
0
20
0
30
0
70
128
71
2
72
4
73
-6
0
VERTEX
8
OBJECT017
10
0
20
0
30
0
70
128
71
-2
72
6
73
3
0
VERTEX
8
OBJECT017
10
0
20
0
30
0
70
128
71
3
72
6
73
-5
0
VERTEX
8
OBJECT017
10
0
20
0
30
0
70
128
71
-3
72
5
73
1
0
SEQEND
8
OBJECT017
0
ENDSEC
0
EOF
