0
SECTION
2
HEADER
9
$ACADVER
1
AC1008
9
$UCSORG
10
0.0
20
0.0
30
0.0
9
$UCSXDIR
10
1.0
20
0.0
30
0.0
9
$TILEMODE
70
1
9
$UCSYDIR
10
0.0
20
1.0
30
0.0
9
$EXTMIN
10
-48.000000
20
-48.000004
30
-0.000002
9
$EXTMAX
10
48.000004
20
48.000000
30
48.000000
0
ENDSEC
0
SECTION
2
TABLES
0
TABLE
2
LTYPE
70
1
0
LTYPE
2
CONTINUOUS
70
64
3
Solid line
72
65
73
0
40
0.0
0
ENDTAB
0
TABLE
2
LAYER
70
1
0
LAYER
2
0
70
0
62
7
6
CONTINUOUS
0
ENDTAB
0
TABLE
2
STYLE
70
1
0
STYLE
2
STANDARD
70
0
40
0.0
41
1.0
50
0.0
71
0
42
0.2
3
txt
4

0
ENDTAB
0
TABLE
2
UCS
70
0
0
ENDTAB
0
ENDSEC
0
SECTION
2
ENTITIES
0
POLYLINE
8
OBJECT000
66
1
70
64
71
223
72
437
62
50
0
VERTEX
8
OBJECT000
10
7.200002
20
7.199998
30
47.077789
70
192
0
VERTEX
8
OBJECT000
10
0.000002
20
-0.000002
30
48.000000
70
192
0
VERTEX
8
OBJECT000
10
0.000002
20
9.599998
30
47.077789
70
192
0
VERTEX
8
OBJECT000
10
9.600002
20
-0.000002
30
47.076653
70
192
0
VERTEX
8
OBJECT000
10
7.200002
20
-7.175649
30
47.077789
70
192
0
VERTEX
8
OBJECT000
10
0.000002
20
-9.600002
30
47.077095
70
192
0
VERTEX
8
OBJECT000
10
-7.199998
20
-7.200002
30
47.077129
70
192
0
VERTEX
8
OBJECT000
10
-9.599998
20
-0.000002
30
47.076820
70
192
0
VERTEX
8
OBJECT000
10
-7.199998
20
7.199998
30
47.076763
70
192
0
VERTEX
8
OBJECT000
10
0.615126
20
18.074377
30
44.254578
70
192
0
VERTEX
8
OBJECT000
10
8.552382
20
18.874767
30
43.133678
70
192
0
VERTEX
8
OBJECT000
10
12.441845
20
12.982030
30
44.628662
70
192
0
VERTEX
8
OBJECT000
10
18.071844
20
-0.617543
30
44.253315
70
192
0
VERTEX
8
OBJECT000
10
13.200003
20
13.199999
30
44.344372
70
192
0
VERTEX
8
OBJECT000
10
20.558315
20
7.798424
30
42.445019
70
192
0
VERTEX
8
OBJECT000
10
18.956463
20
0.198558
30
43.858063
70
192
0
VERTEX
8
OBJECT000
10
12.991995
20
-12.446890
30
44.623718
70
192
0
VERTEX
8
OBJECT000
10
18.881060
20
-8.624453
30
43.121376
70
192
0
VERTEX
8
OBJECT000
10
-0.622429
20
-18.056107
30
44.262066
70
192
0
VERTEX
8
OBJECT000
10
13.200003
20
-13.200003
30
44.345673
70
192
0
VERTEX
8
OBJECT000
10
7.789080
20
-20.524368
30
42.461975
70
192
0
VERTEX
8
OBJECT000
10
0.179015
20
-18.923183
30
43.874798
70
192
0
VERTEX
8
OBJECT000
10
-12.441109
20
-12.987234
30
44.627159
70
192
0
VERTEX
8
OBJECT000
10
-8.610103
20
-18.865213
30
43.131500
70
192
0
VERTEX
8
OBJECT000
10
-18.067181
20
0.622813
30
44.255566
70
192
0
VERTEX
8
OBJECT000
10
-13.219179
20
-13.200003
30
44.336388
70
192
0
VERTEX
8
OBJECT000
10
-20.543150
20
-7.791945
30
42.451794
70
192
0
VERTEX
8
OBJECT000
10
-18.949858
20
-0.192885
30
43.861214
70
192
0
VERTEX
8
OBJECT000
10
-12.977233
20
12.441869
30
44.631153
70
192
0
VERTEX
8
OBJECT000
10
-18.864550
20
8.609508
30
43.131920
70
192
0
VERTEX
8
OBJECT000
10
-13.199999
20
13.181688
30
44.351295
70
192
0
VERTEX
8
OBJECT000
10
-7.803377
20
20.535570
30
42.454487
70
192
0
VERTEX
8
OBJECT000
10
-0.176173
20
18.938158
30
43.867931
70
192
0
VERTEX
8
OBJECT000
10
-1.576948
20
25.682665
30
40.429085
70
192
0
VERTEX
8
OBJECT000
10
-0.015864
20
26.400000
30
39.916115
70
192
0
VERTEX
8
OBJECT000
10
10.922179
20
26.249340
30
39.030376
70
192
0
VERTEX
8
OBJECT000
10
12.028548
20
24.153662
30
40.039967
70
192
0
VERTEX
8
OBJECT000
10
17.477686
20
19.523546
30
40.611549
70
192
0
VERTEX
8
OBJECT000
10
25.288609
20
8.542308
30
40.052071
70
192
0
VERTEX
8
OBJECT000
10
19.224392
20
19.199999
30
39.891796
70
192
0
VERTEX
8
OBJECT000
10
26.294460
20
11.445335
30
38.780861
70
192
0
VERTEX
8
OBJECT000
10
25.674000
20
1.577452
30
40.432617
70
192
0
VERTEX
8
OBJECT000
10
24.085962
20
-12.045852
30
40.073639
70
192
0
VERTEX
8
OBJECT000
10
26.400003
20
-0.000002
30
39.916679
70
192
0
VERTEX
8
OBJECT000
10
26.249252
20
-10.894924
30
39.032738
70
192
0
VERTEX
8
OBJECT000
10
19.502146
20
-17.493973
30
40.617500
70
192
0
VERTEX
8
OBJECT000
10
8.555624
20
-25.331034
30
40.029713
70
192
0
VERTEX
8
OBJECT000
10
19.200003
20
-19.200003
30
39.918110
70
192
0
VERTEX
8
OBJECT000
10
11.401806
20
-26.329727
30
38.779869
70
192
0
VERTEX
8
OBJECT000
10
1.577694
20
-25.680838
30
40.429741
70
192
0
VERTEX
8
OBJECT000
10
-12.077270
20
-24.120083
30
40.051170
70
192
0
VERTEX
8
OBJECT000
10
-0.017073
20
-26.400003
30
39.905109
70
192
0
VERTEX
8
OBJECT000
10
-10.958632
20
-26.247074
30
39.026569
70
192
0
VERTEX
8
OBJECT000
10
-17.508049
20
-19.503225
30
40.613800
70
192
0
VERTEX
8
OBJECT000
10
-25.311546
20
-8.542312
30
40.040295
70
192
0
VERTEX
8
OBJECT000
10
-19.199999
20
-19.200003
30
39.913605
70
192
0
VERTEX
8
OBJECT000
10
-26.311119
20
-11.418423
30
38.782654
70
192
0
VERTEX
8
OBJECT000
10
-25.672813
20
-1.589650
30
40.433826
70
192
0
VERTEX
8
OBJECT000
10
-24.085648
20
12.059215
30
40.070179
70
192
0
VERTEX
8
OBJECT000
10
-26.414017
20
0.026805
30
39.899086
70
192
0
VERTEX
8
OBJECT000
10
-26.251272
20
10.908800
30
39.027760
70
192
0
VERTEX
8
OBJECT000
10
-19.529533
20
17.471264
30
40.610504
70
192
0
VERTEX
8
OBJECT000
10
-8.562322
20
25.323925
30
40.032387
70
192
0
VERTEX
8
OBJECT000
10
-19.199999
20
19.242735
30
39.882568
70
192
0
VERTEX
8
OBJECT000
10
-11.425560
20
26.327013
30
38.773296
70
192
0
VERTEX
8
OBJECT000
10
3.744124
20
32.370884
30
34.615520
70
192
0
VERTEX
8
OBJECT000
10
11.352569
20
29.796021
30
36.050354
70
192
0
VERTEX
8
OBJECT000
10
13.155562
20
31.155762
30
34.004204
70
192
0
VERTEX
8
OBJECT000
10
25.728968
20
25.326122
30
31.569927
70
192
0
VERTEX
8
OBJECT000
10
24.559948
20
22.833361
30
34.142796
70
192
0
VERTEX
8
OBJECT000
10
29.226227
20
13.078307
30
35.809132
70
192
0
VERTEX
8
OBJECT000
10
32.377419
20
-3.739785
30
34.610172
70
192
0
VERTEX
8
OBJECT000
10
31.344410
20
13.267491
30
33.768620
70
192
0
VERTEX
8
OBJECT000
10
38.225990
20
0.840342
30
28.539843
70
192
0
VERTEX
8
OBJECT000
10
29.808237
20
-11.310281
30
36.045410
70
192
0
VERTEX
8
OBJECT000
10
22.825327
20
-24.574001
30
34.132599
70
192
0
VERTEX
8
OBJECT000
10
31.291336
20
-13.267385
30
33.815220
70
192
0
VERTEX
8
OBJECT000
10
25.361210
20
-25.773855
30
31.504906
70
192
0
VERTEX
8
OBJECT000
10
13.010397
20
-29.270365
30
35.811199
70
192
0
VERTEX
8
OBJECT000
10
-3.705687
20
-32.343937
30
34.639343
70
192
0
VERTEX
8
OBJECT000
10
13.175851
20
-31.159353
30
33.993584
70
192
0
VERTEX
8
OBJECT000
10
0.904158
20
-38.087479
30
28.686804
70
192
0
VERTEX
8
OBJECT000
10
-11.398222
20
-29.791958
30
36.044201
70
192
0
VERTEX
8
OBJECT000
10
-24.621349
20
-22.859146
30
34.084827
70
192
0
VERTEX
8
OBJECT000
10
-13.131572
20
-31.106363
30
34.069427
70
192
0
VERTEX
8
OBJECT000
10
-25.767975
20
-25.296646
30
31.566978
70
192
0
VERTEX
8
OBJECT000
10
-29.271898
20
-13.051723
30
35.788128
70
192
0
VERTEX
8
OBJECT000
10
-32.321247
20
3.700743
30
34.659447
70
192
0
VERTEX
8
OBJECT000
10
-31.269268
20
-13.225930
30
33.865723
70
192
0
VERTEX
8
OBJECT000
10
-38.101170
20
-0.933327
30
28.660254
70
192
0
VERTEX
8
OBJECT000
10
-29.804810
20
11.325987
30
36.043945
70
192
0
VERTEX
8
OBJECT000
10
-22.762114
20
24.509033
30
34.217266
70
192
0
VERTEX
8
OBJECT000
10
-31.250536
20
13.225194
30
33.873943
70
192
0
VERTEX
8
OBJECT000
10
-25.386511
20
25.744335
30
31.501446
70
192
0
VERTEX
8
OBJECT000
10
-13.027147
20
29.233665
30
35.832844
70
192
0
VERTEX
8
OBJECT000
10
-13.199999
20
31.223619
30
33.914005
70
192
0
VERTEX
8
OBJECT000
10
-0.847905
20
38.203342
30
28.567017
70
192
0
VERTEX
8
OBJECT000
10
16.516382
20
36.636181
30
26.623278
70
192
0
VERTEX
8
OBJECT000
10
-0.998957
20
39.012562
30
27.621696
70
192
0
VERTEX
8
OBJECT000
10
-0.024434
20
39.565430
30
26.736282
70
192
0
VERTEX
8
OBJECT000
10
15.405379
20
38.226780
30
24.942461
70
192
0
VERTEX
8
OBJECT000
10
28.892252
20
29.135376
30
25.911163
70
192
0
VERTEX
8
OBJECT000
10
29.193771
20
28.013891
30
26.791460
70
192
0
VERTEX
8
OBJECT000
10
36.558769
20
16.142759
30
27.288483
70
192
0
VERTEX
8
OBJECT000
10
39.011658
20
0.991331
30
27.621552
70
192
0
VERTEX
8
OBJECT000
10
37.139076
20
15.645335
30
26.735027
70
192
0
VERTEX
8
OBJECT000
10
36.630333
20
-16.534719
30
26.623196
70
192
0
VERTEX
8
OBJECT000
10
39.574085
20
-0.000002
30
26.721798
70
192
0
VERTEX
8
OBJECT000
10
38.229000
20
-15.418471
30
24.933855
70
192
0
VERTEX
8
OBJECT000
10
28.072535
20
-29.281240
30
26.673065
70
192
0
VERTEX
8
OBJECT000
10
29.076685
20
-29.019327
30
25.879768
70
192
0
VERTEX
8
OBJECT000
10
16.155664
20
-36.558109
30
27.278786
70
192
0
VERTEX
8
OBJECT000
10
1.084774
20
-38.997147
30
27.623327
70
192
0
VERTEX
8
OBJECT000
10
15.600002
20
-37.200005
30
26.679573
70
192
0
VERTEX
8
OBJECT000
10
-16.519325
20
-36.648930
30
26.602642
70
192
0
VERTEX
8
OBJECT000
10
-0.027327
20
-39.630508
30
26.609940
70
192
0
VERTEX
8
OBJECT000
10
-15.408360
20
-38.246853
30
24.908897
70
192
0
VERTEX
8
OBJECT000
10
-29.192009
20
-27.935598
30
26.855465
70
192
0
VERTEX
8
OBJECT000
10
-28.855993
20
-29.175699
30
25.882900
70
192
0
VERTEX
8
OBJECT000
10
-36.570152
20
-16.120718
30
27.292364
70
192
0
VERTEX
8
OBJECT000
10
-38.994728
20
-1.114309
30
27.615591
70
192
0
VERTEX
8
OBJECT000
10
-37.096783
20
-15.670132
30
26.790636
70
192
0
VERTEX
8
OBJECT000
10
-36.640392
20
16.525377
30
26.610443
70
192
0
VERTEX
8
OBJECT000
10
-39.662731
20
0.054124
30
26.548279
70
192
0
VERTEX
8
OBJECT000
10
-38.249836
20
15.408617
30
24.901932
70
192
0
VERTEX
8
OBJECT000
10
-28.062450
20
29.188293
30
26.746939
70
192
0
VERTEX
8
OBJECT000
10
-29.139238
20
28.899719
30
25.900396
70
192
0
VERTEX
8
OBJECT000
10
-16.144106
20
36.562794
30
27.278713
70
192
0
VERTEX
8
OBJECT000
10
-15.552675
20
37.251598
30
26.622473
70
192
0
VERTEX
8
OBJECT000
10
15.005486
20
40.409035
30
21.275555
70
192
0
VERTEX
8
OBJECT000
10
3.053661
20
43.573681
30
18.987267
70
192
0
VERTEX
8
OBJECT000
10
30.095007
20
31.107788
30
20.699789
70
192
0
VERTEX
8
OBJECT000
10
16.749758
20
40.799999
30
18.425316
70
192
0
VERTEX
8
OBJECT000
10
41.122452
20
15.973717
30
17.874544
70
192
0
VERTEX
8
OBJECT000
10
31.978531
20
31.412804
30
16.309395
70
192
0
VERTEX
8
OBJECT000
10
39.072613
20
24.714550
30
10.379011
70
192
0
VERTEX
8
OBJECT000
10
42.597157
20
18.980125
30
10.689183
70
192
0
VERTEX
8
OBJECT000
10
43.580269
20
-3.061086
30
18.968498
70
192
0
VERTEX
8
OBJECT000
10
46.144165
20
0.426670
30
12.147746
70
192
0
VERTEX
8
OBJECT000
10
40.407352
20
-15.025088
30
21.267397
70
192
0
VERTEX
8
OBJECT000
10
31.008612
20
-30.219181
30
20.753714
70
192
0
VERTEX
8
OBJECT000
10
41.002464
20
-17.731277
30
16.860716
70
192
0
VERTEX
8
OBJECT000
10
15.925820
20
-41.093487
30
17.999998
70
192
0
VERTEX
8
OBJECT000
10
31.103231
20
-30.845474
30
19.308836
70
192
0
VERTEX
8
OBJECT000
10
23.246195
20
-39.981777
30
10.541124
70
192
0
VERTEX
8
OBJECT000
10
19.011816
20
-42.578323
30
10.733348
70
192
0
VERTEX
8
OBJECT000
10
-3.056422
20
-43.575588
30
18.979778
70
192
0
VERTEX
8
OBJECT000
10
0.433678
20
-46.127201
30
12.203639
70
192
0
VERTEX
8
OBJECT000
10
-15.016954
20
-40.406475
30
21.276379
70
192
0
VERTEX
8
OBJECT000
10
-30.030945
20
-31.132364
30
20.744118
70
192
0
VERTEX
8
OBJECT000
10
-16.386583
20
-40.706108
30
19.052608
70
192
0
VERTEX
8
OBJECT000
10
-41.142811
20
-16.006205
30
17.781170
70
192
0
VERTEX
8
OBJECT000
10
-32.263584
20
-31.501835
30
15.522481
70
192
0
VERTEX
8
OBJECT000
10
-38.744202
20
-25.303860
30
10.234423
70
192
0
VERTEX
8
OBJECT000
10
-42.612343
20
-18.959402
30
10.667394
70
192
0
VERTEX
8
OBJECT000
10
-43.574524
20
3.058812
30
18.981499
70
192
0
VERTEX
8
OBJECT000
10
-46.148693
20
-0.435097
30
12.123439
70
192
0
VERTEX
8
OBJECT000
10
-40.407421
20
15.020762
30
21.269712
70
192
0
VERTEX
8
OBJECT000
10
-31.101488
20
30.085033
30
20.740171
70
192
0
VERTEX
8
OBJECT000
10
-40.828564
20
16.945457
30
18.144506
70
192
0
VERTEX
8
OBJECT000
10
-15.836543
20
41.058727
30
18.192396
70
192
0
VERTEX
8
OBJECT000
10
-31.386786
20
31.852623
30
16.619896
70
192
0
VERTEX
8
OBJECT000
10
-24.596100
20
39.120045
30
10.441661
70
192
0
VERTEX
8
OBJECT000
10
-18.976280
20
42.597511
30
10.692058
70
192
0
VERTEX
8
OBJECT000
10
-0.428758
20
46.103355
30
12.286715
70
192
0
VERTEX
8
OBJECT000
10
18.565294
20
42.877258
30
9.156984
70
192
0
VERTEX
8
OBJECT000
10
-0.522581
20
46.503185
30
10.862658
70
192
0
VERTEX
8
OBJECT000
10
0.000002
20
46.799999
30
9.295504
70
192
0
VERTEX
8
OBJECT000
10
18.000002
20
43.437378
30
7.506260
70
192
0
VERTEX
8
OBJECT000
10
34.507622
20
32.142002
30
9.508959
70
192
0
VERTEX
8
OBJECT000
10
33.072456
20
34.360802
30
5.948536
70
192
0
VERTEX
8
OBJECT000
10
33.707176
20
33.445385
30
7.337547
70
192
0
VERTEX
8
OBJECT000
10
46.506523
20
0.513792
30
10.857897
70
192
0
VERTEX
8
OBJECT000
10
43.200005
20
17.999998
30
9.358519
70
192
0
VERTEX
8
OBJECT000
10
42.420166
20
-19.035244
30
10.492381
70
192
0
VERTEX
8
OBJECT000
10
46.800003
20
-0.000002
30
9.325231
70
192
0
VERTEX
8
OBJECT000
10
43.440136
20
-18.000002
30
7.497765
70
192
0
VERTEX
8
OBJECT000
10
32.152737
20
-34.520805
30
9.464610
70
192
0
VERTEX
8
OBJECT000
10
34.307842
20
-33.110710
30
6.199098
70
192
0
VERTEX
8
OBJECT000
10
33.156227
20
-33.906776
30
7.863591
70
192
0
VERTEX
8
OBJECT000
10
23.346216
20
-39.920475
30
10.531245
70
192
0
VERTEX
8
OBJECT000
10
31.113733
20
-30.888248
30
19.199999
70
192
0
VERTEX
8
OBJECT000
10
0.523253
20
-46.505093
30
10.857183
70
192
0
VERTEX
8
OBJECT000
10
18.000002
20
-43.200005
30
9.360624
70
192
0
VERTEX
8
OBJECT000
10
-18.393217
20
-43.050957
30
8.643145
70
192
0
VERTEX
8
OBJECT000
10
0.000002
20
-46.800003
30
9.302974
70
192
0
VERTEX
8
OBJECT000
10
-17.999998
20
-43.440716
30
7.500621
70
192
0
VERTEX
8
OBJECT000
10
-34.567036
20
-32.156548
30
9.354673
70
192
0
VERTEX
8
OBJECT000
10
-33.054016
20
-34.389591
30
5.840184
70
192
0
VERTEX
8
OBJECT000
10
-34.345623
20
-32.521660
30
8.731511
70
192
0
VERTEX
8
OBJECT000
10
-46.502636
20
-0.522841
30
10.865395
70
192
0
VERTEX
8
OBJECT000
10
-43.200001
20
-18.000002
30
9.383659
70
192
0
VERTEX
8
OBJECT000
10
-42.778931
20
18.667528
30
9.440623
70
192
0
VERTEX
8
OBJECT000
10
-46.799999
20
-0.000002
30
9.287392
70
192
0
VERTEX
8
OBJECT000
10
-43.436810
20
17.999998
30
7.503853
70
192
0
VERTEX
8
OBJECT000
10
-32.133762
20
34.455322
30
9.631117
70
192
0
VERTEX
8
OBJECT000
10
-34.350605
20
33.079468
30
5.999998
70
192
0
VERTEX
8
OBJECT000
10
-18.050280
20
43.168983
30
9.432035
70
192
0
VERTEX
8
OBJECT000
10
18.024466
20
44.400002
30
0.047386
70
192
0
VERTEX
8
OBJECT000
10
0.000002
20
48.000000
30
-0.000002
70
192
0
VERTEX
8
OBJECT000
10
32.837257
20
34.700024
30
4.448381
70
192
0
VERTEX
8
OBJECT000
10
44.971603
20
15.120775
30
-0.000002
70
192
0
VERTEX
8
OBJECT000
10
33.718163
20
33.429527
30
-0.000002
70
192
0
VERTEX
8
OBJECT000
10
48.000004
20
-0.000002
30
-0.000002
70
192
0
VERTEX
8
OBJECT000
10
44.400005
20
-17.985025
30
-0.000002
70
192
0
VERTEX
8
OBJECT000
10
34.694847
20
-32.843193
30
4.448802
70
192
0
VERTEX
8
OBJECT000
10
15.132964
20
-44.966934
30
-0.000002
70
192
0
VERTEX
8
OBJECT000
10
33.060783
20
-33.972771
30
-0.000002
70
192
0
VERTEX
8
OBJECT000
10
-0.015901
20
-48.000004
30
-0.000002
70
192
0
VERTEX
8
OBJECT000
10
-17.958727
20
-44.400005
30
-0.000002
70
192
0
VERTEX
8
OBJECT000
10
-18.200674
20
-44.261063
30
-0.000002
70
192
0
VERTEX
8
OBJECT000
10
-32.842144
20
-34.695999
30
4.446229
70
192
0
VERTEX
8
OBJECT000
10
-44.981434
20
-15.111331
30
-0.000002
70
192
0
VERTEX
8
OBJECT000
10
-34.502911
20
-32.294167
30
-0.000002
70
192
0
VERTEX
8
OBJECT000
10
-48.000000
20
-0.000002
30
-0.000002
70
192
0
VERTEX
8
OBJECT000
10
-44.400002
20
17.999998
30
-0.000002
70
192
0
VERTEX
8
OBJECT000
10
-34.696140
20
32.839817
30
4.455037
70
192
0
VERTEX
8
OBJECT000
10
-15.132503
20
44.963123
30
-0.000002
70
192
0
VERTEX
8
OBJECT000
10
-34.394623
20
33.048923
30
3.229493
70
192
0
VERTEX
8
OBJECT000
10
-33.676556
20
33.489441
30
-0.000002
70
192
0
VERTEX
8
OBJECT000
10
33.600002
20
33.599998
30
-0.000002
70
192
0
VERTEX
8
OBJECT000
10
33.600002
20
-33.600002
30
-0.000002
70
192
0
VERTEX
8
OBJECT000
10
-33.599998
20
-33.600002
30
-0.000002
70
192
0
VERTEX
8
OBJECT000
10
0
20
0
30
0
70
128
71
2
72
3
73
1
0
VERTEX
8
OBJECT000
10
0
20
0
30
0
70
128
71
2
72
1
73
4
0
VERTEX
8
OBJECT000
10
0
20
0
30
0
70
128
71
2
72
4
73
5
0
VERTEX
8
OBJECT000
10
0
20
0
30
0
70
128
71
2
72
5
73
6
0
VERTEX
8
OBJECT000
10
0
20
0
30
0
70
128
71
2
72
6
73
7
0
VERTEX
8
OBJECT000
10
0
20
0
30
0
70
128
71
2
72
7
73
8
0
VERTEX
8
OBJECT000
10
0
20
0
30
0
70
128
71
2
72
8
73
9
0
VERTEX
8
OBJECT000
10
0
20
0
30
0
70
128
71
2
72
9
73
3
0
VERTEX
8
OBJECT000
10
0
20
0
30
0
70
128
71
3
72
10
73
-11
0
VERTEX
8
OBJECT000
10
0
20
0
30
0
70
128
71
-3
72
11
73
-12
0
VERTEX
8
OBJECT000
10
0
20
0
30
0
70
128
71
-3
72
12
73
1
0
VERTEX
8
OBJECT000
10
0
20
0
30
0
70
128
71
4
72
1
73
-12
0
VERTEX
8
OBJECT000
10
0
20
0
30
0
70
128
71
-4
72
12
73
-14
0
VERTEX
8
OBJECT000
10
0
20
0
30
0
70
128
71
-4
72
14
73
-15
0
VERTEX
8
OBJECT000
10
0
20
0
30
0
70
128
71
-4
72
15
73
-16
0
VERTEX
8
OBJECT000
10
0
20
0
30
0
70
128
71
-4
72
16
73
13
0
VERTEX
8
OBJECT000
10
0
20
0
30
0
70
128
71
5
72
4
73
-13
0
VERTEX
8
OBJECT000
10
0
20
0
30
0
70
128
71
-5
72
13
73
-18
0
VERTEX
8
OBJECT000
10
0
20
0
30
0
70
128
71
-5
72
18
73
17
0
VERTEX
8
OBJECT000
10
0
20
0
30
0
70
128
71
6
72
5
73
-17
0
VERTEX
8
OBJECT000
10
0
20
0
30
0
70
128
71
-6
72
17
73
-20
0
VERTEX
8
OBJECT000
10
0
20
0
30
0
70
128
71
-6
72
20
73
-21
0
VERTEX
8
OBJECT000
10
0
20
0
30
0
70
128
71
-6
72
21
73
-22
0
VERTEX
8
OBJECT000
10
0
20
0
30
0
70
128
71
-6
72
22
73
19
0
VERTEX
8
OBJECT000
10
0
20
0
30
0
70
128
71
7
72
6
73
-19
0
VERTEX
8
OBJECT000
10
0
20
0
30
0
70
128
71
-7
72
19
73
-24
0
VERTEX
8
OBJECT000
10
0
20
0
30
0
70
128
71
-7
72
24
73
23
0
VERTEX
8
OBJECT000
10
0
20
0
30
0
70
128
71
8
72
7
73
-23
0
VERTEX
8
OBJECT000
10
0
20
0
30
0
70
128
71
-8
72
23
73
-26
0
VERTEX
8
OBJECT000
10
0
20
0
30
0
70
128
71
-8
72
26
73
-27
0
VERTEX
8
OBJECT000
10
0
20
0
30
0
70
128
71
-8
72
27
73
-28
0
VERTEX
8
OBJECT000
10
0
20
0
30
0
70
128
71
-8
72
28
73
25
0
VERTEX
8
OBJECT000
10
0
20
0
30
0
70
128
71
9
72
8
73
-25
0
VERTEX
8
OBJECT000
10
0
20
0
30
0
70
128
71
-9
72
25
73
-30
0
VERTEX
8
OBJECT000
10
0
20
0
30
0
70
128
71
-9
72
30
73
29
0
VERTEX
8
OBJECT000
10
0
20
0
30
0
70
128
71
9
72
29
73
-31
0
VERTEX
8
OBJECT000
10
0
20
0
30
0
70
128
71
-9
72
31
73
-32
0
VERTEX
8
OBJECT000
10
0
20
0
30
0
70
128
71
-9
72
32
73
-33
0
VERTEX
8
OBJECT000
10
0
20
0
30
0
70
128
71
-9
72
33
73
-10
0
VERTEX
8
OBJECT000
10
0
20
0
30
0
70
128
71
-9
72
10
73
3
0
VERTEX
8
OBJECT000
10
0
20
0
30
0
70
128
71
10
72
33
73
-34
0
VERTEX
8
OBJECT000
10
0
20
0
30
0
70
128
71
-10
72
34
73
-35
0
VERTEX
8
OBJECT000
10
0
20
0
30
0
70
128
71
-10
72
35
73
-36
0
VERTEX
8
OBJECT000
10
0
20
0
30
0
70
128
71
-10
72
36
73
-37
0
VERTEX
8
OBJECT000
10
0
20
0
30
0
70
128
71
-10
72
37
73
11
0
VERTEX
8
OBJECT000
10
0
20
0
30
0
70
128
71
12
72
11
73
-37
0
VERTEX
8
OBJECT000
10
0
20
0
30
0
70
128
71
-12
72
37
73
-38
0
VERTEX
8
OBJECT000
10
0
20
0
30
0
70
128
71
-12
72
38
73
14
0
VERTEX
8
OBJECT000
10
0
20
0
30
0
70
128
71
15
72
14
73
-38
0
VERTEX
8
OBJECT000
10
0
20
0
30
0
70
128
71
-15
72
38
73
-40
0
VERTEX
8
OBJECT000
10
0
20
0
30
0
70
128
71
-15
72
40
73
-41
0
VERTEX
8
OBJECT000
10
0
20
0
30
0
70
128
71
-15
72
41
73
39
0
VERTEX
8
OBJECT000
10
0
20
0
30
0
70
128
71
15
72
39
73
-42
0
VERTEX
8
OBJECT000
10
0
20
0
30
0
70
128
71
-15
72
42
73
16
0
VERTEX
8
OBJECT000
10
0
20
0
30
0
70
128
71
18
72
13
73
-16
0
VERTEX
8
OBJECT000
10
0
20
0
30
0
70
128
71
-18
72
16
73
-42
0
VERTEX
8
OBJECT000
10
0
20
0
30
0
70
128
71
-18
72
42
73
-44
0
VERTEX
8
OBJECT000
10
0
20
0
30
0
70
128
71
-18
72
44
73
-45
0
VERTEX
8
OBJECT000
10
0
20
0
30
0
70
128
71
-18
72
45
73
43
0
VERTEX
8
OBJECT000
10
0
20
0
30
0
70
128
71
20
72
17
73
-18
0
VERTEX
8
OBJECT000
10
0
20
0
30
0
70
128
71
-20
72
18
73
-43
0
VERTEX
8
OBJECT000
10
0
20
0
30
0
70
128
71
-20
72
43
73
46
0
VERTEX
8
OBJECT000
10
0
20
0
30
0
70
128
71
21
72
20
73
-46
0
VERTEX
8
OBJECT000
10
0
20
0
30
0
70
128
71
-21
72
46
73
-48
0
VERTEX
8
OBJECT000
10
0
20
0
30
0
70
128
71
-21
72
48
73
-49
0
VERTEX
8
OBJECT000
10
0
20
0
30
0
70
128
71
-21
72
49
73
47
0
VERTEX
8
OBJECT000
10
0
20
0
30
0
70
128
71
21
72
47
73
-50
0
VERTEX
8
OBJECT000
10
0
20
0
30
0
70
128
71
-21
72
50
73
22
0
VERTEX
8
OBJECT000
10
0
20
0
30
0
70
128
71
24
72
19
73
-22
0
VERTEX
8
OBJECT000
10
0
20
0
30
0
70
128
71
-24
72
22
73
-50
0
VERTEX
8
OBJECT000
10
0
20
0
30
0
70
128
71
-24
72
50
73
-52
0
VERTEX
8
OBJECT000
10
0
20
0
30
0
70
128
71
-24
72
52
73
-53
0
VERTEX
8
OBJECT000
10
0
20
0
30
0
70
128
71
-24
72
53
73
51
0
VERTEX
8
OBJECT000
10
0
20
0
30
0
70
128
71
26
72
23
73
-24
0
VERTEX
8
OBJECT000
10
0
20
0
30
0
70
128
71
-26
72
24
73
-51
0
VERTEX
8
OBJECT000
10
0
20
0
30
0
70
128
71
-26
72
51
73
54
0
VERTEX
8
OBJECT000
10
0
20
0
30
0
70
128
71
27
72
26
73
-54
0
VERTEX
8
OBJECT000
10
0
20
0
30
0
70
128
71
-27
72
54
73
-56
0
VERTEX
8
OBJECT000
10
0
20
0
30
0
70
128
71
-27
72
56
73
-57
0
VERTEX
8
OBJECT000
10
0
20
0
30
0
70
128
71
-27
72
57
73
55
0
VERTEX
8
OBJECT000
10
0
20
0
30
0
70
128
71
27
72
55
73
-58
0
VERTEX
8
OBJECT000
10
0
20
0
30
0
70
128
71
-27
72
58
73
28
0
VERTEX
8
OBJECT000
10
0
20
0
30
0
70
128
71
30
72
25
73
-28
0
VERTEX
8
OBJECT000
10
0
20
0
30
0
70
128
71
-30
72
28
73
-58
0
VERTEX
8
OBJECT000
10
0
20
0
30
0
70
128
71
-30
72
58
73
-60
0
VERTEX
8
OBJECT000
10
0
20
0
30
0
70
128
71
-30
72
60
73
-61
0
VERTEX
8
OBJECT000
10
0
20
0
30
0
70
128
71
-30
72
61
73
59
0
VERTEX
8
OBJECT000
10
0
20
0
30
0
70
128
71
31
72
29
73
-30
0
VERTEX
8
OBJECT000
10
0
20
0
30
0
70
128
71
-31
72
30
73
-59
0
VERTEX
8
OBJECT000
10
0
20
0
30
0
70
128
71
-31
72
59
73
62
0
VERTEX
8
OBJECT000
10
0
20
0
30
0
70
128
71
32
72
31
73
-62
0
VERTEX
8
OBJECT000
10
0
20
0
30
0
70
128
71
-32
72
62
73
-64
0
VERTEX
8
OBJECT000
10
0
20
0
30
0
70
128
71
-32
72
64
73
-65
0
VERTEX
8
OBJECT000
10
0
20
0
30
0
70
128
71
-32
72
65
73
63
0
VERTEX
8
OBJECT000
10
0
20
0
30
0
70
128
71
33
72
32
73
-63
0
VERTEX
8
OBJECT000
10
0
20
0
30
0
70
128
71
-33
72
63
73
34
0
VERTEX
8
OBJECT000
10
0
20
0
30
0
70
128
71
35
72
66
73
-67
0
VERTEX
8
OBJECT000
10
0
20
0
30
0
70
128
71
-35
72
67
73
36
0
VERTEX
8
OBJECT000
10
0
20
0
30
0
70
128
71
38
72
37
73
-36
0
VERTEX
8
OBJECT000
10
0
20
0
30
0
70
128
71
-38
72
36
73
-67
0
VERTEX
8
OBJECT000
10
0
20
0
30
0
70
128
71
-38
72
67
73
-68
0
VERTEX
8
OBJECT000
10
0
20
0
30
0
70
128
71
-38
72
68
73
-69
0
VERTEX
8
OBJECT000
10
0
20
0
30
0
70
128
71
-38
72
69
73
-70
0
VERTEX
8
OBJECT000
10
0
20
0
30
0
70
128
71
-38
72
70
73
40
0
VERTEX
8
OBJECT000
10
0
20
0
30
0
70
128
71
41
72
40
73
-70
0
VERTEX
8
OBJECT000
10
0
20
0
30
0
70
128
71
-41
72
70
73
71
0
VERTEX
8
OBJECT000
10
0
20
0
30
0
70
128
71
44
72
42
73
-39
0
VERTEX
8
OBJECT000
10
0
20
0
30
0
70
128
71
-44
72
39
73
-41
0
VERTEX
8
OBJECT000
10
0
20
0
30
0
70
128
71
-44
72
41
73
-71
0
VERTEX
8
OBJECT000
10
0
20
0
30
0
70
128
71
-44
72
71
73
-73
0
VERTEX
8
OBJECT000
10
0
20
0
30
0
70
128
71
-44
72
73
73
-74
0
VERTEX
8
OBJECT000
10
0
20
0
30
0
70
128
71
-44
72
74
73
72
0
VERTEX
8
OBJECT000
10
0
20
0
30
0
70
128
71
44
72
72
73
-75
0
VERTEX
8
OBJECT000
10
0
20
0
30
0
70
128
71
-44
72
75
73
45
0
VERTEX
8
OBJECT000
10
0
20
0
30
0
70
128
71
48
72
46
73
-43
0
VERTEX
8
OBJECT000
10
0
20
0
30
0
70
128
71
-48
72
43
73
-45
0
VERTEX
8
OBJECT000
10
0
20
0
30
0
70
128
71
-48
72
45
73
-75
0
VERTEX
8
OBJECT000
10
0
20
0
30
0
70
128
71
-48
72
75
73
-77
0
VERTEX
8
OBJECT000
10
0
20
0
30
0
70
128
71
-48
72
77
73
-78
0
VERTEX
8
OBJECT000
10
0
20
0
30
0
70
128
71
-48
72
78
73
76
0
VERTEX
8
OBJECT000
10
0
20
0
30
0
70
128
71
49
72
48
73
-76
0
VERTEX
8
OBJECT000
10
0
20
0
30
0
70
128
71
-49
72
76
73
79
0
VERTEX
8
OBJECT000
10
0
20
0
30
0
70
128
71
52
72
50
73
-47
0
VERTEX
8
OBJECT000
10
0
20
0
30
0
70
128
71
-52
72
47
73
-49
0
VERTEX
8
OBJECT000
10
0
20
0
30
0
70
128
71
-52
72
49
73
-79
0
VERTEX
8
OBJECT000
10
0
20
0
30
0
70
128
71
-52
72
79
73
-81
0
VERTEX
8
OBJECT000
10
0
20
0
30
0
70
128
71
-52
72
81
73
-82
0
VERTEX
8
OBJECT000
10
0
20
0
30
0
70
128
71
-52
72
82
73
80
0
VERTEX
8
OBJECT000
10
0
20
0
30
0
70
128
71
52
72
80
73
-83
0
VERTEX
8
OBJECT000
10
0
20
0
30
0
70
128
71
-52
72
83
73
53
0
VERTEX
8
OBJECT000
10
0
20
0
30
0
70
128
71
56
72
54
73
-51
0
VERTEX
8
OBJECT000
10
0
20
0
30
0
70
128
71
-56
72
51
73
-53
0
VERTEX
8
OBJECT000
10
0
20
0
30
0
70
128
71
-56
72
53
73
-83
0
VERTEX
8
OBJECT000
10
0
20
0
30
0
70
128
71
-56
72
83
73
-85
0
VERTEX
8
OBJECT000
10
0
20
0
30
0
70
128
71
-56
72
85
73
-86
0
VERTEX
8
OBJECT000
10
0
20
0
30
0
70
128
71
-56
72
86
73
84
0
VERTEX
8
OBJECT000
10
0
20
0
30
0
70
128
71
57
72
56
73
-84
0
VERTEX
8
OBJECT000
10
0
20
0
30
0
70
128
71
-57
72
84
73
87
0
VERTEX
8
OBJECT000
10
0
20
0
30
0
70
128
71
60
72
58
73
-55
0
VERTEX
8
OBJECT000
10
0
20
0
30
0
70
128
71
-60
72
55
73
-57
0
VERTEX
8
OBJECT000
10
0
20
0
30
0
70
128
71
-60
72
57
73
-87
0
VERTEX
8
OBJECT000
10
0
20
0
30
0
70
128
71
-60
72
87
73
-89
0
VERTEX
8
OBJECT000
10
0
20
0
30
0
70
128
71
-60
72
89
73
-90
0
VERTEX
8
OBJECT000
10
0
20
0
30
0
70
128
71
-60
72
90
73
88
0
VERTEX
8
OBJECT000
10
0
20
0
30
0
70
128
71
60
72
88
73
-91
0
VERTEX
8
OBJECT000
10
0
20
0
30
0
70
128
71
-60
72
91
73
61
0
VERTEX
8
OBJECT000
10
0
20
0
30
0
70
128
71
64
72
62
73
-59
0
VERTEX
8
OBJECT000
10
0
20
0
30
0
70
128
71
-64
72
59
73
-61
0
VERTEX
8
OBJECT000
10
0
20
0
30
0
70
128
71
-64
72
61
73
-91
0
VERTEX
8
OBJECT000
10
0
20
0
30
0
70
128
71
-64
72
91
73
-93
0
VERTEX
8
OBJECT000
10
0
20
0
30
0
70
128
71
-64
72
93
73
-94
0
VERTEX
8
OBJECT000
10
0
20
0
30
0
70
128
71
-64
72
94
73
92
0
VERTEX
8
OBJECT000
10
0
20
0
30
0
70
128
71
65
72
64
73
-92
0
VERTEX
8
OBJECT000
10
0
20
0
30
0
70
128
71
-65
72
92
73
95
0
VERTEX
8
OBJECT000
10
0
20
0
30
0
70
128
71
34
72
63
73
-65
0
VERTEX
8
OBJECT000
10
0
20
0
30
0
70
128
71
-34
72
65
73
-95
0
VERTEX
8
OBJECT000
10
0
20
0
30
0
70
128
71
-34
72
95
73
-96
0
VERTEX
8
OBJECT000
10
0
20
0
30
0
70
128
71
-34
72
96
73
-97
0
VERTEX
8
OBJECT000
10
0
20
0
30
0
70
128
71
-34
72
97
73
-66
0
VERTEX
8
OBJECT000
10
0
20
0
30
0
70
128
71
-34
72
66
73
35
0
VERTEX
8
OBJECT000
10
0
20
0
30
0
70
128
71
68
72
67
73
-66
0
VERTEX
8
OBJECT000
10
0
20
0
30
0
70
128
71
-68
72
66
73
-97
0
VERTEX
8
OBJECT000
10
0
20
0
30
0
70
128
71
-68
72
97
73
-99
0
VERTEX
8
OBJECT000
10
0
20
0
30
0
70
128
71
-68
72
99
73
-100
0
VERTEX
8
OBJECT000
10
0
20
0
30
0
70
128
71
-68
72
100
73
-101
0
VERTEX
8
OBJECT000
10
0
20
0
30
0
70
128
71
-68
72
101
73
98
0
VERTEX
8
OBJECT000
10
0
20
0
30
0
70
128
71
68
72
98
73
-102
0
VERTEX
8
OBJECT000
10
0
20
0
30
0
70
128
71
-68
72
102
73
-103
0
VERTEX
8
OBJECT000
10
0
20
0
30
0
70
128
71
-68
72
103
73
69
0
VERTEX
8
OBJECT000
10
0
20
0
30
0
70
128
71
73
72
71
73
-70
0
VERTEX
8
OBJECT000
10
0
20
0
30
0
70
128
71
-73
72
70
73
-69
0
VERTEX
8
OBJECT000
10
0
20
0
30
0
70
128
71
-73
72
69
73
-103
0
VERTEX
8
OBJECT000
10
0
20
0
30
0
70
128
71
-73
72
103
73
104
0
VERTEX
8
OBJECT000
10
0
20
0
30
0
70
128
71
74
72
73
73
-104
0
VERTEX
8
OBJECT000
10
0
20
0
30
0
70
128
71
-74
72
104
73
-106
0
VERTEX
8
OBJECT000
10
0
20
0
30
0
70
128
71
-74
72
106
73
105
0
VERTEX
8
OBJECT000
10
0
20
0
30
0
70
128
71
77
72
75
73
-72
0
VERTEX
8
OBJECT000
10
0
20
0
30
0
70
128
71
-77
72
72
73
-74
0
VERTEX
8
OBJECT000
10
0
20
0
30
0
70
128
71
-77
72
74
73
-105
0
VERTEX
8
OBJECT000
10
0
20
0
30
0
70
128
71
-77
72
105
73
-108
0
VERTEX
8
OBJECT000
10
0
20
0
30
0
70
128
71
-77
72
108
73
-109
0
VERTEX
8
OBJECT000
10
0
20
0
30
0
70
128
71
-77
72
109
73
107
0
VERTEX
8
OBJECT000
10
0
20
0
30
0
70
128
71
78
72
77
73
-107
0
VERTEX
8
OBJECT000
10
0
20
0
30
0
70
128
71
-78
72
107
73
-111
0
VERTEX
8
OBJECT000
10
0
20
0
30
0
70
128
71
-78
72
111
73
110
0
VERTEX
8
OBJECT000
10
0
20
0
30
0
70
128
71
81
72
79
73
-76
0
VERTEX
8
OBJECT000
10
0
20
0
30
0
70
128
71
-81
72
76
73
-78
0
VERTEX
8
OBJECT000
10
0
20
0
30
0
70
128
71
-81
72
78
73
-110
0
VERTEX
8
OBJECT000
10
0
20
0
30
0
70
128
71
-81
72
110
73
112
0
VERTEX
8
OBJECT000
10
0
20
0
30
0
70
128
71
82
72
81
73
-112
0
VERTEX
8
OBJECT000
10
0
20
0
30
0
70
128
71
-82
72
112
73
-114
0
VERTEX
8
OBJECT000
10
0
20
0
30
0
70
128
71
-82
72
114
73
113
0
VERTEX
8
OBJECT000
10
0
20
0
30
0
70
128
71
85
72
83
73
-80
0
VERTEX
8
OBJECT000
10
0
20
0
30
0
70
128
71
-85
72
80
73
-82
0
VERTEX
8
OBJECT000
10
0
20
0
30
0
70
128
71
-85
72
82
73
-113
0
VERTEX
8
OBJECT000
10
0
20
0
30
0
70
128
71
-85
72
113
73
-116
0
VERTEX
8
OBJECT000
10
0
20
0
30
0
70
128
71
-85
72
116
73
-117
0
VERTEX
8
OBJECT000
10
0
20
0
30
0
70
128
71
-85
72
117
73
115
0
VERTEX
8
OBJECT000
10
0
20
0
30
0
70
128
71
86
72
85
73
-115
0
VERTEX
8
OBJECT000
10
0
20
0
30
0
70
128
71
-86
72
115
73
-119
0
VERTEX
8
OBJECT000
10
0
20
0
30
0
70
128
71
-86
72
119
73
118
0
VERTEX
8
OBJECT000
10
0
20
0
30
0
70
128
71
89
72
87
73
-84
0
VERTEX
8
OBJECT000
10
0
20
0
30
0
70
128
71
-89
72
84
73
-86
0
VERTEX
8
OBJECT000
10
0
20
0
30
0
70
128
71
-89
72
86
73
-118
0
VERTEX
8
OBJECT000
10
0
20
0
30
0
70
128
71
-89
72
118
73
120
0
VERTEX
8
OBJECT000
10
0
20
0
30
0
70
128
71
90
72
89
73
-120
0
VERTEX
8
OBJECT000
10
0
20
0
30
0
70
128
71
-90
72
120
73
-122
0
VERTEX
8
OBJECT000
10
0
20
0
30
0
70
128
71
-90
72
122
73
121
0
VERTEX
8
OBJECT000
10
0
20
0
30
0
70
128
71
93
72
91
73
-88
0
VERTEX
8
OBJECT000
10
0
20
0
30
0
70
128
71
-93
72
88
73
-90
0
VERTEX
8
OBJECT000
10
0
20
0
30
0
70
128
71
-93
72
90
73
-121
0
VERTEX
8
OBJECT000
10
0
20
0
30
0
70
128
71
-93
72
121
73
-124
0
VERTEX
8
OBJECT000
10
0
20
0
30
0
70
128
71
-93
72
124
73
-125
0
VERTEX
8
OBJECT000
10
0
20
0
30
0
70
128
71
-93
72
125
73
123
0
VERTEX
8
OBJECT000
10
0
20
0
30
0
70
128
71
94
72
93
73
-123
0
VERTEX
8
OBJECT000
10
0
20
0
30
0
70
128
71
-94
72
123
73
-127
0
VERTEX
8
OBJECT000
10
0
20
0
30
0
70
128
71
-94
72
127
73
126
0
VERTEX
8
OBJECT000
10
0
20
0
30
0
70
128
71
96
72
95
73
-92
0
VERTEX
8
OBJECT000
10
0
20
0
30
0
70
128
71
-96
72
92
73
-94
0
VERTEX
8
OBJECT000
10
0
20
0
30
0
70
128
71
-96
72
94
73
-126
0
VERTEX
8
OBJECT000
10
0
20
0
30
0
70
128
71
-96
72
126
73
128
0
VERTEX
8
OBJECT000
10
0
20
0
30
0
70
128
71
97
72
96
73
-128
0
VERTEX
8
OBJECT000
10
0
20
0
30
0
70
128
71
-97
72
128
73
-129
0
VERTEX
8
OBJECT000
10
0
20
0
30
0
70
128
71
-97
72
129
73
99
0
VERTEX
8
OBJECT000
10
0
20
0
30
0
70
128
71
101
72
100
73
-131
0
VERTEX
8
OBJECT000
10
0
20
0
30
0
70
128
71
-101
72
131
73
130
0
VERTEX
8
OBJECT000
10
0
20
0
30
0
70
128
71
102
72
98
73
-101
0
VERTEX
8
OBJECT000
10
0
20
0
30
0
70
128
71
-102
72
101
73
-130
0
VERTEX
8
OBJECT000
10
0
20
0
30
0
70
128
71
-102
72
130
73
-133
0
VERTEX
8
OBJECT000
10
0
20
0
30
0
70
128
71
-102
72
133
73
132
0
VERTEX
8
OBJECT000
10
0
20
0
30
0
70
128
71
106
72
104
73
-103
0
VERTEX
8
OBJECT000
10
0
20
0
30
0
70
128
71
-106
72
103
73
-102
0
VERTEX
8
OBJECT000
10
0
20
0
30
0
70
128
71
-106
72
102
73
-132
0
VERTEX
8
OBJECT000
10
0
20
0
30
0
70
128
71
-106
72
132
73
-135
0
VERTEX
8
OBJECT000
10
0
20
0
30
0
70
128
71
-106
72
135
73
-136
0
VERTEX
8
OBJECT000
10
0
20
0
30
0
70
128
71
-106
72
136
73
-137
0
VERTEX
8
OBJECT000
10
0
20
0
30
0
70
128
71
-106
72
137
73
134
0
VERTEX
8
OBJECT000
10
0
20
0
30
0
70
128
71
108
72
105
73
-106
0
VERTEX
8
OBJECT000
10
0
20
0
30
0
70
128
71
-108
72
106
73
-134
0
VERTEX
8
OBJECT000
10
0
20
0
30
0
70
128
71
-108
72
134
73
-139
0
VERTEX
8
OBJECT000
10
0
20
0
30
0
70
128
71
-108
72
139
73
138
0
VERTEX
8
OBJECT000
10
0
20
0
30
0
70
128
71
108
72
138
73
-140
0
VERTEX
8
OBJECT000
10
0
20
0
30
0
70
128
71
-108
72
140
73
109
0
VERTEX
8
OBJECT000
10
0
20
0
30
0
70
128
71
111
72
107
73
-109
0
VERTEX
8
OBJECT000
10
0
20
0
30
0
70
128
71
-111
72
109
73
-140
0
VERTEX
8
OBJECT000
10
0
20
0
30
0
70
128
71
-111
72
140
73
-142
0
VERTEX
8
OBJECT000
10
0
20
0
30
0
70
128
71
-111
72
142
73
141
0
VERTEX
8
OBJECT000
10
0
20
0
30
0
70
128
71
114
72
112
73
-110
0
VERTEX
8
OBJECT000
10
0
20
0
30
0
70
128
71
-114
72
110
73
-111
0
VERTEX
8
OBJECT000
10
0
20
0
30
0
70
128
71
-114
72
111
73
-141
0
VERTEX
8
OBJECT000
10
0
20
0
30
0
70
128
71
-114
72
141
73
-144
0
VERTEX
8
OBJECT000
10
0
20
0
30
0
70
128
71
-114
72
144
73
-145
0
VERTEX
8
OBJECT000
10
0
20
0
30
0
70
128
71
-114
72
145
73
-146
0
VERTEX
8
OBJECT000
10
0
20
0
30
0
70
128
71
-114
72
146
73
143
0
VERTEX
8
OBJECT000
10
0
20
0
30
0
70
128
71
116
72
113
73
-114
0
VERTEX
8
OBJECT000
10
0
20
0
30
0
70
128
71
-116
72
114
73
-143
0
VERTEX
8
OBJECT000
10
0
20
0
30
0
70
128
71
-116
72
143
73
-148
0
VERTEX
8
OBJECT000
10
0
20
0
30
0
70
128
71
-116
72
148
73
147
0
VERTEX
8
OBJECT000
10
0
20
0
30
0
70
128
71
116
72
147
73
-149
0
VERTEX
8
OBJECT000
10
0
20
0
30
0
70
128
71
-116
72
149
73
117
0
VERTEX
8
OBJECT000
10
0
20
0
30
0
70
128
71
119
72
115
73
-117
0
VERTEX
8
OBJECT000
10
0
20
0
30
0
70
128
71
-119
72
117
73
-149
0
VERTEX
8
OBJECT000
10
0
20
0
30
0
70
128
71
-119
72
149
73
-151
0
VERTEX
8
OBJECT000
10
0
20
0
30
0
70
128
71
-119
72
151
73
150
0
VERTEX
8
OBJECT000
10
0
20
0
30
0
70
128
71
122
72
120
73
-118
0
VERTEX
8
OBJECT000
10
0
20
0
30
0
70
128
71
-122
72
118
73
-119
0
VERTEX
8
OBJECT000
10
0
20
0
30
0
70
128
71
-122
72
119
73
-150
0
VERTEX
8
OBJECT000
10
0
20
0
30
0
70
128
71
-122
72
150
73
-153
0
VERTEX
8
OBJECT000
10
0
20
0
30
0
70
128
71
-122
72
153
73
-154
0
VERTEX
8
OBJECT000
10
0
20
0
30
0
70
128
71
-122
72
154
73
-155
0
VERTEX
8
OBJECT000
10
0
20
0
30
0
70
128
71
-122
72
155
73
152
0
VERTEX
8
OBJECT000
10
0
20
0
30
0
70
128
71
124
72
121
73
-122
0
VERTEX
8
OBJECT000
10
0
20
0
30
0
70
128
71
-124
72
122
73
-152
0
VERTEX
8
OBJECT000
10
0
20
0
30
0
70
128
71
-124
72
152
73
-157
0
VERTEX
8
OBJECT000
10
0
20
0
30
0
70
128
71
-124
72
157
73
156
0
VERTEX
8
OBJECT000
10
0
20
0
30
0
70
128
71
124
72
156
73
-158
0
VERTEX
8
OBJECT000
10
0
20
0
30
0
70
128
71
-124
72
158
73
125
0
VERTEX
8
OBJECT000
10
0
20
0
30
0
70
128
71
127
72
123
73
-125
0
VERTEX
8
OBJECT000
10
0
20
0
30
0
70
128
71
-127
72
125
73
-158
0
VERTEX
8
OBJECT000
10
0
20
0
30
0
70
128
71
-127
72
158
73
-160
0
VERTEX
8
OBJECT000
10
0
20
0
30
0
70
128
71
-127
72
160
73
159
0
VERTEX
8
OBJECT000
10
0
20
0
30
0
70
128
71
129
72
128
73
-126
0
VERTEX
8
OBJECT000
10
0
20
0
30
0
70
128
71
-129
72
126
73
-127
0
VERTEX
8
OBJECT000
10
0
20
0
30
0
70
128
71
-129
72
127
73
-159
0
VERTEX
8
OBJECT000
10
0
20
0
30
0
70
128
71
-129
72
159
73
-162
0
VERTEX
8
OBJECT000
10
0
20
0
30
0
70
128
71
-129
72
162
73
-163
0
VERTEX
8
OBJECT000
10
0
20
0
30
0
70
128
71
-129
72
163
73
-164
0
VERTEX
8
OBJECT000
10
0
20
0
30
0
70
128
71
-129
72
164
73
161
0
VERTEX
8
OBJECT000
10
0
20
0
30
0
70
128
71
100
72
99
73
-129
0
VERTEX
8
OBJECT000
10
0
20
0
30
0
70
128
71
-100
72
129
73
-161
0
VERTEX
8
OBJECT000
10
0
20
0
30
0
70
128
71
-100
72
161
73
-165
0
VERTEX
8
OBJECT000
10
0
20
0
30
0
70
128
71
-100
72
165
73
131
0
VERTEX
8
OBJECT000
10
0
20
0
30
0
70
128
71
133
72
130
73
-131
0
VERTEX
8
OBJECT000
10
0
20
0
30
0
70
128
71
-133
72
131
73
-165
0
VERTEX
8
OBJECT000
10
0
20
0
30
0
70
128
71
-133
72
165
73
-167
0
VERTEX
8
OBJECT000
10
0
20
0
30
0
70
128
71
-133
72
167
73
-168
0
VERTEX
8
OBJECT000
10
0
20
0
30
0
70
128
71
-133
72
168
73
-169
0
VERTEX
8
OBJECT000
10
0
20
0
30
0
70
128
71
-133
72
169
73
166
0
VERTEX
8
OBJECT000
10
0
20
0
30
0
70
128
71
135
72
132
73
-133
0
VERTEX
8
OBJECT000
10
0
20
0
30
0
70
128
71
-135
72
133
73
-166
0
VERTEX
8
OBJECT000
10
0
20
0
30
0
70
128
71
-135
72
166
73
-171
0
VERTEX
8
OBJECT000
10
0
20
0
30
0
70
128
71
-135
72
171
73
-172
0
VERTEX
8
OBJECT000
10
0
20
0
30
0
70
128
71
-135
72
172
73
170
0
VERTEX
8
OBJECT000
10
0
20
0
30
0
70
128
71
135
72
170
73
136
0
VERTEX
8
OBJECT000
10
0
20
0
30
0
70
128
71
139
72
134
73
-137
0
VERTEX
8
OBJECT000
10
0
20
0
30
0
70
128
71
-139
72
137
73
-174
0
VERTEX
8
OBJECT000
10
0
20
0
30
0
70
128
71
-139
72
174
73
173
0
VERTEX
8
OBJECT000
10
0
20
0
30
0
70
128
71
142
72
140
73
-138
0
VERTEX
8
OBJECT000
10
0
20
0
30
0
70
128
71
-142
72
138
73
-139
0
VERTEX
8
OBJECT000
10
0
20
0
30
0
70
128
71
-142
72
139
73
-173
0
VERTEX
8
OBJECT000
10
0
20
0
30
0
70
128
71
-142
72
173
73
-176
0
VERTEX
8
OBJECT000
10
0
20
0
30
0
70
128
71
-142
72
176
73
-177
0
VERTEX
8
OBJECT000
10
0
20
0
30
0
70
128
71
-142
72
177
73
175
0
VERTEX
8
OBJECT000
10
0
20
0
30
0
70
128
71
144
72
141
73
-142
0
VERTEX
8
OBJECT000
10
0
20
0
30
0
70
128
71
-144
72
142
73
-175
0
VERTEX
8
OBJECT000
10
0
20
0
30
0
70
128
71
-144
72
175
73
-179
0
VERTEX
8
OBJECT000
10
0
20
0
30
0
70
128
71
-144
72
179
73
-180
0
VERTEX
8
OBJECT000
10
0
20
0
30
0
70
128
71
-144
72
180
73
178
0
VERTEX
8
OBJECT000
10
0
20
0
30
0
70
128
71
182
72
178
73
181
0
VERTEX
8
OBJECT000
10
0
20
0
30
0
70
128
71
148
72
143
73
-146
0
VERTEX
8
OBJECT000
10
0
20
0
30
0
70
128
71
-148
72
146
73
-184
0
VERTEX
8
OBJECT000
10
0
20
0
30
0
70
128
71
-148
72
184
73
183
0
VERTEX
8
OBJECT000
10
0
20
0
30
0
70
128
71
151
72
149
73
-147
0
VERTEX
8
OBJECT000
10
0
20
0
30
0
70
128
71
-151
72
147
73
-148
0
VERTEX
8
OBJECT000
10
0
20
0
30
0
70
128
71
-151
72
148
73
-183
0
VERTEX
8
OBJECT000
10
0
20
0
30
0
70
128
71
-151
72
183
73
-186
0
VERTEX
8
OBJECT000
10
0
20
0
30
0
70
128
71
-151
72
186
73
-187
0
VERTEX
8
OBJECT000
10
0
20
0
30
0
70
128
71
-151
72
187
73
185
0
VERTEX
8
OBJECT000
10
0
20
0
30
0
70
128
71
153
72
150
73
-151
0
VERTEX
8
OBJECT000
10
0
20
0
30
0
70
128
71
-153
72
151
73
-185
0
VERTEX
8
OBJECT000
10
0
20
0
30
0
70
128
71
-153
72
185
73
-189
0
VERTEX
8
OBJECT000
10
0
20
0
30
0
70
128
71
-153
72
189
73
-190
0
VERTEX
8
OBJECT000
10
0
20
0
30
0
70
128
71
-153
72
190
73
188
0
VERTEX
8
OBJECT000
10
0
20
0
30
0
70
128
71
153
72
188
73
154
0
VERTEX
8
OBJECT000
10
0
20
0
30
0
70
128
71
157
72
152
73
-155
0
VERTEX
8
OBJECT000
10
0
20
0
30
0
70
128
71
-157
72
155
73
-192
0
VERTEX
8
OBJECT000
10
0
20
0
30
0
70
128
71
-157
72
192
73
191
0
VERTEX
8
OBJECT000
10
0
20
0
30
0
70
128
71
160
72
158
73
-156
0
VERTEX
8
OBJECT000
10
0
20
0
30
0
70
128
71
-160
72
156
73
-157
0
VERTEX
8
OBJECT000
10
0
20
0
30
0
70
128
71
-160
72
157
73
-191
0
VERTEX
8
OBJECT000
10
0
20
0
30
0
70
128
71
-160
72
191
73
-194
0
VERTEX
8
OBJECT000
10
0
20
0
30
0
70
128
71
-160
72
194
73
-195
0
VERTEX
8
OBJECT000
10
0
20
0
30
0
70
128
71
-160
72
195
73
193
0
VERTEX
8
OBJECT000
10
0
20
0
30
0
70
128
71
162
72
159
73
-160
0
VERTEX
8
OBJECT000
10
0
20
0
30
0
70
128
71
-162
72
160
73
-193
0
VERTEX
8
OBJECT000
10
0
20
0
30
0
70
128
71
-162
72
193
73
-197
0
VERTEX
8
OBJECT000
10
0
20
0
30
0
70
128
71
-162
72
197
73
196
0
VERTEX
8
OBJECT000
10
0
20
0
30
0
70
128
71
162
72
196
73
163
0
VERTEX
8
OBJECT000
10
0
20
0
30
0
70
128
71
165
72
161
73
-164
0
VERTEX
8
OBJECT000
10
0
20
0
30
0
70
128
71
-165
72
164
73
-198
0
VERTEX
8
OBJECT000
10
0
20
0
30
0
70
128
71
-165
72
198
73
167
0
VERTEX
8
OBJECT000
10
0
20
0
30
0
70
128
71
169
72
168
73
-200
0
VERTEX
8
OBJECT000
10
0
20
0
30
0
70
128
71
-169
72
200
73
199
0
VERTEX
8
OBJECT000
10
0
20
0
30
0
70
128
71
166
72
169
73
-199
0
VERTEX
8
OBJECT000
10
0
20
0
30
0
70
128
71
-166
72
199
73
-201
0
VERTEX
8
OBJECT000
10
0
20
0
30
0
70
128
71
-166
72
201
73
171
0
VERTEX
8
OBJECT000
10
0
20
0
30
0
70
128
71
174
72
137
73
-136
0
VERTEX
8
OBJECT000
10
0
20
0
30
0
70
128
71
-174
72
136
73
-170
0
VERTEX
8
OBJECT000
10
0
20
0
30
0
70
128
71
-174
72
170
73
-172
0
VERTEX
8
OBJECT000
10
0
20
0
30
0
70
128
71
-174
72
172
73
-203
0
VERTEX
8
OBJECT000
10
0
20
0
30
0
70
128
71
-174
72
203
73
202
0
VERTEX
8
OBJECT000
10
0
20
0
30
0
70
128
71
173
72
174
73
-202
0
VERTEX
8
OBJECT000
10
0
20
0
30
0
70
128
71
-173
72
202
73
-204
0
VERTEX
8
OBJECT000
10
0
20
0
30
0
70
128
71
-173
72
204
73
176
0
VERTEX
8
OBJECT000
10
0
20
0
30
0
70
128
71
176
72
204
73
-205
0
VERTEX
8
OBJECT000
10
0
20
0
30
0
70
128
71
-176
72
205
73
177
0
VERTEX
8
OBJECT000
10
0
20
0
30
0
70
128
71
175
72
177
73
-205
0
VERTEX
8
OBJECT000
10
0
20
0
30
0
70
128
71
-175
72
205
73
-206
0
VERTEX
8
OBJECT000
10
0
20
0
30
0
70
128
71
-175
72
206
73
179
0
VERTEX
8
OBJECT000
10
0
20
0
30
0
70
128
71
184
72
146
73
-145
0
VERTEX
8
OBJECT000
10
0
20
0
30
0
70
128
71
-184
72
145
73
-178
0
VERTEX
8
OBJECT000
10
0
20
0
30
0
70
128
71
-184
72
178
73
-180
0
VERTEX
8
OBJECT000
10
0
20
0
30
0
70
128
71
-184
72
180
73
-208
0
VERTEX
8
OBJECT000
10
0
20
0
30
0
70
128
71
-184
72
208
73
207
0
VERTEX
8
OBJECT000
10
0
20
0
30
0
70
128
71
183
72
184
73
-207
0
VERTEX
8
OBJECT000
10
0
20
0
30
0
70
128
71
-183
72
207
73
-209
0
VERTEX
8
OBJECT000
10
0
20
0
30
0
70
128
71
-183
72
209
73
186
0
VERTEX
8
OBJECT000
10
0
20
0
30
0
70
128
71
186
72
209
73
-210
0
VERTEX
8
OBJECT000
10
0
20
0
30
0
70
128
71
-186
72
210
73
187
0
VERTEX
8
OBJECT000
10
0
20
0
30
0
70
128
71
185
72
187
73
-210
0
VERTEX
8
OBJECT000
10
0
20
0
30
0
70
128
71
-185
72
210
73
-211
0
VERTEX
8
OBJECT000
10
0
20
0
30
0
70
128
71
-185
72
211
73
-212
0
VERTEX
8
OBJECT000
10
0
20
0
30
0
70
128
71
-185
72
212
73
189
0
VERTEX
8
OBJECT000
10
0
20
0
30
0
70
128
71
192
72
155
73
-154
0
VERTEX
8
OBJECT000
10
0
20
0
30
0
70
128
71
-192
72
154
73
-188
0
VERTEX
8
OBJECT000
10
0
20
0
30
0
70
128
71
-192
72
188
73
-190
0
VERTEX
8
OBJECT000
10
0
20
0
30
0
70
128
71
-192
72
190
73
-214
0
VERTEX
8
OBJECT000
10
0
20
0
30
0
70
128
71
-192
72
214
73
213
0
VERTEX
8
OBJECT000
10
0
20
0
30
0
70
128
71
191
72
192
73
-213
0
VERTEX
8
OBJECT000
10
0
20
0
30
0
70
128
71
-191
72
213
73
-215
0
VERTEX
8
OBJECT000
10
0
20
0
30
0
70
128
71
-191
72
215
73
194
0
VERTEX
8
OBJECT000
10
0
20
0
30
0
70
128
71
194
72
215
73
-216
0
VERTEX
8
OBJECT000
10
0
20
0
30
0
70
128
71
-194
72
216
73
195
0
VERTEX
8
OBJECT000
10
0
20
0
30
0
70
128
71
193
72
195
73
-216
0
VERTEX
8
OBJECT000
10
0
20
0
30
0
70
128
71
-193
72
216
73
-217
0
VERTEX
8
OBJECT000
10
0
20
0
30
0
70
128
71
-193
72
217
73
197
0
VERTEX
8
OBJECT000
10
0
20
0
30
0
70
128
71
198
72
164
73
-163
0
VERTEX
8
OBJECT000
10
0
20
0
30
0
70
128
71
-198
72
163
73
-196
0
VERTEX
8
OBJECT000
10
0
20
0
30
0
70
128
71
-198
72
196
73
-197
0
VERTEX
8
OBJECT000
10
0
20
0
30
0
70
128
71
-198
72
197
73
-219
0
VERTEX
8
OBJECT000
10
0
20
0
30
0
70
128
71
-198
72
219
73
-220
0
VERTEX
8
OBJECT000
10
0
20
0
30
0
70
128
71
-198
72
220
73
218
0
VERTEX
8
OBJECT000
10
0
20
0
30
0
70
128
71
168
72
167
73
-198
0
VERTEX
8
OBJECT000
10
0
20
0
30
0
70
128
71
-168
72
198
73
-218
0
VERTEX
8
OBJECT000
10
0
20
0
30
0
70
128
71
-168
72
218
73
200
0
VERTEX
8
OBJECT000
10
0
20
0
30
0
70
128
71
201
72
199
73
221
0
VERTEX
8
OBJECT000
10
0
20
0
30
0
70
128
71
172
72
171
73
-201
0
VERTEX
8
OBJECT000
10
0
20
0
30
0
70
128
71
-172
72
201
73
-221
0
VERTEX
8
OBJECT000
10
0
20
0
30
0
70
128
71
-172
72
221
73
203
0
VERTEX
8
OBJECT000
10
0
20
0
30
0
70
128
71
206
72
205
73
222
0
VERTEX
8
OBJECT000
10
0
20
0
30
0
70
128
71
180
72
179
73
-206
0
VERTEX
8
OBJECT000
10
0
20
0
30
0
70
128
71
-180
72
206
73
-222
0
VERTEX
8
OBJECT000
10
0
20
0
30
0
70
128
71
-180
72
222
73
208
0
VERTEX
8
OBJECT000
10
0
20
0
30
0
70
128
71
212
72
211
73
223
0
VERTEX
8
OBJECT000
10
0
20
0
30
0
70
128
71
190
72
189
73
-212
0
VERTEX
8
OBJECT000
10
0
20
0
30
0
70
128
71
-190
72
212
73
-223
0
VERTEX
8
OBJECT000
10
0
20
0
30
0
70
128
71
-190
72
223
73
214
0
VERTEX
8
OBJECT000
10
0
20
0
30
0
70
128
71
219
72
217
73
-216
0
VERTEX
8
OBJECT000
10
0
20
0
30
0
70
128
71
-219
72
216
73
220
0
VERTEX
8
OBJECT000
10
0
20
0
30
0
70
128
71
217
72
219
73
197
0
VERTEX
8
OBJECT000
10
0
20
0
30
0
70
128
71
215
72
213
73
-214
0
VERTEX
8
OBJECT000
10
0
20
0
30
0
70
128
71
-215
72
214
73
-223
0
VERTEX
8
OBJECT000
10
0
20
0
30
0
70
128
71
-215
72
223
73
-211
0
VERTEX
8
OBJECT000
10
0
20
0
30
0
70
128
71
-215
72
211
73
-210
0
VERTEX
8
OBJECT000
10
0
20
0
30
0
70
128
71
-215
72
210
73
-209
0
VERTEX
8
OBJECT000
10
0
20
0
30
0
70
128
71
-215
72
209
73
-207
0
VERTEX
8
OBJECT000
10
0
20
0
30
0
70
128
71
-215
72
207
73
-208
0
VERTEX
8
OBJECT000
10
0
20
0
30
0
70
128
71
-215
72
208
73
-222
0
VERTEX
8
OBJECT000
10
0
20
0
30
0
70
128
71
-215
72
222
73
-205
0
VERTEX
8
OBJECT000
10
0
20
0
30
0
70
128
71
-215
72
205
73
-204
0
VERTEX
8
OBJECT000
10
0
20
0
30
0
70
128
71
-215
72
204
73
-202
0
VERTEX
8
OBJECT000
10
0
20
0
30
0
70
128
71
-215
72
202
73
-221
0
VERTEX
8
OBJECT000
10
0
20
0
30
0
70
128
71
-215
72
221
73
-199
0
VERTEX
8
OBJECT000
10
0
20
0
30
0
70
128
71
-215
72
199
73
-200
0
VERTEX
8
OBJECT000
10
0
20
0
30
0
70
128
71
-215
72
200
73
-218
0
VERTEX
8
OBJECT000
10
0
20
0
30
0
70
128
71
-215
72
218
73
-220
0
VERTEX
8
OBJECT000
10
0
20
0
30
0
70
128
71
-215
72
220
73
216
0
SEQEND
8
OBJECT000
0
ENDSEC
0
EOF
