0
SECTION
2
HEADER
9
$ACADVER
1
AC1008
9
$UCSORG
10
0.0
20
0.0
30
0.0
9
$UCSXDIR
10
1.0
20
0.0
30
0.0
9
$TILEMODE
70
1
9
$UCSYDIR
10
0.0
20
1.0
30
0.0
9
$EXTMIN
10
-40.000000
20
-40.000000
30
-128.000000
9
$EXTMAX
10
40.000000
20
40.000000
30
64.000000
0
ENDSEC
0
SECTION
2
TABLES
0
TABLE
2
LTYPE
70
1
0
LTYPE
2
CONTINUOUS
70
64
3
Solid line
72
65
73
0
40
0.0
0
ENDTAB
0
TABLE
2
LAYER
70
1
0
LAYER
2
0
70
0
62
7
6
CONTINUOUS
0
ENDTAB
0
TABLE
2
STYLE
70
1
0
STYLE
2
STANDARD
70
0
40
0.0
41
1.0
50
0.0
71
0
42
0.2
3
txt
4

0
ENDTAB
0
TABLE
2
UCS
70
0
0
ENDTAB
0
ENDSEC
0
SECTION
2
ENTITIES
0
POLYLINE
8
OBJECT000
66
1
70
64
71
222
72
437
62
50
0
VERTEX
8
OBJECT000
10
6.000000
20
6.000000
30
63.077789
70
192
0
VERTEX
8
OBJECT000
10
0.000000
20
0.000000
30
64.000000
70
192
0
VERTEX
8
OBJECT000
10
0.000000
20
8.000000
30
63.077789
70
192
0
VERTEX
8
OBJECT000
10
8.000000
20
0.000000
30
63.076653
70
192
0
VERTEX
8
OBJECT000
10
6.000000
20
-5.979706
30
63.077789
70
192
0
VERTEX
8
OBJECT000
10
0.000000
20
-8.000000
30
63.077095
70
192
0
VERTEX
8
OBJECT000
10
-6.000000
20
-6.000000
30
63.077129
70
192
0
VERTEX
8
OBJECT000
10
-8.000000
20
0.000000
30
63.076820
70
192
0
VERTEX
8
OBJECT000
10
-6.000000
20
6.000000
30
63.076763
70
192
0
VERTEX
8
OBJECT000
10
0.512604
20
15.061981
30
60.254578
70
192
0
VERTEX
8
OBJECT000
10
7.126984
20
15.728973
30
59.133678
70
192
0
VERTEX
8
OBJECT000
10
10.368202
20
10.818359
30
60.628662
70
192
0
VERTEX
8
OBJECT000
10
15.059868
20
-0.514618
30
60.253315
70
192
0
VERTEX
8
OBJECT000
10
11.000000
20
11.000000
30
60.344372
70
192
0
VERTEX
8
OBJECT000
10
17.131927
20
6.498688
30
58.445019
70
192
0
VERTEX
8
OBJECT000
10
15.797050
20
0.165466
30
59.858063
70
192
0
VERTEX
8
OBJECT000
10
10.826660
20
-10.372406
30
60.623718
70
192
0
VERTEX
8
OBJECT000
10
15.734215
20
-7.187042
30
59.121376
70
192
0
VERTEX
8
OBJECT000
10
-0.518692
20
-15.046753
30
60.262066
70
192
0
VERTEX
8
OBJECT000
10
11.000000
20
-11.000000
30
60.345673
70
192
0
VERTEX
8
OBJECT000
10
6.490898
20
-17.103638
30
58.461975
70
192
0
VERTEX
8
OBJECT000
10
0.149178
20
-15.769318
30
59.874798
70
192
0
VERTEX
8
OBJECT000
10
-10.367592
20
-10.822693
30
60.627159
70
192
0
VERTEX
8
OBJECT000
10
-7.175087
20
-15.721008
30
59.131500
70
192
0
VERTEX
8
OBJECT000
10
-15.055984
20
0.519012
30
60.255566
70
192
0
VERTEX
8
OBJECT000
10
-11.015984
20
-11.000000
30
60.336388
70
192
0
VERTEX
8
OBJECT000
10
-17.119293
20
-6.493286
30
58.451794
70
192
0
VERTEX
8
OBJECT000
10
-15.791550
20
-0.160736
30
59.861214
70
192
0
VERTEX
8
OBJECT000
10
-10.814362
20
10.368225
30
60.631153
70
192
0
VERTEX
8
OBJECT000
10
-15.720459
20
7.174591
30
59.131920
70
192
0
VERTEX
8
OBJECT000
10
-11.000000
20
10.984741
30
60.351295
70
192
0
VERTEX
8
OBJECT000
10
-6.502815
20
17.112976
30
58.454487
70
192
0
VERTEX
8
OBJECT000
10
-0.146812
20
15.781799
30
59.867931
70
192
0
VERTEX
8
OBJECT000
10
-1.314125
20
21.402222
30
56.429085
70
192
0
VERTEX
8
OBJECT000
10
-0.013222
20
22.000000
30
55.916115
70
192
0
VERTEX
8
OBJECT000
10
9.101814
20
21.874451
30
55.030376
70
192
0
VERTEX
8
OBJECT000
10
10.023788
20
20.128052
30
56.039967
70
192
0
VERTEX
8
OBJECT000
10
14.564735
20
16.269623
30
56.611549
70
192
0
VERTEX
8
OBJECT000
10
21.073837
20
7.118591
30
56.052071
70
192
0
VERTEX
8
OBJECT000
10
16.020325
20
16.000000
30
55.891796
70
192
0
VERTEX
8
OBJECT000
10
21.912048
20
9.537781
30
54.780861
70
192
0
VERTEX
8
OBJECT000
10
21.394997
20
1.314545
30
56.432617
70
192
0
VERTEX
8
OBJECT000
10
20.071632
20
-10.038208
30
56.073639
70
192
0
VERTEX
8
OBJECT000
10
22.000000
20
0.000000
30
55.916679
70
192
0
VERTEX
8
OBJECT000
10
21.874374
20
-9.079102
30
55.032738
70
192
0
VERTEX
8
OBJECT000
10
16.251785
20
-14.578308
30
56.617500
70
192
0
VERTEX
8
OBJECT000
10
7.129684
20
-21.109192
30
56.029713
70
192
0
VERTEX
8
OBJECT000
10
16.000000
20
-16.000000
30
55.918110
70
192
0
VERTEX
8
OBJECT000
10
9.501503
20
-21.941437
30
54.779869
70
192
0
VERTEX
8
OBJECT000
10
1.314743
20
-21.400696
30
56.429741
70
192
0
VERTEX
8
OBJECT000
10
-10.064392
20
-20.100067
30
56.051170
70
192
0
VERTEX
8
OBJECT000
10
-0.014229
20
-22.000000
30
55.905109
70
192
0
VERTEX
8
OBJECT000
10
-9.132195
20
-21.872559
30
55.026569
70
192
0
VERTEX
8
OBJECT000
10
-14.590042
20
-16.252686
30
56.613800
70
192
0
VERTEX
8
OBJECT000
10
-21.092957
20
-7.118591
30
56.040295
70
192
0
VERTEX
8
OBJECT000
10
-16.000000
20
-16.000000
30
55.913605
70
192
0
VERTEX
8
OBJECT000
10
-21.925934
20
-9.515350
30
54.782654
70
192
0
VERTEX
8
OBJECT000
10
-21.394012
20
-1.324707
30
56.433826
70
192
0
VERTEX
8
OBJECT000
10
-20.071373
20
10.049347
30
56.070179
70
192
0
VERTEX
8
OBJECT000
10
-22.011681
20
0.022339
30
55.899086
70
192
0
VERTEX
8
OBJECT000
10
-21.876060
20
9.090668
30
55.027760
70
192
0
VERTEX
8
OBJECT000
10
-16.274612
20
14.559387
30
56.610504
70
192
0
VERTEX
8
OBJECT000
10
-7.135269
20
21.103271
30
56.032387
70
192
0
VERTEX
8
OBJECT000
10
-16.000000
20
16.035614
30
55.882568
70
192
0
VERTEX
8
OBJECT000
10
-9.521301
20
21.939178
30
54.773296
70
192
0
VERTEX
8
OBJECT000
10
3.120102
20
26.975739
30
50.615520
70
192
0
VERTEX
8
OBJECT000
10
9.460472
20
24.830017
30
52.050354
70
192
0
VERTEX
8
OBJECT000
10
10.962967
20
25.963135
30
50.004204
70
192
0
VERTEX
8
OBJECT000
10
21.440804
20
21.105103
30
47.569927
70
192
0
VERTEX
8
OBJECT000
10
20.466621
20
19.027802
30
50.142796
70
192
0
VERTEX
8
OBJECT000
10
24.355186
20
10.898590
30
51.809132
70
192
0
VERTEX
8
OBJECT000
10
26.981178
20
-3.116486
30
50.610172
70
192
0
VERTEX
8
OBJECT000
10
26.120338
20
11.056244
30
49.768620
70
192
0
VERTEX
8
OBJECT000
10
31.854988
20
0.700287
30
44.539845
70
192
0
VERTEX
8
OBJECT000
10
24.840195
20
-9.425232
30
52.045410
70
192
0
VERTEX
8
OBJECT000
10
19.021103
20
-20.478333
30
50.132599
70
192
0
VERTEX
8
OBJECT000
10
26.076111
20
-11.056152
30
49.815220
70
192
0
VERTEX
8
OBJECT000
10
21.134338
20
-21.478210
30
47.504906
70
192
0
VERTEX
8
OBJECT000
10
10.841995
20
-24.391968
30
51.811199
70
192
0
VERTEX
8
OBJECT000
10
-3.088074
20
-26.953278
30
50.639343
70
192
0
VERTEX
8
OBJECT000
10
10.979874
20
-25.966125
30
49.993584
70
192
0
VERTEX
8
OBJECT000
10
0.753464
20
-31.739563
30
44.686802
70
192
0
VERTEX
8
OBJECT000
10
-9.498520
20
-24.826630
30
52.044201
70
192
0
VERTEX
8
OBJECT000
10
-20.517792
20
-19.049286
30
50.084827
70
192
0
VERTEX
8
OBJECT000
10
-10.942978
20
-25.921967
30
50.069427
70
192
0
VERTEX
8
OBJECT000
10
-21.473312
20
-21.080536
30
47.566978
70
192
0
VERTEX
8
OBJECT000
10
-24.393250
20
-10.876434
30
51.788128
70
192
0
VERTEX
8
OBJECT000
10
-26.934372
20
3.083954
30
50.659447
70
192
0
VERTEX
8
OBJECT000
10
-26.057724
20
-11.021606
30
49.865723
70
192
0
VERTEX
8
OBJECT000
10
-31.750977
20
-0.777771
30
44.660252
70
192
0
VERTEX
8
OBJECT000
10
-24.837341
20
9.438324
30
52.043945
70
192
0
VERTEX
8
OBJECT000
10
-18.968430
20
20.424194
30
50.217266
70
192
0
VERTEX
8
OBJECT000
10
-26.042114
20
11.020996
30
49.873943
70
192
0
VERTEX
8
OBJECT000
10
-21.155426
20
21.453613
30
47.501446
70
192
0
VERTEX
8
OBJECT000
10
-10.855957
20
24.361389
30
51.832844
70
192
0
VERTEX
8
OBJECT000
10
-11.000000
20
26.019684
30
49.914005
70
192
0
VERTEX
8
OBJECT000
10
-0.706589
20
31.836121
30
44.567017
70
192
0
VERTEX
8
OBJECT000
10
13.763649
20
30.530151
30
42.623280
70
192
0
VERTEX
8
OBJECT000
10
-0.832466
20
32.510468
30
43.621696
70
192
0
VERTEX
8
OBJECT000
10
-0.020363
20
32.971191
30
42.736282
70
192
0
VERTEX
8
OBJECT000
10
12.837814
20
31.855652
30
40.942463
70
192
0
VERTEX
8
OBJECT000
10
24.076874
20
24.279480
30
41.911163
70
192
0
VERTEX
8
OBJECT000
10
24.328140
20
23.344910
30
42.791462
70
192
0
VERTEX
8
OBJECT000
10
30.465637
20
13.452301
30
43.288483
70
192
0
VERTEX
8
OBJECT000
10
32.509712
20
0.826111
30
43.621552
70
192
0
VERTEX
8
OBJECT000
10
30.949226
20
13.037781
30
42.735027
70
192
0
VERTEX
8
OBJECT000
10
30.525276
20
-13.778931
30
42.623196
70
192
0
VERTEX
8
OBJECT000
10
32.978401
20
0.000000
30
42.721798
70
192
0
VERTEX
8
OBJECT000
10
31.857498
20
-12.848724
30
40.933857
70
192
0
VERTEX
8
OBJECT000
10
23.393776
20
-24.401031
30
42.673065
70
192
0
VERTEX
8
OBJECT000
10
24.230568
20
-24.182770
30
41.879768
70
192
0
VERTEX
8
OBJECT000
10
13.463051
20
-30.465088
30
43.278786
70
192
0
VERTEX
8
OBJECT000
10
0.903976
20
-32.497620
30
43.623325
70
192
0
VERTEX
8
OBJECT000
10
13.000000
20
-31.000000
30
42.679573
70
192
0
VERTEX
8
OBJECT000
10
-13.766106
20
-30.540771
30
42.602642
70
192
0
VERTEX
8
OBJECT000
10
-0.022774
20
-33.025421
30
42.609940
70
192
0
VERTEX
8
OBJECT000
10
-12.840302
20
-31.872375
30
40.908897
70
192
0
VERTEX
8
OBJECT000
10
-24.326675
20
-23.279663
30
42.855465
70
192
0
VERTEX
8
OBJECT000
10
-24.046661
20
-24.313080
30
41.882900
70
192
0
VERTEX
8
OBJECT000
10
-30.475128
20
-13.433929
30
43.292362
70
192
0
VERTEX
8
OBJECT000
10
-32.495605
20
-0.928589
30
43.615589
70
192
0
VERTEX
8
OBJECT000
10
-30.913986
20
-13.058441
30
42.790638
70
192
0
VERTEX
8
OBJECT000
10
-30.533661
20
13.771149
30
42.610443
70
192
0
VERTEX
8
OBJECT000
10
-33.052277
20
0.045105
30
42.548279
70
192
0
VERTEX
8
OBJECT000
10
-31.874863
20
12.840515
30
40.901932
70
192
0
VERTEX
8
OBJECT000
10
-23.385376
20
24.323578
30
42.746937
70
192
0
VERTEX
8
OBJECT000
10
-24.282700
20
24.083099
30
41.900394
70
192
0
VERTEX
8
OBJECT000
10
-13.453423
20
30.468994
30
43.278713
70
192
0
VERTEX
8
OBJECT000
10
-12.960564
20
31.042999
30
42.622471
70
192
0
VERTEX
8
OBJECT000
10
12.504570
20
33.674194
30
37.275555
70
192
0
VERTEX
8
OBJECT000
10
2.544716
20
36.311401
30
34.987267
70
192
0
VERTEX
8
OBJECT000
10
25.079170
20
25.923157
30
36.699787
70
192
0
VERTEX
8
OBJECT000
10
13.958130
20
34.000000
30
34.425316
70
192
0
VERTEX
8
OBJECT000
10
34.268707
20
13.311432
30
33.874542
70
192
0
VERTEX
8
OBJECT000
10
26.648773
20
26.177338
30
32.309395
70
192
0
VERTEX
8
OBJECT000
10
32.560509
20
20.595459
30
26.379011
70
192
0
VERTEX
8
OBJECT000
10
35.497627
20
15.816772
30
26.689182
70
192
0
VERTEX
8
OBJECT000
10
36.316887
20
-2.550903
30
34.968498
70
192
0
VERTEX
8
OBJECT000
10
38.453468
20
0.355560
30
28.147747
70
192
0
VERTEX
8
OBJECT000
10
33.672791
20
-12.520905
30
37.267399
70
192
0
VERTEX
8
OBJECT000
10
25.840508
20
-25.182648
30
36.753712
70
192
0
VERTEX
8
OBJECT000
10
34.168716
20
-14.776062
30
32.860718
70
192
0
VERTEX
8
OBJECT000
10
13.271515
20
-34.244568
30
34.000000
70
192
0
VERTEX
8
OBJECT000
10
25.919357
20
-25.704559
30
35.308838
70
192
0
VERTEX
8
OBJECT000
10
19.371826
20
-33.318146
30
26.541124
70
192
0
VERTEX
8
OBJECT000
10
15.843178
20
-35.481934
30
26.733349
70
192
0
VERTEX
8
OBJECT000
10
-2.547020
20
-36.312988
30
34.979778
70
192
0
VERTEX
8
OBJECT000
10
0.361397
20
-38.439331
30
28.203640
70
192
0
VERTEX
8
OBJECT000
10
-12.514130
20
-33.672058
30
37.276379
70
192
0
VERTEX
8
OBJECT000
10
-25.025787
20
-25.943634
30
36.744118
70
192
0
VERTEX
8
OBJECT000
10
-13.655487
20
-33.921753
30
35.052608
70
192
0
VERTEX
8
OBJECT000
10
-34.285675
20
-13.338501
30
33.781170
70
192
0
VERTEX
8
OBJECT000
10
-26.886322
20
-26.251526
30
31.522482
70
192
0
VERTEX
8
OBJECT000
10
-32.286835
20
-21.086548
30
26.234423
70
192
0
VERTEX
8
OBJECT000
10
-35.510284
20
-15.799500
30
26.667393
70
192
0
VERTEX
8
OBJECT000
10
-36.312103
20
2.549011
30
34.981499
70
192
0
VERTEX
8
OBJECT000
10
-38.457245
20
-0.362579
30
28.123440
70
192
0
VERTEX
8
OBJECT000
10
-33.672852
20
12.517303
30
37.269714
70
192
0
VERTEX
8
OBJECT000
10
-25.917908
20
25.070862
30
36.740173
70
192
0
VERTEX
8
OBJECT000
10
-34.023804
20
14.121216
30
34.144505
70
192
0
VERTEX
8
OBJECT000
10
-13.197121
20
34.215607
30
34.192398
70
192
0
VERTEX
8
OBJECT000
10
-26.155655
20
26.543854
30
32.619896
70
192
0
VERTEX
8
OBJECT000
10
-20.496750
20
32.600037
30
26.441662
70
192
0
VERTEX
8
OBJECT000
10
-15.813568
20
35.497925
30
26.692059
70
192
0
VERTEX
8
OBJECT000
10
-0.357300
20
38.419464
30
28.286715
70
192
0
VERTEX
8
OBJECT000
10
15.471077
20
35.731049
30
25.156984
70
192
0
VERTEX
8
OBJECT000
10
-0.435486
20
38.752655
30
26.862658
70
192
0
VERTEX
8
OBJECT000
10
0.000000
20
39.000000
30
25.295504
70
192
0
VERTEX
8
OBJECT000
10
15.000000
20
36.197815
30
23.506260
70
192
0
VERTEX
8
OBJECT000
10
28.756348
20
26.785004
30
25.508959
70
192
0
VERTEX
8
OBJECT000
10
27.560379
20
28.634003
30
21.948536
70
192
0
VERTEX
8
OBJECT000
10
28.089310
20
27.871155
30
23.337547
70
192
0
VERTEX
8
OBJECT000
10
38.755432
20
0.428162
30
26.857897
70
192
0
VERTEX
8
OBJECT000
10
36.000000
20
15.000000
30
25.358519
70
192
0
VERTEX
8
OBJECT000
10
35.350136
20
-15.862701
30
26.492382
70
192
0
VERTEX
8
OBJECT000
10
39.000000
20
0.000000
30
25.325230
70
192
0
VERTEX
8
OBJECT000
10
36.200111
20
-15.000000
30
23.497765
70
192
0
VERTEX
8
OBJECT000
10
26.793945
20
-28.767334
30
25.464611
70
192
0
VERTEX
8
OBJECT000
10
28.589867
20
-27.592255
30
22.199099
70
192
0
VERTEX
8
OBJECT000
10
27.630188
20
-28.255646
30
23.863590
70
192
0
VERTEX
8
OBJECT000
10
25.928108
20
-25.740204
30
35.199997
70
192
0
VERTEX
8
OBJECT000
10
0.436043
20
-38.754242
30
26.857182
70
192
0
VERTEX
8
OBJECT000
10
15.000000
20
-36.000000
30
25.360624
70
192
0
VERTEX
8
OBJECT000
10
-15.327682
20
-35.875793
30
24.643145
70
192
0
VERTEX
8
OBJECT000
10
0.000000
20
-39.000000
30
25.302975
70
192
0
VERTEX
8
OBJECT000
10
-15.000000
20
-36.200592
30
23.500622
70
192
0
VERTEX
8
OBJECT000
10
-28.805862
20
-26.797119
30
25.354673
70
192
0
VERTEX
8
OBJECT000
10
-27.545013
20
-28.657990
30
21.840183
70
192
0
VERTEX
8
OBJECT000
10
-28.621353
20
-27.101379
30
24.731510
70
192
0
VERTEX
8
OBJECT000
10
-38.752197
20
-0.435699
30
26.865395
70
192
0
VERTEX
8
OBJECT000
10
-36.000000
20
-15.000000
30
25.383659
70
192
0
VERTEX
8
OBJECT000
10
-35.649109
20
15.556274
30
25.440624
70
192
0
VERTEX
8
OBJECT000
10
-39.000000
20
0.000000
30
25.287392
70
192
0
VERTEX
8
OBJECT000
10
-36.197342
20
15.000000
30
23.503853
70
192
0
VERTEX
8
OBJECT000
10
-26.778137
20
28.712769
30
25.631117
70
192
0
VERTEX
8
OBJECT000
10
-28.625504
20
27.566223
30
21.999998
70
192
0
VERTEX
8
OBJECT000
10
-15.041901
20
35.974152
30
25.432035
70
192
0
VERTEX
8
OBJECT000
10
15.020386
20
37.000000
30
16.047386
70
192
0
VERTEX
8
OBJECT000
10
0.000000
20
40.000000
30
15.999998
70
192
0
VERTEX
8
OBJECT000
10
27.364380
20
28.916687
30
20.448381
70
192
0
VERTEX
8
OBJECT000
10
37.476334
20
12.600647
30
15.999998
70
192
0
VERTEX
8
OBJECT000
10
28.098465
20
27.857941
30
15.999998
70
192
0
VERTEX
8
OBJECT000
10
40.000000
20
0.000000
30
15.999998
70
192
0
VERTEX
8
OBJECT000
10
37.000000
20
-14.987518
30
15.999998
70
192
0
VERTEX
8
OBJECT000
10
28.912369
20
-27.369324
30
20.448801
70
192
0
VERTEX
8
OBJECT000
10
12.610802
20
-37.472443
30
15.999998
70
192
0
VERTEX
8
OBJECT000
10
27.550652
20
-28.310638
30
15.999998
70
192
0
VERTEX
8
OBJECT000
10
-0.013252
20
-40.000000
30
15.999998
70
192
0
VERTEX
8
OBJECT000
10
-14.965607
20
-37.000000
30
15.999998
70
192
0
VERTEX
8
OBJECT000
10
-15.167229
20
-36.884216
30
15.999998
70
192
0
VERTEX
8
OBJECT000
10
-27.368454
20
-28.913330
30
20.446230
70
192
0
VERTEX
8
OBJECT000
10
-37.484528
20
-12.592773
30
15.999998
70
192
0
VERTEX
8
OBJECT000
10
-28.752426
20
-26.911804
30
15.999998
70
192
0
VERTEX
8
OBJECT000
10
-40.000000
20
0.000000
30
15.999998
70
192
0
VERTEX
8
OBJECT000
10
-37.000000
20
15.000000
30
15.999998
70
192
0
VERTEX
8
OBJECT000
10
-28.913452
20
27.366516
30
20.455036
70
192
0
VERTEX
8
OBJECT000
10
-12.610420
20
37.469269
30
15.999998
70
192
0
VERTEX
8
OBJECT000
10
-28.662186
20
27.540771
30
19.229494
70
192
0
VERTEX
8
OBJECT000
10
-28.063797
20
27.907867
30
15.999998
70
192
0
VERTEX
8
OBJECT000
10
28.000000
20
28.000000
30
15.999998
70
192
0
VERTEX
8
OBJECT000
10
28.000000
20
-28.000000
30
15.999998
70
192
0
VERTEX
8
OBJECT000
10
-28.000000
20
-28.000000
30
15.999998
70
192
0
VERTEX
8
OBJECT000
10
0
20
0
30
0
70
128
71
2
72
3
73
1
0
VERTEX
8
OBJECT000
10
0
20
0
30
0
70
128
71
2
72
1
73
4
0
VERTEX
8
OBJECT000
10
0
20
0
30
0
70
128
71
2
72
4
73
5
0
VERTEX
8
OBJECT000
10
0
20
0
30
0
70
128
71
2
72
5
73
6
0
VERTEX
8
OBJECT000
10
0
20
0
30
0
70
128
71
2
72
6
73
7
0
VERTEX
8
OBJECT000
10
0
20
0
30
0
70
128
71
2
72
7
73
8
0
VERTEX
8
OBJECT000
10
0
20
0
30
0
70
128
71
2
72
8
73
9
0
VERTEX
8
OBJECT000
10
0
20
0
30
0
70
128
71
2
72
9
73
3
0
VERTEX
8
OBJECT000
10
0
20
0
30
0
70
128
71
3
72
10
73
-11
0
VERTEX
8
OBJECT000
10
0
20
0
30
0
70
128
71
-3
72
11
73
-12
0
VERTEX
8
OBJECT000
10
0
20
0
30
0
70
128
71
-3
72
12
73
1
0
VERTEX
8
OBJECT000
10
0
20
0
30
0
70
128
71
4
72
1
73
-12
0
VERTEX
8
OBJECT000
10
0
20
0
30
0
70
128
71
-4
72
12
73
-14
0
VERTEX
8
OBJECT000
10
0
20
0
30
0
70
128
71
-4
72
14
73
-15
0
VERTEX
8
OBJECT000
10
0
20
0
30
0
70
128
71
-4
72
15
73
-16
0
VERTEX
8
OBJECT000
10
0
20
0
30
0
70
128
71
-4
72
16
73
13
0
VERTEX
8
OBJECT000
10
0
20
0
30
0
70
128
71
5
72
4
73
-13
0
VERTEX
8
OBJECT000
10
0
20
0
30
0
70
128
71
-5
72
13
73
-18
0
VERTEX
8
OBJECT000
10
0
20
0
30
0
70
128
71
-5
72
18
73
17
0
VERTEX
8
OBJECT000
10
0
20
0
30
0
70
128
71
6
72
5
73
-17
0
VERTEX
8
OBJECT000
10
0
20
0
30
0
70
128
71
-6
72
17
73
-20
0
VERTEX
8
OBJECT000
10
0
20
0
30
0
70
128
71
-6
72
20
73
-21
0
VERTEX
8
OBJECT000
10
0
20
0
30
0
70
128
71
-6
72
21
73
-22
0
VERTEX
8
OBJECT000
10
0
20
0
30
0
70
128
71
-6
72
22
73
19
0
VERTEX
8
OBJECT000
10
0
20
0
30
0
70
128
71
7
72
6
73
-19
0
VERTEX
8
OBJECT000
10
0
20
0
30
0
70
128
71
-7
72
19
73
-24
0
VERTEX
8
OBJECT000
10
0
20
0
30
0
70
128
71
-7
72
24
73
23
0
VERTEX
8
OBJECT000
10
0
20
0
30
0
70
128
71
8
72
7
73
-23
0
VERTEX
8
OBJECT000
10
0
20
0
30
0
70
128
71
-8
72
23
73
-26
0
VERTEX
8
OBJECT000
10
0
20
0
30
0
70
128
71
-8
72
26
73
-27
0
VERTEX
8
OBJECT000
10
0
20
0
30
0
70
128
71
-8
72
27
73
-28
0
VERTEX
8
OBJECT000
10
0
20
0
30
0
70
128
71
-8
72
28
73
25
0
VERTEX
8
OBJECT000
10
0
20
0
30
0
70
128
71
9
72
8
73
-25
0
VERTEX
8
OBJECT000
10
0
20
0
30
0
70
128
71
-9
72
25
73
-30
0
VERTEX
8
OBJECT000
10
0
20
0
30
0
70
128
71
-9
72
30
73
29
0
VERTEX
8
OBJECT000
10
0
20
0
30
0
70
128
71
9
72
29
73
-31
0
VERTEX
8
OBJECT000
10
0
20
0
30
0
70
128
71
-9
72
31
73
-32
0
VERTEX
8
OBJECT000
10
0
20
0
30
0
70
128
71
-9
72
32
73
-33
0
VERTEX
8
OBJECT000
10
0
20
0
30
0
70
128
71
-9
72
33
73
-10
0
VERTEX
8
OBJECT000
10
0
20
0
30
0
70
128
71
-9
72
10
73
3
0
VERTEX
8
OBJECT000
10
0
20
0
30
0
70
128
71
10
72
33
73
-34
0
VERTEX
8
OBJECT000
10
0
20
0
30
0
70
128
71
-10
72
34
73
-35
0
VERTEX
8
OBJECT000
10
0
20
0
30
0
70
128
71
-10
72
35
73
-36
0
VERTEX
8
OBJECT000
10
0
20
0
30
0
70
128
71
-10
72
36
73
-37
0
VERTEX
8
OBJECT000
10
0
20
0
30
0
70
128
71
-10
72
37
73
11
0
VERTEX
8
OBJECT000
10
0
20
0
30
0
70
128
71
12
72
11
73
-37
0
VERTEX
8
OBJECT000
10
0
20
0
30
0
70
128
71
-12
72
37
73
-38
0
VERTEX
8
OBJECT000
10
0
20
0
30
0
70
128
71
-12
72
38
73
14
0
VERTEX
8
OBJECT000
10
0
20
0
30
0
70
128
71
15
72
14
73
-38
0
VERTEX
8
OBJECT000
10
0
20
0
30
0
70
128
71
-15
72
38
73
-40
0
VERTEX
8
OBJECT000
10
0
20
0
30
0
70
128
71
-15
72
40
73
-41
0
VERTEX
8
OBJECT000
10
0
20
0
30
0
70
128
71
-15
72
41
73
39
0
VERTEX
8
OBJECT000
10
0
20
0
30
0
70
128
71
15
72
39
73
-42
0
VERTEX
8
OBJECT000
10
0
20
0
30
0
70
128
71
-15
72
42
73
16
0
VERTEX
8
OBJECT000
10
0
20
0
30
0
70
128
71
18
72
13
73
-16
0
VERTEX
8
OBJECT000
10
0
20
0
30
0
70
128
71
-18
72
16
73
-42
0
VERTEX
8
OBJECT000
10
0
20
0
30
0
70
128
71
-18
72
42
73
-44
0
VERTEX
8
OBJECT000
10
0
20
0
30
0
70
128
71
-18
72
44
73
-45
0
VERTEX
8
OBJECT000
10
0
20
0
30
0
70
128
71
-18
72
45
73
43
0
VERTEX
8
OBJECT000
10
0
20
0
30
0
70
128
71
20
72
17
73
-18
0
VERTEX
8
OBJECT000
10
0
20
0
30
0
70
128
71
-20
72
18
73
-43
0
VERTEX
8
OBJECT000
10
0
20
0
30
0
70
128
71
-20
72
43
73
46
0
VERTEX
8
OBJECT000
10
0
20
0
30
0
70
128
71
21
72
20
73
-46
0
VERTEX
8
OBJECT000
10
0
20
0
30
0
70
128
71
-21
72
46
73
-48
0
VERTEX
8
OBJECT000
10
0
20
0
30
0
70
128
71
-21
72
48
73
-49
0
VERTEX
8
OBJECT000
10
0
20
0
30
0
70
128
71
-21
72
49
73
47
0
VERTEX
8
OBJECT000
10
0
20
0
30
0
70
128
71
21
72
47
73
-50
0
VERTEX
8
OBJECT000
10
0
20
0
30
0
70
128
71
-21
72
50
73
22
0
VERTEX
8
OBJECT000
10
0
20
0
30
0
70
128
71
24
72
19
73
-22
0
VERTEX
8
OBJECT000
10
0
20
0
30
0
70
128
71
-24
72
22
73
-50
0
VERTEX
8
OBJECT000
10
0
20
0
30
0
70
128
71
-24
72
50
73
-52
0
VERTEX
8
OBJECT000
10
0
20
0
30
0
70
128
71
-24
72
52
73
-53
0
VERTEX
8
OBJECT000
10
0
20
0
30
0
70
128
71
-24
72
53
73
51
0
VERTEX
8
OBJECT000
10
0
20
0
30
0
70
128
71
26
72
23
73
-24
0
VERTEX
8
OBJECT000
10
0
20
0
30
0
70
128
71
-26
72
24
73
-51
0
VERTEX
8
OBJECT000
10
0
20
0
30
0
70
128
71
-26
72
51
73
54
0
VERTEX
8
OBJECT000
10
0
20
0
30
0
70
128
71
27
72
26
73
-54
0
VERTEX
8
OBJECT000
10
0
20
0
30
0
70
128
71
-27
72
54
73
-56
0
VERTEX
8
OBJECT000
10
0
20
0
30
0
70
128
71
-27
72
56
73
-57
0
VERTEX
8
OBJECT000
10
0
20
0
30
0
70
128
71
-27
72
57
73
55
0
VERTEX
8
OBJECT000
10
0
20
0
30
0
70
128
71
27
72
55
73
-58
0
VERTEX
8
OBJECT000
10
0
20
0
30
0
70
128
71
-27
72
58
73
28
0
VERTEX
8
OBJECT000
10
0
20
0
30
0
70
128
71
30
72
25
73
-28
0
VERTEX
8
OBJECT000
10
0
20
0
30
0
70
128
71
-30
72
28
73
-58
0
VERTEX
8
OBJECT000
10
0
20
0
30
0
70
128
71
-30
72
58
73
-60
0
VERTEX
8
OBJECT000
10
0
20
0
30
0
70
128
71
-30
72
60
73
-61
0
VERTEX
8
OBJECT000
10
0
20
0
30
0
70
128
71
-30
72
61
73
59
0
VERTEX
8
OBJECT000
10
0
20
0
30
0
70
128
71
31
72
29
73
-30
0
VERTEX
8
OBJECT000
10
0
20
0
30
0
70
128
71
-31
72
30
73
-59
0
VERTEX
8
OBJECT000
10
0
20
0
30
0
70
128
71
-31
72
59
73
62
0
VERTEX
8
OBJECT000
10
0
20
0
30
0
70
128
71
32
72
31
73
-62
0
VERTEX
8
OBJECT000
10
0
20
0
30
0
70
128
71
-32
72
62
73
-64
0
VERTEX
8
OBJECT000
10
0
20
0
30
0
70
128
71
-32
72
64
73
-65
0
VERTEX
8
OBJECT000
10
0
20
0
30
0
70
128
71
-32
72
65
73
63
0
VERTEX
8
OBJECT000
10
0
20
0
30
0
70
128
71
33
72
32
73
-63
0
VERTEX
8
OBJECT000
10
0
20
0
30
0
70
128
71
-33
72
63
73
34
0
VERTEX
8
OBJECT000
10
0
20
0
30
0
70
128
71
35
72
66
73
-67
0
VERTEX
8
OBJECT000
10
0
20
0
30
0
70
128
71
-35
72
67
73
36
0
VERTEX
8
OBJECT000
10
0
20
0
30
0
70
128
71
38
72
37
73
-36
0
VERTEX
8
OBJECT000
10
0
20
0
30
0
70
128
71
-38
72
36
73
-67
0
VERTEX
8
OBJECT000
10
0
20
0
30
0
70
128
71
-38
72
67
73
-68
0
VERTEX
8
OBJECT000
10
0
20
0
30
0
70
128
71
-38
72
68
73
-69
0
VERTEX
8
OBJECT000
10
0
20
0
30
0
70
128
71
-38
72
69
73
-70
0
VERTEX
8
OBJECT000
10
0
20
0
30
0
70
128
71
-38
72
70
73
40
0
VERTEX
8
OBJECT000
10
0
20
0
30
0
70
128
71
41
72
40
73
-70
0
VERTEX
8
OBJECT000
10
0
20
0
30
0
70
128
71
-41
72
70
73
71
0
VERTEX
8
OBJECT000
10
0
20
0
30
0
70
128
71
44
72
42
73
-39
0
VERTEX
8
OBJECT000
10
0
20
0
30
0
70
128
71
-44
72
39
73
-41
0
VERTEX
8
OBJECT000
10
0
20
0
30
0
70
128
71
-44
72
41
73
-71
0
VERTEX
8
OBJECT000
10
0
20
0
30
0
70
128
71
-44
72
71
73
-73
0
VERTEX
8
OBJECT000
10
0
20
0
30
0
70
128
71
-44
72
73
73
-74
0
VERTEX
8
OBJECT000
10
0
20
0
30
0
70
128
71
-44
72
74
73
72
0
VERTEX
8
OBJECT000
10
0
20
0
30
0
70
128
71
44
72
72
73
-75
0
VERTEX
8
OBJECT000
10
0
20
0
30
0
70
128
71
-44
72
75
73
45
0
VERTEX
8
OBJECT000
10
0
20
0
30
0
70
128
71
48
72
46
73
-43
0
VERTEX
8
OBJECT000
10
0
20
0
30
0
70
128
71
-48
72
43
73
-45
0
VERTEX
8
OBJECT000
10
0
20
0
30
0
70
128
71
-48
72
45
73
-75
0
VERTEX
8
OBJECT000
10
0
20
0
30
0
70
128
71
-48
72
75
73
-77
0
VERTEX
8
OBJECT000
10
0
20
0
30
0
70
128
71
-48
72
77
73
-78
0
VERTEX
8
OBJECT000
10
0
20
0
30
0
70
128
71
-48
72
78
73
76
0
VERTEX
8
OBJECT000
10
0
20
0
30
0
70
128
71
49
72
48
73
-76
0
VERTEX
8
OBJECT000
10
0
20
0
30
0
70
128
71
-49
72
76
73
79
0
VERTEX
8
OBJECT000
10
0
20
0
30
0
70
128
71
52
72
50
73
-47
0
VERTEX
8
OBJECT000
10
0
20
0
30
0
70
128
71
-52
72
47
73
-49
0
VERTEX
8
OBJECT000
10
0
20
0
30
0
70
128
71
-52
72
49
73
-79
0
VERTEX
8
OBJECT000
10
0
20
0
30
0
70
128
71
-52
72
79
73
-81
0
VERTEX
8
OBJECT000
10
0
20
0
30
0
70
128
71
-52
72
81
73
-82
0
VERTEX
8
OBJECT000
10
0
20
0
30
0
70
128
71
-52
72
82
73
80
0
VERTEX
8
OBJECT000
10
0
20
0
30
0
70
128
71
52
72
80
73
-83
0
VERTEX
8
OBJECT000
10
0
20
0
30
0
70
128
71
-52
72
83
73
53
0
VERTEX
8
OBJECT000
10
0
20
0
30
0
70
128
71
56
72
54
73
-51
0
VERTEX
8
OBJECT000
10
0
20
0
30
0
70
128
71
-56
72
51
73
-53
0
VERTEX
8
OBJECT000
10
0
20
0
30
0
70
128
71
-56
72
53
73
-83
0
VERTEX
8
OBJECT000
10
0
20
0
30
0
70
128
71
-56
72
83
73
-85
0
VERTEX
8
OBJECT000
10
0
20
0
30
0
70
128
71
-56
72
85
73
-86
0
VERTEX
8
OBJECT000
10
0
20
0
30
0
70
128
71
-56
72
86
73
84
0
VERTEX
8
OBJECT000
10
0
20
0
30
0
70
128
71
57
72
56
73
-84
0
VERTEX
8
OBJECT000
10
0
20
0
30
0
70
128
71
-57
72
84
73
87
0
VERTEX
8
OBJECT000
10
0
20
0
30
0
70
128
71
60
72
58
73
-55
0
VERTEX
8
OBJECT000
10
0
20
0
30
0
70
128
71
-60
72
55
73
-57
0
VERTEX
8
OBJECT000
10
0
20
0
30
0
70
128
71
-60
72
57
73
-87
0
VERTEX
8
OBJECT000
10
0
20
0
30
0
70
128
71
-60
72
87
73
-89
0
VERTEX
8
OBJECT000
10
0
20
0
30
0
70
128
71
-60
72
89
73
-90
0
VERTEX
8
OBJECT000
10
0
20
0
30
0
70
128
71
-60
72
90
73
88
0
VERTEX
8
OBJECT000
10
0
20
0
30
0
70
128
71
60
72
88
73
-91
0
VERTEX
8
OBJECT000
10
0
20
0
30
0
70
128
71
-60
72
91
73
61
0
VERTEX
8
OBJECT000
10
0
20
0
30
0
70
128
71
64
72
62
73
-59
0
VERTEX
8
OBJECT000
10
0
20
0
30
0
70
128
71
-64
72
59
73
-61
0
VERTEX
8
OBJECT000
10
0
20
0
30
0
70
128
71
-64
72
61
73
-91
0
VERTEX
8
OBJECT000
10
0
20
0
30
0
70
128
71
-64
72
91
73
-93
0
VERTEX
8
OBJECT000
10
0
20
0
30
0
70
128
71
-64
72
93
73
-94
0
VERTEX
8
OBJECT000
10
0
20
0
30
0
70
128
71
-64
72
94
73
92
0
VERTEX
8
OBJECT000
10
0
20
0
30
0
70
128
71
65
72
64
73
-92
0
VERTEX
8
OBJECT000
10
0
20
0
30
0
70
128
71
-65
72
92
73
95
0
VERTEX
8
OBJECT000
10
0
20
0
30
0
70
128
71
34
72
63
73
-65
0
VERTEX
8
OBJECT000
10
0
20
0
30
0
70
128
71
-34
72
65
73
-95
0
VERTEX
8
OBJECT000
10
0
20
0
30
0
70
128
71
-34
72
95
73
-96
0
VERTEX
8
OBJECT000
10
0
20
0
30
0
70
128
71
-34
72
96
73
-97
0
VERTEX
8
OBJECT000
10
0
20
0
30
0
70
128
71
-34
72
97
73
-66
0
VERTEX
8
OBJECT000
10
0
20
0
30
0
70
128
71
-34
72
66
73
35
0
VERTEX
8
OBJECT000
10
0
20
0
30
0
70
128
71
68
72
67
73
-66
0
VERTEX
8
OBJECT000
10
0
20
0
30
0
70
128
71
-68
72
66
73
-97
0
VERTEX
8
OBJECT000
10
0
20
0
30
0
70
128
71
-68
72
97
73
-99
0
VERTEX
8
OBJECT000
10
0
20
0
30
0
70
128
71
-68
72
99
73
-100
0
VERTEX
8
OBJECT000
10
0
20
0
30
0
70
128
71
-68
72
100
73
-101
0
VERTEX
8
OBJECT000
10
0
20
0
30
0
70
128
71
-68
72
101
73
98
0
VERTEX
8
OBJECT000
10
0
20
0
30
0
70
128
71
68
72
98
73
-102
0
VERTEX
8
OBJECT000
10
0
20
0
30
0
70
128
71
-68
72
102
73
-103
0
VERTEX
8
OBJECT000
10
0
20
0
30
0
70
128
71
-68
72
103
73
69
0
VERTEX
8
OBJECT000
10
0
20
0
30
0
70
128
71
73
72
71
73
-70
0
VERTEX
8
OBJECT000
10
0
20
0
30
0
70
128
71
-73
72
70
73
-69
0
VERTEX
8
OBJECT000
10
0
20
0
30
0
70
128
71
-73
72
69
73
-103
0
VERTEX
8
OBJECT000
10
0
20
0
30
0
70
128
71
-73
72
103
73
104
0
VERTEX
8
OBJECT000
10
0
20
0
30
0
70
128
71
74
72
73
73
-104
0
VERTEX
8
OBJECT000
10
0
20
0
30
0
70
128
71
-74
72
104
73
-106
0
VERTEX
8
OBJECT000
10
0
20
0
30
0
70
128
71
-74
72
106
73
105
0
VERTEX
8
OBJECT000
10
0
20
0
30
0
70
128
71
77
72
75
73
-72
0
VERTEX
8
OBJECT000
10
0
20
0
30
0
70
128
71
-77
72
72
73
-74
0
VERTEX
8
OBJECT000
10
0
20
0
30
0
70
128
71
-77
72
74
73
-105
0
VERTEX
8
OBJECT000
10
0
20
0
30
0
70
128
71
-77
72
105
73
-108
0
VERTEX
8
OBJECT000
10
0
20
0
30
0
70
128
71
-77
72
108
73
-109
0
VERTEX
8
OBJECT000
10
0
20
0
30
0
70
128
71
-77
72
109
73
107
0
VERTEX
8
OBJECT000
10
0
20
0
30
0
70
128
71
78
72
77
73
-107
0
VERTEX
8
OBJECT000
10
0
20
0
30
0
70
128
71
-78
72
107
73
-111
0
VERTEX
8
OBJECT000
10
0
20
0
30
0
70
128
71
-78
72
111
73
110
0
VERTEX
8
OBJECT000
10
0
20
0
30
0
70
128
71
81
72
79
73
-76
0
VERTEX
8
OBJECT000
10
0
20
0
30
0
70
128
71
-81
72
76
73
-78
0
VERTEX
8
OBJECT000
10
0
20
0
30
0
70
128
71
-81
72
78
73
-110
0
VERTEX
8
OBJECT000
10
0
20
0
30
0
70
128
71
-81
72
110
73
112
0
VERTEX
8
OBJECT000
10
0
20
0
30
0
70
128
71
82
72
81
73
-112
0
VERTEX
8
OBJECT000
10
0
20
0
30
0
70
128
71
-82
72
112
73
-114
0
VERTEX
8
OBJECT000
10
0
20
0
30
0
70
128
71
-82
72
114
73
113
0
VERTEX
8
OBJECT000
10
0
20
0
30
0
70
128
71
85
72
83
73
-80
0
VERTEX
8
OBJECT000
10
0
20
0
30
0
70
128
71
-85
72
80
73
-82
0
VERTEX
8
OBJECT000
10
0
20
0
30
0
70
128
71
-85
72
82
73
-113
0
VERTEX
8
OBJECT000
10
0
20
0
30
0
70
128
71
-85
72
113
73
-116
0
VERTEX
8
OBJECT000
10
0
20
0
30
0
70
128
71
-85
72
116
73
-117
0
VERTEX
8
OBJECT000
10
0
20
0
30
0
70
128
71
-85
72
117
73
115
0
VERTEX
8
OBJECT000
10
0
20
0
30
0
70
128
71
86
72
85
73
-115
0
VERTEX
8
OBJECT000
10
0
20
0
30
0
70
128
71
-86
72
115
73
-119
0
VERTEX
8
OBJECT000
10
0
20
0
30
0
70
128
71
-86
72
119
73
118
0
VERTEX
8
OBJECT000
10
0
20
0
30
0
70
128
71
89
72
87
73
-84
0
VERTEX
8
OBJECT000
10
0
20
0
30
0
70
128
71
-89
72
84
73
-86
0
VERTEX
8
OBJECT000
10
0
20
0
30
0
70
128
71
-89
72
86
73
-118
0
VERTEX
8
OBJECT000
10
0
20
0
30
0
70
128
71
-89
72
118
73
120
0
VERTEX
8
OBJECT000
10
0
20
0
30
0
70
128
71
90
72
89
73
-120
0
VERTEX
8
OBJECT000
10
0
20
0
30
0
70
128
71
-90
72
120
73
-122
0
VERTEX
8
OBJECT000
10
0
20
0
30
0
70
128
71
-90
72
122
73
121
0
VERTEX
8
OBJECT000
10
0
20
0
30
0
70
128
71
93
72
91
73
-88
0
VERTEX
8
OBJECT000
10
0
20
0
30
0
70
128
71
-93
72
88
73
-90
0
VERTEX
8
OBJECT000
10
0
20
0
30
0
70
128
71
-93
72
90
73
-121
0
VERTEX
8
OBJECT000
10
0
20
0
30
0
70
128
71
-93
72
121
73
-124
0
VERTEX
8
OBJECT000
10
0
20
0
30
0
70
128
71
-93
72
124
73
-125
0
VERTEX
8
OBJECT000
10
0
20
0
30
0
70
128
71
-93
72
125
73
123
0
VERTEX
8
OBJECT000
10
0
20
0
30
0
70
128
71
94
72
93
73
-123
0
VERTEX
8
OBJECT000
10
0
20
0
30
0
70
128
71
-94
72
123
73
-127
0
VERTEX
8
OBJECT000
10
0
20
0
30
0
70
128
71
-94
72
127
73
126
0
VERTEX
8
OBJECT000
10
0
20
0
30
0
70
128
71
96
72
95
73
-92
0
VERTEX
8
OBJECT000
10
0
20
0
30
0
70
128
71
-96
72
92
73
-94
0
VERTEX
8
OBJECT000
10
0
20
0
30
0
70
128
71
-96
72
94
73
-126
0
VERTEX
8
OBJECT000
10
0
20
0
30
0
70
128
71
-96
72
126
73
128
0
VERTEX
8
OBJECT000
10
0
20
0
30
0
70
128
71
97
72
96
73
-128
0
VERTEX
8
OBJECT000
10
0
20
0
30
0
70
128
71
-97
72
128
73
-129
0
VERTEX
8
OBJECT000
10
0
20
0
30
0
70
128
71
-97
72
129
73
99
0
VERTEX
8
OBJECT000
10
0
20
0
30
0
70
128
71
101
72
100
73
-131
0
VERTEX
8
OBJECT000
10
0
20
0
30
0
70
128
71
-101
72
131
73
130
0
VERTEX
8
OBJECT000
10
0
20
0
30
0
70
128
71
102
72
98
73
-101
0
VERTEX
8
OBJECT000
10
0
20
0
30
0
70
128
71
-102
72
101
73
-130
0
VERTEX
8
OBJECT000
10
0
20
0
30
0
70
128
71
-102
72
130
73
-133
0
VERTEX
8
OBJECT000
10
0
20
0
30
0
70
128
71
-102
72
133
73
132
0
VERTEX
8
OBJECT000
10
0
20
0
30
0
70
128
71
106
72
104
73
-103
0
VERTEX
8
OBJECT000
10
0
20
0
30
0
70
128
71
-106
72
103
73
-102
0
VERTEX
8
OBJECT000
10
0
20
0
30
0
70
128
71
-106
72
102
73
-132
0
VERTEX
8
OBJECT000
10
0
20
0
30
0
70
128
71
-106
72
132
73
-135
0
VERTEX
8
OBJECT000
10
0
20
0
30
0
70
128
71
-106
72
135
73
-136
0
VERTEX
8
OBJECT000
10
0
20
0
30
0
70
128
71
-106
72
136
73
-137
0
VERTEX
8
OBJECT000
10
0
20
0
30
0
70
128
71
-106
72
137
73
134
0
VERTEX
8
OBJECT000
10
0
20
0
30
0
70
128
71
108
72
105
73
-106
0
VERTEX
8
OBJECT000
10
0
20
0
30
0
70
128
71
-108
72
106
73
-134
0
VERTEX
8
OBJECT000
10
0
20
0
30
0
70
128
71
-108
72
134
73
-139
0
VERTEX
8
OBJECT000
10
0
20
0
30
0
70
128
71
-108
72
139
73
138
0
VERTEX
8
OBJECT000
10
0
20
0
30
0
70
128
71
108
72
138
73
-140
0
VERTEX
8
OBJECT000
10
0
20
0
30
0
70
128
71
-108
72
140
73
109
0
VERTEX
8
OBJECT000
10
0
20
0
30
0
70
128
71
111
72
107
73
-109
0
VERTEX
8
OBJECT000
10
0
20
0
30
0
70
128
71
-111
72
109
73
-140
0
VERTEX
8
OBJECT000
10
0
20
0
30
0
70
128
71
-111
72
140
73
-142
0
VERTEX
8
OBJECT000
10
0
20
0
30
0
70
128
71
-111
72
142
73
141
0
VERTEX
8
OBJECT000
10
0
20
0
30
0
70
128
71
114
72
112
73
-110
0
VERTEX
8
OBJECT000
10
0
20
0
30
0
70
128
71
-114
72
110
73
-111
0
VERTEX
8
OBJECT000
10
0
20
0
30
0
70
128
71
-114
72
111
73
-141
0
VERTEX
8
OBJECT000
10
0
20
0
30
0
70
128
71
-114
72
141
73
-144
0
VERTEX
8
OBJECT000
10
0
20
0
30
0
70
128
71
-114
72
144
73
-145
0
VERTEX
8
OBJECT000
10
0
20
0
30
0
70
128
71
-114
72
145
73
-146
0
VERTEX
8
OBJECT000
10
0
20
0
30
0
70
128
71
-114
72
146
73
143
0
VERTEX
8
OBJECT000
10
0
20
0
30
0
70
128
71
116
72
113
73
-114
0
VERTEX
8
OBJECT000
10
0
20
0
30
0
70
128
71
-116
72
114
73
-143
0
VERTEX
8
OBJECT000
10
0
20
0
30
0
70
128
71
-116
72
143
73
-148
0
VERTEX
8
OBJECT000
10
0
20
0
30
0
70
128
71
-116
72
148
73
147
0
VERTEX
8
OBJECT000
10
0
20
0
30
0
70
128
71
116
72
147
73
-149
0
VERTEX
8
OBJECT000
10
0
20
0
30
0
70
128
71
-116
72
149
73
117
0
VERTEX
8
OBJECT000
10
0
20
0
30
0
70
128
71
119
72
115
73
-117
0
VERTEX
8
OBJECT000
10
0
20
0
30
0
70
128
71
-119
72
117
73
-149
0
VERTEX
8
OBJECT000
10
0
20
0
30
0
70
128
71
-119
72
149
73
-151
0
VERTEX
8
OBJECT000
10
0
20
0
30
0
70
128
71
-119
72
151
73
150
0
VERTEX
8
OBJECT000
10
0
20
0
30
0
70
128
71
122
72
120
73
-118
0
VERTEX
8
OBJECT000
10
0
20
0
30
0
70
128
71
-122
72
118
73
-119
0
VERTEX
8
OBJECT000
10
0
20
0
30
0
70
128
71
-122
72
119
73
-150
0
VERTEX
8
OBJECT000
10
0
20
0
30
0
70
128
71
-122
72
150
73
-153
0
VERTEX
8
OBJECT000
10
0
20
0
30
0
70
128
71
-122
72
153
73
-154
0
VERTEX
8
OBJECT000
10
0
20
0
30
0
70
128
71
-122
72
154
73
-155
0
VERTEX
8
OBJECT000
10
0
20
0
30
0
70
128
71
-122
72
155
73
152
0
VERTEX
8
OBJECT000
10
0
20
0
30
0
70
128
71
124
72
121
73
-122
0
VERTEX
8
OBJECT000
10
0
20
0
30
0
70
128
71
-124
72
122
73
-152
0
VERTEX
8
OBJECT000
10
0
20
0
30
0
70
128
71
-124
72
152
73
-157
0
VERTEX
8
OBJECT000
10
0
20
0
30
0
70
128
71
-124
72
157
73
156
0
VERTEX
8
OBJECT000
10
0
20
0
30
0
70
128
71
124
72
156
73
-158
0
VERTEX
8
OBJECT000
10
0
20
0
30
0
70
128
71
-124
72
158
73
125
0
VERTEX
8
OBJECT000
10
0
20
0
30
0
70
128
71
127
72
123
73
-125
0
VERTEX
8
OBJECT000
10
0
20
0
30
0
70
128
71
-127
72
125
73
-158
0
VERTEX
8
OBJECT000
10
0
20
0
30
0
70
128
71
-127
72
158
73
-160
0
VERTEX
8
OBJECT000
10
0
20
0
30
0
70
128
71
-127
72
160
73
159
0
VERTEX
8
OBJECT000
10
0
20
0
30
0
70
128
71
129
72
128
73
-126
0
VERTEX
8
OBJECT000
10
0
20
0
30
0
70
128
71
-129
72
126
73
-127
0
VERTEX
8
OBJECT000
10
0
20
0
30
0
70
128
71
-129
72
127
73
-159
0
VERTEX
8
OBJECT000
10
0
20
0
30
0
70
128
71
-129
72
159
73
-162
0
VERTEX
8
OBJECT000
10
0
20
0
30
0
70
128
71
-129
72
162
73
-163
0
VERTEX
8
OBJECT000
10
0
20
0
30
0
70
128
71
-129
72
163
73
-164
0
VERTEX
8
OBJECT000
10
0
20
0
30
0
70
128
71
-129
72
164
73
161
0
VERTEX
8
OBJECT000
10
0
20
0
30
0
70
128
71
100
72
99
73
-129
0
VERTEX
8
OBJECT000
10
0
20
0
30
0
70
128
71
-100
72
129
73
-161
0
VERTEX
8
OBJECT000
10
0
20
0
30
0
70
128
71
-100
72
161
73
-165
0
VERTEX
8
OBJECT000
10
0
20
0
30
0
70
128
71
-100
72
165
73
131
0
VERTEX
8
OBJECT000
10
0
20
0
30
0
70
128
71
133
72
130
73
-131
0
VERTEX
8
OBJECT000
10
0
20
0
30
0
70
128
71
-133
72
131
73
-165
0
VERTEX
8
OBJECT000
10
0
20
0
30
0
70
128
71
-133
72
165
73
-167
0
VERTEX
8
OBJECT000
10
0
20
0
30
0
70
128
71
-133
72
167
73
-168
0
VERTEX
8
OBJECT000
10
0
20
0
30
0
70
128
71
-133
72
168
73
-169
0
VERTEX
8
OBJECT000
10
0
20
0
30
0
70
128
71
-133
72
169
73
166
0
VERTEX
8
OBJECT000
10
0
20
0
30
0
70
128
71
135
72
132
73
-133
0
VERTEX
8
OBJECT000
10
0
20
0
30
0
70
128
71
-135
72
133
73
-166
0
VERTEX
8
OBJECT000
10
0
20
0
30
0
70
128
71
-135
72
166
73
-171
0
VERTEX
8
OBJECT000
10
0
20
0
30
0
70
128
71
-135
72
171
73
-172
0
VERTEX
8
OBJECT000
10
0
20
0
30
0
70
128
71
-135
72
172
73
170
0
VERTEX
8
OBJECT000
10
0
20
0
30
0
70
128
71
135
72
170
73
136
0
VERTEX
8
OBJECT000
10
0
20
0
30
0
70
128
71
139
72
134
73
-137
0
VERTEX
8
OBJECT000
10
0
20
0
30
0
70
128
71
-139
72
137
73
-174
0
VERTEX
8
OBJECT000
10
0
20
0
30
0
70
128
71
-139
72
174
73
173
0
VERTEX
8
OBJECT000
10
0
20
0
30
0
70
128
71
142
72
140
73
-138
0
VERTEX
8
OBJECT000
10
0
20
0
30
0
70
128
71
-142
72
138
73
-139
0
VERTEX
8
OBJECT000
10
0
20
0
30
0
70
128
71
-142
72
139
73
-173
0
VERTEX
8
OBJECT000
10
0
20
0
30
0
70
128
71
-142
72
173
73
-176
0
VERTEX
8
OBJECT000
10
0
20
0
30
0
70
128
71
-142
72
176
73
-177
0
VERTEX
8
OBJECT000
10
0
20
0
30
0
70
128
71
-142
72
177
73
175
0
VERTEX
8
OBJECT000
10
0
20
0
30
0
70
128
71
144
72
141
73
-142
0
VERTEX
8
OBJECT000
10
0
20
0
30
0
70
128
71
-144
72
142
73
-175
0
VERTEX
8
OBJECT000
10
0
20
0
30
0
70
128
71
-144
72
175
73
-179
0
VERTEX
8
OBJECT000
10
0
20
0
30
0
70
128
71
-144
72
179
73
-180
0
VERTEX
8
OBJECT000
10
0
20
0
30
0
70
128
71
-144
72
180
73
178
0
VERTEX
8
OBJECT000
10
0
20
0
30
0
70
128
71
181
72
178
73
145
0
VERTEX
8
OBJECT000
10
0
20
0
30
0
70
128
71
148
72
143
73
-146
0
VERTEX
8
OBJECT000
10
0
20
0
30
0
70
128
71
-148
72
146
73
-183
0
VERTEX
8
OBJECT000
10
0
20
0
30
0
70
128
71
-148
72
183
73
182
0
VERTEX
8
OBJECT000
10
0
20
0
30
0
70
128
71
151
72
149
73
-147
0
VERTEX
8
OBJECT000
10
0
20
0
30
0
70
128
71
-151
72
147
73
-148
0
VERTEX
8
OBJECT000
10
0
20
0
30
0
70
128
71
-151
72
148
73
-182
0
VERTEX
8
OBJECT000
10
0
20
0
30
0
70
128
71
-151
72
182
73
-185
0
VERTEX
8
OBJECT000
10
0
20
0
30
0
70
128
71
-151
72
185
73
-186
0
VERTEX
8
OBJECT000
10
0
20
0
30
0
70
128
71
-151
72
186
73
184
0
VERTEX
8
OBJECT000
10
0
20
0
30
0
70
128
71
153
72
150
73
-151
0
VERTEX
8
OBJECT000
10
0
20
0
30
0
70
128
71
-153
72
151
73
-184
0
VERTEX
8
OBJECT000
10
0
20
0
30
0
70
128
71
-153
72
184
73
-188
0
VERTEX
8
OBJECT000
10
0
20
0
30
0
70
128
71
-153
72
188
73
-189
0
VERTEX
8
OBJECT000
10
0
20
0
30
0
70
128
71
-153
72
189
73
187
0
VERTEX
8
OBJECT000
10
0
20
0
30
0
70
128
71
153
72
187
73
154
0
VERTEX
8
OBJECT000
10
0
20
0
30
0
70
128
71
157
72
152
73
-155
0
VERTEX
8
OBJECT000
10
0
20
0
30
0
70
128
71
-157
72
155
73
-191
0
VERTEX
8
OBJECT000
10
0
20
0
30
0
70
128
71
-157
72
191
73
190
0
VERTEX
8
OBJECT000
10
0
20
0
30
0
70
128
71
160
72
158
73
-156
0
VERTEX
8
OBJECT000
10
0
20
0
30
0
70
128
71
-160
72
156
73
-157
0
VERTEX
8
OBJECT000
10
0
20
0
30
0
70
128
71
-160
72
157
73
-190
0
VERTEX
8
OBJECT000
10
0
20
0
30
0
70
128
71
-160
72
190
73
-193
0
VERTEX
8
OBJECT000
10
0
20
0
30
0
70
128
71
-160
72
193
73
-194
0
VERTEX
8
OBJECT000
10
0
20
0
30
0
70
128
71
-160
72
194
73
192
0
VERTEX
8
OBJECT000
10
0
20
0
30
0
70
128
71
162
72
159
73
-160
0
VERTEX
8
OBJECT000
10
0
20
0
30
0
70
128
71
-162
72
160
73
-192
0
VERTEX
8
OBJECT000
10
0
20
0
30
0
70
128
71
-162
72
192
73
-196
0
VERTEX
8
OBJECT000
10
0
20
0
30
0
70
128
71
-162
72
196
73
195
0
VERTEX
8
OBJECT000
10
0
20
0
30
0
70
128
71
162
72
195
73
163
0
VERTEX
8
OBJECT000
10
0
20
0
30
0
70
128
71
165
72
161
73
-164
0
VERTEX
8
OBJECT000
10
0
20
0
30
0
70
128
71
-165
72
164
73
-197
0
VERTEX
8
OBJECT000
10
0
20
0
30
0
70
128
71
-165
72
197
73
167
0
VERTEX
8
OBJECT000
10
0
20
0
30
0
70
128
71
169
72
168
73
-199
0
VERTEX
8
OBJECT000
10
0
20
0
30
0
70
128
71
-169
72
199
73
198
0
VERTEX
8
OBJECT000
10
0
20
0
30
0
70
128
71
166
72
169
73
-198
0
VERTEX
8
OBJECT000
10
0
20
0
30
0
70
128
71
-166
72
198
73
-200
0
VERTEX
8
OBJECT000
10
0
20
0
30
0
70
128
71
-166
72
200
73
171
0
VERTEX
8
OBJECT000
10
0
20
0
30
0
70
128
71
174
72
137
73
-136
0
VERTEX
8
OBJECT000
10
0
20
0
30
0
70
128
71
-174
72
136
73
-170
0
VERTEX
8
OBJECT000
10
0
20
0
30
0
70
128
71
-174
72
170
73
-172
0
VERTEX
8
OBJECT000
10
0
20
0
30
0
70
128
71
-174
72
172
73
-202
0
VERTEX
8
OBJECT000
10
0
20
0
30
0
70
128
71
-174
72
202
73
201
0
VERTEX
8
OBJECT000
10
0
20
0
30
0
70
128
71
173
72
174
73
-201
0
VERTEX
8
OBJECT000
10
0
20
0
30
0
70
128
71
-173
72
201
73
-203
0
VERTEX
8
OBJECT000
10
0
20
0
30
0
70
128
71
-173
72
203
73
176
0
VERTEX
8
OBJECT000
10
0
20
0
30
0
70
128
71
176
72
203
73
-204
0
VERTEX
8
OBJECT000
10
0
20
0
30
0
70
128
71
-176
72
204
73
177
0
VERTEX
8
OBJECT000
10
0
20
0
30
0
70
128
71
175
72
177
73
-204
0
VERTEX
8
OBJECT000
10
0
20
0
30
0
70
128
71
-175
72
204
73
-205
0
VERTEX
8
OBJECT000
10
0
20
0
30
0
70
128
71
-175
72
205
73
179
0
VERTEX
8
OBJECT000
10
0
20
0
30
0
70
128
71
183
72
146
73
-145
0
VERTEX
8
OBJECT000
10
0
20
0
30
0
70
128
71
-183
72
145
73
-178
0
VERTEX
8
OBJECT000
10
0
20
0
30
0
70
128
71
-183
72
178
73
-180
0
VERTEX
8
OBJECT000
10
0
20
0
30
0
70
128
71
-183
72
180
73
-207
0
VERTEX
8
OBJECT000
10
0
20
0
30
0
70
128
71
-183
72
207
73
206
0
VERTEX
8
OBJECT000
10
0
20
0
30
0
70
128
71
182
72
183
73
-206
0
VERTEX
8
OBJECT000
10
0
20
0
30
0
70
128
71
-182
72
206
73
-208
0
VERTEX
8
OBJECT000
10
0
20
0
30
0
70
128
71
-182
72
208
73
185
0
VERTEX
8
OBJECT000
10
0
20
0
30
0
70
128
71
185
72
208
73
-209
0
VERTEX
8
OBJECT000
10
0
20
0
30
0
70
128
71
-185
72
209
73
186
0
VERTEX
8
OBJECT000
10
0
20
0
30
0
70
128
71
184
72
186
73
-209
0
VERTEX
8
OBJECT000
10
0
20
0
30
0
70
128
71
-184
72
209
73
-210
0
VERTEX
8
OBJECT000
10
0
20
0
30
0
70
128
71
-184
72
210
73
-211
0
VERTEX
8
OBJECT000
10
0
20
0
30
0
70
128
71
-184
72
211
73
188
0
VERTEX
8
OBJECT000
10
0
20
0
30
0
70
128
71
191
72
155
73
-154
0
VERTEX
8
OBJECT000
10
0
20
0
30
0
70
128
71
-191
72
154
73
-187
0
VERTEX
8
OBJECT000
10
0
20
0
30
0
70
128
71
-191
72
187
73
-189
0
VERTEX
8
OBJECT000
10
0
20
0
30
0
70
128
71
-191
72
189
73
-213
0
VERTEX
8
OBJECT000
10
0
20
0
30
0
70
128
71
-191
72
213
73
212
0
VERTEX
8
OBJECT000
10
0
20
0
30
0
70
128
71
190
72
191
73
-212
0
VERTEX
8
OBJECT000
10
0
20
0
30
0
70
128
71
-190
72
212
73
-214
0
VERTEX
8
OBJECT000
10
0
20
0
30
0
70
128
71
-190
72
214
73
193
0
VERTEX
8
OBJECT000
10
0
20
0
30
0
70
128
71
193
72
214
73
-215
0
VERTEX
8
OBJECT000
10
0
20
0
30
0
70
128
71
-193
72
215
73
194
0
VERTEX
8
OBJECT000
10
0
20
0
30
0
70
128
71
192
72
194
73
-215
0
VERTEX
8
OBJECT000
10
0
20
0
30
0
70
128
71
-192
72
215
73
-216
0
VERTEX
8
OBJECT000
10
0
20
0
30
0
70
128
71
-192
72
216
73
196
0
VERTEX
8
OBJECT000
10
0
20
0
30
0
70
128
71
197
72
164
73
-163
0
VERTEX
8
OBJECT000
10
0
20
0
30
0
70
128
71
-197
72
163
73
-195
0
VERTEX
8
OBJECT000
10
0
20
0
30
0
70
128
71
-197
72
195
73
-196
0
VERTEX
8
OBJECT000
10
0
20
0
30
0
70
128
71
-197
72
196
73
-218
0
VERTEX
8
OBJECT000
10
0
20
0
30
0
70
128
71
-197
72
218
73
-219
0
VERTEX
8
OBJECT000
10
0
20
0
30
0
70
128
71
-197
72
219
73
217
0
VERTEX
8
OBJECT000
10
0
20
0
30
0
70
128
71
168
72
167
73
-197
0
VERTEX
8
OBJECT000
10
0
20
0
30
0
70
128
71
-168
72
197
73
-217
0
VERTEX
8
OBJECT000
10
0
20
0
30
0
70
128
71
-168
72
217
73
199
0
VERTEX
8
OBJECT000
10
0
20
0
30
0
70
128
71
200
72
198
73
220
0
VERTEX
8
OBJECT000
10
0
20
0
30
0
70
128
71
172
72
171
73
-200
0
VERTEX
8
OBJECT000
10
0
20
0
30
0
70
128
71
-172
72
200
73
-220
0
VERTEX
8
OBJECT000
10
0
20
0
30
0
70
128
71
-172
72
220
73
202
0
VERTEX
8
OBJECT000
10
0
20
0
30
0
70
128
71
205
72
204
73
221
0
VERTEX
8
OBJECT000
10
0
20
0
30
0
70
128
71
180
72
179
73
-205
0
VERTEX
8
OBJECT000
10
0
20
0
30
0
70
128
71
-180
72
205
73
-221
0
VERTEX
8
OBJECT000
10
0
20
0
30
0
70
128
71
-180
72
221
73
207
0
VERTEX
8
OBJECT000
10
0
20
0
30
0
70
128
71
211
72
210
73
222
0
VERTEX
8
OBJECT000
10
0
20
0
30
0
70
128
71
189
72
188
73
-211
0
VERTEX
8
OBJECT000
10
0
20
0
30
0
70
128
71
-189
72
211
73
-222
0
VERTEX
8
OBJECT000
10
0
20
0
30
0
70
128
71
-189
72
222
73
213
0
VERTEX
8
OBJECT000
10
0
20
0
30
0
70
128
71
218
72
216
73
-215
0
VERTEX
8
OBJECT000
10
0
20
0
30
0
70
128
71
-218
72
215
73
219
0
VERTEX
8
OBJECT000
10
0
20
0
30
0
70
128
71
216
72
218
73
196
0
VERTEX
8
OBJECT000
10
0
20
0
30
0
70
128
71
214
72
212
73
-213
0
VERTEX
8
OBJECT000
10
0
20
0
30
0
70
128
71
-214
72
213
73
-222
0
VERTEX
8
OBJECT000
10
0
20
0
30
0
70
128
71
-214
72
222
73
-210
0
VERTEX
8
OBJECT000
10
0
20
0
30
0
70
128
71
-214
72
210
73
-209
0
VERTEX
8
OBJECT000
10
0
20
0
30
0
70
128
71
-214
72
209
73
-208
0
VERTEX
8
OBJECT000
10
0
20
0
30
0
70
128
71
-214
72
208
73
-206
0
VERTEX
8
OBJECT000
10
0
20
0
30
0
70
128
71
-214
72
206
73
-207
0
VERTEX
8
OBJECT000
10
0
20
0
30
0
70
128
71
-214
72
207
73
-221
0
VERTEX
8
OBJECT000
10
0
20
0
30
0
70
128
71
-214
72
221
73
-204
0
VERTEX
8
OBJECT000
10
0
20
0
30
0
70
128
71
-214
72
204
73
-203
0
VERTEX
8
OBJECT000
10
0
20
0
30
0
70
128
71
-214
72
203
73
-201
0
VERTEX
8
OBJECT000
10
0
20
0
30
0
70
128
71
-214
72
201
73
-220
0
VERTEX
8
OBJECT000
10
0
20
0
30
0
70
128
71
-214
72
220
73
-198
0
VERTEX
8
OBJECT000
10
0
20
0
30
0
70
128
71
-214
72
198
73
-199
0
VERTEX
8
OBJECT000
10
0
20
0
30
0
70
128
71
-214
72
199
73
-217
0
VERTEX
8
OBJECT000
10
0
20
0
30
0
70
128
71
-214
72
217
73
-219
0
VERTEX
8
OBJECT000
10
0
20
0
30
0
70
128
71
-214
72
219
73
215
0
SEQEND
8
OBJECT000
0
POLYLINE
8
OBJECT001
66
1
70
64
71
226
72
437
62
50
0
VERTEX
8
OBJECT001
10
-6.000000
20
6.000000
30
-127.076935
70
192
0
VERTEX
8
OBJECT001
10
0.000000
20
0.000000
30
-128.000000
70
192
0
VERTEX
8
OBJECT001
10
0.000000
20
8.000000
30
-127.076935
70
192
0
VERTEX
8
OBJECT001
10
-8.000000
20
0.000000
30
-127.077148
70
192
0
VERTEX
8
OBJECT001
10
-6.000000
20
-6.000000
30
-127.077789
70
192
0
VERTEX
8
OBJECT001
10
0.000000
20
-8.000000
30
-127.076782
70
192
0
VERTEX
8
OBJECT001
10
6.000000
20
-6.000000
30
-127.077423
70
192
0
VERTEX
8
OBJECT001
10
8.000000
20
0.000000
30
-127.077515
70
192
0
VERTEX
8
OBJECT001
10
6.000000
20
6.000000
30
-127.077789
70
192
0
VERTEX
8
OBJECT001
10
-10.364166
20
10.818665
30
-124.629425
70
192
0
VERTEX
8
OBJECT001
10
-0.512100
20
15.059814
30
-124.255768
70
192
0
VERTEX
8
OBJECT001
10
-7.126015
20
15.727112
30
-123.134521
70
192
0
VERTEX
8
OBJECT001
10
-15.056892
20
-0.513702
30
-124.255905
70
192
0
VERTEX
8
OBJECT001
10
-11.000000
20
11.000000
30
-124.348938
70
192
0
VERTEX
8
OBJECT001
10
-17.116882
20
6.498291
30
-122.453247
70
192
0
VERTEX
8
OBJECT001
10
-15.785492
20
0.158478
30
-123.865372
70
192
0
VERTEX
8
OBJECT001
10
-10.827171
20
-10.372650
30
-124.623016
70
192
0
VERTEX
8
OBJECT001
10
-15.732193
20
-7.146667
30
-123.127258
70
192
0
VERTEX
8
OBJECT001
10
-11.000000
20
-11.000000
30
-124.341049
70
192
0
VERTEX
8
OBJECT001
10
-6.493607
20
-17.116913
30
-122.453339
70
192
0
VERTEX
8
OBJECT001
10
-0.155708
20
-15.786652
30
-123.864380
70
192
0
VERTEX
8
OBJECT001
10
0.522606
20
-15.052307
30
-124.258026
70
192
0
VERTEX
8
OBJECT001
10
7.134285
20
-15.721222
30
-123.135773
70
192
0
VERTEX
8
OBJECT001
10
10.371536
20
-10.821198
30
-124.626297
70
192
0
VERTEX
8
OBJECT001
10
15.056992
20
0.511292
30
-124.255981
70
192
0
VERTEX
8
OBJECT001
10
11.000000
20
-11.000000
30
-124.341782
70
192
0
VERTEX
8
OBJECT001
10
17.108498
20
-6.490112
30
-122.458694
70
192
0
VERTEX
8
OBJECT001
10
15.780144
20
-0.156738
30
-123.868332
70
192
0
VERTEX
8
OBJECT001
10
10.818558
20
10.372070
30
-124.627563
70
192
0
VERTEX
8
OBJECT001
10
15.724747
20
7.136047
30
-123.133301
70
192
0
VERTEX
8
OBJECT001
10
0.147392
20
15.778809
30
-123.870132
70
192
0
VERTEX
8
OBJECT001
10
11.000000
20
10.981354
30
-124.354034
70
192
0
VERTEX
8
OBJECT001
10
6.501587
20
17.106720
30
-122.458588
70
192
0
VERTEX
8
OBJECT001
10
-10.018921
20
20.134460
30
-120.037231
70
192
0
VERTEX
8
OBJECT001
10
1.304604
20
21.402496
30
-120.430481
70
192
0
VERTEX
8
OBJECT001
10
0.019600
20
21.985931
30
-119.925285
70
192
0
VERTEX
8
OBJECT001
10
-9.100136
20
21.868256
30
-119.036392
70
192
0
VERTEX
8
OBJECT001
10
-14.575691
20
16.266541
30
-120.607452
70
192
0
VERTEX
8
OBJECT001
10
-21.079796
20
7.124390
30
-120.048080
70
192
0
VERTEX
8
OBJECT001
10
-16.016502
20
16.000000
30
-119.896790
70
192
0
VERTEX
8
OBJECT001
10
-21.915138
20
9.530670
30
-118.783325
70
192
0
VERTEX
8
OBJECT001
10
-21.394783
20
1.312256
30
-120.433868
70
192
0
VERTEX
8
OBJECT001
10
-20.103935
20
-10.028381
30
-120.052444
70
192
0
VERTEX
8
OBJECT001
10
-22.000000
20
0.000000
30
-119.914154
70
192
0
VERTEX
8
OBJECT001
10
-21.878815
20
-9.084412
30
-119.027824
70
192
0
VERTEX
8
OBJECT001
10
-16.252899
20
-14.578339
30
-120.617279
70
192
0
VERTEX
8
OBJECT001
10
-7.127792
20
-21.107239
30
-120.030716
70
192
0
VERTEX
8
OBJECT001
10
-16.000000
20
-16.000000
30
-119.918343
70
192
0
VERTEX
8
OBJECT001
10
-9.504242
20
-21.939423
30
-118.779549
70
192
0
VERTEX
8
OBJECT001
10
-1.316849
20
-21.399811
30
-120.430511
70
192
0
VERTEX
8
OBJECT001
10
0.012955
20
-22.000000
30
-119.904762
70
192
0
VERTEX
8
OBJECT001
10
9.127930
20
-21.872528
30
-119.027100
70
192
0
VERTEX
8
OBJECT001
10
10.043434
20
-20.133453
30
-120.032288
70
192
0
VERTEX
8
OBJECT001
10
14.589523
20
-16.252960
30
-120.613403
70
192
0
VERTEX
8
OBJECT001
10
21.083549
20
-7.122284
30
-120.045624
70
192
0
VERTEX
8
OBJECT001
10
16.000000
20
-16.000000
30
-119.916733
70
192
0
VERTEX
8
OBJECT001
10
21.913414
20
-9.522308
30
-118.788506
70
192
0
VERTEX
8
OBJECT001
10
21.395103
20
-1.317383
30
-120.433273
70
192
0
VERTEX
8
OBJECT001
10
20.119171
20
10.022980
30
-120.045593
70
192
0
VERTEX
8
OBJECT001
10
22.000000
20
0.015808
30
-119.908897
70
192
0
VERTEX
8
OBJECT001
10
21.868080
20
9.095215
30
-119.035446
70
192
0
VERTEX
8
OBJECT001
10
16.277016
20
14.551910
30
-120.613159
70
192
0
VERTEX
8
OBJECT001
10
7.130997
20
21.102020
30
-120.033905
70
192
0
VERTEX
8
OBJECT001
10
16.000000
20
16.038483
30
-119.879288
70
192
0
VERTEX
8
OBJECT001
10
9.524590
20
21.937103
30
-118.772522
70
192
0
VERTEX
8
OBJECT001
10
-9.451576
20
24.830658
30
-116.052208
70
192
0
VERTEX
8
OBJECT001
10
-3.152840
20
26.956207
30
-114.632782
70
192
0
VERTEX
8
OBJECT001
10
-20.482803
20
19.027222
30
-114.126160
70
192
0
VERTEX
8
OBJECT001
10
-10.975090
20
25.985229
30
-113.969460
70
192
0
VERTEX
8
OBJECT001
10
-21.473808
20
21.129059
30
-111.517021
70
192
0
VERTEX
8
OBJECT001
10
-24.371414
20
10.889374
30
-115.798378
70
192
0
VERTEX
8
OBJECT001
10
-26.975845
20
-3.116638
30
-114.615410
70
192
0
VERTEX
8
OBJECT001
10
-26.095337
20
11.044067
30
-113.804848
70
192
0
VERTEX
8
OBJECT001
10
-31.839890
20
0.708191
30
-108.558823
70
192
0
VERTEX
8
OBJECT001
10
-24.837723
20
-9.428772
30
-116.048248
70
192
0
VERTEX
8
OBJECT001
10
-19.035645
20
-20.502960
30
-114.101479
70
192
0
VERTEX
8
OBJECT001
10
-26.070007
20
-11.051483
30
-113.825714
70
192
0
VERTEX
8
OBJECT001
10
-21.132713
20
-21.498199
30
-111.491852
70
192
0
VERTEX
8
OBJECT001
10
-10.845596
20
-24.378326
30
-115.823265
70
192
0
VERTEX
8
OBJECT001
10
-10.981850
20
-25.971741
30
-113.985535
70
192
0
VERTEX
8
OBJECT001
10
-0.744797
20
-31.742218
30
-108.685074
70
192
0
VERTEX
8
OBJECT001
10
3.084305
20
-26.958405
30
-114.635117
70
192
0
VERTEX
8
OBJECT001
10
9.492508
20
-24.827576
30
-116.044350
70
192
0
VERTEX
8
OBJECT001
10
10.945938
20
-25.927399
30
-114.060486
70
192
0
VERTEX
8
OBJECT001
10
21.481522
20
-21.075043
30
-111.566788
70
192
0
VERTEX
8
OBJECT001
10
20.527504
20
-19.053101
30
-114.075432
70
192
0
VERTEX
8
OBJECT001
10
24.380760
20
-10.892487
30
-115.789948
70
192
0
VERTEX
8
OBJECT001
10
26.943161
20
3.090118
30
-114.649651
70
192
0
VERTEX
8
OBJECT001
10
26.098511
20
-11.044769
30
-113.804131
70
192
0
VERTEX
8
OBJECT001
10
31.793152
20
-0.769470
30
-108.605942
70
192
0
VERTEX
8
OBJECT001
10
24.839088
20
9.452606
30
-116.037476
70
192
0
VERTEX
8
OBJECT001
10
18.989616
20
20.458527
30
-114.175507
70
192
0
VERTEX
8
OBJECT001
10
26.022293
20
11.000000
30
-113.905418
70
192
0
VERTEX
8
OBJECT001
10
21.139618
20
21.473145
30
-111.504723
70
192
0
VERTEX
8
OBJECT001
10
10.869934
20
24.363464
30
-115.820831
70
192
0
VERTEX
8
OBJECT001
10
11.025726
20
26.055023
30
-113.861954
70
192
0
VERTEX
8
OBJECT001
10
0.730125
20
31.907440
30
-108.464325
70
192
0
VERTEX
8
OBJECT001
10
-13.770493
20
30.526031
30
-106.623238
70
192
0
VERTEX
8
OBJECT001
10
0.851646
20
32.507813
30
-107.620682
70
192
0
VERTEX
8
OBJECT001
10
0.000000
20
32.986206
30
-106.701347
70
192
0
VERTEX
8
OBJECT001
10
-12.837402
20
31.863495
30
-104.926216
70
192
0
VERTEX
8
OBJECT001
10
-24.323746
20
23.340729
30
-106.799706
70
192
0
VERTEX
8
OBJECT001
10
-24.069748
20
24.283386
30
-105.912315
70
192
0
VERTEX
8
OBJECT001
10
-30.463013
20
13.461121
30
-107.280731
70
192
0
VERTEX
8
OBJECT001
10
-32.509583
20
0.833405
30
-107.618340
70
192
0
VERTEX
8
OBJECT001
10
-30.954559
20
13.041016
30
-106.716606
70
192
0
VERTEX
8
OBJECT001
10
-30.529404
20
-13.773865
30
-106.621788
70
192
0
VERTEX
8
OBJECT001
10
-32.981155
20
0.000000
30
-106.715210
70
192
0
VERTEX
8
OBJECT001
10
-31.852066
20
-12.851196
30
-104.943642
70
192
0
VERTEX
8
OBJECT001
10
-23.378349
20
-24.407440
30
-106.685699
70
192
0
VERTEX
8
OBJECT001
10
-24.228302
20
-24.186005
30
-105.879669
70
192
0
VERTEX
8
OBJECT001
10
-13.455795
20
-30.468323
30
-107.282372
70
192
0
VERTEX
8
OBJECT001
10
-0.890175
20
-32.501099
30
-107.619232
70
192
0
VERTEX
8
OBJECT001
10
-13.012245
20
-30.981750
30
-106.694199
70
192
0
VERTEX
8
OBJECT001
10
13.763489
20
-30.541931
30
-106.603859
70
192
0
VERTEX
8
OBJECT001
10
0.013771
20
-33.014526
30
-106.634834
70
192
0
VERTEX
8
OBJECT001
10
12.841919
20
-31.866882
30
-104.919205
70
192
0
VERTEX
8
OBJECT001
10
24.053345
20
-24.305542
30
-105.890533
70
192
0
VERTEX
8
OBJECT001
10
24.330894
20
-23.279205
30
-106.856728
70
192
0
VERTEX
8
OBJECT001
10
30.462143
20
-13.453125
30
-107.294868
70
192
0
VERTEX
8
OBJECT001
10
32.501167
20
-0.906677
30
-107.599998
70
192
0
VERTEX
8
OBJECT001
10
30.961731
20
-13.026764
30
-106.721519
70
192
0
VERTEX
8
OBJECT001
10
30.534447
20
13.771698
30
-106.608414
70
192
0
VERTEX
8
OBJECT001
10
33.038841
20
0.034576
30
-106.579155
70
192
0
VERTEX
8
OBJECT001
10
31.874542
20
12.839996
30
-104.903008
70
192
0
VERTEX
8
OBJECT001
10
23.348251
20
24.329132
30
-106.782280
70
192
0
VERTEX
8
OBJECT001
10
24.290657
20
24.076080
30
-105.893509
70
192
0
VERTEX
8
OBJECT001
10
13.449448
20
30.470917
30
-107.280144
70
192
0
VERTEX
8
OBJECT001
10
12.957741
20
31.042847
30
-106.627914
70
192
0
VERTEX
8
OBJECT001
10
-12.505478
20
33.673615
30
-101.277740
70
192
0
VERTEX
8
OBJECT001
10
-2.545647
20
36.311218
30
-98.988213
70
192
0
VERTEX
8
OBJECT001
10
-25.063690
20
25.926727
30
-100.721153
70
192
0
VERTEX
8
OBJECT001
10
-13.875557
20
33.974243
30
-98.604446
70
192
0
VERTEX
8
OBJECT001
10
-34.270004
20
13.309998
30
-97.870033
70
192
0
VERTEX
8
OBJECT001
10
-26.718033
20
26.197968
30
-96.084190
70
192
0
VERTEX
8
OBJECT001
10
-32.476501
20
20.729706
30
-90.363464
70
192
0
VERTEX
8
OBJECT001
10
-35.504593
20
15.805298
30
-90.684296
70
192
0
VERTEX
8
OBJECT001
10
-36.312393
20
-2.544342
30
-98.980980
70
192
0
VERTEX
8
OBJECT001
10
-38.447006
20
0.363525
30
-92.165314
70
192
0
VERTEX
8
OBJECT001
10
-33.671738
20
-12.521515
30
-101.270569
70
192
0
VERTEX
8
OBJECT001
10
-25.837875
20
-25.185516
30
-100.755630
70
192
0
VERTEX
8
OBJECT001
10
-34.130844
20
-14.606384
30
-97.195496
70
192
0
VERTEX
8
OBJECT001
10
-13.271217
20
-34.251587
30
-97.981171
70
192
0
VERTEX
8
OBJECT001
10
-25.927689
20
-25.733490
30
-99.216278
70
192
0
VERTEX
8
OBJECT001
10
-19.467171
20
-33.259338
30
-90.528297
70
192
0
VERTEX
8
OBJECT001
10
-15.837448
20
-35.485443
30
-90.723770
70
192
0
VERTEX
8
OBJECT001
10
2.544342
20
-36.311676
30
-98.983032
70
192
0
VERTEX
8
OBJECT001
10
-0.365150
20
-38.439453
30
-92.199593
70
192
0
VERTEX
8
OBJECT001
10
12.514427
20
-33.671631
30
-101.277382
70
192
0
VERTEX
8
OBJECT001
10
25.034981
20
-25.939301
30
-100.741966
70
192
0
VERTEX
8
OBJECT001
10
13.890297
20
-33.972778
30
-98.596542
70
192
0
VERTEX
8
OBJECT001
10
34.259689
20
-13.292694
30
-97.925232
70
192
0
VERTEX
8
OBJECT001
10
26.802734
20
-26.227997
30
-95.790039
70
192
0
VERTEX
8
OBJECT001
10
32.371544
20
-20.940765
30
-90.268669
70
192
0
VERTEX
8
OBJECT001
10
35.502106
20
-15.812408
30
-90.673409
70
192
0
VERTEX
8
OBJECT001
10
36.313698
20
2.547821
30
-98.977821
70
192
0
VERTEX
8
OBJECT001
10
38.444931
20
-0.358673
30
-92.177620
70
192
0
VERTEX
8
OBJECT001
10
33.672935
20
12.511841
30
-101.275116
70
192
0
VERTEX
8
OBJECT001
10
25.925079
20
25.067352
30
-100.724350
70
192
0
VERTEX
8
OBJECT001
10
34.042610
20
14.192749
30
-98.000000
70
192
0
VERTEX
8
OBJECT001
10
13.186035
20
34.215546
30
-98.202484
70
192
0
VERTEX
8
OBJECT001
10
26.184364
20
26.643066
30
-96.299683
70
192
0
VERTEX
8
OBJECT001
10
20.707603
20
32.470459
30
-90.412735
70
192
0
VERTEX
8
OBJECT001
10
15.805267
20
35.503113
30
-90.682213
70
192
0
VERTEX
8
OBJECT001
10
0.356377
20
38.417938
30
-92.293640
70
192
0
VERTEX
8
OBJECT001
10
-15.434830
20
35.767883
30
-89.023643
70
192
0
VERTEX
8
OBJECT001
10
0.436134
20
38.752441
30
-90.863556
70
192
0
VERTEX
8
OBJECT001
10
0.000000
20
39.000000
30
-89.293335
70
192
0
VERTEX
8
OBJECT001
10
-15.000000
20
36.198334
30
-87.501503
70
192
0
VERTEX
8
OBJECT001
10
-28.751465
20
26.787628
30
-89.516838
70
192
0
VERTEX
8
OBJECT001
10
-27.557816
20
28.637573
30
-85.932480
70
192
0
VERTEX
8
OBJECT001
10
-28.055573
20
27.919891
30
-87.245163
70
192
0
VERTEX
8
OBJECT001
10
-38.753387
20
0.439667
30
-90.858589
70
192
0
VERTEX
8
OBJECT001
10
-36.000000
20
15.000000
30
-89.387619
70
192
0
VERTEX
8
OBJECT001
10
-35.426346
20
-15.783508
30
-90.229225
70
192
0
VERTEX
8
OBJECT001
10
-39.000000
20
0.000000
30
-89.293816
70
192
0
VERTEX
8
OBJECT001
10
-36.199692
20
-15.000000
30
-87.501923
70
192
0
VERTEX
8
OBJECT001
10
-26.797119
20
-28.764343
30
-89.467735
70
192
0
VERTEX
8
OBJECT001
10
-28.596588
20
-27.587463
30
-86.161247
70
192
0
VERTEX
8
OBJECT001
10
-27.644974
20
-28.245483
30
-87.829071
70
192
0
VERTEX
8
OBJECT001
10
-19.346016
20
-33.333618
30
-90.540245
70
192
0
VERTEX
8
OBJECT001
10
-25.916061
20
-25.680206
30
-99.375496
70
192
0
VERTEX
8
OBJECT001
10
-0.440033
20
-38.753387
30
-90.857765
70
192
0
VERTEX
8
OBJECT001
10
-15.000000
20
-36.000000
30
-89.361458
70
192
0
VERTEX
8
OBJECT001
10
15.445953
20
-35.761200
30
-89.043472
70
192
0
VERTEX
8
OBJECT001
10
0.000000
20
-39.000000
30
-89.285339
70
192
0
VERTEX
8
OBJECT001
10
15.000000
20
-36.201019
30
-87.496277
70
192
0
VERTEX
8
OBJECT001
10
28.797256
20
-26.796997
30
-89.377289
70
192
0
VERTEX
8
OBJECT001
10
27.554420
20
-28.644257
30
-85.916710
70
192
0
VERTEX
8
OBJECT001
10
28.545586
20
-27.211151
30
-88.540764
70
192
0
VERTEX
8
OBJECT001
10
38.752350
20
-0.434753
30
-90.866188
70
192
0
VERTEX
8
OBJECT001
10
36.000000
20
-15.000000
30
-89.357483
70
192
0
VERTEX
8
OBJECT001
10
35.616127
20
15.588959
30
-89.557564
70
192
0
VERTEX
8
OBJECT001
10
39.000000
20
0.000000
30
-89.293526
70
192
0
VERTEX
8
OBJECT001
10
36.196434
20
15.000000
30
-87.507607
70
192
0
VERTEX
8
OBJECT001
10
26.781380
20
28.712738
30
-89.626160
70
192
0
VERTEX
8
OBJECT001
10
28.618637
20
27.572968
30
-86.026924
70
192
0
VERTEX
8
OBJECT001
10
20.569214
20
32.556061
30
-90.426743
70
192
0
VERTEX
8
OBJECT001
10
26.172684
20
26.593964
30
-96.449631
70
192
0
VERTEX
8
OBJECT001
10
15.039162
20
35.975800
30
-89.423241
70
192
0
VERTEX
8
OBJECT001
10
-15.019234
20
37.000000
30
-80.044479
70
192
0
VERTEX
8
OBJECT001
10
0.000000
20
40.000000
30
-80.000000
70
192
0
VERTEX
8
OBJECT001
10
-27.363754
20
28.917419
30
-84.454018
70
192
0
VERTEX
8
OBJECT001
10
-37.473267
20
12.606110
30
-80.000000
70
192
0
VERTEX
8
OBJECT001
10
-28.063370
20
27.908630
30
-80.000000
70
192
0
VERTEX
8
OBJECT001
10
-40.000000
20
-0.014496
30
-80.000000
70
192
0
VERTEX
8
OBJECT001
10
-37.000000
20
-14.989990
30
-80.000000
70
192
0
VERTEX
8
OBJECT001
10
-28.913528
20
-27.368317
30
-84.454865
70
192
0
VERTEX
8
OBJECT001
10
-12.612732
20
-37.471893
30
-80.000000
70
192
0
VERTEX
8
OBJECT001
10
-27.560394
20
-28.303955
30
-80.000000
70
192
0
VERTEX
8
OBJECT001
10
0.014389
20
-40.000000
30
-80.000000
70
192
0
VERTEX
8
OBJECT001
10
14.964935
20
-37.000000
30
-80.000000
70
192
0
VERTEX
8
OBJECT001
10
15.178200
20
-36.876617
30
-80.000000
70
192
0
VERTEX
8
OBJECT001
10
27.367996
20
-28.913788
30
-84.444542
70
192
0
VERTEX
8
OBJECT001
10
37.484352
20
-12.591064
30
-80.000000
70
192
0
VERTEX
8
OBJECT001
10
28.650978
20
-27.058777
30
-80.000000
70
192
0
VERTEX
8
OBJECT001
10
40.000000
20
0.000000
30
-80.000000
70
192
0
VERTEX
8
OBJECT001
10
37.000000
20
15.000000
30
-80.000000
70
192
0
VERTEX
8
OBJECT001
10
28.913834
20
27.366455
30
-84.462257
70
192
0
VERTEX
8
OBJECT001
10
12.612656
20
37.468994
30
-80.000000
70
192
0
VERTEX
8
OBJECT001
10
28.618950
20
27.570892
30
-83.022179
70
192
0
VERTEX
8
OBJECT001
10
28.059410
20
27.914215
30
-80.000000
70
192
0
VERTEX
8
OBJECT001
10
-28.000000
20
28.000000
30
-80.000000
70
192
0
VERTEX
8
OBJECT001
10
-28.000000
20
-28.000000
30
-80.000000
70
192
0
VERTEX
8
OBJECT001
10
28.000000
20
-28.000000
30
-80.000000
70
192
0
VERTEX
8
OBJECT001
10
28.654900
20
27.546173
30
-83.199127
70
192
0
VERTEX
8
OBJECT001
10
0
20
0
30
0
70
128
71
2
72
3
73
1
0
VERTEX
8
OBJECT001
10
0
20
0
30
0
70
128
71
2
72
1
73
4
0
VERTEX
8
OBJECT001
10
0
20
0
30
0
70
128
71
4
72
5
73
2
0
VERTEX
8
OBJECT001
10
0
20
0
30
0
70
128
71
5
72
6
73
2
0
VERTEX
8
OBJECT001
10
0
20
0
30
0
70
128
71
6
72
7
73
2
0
VERTEX
8
OBJECT001
10
0
20
0
30
0
70
128
71
2
72
7
73
8
0
VERTEX
8
OBJECT001
10
0
20
0
30
0
70
128
71
2
72
8
73
9
0
VERTEX
8
OBJECT001
10
0
20
0
30
0
70
128
71
2
72
9
73
3
0
VERTEX
8
OBJECT001
10
0
20
0
30
0
70
128
71
1
72
3
73
-11
0
VERTEX
8
OBJECT001
10
0
20
0
30
0
70
128
71
-1
72
11
73
-12
0
VERTEX
8
OBJECT001
10
0
20
0
30
0
70
128
71
-1
72
12
73
10
0
VERTEX
8
OBJECT001
10
0
20
0
30
0
70
128
71
4
72
1
73
-10
0
VERTEX
8
OBJECT001
10
0
20
0
30
0
70
128
71
-4
72
10
73
-14
0
VERTEX
8
OBJECT001
10
0
20
0
30
0
70
128
71
-4
72
14
73
-15
0
VERTEX
8
OBJECT001
10
0
20
0
30
0
70
128
71
-4
72
15
73
-16
0
VERTEX
8
OBJECT001
10
0
20
0
30
0
70
128
71
-4
72
16
73
13
0
VERTEX
8
OBJECT001
10
0
20
0
30
0
70
128
71
5
72
4
73
-13
0
VERTEX
8
OBJECT001
10
0
20
0
30
0
70
128
71
-5
72
13
73
-18
0
VERTEX
8
OBJECT001
10
0
20
0
30
0
70
128
71
-5
72
18
73
17
0
VERTEX
8
OBJECT001
10
0
20
0
30
0
70
128
71
5
72
17
73
-19
0
VERTEX
8
OBJECT001
10
0
20
0
30
0
70
128
71
-5
72
19
73
-20
0
VERTEX
8
OBJECT001
10
0
20
0
30
0
70
128
71
-5
72
20
73
-21
0
VERTEX
8
OBJECT001
10
0
20
0
30
0
70
128
71
-5
72
21
73
-22
0
VERTEX
8
OBJECT001
10
0
20
0
30
0
70
128
71
-5
72
22
73
6
0
VERTEX
8
OBJECT001
10
0
20
0
30
0
70
128
71
6
72
22
73
-23
0
VERTEX
8
OBJECT001
10
0
20
0
30
0
70
128
71
-6
72
23
73
-24
0
VERTEX
8
OBJECT001
10
0
20
0
30
0
70
128
71
-6
72
24
73
7
0
VERTEX
8
OBJECT001
10
0
20
0
30
0
70
128
71
8
72
7
73
-24
0
VERTEX
8
OBJECT001
10
0
20
0
30
0
70
128
71
-8
72
24
73
-26
0
VERTEX
8
OBJECT001
10
0
20
0
30
0
70
128
71
-8
72
26
73
-27
0
VERTEX
8
OBJECT001
10
0
20
0
30
0
70
128
71
-8
72
27
73
-28
0
VERTEX
8
OBJECT001
10
0
20
0
30
0
70
128
71
-8
72
28
73
25
0
VERTEX
8
OBJECT001
10
0
20
0
30
0
70
128
71
9
72
8
73
-25
0
VERTEX
8
OBJECT001
10
0
20
0
30
0
70
128
71
-9
72
25
73
-30
0
VERTEX
8
OBJECT001
10
0
20
0
30
0
70
128
71
-9
72
30
73
29
0
VERTEX
8
OBJECT001
10
0
20
0
30
0
70
128
71
11
72
3
73
-9
0
VERTEX
8
OBJECT001
10
0
20
0
30
0
70
128
71
-11
72
9
73
-29
0
VERTEX
8
OBJECT001
10
0
20
0
30
0
70
128
71
-11
72
29
73
-32
0
VERTEX
8
OBJECT001
10
0
20
0
30
0
70
128
71
-11
72
32
73
-33
0
VERTEX
8
OBJECT001
10
0
20
0
30
0
70
128
71
-11
72
33
73
31
0
VERTEX
8
OBJECT001
10
0
20
0
30
0
70
128
71
12
72
11
73
-31
0
VERTEX
8
OBJECT001
10
0
20
0
30
0
70
128
71
-12
72
31
73
-35
0
VERTEX
8
OBJECT001
10
0
20
0
30
0
70
128
71
-12
72
35
73
-36
0
VERTEX
8
OBJECT001
10
0
20
0
30
0
70
128
71
-12
72
36
73
-37
0
VERTEX
8
OBJECT001
10
0
20
0
30
0
70
128
71
-12
72
37
73
34
0
VERTEX
8
OBJECT001
10
0
20
0
30
0
70
128
71
14
72
10
73
-12
0
VERTEX
8
OBJECT001
10
0
20
0
30
0
70
128
71
-14
72
12
73
-34
0
VERTEX
8
OBJECT001
10
0
20
0
30
0
70
128
71
-14
72
34
73
38
0
VERTEX
8
OBJECT001
10
0
20
0
30
0
70
128
71
15
72
14
73
-38
0
VERTEX
8
OBJECT001
10
0
20
0
30
0
70
128
71
-15
72
38
73
-40
0
VERTEX
8
OBJECT001
10
0
20
0
30
0
70
128
71
-15
72
40
73
-41
0
VERTEX
8
OBJECT001
10
0
20
0
30
0
70
128
71
-15
72
41
73
39
0
VERTEX
8
OBJECT001
10
0
20
0
30
0
70
128
71
15
72
39
73
-42
0
VERTEX
8
OBJECT001
10
0
20
0
30
0
70
128
71
-15
72
42
73
16
0
VERTEX
8
OBJECT001
10
0
20
0
30
0
70
128
71
18
72
13
73
-16
0
VERTEX
8
OBJECT001
10
0
20
0
30
0
70
128
71
-18
72
16
73
-42
0
VERTEX
8
OBJECT001
10
0
20
0
30
0
70
128
71
-18
72
42
73
-44
0
VERTEX
8
OBJECT001
10
0
20
0
30
0
70
128
71
-18
72
44
73
-45
0
VERTEX
8
OBJECT001
10
0
20
0
30
0
70
128
71
-18
72
45
73
43
0
VERTEX
8
OBJECT001
10
0
20
0
30
0
70
128
71
19
72
17
73
-18
0
VERTEX
8
OBJECT001
10
0
20
0
30
0
70
128
71
-19
72
18
73
-43
0
VERTEX
8
OBJECT001
10
0
20
0
30
0
70
128
71
-19
72
43
73
46
0
VERTEX
8
OBJECT001
10
0
20
0
30
0
70
128
71
20
72
19
73
-46
0
VERTEX
8
OBJECT001
10
0
20
0
30
0
70
128
71
-20
72
46
73
-48
0
VERTEX
8
OBJECT001
10
0
20
0
30
0
70
128
71
-20
72
48
73
-49
0
VERTEX
8
OBJECT001
10
0
20
0
30
0
70
128
71
-20
72
49
73
47
0
VERTEX
8
OBJECT001
10
0
20
0
30
0
70
128
71
20
72
47
73
-50
0
VERTEX
8
OBJECT001
10
0
20
0
30
0
70
128
71
-20
72
50
73
21
0
VERTEX
8
OBJECT001
10
0
20
0
30
0
70
128
71
22
72
21
73
-50
0
VERTEX
8
OBJECT001
10
0
20
0
30
0
70
128
71
-22
72
50
73
-51
0
VERTEX
8
OBJECT001
10
0
20
0
30
0
70
128
71
-22
72
51
73
-52
0
VERTEX
8
OBJECT001
10
0
20
0
30
0
70
128
71
-22
72
52
73
-53
0
VERTEX
8
OBJECT001
10
0
20
0
30
0
70
128
71
-22
72
53
73
23
0
VERTEX
8
OBJECT001
10
0
20
0
30
0
70
128
71
24
72
23
73
-53
0
VERTEX
8
OBJECT001
10
0
20
0
30
0
70
128
71
-24
72
53
73
-54
0
VERTEX
8
OBJECT001
10
0
20
0
30
0
70
128
71
-24
72
54
73
26
0
VERTEX
8
OBJECT001
10
0
20
0
30
0
70
128
71
27
72
26
73
-54
0
VERTEX
8
OBJECT001
10
0
20
0
30
0
70
128
71
-27
72
54
73
-56
0
VERTEX
8
OBJECT001
10
0
20
0
30
0
70
128
71
-27
72
56
73
-57
0
VERTEX
8
OBJECT001
10
0
20
0
30
0
70
128
71
-27
72
57
73
55
0
VERTEX
8
OBJECT001
10
0
20
0
30
0
70
128
71
27
72
55
73
-58
0
VERTEX
8
OBJECT001
10
0
20
0
30
0
70
128
71
-27
72
58
73
28
0
VERTEX
8
OBJECT001
10
0
20
0
30
0
70
128
71
30
72
25
73
-28
0
VERTEX
8
OBJECT001
10
0
20
0
30
0
70
128
71
-30
72
28
73
-58
0
VERTEX
8
OBJECT001
10
0
20
0
30
0
70
128
71
-30
72
58
73
-60
0
VERTEX
8
OBJECT001
10
0
20
0
30
0
70
128
71
-30
72
60
73
-61
0
VERTEX
8
OBJECT001
10
0
20
0
30
0
70
128
71
-30
72
61
73
59
0
VERTEX
8
OBJECT001
10
0
20
0
30
0
70
128
71
32
72
29
73
-30
0
VERTEX
8
OBJECT001
10
0
20
0
30
0
70
128
71
-32
72
30
73
-59
0
VERTEX
8
OBJECT001
10
0
20
0
30
0
70
128
71
-32
72
59
73
62
0
VERTEX
8
OBJECT001
10
0
20
0
30
0
70
128
71
33
72
32
73
-62
0
VERTEX
8
OBJECT001
10
0
20
0
30
0
70
128
71
-33
72
62
73
-64
0
VERTEX
8
OBJECT001
10
0
20
0
30
0
70
128
71
-33
72
64
73
-65
0
VERTEX
8
OBJECT001
10
0
20
0
30
0
70
128
71
-33
72
65
73
63
0
VERTEX
8
OBJECT001
10
0
20
0
30
0
70
128
71
31
72
33
73
-63
0
VERTEX
8
OBJECT001
10
0
20
0
30
0
70
128
71
-31
72
63
73
35
0
VERTEX
8
OBJECT001
10
0
20
0
30
0
70
128
71
37
72
36
73
-67
0
VERTEX
8
OBJECT001
10
0
20
0
30
0
70
128
71
-37
72
67
73
66
0
VERTEX
8
OBJECT001
10
0
20
0
30
0
70
128
71
40
72
38
73
-34
0
VERTEX
8
OBJECT001
10
0
20
0
30
0
70
128
71
-40
72
34
73
-37
0
VERTEX
8
OBJECT001
10
0
20
0
30
0
70
128
71
-40
72
37
73
-66
0
VERTEX
8
OBJECT001
10
0
20
0
30
0
70
128
71
-40
72
66
73
-69
0
VERTEX
8
OBJECT001
10
0
20
0
30
0
70
128
71
-40
72
69
73
-70
0
VERTEX
8
OBJECT001
10
0
20
0
30
0
70
128
71
-40
72
70
73
68
0
VERTEX
8
OBJECT001
10
0
20
0
30
0
70
128
71
41
72
40
73
-68
0
VERTEX
8
OBJECT001
10
0
20
0
30
0
70
128
71
-41
72
68
73
71
0
VERTEX
8
OBJECT001
10
0
20
0
30
0
70
128
71
44
72
42
73
-39
0
VERTEX
8
OBJECT001
10
0
20
0
30
0
70
128
71
-44
72
39
73
-41
0
VERTEX
8
OBJECT001
10
0
20
0
30
0
70
128
71
-44
72
41
73
-71
0
VERTEX
8
OBJECT001
10
0
20
0
30
0
70
128
71
-44
72
71
73
-73
0
VERTEX
8
OBJECT001
10
0
20
0
30
0
70
128
71
-44
72
73
73
-74
0
VERTEX
8
OBJECT001
10
0
20
0
30
0
70
128
71
-44
72
74
73
72
0
VERTEX
8
OBJECT001
10
0
20
0
30
0
70
128
71
44
72
72
73
-75
0
VERTEX
8
OBJECT001
10
0
20
0
30
0
70
128
71
-44
72
75
73
45
0
VERTEX
8
OBJECT001
10
0
20
0
30
0
70
128
71
48
72
46
73
-43
0
VERTEX
8
OBJECT001
10
0
20
0
30
0
70
128
71
-48
72
43
73
-45
0
VERTEX
8
OBJECT001
10
0
20
0
30
0
70
128
71
-48
72
45
73
-75
0
VERTEX
8
OBJECT001
10
0
20
0
30
0
70
128
71
-48
72
75
73
-77
0
VERTEX
8
OBJECT001
10
0
20
0
30
0
70
128
71
-48
72
77
73
-78
0
VERTEX
8
OBJECT001
10
0
20
0
30
0
70
128
71
-48
72
78
73
76
0
VERTEX
8
OBJECT001
10
0
20
0
30
0
70
128
71
49
72
48
73
-76
0
VERTEX
8
OBJECT001
10
0
20
0
30
0
70
128
71
-49
72
76
73
79
0
VERTEX
8
OBJECT001
10
0
20
0
30
0
70
128
71
50
72
47
73
-49
0
VERTEX
8
OBJECT001
10
0
20
0
30
0
70
128
71
-50
72
49
73
-79
0
VERTEX
8
OBJECT001
10
0
20
0
30
0
70
128
71
-50
72
79
73
-80
0
VERTEX
8
OBJECT001
10
0
20
0
30
0
70
128
71
-50
72
80
73
-81
0
VERTEX
8
OBJECT001
10
0
20
0
30
0
70
128
71
-50
72
81
73
-82
0
VERTEX
8
OBJECT001
10
0
20
0
30
0
70
128
71
-50
72
82
73
51
0
VERTEX
8
OBJECT001
10
0
20
0
30
0
70
128
71
51
72
82
73
-83
0
VERTEX
8
OBJECT001
10
0
20
0
30
0
70
128
71
-51
72
83
73
52
0
VERTEX
8
OBJECT001
10
0
20
0
30
0
70
128
71
54
72
53
73
-52
0
VERTEX
8
OBJECT001
10
0
20
0
30
0
70
128
71
-54
72
52
73
-83
0
VERTEX
8
OBJECT001
10
0
20
0
30
0
70
128
71
-54
72
83
73
-84
0
VERTEX
8
OBJECT001
10
0
20
0
30
0
70
128
71
-54
72
84
73
-85
0
VERTEX
8
OBJECT001
10
0
20
0
30
0
70
128
71
-54
72
85
73
-86
0
VERTEX
8
OBJECT001
10
0
20
0
30
0
70
128
71
-54
72
86
73
56
0
VERTEX
8
OBJECT001
10
0
20
0
30
0
70
128
71
57
72
56
73
-86
0
VERTEX
8
OBJECT001
10
0
20
0
30
0
70
128
71
-57
72
86
73
87
0
VERTEX
8
OBJECT001
10
0
20
0
30
0
70
128
71
60
72
58
73
-55
0
VERTEX
8
OBJECT001
10
0
20
0
30
0
70
128
71
-60
72
55
73
-57
0
VERTEX
8
OBJECT001
10
0
20
0
30
0
70
128
71
-60
72
57
73
-87
0
VERTEX
8
OBJECT001
10
0
20
0
30
0
70
128
71
-60
72
87
73
-89
0
VERTEX
8
OBJECT001
10
0
20
0
30
0
70
128
71
-60
72
89
73
-90
0
VERTEX
8
OBJECT001
10
0
20
0
30
0
70
128
71
-60
72
90
73
88
0
VERTEX
8
OBJECT001
10
0
20
0
30
0
70
128
71
60
72
88
73
-91
0
VERTEX
8
OBJECT001
10
0
20
0
30
0
70
128
71
-60
72
91
73
61
0
VERTEX
8
OBJECT001
10
0
20
0
30
0
70
128
71
64
72
62
73
-59
0
VERTEX
8
OBJECT001
10
0
20
0
30
0
70
128
71
-64
72
59
73
-61
0
VERTEX
8
OBJECT001
10
0
20
0
30
0
70
128
71
-64
72
61
73
-91
0
VERTEX
8
OBJECT001
10
0
20
0
30
0
70
128
71
-64
72
91
73
-93
0
VERTEX
8
OBJECT001
10
0
20
0
30
0
70
128
71
-64
72
93
73
-94
0
VERTEX
8
OBJECT001
10
0
20
0
30
0
70
128
71
-64
72
94
73
92
0
VERTEX
8
OBJECT001
10
0
20
0
30
0
70
128
71
65
72
64
73
-92
0
VERTEX
8
OBJECT001
10
0
20
0
30
0
70
128
71
-65
72
92
73
95
0
VERTEX
8
OBJECT001
10
0
20
0
30
0
70
128
71
36
72
35
73
-63
0
VERTEX
8
OBJECT001
10
0
20
0
30
0
70
128
71
-36
72
63
73
-65
0
VERTEX
8
OBJECT001
10
0
20
0
30
0
70
128
71
-36
72
65
73
-95
0
VERTEX
8
OBJECT001
10
0
20
0
30
0
70
128
71
-36
72
95
73
-96
0
VERTEX
8
OBJECT001
10
0
20
0
30
0
70
128
71
-36
72
96
73
-97
0
VERTEX
8
OBJECT001
10
0
20
0
30
0
70
128
71
-36
72
97
73
67
0
VERTEX
8
OBJECT001
10
0
20
0
30
0
70
128
71
69
72
66
73
-67
0
VERTEX
8
OBJECT001
10
0
20
0
30
0
70
128
71
-69
72
67
73
-97
0
VERTEX
8
OBJECT001
10
0
20
0
30
0
70
128
71
-69
72
97
73
-99
0
VERTEX
8
OBJECT001
10
0
20
0
30
0
70
128
71
-69
72
99
73
-100
0
VERTEX
8
OBJECT001
10
0
20
0
30
0
70
128
71
-69
72
100
73
-101
0
VERTEX
8
OBJECT001
10
0
20
0
30
0
70
128
71
-69
72
101
73
98
0
VERTEX
8
OBJECT001
10
0
20
0
30
0
70
128
71
70
72
69
73
-98
0
VERTEX
8
OBJECT001
10
0
20
0
30
0
70
128
71
-70
72
98
73
-103
0
VERTEX
8
OBJECT001
10
0
20
0
30
0
70
128
71
-70
72
103
73
102
0
VERTEX
8
OBJECT001
10
0
20
0
30
0
70
128
71
73
72
71
73
-68
0
VERTEX
8
OBJECT001
10
0
20
0
30
0
70
128
71
-73
72
68
73
-70
0
VERTEX
8
OBJECT001
10
0
20
0
30
0
70
128
71
-73
72
70
73
-102
0
VERTEX
8
OBJECT001
10
0
20
0
30
0
70
128
71
-73
72
102
73
104
0
VERTEX
8
OBJECT001
10
0
20
0
30
0
70
128
71
74
72
73
73
-104
0
VERTEX
8
OBJECT001
10
0
20
0
30
0
70
128
71
-74
72
104
73
-106
0
VERTEX
8
OBJECT001
10
0
20
0
30
0
70
128
71
-74
72
106
73
105
0
VERTEX
8
OBJECT001
10
0
20
0
30
0
70
128
71
77
72
75
73
-72
0
VERTEX
8
OBJECT001
10
0
20
0
30
0
70
128
71
-77
72
72
73
-74
0
VERTEX
8
OBJECT001
10
0
20
0
30
0
70
128
71
-77
72
74
73
-105
0
VERTEX
8
OBJECT001
10
0
20
0
30
0
70
128
71
-77
72
105
73
-108
0
VERTEX
8
OBJECT001
10
0
20
0
30
0
70
128
71
-77
72
108
73
-109
0
VERTEX
8
OBJECT001
10
0
20
0
30
0
70
128
71
-77
72
109
73
107
0
VERTEX
8
OBJECT001
10
0
20
0
30
0
70
128
71
78
72
77
73
-107
0
VERTEX
8
OBJECT001
10
0
20
0
30
0
70
128
71
-78
72
107
73
-111
0
VERTEX
8
OBJECT001
10
0
20
0
30
0
70
128
71
-78
72
111
73
110
0
VERTEX
8
OBJECT001
10
0
20
0
30
0
70
128
71
80
72
79
73
-76
0
VERTEX
8
OBJECT001
10
0
20
0
30
0
70
128
71
-80
72
76
73
-78
0
VERTEX
8
OBJECT001
10
0
20
0
30
0
70
128
71
-80
72
78
73
-110
0
VERTEX
8
OBJECT001
10
0
20
0
30
0
70
128
71
-80
72
110
73
112
0
VERTEX
8
OBJECT001
10
0
20
0
30
0
70
128
71
81
72
80
73
-112
0
VERTEX
8
OBJECT001
10
0
20
0
30
0
70
128
71
-81
72
112
73
-114
0
VERTEX
8
OBJECT001
10
0
20
0
30
0
70
128
71
-81
72
114
73
113
0
VERTEX
8
OBJECT001
10
0
20
0
30
0
70
128
71
84
72
83
73
-82
0
VERTEX
8
OBJECT001
10
0
20
0
30
0
70
128
71
-84
72
82
73
-81
0
VERTEX
8
OBJECT001
10
0
20
0
30
0
70
128
71
-84
72
81
73
-113
0
VERTEX
8
OBJECT001
10
0
20
0
30
0
70
128
71
-84
72
113
73
-116
0
VERTEX
8
OBJECT001
10
0
20
0
30
0
70
128
71
-84
72
116
73
-117
0
VERTEX
8
OBJECT001
10
0
20
0
30
0
70
128
71
-84
72
117
73
115
0
VERTEX
8
OBJECT001
10
0
20
0
30
0
70
128
71
84
72
115
73
-118
0
VERTEX
8
OBJECT001
10
0
20
0
30
0
70
128
71
-84
72
118
73
-119
0
VERTEX
8
OBJECT001
10
0
20
0
30
0
70
128
71
-84
72
119
73
85
0
VERTEX
8
OBJECT001
10
0
20
0
30
0
70
128
71
89
72
87
73
-86
0
VERTEX
8
OBJECT001
10
0
20
0
30
0
70
128
71
-89
72
86
73
-85
0
VERTEX
8
OBJECT001
10
0
20
0
30
0
70
128
71
-89
72
85
73
-119
0
VERTEX
8
OBJECT001
10
0
20
0
30
0
70
128
71
-89
72
119
73
120
0
VERTEX
8
OBJECT001
10
0
20
0
30
0
70
128
71
90
72
89
73
-120
0
VERTEX
8
OBJECT001
10
0
20
0
30
0
70
128
71
-90
72
120
73
-122
0
VERTEX
8
OBJECT001
10
0
20
0
30
0
70
128
71
-90
72
122
73
121
0
VERTEX
8
OBJECT001
10
0
20
0
30
0
70
128
71
93
72
91
73
-88
0
VERTEX
8
OBJECT001
10
0
20
0
30
0
70
128
71
-93
72
88
73
-90
0
VERTEX
8
OBJECT001
10
0
20
0
30
0
70
128
71
-93
72
90
73
-121
0
VERTEX
8
OBJECT001
10
0
20
0
30
0
70
128
71
-93
72
121
73
-124
0
VERTEX
8
OBJECT001
10
0
20
0
30
0
70
128
71
-93
72
124
73
-125
0
VERTEX
8
OBJECT001
10
0
20
0
30
0
70
128
71
-93
72
125
73
123
0
VERTEX
8
OBJECT001
10
0
20
0
30
0
70
128
71
94
72
93
73
-123
0
VERTEX
8
OBJECT001
10
0
20
0
30
0
70
128
71
-94
72
123
73
-127
0
VERTEX
8
OBJECT001
10
0
20
0
30
0
70
128
71
-94
72
127
73
126
0
VERTEX
8
OBJECT001
10
0
20
0
30
0
70
128
71
96
72
95
73
-92
0
VERTEX
8
OBJECT001
10
0
20
0
30
0
70
128
71
-96
72
92
73
-94
0
VERTEX
8
OBJECT001
10
0
20
0
30
0
70
128
71
-96
72
94
73
-126
0
VERTEX
8
OBJECT001
10
0
20
0
30
0
70
128
71
-96
72
126
73
128
0
VERTEX
8
OBJECT001
10
0
20
0
30
0
70
128
71
97
72
96
73
-128
0
VERTEX
8
OBJECT001
10
0
20
0
30
0
70
128
71
-97
72
128
73
-129
0
VERTEX
8
OBJECT001
10
0
20
0
30
0
70
128
71
-97
72
129
73
99
0
VERTEX
8
OBJECT001
10
0
20
0
30
0
70
128
71
101
72
100
73
-131
0
VERTEX
8
OBJECT001
10
0
20
0
30
0
70
128
71
-101
72
131
73
130
0
VERTEX
8
OBJECT001
10
0
20
0
30
0
70
128
71
103
72
98
73
-101
0
VERTEX
8
OBJECT001
10
0
20
0
30
0
70
128
71
-103
72
101
73
-130
0
VERTEX
8
OBJECT001
10
0
20
0
30
0
70
128
71
-103
72
130
73
-133
0
VERTEX
8
OBJECT001
10
0
20
0
30
0
70
128
71
-103
72
133
73
132
0
VERTEX
8
OBJECT001
10
0
20
0
30
0
70
128
71
106
72
104
73
-102
0
VERTEX
8
OBJECT001
10
0
20
0
30
0
70
128
71
-106
72
102
73
-103
0
VERTEX
8
OBJECT001
10
0
20
0
30
0
70
128
71
-106
72
103
73
-132
0
VERTEX
8
OBJECT001
10
0
20
0
30
0
70
128
71
-106
72
132
73
-135
0
VERTEX
8
OBJECT001
10
0
20
0
30
0
70
128
71
-106
72
135
73
-136
0
VERTEX
8
OBJECT001
10
0
20
0
30
0
70
128
71
-106
72
136
73
-137
0
VERTEX
8
OBJECT001
10
0
20
0
30
0
70
128
71
-106
72
137
73
134
0
VERTEX
8
OBJECT001
10
0
20
0
30
0
70
128
71
108
72
105
73
-106
0
VERTEX
8
OBJECT001
10
0
20
0
30
0
70
128
71
-108
72
106
73
-134
0
VERTEX
8
OBJECT001
10
0
20
0
30
0
70
128
71
-108
72
134
73
-139
0
VERTEX
8
OBJECT001
10
0
20
0
30
0
70
128
71
-108
72
139
73
138
0
VERTEX
8
OBJECT001
10
0
20
0
30
0
70
128
71
108
72
138
73
-140
0
VERTEX
8
OBJECT001
10
0
20
0
30
0
70
128
71
-108
72
140
73
109
0
VERTEX
8
OBJECT001
10
0
20
0
30
0
70
128
71
111
72
107
73
-109
0
VERTEX
8
OBJECT001
10
0
20
0
30
0
70
128
71
-111
72
109
73
-140
0
VERTEX
8
OBJECT001
10
0
20
0
30
0
70
128
71
-111
72
140
73
-142
0
VERTEX
8
OBJECT001
10
0
20
0
30
0
70
128
71
-111
72
142
73
141
0
VERTEX
8
OBJECT001
10
0
20
0
30
0
70
128
71
114
72
112
73
-110
0
VERTEX
8
OBJECT001
10
0
20
0
30
0
70
128
71
-114
72
110
73
-111
0
VERTEX
8
OBJECT001
10
0
20
0
30
0
70
128
71
-114
72
111
73
-141
0
VERTEX
8
OBJECT001
10
0
20
0
30
0
70
128
71
-114
72
141
73
-144
0
VERTEX
8
OBJECT001
10
0
20
0
30
0
70
128
71
-114
72
144
73
-145
0
VERTEX
8
OBJECT001
10
0
20
0
30
0
70
128
71
-114
72
145
73
-146
0
VERTEX
8
OBJECT001
10
0
20
0
30
0
70
128
71
-114
72
146
73
143
0
VERTEX
8
OBJECT001
10
0
20
0
30
0
70
128
71
116
72
113
73
-114
0
VERTEX
8
OBJECT001
10
0
20
0
30
0
70
128
71
-116
72
114
73
-143
0
VERTEX
8
OBJECT001
10
0
20
0
30
0
70
128
71
-116
72
143
73
-148
0
VERTEX
8
OBJECT001
10
0
20
0
30
0
70
128
71
-116
72
148
73
147
0
VERTEX
8
OBJECT001
10
0
20
0
30
0
70
128
71
116
72
147
73
-149
0
VERTEX
8
OBJECT001
10
0
20
0
30
0
70
128
71
-116
72
149
73
117
0
VERTEX
8
OBJECT001
10
0
20
0
30
0
70
128
71
118
72
115
73
-117
0
VERTEX
8
OBJECT001
10
0
20
0
30
0
70
128
71
-118
72
117
73
-149
0
VERTEX
8
OBJECT001
10
0
20
0
30
0
70
128
71
-118
72
149
73
-151
0
VERTEX
8
OBJECT001
10
0
20
0
30
0
70
128
71
-118
72
151
73
150
0
VERTEX
8
OBJECT001
10
0
20
0
30
0
70
128
71
122
72
120
73
-119
0
VERTEX
8
OBJECT001
10
0
20
0
30
0
70
128
71
-122
72
119
73
-118
0
VERTEX
8
OBJECT001
10
0
20
0
30
0
70
128
71
-122
72
118
73
-150
0
VERTEX
8
OBJECT001
10
0
20
0
30
0
70
128
71
-122
72
150
73
-153
0
VERTEX
8
OBJECT001
10
0
20
0
30
0
70
128
71
-122
72
153
73
-154
0
VERTEX
8
OBJECT001
10
0
20
0
30
0
70
128
71
-122
72
154
73
-155
0
VERTEX
8
OBJECT001
10
0
20
0
30
0
70
128
71
-122
72
155
73
152
0
VERTEX
8
OBJECT001
10
0
20
0
30
0
70
128
71
124
72
121
73
-122
0
VERTEX
8
OBJECT001
10
0
20
0
30
0
70
128
71
-124
72
122
73
-152
0
VERTEX
8
OBJECT001
10
0
20
0
30
0
70
128
71
-124
72
152
73
-157
0
VERTEX
8
OBJECT001
10
0
20
0
30
0
70
128
71
-124
72
157
73
156
0
VERTEX
8
OBJECT001
10
0
20
0
30
0
70
128
71
124
72
156
73
-158
0
VERTEX
8
OBJECT001
10
0
20
0
30
0
70
128
71
-124
72
158
73
125
0
VERTEX
8
OBJECT001
10
0
20
0
30
0
70
128
71
127
72
123
73
-125
0
VERTEX
8
OBJECT001
10
0
20
0
30
0
70
128
71
-127
72
125
73
-158
0
VERTEX
8
OBJECT001
10
0
20
0
30
0
70
128
71
-127
72
158
73
-160
0
VERTEX
8
OBJECT001
10
0
20
0
30
0
70
128
71
-127
72
160
73
159
0
VERTEX
8
OBJECT001
10
0
20
0
30
0
70
128
71
129
72
128
73
-126
0
VERTEX
8
OBJECT001
10
0
20
0
30
0
70
128
71
-129
72
126
73
-127
0
VERTEX
8
OBJECT001
10
0
20
0
30
0
70
128
71
-129
72
127
73
-159
0
VERTEX
8
OBJECT001
10
0
20
0
30
0
70
128
71
-129
72
159
73
-162
0
VERTEX
8
OBJECT001
10
0
20
0
30
0
70
128
71
-129
72
162
73
-163
0
VERTEX
8
OBJECT001
10
0
20
0
30
0
70
128
71
-129
72
163
73
-164
0
VERTEX
8
OBJECT001
10
0
20
0
30
0
70
128
71
-129
72
164
73
161
0
VERTEX
8
OBJECT001
10
0
20
0
30
0
70
128
71
100
72
99
73
-129
0
VERTEX
8
OBJECT001
10
0
20
0
30
0
70
128
71
-100
72
129
73
-161
0
VERTEX
8
OBJECT001
10
0
20
0
30
0
70
128
71
-100
72
161
73
-165
0
VERTEX
8
OBJECT001
10
0
20
0
30
0
70
128
71
-100
72
165
73
131
0
VERTEX
8
OBJECT001
10
0
20
0
30
0
70
128
71
133
72
130
73
-131
0
VERTEX
8
OBJECT001
10
0
20
0
30
0
70
128
71
-133
72
131
73
-165
0
VERTEX
8
OBJECT001
10
0
20
0
30
0
70
128
71
-133
72
165
73
-167
0
VERTEX
8
OBJECT001
10
0
20
0
30
0
70
128
71
-133
72
167
73
-168
0
VERTEX
8
OBJECT001
10
0
20
0
30
0
70
128
71
-133
72
168
73
-169
0
VERTEX
8
OBJECT001
10
0
20
0
30
0
70
128
71
-133
72
169
73
166
0
VERTEX
8
OBJECT001
10
0
20
0
30
0
70
128
71
135
72
132
73
-133
0
VERTEX
8
OBJECT001
10
0
20
0
30
0
70
128
71
-135
72
133
73
-166
0
VERTEX
8
OBJECT001
10
0
20
0
30
0
70
128
71
-135
72
166
73
-171
0
VERTEX
8
OBJECT001
10
0
20
0
30
0
70
128
71
-135
72
171
73
-172
0
VERTEX
8
OBJECT001
10
0
20
0
30
0
70
128
71
-135
72
172
73
170
0
VERTEX
8
OBJECT001
10
0
20
0
30
0
70
128
71
135
72
170
73
136
0
VERTEX
8
OBJECT001
10
0
20
0
30
0
70
128
71
139
72
134
73
-137
0
VERTEX
8
OBJECT001
10
0
20
0
30
0
70
128
71
-139
72
137
73
-174
0
VERTEX
8
OBJECT001
10
0
20
0
30
0
70
128
71
-139
72
174
73
173
0
VERTEX
8
OBJECT001
10
0
20
0
30
0
70
128
71
142
72
140
73
-138
0
VERTEX
8
OBJECT001
10
0
20
0
30
0
70
128
71
-142
72
138
73
-139
0
VERTEX
8
OBJECT001
10
0
20
0
30
0
70
128
71
-142
72
139
73
-173
0
VERTEX
8
OBJECT001
10
0
20
0
30
0
70
128
71
-142
72
173
73
-176
0
VERTEX
8
OBJECT001
10
0
20
0
30
0
70
128
71
-142
72
176
73
-177
0
VERTEX
8
OBJECT001
10
0
20
0
30
0
70
128
71
-142
72
177
73
175
0
VERTEX
8
OBJECT001
10
0
20
0
30
0
70
128
71
144
72
141
73
-142
0
VERTEX
8
OBJECT001
10
0
20
0
30
0
70
128
71
-144
72
142
73
-175
0
VERTEX
8
OBJECT001
10
0
20
0
30
0
70
128
71
-144
72
175
73
-179
0
VERTEX
8
OBJECT001
10
0
20
0
30
0
70
128
71
-144
72
179
73
-180
0
VERTEX
8
OBJECT001
10
0
20
0
30
0
70
128
71
-144
72
180
73
178
0
VERTEX
8
OBJECT001
10
0
20
0
30
0
70
128
71
182
72
178
73
181
0
VERTEX
8
OBJECT001
10
0
20
0
30
0
70
128
71
148
72
143
73
-146
0
VERTEX
8
OBJECT001
10
0
20
0
30
0
70
128
71
-148
72
146
73
-184
0
VERTEX
8
OBJECT001
10
0
20
0
30
0
70
128
71
-148
72
184
73
183
0
VERTEX
8
OBJECT001
10
0
20
0
30
0
70
128
71
151
72
149
73
-147
0
VERTEX
8
OBJECT001
10
0
20
0
30
0
70
128
71
-151
72
147
73
-148
0
VERTEX
8
OBJECT001
10
0
20
0
30
0
70
128
71
-151
72
148
73
-183
0
VERTEX
8
OBJECT001
10
0
20
0
30
0
70
128
71
-151
72
183
73
-186
0
VERTEX
8
OBJECT001
10
0
20
0
30
0
70
128
71
-151
72
186
73
-187
0
VERTEX
8
OBJECT001
10
0
20
0
30
0
70
128
71
-151
72
187
73
185
0
VERTEX
8
OBJECT001
10
0
20
0
30
0
70
128
71
153
72
150
73
-151
0
VERTEX
8
OBJECT001
10
0
20
0
30
0
70
128
71
-153
72
151
73
-185
0
VERTEX
8
OBJECT001
10
0
20
0
30
0
70
128
71
-153
72
185
73
-189
0
VERTEX
8
OBJECT001
10
0
20
0
30
0
70
128
71
-153
72
189
73
-190
0
VERTEX
8
OBJECT001
10
0
20
0
30
0
70
128
71
-153
72
190
73
188
0
VERTEX
8
OBJECT001
10
0
20
0
30
0
70
128
71
153
72
188
73
154
0
VERTEX
8
OBJECT001
10
0
20
0
30
0
70
128
71
157
72
152
73
-155
0
VERTEX
8
OBJECT001
10
0
20
0
30
0
70
128
71
-157
72
155
73
-192
0
VERTEX
8
OBJECT001
10
0
20
0
30
0
70
128
71
-157
72
192
73
191
0
VERTEX
8
OBJECT001
10
0
20
0
30
0
70
128
71
160
72
158
73
-156
0
VERTEX
8
OBJECT001
10
0
20
0
30
0
70
128
71
-160
72
156
73
-157
0
VERTEX
8
OBJECT001
10
0
20
0
30
0
70
128
71
-160
72
157
73
-191
0
VERTEX
8
OBJECT001
10
0
20
0
30
0
70
128
71
-160
72
191
73
-194
0
VERTEX
8
OBJECT001
10
0
20
0
30
0
70
128
71
-160
72
194
73
-195
0
VERTEX
8
OBJECT001
10
0
20
0
30
0
70
128
71
-160
72
195
73
193
0
VERTEX
8
OBJECT001
10
0
20
0
30
0
70
128
71
162
72
159
73
-160
0
VERTEX
8
OBJECT001
10
0
20
0
30
0
70
128
71
-162
72
160
73
-193
0
VERTEX
8
OBJECT001
10
0
20
0
30
0
70
128
71
-162
72
193
73
-197
0
VERTEX
8
OBJECT001
10
0
20
0
30
0
70
128
71
-162
72
197
73
196
0
VERTEX
8
OBJECT001
10
0
20
0
30
0
70
128
71
199
72
196
73
198
0
VERTEX
8
OBJECT001
10
0
20
0
30
0
70
128
71
165
72
161
73
-164
0
VERTEX
8
OBJECT001
10
0
20
0
30
0
70
128
71
-165
72
164
73
-200
0
VERTEX
8
OBJECT001
10
0
20
0
30
0
70
128
71
-165
72
200
73
167
0
VERTEX
8
OBJECT001
10
0
20
0
30
0
70
128
71
169
72
168
73
-202
0
VERTEX
8
OBJECT001
10
0
20
0
30
0
70
128
71
-169
72
202
73
201
0
VERTEX
8
OBJECT001
10
0
20
0
30
0
70
128
71
166
72
169
73
-201
0
VERTEX
8
OBJECT001
10
0
20
0
30
0
70
128
71
-166
72
201
73
-203
0
VERTEX
8
OBJECT001
10
0
20
0
30
0
70
128
71
-166
72
203
73
171
0
VERTEX
8
OBJECT001
10
0
20
0
30
0
70
128
71
174
72
137
73
-136
0
VERTEX
8
OBJECT001
10
0
20
0
30
0
70
128
71
-174
72
136
73
-170
0
VERTEX
8
OBJECT001
10
0
20
0
30
0
70
128
71
-174
72
170
73
-172
0
VERTEX
8
OBJECT001
10
0
20
0
30
0
70
128
71
-174
72
172
73
-205
0
VERTEX
8
OBJECT001
10
0
20
0
30
0
70
128
71
-174
72
205
73
204
0
VERTEX
8
OBJECT001
10
0
20
0
30
0
70
128
71
173
72
174
73
-204
0
VERTEX
8
OBJECT001
10
0
20
0
30
0
70
128
71
-173
72
204
73
-206
0
VERTEX
8
OBJECT001
10
0
20
0
30
0
70
128
71
-173
72
206
73
176
0
VERTEX
8
OBJECT001
10
0
20
0
30
0
70
128
71
176
72
206
73
-207
0
VERTEX
8
OBJECT001
10
0
20
0
30
0
70
128
71
-176
72
207
73
177
0
VERTEX
8
OBJECT001
10
0
20
0
30
0
70
128
71
175
72
177
73
-207
0
VERTEX
8
OBJECT001
10
0
20
0
30
0
70
128
71
-175
72
207
73
-208
0
VERTEX
8
OBJECT001
10
0
20
0
30
0
70
128
71
-175
72
208
73
179
0
VERTEX
8
OBJECT001
10
0
20
0
30
0
70
128
71
184
72
146
73
-145
0
VERTEX
8
OBJECT001
10
0
20
0
30
0
70
128
71
-184
72
145
73
-178
0
VERTEX
8
OBJECT001
10
0
20
0
30
0
70
128
71
-184
72
178
73
-180
0
VERTEX
8
OBJECT001
10
0
20
0
30
0
70
128
71
-184
72
180
73
-210
0
VERTEX
8
OBJECT001
10
0
20
0
30
0
70
128
71
-184
72
210
73
209
0
VERTEX
8
OBJECT001
10
0
20
0
30
0
70
128
71
183
72
184
73
-209
0
VERTEX
8
OBJECT001
10
0
20
0
30
0
70
128
71
-183
72
209
73
-211
0
VERTEX
8
OBJECT001
10
0
20
0
30
0
70
128
71
-183
72
211
73
186
0
VERTEX
8
OBJECT001
10
0
20
0
30
0
70
128
71
186
72
211
73
-212
0
VERTEX
8
OBJECT001
10
0
20
0
30
0
70
128
71
-186
72
212
73
187
0
VERTEX
8
OBJECT001
10
0
20
0
30
0
70
128
71
185
72
187
73
-212
0
VERTEX
8
OBJECT001
10
0
20
0
30
0
70
128
71
-185
72
212
73
-213
0
VERTEX
8
OBJECT001
10
0
20
0
30
0
70
128
71
-185
72
213
73
-214
0
VERTEX
8
OBJECT001
10
0
20
0
30
0
70
128
71
-185
72
214
73
189
0
VERTEX
8
OBJECT001
10
0
20
0
30
0
70
128
71
192
72
155
73
-154
0
VERTEX
8
OBJECT001
10
0
20
0
30
0
70
128
71
-192
72
154
73
-188
0
VERTEX
8
OBJECT001
10
0
20
0
30
0
70
128
71
-192
72
188
73
-190
0
VERTEX
8
OBJECT001
10
0
20
0
30
0
70
128
71
-192
72
190
73
-216
0
VERTEX
8
OBJECT001
10
0
20
0
30
0
70
128
71
-192
72
216
73
215
0
VERTEX
8
OBJECT001
10
0
20
0
30
0
70
128
71
191
72
192
73
-215
0
VERTEX
8
OBJECT001
10
0
20
0
30
0
70
128
71
-191
72
215
73
-217
0
VERTEX
8
OBJECT001
10
0
20
0
30
0
70
128
71
-191
72
217
73
194
0
VERTEX
8
OBJECT001
10
0
20
0
30
0
70
128
71
194
72
217
73
-218
0
VERTEX
8
OBJECT001
10
0
20
0
30
0
70
128
71
-194
72
218
73
195
0
VERTEX
8
OBJECT001
10
0
20
0
30
0
70
128
71
193
72
195
73
-218
0
VERTEX
8
OBJECT001
10
0
20
0
30
0
70
128
71
-193
72
218
73
-219
0
VERTEX
8
OBJECT001
10
0
20
0
30
0
70
128
71
-193
72
219
73
197
0
VERTEX
8
OBJECT001
10
0
20
0
30
0
70
128
71
200
72
164
73
-198
0
VERTEX
8
OBJECT001
10
0
20
0
30
0
70
128
71
-200
72
198
73
-196
0
VERTEX
8
OBJECT001
10
0
20
0
30
0
70
128
71
-200
72
196
73
-197
0
VERTEX
8
OBJECT001
10
0
20
0
30
0
70
128
71
-200
72
197
73
-221
0
VERTEX
8
OBJECT001
10
0
20
0
30
0
70
128
71
-200
72
221
73
-222
0
VERTEX
8
OBJECT001
10
0
20
0
30
0
70
128
71
-200
72
222
73
220
0
VERTEX
8
OBJECT001
10
0
20
0
30
0
70
128
71
168
72
167
73
-200
0
VERTEX
8
OBJECT001
10
0
20
0
30
0
70
128
71
-168
72
200
73
-220
0
VERTEX
8
OBJECT001
10
0
20
0
30
0
70
128
71
-168
72
220
73
202
0
VERTEX
8
OBJECT001
10
0
20
0
30
0
70
128
71
203
72
201
73
223
0
VERTEX
8
OBJECT001
10
0
20
0
30
0
70
128
71
172
72
171
73
-203
0
VERTEX
8
OBJECT001
10
0
20
0
30
0
70
128
71
-172
72
203
73
-223
0
VERTEX
8
OBJECT001
10
0
20
0
30
0
70
128
71
-172
72
223
73
205
0
VERTEX
8
OBJECT001
10
0
20
0
30
0
70
128
71
208
72
207
73
224
0
VERTEX
8
OBJECT001
10
0
20
0
30
0
70
128
71
180
72
179
73
-208
0
VERTEX
8
OBJECT001
10
0
20
0
30
0
70
128
71
-180
72
208
73
-224
0
VERTEX
8
OBJECT001
10
0
20
0
30
0
70
128
71
-180
72
224
73
210
0
VERTEX
8
OBJECT001
10
0
20
0
30
0
70
128
71
214
72
213
73
225
0
VERTEX
8
OBJECT001
10
0
20
0
30
0
70
128
71
190
72
189
73
-214
0
VERTEX
8
OBJECT001
10
0
20
0
30
0
70
128
71
-190
72
214
73
-225
0
VERTEX
8
OBJECT001
10
0
20
0
30
0
70
128
71
-190
72
225
73
216
0
VERTEX
8
OBJECT001
10
0
20
0
30
0
70
128
71
221
72
219
73
-218
0
VERTEX
8
OBJECT001
10
0
20
0
30
0
70
128
71
-221
72
218
73
222
0
VERTEX
8
OBJECT001
10
0
20
0
30
0
70
128
71
219
72
226
73
197
0
VERTEX
8
OBJECT001
10
0
20
0
30
0
70
128
71
211
72
209
73
-210
0
VERTEX
8
OBJECT001
10
0
20
0
30
0
70
128
71
-211
72
210
73
-224
0
VERTEX
8
OBJECT001
10
0
20
0
30
0
70
128
71
-211
72
224
73
-207
0
VERTEX
8
OBJECT001
10
0
20
0
30
0
70
128
71
-211
72
207
73
-206
0
VERTEX
8
OBJECT001
10
0
20
0
30
0
70
128
71
-211
72
206
73
-204
0
VERTEX
8
OBJECT001
10
0
20
0
30
0
70
128
71
-211
72
204
73
-223
0
VERTEX
8
OBJECT001
10
0
20
0
30
0
70
128
71
-211
72
223
73
-201
0
VERTEX
8
OBJECT001
10
0
20
0
30
0
70
128
71
-211
72
201
73
-202
0
VERTEX
8
OBJECT001
10
0
20
0
30
0
70
128
71
-211
72
202
73
-220
0
VERTEX
8
OBJECT001
10
0
20
0
30
0
70
128
71
-211
72
220
73
-222
0
VERTEX
8
OBJECT001
10
0
20
0
30
0
70
128
71
-211
72
222
73
-218
0
VERTEX
8
OBJECT001
10
0
20
0
30
0
70
128
71
-211
72
218
73
-217
0
VERTEX
8
OBJECT001
10
0
20
0
30
0
70
128
71
-211
72
217
73
-215
0
VERTEX
8
OBJECT001
10
0
20
0
30
0
70
128
71
-211
72
215
73
-216
0
VERTEX
8
OBJECT001
10
0
20
0
30
0
70
128
71
-211
72
216
73
-225
0
VERTEX
8
OBJECT001
10
0
20
0
30
0
70
128
71
-211
72
225
73
-213
0
VERTEX
8
OBJECT001
10
0
20
0
30
0
70
128
71
-211
72
213
73
212
0
SEQEND
8
OBJECT001
0
POLYLINE
8
OBJECT002
66
1
70
64
71
64
72
124
62
50
0
VERTEX
8
OBJECT002
10
28.000000
20
28.000000
30
-80.000000
70
192
0
VERTEX
8
OBJECT002
10
22.000000
20
33.000000
30
-80.000000
70
192
0
VERTEX
8
OBJECT002
10
15.000000
20
37.000000
30
-80.000000
70
192
0
VERTEX
8
OBJECT002
10
8.000000
20
39.000000
30
-80.000000
70
192
0
VERTEX
8
OBJECT002
10
0.000000
20
40.000000
30
-80.000000
70
192
0
VERTEX
8
OBJECT002
10
-8.000000
20
39.000000
30
-80.000000
70
192
0
VERTEX
8
OBJECT002
10
-15.000000
20
37.000000
30
-80.000000
70
192
0
VERTEX
8
OBJECT002
10
-22.000000
20
33.000000
30
-80.000000
70
192
0
VERTEX
8
OBJECT002
10
-28.000000
20
28.000000
30
-80.000000
70
192
0
VERTEX
8
OBJECT002
10
-33.000000
20
22.000000
30
-80.000000
70
192
0
VERTEX
8
OBJECT002
10
-37.000000
20
15.000000
30
-80.000000
70
192
0
VERTEX
8
OBJECT002
10
-39.000000
20
8.000000
30
-80.000000
70
192
0
VERTEX
8
OBJECT002
10
-40.000000
20
0.000000
30
-80.000000
70
192
0
VERTEX
8
OBJECT002
10
-39.000000
20
-8.000000
30
-80.000000
70
192
0
VERTEX
8
OBJECT002
10
-37.000000
20
-15.000000
30
-80.000000
70
192
0
VERTEX
8
OBJECT002
10
-33.000000
20
-22.000000
30
-80.000000
70
192
0
VERTEX
8
OBJECT002
10
-28.000000
20
-28.000000
30
-80.000000
70
192
0
VERTEX
8
OBJECT002
10
-22.000000
20
-33.000000
30
-80.000000
70
192
0
VERTEX
8
OBJECT002
10
-15.000000
20
-37.000000
30
-80.000000
70
192
0
VERTEX
8
OBJECT002
10
-8.000000
20
-39.000000
30
-80.000000
70
192
0
VERTEX
8
OBJECT002
10
0.000000
20
-40.000000
30
-80.000000
70
192
0
VERTEX
8
OBJECT002
10
8.000000
20
-39.000000
30
-80.000000
70
192
0
VERTEX
8
OBJECT002
10
15.000000
20
-37.000000
30
-80.000000
70
192
0
VERTEX
8
OBJECT002
10
22.000000
20
-33.000000
30
-80.000000
70
192
0
VERTEX
8
OBJECT002
10
28.000000
20
-28.000000
30
-80.000000
70
192
0
VERTEX
8
OBJECT002
10
33.000000
20
-22.000000
30
-80.000000
70
192
0
VERTEX
8
OBJECT002
10
37.000000
20
-15.000000
30
-80.000000
70
192
0
VERTEX
8
OBJECT002
10
39.000000
20
-8.000000
30
-80.000000
70
192
0
VERTEX
8
OBJECT002
10
40.000000
20
0.000000
30
-80.000000
70
192
0
VERTEX
8
OBJECT002
10
39.000000
20
8.000000
30
-80.000000
70
192
0
VERTEX
8
OBJECT002
10
37.000000
20
15.000000
30
-80.000000
70
192
0
VERTEX
8
OBJECT002
10
33.000000
20
22.000000
30
-80.000000
70
192
0
VERTEX
8
OBJECT002
10
0.000000
20
40.000000
30
-68.244896
70
192
0
VERTEX
8
OBJECT002
10
8.000000
20
39.000000
30
-68.244896
70
192
0
VERTEX
8
OBJECT002
10
15.000000
20
37.000000
30
-68.244896
70
192
0
VERTEX
8
OBJECT002
10
22.000000
20
33.000000
30
-68.244896
70
192
0
VERTEX
8
OBJECT002
10
28.000000
20
28.000000
30
-68.244896
70
192
0
VERTEX
8
OBJECT002
10
33.000000
20
22.000000
30
-68.244896
70
192
0
VERTEX
8
OBJECT002
10
37.000000
20
15.000000
30
-68.244896
70
192
0
VERTEX
8
OBJECT002
10
39.000000
20
8.000000
30
-68.244896
70
192
0
VERTEX
8
OBJECT002
10
40.000000
20
0.000000
30
-68.244896
70
192
0
VERTEX
8
OBJECT002
10
39.000000
20
-8.000000
30
-68.244896
70
192
0
VERTEX
8
OBJECT002
10
37.000000
20
-15.000000
30
-68.244896
70
192
0
VERTEX
8
OBJECT002
10
33.000000
20
-22.000000
30
-68.244896
70
192
0
VERTEX
8
OBJECT002
10
28.000000
20
-28.000000
30
-68.244896
70
192
0
VERTEX
8
OBJECT002
10
22.000000
20
-33.000000
30
-68.244896
70
192
0
VERTEX
8
OBJECT002
10
15.000000
20
-37.000000
30
-68.244896
70
192
0
VERTEX
8
OBJECT002
10
8.000000
20
-39.000000
30
-68.244896
70
192
0
VERTEX
8
OBJECT002
10
0.000000
20
-40.000000
30
-68.244896
70
192
0
VERTEX
8
OBJECT002
10
-8.000000
20
-39.000000
30
-68.244896
70
192
0
VERTEX
8
OBJECT002
10
-15.000000
20
-37.000000
30
-68.244896
70
192
0
VERTEX
8
OBJECT002
10
-22.000000
20
-33.000000
30
-68.244896
70
192
0
VERTEX
8
OBJECT002
10
-28.000000
20
-28.000000
30
-68.244896
70
192
0
VERTEX
8
OBJECT002
10
-33.000000
20
-22.012390
30
-68.244896
70
192
0
VERTEX
8
OBJECT002
10
-37.000000
20
-15.000000
30
-68.244896
70
192
0
VERTEX
8
OBJECT002
10
-39.000000
20
-8.000000
30
-68.244896
70
192
0
VERTEX
8
OBJECT002
10
-40.000000
20
0.000000
30
-68.244896
70
192
0
VERTEX
8
OBJECT002
10
-39.000000
20
8.000000
30
-68.244896
70
192
0
VERTEX
8
OBJECT002
10
-37.000000
20
15.000000
30
-68.244896
70
192
0
VERTEX
8
OBJECT002
10
-33.000000
20
22.000000
30
-68.244896
70
192
0
VERTEX
8
OBJECT002
10
-28.000000
20
28.000000
30
-68.244896
70
192
0
VERTEX
8
OBJECT002
10
-22.000000
20
33.000000
30
-68.244896
70
192
0
VERTEX
8
OBJECT002
10
-15.000000
20
37.000000
30
-68.244896
70
192
0
VERTEX
8
OBJECT002
10
-8.000000
20
39.000000
30
-68.244896
70
192
0
VERTEX
8
OBJECT002
10
0
20
0
30
0
70
128
71
2
72
3
73
-4
0
VERTEX
8
OBJECT002
10
0
20
0
30
0
70
128
71
-2
72
4
73
-5
0
VERTEX
8
OBJECT002
10
0
20
0
30
0
70
128
71
-2
72
5
73
-6
0
VERTEX
8
OBJECT002
10
0
20
0
30
0
70
128
71
-2
72
6
73
-7
0
VERTEX
8
OBJECT002
10
0
20
0
30
0
70
128
71
-2
72
7
73
-8
0
VERTEX
8
OBJECT002
10
0
20
0
30
0
70
128
71
-2
72
8
73
-9
0
VERTEX
8
OBJECT002
10
0
20
0
30
0
70
128
71
-2
72
9
73
-10
0
VERTEX
8
OBJECT002
10
0
20
0
30
0
70
128
71
-2
72
10
73
-11
0
VERTEX
8
OBJECT002
10
0
20
0
30
0
70
128
71
-2
72
11
73
-12
0
VERTEX
8
OBJECT002
10
0
20
0
30
0
70
128
71
-2
72
12
73
-13
0
VERTEX
8
OBJECT002
10
0
20
0
30
0
70
128
71
-2
72
13
73
-14
0
VERTEX
8
OBJECT002
10
0
20
0
30
0
70
128
71
-2
72
14
73
-15
0
VERTEX
8
OBJECT002
10
0
20
0
30
0
70
128
71
-2
72
15
73
-16
0
VERTEX
8
OBJECT002
10
0
20
0
30
0
70
128
71
-2
72
16
73
-17
0
VERTEX
8
OBJECT002
10
0
20
0
30
0
70
128
71
-2
72
17
73
-18
0
VERTEX
8
OBJECT002
10
0
20
0
30
0
70
128
71
-2
72
18
73
-19
0
VERTEX
8
OBJECT002
10
0
20
0
30
0
70
128
71
-2
72
19
73
-20
0
VERTEX
8
OBJECT002
10
0
20
0
30
0
70
128
71
-2
72
20
73
-21
0
VERTEX
8
OBJECT002
10
0
20
0
30
0
70
128
71
-2
72
21
73
-22
0
VERTEX
8
OBJECT002
10
0
20
0
30
0
70
128
71
-2
72
22
73
-23
0
VERTEX
8
OBJECT002
10
0
20
0
30
0
70
128
71
-2
72
23
73
-24
0
VERTEX
8
OBJECT002
10
0
20
0
30
0
70
128
71
-2
72
24
73
-25
0
VERTEX
8
OBJECT002
10
0
20
0
30
0
70
128
71
-2
72
25
73
-26
0
VERTEX
8
OBJECT002
10
0
20
0
30
0
70
128
71
-2
72
26
73
-27
0
VERTEX
8
OBJECT002
10
0
20
0
30
0
70
128
71
-2
72
27
73
-28
0
VERTEX
8
OBJECT002
10
0
20
0
30
0
70
128
71
-2
72
28
73
-29
0
VERTEX
8
OBJECT002
10
0
20
0
30
0
70
128
71
-2
72
29
73
-30
0
VERTEX
8
OBJECT002
10
0
20
0
30
0
70
128
71
-2
72
30
73
-31
0
VERTEX
8
OBJECT002
10
0
20
0
30
0
70
128
71
-2
72
31
73
-32
0
VERTEX
8
OBJECT002
10
0
20
0
30
0
70
128
71
-2
72
32
73
1
0
VERTEX
8
OBJECT002
10
0
20
0
30
0
70
128
71
5
72
4
73
-34
0
VERTEX
8
OBJECT002
10
0
20
0
30
0
70
128
71
-5
72
34
73
33
0
VERTEX
8
OBJECT002
10
0
20
0
30
0
70
128
71
4
72
3
73
-35
0
VERTEX
8
OBJECT002
10
0
20
0
30
0
70
128
71
-4
72
35
73
34
0
VERTEX
8
OBJECT002
10
0
20
0
30
0
70
128
71
3
72
2
73
-36
0
VERTEX
8
OBJECT002
10
0
20
0
30
0
70
128
71
-3
72
36
73
35
0
VERTEX
8
OBJECT002
10
0
20
0
30
0
70
128
71
2
72
1
73
-37
0
VERTEX
8
OBJECT002
10
0
20
0
30
0
70
128
71
-2
72
37
73
36
0
VERTEX
8
OBJECT002
10
0
20
0
30
0
70
128
71
1
72
32
73
-38
0
VERTEX
8
OBJECT002
10
0
20
0
30
0
70
128
71
-1
72
38
73
37
0
VERTEX
8
OBJECT002
10
0
20
0
30
0
70
128
71
32
72
31
73
-39
0
VERTEX
8
OBJECT002
10
0
20
0
30
0
70
128
71
-32
72
39
73
38
0
VERTEX
8
OBJECT002
10
0
20
0
30
0
70
128
71
31
72
30
73
-40
0
VERTEX
8
OBJECT002
10
0
20
0
30
0
70
128
71
-31
72
40
73
39
0
VERTEX
8
OBJECT002
10
0
20
0
30
0
70
128
71
30
72
29
73
-41
0
VERTEX
8
OBJECT002
10
0
20
0
30
0
70
128
71
-30
72
41
73
40
0
VERTEX
8
OBJECT002
10
0
20
0
30
0
70
128
71
29
72
28
73
-42
0
VERTEX
8
OBJECT002
10
0
20
0
30
0
70
128
71
-29
72
42
73
41
0
VERTEX
8
OBJECT002
10
0
20
0
30
0
70
128
71
28
72
27
73
-43
0
VERTEX
8
OBJECT002
10
0
20
0
30
0
70
128
71
-28
72
43
73
42
0
VERTEX
8
OBJECT002
10
0
20
0
30
0
70
128
71
27
72
26
73
-44
0
VERTEX
8
OBJECT002
10
0
20
0
30
0
70
128
71
-27
72
44
73
43
0
VERTEX
8
OBJECT002
10
0
20
0
30
0
70
128
71
26
72
25
73
-45
0
VERTEX
8
OBJECT002
10
0
20
0
30
0
70
128
71
-26
72
45
73
44
0
VERTEX
8
OBJECT002
10
0
20
0
30
0
70
128
71
25
72
24
73
-46
0
VERTEX
8
OBJECT002
10
0
20
0
30
0
70
128
71
-25
72
46
73
45
0
VERTEX
8
OBJECT002
10
0
20
0
30
0
70
128
71
24
72
23
73
-47
0
VERTEX
8
OBJECT002
10
0
20
0
30
0
70
128
71
-24
72
47
73
46
0
VERTEX
8
OBJECT002
10
0
20
0
30
0
70
128
71
23
72
22
73
-48
0
VERTEX
8
OBJECT002
10
0
20
0
30
0
70
128
71
-23
72
48
73
47
0
VERTEX
8
OBJECT002
10
0
20
0
30
0
70
128
71
22
72
21
73
-49
0
VERTEX
8
OBJECT002
10
0
20
0
30
0
70
128
71
-22
72
49
73
48
0
VERTEX
8
OBJECT002
10
0
20
0
30
0
70
128
71
21
72
20
73
-50
0
VERTEX
8
OBJECT002
10
0
20
0
30
0
70
128
71
-21
72
50
73
49
0
VERTEX
8
OBJECT002
10
0
20
0
30
0
70
128
71
20
72
19
73
-51
0
VERTEX
8
OBJECT002
10
0
20
0
30
0
70
128
71
-20
72
51
73
50
0
VERTEX
8
OBJECT002
10
0
20
0
30
0
70
128
71
19
72
18
73
-52
0
VERTEX
8
OBJECT002
10
0
20
0
30
0
70
128
71
-19
72
52
73
51
0
VERTEX
8
OBJECT002
10
0
20
0
30
0
70
128
71
18
72
17
73
-53
0
VERTEX
8
OBJECT002
10
0
20
0
30
0
70
128
71
-18
72
53
73
52
0
VERTEX
8
OBJECT002
10
0
20
0
30
0
70
128
71
17
72
16
73
-54
0
VERTEX
8
OBJECT002
10
0
20
0
30
0
70
128
71
-17
72
54
73
53
0
VERTEX
8
OBJECT002
10
0
20
0
30
0
70
128
71
16
72
15
73
-55
0
VERTEX
8
OBJECT002
10
0
20
0
30
0
70
128
71
-16
72
55
73
54
0
VERTEX
8
OBJECT002
10
0
20
0
30
0
70
128
71
15
72
14
73
-56
0
VERTEX
8
OBJECT002
10
0
20
0
30
0
70
128
71
-15
72
56
73
55
0
VERTEX
8
OBJECT002
10
0
20
0
30
0
70
128
71
14
72
13
73
-57
0
VERTEX
8
OBJECT002
10
0
20
0
30
0
70
128
71
-14
72
57
73
56
0
VERTEX
8
OBJECT002
10
0
20
0
30
0
70
128
71
13
72
12
73
-58
0
VERTEX
8
OBJECT002
10
0
20
0
30
0
70
128
71
-13
72
58
73
57
0
VERTEX
8
OBJECT002
10
0
20
0
30
0
70
128
71
12
72
11
73
-59
0
VERTEX
8
OBJECT002
10
0
20
0
30
0
70
128
71
-12
72
59
73
58
0
VERTEX
8
OBJECT002
10
0
20
0
30
0
70
128
71
11
72
10
73
-60
0
VERTEX
8
OBJECT002
10
0
20
0
30
0
70
128
71
-11
72
60
73
59
0
VERTEX
8
OBJECT002
10
0
20
0
30
0
70
128
71
10
72
9
73
-61
0
VERTEX
8
OBJECT002
10
0
20
0
30
0
70
128
71
-10
72
61
73
60
0
VERTEX
8
OBJECT002
10
0
20
0
30
0
70
128
71
9
72
8
73
-62
0
VERTEX
8
OBJECT002
10
0
20
0
30
0
70
128
71
-9
72
62
73
61
0
VERTEX
8
OBJECT002
10
0
20
0
30
0
70
128
71
8
72
7
73
-63
0
VERTEX
8
OBJECT002
10
0
20
0
30
0
70
128
71
-8
72
63
73
62
0
VERTEX
8
OBJECT002
10
0
20
0
30
0
70
128
71
7
72
6
73
-64
0
VERTEX
8
OBJECT002
10
0
20
0
30
0
70
128
71
-7
72
64
73
63
0
VERTEX
8
OBJECT002
10
0
20
0
30
0
70
128
71
6
72
5
73
-33
0
VERTEX
8
OBJECT002
10
0
20
0
30
0
70
128
71
-6
72
33
73
64
0
VERTEX
8
OBJECT002
10
0
20
0
30
0
70
128
71
34
72
35
73
-36
0
VERTEX
8
OBJECT002
10
0
20
0
30
0
70
128
71
-34
72
36
73
-37
0
VERTEX
8
OBJECT002
10
0
20
0
30
0
70
128
71
-34
72
37
73
-38
0
VERTEX
8
OBJECT002
10
0
20
0
30
0
70
128
71
-34
72
38
73
-39
0
VERTEX
8
OBJECT002
10
0
20
0
30
0
70
128
71
-34
72
39
73
-40
0
VERTEX
8
OBJECT002
10
0
20
0
30
0
70
128
71
-34
72
40
73
-41
0
VERTEX
8
OBJECT002
10
0
20
0
30
0
70
128
71
-34
72
41
73
-42
0
VERTEX
8
OBJECT002
10
0
20
0
30
0
70
128
71
-34
72
42
73
-43
0
VERTEX
8
OBJECT002
10
0
20
0
30
0
70
128
71
-34
72
43
73
-44
0
VERTEX
8
OBJECT002
10
0
20
0
30
0
70
128
71
-34
72
44
73
-45
0
VERTEX
8
OBJECT002
10
0
20
0
30
0
70
128
71
-34
72
45
73
-46
0
VERTEX
8
OBJECT002
10
0
20
0
30
0
70
128
71
-34
72
46
73
-47
0
VERTEX
8
OBJECT002
10
0
20
0
30
0
70
128
71
-34
72
47
73
-48
0
VERTEX
8
OBJECT002
10
0
20
0
30
0
70
128
71
-34
72
48
73
-49
0
VERTEX
8
OBJECT002
10
0
20
0
30
0
70
128
71
-34
72
49
73
-50
0
VERTEX
8
OBJECT002
10
0
20
0
30
0
70
128
71
-34
72
50
73
-51
0
VERTEX
8
OBJECT002
10
0
20
0
30
0
70
128
71
-34
72
51
73
-52
0
VERTEX
8
OBJECT002
10
0
20
0
30
0
70
128
71
-34
72
52
73
-53
0
VERTEX
8
OBJECT002
10
0
20
0
30
0
70
128
71
-34
72
53
73
-54
0
VERTEX
8
OBJECT002
10
0
20
0
30
0
70
128
71
-34
72
54
73
-55
0
VERTEX
8
OBJECT002
10
0
20
0
30
0
70
128
71
-34
72
55
73
-56
0
VERTEX
8
OBJECT002
10
0
20
0
30
0
70
128
71
-34
72
56
73
-57
0
VERTEX
8
OBJECT002
10
0
20
0
30
0
70
128
71
-34
72
57
73
-58
0
VERTEX
8
OBJECT002
10
0
20
0
30
0
70
128
71
-34
72
58
73
-59
0
VERTEX
8
OBJECT002
10
0
20
0
30
0
70
128
71
-34
72
59
73
-60
0
VERTEX
8
OBJECT002
10
0
20
0
30
0
70
128
71
-34
72
60
73
-61
0
VERTEX
8
OBJECT002
10
0
20
0
30
0
70
128
71
-34
72
61
73
-62
0
VERTEX
8
OBJECT002
10
0
20
0
30
0
70
128
71
-34
72
62
73
-63
0
VERTEX
8
OBJECT002
10
0
20
0
30
0
70
128
71
-34
72
63
73
-64
0
VERTEX
8
OBJECT002
10
0
20
0
30
0
70
128
71
-34
72
64
73
33
0
SEQEND
8
OBJECT002
0
POLYLINE
8
OBJECT003
66
1
70
64
71
20
72
36
62
50
0
VERTEX
8
OBJECT003
10
0.000000
20
40.000000
30
16.000000
70
192
0
VERTEX
8
OBJECT003
10
0.000000
20
40.000000
30
-68.244896
70
192
0
VERTEX
8
OBJECT003
10
8.000000
20
39.000000
30
-68.244896
70
192
0
VERTEX
8
OBJECT003
10
8.000000
20
39.000000
30
16.000000
70
192
0
VERTEX
8
OBJECT003
10
15.000000
20
37.000000
30
-68.244896
70
192
0
VERTEX
8
OBJECT003
10
15.000000
20
37.000000
30
16.000000
70
192
0
VERTEX
8
OBJECT003
10
22.000000
20
33.000000
30
-68.244896
70
192
0
VERTEX
8
OBJECT003
10
22.000000
20
33.000000
30
16.000000
70
192
0
VERTEX
8
OBJECT003
10
28.000000
20
28.000000
30
-68.244896
70
192
0
VERTEX
8
OBJECT003
10
28.000000
20
28.000000
30
16.000000
70
192
0
VERTEX
8
OBJECT003
10
31.255707
20
24.093048
30
-68.244896
70
192
0
VERTEX
8
OBJECT003
10
31.255707
20
24.093048
30
16.000000
70
192
0
VERTEX
8
OBJECT003
10
-24.343964
20
31.042480
30
16.000000
70
192
0
VERTEX
8
OBJECT003
10
-24.343964
20
31.042480
30
-68.244896
70
192
0
VERTEX
8
OBJECT003
10
-21.988449
20
33.000000
30
-68.244896
70
192
0
VERTEX
8
OBJECT003
10
-21.988449
20
33.000000
30
16.000000
70
192
0
VERTEX
8
OBJECT003
10
-15.000000
20
37.000000
30
-68.244896
70
192
0
VERTEX
8
OBJECT003
10
-15.000000
20
37.000000
30
16.000000
70
192
0
VERTEX
8
OBJECT003
10
-8.000000
20
39.000000
30
-68.244896
70
192
0
VERTEX
8
OBJECT003
10
-8.000000
20
39.000000
30
16.000000
70
192
0
VERTEX
8
OBJECT003
10
0
20
0
30
0
70
128
71
2
72
3
73
-4
0
VERTEX
8
OBJECT003
10
0
20
0
30
0
70
128
71
-2
72
4
73
1
0
VERTEX
8
OBJECT003
10
0
20
0
30
0
70
128
71
3
72
5
73
-6
0
VERTEX
8
OBJECT003
10
0
20
0
30
0
70
128
71
-3
72
6
73
4
0
VERTEX
8
OBJECT003
10
0
20
0
30
0
70
128
71
5
72
7
73
-8
0
VERTEX
8
OBJECT003
10
0
20
0
30
0
70
128
71
-5
72
8
73
6
0
VERTEX
8
OBJECT003
10
0
20
0
30
0
70
128
71
7
72
9
73
-10
0
VERTEX
8
OBJECT003
10
0
20
0
30
0
70
128
71
-7
72
10
73
8
0
VERTEX
8
OBJECT003
10
0
20
0
30
0
70
128
71
9
72
11
73
-12
0
VERTEX
8
OBJECT003
10
0
20
0
30
0
70
128
71
-9
72
12
73
10
0
VERTEX
8
OBJECT003
10
0
20
0
30
0
70
128
71
14
72
15
73
-16
0
VERTEX
8
OBJECT003
10
0
20
0
30
0
70
128
71
-14
72
16
73
13
0
VERTEX
8
OBJECT003
10
0
20
0
30
0
70
128
71
15
72
17
73
-18
0
VERTEX
8
OBJECT003
10
0
20
0
30
0
70
128
71
-15
72
18
73
16
0
VERTEX
8
OBJECT003
10
0
20
0
30
0
70
128
71
17
72
19
73
-20
0
VERTEX
8
OBJECT003
10
0
20
0
30
0
70
128
71
-17
72
20
73
18
0
VERTEX
8
OBJECT003
10
0
20
0
30
0
70
128
71
19
72
2
73
-1
0
VERTEX
8
OBJECT003
10
0
20
0
30
0
70
128
71
-19
72
1
73
20
0
VERTEX
8
OBJECT003
10
0
20
0
30
0
70
128
71
7
72
5
73
-3
0
VERTEX
8
OBJECT003
10
0
20
0
30
0
70
128
71
-7
72
3
73
-2
0
VERTEX
8
OBJECT003
10
0
20
0
30
0
70
128
71
-7
72
2
73
-19
0
VERTEX
8
OBJECT003
10
0
20
0
30
0
70
128
71
-7
72
19
73
-17
0
VERTEX
8
OBJECT003
10
0
20
0
30
0
70
128
71
-7
72
17
73
-15
0
VERTEX
8
OBJECT003
10
0
20
0
30
0
70
128
71
-7
72
15
73
-14
0
VERTEX
8
OBJECT003
10
0
20
0
30
0
70
128
71
-7
72
14
73
-11
0
VERTEX
8
OBJECT003
10
0
20
0
30
0
70
128
71
-7
72
11
73
9
0
VERTEX
8
OBJECT003
10
0
20
0
30
0
70
128
71
11
72
14
73
-13
0
VERTEX
8
OBJECT003
10
0
20
0
30
0
70
128
71
-11
72
13
73
12
0
VERTEX
8
OBJECT003
10
0
20
0
30
0
70
128
71
16
72
18
73
-20
0
VERTEX
8
OBJECT003
10
0
20
0
30
0
70
128
71
-16
72
20
73
-1
0
VERTEX
8
OBJECT003
10
0
20
0
30
0
70
128
71
-16
72
1
73
-4
0
VERTEX
8
OBJECT003
10
0
20
0
30
0
70
128
71
-16
72
4
73
-6
0
VERTEX
8
OBJECT003
10
0
20
0
30
0
70
128
71
-16
72
6
73
-8
0
VERTEX
8
OBJECT003
10
0
20
0
30
0
70
128
71
-16
72
8
73
-10
0
VERTEX
8
OBJECT003
10
0
20
0
30
0
70
128
71
-16
72
10
73
-12
0
VERTEX
8
OBJECT003
10
0
20
0
30
0
70
128
71
-16
72
12
73
13
0
SEQEND
8
OBJECT003
0
POLYLINE
8
OBJECT004
66
1
70
64
71
8
72
12
62
50
0
VERTEX
8
OBJECT004
10
31.256126
20
24.092224
30
16.000000
70
192
0
VERTEX
8
OBJECT004
10
31.256126
20
24.092224
30
-68.244896
70
192
0
VERTEX
8
OBJECT004
10
33.000000
20
22.000000
30
-68.244896
70
192
0
VERTEX
8
OBJECT004
10
33.000000
20
22.000000
30
16.000000
70
192
0
VERTEX
8
OBJECT004
10
34.725502
20
18.978333
30
-68.244896
70
192
0
VERTEX
8
OBJECT004
10
34.725502
20
18.978333
30
16.000000
70
192
0
VERTEX
8
OBJECT004
10
5.606140
20
27.298492
30
-68.244896
70
192
0
VERTEX
8
OBJECT004
10
5.607239
20
27.298187
30
16.000000
70
192
0
VERTEX
8
OBJECT004
10
0
20
0
30
0
70
128
71
2
72
3
73
-4
0
VERTEX
8
OBJECT004
10
0
20
0
30
0
70
128
71
-2
72
4
73
1
0
VERTEX
8
OBJECT004
10
0
20
0
30
0
70
128
71
3
72
5
73
-6
0
VERTEX
8
OBJECT004
10
0
20
0
30
0
70
128
71
-3
72
6
73
4
0
VERTEX
8
OBJECT004
10
0
20
0
30
0
70
128
71
3
72
2
73
-7
0
VERTEX
8
OBJECT004
10
0
20
0
30
0
70
128
71
-3
72
7
73
5
0
VERTEX
8
OBJECT004
10
0
20
0
30
0
70
128
71
7
72
2
73
-1
0
VERTEX
8
OBJECT004
10
0
20
0
30
0
70
128
71
-7
72
1
73
8
0
VERTEX
8
OBJECT004
10
0
20
0
30
0
70
128
71
5
72
7
73
-8
0
VERTEX
8
OBJECT004
10
0
20
0
30
0
70
128
71
-5
72
8
73
6
0
VERTEX
8
OBJECT004
10
0
20
0
30
0
70
128
71
1
72
4
73
-6
0
VERTEX
8
OBJECT004
10
0
20
0
30
0
70
128
71
-1
72
6
73
8
0
SEQEND
8
OBJECT004
0
POLYLINE
8
OBJECT005
66
1
70
64
71
8
72
12
62
50
0
VERTEX
8
OBJECT005
10
34.726463
20
18.978760
30
16.000000
70
192
0
VERTEX
8
OBJECT005
10
34.726463
20
18.978760
30
-68.244896
70
192
0
VERTEX
8
OBJECT005
10
37.000000
20
15.000000
30
-68.244896
70
192
0
VERTEX
8
OBJECT005
10
37.000000
20
15.000000
30
16.000000
70
192
0
VERTEX
8
OBJECT005
10
38.448029
20
9.931213
30
-68.244896
70
192
0
VERTEX
8
OBJECT005
10
38.448029
20
9.931213
30
16.000000
70
192
0
VERTEX
8
OBJECT005
10
10.504753
20
25.898499
30
-68.244896
70
192
0
VERTEX
8
OBJECT005
10
10.501259
20
25.900482
30
16.000000
70
192
0
VERTEX
8
OBJECT005
10
0
20
0
30
0
70
128
71
2
72
3
73
-4
0
VERTEX
8
OBJECT005
10
0
20
0
30
0
70
128
71
-2
72
4
73
1
0
VERTEX
8
OBJECT005
10
0
20
0
30
0
70
128
71
3
72
5
73
-6
0
VERTEX
8
OBJECT005
10
0
20
0
30
0
70
128
71
-3
72
6
73
4
0
VERTEX
8
OBJECT005
10
0
20
0
30
0
70
128
71
3
72
2
73
-7
0
VERTEX
8
OBJECT005
10
0
20
0
30
0
70
128
71
-3
72
7
73
5
0
VERTEX
8
OBJECT005
10
0
20
0
30
0
70
128
71
7
72
2
73
-1
0
VERTEX
8
OBJECT005
10
0
20
0
30
0
70
128
71
-7
72
1
73
8
0
VERTEX
8
OBJECT005
10
0
20
0
30
0
70
128
71
5
72
7
73
-8
0
VERTEX
8
OBJECT005
10
0
20
0
30
0
70
128
71
-5
72
8
73
6
0
VERTEX
8
OBJECT005
10
0
20
0
30
0
70
128
71
1
72
4
73
-6
0
VERTEX
8
OBJECT005
10
0
20
0
30
0
70
128
71
-1
72
6
73
8
0
SEQEND
8
OBJECT005
0
POLYLINE
8
OBJECT006
66
1
70
64
71
8
72
12
62
50
0
VERTEX
8
OBJECT006
10
18.977135
20
-34.728973
30
16.000000
70
192
0
VERTEX
8
OBJECT006
10
18.977135
20
-34.728973
30
-68.244896
70
192
0
VERTEX
8
OBJECT006
10
15.000000
20
-37.000000
30
-68.244896
70
192
0
VERTEX
8
OBJECT006
10
15.000000
20
-37.000000
30
16.000000
70
192
0
VERTEX
8
OBJECT006
10
9.930336
20
-38.448059
30
-68.244896
70
192
0
VERTEX
8
OBJECT006
10
9.930336
20
-38.448059
30
16.000000
70
192
0
VERTEX
8
OBJECT006
10
25.898140
20
-10.504364
30
-68.244896
70
192
0
VERTEX
8
OBJECT006
10
25.899239
20
-10.502441
30
16.000000
70
192
0
VERTEX
8
OBJECT006
10
0
20
0
30
0
70
128
71
2
72
3
73
-4
0
VERTEX
8
OBJECT006
10
0
20
0
30
0
70
128
71
-2
72
4
73
1
0
VERTEX
8
OBJECT006
10
0
20
0
30
0
70
128
71
3
72
5
73
-6
0
VERTEX
8
OBJECT006
10
0
20
0
30
0
70
128
71
-3
72
6
73
4
0
VERTEX
8
OBJECT006
10
0
20
0
30
0
70
128
71
3
72
2
73
-7
0
VERTEX
8
OBJECT006
10
0
20
0
30
0
70
128
71
-3
72
7
73
5
0
VERTEX
8
OBJECT006
10
0
20
0
30
0
70
128
71
7
72
2
73
-1
0
VERTEX
8
OBJECT006
10
0
20
0
30
0
70
128
71
-7
72
1
73
8
0
VERTEX
8
OBJECT006
10
0
20
0
30
0
70
128
71
5
72
7
73
-8
0
VERTEX
8
OBJECT006
10
0
20
0
30
0
70
128
71
-5
72
8
73
6
0
VERTEX
8
OBJECT006
10
0
20
0
30
0
70
128
71
4
72
6
73
-8
0
VERTEX
8
OBJECT006
10
0
20
0
30
0
70
128
71
-4
72
8
73
1
0
SEQEND
8
OBJECT006
0
POLYLINE
8
OBJECT007
66
1
70
64
71
8
72
12
62
50
0
VERTEX
8
OBJECT007
10
9.929634
20
-38.448761
30
16.000000
70
192
0
VERTEX
8
OBJECT007
10
9.929634
20
-38.448761
30
-68.244896
70
192
0
VERTEX
8
OBJECT007
10
8.000000
20
-39.000000
30
-68.244896
70
192
0
VERTEX
8
OBJECT007
10
8.000000
20
-39.000000
30
16.000000
70
192
0
VERTEX
8
OBJECT007
10
2.903191
20
-39.636749
30
-68.244896
70
192
0
VERTEX
8
OBJECT007
10
2.903191
20
-39.636749
30
16.000000
70
192
0
VERTEX
8
OBJECT007
10
23.098282
20
-15.403656
30
-68.244896
70
192
0
VERTEX
8
OBJECT007
10
23.097984
20
-15.403992
30
16.000000
70
192
0
VERTEX
8
OBJECT007
10
0
20
0
30
0
70
128
71
2
72
3
73
-4
0
VERTEX
8
OBJECT007
10
0
20
0
30
0
70
128
71
-2
72
4
73
1
0
VERTEX
8
OBJECT007
10
0
20
0
30
0
70
128
71
3
72
5
73
-6
0
VERTEX
8
OBJECT007
10
0
20
0
30
0
70
128
71
-3
72
6
73
4
0
VERTEX
8
OBJECT007
10
0
20
0
30
0
70
128
71
3
72
2
73
-7
0
VERTEX
8
OBJECT007
10
0
20
0
30
0
70
128
71
-3
72
7
73
5
0
VERTEX
8
OBJECT007
10
0
20
0
30
0
70
128
71
7
72
2
73
-1
0
VERTEX
8
OBJECT007
10
0
20
0
30
0
70
128
71
-7
72
1
73
8
0
VERTEX
8
OBJECT007
10
0
20
0
30
0
70
128
71
5
72
7
73
-8
0
VERTEX
8
OBJECT007
10
0
20
0
30
0
70
128
71
-5
72
8
73
6
0
VERTEX
8
OBJECT007
10
0
20
0
30
0
70
128
71
4
72
6
73
-8
0
VERTEX
8
OBJECT007
10
0
20
0
30
0
70
128
71
-4
72
8
73
1
0
SEQEND
8
OBJECT007
0
POLYLINE
8
OBJECT008
66
1
70
64
71
8
72
12
62
50
0
VERTEX
8
OBJECT008
10
2.904243
20
-39.636322
30
16.000000
70
192
0
VERTEX
8
OBJECT008
10
2.904243
20
-39.636322
30
-68.244896
70
192
0
VERTEX
8
OBJECT008
10
0.000000
20
-40.000000
30
-68.244896
70
192
0
VERTEX
8
OBJECT008
10
0.000000
20
-40.000000
30
16.000000
70
192
0
VERTEX
8
OBJECT008
10
-4.245895
20
-39.469727
30
-68.244896
70
192
0
VERTEX
8
OBJECT008
10
-4.245895
20
-39.469727
30
16.000000
70
192
0
VERTEX
8
OBJECT008
10
19.605095
20
-19.594604
30
-68.244896
70
192
0
VERTEX
8
OBJECT008
10
19.607658
20
-19.592468
30
16.000000
70
192
0
VERTEX
8
OBJECT008
10
0
20
0
30
0
70
128
71
2
72
3
73
-4
0
VERTEX
8
OBJECT008
10
0
20
0
30
0
70
128
71
-2
72
4
73
1
0
VERTEX
8
OBJECT008
10
0
20
0
30
0
70
128
71
3
72
5
73
-6
0
VERTEX
8
OBJECT008
10
0
20
0
30
0
70
128
71
-3
72
6
73
4
0
VERTEX
8
OBJECT008
10
0
20
0
30
0
70
128
71
3
72
2
73
-7
0
VERTEX
8
OBJECT008
10
0
20
0
30
0
70
128
71
-3
72
7
73
5
0
VERTEX
8
OBJECT008
10
0
20
0
30
0
70
128
71
7
72
2
73
-1
0
VERTEX
8
OBJECT008
10
0
20
0
30
0
70
128
71
-7
72
1
73
8
0
VERTEX
8
OBJECT008
10
0
20
0
30
0
70
128
71
5
72
7
73
-8
0
VERTEX
8
OBJECT008
10
0
20
0
30
0
70
128
71
-5
72
8
73
6
0
VERTEX
8
OBJECT008
10
0
20
0
30
0
70
128
71
4
72
6
73
-8
0
VERTEX
8
OBJECT008
10
0
20
0
30
0
70
128
71
-4
72
8
73
1
0
SEQEND
8
OBJECT008
0
POLYLINE
8
OBJECT009
66
1
70
64
71
8
72
12
62
50
0
VERTEX
8
OBJECT009
10
-4.245911
20
-39.469940
30
16.000000
70
192
0
VERTEX
8
OBJECT009
10
-4.245911
20
-39.469940
30
-68.244896
70
192
0
VERTEX
8
OBJECT009
10
-8.000000
20
-39.000000
30
-68.244896
70
192
0
VERTEX
8
OBJECT009
10
-8.000000
20
-39.000000
30
16.000000
70
192
0
VERTEX
8
OBJECT009
10
-10.949211
20
-38.157135
30
-68.244896
70
192
0
VERTEX
8
OBJECT009
10
-10.949211
20
-38.157135
30
16.000000
70
192
0
VERTEX
8
OBJECT009
10
15.392769
20
-23.105042
30
-68.244896
70
192
0
VERTEX
8
OBJECT009
10
15.389290
20
-23.107025
30
16.000000
70
192
0
VERTEX
8
OBJECT009
10
0
20
0
30
0
70
128
71
2
72
3
73
-4
0
VERTEX
8
OBJECT009
10
0
20
0
30
0
70
128
71
-2
72
4
73
1
0
VERTEX
8
OBJECT009
10
0
20
0
30
0
70
128
71
3
72
5
73
-6
0
VERTEX
8
OBJECT009
10
0
20
0
30
0
70
128
71
-3
72
6
73
4
0
VERTEX
8
OBJECT009
10
0
20
0
30
0
70
128
71
3
72
2
73
-7
0
VERTEX
8
OBJECT009
10
0
20
0
30
0
70
128
71
-3
72
7
73
5
0
VERTEX
8
OBJECT009
10
0
20
0
30
0
70
128
71
7
72
2
73
-1
0
VERTEX
8
OBJECT009
10
0
20
0
30
0
70
128
71
-7
72
1
73
8
0
VERTEX
8
OBJECT009
10
0
20
0
30
0
70
128
71
5
72
7
73
-8
0
VERTEX
8
OBJECT009
10
0
20
0
30
0
70
128
71
-5
72
8
73
6
0
VERTEX
8
OBJECT009
10
0
20
0
30
0
70
128
71
1
72
4
73
-6
0
VERTEX
8
OBJECT009
10
0
20
0
30
0
70
128
71
-1
72
6
73
8
0
SEQEND
8
OBJECT009
0
POLYLINE
8
OBJECT010
66
1
70
64
71
8
72
12
62
50
0
VERTEX
8
OBJECT010
10
-10.949547
20
-38.157318
30
16.000000
70
192
0
VERTEX
8
OBJECT010
10
-10.949547
20
-38.157318
30
-68.244896
70
192
0
VERTEX
8
OBJECT010
10
-15.000000
20
-37.000000
30
-68.244896
70
192
0
VERTEX
8
OBJECT010
10
-15.000000
20
-37.000000
30
16.000000
70
192
0
VERTEX
8
OBJECT010
10
-19.453896
20
-34.458405
30
-68.244896
70
192
0
VERTEX
8
OBJECT010
10
-19.453896
20
-34.458405
30
16.000000
70
192
0
VERTEX
8
OBJECT010
10
10.498520
20
-25.900848
30
-68.244896
70
192
0
VERTEX
8
OBJECT010
10
10.498703
20
-25.900787
30
16.000000
70
192
0
VERTEX
8
OBJECT010
10
0
20
0
30
0
70
128
71
2
72
3
73
-4
0
VERTEX
8
OBJECT010
10
0
20
0
30
0
70
128
71
-2
72
4
73
1
0
VERTEX
8
OBJECT010
10
0
20
0
30
0
70
128
71
3
72
5
73
-6
0
VERTEX
8
OBJECT010
10
0
20
0
30
0
70
128
71
-3
72
6
73
4
0
VERTEX
8
OBJECT010
10
0
20
0
30
0
70
128
71
3
72
2
73
-7
0
VERTEX
8
OBJECT010
10
0
20
0
30
0
70
128
71
-3
72
7
73
5
0
VERTEX
8
OBJECT010
10
0
20
0
30
0
70
128
71
7
72
2
73
-1
0
VERTEX
8
OBJECT010
10
0
20
0
30
0
70
128
71
-7
72
1
73
8
0
VERTEX
8
OBJECT010
10
0
20
0
30
0
70
128
71
5
72
7
73
-8
0
VERTEX
8
OBJECT010
10
0
20
0
30
0
70
128
71
-5
72
8
73
6
0
VERTEX
8
OBJECT010
10
0
20
0
30
0
70
128
71
1
72
4
73
-6
0
VERTEX
8
OBJECT010
10
0
20
0
30
0
70
128
71
-1
72
6
73
8
0
SEQEND
8
OBJECT010
0
POLYLINE
8
OBJECT011
66
1
70
64
71
8
72
12
62
50
0
VERTEX
8
OBJECT011
10
-19.452667
20
-34.458344
30
16.000000
70
192
0
VERTEX
8
OBJECT011
10
-19.452667
20
-34.458344
30
-68.244896
70
192
0
VERTEX
8
OBJECT011
10
-22.000000
20
-33.000000
30
-68.244896
70
192
0
VERTEX
8
OBJECT011
10
-22.000000
20
-33.000000
30
16.000000
70
192
0
VERTEX
8
OBJECT011
10
-24.345581
20
-31.042725
30
-68.244896
70
192
0
VERTEX
8
OBJECT011
10
-24.345581
20
-31.042725
30
16.000000
70
192
0
VERTEX
8
OBJECT011
10
5.605476
20
-27.299408
30
-68.244896
70
192
0
VERTEX
8
OBJECT011
10
5.605133
20
-27.299469
30
16.000000
70
192
0
VERTEX
8
OBJECT011
10
0
20
0
30
0
70
128
71
2
72
3
73
-4
0
VERTEX
8
OBJECT011
10
0
20
0
30
0
70
128
71
-2
72
4
73
1
0
VERTEX
8
OBJECT011
10
0
20
0
30
0
70
128
71
3
72
5
73
-6
0
VERTEX
8
OBJECT011
10
0
20
0
30
0
70
128
71
-3
72
6
73
4
0
VERTEX
8
OBJECT011
10
0
20
0
30
0
70
128
71
3
72
2
73
-7
0
VERTEX
8
OBJECT011
10
0
20
0
30
0
70
128
71
-3
72
7
73
5
0
VERTEX
8
OBJECT011
10
0
20
0
30
0
70
128
71
7
72
2
73
-1
0
VERTEX
8
OBJECT011
10
0
20
0
30
0
70
128
71
-7
72
1
73
8
0
VERTEX
8
OBJECT011
10
0
20
0
30
0
70
128
71
5
72
7
73
-8
0
VERTEX
8
OBJECT011
10
0
20
0
30
0
70
128
71
-5
72
8
73
6
0
VERTEX
8
OBJECT011
10
0
20
0
30
0
70
128
71
1
72
4
73
-6
0
VERTEX
8
OBJECT011
10
0
20
0
30
0
70
128
71
-1
72
6
73
8
0
SEQEND
8
OBJECT011
0
POLYLINE
8
OBJECT012
66
1
70
64
71
8
72
12
62
50
0
VERTEX
8
OBJECT012
10
-24.347992
20
-31.042999
30
16.000000
70
192
0
VERTEX
8
OBJECT012
10
-24.347992
20
-31.042999
30
-68.244896
70
192
0
VERTEX
8
OBJECT012
10
-28.030609
20
-27.976166
30
-68.244896
70
192
0
VERTEX
8
OBJECT012
10
-28.030609
20
-27.976166
30
16.000000
70
192
0
VERTEX
8
OBJECT012
10
-31.257935
20
-24.092743
30
-68.244896
70
192
0
VERTEX
8
OBJECT012
10
-31.257935
20
-24.092743
30
16.000000
70
192
0
VERTEX
8
OBJECT012
10
0.000000
20
-28.000000
30
-68.244896
70
192
0
VERTEX
8
OBJECT012
10
0.000000
20
-28.000000
30
16.000000
70
192
0
VERTEX
8
OBJECT012
10
0
20
0
30
0
70
128
71
2
72
3
73
-4
0
VERTEX
8
OBJECT012
10
0
20
0
30
0
70
128
71
-2
72
4
73
1
0
VERTEX
8
OBJECT012
10
0
20
0
30
0
70
128
71
3
72
5
73
-6
0
VERTEX
8
OBJECT012
10
0
20
0
30
0
70
128
71
-3
72
6
73
4
0
VERTEX
8
OBJECT012
10
0
20
0
30
0
70
128
71
3
72
2
73
-7
0
VERTEX
8
OBJECT012
10
0
20
0
30
0
70
128
71
-3
72
7
73
5
0
VERTEX
8
OBJECT012
10
0
20
0
30
0
70
128
71
7
72
2
73
-1
0
VERTEX
8
OBJECT012
10
0
20
0
30
0
70
128
71
-7
72
1
73
8
0
VERTEX
8
OBJECT012
10
0
20
0
30
0
70
128
71
5
72
7
73
-8
0
VERTEX
8
OBJECT012
10
0
20
0
30
0
70
128
71
-5
72
8
73
6
0
VERTEX
8
OBJECT012
10
0
20
0
30
0
70
128
71
1
72
4
73
-6
0
VERTEX
8
OBJECT012
10
0
20
0
30
0
70
128
71
-1
72
6
73
8
0
SEQEND
8
OBJECT012
0
POLYLINE
8
OBJECT013
66
1
70
64
71
8
72
12
62
50
0
VERTEX
8
OBJECT013
10
-31.259689
20
-24.092407
30
16.000000
70
192
0
VERTEX
8
OBJECT013
10
-31.259689
20
-24.092407
30
-68.244896
70
192
0
VERTEX
8
OBJECT013
10
-32.978027
20
-22.038483
30
-68.244896
70
192
0
VERTEX
8
OBJECT013
10
-32.978027
20
-22.038483
30
16.000000
70
192
0
VERTEX
8
OBJECT013
10
-34.726303
20
-18.978210
30
-68.244896
70
192
0
VERTEX
8
OBJECT013
10
-34.726303
20
-18.978210
30
16.000000
70
192
0
VERTEX
8
OBJECT013
10
-5.600883
20
-27.300018
30
-68.244896
70
192
0
VERTEX
8
OBJECT013
10
-5.602066
20
-27.299683
30
16.000000
70
192
0
VERTEX
8
OBJECT013
10
0
20
0
30
0
70
128
71
2
72
3
73
-4
0
VERTEX
8
OBJECT013
10
0
20
0
30
0
70
128
71
-2
72
4
73
1
0
VERTEX
8
OBJECT013
10
0
20
0
30
0
70
128
71
3
72
5
73
-6
0
VERTEX
8
OBJECT013
10
0
20
0
30
0
70
128
71
-3
72
6
73
4
0
VERTEX
8
OBJECT013
10
0
20
0
30
0
70
128
71
3
72
2
73
-7
0
VERTEX
8
OBJECT013
10
0
20
0
30
0
70
128
71
-3
72
7
73
5
0
VERTEX
8
OBJECT013
10
0
20
0
30
0
70
128
71
7
72
2
73
-1
0
VERTEX
8
OBJECT013
10
0
20
0
30
0
70
128
71
-7
72
1
73
8
0
VERTEX
8
OBJECT013
10
0
20
0
30
0
70
128
71
5
72
7
73
-8
0
VERTEX
8
OBJECT013
10
0
20
0
30
0
70
128
71
-5
72
8
73
6
0
VERTEX
8
OBJECT013
10
0
20
0
30
0
70
128
71
1
72
4
73
-6
0
VERTEX
8
OBJECT013
10
0
20
0
30
0
70
128
71
-1
72
6
73
8
0
SEQEND
8
OBJECT013
0
POLYLINE
8
OBJECT014
66
1
70
64
71
8
72
12
62
50
0
VERTEX
8
OBJECT014
10
-34.725494
20
-18.978424
30
16.000000
70
192
0
VERTEX
8
OBJECT014
10
-34.725494
20
-18.978424
30
-68.244896
70
192
0
VERTEX
8
OBJECT014
10
-37.000000
20
-15.000000
30
-68.244896
70
192
0
VERTEX
8
OBJECT014
10
-37.000000
20
-15.000000
30
16.000000
70
192
0
VERTEX
8
OBJECT014
10
-38.449524
20
-9.928711
30
-68.244896
70
192
0
VERTEX
8
OBJECT014
10
-38.449524
20
-9.928711
30
16.000000
70
192
0
VERTEX
8
OBJECT014
10
-10.500038
20
-25.899994
30
-68.244896
70
192
0
VERTEX
8
OBJECT014
10
-10.499672
20
-25.900177
30
16.000000
70
192
0
VERTEX
8
OBJECT014
10
0
20
0
30
0
70
128
71
2
72
3
73
-4
0
VERTEX
8
OBJECT014
10
0
20
0
30
0
70
128
71
-2
72
4
73
1
0
VERTEX
8
OBJECT014
10
0
20
0
30
0
70
128
71
3
72
5
73
-6
0
VERTEX
8
OBJECT014
10
0
20
0
30
0
70
128
71
-3
72
6
73
4
0
VERTEX
8
OBJECT014
10
0
20
0
30
0
70
128
71
3
72
2
73
-7
0
VERTEX
8
OBJECT014
10
0
20
0
30
0
70
128
71
-3
72
7
73
5
0
VERTEX
8
OBJECT014
10
0
20
0
30
0
70
128
71
7
72
2
73
-1
0
VERTEX
8
OBJECT014
10
0
20
0
30
0
70
128
71
-7
72
1
73
8
0
VERTEX
8
OBJECT014
10
0
20
0
30
0
70
128
71
5
72
7
73
-8
0
VERTEX
8
OBJECT014
10
0
20
0
30
0
70
128
71
-5
72
8
73
6
0
VERTEX
8
OBJECT014
10
0
20
0
30
0
70
128
71
1
72
4
73
-6
0
VERTEX
8
OBJECT014
10
0
20
0
30
0
70
128
71
-1
72
6
73
8
0
SEQEND
8
OBJECT014
0
POLYLINE
8
OBJECT015
66
1
70
64
71
8
72
12
62
50
0
VERTEX
8
OBJECT015
10
-38.448441
20
-9.928741
30
16.000000
70
192
0
VERTEX
8
OBJECT015
10
-38.448441
20
-9.928741
30
-68.244896
70
192
0
VERTEX
8
OBJECT015
10
-39.000000
20
-8.000000
30
-68.244896
70
192
0
VERTEX
8
OBJECT015
10
-39.000000
20
-8.000000
30
16.000000
70
192
0
VERTEX
8
OBJECT015
10
-39.636642
20
-2.903290
30
-68.244896
70
192
0
VERTEX
8
OBJECT015
10
-39.636642
20
-2.903290
30
16.000000
70
192
0
VERTEX
8
OBJECT015
10
-15.401833
20
-23.098969
30
-68.244896
70
192
0
VERTEX
8
OBJECT015
10
-15.403419
20
-23.097626
30
16.000000
70
192
0
VERTEX
8
OBJECT015
10
0
20
0
30
0
70
128
71
2
72
3
73
-4
0
VERTEX
8
OBJECT015
10
0
20
0
30
0
70
128
71
-2
72
4
73
1
0
VERTEX
8
OBJECT015
10
0
20
0
30
0
70
128
71
3
72
5
73
-6
0
VERTEX
8
OBJECT015
10
0
20
0
30
0
70
128
71
-3
72
6
73
4
0
VERTEX
8
OBJECT015
10
0
20
0
30
0
70
128
71
3
72
2
73
-7
0
VERTEX
8
OBJECT015
10
0
20
0
30
0
70
128
71
-3
72
7
73
5
0
VERTEX
8
OBJECT015
10
0
20
0
30
0
70
128
71
7
72
2
73
-1
0
VERTEX
8
OBJECT015
10
0
20
0
30
0
70
128
71
-7
72
1
73
8
0
VERTEX
8
OBJECT015
10
0
20
0
30
0
70
128
71
5
72
7
73
-8
0
VERTEX
8
OBJECT015
10
0
20
0
30
0
70
128
71
-5
72
8
73
6
0
VERTEX
8
OBJECT015
10
0
20
0
30
0
70
128
71
1
72
4
73
-6
0
VERTEX
8
OBJECT015
10
0
20
0
30
0
70
128
71
-1
72
6
73
8
0
SEQEND
8
OBJECT015
0
POLYLINE
8
OBJECT016
66
1
70
64
71
8
72
12
62
50
0
VERTEX
8
OBJECT016
10
-39.636627
20
-2.903320
30
16.000000
70
192
0
VERTEX
8
OBJECT016
10
-39.636627
20
-2.903320
30
-68.244896
70
192
0
VERTEX
8
OBJECT016
10
-40.000000
20
0.000000
30
-68.244896
70
192
0
VERTEX
8
OBJECT016
10
-40.000000
20
0.000000
30
16.000000
70
192
0
VERTEX
8
OBJECT016
10
-39.469864
20
4.237854
30
-68.244896
70
192
0
VERTEX
8
OBJECT016
10
-39.469864
20
4.237854
30
16.000000
70
192
0
VERTEX
8
OBJECT016
10
-19.618629
20
-19.584839
30
-68.244896
70
192
0
VERTEX
8
OBJECT016
10
-19.620125
20
-19.583038
30
16.000000
70
192
0
VERTEX
8
OBJECT016
10
0
20
0
30
0
70
128
71
2
72
3
73
-4
0
VERTEX
8
OBJECT016
10
0
20
0
30
0
70
128
71
-2
72
4
73
1
0
VERTEX
8
OBJECT016
10
0
20
0
30
0
70
128
71
3
72
5
73
-6
0
VERTEX
8
OBJECT016
10
0
20
0
30
0
70
128
71
-3
72
6
73
4
0
VERTEX
8
OBJECT016
10
0
20
0
30
0
70
128
71
3
72
2
73
-7
0
VERTEX
8
OBJECT016
10
0
20
0
30
0
70
128
71
-3
72
7
73
5
0
VERTEX
8
OBJECT016
10
0
20
0
30
0
70
128
71
7
72
2
73
-1
0
VERTEX
8
OBJECT016
10
0
20
0
30
0
70
128
71
-7
72
1
73
8
0
VERTEX
8
OBJECT016
10
0
20
0
30
0
70
128
71
5
72
7
73
-8
0
VERTEX
8
OBJECT016
10
0
20
0
30
0
70
128
71
-5
72
8
73
6
0
VERTEX
8
OBJECT016
10
0
20
0
30
0
70
128
71
1
72
4
73
-6
0
VERTEX
8
OBJECT016
10
0
20
0
30
0
70
128
71
-1
72
6
73
8
0
SEQEND
8
OBJECT016
0
POLYLINE
8
OBJECT017
66
1
70
64
71
8
72
12
62
50
0
VERTEX
8
OBJECT017
10
-39.469650
20
4.237793
30
16.000000
70
192
0
VERTEX
8
OBJECT017
10
-39.469650
20
4.237793
30
-68.244896
70
192
0
VERTEX
8
OBJECT017
10
-39.000000
20
8.000000
30
-68.244896
70
192
0
VERTEX
8
OBJECT017
10
-39.000000
20
8.000000
30
16.000000
70
192
0
VERTEX
8
OBJECT017
10
-38.157104
20
10.950226
30
-68.244896
70
192
0
VERTEX
8
OBJECT017
10
-38.157104
20
10.950226
30
16.000000
70
192
0
VERTEX
8
OBJECT017
10
-23.086876
20
-15.422943
30
-68.244896
70
192
0
VERTEX
8
OBJECT017
10
-23.085999
20
-15.424500
30
16.000000
70
192
0
VERTEX
8
OBJECT017
10
0
20
0
30
0
70
128
71
2
72
3
73
-4
0
VERTEX
8
OBJECT017
10
0
20
0
30
0
70
128
71
-2
72
4
73
1
0
VERTEX
8
OBJECT017
10
0
20
0
30
0
70
128
71
3
72
5
73
-6
0
VERTEX
8
OBJECT017
10
0
20
0
30
0
70
128
71
-3
72
6
73
4
0
VERTEX
8
OBJECT017
10
0
20
0
30
0
70
128
71
3
72
2
73
-7
0
VERTEX
8
OBJECT017
10
0
20
0
30
0
70
128
71
-3
72
7
73
5
0
VERTEX
8
OBJECT017
10
0
20
0
30
0
70
128
71
7
72
2
73
-1
0
VERTEX
8
OBJECT017
10
0
20
0
30
0
70
128
71
-7
72
1
73
8
0
VERTEX
8
OBJECT017
10
0
20
0
30
0
70
128
71
5
72
7
73
-8
0
VERTEX
8
OBJECT017
10
0
20
0
30
0
70
128
71
-5
72
8
73
6
0
VERTEX
8
OBJECT017
10
0
20
0
30
0
70
128
71
1
72
4
73
-6
0
VERTEX
8
OBJECT017
10
0
20
0
30
0
70
128
71
-1
72
6
73
8
0
SEQEND
8
OBJECT017
0
POLYLINE
8
OBJECT018
66
1
70
64
71
8
72
12
62
50
0
VERTEX
8
OBJECT018
10
-38.157211
20
10.950378
30
16.000000
70
192
0
VERTEX
8
OBJECT018
10
-38.157211
20
10.950378
30
-68.244896
70
192
0
VERTEX
8
OBJECT018
10
-37.000000
20
15.000000
30
-68.244896
70
192
0
VERTEX
8
OBJECT018
10
-37.000000
20
15.000000
30
16.000000
70
192
0
VERTEX
8
OBJECT018
10
-34.457245
20
19.449829
30
-68.244896
70
192
0
VERTEX
8
OBJECT018
10
-34.457245
20
19.449829
30
16.000000
70
192
0
VERTEX
8
OBJECT018
10
-25.901428
20
-10.496521
30
-68.244896
70
192
0
VERTEX
8
OBJECT018
10
-25.901505
20
-10.496216
30
16.000000
70
192
0
VERTEX
8
OBJECT018
10
0
20
0
30
0
70
128
71
2
72
3
73
-4
0
VERTEX
8
OBJECT018
10
0
20
0
30
0
70
128
71
-2
72
4
73
1
0
VERTEX
8
OBJECT018
10
0
20
0
30
0
70
128
71
3
72
5
73
-6
0
VERTEX
8
OBJECT018
10
0
20
0
30
0
70
128
71
-3
72
6
73
4
0
VERTEX
8
OBJECT018
10
0
20
0
30
0
70
128
71
3
72
2
73
-7
0
VERTEX
8
OBJECT018
10
0
20
0
30
0
70
128
71
-3
72
7
73
5
0
VERTEX
8
OBJECT018
10
0
20
0
30
0
70
128
71
7
72
2
73
-1
0
VERTEX
8
OBJECT018
10
0
20
0
30
0
70
128
71
-7
72
1
73
8
0
VERTEX
8
OBJECT018
10
0
20
0
30
0
70
128
71
5
72
7
73
-8
0
VERTEX
8
OBJECT018
10
0
20
0
30
0
70
128
71
-5
72
8
73
6
0
VERTEX
8
OBJECT018
10
0
20
0
30
0
70
128
71
1
72
4
73
-6
0
VERTEX
8
OBJECT018
10
0
20
0
30
0
70
128
71
-1
72
6
73
8
0
SEQEND
8
OBJECT018
0
POLYLINE
8
OBJECT019
66
1
70
64
71
8
72
12
62
50
0
VERTEX
8
OBJECT019
10
-34.457260
20
19.449921
30
16.000000
70
192
0
VERTEX
8
OBJECT019
10
-34.457260
20
19.449921
30
-68.244896
70
192
0
VERTEX
8
OBJECT019
10
-33.000000
20
22.000000
30
-68.244896
70
192
0
VERTEX
8
OBJECT019
10
-33.000000
20
22.000000
30
16.000000
70
192
0
VERTEX
8
OBJECT019
10
-31.044205
20
24.349609
30
-68.244896
70
192
0
VERTEX
8
OBJECT019
10
-31.044205
20
24.349609
30
16.000000
70
192
0
VERTEX
8
OBJECT019
10
-27.299118
20
-5.606110
30
-68.244896
70
192
0
VERTEX
8
OBJECT019
10
-27.298477
20
-5.611237
30
16.000000
70
192
0
VERTEX
8
OBJECT019
10
0
20
0
30
0
70
128
71
2
72
3
73
-4
0
VERTEX
8
OBJECT019
10
0
20
0
30
0
70
128
71
-2
72
4
73
1
0
VERTEX
8
OBJECT019
10
0
20
0
30
0
70
128
71
3
72
5
73
-6
0
VERTEX
8
OBJECT019
10
0
20
0
30
0
70
128
71
-3
72
6
73
4
0
VERTEX
8
OBJECT019
10
0
20
0
30
0
70
128
71
3
72
2
73
-7
0
VERTEX
8
OBJECT019
10
0
20
0
30
0
70
128
71
-3
72
7
73
5
0
VERTEX
8
OBJECT019
10
0
20
0
30
0
70
128
71
7
72
2
73
-1
0
VERTEX
8
OBJECT019
10
0
20
0
30
0
70
128
71
-7
72
1
73
8
0
VERTEX
8
OBJECT019
10
0
20
0
30
0
70
128
71
5
72
7
73
-8
0
VERTEX
8
OBJECT019
10
0
20
0
30
0
70
128
71
-5
72
8
73
6
0
VERTEX
8
OBJECT019
10
0
20
0
30
0
70
128
71
1
72
4
73
-6
0
VERTEX
8
OBJECT019
10
0
20
0
30
0
70
128
71
-1
72
6
73
8
0
SEQEND
8
OBJECT019
0
POLYLINE
8
OBJECT020
66
1
70
64
71
10
72
16
62
50
0
VERTEX
8
OBJECT020
10
-31.043991
20
24.349945
30
16.000000
70
192
0
VERTEX
8
OBJECT020
10
-31.043991
20
24.349945
30
-68.244896
70
192
0
VERTEX
8
OBJECT020
10
-28.000000
20
28.000000
30
-68.244896
70
192
0
VERTEX
8
OBJECT020
10
-28.000000
20
28.000000
30
16.000000
70
192
0
VERTEX
8
OBJECT020
10
-24.348557
20
31.043060
30
-68.244896
70
192
0
VERTEX
8
OBJECT020
10
-24.348557
20
31.043060
30
16.000000
70
192
0
VERTEX
8
OBJECT020
10
-24.123001
20
31.015015
30
-68.244896
70
192
0
VERTEX
8
OBJECT020
10
-28.000000
20
0.000000
30
-68.244896
70
192
0
VERTEX
8
OBJECT020
10
-24.122971
20
31.015198
30
16.000000
70
192
0
VERTEX
8
OBJECT020
10
-28.000000
20
0.000000
30
16.000000
70
192
0
VERTEX
8
OBJECT020
10
0
20
0
30
0
70
128
71
2
72
3
73
-4
0
VERTEX
8
OBJECT020
10
0
20
0
30
0
70
128
71
-2
72
4
73
1
0
VERTEX
8
OBJECT020
10
0
20
0
30
0
70
128
71
3
72
5
73
-6
0
VERTEX
8
OBJECT020
10
0
20
0
30
0
70
128
71
-3
72
6
73
4
0
VERTEX
8
OBJECT020
10
0
20
0
30
0
70
128
71
5
72
3
73
-2
0
VERTEX
8
OBJECT020
10
0
20
0
30
0
70
128
71
-5
72
2
73
-8
0
VERTEX
8
OBJECT020
10
0
20
0
30
0
70
128
71
-5
72
8
73
7
0
VERTEX
8
OBJECT020
10
0
20
0
30
0
70
128
71
5
72
7
73
-9
0
VERTEX
8
OBJECT020
10
0
20
0
30
0
70
128
71
-5
72
9
73
6
0
VERTEX
8
OBJECT020
10
0
20
0
30
0
70
128
71
8
72
2
73
-1
0
VERTEX
8
OBJECT020
10
0
20
0
30
0
70
128
71
-8
72
1
73
10
0
VERTEX
8
OBJECT020
10
0
20
0
30
0
70
128
71
7
72
8
73
-10
0
VERTEX
8
OBJECT020
10
0
20
0
30
0
70
128
71
-7
72
10
73
9
0
VERTEX
8
OBJECT020
10
0
20
0
30
0
70
128
71
1
72
4
73
-6
0
VERTEX
8
OBJECT020
10
0
20
0
30
0
70
128
71
-1
72
6
73
-9
0
VERTEX
8
OBJECT020
10
0
20
0
30
0
70
128
71
-1
72
9
73
10
0
SEQEND
8
OBJECT020
0
POLYLINE
8
OBJECT021
66
1
70
64
71
6
72
8
62
50
0
VERTEX
8
OBJECT021
10
-20.179344
20
30.521790
30
-68.244896
70
192
0
VERTEX
8
OBJECT021
10
-24.122513
20
31.014587
30
-68.244896
70
192
0
VERTEX
8
OBJECT021
10
-27.299484
20
5.600800
30
-68.244896
70
192
0
VERTEX
8
OBJECT021
10
-24.122055
20
31.014404
30
16.000000
70
192
0
VERTEX
8
OBJECT021
10
-20.179382
20
30.521667
30
16.000000
70
192
0
VERTEX
8
OBJECT021
10
-27.300278
20
5.598053
30
16.000000
70
192
0
VERTEX
8
OBJECT021
10
0
20
0
30
0
70
128
71
2
72
3
73
1
0
VERTEX
8
OBJECT021
10
0
20
0
30
0
70
128
71
2
72
1
73
-5
0
VERTEX
8
OBJECT021
10
0
20
0
30
0
70
128
71
-2
72
5
73
4
0
VERTEX
8
OBJECT021
10
0
20
0
30
0
70
128
71
3
72
2
73
-4
0
VERTEX
8
OBJECT021
10
0
20
0
30
0
70
128
71
-3
72
4
73
6
0
VERTEX
8
OBJECT021
10
0
20
0
30
0
70
128
71
1
72
3
73
-6
0
VERTEX
8
OBJECT021
10
0
20
0
30
0
70
128
71
-1
72
6
73
5
0
VERTEX
8
OBJECT021
10
0
20
0
30
0
70
128
71
4
72
5
73
6
0
SEQEND
8
OBJECT021
0
POLYLINE
8
OBJECT022
66
1
70
64
71
6
72
8
62
50
0
VERTEX
8
OBJECT022
10
-14.840416
20
29.856781
30
-68.244896
70
192
0
VERTEX
8
OBJECT022
10
-20.178261
20
30.523621
30
-68.244896
70
192
0
VERTEX
8
OBJECT022
10
-25.897568
20
10.506500
30
-68.244896
70
192
0
VERTEX
8
OBJECT022
10
-20.178864
20
30.521667
30
16.000000
70
192
0
VERTEX
8
OBJECT022
10
-14.841499
20
29.854889
30
16.000000
70
192
0
VERTEX
8
OBJECT022
10
-25.898453
20
10.504944
30
16.000000
70
192
0
VERTEX
8
OBJECT022
10
0
20
0
30
0
70
128
71
2
72
3
73
1
0
VERTEX
8
OBJECT022
10
0
20
0
30
0
70
128
71
2
72
1
73
-5
0
VERTEX
8
OBJECT022
10
0
20
0
30
0
70
128
71
-2
72
5
73
4
0
VERTEX
8
OBJECT022
10
0
20
0
30
0
70
128
71
3
72
2
73
-4
0
VERTEX
8
OBJECT022
10
0
20
0
30
0
70
128
71
-3
72
4
73
6
0
VERTEX
8
OBJECT022
10
0
20
0
30
0
70
128
71
1
72
3
73
-6
0
VERTEX
8
OBJECT022
10
0
20
0
30
0
70
128
71
-1
72
6
73
5
0
VERTEX
8
OBJECT022
10
0
20
0
30
0
70
128
71
4
72
5
73
6
0
SEQEND
8
OBJECT022
0
POLYLINE
8
OBJECT023
66
1
70
64
71
6
72
8
62
50
0
VERTEX
8
OBJECT023
10
-11.411377
20
29.426544
30
-68.244896
70
192
0
VERTEX
8
OBJECT023
10
-14.842049
20
29.856018
30
-68.244896
70
192
0
VERTEX
8
OBJECT023
10
-23.110695
20
15.386353
30
-68.244896
70
192
0
VERTEX
8
OBJECT023
10
-14.839607
20
29.855316
30
16.000000
70
192
0
VERTEX
8
OBJECT023
10
-11.411682
20
29.426178
30
16.000000
70
192
0
VERTEX
8
OBJECT023
10
-23.110718
20
15.386322
30
16.000000
70
192
0
VERTEX
8
OBJECT023
10
0
20
0
30
0
70
128
71
2
72
3
73
1
0
VERTEX
8
OBJECT023
10
0
20
0
30
0
70
128
71
2
72
1
73
-5
0
VERTEX
8
OBJECT023
10
0
20
0
30
0
70
128
71
-2
72
5
73
4
0
VERTEX
8
OBJECT023
10
0
20
0
30
0
70
128
71
3
72
2
73
-4
0
VERTEX
8
OBJECT023
10
0
20
0
30
0
70
128
71
-3
72
4
73
6
0
VERTEX
8
OBJECT023
10
0
20
0
30
0
70
128
71
1
72
3
73
-6
0
VERTEX
8
OBJECT023
10
0
20
0
30
0
70
128
71
-1
72
6
73
5
0
VERTEX
8
OBJECT023
10
0
20
0
30
0
70
128
71
4
72
5
73
6
0
SEQEND
8
OBJECT023
0
POLYLINE
8
OBJECT024
66
1
70
64
71
6
72
8
62
50
0
VERTEX
8
OBJECT024
10
-8.277008
20
29.033325
30
-68.244896
70
192
0
VERTEX
8
OBJECT024
10
-11.412704
20
29.425659
30
-68.244896
70
192
0
VERTEX
8
OBJECT024
10
-19.606895
20
19.592224
30
-68.244896
70
192
0
VERTEX
8
OBJECT024
10
-11.413437
20
29.426086
30
16.000000
70
192
0
VERTEX
8
OBJECT024
10
-8.276657
20
29.033630
30
16.000000
70
192
0
VERTEX
8
OBJECT024
10
-19.609802
20
19.589813
30
16.000000
70
192
0
VERTEX
8
OBJECT024
10
0
20
0
30
0
70
128
71
2
72
3
73
1
0
VERTEX
8
OBJECT024
10
0
20
0
30
0
70
128
71
2
72
1
73
-5
0
VERTEX
8
OBJECT024
10
0
20
0
30
0
70
128
71
-2
72
5
73
4
0
VERTEX
8
OBJECT024
10
0
20
0
30
0
70
128
71
3
72
2
73
-4
0
VERTEX
8
OBJECT024
10
0
20
0
30
0
70
128
71
-3
72
4
73
6
0
VERTEX
8
OBJECT024
10
0
20
0
30
0
70
128
71
1
72
3
73
-6
0
VERTEX
8
OBJECT024
10
0
20
0
30
0
70
128
71
-1
72
6
73
5
0
VERTEX
8
OBJECT024
10
0
20
0
30
0
70
128
71
4
72
5
73
6
0
SEQEND
8
OBJECT024
0
POLYLINE
8
OBJECT025
66
1
70
64
71
6
72
8
62
50
0
VERTEX
8
OBJECT025
10
-5.601715
20
28.699615
30
-68.244896
70
192
0
VERTEX
8
OBJECT025
10
-8.275841
20
29.033234
30
-68.244896
70
192
0
VERTEX
8
OBJECT025
10
-15.388504
20
23.106842
30
-68.244896
70
192
0
VERTEX
8
OBJECT025
10
-8.274696
20
29.033691
30
16.000000
70
192
0
VERTEX
8
OBJECT025
10
-5.600853
20
28.700104
30
16.000000
70
192
0
VERTEX
8
OBJECT025
10
-15.386497
20
23.108002
30
16.000000
70
192
0
VERTEX
8
OBJECT025
10
0
20
0
30
0
70
128
71
2
72
3
73
1
0
VERTEX
8
OBJECT025
10
0
20
0
30
0
70
128
71
2
72
1
73
-5
0
VERTEX
8
OBJECT025
10
0
20
0
30
0
70
128
71
-2
72
5
73
4
0
VERTEX
8
OBJECT025
10
0
20
0
30
0
70
128
71
3
72
2
73
-4
0
VERTEX
8
OBJECT025
10
0
20
0
30
0
70
128
71
-3
72
4
73
6
0
VERTEX
8
OBJECT025
10
0
20
0
30
0
70
128
71
1
72
3
73
-6
0
VERTEX
8
OBJECT025
10
0
20
0
30
0
70
128
71
-1
72
6
73
5
0
VERTEX
8
OBJECT025
10
0
20
0
30
0
70
128
71
4
72
5
73
6
0
SEQEND
8
OBJECT025
0
POLYLINE
8
OBJECT026
66
1
70
64
71
6
72
8
62
50
0
VERTEX
8
OBJECT026
10
-2.194046
20
28.273132
30
-68.244896
70
192
0
VERTEX
8
OBJECT026
10
-5.602844
20
28.699005
30
-68.244896
70
192
0
VERTEX
8
OBJECT026
10
-10.501076
20
25.900146
30
-68.244896
70
192
0
VERTEX
8
OBJECT026
10
-5.601448
20
28.699921
30
16.000000
70
192
0
VERTEX
8
OBJECT026
10
-2.191391
20
28.273895
30
16.000000
70
192
0
VERTEX
8
OBJECT026
10
-10.498802
20
25.900787
30
16.000000
70
192
0
VERTEX
8
OBJECT026
10
0
20
0
30
0
70
128
71
2
72
3
73
1
0
VERTEX
8
OBJECT026
10
0
20
0
30
0
70
128
71
2
72
1
73
-5
0
VERTEX
8
OBJECT026
10
0
20
0
30
0
70
128
71
-2
72
5
73
4
0
VERTEX
8
OBJECT026
10
0
20
0
30
0
70
128
71
3
72
2
73
-4
0
VERTEX
8
OBJECT026
10
0
20
0
30
0
70
128
71
-3
72
4
73
6
0
VERTEX
8
OBJECT026
10
0
20
0
30
0
70
128
71
1
72
3
73
-6
0
VERTEX
8
OBJECT026
10
0
20
0
30
0
70
128
71
-1
72
6
73
5
0
VERTEX
8
OBJECT026
10
0
20
0
30
0
70
128
71
4
72
5
73
6
0
SEQEND
8
OBJECT026
0
POLYLINE
8
OBJECT027
66
1
70
64
71
6
72
8
62
50
0
VERTEX
8
OBJECT027
10
0.000000
20
28.000000
30
-68.244896
70
192
0
VERTEX
8
OBJECT027
10
-2.191872
20
28.274017
30
-68.244896
70
192
0
VERTEX
8
OBJECT027
10
-5.609619
20
27.298676
30
-68.244896
70
192
0
VERTEX
8
OBJECT027
10
-2.190948
20
28.273987
30
16.000000
70
192
0
VERTEX
8
OBJECT027
10
0.000000
20
28.000000
30
16.000000
70
192
0
VERTEX
8
OBJECT027
10
-5.612755
20
27.298279
30
16.000000
70
192
0
VERTEX
8
OBJECT027
10
0
20
0
30
0
70
128
71
2
72
3
73
1
0
VERTEX
8
OBJECT027
10
0
20
0
30
0
70
128
71
2
72
1
73
-5
0
VERTEX
8
OBJECT027
10
0
20
0
30
0
70
128
71
-2
72
5
73
4
0
VERTEX
8
OBJECT027
10
0
20
0
30
0
70
128
71
3
72
2
73
-4
0
VERTEX
8
OBJECT027
10
0
20
0
30
0
70
128
71
-3
72
4
73
6
0
VERTEX
8
OBJECT027
10
0
20
0
30
0
70
128
71
1
72
3
73
-6
0
VERTEX
8
OBJECT027
10
0
20
0
30
0
70
128
71
-1
72
6
73
5
0
VERTEX
8
OBJECT027
10
0
20
0
30
0
70
128
71
4
72
5
73
6
0
SEQEND
8
OBJECT027
0
POLYLINE
8
OBJECT028
66
1
70
64
71
8
72
12
62
50
0
VERTEX
8
OBJECT028
10
38.447891
20
9.931000
30
16.000000
70
192
0
VERTEX
8
OBJECT028
10
38.447891
20
9.931000
30
8.163265
70
192
0
VERTEX
8
OBJECT028
10
39.000000
20
8.000000
30
8.163265
70
192
0
VERTEX
8
OBJECT028
10
39.000000
20
8.000000
30
16.000000
70
192
0
VERTEX
8
OBJECT028
10
39.636993
20
2.902191
30
8.163265
70
192
0
VERTEX
8
OBJECT028
10
39.636993
20
2.902191
30
16.000000
70
192
0
VERTEX
8
OBJECT028
10
15.401291
20
23.099091
30
16.000000
70
192
0
VERTEX
8
OBJECT028
10
15.401291
20
23.099091
30
8.163265
70
192
0
VERTEX
8
OBJECT028
10
0
20
0
30
0
70
128
71
2
72
3
73
-4
0
VERTEX
8
OBJECT028
10
0
20
0
30
0
70
128
71
-2
72
4
73
1
0
VERTEX
8
OBJECT028
10
0
20
0
30
0
70
128
71
3
72
5
73
-6
0
VERTEX
8
OBJECT028
10
0
20
0
30
0
70
128
71
-3
72
6
73
4
0
VERTEX
8
OBJECT028
10
0
20
0
30
0
70
128
71
8
72
2
73
-1
0
VERTEX
8
OBJECT028
10
0
20
0
30
0
70
128
71
-8
72
1
73
7
0
VERTEX
8
OBJECT028
10
0
20
0
30
0
70
128
71
5
72
8
73
-7
0
VERTEX
8
OBJECT028
10
0
20
0
30
0
70
128
71
-5
72
7
73
6
0
VERTEX
8
OBJECT028
10
0
20
0
30
0
70
128
71
3
72
2
73
-8
0
VERTEX
8
OBJECT028
10
0
20
0
30
0
70
128
71
-3
72
8
73
5
0
VERTEX
8
OBJECT028
10
0
20
0
30
0
70
128
71
1
72
4
73
-6
0
VERTEX
8
OBJECT028
10
0
20
0
30
0
70
128
71
-1
72
6
73
7
0
SEQEND
8
OBJECT028
0
POLYLINE
8
OBJECT029
66
1
70
64
71
8
72
12
62
50
0
VERTEX
8
OBJECT029
10
38.448242
20
9.929657
30
-23.183674
70
192
0
VERTEX
8
OBJECT029
10
38.448242
20
9.929657
30
-68.244896
70
192
0
VERTEX
8
OBJECT029
10
39.000000
20
8.000000
30
-68.244896
70
192
0
VERTEX
8
OBJECT029
10
39.000000
20
8.000000
30
-23.183674
70
192
0
VERTEX
8
OBJECT029
10
39.637215
20
2.902313
30
-68.244896
70
192
0
VERTEX
8
OBJECT029
10
39.637215
20
2.902313
30
-23.183674
70
192
0
VERTEX
8
OBJECT029
10
15.399895
20
23.100067
30
-68.244896
70
192
0
VERTEX
8
OBJECT029
10
15.395454
20
23.103790
30
-23.183674
70
192
0
VERTEX
8
OBJECT029
10
0
20
0
30
0
70
128
71
2
72
3
73
-4
0
VERTEX
8
OBJECT029
10
0
20
0
30
0
70
128
71
-2
72
4
73
1
0
VERTEX
8
OBJECT029
10
0
20
0
30
0
70
128
71
3
72
5
73
-6
0
VERTEX
8
OBJECT029
10
0
20
0
30
0
70
128
71
-3
72
6
73
4
0
VERTEX
8
OBJECT029
10
0
20
0
30
0
70
128
71
3
72
2
73
-7
0
VERTEX
8
OBJECT029
10
0
20
0
30
0
70
128
71
-3
72
7
73
5
0
VERTEX
8
OBJECT029
10
0
20
0
30
0
70
128
71
7
72
2
73
-1
0
VERTEX
8
OBJECT029
10
0
20
0
30
0
70
128
71
-7
72
1
73
8
0
VERTEX
8
OBJECT029
10
0
20
0
30
0
70
128
71
5
72
7
73
-8
0
VERTEX
8
OBJECT029
10
0
20
0
30
0
70
128
71
-5
72
8
73
6
0
VERTEX
8
OBJECT029
10
0
20
0
30
0
70
128
71
1
72
4
73
-6
0
VERTEX
8
OBJECT029
10
0
20
0
30
0
70
128
71
-1
72
6
73
8
0
SEQEND
8
OBJECT029
0
POLYLINE
8
OBJECT030
66
1
70
64
71
6
72
8
62
50
0
VERTEX
8
OBJECT030
10
15.395523
20
23.103760
30
8.163265
70
192
0
VERTEX
8
OBJECT030
10
15.395523
20
23.103760
30
-23.183674
70
192
0
VERTEX
8
OBJECT030
10
20.000000
20
20.472656
30
-23.183674
70
192
0
VERTEX
8
OBJECT030
10
20.000000
20
20.472656
30
8.163265
70
192
0
VERTEX
8
OBJECT030
10
20.000000
20
19.266174
30
-23.183674
70
192
0
VERTEX
8
OBJECT030
10
20.000000
20
19.266174
30
8.163265
70
192
0
VERTEX
8
OBJECT030
10
0
20
0
30
0
70
128
71
2
72
3
73
-4
0
VERTEX
8
OBJECT030
10
0
20
0
30
0
70
128
71
-2
72
4
73
1
0
VERTEX
8
OBJECT030
10
0
20
0
30
0
70
128
71
2
72
1
73
-6
0
VERTEX
8
OBJECT030
10
0
20
0
30
0
70
128
71
-2
72
6
73
5
0
VERTEX
8
OBJECT030
10
0
20
0
30
0
70
128
71
1
72
4
73
6
0
VERTEX
8
OBJECT030
10
0
20
0
30
0
70
128
71
2
72
5
73
3
0
VERTEX
8
OBJECT030
10
0
20
0
30
0
70
128
71
3
72
5
73
-6
0
VERTEX
8
OBJECT030
10
0
20
0
30
0
70
128
71
-3
72
6
73
4
0
SEQEND
8
OBJECT030
0
POLYLINE
8
OBJECT031
66
1
70
64
71
10
72
16
62
50
0
VERTEX
8
OBJECT031
10
38.448135
20
9.930023
30
8.163265
70
192
0
VERTEX
8
OBJECT031
10
38.448135
20
9.930023
30
-23.183674
70
192
0
VERTEX
8
OBJECT031
10
39.000000
20
8.000000
30
-23.183674
70
192
0
VERTEX
8
OBJECT031
10
39.000000
20
8.000000
30
8.163265
70
192
0
VERTEX
8
OBJECT031
10
20.000000
20
20.472626
30
-23.183674
70
192
0
VERTEX
8
OBJECT031
10
20.000000
20
20.472626
30
8.163265
70
192
0
VERTEX
8
OBJECT031
10
33.519409
20
8.000000
30
-23.183674
70
192
0
VERTEX
8
OBJECT031
10
20.000000
20
19.266174
30
-23.183674
70
192
0
VERTEX
8
OBJECT031
10
20.000000
20
19.266174
30
8.163265
70
192
0
VERTEX
8
OBJECT031
10
33.519409
20
8.000000
30
8.163265
70
192
0
VERTEX
8
OBJECT031
10
0
20
0
30
0
70
128
71
2
72
3
73
-4
0
VERTEX
8
OBJECT031
10
0
20
0
30
0
70
128
71
-2
72
4
73
1
0
VERTEX
8
OBJECT031
10
0
20
0
30
0
70
128
71
2
72
1
73
-6
0
VERTEX
8
OBJECT031
10
0
20
0
30
0
70
128
71
-2
72
6
73
5
0
VERTEX
8
OBJECT031
10
0
20
0
30
0
70
128
71
8
72
9
73
-10
0
VERTEX
8
OBJECT031
10
0
20
0
30
0
70
128
71
-8
72
10
73
7
0
VERTEX
8
OBJECT031
10
0
20
0
30
0
70
128
71
1
72
4
73
-10
0
VERTEX
8
OBJECT031
10
0
20
0
30
0
70
128
71
-1
72
10
73
-9
0
VERTEX
8
OBJECT031
10
0
20
0
30
0
70
128
71
-1
72
9
73
6
0
VERTEX
8
OBJECT031
10
0
20
0
30
0
70
128
71
2
72
5
73
-8
0
VERTEX
8
OBJECT031
10
0
20
0
30
0
70
128
71
-2
72
8
73
-7
0
VERTEX
8
OBJECT031
10
0
20
0
30
0
70
128
71
-2
72
7
73
3
0
VERTEX
8
OBJECT031
10
0
20
0
30
0
70
128
71
8
72
5
73
-6
0
VERTEX
8
OBJECT031
10
0
20
0
30
0
70
128
71
-8
72
6
73
9
0
VERTEX
8
OBJECT031
10
0
20
0
30
0
70
128
71
3
72
7
73
-10
0
VERTEX
8
OBJECT031
10
0
20
0
30
0
70
128
71
-3
72
10
73
4
0
SEQEND
8
OBJECT031
0
POLYLINE
8
OBJECT032
66
1
70
64
71
8
72
12
62
50
0
VERTEX
8
OBJECT032
10
39.637329
20
2.901917
30
16.000000
70
192
0
VERTEX
8
OBJECT032
10
39.637329
20
2.901917
30
8.163265
70
192
0
VERTEX
8
OBJECT032
10
40.000000
20
0.000000
30
8.163265
70
192
0
VERTEX
8
OBJECT032
10
40.000000
20
0.000000
30
16.000000
70
192
0
VERTEX
8
OBJECT032
10
39.469894
20
-4.242096
30
8.163265
70
192
0
VERTEX
8
OBJECT032
10
39.469894
20
-4.242096
30
16.000000
70
192
0
VERTEX
8
OBJECT032
10
19.606277
20
19.594452
30
16.000000
70
192
0
VERTEX
8
OBJECT032
10
19.606277
20
19.594452
30
8.163265
70
192
0
VERTEX
8
OBJECT032
10
0
20
0
30
0
70
128
71
2
72
3
73
-4
0
VERTEX
8
OBJECT032
10
0
20
0
30
0
70
128
71
-2
72
4
73
1
0
VERTEX
8
OBJECT032
10
0
20
0
30
0
70
128
71
3
72
5
73
-6
0
VERTEX
8
OBJECT032
10
0
20
0
30
0
70
128
71
-3
72
6
73
4
0
VERTEX
8
OBJECT032
10
0
20
0
30
0
70
128
71
8
72
2
73
-1
0
VERTEX
8
OBJECT032
10
0
20
0
30
0
70
128
71
-8
72
1
73
7
0
VERTEX
8
OBJECT032
10
0
20
0
30
0
70
128
71
5
72
8
73
-7
0
VERTEX
8
OBJECT032
10
0
20
0
30
0
70
128
71
-5
72
7
73
6
0
VERTEX
8
OBJECT032
10
0
20
0
30
0
70
128
71
3
72
2
73
-8
0
VERTEX
8
OBJECT032
10
0
20
0
30
0
70
128
71
-3
72
8
73
5
0
VERTEX
8
OBJECT032
10
0
20
0
30
0
70
128
71
1
72
4
73
-6
0
VERTEX
8
OBJECT032
10
0
20
0
30
0
70
128
71
-1
72
6
73
7
0
SEQEND
8
OBJECT032
0
POLYLINE
8
OBJECT033
66
1
70
64
71
8
72
12
62
50
0
VERTEX
8
OBJECT033
10
39.637207
20
2.902313
30
-23.183674
70
192
0
VERTEX
8
OBJECT033
10
39.637207
20
2.902313
30
-68.244896
70
192
0
VERTEX
8
OBJECT033
10
40.000000
20
0.000000
30
-68.244896
70
192
0
VERTEX
8
OBJECT033
10
40.000000
20
0.000000
30
-23.183674
70
192
0
VERTEX
8
OBJECT033
10
39.469559
20
-4.243530
30
-68.244896
70
192
0
VERTEX
8
OBJECT033
10
39.469559
20
-4.243530
30
-23.183674
70
192
0
VERTEX
8
OBJECT033
10
19.600105
20
19.599884
30
-68.244896
70
192
0
VERTEX
8
OBJECT033
10
19.601288
20
19.598480
30
-23.183674
70
192
0
VERTEX
8
OBJECT033
10
0
20
0
30
0
70
128
71
2
72
3
73
-4
0
VERTEX
8
OBJECT033
10
0
20
0
30
0
70
128
71
-2
72
4
73
1
0
VERTEX
8
OBJECT033
10
0
20
0
30
0
70
128
71
3
72
5
73
-6
0
VERTEX
8
OBJECT033
10
0
20
0
30
0
70
128
71
-3
72
6
73
4
0
VERTEX
8
OBJECT033
10
0
20
0
30
0
70
128
71
3
72
2
73
-7
0
VERTEX
8
OBJECT033
10
0
20
0
30
0
70
128
71
-3
72
7
73
5
0
VERTEX
8
OBJECT033
10
0
20
0
30
0
70
128
71
7
72
2
73
-1
0
VERTEX
8
OBJECT033
10
0
20
0
30
0
70
128
71
-7
72
1
73
8
0
VERTEX
8
OBJECT033
10
0
20
0
30
0
70
128
71
5
72
7
73
-8
0
VERTEX
8
OBJECT033
10
0
20
0
30
0
70
128
71
-5
72
8
73
6
0
VERTEX
8
OBJECT033
10
0
20
0
30
0
70
128
71
1
72
4
73
-6
0
VERTEX
8
OBJECT033
10
0
20
0
30
0
70
128
71
-1
72
6
73
8
0
SEQEND
8
OBJECT033
0
POLYLINE
8
OBJECT034
66
1
70
64
71
6
72
8
62
50
0
VERTEX
8
OBJECT034
10
19.600243
20
19.599335
30
8.163265
70
192
0
VERTEX
8
OBJECT034
10
19.600243
20
19.599335
30
-23.183674
70
192
0
VERTEX
8
OBJECT034
10
20.000000
20
19.266205
30
-23.183674
70
192
0
VERTEX
8
OBJECT034
10
20.000000
20
19.266205
30
8.163265
70
192
0
VERTEX
8
OBJECT034
10
20.000000
20
19.122162
30
-23.183674
70
192
0
VERTEX
8
OBJECT034
10
20.000000
20
19.122162
30
8.163265
70
192
0
VERTEX
8
OBJECT034
10
0
20
0
30
0
70
128
71
2
72
3
73
-4
0
VERTEX
8
OBJECT034
10
0
20
0
30
0
70
128
71
-2
72
4
73
1
0
VERTEX
8
OBJECT034
10
0
20
0
30
0
70
128
71
2
72
1
73
-6
0
VERTEX
8
OBJECT034
10
0
20
0
30
0
70
128
71
-2
72
6
73
5
0
VERTEX
8
OBJECT034
10
0
20
0
30
0
70
128
71
1
72
4
73
6
0
VERTEX
8
OBJECT034
10
0
20
0
30
0
70
128
71
2
72
5
73
3
0
VERTEX
8
OBJECT034
10
0
20
0
30
0
70
128
71
3
72
5
73
-6
0
VERTEX
8
OBJECT034
10
0
20
0
30
0
70
128
71
-3
72
6
73
4
0
SEQEND
8
OBJECT034
0
POLYLINE
8
OBJECT035
66
1
70
64
71
8
72
12
62
50
0
VERTEX
8
OBJECT035
10
20.000000
20
19.266205
30
-23.183674
70
192
0
VERTEX
8
OBJECT035
10
33.519440
20
8.000000
30
-23.183674
70
192
0
VERTEX
8
OBJECT035
10
33.519440
20
8.000000
30
8.163265
70
192
0
VERTEX
8
OBJECT035
10
20.000000
20
19.266205
30
8.163265
70
192
0
VERTEX
8
OBJECT035
10
29.268440
20
8.000000
30
-23.183674
70
192
0
VERTEX
8
OBJECT035
10
20.000000
20
19.122162
30
-23.183674
70
192
0
VERTEX
8
OBJECT035
10
20.000000
20
19.122162
30
8.163265
70
192
0
VERTEX
8
OBJECT035
10
29.268440
20
8.000000
30
8.163265
70
192
0
VERTEX
8
OBJECT035
10
0
20
0
30
0
70
128
71
2
72
3
73
-4
0
VERTEX
8
OBJECT035
10
0
20
0
30
0
70
128
71
-2
72
4
73
1
0
VERTEX
8
OBJECT035
10
0
20
0
30
0
70
128
71
6
72
7
73
-8
0
VERTEX
8
OBJECT035
10
0
20
0
30
0
70
128
71
-6
72
8
73
5
0
VERTEX
8
OBJECT035
10
0
20
0
30
0
70
128
71
7
72
4
73
-3
0
VERTEX
8
OBJECT035
10
0
20
0
30
0
70
128
71
-7
72
3
73
8
0
VERTEX
8
OBJECT035
10
0
20
0
30
0
70
128
71
1
72
6
73
-5
0
VERTEX
8
OBJECT035
10
0
20
0
30
0
70
128
71
-1
72
5
73
2
0
VERTEX
8
OBJECT035
10
0
20
0
30
0
70
128
71
6
72
1
73
-4
0
VERTEX
8
OBJECT035
10
0
20
0
30
0
70
128
71
-6
72
4
73
7
0
VERTEX
8
OBJECT035
10
0
20
0
30
0
70
128
71
2
72
5
73
-8
0
VERTEX
8
OBJECT035
10
0
20
0
30
0
70
128
71
-2
72
8
73
3
0
SEQEND
8
OBJECT035
0
POLYLINE
8
OBJECT036
66
1
70
64
71
8
72
12
62
50
0
VERTEX
8
OBJECT036
10
39.469894
20
-4.242004
30
16.000000
70
192
0
VERTEX
8
OBJECT036
10
39.469894
20
-4.242004
30
8.163265
70
192
0
VERTEX
8
OBJECT036
10
39.000000
20
-8.000000
30
8.163265
70
192
0
VERTEX
8
OBJECT036
10
39.000000
20
-8.000000
30
16.000000
70
192
0
VERTEX
8
OBJECT036
10
38.158165
20
-10.950348
30
8.163265
70
192
0
VERTEX
8
OBJECT036
10
38.158165
20
-10.950348
30
16.000000
70
192
0
VERTEX
8
OBJECT036
10
23.101173
20
15.399841
30
16.000000
70
192
0
VERTEX
8
OBJECT036
10
23.101173
20
15.399841
30
8.163265
70
192
0
VERTEX
8
OBJECT036
10
0
20
0
30
0
70
128
71
2
72
3
73
-4
0
VERTEX
8
OBJECT036
10
0
20
0
30
0
70
128
71
-2
72
4
73
1
0
VERTEX
8
OBJECT036
10
0
20
0
30
0
70
128
71
3
72
5
73
-6
0
VERTEX
8
OBJECT036
10
0
20
0
30
0
70
128
71
-3
72
6
73
4
0
VERTEX
8
OBJECT036
10
0
20
0
30
0
70
128
71
8
72
2
73
-1
0
VERTEX
8
OBJECT036
10
0
20
0
30
0
70
128
71
-8
72
1
73
7
0
VERTEX
8
OBJECT036
10
0
20
0
30
0
70
128
71
5
72
8
73
-7
0
VERTEX
8
OBJECT036
10
0
20
0
30
0
70
128
71
-5
72
7
73
6
0
VERTEX
8
OBJECT036
10
0
20
0
30
0
70
128
71
3
72
2
73
-8
0
VERTEX
8
OBJECT036
10
0
20
0
30
0
70
128
71
-3
72
8
73
5
0
VERTEX
8
OBJECT036
10
0
20
0
30
0
70
128
71
1
72
4
73
-6
0
VERTEX
8
OBJECT036
10
0
20
0
30
0
70
128
71
-1
72
6
73
7
0
SEQEND
8
OBJECT036
0
POLYLINE
8
OBJECT037
66
1
70
64
71
8
72
12
62
50
0
VERTEX
8
OBJECT037
10
39.469559
20
-4.243530
30
-23.183674
70
192
0
VERTEX
8
OBJECT037
10
39.469559
20
-4.243530
30
-68.244896
70
192
0
VERTEX
8
OBJECT037
10
39.000000
20
-8.000000
30
-68.244896
70
192
0
VERTEX
8
OBJECT037
10
39.000000
20
-8.000000
30
-23.183674
70
192
0
VERTEX
8
OBJECT037
10
38.157532
20
-10.950653
30
-68.244896
70
192
0
VERTEX
8
OBJECT037
10
38.157532
20
-10.950653
30
-23.183674
70
192
0
VERTEX
8
OBJECT037
10
23.099945
20
15.400085
30
-68.244896
70
192
0
VERTEX
8
OBJECT037
10
23.096107
20
15.406799
30
-23.183674
70
192
0
VERTEX
8
OBJECT037
10
0
20
0
30
0
70
128
71
2
72
3
73
-4
0
VERTEX
8
OBJECT037
10
0
20
0
30
0
70
128
71
-2
72
4
73
1
0
VERTEX
8
OBJECT037
10
0
20
0
30
0
70
128
71
3
72
5
73
-6
0
VERTEX
8
OBJECT037
10
0
20
0
30
0
70
128
71
-3
72
6
73
4
0
VERTEX
8
OBJECT037
10
0
20
0
30
0
70
128
71
3
72
2
73
-7
0
VERTEX
8
OBJECT037
10
0
20
0
30
0
70
128
71
-3
72
7
73
5
0
VERTEX
8
OBJECT037
10
0
20
0
30
0
70
128
71
7
72
2
73
-1
0
VERTEX
8
OBJECT037
10
0
20
0
30
0
70
128
71
-7
72
1
73
8
0
VERTEX
8
OBJECT037
10
0
20
0
30
0
70
128
71
5
72
7
73
-8
0
VERTEX
8
OBJECT037
10
0
20
0
30
0
70
128
71
-5
72
8
73
6
0
VERTEX
8
OBJECT037
10
0
20
0
30
0
70
128
71
1
72
4
73
-6
0
VERTEX
8
OBJECT037
10
0
20
0
30
0
70
128
71
-1
72
6
73
8
0
SEQEND
8
OBJECT037
0
POLYLINE
8
OBJECT038
66
1
70
64
71
6
72
8
62
50
0
VERTEX
8
OBJECT038
10
23.096092
20
15.406830
30
8.163265
70
192
0
VERTEX
8
OBJECT038
10
23.096092
20
15.406830
30
-23.183674
70
192
0
VERTEX
8
OBJECT038
10
29.268433
20
8.000000
30
-23.183674
70
192
0
VERTEX
8
OBJECT038
10
29.268433
20
8.000000
30
8.163265
70
192
0
VERTEX
8
OBJECT038
10
27.327904
20
8.000000
30
-23.183674
70
192
0
VERTEX
8
OBJECT038
10
27.327904
20
8.000000
30
8.163265
70
192
0
VERTEX
8
OBJECT038
10
0
20
0
30
0
70
128
71
2
72
3
73
-4
0
VERTEX
8
OBJECT038
10
0
20
0
30
0
70
128
71
-2
72
4
73
1
0
VERTEX
8
OBJECT038
10
0
20
0
30
0
70
128
71
2
72
1
73
-6
0
VERTEX
8
OBJECT038
10
0
20
0
30
0
70
128
71
-2
72
6
73
5
0
VERTEX
8
OBJECT038
10
0
20
0
30
0
70
128
71
1
72
4
73
6
0
VERTEX
8
OBJECT038
10
0
20
0
30
0
70
128
71
2
72
5
73
3
0
VERTEX
8
OBJECT038
10
0
20
0
30
0
70
128
71
3
72
5
73
-6
0
VERTEX
8
OBJECT038
10
0
20
0
30
0
70
128
71
-3
72
6
73
4
0
SEQEND
8
OBJECT038
0
POLYLINE
8
OBJECT039
66
1
70
64
71
6
72
8
62
50
0
VERTEX
8
OBJECT039
10
39.000000
20
-8.000000
30
-23.183674
70
192
0
VERTEX
8
OBJECT039
10
38.157104
20
-10.952148
30
-23.183674
70
192
0
VERTEX
8
OBJECT039
10
38.157104
20
-10.952148
30
8.163265
70
192
0
VERTEX
8
OBJECT039
10
39.000000
20
-8.000000
30
8.163265
70
192
0
VERTEX
8
OBJECT039
10
36.470787
20
-8.000000
30
-23.183674
70
192
0
VERTEX
8
OBJECT039
10
36.470787
20
-8.000000
30
8.163265
70
192
0
VERTEX
8
OBJECT039
10
0
20
0
30
0
70
128
71
2
72
3
73
-4
0
VERTEX
8
OBJECT039
10
0
20
0
30
0
70
128
71
-2
72
4
73
1
0
VERTEX
8
OBJECT039
10
0
20
0
30
0
70
128
71
2
72
5
73
-6
0
VERTEX
8
OBJECT039
10
0
20
0
30
0
70
128
71
-2
72
6
73
3
0
VERTEX
8
OBJECT039
10
0
20
0
30
0
70
128
71
3
72
6
73
4
0
VERTEX
8
OBJECT039
10
0
20
0
30
0
70
128
71
2
72
1
73
5
0
VERTEX
8
OBJECT039
10
0
20
0
30
0
70
128
71
5
72
1
73
-4
0
VERTEX
8
OBJECT039
10
0
20
0
30
0
70
128
71
-5
72
4
73
6
0
SEQEND
8
OBJECT039
0
POLYLINE
8
OBJECT040
66
1
70
64
71
8
72
12
62
50
0
VERTEX
8
OBJECT040
10
38.158211
20
-10.950470
30
16.000000
70
192
0
VERTEX
8
OBJECT040
10
38.158211
20
-10.950470
30
8.163265
70
192
0
VERTEX
8
OBJECT040
10
37.000000
20
-15.000000
30
8.163265
70
192
0
VERTEX
8
OBJECT040
10
37.000000
20
-15.000000
30
16.000000
70
192
0
VERTEX
8
OBJECT040
10
34.456879
20
-19.448578
30
8.163265
70
192
0
VERTEX
8
OBJECT040
10
34.456879
20
-19.448578
30
16.000000
70
192
0
VERTEX
8
OBJECT040
10
25.899467
20
10.502228
30
16.000000
70
192
0
VERTEX
8
OBJECT040
10
25.899467
20
10.502228
30
8.163265
70
192
0
VERTEX
8
OBJECT040
10
0
20
0
30
0
70
128
71
2
72
3
73
-4
0
VERTEX
8
OBJECT040
10
0
20
0
30
0
70
128
71
-2
72
4
73
1
0
VERTEX
8
OBJECT040
10
0
20
0
30
0
70
128
71
3
72
5
73
-6
0
VERTEX
8
OBJECT040
10
0
20
0
30
0
70
128
71
-3
72
6
73
4
0
VERTEX
8
OBJECT040
10
0
20
0
30
0
70
128
71
8
72
2
73
-1
0
VERTEX
8
OBJECT040
10
0
20
0
30
0
70
128
71
-8
72
1
73
7
0
VERTEX
8
OBJECT040
10
0
20
0
30
0
70
128
71
5
72
8
73
-7
0
VERTEX
8
OBJECT040
10
0
20
0
30
0
70
128
71
-5
72
7
73
6
0
VERTEX
8
OBJECT040
10
0
20
0
30
0
70
128
71
3
72
2
73
-8
0
VERTEX
8
OBJECT040
10
0
20
0
30
0
70
128
71
-3
72
8
73
5
0
VERTEX
8
OBJECT040
10
0
20
0
30
0
70
128
71
1
72
4
73
-6
0
VERTEX
8
OBJECT040
10
0
20
0
30
0
70
128
71
-1
72
6
73
7
0
SEQEND
8
OBJECT040
0
POLYLINE
8
OBJECT041
66
1
70
64
71
8
72
12
62
50
0
VERTEX
8
OBJECT041
10
38.157532
20
-10.950653
30
-23.183674
70
192
0
VERTEX
8
OBJECT041
10
38.157532
20
-10.950653
30
-68.244896
70
192
0
VERTEX
8
OBJECT041
10
37.000000
20
-15.000000
30
-68.244896
70
192
0
VERTEX
8
OBJECT041
10
37.000000
20
-15.000000
30
-23.183674
70
192
0
VERTEX
8
OBJECT041
10
34.457069
20
-19.449646
30
-68.244896
70
192
0
VERTEX
8
OBJECT041
10
34.457069
20
-19.449646
30
-23.183674
70
192
0
VERTEX
8
OBJECT041
10
25.900002
20
10.500000
30
-68.244896
70
192
0
VERTEX
8
OBJECT041
10
25.900673
20
10.497650
30
-23.183674
70
192
0
VERTEX
8
OBJECT041
10
0
20
0
30
0
70
128
71
2
72
3
73
-4
0
VERTEX
8
OBJECT041
10
0
20
0
30
0
70
128
71
-2
72
4
73
1
0
VERTEX
8
OBJECT041
10
0
20
0
30
0
70
128
71
3
72
5
73
-6
0
VERTEX
8
OBJECT041
10
0
20
0
30
0
70
128
71
-3
72
6
73
4
0
VERTEX
8
OBJECT041
10
0
20
0
30
0
70
128
71
3
72
2
73
-7
0
VERTEX
8
OBJECT041
10
0
20
0
30
0
70
128
71
-3
72
7
73
5
0
VERTEX
8
OBJECT041
10
0
20
0
30
0
70
128
71
7
72
2
73
-1
0
VERTEX
8
OBJECT041
10
0
20
0
30
0
70
128
71
-7
72
1
73
8
0
VERTEX
8
OBJECT041
10
0
20
0
30
0
70
128
71
5
72
7
73
-8
0
VERTEX
8
OBJECT041
10
0
20
0
30
0
70
128
71
-5
72
8
73
6
0
VERTEX
8
OBJECT041
10
0
20
0
30
0
70
128
71
1
72
4
73
-6
0
VERTEX
8
OBJECT041
10
0
20
0
30
0
70
128
71
-1
72
6
73
8
0
SEQEND
8
OBJECT041
0
POLYLINE
8
OBJECT042
66
1
70
64
71
6
72
8
62
50
0
VERTEX
8
OBJECT042
10
25.900879
20
10.497314
30
8.163265
70
192
0
VERTEX
8
OBJECT042
10
25.900879
20
10.497314
30
-23.183674
70
192
0
VERTEX
8
OBJECT042
10
27.327919
20
8.000000
30
-23.183674
70
192
0
VERTEX
8
OBJECT042
10
27.327919
20
8.000000
30
8.163265
70
192
0
VERTEX
8
OBJECT042
10
26.614479
20
8.000000
30
-23.183674
70
192
0
VERTEX
8
OBJECT042
10
26.614479
20
8.000000
30
8.163265
70
192
0
VERTEX
8
OBJECT042
10
0
20
0
30
0
70
128
71
2
72
3
73
-4
0
VERTEX
8
OBJECT042
10
0
20
0
30
0
70
128
71
-2
72
4
73
1
0
VERTEX
8
OBJECT042
10
0
20
0
30
0
70
128
71
2
72
1
73
-6
0
VERTEX
8
OBJECT042
10
0
20
0
30
0
70
128
71
-2
72
6
73
5
0
VERTEX
8
OBJECT042
10
0
20
0
30
0
70
128
71
1
72
4
73
6
0
VERTEX
8
OBJECT042
10
0
20
0
30
0
70
128
71
2
72
5
73
3
0
VERTEX
8
OBJECT042
10
0
20
0
30
0
70
128
71
3
72
5
73
-6
0
VERTEX
8
OBJECT042
10
0
20
0
30
0
70
128
71
-3
72
6
73
4
0
SEQEND
8
OBJECT042
0
POLYLINE
8
OBJECT043
66
1
70
64
71
10
72
16
62
50
0
VERTEX
8
OBJECT043
10
38.157532
20
-10.950653
30
8.163265
70
192
0
VERTEX
8
OBJECT043
10
38.157532
20
-10.950653
30
-23.183674
70
192
0
VERTEX
8
OBJECT043
10
37.000000
20
-15.000000
30
-23.183674
70
192
0
VERTEX
8
OBJECT043
10
37.000000
20
-15.000000
30
8.163265
70
192
0
VERTEX
8
OBJECT043
10
34.457069
20
-19.449646
30
-23.183674
70
192
0
VERTEX
8
OBJECT043
10
34.457069
20
-19.449646
30
8.163265
70
192
0
VERTEX
8
OBJECT043
10
36.470787
20
-8.000000
30
-23.183674
70
192
0
VERTEX
8
OBJECT043
10
36.470787
20
-8.000000
30
8.163265
70
192
0
VERTEX
8
OBJECT043
10
31.185913
20
-8.000000
30
-23.183674
70
192
0
VERTEX
8
OBJECT043
10
31.185913
20
-8.000000
30
8.163265
70
192
0
VERTEX
8
OBJECT043
10
0
20
0
30
0
70
128
71
2
72
3
73
-4
0
VERTEX
8
OBJECT043
10
0
20
0
30
0
70
128
71
-2
72
4
73
1
0
VERTEX
8
OBJECT043
10
0
20
0
30
0
70
128
71
3
72
5
73
-6
0
VERTEX
8
OBJECT043
10
0
20
0
30
0
70
128
71
-3
72
6
73
4
0
VERTEX
8
OBJECT043
10
0
20
0
30
0
70
128
71
2
72
1
73
-8
0
VERTEX
8
OBJECT043
10
0
20
0
30
0
70
128
71
-2
72
8
73
7
0
VERTEX
8
OBJECT043
10
0
20
0
30
0
70
128
71
5
72
9
73
-10
0
VERTEX
8
OBJECT043
10
0
20
0
30
0
70
128
71
-5
72
10
73
6
0
VERTEX
8
OBJECT043
10
0
20
0
30
0
70
128
71
1
72
4
73
-6
0
VERTEX
8
OBJECT043
10
0
20
0
30
0
70
128
71
-1
72
6
73
-10
0
VERTEX
8
OBJECT043
10
0
20
0
30
0
70
128
71
-1
72
10
73
8
0
VERTEX
8
OBJECT043
10
0
20
0
30
0
70
128
71
3
72
2
73
-7
0
VERTEX
8
OBJECT043
10
0
20
0
30
0
70
128
71
-3
72
7
73
-9
0
VERTEX
8
OBJECT043
10
0
20
0
30
0
70
128
71
-3
72
9
73
5
0
VERTEX
8
OBJECT043
10
0
20
0
30
0
70
128
71
9
72
7
73
-8
0
VERTEX
8
OBJECT043
10
0
20
0
30
0
70
128
71
-9
72
8
73
10
0
SEQEND
8
OBJECT043
0
POLYLINE
8
OBJECT044
66
1
70
64
71
8
72
12
62
50
0
VERTEX
8
OBJECT044
10
34.457413
20
-19.450104
30
16.000000
70
192
0
VERTEX
8
OBJECT044
10
34.457413
20
-19.450104
30
8.163265
70
192
0
VERTEX
8
OBJECT044
10
33.000000
20
-22.000000
30
8.163265
70
192
0
VERTEX
8
OBJECT044
10
33.000000
20
-22.000000
30
16.000000
70
192
0
VERTEX
8
OBJECT044
10
31.043495
20
-24.346375
30
8.163265
70
192
0
VERTEX
8
OBJECT044
10
31.043495
20
-24.346375
30
16.000000
70
192
0
VERTEX
8
OBJECT044
10
27.299873
20
5.602997
30
16.000000
70
192
0
VERTEX
8
OBJECT044
10
27.299873
20
5.602997
30
8.163265
70
192
0
VERTEX
8
OBJECT044
10
0
20
0
30
0
70
128
71
2
72
3
73
-4
0
VERTEX
8
OBJECT044
10
0
20
0
30
0
70
128
71
-2
72
4
73
1
0
VERTEX
8
OBJECT044
10
0
20
0
30
0
70
128
71
3
72
5
73
-6
0
VERTEX
8
OBJECT044
10
0
20
0
30
0
70
128
71
-3
72
6
73
4
0
VERTEX
8
OBJECT044
10
0
20
0
30
0
70
128
71
8
72
2
73
-1
0
VERTEX
8
OBJECT044
10
0
20
0
30
0
70
128
71
-8
72
1
73
7
0
VERTEX
8
OBJECT044
10
0
20
0
30
0
70
128
71
5
72
8
73
-7
0
VERTEX
8
OBJECT044
10
0
20
0
30
0
70
128
71
-5
72
7
73
6
0
VERTEX
8
OBJECT044
10
0
20
0
30
0
70
128
71
3
72
2
73
-8
0
VERTEX
8
OBJECT044
10
0
20
0
30
0
70
128
71
-3
72
8
73
5
0
VERTEX
8
OBJECT044
10
0
20
0
30
0
70
128
71
1
72
4
73
-6
0
VERTEX
8
OBJECT044
10
0
20
0
30
0
70
128
71
-1
72
6
73
7
0
SEQEND
8
OBJECT044
0
POLYLINE
8
OBJECT045
66
1
70
64
71
8
72
12
62
50
0
VERTEX
8
OBJECT045
10
34.457069
20
-19.449677
30
-23.183674
70
192
0
VERTEX
8
OBJECT045
10
34.457069
20
-19.449677
30
-68.244896
70
192
0
VERTEX
8
OBJECT045
10
33.000000
20
-22.000000
30
-68.244896
70
192
0
VERTEX
8
OBJECT045
10
33.000000
20
-22.000000
30
-23.183674
70
192
0
VERTEX
8
OBJECT045
10
31.043205
20
-24.345795
30
-68.244896
70
192
0
VERTEX
8
OBJECT045
10
31.043205
20
-24.345795
30
-23.183674
70
192
0
VERTEX
8
OBJECT045
10
27.299995
20
5.600067
30
-68.244896
70
192
0
VERTEX
8
OBJECT045
10
27.299850
20
5.601196
30
-23.183674
70
192
0
VERTEX
8
OBJECT045
10
0
20
0
30
0
70
128
71
2
72
3
73
-4
0
VERTEX
8
OBJECT045
10
0
20
0
30
0
70
128
71
-2
72
4
73
1
0
VERTEX
8
OBJECT045
10
0
20
0
30
0
70
128
71
3
72
5
73
-6
0
VERTEX
8
OBJECT045
10
0
20
0
30
0
70
128
71
-3
72
6
73
4
0
VERTEX
8
OBJECT045
10
0
20
0
30
0
70
128
71
3
72
2
73
-7
0
VERTEX
8
OBJECT045
10
0
20
0
30
0
70
128
71
-3
72
7
73
5
0
VERTEX
8
OBJECT045
10
0
20
0
30
0
70
128
71
7
72
2
73
-1
0
VERTEX
8
OBJECT045
10
0
20
0
30
0
70
128
71
-7
72
1
73
8
0
VERTEX
8
OBJECT045
10
0
20
0
30
0
70
128
71
5
72
7
73
-8
0
VERTEX
8
OBJECT045
10
0
20
0
30
0
70
128
71
-5
72
8
73
6
0
VERTEX
8
OBJECT045
10
0
20
0
30
0
70
128
71
1
72
4
73
-6
0
VERTEX
8
OBJECT045
10
0
20
0
30
0
70
128
71
-1
72
6
73
8
0
SEQEND
8
OBJECT045
0
POLYLINE
8
OBJECT046
66
1
70
64
71
10
72
16
62
50
0
VERTEX
8
OBJECT046
10
34.457069
20
-19.449677
30
8.163265
70
192
0
VERTEX
8
OBJECT046
10
34.457069
20
-19.449677
30
-23.183674
70
192
0
VERTEX
8
OBJECT046
10
33.000000
20
-22.000000
30
-23.183674
70
192
0
VERTEX
8
OBJECT046
10
33.000000
20
-22.000000
30
8.163265
70
192
0
VERTEX
8
OBJECT046
10
31.043205
20
-24.345795
30
-23.183674
70
192
0
VERTEX
8
OBJECT046
10
31.043205
20
-24.345795
30
8.163265
70
192
0
VERTEX
8
OBJECT046
10
31.185913
20
-8.000000
30
-23.183674
70
192
0
VERTEX
8
OBJECT046
10
31.185913
20
-8.000000
30
8.163265
70
192
0
VERTEX
8
OBJECT046
10
29.000000
20
-8.000000
30
-23.183674
70
192
0
VERTEX
8
OBJECT046
10
29.000000
20
-8.000000
30
8.163265
70
192
0
VERTEX
8
OBJECT046
10
0
20
0
30
0
70
128
71
2
72
3
73
-4
0
VERTEX
8
OBJECT046
10
0
20
0
30
0
70
128
71
-2
72
4
73
1
0
VERTEX
8
OBJECT046
10
0
20
0
30
0
70
128
71
3
72
5
73
-6
0
VERTEX
8
OBJECT046
10
0
20
0
30
0
70
128
71
-3
72
6
73
4
0
VERTEX
8
OBJECT046
10
0
20
0
30
0
70
128
71
2
72
1
73
-8
0
VERTEX
8
OBJECT046
10
0
20
0
30
0
70
128
71
-2
72
8
73
7
0
VERTEX
8
OBJECT046
10
0
20
0
30
0
70
128
71
5
72
9
73
-10
0
VERTEX
8
OBJECT046
10
0
20
0
30
0
70
128
71
-5
72
10
73
6
0
VERTEX
8
OBJECT046
10
0
20
0
30
0
70
128
71
1
72
4
73
-6
0
VERTEX
8
OBJECT046
10
0
20
0
30
0
70
128
71
-1
72
6
73
-10
0
VERTEX
8
OBJECT046
10
0
20
0
30
0
70
128
71
-1
72
10
73
8
0
VERTEX
8
OBJECT046
10
0
20
0
30
0
70
128
71
3
72
2
73
-7
0
VERTEX
8
OBJECT046
10
0
20
0
30
0
70
128
71
-3
72
7
73
-9
0
VERTEX
8
OBJECT046
10
0
20
0
30
0
70
128
71
-3
72
9
73
5
0
VERTEX
8
OBJECT046
10
0
20
0
30
0
70
128
71
9
72
7
73
-8
0
VERTEX
8
OBJECT046
10
0
20
0
30
0
70
128
71
-9
72
8
73
10
0
SEQEND
8
OBJECT046
0
POLYLINE
8
OBJECT047
66
1
70
64
71
8
72
12
62
50
0
VERTEX
8
OBJECT047
10
31.043114
20
-24.343262
30
16.000000
70
192
0
VERTEX
8
OBJECT047
10
31.043114
20
-24.343262
30
8.163265
70
192
0
VERTEX
8
OBJECT047
10
28.000000
20
-28.000000
30
8.163265
70
192
0
VERTEX
8
OBJECT047
10
28.000000
20
-28.000000
30
16.000000
70
192
0
VERTEX
8
OBJECT047
10
24.092613
20
-31.256714
30
8.163265
70
192
0
VERTEX
8
OBJECT047
10
24.092613
20
-31.256714
30
16.000000
70
192
0
VERTEX
8
OBJECT047
10
28.000000
20
0.000000
30
16.000000
70
192
0
VERTEX
8
OBJECT047
10
28.000000
20
0.000000
30
8.163265
70
192
0
VERTEX
8
OBJECT047
10
0
20
0
30
0
70
128
71
2
72
3
73
-4
0
VERTEX
8
OBJECT047
10
0
20
0
30
0
70
128
71
-2
72
4
73
1
0
VERTEX
8
OBJECT047
10
0
20
0
30
0
70
128
71
3
72
5
73
-6
0
VERTEX
8
OBJECT047
10
0
20
0
30
0
70
128
71
-3
72
6
73
4
0
VERTEX
8
OBJECT047
10
0
20
0
30
0
70
128
71
8
72
2
73
-1
0
VERTEX
8
OBJECT047
10
0
20
0
30
0
70
128
71
-8
72
1
73
7
0
VERTEX
8
OBJECT047
10
0
20
0
30
0
70
128
71
5
72
8
73
-7
0
VERTEX
8
OBJECT047
10
0
20
0
30
0
70
128
71
-5
72
7
73
6
0
VERTEX
8
OBJECT047
10
0
20
0
30
0
70
128
71
3
72
2
73
-8
0
VERTEX
8
OBJECT047
10
0
20
0
30
0
70
128
71
-3
72
8
73
5
0
VERTEX
8
OBJECT047
10
0
20
0
30
0
70
128
71
1
72
4
73
-6
0
VERTEX
8
OBJECT047
10
0
20
0
30
0
70
128
71
-1
72
6
73
7
0
SEQEND
8
OBJECT047
0
POLYLINE
8
OBJECT048
66
1
70
64
71
8
72
12
62
50
0
VERTEX
8
OBJECT048
10
31.043205
20
-24.345795
30
-23.183674
70
192
0
VERTEX
8
OBJECT048
10
31.043205
20
-24.345795
30
-68.244896
70
192
0
VERTEX
8
OBJECT048
10
28.000000
20
-28.000000
30
-68.244896
70
192
0
VERTEX
8
OBJECT048
10
28.000000
20
-28.000000
30
-23.183674
70
192
0
VERTEX
8
OBJECT048
10
24.092957
20
-31.256500
30
-68.244896
70
192
0
VERTEX
8
OBJECT048
10
24.092957
20
-31.256500
30
-23.183674
70
192
0
VERTEX
8
OBJECT048
10
28.000000
20
0.000000
30
-68.244896
70
192
0
VERTEX
8
OBJECT048
10
28.000000
20
0.000000
30
-23.183674
70
192
0
VERTEX
8
OBJECT048
10
0
20
0
30
0
70
128
71
2
72
3
73
-4
0
VERTEX
8
OBJECT048
10
0
20
0
30
0
70
128
71
-2
72
4
73
1
0
VERTEX
8
OBJECT048
10
0
20
0
30
0
70
128
71
3
72
5
73
-6
0
VERTEX
8
OBJECT048
10
0
20
0
30
0
70
128
71
-3
72
6
73
4
0
VERTEX
8
OBJECT048
10
0
20
0
30
0
70
128
71
3
72
2
73
-7
0
VERTEX
8
OBJECT048
10
0
20
0
30
0
70
128
71
-3
72
7
73
5
0
VERTEX
8
OBJECT048
10
0
20
0
30
0
70
128
71
7
72
2
73
-1
0
VERTEX
8
OBJECT048
10
0
20
0
30
0
70
128
71
-7
72
1
73
8
0
VERTEX
8
OBJECT048
10
0
20
0
30
0
70
128
71
5
72
7
73
-8
0
VERTEX
8
OBJECT048
10
0
20
0
30
0
70
128
71
-5
72
8
73
6
0
VERTEX
8
OBJECT048
10
0
20
0
30
0
70
128
71
1
72
4
73
-6
0
VERTEX
8
OBJECT048
10
0
20
0
30
0
70
128
71
-1
72
6
73
8
0
SEQEND
8
OBJECT048
0
POLYLINE
8
OBJECT049
66
1
70
64
71
10
72
16
62
50
0
VERTEX
8
OBJECT049
10
31.043205
20
-24.345795
30
8.163265
70
192
0
VERTEX
8
OBJECT049
10
31.043205
20
-24.345795
30
-23.183674
70
192
0
VERTEX
8
OBJECT049
10
28.000000
20
-28.000000
30
-23.183674
70
192
0
VERTEX
8
OBJECT049
10
28.000000
20
-28.000000
30
8.163265
70
192
0
VERTEX
8
OBJECT049
10
24.092957
20
-31.256500
30
-23.183674
70
192
0
VERTEX
8
OBJECT049
10
24.092957
20
-31.256500
30
8.163265
70
192
0
VERTEX
8
OBJECT049
10
29.000000
20
-8.000000
30
-23.183674
70
192
0
VERTEX
8
OBJECT049
10
29.000000
20
-8.000000
30
8.163265
70
192
0
VERTEX
8
OBJECT049
10
27.000000
20
-8.000000
30
-23.183674
70
192
0
VERTEX
8
OBJECT049
10
27.000000
20
-8.000000
30
8.163265
70
192
0
VERTEX
8
OBJECT049
10
0
20
0
30
0
70
128
71
2
72
3
73
-4
0
VERTEX
8
OBJECT049
10
0
20
0
30
0
70
128
71
-2
72
4
73
1
0
VERTEX
8
OBJECT049
10
0
20
0
30
0
70
128
71
3
72
5
73
-6
0
VERTEX
8
OBJECT049
10
0
20
0
30
0
70
128
71
-3
72
6
73
4
0
VERTEX
8
OBJECT049
10
0
20
0
30
0
70
128
71
2
72
1
73
-8
0
VERTEX
8
OBJECT049
10
0
20
0
30
0
70
128
71
-2
72
8
73
7
0
VERTEX
8
OBJECT049
10
0
20
0
30
0
70
128
71
5
72
9
73
-10
0
VERTEX
8
OBJECT049
10
0
20
0
30
0
70
128
71
-5
72
10
73
6
0
VERTEX
8
OBJECT049
10
0
20
0
30
0
70
128
71
1
72
4
73
-6
0
VERTEX
8
OBJECT049
10
0
20
0
30
0
70
128
71
-1
72
6
73
-10
0
VERTEX
8
OBJECT049
10
0
20
0
30
0
70
128
71
-1
72
10
73
8
0
VERTEX
8
OBJECT049
10
0
20
0
30
0
70
128
71
3
72
2
73
-7
0
VERTEX
8
OBJECT049
10
0
20
0
30
0
70
128
71
-3
72
7
73
-9
0
VERTEX
8
OBJECT049
10
0
20
0
30
0
70
128
71
-3
72
9
73
5
0
VERTEX
8
OBJECT049
10
0
20
0
30
0
70
128
71
9
72
7
73
-8
0
VERTEX
8
OBJECT049
10
0
20
0
30
0
70
128
71
-9
72
8
73
10
0
SEQEND
8
OBJECT049
0
POLYLINE
8
OBJECT050
66
1
70
64
71
8
72
12
62
50
0
VERTEX
8
OBJECT050
10
24.092934
20
-31.254333
30
16.000000
70
192
0
VERTEX
8
OBJECT050
10
24.092934
20
-31.254333
30
8.163265
70
192
0
VERTEX
8
OBJECT050
10
21.989578
20
-33.000000
30
8.163265
70
192
0
VERTEX
8
OBJECT050
10
21.989578
20
-33.000000
30
16.000000
70
192
0
VERTEX
8
OBJECT050
10
18.976929
20
-34.729004
30
8.163265
70
192
0
VERTEX
8
OBJECT050
10
18.976929
20
-34.729004
30
16.000000
70
192
0
VERTEX
8
OBJECT050
10
27.299690
20
-5.599121
30
16.000000
70
192
0
VERTEX
8
OBJECT050
10
27.299690
20
-5.599121
30
8.163265
70
192
0
VERTEX
8
OBJECT050
10
0
20
0
30
0
70
128
71
2
72
3
73
-4
0
VERTEX
8
OBJECT050
10
0
20
0
30
0
70
128
71
-2
72
4
73
1
0
VERTEX
8
OBJECT050
10
0
20
0
30
0
70
128
71
3
72
5
73
-6
0
VERTEX
8
OBJECT050
10
0
20
0
30
0
70
128
71
-3
72
6
73
4
0
VERTEX
8
OBJECT050
10
0
20
0
30
0
70
128
71
8
72
2
73
-1
0
VERTEX
8
OBJECT050
10
0
20
0
30
0
70
128
71
-8
72
1
73
7
0
VERTEX
8
OBJECT050
10
0
20
0
30
0
70
128
71
5
72
8
73
-7
0
VERTEX
8
OBJECT050
10
0
20
0
30
0
70
128
71
-5
72
7
73
6
0
VERTEX
8
OBJECT050
10
0
20
0
30
0
70
128
71
3
72
2
73
-8
0
VERTEX
8
OBJECT050
10
0
20
0
30
0
70
128
71
-3
72
8
73
5
0
VERTEX
8
OBJECT050
10
0
20
0
30
0
70
128
71
4
72
6
73
-7
0
VERTEX
8
OBJECT050
10
0
20
0
30
0
70
128
71
-4
72
7
73
1
0
SEQEND
8
OBJECT050
0
POLYLINE
8
OBJECT051
66
1
70
64
71
8
72
12
62
50
0
VERTEX
8
OBJECT051
10
24.092957
20
-31.256531
30
-23.183674
70
192
0
VERTEX
8
OBJECT051
10
24.092957
20
-31.256531
30
-68.244896
70
192
0
VERTEX
8
OBJECT051
10
22.000000
20
-33.000000
30
-68.244896
70
192
0
VERTEX
8
OBJECT051
10
22.000000
20
-33.000000
30
-23.183674
70
192
0
VERTEX
8
OBJECT051
10
18.978035
20
-34.726837
30
-68.244896
70
192
0
VERTEX
8
OBJECT051
10
18.978035
20
-34.726837
30
-23.183674
70
192
0
VERTEX
8
OBJECT051
10
27.300003
20
-5.600006
30
-68.244896
70
192
0
VERTEX
8
OBJECT051
10
27.299622
20
-5.601349
30
-23.183674
70
192
0
VERTEX
8
OBJECT051
10
0
20
0
30
0
70
128
71
2
72
3
73
-4
0
VERTEX
8
OBJECT051
10
0
20
0
30
0
70
128
71
-2
72
4
73
1
0
VERTEX
8
OBJECT051
10
0
20
0
30
0
70
128
71
3
72
5
73
-6
0
VERTEX
8
OBJECT051
10
0
20
0
30
0
70
128
71
-3
72
6
73
4
0
VERTEX
8
OBJECT051
10
0
20
0
30
0
70
128
71
3
72
2
73
-7
0
VERTEX
8
OBJECT051
10
0
20
0
30
0
70
128
71
-3
72
7
73
5
0
VERTEX
8
OBJECT051
10
0
20
0
30
0
70
128
71
7
72
2
73
-1
0
VERTEX
8
OBJECT051
10
0
20
0
30
0
70
128
71
-7
72
1
73
8
0
VERTEX
8
OBJECT051
10
0
20
0
30
0
70
128
71
5
72
7
73
-8
0
VERTEX
8
OBJECT051
10
0
20
0
30
0
70
128
71
-5
72
8
73
6
0
VERTEX
8
OBJECT051
10
0
20
0
30
0
70
128
71
4
72
6
73
-8
0
VERTEX
8
OBJECT051
10
0
20
0
30
0
70
128
71
-4
72
8
73
1
0
SEQEND
8
OBJECT051
0
POLYLINE
8
OBJECT052
66
1
70
64
71
6
72
8
62
50
0
VERTEX
8
OBJECT052
10
20.000000
20
-34.142853
30
-23.183674
70
192
0
VERTEX
8
OBJECT052
10
18.978661
20
-34.726471
30
-23.183674
70
192
0
VERTEX
8
OBJECT052
10
18.978661
20
-34.726471
30
8.163265
70
192
0
VERTEX
8
OBJECT052
10
20.000000
20
-34.142853
30
8.163265
70
192
0
VERTEX
8
OBJECT052
10
20.000000
20
-31.148468
30
-23.183674
70
192
0
VERTEX
8
OBJECT052
10
20.000000
20
-31.148468
30
8.163265
70
192
0
VERTEX
8
OBJECT052
10
0
20
0
30
0
70
128
71
2
72
3
73
-4
0
VERTEX
8
OBJECT052
10
0
20
0
30
0
70
128
71
-2
72
4
73
1
0
VERTEX
8
OBJECT052
10
0
20
0
30
0
70
128
71
2
72
5
73
-6
0
VERTEX
8
OBJECT052
10
0
20
0
30
0
70
128
71
-2
72
6
73
3
0
VERTEX
8
OBJECT052
10
0
20
0
30
0
70
128
71
3
72
6
73
4
0
VERTEX
8
OBJECT052
10
0
20
0
30
0
70
128
71
2
72
1
73
5
0
VERTEX
8
OBJECT052
10
0
20
0
30
0
70
128
71
5
72
1
73
-4
0
VERTEX
8
OBJECT052
10
0
20
0
30
0
70
128
71
-5
72
4
73
6
0
SEQEND
8
OBJECT052
0
POLYLINE
8
OBJECT053
66
1
70
64
71
12
72
20
62
50
0
VERTEX
8
OBJECT053
10
24.092957
20
-31.256531
30
8.163265
70
192
0
VERTEX
8
OBJECT053
10
24.092957
20
-31.256531
30
-23.183674
70
192
0
VERTEX
8
OBJECT053
10
22.000000
20
-33.000000
30
-23.183674
70
192
0
VERTEX
8
OBJECT053
10
22.000000
20
-33.000000
30
8.163265
70
192
0
VERTEX
8
OBJECT053
10
20.000000
20
-34.142853
30
-23.183674
70
192
0
VERTEX
8
OBJECT053
10
20.000000
20
-34.142853
30
8.163265
70
192
0
VERTEX
8
OBJECT053
10
27.000000
20
-8.000000
30
-23.183674
70
192
0
VERTEX
8
OBJECT053
10
27.000000
20
-8.000000
30
8.163265
70
192
0
VERTEX
8
OBJECT053
10
20.000000
20
-31.148499
30
-23.183674
70
192
0
VERTEX
8
OBJECT053
10
26.613869
20
-8.000000
30
-23.183674
70
192
0
VERTEX
8
OBJECT053
10
26.613869
20
-8.000000
30
8.163265
70
192
0
VERTEX
8
OBJECT053
10
20.000000
20
-31.148499
30
8.163265
70
192
0
VERTEX
8
OBJECT053
10
0
20
0
30
0
70
128
71
2
72
3
73
-4
0
VERTEX
8
OBJECT053
10
0
20
0
30
0
70
128
71
-2
72
4
73
1
0
VERTEX
8
OBJECT053
10
0
20
0
30
0
70
128
71
3
72
5
73
-6
0
VERTEX
8
OBJECT053
10
0
20
0
30
0
70
128
71
-3
72
6
73
4
0
VERTEX
8
OBJECT053
10
0
20
0
30
0
70
128
71
2
72
1
73
-8
0
VERTEX
8
OBJECT053
10
0
20
0
30
0
70
128
71
-2
72
8
73
7
0
VERTEX
8
OBJECT053
10
0
20
0
30
0
70
128
71
10
72
11
73
-12
0
VERTEX
8
OBJECT053
10
0
20
0
30
0
70
128
71
-10
72
12
73
9
0
VERTEX
8
OBJECT053
10
0
20
0
30
0
70
128
71
4
72
6
73
-12
0
VERTEX
8
OBJECT053
10
0
20
0
30
0
70
128
71
-4
72
12
73
-11
0
VERTEX
8
OBJECT053
10
0
20
0
30
0
70
128
71
-4
72
11
73
-8
0
VERTEX
8
OBJECT053
10
0
20
0
30
0
70
128
71
-4
72
8
73
1
0
VERTEX
8
OBJECT053
10
0
20
0
30
0
70
128
71
3
72
2
73
-7
0
VERTEX
8
OBJECT053
10
0
20
0
30
0
70
128
71
-3
72
7
73
-10
0
VERTEX
8
OBJECT053
10
0
20
0
30
0
70
128
71
-3
72
10
73
-9
0
VERTEX
8
OBJECT053
10
0
20
0
30
0
70
128
71
-3
72
9
73
5
0
VERTEX
8
OBJECT053
10
0
20
0
30
0
70
128
71
5
72
9
73
-12
0
VERTEX
8
OBJECT053
10
0
20
0
30
0
70
128
71
-5
72
12
73
6
0
VERTEX
8
OBJECT053
10
0
20
0
30
0
70
128
71
10
72
7
73
-8
0
VERTEX
8
OBJECT053
10
0
20
0
30
0
70
128
71
-10
72
8
73
11
0
SEQEND
8
OBJECT053
0
ENDSEC
0
EOF
