0
SECTION
2
HEADER
9
$ACADVER
1
AC1008
9
$UCSORG
10
0.0
20
0.0
30
0.0
9
$UCSXDIR
10
1.0
20
0.0
30
0.0
9
$TILEMODE
70
1
9
$UCSYDIR
10
0.0
20
1.0
30
0.0
9
$EXTMIN
10
-48.000000
20
-48.000000
30
-40.000000
9
$EXTMAX
10
16.000002
20
16.000000
30
7.999999
0
ENDSEC
0
SECTION
2
TABLES
0
TABLE
2
LTYPE
70
1
0
LTYPE
2
CONTINUOUS
70
64
3
Solid line
72
65
73
0
40
0.0
0
ENDTAB
0
TABLE
2
LAYER
70
1
0
LAYER
2
0
70
0
62
7
6
CONTINUOUS
0
ENDTAB
0
TABLE
2
STYLE
70
1
0
STYLE
2
STANDARD
70
0
40
0.0
41
1.0
50
0.0
71
0
42
0.2
3
txt
4

0
ENDTAB
0
TABLE
2
UCS
70
0
0
ENDTAB
0
ENDSEC
0
SECTION
2
ENTITIES
0
POLYLINE
8
OBJECT000
66
1
70
64
71
8
72
12
62
50
0
VERTEX
8
OBJECT000
10
16.000002
20
-17.032257
30
6.285713
70
192
0
VERTEX
8
OBJECT000
10
8.242426
20
-17.032257
30
-16.000002
70
192
0
VERTEX
8
OBJECT000
10
4.363638
20
-17.032257
30
-14.285715
70
192
0
VERTEX
8
OBJECT000
10
12.121214
20
-17.032257
30
7.999999
70
192
0
VERTEX
8
OBJECT000
10
12.121214
20
11.870968
30
7.999999
70
192
0
VERTEX
8
OBJECT000
10
4.363638
20
11.870968
30
-14.285715
70
192
0
VERTEX
8
OBJECT000
10
8.242426
20
11.870968
30
-16.000002
70
192
0
VERTEX
8
OBJECT000
10
16.000002
20
11.870968
30
6.285713
70
192
0
VERTEX
8
OBJECT000
10
0
20
0
30
0
70
128
71
2
72
3
73
-4
0
VERTEX
8
OBJECT000
10
0
20
0
30
0
70
128
71
-2
72
4
73
1
0
VERTEX
8
OBJECT000
10
0
20
0
30
0
70
128
71
6
72
7
73
-8
0
VERTEX
8
OBJECT000
10
0
20
0
30
0
70
128
71
-6
72
8
73
5
0
VERTEX
8
OBJECT000
10
0
20
0
30
0
70
128
71
6
72
3
73
-2
0
VERTEX
8
OBJECT000
10
0
20
0
30
0
70
128
71
-6
72
2
73
7
0
VERTEX
8
OBJECT000
10
0
20
0
30
0
70
128
71
3
72
6
73
-5
0
VERTEX
8
OBJECT000
10
0
20
0
30
0
70
128
71
-3
72
5
73
4
0
VERTEX
8
OBJECT000
10
0
20
0
30
0
70
128
71
7
72
2
73
-1
0
VERTEX
8
OBJECT000
10
0
20
0
30
0
70
128
71
-7
72
1
73
8
0
VERTEX
8
OBJECT000
10
0
20
0
30
0
70
128
71
4
72
5
73
-8
0
VERTEX
8
OBJECT000
10
0
20
0
30
0
70
128
71
-4
72
8
73
1
0
SEQEND
8
OBJECT000
0
POLYLINE
8
OBJECT001
66
1
70
64
71
8
72
12
62
50
0
VERTEX
8
OBJECT001
10
8.242426
20
-6.709677
30
-16.000002
70
192
0
VERTEX
8
OBJECT001
10
7.272729
20
-6.709677
30
-19.428574
70
192
0
VERTEX
8
OBJECT001
10
5.333335
20
-6.709677
30
-19.428574
70
192
0
VERTEX
8
OBJECT001
10
6.303032
20
-6.709677
30
-15.142859
70
192
0
VERTEX
8
OBJECT001
10
6.303032
20
1.548388
30
-15.142859
70
192
0
VERTEX
8
OBJECT001
10
5.333335
20
1.548388
30
-19.428574
70
192
0
VERTEX
8
OBJECT001
10
7.272729
20
1.548388
30
-19.428574
70
192
0
VERTEX
8
OBJECT001
10
8.242426
20
1.548388
30
-16.000002
70
192
0
VERTEX
8
OBJECT001
10
0
20
0
30
0
70
128
71
2
72
3
73
-4
0
VERTEX
8
OBJECT001
10
0
20
0
30
0
70
128
71
-2
72
4
73
1
0
VERTEX
8
OBJECT001
10
0
20
0
30
0
70
128
71
6
72
7
73
-8
0
VERTEX
8
OBJECT001
10
0
20
0
30
0
70
128
71
-6
72
8
73
5
0
VERTEX
8
OBJECT001
10
0
20
0
30
0
70
128
71
6
72
3
73
-2
0
VERTEX
8
OBJECT001
10
0
20
0
30
0
70
128
71
-6
72
2
73
7
0
VERTEX
8
OBJECT001
10
0
20
0
30
0
70
128
71
3
72
6
73
-5
0
VERTEX
8
OBJECT001
10
0
20
0
30
0
70
128
71
-3
72
5
73
4
0
VERTEX
8
OBJECT001
10
0
20
0
30
0
70
128
71
7
72
2
73
-1
0
VERTEX
8
OBJECT001
10
0
20
0
30
0
70
128
71
-7
72
1
73
8
0
VERTEX
8
OBJECT001
10
0
20
0
30
0
70
128
71
4
72
5
73
-8
0
VERTEX
8
OBJECT001
10
0
20
0
30
0
70
128
71
-4
72
8
73
1
0
SEQEND
8
OBJECT001
0
POLYLINE
8
OBJECT002
66
1
70
64
71
8
72
12
62
50
0
VERTEX
8
OBJECT002
10
8.242426
20
11.870968
30
-19.428574
70
192
0
VERTEX
8
OBJECT002
10
8.242426
20
11.870968
30
-22.857143
70
192
0
VERTEX
8
OBJECT002
10
8.242426
20
-17.032257
30
-22.857143
70
192
0
VERTEX
8
OBJECT002
10
8.242426
20
-17.032257
30
-19.428574
70
192
0
VERTEX
8
OBJECT002
10
-15.030302
20
-17.032257
30
-22.857143
70
192
0
VERTEX
8
OBJECT002
10
-16.969696
20
-17.032257
30
-19.428574
70
192
0
VERTEX
8
OBJECT002
10
-15.030302
20
11.870968
30
-22.857143
70
192
0
VERTEX
8
OBJECT002
10
-16.969696
20
11.870968
30
-19.428574
70
192
0
VERTEX
8
OBJECT002
10
0
20
0
30
0
70
128
71
2
72
3
73
-4
0
VERTEX
8
OBJECT002
10
0
20
0
30
0
70
128
71
-2
72
4
73
1
0
VERTEX
8
OBJECT002
10
0
20
0
30
0
70
128
71
3
72
5
73
-6
0
VERTEX
8
OBJECT002
10
0
20
0
30
0
70
128
71
-3
72
6
73
4
0
VERTEX
8
OBJECT002
10
0
20
0
30
0
70
128
71
2
72
1
73
-8
0
VERTEX
8
OBJECT002
10
0
20
0
30
0
70
128
71
-2
72
8
73
7
0
VERTEX
8
OBJECT002
10
0
20
0
30
0
70
128
71
3
72
2
73
-7
0
VERTEX
8
OBJECT002
10
0
20
0
30
0
70
128
71
-3
72
7
73
5
0
VERTEX
8
OBJECT002
10
0
20
0
30
0
70
128
71
1
72
4
73
-6
0
VERTEX
8
OBJECT002
10
0
20
0
30
0
70
128
71
-1
72
6
73
8
0
VERTEX
8
OBJECT002
10
0
20
0
30
0
70
128
71
5
72
7
73
-8
0
VERTEX
8
OBJECT002
10
0
20
0
30
0
70
128
71
-5
72
8
73
6
0
SEQEND
8
OBJECT002
0
POLYLINE
8
OBJECT003
66
1
70
64
71
8
72
12
62
50
0
VERTEX
8
OBJECT003
10
-3.393938
20
11.870968
30
-12.571430
70
192
0
VERTEX
8
OBJECT003
10
-3.393938
20
11.870968
30
-22.857143
70
192
0
VERTEX
8
OBJECT003
10
-3.393938
20
13.935484
30
-21.142859
70
192
0
VERTEX
8
OBJECT003
10
-3.393938
20
13.935484
30
-12.571430
70
192
0
VERTEX
8
OBJECT003
10
-1.454544
20
13.935484
30
-12.571430
70
192
0
VERTEX
8
OBJECT003
10
-1.454544
20
13.935484
30
-21.142859
70
192
0
VERTEX
8
OBJECT003
10
-1.454544
20
11.870968
30
-22.857143
70
192
0
VERTEX
8
OBJECT003
10
-1.454544
20
11.870968
30
-12.571430
70
192
0
VERTEX
8
OBJECT003
10
0
20
0
30
0
70
128
71
2
72
3
73
-4
0
VERTEX
8
OBJECT003
10
0
20
0
30
0
70
128
71
-2
72
4
73
1
0
VERTEX
8
OBJECT003
10
0
20
0
30
0
70
128
71
6
72
7
73
-8
0
VERTEX
8
OBJECT003
10
0
20
0
30
0
70
128
71
-6
72
8
73
5
0
VERTEX
8
OBJECT003
10
0
20
0
30
0
70
128
71
7
72
2
73
-1
0
VERTEX
8
OBJECT003
10
0
20
0
30
0
70
128
71
-7
72
1
73
8
0
VERTEX
8
OBJECT003
10
0
20
0
30
0
70
128
71
3
72
6
73
-5
0
VERTEX
8
OBJECT003
10
0
20
0
30
0
70
128
71
-3
72
5
73
4
0
VERTEX
8
OBJECT003
10
0
20
0
30
0
70
128
71
4
72
5
73
-8
0
VERTEX
8
OBJECT003
10
0
20
0
30
0
70
128
71
-4
72
8
73
1
0
VERTEX
8
OBJECT003
10
0
20
0
30
0
70
128
71
2
72
7
73
-6
0
VERTEX
8
OBJECT003
10
0
20
0
30
0
70
128
71
-2
72
6
73
3
0
SEQEND
8
OBJECT003
0
POLYLINE
8
OBJECT004
66
1
70
64
71
8
72
12
62
50
0
VERTEX
8
OBJECT004
10
8.242426
20
16.000000
30
-10.857144
70
192
0
VERTEX
8
OBJECT004
10
8.242426
20
16.000000
30
-12.571430
70
192
0
VERTEX
8
OBJECT004
10
8.242426
20
11.870968
30
-12.571430
70
192
0
VERTEX
8
OBJECT004
10
8.242426
20
11.870968
30
-10.857144
70
192
0
VERTEX
8
OBJECT004
10
-11.151514
20
11.870968
30
-12.571430
70
192
0
VERTEX
8
OBJECT004
10
-11.151514
20
11.870968
30
-10.857144
70
192
0
VERTEX
8
OBJECT004
10
-9.212120
20
16.000000
30
-12.571430
70
192
0
VERTEX
8
OBJECT004
10
-9.212120
20
16.000000
30
-10.857144
70
192
0
VERTEX
8
OBJECT004
10
0
20
0
30
0
70
128
71
2
72
3
73
-4
0
VERTEX
8
OBJECT004
10
0
20
0
30
0
70
128
71
-2
72
4
73
1
0
VERTEX
8
OBJECT004
10
0
20
0
30
0
70
128
71
3
72
5
73
-6
0
VERTEX
8
OBJECT004
10
0
20
0
30
0
70
128
71
-3
72
6
73
4
0
VERTEX
8
OBJECT004
10
0
20
0
30
0
70
128
71
2
72
1
73
-8
0
VERTEX
8
OBJECT004
10
0
20
0
30
0
70
128
71
-2
72
8
73
7
0
VERTEX
8
OBJECT004
10
0
20
0
30
0
70
128
71
3
72
2
73
-7
0
VERTEX
8
OBJECT004
10
0
20
0
30
0
70
128
71
-3
72
7
73
5
0
VERTEX
8
OBJECT004
10
0
20
0
30
0
70
128
71
1
72
4
73
-6
0
VERTEX
8
OBJECT004
10
0
20
0
30
0
70
128
71
-1
72
6
73
8
0
VERTEX
8
OBJECT004
10
0
20
0
30
0
70
128
71
5
72
7
73
-8
0
VERTEX
8
OBJECT004
10
0
20
0
30
0
70
128
71
-5
72
8
73
6
0
SEQEND
8
OBJECT004
0
POLYLINE
8
OBJECT005
66
1
70
64
71
8
72
12
62
50
0
VERTEX
8
OBJECT005
10
8.242426
20
-17.032257
30
-10.857144
70
192
0
VERTEX
8
OBJECT005
10
8.242426
20
-17.032257
30
-12.571430
70
192
0
VERTEX
8
OBJECT005
10
8.242426
20
-21.161289
30
-12.571430
70
192
0
VERTEX
8
OBJECT005
10
8.242426
20
-21.161289
30
-10.857144
70
192
0
VERTEX
8
OBJECT005
10
-9.212120
20
-21.161289
30
-12.571430
70
192
0
VERTEX
8
OBJECT005
10
-9.212120
20
-21.161289
30
-10.857144
70
192
0
VERTEX
8
OBJECT005
10
-11.151514
20
-17.032257
30
-12.571430
70
192
0
VERTEX
8
OBJECT005
10
-11.151514
20
-17.032257
30
-10.857144
70
192
0
VERTEX
8
OBJECT005
10
0
20
0
30
0
70
128
71
2
72
3
73
-4
0
VERTEX
8
OBJECT005
10
0
20
0
30
0
70
128
71
-2
72
4
73
1
0
VERTEX
8
OBJECT005
10
0
20
0
30
0
70
128
71
3
72
5
73
-6
0
VERTEX
8
OBJECT005
10
0
20
0
30
0
70
128
71
-3
72
6
73
4
0
VERTEX
8
OBJECT005
10
0
20
0
30
0
70
128
71
2
72
1
73
-8
0
VERTEX
8
OBJECT005
10
0
20
0
30
0
70
128
71
-2
72
8
73
7
0
VERTEX
8
OBJECT005
10
0
20
0
30
0
70
128
71
3
72
2
73
-7
0
VERTEX
8
OBJECT005
10
0
20
0
30
0
70
128
71
-3
72
7
73
5
0
VERTEX
8
OBJECT005
10
0
20
0
30
0
70
128
71
1
72
4
73
-6
0
VERTEX
8
OBJECT005
10
0
20
0
30
0
70
128
71
-1
72
6
73
8
0
VERTEX
8
OBJECT005
10
0
20
0
30
0
70
128
71
5
72
7
73
-8
0
VERTEX
8
OBJECT005
10
0
20
0
30
0
70
128
71
-5
72
8
73
6
0
SEQEND
8
OBJECT005
0
POLYLINE
8
OBJECT006
66
1
70
64
71
8
72
12
62
50
0
VERTEX
8
OBJECT006
10
-3.393938
20
-19.096773
30
-12.571430
70
192
0
VERTEX
8
OBJECT006
10
-3.393938
20
-19.096773
30
-19.445223
70
192
0
VERTEX
8
OBJECT006
10
-3.393938
20
-17.032257
30
-22.873795
70
192
0
VERTEX
8
OBJECT006
10
-3.393938
20
-17.032257
30
-12.571430
70
192
0
VERTEX
8
OBJECT006
10
-1.454544
20
-17.032257
30
-12.571430
70
192
0
VERTEX
8
OBJECT006
10
-1.454544
20
-17.032257
30
-22.873795
70
192
0
VERTEX
8
OBJECT006
10
-1.454544
20
-19.096773
30
-19.445223
70
192
0
VERTEX
8
OBJECT006
10
-1.454544
20
-19.096773
30
-12.571430
70
192
0
VERTEX
8
OBJECT006
10
0
20
0
30
0
70
128
71
2
72
3
73
-4
0
VERTEX
8
OBJECT006
10
0
20
0
30
0
70
128
71
-2
72
4
73
1
0
VERTEX
8
OBJECT006
10
0
20
0
30
0
70
128
71
6
72
7
73
-8
0
VERTEX
8
OBJECT006
10
0
20
0
30
0
70
128
71
-6
72
8
73
5
0
VERTEX
8
OBJECT006
10
0
20
0
30
0
70
128
71
7
72
2
73
-1
0
VERTEX
8
OBJECT006
10
0
20
0
30
0
70
128
71
-7
72
1
73
8
0
VERTEX
8
OBJECT006
10
0
20
0
30
0
70
128
71
3
72
6
73
-5
0
VERTEX
8
OBJECT006
10
0
20
0
30
0
70
128
71
-3
72
5
73
4
0
VERTEX
8
OBJECT006
10
0
20
0
30
0
70
128
71
4
72
5
73
-8
0
VERTEX
8
OBJECT006
10
0
20
0
30
0
70
128
71
-4
72
8
73
1
0
VERTEX
8
OBJECT006
10
0
20
0
30
0
70
128
71
6
72
3
73
-2
0
VERTEX
8
OBJECT006
10
0
20
0
30
0
70
128
71
-6
72
2
73
7
0
SEQEND
8
OBJECT006
0
POLYLINE
8
OBJECT007
66
1
70
64
71
8
72
12
62
50
0
VERTEX
8
OBJECT007
10
-5.333332
20
-4.645161
30
-22.857143
70
192
0
VERTEX
8
OBJECT007
10
-5.333332
20
-4.645161
30
-38.285717
70
192
0
VERTEX
8
OBJECT007
10
-5.333332
20
-0.516129
30
-38.285717
70
192
0
VERTEX
8
OBJECT007
10
-5.333332
20
-0.516129
30
-22.857143
70
192
0
VERTEX
8
OBJECT007
10
-1.454544
20
-0.516129
30
-22.857143
70
192
0
VERTEX
8
OBJECT007
10
-1.454544
20
-0.516129
30
-38.285717
70
192
0
VERTEX
8
OBJECT007
10
-1.454544
20
-4.645161
30
-38.285717
70
192
0
VERTEX
8
OBJECT007
10
-1.454544
20
-4.645161
30
-22.857143
70
192
0
VERTEX
8
OBJECT007
10
0
20
0
30
0
70
128
71
2
72
3
73
-4
0
VERTEX
8
OBJECT007
10
0
20
0
30
0
70
128
71
-2
72
4
73
1
0
VERTEX
8
OBJECT007
10
0
20
0
30
0
70
128
71
6
72
7
73
-8
0
VERTEX
8
OBJECT007
10
0
20
0
30
0
70
128
71
-6
72
8
73
5
0
VERTEX
8
OBJECT007
10
0
20
0
30
0
70
128
71
7
72
2
73
-1
0
VERTEX
8
OBJECT007
10
0
20
0
30
0
70
128
71
-7
72
1
73
8
0
VERTEX
8
OBJECT007
10
0
20
0
30
0
70
128
71
3
72
6
73
-5
0
VERTEX
8
OBJECT007
10
0
20
0
30
0
70
128
71
-3
72
5
73
4
0
VERTEX
8
OBJECT007
10
0
20
0
30
0
70
128
71
2
72
7
73
-6
0
VERTEX
8
OBJECT007
10
0
20
0
30
0
70
128
71
-2
72
6
73
3
0
VERTEX
8
OBJECT007
10
0
20
0
30
0
70
128
71
4
72
5
73
-8
0
VERTEX
8
OBJECT007
10
0
20
0
30
0
70
128
71
-4
72
8
73
1
0
SEQEND
8
OBJECT007
0
POLYLINE
8
OBJECT008
66
1
70
64
71
8
72
12
62
50
0
VERTEX
8
OBJECT008
10
-32.162228
20
11.870968
30
-38.285717
70
192
0
VERTEX
8
OBJECT008
10
16.000002
20
11.870968
30
-38.285717
70
192
0
VERTEX
8
OBJECT008
10
16.000002
20
-17.032257
30
-38.285717
70
192
0
VERTEX
8
OBJECT008
10
-32.162228
20
-17.032257
30
-38.285717
70
192
0
VERTEX
8
OBJECT008
10
-32.484848
20
-17.032257
30
-40.000000
70
192
0
VERTEX
8
OBJECT008
10
16.000002
20
-17.032257
30
-40.000000
70
192
0
VERTEX
8
OBJECT008
10
16.000002
20
11.870968
30
-40.000000
70
192
0
VERTEX
8
OBJECT008
10
-32.484848
20
11.870968
30
-40.000000
70
192
0
VERTEX
8
OBJECT008
10
0
20
0
30
0
70
128
71
2
72
3
73
-4
0
VERTEX
8
OBJECT008
10
0
20
0
30
0
70
128
71
-2
72
4
73
1
0
VERTEX
8
OBJECT008
10
0
20
0
30
0
70
128
71
6
72
7
73
-8
0
VERTEX
8
OBJECT008
10
0
20
0
30
0
70
128
71
-6
72
8
73
5
0
VERTEX
8
OBJECT008
10
0
20
0
30
0
70
128
71
6
72
3
73
-2
0
VERTEX
8
OBJECT008
10
0
20
0
30
0
70
128
71
-6
72
2
73
7
0
VERTEX
8
OBJECT008
10
0
20
0
30
0
70
128
71
7
72
2
73
-1
0
VERTEX
8
OBJECT008
10
0
20
0
30
0
70
128
71
-7
72
1
73
8
0
VERTEX
8
OBJECT008
10
0
20
0
30
0
70
128
71
5
72
4
73
-3
0
VERTEX
8
OBJECT008
10
0
20
0
30
0
70
128
71
-5
72
3
73
6
0
VERTEX
8
OBJECT008
10
0
20
0
30
0
70
128
71
8
72
1
73
-4
0
VERTEX
8
OBJECT008
10
0
20
0
30
0
70
128
71
-8
72
4
73
5
0
SEQEND
8
OBJECT008
0
POLYLINE
8
OBJECT009
66
1
70
64
71
8
72
12
62
50
0
VERTEX
8
OBJECT009
10
-32.484848
20
11.870968
30
-40.000000
70
192
0
VERTEX
8
OBJECT009
10
-48.000000
20
11.870968
30
-40.000000
70
192
0
VERTEX
8
OBJECT009
10
-48.000000
20
-17.032257
30
-40.000000
70
192
0
VERTEX
8
OBJECT009
10
-32.484848
20
-17.032257
30
-40.000000
70
192
0
VERTEX
8
OBJECT009
10
-48.000000
20
-17.032257
30
1.142856
70
192
0
VERTEX
8
OBJECT009
10
-48.000000
20
11.870968
30
1.142856
70
192
0
VERTEX
8
OBJECT009
10
-26.814276
20
11.870968
30
-9.922458
70
192
0
VERTEX
8
OBJECT009
10
-26.814276
20
-17.032257
30
-9.922458
70
192
0
VERTEX
8
OBJECT009
10
0
20
0
30
0
70
128
71
2
72
3
73
-4
0
VERTEX
8
OBJECT009
10
0
20
0
30
0
70
128
71
-2
72
4
73
1
0
VERTEX
8
OBJECT009
10
0
20
0
30
0
70
128
71
3
72
2
73
-6
0
VERTEX
8
OBJECT009
10
0
20
0
30
0
70
128
71
-3
72
6
73
5
0
VERTEX
8
OBJECT009
10
0
20
0
30
0
70
128
71
2
72
1
73
-7
0
VERTEX
8
OBJECT009
10
0
20
0
30
0
70
128
71
-2
72
7
73
6
0
VERTEX
8
OBJECT009
10
0
20
0
30
0
70
128
71
4
72
3
73
-5
0
VERTEX
8
OBJECT009
10
0
20
0
30
0
70
128
71
-4
72
5
73
8
0
VERTEX
8
OBJECT009
10
0
20
0
30
0
70
128
71
1
72
4
73
-8
0
VERTEX
8
OBJECT009
10
0
20
0
30
0
70
128
71
-1
72
8
73
7
0
VERTEX
8
OBJECT009
10
0
20
0
30
0
70
128
71
6
72
7
73
-8
0
VERTEX
8
OBJECT009
10
0
20
0
30
0
70
128
71
-6
72
8
73
5
0
SEQEND
8
OBJECT009
0
POLYLINE
8
OBJECT010
66
1
70
64
71
8
72
12
62
50
0
VERTEX
8
OBJECT010
10
-33.454544
20
-26.322578
30
-7.478796
70
192
0
VERTEX
8
OBJECT010
10
-33.454544
20
-26.322578
30
-12.571430
70
192
0
VERTEX
8
OBJECT010
10
-30.545454
20
-29.419353
30
-12.571430
70
192
0
VERTEX
8
OBJECT010
10
-30.545454
20
-29.419353
30
-7.478796
70
192
0
VERTEX
8
OBJECT010
10
-31.515152
20
-30.451611
30
-7.478796
70
192
0
VERTEX
8
OBJECT010
10
-31.515152
20
-30.451611
30
-12.571430
70
192
0
VERTEX
8
OBJECT010
10
-34.424240
20
-27.354837
30
-12.571430
70
192
0
VERTEX
8
OBJECT010
10
-34.424240
20
-27.354837
30
-7.478796
70
192
0
VERTEX
8
OBJECT010
10
0
20
0
30
0
70
128
71
2
72
3
73
-4
0
VERTEX
8
OBJECT010
10
0
20
0
30
0
70
128
71
-2
72
4
73
1
0
VERTEX
8
OBJECT010
10
0
20
0
30
0
70
128
71
6
72
7
73
-8
0
VERTEX
8
OBJECT010
10
0
20
0
30
0
70
128
71
-6
72
8
73
5
0
VERTEX
8
OBJECT010
10
0
20
0
30
0
70
128
71
3
72
6
73
-5
0
VERTEX
8
OBJECT010
10
0
20
0
30
0
70
128
71
-3
72
5
73
4
0
VERTEX
8
OBJECT010
10
0
20
0
30
0
70
128
71
7
72
2
73
-1
0
VERTEX
8
OBJECT010
10
0
20
0
30
0
70
128
71
-7
72
1
73
8
0
VERTEX
8
OBJECT010
10
0
20
0
30
0
70
128
71
8
72
1
73
-4
0
VERTEX
8
OBJECT010
10
0
20
0
30
0
70
128
71
-8
72
4
73
5
0
VERTEX
8
OBJECT010
10
0
20
0
30
0
70
128
71
6
72
3
73
-2
0
VERTEX
8
OBJECT010
10
0
20
0
30
0
70
128
71
-6
72
2
73
7
0
SEQEND
8
OBJECT010
0
POLYLINE
8
OBJECT011
66
1
70
64
71
8
72
12
62
50
0
VERTEX
8
OBJECT011
10
-15.030302
20
-48.000000
30
3.714285
70
192
0
VERTEX
8
OBJECT011
10
-31.515152
20
-30.451611
30
3.714285
70
192
0
VERTEX
8
OBJECT011
10
-30.545454
20
-29.419353
30
3.714285
70
192
0
VERTEX
8
OBJECT011
10
-14.060605
20
-46.967739
30
3.714285
70
192
0
VERTEX
8
OBJECT011
10
-31.515152
20
-30.451611
30
-16.857143
70
192
0
VERTEX
8
OBJECT011
10
-15.030302
20
-48.000000
30
-16.857143
70
192
0
VERTEX
8
OBJECT011
10
-14.060605
20
-46.967739
30
-16.857143
70
192
0
VERTEX
8
OBJECT011
10
-30.545454
20
-29.419353
30
-16.857143
70
192
0
VERTEX
8
OBJECT011
10
0
20
0
30
0
70
128
71
2
72
3
73
-4
0
VERTEX
8
OBJECT011
10
0
20
0
30
0
70
128
71
-2
72
4
73
1
0
VERTEX
8
OBJECT011
10
0
20
0
30
0
70
128
71
6
72
7
73
-8
0
VERTEX
8
OBJECT011
10
0
20
0
30
0
70
128
71
-6
72
8
73
5
0
VERTEX
8
OBJECT011
10
0
20
0
30
0
70
128
71
5
72
2
73
-1
0
VERTEX
8
OBJECT011
10
0
20
0
30
0
70
128
71
-5
72
1
73
6
0
VERTEX
8
OBJECT011
10
0
20
0
30
0
70
128
71
7
72
4
73
-3
0
VERTEX
8
OBJECT011
10
0
20
0
30
0
70
128
71
-7
72
3
73
8
0
VERTEX
8
OBJECT011
10
0
20
0
30
0
70
128
71
8
72
3
73
-2
0
VERTEX
8
OBJECT011
10
0
20
0
30
0
70
128
71
-8
72
2
73
5
0
VERTEX
8
OBJECT011
10
0
20
0
30
0
70
128
71
6
72
1
73
-4
0
VERTEX
8
OBJECT011
10
0
20
0
30
0
70
128
71
-6
72
4
73
7
0
SEQEND
8
OBJECT011
0
POLYLINE
8
OBJECT012
66
1
70
64
71
8
72
12
62
50
0
VERTEX
8
OBJECT012
10
-36.363636
20
-17.032257
30
-14.186821
70
192
0
VERTEX
8
OBJECT012
10
-34.424240
20
-17.032257
30
-12.663363
70
192
0
VERTEX
8
OBJECT012
10
-34.424240
20
-17.032257
30
-11.034244
70
192
0
VERTEX
8
OBJECT012
10
-36.363636
20
-17.032257
30
-12.571430
70
192
0
VERTEX
8
OBJECT012
10
-33.454544
20
-26.322578
30
-11.902179
70
192
0
VERTEX
8
OBJECT012
10
-30.545454
20
-29.419353
30
-9.616985
70
192
0
VERTEX
8
OBJECT012
10
-33.454544
20
-26.322578
30
-10.259210
70
192
0
VERTEX
8
OBJECT012
10
-30.545454
20
-29.419353
30
-7.950936
70
192
0
VERTEX
8
OBJECT012
10
0
20
0
30
0
70
128
71
2
72
3
73
-4
0
VERTEX
8
OBJECT012
10
0
20
0
30
0
70
128
71
-2
72
4
73
1
0
VERTEX
8
OBJECT012
10
0
20
0
30
0
70
128
71
1
72
5
73
-6
0
VERTEX
8
OBJECT012
10
0
20
0
30
0
70
128
71
-1
72
6
73
2
0
VERTEX
8
OBJECT012
10
0
20
0
30
0
70
128
71
4
72
3
73
-8
0
VERTEX
8
OBJECT012
10
0
20
0
30
0
70
128
71
-4
72
8
73
7
0
VERTEX
8
OBJECT012
10
0
20
0
30
0
70
128
71
2
72
6
73
-8
0
VERTEX
8
OBJECT012
10
0
20
0
30
0
70
128
71
-2
72
8
73
3
0
VERTEX
8
OBJECT012
10
0
20
0
30
0
70
128
71
1
72
4
73
-7
0
VERTEX
8
OBJECT012
10
0
20
0
30
0
70
128
71
-1
72
7
73
5
0
VERTEX
8
OBJECT012
10
0
20
0
30
0
70
128
71
5
72
7
73
-8
0
VERTEX
8
OBJECT012
10
0
20
0
30
0
70
128
71
-5
72
8
73
6
0
SEQEND
8
OBJECT012
0
ENDSEC
0
EOF
