0
SECTION
2
HEADER
9
$ACADVER
1
AC1008
9
$UCSORG
10
0.0
20
0.0
30
0.0
9
$UCSXDIR
10
1.0
20
0.0
30
0.0
9
$TILEMODE
70
1
9
$UCSYDIR
10
0.0
20
1.0
30
0.0
9
$EXTMIN
10
-66.000023
20
-64.666656
30
-64.000000
9
$EXTMAX
10
61.999969
20
63.333344
30
64.000000
0
ENDSEC
0
SECTION
2
TABLES
0
TABLE
2
LTYPE
70
1
0
LTYPE
2
CONTINUOUS
70
64
3
Solid line
72
65
73
0
40
0.0
0
ENDTAB
0
TABLE
2
LAYER
70
1
0
LAYER
2
0
70
0
62
7
6
CONTINUOUS
0
ENDTAB
0
TABLE
2
STYLE
70
1
0
STYLE
2
STANDARD
70
0
40
0.0
41
1.0
50
0.0
71
0
42
0.2
3
txt
4

0
ENDTAB
0
TABLE
2
UCS
70
0
0
ENDTAB
0
ENDSEC
0
SECTION
2
ENTITIES
0
POLYLINE
8
OBJECT000
66
1
70
64
71
10
72
16
62
50
0
VERTEX
8
OBJECT000
10
54.888977
20
53.150276
30
-53.332993
70
192
0
VERTEX
8
OBJECT000
10
51.332489
20
51.695404
30
-53.332993
70
192
0
VERTEX
8
OBJECT000
10
40.666534
20
60.423508
30
-53.332993
70
192
0
VERTEX
8
OBJECT000
10
42.443851
20
63.333344
30
-53.332993
70
192
0
VERTEX
8
OBJECT000
10
54.888977
20
63.333344
30
-53.332993
70
192
0
VERTEX
8
OBJECT000
10
42.443851
20
63.333344
30
-64.000000
70
192
0
VERTEX
8
OBJECT000
10
40.666534
20
60.423508
30
-64.000000
70
192
0
VERTEX
8
OBJECT000
10
51.332489
20
51.695404
30
-64.000000
70
192
0
VERTEX
8
OBJECT000
10
54.888977
20
53.150276
30
-64.000000
70
192
0
VERTEX
8
OBJECT000
10
54.888977
20
63.333344
30
-64.000000
70
192
0
VERTEX
8
OBJECT000
10
0
20
0
30
0
70
128
71
2
72
3
73
-4
0
VERTEX
8
OBJECT000
10
0
20
0
30
0
70
128
71
-2
72
4
73
-5
0
VERTEX
8
OBJECT000
10
0
20
0
30
0
70
128
71
-2
72
5
73
1
0
VERTEX
8
OBJECT000
10
0
20
0
30
0
70
128
71
7
72
8
73
-9
0
VERTEX
8
OBJECT000
10
0
20
0
30
0
70
128
71
-7
72
9
73
-10
0
VERTEX
8
OBJECT000
10
0
20
0
30
0
70
128
71
-7
72
10
73
6
0
VERTEX
8
OBJECT000
10
0
20
0
30
0
70
128
71
8
72
2
73
-1
0
VERTEX
8
OBJECT000
10
0
20
0
30
0
70
128
71
-8
72
1
73
9
0
VERTEX
8
OBJECT000
10
0
20
0
30
0
70
128
71
6
72
4
73
-3
0
VERTEX
8
OBJECT000
10
0
20
0
30
0
70
128
71
-6
72
3
73
7
0
VERTEX
8
OBJECT000
10
0
20
0
30
0
70
128
71
9
72
1
73
-5
0
VERTEX
8
OBJECT000
10
0
20
0
30
0
70
128
71
-9
72
5
73
10
0
VERTEX
8
OBJECT000
10
0
20
0
30
0
70
128
71
7
72
3
73
-2
0
VERTEX
8
OBJECT000
10
0
20
0
30
0
70
128
71
-7
72
2
73
8
0
VERTEX
8
OBJECT000
10
0
20
0
30
0
70
128
71
10
72
5
73
-4
0
VERTEX
8
OBJECT000
10
0
20
0
30
0
70
128
71
-10
72
4
73
6
0
SEQEND
8
OBJECT000
0
POLYLINE
8
OBJECT001
66
1
70
64
71
8
72
12
62
50
0
VERTEX
8
OBJECT001
10
-44.668144
20
60.424004
30
-53.332993
70
192
0
VERTEX
8
OBJECT001
10
-46.446163
20
63.333344
30
-53.332993
70
192
0
VERTEX
8
OBJECT001
10
42.444981
20
63.333344
30
-53.332993
70
192
0
VERTEX
8
OBJECT001
10
40.667973
20
60.424004
30
-53.332993
70
192
0
VERTEX
8
OBJECT001
10
42.444981
20
63.333344
30
-64.000000
70
192
0
VERTEX
8
OBJECT001
10
-46.446163
20
63.333344
30
-64.000000
70
192
0
VERTEX
8
OBJECT001
10
-44.668144
20
60.424004
30
-64.000000
70
192
0
VERTEX
8
OBJECT001
10
40.667973
20
60.424004
30
-64.000000
70
192
0
VERTEX
8
OBJECT001
10
0
20
0
30
0
70
128
71
2
72
3
73
-4
0
VERTEX
8
OBJECT001
10
0
20
0
30
0
70
128
71
-2
72
4
73
1
0
VERTEX
8
OBJECT001
10
0
20
0
30
0
70
128
71
6
72
7
73
-8
0
VERTEX
8
OBJECT001
10
0
20
0
30
0
70
128
71
-6
72
8
73
5
0
VERTEX
8
OBJECT001
10
0
20
0
30
0
70
128
71
5
72
3
73
-2
0
VERTEX
8
OBJECT001
10
0
20
0
30
0
70
128
71
-5
72
2
73
6
0
VERTEX
8
OBJECT001
10
0
20
0
30
0
70
128
71
6
72
2
73
-1
0
VERTEX
8
OBJECT001
10
0
20
0
30
0
70
128
71
-6
72
1
73
7
0
VERTEX
8
OBJECT001
10
0
20
0
30
0
70
128
71
8
72
4
73
-3
0
VERTEX
8
OBJECT001
10
0
20
0
30
0
70
128
71
-8
72
3
73
5
0
VERTEX
8
OBJECT001
10
0
20
0
30
0
70
128
71
7
72
1
73
-4
0
VERTEX
8
OBJECT001
10
0
20
0
30
0
70
128
71
-7
72
4
73
8
0
SEQEND
8
OBJECT001
0
POLYLINE
8
OBJECT002
66
1
70
64
71
10
72
16
62
50
0
VERTEX
8
OBJECT002
10
-55.333889
20
51.696785
30
-53.332993
70
192
0
VERTEX
8
OBJECT002
10
-58.889030
20
53.150688
30
-53.332993
70
192
0
VERTEX
8
OBJECT002
10
-58.889030
20
63.333344
30
-53.332993
70
192
0
VERTEX
8
OBJECT002
10
-46.444881
20
63.333344
30
-53.332993
70
192
0
VERTEX
8
OBJECT002
10
-44.666897
20
60.424042
30
-53.332993
70
192
0
VERTEX
8
OBJECT002
10
-58.889030
20
53.150688
30
-64.000000
70
192
0
VERTEX
8
OBJECT002
10
-55.333889
20
51.696785
30
-64.000000
70
192
0
VERTEX
8
OBJECT002
10
-44.666897
20
60.424042
30
-64.000000
70
192
0
VERTEX
8
OBJECT002
10
-46.444881
20
63.333344
30
-64.000000
70
192
0
VERTEX
8
OBJECT002
10
-58.889030
20
63.333344
30
-64.000000
70
192
0
VERTEX
8
OBJECT002
10
0
20
0
30
0
70
128
71
2
72
3
73
-4
0
VERTEX
8
OBJECT002
10
0
20
0
30
0
70
128
71
-2
72
4
73
-5
0
VERTEX
8
OBJECT002
10
0
20
0
30
0
70
128
71
-2
72
5
73
1
0
VERTEX
8
OBJECT002
10
0
20
0
30
0
70
128
71
7
72
8
73
-9
0
VERTEX
8
OBJECT002
10
0
20
0
30
0
70
128
71
-7
72
9
73
-10
0
VERTEX
8
OBJECT002
10
0
20
0
30
0
70
128
71
-7
72
10
73
6
0
VERTEX
8
OBJECT002
10
0
20
0
30
0
70
128
71
6
72
2
73
-1
0
VERTEX
8
OBJECT002
10
0
20
0
30
0
70
128
71
-6
72
1
73
7
0
VERTEX
8
OBJECT002
10
0
20
0
30
0
70
128
71
8
72
5
73
-4
0
VERTEX
8
OBJECT002
10
0
20
0
30
0
70
128
71
-8
72
4
73
9
0
VERTEX
8
OBJECT002
10
0
20
0
30
0
70
128
71
10
72
3
73
-2
0
VERTEX
8
OBJECT002
10
0
20
0
30
0
70
128
71
-10
72
2
73
6
0
VERTEX
8
OBJECT002
10
0
20
0
30
0
70
128
71
7
72
1
73
-5
0
VERTEX
8
OBJECT002
10
0
20
0
30
0
70
128
71
-7
72
5
73
8
0
VERTEX
8
OBJECT002
10
0
20
0
30
0
70
128
71
9
72
4
73
-3
0
VERTEX
8
OBJECT002
10
0
20
0
30
0
70
128
71
-9
72
3
73
10
0
SEQEND
8
OBJECT002
0
POLYLINE
8
OBJECT003
66
1
70
64
71
8
72
12
62
50
0
VERTEX
8
OBJECT003
10
-58.890648
20
-54.485703
30
-53.332993
70
192
0
VERTEX
8
OBJECT003
10
-58.890648
20
53.152718
30
-53.332993
70
192
0
VERTEX
8
OBJECT003
10
-55.333031
20
51.696991
30
-53.332993
70
192
0
VERTEX
8
OBJECT003
10
-55.333031
20
-53.029976
30
-53.332993
70
192
0
VERTEX
8
OBJECT003
10
-55.333031
20
51.696991
30
-64.000000
70
192
0
VERTEX
8
OBJECT003
10
-58.890648
20
53.152718
30
-64.000000
70
192
0
VERTEX
8
OBJECT003
10
-58.890648
20
-54.485703
30
-64.000000
70
192
0
VERTEX
8
OBJECT003
10
-55.333031
20
-53.029976
30
-64.000000
70
192
0
VERTEX
8
OBJECT003
10
0
20
0
30
0
70
128
71
2
72
3
73
-4
0
VERTEX
8
OBJECT003
10
0
20
0
30
0
70
128
71
-2
72
4
73
1
0
VERTEX
8
OBJECT003
10
0
20
0
30
0
70
128
71
6
72
7
73
-8
0
VERTEX
8
OBJECT003
10
0
20
0
30
0
70
128
71
-6
72
8
73
5
0
VERTEX
8
OBJECT003
10
0
20
0
30
0
70
128
71
6
72
2
73
-1
0
VERTEX
8
OBJECT003
10
0
20
0
30
0
70
128
71
-6
72
1
73
7
0
VERTEX
8
OBJECT003
10
0
20
0
30
0
70
128
71
5
72
3
73
-2
0
VERTEX
8
OBJECT003
10
0
20
0
30
0
70
128
71
-5
72
2
73
6
0
VERTEX
8
OBJECT003
10
0
20
0
30
0
70
128
71
7
72
1
73
-4
0
VERTEX
8
OBJECT003
10
0
20
0
30
0
70
128
71
-7
72
4
73
8
0
VERTEX
8
OBJECT003
10
0
20
0
30
0
70
128
71
8
72
4
73
-3
0
VERTEX
8
OBJECT003
10
0
20
0
30
0
70
128
71
-8
72
3
73
5
0
SEQEND
8
OBJECT003
0
POLYLINE
8
OBJECT004
66
1
70
64
71
16
72
28
62
50
0
VERTEX
8
OBJECT004
10
-55.332054
20
-53.029976
30
-53.332993
70
192
0
VERTEX
8
OBJECT004
10
-55.332054
20
51.698044
30
-53.332993
70
192
0
VERTEX
8
OBJECT004
10
-44.669796
20
60.424004
30
-53.332993
70
192
0
VERTEX
8
OBJECT004
10
40.664978
20
60.424004
30
-53.332993
70
192
0
VERTEX
8
OBJECT004
10
51.332977
20
51.696663
30
-53.332993
70
192
0
VERTEX
8
OBJECT004
10
51.332977
20
-53.029976
30
-53.332993
70
192
0
VERTEX
8
OBJECT004
10
40.666931
20
-61.757309
30
-53.332993
70
192
0
VERTEX
8
OBJECT004
10
-44.667049
20
-61.757309
30
-53.332993
70
192
0
VERTEX
8
OBJECT004
10
-55.332054
20
51.698044
30
-64.000000
70
192
0
VERTEX
8
OBJECT004
10
-55.332054
20
-53.029976
30
-64.000000
70
192
0
VERTEX
8
OBJECT004
10
-44.667049
20
-61.757309
30
-64.000000
70
192
0
VERTEX
8
OBJECT004
10
40.666931
20
-61.757309
30
-64.000000
70
192
0
VERTEX
8
OBJECT004
10
51.332977
20
-53.029976
30
-64.000000
70
192
0
VERTEX
8
OBJECT004
10
51.332977
20
51.696663
30
-64.000000
70
192
0
VERTEX
8
OBJECT004
10
40.664978
20
60.424004
30
-64.000000
70
192
0
VERTEX
8
OBJECT004
10
-44.669796
20
60.424004
30
-64.000000
70
192
0
VERTEX
8
OBJECT004
10
0
20
0
30
0
70
128
71
2
72
3
73
-4
0
VERTEX
8
OBJECT004
10
0
20
0
30
0
70
128
71
-2
72
4
73
-5
0
VERTEX
8
OBJECT004
10
0
20
0
30
0
70
128
71
-2
72
5
73
-6
0
VERTEX
8
OBJECT004
10
0
20
0
30
0
70
128
71
-2
72
6
73
-7
0
VERTEX
8
OBJECT004
10
0
20
0
30
0
70
128
71
-2
72
7
73
-8
0
VERTEX
8
OBJECT004
10
0
20
0
30
0
70
128
71
-2
72
8
73
1
0
VERTEX
8
OBJECT004
10
0
20
0
30
0
70
128
71
10
72
11
73
-12
0
VERTEX
8
OBJECT004
10
0
20
0
30
0
70
128
71
-10
72
12
73
-13
0
VERTEX
8
OBJECT004
10
0
20
0
30
0
70
128
71
-10
72
13
73
-14
0
VERTEX
8
OBJECT004
10
0
20
0
30
0
70
128
71
-10
72
14
73
-15
0
VERTEX
8
OBJECT004
10
0
20
0
30
0
70
128
71
-10
72
15
73
-16
0
VERTEX
8
OBJECT004
10
0
20
0
30
0
70
128
71
-10
72
16
73
9
0
VERTEX
8
OBJECT004
10
0
20
0
30
0
70
128
71
9
72
2
73
-1
0
VERTEX
8
OBJECT004
10
0
20
0
30
0
70
128
71
-9
72
1
73
10
0
VERTEX
8
OBJECT004
10
0
20
0
30
0
70
128
71
13
72
6
73
-5
0
VERTEX
8
OBJECT004
10
0
20
0
30
0
70
128
71
-13
72
5
73
14
0
VERTEX
8
OBJECT004
10
0
20
0
30
0
70
128
71
16
72
3
73
-2
0
VERTEX
8
OBJECT004
10
0
20
0
30
0
70
128
71
-16
72
2
73
9
0
VERTEX
8
OBJECT004
10
0
20
0
30
0
70
128
71
11
72
8
73
-7
0
VERTEX
8
OBJECT004
10
0
20
0
30
0
70
128
71
-11
72
7
73
12
0
VERTEX
8
OBJECT004
10
0
20
0
30
0
70
128
71
15
72
4
73
-3
0
VERTEX
8
OBJECT004
10
0
20
0
30
0
70
128
71
-15
72
3
73
16
0
VERTEX
8
OBJECT004
10
0
20
0
30
0
70
128
71
14
72
5
73
-4
0
VERTEX
8
OBJECT004
10
0
20
0
30
0
70
128
71
-14
72
4
73
15
0
VERTEX
8
OBJECT004
10
0
20
0
30
0
70
128
71
12
72
7
73
-6
0
VERTEX
8
OBJECT004
10
0
20
0
30
0
70
128
71
-12
72
6
73
13
0
VERTEX
8
OBJECT004
10
0
20
0
30
0
70
128
71
10
72
1
73
-8
0
VERTEX
8
OBJECT004
10
0
20
0
30
0
70
128
71
-10
72
8
73
11
0
SEQEND
8
OBJECT004
0
POLYLINE
8
OBJECT005
66
1
70
64
71
10
72
16
62
50
0
VERTEX
8
OBJECT005
10
-58.889030
20
-54.484604
30
-53.332993
70
192
0
VERTEX
8
OBJECT005
10
-55.333065
20
-53.029934
30
-53.332993
70
192
0
VERTEX
8
OBJECT005
10
-44.667385
20
-61.757027
30
-53.332993
70
192
0
VERTEX
8
OBJECT005
10
-46.445580
20
-64.666656
30
-53.332993
70
192
0
VERTEX
8
OBJECT005
10
-58.889030
20
-64.666656
30
-53.332993
70
192
0
VERTEX
8
OBJECT005
10
-55.333065
20
-53.029934
30
-64.000000
70
192
0
VERTEX
8
OBJECT005
10
-58.889030
20
-54.484604
30
-64.000000
70
192
0
VERTEX
8
OBJECT005
10
-58.889030
20
-64.666656
30
-64.000000
70
192
0
VERTEX
8
OBJECT005
10
-46.445580
20
-64.666656
30
-64.000000
70
192
0
VERTEX
8
OBJECT005
10
-44.667385
20
-61.757027
30
-64.000000
70
192
0
VERTEX
8
OBJECT005
10
0
20
0
30
0
70
128
71
2
72
3
73
-4
0
VERTEX
8
OBJECT005
10
0
20
0
30
0
70
128
71
-2
72
4
73
-5
0
VERTEX
8
OBJECT005
10
0
20
0
30
0
70
128
71
-2
72
5
73
1
0
VERTEX
8
OBJECT005
10
0
20
0
30
0
70
128
71
7
72
8
73
-9
0
VERTEX
8
OBJECT005
10
0
20
0
30
0
70
128
71
-7
72
9
73
-10
0
VERTEX
8
OBJECT005
10
0
20
0
30
0
70
128
71
-7
72
10
73
6
0
VERTEX
8
OBJECT005
10
0
20
0
30
0
70
128
71
6
72
2
73
-1
0
VERTEX
8
OBJECT005
10
0
20
0
30
0
70
128
71
-6
72
1
73
7
0
VERTEX
8
OBJECT005
10
0
20
0
30
0
70
128
71
9
72
4
73
-3
0
VERTEX
8
OBJECT005
10
0
20
0
30
0
70
128
71
-9
72
3
73
10
0
VERTEX
8
OBJECT005
10
0
20
0
30
0
70
128
71
7
72
1
73
-5
0
VERTEX
8
OBJECT005
10
0
20
0
30
0
70
128
71
-7
72
5
73
8
0
VERTEX
8
OBJECT005
10
0
20
0
30
0
70
128
71
10
72
3
73
-2
0
VERTEX
8
OBJECT005
10
0
20
0
30
0
70
128
71
-10
72
2
73
6
0
VERTEX
8
OBJECT005
10
0
20
0
30
0
70
128
71
8
72
5
73
-4
0
VERTEX
8
OBJECT005
10
0
20
0
30
0
70
128
71
-8
72
4
73
9
0
SEQEND
8
OBJECT005
0
POLYLINE
8
OBJECT006
66
1
70
64
71
8
72
12
62
50
0
VERTEX
8
OBJECT006
10
51.332977
20
51.696991
30
-53.332993
70
192
0
VERTEX
8
OBJECT006
10
54.890594
20
53.152718
30
-53.332993
70
192
0
VERTEX
8
OBJECT006
10
54.890594
20
-54.485703
30
-53.332993
70
192
0
VERTEX
8
OBJECT006
10
51.332977
20
-53.029976
30
-53.332993
70
192
0
VERTEX
8
OBJECT006
10
54.890594
20
-54.485703
30
-64.000000
70
192
0
VERTEX
8
OBJECT006
10
54.890594
20
53.152718
30
-64.000000
70
192
0
VERTEX
8
OBJECT006
10
51.332977
20
51.696991
30
-64.000000
70
192
0
VERTEX
8
OBJECT006
10
51.332977
20
-53.029976
30
-64.000000
70
192
0
VERTEX
8
OBJECT006
10
0
20
0
30
0
70
128
71
2
72
3
73
-4
0
VERTEX
8
OBJECT006
10
0
20
0
30
0
70
128
71
-2
72
4
73
1
0
VERTEX
8
OBJECT006
10
0
20
0
30
0
70
128
71
6
72
7
73
-8
0
VERTEX
8
OBJECT006
10
0
20
0
30
0
70
128
71
-6
72
8
73
5
0
VERTEX
8
OBJECT006
10
0
20
0
30
0
70
128
71
5
72
3
73
-2
0
VERTEX
8
OBJECT006
10
0
20
0
30
0
70
128
71
-5
72
2
73
6
0
VERTEX
8
OBJECT006
10
0
20
0
30
0
70
128
71
6
72
2
73
-1
0
VERTEX
8
OBJECT006
10
0
20
0
30
0
70
128
71
-6
72
1
73
7
0
VERTEX
8
OBJECT006
10
0
20
0
30
0
70
128
71
8
72
4
73
-3
0
VERTEX
8
OBJECT006
10
0
20
0
30
0
70
128
71
-8
72
3
73
5
0
VERTEX
8
OBJECT006
10
0
20
0
30
0
70
128
71
7
72
1
73
-4
0
VERTEX
8
OBJECT006
10
0
20
0
30
0
70
128
71
-7
72
4
73
8
0
SEQEND
8
OBJECT006
0
POLYLINE
8
OBJECT007
66
1
70
64
71
8
72
12
62
50
0
VERTEX
8
OBJECT007
10
42.444981
20
-64.666656
30
-53.332993
70
192
0
VERTEX
8
OBJECT007
10
-46.446163
20
-64.666656
30
-53.332993
70
192
0
VERTEX
8
OBJECT007
10
-44.668144
20
-61.757309
30
-53.332993
70
192
0
VERTEX
8
OBJECT007
10
40.666962
20
-61.757309
30
-53.332993
70
192
0
VERTEX
8
OBJECT007
10
-44.668144
20
-61.757309
30
-64.000000
70
192
0
VERTEX
8
OBJECT007
10
-46.446163
20
-64.666656
30
-64.000000
70
192
0
VERTEX
8
OBJECT007
10
42.444981
20
-64.666656
30
-64.000000
70
192
0
VERTEX
8
OBJECT007
10
40.666962
20
-61.757309
30
-64.000000
70
192
0
VERTEX
8
OBJECT007
10
0
20
0
30
0
70
128
71
2
72
3
73
-4
0
VERTEX
8
OBJECT007
10
0
20
0
30
0
70
128
71
-2
72
4
73
1
0
VERTEX
8
OBJECT007
10
0
20
0
30
0
70
128
71
6
72
7
73
-8
0
VERTEX
8
OBJECT007
10
0
20
0
30
0
70
128
71
-6
72
8
73
5
0
VERTEX
8
OBJECT007
10
0
20
0
30
0
70
128
71
6
72
2
73
-1
0
VERTEX
8
OBJECT007
10
0
20
0
30
0
70
128
71
-6
72
1
73
7
0
VERTEX
8
OBJECT007
10
0
20
0
30
0
70
128
71
5
72
3
73
-2
0
VERTEX
8
OBJECT007
10
0
20
0
30
0
70
128
71
-5
72
2
73
6
0
VERTEX
8
OBJECT007
10
0
20
0
30
0
70
128
71
7
72
1
73
-4
0
VERTEX
8
OBJECT007
10
0
20
0
30
0
70
128
71
-7
72
4
73
8
0
VERTEX
8
OBJECT007
10
0
20
0
30
0
70
128
71
8
72
4
73
-3
0
VERTEX
8
OBJECT007
10
0
20
0
30
0
70
128
71
-8
72
3
73
5
0
SEQEND
8
OBJECT007
0
POLYLINE
8
OBJECT008
66
1
70
64
71
10
72
16
62
50
0
VERTEX
8
OBJECT008
10
42.444981
20
-64.666656
30
-53.332993
70
192
0
VERTEX
8
OBJECT008
10
40.666962
20
-61.757309
30
-53.332993
70
192
0
VERTEX
8
OBJECT008
10
51.334534
20
-53.028671
30
-53.332993
70
192
0
VERTEX
8
OBJECT008
10
54.888977
20
-54.483139
30
-53.332993
70
192
0
VERTEX
8
OBJECT008
10
54.888977
20
-64.666656
30
-53.332993
70
192
0
VERTEX
8
OBJECT008
10
54.888977
20
-54.483139
30
-64.000000
70
192
0
VERTEX
8
OBJECT008
10
51.334534
20
-53.028671
30
-64.000000
70
192
0
VERTEX
8
OBJECT008
10
40.666962
20
-61.757309
30
-64.000000
70
192
0
VERTEX
8
OBJECT008
10
42.444981
20
-64.666656
30
-64.000000
70
192
0
VERTEX
8
OBJECT008
10
54.888977
20
-64.666656
30
-64.000000
70
192
0
VERTEX
8
OBJECT008
10
0
20
0
30
0
70
128
71
2
72
3
73
-4
0
VERTEX
8
OBJECT008
10
0
20
0
30
0
70
128
71
-2
72
4
73
-5
0
VERTEX
8
OBJECT008
10
0
20
0
30
0
70
128
71
-2
72
5
73
1
0
VERTEX
8
OBJECT008
10
0
20
0
30
0
70
128
71
7
72
8
73
-9
0
VERTEX
8
OBJECT008
10
0
20
0
30
0
70
128
71
-7
72
9
73
-10
0
VERTEX
8
OBJECT008
10
0
20
0
30
0
70
128
71
-7
72
10
73
6
0
VERTEX
8
OBJECT008
10
0
20
0
30
0
70
128
71
6
72
4
73
-3
0
VERTEX
8
OBJECT008
10
0
20
0
30
0
70
128
71
-6
72
3
73
7
0
VERTEX
8
OBJECT008
10
0
20
0
30
0
70
128
71
8
72
2
73
-1
0
VERTEX
8
OBJECT008
10
0
20
0
30
0
70
128
71
-8
72
1
73
9
0
VERTEX
8
OBJECT008
10
0
20
0
30
0
70
128
71
10
72
5
73
-4
0
VERTEX
8
OBJECT008
10
0
20
0
30
0
70
128
71
-10
72
4
73
6
0
VERTEX
8
OBJECT008
10
0
20
0
30
0
70
128
71
7
72
3
73
-2
0
VERTEX
8
OBJECT008
10
0
20
0
30
0
70
128
71
-7
72
2
73
8
0
VERTEX
8
OBJECT008
10
0
20
0
30
0
70
128
71
9
72
1
73
-5
0
VERTEX
8
OBJECT008
10
0
20
0
30
0
70
128
71
-9
72
5
73
10
0
SEQEND
8
OBJECT008
0
POLYLINE
8
OBJECT009
66
1
70
64
71
10
72
16
62
50
0
VERTEX
8
OBJECT009
10
-58.889030
20
53.151344
30
-53.332993
70
192
0
VERTEX
8
OBJECT009
10
-58.889030
20
51.696091
30
-50.000000
70
192
0
VERTEX
8
OBJECT009
10
-58.889030
20
60.424202
30
-40.000000
70
192
0
VERTEX
8
OBJECT009
10
-58.889030
20
63.333344
30
-41.667618
70
192
0
VERTEX
8
OBJECT009
10
-58.889030
20
63.333344
30
-53.332993
70
192
0
VERTEX
8
OBJECT009
10
-66.000023
20
51.696091
30
-50.000000
70
192
0
VERTEX
8
OBJECT009
10
-66.000023
20
53.151344
30
-53.332993
70
192
0
VERTEX
8
OBJECT009
10
-66.000023
20
63.333344
30
-53.332993
70
192
0
VERTEX
8
OBJECT009
10
-66.000023
20
63.333344
30
-41.667618
70
192
0
VERTEX
8
OBJECT009
10
-66.000023
20
60.424202
30
-40.000000
70
192
0
VERTEX
8
OBJECT009
10
0
20
0
30
0
70
128
71
2
72
3
73
-4
0
VERTEX
8
OBJECT009
10
0
20
0
30
0
70
128
71
-2
72
4
73
-5
0
VERTEX
8
OBJECT009
10
0
20
0
30
0
70
128
71
-2
72
5
73
1
0
VERTEX
8
OBJECT009
10
0
20
0
30
0
70
128
71
7
72
8
73
-9
0
VERTEX
8
OBJECT009
10
0
20
0
30
0
70
128
71
-7
72
9
73
-10
0
VERTEX
8
OBJECT009
10
0
20
0
30
0
70
128
71
-7
72
10
73
6
0
VERTEX
8
OBJECT009
10
0
20
0
30
0
70
128
71
1
72
7
73
-6
0
VERTEX
8
OBJECT009
10
0
20
0
30
0
70
128
71
-1
72
6
73
2
0
VERTEX
8
OBJECT009
10
0
20
0
30
0
70
128
71
9
72
4
73
-3
0
VERTEX
8
OBJECT009
10
0
20
0
30
0
70
128
71
-9
72
3
73
10
0
VERTEX
8
OBJECT009
10
0
20
0
30
0
70
128
71
7
72
1
73
-5
0
VERTEX
8
OBJECT009
10
0
20
0
30
0
70
128
71
-7
72
5
73
8
0
VERTEX
8
OBJECT009
10
0
20
0
30
0
70
128
71
10
72
3
73
-2
0
VERTEX
8
OBJECT009
10
0
20
0
30
0
70
128
71
-10
72
2
73
6
0
VERTEX
8
OBJECT009
10
0
20
0
30
0
70
128
71
8
72
5
73
-4
0
VERTEX
8
OBJECT009
10
0
20
0
30
0
70
128
71
-8
72
4
73
9
0
SEQEND
8
OBJECT009
0
POLYLINE
8
OBJECT010
66
1
70
64
71
8
72
12
62
50
0
VERTEX
8
OBJECT010
10
-58.889030
20
63.333344
30
41.666039
70
192
0
VERTEX
8
OBJECT010
10
-58.889030
20
63.333344
30
-41.667999
70
192
0
VERTEX
8
OBJECT010
10
-58.889030
20
60.424004
30
-40.000000
70
192
0
VERTEX
8
OBJECT010
10
-58.889030
20
60.424004
30
40.000000
70
192
0
VERTEX
8
OBJECT010
10
-66.000023
20
63.333344
30
-41.667999
70
192
0
VERTEX
8
OBJECT010
10
-66.000023
20
63.333344
30
41.666039
70
192
0
VERTEX
8
OBJECT010
10
-66.000023
20
60.424004
30
40.000000
70
192
0
VERTEX
8
OBJECT010
10
-66.000023
20
60.424004
30
-40.000000
70
192
0
VERTEX
8
OBJECT010
10
0
20
0
30
0
70
128
71
2
72
3
73
-4
0
VERTEX
8
OBJECT010
10
0
20
0
30
0
70
128
71
-2
72
4
73
1
0
VERTEX
8
OBJECT010
10
0
20
0
30
0
70
128
71
6
72
7
73
-8
0
VERTEX
8
OBJECT010
10
0
20
0
30
0
70
128
71
-6
72
8
73
5
0
VERTEX
8
OBJECT010
10
0
20
0
30
0
70
128
71
5
72
2
73
-1
0
VERTEX
8
OBJECT010
10
0
20
0
30
0
70
128
71
-5
72
1
73
6
0
VERTEX
8
OBJECT010
10
0
20
0
30
0
70
128
71
6
72
1
73
-4
0
VERTEX
8
OBJECT010
10
0
20
0
30
0
70
128
71
-6
72
4
73
7
0
VERTEX
8
OBJECT010
10
0
20
0
30
0
70
128
71
8
72
3
73
-2
0
VERTEX
8
OBJECT010
10
0
20
0
30
0
70
128
71
-8
72
2
73
5
0
VERTEX
8
OBJECT010
10
0
20
0
30
0
70
128
71
3
72
8
73
-7
0
VERTEX
8
OBJECT010
10
0
20
0
30
0
70
128
71
-3
72
7
73
4
0
SEQEND
8
OBJECT010
0
POLYLINE
8
OBJECT011
66
1
70
64
71
10
72
16
62
50
0
VERTEX
8
OBJECT011
10
-58.889030
20
63.333344
30
41.667465
70
192
0
VERTEX
8
OBJECT011
10
-58.889030
20
60.423676
30
40.000000
70
192
0
VERTEX
8
OBJECT011
10
-58.889030
20
51.696869
30
50.000000
70
192
0
VERTEX
8
OBJECT011
10
-58.889030
20
53.151787
30
53.333702
70
192
0
VERTEX
8
OBJECT011
10
-58.889030
20
63.333344
30
53.333702
70
192
0
VERTEX
8
OBJECT011
10
-66.000023
20
53.151787
30
53.333702
70
192
0
VERTEX
8
OBJECT011
10
-66.000023
20
51.696869
30
50.000000
70
192
0
VERTEX
8
OBJECT011
10
-66.000023
20
60.423676
30
40.000000
70
192
0
VERTEX
8
OBJECT011
10
-66.000023
20
63.333344
30
41.667465
70
192
0
VERTEX
8
OBJECT011
10
-66.000023
20
63.333344
30
53.333702
70
192
0
VERTEX
8
OBJECT011
10
0
20
0
30
0
70
128
71
2
72
3
73
-4
0
VERTEX
8
OBJECT011
10
0
20
0
30
0
70
128
71
-2
72
4
73
-5
0
VERTEX
8
OBJECT011
10
0
20
0
30
0
70
128
71
-2
72
5
73
1
0
VERTEX
8
OBJECT011
10
0
20
0
30
0
70
128
71
7
72
8
73
-9
0
VERTEX
8
OBJECT011
10
0
20
0
30
0
70
128
71
-7
72
9
73
-10
0
VERTEX
8
OBJECT011
10
0
20
0
30
0
70
128
71
-7
72
10
73
6
0
VERTEX
8
OBJECT011
10
0
20
0
30
0
70
128
71
3
72
7
73
-6
0
VERTEX
8
OBJECT011
10
0
20
0
30
0
70
128
71
-3
72
6
73
4
0
VERTEX
8
OBJECT011
10
0
20
0
30
0
70
128
71
8
72
2
73
-1
0
VERTEX
8
OBJECT011
10
0
20
0
30
0
70
128
71
-8
72
1
73
9
0
VERTEX
8
OBJECT011
10
0
20
0
30
0
70
128
71
10
72
5
73
-4
0
VERTEX
8
OBJECT011
10
0
20
0
30
0
70
128
71
-10
72
4
73
6
0
VERTEX
8
OBJECT011
10
0
20
0
30
0
70
128
71
7
72
3
73
-2
0
VERTEX
8
OBJECT011
10
0
20
0
30
0
70
128
71
-7
72
2
73
8
0
VERTEX
8
OBJECT011
10
0
20
0
30
0
70
128
71
9
72
1
73
-5
0
VERTEX
8
OBJECT011
10
0
20
0
30
0
70
128
71
-9
72
5
73
10
0
SEQEND
8
OBJECT011
0
POLYLINE
8
OBJECT012
66
1
70
64
71
8
72
12
62
50
0
VERTEX
8
OBJECT012
10
-58.889030
20
-54.483425
30
53.332031
70
192
0
VERTEX
8
OBJECT012
10
-58.889030
20
53.149673
30
53.332031
70
192
0
VERTEX
8
OBJECT012
10
-58.889030
20
51.696220
30
50.000000
70
192
0
VERTEX
8
OBJECT012
10
-58.889030
20
-53.029976
30
50.000000
70
192
0
VERTEX
8
OBJECT012
10
-66.000023
20
51.696220
30
50.000000
70
192
0
VERTEX
8
OBJECT012
10
-66.000023
20
53.149673
30
53.332031
70
192
0
VERTEX
8
OBJECT012
10
-66.000023
20
-54.483425
30
53.332031
70
192
0
VERTEX
8
OBJECT012
10
-66.000023
20
-53.029976
30
50.000000
70
192
0
VERTEX
8
OBJECT012
10
0
20
0
30
0
70
128
71
2
72
3
73
-4
0
VERTEX
8
OBJECT012
10
0
20
0
30
0
70
128
71
-2
72
4
73
1
0
VERTEX
8
OBJECT012
10
0
20
0
30
0
70
128
71
6
72
7
73
-8
0
VERTEX
8
OBJECT012
10
0
20
0
30
0
70
128
71
-6
72
8
73
5
0
VERTEX
8
OBJECT012
10
0
20
0
30
0
70
128
71
6
72
2
73
-1
0
VERTEX
8
OBJECT012
10
0
20
0
30
0
70
128
71
-6
72
1
73
7
0
VERTEX
8
OBJECT012
10
0
20
0
30
0
70
128
71
5
72
3
73
-2
0
VERTEX
8
OBJECT012
10
0
20
0
30
0
70
128
71
-5
72
2
73
6
0
VERTEX
8
OBJECT012
10
0
20
0
30
0
70
128
71
4
72
8
73
-7
0
VERTEX
8
OBJECT012
10
0
20
0
30
0
70
128
71
-4
72
7
73
1
0
VERTEX
8
OBJECT012
10
0
20
0
30
0
70
128
71
8
72
4
73
-3
0
VERTEX
8
OBJECT012
10
0
20
0
30
0
70
128
71
-8
72
3
73
5
0
SEQEND
8
OBJECT012
0
POLYLINE
8
OBJECT013
66
1
70
64
71
16
72
28
62
50
0
VERTEX
8
OBJECT013
10
-58.889030
20
51.696663
30
-50.000000
70
192
0
VERTEX
8
OBJECT013
10
-58.889030
20
-53.029976
30
-50.000000
70
192
0
VERTEX
8
OBJECT013
10
-58.889030
20
-61.757309
30
-40.000000
70
192
0
VERTEX
8
OBJECT013
10
-58.889030
20
-61.757309
30
40.000000
70
192
0
VERTEX
8
OBJECT013
10
-58.889030
20
-53.029976
30
50.000000
70
192
0
VERTEX
8
OBJECT013
10
-58.889030
20
51.696342
30
50.000000
70
192
0
VERTEX
8
OBJECT013
10
-58.889030
20
60.424004
30
40.000000
70
192
0
VERTEX
8
OBJECT013
10
-58.889030
20
60.424004
30
-40.000000
70
192
0
VERTEX
8
OBJECT013
10
-66.000023
20
-53.029976
30
-50.000000
70
192
0
VERTEX
8
OBJECT013
10
-66.000023
20
51.696663
30
-50.000000
70
192
0
VERTEX
8
OBJECT013
10
-66.000023
20
60.424004
30
-40.000000
70
192
0
VERTEX
8
OBJECT013
10
-66.000023
20
60.424004
30
40.000000
70
192
0
VERTEX
8
OBJECT013
10
-66.000023
20
51.696342
30
50.000000
70
192
0
VERTEX
8
OBJECT013
10
-66.000023
20
-53.029976
30
50.000000
70
192
0
VERTEX
8
OBJECT013
10
-66.000023
20
-61.757309
30
40.000000
70
192
0
VERTEX
8
OBJECT013
10
-66.000023
20
-61.757309
30
-40.000000
70
192
0
VERTEX
8
OBJECT013
10
0
20
0
30
0
70
128
71
2
72
3
73
-4
0
VERTEX
8
OBJECT013
10
0
20
0
30
0
70
128
71
-2
72
4
73
-5
0
VERTEX
8
OBJECT013
10
0
20
0
30
0
70
128
71
-2
72
5
73
-6
0
VERTEX
8
OBJECT013
10
0
20
0
30
0
70
128
71
-2
72
6
73
-7
0
VERTEX
8
OBJECT013
10
0
20
0
30
0
70
128
71
-2
72
7
73
-8
0
VERTEX
8
OBJECT013
10
0
20
0
30
0
70
128
71
-2
72
8
73
1
0
VERTEX
8
OBJECT013
10
0
20
0
30
0
70
128
71
10
72
11
73
-12
0
VERTEX
8
OBJECT013
10
0
20
0
30
0
70
128
71
-10
72
12
73
-13
0
VERTEX
8
OBJECT013
10
0
20
0
30
0
70
128
71
-10
72
13
73
-14
0
VERTEX
8
OBJECT013
10
0
20
0
30
0
70
128
71
-10
72
14
73
-15
0
VERTEX
8
OBJECT013
10
0
20
0
30
0
70
128
71
-10
72
15
73
-16
0
VERTEX
8
OBJECT013
10
0
20
0
30
0
70
128
71
-10
72
16
73
9
0
VERTEX
8
OBJECT013
10
0
20
0
30
0
70
128
71
13
72
6
73
-5
0
VERTEX
8
OBJECT013
10
0
20
0
30
0
70
128
71
-13
72
5
73
14
0
VERTEX
8
OBJECT013
10
0
20
0
30
0
70
128
71
9
72
2
73
-1
0
VERTEX
8
OBJECT013
10
0
20
0
30
0
70
128
71
-9
72
1
73
10
0
VERTEX
8
OBJECT013
10
0
20
0
30
0
70
128
71
12
72
7
73
-6
0
VERTEX
8
OBJECT013
10
0
20
0
30
0
70
128
71
-12
72
6
73
13
0
VERTEX
8
OBJECT013
10
0
20
0
30
0
70
128
71
3
72
16
73
-15
0
VERTEX
8
OBJECT013
10
0
20
0
30
0
70
128
71
-3
72
15
73
4
0
VERTEX
8
OBJECT013
10
0
20
0
30
0
70
128
71
11
72
8
73
-7
0
VERTEX
8
OBJECT013
10
0
20
0
30
0
70
128
71
-11
72
7
73
12
0
VERTEX
8
OBJECT013
10
0
20
0
30
0
70
128
71
10
72
1
73
-8
0
VERTEX
8
OBJECT013
10
0
20
0
30
0
70
128
71
-10
72
8
73
11
0
VERTEX
8
OBJECT013
10
0
20
0
30
0
70
128
71
16
72
3
73
-2
0
VERTEX
8
OBJECT013
10
0
20
0
30
0
70
128
71
-16
72
2
73
9
0
VERTEX
8
OBJECT013
10
0
20
0
30
0
70
128
71
14
72
5
73
-4
0
VERTEX
8
OBJECT013
10
0
20
0
30
0
70
128
71
-14
72
4
73
15
0
SEQEND
8
OBJECT013
0
POLYLINE
8
OBJECT014
66
1
70
64
71
10
72
16
62
50
0
VERTEX
8
OBJECT014
10
-58.889030
20
-54.483833
30
53.333702
70
192
0
VERTEX
8
OBJECT014
10
-58.889030
20
-53.029037
30
50.000000
70
192
0
VERTEX
8
OBJECT014
10
-58.889030
20
-61.756943
30
40.000000
70
192
0
VERTEX
8
OBJECT014
10
-58.889030
20
-64.666656
30
41.666656
70
192
0
VERTEX
8
OBJECT014
10
-58.889030
20
-64.666656
30
53.333702
70
192
0
VERTEX
8
OBJECT014
10
-66.000023
20
-64.666656
30
41.666656
70
192
0
VERTEX
8
OBJECT014
10
-66.000023
20
-61.756943
30
40.000000
70
192
0
VERTEX
8
OBJECT014
10
-66.000023
20
-53.029037
30
50.000000
70
192
0
VERTEX
8
OBJECT014
10
-66.000023
20
-54.483833
30
53.333702
70
192
0
VERTEX
8
OBJECT014
10
-66.000023
20
-64.666656
30
53.333702
70
192
0
VERTEX
8
OBJECT014
10
0
20
0
30
0
70
128
71
2
72
3
73
-4
0
VERTEX
8
OBJECT014
10
0
20
0
30
0
70
128
71
-2
72
4
73
-5
0
VERTEX
8
OBJECT014
10
0
20
0
30
0
70
128
71
-2
72
5
73
1
0
VERTEX
8
OBJECT014
10
0
20
0
30
0
70
128
71
7
72
8
73
-9
0
VERTEX
8
OBJECT014
10
0
20
0
30
0
70
128
71
-7
72
9
73
-10
0
VERTEX
8
OBJECT014
10
0
20
0
30
0
70
128
71
-7
72
10
73
6
0
VERTEX
8
OBJECT014
10
0
20
0
30
0
70
128
71
8
72
2
73
-1
0
VERTEX
8
OBJECT014
10
0
20
0
30
0
70
128
71
-8
72
1
73
9
0
VERTEX
8
OBJECT014
10
0
20
0
30
0
70
128
71
6
72
4
73
-3
0
VERTEX
8
OBJECT014
10
0
20
0
30
0
70
128
71
-6
72
3
73
7
0
VERTEX
8
OBJECT014
10
0
20
0
30
0
70
128
71
9
72
1
73
-5
0
VERTEX
8
OBJECT014
10
0
20
0
30
0
70
128
71
-9
72
5
73
10
0
VERTEX
8
OBJECT014
10
0
20
0
30
0
70
128
71
7
72
3
73
-2
0
VERTEX
8
OBJECT014
10
0
20
0
30
0
70
128
71
-7
72
2
73
8
0
VERTEX
8
OBJECT014
10
0
20
0
30
0
70
128
71
4
72
6
73
-10
0
VERTEX
8
OBJECT014
10
0
20
0
30
0
70
128
71
-4
72
10
73
5
0
SEQEND
8
OBJECT014
0
POLYLINE
8
OBJECT015
66
1
70
64
71
8
72
12
62
50
0
VERTEX
8
OBJECT015
10
-58.889030
20
51.697685
30
-50.000000
70
192
0
VERTEX
8
OBJECT015
10
-58.889030
20
53.151047
30
-53.332031
70
192
0
VERTEX
8
OBJECT015
10
-58.889030
20
-54.483345
30
-53.332031
70
192
0
VERTEX
8
OBJECT015
10
-58.889030
20
-53.029976
30
-50.000000
70
192
0
VERTEX
8
OBJECT015
10
-66.000023
20
-54.483345
30
-53.332031
70
192
0
VERTEX
8
OBJECT015
10
-66.000023
20
53.151047
30
-53.332031
70
192
0
VERTEX
8
OBJECT015
10
-66.000023
20
51.697685
30
-50.000000
70
192
0
VERTEX
8
OBJECT015
10
-66.000023
20
-53.029976
30
-50.000000
70
192
0
VERTEX
8
OBJECT015
10
0
20
0
30
0
70
128
71
2
72
3
73
-4
0
VERTEX
8
OBJECT015
10
0
20
0
30
0
70
128
71
-2
72
4
73
1
0
VERTEX
8
OBJECT015
10
0
20
0
30
0
70
128
71
6
72
7
73
-8
0
VERTEX
8
OBJECT015
10
0
20
0
30
0
70
128
71
-6
72
8
73
5
0
VERTEX
8
OBJECT015
10
0
20
0
30
0
70
128
71
5
72
3
73
-2
0
VERTEX
8
OBJECT015
10
0
20
0
30
0
70
128
71
-5
72
2
73
6
0
VERTEX
8
OBJECT015
10
0
20
0
30
0
70
128
71
6
72
2
73
-1
0
VERTEX
8
OBJECT015
10
0
20
0
30
0
70
128
71
-6
72
1
73
7
0
VERTEX
8
OBJECT015
10
0
20
0
30
0
70
128
71
3
72
5
73
-8
0
VERTEX
8
OBJECT015
10
0
20
0
30
0
70
128
71
-3
72
8
73
4
0
VERTEX
8
OBJECT015
10
0
20
0
30
0
70
128
71
7
72
1
73
-4
0
VERTEX
8
OBJECT015
10
0
20
0
30
0
70
128
71
-7
72
4
73
8
0
SEQEND
8
OBJECT015
0
POLYLINE
8
OBJECT016
66
1
70
64
71
8
72
12
62
50
0
VERTEX
8
OBJECT016
10
-58.889030
20
-64.666656
30
-41.666992
70
192
0
VERTEX
8
OBJECT016
10
-58.889030
20
-64.666656
30
41.666115
70
192
0
VERTEX
8
OBJECT016
10
-58.889030
20
-61.757309
30
40.000000
70
192
0
VERTEX
8
OBJECT016
10
-58.889030
20
-61.757309
30
-40.000000
70
192
0
VERTEX
8
OBJECT016
10
-66.000023
20
-64.666656
30
41.666115
70
192
0
VERTEX
8
OBJECT016
10
-66.000023
20
-64.666656
30
-41.666992
70
192
0
VERTEX
8
OBJECT016
10
-66.000023
20
-61.757309
30
-40.000000
70
192
0
VERTEX
8
OBJECT016
10
-66.000023
20
-61.757309
30
40.000000
70
192
0
VERTEX
8
OBJECT016
10
0
20
0
30
0
70
128
71
2
72
3
73
-4
0
VERTEX
8
OBJECT016
10
0
20
0
30
0
70
128
71
-2
72
4
73
1
0
VERTEX
8
OBJECT016
10
0
20
0
30
0
70
128
71
6
72
7
73
-8
0
VERTEX
8
OBJECT016
10
0
20
0
30
0
70
128
71
-6
72
8
73
5
0
VERTEX
8
OBJECT016
10
0
20
0
30
0
70
128
71
1
72
6
73
-5
0
VERTEX
8
OBJECT016
10
0
20
0
30
0
70
128
71
-1
72
5
73
2
0
VERTEX
8
OBJECT016
10
0
20
0
30
0
70
128
71
8
72
3
73
-2
0
VERTEX
8
OBJECT016
10
0
20
0
30
0
70
128
71
-8
72
2
73
5
0
VERTEX
8
OBJECT016
10
0
20
0
30
0
70
128
71
6
72
1
73
-4
0
VERTEX
8
OBJECT016
10
0
20
0
30
0
70
128
71
-6
72
4
73
7
0
VERTEX
8
OBJECT016
10
0
20
0
30
0
70
128
71
7
72
4
73
-3
0
VERTEX
8
OBJECT016
10
0
20
0
30
0
70
128
71
-7
72
3
73
8
0
SEQEND
8
OBJECT016
0
POLYLINE
8
OBJECT017
66
1
70
64
71
10
72
16
62
50
0
VERTEX
8
OBJECT017
10
-58.889030
20
-53.030544
30
-50.000000
70
192
0
VERTEX
8
OBJECT017
10
-58.889030
20
-54.485947
30
-53.332993
70
192
0
VERTEX
8
OBJECT017
10
-58.889030
20
-64.666656
30
-53.332993
70
192
0
VERTEX
8
OBJECT017
10
-58.889030
20
-64.666656
30
-41.666870
70
192
0
VERTEX
8
OBJECT017
10
-58.889030
20
-61.757961
30
-40.000000
70
192
0
VERTEX
8
OBJECT017
10
-66.000023
20
-54.485947
30
-53.332993
70
192
0
VERTEX
8
OBJECT017
10
-66.000023
20
-53.030544
30
-50.000000
70
192
0
VERTEX
8
OBJECT017
10
-66.000023
20
-61.757961
30
-40.000000
70
192
0
VERTEX
8
OBJECT017
10
-66.000023
20
-64.666656
30
-41.666870
70
192
0
VERTEX
8
OBJECT017
10
-66.000023
20
-64.666656
30
-53.332993
70
192
0
VERTEX
8
OBJECT017
10
0
20
0
30
0
70
128
71
2
72
3
73
-4
0
VERTEX
8
OBJECT017
10
0
20
0
30
0
70
128
71
-2
72
4
73
-5
0
VERTEX
8
OBJECT017
10
0
20
0
30
0
70
128
71
-2
72
5
73
1
0
VERTEX
8
OBJECT017
10
0
20
0
30
0
70
128
71
7
72
8
73
-9
0
VERTEX
8
OBJECT017
10
0
20
0
30
0
70
128
71
-7
72
9
73
-10
0
VERTEX
8
OBJECT017
10
0
20
0
30
0
70
128
71
-7
72
10
73
6
0
VERTEX
8
OBJECT017
10
0
20
0
30
0
70
128
71
6
72
2
73
-1
0
VERTEX
8
OBJECT017
10
0
20
0
30
0
70
128
71
-6
72
1
73
7
0
VERTEX
8
OBJECT017
10
0
20
0
30
0
70
128
71
8
72
5
73
-4
0
VERTEX
8
OBJECT017
10
0
20
0
30
0
70
128
71
-8
72
4
73
9
0
VERTEX
8
OBJECT017
10
0
20
0
30
0
70
128
71
10
72
3
73
-2
0
VERTEX
8
OBJECT017
10
0
20
0
30
0
70
128
71
-10
72
2
73
6
0
VERTEX
8
OBJECT017
10
0
20
0
30
0
70
128
71
7
72
1
73
-5
0
VERTEX
8
OBJECT017
10
0
20
0
30
0
70
128
71
-7
72
5
73
8
0
VERTEX
8
OBJECT017
10
0
20
0
30
0
70
128
71
3
72
10
73
-9
0
VERTEX
8
OBJECT017
10
0
20
0
30
0
70
128
71
-3
72
9
73
4
0
SEQEND
8
OBJECT017
0
POLYLINE
8
OBJECT018
66
1
70
64
71
10
72
16
62
50
0
VERTEX
8
OBJECT018
10
54.888977
20
53.150276
30
64.000000
70
192
0
VERTEX
8
OBJECT018
10
51.332489
20
51.695404
30
64.000000
70
192
0
VERTEX
8
OBJECT018
10
40.666565
20
60.423508
30
64.000000
70
192
0
VERTEX
8
OBJECT018
10
42.443878
20
63.333344
30
64.000000
70
192
0
VERTEX
8
OBJECT018
10
54.888977
20
63.333344
30
64.000000
70
192
0
VERTEX
8
OBJECT018
10
42.443878
20
63.333344
30
53.333702
70
192
0
VERTEX
8
OBJECT018
10
40.666565
20
60.423508
30
53.333702
70
192
0
VERTEX
8
OBJECT018
10
51.332489
20
51.695404
30
53.333702
70
192
0
VERTEX
8
OBJECT018
10
54.888977
20
53.150276
30
53.333702
70
192
0
VERTEX
8
OBJECT018
10
54.888977
20
63.333344
30
53.333702
70
192
0
VERTEX
8
OBJECT018
10
0
20
0
30
0
70
128
71
2
72
3
73
-4
0
VERTEX
8
OBJECT018
10
0
20
0
30
0
70
128
71
-2
72
4
73
-5
0
VERTEX
8
OBJECT018
10
0
20
0
30
0
70
128
71
-2
72
5
73
1
0
VERTEX
8
OBJECT018
10
0
20
0
30
0
70
128
71
7
72
8
73
-9
0
VERTEX
8
OBJECT018
10
0
20
0
30
0
70
128
71
-7
72
9
73
-10
0
VERTEX
8
OBJECT018
10
0
20
0
30
0
70
128
71
-7
72
10
73
6
0
VERTEX
8
OBJECT018
10
0
20
0
30
0
70
128
71
8
72
2
73
-1
0
VERTEX
8
OBJECT018
10
0
20
0
30
0
70
128
71
-8
72
1
73
9
0
VERTEX
8
OBJECT018
10
0
20
0
30
0
70
128
71
6
72
4
73
-3
0
VERTEX
8
OBJECT018
10
0
20
0
30
0
70
128
71
-6
72
3
73
7
0
VERTEX
8
OBJECT018
10
0
20
0
30
0
70
128
71
9
72
1
73
-5
0
VERTEX
8
OBJECT018
10
0
20
0
30
0
70
128
71
-9
72
5
73
10
0
VERTEX
8
OBJECT018
10
0
20
0
30
0
70
128
71
7
72
3
73
-2
0
VERTEX
8
OBJECT018
10
0
20
0
30
0
70
128
71
-7
72
2
73
8
0
VERTEX
8
OBJECT018
10
0
20
0
30
0
70
128
71
10
72
5
73
-4
0
VERTEX
8
OBJECT018
10
0
20
0
30
0
70
128
71
-10
72
4
73
6
0
SEQEND
8
OBJECT018
0
POLYLINE
8
OBJECT019
66
1
70
64
71
8
72
12
62
50
0
VERTEX
8
OBJECT019
10
-44.668114
20
60.424004
30
64.000000
70
192
0
VERTEX
8
OBJECT019
10
-46.446129
20
63.333344
30
64.000000
70
192
0
VERTEX
8
OBJECT019
10
42.444981
20
63.333344
30
64.000000
70
192
0
VERTEX
8
OBJECT019
10
40.667973
20
60.424004
30
64.000000
70
192
0
VERTEX
8
OBJECT019
10
42.444981
20
63.333344
30
53.333702
70
192
0
VERTEX
8
OBJECT019
10
-46.446129
20
63.333344
30
53.333702
70
192
0
VERTEX
8
OBJECT019
10
-44.668114
20
60.424004
30
53.333702
70
192
0
VERTEX
8
OBJECT019
10
40.667973
20
60.424004
30
53.333702
70
192
0
VERTEX
8
OBJECT019
10
0
20
0
30
0
70
128
71
2
72
3
73
-4
0
VERTEX
8
OBJECT019
10
0
20
0
30
0
70
128
71
-2
72
4
73
1
0
VERTEX
8
OBJECT019
10
0
20
0
30
0
70
128
71
6
72
7
73
-8
0
VERTEX
8
OBJECT019
10
0
20
0
30
0
70
128
71
-6
72
8
73
5
0
VERTEX
8
OBJECT019
10
0
20
0
30
0
70
128
71
5
72
3
73
-2
0
VERTEX
8
OBJECT019
10
0
20
0
30
0
70
128
71
-5
72
2
73
6
0
VERTEX
8
OBJECT019
10
0
20
0
30
0
70
128
71
6
72
2
73
-1
0
VERTEX
8
OBJECT019
10
0
20
0
30
0
70
128
71
-6
72
1
73
7
0
VERTEX
8
OBJECT019
10
0
20
0
30
0
70
128
71
8
72
4
73
-3
0
VERTEX
8
OBJECT019
10
0
20
0
30
0
70
128
71
-8
72
3
73
5
0
VERTEX
8
OBJECT019
10
0
20
0
30
0
70
128
71
7
72
1
73
-4
0
VERTEX
8
OBJECT019
10
0
20
0
30
0
70
128
71
-7
72
4
73
8
0
SEQEND
8
OBJECT019
0
POLYLINE
8
OBJECT020
66
1
70
64
71
10
72
16
62
50
0
VERTEX
8
OBJECT020
10
-55.332848
20
51.697601
30
64.000000
70
192
0
VERTEX
8
OBJECT020
10
-58.889030
20
53.151947
30
64.000000
70
192
0
VERTEX
8
OBJECT020
10
-58.889030
20
63.333344
30
64.000000
70
192
0
VERTEX
8
OBJECT020
10
-46.446163
20
63.333344
30
64.000000
70
192
0
VERTEX
8
OBJECT020
10
-44.667747
20
60.423347
30
64.000000
70
192
0
VERTEX
8
OBJECT020
10
-58.889030
20
53.151947
30
53.333702
70
192
0
VERTEX
8
OBJECT020
10
-55.332848
20
51.697601
30
53.333702
70
192
0
VERTEX
8
OBJECT020
10
-44.667747
20
60.423347
30
53.333702
70
192
0
VERTEX
8
OBJECT020
10
-46.446163
20
63.333344
30
53.333702
70
192
0
VERTEX
8
OBJECT020
10
-58.889030
20
63.333344
30
53.333702
70
192
0
VERTEX
8
OBJECT020
10
0
20
0
30
0
70
128
71
2
72
3
73
-4
0
VERTEX
8
OBJECT020
10
0
20
0
30
0
70
128
71
-2
72
4
73
-5
0
VERTEX
8
OBJECT020
10
0
20
0
30
0
70
128
71
-2
72
5
73
1
0
VERTEX
8
OBJECT020
10
0
20
0
30
0
70
128
71
7
72
8
73
-9
0
VERTEX
8
OBJECT020
10
0
20
0
30
0
70
128
71
-7
72
9
73
-10
0
VERTEX
8
OBJECT020
10
0
20
0
30
0
70
128
71
-7
72
10
73
6
0
VERTEX
8
OBJECT020
10
0
20
0
30
0
70
128
71
6
72
2
73
-1
0
VERTEX
8
OBJECT020
10
0
20
0
30
0
70
128
71
-6
72
1
73
7
0
VERTEX
8
OBJECT020
10
0
20
0
30
0
70
128
71
8
72
5
73
-4
0
VERTEX
8
OBJECT020
10
0
20
0
30
0
70
128
71
-8
72
4
73
9
0
VERTEX
8
OBJECT020
10
0
20
0
30
0
70
128
71
10
72
3
73
-2
0
VERTEX
8
OBJECT020
10
0
20
0
30
0
70
128
71
-10
72
2
73
6
0
VERTEX
8
OBJECT020
10
0
20
0
30
0
70
128
71
7
72
1
73
-5
0
VERTEX
8
OBJECT020
10
0
20
0
30
0
70
128
71
-7
72
5
73
8
0
VERTEX
8
OBJECT020
10
0
20
0
30
0
70
128
71
9
72
4
73
-3
0
VERTEX
8
OBJECT020
10
0
20
0
30
0
70
128
71
-9
72
3
73
10
0
SEQEND
8
OBJECT020
0
POLYLINE
8
OBJECT021
66
1
70
64
71
8
72
12
62
50
0
VERTEX
8
OBJECT021
10
-58.890648
20
-54.485703
30
64.000000
70
192
0
VERTEX
8
OBJECT021
10
-58.890648
20
53.152718
30
64.000000
70
192
0
VERTEX
8
OBJECT021
10
-55.333031
20
51.696991
30
64.000000
70
192
0
VERTEX
8
OBJECT021
10
-55.333031
20
-53.029976
30
64.000000
70
192
0
VERTEX
8
OBJECT021
10
-55.333031
20
51.696991
30
53.333702
70
192
0
VERTEX
8
OBJECT021
10
-58.890648
20
53.152718
30
53.333702
70
192
0
VERTEX
8
OBJECT021
10
-58.890648
20
-54.485703
30
53.333702
70
192
0
VERTEX
8
OBJECT021
10
-55.333031
20
-53.029976
30
53.333702
70
192
0
VERTEX
8
OBJECT021
10
0
20
0
30
0
70
128
71
2
72
3
73
-4
0
VERTEX
8
OBJECT021
10
0
20
0
30
0
70
128
71
-2
72
4
73
1
0
VERTEX
8
OBJECT021
10
0
20
0
30
0
70
128
71
6
72
7
73
-8
0
VERTEX
8
OBJECT021
10
0
20
0
30
0
70
128
71
-6
72
8
73
5
0
VERTEX
8
OBJECT021
10
0
20
0
30
0
70
128
71
6
72
2
73
-1
0
VERTEX
8
OBJECT021
10
0
20
0
30
0
70
128
71
-6
72
1
73
7
0
VERTEX
8
OBJECT021
10
0
20
0
30
0
70
128
71
5
72
3
73
-2
0
VERTEX
8
OBJECT021
10
0
20
0
30
0
70
128
71
-5
72
2
73
6
0
VERTEX
8
OBJECT021
10
0
20
0
30
0
70
128
71
7
72
1
73
-4
0
VERTEX
8
OBJECT021
10
0
20
0
30
0
70
128
71
-7
72
4
73
8
0
VERTEX
8
OBJECT021
10
0
20
0
30
0
70
128
71
8
72
4
73
-3
0
VERTEX
8
OBJECT021
10
0
20
0
30
0
70
128
71
-8
72
3
73
5
0
SEQEND
8
OBJECT021
0
POLYLINE
8
OBJECT022
66
1
70
64
71
16
72
28
62
50
0
VERTEX
8
OBJECT022
10
-55.332054
20
-53.029934
30
64.000000
70
192
0
VERTEX
8
OBJECT022
10
-55.332054
20
51.698044
30
64.000000
70
192
0
VERTEX
8
OBJECT022
10
-44.669796
20
60.424004
30
64.000000
70
192
0
VERTEX
8
OBJECT022
10
40.664978
20
60.424004
30
64.000000
70
192
0
VERTEX
8
OBJECT022
10
51.332977
20
51.696663
30
64.000000
70
192
0
VERTEX
8
OBJECT022
10
51.332977
20
-53.029976
30
64.000000
70
192
0
VERTEX
8
OBJECT022
10
40.666931
20
-61.757309
30
64.000000
70
192
0
VERTEX
8
OBJECT022
10
-44.667015
20
-61.757309
30
64.000000
70
192
0
VERTEX
8
OBJECT022
10
-55.332054
20
51.698044
30
53.333702
70
192
0
VERTEX
8
OBJECT022
10
-55.332054
20
-53.029934
30
53.333702
70
192
0
VERTEX
8
OBJECT022
10
-44.667015
20
-61.757309
30
53.333702
70
192
0
VERTEX
8
OBJECT022
10
40.666931
20
-61.757309
30
53.333702
70
192
0
VERTEX
8
OBJECT022
10
51.332977
20
-53.029976
30
53.333702
70
192
0
VERTEX
8
OBJECT022
10
51.332977
20
51.696663
30
53.333702
70
192
0
VERTEX
8
OBJECT022
10
40.664978
20
60.424004
30
53.333702
70
192
0
VERTEX
8
OBJECT022
10
-44.669796
20
60.424004
30
53.333702
70
192
0
VERTEX
8
OBJECT022
10
0
20
0
30
0
70
128
71
2
72
3
73
-4
0
VERTEX
8
OBJECT022
10
0
20
0
30
0
70
128
71
-2
72
4
73
-5
0
VERTEX
8
OBJECT022
10
0
20
0
30
0
70
128
71
-2
72
5
73
-6
0
VERTEX
8
OBJECT022
10
0
20
0
30
0
70
128
71
-2
72
6
73
-7
0
VERTEX
8
OBJECT022
10
0
20
0
30
0
70
128
71
-2
72
7
73
-8
0
VERTEX
8
OBJECT022
10
0
20
0
30
0
70
128
71
-2
72
8
73
1
0
VERTEX
8
OBJECT022
10
0
20
0
30
0
70
128
71
10
72
11
73
-12
0
VERTEX
8
OBJECT022
10
0
20
0
30
0
70
128
71
-10
72
12
73
-13
0
VERTEX
8
OBJECT022
10
0
20
0
30
0
70
128
71
-10
72
13
73
-14
0
VERTEX
8
OBJECT022
10
0
20
0
30
0
70
128
71
-10
72
14
73
-15
0
VERTEX
8
OBJECT022
10
0
20
0
30
0
70
128
71
-10
72
15
73
-16
0
VERTEX
8
OBJECT022
10
0
20
0
30
0
70
128
71
-10
72
16
73
9
0
VERTEX
8
OBJECT022
10
0
20
0
30
0
70
128
71
9
72
2
73
-1
0
VERTEX
8
OBJECT022
10
0
20
0
30
0
70
128
71
-9
72
1
73
10
0
VERTEX
8
OBJECT022
10
0
20
0
30
0
70
128
71
13
72
6
73
-5
0
VERTEX
8
OBJECT022
10
0
20
0
30
0
70
128
71
-13
72
5
73
14
0
VERTEX
8
OBJECT022
10
0
20
0
30
0
70
128
71
16
72
3
73
-2
0
VERTEX
8
OBJECT022
10
0
20
0
30
0
70
128
71
-16
72
2
73
9
0
VERTEX
8
OBJECT022
10
0
20
0
30
0
70
128
71
11
72
8
73
-7
0
VERTEX
8
OBJECT022
10
0
20
0
30
0
70
128
71
-11
72
7
73
12
0
VERTEX
8
OBJECT022
10
0
20
0
30
0
70
128
71
15
72
4
73
-3
0
VERTEX
8
OBJECT022
10
0
20
0
30
0
70
128
71
-15
72
3
73
16
0
VERTEX
8
OBJECT022
10
0
20
0
30
0
70
128
71
14
72
5
73
-4
0
VERTEX
8
OBJECT022
10
0
20
0
30
0
70
128
71
-14
72
4
73
15
0
VERTEX
8
OBJECT022
10
0
20
0
30
0
70
128
71
12
72
7
73
-6
0
VERTEX
8
OBJECT022
10
0
20
0
30
0
70
128
71
-12
72
6
73
13
0
VERTEX
8
OBJECT022
10
0
20
0
30
0
70
128
71
10
72
1
73
-8
0
VERTEX
8
OBJECT022
10
0
20
0
30
0
70
128
71
-10
72
8
73
11
0
SEQEND
8
OBJECT022
0
POLYLINE
8
OBJECT023
66
1
70
64
71
10
72
16
62
50
0
VERTEX
8
OBJECT023
10
-58.889030
20
-54.484646
30
64.000000
70
192
0
VERTEX
8
OBJECT023
10
-55.333031
20
-53.029976
30
64.000000
70
192
0
VERTEX
8
OBJECT023
10
-44.667355
20
-61.757065
30
64.000000
70
192
0
VERTEX
8
OBJECT023
10
-46.445522
20
-64.666656
30
64.000000
70
192
0
VERTEX
8
OBJECT023
10
-58.889030
20
-64.666656
30
64.000000
70
192
0
VERTEX
8
OBJECT023
10
-55.333031
20
-53.029976
30
53.333702
70
192
0
VERTEX
8
OBJECT023
10
-58.889030
20
-54.484646
30
53.333702
70
192
0
VERTEX
8
OBJECT023
10
-58.889030
20
-64.666656
30
53.333702
70
192
0
VERTEX
8
OBJECT023
10
-46.445522
20
-64.666656
30
53.333702
70
192
0
VERTEX
8
OBJECT023
10
-44.667355
20
-61.757065
30
53.333702
70
192
0
VERTEX
8
OBJECT023
10
0
20
0
30
0
70
128
71
2
72
3
73
-4
0
VERTEX
8
OBJECT023
10
0
20
0
30
0
70
128
71
-2
72
4
73
-5
0
VERTEX
8
OBJECT023
10
0
20
0
30
0
70
128
71
-2
72
5
73
1
0
VERTEX
8
OBJECT023
10
0
20
0
30
0
70
128
71
7
72
8
73
-9
0
VERTEX
8
OBJECT023
10
0
20
0
30
0
70
128
71
-7
72
9
73
-10
0
VERTEX
8
OBJECT023
10
0
20
0
30
0
70
128
71
-7
72
10
73
6
0
VERTEX
8
OBJECT023
10
0
20
0
30
0
70
128
71
6
72
2
73
-1
0
VERTEX
8
OBJECT023
10
0
20
0
30
0
70
128
71
-6
72
1
73
7
0
VERTEX
8
OBJECT023
10
0
20
0
30
0
70
128
71
9
72
4
73
-3
0
VERTEX
8
OBJECT023
10
0
20
0
30
0
70
128
71
-9
72
3
73
10
0
VERTEX
8
OBJECT023
10
0
20
0
30
0
70
128
71
7
72
1
73
-5
0
VERTEX
8
OBJECT023
10
0
20
0
30
0
70
128
71
-7
72
5
73
8
0
VERTEX
8
OBJECT023
10
0
20
0
30
0
70
128
71
10
72
3
73
-2
0
VERTEX
8
OBJECT023
10
0
20
0
30
0
70
128
71
-10
72
2
73
6
0
VERTEX
8
OBJECT023
10
0
20
0
30
0
70
128
71
8
72
5
73
-4
0
VERTEX
8
OBJECT023
10
0
20
0
30
0
70
128
71
-8
72
4
73
9
0
SEQEND
8
OBJECT023
0
POLYLINE
8
OBJECT024
66
1
70
64
71
8
72
12
62
50
0
VERTEX
8
OBJECT024
10
51.332977
20
51.696991
30
64.000000
70
192
0
VERTEX
8
OBJECT024
10
54.890594
20
53.152718
30
64.000000
70
192
0
VERTEX
8
OBJECT024
10
54.890594
20
-54.485703
30
64.000000
70
192
0
VERTEX
8
OBJECT024
10
51.332977
20
-53.029976
30
64.000000
70
192
0
VERTEX
8
OBJECT024
10
54.890594
20
-54.485703
30
53.333702
70
192
0
VERTEX
8
OBJECT024
10
54.890594
20
53.152718
30
53.333702
70
192
0
VERTEX
8
OBJECT024
10
51.332977
20
51.696991
30
53.333702
70
192
0
VERTEX
8
OBJECT024
10
51.332977
20
-53.029976
30
53.333702
70
192
0
VERTEX
8
OBJECT024
10
0
20
0
30
0
70
128
71
2
72
3
73
-4
0
VERTEX
8
OBJECT024
10
0
20
0
30
0
70
128
71
-2
72
4
73
1
0
VERTEX
8
OBJECT024
10
0
20
0
30
0
70
128
71
6
72
7
73
-8
0
VERTEX
8
OBJECT024
10
0
20
0
30
0
70
128
71
-6
72
8
73
5
0
VERTEX
8
OBJECT024
10
0
20
0
30
0
70
128
71
5
72
3
73
-2
0
VERTEX
8
OBJECT024
10
0
20
0
30
0
70
128
71
-5
72
2
73
6
0
VERTEX
8
OBJECT024
10
0
20
0
30
0
70
128
71
6
72
2
73
-1
0
VERTEX
8
OBJECT024
10
0
20
0
30
0
70
128
71
-6
72
1
73
7
0
VERTEX
8
OBJECT024
10
0
20
0
30
0
70
128
71
8
72
4
73
-3
0
VERTEX
8
OBJECT024
10
0
20
0
30
0
70
128
71
-8
72
3
73
5
0
VERTEX
8
OBJECT024
10
0
20
0
30
0
70
128
71
7
72
1
73
-4
0
VERTEX
8
OBJECT024
10
0
20
0
30
0
70
128
71
-7
72
4
73
8
0
SEQEND
8
OBJECT024
0
POLYLINE
8
OBJECT025
66
1
70
64
71
8
72
12
62
50
0
VERTEX
8
OBJECT025
10
42.444981
20
-64.666656
30
64.000000
70
192
0
VERTEX
8
OBJECT025
10
-46.446129
20
-64.666656
30
64.000000
70
192
0
VERTEX
8
OBJECT025
10
-44.668114
20
-61.757309
30
64.000000
70
192
0
VERTEX
8
OBJECT025
10
40.666962
20
-61.757309
30
64.000000
70
192
0
VERTEX
8
OBJECT025
10
-44.668114
20
-61.757309
30
53.333702
70
192
0
VERTEX
8
OBJECT025
10
-46.446129
20
-64.666656
30
53.333702
70
192
0
VERTEX
8
OBJECT025
10
42.444981
20
-64.666656
30
53.333702
70
192
0
VERTEX
8
OBJECT025
10
40.666962
20
-61.757309
30
53.333702
70
192
0
VERTEX
8
OBJECT025
10
0
20
0
30
0
70
128
71
2
72
3
73
-4
0
VERTEX
8
OBJECT025
10
0
20
0
30
0
70
128
71
-2
72
4
73
1
0
VERTEX
8
OBJECT025
10
0
20
0
30
0
70
128
71
6
72
7
73
-8
0
VERTEX
8
OBJECT025
10
0
20
0
30
0
70
128
71
-6
72
8
73
5
0
VERTEX
8
OBJECT025
10
0
20
0
30
0
70
128
71
6
72
2
73
-1
0
VERTEX
8
OBJECT025
10
0
20
0
30
0
70
128
71
-6
72
1
73
7
0
VERTEX
8
OBJECT025
10
0
20
0
30
0
70
128
71
5
72
3
73
-2
0
VERTEX
8
OBJECT025
10
0
20
0
30
0
70
128
71
-5
72
2
73
6
0
VERTEX
8
OBJECT025
10
0
20
0
30
0
70
128
71
7
72
1
73
-4
0
VERTEX
8
OBJECT025
10
0
20
0
30
0
70
128
71
-7
72
4
73
8
0
VERTEX
8
OBJECT025
10
0
20
0
30
0
70
128
71
8
72
4
73
-3
0
VERTEX
8
OBJECT025
10
0
20
0
30
0
70
128
71
-8
72
3
73
5
0
SEQEND
8
OBJECT025
0
POLYLINE
8
OBJECT026
66
1
70
64
71
10
72
16
62
50
0
VERTEX
8
OBJECT026
10
42.446350
20
-64.666656
30
64.000000
70
192
0
VERTEX
8
OBJECT026
10
40.667881
20
-61.756538
30
64.000000
70
192
0
VERTEX
8
OBJECT026
10
51.333435
20
-53.029568
30
64.000000
70
192
0
VERTEX
8
OBJECT026
10
54.888977
20
-54.484482
30
64.000000
70
192
0
VERTEX
8
OBJECT026
10
54.888977
20
-64.666656
30
64.000000
70
192
0
VERTEX
8
OBJECT026
10
54.888977
20
-54.484482
30
53.333702
70
192
0
VERTEX
8
OBJECT026
10
51.333435
20
-53.029568
30
53.333702
70
192
0
VERTEX
8
OBJECT026
10
40.667881
20
-61.756538
30
53.333702
70
192
0
VERTEX
8
OBJECT026
10
42.446350
20
-64.666656
30
53.333702
70
192
0
VERTEX
8
OBJECT026
10
54.888977
20
-64.666656
30
53.333702
70
192
0
VERTEX
8
OBJECT026
10
0
20
0
30
0
70
128
71
2
72
3
73
-4
0
VERTEX
8
OBJECT026
10
0
20
0
30
0
70
128
71
-2
72
4
73
-5
0
VERTEX
8
OBJECT026
10
0
20
0
30
0
70
128
71
-2
72
5
73
1
0
VERTEX
8
OBJECT026
10
0
20
0
30
0
70
128
71
7
72
8
73
-9
0
VERTEX
8
OBJECT026
10
0
20
0
30
0
70
128
71
-7
72
9
73
-10
0
VERTEX
8
OBJECT026
10
0
20
0
30
0
70
128
71
-7
72
10
73
6
0
VERTEX
8
OBJECT026
10
0
20
0
30
0
70
128
71
6
72
4
73
-3
0
VERTEX
8
OBJECT026
10
0
20
0
30
0
70
128
71
-6
72
3
73
7
0
VERTEX
8
OBJECT026
10
0
20
0
30
0
70
128
71
8
72
2
73
-1
0
VERTEX
8
OBJECT026
10
0
20
0
30
0
70
128
71
-8
72
1
73
9
0
VERTEX
8
OBJECT026
10
0
20
0
30
0
70
128
71
10
72
5
73
-4
0
VERTEX
8
OBJECT026
10
0
20
0
30
0
70
128
71
-10
72
4
73
6
0
VERTEX
8
OBJECT026
10
0
20
0
30
0
70
128
71
7
72
3
73
-2
0
VERTEX
8
OBJECT026
10
0
20
0
30
0
70
128
71
-7
72
2
73
8
0
VERTEX
8
OBJECT026
10
0
20
0
30
0
70
128
71
9
72
1
73
-5
0
VERTEX
8
OBJECT026
10
0
20
0
30
0
70
128
71
-9
72
5
73
10
0
SEQEND
8
OBJECT026
0
POLYLINE
8
OBJECT027
66
1
70
64
71
10
72
16
62
50
0
VERTEX
8
OBJECT027
10
61.999969
20
53.151344
30
-53.332993
70
192
0
VERTEX
8
OBJECT027
10
61.999969
20
51.696091
30
-50.000000
70
192
0
VERTEX
8
OBJECT027
10
61.999969
20
60.424202
30
-40.000000
70
192
0
VERTEX
8
OBJECT027
10
61.999969
20
63.333344
30
-41.667618
70
192
0
VERTEX
8
OBJECT027
10
61.999969
20
63.333344
30
-53.332993
70
192
0
VERTEX
8
OBJECT027
10
54.888977
20
51.696091
30
-50.000000
70
192
0
VERTEX
8
OBJECT027
10
54.888977
20
53.151344
30
-53.332993
70
192
0
VERTEX
8
OBJECT027
10
54.888977
20
63.333344
30
-53.332993
70
192
0
VERTEX
8
OBJECT027
10
54.888977
20
63.333344
30
-41.667618
70
192
0
VERTEX
8
OBJECT027
10
54.888977
20
60.424202
30
-40.000000
70
192
0
VERTEX
8
OBJECT027
10
0
20
0
30
0
70
128
71
2
72
3
73
-4
0
VERTEX
8
OBJECT027
10
0
20
0
30
0
70
128
71
-2
72
4
73
-5
0
VERTEX
8
OBJECT027
10
0
20
0
30
0
70
128
71
-2
72
5
73
1
0
VERTEX
8
OBJECT027
10
0
20
0
30
0
70
128
71
7
72
8
73
-9
0
VERTEX
8
OBJECT027
10
0
20
0
30
0
70
128
71
-7
72
9
73
-10
0
VERTEX
8
OBJECT027
10
0
20
0
30
0
70
128
71
-7
72
10
73
6
0
VERTEX
8
OBJECT027
10
0
20
0
30
0
70
128
71
1
72
7
73
-6
0
VERTEX
8
OBJECT027
10
0
20
0
30
0
70
128
71
-1
72
6
73
2
0
VERTEX
8
OBJECT027
10
0
20
0
30
0
70
128
71
9
72
4
73
-3
0
VERTEX
8
OBJECT027
10
0
20
0
30
0
70
128
71
-9
72
3
73
10
0
VERTEX
8
OBJECT027
10
0
20
0
30
0
70
128
71
7
72
1
73
-5
0
VERTEX
8
OBJECT027
10
0
20
0
30
0
70
128
71
-7
72
5
73
8
0
VERTEX
8
OBJECT027
10
0
20
0
30
0
70
128
71
10
72
3
73
-2
0
VERTEX
8
OBJECT027
10
0
20
0
30
0
70
128
71
-10
72
2
73
6
0
VERTEX
8
OBJECT027
10
0
20
0
30
0
70
128
71
8
72
5
73
-4
0
VERTEX
8
OBJECT027
10
0
20
0
30
0
70
128
71
-8
72
4
73
9
0
SEQEND
8
OBJECT027
0
POLYLINE
8
OBJECT028
66
1
70
64
71
8
72
12
62
50
0
VERTEX
8
OBJECT028
10
61.999969
20
63.333344
30
41.666039
70
192
0
VERTEX
8
OBJECT028
10
61.999969
20
63.333344
30
-41.667999
70
192
0
VERTEX
8
OBJECT028
10
61.999969
20
60.424004
30
-40.000000
70
192
0
VERTEX
8
OBJECT028
10
61.999969
20
60.424004
30
40.000000
70
192
0
VERTEX
8
OBJECT028
10
54.888977
20
63.333344
30
-41.667999
70
192
0
VERTEX
8
OBJECT028
10
54.888977
20
63.333344
30
41.666039
70
192
0
VERTEX
8
OBJECT028
10
54.888977
20
60.424004
30
40.000000
70
192
0
VERTEX
8
OBJECT028
10
54.888977
20
60.424004
30
-40.000000
70
192
0
VERTEX
8
OBJECT028
10
0
20
0
30
0
70
128
71
2
72
3
73
-4
0
VERTEX
8
OBJECT028
10
0
20
0
30
0
70
128
71
-2
72
4
73
1
0
VERTEX
8
OBJECT028
10
0
20
0
30
0
70
128
71
6
72
7
73
-8
0
VERTEX
8
OBJECT028
10
0
20
0
30
0
70
128
71
-6
72
8
73
5
0
VERTEX
8
OBJECT028
10
0
20
0
30
0
70
128
71
5
72
2
73
-1
0
VERTEX
8
OBJECT028
10
0
20
0
30
0
70
128
71
-5
72
1
73
6
0
VERTEX
8
OBJECT028
10
0
20
0
30
0
70
128
71
6
72
1
73
-4
0
VERTEX
8
OBJECT028
10
0
20
0
30
0
70
128
71
-6
72
4
73
7
0
VERTEX
8
OBJECT028
10
0
20
0
30
0
70
128
71
8
72
3
73
-2
0
VERTEX
8
OBJECT028
10
0
20
0
30
0
70
128
71
-8
72
2
73
5
0
VERTEX
8
OBJECT028
10
0
20
0
30
0
70
128
71
3
72
8
73
-7
0
VERTEX
8
OBJECT028
10
0
20
0
30
0
70
128
71
-3
72
7
73
4
0
SEQEND
8
OBJECT028
0
POLYLINE
8
OBJECT029
66
1
70
64
71
10
72
16
62
50
0
VERTEX
8
OBJECT029
10
61.999969
20
63.333344
30
41.667465
70
192
0
VERTEX
8
OBJECT029
10
61.999969
20
60.423676
30
40.000000
70
192
0
VERTEX
8
OBJECT029
10
61.999969
20
51.696869
30
50.000000
70
192
0
VERTEX
8
OBJECT029
10
61.999969
20
53.151787
30
53.333702
70
192
0
VERTEX
8
OBJECT029
10
61.999969
20
63.333344
30
53.333702
70
192
0
VERTEX
8
OBJECT029
10
54.888977
20
53.151787
30
53.333702
70
192
0
VERTEX
8
OBJECT029
10
54.888977
20
51.696869
30
50.000000
70
192
0
VERTEX
8
OBJECT029
10
54.888977
20
60.423676
30
40.000000
70
192
0
VERTEX
8
OBJECT029
10
54.888977
20
63.333344
30
41.667465
70
192
0
VERTEX
8
OBJECT029
10
54.888977
20
63.333344
30
53.333702
70
192
0
VERTEX
8
OBJECT029
10
0
20
0
30
0
70
128
71
2
72
3
73
-4
0
VERTEX
8
OBJECT029
10
0
20
0
30
0
70
128
71
-2
72
4
73
-5
0
VERTEX
8
OBJECT029
10
0
20
0
30
0
70
128
71
-2
72
5
73
1
0
VERTEX
8
OBJECT029
10
0
20
0
30
0
70
128
71
7
72
8
73
-9
0
VERTEX
8
OBJECT029
10
0
20
0
30
0
70
128
71
-7
72
9
73
-10
0
VERTEX
8
OBJECT029
10
0
20
0
30
0
70
128
71
-7
72
10
73
6
0
VERTEX
8
OBJECT029
10
0
20
0
30
0
70
128
71
3
72
7
73
-6
0
VERTEX
8
OBJECT029
10
0
20
0
30
0
70
128
71
-3
72
6
73
4
0
VERTEX
8
OBJECT029
10
0
20
0
30
0
70
128
71
8
72
2
73
-1
0
VERTEX
8
OBJECT029
10
0
20
0
30
0
70
128
71
-8
72
1
73
9
0
VERTEX
8
OBJECT029
10
0
20
0
30
0
70
128
71
10
72
5
73
-4
0
VERTEX
8
OBJECT029
10
0
20
0
30
0
70
128
71
-10
72
4
73
6
0
VERTEX
8
OBJECT029
10
0
20
0
30
0
70
128
71
7
72
3
73
-2
0
VERTEX
8
OBJECT029
10
0
20
0
30
0
70
128
71
-7
72
2
73
8
0
VERTEX
8
OBJECT029
10
0
20
0
30
0
70
128
71
9
72
1
73
-5
0
VERTEX
8
OBJECT029
10
0
20
0
30
0
70
128
71
-9
72
5
73
10
0
SEQEND
8
OBJECT029
0
POLYLINE
8
OBJECT030
66
1
70
64
71
8
72
12
62
50
0
VERTEX
8
OBJECT030
10
61.999969
20
-54.483425
30
53.332031
70
192
0
VERTEX
8
OBJECT030
10
61.999969
20
53.149673
30
53.332031
70
192
0
VERTEX
8
OBJECT030
10
61.999969
20
51.696220
30
50.000000
70
192
0
VERTEX
8
OBJECT030
10
61.999969
20
-53.029976
30
50.000000
70
192
0
VERTEX
8
OBJECT030
10
54.888977
20
51.696220
30
50.000000
70
192
0
VERTEX
8
OBJECT030
10
54.888977
20
53.149673
30
53.332031
70
192
0
VERTEX
8
OBJECT030
10
54.888977
20
-54.483425
30
53.332031
70
192
0
VERTEX
8
OBJECT030
10
54.888977
20
-53.029976
30
50.000000
70
192
0
VERTEX
8
OBJECT030
10
0
20
0
30
0
70
128
71
2
72
3
73
-4
0
VERTEX
8
OBJECT030
10
0
20
0
30
0
70
128
71
-2
72
4
73
1
0
VERTEX
8
OBJECT030
10
0
20
0
30
0
70
128
71
6
72
7
73
-8
0
VERTEX
8
OBJECT030
10
0
20
0
30
0
70
128
71
-6
72
8
73
5
0
VERTEX
8
OBJECT030
10
0
20
0
30
0
70
128
71
6
72
2
73
-1
0
VERTEX
8
OBJECT030
10
0
20
0
30
0
70
128
71
-6
72
1
73
7
0
VERTEX
8
OBJECT030
10
0
20
0
30
0
70
128
71
5
72
3
73
-2
0
VERTEX
8
OBJECT030
10
0
20
0
30
0
70
128
71
-5
72
2
73
6
0
VERTEX
8
OBJECT030
10
0
20
0
30
0
70
128
71
4
72
8
73
-7
0
VERTEX
8
OBJECT030
10
0
20
0
30
0
70
128
71
-4
72
7
73
1
0
VERTEX
8
OBJECT030
10
0
20
0
30
0
70
128
71
8
72
4
73
-3
0
VERTEX
8
OBJECT030
10
0
20
0
30
0
70
128
71
-8
72
3
73
5
0
SEQEND
8
OBJECT030
0
POLYLINE
8
OBJECT031
66
1
70
64
71
16
72
28
62
50
0
VERTEX
8
OBJECT031
10
61.999969
20
51.696663
30
-50.000000
70
192
0
VERTEX
8
OBJECT031
10
61.999969
20
-53.029976
30
-50.000000
70
192
0
VERTEX
8
OBJECT031
10
61.999969
20
-61.757309
30
-40.000000
70
192
0
VERTEX
8
OBJECT031
10
61.999969
20
-61.757309
30
40.000000
70
192
0
VERTEX
8
OBJECT031
10
61.999969
20
-53.029976
30
50.000000
70
192
0
VERTEX
8
OBJECT031
10
61.999969
20
51.696342
30
50.000000
70
192
0
VERTEX
8
OBJECT031
10
61.999969
20
60.424004
30
40.000000
70
192
0
VERTEX
8
OBJECT031
10
61.999969
20
60.424004
30
-40.000000
70
192
0
VERTEX
8
OBJECT031
10
54.888977
20
-53.029976
30
-50.000000
70
192
0
VERTEX
8
OBJECT031
10
54.888977
20
51.696663
30
-50.000000
70
192
0
VERTEX
8
OBJECT031
10
54.888977
20
60.424004
30
-40.000000
70
192
0
VERTEX
8
OBJECT031
10
54.888977
20
60.424004
30
40.000000
70
192
0
VERTEX
8
OBJECT031
10
54.888977
20
51.696342
30
50.000000
70
192
0
VERTEX
8
OBJECT031
10
54.888977
20
-53.029976
30
50.000000
70
192
0
VERTEX
8
OBJECT031
10
54.888977
20
-61.757309
30
40.000000
70
192
0
VERTEX
8
OBJECT031
10
54.888977
20
-61.757309
30
-40.000000
70
192
0
VERTEX
8
OBJECT031
10
0
20
0
30
0
70
128
71
2
72
3
73
-4
0
VERTEX
8
OBJECT031
10
0
20
0
30
0
70
128
71
-2
72
4
73
-5
0
VERTEX
8
OBJECT031
10
0
20
0
30
0
70
128
71
-2
72
5
73
-6
0
VERTEX
8
OBJECT031
10
0
20
0
30
0
70
128
71
-2
72
6
73
-7
0
VERTEX
8
OBJECT031
10
0
20
0
30
0
70
128
71
-2
72
7
73
-8
0
VERTEX
8
OBJECT031
10
0
20
0
30
0
70
128
71
-2
72
8
73
1
0
VERTEX
8
OBJECT031
10
0
20
0
30
0
70
128
71
10
72
11
73
-12
0
VERTEX
8
OBJECT031
10
0
20
0
30
0
70
128
71
-10
72
12
73
-13
0
VERTEX
8
OBJECT031
10
0
20
0
30
0
70
128
71
-10
72
13
73
-14
0
VERTEX
8
OBJECT031
10
0
20
0
30
0
70
128
71
-10
72
14
73
-15
0
VERTEX
8
OBJECT031
10
0
20
0
30
0
70
128
71
-10
72
15
73
-16
0
VERTEX
8
OBJECT031
10
0
20
0
30
0
70
128
71
-10
72
16
73
9
0
VERTEX
8
OBJECT031
10
0
20
0
30
0
70
128
71
13
72
6
73
-5
0
VERTEX
8
OBJECT031
10
0
20
0
30
0
70
128
71
-13
72
5
73
14
0
VERTEX
8
OBJECT031
10
0
20
0
30
0
70
128
71
9
72
2
73
-1
0
VERTEX
8
OBJECT031
10
0
20
0
30
0
70
128
71
-9
72
1
73
10
0
VERTEX
8
OBJECT031
10
0
20
0
30
0
70
128
71
12
72
7
73
-6
0
VERTEX
8
OBJECT031
10
0
20
0
30
0
70
128
71
-12
72
6
73
13
0
VERTEX
8
OBJECT031
10
0
20
0
30
0
70
128
71
3
72
16
73
-15
0
VERTEX
8
OBJECT031
10
0
20
0
30
0
70
128
71
-3
72
15
73
4
0
VERTEX
8
OBJECT031
10
0
20
0
30
0
70
128
71
11
72
8
73
-7
0
VERTEX
8
OBJECT031
10
0
20
0
30
0
70
128
71
-11
72
7
73
12
0
VERTEX
8
OBJECT031
10
0
20
0
30
0
70
128
71
10
72
1
73
-8
0
VERTEX
8
OBJECT031
10
0
20
0
30
0
70
128
71
-10
72
8
73
11
0
VERTEX
8
OBJECT031
10
0
20
0
30
0
70
128
71
16
72
3
73
-2
0
VERTEX
8
OBJECT031
10
0
20
0
30
0
70
128
71
-16
72
2
73
9
0
VERTEX
8
OBJECT031
10
0
20
0
30
0
70
128
71
14
72
5
73
-4
0
VERTEX
8
OBJECT031
10
0
20
0
30
0
70
128
71
-14
72
4
73
15
0
SEQEND
8
OBJECT031
0
POLYLINE
8
OBJECT032
66
1
70
64
71
10
72
16
62
50
0
VERTEX
8
OBJECT032
10
61.999969
20
-54.483833
30
53.333702
70
192
0
VERTEX
8
OBJECT032
10
61.999969
20
-53.029037
30
50.000000
70
192
0
VERTEX
8
OBJECT032
10
61.999969
20
-61.756905
30
40.000000
70
192
0
VERTEX
8
OBJECT032
10
61.999969
20
-64.666656
30
41.666672
70
192
0
VERTEX
8
OBJECT032
10
61.999969
20
-64.666656
30
53.333702
70
192
0
VERTEX
8
OBJECT032
10
54.888977
20
-64.666656
30
41.666672
70
192
0
VERTEX
8
OBJECT032
10
54.888977
20
-61.756905
30
40.000000
70
192
0
VERTEX
8
OBJECT032
10
54.888977
20
-53.029037
30
50.000000
70
192
0
VERTEX
8
OBJECT032
10
54.888977
20
-54.483833
30
53.333702
70
192
0
VERTEX
8
OBJECT032
10
54.888977
20
-64.666656
30
53.333702
70
192
0
VERTEX
8
OBJECT032
10
0
20
0
30
0
70
128
71
2
72
3
73
-4
0
VERTEX
8
OBJECT032
10
0
20
0
30
0
70
128
71
-2
72
4
73
-5
0
VERTEX
8
OBJECT032
10
0
20
0
30
0
70
128
71
-2
72
5
73
1
0
VERTEX
8
OBJECT032
10
0
20
0
30
0
70
128
71
7
72
8
73
-9
0
VERTEX
8
OBJECT032
10
0
20
0
30
0
70
128
71
-7
72
9
73
-10
0
VERTEX
8
OBJECT032
10
0
20
0
30
0
70
128
71
-7
72
10
73
6
0
VERTEX
8
OBJECT032
10
0
20
0
30
0
70
128
71
8
72
2
73
-1
0
VERTEX
8
OBJECT032
10
0
20
0
30
0
70
128
71
-8
72
1
73
9
0
VERTEX
8
OBJECT032
10
0
20
0
30
0
70
128
71
6
72
4
73
-3
0
VERTEX
8
OBJECT032
10
0
20
0
30
0
70
128
71
-6
72
3
73
7
0
VERTEX
8
OBJECT032
10
0
20
0
30
0
70
128
71
9
72
1
73
-5
0
VERTEX
8
OBJECT032
10
0
20
0
30
0
70
128
71
-9
72
5
73
10
0
VERTEX
8
OBJECT032
10
0
20
0
30
0
70
128
71
7
72
3
73
-2
0
VERTEX
8
OBJECT032
10
0
20
0
30
0
70
128
71
-7
72
2
73
8
0
VERTEX
8
OBJECT032
10
0
20
0
30
0
70
128
71
4
72
6
73
-10
0
VERTEX
8
OBJECT032
10
0
20
0
30
0
70
128
71
-4
72
10
73
5
0
SEQEND
8
OBJECT032
0
POLYLINE
8
OBJECT033
66
1
70
64
71
8
72
12
62
50
0
VERTEX
8
OBJECT033
10
61.999969
20
51.697685
30
-50.000000
70
192
0
VERTEX
8
OBJECT033
10
61.999969
20
53.151047
30
-53.332031
70
192
0
VERTEX
8
OBJECT033
10
61.999969
20
-54.483345
30
-53.332031
70
192
0
VERTEX
8
OBJECT033
10
61.999969
20
-53.029976
30
-50.000000
70
192
0
VERTEX
8
OBJECT033
10
54.888977
20
-54.483345
30
-53.332031
70
192
0
VERTEX
8
OBJECT033
10
54.888977
20
53.151047
30
-53.332031
70
192
0
VERTEX
8
OBJECT033
10
54.888977
20
51.697685
30
-50.000000
70
192
0
VERTEX
8
OBJECT033
10
54.888977
20
-53.029976
30
-50.000000
70
192
0
VERTEX
8
OBJECT033
10
0
20
0
30
0
70
128
71
2
72
3
73
-4
0
VERTEX
8
OBJECT033
10
0
20
0
30
0
70
128
71
-2
72
4
73
1
0
VERTEX
8
OBJECT033
10
0
20
0
30
0
70
128
71
6
72
7
73
-8
0
VERTEX
8
OBJECT033
10
0
20
0
30
0
70
128
71
-6
72
8
73
5
0
VERTEX
8
OBJECT033
10
0
20
0
30
0
70
128
71
5
72
3
73
-2
0
VERTEX
8
OBJECT033
10
0
20
0
30
0
70
128
71
-5
72
2
73
6
0
VERTEX
8
OBJECT033
10
0
20
0
30
0
70
128
71
6
72
2
73
-1
0
VERTEX
8
OBJECT033
10
0
20
0
30
0
70
128
71
-6
72
1
73
7
0
VERTEX
8
OBJECT033
10
0
20
0
30
0
70
128
71
3
72
5
73
-8
0
VERTEX
8
OBJECT033
10
0
20
0
30
0
70
128
71
-3
72
8
73
4
0
VERTEX
8
OBJECT033
10
0
20
0
30
0
70
128
71
7
72
1
73
-4
0
VERTEX
8
OBJECT033
10
0
20
0
30
0
70
128
71
-7
72
4
73
8
0
SEQEND
8
OBJECT033
0
POLYLINE
8
OBJECT034
66
1
70
64
71
8
72
12
62
50
0
VERTEX
8
OBJECT034
10
61.999969
20
-64.666656
30
-41.666992
70
192
0
VERTEX
8
OBJECT034
10
61.999969
20
-64.666656
30
41.666115
70
192
0
VERTEX
8
OBJECT034
10
61.999969
20
-61.757309
30
40.000000
70
192
0
VERTEX
8
OBJECT034
10
61.999969
20
-61.757309
30
-40.000000
70
192
0
VERTEX
8
OBJECT034
10
54.888977
20
-64.666656
30
41.666115
70
192
0
VERTEX
8
OBJECT034
10
54.888977
20
-64.666656
30
-41.666992
70
192
0
VERTEX
8
OBJECT034
10
54.888977
20
-61.757309
30
-40.000000
70
192
0
VERTEX
8
OBJECT034
10
54.888977
20
-61.757309
30
40.000000
70
192
0
VERTEX
8
OBJECT034
10
0
20
0
30
0
70
128
71
2
72
3
73
-4
0
VERTEX
8
OBJECT034
10
0
20
0
30
0
70
128
71
-2
72
4
73
1
0
VERTEX
8
OBJECT034
10
0
20
0
30
0
70
128
71
6
72
7
73
-8
0
VERTEX
8
OBJECT034
10
0
20
0
30
0
70
128
71
-6
72
8
73
5
0
VERTEX
8
OBJECT034
10
0
20
0
30
0
70
128
71
1
72
6
73
-5
0
VERTEX
8
OBJECT034
10
0
20
0
30
0
70
128
71
-1
72
5
73
2
0
VERTEX
8
OBJECT034
10
0
20
0
30
0
70
128
71
8
72
3
73
-2
0
VERTEX
8
OBJECT034
10
0
20
0
30
0
70
128
71
-8
72
2
73
5
0
VERTEX
8
OBJECT034
10
0
20
0
30
0
70
128
71
6
72
1
73
-4
0
VERTEX
8
OBJECT034
10
0
20
0
30
0
70
128
71
-6
72
4
73
7
0
VERTEX
8
OBJECT034
10
0
20
0
30
0
70
128
71
7
72
4
73
-3
0
VERTEX
8
OBJECT034
10
0
20
0
30
0
70
128
71
-7
72
3
73
8
0
SEQEND
8
OBJECT034
0
POLYLINE
8
OBJECT035
66
1
70
64
71
10
72
16
62
50
0
VERTEX
8
OBJECT035
10
61.999969
20
-53.030544
30
-50.000000
70
192
0
VERTEX
8
OBJECT035
10
61.999969
20
-54.485947
30
-53.332993
70
192
0
VERTEX
8
OBJECT035
10
61.999969
20
-64.666656
30
-53.332993
70
192
0
VERTEX
8
OBJECT035
10
61.999969
20
-64.666656
30
-41.666870
70
192
0
VERTEX
8
OBJECT035
10
61.999969
20
-61.757961
30
-40.000000
70
192
0
VERTEX
8
OBJECT035
10
54.888977
20
-54.485947
30
-53.332993
70
192
0
VERTEX
8
OBJECT035
10
54.888977
20
-53.030544
30
-50.000000
70
192
0
VERTEX
8
OBJECT035
10
54.888977
20
-61.757961
30
-40.000000
70
192
0
VERTEX
8
OBJECT035
10
54.888977
20
-64.666656
30
-41.666870
70
192
0
VERTEX
8
OBJECT035
10
54.888977
20
-64.666656
30
-53.332993
70
192
0
VERTEX
8
OBJECT035
10
0
20
0
30
0
70
128
71
2
72
3
73
-4
0
VERTEX
8
OBJECT035
10
0
20
0
30
0
70
128
71
-2
72
4
73
-5
0
VERTEX
8
OBJECT035
10
0
20
0
30
0
70
128
71
-2
72
5
73
1
0
VERTEX
8
OBJECT035
10
0
20
0
30
0
70
128
71
7
72
8
73
-9
0
VERTEX
8
OBJECT035
10
0
20
0
30
0
70
128
71
-7
72
9
73
-10
0
VERTEX
8
OBJECT035
10
0
20
0
30
0
70
128
71
-7
72
10
73
6
0
VERTEX
8
OBJECT035
10
0
20
0
30
0
70
128
71
6
72
2
73
-1
0
VERTEX
8
OBJECT035
10
0
20
0
30
0
70
128
71
-6
72
1
73
7
0
VERTEX
8
OBJECT035
10
0
20
0
30
0
70
128
71
8
72
5
73
-4
0
VERTEX
8
OBJECT035
10
0
20
0
30
0
70
128
71
-8
72
4
73
9
0
VERTEX
8
OBJECT035
10
0
20
0
30
0
70
128
71
10
72
3
73
-2
0
VERTEX
8
OBJECT035
10
0
20
0
30
0
70
128
71
-10
72
2
73
6
0
VERTEX
8
OBJECT035
10
0
20
0
30
0
70
128
71
7
72
1
73
-5
0
VERTEX
8
OBJECT035
10
0
20
0
30
0
70
128
71
-7
72
5
73
8
0
VERTEX
8
OBJECT035
10
0
20
0
30
0
70
128
71
3
72
10
73
-9
0
VERTEX
8
OBJECT035
10
0
20
0
30
0
70
128
71
-3
72
9
73
4
0
SEQEND
8
OBJECT035
0
ENDSEC
0
EOF
